<?xml version="1.0" encoding="utf-8"?>
<!-- Generated by IcoMoon.io -->
<!DOCTYPE svg PUBLIC "-//W3C//DTD SVG 1.1//EN" "http://www.w3.org/Graphics/SVG/1.1/DTD/svg11.dtd">
<svg version="1.1" xmlns="http://www.w3.org/2000/svg" xmlns:xlink="http://www.w3.org/1999/xlink" width="20" height="20" viewBox="0 0 20 20">
<path fill="rgb(51, 113, 128)" d="M10 0.31c-5.352 0-9.691 4.338-9.691 9.691s4.339 9.69 9.691 9.69c5.352 0 9.69-4.339 9.69-9.69s-4.339-9.691-9.69-9.691z"></path>
<path fill="rgb(255, 255, 255)" d="M15.873 6.507c-0.037 0-0.068 0.038-0.068 0.086v4.704c0 0.047 0.030 0.086 0.068 0.086s0.068-0.038 0.068-0.086v-4.704c0-0.047-0.030-0.086-0.068-0.086z"></path>
<path fill="rgb(255, 255, 255)" d="M4.045 6.507c-0.037 0-0.068 0.038-0.068 0.086v4.704c0 0.047 0.030 0.086 0.068 0.086s0.068-0.038 0.068-0.086v-4.704c0-0.047-0.030-0.086-0.068-0.086z"></path>
<path fill="rgb(255, 255, 255)" d="M10.024 7.405c-0.037 0-0.068 0.038-0.068 0.086v5.602c0 0.047 0.030 0.086 0.068 0.086s0.068-0.038 0.068-0.086v-5.602c0-0.047-0.030-0.086-0.068-0.086z"></path>
<path fill="rgb(239, 203, 53)" d="M5.303 10.44c-0.018-0.028-0.051-0.043-0.084-0.039l-0.902 0.11-0.588-0.751c-0.021-0.027-0.055-0.039-0.088-0.031s-0.059 0.033-0.066 0.066l-0.207 0.931-0.862 0.29c-0.032 0.011-0.055 0.038-0.059 0.072s0.011 0.066 0.039 0.084l0.793 0.524 0.042 0.875c0.002 0.033 0.021 0.062 0.051 0.075 0.012 0.005 0.024 0.008 0.036 0.008 0.019 0 0.038-0.006 0.054-0.019l0.712-0.556 0.882 0.195c0.032 0.007 0.065-0.004 0.086-0.029s0.026-0.060 0.014-0.090l-0.34-0.808 0.49-0.814c0.017-0.029 0.017-0.065-0.002-0.093z"></path>
<path fill="rgb(7, 171, 224)" d="M16.778 6.132c-0.044-0.168-0.188-0.259-0.32-0.203-0.030 0.013-3.023 1.255-6.347 1.255-3.327 0-6.493-1.244-6.524-1.256-0.134-0.053-0.276 0.041-0.318 0.21s0.032 0.349 0.166 0.402c0.032 0.013 3.269 1.286 6.677 1.286 3.409 0 6.476-1.275 6.507-1.288 0.133-0.056 0.205-0.237 0.161-0.406z"></path>
<path fill="rgb(241, 235, 117)" d="M11.448 14.574c-0.519-0.298-0.841-0.855-0.841-1.452s0.322-1.153 0.841-1.452c0.032-0.019 0.051-0.054 0.049-0.091s-0.025-0.070-0.060-0.084c-0.216-0.091-0.445-0.136-0.681-0.136-0.972 0-1.763 0.791-1.763 1.763s0.791 1.763 1.763 1.763c0.236 0 0.465-0.046 0.681-0.137 0.034-0.014 0.057-0.047 0.060-0.084s-0.017-0.072-0.049-0.091z"></path>
<path fill="rgb(241, 235, 117)" d="M16.46 10.474c0 0.302-0.245 0.547-0.547 0.547s-0.547-0.245-0.547-0.547c0-0.302 0.245-0.547 0.547-0.547s0.547 0.245 0.547 0.547z"></path>
<path fill="rgb(241, 235, 117)" d="M16.46 12.114c0 0.302-0.245 0.547-0.547 0.547s-0.547-0.245-0.547-0.547c0-0.302 0.245-0.547 0.547-0.547s0.547 0.245 0.547 0.547z"></path>
<path fill="rgb(241, 235, 117)" d="M17.281 11.294c0 0.302-0.245 0.547-0.547 0.547s-0.547-0.245-0.547-0.547c0-0.302 0.245-0.547 0.547-0.547s0.547 0.245 0.547 0.547z"></path>
<path fill="rgb(241, 235, 117)" d="M15.64 11.294c0 0.302-0.245 0.547-0.547 0.547s-0.547-0.245-0.547-0.547c0-0.302 0.245-0.547 0.547-0.547s0.547 0.245 0.547 0.547z"></path>
<path fill="rgb(241, 235, 117)" d="M17.040 10.714c0 0.302-0.245 0.547-0.547 0.547s-0.547-0.245-0.547-0.547c0-0.302 0.245-0.547 0.547-0.547s0.547 0.245 0.547 0.547z"></path>
<path fill="rgb(241, 235, 117)" d="M15.88 11.874c0 0.302-0.245 0.547-0.547 0.547s-0.547-0.245-0.547-0.547c0-0.302 0.245-0.547 0.547-0.547s0.547 0.245 0.547 0.547z"></path>
<path fill="rgb(241, 235, 117)" d="M17.040 11.874c0 0.302-0.245 0.547-0.547 0.547s-0.547-0.245-0.547-0.547c0-0.302 0.245-0.547 0.547-0.547s0.547 0.245 0.547 0.547z"></path>
<path fill="rgb(241, 235, 117)" d="M15.88 10.714c0 0.302-0.245 0.547-0.547 0.547s-0.547-0.245-0.547-0.547c0-0.302 0.245-0.547 0.547-0.547s0.547 0.245 0.547 0.547z"></path>
<path fill="rgb(239, 203, 53)" d="M16.582 11.294c0 0.369-0.299 0.669-0.669 0.669s-0.669-0.299-0.669-0.669c0-0.369 0.299-0.669 0.669-0.669s0.669 0.299 0.669 0.669z"></path>
</svg>
