<?xml version="1.0" encoding="utf-8"?>
<!-- Generated by IcoMoon.io -->
<!DOCTYPE svg PUBLIC "-//W3C//DTD SVG 1.1//EN" "http://www.w3.org/Graphics/SVG/1.1/DTD/svg11.dtd">
<svg version="1.1" xmlns="http://www.w3.org/2000/svg" xmlns:xlink="http://www.w3.org/1999/xlink" width="20" height="20" viewBox="0 0 20 20">
<path fill="rgb(216, 219, 186)" d="M10 0.31c-5.352 0-9.691 4.338-9.691 9.691s4.339 9.69 9.691 9.69c5.352 0 9.69-4.339 9.69-9.69s-4.339-9.691-9.69-9.691z"></path>
<path fill="rgb(181, 57, 44)" d="M15.78 6.996c0-0.17-0.397-0.397-0.397-0.397-0.255-0.142-0.426-0.227-0.426-0.227l-2.185-0.114c0 0-0.568 0.568-0.511 1.39 0.042 0.612 1.362 0.419 1.362 0.419 0.142-0.312 0.965-0.617 0.965-0.617 0.227-0.113 0.738-0.085 0.738-0.085 0.567-0.057 0.454-0.369 0.454-0.369z"></path>
<path fill="rgb(203, 74, 53)" d="M15.411 5.521c-0.341 0.057-0.936 0.057-0.936 0.057-0.596 0-0.766-0.444-0.766-0.444-1.135 0.17-1.135 2.232-1.135 2.232 0.596-0.085 1.324-0.17 1.958-0.369s1.277-1.249 1.277-1.249c0.312-0.426-0.397-0.227-0.397-0.227z"></path>
<path fill="rgb(237, 201, 47)" d="M16.028 11.849c-0.189-1.569-1.837-2.271-2.225-2.762s-0.151-1.059-0.151-1.059c-0.908 0.341-1.021-0.946-1.021-0.946-0.038-0.416 0.568-0.454 0.757-0.719 0.146-0.204 0.252-0.689 0.322-0.927 0.021-0.071 0.17-0.057 0.17-0.057-2.005-3.14-4.696-0.695-5.010-0.362-2.093 2.225 0.936 4.682 0.936 4.682-2.283 0.589-3.409 0.061-3.66-0.341-1.687-2.702-2.141 0.031-2.141 0.031-0.227 5.448 2.8 6.167 2.8 6.167 3.67 1.4 6.603 0.277 7.075 0.095 1.681-0.651 2.332-2.291 2.149-3.802z"></path>
<path fill="rgb(219, 219, 219)" d="M12.706 5.559c0 0.308-0.246 0.558-0.549 0.558s-0.549-0.25-0.549-0.558c0-0.308 0.246-0.558 0.549-0.558s0.549 0.25 0.549 0.558z"></path>
<path fill="rgb(96, 96, 96)" d="M12.478 5.559c0 0.18-0.144 0.326-0.321 0.326s-0.321-0.146-0.321-0.326c0-0.18 0.144-0.326 0.321-0.326s0.321 0.146 0.321 0.326z"></path>
<path fill="rgb(211, 211, 211)" d="M12.345 5.417c0 0.074-0.059 0.134-0.131 0.134s-0.131-0.060-0.131-0.134c0-0.074 0.059-0.134 0.131-0.134s0.131 0.060 0.131 0.134z"></path>
<path fill="rgb(232, 175, 33)" d="M14.387 10.026c0 0 1.354 2.057 0.651 4.297 0 0 1.979-2.578-0.651-4.297z"></path>
<path fill="rgb(232, 175, 33)" d="M4.465 9.57c0 0-0.078 4.297 2.422 5.43 0 0-1.758-2.227-2.422-5.43z"></path>
<path fill="rgb(232, 175, 33)" d="M8.606 6.133c0 0-0.313 2.5 2.109 3.438 0 0-1.563-1.328-2.109-3.438z"></path>
</svg>
