<?xml version="1.0" encoding="utf-8"?>
<!-- Generated by IcoMoon.io -->
<!DOCTYPE svg PUBLIC "-//W3C//DTD SVG 1.1//EN" "http://www.w3.org/Graphics/SVG/1.1/DTD/svg11.dtd">
<svg version="1.1" xmlns="http://www.w3.org/2000/svg" xmlns:xlink="http://www.w3.org/1999/xlink" width="20" height="20" viewBox="0 0 20 20">
<path fill="rgb(216, 219, 186)" d="M10 0.31c-5.352 0-9.691 4.338-9.691 9.691s4.339 9.69 9.691 9.69c5.352 0 9.69-4.339 9.69-9.69s-4.339-9.691-9.69-9.691z"></path>
<path fill="rgb(14, 119, 101)" d="M11.978 12.29v1.551c0 1.105-0.859 2.005-1.914 2.005s-1.914-0.899-1.914-2.005v-1.551l-0.988-0.405v1.861c0 1.66 1.302 3.010 2.902 3.010s2.901-1.35 2.901-3.010v-1.861l-0.988 0.405z"></path>
<path fill="rgb(14, 119, 101)" d="M15.186 9.463l-0.319 0.695c-1.031-0.404-2.826-0.671-4.867-0.671s-3.836 0.267-4.867 0.671l-0.319-0.695-1.351 0.408c0 0 1.167 2.774 6.537 2.774s6.537-2.774 6.537-2.774l-1.351-0.408z"></path>
<path fill="rgb(209, 157, 11)" d="M10 3.244c-1.158 0-2.096 0.938-2.096 2.096s0.939 2.096 2.096 2.096c1.158 0 2.096-0.938 2.096-2.096s-0.939-2.096-2.096-2.096z"></path>
<path fill="rgb(20, 147, 129)" d="M10 8.095c-3.618 0-6.55 0.742-6.55 1.657s2.933 2.215 6.55 2.215c3.618 0 6.55-1.3 6.55-2.215s-2.933-1.657-6.55-1.657z"></path>
<path fill="rgb(54, 168, 149)" d="M10 8.535c-2.795 0-5.062 0.573-5.062 1.28s2.266 1.712 5.062 1.712 5.062-1.005 5.062-1.712c-0-0.707-2.266-1.28-5.062-1.28z"></path>
<path fill="rgb(20, 147, 129)" d="M10 8.875c-2.159 0-3.909 0.443-3.909 0.989s1.75 1.322 3.909 1.322 3.909-0.776 3.909-1.322c-0-0.546-1.75-0.989-3.909-0.989z"></path>
<path fill="rgb(209, 157, 11)" d="M10 9.422c-1.303 0-2.359 0.267-2.359 0.597s1.056 0.798 2.359 0.798 2.359-0.468 2.359-0.798c0-0.33-1.056-0.597-2.359-0.597z"></path>
<path fill="rgb(209, 157, 11)" d="M11.398 7.93c0-0.971 0.618-2.021 0.618-2.021h-4.031c0 0 0.618 0.997 0.618 2.039 0 0.772-0.699 2.025-0.699 2.025s0.782 0.41 2.079 0.41 2.114-0.41 2.114-0.41-0.699-1.253-0.699-2.043z"></path>
<path fill="rgb(232, 175, 33)" d="M10.989 3.961c-0.639-0.639-1.676-0.639-2.316 0s-0.639 1.676 0 2.316c0.639 0.639 2.955-1.676 2.316-2.316z"></path>
</svg>
