<?xml version="1.0" encoding="utf-8"?>
<!-- Generated by IcoMoon.io -->
<!DOCTYPE svg PUBLIC "-//W3C//DTD SVG 1.1//EN" "http://www.w3.org/Graphics/SVG/1.1/DTD/svg11.dtd">
<svg version="1.1" xmlns="http://www.w3.org/2000/svg" xmlns:xlink="http://www.w3.org/1999/xlink" width="20" height="20" viewBox="0 0 20 20">
<path fill="rgb(74, 188, 150)" d="M10 0.31c-5.352 0-9.691 4.338-9.691 9.691s4.339 9.69 9.691 9.69c5.352 0 9.69-4.339 9.69-9.69s-4.339-9.691-9.69-9.691z"></path>
<path fill="rgb(206, 76, 54)" d="M7.952 13.693l-0.809-0.226c0 0-0.357-0.131-0.107-0.381l0.69-1.071-0.464-0.048-1.214 1.428c0 0-0.202 0.262 0.274 0.369 0 0 4.069 0.607 4.89 2.332 0 0 0.119 0.059 0.131-0.25 0 0 0.167-1.761-3.391-2.153z"></path>
<path fill="rgb(206, 76, 54)" d="M9.226 14.472c0 0 0.244 0.613 0.167 0.904 0 0 0.125 0.048 0.167-0.071s0.125-0.518 0.125-0.654c-0-0.137-0.458-0.179-0.458-0.179z"></path>
<path fill="rgb(206, 76, 54)" d="M9.947 14.825c0 0 0.288 0.724 0.197 1.069 0 0 0.148 0.056 0.197-0.084s0.148-0.612 0.148-0.773c-0-0.162-0.541-0.211-0.541-0.211z"></path>
<path fill="rgb(226, 94, 64)" d="M8.23 12.066c0 0-0.143 0.262 0.071 0.627 0 0 0.024 1.547-0.024 3.054v1.618l0.349 0.016 0.381-5.037-0.777-0.278z"></path>
<path fill="rgb(216, 211, 210)" d="M7.072 10.853c0 0 0.476 0.159 0.143 1.079 0 0 0.27 0.27 0.555 0.238 0 0 0.539-0.65 0.714-0.936 0 0-0.175-1.031-1.412-0.381z"></path>
<path fill="rgb(237, 230, 228)" d="M9.658 9.727l-2.633 1.031c0 0 1.206-0.127 1.253 0.476l-0.159 0.92c0 0 0.365 0.016 0.547 0.135s0.357 0.167 0.42 0.151c0 0-0.174-1.126 0-1.475 0 0 0.222-0.888 0.571-1.237z"></path>
<path fill="rgb(102, 101, 101)" d="M9.832 7.347l-2.887 1.475c0 0-0.825 0.27-1.158 0.635 0 0-1.348 1.396-0.27 2.697 0 0 0.016-0.365 0.127-0.412l0.222 0.524c0 0 0.159-0.65 0.286-0.73 0 0 0.317 0.46 0.397 0.492 0 0 0.254-0.746 0.508-0.968 0 0 0.587-0.555 1.523-0.73 0 0 1.158-0.428 1.697-0.857l0.286-1.904-0.73-0.222z"></path>
<path fill="rgb(206, 76, 54)" d="M9.118 2.746c0 0-2.046 0.254-0.841 0.999l5.901 1.015-5.061-2.015z"></path>
<path fill="rgb(226, 94, 64)" d="M9.118 2.746c0 0-1.151 0.143-1.218 0.529-0.022 0.129 6.279 1.486 6.279 1.486l-5.061-2.015z"></path>
<path fill="rgb(237, 230, 228)" d="M11.91 7.014c0 0-0.46-1.999-2.665-2.808 0 0-1.158-0.524-1.285-0.92 0 0 0.412-0.476 1.158-0.539 0 0 0.175-1.285-1.333-1.047-0.414 0.065-1.116 0.509-1.158 1.174-0.016 0.254-0.127 1.063 0.968 1.396 0 0 2.332 0.952 1.999 1.999 0 0-0.048 0.952-1.19 1.285 0 0-1.297 0.535-1.535 1.297 0 0 1.725-0.345 2.772-1.202l-0.381 1.19c0 0 0.809-0.333 1.095-0.571 0 0-0.238 1.237-0.143 1.475 0 0 0.524-0.286 0.714-0.714 0 0 0.143 0.333 0.095 0.666 0 0 0.714-0.666 0.619-1.38 0 0 0.127 0.238 0.159 0.365 0 0 0.428-0.301 0.111-1.666z"></path>
<path fill="rgb(209, 209, 209)" d="M8.262 2.794c0 0.131-0.107 0.238-0.238 0.238s-0.238-0.107-0.238-0.238c0-0.131 0.107-0.238 0.238-0.238s0.238 0.107 0.238 0.238z"></path>
<path fill="rgb(255, 255, 255)" d="M8.236 2.794c0 0.117-0.095 0.212-0.212 0.212s-0.212-0.095-0.212-0.212c0-0.117 0.095-0.212 0.212-0.212s0.212 0.095 0.212 0.212z"></path>
<path fill="rgb(102, 101, 101)" d="M8.155 2.794c0 0.072-0.059 0.131-0.131 0.131s-0.131-0.059-0.131-0.131c0-0.072 0.059-0.131 0.131-0.131s0.131 0.059 0.131 0.131z"></path>
<path fill="rgb(237, 230, 228)" d="M8.122 2.745c0 0.027-0.022 0.049-0.049 0.049s-0.049-0.022-0.049-0.049c0-0.027 0.022-0.049 0.049-0.049s0.049 0.022 0.049 0.049z"></path>
<path fill="rgb(226, 94, 64)" d="M10.594 17.825c0.071-0.040 0.289 0.174 0.29 0.048s-0.228-0.239-0.337-0.286c-0.656-0.284-1.459-0.278-1.459-0.278-1.483-0.151-2.11 0.825-2.11 0.825-0.087 0.357 0.426-0.088 0.635-0.159 1.103-0.373 3.256 0.274 3.339 0.167s-0.428-0.277-0.357-0.317z"></path>
<path fill="rgb(233, 194, 156)" d="M16.755 7.653c-0.326-0.47-1.004-0.564-1.516-0.21s-0.662 1.023-0.336 1.493c0.326 0.47 1.004 0.564 1.516 0.21s0.662-1.022 0.336-1.493z"></path>
<path fill="rgb(233, 194, 156)" d="M15.402 7.373c-0.054-0.078-0.198-0.072-0.321 0.014s-0.179 0.218-0.125 0.295c0.054 0.078 0.205 0.077 0.328-0.008s0.172-0.223 0.118-0.301z"></path>
<path fill="rgb(214, 175, 144)" d="M14.986 8.252c-0.174 0.722 0.492 0.518 0.492 0.518-0.5 0.026-0.492-0.518-0.492-0.518z"></path>
<path fill="rgb(52, 52, 51)" d="M16.178 8.413c0.060 0.086 0.034 0.207-0.057 0.271s-0.213 0.044-0.273-0.042c-0.060-0.086-0.034-0.207 0.057-0.271s0.213-0.044 0.273 0.042z"></path>
<path fill="rgb(255, 255, 255)" d="M16.086 8.392c-0.024-0.034-0.073-0.042-0.109-0.017s-0.047 0.074-0.023 0.108c0.024 0.035 0.073 0.042 0.109 0.017s0.047-0.074 0.023-0.108z"></path>
<path fill="rgb(52, 52, 51)" d="M15.613 7.603c-0.060-0.086-0.182-0.105-0.273-0.042s-0.117 0.184-0.057 0.271c0.060 0.086 0.182 0.105 0.273 0.042s0.117-0.184 0.057-0.271z"></path>
<path fill="rgb(255, 255, 255)" d="M15.515 7.571c-0.024-0.034-0.073-0.042-0.109-0.017s-0.047 0.074-0.023 0.108c0.024 0.035 0.073 0.042 0.109 0.017s0.047-0.074 0.023-0.108z"></path>
<path fill="rgb(214, 175, 144)" d="M16.757 8.936c-0.081-0.117-0.284-0.118-0.453-0.001s-0.24 0.307-0.158 0.424c0.081 0.117 0.284 0.118 0.453 0.001s0.24-0.307 0.158-0.424z"></path>
<path fill="rgb(233, 194, 156)" d="M16.736 8.926c-0.073-0.106-0.265-0.114-0.423-0.005s-0.223 0.296-0.15 0.402c0.073 0.106 0.261 0.103 0.419-0.006s0.227-0.284 0.153-0.39z"></path>
<path fill="rgb(214, 175, 144)" d="M15.345 8.228c0 0.032-0.024 0.058-0.053 0.058s-0.053-0.026-0.053-0.058c0-0.032 0.024-0.058 0.053-0.058s0.053 0.026 0.053 0.058z"></path>
<path fill="rgb(214, 175, 144)" d="M15.505 8.411c0 0.029-0.026 0.053-0.058 0.053s-0.058-0.024-0.058-0.053c0-0.029 0.026-0.053 0.058-0.053s0.058 0.024 0.058 0.053z"></path>
<path fill="rgb(237, 201, 47)" d="M15.054 8.548l-1.483-3.92-0.149-0.033-1.396 4.406 0.009 0c-0.034 0.133-0.052 0.272-0.052 0.415 0 0.916 0.743 1.659 1.659 1.659s1.659-0.743 1.659-1.659c0-0.318-0.090-0.616-0.245-0.868z"></path>
<path fill="rgb(237, 201, 47)" d="M13.618 4.15c-0.004-0.004-0.008-0.008-0.012-0.012-0.461-0.445-0.646-0.144-0.646-0.144 0.225 0.057 0.484 0.474 0.484 0.474l0.137 0.054c0.27-0.225 0.505-0.634 0.505-0.634-0.213 0.25-0.466 0.262-0.466 0.262z"></path>
<path fill="rgb(237, 207, 84)" d="M14.684 8.365c-0.114-0.114-0.739-2.548-0.938-2.488-0.223 0.068-0.024 2.206-0.271 2.85-0.433 1.131-0.895 1.741-0.895 1.741 0.581 0.581 1.522 0.581 2.103 0s0.581-1.522 0-2.103z"></path>
</svg>
