<?xml version="1.0" encoding="utf-8"?>
<!-- Generated by IcoMoon.io -->
<!DOCTYPE svg PUBLIC "-//W3C//DTD SVG 1.1//EN" "http://www.w3.org/Graphics/SVG/1.1/DTD/svg11.dtd">
<svg version="1.1" xmlns="http://www.w3.org/2000/svg" xmlns:xlink="http://www.w3.org/1999/xlink" width="20" height="20" viewBox="0 0 20 20">
<path fill="rgb(237, 201, 47)" d="M10 0.31c-5.352 0-9.691 4.338-9.691 9.691s4.339 9.69 9.691 9.69c5.352 0 9.69-4.339 9.69-9.69s-4.339-9.691-9.69-9.691z"></path>
<path fill="rgb(142, 197, 63)" d="M17.771 7.688c-1.728-0.167-2.517 1.83-2.517 1.83l0.636 0.516c-0.005-1.899 1.658-2.067 1.658-2.067 0.669-0.167 0.223-0.279 0.223-0.279z"></path>
<path fill="rgb(100, 168, 13)" d="M4.301 9.486v0c0 3.212 2.604 5.815 5.816 5.815s5.815-2.604 5.815-5.815v-0h-11.631z"></path>
<path fill="rgb(100, 168, 13)" d="M4.301 9.486h5.844v-5.815c-3.212 0-5.844 2.603-5.844 5.815z"></path>
<path fill="rgb(114, 183, 15)" d="M4.97 6.787c-0.427 0.807-0.669 1.725-0.669 2.699h5.844l-5.175-2.699z"></path>
<path fill="rgb(114, 183, 15)" d="M6.963 4.612l3.182 4.874v-5.815c-1.171 0-2.265 0.346-3.182 0.941z"></path>
<path fill="rgb(84, 127, 8)" d="M13.547 15.111c0 0.673-0.546 1.219-1.219 1.219s-1.219-0.546-1.219-1.219c0-0.673 0.546-1.219 1.219-1.219s1.219 0.546 1.219 1.219z"></path>
<path fill="rgb(142, 197, 63)" d="M12.797 15.111c0 0.259-0.21 0.469-0.469 0.469s-0.469-0.21-0.469-0.469c0-0.259 0.21-0.469 0.469-0.469s0.469 0.21 0.469 0.469z"></path>
<path fill="rgb(84, 127, 8)" d="M9.087 15.111c0 0.673-0.546 1.219-1.219 1.219s-1.219-0.546-1.219-1.219c0-0.673 0.546-1.219 1.219-1.219s1.219 0.546 1.219 1.219z"></path>
<path fill="rgb(142, 197, 63)" d="M8.337 15.111c0 0.259-0.21 0.469-0.469 0.469s-0.469-0.21-0.469-0.469c0-0.259 0.21-0.469 0.469-0.469s0.469 0.21 0.469 0.469z"></path>
</svg>
