<?xml version="1.0" encoding="utf-8"?>
<!-- Generator: Adobe Illustrator 16.0.0, SVG Export Plug-In . SVG Version: 6.00 Build 0)  -->
<!DOCTYPE svg PUBLIC "-//W3C//DTD SVG 1.1//EN" "http://www.w3.org/Graphics/SVG/1.1/DTD/svg11.dtd">
<svg version="1.1" id="Layer_1" xmlns="http://www.w3.org/2000/svg" xmlns:xlink="http://www.w3.org/1999/xlink" x="0px" y="0px"
	 width="20px" height="20px" viewBox="0 0 20 20" enable-background="new 0 0 20 20" xml:space="preserve">
<g>
	<path fill="#4ABC96" d="M19.69,10c0,5.352-4.339,9.69-9.69,9.69S0.31,15.352,0.31,10c0-5.351,4.339-9.69,9.69-9.69
		S19.69,4.648,19.69,10z"/>
	<path fill="#505251" d="M11.272,15.729c-0.311-0.904-0.487-1.141-1.078-1.141c-0.582,0-0.785,0.299-1.076,1.141
		c-0.995,0.097-1.692,0.321-1.692,0.585c0,0.352,1.239,0.636,2.769,0.636c1.53,0,2.77-0.284,2.77-0.636
		C12.964,16.051,12.266,15.826,11.272,15.729L11.272,15.729z"/>
	<path fill="#3D4040" d="M17.203,14.083c0,0.463-0.375,0.839-0.837,0.839c0,0-3.447,0.485-6.354,0.485
		c-2.225,0-6.006-0.485-6.006-0.485c-0.463,0-0.838-0.376-0.838-0.839V5.81c0-0.463,0.375-0.838,0.838-0.838h12.358
		c0.463,0,0.837,0.375,0.837,0.838L17.203,14.083L17.203,14.083z"/>
	<path fill="#5DC0C1" d="M3.735,5.577h12.872v8.706H3.735V5.577z"/>
	<path fill="#FDF2F7" d="M8.253,10.13c0,0.371-0.301,0.67-0.671,0.67c-0.369,0-0.67-0.301-0.67-0.67c0-0.371,0.301-0.671,0.67-0.671
		C7.952,9.459,8.253,9.76,8.253,10.13z"/>
	<path fill="#FDF2F7" d="M11.635,8.988c0,0.371-0.301,0.67-0.67,0.67s-0.671-0.3-0.671-0.67c0-0.371,0.302-0.671,0.671-0.671
		S11.635,8.618,11.635,8.988z"/>
	<path fill="#FDF2F7" d="M14.974,7.475c0,0.371-0.301,0.67-0.67,0.67c-0.37,0-0.671-0.301-0.671-0.67c0-0.371,0.301-0.67,0.671-0.67
		C14.673,6.805,14.974,7.104,14.974,7.475z"/>
	<path fill="#357180" d="M16.576,6.172c-0.58-0.148-1.01,0.307-1.553,0.884c-0.04,0.042-0.079,0.084-0.12,0.127
		c0.043,0.089,0.07,0.188,0.07,0.293c0,0.371-0.301,0.67-0.672,0.67c-0.123,0-0.236-0.035-0.335-0.093
		c-0.579,0.443-1.312,0.81-2.332,0.902c-0.002,0-0.002,0-0.002,0c0,0.011,0.002,0.021,0.002,0.033c0,0.371-0.301,0.67-0.67,0.67
		c-0.294,0-0.542-0.19-0.632-0.453C9.952,9.296,9.572,9.394,9.28,9.47l-0.26,0.067c-0.317,0.08-0.602,0.16-0.864,0.25
		c0.061,0.101,0.098,0.217,0.098,0.343c0,0.371-0.301,0.67-0.671,0.67c-0.272,0-0.508-0.164-0.612-0.399
		c-0.466,0.364-0.88,0.887-1.334,1.704c-0.322,0.579-0.662,0.871-1.013,0.871c-0.008,0-0.014,0-0.021,0
		c-0.438-0.015-0.749-0.479-0.865-0.683v1.99h12.872V6.18L16.58,6.172H16.576z"/>
	<path fill="#FDF7FA" d="M3.734,11.994v0.301c0.116,0.204,0.435,0.67,0.874,0.686c0.007,0,0.014,0,0.021,0
		c0.351,0,0.692-0.295,1.013-0.871c0.999-1.799,1.8-2.164,3.385-2.568l0.26-0.067c0.667-0.173,1.784-0.461,2.354-0.514
		c1.752-0.16,2.659-1.125,3.39-1.9c0.544-0.577,0.994-1.032,1.577-0.883l-0.002-0.133c-0.659-0.169-1.101,0.314-1.675,0.924
		c-0.715,0.759-1.603,1.702-3.303,1.856c-0.583,0.054-1.706,0.345-2.376,0.519L8.993,9.41c-1.626,0.415-2.444,0.79-3.47,2.635
		c-0.301,0.54-0.607,0.811-0.91,0.8c-0.467-0.015-0.794-0.692-0.797-0.7l-0.081-0.148L3.734,11.994z"/>
	<path fill="#FDF7FA" d="M3.735,12.293L3.735,12.293l-0.001-0.002L3.735,12.293z"/>
</g>
</svg>
