<?xml version="1.0" encoding="utf-8"?>
<!-- Generated by IcoMoon.io -->
<!DOCTYPE svg PUBLIC "-//W3C//DTD SVG 1.1//EN" "http://www.w3.org/Graphics/SVG/1.1/DTD/svg11.dtd">
<svg version="1.1" xmlns="http://www.w3.org/2000/svg" xmlns:xlink="http://www.w3.org/1999/xlink" width="20" height="20" viewBox="0 0 20 20">
<path fill="rgb(150, 237, 137)" d="M0.309 10c0-5.352 4.339-9.691 9.69-9.691s9.691 4.338 9.691 9.691c0 5.352-4.339 9.69-9.691 9.69s-9.69-4.339-9.69-9.69z"></path>
<path fill="rgb(133, 209, 120)" d="M15.243 12.978l-3.172-2.818-4.22-2.86-0.537 0.511-1.611 6.087 10.352 0.036z"></path>
<path fill="rgb(59, 144, 150)" d="M15.243 13.131l-3.172-2.818-4.22-2.86-0.537 0.511-1.611 6.087 10.352 0.036z"></path>
<path fill="rgb(125, 193, 111)" d="M16.055 13.144l-4.7-6.104-2.686 2.807-2.967 4.052 10.352 0.036z"></path>
<path fill="rgb(0, 157, 181)" d="M16.055 13.298l-4.7-6.104-2.686 2.806-2.967 4.052 10.352 0.036z"></path>
<path fill="rgb(5, 116, 127)" d="M16.055 13.247l-3.6-0.693-4.604-0.266-1.304-2.917-0.998-2.322v7.004h10.504z"></path>
<path fill="rgb(0, 237, 255)" d="M16.055 13.4l-3.6-0.693-4.604-0.266-1.304-2.916-0.998-2.322v7.004h10.504z"></path>
<path fill="rgba(125, 193, 111, 0.2199999988079071)" d="M5.773 14.242v-10.258h-0.362v1.158h-0.48v0.382h0.48v0.759h-0.48v0.381h0.48v0.758h-0.48v0.381h0.48v0.759h-0.48v0.382h0.48v0.758h-0.48v0.381h0.48v0.759h-0.48v0.381h0.48v0.759h-0.48v0.381h0.48v0.759h-0.48v0.381h0.48v0.74h-0.854v0.362h0.854v0.877h0.362v-0.877h0.763v0.48h0.381v-0.48h0.759v0.48h0.382v-0.48h0.758v0.48h0.382v-0.48h0.758v0.48h0.382v-0.48h0.759v0.48h0.381v-0.48h0.759v0.48h0.381v-0.48h0.76v0.48h0.381v-0.48h0.758v0.48h0.382v-0.48h1.158v-0.362h-10.281z"></path>
<path fill="rgb(255, 255, 255)" d="M5.773 14.088v-10.258h-0.362v1.158h-0.48v0.382h0.48v0.759h-0.48v0.381h0.48v0.758h-0.48v0.381h0.48v0.759h-0.48v0.382h0.48v0.758h-0.48v0.381h0.48v0.759h-0.48v0.38h0.48v0.759h-0.48v0.381h0.48v0.759h-0.48v0.381h0.48v0.74h-0.854v0.362h0.854v0.877h0.362v-0.877h0.763v0.48h0.381v-0.48h0.759v0.48h0.382v-0.48h0.758v0.48h0.382v-0.48h0.758v0.48h0.382v-0.48h0.759v0.48h0.381v-0.48h0.759v0.48h0.381v-0.48h0.76v0.48h0.381v-0.48h0.758v0.48h0.382v-0.48h1.158v-0.362h-10.281z"></path>
</svg>
