<?xml version="1.0" encoding="utf-8"?>
<!-- Generator: Adobe Illustrator 16.0.0, SVG Export Plug-In . SVG Version: 6.00 Build 0)  -->
<!DOCTYPE svg PUBLIC "-//W3C//DTD SVG 1.1//EN" "http://www.w3.org/Graphics/SVG/1.1/DTD/svg11.dtd">
<svg version="1.1" id="Layer_1" xmlns="http://www.w3.org/2000/svg" xmlns:xlink="http://www.w3.org/1999/xlink" x="0px" y="0px"
	 width="20px" height="20px" viewBox="0 0 20 20" enable-background="new 0 0 20 20" xml:space="preserve">
<g>
	<path fill="#344E5D" d="M19.69,10c0,5.352-4.339,9.69-9.69,9.69S0.31,15.352,0.31,10c0-5.351,4.339-9.69,9.69-9.69
		S19.69,4.648,19.69,10z"/>
	<path fill="#8F8376" d="M10.083,3.575c-0.232,0-0.419,0.188-0.419,0.418V17.46c0,0.231,0.187,0.42,0.419,0.42
		c0.23,0,0.418-0.188,0.418-0.42V3.993C10.501,3.762,10.312,3.575,10.083,3.575z"/>
	<path fill="#8F8376" d="M9.914,14.647c-0.158,0.158-0.158,0.416,0,0.575l2.238,2.238c0.158,0.159,0.416,0.159,0.574,0
		c0.16-0.158,0.16-0.416,0-0.574l-2.238-2.237c-0.157-0.159-0.415-0.159-0.574,0V14.647z"/>
	<path fill="#8F8376" d="M10.244,14.647c-0.158-0.158-0.416-0.158-0.575,0l-2.237,2.239c-0.158,0.158-0.159,0.416,0,0.574
		c0.159,0.159,0.416,0.159,0.575,0l2.237-2.238C10.402,15.063,10.402,14.806,10.244,14.647z"/>
	<path fill="#597C7C" d="M16.97,12.943c0,0.444-0.36,0.804-0.805,0.804H4.313c-0.444,0-0.803-0.359-0.803-0.804V5.009
		c0-0.443,0.36-0.803,0.803-0.803h11.852c0.444,0,0.805,0.359,0.805,0.803V12.943z"/>
	<path fill="#FFFFFF" d="M16.355,12.45c0,0.403-0.327,0.73-0.73,0.73H4.855c-0.403,0-0.73-0.327-0.73-0.73V5.502
		c0-0.404,0.327-0.73,0.73-0.73h10.77c0.403,0,0.73,0.326,0.73,0.73V12.45z"/>
	<path fill="#78A4A4" d="M15.036,7.435c0,0.169-0.137,0.305-0.305,0.305h-2.639c-0.169,0-0.305-0.136-0.305-0.305
		c0-0.168,0.136-0.305,0.305-0.305h2.639C14.899,7.13,15.036,7.267,15.036,7.435z"/>
	<path fill="#78A4A4" d="M15.036,8.713c0,0.168-0.137,0.305-0.305,0.305h-2.639c-0.169,0-0.305-0.137-0.305-0.305
		c0-0.169,0.136-0.305,0.305-0.305h2.639C14.899,8.408,15.036,8.544,15.036,8.713z"/>
	<path fill="#78A4A4" d="M15.036,10.062c0,0.169-0.137,0.305-0.305,0.305h-2.639c-0.169,0-0.305-0.136-0.305-0.305
		s0.136-0.305,0.305-0.305h2.639C14.899,9.758,15.036,9.894,15.036,10.062z"/>
	<path fill="#78A4A4" d="M5.341,8.087c0-0.015,0.002-0.03,0.004-0.045C5.339,8.067,5.337,8.094,5.337,8.121
		c0.002,0.07,0.004,0.935,0.004,0.999c0,0.693,1.196,1.256,2.673,1.256V9.344C6.537,9.344,5.341,8.781,5.341,8.087L5.341,8.087z"/>
	<path fill="#78A4A4" d="M7.99,8.085h2.702v1.007H7.99V8.085z"/>
	<path fill="#DDD374" d="M10.951,9.385c0-0.064,0.003-0.929,0.005-0.999c0-0.011-0.001-0.021-0.001-0.032h-0.003
		c0,0.693-1.196,1.256-2.673,1.256v1.031C9.755,10.641,10.952,10.078,10.951,9.385L10.951,9.385z"/>
	<path fill="#EFE87F" d="M8.278,9.608c1.476,0,2.673-0.562,2.673-1.257H8.278V9.608z"/>
	<path fill="#ABC7C8" d="M10.684,8.032c-0.062-0.668-1.234-1.2-2.671-1.2c-1.443,0-2.619,0.536-2.669,1.209
		C5.343,8.056,5.34,8.072,5.34,8.086c0,0.693,1.196,1.256,2.673,1.256V8.087h2.673C10.686,8.068,10.686,8.051,10.684,8.032z"/>
</g>
</svg>
