<?xml version="1.0" encoding="utf-8"?>
<!-- Generated by IcoMoon.io -->
<!DOCTYPE svg PUBLIC "-//W3C//DTD SVG 1.1//EN" "http://www.w3.org/Graphics/SVG/1.1/DTD/svg11.dtd">
<svg version="1.1" xmlns="http://www.w3.org/2000/svg" xmlns:xlink="http://www.w3.org/1999/xlink" width="20" height="20" viewBox="0 0 20 20">
<path fill="rgb(235, 227, 203)" d="M0.309 10c0-5.352 4.339-9.691 9.69-9.691s9.691 4.338 9.691 9.691c0 5.352-4.339 9.69-9.691 9.69s-9.69-4.339-9.69-9.69z"></path>
<path fill="rgb(14, 80, 102)" d="M8.555 14.421c0.004 0.237 0.65 0.573 1.446 0.573s1.443-0.203 1.446-0.51h0l0.007-9.031-2.896-0.055-0.004 9.023z"></path>
<path fill="rgb(20, 112, 143)" d="M8.555 5.364c0-0.3 0.647-0.544 1.446-0.544s1.446 0.243 1.446 0.544-0.648 0.544-1.446 0.544c-0.799 0-1.446-0.244-1.446-0.544z"></path>
<path fill="rgb(242, 97, 1)" d="M14.993 7.434l-2.896-0.055-0.014 6.986c0 0-0.010-0.021-0.010-0.021v0.14h0.020c0.004 0.307 0.65 0.541 1.446 0.541s1.442-0.234 1.446-0.541h0l0.007-7.050z"></path>
<path fill="rgb(242, 130, 56)" d="M12.093 7.345c0-0.3 0.648-0.544 1.447-0.544s1.446 0.244 1.446 0.544c0 0.3-0.648 0.544-1.446 0.544s-1.447-0.244-1.447-0.544z"></path>
<path fill="rgb(43, 170, 156)" d="M4.853 14.421c0.004 0.237 0.665 0.512 1.461 0.512s1.461-0.248 1.461-0.556v-0.007l-0.006-6.996-2.91-0.024-0.007 7.072z"></path>
<path fill="rgb(50, 199, 183)" d="M4.853 7.345c0-0.3 0.647-0.544 1.446-0.544s1.446 0.244 1.446 0.544c0 0.3-0.647 0.544-1.446 0.544s-1.446-0.244-1.446-0.544z"></path>
</svg>
