<?xml version="1.0" encoding="utf-8"?>
<!-- Generated by IcoMoon.io -->
<!DOCTYPE svg PUBLIC "-//W3C//DTD SVG 1.1//EN" "http://www.w3.org/Graphics/SVG/1.1/DTD/svg11.dtd">
<svg version="1.1" xmlns="http://www.w3.org/2000/svg" xmlns:xlink="http://www.w3.org/1999/xlink" width="20" height="20" viewBox="0 0 20 20">
<path fill="rgb(244, 238, 235)" d="M0.309 10c0-5.352 4.339-9.691 9.69-9.691s9.691 4.338 9.691 9.691c0 5.352-4.339 9.69-9.691 9.69s-9.69-4.339-9.69-9.69z"></path>
<path fill="rgb(0, 120, 131)" d="M13.055 14.129l-0.546-0.297 0.017-8.801 0.546 0.297z"></path>
<path fill="rgb(0, 173, 187)" d="M13.071 5.328l-0.546-0.297 1.881-0.264 0.546 0.297z"></path>
<path fill="rgb(0, 186, 211)" d="M14.953 5.063l-0.016 8.8-1.882 0.265 0.016-8.801z"></path>
<path fill="rgb(0, 120, 131)" d="M10.567 14.496l-0.546-0.297 0.017-7.142 0.546 0.297z"></path>
<path fill="rgb(0, 173, 187)" d="M10.584 7.354l-0.546-0.297 1.882-0.265 0.546 0.297z"></path>
<path fill="rgb(0, 186, 211)" d="M12.466 7.090l-0.016 7.143-1.882 0.264 0.016-7.142z"></path>
<path fill="rgb(0, 120, 131)" d="M8.080 14.865l-0.546-0.297 0.017-5.116 0.546 0.297z"></path>
<path fill="rgb(0, 173, 187)" d="M8.097 9.749l-0.546-0.297 1.881-0.264 0.546 0.296z"></path>
<path fill="rgb(0, 186, 211)" d="M9.978 9.485l-0.017 5.116-1.881 0.265 0.016-5.116z"></path>
<path fill="rgb(0, 120, 131)" d="M5.593 15.234l-0.546-0.297 0.016-3.182 0.546 0.297z"></path>
<path fill="rgb(0, 173, 187)" d="M5.61 12.052l-0.546-0.297 1.882-0.264 0.546 0.297z"></path>
<path fill="rgb(0, 186, 211)" d="M7.491 11.788l-0.016 3.181-1.882 0.265 0.016-3.181z"></path>
</svg>
