<?xml version="1.0" encoding="utf-8"?>
<!-- Generator: Adobe Illustrator 16.0.0, SVG Export Plug-In . SVG Version: 6.00 Build 0)  -->
<!DOCTYPE svg PUBLIC "-//W3C//DTD SVG 1.1//EN" "http://www.w3.org/Graphics/SVG/1.1/DTD/svg11.dtd">
<svg version="1.1" id="Layer_1" xmlns="http://www.w3.org/2000/svg" xmlns:xlink="http://www.w3.org/1999/xlink" x="0px" y="0px"
	 width="20px" height="20px" viewBox="0 0 20 20" enable-background="new 0 0 20 20" xml:space="preserve">
<g>
	<path fill="#F6A2A3" d="M0.31,10c0-5.353,4.338-9.69,9.69-9.69s9.69,4.338,9.69,9.69s-4.338,9.69-9.69,9.69S0.31,15.353,0.31,10z"
		/>
	<path fill="#E84849" d="M17.493,6.377c-1.165,1.238-2.616,2.778-5.418,3.034c-0.908,0.083-2.684,0.544-3.744,0.819
		c-0.153,0.039-0.289,0.075-0.405,0.104c-2.563,0.654-3.767,1.204-5.354,4.062c-0.216,0.391-0.439,0.699-0.667,0.928
		C3.638,17.953,6.615,19.69,10,19.69c5.353,0,9.69-4.338,9.69-9.69c0-1.674-0.425-3.248-1.171-4.622
		C18.195,5.634,17.867,5.982,17.493,6.377L17.493,6.377z"/>
	<path fill="#FDF2F7" d="M5.014,12.294c0,0.662-0.537,1.199-1.198,1.199c-0.662,0-1.199-0.537-1.199-1.199
		c0-0.66,0.537-1.198,1.199-1.198C4.477,11.096,5.014,11.634,5.014,12.294z"/>
	<path fill="#FDF2F7" d="M11.135,9.681c0,0.661-0.538,1.198-1.199,1.198s-1.198-0.537-1.198-1.198c0-0.662,0.537-1.199,1.198-1.199
		S11.135,9.019,11.135,9.681z"/>
	<path fill="#FDF2F7" d="M17.599,7.283c0,0.662-0.537,1.198-1.198,1.198s-1.199-0.536-1.199-1.198c0-0.661,0.538-1.198,1.199-1.198
		S17.599,6.622,17.599,7.283z"/>
	<path fill="#FDF7FA" d="M18.43,5.224c-0.021-0.038-0.043-0.075-0.064-0.113c-0.356,0.276-0.709,0.648-1.095,1.057
		c-1.13,1.201-2.535,2.695-5.222,2.939c-0.935,0.086-2.725,0.55-3.794,0.827c-0.152,0.04-0.289,0.074-0.404,0.105
		c-2.598,0.662-3.906,1.262-5.545,4.209c-0.189,0.342-0.379,0.611-0.569,0.814c0.027,0.044,0.056,0.087,0.084,0.131
		s0.055,0.088,0.085,0.132c0.228-0.229,0.451-0.537,0.667-0.928c1.588-2.855,2.79-3.408,5.354-4.062
		c0.116-0.029,0.253-0.065,0.405-0.104c1.061-0.275,2.836-0.735,3.744-0.819c2.803-0.256,4.253-1.796,5.418-3.034
		c0.372-0.396,0.702-0.744,1.024-1C18.489,5.326,18.458,5.275,18.43,5.224L18.43,5.224z"/>
</g>
</svg>
