<?xml version="1.0" encoding="utf-8"?>
<!-- Generated by IcoMoon.io -->
<!DOCTYPE svg PUBLIC "-//W3C//DTD SVG 1.1//EN" "http://www.w3.org/Graphics/SVG/1.1/DTD/svg11.dtd">
<svg version="1.1" xmlns="http://www.w3.org/2000/svg" xmlns:xlink="http://www.w3.org/1999/xlink" width="20" height="20" viewBox="0 0 20 20">
<path fill="rgb(162, 216, 212)" d="M0.309 10c0-5.352 4.339-9.691 9.69-9.691s9.691 4.338 9.691 9.691c0 5.352-4.339 9.69-9.691 9.69s-9.69-4.339-9.69-9.69z"></path>
<path fill="rgb(255, 255, 255)" d="M3.708 5.626h1.228v8.594h-1.228v-8.594z"></path>
<path fill="rgb(255, 255, 255)" d="M5.396 5.626h1.074v8.594h-1.074v-8.594z"></path>
<path fill="rgb(255, 255, 255)" d="M7.084 5.626h0.921v8.594h-0.921v-8.594z"></path>
<path fill="rgb(255, 255, 255)" d="M8.772 5.626h0.921v8.594h-0.921v-8.594z"></path>
<path fill="rgb(255, 255, 255)" d="M10.307 5.626h0.921v8.594h-0.921v-8.594z"></path>
<path fill="rgb(255, 255, 255)" d="M11.995 5.626h0.921v8.594h-0.921v-8.594z"></path>
<path fill="rgb(255, 255, 255)" d="M13.53 5.626h1.074v8.594h-1.074v-8.594z"></path>
<path fill="rgb(255, 255, 255)" d="M15.064 5.626h1.074v8.594h-1.074v-8.594z"></path>
<path fill="rgb(26, 139, 179)" d="M3.708 11.458h1.228v2.762h-1.228v-2.762z"></path>
<path fill="rgb(26, 139, 179)" d="M5.396 9.923h1.074v4.297h-1.074v-4.297z"></path>
<path fill="rgb(26, 139, 179)" d="M7.084 8.082h0.921v6.139h-0.921v-6.139z"></path>
<path fill="rgb(26, 139, 179)" d="M8.772 6.7h0.921v7.52h-0.921v-7.52z"></path>
<path fill="rgb(26, 139, 179)" d="M10.307 7.314h0.921v6.906h-0.921v-6.906z"></path>
<path fill="rgb(26, 139, 179)" d="M11.995 8.082h0.921v6.139h-0.921v-6.139z"></path>
<path fill="rgb(26, 139, 179)" d="M13.53 9.616h1.074v4.604h-1.074v-4.604z"></path>
<path fill="rgb(26, 139, 179)" d="M15.064 11.151h1.074v3.069h-1.074v-3.069z"></path>
</svg>
