<?xml version="1.0" encoding="utf-8"?>
<!-- Generator: Adobe Illustrator 16.0.0, SVG Export Plug-In . SVG Version: 6.00 Build 0)  -->
<!DOCTYPE svg PUBLIC "-//W3C//DTD SVG 1.1//EN" "http://www.w3.org/Graphics/SVG/1.1/DTD/svg11.dtd">
<svg version="1.1" id="Layer_1" xmlns="http://www.w3.org/2000/svg" xmlns:xlink="http://www.w3.org/1999/xlink" x="0px" y="0px"
	 width="20px" height="20px" viewBox="0 0 20 20" enable-background="new 0 0 20 20" xml:space="preserve">
<g>
	<path fill="#357180" d="M19.69,10c0,5.351-4.338,9.69-9.69,9.69S0.31,15.353,0.31,10c0-5.352,4.338-9.69,9.69-9.69
		S19.69,4.647,19.69,10z"/>
	<path fill="#DAC425" d="M16.053,8.912h0.008c-0.002-0.042-0.006-0.084-0.015-0.124C16.05,8.829,16.053,8.87,16.053,8.912
		L16.053,8.912z"/>
	<path fill="#6CC077" d="M4.208,8.912c0-0.033,0.003-0.067,0.005-0.101c-0.01,0.056-0.016,0.114-0.015,0.174
		c0.004,0.157,0.01,2.069,0.01,2.215c0,1.536,2.651,2.78,5.923,2.78v-2.286C6.859,11.694,4.208,10.448,4.208,8.912z"/>
	<path fill="#63BD6E" d="M10.078,8.907h5.989v2.23h-5.989V8.907z"/>
	<path fill="#E84849" d="M16.64,11.786c0-0.145,0.007-2.059,0.011-2.216c0.003-0.024-0.002-0.048-0.002-0.072H16.64
		c0,1.536-2.65,2.781-5.922,2.781v2.288C13.989,14.567,16.64,13.322,16.64,11.786z"/>
	<path fill="#F06668" d="M10.718,12.281c3.271,0,5.922-1.246,5.922-2.782h-5.922V12.281z"/>
	<path fill="#A3D4AA" d="M16.046,8.788c-0.138-1.479-2.731-2.657-5.915-2.657c-3.199,0-5.804,1.191-5.917,2.681
		C4.212,8.845,4.209,8.879,4.209,8.912c0,1.537,2.651,2.782,5.923,2.782V8.912h5.922c0-0.041-0.004-0.083-0.006-0.124H16.046z"/>
</g>
</svg>
