<?xml version="1.0" encoding="utf-8"?>
<!-- Generated by IcoMoon.io -->
<!DOCTYPE svg PUBLIC "-//W3C//DTD SVG 1.1//EN" "http://www.w3.org/Graphics/SVG/1.1/DTD/svg11.dtd">
<svg version="1.1" xmlns="http://www.w3.org/2000/svg" xmlns:xlink="http://www.w3.org/1999/xlink" width="20" height="20" viewBox="0 0 20 20">
<path fill="rgb(162, 216, 212)" d="M0.309 10c0-5.352 4.339-9.691 9.69-9.691s9.691 4.338 9.691 9.691c0 5.352-4.339 9.69-9.691 9.69s-9.69-4.339-9.69-9.69z"></path>
<path fill="rgb(129, 114, 91)" d="M10 4.232c-0.201 0-0.363 0.162-0.363 0.363v8.283c0 0.201 0.163 0.363 0.363 0.363s0.363-0.162 0.363-0.363v-8.283c0-0.201-0.163-0.363-0.363-0.363z"></path>
<path fill="rgb(129, 114, 91)" d="M9.851 12.771c-0.111 0.111-0.111 0.29 0 0.4l2.36 2.36c0.111 0.111 0.29 0.111 0.401 0s0.111-0.29 0-0.401l-2.36-2.36c-0.111-0.111-0.29-0.111-0.401 0z"></path>
<path fill="rgb(129, 114, 91)" d="M10.175 12.771c0.111 0.111 0.111 0.29 0 0.4l-2.36 2.36c-0.111 0.111-0.29 0.111-0.4 0s-0.111-0.29 0-0.401l2.36-2.36c0.11-0.111 0.29-0.111 0.4 0z"></path>
<path fill="rgb(56, 57, 57)" d="M15.1 11.088c0 0.751-0.609 0.227-1.36 0.227h-7.367c-0.751 0-1.36 0.525-1.36-0.227v-5.667c0-0.751 0.609-0.34 1.36-0.34h7.367c0.751 0 1.36-0.411 1.36 0.34v5.667z"></path>
<path fill="rgb(129, 114, 91)" d="M15.61 4.935c0 0.188-0.213 0.34-0.476 0.34h-10.268c-0.263 0-0.476-0.152-0.476-0.34v0c0-0.188 0.213-0.34 0.476-0.34h10.268c0.263 0 0.476 0.152 0.476 0.34v0z"></path>
<path fill="rgb(129, 114, 91)" d="M15.61 11.234c0 0.188-0.213 0.34-0.476 0.34h-10.268c-0.263 0-0.476-0.152-0.476-0.34v0c0-0.188 0.213-0.34 0.476-0.34h10.268c0.263 0 0.476 0.152 0.476 0.34v0z"></path>
<path fill="rgba(22, 25, 59, 0.03000000163912775)" d="M14.463 6.371l0.001 0.058-0.001 0.137-0.001-0.058z"></path>
<path fill="rgba(22, 25, 59, 0.03000000163912775)" d="M10.229 6.46l0.001 0.058-0.001 0.313-0.001-0.058z"></path>
<path fill="rgba(22, 25, 59, 0.03000000163912775)" d="M10.772 6.462l0.001 0.058-0.001 0.313-0.001-0.058z"></path>
<path fill="rgba(22, 25, 59, 0.03000000163912775)" d="M11.314 6.464l0.001 0.058-0.002 0.313-0.001-0.058z"></path>
<path fill="rgba(22, 25, 59, 0.03000000163912775)" d="M11.858 6.466l0.001 0.058-0.002 0.313-0.001-0.058z"></path>
<path fill="rgba(22, 25, 59, 0.03000000163912775)" d="M12.4 6.468l0.001 0.058-0.002 0.313-0.001-0.058z"></path>
<path fill="rgba(22, 25, 59, 0.03000000163912775)" d="M12.943 6.47l0.001 0.058-0.002 0.313-0.001-0.058z"></path>
<path fill="rgba(22, 25, 59, 0.03000000163912775)" d="M13.377 6.471l0.001 0.058-0.002 0.313-0.001-0.058z"></path>
<path fill="rgba(22, 25, 59, 0.03000000163912775)" d="M13.92 6.473l0.001 0.058-0.002 0.313-0.001-0.058z"></path>
<path fill="rgba(22, 25, 59, 0.03000000163912775)" d="M10.227 6.879l0.001 0.058-0.002 0.418-0.001-0.058z"></path>
<path fill="rgba(22, 25, 59, 0.03000000163912775)" d="M10.77 6.881l0.001 0.058-0.002 0.418-0.001-0.058z"></path>
<path fill="rgba(22, 25, 59, 0.03000000163912775)" d="M11.312 6.883l0.001 0.058-0.002 0.418-0.001-0.058z"></path>
<path fill="rgba(22, 25, 59, 0.03000000163912775)" d="M11.855 6.885l0.001 0.058-0.002 0.418-0.001-0.058z"></path>
<path fill="rgba(22, 25, 59, 0.03000000163912775)" d="M12.398 6.887l0.001 0.058-0.002 0.418-0.001-0.058z"></path>
<path fill="rgba(22, 25, 59, 0.03000000163912775)" d="M12.941 6.889l0.001 0.058-0.002 0.418-0.001-0.058z"></path>
<path fill="rgba(22, 25, 59, 0.03000000163912775)" d="M13.375 6.89l0.001 0.058-0.002 0.418-0.001-0.058z"></path>
<path fill="rgba(22, 25, 59, 0.03000000163912775)" d="M13.918 6.892l0.001 0.058-0.002 0.418-0.001-0.058z"></path>
<path fill="rgba(22, 25, 59, 0.03000000163912775)" d="M10.224 7.401l0.001 0.058-0.003 0.523-0.001-0.058z"></path>
<path fill="rgba(22, 25, 59, 0.03000000163912775)" d="M10.767 7.403l0.001 0.058-0.003 0.523-0.001-0.058z"></path>
<path fill="rgba(22, 25, 59, 0.03000000163912775)" d="M11.31 7.405l0.001 0.058-0.003 0.523-0.001-0.058z"></path>
<path fill="rgba(22, 25, 59, 0.03000000163912775)" d="M11.853 7.407l0.001 0.058-0.003 0.523-0.001-0.058z"></path>
<path fill="rgba(22, 25, 59, 0.03000000163912775)" d="M12.395 7.409l0.001 0.058-0.003 0.523-0.001-0.058z"></path>
<path fill="rgba(22, 25, 59, 0.03000000163912775)" d="M12.938 7.411l0.001 0.058-0.003 0.523-0.001-0.058z"></path>
<path fill="rgba(22, 25, 59, 0.03000000163912775)" d="M13.372 7.412l0.001 0.058-0.003 0.523-0.001-0.058z"></path>
<path fill="rgba(22, 25, 59, 0.03000000163912775)" d="M13.915 7.414l0.001 0.058-0.003 0.523-0.001-0.058z"></path>
<path fill="rgba(22, 25, 59, 0.03000000163912775)" d="M11.851 8.093l-0.001-0.058 0.434 0.002 0.001 0.058z"></path>
<path fill="rgba(22, 25, 59, 0.03000000163912775)" d="M10.221 8.029l0.001 0.058-0.002 0.313-0.001-0.058z"></path>
<path fill="rgba(22, 25, 59, 0.03000000163912775)" d="M10.764 8.031l0.001 0.058-0.001 0.313-0.001-0.058z"></path>
<path fill="rgba(22, 25, 59, 0.03000000163912775)" d="M11.306 8.033l0.001 0.058-0.002 0.313-0.001-0.058z"></path>
<path fill="rgba(22, 25, 59, 0.03000000163912775)" d="M11.849 8.035l0.001 0.058-0.002 0.313-0.001-0.058z"></path>
<path fill="rgba(22, 25, 59, 0.03000000163912775)" d="M12.392 8.037l0.001 0.058-0.002 0.313-0.001-0.058z"></path>
<path fill="rgba(22, 25, 59, 0.03000000163912775)" d="M12.935 8.039l0.001 0.058-0.002 0.313-0.001-0.058z"></path>
<path fill="rgba(22, 25, 59, 0.03000000163912775)" d="M13.369 8.040l0.001 0.058-0.002 0.313-0.001-0.058z"></path>
<path fill="rgba(22, 25, 59, 0.03000000163912775)" d="M13.912 8.042l0.001 0.058-0.002 0.313-0.001-0.058z"></path>
<path fill="rgba(22, 25, 59, 0.03000000163912775)" d="M10.219 8.447l0.001 0.058-0.002 0.419-0.001-0.058z"></path>
<path fill="rgba(22, 25, 59, 0.03000000163912775)" d="M10.762 8.449l0.001 0.058-0.002 0.419-0.001-0.058z"></path>
<path fill="rgba(22, 25, 59, 0.03000000163912775)" d="M11.304 8.451l0.001 0.058-0.002 0.419-0.001-0.058z"></path>
<path fill="rgba(22, 25, 59, 0.03000000163912775)" d="M11.847 8.453l0.001 0.058-0.002 0.419-0.001-0.058z"></path>
<path fill="rgba(22, 25, 59, 0.03000000163912775)" d="M12.39 8.455l0.001 0.058-0.002 0.419-0.001-0.058z"></path>
<path fill="rgba(22, 25, 59, 0.03000000163912775)" d="M12.933 8.457l0.001 0.058-0.002 0.419-0.001-0.058z"></path>
<path fill="rgba(22, 25, 59, 0.03000000163912775)" d="M13.367 8.458l0.001 0.058-0.002 0.419-0.001-0.058z"></path>
<path fill="rgba(22, 25, 59, 0.03000000163912775)" d="M13.91 8.46l0.001 0.058-0.002 0.419-0.001-0.058z"></path>
<path fill="rgba(22, 25, 59, 0.03000000163912775)" d="M10.216 8.97l0.001 0.058-0.002 0.418-0.001-0.058z"></path>
<path fill="rgba(22, 25, 59, 0.03000000163912775)" d="M10.759 8.972l0.001 0.058-0.002 0.418-0.001-0.058z"></path>
<path fill="rgba(22, 25, 59, 0.03000000163912775)" d="M11.301 8.974l0.001 0.058-0.002 0.418-0.001-0.058z"></path>
<path fill="rgba(22, 25, 59, 0.03000000163912775)" d="M11.845 8.976l0.001 0.058-0.002 0.418-0.001-0.058z"></path>
<path fill="rgba(22, 25, 59, 0.03000000163912775)" d="M12.387 8.978l0.001 0.058-0.002 0.418-0.001-0.058z"></path>
<path fill="rgba(22, 25, 59, 0.03000000163912775)" d="M12.93 8.98l0.001 0.058-0.002 0.418-0.001-0.058z"></path>
<path fill="rgba(22, 25, 59, 0.03000000163912775)" d="M13.364 8.981l0.001 0.058-0.002 0.418-0.001-0.058z"></path>
<path fill="rgba(22, 25, 59, 0.03000000163912775)" d="M13.907 8.983l0.001 0.058-0.002 0.418-0.001-0.058z"></path>
<path fill="rgba(22, 25, 59, 0.03000000163912775)" d="M10.213 9.492l0.001 0.058-0.001 0.314-0.001-0.058z"></path>
<path fill="rgba(22, 25, 59, 0.03000000163912775)" d="M10.757 9.495l0.001 0.058-0.001 0.314-0.001-0.058z"></path>
<path fill="rgba(22, 25, 59, 0.03000000163912775)" d="M11.299 9.496l0.001 0.058-0.001 0.314-0.001-0.058z"></path>
<path fill="rgba(22, 25, 59, 0.03000000163912775)" d="M11.842 9.498l0.001 0.058-0.002 0.314-0.001-0.058z"></path>
<path fill="rgba(22, 25, 59, 0.03000000163912775)" d="M12.384 9.5l0.001 0.058-0.002 0.314-0.001-0.058z"></path>
<path fill="rgba(22, 25, 59, 0.03000000163912775)" d="M12.927 9.502l0.001 0.058-0.002 0.314-0.001-0.058z"></path>
<path fill="rgba(22, 25, 59, 0.03000000163912775)" d="M13.361 9.504l0.001 0.058-0.002 0.314-0.001-0.058z"></path>
<path fill="rgba(22, 25, 59, 0.03000000163912775)" d="M13.904 9.506l0.001 0.058-0.002 0.314-0.001-0.058z"></path>
<path fill="rgba(128, 128, 128, 0.30000001192092896)" d="M10.221 9.911l0.001 0.058-0.118-0-0.001-0.058z"></path>
<path fill="rgba(128, 128, 128, 0.30000001192092896)" d="M10.655 9.913l0.001 0.058-0.434-0.001-0.001-0.058z"></path>
<path fill="rgba(128, 128, 128, 0.30000001192092896)" d="M10.763 9.913l0.001 0.058-0.109-0-0.001-0.058z"></path>
<path fill="rgba(22, 25, 59, 0.03000000163912775)" d="M14.462 6.508l0.001 0.058-0.017 3.347-0.001-0.058z"></path>
<path fill="rgba(128, 128, 128, 0.30000001192092896)" d="M11.198 9.915l0.001 0.058-0.434-0.002-0.001-0.058z"></path>
<path fill="rgba(128, 128, 128, 0.30000001192092896)" d="M11.306 9.915l0.001 0.058-0.109-0-0.001-0.058z"></path>
<path fill="rgba(128, 128, 128, 0.30000001192092896)" d="M11.74 9.917l0.001 0.058-0.434-0.002-0.001-0.058z"></path>
<path fill="rgba(128, 128, 128, 0.30000001192092896)" d="M11.849 9.917l0.001 0.058-0.109-0-0.001-0.058z"></path>
<path fill="rgba(128, 128, 128, 0.30000001192092896)" d="M12.283 9.919l0.001 0.058-0.435-0.002-0.001-0.058z"></path>
<path fill="rgba(128, 128, 128, 0.30000001192092896)" d="M12.392 9.919l0.001 0.058-0.109-0-0.001-0.058z"></path>
<path fill="rgba(128, 128, 128, 0.30000001192092896)" d="M12.826 9.921l0.001 0.058-0.434-0.001-0.001-0.058z"></path>
<path fill="rgba(128, 128, 128, 0.30000001192092896)" d="M12.934 9.921l0.001 0.058-0.109-0-0.001-0.058z"></path>
<path fill="rgba(128, 128, 128, 0.30000001192092896)" d="M13.26 9.922l0.001 0.058-0.326-0.001-0.001-0.058z"></path>
<path fill="rgba(128, 128, 128, 0.30000001192092896)" d="M13.369 9.922l0.001 0.058-0.108-0-0.001-0.058z"></path>
<path fill="rgba(128, 128, 128, 0.30000001192092896)" d="M13.803 9.924l0.001 0.058-0.434-0.002-0.001-0.058z"></path>
<path fill="rgba(128, 128, 128, 0.30000001192092896)" d="M13.911 9.924l0.001 0.058-0.108-0-0.001-0.058z"></path>
<path fill="rgba(128, 128, 128, 0.30000001192092896)" d="M14.346 9.926l0.001 0.058-0.435-0.002-0.001-0.058z"></path>
<path fill="rgba(148, 148, 148, 0.30000001192092896)" d="M14.445 9.855l0.001 0.058-0 0.072-0.001-0.058z"></path>
<path fill="rgba(255, 255, 255, 0.30000001192092896)" d="M14.364 6.37l0.099 0-0.001 0.137-0.017 3.347-0 0.071-4.342-0.015 0.001-0.071 0.001-0.314 0.001-0.105 0.002-0.418 0.001-0.104 0.002-0.419 0.001-0.104 0.001-0.314 0.001-0.104 0.003-0.523 0.001-0.104 0.002-0.418 0.001-0.104 0.001-0.314 0.001-0.137 0.118 0 4.125 0.015zM13.804 7.937l0.003-0.523-0.435-0.002-0.003 0.523 0.435 0.001zM11.742 7.93l0.003-0.523-0.435-0.002-0.003 0.523 0.435 0.001zM12.827 7.934l0.003-0.523-0.435-0.002-0.003 0.523 0.435 0.001zM12.284 7.932l0.003-0.523-0.434-0.002-0.003 0.523 0.434 0.002zM11.198 7.928l0.003-0.523-0.434-0.002-0.003 0.523 0.434 0.002zM10.655 7.926l0.003-0.523-0.434-0.002-0.003 0.523 0.434 0.002zM14.346 7.939l0.003-0.523-0.434-0.001-0.003 0.523 0.434 0.001zM12.822 8.875l0.002-0.419-0.435-0.001-0.002 0.419 0.435 0.001zM11.737 8.871l0.002-0.419-0.435-0.002-0.002 0.419 0.435 0.001zM13.799 8.878l0.002-0.419-0.435-0.002-0.002 0.419 0.435 0.002zM12.279 8.873l0.002-0.419-0.434-0.001-0.002 0.419 0.434 0.001zM12.83 7.306l0.002-0.418-0.435-0.002-0.002 0.418 0.435 0.002zM11.194 8.869l0.002-0.419-0.434-0.002-0.002 0.419 0.434 0.002zM13.807 7.309l0.002-0.418-0.435-0.001-0.002 0.418 0.435 0.001zM11.745 7.302l0.002-0.418-0.435-0.002-0.002 0.418 0.435 0.002zM10.65 8.867l0.002-0.419-0.434-0.002-0.002 0.419 0.434 0.002zM13.797 9.401l0.002-0.418-0.435-0.001-0.002 0.418 0.435 0.002zM14.342 8.88l0.002-0.419-0.434-0.002-0.002 0.419 0.434 0.002zM11.734 9.393l0.002-0.418-0.435-0.002-0.002 0.418 0.435 0.002zM12.82 9.397l0.002-0.418-0.435-0.001-0.002 0.418 0.435 0.001zM12.287 7.304l0.002-0.418-0.434-0.002-0.002 0.418 0.434 0.001zM11.202 7.3l0.002-0.418-0.434-0.002-0.002 0.418 0.434 0.001zM10.658 7.298l0.002-0.418-0.434-0.002-0.002 0.418 0.434 0.002zM12.276 9.395l0.002-0.418-0.434-0.002-0.002 0.418 0.434 0.002zM11.191 9.391l0.002-0.418-0.434-0.002-0.002 0.418 0.434 0.002zM14.35 7.311l0.002-0.418-0.434-0.001-0.002 0.418 0.434 0.001zM10.647 9.39l0.002-0.418-0.434-0.001-0.002 0.418 0.434 0.001zM14.339 9.403l0.002-0.418-0.434-0.001-0.002 0.418 0.434 0.001zM13.261 7.935l0.003-0.523-0.326-0.001-0.002 0.523 0.325 0.001zM11.732 9.812l0.001-0.314-0.435-0.002-0.002 0.314 0.435 0.002zM13.794 9.819l0.002-0.314-0.435-0.001-0.002 0.314 0.435 0.001zM12.817 9.816l0.002-0.314-0.435-0.002-0.002 0.314 0.435 0.002zM12.274 9.814l0.002-0.314-0.434-0.002-0.002 0.314 0.434 0.002zM11.189 9.81l0.001-0.314-0.434-0.001-0.002 0.314 0.434 0.002zM10.645 9.808l0.002-0.314-0.434-0.001-0.002 0.314 0.434 0.002zM14.337 9.821l0.002-0.314-0.434-0.001-0.002 0.314 0.434 0.001zM13.81 6.786l0.002-0.313-0.435-0.001-0.001 0.313 0.435 0.001zM12.833 6.783l0.002-0.313-0.435-0.002-0.001 0.314 0.435 0.002zM11.747 6.779l0.002-0.313-0.435-0.002-0.002 0.313 0.435 0.001zM13.802 8.355l0.002-0.313-0.435-0.002-0.002 0.313 0.435 0.001zM12.825 8.352l0.002-0.313-0.435-0.002-0.002 0.314 0.435 0.002zM11.739 8.348l0.002-0.313-0.435-0.002-0.002 0.313 0.435 0.002zM13.256 8.877l0.002-0.419-0.325-0.001-0.002 0.419 0.325 0.001zM12.29 6.781l0.002-0.313-0.434-0.002-0.002 0.313 0.434 0.002zM12.282 8.35l0.002-0.313-0.434-0.002-0.002 0.313 0.434 0.001zM11.204 6.777l0.002-0.314-0.434-0.002-0.002 0.314 0.434 0.002zM11.196 8.346l0.002-0.314-0.434-0.002-0.002 0.314 0.434 0.002zM13.264 7.308l0.002-0.418-0.325-0.001-0.002 0.418 0.325 0.001zM10.661 6.775l0.002-0.313-0.434-0.002-0.002 0.313 0.434 0.002zM10.653 8.344l0.002-0.313-0.434-0.001-0.002 0.313 0.434 0.001zM14.352 6.788l0.001-0.314-0.434-0.001-0.001 0.314 0.434 0.001zM14.344 8.357l0.002-0.313-0.434-0.002-0.002 0.314 0.434 0.001zM13.253 9.399l0.002-0.418-0.326-0.001-0.002 0.418 0.325 0.001zM13.251 9.818l0.002-0.314-0.325-0.001-0.002 0.314 0.325 0.001zM13.267 6.784l0.002-0.313-0.325-0.001-0.002 0.313 0.325 0.001zM13.259 8.353l0.002-0.313-0.325-0.001-0.002 0.313 0.325 0.001z"></path>
<path fill="rgba(128, 128, 128, 0.30000001192092896)" d="M14.445 9.926l0.001 0.058-0.099-0-0.001-0.058z"></path>
<path fill="rgba(0, 0, 0, 0.2199999988079071)" d="M10.243 6.509l0.001 0.058-0.026 3.451-0.001-0.058z"></path>
<path fill="rgba(0, 0, 0, 0.2199999988079071)" d="M14.445 9.975l0.001 0.058-0.001 0.105-0.001-0.058z"></path>
<path fill="rgb(148, 148, 148)" d="M10.243 6.356l0.001 0.058-0.026 3.451-0.001-0.058z"></path>
<path fill="rgb(148, 148, 148)" d="M14.445 9.822l0.001 0.058-0.001 0.105-0.001-0.058z"></path>
<path fill="rgb(255, 255, 255)" d="M10.216 9.807l4.229 0.015-0.001 0.104-4.338-0.015 0.028-3.556 0.109 0z"></path>
<path fill="rgba(0, 0, 0, 0.2199999988079071)" d="M8.917 6.916c-0.344-0.35-0.823-0.568-1.354-0.568-0.528 0-1.006 0.216-1.35 0.564l1.363 1.4 1.341-1.396z"></path>
<path fill="rgb(179, 179, 179)" d="M7.551 9.992c1.074-0.007 1.899-0.854 1.899-1.898 0-0.519-0.215-0.989-0.552-1.331l-1.347 1.396v1.833z"></path>
<path fill="rgb(128, 128, 128)" d="M8.917 6.762c-0.344-0.35-0.823-0.568-1.354-0.568-0.528 0-1.006 0.216-1.35 0.564l1.363 1.4 1.341-1.396z"></path>
<path fill="rgb(204, 204, 204)" d="M7.551 9.992v-1.834l-1.35-1.4c-0.339 0.343-0.549 0.814-0.549 1.335-0 1.049 0.824 1.899 1.899 1.899z"></path>
<path fill="rgb(255, 255, 255)" d="M13.323 7.2c0.11 0 0.199 0.086 0.198 0.192s-0.090 0.192-0.2 0.191c-0.025 0-0.051-0.006-0.074-0.014l-0.766 1.256c0.034 0.034 0.055 0.081 0.055 0.133-0.001 0.105-0.090 0.192-0.2 0.191s-0.198-0.087-0.198-0.193c0-0.046 0.018-0.087 0.047-0.12l-0.325-0.328c-0.020 0.007-0.041 0.011-0.064 0.011-0.027-0-0.054-0.006-0.077-0.015l-0.315 0.327c0.028 0.034 0.046 0.075 0.046 0.123-0 0.105-0.090 0.192-0.2 0.191s-0.198-0.087-0.197-0.193c0-0.106 0.090-0.192 0.199-0.191 0.021 0 0.042 0.005 0.061 0.011l0.321-0.334c-0.022-0.031-0.037-0.070-0.036-0.111 0.001-0.106 0.091-0.191 0.2-0.19s0.198 0.086 0.197 0.192c-0 0.046-0.017 0.087-0.046 0.12l0.325 0.328c0.021-0.006 0.041-0.011 0.063-0.011 0.018 0 0.033 0.003 0.050 0.007l0.774-1.268c-0.023-0.032-0.038-0.071-0.037-0.113 0-0.105 0.090-0.191 0.199-0.19z"></path>
</svg>
