<?xml version="1.0" encoding="utf-8"?>
<!-- Generated by IcoMoon.io -->
<!DOCTYPE svg PUBLIC "-//W3C//DTD SVG 1.1//EN" "http://www.w3.org/Graphics/SVG/1.1/DTD/svg11.dtd">
<svg version="1.1" xmlns="http://www.w3.org/2000/svg" xmlns:xlink="http://www.w3.org/1999/xlink" width="20" height="20" viewBox="0 0 20 20">
<path fill="rgb(217, 41, 73)" d="M0.309 10c0-5.352 4.339-9.691 9.69-9.691s9.691 4.338 9.691 9.691c0 5.352-4.339 9.69-9.691 9.69s-9.69-4.339-9.69-9.69z"></path>
<path fill="rgba(0, 0, 0, 0.11999999731779099)" d="M15.074 4.47c0.286 0 0.518 0.233 0.518 0.518v7.644c0 0.286-0.232 0.518-0.518 0.518h-10.149c-0.286 0-0.518-0.233-0.518-0.518v-7.644c0-0.286 0.232-0.518 0.518-0.518h10.149z"></path>
<path fill="rgba(0, 0, 0, 0.11999999731779099)" d="M13.486 15.273v0.564h-6.972l-0-0.461c0.011-0.102 0.261-0.368 1.277-0.368 0.353 0 0.582-0.104 0.68-0.308 0.19-0.396-0.202-1.034-0.421-1.342h4.053c-0.216 0.329-0.629 1.043-0.437 1.418 0.079 0.155 0.24 0.233 0.478 0.233 0.806-0 1.219 0.194 1.343 0.265z"></path>
<path fill="rgb(74, 7, 45)" d="M15.074 4.164c0.286 0 0.518 0.233 0.518 0.518v7.644c0 0.286-0.232 0.518-0.518 0.518h-10.149c-0.286 0-0.518-0.233-0.518-0.518v-7.644c0-0.286 0.232-0.518 0.518-0.518h10.149z"></path>
<path fill="rgb(74, 7, 45)" d="M13.486 14.966v0.564h-6.972l-0-0.461c0.011-0.102 0.261-0.368 1.277-0.368 0.353 0 0.582-0.104 0.68-0.308 0.19-0.396-0.202-1.034-0.421-1.342h4.053c-0.216 0.329-0.629 1.043-0.437 1.418 0.079 0.155 0.24 0.233 0.478 0.233 0.806-0 1.219 0.194 1.343 0.265z"></path>
<path fill="rgba(0, 0, 0, 0.11999999731779099)" d="M4.669 4.556h10.355v6.808h-10.355v-6.808z"></path>
<path fill="rgb(255, 255, 255)" d="M4.822 4.709h10.356v6.808h-10.356v-6.808z"></path>
<path fill="rgb(242, 232, 220)" d="M10.051 12.125c0.091 0 0.166 0.074 0.166 0.166s-0.074 0.165-0.166 0.165c-0.092 0-0.166-0.074-0.166-0.165s0.074-0.166 0.166-0.166z"></path>
<path fill="rgb(242, 232, 220)" d="M9.473 12.125c0.092 0 0.166 0.074 0.166 0.166s-0.074 0.165-0.166 0.165c-0.092 0-0.166-0.074-0.166-0.165s0.074-0.166 0.166-0.166z"></path>
<path fill="rgb(242, 232, 220)" d="M10.63 12.125c0.092 0 0.166 0.074 0.166 0.166s-0.074 0.165-0.166 0.165c-0.092 0-0.166-0.074-0.166-0.165s0.074-0.166 0.166-0.166z"></path>
<path fill="rgb(137, 28, 86)" d="M10.359 7.129c-0.125 0-0.226 0.087-0.256 0.203h-0.419l0.573-0.764c0.032 0.013 0.066 0.021 0.103 0.021 0.149 0 0.27-0.121 0.27-0.27s-0.121-0.27-0.27-0.27c-0.149 0-0.27 0.121-0.27 0.27 0 0.063 0.025 0.119 0.062 0.165l-0.636 0.848h-0.52c-0.031-0.116-0.131-0.203-0.256-0.203-0.149 0-0.27 0.121-0.27 0.27 0 0.066 0.026 0.124 0.065 0.17l-0.5 0.701-0.379-0.076c-0.008-0.142-0.123-0.255-0.267-0.255-0.149 0-0.27 0.121-0.27 0.27s0.121 0.27 0.27 0.27c0.107 0 0.197-0.063 0.241-0.153l0.319 0.064-0.464 0.649c-0.030-0.011-0.062-0.019-0.096-0.019-0.149 0-0.27 0.121-0.27 0.27s0.121 0.27 0.27 0.27 0.27-0.121 0.27-0.27c0-0.066-0.026-0.124-0.065-0.17l0.5-0.7 0.379 0.076c0.008 0.142 0.123 0.255 0.267 0.255 0.149 0 0.27-0.121 0.27-0.27 0-0.063-0.025-0.119-0.062-0.165l0.636-0.848h0.52c0.031 0.116 0.131 0.203 0.256 0.203 0.149 0 0.27-0.121 0.27-0.27s-0.121-0.27-0.27-0.27z"></path>
<path fill="rgb(255, 255, 255)" d="M8.841 8.231c-0.032-0.013-0.066-0.021-0.103-0.021-0.107 0-0.197 0.063-0.241 0.153l-0.319-0.064 0.464-0.649c0.030 0.012 0.062 0.019 0.096 0.019 0.125 0 0.226-0.087 0.256-0.203h0.419l-0.573 0.764z"></path>
<path fill="rgb(137, 28, 86)" d="M10.63 10.101v0.27h-4.323v-4.323h0.27v4.053z"></path>
<path fill="rgb(242, 41, 95)" d="M12.46 9.911l-0.299 0.518c-0.32-0.213-0.531-0.576-0.531-0.989 0-0.631 0.492-1.145 1.113-1.183v0.597c-0.292 0.037-0.519 0.284-0.519 0.586 0 0.193 0.094 0.362 0.236 0.471z"></path>
<path fill="rgb(137, 28, 86)" d="M13.288 9.083l0.518-0.299c-0.2-0.3-0.533-0.503-0.915-0.527v0.597c0.162 0.021 0.302 0.105 0.397 0.229z"></path>
<path fill="rgb(224, 38, 88)" d="M13.88 8.913l-0.515 0.297c0.030 0.071 0.047 0.149 0.047 0.23 0 0.327-0.266 0.594-0.594 0.594-0.082 0-0.159-0.017-0.23-0.047l-0.297 0.515c0.159 0.079 0.338 0.125 0.528 0.125 0.656 0 1.187-0.532 1.187-1.187-0-0.19-0.046-0.369-0.125-0.528z"></path>
<path fill="rgb(242, 41, 95)" d="M12.823 6.756h1.143c0-0.631-0.512-1.143-1.143-1.143v1.143z"></path>
<path fill="rgb(137, 28, 86)" d="M12.68 6.899v-1.276c-0.564 0.070-1.001 0.551-1.001 1.133 0 0.631 0.512 1.143 1.144 1.143 0.583 0 1.063-0.436 1.134-1h-1.276z"></path>
</svg>
