<?xml version="1.0" encoding="utf-8"?>
<!-- Generated by IcoMoon.io -->
<!DOCTYPE svg PUBLIC "-//W3C//DTD SVG 1.1//EN" "http://www.w3.org/Graphics/SVG/1.1/DTD/svg11.dtd">
<svg version="1.1" xmlns="http://www.w3.org/2000/svg" xmlns:xlink="http://www.w3.org/1999/xlink" width="20" height="20" viewBox="0 0 20 20">
<path fill="rgb(230, 230, 230)" d="M0.309 10c0-5.352 4.339-9.691 9.69-9.691s9.691 4.338 9.691 9.691c0 5.352-4.339 9.69-9.691 9.69s-9.69-4.339-9.69-9.69z"></path>
<path fill="rgb(7, 42, 53)" d="M13.183 9.832v0.474c0-0.045-0.002-0.088-0.009-0.131v-0.475c0.007 0.043 0.009 0.087 0.009 0.132z"></path>
<path fill="rgb(8, 46, 59)" d="M15.237 9.779v0.475c0 0.121-0.022 0.25-0.022 0.379v-0.475c0-0.129 0.022-0.257 0.022-0.378z"></path>
<path fill="rgb(7, 42, 53)" d="M14.809 12.6c0.028-0.066 0.056-0.133 0.082-0.2 0.012-0.031 0.022-0.063 0.033-0.094 0.020-0.056 0.039-0.111 0.057-0.168 0.011-0.035 0.021-0.071 0.032-0.106 0.016-0.054 0.031-0.108 0.045-0.162 0.009-0.037 0.018-0.074 0.027-0.111 0.013-0.054 0.024-0.109 0.035-0.163 0.007-0.037 0.015-0.075 0.021-0.113 0.010-0.057 0.018-0.114 0.026-0.171 0.005-0.036 0.011-0.072 0.015-0.109 0.007-0.063 0.012-0.127 0.017-0.19 0.002-0.031 0.007-0.062 0.008-0.093 0.006-0.095 0.010-0.191 0.010-0.287v-0.475c0 0.096-0.004 0.192-0.010 0.287-0.002 0.031-0.006 0.062-0.008 0.093-0.005 0.064-0.010 0.127-0.018 0.19-0.004 0.037-0.010 0.073-0.015 0.109-0.008 0.057-0.016 0.114-0.026 0.171-0.007 0.038-0.014 0.075-0.021 0.113-0.011 0.055-0.022 0.109-0.035 0.163-0.009 0.037-0.018 0.075-0.027 0.112-0.014 0.054-0.029 0.108-0.044 0.161-0.011 0.036-0.021 0.071-0.032 0.107-0.018 0.056-0.037 0.111-0.057 0.167-0.011 0.032-0.022 0.063-0.034 0.094-0.025 0.067-0.053 0.133-0.081 0.199-0.008 0.018-0.015 0.037-0.023 0.056-0.037 0.084-0.077 0.166-0.118 0.248-0.006 0.012-0.013 0.024-0.020 0.037-0.045 0.086-0.093 0.171-0.143 0.255-0.015 0.025-0.030 0.050-0.045 0.075-0.055 0.089-0.112 0.177-0.172 0.262-0.003 0.004-0.006 0.009-0.009 0.014-0.063 0.089-0.13 0.176-0.199 0.262-0.018 0.023-0.037 0.045-0.056 0.068-0.059 0.071-0.12 0.141-0.183 0.209-0.013 0.015-0.026 0.030-0.040 0.044-0.074 0.079-0.151 0.155-0.23 0.229-0.020 0.019-0.041 0.037-0.061 0.056-0.065 0.059-0.132 0.117-0.199 0.173-0.021 0.017-0.041 0.035-0.062 0.052-0.085 0.069-0.173 0.135-0.263 0.199-0.016 0.012-0.033 0.022-0.050 0.034-0.077 0.053-0.154 0.105-0.234 0.154-0.025 0.016-0.051 0.032-0.077 0.048-0.096 0.058-0.193 0.114-0.293 0.166-0.001 0-0.002 0.001-0.002 0.001-0.099 0.052-0.201 0.101-0.303 0.147-0.028 0.013-0.055 0.025-0.083 0.037-0.088 0.038-0.178 0.075-0.269 0.109-0.018 0.007-0.036 0.014-0.055 0.021-0.107 0.039-0.216 0.075-0.326 0.108-0.027 0.008-0.054 0.015-0.081 0.023-0.090 0.026-0.181 0.050-0.273 0.071-0.028 0.006-0.055 0.013-0.083 0.020-0.114 0.025-0.229 0.047-0.345 0.066-0.020 0.003-0.041 0.006-0.061 0.009-0.099 0.015-0.199 0.027-0.299 0.037-0.032 0.003-0.064 0.006-0.097 0.009-0.12 0.010-0.21 0.018-0.363 0.021v0.474c0.153-0.003 0.243-0.011 0.363-0.021 0.033-0.003 0.065-0.006 0.097-0.009 0.1-0.010 0.2-0.022 0.299-0.037 0.021-0.003 0.042-0.005 0.062-0.009 0.116-0.019 0.231-0.041 0.345-0.066 0.028-0.006 0.055-0.013 0.083-0.019 0.092-0.022 0.182-0.045 0.272-0.071 0.027-0.008 0.055-0.015 0.082-0.023 0.11-0.033 0.218-0.069 0.325-0.108 0.019-0.007 0.037-0.015 0.056-0.022 0.090-0.034 0.179-0.070 0.267-0.108 0.028-0.012 0.056-0.025 0.084-0.037 0.102-0.046 0.204-0.095 0.302-0.147 0.001-0 0.002-0.001 0.003-0.001 0.1-0.053 0.197-0.109 0.293-0.167 0.011-0.007 0.024-0.013 0.035-0.020 0.014-0.009 0.027-0.019 0.042-0.027 0.079-0.050 0.157-0.101 0.234-0.154 0.017-0.012 0.034-0.023 0.051-0.035 0.090-0.064 0.177-0.13 0.262-0.199 0.021-0.017 0.041-0.034 0.062-0.051 0.068-0.057 0.135-0.114 0.2-0.174 0.020-0.018 0.040-0.036 0.060-0.055 0.079-0.074 0.156-0.151 0.231-0.229 0.003-0.004 0.007-0.007 0.010-0.010 0.010-0.011 0.019-0.022 0.028-0.032 0.063-0.068 0.125-0.139 0.184-0.21 0.019-0.022 0.037-0.044 0.055-0.067 0.069-0.085 0.136-0.173 0.2-0.262 0.003-0.004 0.005-0.008 0.008-0.012 0.061-0.086 0.118-0.174 0.173-0.264 0.015-0.025 0.030-0.049 0.045-0.074 0.050-0.084 0.098-0.17 0.143-0.256 0.005-0.009 0.010-0.018 0.015-0.027 0.002-0.003 0.003-0.006 0.004-0.009 0.042-0.082 0.081-0.164 0.118-0.248 0.008-0.018 0.015-0.036 0.022-0.054z"></path>
<path fill="rgb(13, 73, 93)" d="M15.233 9.701c0.014 0.144-0.018 0.3-0.018 0.457 0 2.876-2.453 5.208-5.523 5.285v-1.922c1.996-0.077 3.478-1.547 3.478-3.362 0-0.158 0.028-0.313 0.004-0.457h2.059z"></path>
<path fill="rgb(26, 108, 118)" d="M9.577 6.782c-0.7 0-1.348 0.198-1.892 0.532-0.276 0.169-0.526 0.373-0.743 0.604-0.225 0.239-0.439 0.508-0.587 0.796-0.159 0.309-0.192 0.642-0.345 0.986v0.475c0.154-0.344 0.187-0.677 0.345-0.986 0.148-0.288 0.35-0.557 0.575-0.796 0.217-0.231 0.473-0.435 0.749-0.604 0.545-0.334 1.196-0.532 1.896-0.532 0.042 0 0.118-0.004 0.118-0.004v-0.475c-0-0.001-0.072 0.004-0.115 0.004z"></path>
<path fill="rgb(23, 94, 103)" d="M4 9.701h2.058v0.475h-2.058v-0.475z"></path>
<path fill="rgb(41, 170, 187)" d="M9.691 4.855l0.001 1.924c-0.021-0.001-0.072 0.004-0.115 0.004-1.816 0-3.278 1.332-3.519 2.918h-2.058c0.25-2.738 2.63-4.84 5.577-4.84 0.047 0 0.105-0.007 0.114-0.007z"></path>
<path fill="rgb(0, 137, 148)" d="M6.058 9.701v0.475c-0.022 0.144-0.054 0.298-0.054 0.457v-0.475c0-0.158 0.032-0.313 0.054-0.457z"></path>
<path fill="rgb(0, 137, 148)" d="M9.692 15.442v0z"></path>
<path fill="rgb(0, 133, 143)" d="M9.692 15.442v0.474h-0v-0.474h0z"></path>
<path fill="rgb(0, 128, 138)" d="M9.692 15.442v0.474l-0 0v-0.475h0z"></path>
<path fill="rgb(0, 123, 133)" d="M9.691 15.442v0.475c-0.005 0.002-0.065 0.006-0.114 0.006-3.115 0-5.599-2.367-5.599-5.291v-0.475c0 2.924 2.485 5.291 5.599 5.291 0.049 0 0.11-0.005 0.114-0.006z"></path>
<path fill="rgb(0, 217, 234)" d="M6.058 9.701c-0.022 0.144-0.054 0.299-0.054 0.457 0 1.863 1.589 3.366 3.573 3.366 0.051 0 0.115-0.002 0.115-0.004v1.922c0 0.001-0.064 0.006-0.115 0.006-3.115 0-5.599-2.367-5.599-5.291 0-0.157 0.007-0.313 0.022-0.457h2.058z"></path>
<path fill="rgb(120, 52, 18)" d="M15.333 8.834l-0.026 0.46h-5.001v-0.46z"></path>
<path fill="rgb(217, 94, 32)" d="M10.306 4.488c4.911 0.422 5.020 4.193 5.026 4.346h-5.026v-4.346z"></path>
</svg>
