<?xml version="1.0" encoding="utf-8"?>
<!-- Generator: Adobe Illustrator 16.0.0, SVG Export Plug-In . SVG Version: 6.00 Build 0)  -->
<!DOCTYPE svg PUBLIC "-//W3C//DTD SVG 1.1//EN" "http://www.w3.org/Graphics/SVG/1.1/DTD/svg11.dtd">
<svg version="1.1" id="Layer_1" xmlns="http://www.w3.org/2000/svg" xmlns:xlink="http://www.w3.org/1999/xlink" x="0px" y="0px"
	 width="20px" height="20px" viewBox="0 0 20 20" enable-background="new 0 0 20 20" xml:space="preserve">
<g>
	<path fill="#EFC849" d="M0.31,10c0-5.353,4.338-9.69,9.69-9.69s9.69,4.338,9.69,9.69s-4.338,9.69-9.69,9.69S0.31,15.353,0.31,10z"
		/>
	<path fill="#EFC849" d="M1.796,15.154c0.152,0.241,0.313,0.476,0.484,0.701v-0.701H1.796z"/>
	<path fill="#EFC849" d="M2.28,4.145C2.073,4.416,1.88,4.7,1.702,4.994H2.28V4.145z"/>
	<path fill="#357180" d="M5.573,12.224c-0.009-0.294-0.248-0.529-0.545-0.529H4.426c-0.296,0-0.536,0.234-0.545,0.529H3.879v3.973
		h1.694V12.224H5.571H5.573z"/>
	<path fill="#357180" d="M8.264,10.892c-0.013-0.288-0.25-0.52-0.543-0.52H7.118c-0.293,0-0.528,0.231-0.544,0.52H6.571v5.305h1.693
		L8.264,10.892L8.264,10.892L8.264,10.892z"/>
	<path fill="#357180" d="M10.959,9.006c-0.003-0.298-0.245-0.538-0.546-0.538H9.811c-0.3,0-0.543,0.24-0.546,0.538l0,0V9.01
		c0,0.001,0,0.002,0,0.002v0.002v7.182h1.694V9.006L10.959,9.006L10.959,9.006z"/>
	<path fill="#357180" d="M13.653,7.701c0-0.004-0.001-0.007-0.001-0.01V7.686l0,0c-0.009-0.295-0.248-0.529-0.545-0.529h-0.603
		c-0.297,0-0.536,0.235-0.544,0.529h-0.002v8.511h1.693V7.709C13.652,7.706,13.653,7.703,13.653,7.701L13.653,7.701z"/>
	<path fill="#357180" d="M16.346,6.251c0-0.001,0-0.002,0-0.003V6.233h-0.002c-0.01-0.292-0.248-0.526-0.543-0.526h-0.604
		c-0.295,0-0.534,0.234-0.544,0.526h-0.002v9.963h1.694V6.255C16.346,6.254,16.346,6.253,16.346,6.251L16.346,6.251z"/>
	<path fill="#FFFFFF" d="M1.605,4.994v0.167c0.032-0.055,0.062-0.112,0.097-0.167H1.605z"/>
	<path fill="#FFFFFF" d="M16.344,16.196H2.789V3.526C2.611,3.726,2.44,3.931,2.279,4.143v0.851H1.7
		C1.667,5.049,1.637,5.105,1.604,5.16v0.368h0.675v1.067H1.604v0.536h0.675V8.2H1.604v0.536h0.675v1.067H1.604v0.536h0.675v1.068
		H1.604v0.536h0.675v1.068H1.604v0.536h0.675v1.067H1.604v0.219c0.062,0.106,0.125,0.213,0.19,0.317h0.484v0.701
		c0.227,0.298,0.47,0.581,0.727,0.849h0.857v0.676h0.536v-0.676h1.067v0.676h0.536v-0.676H7.07v0.676h0.536v-0.676h1.067v0.676H9.21
		v-0.676h1.067v0.676h0.536v-0.676h1.067v0.676h0.536v-0.676h1.069v0.676h0.535v-0.676h1.067v0.676h0.537v-0.676h1.363
		c0.158-0.164,0.312-0.332,0.458-0.508h-1.105L16.344,16.196z"/>
</g>
</svg>
