<?xml version="1.0" encoding="utf-8"?>
<!-- Generated by IcoMoon.io -->
<!DOCTYPE svg PUBLIC "-//W3C//DTD SVG 1.1//EN" "http://www.w3.org/Graphics/SVG/1.1/DTD/svg11.dtd">
<svg version="1.1" xmlns="http://www.w3.org/2000/svg" xmlns:xlink="http://www.w3.org/1999/xlink" width="20" height="20" viewBox="0 0 20 20">
<path fill="rgb(24, 175, 255)" d="M0.309 10c0-5.352 4.339-9.691 9.69-9.691s9.691 4.338 9.691 9.691c0 5.352-4.339 9.69-9.691 9.69s-9.69-4.339-9.69-9.69z"></path>
<path fill="rgba(29, 161, 219, 0.30000001192092896)" d="M5.563 5.323l0.003 0.16-1.188-0.004-0.003-0.16z"></path>
<path fill="rgba(29, 161, 219, 0.30000001192092896)" d="M7.050 5.328l0.003 0.16-1.188-0.004-0.003-0.16z"></path>
<path fill="rgba(29, 161, 219, 0.30000001192092896)" d="M8.537 5.333l0.003 0.159-1.19-0.004-0.003-0.16z"></path>
<path fill="rgba(29, 161, 219, 0.30000001192092896)" d="M10.022 5.338l0.003 0.16-1.188-0.004-0.003-0.16z"></path>
<path fill="rgba(29, 161, 219, 0.30000001192092896)" d="M11.51 5.344l0.003 0.16-1.191-0.004-0.003-0.16z"></path>
<path fill="rgba(29, 161, 219, 0.30000001192092896)" d="M12.697 5.348l0.003 0.16-0.891-0.003-0.003-0.16z"></path>
<path fill="rgba(29, 161, 219, 0.30000001192092896)" d="M14.185 5.353l0.003 0.16-1.191-0.004-0.003-0.16z"></path>
<path fill="rgba(29, 161, 219, 0.30000001192092896)" d="M15.67 5.358l0.003 0.16-1.188-0.004-0.003-0.16z"></path>
<path fill="rgba(22, 25, 59, 0.03000000163912775)" d="M15.968 5.073l0.003 0.16-0.002 0.376-0.003-0.16z"></path>
<path fill="rgba(29, 161, 219, 0.30000001192092896)" d="M5.557 6.469l0.003 0.16-1.188-0.004-0.003-0.16z"></path>
<path fill="rgba(29, 161, 219, 0.30000001192092896)" d="M7.044 6.475l0.003 0.16-1.188-0.004-0.003-0.16z"></path>
<path fill="rgba(29, 161, 219, 0.30000001192092896)" d="M8.532 6.48l0.003 0.16-1.191-0.005-0.002-0.159z"></path>
<path fill="rgba(29, 161, 219, 0.30000001192092896)" d="M10.016 6.485l0.003 0.16-1.188-0.004-0.003-0.16z"></path>
<path fill="rgba(29, 161, 219, 0.30000001192092896)" d="M11.504 6.49l0.003 0.16-1.19-0.004-0.003-0.16z"></path>
<path fill="rgba(29, 161, 219, 0.30000001192092896)" d="M12.692 6.495l0.003 0.16-0.891-0.003-0.003-0.16z"></path>
<path fill="rgba(29, 161, 219, 0.30000001192092896)" d="M14.179 6.5l0.003 0.16-1.191-0.004-0.003-0.16z"></path>
<path fill="rgba(29, 161, 219, 0.30000001192092896)" d="M15.664 6.505l0.003 0.16-1.188-0.004-0.003-0.16z"></path>
<path fill="rgba(29, 161, 219, 0.30000001192092896)" d="M5.549 7.899l0.003 0.16-1.187-0.004-0.003-0.16z"></path>
<path fill="rgba(29, 161, 219, 0.30000001192092896)" d="M7.037 7.905l0.003 0.16-1.188-0.004-0.002-0.16z"></path>
<path fill="rgba(29, 161, 219, 0.30000001192092896)" d="M8.524 7.91l0.003 0.16-1.19-0.004-0.003-0.16z"></path>
<path fill="rgba(29, 161, 219, 0.30000001192092896)" d="M10.009 7.915l0.003 0.16-1.188-0.004-0.003-0.16z"></path>
<path fill="rgba(29, 161, 219, 0.30000001192092896)" d="M11.497 7.92l0.002 0.16-1.191-0.004-0.003-0.16z"></path>
<path fill="rgba(29, 161, 219, 0.30000001192092896)" d="M12.684 7.925l0.003 0.16-0.891-0.003-0.003-0.16z"></path>
<path fill="rgba(29, 161, 219, 0.30000001192092896)" d="M14.172 7.93l0.003 0.16-1.191-0.004-0.003-0.16z"></path>
<path fill="rgba(29, 161, 219, 0.30000001192092896)" d="M15.656 7.935l0.003 0.16-1.188-0.004-0.003-0.16z"></path>
<path fill="rgba(29, 161, 219, 0.30000001192092896)" d="M5.54 9.618l0.003 0.16-1.188-0.004-0.002-0.16z"></path>
<path fill="rgba(29, 161, 219, 0.30000001192092896)" d="M7.028 9.624l0.003 0.16-1.188-0.004-0.003-0.16z"></path>
<path fill="rgba(29, 161, 219, 0.30000001192092896)" d="M8.515 9.629l0.003 0.16-1.19-0.004-0.003-0.159z"></path>
<path fill="rgba(29, 161, 219, 0.30000001192092896)" d="M10 9.634l0.003 0.16-1.188-0.004-0.003-0.16z"></path>
<path fill="rgba(29, 161, 219, 0.30000001192092896)" d="M11.487 9.639l0.003 0.16-1.19-0.004-0.003-0.16z"></path>
<path fill="rgba(29, 161, 219, 0.30000001192092896)" d="M12.675 9.644l0.003 0.16-0.891-0.003-0.003-0.16z"></path>
<path fill="rgba(29, 161, 219, 0.30000001192092896)" d="M14.163 9.649l0.003 0.16-1.191-0.004-0.002-0.16z"></path>
<path fill="rgba(29, 161, 219, 0.30000001192092896)" d="M15.648 9.654l0.003 0.16-1.188-0.004-0.003-0.16z"></path>
<path fill="rgba(29, 161, 219, 0.30000001192092896)" d="M5.534 10.762l0.003 0.16-1.188-0.004-0.003-0.16z"></path>
<path fill="rgba(29, 161, 219, 0.30000001192092896)" d="M7.022 10.768l0.003 0.16-1.188-0.004-0.003-0.16z"></path>
<path fill="rgba(29, 161, 219, 0.30000001192092896)" d="M8.51 10.773l0.003 0.16-1.191-0.004-0.003-0.16z"></path>
<path fill="rgba(29, 161, 219, 0.30000001192092896)" d="M9.994 10.778l0.002 0.16-1.188-0.004-0.003-0.16z"></path>
<path fill="rgba(29, 161, 219, 0.30000001192092896)" d="M11.481 10.784l0.003 0.16-1.19-0.004-0.003-0.16z"></path>
<path fill="rgba(29, 161, 219, 0.30000001192092896)" d="M12.67 10.788l0.003 0.16-0.891-0.003-0.003-0.16z"></path>
<path fill="rgba(29, 161, 219, 0.30000001192092896)" d="M14.157 10.793l0.003 0.16-1.191-0.004-0.002-0.16z"></path>
<path fill="rgba(29, 161, 219, 0.30000001192092896)" d="M15.642 10.798l0.003 0.16-1.188-0.004-0.003-0.16z"></path>
<path fill="rgba(29, 161, 219, 0.30000001192092896)" d="M5.527 12.195l0.003 0.16-1.188-0.004-0.002-0.16z"></path>
<path fill="rgba(29, 161, 219, 0.30000001192092896)" d="M7.015 12.201l0.003 0.16-1.188-0.004-0.003-0.16z"></path>
<path fill="rgba(29, 161, 219, 0.30000001192092896)" d="M8.502 12.206l0.003 0.16-1.19-0.004-0.003-0.16z"></path>
<path fill="rgba(29, 161, 219, 0.30000001192092896)" d="M9.987 12.211l0.003 0.16-1.188-0.004-0.002-0.16z"></path>
<path fill="rgba(29, 161, 219, 0.30000001192092896)" d="M11.474 12.216l0.002 0.16-1.19-0.004-0.003-0.16z"></path>
<path fill="rgba(29, 161, 219, 0.30000001192092896)" d="M12.662 12.221l0.003 0.16-0.891-0.003-0.003-0.16z"></path>
<path fill="rgba(29, 161, 219, 0.30000001192092896)" d="M14.15 12.226l0.003 0.16-1.19-0.004-0.003-0.16z"></path>
<path fill="rgba(29, 161, 219, 0.30000001192092896)" d="M15.634 12.231l0.003 0.16-1.188-0.004-0.003-0.16z"></path>
<path fill="rgba(29, 161, 219, 0.30000001192092896)" d="M5.52 13.625l0.003 0.16-1.188-0.004-0.003-0.16z"></path>
<path fill="rgba(29, 161, 219, 0.30000001192092896)" d="M7.007 13.631l0.003 0.16-1.188-0.004-0.003-0.16z"></path>
<path fill="rgba(29, 161, 219, 0.30000001192092896)" d="M8.494 13.636l0.003 0.16-1.19-0.004-0.003-0.16z"></path>
<path fill="rgba(29, 161, 219, 0.30000001192092896)" d="M9.979 13.641l0.003 0.16-1.188-0.004-0.003-0.16z"></path>
<path fill="rgba(29, 161, 219, 0.30000001192092896)" d="M11.467 13.647l0.003 0.16-1.191-0.004-0.003-0.16z"></path>
<path fill="rgba(29, 161, 219, 0.30000001192092896)" d="M12.655 13.651l0.003 0.16-0.891-0.003-0.003-0.16z"></path>
<path fill="rgba(29, 161, 219, 0.30000001192092896)" d="M14.142 13.656l0.003 0.16-1.19-0.004-0.003-0.16z"></path>
<path fill="rgba(29, 161, 219, 0.30000001192092896)" d="M15.627 13.661l0.003 0.16-1.188-0.004-0.003-0.16z"></path>
<path fill="rgba(128, 128, 128, 0.30000001192092896)" d="M4.353 14.768l0.002 0.16-0.323-0.001-0.003-0.16z"></path>
<path fill="rgba(128, 128, 128, 0.30000001192092896)" d="M5.54 14.772l0.003 0.16-1.188-0.004-0.002-0.16z"></path>
<path fill="rgba(128, 128, 128, 0.30000001192092896)" d="M5.837 14.774l0.003 0.159-0.297-0.001-0.003-0.16z"></path>
<path fill="rgba(22, 25, 59, 0.03000000163912775)" d="M15.967 5.45l0.003 0.16-0.047 9.164-0.003-0.16z"></path>
<path fill="rgba(128, 128, 128, 0.30000001192092896)" d="M7.028 14.778l0.002 0.16-1.19-0.004-0.003-0.159z"></path>
<path fill="rgba(128, 128, 128, 0.30000001192092896)" d="M7.325 14.779l0.003 0.16-0.298-0.001-0.002-0.16z"></path>
<path fill="rgba(128, 128, 128, 0.30000001192092896)" d="M8.513 14.783l0.003 0.16-1.188-0.004-0.003-0.16z"></path>
<path fill="rgba(128, 128, 128, 0.30000001192092896)" d="M8.81 14.784l0.003 0.159-0.297-0.001-0.003-0.16z"></path>
<path fill="rgba(128, 128, 128, 0.30000001192092896)" d="M10 14.788l0.003 0.16-1.19-0.004-0.003-0.159z"></path>
<path fill="rgba(128, 128, 128, 0.30000001192092896)" d="M10.297 14.789l0.003 0.16-0.297-0.001-0.003-0.16z"></path>
<path fill="rgba(128, 128, 128, 0.30000001192092896)" d="M11.485 14.793l0.003 0.16-1.188-0.004-0.003-0.16z"></path>
<path fill="rgba(128, 128, 128, 0.30000001192092896)" d="M11.782 14.794l0.003 0.16-0.297-0.001-0.003-0.16z"></path>
<path fill="rgba(128, 128, 128, 0.30000001192092896)" d="M12.675 14.798l0.003 0.16-0.894-0.003-0.003-0.16z"></path>
<path fill="rgba(128, 128, 128, 0.30000001192092896)" d="M12.972 14.799l0.003 0.16-0.297-0.001-0.003-0.16z"></path>
<path fill="rgba(128, 128, 128, 0.30000001192092896)" d="M14.16 14.803l0.003 0.16-1.188-0.004-0.003-0.16z"></path>
<path fill="rgba(128, 128, 128, 0.30000001192092896)" d="M14.457 14.804l0.003 0.16-0.297-0.001-0.003-0.16z"></path>
<path fill="rgba(128, 128, 128, 0.30000001192092896)" d="M15.648 14.808l0.003 0.16-1.19-0.004-0.003-0.16z"></path>
<path fill="rgba(148, 148, 148, 0.30000001192092896)" d="M15.919 14.613l0.003 0.16-0.001 0.196-0.003-0.16z"></path>
<path fill="rgba(255, 255, 255, 0.30000001192092896)" d="M15.698 5.072l0.27 0.001-0.002 0.376-0.048 9.164-0.001 0.196-11.889-0.042 0.001-0.196 0.004-0.861 0.002-0.286 0.006-1.144 0.002-0.286 0.006-1.147 0.001-0.286 0.004-0.858 0.001-0.286 0.007-1.433 0.002-0.286 0.006-1.144 0.001-0.286 0.004-0.861 0.002-0.376 11.619 0.041zM14.164 9.363l0.007-1.433-1.19-0.004-0.007 1.433 1.19 0.004zM8.517 9.343l0.007-1.433-1.191-0.004-0.007 1.433 1.191 0.004zM11.489 9.353l0.008-1.433-1.191-0.004-0.007 1.433 1.191 0.004zM10.001 9.348l0.007-1.433-1.188-0.004-0.008 1.433 1.188 0.004zM7.029 9.338l0.007-1.433-1.188-0.004-0.007 1.433 1.188 0.004zM5.542 9.332l0.007-1.433-1.187-0.004-0.008 1.433 1.188 0.004zM15.649 9.368l0.007-1.433-1.188-0.004-0.007 1.433 1.188 0.004zM11.476 11.93l0.006-1.147-1.19-0.004-0.006 1.147 1.19 0.004zM8.504 11.92l0.006-1.147-1.191-0.004-0.006 1.147 1.191 0.004zM14.151 11.94l0.006-1.147-1.19-0.004-0.006 1.147 1.19 0.004zM9.988 11.925l0.006-1.147-1.188-0.004-0.006 1.147 1.188 0.004zM11.498 7.634l0.006-1.144-1.19-0.004-0.006 1.144 1.19 0.004zM7.016 11.915l0.006-1.147-1.188-0.004-0.006 1.147 1.188 0.004zM14.173 7.644l0.006-1.144-1.19-0.004-0.006 1.144 1.19 0.004zM8.526 7.624l0.006-1.144-1.19-0.004-0.006 1.144 1.191 0.004zM5.529 11.909l0.006-1.147-1.188-0.004-0.006 1.147 1.188 0.004zM14.144 13.37l0.006-1.144-1.191-0.004-0.006 1.144 1.191 0.004zM15.636 11.945l0.006-1.147-1.188-0.004-0.006 1.147 1.188 0.004zM8.496 13.35l0.006-1.144-1.19-0.004-0.006 1.144 1.19 0.004zM11.468 13.36l0.006-1.144-1.191-0.004-0.006 1.144 1.191 0.004zM10.011 7.629l0.006-1.144-1.188-0.004-0.006 1.144 1.188 0.004zM7.038 7.619l0.006-1.144-1.188-0.004-0.006 1.144 1.188 0.004zM5.551 7.613l0.006-1.144-1.188-0.004-0.006 1.144 1.188 0.004zM9.981 13.355l0.006-1.144-1.188-0.004-0.006 1.144 1.188 0.004zM7.008 13.345l0.006-1.144-1.188-0.004-0.006 1.144 1.188 0.004zM15.658 7.649l0.006-1.144-1.188-0.004-0.006 1.144 1.188 0.004zM5.521 13.339l0.006-1.144-1.188-0.004-0.006 1.144 1.188 0.004zM15.628 13.375l0.006-1.144-1.188-0.004-0.006 1.144 1.188 0.004zM12.677 9.357l0.007-1.433-0.891-0.003-0.007 1.433 0.891 0.003zM8.49 14.497l0.004-0.861-1.19-0.004-0.004 0.86 1.191 0.004zM14.138 14.517l0.004-0.861-1.19-0.004-0.005 0.861 1.191 0.004zM11.462 14.507l0.004-0.861-1.19-0.004-0.004 0.86 1.19 0.004zM9.975 14.502l0.004-0.861-1.188-0.004-0.004 0.861 1.188 0.004zM7.003 14.491l0.004-0.861-1.188-0.004-0.005 0.861 1.188 0.004zM5.515 14.486l0.005-0.861-1.188-0.004-0.004 0.861 1.188 0.004zM15.623 14.522l0.004-0.861-1.188-0.004-0.005 0.861 1.188 0.004zM14.181 6.211l0.004-0.858-1.19-0.004-0.004 0.858 1.19 0.004zM11.505 6.202l0.005-0.858-1.191-0.004-0.004 0.858 1.19 0.004zM8.533 6.191l0.004-0.858-1.19-0.004-0.005 0.858 1.191 0.004zM14.159 10.507l0.004-0.858-1.19-0.004-0.004 0.858 1.19 0.004zM11.483 10.497l0.004-0.858-1.19-0.004-0.004 0.858 1.19 0.004zM8.511 10.487l0.004-0.858-1.19-0.004-0.004 0.858 1.19 0.004zM12.663 11.934l0.006-1.147-0.891-0.003-0.006 1.147 0.89 0.003zM10.018 6.196l0.004-0.858-1.188-0.004-0.005 0.858 1.188 0.004zM9.996 10.492l0.004-0.858-1.188-0.004-0.005 0.858 1.188 0.004zM7.046 6.186l0.004-0.858-1.188-0.004-0.004 0.858 1.188 0.004zM7.024 10.482l0.004-0.858-1.188-0.004-0.004 0.858 1.188 0.004zM12.686 7.639l0.006-1.144-0.891-0.003-0.006 1.144 0.891 0.003zM5.558 6.181l0.004-0.858-1.188-0.004-0.004 0.858 1.188 0.004zM5.536 10.476l0.004-0.858-1.188-0.004-0.004 0.858 1.188 0.004zM15.665 6.216l0.004-0.858-1.188-0.004-0.004 0.858 1.188 0.004zM15.643 10.512l0.004-0.858-1.188-0.004-0.004 0.858 1.188 0.004zM12.656 13.365l0.006-1.144-0.891-0.003-0.006 1.144 0.891 0.003zM12.65 14.511l0.005-0.861-0.891-0.003-0.004 0.861 0.891 0.003zM12.693 6.206l0.004-0.858-0.891-0.003-0.004 0.858 0.891 0.003zM12.671 10.502l0.004-0.858-0.891-0.003-0.004 0.858 0.891 0.003z"></path>
<path fill="rgba(128, 128, 128, 0.30000001192092896)" d="M15.918 14.809l0.003 0.16-0.27-0.001-0.003-0.16z"></path>
<path fill="rgb(10, 30, 96)" d="M15.918 14.809l0.003 0.16-11.878-0.042-0.003-0.16z"></path>
<path fill="rgb(148, 148, 148)" d="M15.919 14.523l0.003 0.16-0.002 0.286-0.003-0.16z"></path>
<path fill="rgb(255, 255, 255)" d="M4.341 14.482l11.579 0.041-0.002 0.286-11.878-0.042 0.077-9.736 0.297 0.001z"></path>
<path fill="rgb(255, 255, 255)" d="M12.848 7.343c0.302 0.001 0.545 0.236 0.543 0.525-0.001 0.291-0.246 0.525-0.548 0.524-0.070-0-0.139-0.016-0.203-0.040l-2.097 3.438c0.093 0.093 0.152 0.222 0.151 0.364-0.001 0.288-0.246 0.525-0.548 0.524-0.3-0.001-0.542-0.239-0.541-0.528 0.001-0.126 0.050-0.239 0.128-0.329l-0.889-0.897c-0.056 0.018-0.112 0.030-0.174 0.030-0.075-0-0.147-0.016-0.211-0.042l-0.863 0.896c0.077 0.093 0.127 0.206 0.127 0.336-0.001 0.289-0.246 0.525-0.549 0.524-0.299-0.001-0.542-0.239-0.54-0.528 0.002-0.291 0.246-0.525 0.546-0.524 0.059 0 0.115 0.013 0.168 0.029l0.879-0.914c-0.061-0.085-0.101-0.191-0.1-0.305 0.002-0.289 0.249-0.522 0.549-0.521s0.542 0.236 0.54 0.525c-0 0.126-0.047 0.239-0.125 0.329l0.889 0.897c0.056-0.018 0.112-0.031 0.171-0.030 0.048 0 0.091 0.008 0.136 0.018l2.118-3.471c-0.064-0.088-0.103-0.194-0.103-0.31 0.001-0.289 0.246-0.522 0.546-0.521z"></path>
</svg>
