<?xml version="1.0" encoding="utf-8"?>
<!-- Generated by IcoMoon.io -->
<!DOCTYPE svg PUBLIC "-//W3C//DTD SVG 1.1//EN" "http://www.w3.org/Graphics/SVG/1.1/DTD/svg11.dtd">
<svg version="1.1" xmlns="http://www.w3.org/2000/svg" xmlns:xlink="http://www.w3.org/1999/xlink" width="20" height="20" viewBox="0 0 20 20">
<path fill="rgb(242, 41, 95)" d="M0.309 10c0-5.352 4.339-9.691 9.69-9.691s9.691 4.338 9.691 9.691c0 5.352-4.339 9.69-9.691 9.69s-9.69-4.339-9.69-9.69z"></path>
<path fill="rgba(232, 19, 85, 0.30000001192092896)" d="M5.691 5.291l0.003 0.16-1.188-0.004-0.003-0.16z"></path>
<path fill="rgba(232, 19, 85, 0.30000001192092896)" d="M7.179 5.296l0.003 0.16-1.188-0.004-0.003-0.16z"></path>
<path fill="rgba(232, 19, 85, 0.30000001192092896)" d="M8.666 5.302l0.003 0.159-1.19-0.004-0.003-0.16z"></path>
<path fill="rgba(232, 19, 85, 0.30000001192092896)" d="M10.151 5.306l0.003 0.16-1.188-0.004-0.003-0.16z"></path>
<path fill="rgba(232, 19, 85, 0.30000001192092896)" d="M11.638 5.312l0.003 0.16-1.191-0.004-0.003-0.16z"></path>
<path fill="rgba(232, 19, 85, 0.30000001192092896)" d="M12.826 5.316l0.003 0.16-0.891-0.003-0.003-0.16z"></path>
<path fill="rgba(232, 19, 85, 0.30000001192092896)" d="M14.313 5.321l0.003 0.16-1.191-0.004-0.003-0.16z"></path>
<path fill="rgba(232, 19, 85, 0.30000001192092896)" d="M15.798 5.326l0.003 0.16-1.188-0.004-0.003-0.16z"></path>
<path fill="rgba(22, 25, 59, 0.03000000163912775)" d="M16.097 5.042l0.003 0.16-0.002 0.376-0.003-0.16z"></path>
<path fill="rgba(22, 25, 59, 0.03000000163912775)" d="M4.503 5.287l0.003 0.16-0.004 0.858-0.003-0.16z"></path>
<path fill="rgba(22, 25, 59, 0.03000000163912775)" d="M5.991 5.292l0.003 0.16-0.004 0.858-0.003-0.16z"></path>
<path fill="rgba(22, 25, 59, 0.03000000163912775)" d="M7.476 5.297l0.003 0.16-0.004 0.858-0.003-0.16z"></path>
<path fill="rgba(22, 25, 59, 0.03000000163912775)" d="M8.963 5.302l0.003 0.16-0.004 0.858-0.003-0.16z"></path>
<path fill="rgba(22, 25, 59, 0.03000000163912775)" d="M10.448 5.308l0.003 0.16-0.004 0.858-0.003-0.16z"></path>
<path fill="rgba(22, 25, 59, 0.03000000163912775)" d="M11.935 5.313l0.003 0.16-0.005 0.858-0.003-0.16z"></path>
<path fill="rgba(22, 25, 59, 0.03000000163912775)" d="M13.123 5.317l0.003 0.16-0.005 0.858-0.003-0.16z"></path>
<path fill="rgba(22, 25, 59, 0.03000000163912775)" d="M14.61 5.322l0.003 0.16-0.005 0.858-0.003-0.16z"></path>
<path fill="rgba(232, 19, 85, 0.30000001192092896)" d="M5.685 6.437l0.003 0.16-1.188-0.004-0.003-0.16z"></path>
<path fill="rgba(232, 19, 85, 0.30000001192092896)" d="M7.172 6.443l0.003 0.16-1.188-0.004-0.003-0.16z"></path>
<path fill="rgba(232, 19, 85, 0.30000001192092896)" d="M8.66 6.448l0.003 0.16-1.191-0.004-0.003-0.159z"></path>
<path fill="rgba(232, 19, 85, 0.30000001192092896)" d="M10.145 6.453l0.003 0.16-1.188-0.004-0.003-0.16z"></path>
<path fill="rgba(232, 19, 85, 0.30000001192092896)" d="M11.632 6.459l0.003 0.16-1.19-0.004-0.003-0.16z"></path>
<path fill="rgba(232, 19, 85, 0.30000001192092896)" d="M12.82 6.463l0.003 0.16-0.891-0.003-0.003-0.16z"></path>
<path fill="rgba(232, 19, 85, 0.30000001192092896)" d="M14.307 6.468l0.003 0.16-1.191-0.004-0.003-0.16z"></path>
<path fill="rgba(232, 19, 85, 0.30000001192092896)" d="M15.792 6.473l0.003 0.16-1.188-0.004-0.003-0.16z"></path>
<path fill="rgba(22, 25, 59, 0.03000000163912775)" d="M4.497 6.433l0.003 0.16-0.006 1.144-0.003-0.16z"></path>
<path fill="rgba(22, 25, 59, 0.03000000163912775)" d="M5.985 6.438l0.003 0.16-0.006 1.144-0.003-0.16z"></path>
<path fill="rgba(22, 25, 59, 0.03000000163912775)" d="M7.47 6.444l0.003 0.159-0.006 1.144-0.003-0.16z"></path>
<path fill="rgba(22, 25, 59, 0.03000000163912775)" d="M8.957 6.449l0.003 0.16-0.006 1.144-0.003-0.16z"></path>
<path fill="rgba(22, 25, 59, 0.03000000163912775)" d="M10.442 6.454l0.003 0.16-0.006 1.144-0.003-0.16z"></path>
<path fill="rgba(22, 25, 59, 0.03000000163912775)" d="M11.929 6.459l0.003 0.16-0.006 1.144-0.003-0.16z"></path>
<path fill="rgba(22, 25, 59, 0.03000000163912775)" d="M13.117 6.464l0.003 0.16-0.006 1.144-0.002-0.159z"></path>
<path fill="rgba(22, 25, 59, 0.03000000163912775)" d="M14.605 6.469l0.003 0.16-0.006 1.144-0.003-0.16z"></path>
<path fill="rgba(232, 19, 85, 0.30000001192092896)" d="M5.678 7.868l0.003 0.16-1.187-0.004-0.003-0.16z"></path>
<path fill="rgba(232, 19, 85, 0.30000001192092896)" d="M7.165 7.873l0.003 0.16-1.188-0.004-0.002-0.16z"></path>
<path fill="rgba(232, 19, 85, 0.30000001192092896)" d="M8.653 7.878l0.003 0.16-1.19-0.004-0.003-0.16z"></path>
<path fill="rgba(232, 19, 85, 0.30000001192092896)" d="M10.137 7.883l0.003 0.16-1.188-0.004-0.003-0.16z"></path>
<path fill="rgba(232, 19, 85, 0.30000001192092896)" d="M11.625 7.889l0.002 0.16-1.19-0.004-0.003-0.16z"></path>
<path fill="rgba(232, 19, 85, 0.30000001192092896)" d="M12.813 7.893l0.003 0.16-0.891-0.003-0.003-0.16z"></path>
<path fill="rgba(232, 19, 85, 0.30000001192092896)" d="M14.3 7.898l0.003 0.16-1.191-0.004-0.003-0.16z"></path>
<path fill="rgba(232, 19, 85, 0.30000001192092896)" d="M15.785 7.903l0.003 0.16-1.188-0.004-0.003-0.16z"></path>
<path fill="rgba(22, 25, 59, 0.03000000163912775)" d="M4.49 7.863l0.003 0.16-0.007 1.433-0.003-0.16z"></path>
<path fill="rgba(22, 25, 59, 0.03000000163912775)" d="M5.977 7.869l0.002 0.16-0.007 1.433-0.003-0.16z"></path>
<path fill="rgba(22, 25, 59, 0.03000000163912775)" d="M7.462 7.874l0.003 0.16-0.008 1.433-0.003-0.16z"></path>
<path fill="rgba(22, 25, 59, 0.03000000163912775)" d="M8.95 7.879l0.003 0.16-0.007 1.433-0.003-0.16z"></path>
<path fill="rgba(22, 25, 59, 0.03000000163912775)" d="M10.434 7.885l0.003 0.16-0.008 1.433-0.003-0.16z"></path>
<path fill="rgba(22, 25, 59, 0.03000000163912775)" d="M11.922 7.89l0.003 0.16-0.008 1.433-0.003-0.16z"></path>
<path fill="rgba(22, 25, 59, 0.03000000163912775)" d="M13.11 7.894l0.003 0.16-0.008 1.433-0.003-0.16z"></path>
<path fill="rgba(22, 25, 59, 0.03000000163912775)" d="M14.597 7.899l0.003 0.16-0.008 1.433-0.003-0.16z"></path>
<path fill="rgba(232, 19, 85, 0.30000001192092896)" d="M5.669 9.587l0.003 0.16-1.188-0.004-0.003-0.16z"></path>
<path fill="rgba(232, 19, 85, 0.30000001192092896)" d="M7.156 9.592l0.003 0.16-1.188-0.004-0.003-0.16z"></path>
<path fill="rgba(232, 19, 85, 0.30000001192092896)" d="M8.644 9.597l0.003 0.16-1.19-0.004-0.003-0.159z"></path>
<path fill="rgba(232, 19, 85, 0.30000001192092896)" d="M10.128 9.602l0.003 0.16-1.188-0.004-0.003-0.16z"></path>
<path fill="rgba(232, 19, 85, 0.30000001192092896)" d="M11.616 9.607l0.003 0.16-1.19-0.004-0.003-0.16z"></path>
<path fill="rgba(232, 19, 85, 0.30000001192092896)" d="M12.804 9.612l0.003 0.16-0.891-0.003-0.003-0.16z"></path>
<path fill="rgba(232, 19, 85, 0.30000001192092896)" d="M14.291 9.617l0.003 0.16-1.191-0.004-0.002-0.16z"></path>
<path fill="rgba(232, 19, 85, 0.30000001192092896)" d="M15.776 9.622l0.003 0.16-1.188-0.004-0.003-0.16z"></path>
<path fill="rgba(22, 25, 59, 0.03000000163912775)" d="M4.481 9.582l0.003 0.16-0.004 0.858-0.003-0.16z"></path>
<path fill="rgba(22, 25, 59, 0.03000000163912775)" d="M5.968 9.588l0.003 0.16-0.004 0.858-0.003-0.16z"></path>
<path fill="rgba(22, 25, 59, 0.03000000163912775)" d="M7.453 9.593l0.003 0.159-0.004 0.858-0.003-0.16z"></path>
<path fill="rgba(22, 25, 59, 0.03000000163912775)" d="M8.941 9.598l0.003 0.16-0.004 0.858-0.003-0.16z"></path>
<path fill="rgba(22, 25, 59, 0.03000000163912775)" d="M10.426 9.603l0.003 0.16-0.004 0.858-0.003-0.16z"></path>
<path fill="rgba(22, 25, 59, 0.03000000163912775)" d="M11.913 9.609l0.003 0.16-0.005 0.858-0.003-0.16z"></path>
<path fill="rgba(22, 25, 59, 0.03000000163912775)" d="M13.101 9.613l0.002 0.16-0.004 0.858-0.003-0.16z"></path>
<path fill="rgba(22, 25, 59, 0.03000000163912775)" d="M14.588 9.618l0.003 0.16-0.004 0.858-0.003-0.16z"></path>
<path fill="rgba(232, 19, 85, 0.03000000163912775)" d="M5.663 10.731l0.003 0.16-1.188-0.004-0.003-0.16z"></path>
<path fill="rgba(232, 19, 85, 0.30000001192092896)" d="M7.15 10.736l0.003 0.16-1.188-0.004-0.003-0.16z"></path>
<path fill="rgba(232, 19, 85, 0.30000001192092896)" d="M8.638 10.741l0.003 0.16-1.191-0.004-0.003-0.16z"></path>
<path fill="rgba(232, 19, 85, 0.30000001192092896)" d="M10.123 10.747l0.003 0.16-1.188-0.004-0.003-0.16z"></path>
<path fill="rgba(232, 19, 85, 0.30000001192092896)" d="M11.61 10.752l0.003 0.16-1.19-0.004-0.003-0.16z"></path>
<path fill="rgba(232, 19, 85, 0.30000001192092896)" d="M12.798 10.756l0.003 0.16-0.891-0.003-0.003-0.16z"></path>
<path fill="rgba(232, 19, 85, 0.30000001192092896)" d="M14.285 10.761l0.003 0.16-1.191-0.004-0.002-0.16z"></path>
<path fill="rgba(232, 19, 85, 0.03000000163912775)" d="M15.77 10.766l0.003 0.16-1.188-0.004-0.003-0.16z"></path>
<path fill="rgba(22, 25, 59, 0.03000000163912775)" d="M4.475 10.726l0.003 0.16-0.006 1.147-0.003-0.16z"></path>
<path fill="rgba(22, 25, 59, 0.03000000163912775)" d="M5.963 10.732l0.003 0.16-0.006 1.147-0.003-0.16z"></path>
<path fill="rgba(22, 25, 59, 0.03000000163912775)" d="M7.447 10.737l0.003 0.16-0.006 1.147-0.003-0.16z"></path>
<path fill="rgba(22, 25, 59, 0.03000000163912775)" d="M8.935 10.742l0.003 0.16-0.006 1.147-0.003-0.16z"></path>
<path fill="rgba(22, 25, 59, 0.03000000163912775)" d="M10.42 10.748l0.003 0.16-0.006 1.147-0.003-0.16z"></path>
<path fill="rgba(22, 25, 59, 0.03000000163912775)" d="M11.907 10.753l0.003 0.16-0.006 1.147-0.003-0.16z"></path>
<path fill="rgba(22, 25, 59, 0.03000000163912775)" d="M13.095 10.757l0.002 0.16-0.006 1.147-0.003-0.16z"></path>
<path fill="rgba(22, 25, 59, 0.03000000163912775)" d="M14.582 10.762l0.003 0.16-0.006 1.147-0.003-0.16z"></path>
<path fill="rgba(232, 19, 85, 0.03000000163912775)" d="M5.656 12.163l0.003 0.16-1.188-0.004-0.003-0.16z"></path>
<path fill="rgba(232, 19, 85, 0.30000001192092896)" d="M7.143 12.169l0.003 0.16-1.188-0.004-0.003-0.16z"></path>
<path fill="rgba(232, 19, 85, 0.30000001192092896)" d="M8.63 12.174l0.003 0.16-1.19-0.004-0.003-0.16z"></path>
<path fill="rgba(232, 19, 85, 0.30000001192092896)" d="M10.115 12.179l0.003 0.16-1.188-0.004-0.002-0.16z"></path>
<path fill="rgba(232, 19, 85, 0.30000001192092896)" d="M11.603 12.185l0.002 0.16-1.19-0.004-0.003-0.16z"></path>
<path fill="rgba(232, 19, 85, 0.30000001192092896)" d="M12.791 12.189l0.003 0.16-0.891-0.003-0.003-0.16z"></path>
<path fill="rgba(232, 19, 85, 0.30000001192092896)" d="M14.278 12.194l0.003 0.16-1.19-0.004-0.003-0.16z"></path>
<path fill="rgba(232, 19, 85, 0.30000001192092896)" d="M15.763 12.199l0.003 0.16-1.188-0.004-0.003-0.16z"></path>
<path fill="rgba(22, 25, 59, 0.03000000163912775)" d="M4.468 12.159l0.003 0.16-0.006 1.144-0.003-0.16z"></path>
<path fill="rgba(22, 25, 59, 0.03000000163912775)" d="M5.955 12.165l0.003 0.16-0.006 1.144-0.003-0.16z"></path>
<path fill="rgba(22, 25, 59, 0.03000000163912775)" d="M7.44 12.17l0.003 0.16-0.006 1.144-0.003-0.16z"></path>
<path fill="rgba(22, 25, 59, 0.03000000163912775)" d="M8.928 12.175l0.002 0.16-0.006 1.144-0.003-0.16z"></path>
<path fill="rgba(22, 25, 59, 0.03000000163912775)" d="M10.412 12.18l0.003 0.16-0.006 1.144-0.003-0.16z"></path>
<path fill="rgba(22, 25, 59, 0.03000000163912775)" d="M11.899 12.185l0.003 0.16-0.006 1.144-0.003-0.16z"></path>
<path fill="rgba(22, 25, 59, 0.03000000163912775)" d="M13.087 12.19l0.003 0.16-0.006 1.144-0.003-0.16z"></path>
<path fill="rgba(22, 25, 59, 0.03000000163912775)" d="M14.575 12.195l0.003 0.16-0.006 1.144-0.003-0.16z"></path>
<path fill="rgba(232, 19, 85, 0.30000001192092896)" d="M5.648 13.594l0.002 0.16-1.188-0.004-0.003-0.16z"></path>
<path fill="rgba(232, 19, 85, 0.30000001192092896)" d="M7.136 13.599l0.003 0.16-1.188-0.004-0.003-0.16z"></path>
<path fill="rgba(232, 19, 85, 0.30000001192092896)" d="M8.623 13.604l0.003 0.16-1.19-0.004-0.003-0.16z"></path>
<path fill="rgba(232, 19, 85, 0.30000001192092896)" d="M10.108 13.61l0.003 0.16-1.188-0.004-0.003-0.16z"></path>
<path fill="rgba(232, 19, 85, 0.30000001192092896)" d="M11.595 13.615l0.003 0.16-1.191-0.004-0.003-0.16z"></path>
<path fill="rgba(232, 19, 85, 0.30000001192092896)" d="M12.783 13.619l0.003 0.16-0.891-0.003-0.003-0.16z"></path>
<path fill="rgba(232, 19, 85, 0.30000001192092896)" d="M14.27 13.624l0.003 0.16-1.19-0.004-0.003-0.16z"></path>
<path fill="rgba(232, 19, 85, 0.30000001192092896)" d="M15.755 13.629l0.003 0.16-1.188-0.004-0.003-0.16z"></path>
<path fill="rgba(22, 25, 59, 0.03000000163912775)" d="M4.46 13.59l0.003 0.16-0.004 0.861-0.003-0.16z"></path>
<path fill="rgba(22, 25, 59, 0.03000000163912775)" d="M5.948 13.595l0.003 0.16-0.004 0.861-0.003-0.16z"></path>
<path fill="rgba(22, 25, 59, 0.03000000163912775)" d="M7.433 13.6l0.003 0.16-0.004 0.861-0.003-0.16z"></path>
<path fill="rgba(22, 25, 59, 0.03000000163912775)" d="M8.92 13.605l0.003 0.16-0.005 0.861-0.003-0.16z"></path>
<path fill="rgba(22, 25, 59, 0.03000000163912775)" d="M10.405 13.611l0.003 0.16-0.004 0.861-0.003-0.16z"></path>
<path fill="rgba(22, 25, 59, 0.03000000163912775)" d="M11.892 13.616l0.003 0.16-0.004 0.861-0.003-0.16z"></path>
<path fill="rgba(22, 25, 59, 0.03000000163912775)" d="M13.080 13.62l0.003 0.16-0.004 0.861-0.003-0.16z"></path>
<path fill="rgba(22, 25, 59, 0.03000000163912775)" d="M14.568 13.625l0.003 0.16-0.004 0.86-0.003-0.159z"></path>
<path fill="rgba(128, 128, 128, 0.30000001192092896)" d="M4.481 14.736l0.003 0.16-0.323-0.001-0.003-0.16z"></path>
<path fill="rgba(128, 128, 128, 0.30000001192092896)" d="M5.669 14.741l0.003 0.16-1.188-0.004-0.003-0.16z"></path>
<path fill="rgba(128, 128, 128, 0.30000001192092896)" d="M5.966 14.742l0.003 0.159-0.297-0.001-0.003-0.16z"></path>
<path fill="rgba(22, 25, 59, 0.03000000163912775)" d="M16.095 5.418l0.003 0.16-0.047 9.164-0.003-0.16z"></path>
<path fill="rgba(128, 128, 128, 0.30000001192092896)" d="M7.156 14.746l0.002 0.16-1.19-0.004-0.003-0.159z"></path>
<path fill="rgba(128, 128, 128, 0.30000001192092896)" d="M7.453 14.747l0.003 0.16-0.297-0.001-0.002-0.16z"></path>
<path fill="rgba(128, 128, 128, 0.30000001192092896)" d="M8.641 14.751l0.003 0.16-1.188-0.004-0.003-0.16z"></path>
<path fill="rgba(128, 128, 128, 0.30000001192092896)" d="M8.938 14.752l0.003 0.16-0.297-0.001-0.003-0.16z"></path>
<path fill="rgba(128, 128, 128, 0.30000001192092896)" d="M10.129 14.756l0.003 0.16-1.19-0.004-0.003-0.16z"></path>
<path fill="rgba(128, 128, 128, 0.30000001192092896)" d="M10.426 14.757l0.003 0.16-0.297-0.001-0.003-0.16z"></path>
<path fill="rgba(128, 128, 128, 0.30000001192092896)" d="M11.613 14.761l0.003 0.16-1.188-0.004-0.003-0.16z"></path>
<path fill="rgba(128, 128, 128, 0.30000001192092896)" d="M11.911 14.763l0.003 0.16-0.297-0.001-0.003-0.16z"></path>
<path fill="rgba(128, 128, 128, 0.30000001192092896)" d="M12.804 14.766l0.003 0.16-0.894-0.003-0.003-0.16z"></path>
<path fill="rgba(128, 128, 128, 0.30000001192092896)" d="M13.101 14.767l0.003 0.16-0.297-0.001-0.003-0.16z"></path>
<path fill="rgba(128, 128, 128, 0.30000001192092896)" d="M14.289 14.771l0.003 0.16-1.188-0.004-0.003-0.16z"></path>
<path fill="rgba(128, 128, 128, 0.30000001192092896)" d="M14.586 14.772l0.003 0.16-0.297-0.001-0.003-0.16z"></path>
<path fill="rgba(128, 128, 128, 0.30000001192092896)" d="M15.776 14.776l0.003 0.16-1.19-0.004-0.003-0.16z"></path>
<path fill="rgba(148, 148, 148, 0.30000001192092896)" d="M16.047 14.581l0.003 0.16-0.001 0.196-0.003-0.16z"></path>
<path fill="rgba(255, 255, 255, 0.30000001192092896)" d="M15.826 5.040l0.271 0.001-0.002 0.376-0.048 9.164-0.001 0.196-11.889-0.042 0.001-0.196 0.004-0.861 0.001-0.286 0.006-1.144 0.002-0.286 0.006-1.147 0.002-0.286 0.004-0.858 0.001-0.286 0.007-1.433 0.002-0.286 0.006-1.144 0.001-0.286 0.004-0.861 0.002-0.376 11.619 0.041zM14.293 9.331l0.007-1.433-1.19-0.004-0.007 1.433 1.19 0.004zM8.645 9.311l0.007-1.433-1.191-0.004-0.007 1.433 1.191 0.004zM11.617 9.321l0.008-1.433-1.191-0.004-0.007 1.433 1.191 0.004zM10.13 9.316l0.007-1.433-1.188-0.004-0.007 1.433 1.188 0.004zM7.158 9.306l0.007-1.433-1.188-0.004-0.008 1.433 1.188 0.004zM5.671 9.3l0.007-1.433-1.187-0.004-0.008 1.433 1.188 0.004zM15.777 9.336l0.007-1.433-1.188-0.004-0.007 1.433 1.188 0.004zM11.604 11.898l0.006-1.147-1.19-0.004-0.006 1.147 1.19 0.004zM8.632 11.888l0.006-1.147-1.191-0.004-0.006 1.147 1.191 0.004zM14.279 11.908l0.006-1.147-1.19-0.004-0.006 1.147 1.19 0.004zM10.117 11.893l0.006-1.147-1.188-0.004-0.006 1.147 1.188 0.004zM11.626 7.603l0.006-1.144-1.19-0.004-0.006 1.144 1.19 0.004zM7.145 11.883l0.006-1.147-1.188-0.004-0.006 1.147 1.188 0.004zM14.301 7.612l0.006-1.144-1.19-0.004-0.006 1.144 1.19 0.004zM8.654 7.592l0.006-1.144-1.19-0.004-0.006 1.144 1.191 0.004zM5.657 11.877l0.006-1.147-1.188-0.004-0.006 1.147 1.188 0.004zM14.272 13.338l0.006-1.144-1.191-0.004-0.006 1.144 1.191 0.004zM15.764 11.913l0.006-1.147-1.188-0.004-0.006 1.147 1.188 0.004zM8.625 13.318l0.006-1.144-1.19-0.004-0.006 1.144 1.19 0.004zM11.597 13.329l0.006-1.144-1.191-0.004-0.006 1.144 1.191 0.004zM10.139 7.598l0.006-1.144-1.188-0.004-0.006 1.144 1.188 0.004zM7.167 7.587l0.006-1.144-1.188-0.004-0.006 1.144 1.188 0.004zM5.679 7.582l0.006-1.144-1.188-0.004-0.006 1.144 1.188 0.004zM10.109 13.324l0.006-1.144-1.188-0.004-0.006 1.144 1.188 0.004zM7.137 13.313l0.006-1.144-1.188-0.004-0.006 1.144 1.188 0.004zM15.786 7.617l0.006-1.144-1.188-0.004-0.006 1.144 1.188 0.004zM5.65 13.308l0.006-1.144-1.188-0.004-0.006 1.144 1.188 0.004zM15.757 13.343l0.006-1.144-1.188-0.004-0.006 1.144 1.188 0.004zM12.805 9.326l0.008-1.433-0.891-0.003-0.007 1.433 0.891 0.003zM8.619 14.465l0.004-0.861-1.19-0.004-0.004 0.86 1.191 0.004zM14.266 14.485l0.004-0.861-1.19-0.004-0.005 0.861 1.191 0.004zM11.591 14.475l0.004-0.861-1.19-0.004-0.004 0.86 1.19 0.004zM10.103 14.47l0.004-0.861-1.188-0.004-0.004 0.861 1.188 0.004zM7.131 14.46l0.004-0.861-1.188-0.004-0.005 0.861 1.188 0.004zM5.644 14.454l0.005-0.861-1.188-0.004-0.004 0.861 1.188 0.004zM15.751 14.49l0.004-0.861-1.187-0.004-0.005 0.861 1.188 0.004zM14.309 6.179l0.004-0.858-1.19-0.004-0.004 0.858 1.19 0.004zM11.633 6.17l0.005-0.858-1.191-0.004-0.004 0.858 1.19 0.004zM8.662 6.159l0.004-0.858-1.19-0.004-0.005 0.858 1.191 0.004zM14.287 10.475l0.004-0.858-1.19-0.004-0.004 0.858 1.19 0.004zM11.612 10.466l0.004-0.858-1.19-0.004-0.004 0.858 1.19 0.004zM8.639 10.455l0.004-0.858-1.19-0.004-0.004 0.858 1.19 0.004zM12.792 11.903l0.006-1.147-0.891-0.003-0.006 1.147 0.89 0.003zM10.146 6.165l0.004-0.858-1.188-0.004-0.005 0.858 1.188 0.004zM10.124 10.46l0.004-0.858-1.188-0.004-0.005 0.858 1.188 0.004zM7.174 6.154l0.004-0.858-1.188-0.004-0.004 0.858 1.188 0.004zM7.152 10.45l0.004-0.858-1.188-0.004-0.004 0.858 1.188 0.004zM12.814 7.607l0.006-1.144-0.891-0.003-0.006 1.144 0.891 0.003zM5.687 6.149l0.004-0.858-1.188-0.004-0.004 0.858 1.188 0.004zM5.665 10.445l0.004-0.858-1.188-0.004-0.004 0.858 1.188 0.004zM15.794 6.185l0.004-0.858-1.188-0.004-0.004 0.858 1.188 0.004zM15.772 10.481l0.004-0.858-1.188-0.004-0.004 0.858 1.188 0.004zM12.785 13.333l0.006-1.144-0.891-0.003-0.006 1.144 0.891 0.003zM12.779 14.48l0.005-0.861-0.891-0.003-0.004 0.861 0.891 0.003zM12.821 6.174l0.004-0.858-0.891-0.003-0.004 0.858 0.891 0.003zM12.799 10.47l0.004-0.858-0.891-0.003-0.004 0.858 0.891 0.003z"></path>
<path fill="rgba(128, 128, 128, 0.30000001192092896)" d="M16.046 14.777l0.003 0.16-0.27-0.001-0.003-0.16z"></path>
<path fill="rgb(255, 255, 255)" d="M16.139 14.758h-11.971v-9.822h-0.153v0.307h-0.153v0.153h0.153v2.762h-0.153v0.153h0.153v2.609h-0.153v0.154h0.153v2.609h-0.153v0.154h0.153v1.074h0.614v0.153h0.154v-0.153h2.762v0.153h0.153v-0.153h2.609v0.153h0.153v-0.153h2.609v0.153h0.153v-0.153h2.916z"></path>
<path fill="rgb(255, 255, 255)" d="M5.262 7.688c0-0.238 0.193-0.432 0.432-0.432s0.432 0.193 0.432 0.432-0.193 0.432-0.432 0.432c-0.238 0-0.432-0.193-0.432-0.432z"></path>
<path fill="rgb(255, 255, 255)" d="M6.796 9.53c0-0.238 0.193-0.432 0.432-0.432s0.432 0.193 0.432 0.432c0 0.238-0.193 0.432-0.432 0.432s-0.432-0.193-0.432-0.432z"></path>
<path fill="rgb(255, 255, 255)" d="M9.194 11.986c0 0.238-0.193 0.432-0.432 0.432s-0.432-0.193-0.432-0.432c0-0.238 0.193-0.432 0.432-0.432s0.432 0.193 0.432 0.432z"></path>
<path fill="rgb(255, 255, 255)" d="M9.866 13.52c0-0.238 0.193-0.432 0.432-0.432s0.432 0.193 0.432 0.432-0.193 0.432-0.432 0.432-0.432-0.193-0.432-0.432z"></path>
<path fill="rgb(255, 255, 255)" d="M12.475 13.52c0-0.238 0.193-0.432 0.432-0.432s0.432 0.193 0.432 0.432-0.193 0.432-0.432 0.432-0.432-0.193-0.432-0.432z"></path>
</svg>
