<?xml version="1.0" encoding="utf-8"?>
<!-- Generated by IcoMoon.io -->
<!DOCTYPE svg PUBLIC "-//W3C//DTD SVG 1.1//EN" "http://www.w3.org/Graphics/SVG/1.1/DTD/svg11.dtd">
<svg version="1.1" xmlns="http://www.w3.org/2000/svg" xmlns:xlink="http://www.w3.org/1999/xlink" width="20" height="20" viewBox="0 0 20 20">
<path fill="rgb(255, 187, 0)" d="M0.309 10c0-5.352 4.339-9.691 9.69-9.691s9.691 4.338 9.691 9.691c0 5.352-4.339 9.69-9.691 9.69s-9.69-4.339-9.69-9.69z"></path>
<path fill="rgb(204, 204, 204)" d="M13.355 15.539l-0.518-0.282 0.016-8.351 0.518 0.282z"></path>
<path fill="rgb(230, 230, 230)" d="M13.371 7.189l-0.518-0.282 1.785-0.251 0.518 0.282z"></path>
<path fill="rgb(255, 255, 255)" d="M15.156 6.938l-0.016 8.351-1.785 0.251 0.016-8.351z"></path>
<path fill="rgb(204, 204, 204)" d="M10.995 15.889l-0.518-0.281 0.015-6.777 0.518 0.282z"></path>
<path fill="rgb(230, 230, 230)" d="M11.011 9.112l-0.518-0.282 1.786-0.251 0.518 0.281z"></path>
<path fill="rgb(255, 255, 255)" d="M12.796 8.861l-0.016 6.777-1.785 0.251 0.015-6.777z"></path>
<path fill="rgb(204, 204, 204)" d="M8.635 16.238l-0.518-0.282 0.016-4.854 0.518 0.282z"></path>
<path fill="rgb(230, 230, 230)" d="M8.65 11.384l-0.518-0.282 1.785-0.251 0.518 0.282z"></path>
<path fill="rgb(255, 255, 255)" d="M10.436 11.133l-0.016 4.854-1.785 0.251 0.015-4.854z"></path>
<path fill="rgb(204, 204, 204)" d="M6.275 16.588l-0.518-0.282 0.016-3.019 0.518 0.282z"></path>
<path fill="rgb(230, 230, 230)" d="M6.291 13.569l-0.518-0.282 1.786-0.251 0.518 0.282z"></path>
<path fill="rgb(255, 255, 255)" d="M8.076 13.318l-0.015 3.019-1.786 0.251 0.016-3.019z"></path>
<path fill="rgb(18, 120, 153)" d="M11.606 6.388l-0.386-0.21 0.771 0.633 0.386 0.21z"></path>
<path fill="rgb(45, 186, 204)" d="M11.49 3.412l-2.383 2.495 0.385 0.21 2.383-2.495z"></path>
<path fill="rgb(45, 186, 204)" d="M10.384 6.653c0.046-0.101 0.088-0.201 0.124-0.299 0-0.001 0.001-0.002 0.001-0.003 0.029-0.078 0.055-0.155 0.076-0.232l-0.385-0.21c-0.023 0.077-0.049 0.155-0.078 0.234-0.036 0.098-0.079 0.199-0.124 0.3-0.013 0.029-0.027 0.058-0.041 0.086-0.036 0.076-0.075 0.154-0.115 0.231-0.015 0.028-0.029 0.056-0.044 0.084-0.070 0.129-0.146 0.258-0.228 0.389-0.016 0.025-0.031 0.050-0.047 0.076-0.085 0.133-0.173 0.267-0.267 0.401-0.015 0.022-0.031 0.043-0.047 0.065-0.064 0.090-0.13 0.18-0.197 0.27-0.022 0.030-0.045 0.060-0.068 0.091-0.079 0.103-0.159 0.207-0.241 0.31-0.005 0.006-0.010 0.012-0.015 0.019-0.089 0.111-0.18 0.221-0.273 0.33-0.023 0.028-0.047 0.055-0.070 0.083-0.074 0.087-0.149 0.174-0.225 0.26-0.019 0.022-0.039 0.045-0.059 0.067-0.105 0.119-0.212 0.237-0.319 0.353-0.018 0.019-0.035 0.038-0.053 0.057-0.099 0.107-0.198 0.212-0.296 0.316-0.012 0.012-0.023 0.025-0.035 0.036-0.106 0.111-0.211 0.219-0.316 0.325-0.022 0.022-0.044 0.045-0.066 0.067-0.099 0.1-0.197 0.198-0.294 0.293-0.005 0.005-0.011 0.011-0.016 0.016-0.1 0.098-0.198 0.193-0.294 0.285-0.023 0.022-0.046 0.044-0.069 0.067-0.092 0.088-0.183 0.174-0.27 0.255-0.011 0.011-0.022 0.021-0.033 0.031-0.079 0.073-0.155 0.144-0.228 0.211-0.020 0.018-0.040 0.036-0.059 0.054-0.078 0.072-0.153 0.14-0.223 0.203-0.095 0.086-0.183 0.164-0.26 0.232-0.009 0.008-0.017 0.015-0.025 0.023-0.030 0.027-0.060 0.052-0.086 0.076-0.011 0.010-0.022 0.019-0.033 0.029-0.021 0.018-0.042 0.036-0.060 0.052-0.012 0.010-0.022 0.019-0.033 0.029-0.015 0.013-0.029 0.025-0.042 0.036-0.011 0.010-0.023 0.020-0.033 0.028-0.006 0.005-0.012 0.010-0.017 0.015-0.027 0.023-0.048 0.041-0.059 0.050l0.386 0.21c0.009-0.008 0.029-0.025 0.053-0.045 0.008-0.007 0.015-0.013 0.024-0.021 0.011-0.009 0.023-0.019 0.035-0.030 0.010-0.008 0.020-0.017 0.031-0.027 0.015-0.013 0.031-0.027 0.048-0.042 0.012-0.010 0.024-0.021 0.036-0.032 0.018-0.016 0.037-0.032 0.057-0.050 0.016-0.014 0.033-0.029 0.050-0.044 0.020-0.017 0.038-0.034 0.059-0.052 0.015-0.014 0.032-0.028 0.048-0.042 0.051-0.045 0.105-0.093 0.163-0.145 0.012-0.011 0.024-0.021 0.036-0.032 0.001-0.001 0.002-0.002 0.003-0.003 0.074-0.066 0.153-0.138 0.236-0.214 0.013-0.012 0.027-0.025 0.040-0.037 0.082-0.075 0.166-0.153 0.255-0.236 0.004-0.004 0.008-0.007 0.012-0.011 0.088-0.083 0.18-0.17 0.274-0.26 0.023-0.021 0.045-0.043 0.067-0.064 0.096-0.092 0.194-0.186 0.294-0.285 0.007-0.006 0.014-0.013 0.020-0.019 0.094-0.092 0.189-0.187 0.285-0.284 0.025-0.026 0.050-0.051 0.076-0.077 0.101-0.103 0.203-0.207 0.306-0.315 0.017-0.018 0.034-0.036 0.051-0.054 0.092-0.096 0.184-0.194 0.275-0.292 0.023-0.025 0.046-0.049 0.069-0.075 0.104-0.112 0.206-0.226 0.308-0.341 0.007-0.008 0.015-0.016 0.022-0.025 0.015-0.017 0.030-0.034 0.045-0.051 0.073-0.084 0.146-0.168 0.218-0.252 0.026-0.030 0.051-0.060 0.076-0.090 0.091-0.108 0.18-0.216 0.268-0.325 0.008-0.010 0.015-0.020 0.023-0.029 0.079-0.1 0.157-0.2 0.233-0.3 0.024-0.031 0.047-0.062 0.070-0.093 0.067-0.089 0.132-0.179 0.195-0.268 0.012-0.017 0.025-0.034 0.038-0.052 0.003-0.005 0.006-0.010 0.010-0.015 0.094-0.134 0.183-0.268 0.268-0.401 0.016-0.025 0.031-0.050 0.047-0.075 0.082-0.131 0.158-0.261 0.228-0.39 0.005-0.010 0.012-0.019 0.017-0.029 0.010-0.019 0.018-0.036 0.027-0.055 0.041-0.078 0.080-0.154 0.116-0.231 0.014-0.029 0.028-0.058 0.041-0.087z"></path>
<path fill="rgb(0, 237, 255)" d="M11.876 3.622l0.502 3.399-0.772-0.633c-0.085 0.18-1.708 3.6-6.377 6.162 0.231-0.196 4.624-3.922 5.356-6.431l-1.093-0.003 2.383-2.495z"></path>
</svg>
