<?xml version="1.0" encoding="utf-8"?>
<!-- Generated by IcoMoon.io -->
<!DOCTYPE svg PUBLIC "-//W3C//DTD SVG 1.1//EN" "http://www.w3.org/Graphics/SVG/1.1/DTD/svg11.dtd">
<svg version="1.1" xmlns="http://www.w3.org/2000/svg" xmlns:xlink="http://www.w3.org/1999/xlink" width="20" height="20" viewBox="0 0 20 20">
<path fill="rgb(255, 187, 0)" d="M0.309 10c0-5.352 4.339-9.691 9.69-9.691s9.691 4.338 9.691 9.691c0 5.352-4.339 9.69-9.691 9.69s-9.69-4.339-9.69-9.69z"></path>
<path fill="rgba(0, 0, 0, 0.1899999976158142)" d="M6.672 4.705c-0.334 0-0.605 0.271-0.605 0.605v9.687c0 0.334 0.271 0.605 0.605 0.605h6.963c0.334 0 0.605-0.271 0.605-0.605v-7.489l-2.918-2.804h-4.649z"></path>
<path fill="rgba(0, 0, 0, 0.1899999976158142)" d="M14.24 7.508h-2.313c-0.335 0-0.606-0.271-0.606-0.605v-2.198l2.918 2.804z"></path>
<path fill="rgb(245, 245, 245)" d="M6.519 4.551c-0.334 0-0.605 0.271-0.605 0.606v9.687c0 0.334 0.271 0.605 0.605 0.605h6.963c0.334 0 0.605-0.271 0.605-0.605v-7.489l-2.918-2.804h-4.649z"></path>
<path fill="rgb(225, 225, 225)" d="M14.087 7.355h-2.313c-0.334 0-0.605-0.271-0.605-0.605v-2.198l2.918 2.804z"></path>
<path fill="rgb(0, 120, 131)" d="M7.627 6.112h1.228v3.069h-1.228v-3.069z"></path>
<path fill="rgb(14, 80, 102)" d="M7.474 6.112h0.153v3.069h-0.153v-3.069z"></path>
<path fill="rgb(18, 120, 153)" d="M9.008 7.032h0.307v2.149h-0.307v-2.149z"></path>
<path fill="rgb(0, 173, 187)" d="M9.315 7.032h0.921v2.149h-0.921v-2.149z"></path>
<path fill="rgb(26, 139, 179)" d="M10.39 7.646h0.307v1.535h-0.307v-1.535z"></path>
<path fill="rgb(15, 188, 211)" d="M10.696 7.646h0.767v1.535h-0.767v-1.535z"></path>
<path fill="rgb(149, 199, 195)" d="M11.714 8.567h0.21v0.614h-0.307v-0.614h0.043z"></path>
<path fill="rgb(162, 216, 212)" d="M12.623 8.567h0.069v0.614h-0.767v-0.614z"></path>
<path fill="rgb(230, 230, 230)" d="M6.553 9.948h2.456v0.307h-2.456v-0.307z"></path>
<path fill="rgb(230, 230, 230)" d="M6.553 10.716h3.223v0.46h-3.223v-0.46z"></path>
<path fill="rgb(230, 230, 230)" d="M6.553 11.483h3.223v0.46h-3.223v-0.46z"></path>
<path fill="rgb(230, 230, 230)" d="M6.553 12.404h2.456v0.46h-2.456v-0.46z"></path>
<path fill="rgb(230, 230, 230)" d="M6.553 13.171h3.223v0.46h-3.223v-0.46z"></path>
<path fill="rgb(230, 230, 230)" d="M6.553 14.092h3.223v0.307h-3.223v-0.307z"></path>
<path fill="rgb(230, 230, 230)" d="M10.236 9.948h2.456v0.307h-2.456v-0.307z"></path>
<path fill="rgb(230, 230, 230)" d="M10.236 10.716h3.223v0.46h-3.223v-0.46z"></path>
<path fill="rgb(230, 230, 230)" d="M10.236 11.483h3.223v0.46h-3.223v-0.46z"></path>
<path fill="rgb(230, 230, 230)" d="M10.236 12.404h2.456v0.46h-2.456v-0.46z"></path>
<path fill="rgb(230, 230, 230)" d="M10.236 13.171h3.223v0.46h-3.223v-0.46z"></path>
<path fill="rgb(230, 230, 230)" d="M10.236 14.092h3.223v0.307h-3.223v-0.307z"></path>
</svg>
