<?xml version="1.0" encoding="utf-8"?>
<!-- Generated by IcoMoon.io -->
<!DOCTYPE svg PUBLIC "-//W3C//DTD SVG 1.1//EN" "http://www.w3.org/Graphics/SVG/1.1/DTD/svg11.dtd">
<svg version="1.1" xmlns="http://www.w3.org/2000/svg" xmlns:xlink="http://www.w3.org/1999/xlink" width="20" height="20" viewBox="0 0 20 20">
<path fill="rgb(37, 238, 141)" d="M0.309 10c0-5.352 4.339-9.691 9.69-9.691s9.691 4.338 9.691 9.691c0 5.352-4.339 9.69-9.691 9.69s-9.69-4.339-9.69-9.69z"></path>
<path fill="rgb(0, 161, 84)" d="M10.313 7.342l-0.279-0.152 0.558 0.458 0.28 0.152z"></path>
<path fill="rgb(0, 161, 84)" d="M10.228 5.187l-1.726 1.807 0.279 0.152 1.726-1.807z"></path>
<path fill="rgb(0, 161, 84)" d="M9.427 7.534c0.033-0.073 0.064-0.146 0.090-0.217 0-0.001 0.001-0.001 0.001-0.002 0.021-0.056 0.039-0.113 0.055-0.168l-0.279-0.152c-0.016 0.056-0.035 0.112-0.056 0.169-0.026 0.071-0.057 0.144-0.090 0.217-0.009 0.021-0.020 0.042-0.030 0.063-0.026 0.055-0.054 0.111-0.083 0.167-0.011 0.020-0.021 0.040-0.032 0.061-0.051 0.093-0.106 0.187-0.165 0.282-0.011 0.018-0.023 0.036-0.034 0.055-0.061 0.096-0.125 0.193-0.193 0.29-0.011 0.016-0.023 0.031-0.034 0.047-0.046 0.065-0.094 0.13-0.143 0.195-0.016 0.022-0.033 0.044-0.049 0.066-0.057 0.075-0.115 0.15-0.175 0.224-0.004 0.004-0.007 0.009-0.011 0.013-0.064 0.080-0.13 0.16-0.197 0.239-0.017 0.020-0.034 0.040-0.051 0.060-0.054 0.063-0.108 0.126-0.163 0.188-0.014 0.016-0.028 0.032-0.042 0.048-0.076 0.086-0.153 0.172-0.231 0.256-0.013 0.014-0.026 0.028-0.039 0.041-0.072 0.077-0.143 0.154-0.215 0.229-0.008 0.009-0.017 0.018-0.025 0.026-0.076 0.080-0.153 0.159-0.228 0.235-0.016 0.016-0.032 0.032-0.048 0.048-0.072 0.072-0.143 0.143-0.213 0.212-0.004 0.004-0.008 0.008-0.011 0.011-0.072 0.071-0.143 0.14-0.212 0.207-0.017 0.016-0.034 0.032-0.050 0.048-0.067 0.064-0.132 0.126-0.195 0.185-0.008 0.008-0.016 0.015-0.024 0.023-0.057 0.053-0.112 0.104-0.165 0.153-0.014 0.013-0.029 0.026-0.043 0.039-0.056 0.052-0.111 0.101-0.161 0.147-0.069 0.062-0.132 0.119-0.188 0.168-0.007 0.006-0.012 0.011-0.018 0.016-0.022 0.019-0.043 0.038-0.063 0.055-0.008 0.007-0.016 0.014-0.024 0.021-0.016 0.014-0.030 0.026-0.043 0.038-0.008 0.007-0.016 0.014-0.024 0.021-0.011 0.009-0.021 0.018-0.030 0.026-0.008 0.007-0.017 0.014-0.024 0.020-0.004 0.004-0.008 0.007-0.012 0.011-0.020 0.017-0.035 0.030-0.043 0.036l0.279 0.152c0.007-0.006 0.021-0.018 0.039-0.033 0.006-0.005 0.011-0.009 0.018-0.015 0.008-0.007 0.017-0.014 0.026-0.022 0.007-0.006 0.014-0.012 0.022-0.019 0.011-0.010 0.022-0.019 0.035-0.030 0.009-0.007 0.017-0.015 0.026-0.023 0.013-0.012 0.026-0.023 0.041-0.036 0.012-0.010 0.024-0.021 0.036-0.032 0.014-0.012 0.028-0.024 0.043-0.038 0.011-0.010 0.023-0.021 0.035-0.031 0.037-0.033 0.076-0.068 0.118-0.105 0.009-0.008 0.017-0.015 0.026-0.023 0.001-0.001 0.001-0.002 0.002-0.002 0.054-0.048 0.111-0.1 0.171-0.155 0.010-0.009 0.020-0.018 0.029-0.027 0.059-0.054 0.12-0.111 0.184-0.171 0.003-0.003 0.006-0.005 0.009-0.008 0.064-0.060 0.131-0.123 0.199-0.189 0.016-0.016 0.033-0.031 0.049-0.047 0.069-0.067 0.14-0.135 0.213-0.206 0.005-0.005 0.010-0.009 0.014-0.014 0.068-0.067 0.137-0.136 0.206-0.206 0.018-0.019 0.037-0.037 0.055-0.056 0.073-0.075 0.147-0.15 0.222-0.228 0.012-0.013 0.025-0.026 0.037-0.039 0.066-0.069 0.133-0.14 0.199-0.212 0.017-0.018 0.033-0.036 0.050-0.054 0.075-0.081 0.149-0.164 0.223-0.247 0.005-0.006 0.011-0.012 0.016-0.018 0.011-0.012 0.022-0.025 0.032-0.037 0.053-0.061 0.106-0.121 0.158-0.183 0.019-0.022 0.037-0.043 0.055-0.065 0.066-0.078 0.131-0.157 0.194-0.236 0.006-0.007 0.011-0.014 0.017-0.021 0.058-0.072 0.114-0.145 0.169-0.217 0.017-0.022 0.034-0.045 0.051-0.067 0.048-0.065 0.096-0.129 0.141-0.194 0.009-0.012 0.018-0.025 0.027-0.038 0.002-0.003 0.004-0.007 0.007-0.010 0.068-0.097 0.132-0.194 0.194-0.29 0.011-0.018 0.023-0.036 0.034-0.055 0.059-0.095 0.114-0.189 0.165-0.282 0.004-0.007 0.009-0.014 0.012-0.021 0.007-0.013 0.013-0.026 0.020-0.040 0.030-0.056 0.058-0.112 0.084-0.167 0.010-0.021 0.020-0.042 0.030-0.063z"></path>
<path fill="rgb(255, 255, 255)" d="M10.508 5.339l0.364 2.461-0.559-0.458c-0.062 0.13-1.236 2.606-4.617 4.462 0.167-0.142 3.348-2.84 3.878-4.657l-0.792-0.002 1.726-1.807z"></path>
<path fill="rgba(0, 161, 84, 0.5)" d="M13.297 5.451h0.767v1.074h-0.767v-1.074z"></path>
<path fill="rgba(0, 161, 84, 0.5)" d="M14 5.451h0.847z"></path>
<path fill="rgba(0, 161, 84, 0.5)" d="M13.297 6.679h0.767v0.921h-0.767v-0.921z"></path>
<path fill="rgba(0, 161, 84, 0.5)" d="M14 6.679h0.847z"></path>
<path fill="rgba(0, 161, 84, 0.5)" d="M13.297 7.753h0.767v1.074h-0.767v-1.074z"></path>
<path fill="rgba(0, 161, 84, 0.5)" d="M14 7.753h0.847z"></path>
<path fill="rgba(0, 161, 84, 0.5)" d="M13.297 8.981h0.767v1.074h-0.767v-1.074z"></path>
<path fill="rgba(0, 161, 84, 0.5)" d="M14 8.981h0.847z"></path>
<path fill="rgba(0, 161, 84, 0.5)" d="M13.297 10.208h0.767v1.074h-0.767v-1.074z"></path>
<path fill="rgba(0, 161, 84, 0.5)" d="M14 10.208h0.847z"></path>
<path fill="rgba(0, 161, 84, 0.5)" d="M13.297 11.436h0.767v1.074h-0.767v-1.074z"></path>
<path fill="rgba(0, 161, 84, 0.5)" d="M14 11.436h0.847z"></path>
<path fill="rgba(0, 161, 84, 0.5)" d="M13.297 12.664h0.767v0.921h-0.767v-0.921z"></path>
<path fill="rgba(0, 161, 84, 0.5)" d="M14 12.664h0.847z"></path>
<path fill="rgba(0, 161, 84, 0.5)" d="M13.297 13.738h0.767v1.074h-0.767v-1.074z"></path>
<path fill="rgba(0, 161, 84, 0.5)" d="M14 13.738h0.847z"></path>
<path fill="rgba(0, 161, 84, 0.5)" d="M12.222 6.679h0.767v0.921h-0.767v-0.921z"></path>
<path fill="rgba(0, 161, 84, 0.5)" d="M12.926 6.679h0.848z"></path>
<path fill="rgba(0, 161, 84, 0.5)" d="M12.222 7.753h0.767v1.074h-0.767v-1.074z"></path>
<path fill="rgba(0, 161, 84, 0.5)" d="M12.926 7.753h0.848z"></path>
<path fill="rgba(0, 161, 84, 0.5)" d="M12.222 8.981h0.767v1.074h-0.767v-1.074z"></path>
<path fill="rgba(0, 161, 84, 0.5)" d="M12.926 8.981h0.848z"></path>
<path fill="rgba(0, 161, 84, 0.5)" d="M12.222 10.208h0.767v1.074h-0.767v-1.074z"></path>
<path fill="rgba(0, 161, 84, 0.5)" d="M12.926 10.208h0.848z"></path>
<path fill="rgba(0, 161, 84, 0.5)" d="M12.222 11.436h0.767v1.074h-0.767v-1.074z"></path>
<path fill="rgba(0, 161, 84, 0.5)" d="M12.926 11.436h0.848z"></path>
<path fill="rgba(0, 161, 84, 0.5)" d="M12.222 12.664h0.767v0.921h-0.767v-0.921z"></path>
<path fill="rgba(0, 161, 84, 0.5)" d="M12.926 12.664h0.848z"></path>
<path fill="rgba(0, 161, 84, 0.5)" d="M12.222 13.738h0.767v1.074h-0.767v-1.074z"></path>
<path fill="rgba(0, 161, 84, 0.5)" d="M12.926 13.738h0.848z"></path>
<path fill="rgba(0, 161, 84, 0.5)" d="M10.995 7.753h0.767v1.074h-0.767v-1.074z"></path>
<path fill="rgba(0, 161, 84, 0.5)" d="M11.704 7.753h0.989z"></path>
<path fill="rgba(0, 161, 84, 0.5)" d="M10.995 8.981h0.767v1.074h-0.767v-1.074z"></path>
<path fill="rgba(0, 161, 84, 0.5)" d="M11.704 8.981h0.989z"></path>
<path fill="rgba(0, 161, 84, 0.5)" d="M10.995 10.208h0.767v1.074h-0.767v-1.074z"></path>
<path fill="rgba(0, 161, 84, 0.5)" d="M11.704 10.208h0.989z"></path>
<path fill="rgba(0, 161, 84, 0.5)" d="M10.995 11.436h0.767v1.074h-0.767v-1.074z"></path>
<path fill="rgba(0, 161, 84, 0.5)" d="M11.704 11.436h0.989z"></path>
<path fill="rgba(0, 161, 84, 0.5)" d="M10.995 12.664h0.767v0.921h-0.767v-0.921z"></path>
<path fill="rgba(0, 161, 84, 0.5)" d="M11.704 12.664h0.989z"></path>
<path fill="rgba(0, 161, 84, 0.5)" d="M10.995 13.738h0.767v1.074h-0.767v-1.074z"></path>
<path fill="rgba(0, 161, 84, 0.5)" d="M11.704 13.738h0.989z"></path>
<path fill="rgba(0, 161, 84, 0.5)" d="M9.92 8.981h0.767v1.074h-0.767v-1.074z"></path>
<path fill="rgba(0, 161, 84, 0.5)" d="M10.623 8.981h0.848z"></path>
<path fill="rgba(0, 161, 84, 0.5)" d="M9.92 10.208h0.767v1.074h-0.767v-1.074z"></path>
<path fill="rgba(0, 161, 84, 0.5)" d="M10.623 10.208h0.848z"></path>
<path fill="rgba(0, 161, 84, 0.5)" d="M9.92 11.436h0.767v1.074h-0.767v-1.074z"></path>
<path fill="rgba(0, 161, 84, 0.5)" d="M10.623 11.436h0.848z"></path>
<path fill="rgba(0, 161, 84, 0.5)" d="M9.92 12.664h0.767v0.921h-0.767v-0.921z"></path>
<path fill="rgba(0, 161, 84, 0.5)" d="M10.623 12.664h0.848z"></path>
<path fill="rgba(0, 161, 84, 0.5)" d="M9.92 13.738h0.767v1.074h-0.767v-1.074z"></path>
<path fill="rgba(0, 161, 84, 0.5)" d="M10.623 13.738h0.848z"></path>
<path fill="rgba(0, 161, 84, 0.5)" d="M8.692 10.208h0.767v1.074h-0.767v-1.074z"></path>
<path fill="rgba(0, 161, 84, 0.5)" d="M9.401 10.208h0.989z"></path>
<path fill="rgba(0, 161, 84, 0.5)" d="M8.692 11.436h0.767v1.074h-0.767v-1.074z"></path>
<path fill="rgba(0, 161, 84, 0.5)" d="M9.401 11.436h0.989z"></path>
<path fill="rgba(0, 161, 84, 0.5)" d="M8.692 12.664h0.767v0.921h-0.767v-0.921z"></path>
<path fill="rgba(0, 161, 84, 0.5)" d="M9.401 12.664h0.989z"></path>
<path fill="rgba(0, 161, 84, 0.5)" d="M8.692 13.738h0.767v1.074h-0.767v-1.074z"></path>
<path fill="rgba(0, 161, 84, 0.5)" d="M9.401 13.738h0.989z"></path>
<path fill="rgba(0, 161, 84, 0.5)" d="M7.618 11.436h0.767v1.074h-0.767v-1.074z"></path>
<path fill="rgba(0, 161, 84, 0.5)" d="M8.322 11.436h0.847z"></path>
<path fill="rgba(0, 161, 84, 0.5)" d="M7.618 12.664h0.767v0.921h-0.767v-0.921z"></path>
<path fill="rgba(0, 161, 84, 0.5)" d="M8.322 12.664h0.847z"></path>
<path fill="rgba(0, 161, 84, 0.5)" d="M7.618 13.738h0.767v1.074h-0.767v-1.074z"></path>
<path fill="rgba(0, 161, 84, 0.5)" d="M8.322 13.738h0.847z"></path>
<path fill="rgba(0, 161, 84, 0.5)" d="M6.39 12.664h0.767v0.921h-0.767v-0.921z"></path>
<path fill="rgba(0, 161, 84, 0.5)" d="M7.1 12.664h0.988z"></path>
<path fill="rgba(0, 161, 84, 0.5)" d="M6.39 13.738h0.767v1.074h-0.767v-1.074z"></path>
<path fill="rgba(0, 161, 84, 0.5)" d="M7.1 13.738h0.988z"></path>
<path fill="rgba(0, 161, 84, 0.5)" d="M5.163 13.738h0.767v1.074h-0.767v-1.074z"></path>
<path fill="rgba(0, 161, 84, 0.5)" d="M5.873 13.738h0.989z"></path>
<path fill="rgb(255, 255, 255)" d="M14.064 5.451h0.767v1.074h-0.767v-1.074z"></path>
<path fill="rgb(255, 255, 255)" d="M14.064 6.679h0.767v0.921h-0.767v-0.921z"></path>
<path fill="rgb(255, 255, 255)" d="M14.064 7.753h0.767v1.074h-0.767v-1.074z"></path>
<path fill="rgb(255, 255, 255)" d="M14.064 8.981h0.767v1.074h-0.767v-1.074z"></path>
<path fill="rgb(255, 255, 255)" d="M14.064 10.208h0.767v1.074h-0.767v-1.074z"></path>
<path fill="rgb(255, 255, 255)" d="M14.064 11.436h0.767v1.074h-0.767v-1.074z"></path>
<path fill="rgb(255, 255, 255)" d="M14.064 12.664h0.767v0.921h-0.767v-0.921z"></path>
<path fill="rgb(255, 255, 255)" d="M14.064 13.738h0.767v1.074h-0.767v-1.074z"></path>
<path fill="rgb(255, 255, 255)" d="M12.99 6.679h0.767v0.921h-0.767v-0.921z"></path>
<path fill="rgb(255, 255, 255)" d="M12.99 7.753h0.767v1.074h-0.767v-1.074z"></path>
<path fill="rgb(255, 255, 255)" d="M12.99 8.981h0.767v1.074h-0.767v-1.074z"></path>
<path fill="rgb(255, 255, 255)" d="M12.99 10.208h0.767v1.074h-0.767v-1.074z"></path>
<path fill="rgb(255, 255, 255)" d="M12.99 11.436h0.767v1.074h-0.767v-1.074z"></path>
<path fill="rgb(255, 255, 255)" d="M12.99 12.664h0.767v0.921h-0.767v-0.921z"></path>
<path fill="rgb(255, 255, 255)" d="M12.99 13.738h0.767v1.074h-0.767v-1.074z"></path>
<path fill="rgb(255, 255, 255)" d="M11.762 7.753h0.921v1.074h-0.921v-1.074z"></path>
<path fill="rgb(255, 255, 255)" d="M11.762 8.981h0.921v1.074h-0.921v-1.074z"></path>
<path fill="rgb(255, 255, 255)" d="M11.762 10.208h0.921v1.074h-0.921v-1.074z"></path>
<path fill="rgb(255, 255, 255)" d="M11.762 11.436h0.921v1.074h-0.921v-1.074z"></path>
<path fill="rgb(255, 255, 255)" d="M11.762 12.664h0.921v0.921h-0.921v-0.921z"></path>
<path fill="rgb(255, 255, 255)" d="M11.762 13.738h0.921v1.074h-0.921v-1.074z"></path>
<path fill="rgb(255, 255, 255)" d="M10.688 8.981h0.767v1.074h-0.767v-1.074z"></path>
<path fill="rgb(255, 255, 255)" d="M10.688 10.208h0.767v1.074h-0.767v-1.074z"></path>
<path fill="rgb(255, 255, 255)" d="M10.688 11.436h0.767v1.074h-0.767v-1.074z"></path>
<path fill="rgb(255, 255, 255)" d="M10.688 12.664h0.767v0.921h-0.767v-0.921z"></path>
<path fill="rgb(255, 255, 255)" d="M10.688 13.738h0.767v1.074h-0.767v-1.074z"></path>
<path fill="rgb(255, 255, 255)" d="M9.46 10.208h0.921v1.074h-0.921v-1.074z"></path>
<path fill="rgb(255, 255, 255)" d="M9.46 11.436h0.921v1.074h-0.921v-1.074z"></path>
<path fill="rgb(255, 255, 255)" d="M9.46 12.664h0.921v0.921h-0.921v-0.921z"></path>
<path fill="rgb(255, 255, 255)" d="M9.46 13.738h0.921v1.074h-0.921v-1.074z"></path>
<path fill="rgb(255, 255, 255)" d="M8.386 11.436h0.767v1.074h-0.767v-1.074z"></path>
<path fill="rgb(255, 255, 255)" d="M8.386 12.664h0.767v0.921h-0.767v-0.921z"></path>
<path fill="rgb(255, 255, 255)" d="M8.386 13.738h0.767v1.074h-0.767v-1.074z"></path>
<path fill="rgb(255, 255, 255)" d="M7.158 12.664h0.921v0.921h-0.921v-0.921z"></path>
<path fill="rgb(255, 255, 255)" d="M7.158 13.738h0.921v1.074h-0.921v-1.074z"></path>
<path fill="rgb(255, 255, 255)" d="M5.93 13.738h0.921v1.074h-0.921v-1.074z"></path>
</svg>
