<?xml version="1.0" encoding="utf-8"?>
<!-- Generated by IcoMoon.io -->
<!DOCTYPE svg PUBLIC "-//W3C//DTD SVG 1.1//EN" "http://www.w3.org/Graphics/SVG/1.1/DTD/svg11.dtd">
<svg version="1.1" xmlns="http://www.w3.org/2000/svg" xmlns:xlink="http://www.w3.org/1999/xlink" width="20" height="20" viewBox="0 0 20 20">
<path fill="rgb(242, 97, 1)" d="M0.309 10c0-5.352 4.339-9.691 9.69-9.691s9.691 4.338 9.691 9.691c0 5.352-4.339 9.69-9.691 9.69s-9.69-4.339-9.69-9.69z"></path>
<path fill="rgba(191, 70, 2, 0.2199999988079071)" d="M5.467 14.586v-10.258h-0.362v1.158h-0.48v0.382h0.48v0.759h-0.48v0.381h0.48v0.758h-0.48v0.381h0.48v0.759h-0.48v0.382h0.48v0.758h-0.48v0.381h0.48v0.759h-0.48v0.381h0.48v0.759h-0.48v0.381h0.48v0.759h-0.48v0.381h0.48v0.74h-0.854v0.362h0.854v0.877h0.362v-0.877h0.763v0.48h0.381v-0.48h0.759v0.48h0.382v-0.48h0.758v0.48h0.382v-0.48h0.758v0.48h0.382v-0.48h0.759v0.48h0.381v-0.48h0.759v0.48h0.381v-0.48h0.76v0.48h0.381v-0.48h0.758v0.48h0.382v-0.48h1.158v-0.362h-10.281z"></path>
<path fill="rgb(255, 255, 255)" d="M5.467 14.432v-10.258h-0.362v1.158h-0.48v0.382h0.48v0.759h-0.48v0.381h0.48v0.758h-0.48v0.381h0.48v0.759h-0.48v0.382h0.48v0.758h-0.48v0.381h0.48v0.759h-0.48v0.381h0.48v0.759h-0.48v0.381h0.48v0.759h-0.48v0.381h0.48v0.74h-0.854v0.362h0.854v0.877h0.362v-0.877h0.763v0.48h0.381v-0.48h0.759v0.48h0.382v-0.48h0.758v0.48h0.382v-0.48h0.758v0.48h0.382v-0.48h0.759v0.48h0.381v-0.48h0.759v0.48h0.381v-0.48h0.76v0.48h0.381v-0.48h0.758v0.48h0.382v-0.48h1.158v-0.362h-10.281z"></path>
<path fill="rgb(235, 227, 203)" d="M6.086 9.179h0.614v4.911h-0.614v-4.911z"></path>
<path fill="rgb(235, 227, 203)" d="M8.388 8.872h0.614v5.218h-0.614v-5.218z"></path>
<path fill="rgb(235, 227, 203)" d="M10.537 9.486h0.614v4.604h-0.614v-4.604z"></path>
<path fill="rgb(235, 227, 203)" d="M12.839 8.872h0.614v5.218h-0.614v-5.218z"></path>
<path fill="rgb(235, 227, 203)" d="M7.314 11.481h0.614v2.609h-0.614v-2.609z"></path>
<path fill="rgb(235, 227, 203)" d="M9.616 11.327h0.614v2.762h-0.614v-2.762z"></path>
<path fill="rgb(235, 227, 203)" d="M11.765 11.634h0.614v2.455h-0.614v-2.455z"></path>
<path fill="rgb(235, 227, 203)" d="M14.067 11.327h0.614v2.762h-0.614v-2.762z"></path>
<path fill="rgba(255, 255, 255, 0.4000000059604645)" d="M6.438 6.659l0.054 0.054-0.108 0.108-0.054-0.054 0.108-0.108z"></path>
<path fill="rgba(255, 255, 255, 0.4000000059604645)" d="M7.174 7.612l-0.099-0.099 0.108-0.108 0.099 0.099-0.108 0.108zM6.976 7.415l-0.099-0.099 0.109-0.108 0.099 0.099-0.108 0.109zM6.779 7.217l-0.099-0.099 0.109-0.108 0.099 0.099-0.108 0.109zM6.581 7.019l-0.099-0.099 0.109-0.108 0.099 0.099-0.109 0.108z"></path>
<path fill="rgba(255, 255, 255, 0.4000000059604645)" d="M7.381 7.602l0.054 0.054-0.108 0.108-0.054-0.054 0.108-0.108z"></path>
<path fill="rgba(255, 255, 255, 0.4000000059604645)" d="M7.438 7.763l-0.113-0.104 0.104-0.113 0.113 0.104-0.104 0.113zM7.646 7.537l-0.113-0.104 0.104-0.113 0.113 0.104-0.104 0.113zM7.853 7.311l-0.113-0.104 0.104-0.113 0.113 0.104-0.104 0.113zM8.061 7.085l-0.113-0.104 0.104-0.113 0.113 0.104-0.104 0.113zM8.269 6.859l-0.113-0.104 0.104-0.113 0.113 0.104-0.104 0.113zM8.477 6.633l-0.113-0.104 0.104-0.113 0.113 0.104-0.104 0.113zM8.684 6.407l-0.113-0.104 0.068-0.073 0.113 0.104-0.068 0.074z"></path>
<path fill="rgba(255, 255, 255, 0.4000000059604645)" d="M9.693 8.285l-0.042-0.077 0.135-0.073 0.042 0.077-0.135 0.073zM9.578 8.073l-0.073-0.135 0.135-0.073 0.073 0.135-0.135 0.073zM9.432 7.803l-0.073-0.135 0.135-0.073 0.073 0.135-0.135 0.073zM9.286 7.533l-0.073-0.135 0.135-0.073 0.073 0.135-0.135 0.073zM9.139 7.263l-0.073-0.135 0.135-0.073 0.073 0.135-0.135 0.073zM8.993 6.993l-0.073-0.135 0.135-0.073 0.073 0.135-0.135 0.073zM8.847 6.723l-0.073-0.135 0.135-0.073 0.073 0.135-0.135 0.073zM8.701 6.453l-0.073-0.135 0.135-0.073 0.073 0.135-0.135 0.073z"></path>
<path fill="rgba(255, 255, 255, 0.4000000059604645)" d="M9.818 8.298l-0.116-0.1 0.101-0.116 0.116 0.1-0.101 0.116zM10.019 8.066l-0.116-0.1 0.1-0.116 0.116 0.1-0.1 0.116zM10.22 7.834l-0.116-0.1 0.1-0.116 0.116 0.1-0.1 0.116zM10.421 7.602l-0.116-0.1 0.1-0.116 0.116 0.1-0.1 0.116zM10.622 7.37l-0.116-0.1 0.1-0.116 0.116 0.1-0.1 0.116zM10.823 7.138l-0.116-0.1 0.079-0.092 0.116 0.1-0.079 0.092z"></path>
<path fill="rgba(255, 255, 255, 0.4000000059604645)" d="M12.002 8.756l-0.091-0.115 0.121-0.095 0.090 0.115-0.121 0.095zM11.817 8.52l-0.095-0.121 0.121-0.095 0.095 0.121-0.121 0.095zM11.627 8.279l-0.095-0.121 0.121-0.095 0.095 0.121-0.121 0.095zM11.437 8.037l-0.095-0.121 0.121-0.095 0.095 0.121-0.121 0.095zM11.248 7.796l-0.095-0.121 0.121-0.095 0.095 0.121-0.121 0.095zM11.058 7.555l-0.095-0.121 0.121-0.095 0.095 0.121-0.121 0.095zM10.869 7.313l-0.095-0.121 0.121-0.095 0.095 0.121-0.121 0.095z"></path>
<path fill="rgba(255, 255, 255, 0.4000000059604645)" d="M12.125 8.753l-0.126-0.088 0.088-0.126 0.126 0.088-0.088 0.126zM12.301 8.501l-0.126-0.088 0.088-0.126 0.126 0.088-0.088 0.126zM12.477 8.25l-0.126-0.088 0.088-0.126 0.126 0.088-0.088 0.126zM12.653 7.998l-0.126-0.088 0.088-0.126 0.126 0.088-0.088 0.126zM12.829 7.747l-0.126-0.088 0.088-0.126 0.126 0.088-0.088 0.126zM13.005 7.495l-0.126-0.088 0.088-0.126 0.126 0.088-0.088 0.126zM13.181 7.244l-0.126-0.088 0.018-0.026 0.126 0.088-0.018 0.026z"></path>
<path fill="rgba(255, 255, 255, 0.4000000059604645)" d="M14.304 8.757l-0.077-0.097 0.12-0.096 0.077 0.097-0.12 0.096zM14.131 8.54l-0.096-0.12 0.12-0.096 0.096 0.12-0.12 0.096zM13.939 8.3l-0.096-0.12 0.12-0.096 0.096 0.12-0.12 0.096zM13.748 8.061l-0.096-0.12 0.12-0.096 0.096 0.12-0.12 0.096zM13.556 7.821l-0.096-0.12 0.12-0.096 0.096 0.12-0.12 0.096zM13.364 7.581l-0.096-0.12 0.12-0.096 0.096 0.12-0.12 0.096zM13.172 7.342l-0.096-0.12 0.12-0.096 0.096 0.12-0.12 0.096z"></path>
<path fill="rgb(241, 214, 72)" d="M6.815 6.713c0 0.238-0.193 0.432-0.432 0.432s-0.432-0.193-0.432-0.432c0-0.238 0.193-0.432 0.432-0.432s0.432 0.193 0.432 0.432z"></path>
<path fill="rgb(241, 214, 72)" d="M7.89 7.634c0 0.238-0.193 0.432-0.432 0.432s-0.432-0.193-0.432-0.432c0-0.238 0.193-0.432 0.432-0.432s0.432 0.193 0.432 0.432z"></path>
<path fill="rgb(241, 214, 72)" d="M9.117 6.406c0 0.238-0.193 0.432-0.432 0.432s-0.432-0.193-0.432-0.432c0-0.238 0.193-0.432 0.432-0.432s0.432 0.193 0.432 0.432z"></path>
<path fill="rgb(241, 214, 72)" d="M9.328 8.248c0-0.238 0.193-0.432 0.432-0.432s0.432 0.193 0.432 0.432c0 0.238-0.193 0.432-0.432 0.432s-0.432-0.193-0.432-0.432z"></path>
<path fill="rgb(241, 214, 72)" d="M10.403 7.174c0-0.238 0.193-0.432 0.432-0.432s0.432 0.193 0.432 0.432-0.193 0.432-0.432 0.432c-0.238 0-0.432-0.193-0.432-0.432z"></path>
<path fill="rgb(241, 214, 72)" d="M11.63 8.709c0-0.238 0.193-0.432 0.432-0.432s0.432 0.193 0.432 0.432-0.193 0.432-0.432 0.432c-0.238 0-0.432-0.193-0.432-0.432z"></path>
<path fill="rgb(241, 214, 72)" d="M13.568 7.174c0 0.238-0.193 0.432-0.432 0.432s-0.432-0.193-0.432-0.432c0-0.238 0.193-0.432 0.432-0.432s0.432 0.193 0.432 0.432z"></path>
<path fill="rgb(241, 214, 72)" d="M14.796 8.709c0 0.238-0.193 0.432-0.432 0.432s-0.432-0.193-0.432-0.432c0-0.238 0.193-0.432 0.432-0.432s0.432 0.193 0.432 0.432z"></path>
</svg>
