<?xml version="1.0" encoding="utf-8"?>
<!-- Generated by IcoMoon.io -->
<!DOCTYPE svg PUBLIC "-//W3C//DTD SVG 1.1//EN" "http://www.w3.org/Graphics/SVG/1.1/DTD/svg11.dtd">
<svg version="1.1" xmlns="http://www.w3.org/2000/svg" xmlns:xlink="http://www.w3.org/1999/xlink" width="20" height="20" viewBox="0 0 20 20">
<path fill="rgb(0, 217, 234)" d="M0.309 10c0-5.352 4.339-9.691 9.69-9.691s9.691 4.338 9.691 9.691c0 5.352-4.339 9.69-9.691 9.69s-9.69-4.339-9.69-9.69z"></path>
<path fill="rgb(255, 255, 255)" d="M12.799 7.83c0.365 0 0.737-0.345 0.737-0.71s-0.354-0.736-0.719-0.736c-0.365 0-0.728 0.38-0.728 0.745s0.345 0.701 0.71 0.701zM14.237 8.849c0-0.358 0.024-0.324 0-0.547-0.092-0.274-0.274-0.365-0.456-0.365-0.39 0-0.52 0-0.821 0-0.366 0-0.544-0.001-0.909-0.001-0.183 0-0.301-0.012-0.437 0.111-0.185 0.209-0.166 0.228-0.166 0.811 0 0.289 0 0.793 0 1.115 0 0.288-0.049 0.737 0.24 0.737 0.273 0 0.271-0.195 0.271-0.487 0-0.411-0.001-0.518-0.001-0.761 0-0.266-0.015-0.311 0.038-0.311s0.054 0.003 0.054 0.286c0 0.261-0.002 3.945-0.002 4.158 0 0.182 0.097 0.378 0.372 0.378s0.388-0.16 0.388-0.343c0-0.329 0-1.761 0-1.916 0-0.183 0.006-0.271 0.051-0.271s0.040 0.088 0.040 0.271c0 0.165 0 1.579 0 1.916 0 0.114 0.121 0.36 0.394 0.36 0.183 0 0.35-0.235 0.35-0.357 0-0.73 0.004-3.978 0.004-4.207 0-0.124-0.010-0.283 0.036-0.283s0.046 0.043 0.046 0.222c0 0.206 0 0.414 0 0.703 0 0.48 0.074 0.606 0.257 0.606 0.274 0 0.251-0.469 0.251-0.73 0-0.356 0-0.733 0-1.095z"></path>
<path fill="rgb(255, 255, 255)" d="M9.771 7.83c0.365 0 0.737-0.345 0.737-0.71s-0.354-0.736-0.719-0.736c-0.365 0-0.728 0.38-0.728 0.745s0.345 0.701 0.71 0.701zM11.209 8.849c0-0.358 0.024-0.324 0-0.547-0.091-0.274-0.274-0.365-0.456-0.365-0.39 0-0.519 0-0.821 0-0.367 0-0.545-0.001-0.91-0.001-0.182 0-0.301-0.012-0.437 0.111-0.184 0.209-0.166 0.228-0.166 0.811 0 0.289 0 0.793 0 1.115 0 0.288-0.049 0.737 0.24 0.737 0.274 0 0.272-0.195 0.272-0.487 0-0.411-0.001-0.518-0.001-0.761 0-0.266-0.015-0.311 0.038-0.311s0.054 0.003 0.054 0.286c0 0.261-0.002 3.945-0.002 4.158 0 0.182 0.098 0.378 0.372 0.378s0.389-0.16 0.389-0.343c0-0.329 0-1.761 0-1.916 0-0.183 0.006-0.271 0.051-0.271s0.040 0.088 0.040 0.271c0 0.165 0 1.579 0 1.916 0 0.114 0.121 0.36 0.394 0.36 0.183 0 0.35-0.235 0.35-0.357 0-0.73 0.004-3.978 0.004-4.207 0-0.124-0.011-0.283 0.036-0.283s0.046 0.043 0.046 0.222c0 0.206 0 0.414 0 0.703 0 0.48 0.074 0.606 0.257 0.606 0.274 0 0.25-0.469 0.25-0.73 0-0.356 0-0.733 0-1.095z"></path>
<path fill="rgb(255, 255, 255)" d="M6.742 7.83c0.365 0 0.737-0.345 0.737-0.71s-0.354-0.736-0.719-0.736c-0.365 0-0.728 0.38-0.728 0.745s0.345 0.701 0.71 0.701zM8.179 8.849c0-0.358 0.024-0.324 0-0.547-0.091-0.274-0.274-0.365-0.456-0.365-0.39 0-0.519 0-0.821 0-0.366 0-0.545-0.001-0.91-0.001-0.182 0-0.301-0.012-0.436 0.111-0.185 0.209-0.166 0.228-0.166 0.811 0 0.289 0 0.793 0 1.115 0 0.288-0.049 0.737 0.24 0.737 0.274 0 0.272-0.195 0.272-0.487 0-0.411-0.001-0.518-0.001-0.761 0-0.266-0.015-0.311 0.038-0.311s0.054 0.003 0.054 0.286c0 0.261-0.002 3.945-0.002 4.158 0 0.182 0.098 0.378 0.372 0.378s0.389-0.16 0.389-0.343c0-0.329 0-1.761 0-1.916 0-0.183 0.006-0.271 0.051-0.271s0.040 0.088 0.040 0.271c0 0.165 0 1.579 0 1.916 0 0.114 0.12 0.36 0.394 0.36 0.183 0 0.35-0.235 0.35-0.357 0-0.73 0.004-3.978 0.004-4.207 0-0.124-0.010-0.283 0.036-0.283s0.046 0.043 0.046 0.222c0 0.206 0 0.414 0 0.703 0 0.48 0.074 0.606 0.257 0.606 0.274 0 0.25-0.469 0.25-0.73-0-0.356-0-0.733-0-1.095z"></path>
<path fill="rgb(255, 255, 255)" d="M16.048 6.936c0.102 0 0.187 0.034 0.257 0.102s0.105 0.153 0.105 0.255c0 0.098-0.035 0.182-0.105 0.252s-0.156 0.105-0.257 0.105h-0.305v0.304c0 0.102-0.035 0.188-0.105 0.257s-0.154 0.105-0.252 0.105c-0.102 0-0.186-0.035-0.255-0.105s-0.102-0.156-0.102-0.257v-0.304h-0.31c-0.102 0-0.186-0.035-0.252-0.105s-0.1-0.154-0.1-0.252c0-0.102 0.033-0.187 0.1-0.255s0.15-0.102 0.252-0.102h0.31v-0.31c0-0.101 0.034-0.186 0.102-0.255s0.153-0.102 0.255-0.102c0.098 0 0.182 0.034 0.252 0.102s0.105 0.153 0.105 0.255v0.31h0.305z"></path>
</svg>
