<?xml version="1.0" encoding="utf-8"?>
<!-- Generated by IcoMoon.io -->
<!DOCTYPE svg PUBLIC "-//W3C//DTD SVG 1.1//EN" "http://www.w3.org/Graphics/SVG/1.1/DTD/svg11.dtd">
<svg version="1.1" xmlns="http://www.w3.org/2000/svg" xmlns:xlink="http://www.w3.org/1999/xlink" width="20" height="20" viewBox="0 0 20 20">
<path fill="rgb(208, 228, 242)" d="M0.309 10c0-5.352 4.339-9.691 9.69-9.691s9.691 4.338 9.691 9.691c0 5.352-4.339 9.69-9.691 9.69s-9.69-4.339-9.69-9.69z"></path>
<path fill="rgb(78, 122, 199)" d="M14.263 5.948c-1.052-1.043-2.423-1.629-3.957-1.626v5.584l3.957-3.957z"></path>
<path fill="rgb(235, 227, 203)" d="M10.324 9.932h0.019l-0.019-0.019z"></path>
<path fill="rgb(235, 227, 203)" d="M10.32 9.909l-0.023 0.023h0.026v-0.019z"></path>
<path fill="rgb(173, 213, 247)" d="M14.281 13.866c1.047-1.049 1.638-2.423 1.639-3.958h-5.597l3.958 3.958z"></path>
<path fill="rgb(235, 227, 203)" d="M10.324 9.905l-0.004 0.004 0.004 0.004z"></path>
<path fill="rgb(127, 178, 240)" d="M10.305 9.932l0.019 0.018 5.606-0.009c0.001-1.436-0.542-2.877-1.637-3.972-0.005-0.005-0.012-0.020-0.012-0.020l-3.957 3.957-0.019 0.026z"></path>
<path fill="rgb(53, 71, 140)" d="M10.324 9.906l-0.009-5.574c-1.43 0.002-2.913 0.601-3.962 1.648l3.948 3.948 0.023-0.022z"></path>
<path fill="rgb(22, 25, 59)" d="M14.26 13.887l-7.917-7.917c0 0 0.017-0.017 0.016-0.016-1.096 1.096-1.635 2.54-1.634 3.976 0.001 1.427 0.544 2.854 1.627 3.945 0.005 0.005 0.011 0.011 0.016 0.017 0.055 0.056 0.113 0.109 0.171 0.162 0.241 0.221 0.496 0.419 0.763 0.591 0.918 0.591 1.97 0.886 3.023 0.887 0.105 0 0.21-0.002 0.315-0.007 0.278-0.015 0.545-0.061 0.819-0.117 1.036-0.213 2.013-0.733 2.818-1.537 0.001-0.001-0.016 0.016-0.016 0.016z"></path>
</svg>
