<?xml version="1.0" encoding="utf-8"?>
<!-- Generator: Adobe Illustrator 16.0.0, SVG Export Plug-In . SVG Version: 6.00 Build 0)  -->
<!DOCTYPE svg PUBLIC "-//W3C//DTD SVG 1.1//EN" "http://www.w3.org/Graphics/SVG/1.1/DTD/svg11.dtd">
<svg version="1.1" id="Layer_1" xmlns="http://www.w3.org/2000/svg" xmlns:xlink="http://www.w3.org/1999/xlink" x="0px" y="0px"
	 width="20px" height="20px" viewBox="0 0 20 20" enable-background="new 0 0 20 20" xml:space="preserve">
<g>
	<path fill="#357180" d="M19.69,10c0,5.351-4.338,9.69-9.69,9.69S0.31,15.353,0.31,10c0-5.352,4.338-9.69,9.69-9.69
		S19.69,4.647,19.69,10z"/>
	<path fill="#DAC425" d="M15.798,8.943h0.009c-0.002-0.042-0.006-0.083-0.015-0.123C15.796,8.861,15.798,8.901,15.798,8.943
		L15.798,8.943z"/>
	<path fill="#A3D4AA" d="M9.221,5.828C5.949,5.828,3.3,7.074,3.3,8.609h5.921V5.828z"/>
	<path fill="#63BD6E" d="M3.301,8.604h5.921v2.23H3.301V8.604z"/>
	<path opacity="0.1" d="M10.103,10.978l0.662-0.663l2.402,2.404l-0.66,0.661L10.103,10.978z"/>
	<path fill="#A2D4DE" d="M10.11,5.946c3.271,0,5.923,1.246,5.923,2.782H10.11V5.946z"/>
	<path fill="#67B8CB" d="M10.108,8.722h5.923v2.231h-5.923V8.722z"/>
	<path fill="#E84849" d="M17.207,11.817c0-0.145,0.006-2.059,0.012-2.215c0-0.024-0.002-0.049-0.004-0.073h-0.008
		c0,1.536-2.651,2.782-5.921,2.782v2.286C14.558,14.598,17.207,13.354,17.207,11.817z"/>
	<path fill="#F06668" d="M11.286,12.312c3.27,0,5.921-1.245,5.921-2.782h-5.921V12.312z"/>
	<path fill="#E79E2D" d="M4.252,11.817c0-0.145-0.007-2.059-0.012-2.215C4.239,9.578,4.242,9.554,4.243,9.529h0.009
		c0,1.536,2.651,2.782,5.922,2.782v2.286C6.902,14.598,4.252,13.354,4.252,11.817z"/>
	<path fill="#F2BE3E" d="M10.174,12.312c-3.271,0-5.922-1.245-5.922-2.782h5.922V12.312z"/>
</g>
</svg>
