<?xml version="1.0" encoding="utf-8"?>
<!-- Generated by IcoMoon.io -->
<!DOCTYPE svg PUBLIC "-//W3C//DTD SVG 1.1//EN" "http://www.w3.org/Graphics/SVG/1.1/DTD/svg11.dtd">
<svg version="1.1" xmlns="http://www.w3.org/2000/svg" xmlns:xlink="http://www.w3.org/1999/xlink" width="20" height="20" viewBox="0 0 20 20">
<path fill="rgb(235, 227, 203)" d="M0.309 10c0-5.352 4.339-9.691 9.69-9.691s9.691 4.338 9.691 9.691c0 5.352-4.339 9.69-9.691 9.69s-9.69-4.339-9.69-9.69z"></path>
<path fill="rgba(0, 0, 0, 0.2199999988079071)" d="M9.798 9.016l0.009 1.844-3.588 3.701-0.008-1.844z"></path>
<path fill="rgba(0, 0, 0, 0.2199999988079071)" d="M4.114 9.071c-0.039-2.634 2.468-4.8 5.613-4.839l0.070 4.784-3.588 3.701c-1.268-0.86-2.074-2.171-2.095-3.646z"></path>
<path fill="rgb(142, 40, 3)" d="M9.798 8.863l0.009 1.844-3.588 3.701-0.008-1.844z"></path>
<path fill="rgb(115, 32, 3)" d="M6.209 12.563l0.008 1.844c-1.268-0.86-2.073-2.171-2.095-3.646l-0.009-1.844c0.022 1.475 0.827 2.786 2.095 3.646z"></path>
<path fill="rgb(204, 57, 5)" d="M4.114 8.918c-0.039-2.634 2.468-4.8 5.613-4.839l0.070 4.784-3.588 3.701c-1.268-0.86-2.074-2.171-2.095-3.646z"></path>
<path fill="rgba(0, 0, 0, 0.2199999988079071)" d="M9.798 9.002l0.008 1.844-0.063-4.779-0.009-1.844z"></path>
<path fill="rgba(0, 0, 0, 0.2199999988079071)" d="M13.516 12.606l0.009 1.844-3.718-3.604-0.008-1.844z"></path>
<path fill="rgba(0, 0, 0, 0.2199999988079071)" d="M15.491 8.925l0.008 1.844c0.001 0.060 0.001 0.121-0.001 0.18l-0.009-1.844c0.002-0.060 0.002-0.12 0.001-0.18z"></path>
<path fill="rgba(0, 0, 0, 0.2199999988079071)" d="M9.735 4.222c3.173-0.030 5.718 2.071 5.756 4.703 0.022 1.468-0.742 2.792-1.975 3.681l-3.718-3.604-0.063-4.78z"></path>
<path fill="rgb(95, 30, 14)" d="M9.798 8.848l0.008 1.844-0.063-4.779-0.009-1.844z"></path>
<path fill="rgb(95, 30, 14)" d="M13.516 12.452l0.009 1.844-3.718-3.604-0.008-1.844z"></path>
<path fill="rgb(110, 34, 16)" d="M15.491 8.771l0.008 1.844c0.001 0.060 0.001 0.121-0.001 0.18l-0.009-1.844c0.002-0.060 0.002-0.12 0.001-0.18z"></path>
<path fill="rgb(113, 35, 17)" d="M15.49 8.952l0.009 1.844c-0.041 1.396-0.792 2.648-1.974 3.5l-0.009-1.844c1.182-0.853 1.933-2.105 1.974-3.5z"></path>
<path fill="rgb(174, 54, 26)" d="M9.735 4.069c3.173-0.030 5.718 2.071 5.756 4.703 0.022 1.468-0.742 2.792-1.975 3.681l-3.718-3.604-0.063-4.78z"></path>
<path fill="rgba(0, 0, 0, 0.2199999988079071)" d="M9.795 9.62l3.697 3.604c-0.98 0.707-2.249 1.142-3.642 1.158-1.385 0.016-2.661-0.384-3.658-1.061l3.604-3.701z"></path>
<path fill="rgb(153, 153, 153)" d="M13.492 13.071c-0.011 0.008-0.022 0.016-0.033 0.024-0.345 0.245-0.725 0.457-1.133 0.629-0.35 0.148-0.721 0.266-1.109 0.351-0.411 0.090-0.84 0.143-1.282 0.153-0.028 0.001-0.057 0.001-0.085 0.002-1.385 0.016-2.661-0.384-3.658-1.061l0.009 1.844c0.998 0.677 2.273 1.077 3.658 1.061 0.028-0 0.057-0.001 0.085-0.002 0.442-0.011 0.871-0.063 1.282-0.153 0.387-0.085 0.759-0.203 1.109-0.351 0.408-0.172 0.788-0.384 1.134-0.629 0.011-0.008 0.022-0.016 0.033-0.024l-0.008-1.844z"></path>
<path fill="rgb(215, 215, 215)" d="M9.795 9.466l3.697 3.604c-0.98 0.707-2.249 1.142-3.642 1.158-1.385 0.016-2.661-0.384-3.658-1.061l3.604-3.701z"></path>
</svg>
