<?xml version="1.0" encoding="utf-8"?>
<!-- Generator: Adobe Illustrator 16.0.0, SVG Export Plug-In . SVG Version: 6.00 Build 0)  -->
<!DOCTYPE svg PUBLIC "-//W3C//DTD SVG 1.1//EN" "http://www.w3.org/Graphics/SVG/1.1/DTD/svg11.dtd">
<svg version="1.1" id="Layer_1" xmlns="http://www.w3.org/2000/svg" xmlns:xlink="http://www.w3.org/1999/xlink" x="0px" y="0px"
	 width="20px" height="20px" viewBox="0 0 20 20" enable-background="new 0 0 20 20" xml:space="preserve">
<g>
	<path fill="#DBF0F4" d="M19.69,10c0,5.351-4.338,9.69-9.69,9.69S0.31,15.353,0.31,10c0-5.352,4.338-9.69,9.69-9.69
		S19.69,4.647,19.69,10z"/>
	<path fill="#357180" d="M8.37,5.723c-2.827,0-5.12,1.744-5.12,3.895c0,0.715,0.258,1.384,0.699,1.959l-0.684,2.295l2.851-0.76
		c0.681,0.254,1.443,0.401,2.253,0.401c2.827,0,5.12-1.744,5.12-3.896C13.489,7.466,11.198,5.722,8.37,5.723L8.37,5.723z"/>
	<path fill="#B7CAC4" d="M6.898,9.576c0,0.316-0.258,0.573-0.573,0.573c-0.316,0-0.574-0.258-0.574-0.573
		c0-0.317,0.258-0.574,0.574-0.574C6.641,9.002,6.898,9.26,6.898,9.576z"/>
	<path fill="#B7CAC4" d="M8.696,9.576c0,0.316-0.258,0.573-0.573,0.573c-0.316,0-0.573-0.258-0.573-0.573
		c0-0.317,0.257-0.574,0.573-0.574C8.438,9.002,8.696,9.26,8.696,9.576z"/>
	<path fill="#B7CAC4" d="M10.456,9.576c0,0.316-0.258,0.573-0.573,0.573c-0.316,0-0.574-0.258-0.574-0.573
		c0-0.317,0.258-0.574,0.574-0.574C10.198,9.002,10.456,9.26,10.456,9.576z"/>
	<path fill="#67B8CB" d="M13.296,6.764c2.229,0,4.037,1.375,4.037,3.07c0,0.564-0.204,1.091-0.552,1.546l0.538,1.81l-2.247-0.599
		c-0.537,0.201-1.139,0.316-1.776,0.316c-2.23,0-4.038-1.375-4.038-3.072c0-1.695,1.808-3.07,4.036-3.07L13.296,6.764z"/>
	<path fill="#B7CAC4" d="M12.347,9.69c0,0.271-0.22,0.49-0.49,0.49c-0.271,0-0.49-0.22-0.49-0.49c0-0.271,0.219-0.491,0.49-0.491
		C12.127,9.199,12.347,9.419,12.347,9.69z"/>
	<path fill="#B7CAC4" d="M13.886,9.69c0,0.271-0.22,0.49-0.491,0.49c-0.271,0-0.491-0.22-0.491-0.49
		c0-0.271,0.221-0.491,0.491-0.491C13.666,9.199,13.886,9.419,13.886,9.69z"/>
	<path fill="#B7CAC4" d="M15.392,9.69c0,0.271-0.219,0.49-0.491,0.49c-0.271,0-0.49-0.22-0.49-0.49c0-0.271,0.22-0.491,0.49-0.491
		C15.173,9.199,15.392,9.419,15.392,9.69z"/>
</g>
</svg>
