<?xml version="1.0" encoding="utf-8"?>
<!-- Generator: Adobe Illustrator 16.0.0, SVG Export Plug-In . SVG Version: 6.00 Build 0)  -->
<!DOCTYPE svg PUBLIC "-//W3C//DTD SVG 1.1//EN" "http://www.w3.org/Graphics/SVG/1.1/DTD/svg11.dtd">
<svg version="1.1" id="Layer_1" xmlns="http://www.w3.org/2000/svg" xmlns:xlink="http://www.w3.org/1999/xlink" x="0px" y="0px"
	 width="20px" height="20px" viewBox="0 0 20 20" enable-background="new 0 0 20 20" xml:space="preserve">
<g>
	<path fill="#4ABC96" d="M19.69,10c0,5.351-4.338,9.69-9.69,9.69S0.31,15.353,0.31,10c0-5.352,4.338-9.69,9.69-9.69
		S19.69,4.647,19.69,10z"/>
	<path fill="#B7CAC4" d="M16.426,7.253l-6.335-3.166l-6.25,3.166c0,0.085,0,0.608,0,0.693l6.335,3.385l6.25-3.385
		C16.426,7.861,16.426,7.338,16.426,7.253z"/>
	<path fill="#E1E1E1" d="M16.426,7.609l-6.335-3.166l-6.25,3.166c0,0.085,0,0.608,0,0.693l6.335,3.386l6.25-3.386
		C16.426,8.218,16.426,7.694,16.426,7.609z"/>
	<path fill="#FFFFFF" d="M6.878,3.755c-0.228,0-0.411,0.184-0.411,0.41v8.236c0,0.227,0.184,0.41,0.411,0.41h6.162
		c0.228,0,0.411-0.185,0.411-0.41V5.33l-1.61-1.576L6.878,3.755L6.878,3.755z"/>
	<path fill="#DBDBDA" d="M13.451,5.33h-0.948c-0.369,0-0.669-0.3-0.669-0.669l0.008-0.907L13.451,5.33L13.451,5.33z"/>
	<path fill="#B7CAC4" d="M12.558,6.203c0,0.114-0.092,0.207-0.206,0.207H7.508C7.393,6.41,7.3,6.317,7.3,6.203l0,0
		c0-0.114,0.093-0.208,0.208-0.208h4.844C12.466,5.995,12.558,6.089,12.558,6.203L12.558,6.203z"/>
	<path fill="#B7CAC4" d="M12.558,7.097c0,0.114-0.092,0.207-0.206,0.207H7.508C7.393,7.304,7.3,7.211,7.3,7.097l0,0
		c0-0.114,0.093-0.207,0.208-0.207h4.844C12.466,6.89,12.558,6.983,12.558,7.097L12.558,7.097z"/>
	<path fill="#B7CAC4" d="M12.558,8.023c0,0.114-0.092,0.207-0.206,0.207H7.508C7.393,8.23,7.3,8.138,7.3,8.023l0,0
		c0-0.114,0.093-0.207,0.208-0.207h4.844C12.466,7.816,12.558,7.909,12.558,8.023L12.558,8.023z"/>
	<path fill="#B7CAC4" d="M10.137,8.941c0,0.114-0.093,0.207-0.207,0.207H7.508C7.393,9.148,7.3,9.056,7.3,8.941l0,0
		c0-0.114,0.093-0.207,0.208-0.207h2.421C10.044,8.734,10.136,8.827,10.137,8.941L10.137,8.941L10.137,8.941z"/>
	<path fill="#EDEDED" d="M3.841,8.251L3.84,14.229c0,0.311,0.252,0.562,0.563,0.562h11.458c0.312,0,0.564-0.252,0.564-0.562
		l-0.011-5.99l-6.24,3.427L3.841,8.251L3.841,8.251z"/>
</g>
</svg>
