<?xml version="1.0" encoding="utf-8"?>
<!-- Generator: Adobe Illustrator 16.0.0, SVG Export Plug-In . SVG Version: 6.00 Build 0)  -->
<!DOCTYPE svg PUBLIC "-//W3C//DTD SVG 1.1//EN" "http://www.w3.org/Graphics/SVG/1.1/DTD/svg11.dtd">
<svg version="1.1" id="Layer_1" xmlns="http://www.w3.org/2000/svg" xmlns:xlink="http://www.w3.org/1999/xlink" x="0px" y="0px"
	 width="20px" height="20px" viewBox="0 0 20 20" enable-background="new 0 0 20 20" xml:space="preserve">
<g>
	<path fill="#49A0AE" d="M19.69,10c0,5.351-4.338,9.69-9.69,9.69S0.31,15.353,0.31,10c0-5.352,4.338-9.69,9.69-9.69
		S19.69,4.647,19.69,10z"/>
	<path fill="#DFF1ED" d="M16.121,12.233c0,0.707-0.572,1.277-1.277,1.277H5.157c-0.705,0-1.277-0.57-1.277-1.277V6.593
		c0-0.706,0.572-1.277,1.277-1.277h9.687c0.705,0,1.277,0.571,1.277,1.277V12.233z"/>
	<path fill="#DFF1ED" d="M13.165,15.229c-0.101,0.101-0.262,0.101-0.362,0l-1.224-1.728c-0.099-0.101-0.099-0.264,0-0.362h2.811
		c0.102,0.101,0.102,0.263,0,0.362l-1.223,1.728H13.165z"/>
	<path fill="#B7CAC4" d="M14.255,7.486c0,0.256-0.207,0.464-0.463,0.464H6.18c-0.256,0-0.463-0.208-0.463-0.464l0,0
		c0-0.257,0.207-0.464,0.463-0.464h7.612C14.048,7.022,14.255,7.229,14.255,7.486L14.255,7.486z"/>
	<path fill="#B7CAC4" d="M14.255,9.343c0,0.256-0.207,0.463-0.463,0.463H6.18c-0.256,0-0.463-0.207-0.463-0.463l0,0
		c0-0.257,0.207-0.464,0.463-0.464h7.612C14.048,8.879,14.255,9.086,14.255,9.343L14.255,9.343z"/>
	<path fill="#B7CAC4" d="M14.255,11.198c0,0.258-0.207,0.464-0.463,0.464H6.18c-0.256,0-0.463-0.206-0.463-0.464l0,0
		c0-0.256,0.207-0.463,0.463-0.463h7.612C14.048,10.735,14.255,10.942,14.255,11.198L14.255,11.198z"/>
</g>
</svg>
