<?xml version="1.0" encoding="utf-8"?>
<!-- Generator: Adobe Illustrator 16.0.0, SVG Export Plug-In . SVG Version: 6.00 Build 0)  -->
<!DOCTYPE svg PUBLIC "-//W3C//DTD SVG 1.1//EN" "http://www.w3.org/Graphics/SVG/1.1/DTD/svg11.dtd">
<svg version="1.1" id="Layer_1" xmlns="http://www.w3.org/2000/svg" xmlns:xlink="http://www.w3.org/1999/xlink" x="0px" y="0px"
	 width="20px" height="20px" viewBox="0 0 20 20" enable-background="new 0 0 20 20" xml:space="preserve">
<g>
	<path fill="#3CB881" d="M19.69,10c0,5.351-4.338,9.69-9.69,9.69S0.31,15.353,0.31,10c0-5.352,4.338-9.69,9.69-9.69
		S19.69,4.647,19.69,10z"/>
	<path fill="#202121" d="M13.285,3.902H6.77c-1.271,0-1.917,0.646-1.917,1.916v12.391c0.157,0.098,0.316,0.194,0.479,0.284V6.347
		h9.344v12.143c0.18-0.101,0.355-0.206,0.527-0.315V5.818c0-1.27-0.646-1.916-1.916-1.916H13.285z"/>
	<path fill="#61A5B1" d="M14.676,18.486V6.345H5.332v12.146c1.385,0.764,2.975,1.198,4.668,1.198
		C11.696,19.689,13.29,19.253,14.676,18.486L14.676,18.486z"/>
	<path d="M11.241,5.339c0,0.124-0.101,0.225-0.223,0.225h-1.98c-0.124,0-0.225-0.1-0.225-0.225l0,0c0-0.123,0.101-0.223,0.225-0.223
		h1.98C11.142,5.116,11.241,5.216,11.241,5.339L11.241,5.339z"/>
	<path fill="#FFFFFF" d="M18.077,12.991c0,0.501-0.406,0.907-0.907,0.907h-6.883c-0.501,0-0.907-0.406-0.907-0.907V8.982
		c0-0.502,0.406-0.907,0.907-0.907h6.883c0.501,0,0.907,0.405,0.907,0.907V12.991z"/>
	<path fill="#B7CAC4" d="M9.995,12.95c0,0.183,0.148,0.331,0.331,0.331h6.747c0.183,0,0.332-0.148,0.332-0.331l-0.006-3.527
		l-3.674,2.019L9.995,9.43L9.993,12.95H9.995z"/>
	<path fill="#B7CAC4" d="M17.405,9.25c0-0.183-0.149-0.332-0.332-0.332h-6.747c-0.183,0-0.331,0.149-0.331,0.332l3.73,1.993
		L17.405,9.25L17.405,9.25z"/>
</g>
</svg>
