<?xml version="1.0" encoding="utf-8"?>
<!-- Generator: Adobe Illustrator 16.0.0, SVG Export Plug-In . SVG Version: 6.00 Build 0)  -->
<!DOCTYPE svg PUBLIC "-//W3C//DTD SVG 1.1//EN" "http://www.w3.org/Graphics/SVG/1.1/DTD/svg11.dtd">
<svg version="1.1" id="Layer_1" xmlns="http://www.w3.org/2000/svg" xmlns:xlink="http://www.w3.org/1999/xlink" x="0px" y="0px"
	 width="20px" height="20px" viewBox="0 0 20 20" enable-background="new 0 0 20 20" xml:space="preserve">
<g>
	<path fill="#49A0AE" d="M19.69,10c0,5.351-4.338,9.69-9.69,9.69S0.31,15.353,0.31,10c0-5.352,4.338-9.69,9.69-9.69
		S19.69,4.647,19.69,10z"/>
	<path fill="#DFF1ED" d="M16.121,12.233c0,0.707-0.572,1.277-1.277,1.277H5.157c-0.705,0-1.277-0.57-1.277-1.277V6.593
		c0-0.706,0.572-1.277,1.277-1.277h9.687c0.705,0,1.277,0.571,1.277,1.277V12.233z"/>
	<path fill="#DFF1ED" d="M13.165,15.229c-0.101,0.101-0.262,0.101-0.362,0l-1.224-1.728c-0.099-0.101-0.099-0.264,0-0.362h2.811
		c0.102,0.101,0.102,0.263,0,0.362l-1.223,1.728H13.165z"/>
	<path fill="#B7CAC4" d="M11.347,6.966c-0.524,0-1.012,0.256-1.304,0.684L9.981,7.727l-0.04-0.052
		C9.652,7.231,9.165,6.966,8.635,6.966c-0.903,0-1.559,0.655-1.559,1.559c0,1.334,2.414,3.301,2.591,3.441
		c0.082,0.08,0.191,0.124,0.308,0.124s0.224-0.044,0.307-0.124c0.177-0.143,2.624-2.139,2.624-3.441
		C12.905,7.621,12.249,6.966,11.347,6.966z"/>
</g>
</svg>
