<?xml version="1.0" encoding="utf-8"?>
<!-- Generator: Adobe Illustrator 16.0.0, SVG Export Plug-In . SVG Version: 6.00 Build 0)  -->
<!DOCTYPE svg PUBLIC "-//W3C//DTD SVG 1.1//EN" "http://www.w3.org/Graphics/SVG/1.1/DTD/svg11.dtd">
<svg version="1.1" id="Layer_1" xmlns="http://www.w3.org/2000/svg" xmlns:xlink="http://www.w3.org/1999/xlink" x="0px" y="0px"
	 width="20px" height="20px" viewBox="0 0 20 20" enable-background="new 0 0 20 20" xml:space="preserve">
<g>
	<path fill="#4ABC96" d="M19.69,10c0,5.351-4.338,9.69-9.69,9.69S0.31,15.353,0.31,10c0-5.352,4.338-9.69,9.69-9.69
		S19.69,4.647,19.69,10z"/>
	<path fill="#AAB6B3" d="M3.529,6.876l-0.001,5.992c0,0.312,0.254,0.564,0.565,0.564h11.484c0.312,0,0.565-0.252,0.565-0.564
		l-0.012-6.004l-6.254,3.437L3.529,6.876z"/>
	<path fill="#D8D8D8" d="M3.529,7.393l6.349,3.679l6.254-3.672l0.012,5.945c0,0.312-0.253,0.566-0.565,0.566H4.094
		c-0.311,0-0.565-0.254-0.565-0.566L3.529,7.393z"/>
	<path fill="#E5E5E5" d="M9.878,11.071l6.254-3.672l0.012,5.945c0,0.312-0.253,0.566-0.565,0.566L9.878,11.071z"/>
	<path fill="#E5E5E5" d="M3.529,7.393l6.349,3.679l-5.784,2.84c-0.311,0-0.565-0.254-0.565-0.566L3.529,7.393z"/>
	<path fill="#E1E1E1" d="M16.144,7.048c0-0.312-0.253-0.565-0.565-0.565H4.094c-0.311,0-0.565,0.253-0.565,0.565l6.35,3.393
		L16.144,7.048z"/>
</g>
</svg>
