<?xml version="1.0" encoding="utf-8"?>
<!-- Generator: Adobe Illustrator 16.0.0, SVG Export Plug-In . SVG Version: 6.00 Build 0)  -->
<!DOCTYPE svg PUBLIC "-//W3C//DTD SVG 1.1//EN" "http://www.w3.org/Graphics/SVG/1.1/DTD/svg11.dtd">
<svg version="1.1" id="Layer_1" xmlns="http://www.w3.org/2000/svg" xmlns:xlink="http://www.w3.org/1999/xlink" x="0px" y="0px"
	 width="20px" height="20px" viewBox="0 0 20 20" enable-background="new 0 0 20 20" xml:space="preserve">
<g>
	<path fill="#49A0AE" d="M19.69,10c0,5.351-4.338,9.69-9.69,9.69S0.31,15.353,0.31,10c0-5.352,4.338-9.69,9.69-9.69
		S19.69,4.647,19.69,10z"/>
	<path fill="#DFF1ED" d="M16.121,12.233c0,0.707-0.572,1.277-1.277,1.277H5.157c-0.705,0-1.277-0.57-1.277-1.277V6.593
		c0-0.706,0.572-1.277,1.277-1.277h9.687c0.705,0,1.277,0.571,1.277,1.277V12.233z"/>
	<path fill="#DFF1ED" d="M13.165,15.229c-0.101,0.101-0.262,0.101-0.362,0l-1.224-1.728c-0.099-0.101-0.099-0.264,0-0.362h2.811
		c0.102,0.101,0.102,0.263,0,0.362l-1.223,1.728H13.165z"/>
	<path fill="#B7CAC4" d="M8.43,9.599H8.322c-0.264,0-0.502-0.106-0.716-0.321s-0.32-0.467-0.32-0.759
		c0-0.302,0.105-0.554,0.32-0.756s0.478-0.304,0.787-0.304c0.354,0,0.642,0.142,0.865,0.424c0.224,0.283,0.335,0.676,0.335,1.18
		c0,0.462-0.098,0.896-0.293,1.304c-0.196,0.408-0.436,0.73-0.721,0.971c-0.284,0.239-0.542,0.36-0.773,0.36
		c-0.146,0-0.265-0.046-0.356-0.139c-0.093-0.093-0.138-0.203-0.138-0.335c0-0.212,0.097-0.367,0.29-0.465
		c0.249-0.146,0.443-0.307,0.586-0.481S8.409,9.876,8.43,9.599z M11.536,9.599h-0.085c-0.268,0-0.511-0.105-0.729-0.317
		c-0.22-0.211-0.329-0.465-0.329-0.762c0-0.296,0.107-0.548,0.325-0.751c0.217-0.206,0.48-0.308,0.789-0.308
		c0.358,0,0.648,0.139,0.869,0.416c0.223,0.277,0.332,0.673,0.332,1.186c0,0.476-0.097,0.914-0.293,1.317
		c-0.195,0.403-0.436,0.722-0.72,0.959c-0.284,0.238-0.546,0.358-0.781,0.358c-0.151,0-0.271-0.045-0.36-0.134
		c-0.089-0.09-0.135-0.203-0.135-0.34c0-0.207,0.098-0.362,0.29-0.465c0.269-0.155,0.469-0.317,0.601-0.484
		C11.441,10.106,11.516,9.883,11.536,9.599L11.536,9.599z"/>
</g>
</svg>
