<?xml version="1.0" encoding="utf-8"?>
<!-- Generator: Adobe Illustrator 16.0.0, SVG Export Plug-In . SVG Version: 6.00 Build 0)  -->
<!DOCTYPE svg PUBLIC "-//W3C//DTD SVG 1.1//EN" "http://www.w3.org/Graphics/SVG/1.1/DTD/svg11.dtd">
<svg version="1.1" id="Layer_1" xmlns="http://www.w3.org/2000/svg" xmlns:xlink="http://www.w3.org/1999/xlink" x="0px" y="0px"
	 width="20px" height="20px" viewBox="0 0 20 20" enable-background="new 0 0 20 20" xml:space="preserve">
<g>
	<g>
		<g>
			<g>
				<g>
					<g>
						<circle fill="#43B29B" cx="10" cy="10" r="9.69"/>
					</g>
				</g>
			</g>
		</g>
		<g>
			<g>
				<path fill="#505252" d="M11.017,15.618c-0.307-0.892-0.48-1.124-1.062-1.124c-0.574,0-0.773,0.295-1.061,1.124
					c-0.981,0.095-1.669,0.317-1.669,0.577c0,0.346,1.223,0.626,2.729,0.626c1.508,0,2.73-0.28,2.73-0.626
					C12.685,15.936,11.997,15.713,11.017,15.618z"/>
			</g>
			<g>
				<circle fill="#1A1919" cx="9.91" cy="14.812" r="0.179"/>
			</g>
			<g>
				<defs>
					<path id="SVGID_1_" d="M16.863,13.995c0,0.457-0.369,0.826-0.825,0.826c0,0-3.398,0.479-6.263,0.479
						c-2.192,0-5.919-0.479-5.919-0.479c-0.457,0-0.826-0.369-0.826-0.826V5.84c0-0.456,0.369-0.826,0.826-0.826h12.182
						c0.456,0,0.825,0.37,0.825,0.826V13.995z"/>
				</defs>
				<clipPath id="SVGID_2_">
					<use xlink:href="#SVGID_1_"  overflow="visible"/>
				</clipPath>
				<g clip-path="url(#SVGID_2_)">
					<g>
						<path fill="#3E4141" d="M3.588,14.192V5.61h10.938l0.417-0.597H3.856c-0.457,0-0.826,0.37-0.826,0.826v8.155
							c0,0.457,0.369,0.826,0.826,0.826c0,0,2.017,0.259,3.956,0.396l0.716-1.024H3.588z"/>
					</g>
					<g>
						<polygon fill="#676768" points="3.588,14.192 8.528,14.192 14.525,5.61 3.588,5.61 						"/>
					</g>
					<g>
						<path fill="#3E4141" d="M16.038,14.821c0.456,0,0.825-0.369,0.825-0.826V5.84c0-0.456-0.369-0.826-0.825-0.826h-1.096
							L14.525,5.61h1.751v8.582H8.528l-0.716,1.024c0.696,0.05,1.384,0.083,1.963,0.083C12.64,15.3,16.038,14.821,16.038,14.821z"/>
					</g>
					<g opacity="0.3">
						<g>
							<defs>
								<path id="SVGID_3_" d="M16.038,14.821c0.456,0,0.825-0.369,0.825-0.826V5.84c0-0.456-0.369-0.826-0.825-0.826h-1.096
									L14.525,5.61h1.751v8.582H8.528l-0.716,1.024c0.696,0.05,1.384,0.083,1.963,0.083C12.64,15.3,16.038,14.821,16.038,14.821z"
									/>
							</defs>
							<clipPath id="SVGID_4_">
								<use xlink:href="#SVGID_3_"  overflow="visible"/>
							</clipPath>
							<polygon clip-path="url(#SVGID_4_)" fill="#949295" points="14.942,5.014 7.812,15.217 7.812,5.014 							"/>
							<polygon clip-path="url(#SVGID_4_)" fill="#949295" points="15.097,5.014 7.909,15.3 7.812,15.3 7.812,15.217 14.942,5.014 
															"/>
							<polygon clip-path="url(#SVGID_4_)" fill="#959498" points="15.252,5.014 8.064,15.3 7.909,15.3 15.097,5.014 							"/>
							<polygon clip-path="url(#SVGID_4_)" fill="#969499" points="15.407,5.014 8.219,15.3 8.064,15.3 15.252,5.014 							"/>
							<polygon clip-path="url(#SVGID_4_)" fill="#97959A" points="15.562,5.014 8.374,15.3 8.219,15.3 15.407,5.014 							"/>
							<polygon clip-path="url(#SVGID_4_)" fill="#98969A" points="15.718,5.014 8.529,15.3 8.374,15.3 15.562,5.014 							"/>
							<polygon clip-path="url(#SVGID_4_)" fill="#99979C" points="15.873,5.014 8.685,15.3 8.529,15.3 15.718,5.014 							"/>
							<polygon clip-path="url(#SVGID_4_)" fill="#9A989D" points="16.027,5.014 8.839,15.3 8.685,15.3 15.873,5.014 							"/>
							<polygon clip-path="url(#SVGID_4_)" fill="#9B999E" points="16.183,5.014 8.994,15.3 8.839,15.3 16.027,5.014 							"/>
							<polygon clip-path="url(#SVGID_4_)" fill="#9B9A9E" points="16.338,5.014 9.149,15.3 8.994,15.3 16.183,5.014 							"/>
							<polygon clip-path="url(#SVGID_4_)" fill="#9D9B9F" points="16.493,5.014 9.305,15.3 9.149,15.3 16.338,5.014 							"/>
							<polygon clip-path="url(#SVGID_4_)" fill="#9E9CA1" points="16.647,5.014 9.46,15.3 9.305,15.3 16.493,5.014 							"/>
							<polygon clip-path="url(#SVGID_4_)" fill="#9F9CA2" points="16.803,5.014 9.615,15.3 9.46,15.3 16.647,5.014 							"/>
							<polygon clip-path="url(#SVGID_4_)" fill="#9F9DA3" points="16.863,5.149 9.77,15.3 9.615,15.3 16.803,5.014 16.863,5.014 
															"/>
							<polygon clip-path="url(#SVGID_4_)" fill="#A09EA4" points="16.863,5.372 9.925,15.3 9.77,15.3 16.863,5.149 							"/>
							<polygon clip-path="url(#SVGID_4_)" fill="#A29FA4" points="16.863,5.594 10.08,15.3 9.925,15.3 16.863,5.372 							"/>
							<polygon clip-path="url(#SVGID_4_)" fill="#A3A1A6" points="16.863,5.815 10.235,15.3 10.08,15.3 16.863,5.594 							"/>
							<polygon clip-path="url(#SVGID_4_)" fill="#A4A2A8" points="16.863,6.037 10.39,15.3 10.235,15.3 16.863,5.815 							"/>
							<polygon clip-path="url(#SVGID_4_)" fill="#A5A3A9" points="16.863,6.26 10.545,15.3 10.39,15.3 16.863,6.037 							"/>
							<polygon clip-path="url(#SVGID_4_)" fill="#A6A4A9" points="16.863,6.481 10.7,15.3 10.545,15.3 16.863,6.26 							"/>
							<polygon clip-path="url(#SVGID_4_)" fill="#A6A4AA" points="16.863,6.703 10.855,15.3 10.7,15.3 16.863,6.481 							"/>
							<polygon clip-path="url(#SVGID_4_)" fill="#A8A5AB" points="16.863,6.925 11.011,15.3 10.855,15.3 16.863,6.703 							"/>
							<polygon clip-path="url(#SVGID_4_)" fill="#A9A6AC" points="16.863,7.147 11.165,15.3 11.011,15.3 16.863,6.925 							"/>
							<polygon clip-path="url(#SVGID_4_)" fill="#AAA7AD" points="16.863,7.369 11.32,15.3 11.165,15.3 16.863,7.147 							"/>
							<polygon clip-path="url(#SVGID_4_)" fill="#AAA8AE" points="16.863,7.591 11.476,15.3 11.32,15.3 16.863,7.369 							"/>
							<polygon clip-path="url(#SVGID_4_)" fill="#ABA9AF" points="16.863,7.812 11.631,15.3 11.476,15.3 16.863,7.591 							"/>
							<polygon clip-path="url(#SVGID_4_)" fill="#ACA9B0" points="16.863,8.034 11.786,15.3 11.631,15.3 16.863,7.812 							"/>
							<polygon clip-path="url(#SVGID_4_)" fill="#ADAAB1" points="16.863,8.257 11.94,15.3 11.786,15.3 16.863,8.034 							"/>
							<polygon clip-path="url(#SVGID_4_)" fill="#AEACB2" points="16.863,8.479 12.096,15.3 11.94,15.3 16.863,8.257 							"/>
							<polygon clip-path="url(#SVGID_4_)" fill="#AFACB3" points="16.863,8.7 12.251,15.3 12.096,15.3 16.863,8.479 							"/>
							<polygon clip-path="url(#SVGID_4_)" fill="#B0ADB4" points="16.863,8.922 12.406,15.3 12.251,15.3 16.863,8.7 							"/>
							<polygon clip-path="url(#SVGID_4_)" fill="#B2AFB6" points="16.863,9.144 12.562,15.3 12.406,15.3 16.863,8.922 							"/>
							<polygon clip-path="url(#SVGID_4_)" fill="#B3B0B7" points="16.863,9.366 12.717,15.3 12.562,15.3 16.863,9.144 							"/>
							<polygon clip-path="url(#SVGID_4_)" fill="#B3B1B8" points="16.863,9.588 12.871,15.3 12.717,15.3 16.863,9.366 							"/>
							<polygon clip-path="url(#SVGID_4_)" fill="#B4B1B9" points="16.863,9.81 13.026,15.3 12.871,15.3 16.863,9.588 							"/>
							<polygon clip-path="url(#SVGID_4_)" fill="#B5B2BA" points="16.863,10.031 13.182,15.3 13.026,15.3 16.863,9.81 							"/>
							<polygon clip-path="url(#SVGID_4_)" fill="#B6B3BB" points="16.863,10.254 13.337,15.3 13.182,15.3 16.863,10.031 							"/>
							<polygon clip-path="url(#SVGID_4_)" fill="#B7B4BC" points="16.863,10.476 13.491,15.3 13.337,15.3 16.863,10.254 							"/>
							<polygon clip-path="url(#SVGID_4_)" fill="#B8B5BD" points="16.863,10.697 13.646,15.3 13.491,15.3 16.863,10.476 							"/>
							<polygon clip-path="url(#SVGID_4_)" fill="#B8B6BE" points="16.863,10.919 13.802,15.3 13.646,15.3 16.863,10.697 							"/>
							<polygon clip-path="url(#SVGID_4_)" fill="#B9B7BF" points="16.863,11.141 13.957,15.3 13.802,15.3 16.863,10.919 							"/>
							<polygon clip-path="url(#SVGID_4_)" fill="#BAB8C0" points="16.863,11.363 14.112,15.3 13.957,15.3 16.863,11.141 							"/>
							<polygon clip-path="url(#SVGID_4_)" fill="#BBB8C1" points="16.863,11.585 14.267,15.3 14.112,15.3 16.863,11.363 							"/>
							<polygon clip-path="url(#SVGID_4_)" fill="#BCB9C2" points="16.863,11.807 14.422,15.3 14.267,15.3 16.863,11.585 							"/>
							<polygon clip-path="url(#SVGID_4_)" fill="#BDBAC3" points="16.863,12.029 14.577,15.3 14.422,15.3 16.863,11.807 							"/>
							<polygon clip-path="url(#SVGID_4_)" fill="#BDBBC4" points="16.863,12.251 14.732,15.3 14.577,15.3 16.863,12.029 							"/>
							<polygon clip-path="url(#SVGID_4_)" fill="#BEBCC5" points="16.863,12.473 14.888,15.3 14.732,15.3 16.863,12.251 							"/>
							<polygon clip-path="url(#SVGID_4_)" fill="#BFBDC6" points="16.863,12.694 15.042,15.3 14.888,15.3 16.863,12.473 							"/>
							<polygon clip-path="url(#SVGID_4_)" fill="#C1BFC8" points="16.863,12.916 15.197,15.3 15.042,15.3 16.863,12.694 							"/>
							<polygon clip-path="url(#SVGID_4_)" fill="#C2C0C9" points="16.863,13.139 15.353,15.3 15.197,15.3 16.863,12.916 							"/>
							<polygon clip-path="url(#SVGID_4_)" fill="#C3C1C9" points="16.863,13.36 15.508,15.3 15.353,15.3 16.863,13.139 							"/>
							<polygon clip-path="url(#SVGID_4_)" fill="#C4C2CA" points="16.863,13.582 15.663,15.3 15.508,15.3 16.863,13.36 							"/>
							<polygon clip-path="url(#SVGID_4_)" fill="#C5C2CB" points="16.863,13.804 15.818,15.3 15.663,15.3 16.863,13.582 							"/>
							<polygon clip-path="url(#SVGID_4_)" fill="#C5C3CC" points="16.863,14.026 15.973,15.3 15.818,15.3 16.863,13.804 							"/>
							<polygon clip-path="url(#SVGID_4_)" fill="#C6C4CD" points="16.863,14.248 16.128,15.3 15.973,15.3 16.863,14.026 							"/>
							<polygon clip-path="url(#SVGID_4_)" fill="#C7C5CE" points="16.863,14.47 16.283,15.3 16.128,15.3 16.863,14.248 							"/>
							<polygon clip-path="url(#SVGID_4_)" fill="#C8C5CF" points="16.863,14.691 16.438,15.3 16.283,15.3 16.863,14.47 							"/>
							<polygon clip-path="url(#SVGID_4_)" fill="#C9C6D0" points="16.863,14.913 16.593,15.3 16.438,15.3 16.863,14.691 							"/>
							<polygon clip-path="url(#SVGID_4_)" fill="#C9C7D1" points="16.863,15.136 16.748,15.3 16.593,15.3 16.863,14.913 							"/>
							<polygon clip-path="url(#SVGID_4_)" fill="#CAC7D1" points="16.748,15.3 16.863,15.136 16.863,15.3 							"/>
						</g>
					</g>
					<g>
						<polygon fill="#676768" points="16.276,14.192 16.276,5.61 14.525,5.61 8.528,14.192 						"/>
					</g>
					<g opacity="0.3">
						<g>
							<defs>
								<polygon id="SVGID_5_" points="16.276,14.192 16.276,5.61 14.525,5.61 8.528,14.192 								"/>
							</defs>
							<clipPath id="SVGID_6_">
								<use xlink:href="#SVGID_5_"  overflow="visible"/>
							</clipPath>
							<polygon clip-path="url(#SVGID_6_)" fill="#949295" points="14.525,5.61 8.528,14.192 8.528,5.61 							"/>
							<polygon clip-path="url(#SVGID_6_)" fill="#949295" points="14.681,5.61 8.684,14.192 8.528,14.192 8.528,14.192 
								14.525,5.61 							"/>
							<polygon clip-path="url(#SVGID_6_)" fill="#959498" points="14.836,5.61 8.838,14.192 8.684,14.192 14.681,5.61 							"/>
							<polygon clip-path="url(#SVGID_6_)" fill="#969499" points="14.991,5.61 8.993,14.192 8.838,14.192 14.836,5.61 							"/>
							<polygon clip-path="url(#SVGID_6_)" fill="#97959A" points="15.146,5.61 9.148,14.192 8.993,14.192 14.991,5.61 							"/>
							<polygon clip-path="url(#SVGID_6_)" fill="#98969A" points="15.301,5.61 9.304,14.192 9.148,14.192 15.146,5.61 							"/>
							<polygon clip-path="url(#SVGID_6_)" fill="#99979C" points="15.456,5.61 9.459,14.192 9.304,14.192 15.301,5.61 							"/>
							<polygon clip-path="url(#SVGID_6_)" fill="#9A989D" points="15.611,5.61 9.613,14.192 9.459,14.192 15.456,5.61 							"/>
							<polygon clip-path="url(#SVGID_6_)" fill="#9B999E" points="15.767,5.61 9.769,14.192 9.613,14.192 15.611,5.61 							"/>
							<polygon clip-path="url(#SVGID_6_)" fill="#9B9A9E" points="15.921,5.61 9.924,14.192 9.769,14.192 15.767,5.61 							"/>
							<polygon clip-path="url(#SVGID_6_)" fill="#9D9B9F" points="16.076,5.61 10.079,14.192 9.924,14.192 15.921,5.61 							"/>
							<polygon clip-path="url(#SVGID_6_)" fill="#9E9CA1" points="16.231,5.61 10.234,14.192 10.079,14.192 16.076,5.61 							"/>
							<polygon clip-path="url(#SVGID_6_)" fill="#9F9CA2" points="16.276,5.769 10.389,14.192 10.234,14.192 16.231,5.61 
								16.276,5.61 							"/>
							<polygon clip-path="url(#SVGID_6_)" fill="#9F9DA3" points="16.276,5.99 10.544,14.192 10.389,14.192 16.276,5.769 							
								"/>
							<polygon clip-path="url(#SVGID_6_)" fill="#A09EA4" points="16.276,6.212 10.699,14.192 10.544,14.192 16.276,5.99 							
								"/>
							<polygon clip-path="url(#SVGID_6_)" fill="#A29FA4" points="16.276,6.434 10.854,14.192 10.699,14.192 16.276,6.212 							
								"/>
							<polygon clip-path="url(#SVGID_6_)" fill="#A3A1A6" points="16.276,6.656 11.01,14.192 10.854,14.192 16.276,6.434 							
								"/>
							<polygon clip-path="url(#SVGID_6_)" fill="#A4A2A8" points="16.276,6.878 11.164,14.192 11.01,14.192 16.276,6.656 							
								"/>
							<polygon clip-path="url(#SVGID_6_)" fill="#A5A3A9" points="16.276,7.1 11.319,14.192 11.164,14.192 16.276,6.878 							"/>
							<polygon clip-path="url(#SVGID_6_)" fill="#A6A4A9" points="16.276,7.321 11.475,14.192 11.319,14.192 16.276,7.1 							"/>
							<polygon clip-path="url(#SVGID_6_)" fill="#A6A4AA" points="16.276,7.544 11.63,14.192 11.475,14.192 16.276,7.321 							
								"/>
							<polygon clip-path="url(#SVGID_6_)" fill="#A8A5AB" points="16.276,7.766 11.784,14.192 11.63,14.192 16.276,7.544 							
								"/>
							<polygon clip-path="url(#SVGID_6_)" fill="#A9A6AC" points="16.276,7.987 11.939,14.192 11.784,14.192 16.276,7.766 							
								"/>
							<polygon clip-path="url(#SVGID_6_)" fill="#AAA7AD" points="16.276,8.209 12.095,14.192 11.939,14.192 16.276,7.987 							
								"/>
							<polygon clip-path="url(#SVGID_6_)" fill="#AAA8AE" points="16.276,8.431 12.25,14.192 12.095,14.192 16.276,8.209 							
								"/>
							<polygon clip-path="url(#SVGID_6_)" fill="#ABA9AF" points="16.276,8.653 12.405,14.192 12.25,14.192 16.276,8.431 							
								"/>
							<polygon clip-path="url(#SVGID_6_)" fill="#ACA9B0" points="16.276,8.875 12.561,14.192 12.405,14.192 16.276,8.653 							
								"/>
							<polygon clip-path="url(#SVGID_6_)" fill="#ADAAB1" points="16.276,9.097 12.715,14.192 12.561,14.192 16.276,8.875 							
								"/>
							<polygon clip-path="url(#SVGID_6_)" fill="#AEACB2" points="16.276,9.318 12.87,14.192 12.715,14.192 16.276,9.097 							
								"/>
							<polygon clip-path="url(#SVGID_6_)" fill="#AFACB3" points="16.276,9.541 13.025,14.192 12.87,14.192 16.276,9.318 							
								"/>
							<polygon clip-path="url(#SVGID_6_)" fill="#B0ADB4" points="16.276,9.763 13.181,14.192 13.025,14.192 16.276,9.541 							
								"/>
							<polygon clip-path="url(#SVGID_6_)" fill="#B2AFB6" points="16.276,9.984 13.335,14.192 13.181,14.192 16.276,9.763 							
								"/>
							<polygon clip-path="url(#SVGID_6_)" fill="#B3B0B7" points="16.276,10.206 13.49,14.192 13.335,14.192 16.276,9.984 							
								"/>
							<polygon clip-path="url(#SVGID_6_)" fill="#B3B1B8" points="16.276,10.428 13.646,14.192 13.49,14.192 16.276,10.206 							
								"/>
							<polygon clip-path="url(#SVGID_6_)" fill="#B4B1B9" points="16.276,10.65 13.801,14.192 13.646,14.192 16.276,10.428 							
								"/>
							<polygon clip-path="url(#SVGID_6_)" fill="#B5B2BA" points="16.276,10.872 13.956,14.192 13.801,14.192 16.276,10.65 							
								"/>
							<polygon clip-path="url(#SVGID_6_)" fill="#B6B3BB" points="16.276,11.094 14.11,14.192 13.956,14.192 16.276,10.872 							
								"/>
							<polygon clip-path="url(#SVGID_6_)" fill="#B7B4BC" points="16.276,11.315 14.266,14.192 14.11,14.192 16.276,11.094 							
								"/>
							<polygon clip-path="url(#SVGID_6_)" fill="#B8B5BD" points="16.276,11.538 14.421,14.192 14.266,14.192 16.276,11.315 
															"/>
							<polygon clip-path="url(#SVGID_6_)" fill="#B8B6BE" points="16.276,11.76 14.576,14.192 14.421,14.192 16.276,11.538 							
								"/>
							<polygon clip-path="url(#SVGID_6_)" fill="#B9B7BF" points="16.276,11.981 14.731,14.192 14.576,14.192 16.276,11.76 							
								"/>
							<polygon clip-path="url(#SVGID_6_)" fill="#BAB8C0" points="16.276,12.203 14.886,14.192 14.731,14.192 16.276,11.981 
															"/>
							<polygon clip-path="url(#SVGID_6_)" fill="#BBB8C1" points="16.276,12.425 15.041,14.192 14.886,14.192 16.276,12.203 
															"/>
							<polygon clip-path="url(#SVGID_6_)" fill="#BCB9C2" points="16.276,12.647 15.196,14.192 15.041,14.192 16.276,12.425 
															"/>
							<polygon clip-path="url(#SVGID_6_)" fill="#BDBAC3" points="16.276,12.869 15.352,14.192 15.196,14.192 16.276,12.647 
															"/>
							<polygon clip-path="url(#SVGID_6_)" fill="#BDBBC4" points="16.276,13.091 15.507,14.192 15.352,14.192 16.276,12.869 
															"/>
							<polygon clip-path="url(#SVGID_6_)" fill="#BEBCC5" points="16.276,13.312 15.662,14.192 15.507,14.192 16.276,13.091 
															"/>
							<polygon clip-path="url(#SVGID_6_)" fill="#BFBDC6" points="16.276,13.535 15.816,14.192 15.662,14.192 16.276,13.312 
															"/>
							<polygon clip-path="url(#SVGID_6_)" fill="#C1BFC8" points="16.276,13.757 15.972,14.192 15.816,14.192 16.276,13.535 
															"/>
							<polygon clip-path="url(#SVGID_6_)" fill="#C2C0C9" points="16.276,13.979 16.127,14.192 15.972,14.192 16.276,13.757 
															"/>
							<polygon clip-path="url(#SVGID_6_)" fill="#C3C1C9" points="16.127,14.192 16.276,13.979 16.276,14.192 							"/>
						</g>
					</g>
				</g>
			</g>
		</g>
	</g>
	<g>
		<g>
			<g>
				<path fill="#DFF1ED" d="M8.557,9.826c0,0.219-0.179,0.397-0.397,0.397H5.145c-0.22,0-0.397-0.179-0.397-0.397V8.07
					c0-0.22,0.178-0.397,0.397-0.397h3.015c0.219,0,0.397,0.178,0.397,0.397V9.826z"/>
			</g>
			<g>
				<path fill="#DFF1ED" d="M7.637,10.758c-0.031,0.031-0.082,0.031-0.113,0l-0.381-0.537c-0.03-0.031-0.03-0.082,0-0.113h0.875
					c0.031,0.031,0.031,0.082,0,0.113L7.637,10.758z"/>
			</g>
		</g>
		<g>
			<g>
				<path fill="#B7CAC4" d="M7.976,8.349c0,0.079-0.064,0.145-0.144,0.145H5.463c-0.08,0-0.145-0.065-0.145-0.145l0,0
					c0-0.08,0.064-0.145,0.145-0.145h2.369C7.911,8.204,7.976,8.269,7.976,8.349L7.976,8.349z"/>
			</g>
			<g>
				<path fill="#B7CAC4" d="M7.976,8.926c0,0.08-0.064,0.145-0.144,0.145H5.463c-0.08,0-0.145-0.064-0.145-0.145l0,0
					c0-0.08,0.064-0.145,0.145-0.145h2.369C7.911,8.781,7.976,8.846,7.976,8.926L7.976,8.926z"/>
			</g>
			<g>
				<path fill="#B7CAC4" d="M7.976,9.504c0,0.079-0.064,0.145-0.144,0.145H5.463c-0.08,0-0.145-0.065-0.145-0.145l0,0
					c0-0.08,0.064-0.145,0.145-0.145h2.369C7.911,9.359,7.976,9.424,7.976,9.504L7.976,9.504z"/>
			</g>
		</g>
	</g>
	<g>
		<g>
			<g>
				<path fill="#DFF1ED" d="M15.276,9.07c0,0.22-0.179,0.397-0.397,0.397h-3.015c-0.22,0-0.397-0.178-0.397-0.397V7.314
					c0-0.219,0.178-0.397,0.397-0.397h3.015c0.219,0,0.397,0.179,0.397,0.397V9.07z"/>
			</g>
			<g>
				<path fill="#DFF1ED" d="M14.356,10.003c-0.031,0.031-0.082,0.031-0.113,0l-0.38-0.538c-0.031-0.031-0.031-0.082,0-0.113h0.874
					c0.031,0.031,0.031,0.082,0,0.113L14.356,10.003z"/>
			</g>
		</g>
		<g>
			<g>
				<path fill="#B7CAC4" d="M14.695,7.593c0,0.08-0.064,0.145-0.144,0.145h-2.369c-0.08,0-0.145-0.064-0.145-0.145l0,0
					c0-0.08,0.064-0.145,0.145-0.145h2.369C14.631,7.448,14.695,7.513,14.695,7.593L14.695,7.593z"/>
			</g>
			<g>
				<path fill="#B7CAC4" d="M14.695,8.171c0,0.079-0.064,0.144-0.144,0.144h-2.369c-0.08,0-0.145-0.064-0.145-0.144l0,0
					c0-0.08,0.064-0.145,0.145-0.145h2.369C14.631,8.026,14.695,8.091,14.695,8.171L14.695,8.171z"/>
			</g>
			<g>
				<path fill="#B7CAC4" d="M14.695,8.748c0,0.08-0.064,0.145-0.144,0.145h-2.369c-0.08,0-0.145-0.064-0.145-0.145l0,0
					c0-0.08,0.064-0.145,0.145-0.145h2.369C14.631,8.604,14.695,8.668,14.695,8.748L14.695,8.748z"/>
			</g>
		</g>
	</g>
	<g>
		<g>
			<g>
				<path fill="#DFF1ED" d="M12.914,12.604c0,0.22-0.178,0.397-0.397,0.397H9.503c-0.22,0-0.397-0.178-0.397-0.397v-1.755
					c0-0.22,0.178-0.398,0.397-0.398h3.014c0.22,0,0.397,0.179,0.397,0.398V12.604z"/>
			</g>
			<g>
				<path fill="#DFF1ED" d="M11.995,13.536c-0.031,0.031-0.082,0.031-0.113,0l-0.381-0.538c-0.031-0.031-0.031-0.081,0-0.112h0.875
					c0.03,0.031,0.03,0.081,0,0.112L11.995,13.536z"/>
			</g>
		</g>
		<g>
			<g>
				<path fill="#B7CAC4" d="M12.334,11.126c0,0.08-0.064,0.145-0.145,0.145H9.82c-0.079,0-0.144-0.064-0.144-0.145l0,0
					c0-0.079,0.064-0.145,0.144-0.145h2.369C12.27,10.981,12.334,11.047,12.334,11.126L12.334,11.126z"/>
			</g>
			<g>
				<path fill="#B7CAC4" d="M12.334,11.704c0,0.08-0.064,0.145-0.145,0.145H9.82c-0.079,0-0.144-0.064-0.144-0.145l0,0
					c0-0.08,0.064-0.145,0.144-0.145h2.369C12.27,11.56,12.334,11.624,12.334,11.704L12.334,11.704z"/>
			</g>
			<g>
				<path fill="#B7CAC4" d="M12.334,12.281c0,0.08-0.064,0.145-0.145,0.145H9.82c-0.079,0-0.144-0.064-0.144-0.145l0,0
					c0-0.079,0.064-0.144,0.144-0.144h2.369C12.27,12.138,12.334,12.202,12.334,12.281L12.334,12.281z"/>
			</g>
		</g>
	</g>
</g>
</svg>
