<?xml version="1.0" encoding="utf-8"?>
<!-- Generated by IcoMoon.io -->
<!DOCTYPE svg PUBLIC "-//W3C//DTD SVG 1.1//EN" "http://www.w3.org/Graphics/SVG/1.1/DTD/svg11.dtd">
<svg version="1.1" xmlns="http://www.w3.org/2000/svg" xmlns:xlink="http://www.w3.org/1999/xlink" width="20" height="20" viewBox="0 0 20 20">
<path fill="rgb(72, 161, 175)" d="M10 0.31c-5.352 0-9.691 4.338-9.691 9.691s4.339 9.69 9.691 9.69c5.352 0 9.69-4.339 9.69-9.69s-4.339-9.691-9.69-9.691z"></path>
<path fill="rgb(255, 255, 255)" d="M15.152 8.857c-0.139-0.043-0.279-0.085-0.418-0.128-0.097-0.799-0.555-1.497-1.295-1.858-0.824-0.403-1.777-0.256-2.489 0.299-0.316 0.246 0.109 0.7 0.422 0.455 0.977-0.761 2.397-0.227 2.7 0.902l-0.387-0.118c-0.036-0.011-0.067-0.003-0.089 0.015-0.034 0.020-0.057 0.057-0.043 0.108 0.128 0.456 0.256 0.912 0.384 1.368 0.021 0.077 0.111 0.104 0.171 0.052 0.361-0.307 0.722-0.613 1.083-0.92 0.060-0.051 0.033-0.153-0.039-0.175z"></path>
<path fill="rgb(255, 255, 255)" d="M8.337 13.378c-1.014 0.71-2.405 0.105-2.65-1.038 0.127 0.046 0.253 0.092 0.38 0.138 0.035 0.013 0.066 0.006 0.090-0.010 0.035-0.018 0.060-0.054 0.048-0.105-0.104-0.462-0.209-0.924-0.313-1.386-0.018-0.078-0.105-0.109-0.168-0.061-0.376 0.288-0.752 0.576-1.128 0.863-0.062 0.048-0.041 0.151 0.030 0.176 0.137 0.050 0.274 0.099 0.411 0.149 0.056 0.803 0.478 1.523 1.198 1.922 0.802 0.444 1.761 0.346 2.501-0.172 0.329-0.23-0.073-0.704-0.399-0.476z"></path>
<path fill="rgb(170, 182, 179)" d="M10.018 4.98l-3.122 1.954-3.169-1.948-0 3.409c0 0.177 0.127 0.321 0.282 0.321h5.733c0.156 0 0.282-0.144 0.282-0.321l-0.006-3.415z"></path>
<path fill="rgb(216, 216, 216)" d="M10.018 5.284l-3.122 2.088-3.169-2.092-0 3.385c0 0.177 0.127 0.321 0.282 0.321h5.733c0.156 0 0.282-0.144 0.282-0.321l-0.006-3.382z"></path>
<path fill="rgb(229, 229, 229)" d="M10.018 5.284l-3.122 2.088 2.845 1.615c0.156 0 0.282-0.144 0.282-0.321l-0.006-3.382z"></path>
<path fill="rgb(229, 229, 229)" d="M3.727 5.28l-0 3.386c0 0.177 0.127 0.321 0.282 0.321l2.888-1.615-3.169-2.092z"></path>
<path fill="rgb(225, 225, 225)" d="M9.741 4.763h-5.733c-0.155 0-0.282 0.144-0.282 0.321l3.17 1.93 3.127-1.93c0-0.177-0.126-0.321-0.282-0.321z"></path>
<path fill="rgb(170, 182, 179)" d="M16.268 11.23l-3.122 1.954-3.169-1.948-0 3.409c0 0.177 0.127 0.321 0.282 0.321h5.733c0.156 0 0.282-0.144 0.282-0.321l-0.006-3.415z"></path>
<path fill="rgb(216, 216, 216)" d="M16.268 11.534l-3.122 2.088-3.169-2.092-0 3.385c0 0.177 0.127 0.321 0.282 0.321h5.733c0.156 0 0.282-0.144 0.282-0.321l-0.006-3.382z"></path>
<path fill="rgb(229, 229, 229)" d="M16.268 11.534l-3.122 2.088 2.845 1.615c0.156 0 0.282-0.144 0.282-0.321l-0.006-3.382z"></path>
<path fill="rgb(229, 229, 229)" d="M9.977 11.53l-0 3.385c0 0.177 0.127 0.321 0.282 0.321l2.888-1.615-3.169-2.092z"></path>
<path fill="rgb(225, 225, 225)" d="M15.991 11.013h-5.733c-0.155 0-0.282 0.144-0.282 0.321l3.17 1.93 3.127-1.93c0-0.177-0.126-0.321-0.282-0.321z"></path>
</svg>
