<?xml version="1.0" encoding="utf-8"?>
<!-- Generated by IcoMoon.io -->
<!DOCTYPE svg PUBLIC "-//W3C//DTD SVG 1.1//EN" "http://www.w3.org/Graphics/SVG/1.1/DTD/svg11.dtd">
<svg version="1.1" xmlns="http://www.w3.org/2000/svg" xmlns:xlink="http://www.w3.org/1999/xlink" width="20" height="20" viewBox="0 0 20 20">
<path fill="rgb(34, 168, 91)" d="M10 0.31c-5.352 0-9.691 4.338-9.691 9.691s4.339 9.69 9.691 9.69c5.352 0 9.69-4.339 9.69-9.69s-4.339-9.691-9.69-9.691z"></path>
<path fill="rgb(204, 204, 204)" d="M13.799 5.738c-0.035-0.13-0.095-0.241-0.183-0.329-0.682-0.676-2.75 0.304-4.618 2.19s-2.83 3.962-2.148 4.638c0.069 0.069 0.154 0.12 0.25 0.155l-0.007 0.007c0 0 2.849 1.004 4.901-0.516 0.488-0.362 3.287-3.206 1.804-6.145z"></path>
<path fill="rgb(193, 193, 193)" d="M12.324 11.808c-0.109 0.11-0.198 0.188-0.251 0.227-0.166 0.123-0.338 0.224-0.515 0.307-0.035 0.316 0.177 0.612 0.495 0.675 0.336 0.067 0.662-0.151 0.729-0.487 0.065-0.326-0.139-0.643-0.458-0.722z"></path>
<path fill="rgb(249, 249, 249)" d="M13.382 5.646c-0.635-0.629-2.559 0.283-4.298 2.038s-2.634 3.687-1.999 4.316c0.635 0.629 2.559-0.283 4.298-2.038s2.634-3.687 1.999-4.316z"></path>
<path fill="rgb(193, 193, 193)" d="M10.605 8.384l-2.076-1.598-0.185 0.179 1.52 2.204c0 0 0.304-0.001 0.562-0.258s0.179-0.527 0.179-0.527z"></path>
<path fill="rgb(193, 193, 193)" d="M8.113 5.962c-0.322 0-0.583 0.261-0.583 0.583s0.261 0.583 0.583 0.583c0.322 0 0.583-0.261 0.583-0.583s-0.261-0.583-0.583-0.583zM8.113 6.926c-0.211 0-0.381-0.171-0.381-0.381s0.171-0.381 0.381-0.381 0.381 0.171 0.381 0.381c0 0.211-0.171 0.381-0.381 0.381z"></path>
<path fill="rgb(175, 177, 178)" d="M13.949 16.429l-1.060-3.492c-0.006-0.021-0.024-0.036-0.045-0.041s-0.043 0.004-0.057 0.021c-0.002 0.003-0.244 0.303-0.604 0.303h-0c-0.201 0-0.403-0.093-0.602-0.276-0.015-0.014-0.036-0.019-0.055-0.013s-0.035 0.021-0.041 0.040l-1.012 3.458c-0.005 0.018-0.002 0.037 0.009 0.052s0.028 0.023 0.047 0.023h3.365c0.019 0 0.036-0.009 0.047-0.024s0.014-0.034 0.009-0.052z"></path>
<path fill="rgb(243, 244, 245)" d="M8.93 4.597c-0.018-0.018-0.039-0.033-0.064-0.044-0.676-0.298-1.588-0.041-2.268 0.64-0.602 0.602-0.881 1.412-0.711 2.063 0.029 0.113 0.145 0.18 0.257 0.151s0.18-0.145 0.151-0.257c-0.133-0.509 0.103-1.16 0.601-1.658 0.55-0.55 1.29-0.777 1.8-0.552 0.107 0.047 0.231-0.001 0.278-0.108 0.036-0.082 0.016-0.174-0.044-0.234z"></path>
<path fill="rgb(243, 244, 245)" d="M8.831 3.254c-0.018-0.018-0.040-0.033-0.064-0.044-0.95-0.419-2.287-0.037-3.252 0.928-0.868 0.868-1.271 2.030-1.028 2.962 0.029 0.113 0.145 0.18 0.257 0.151s0.18-0.145 0.151-0.257c-0.206-0.789 0.154-1.793 0.918-2.557 0.844-0.845 1.989-1.19 2.783-0.84 0.107 0.047 0.231-0.001 0.278-0.108 0.036-0.082 0.016-0.174-0.044-0.234z"></path>
</svg>
