<?xml version="1.0" encoding="utf-8"?>
<!-- Generated by IcoMoon.io -->
<!DOCTYPE svg PUBLIC "-//W3C//DTD SVG 1.1//EN" "http://www.w3.org/Graphics/SVG/1.1/DTD/svg11.dtd">
<svg version="1.1" xmlns="http://www.w3.org/2000/svg" xmlns:xlink="http://www.w3.org/1999/xlink" width="20" height="20" viewBox="0 0 20 20">
<path fill="rgb(74, 188, 150)" d="M10 0.31c-5.352 0-9.691 4.338-9.691 9.691s4.339 9.69 9.691 9.69c5.352 0 9.69-4.339 9.69-9.69s-4.339-9.691-9.69-9.691z"></path>
<path fill="rgb(243, 244, 245)" d="M11.83 5.549h-3.66c-0.713 0-1.077 0.363-1.077 1.076v8.827c0 0.713 0.363 1.076 1.077 1.076l3.66-0c0.713 0 1.076-0.363 1.076-1.076v-8.827c0-0.713-0.363-1.076-1.076-1.076z"></path>
<path fill="rgb(201, 201, 201)" d="M10.556 6.231h-1.112c-0.069 0-0.126 0.056-0.126 0.126s0.056 0.126 0.126 0.126h1.112c0.069 0 0.126-0.056 0.126-0.126s-0.056-0.126-0.126-0.126z"></path>
<path fill="rgb(103, 184, 203)" d="M7.363 6.922h5.248v8.019h-5.248v-8.019z"></path>
<path fill="rgb(243, 244, 245)" d="M8.010 4.142c-0.603-0.224-1.344-0.047-1.89 0.45-0.607 0.553-0.835 1.39-0.554 2.036 0.046 0.106 0.149 0.169 0.257 0.169 0.037 0 0.075-0.008 0.112-0.023 0.142-0.062 0.207-0.227 0.145-0.369-0.187-0.429-0.015-1.004 0.417-1.398 0.392-0.357 0.909-0.49 1.317-0.339 0.145 0.054 0.307-0.020 0.36-0.165s-0.020-0.307-0.165-0.36z"></path>
<path fill="rgb(243, 244, 245)" d="M7.823 2.981c-0.853-0.317-1.907-0.064-2.685 0.645-0.864 0.788-1.191 1.975-0.795 2.888 0.046 0.106 0.149 0.169 0.257 0.169 0.037 0 0.075-0.008 0.112-0.023 0.142-0.062 0.207-0.227 0.145-0.369-0.302-0.696-0.032-1.621 0.658-2.25 0.624-0.569 1.453-0.779 2.112-0.534 0.145 0.054 0.307-0.020 0.36-0.165s-0.020-0.307-0.165-0.36z"></path>
</svg>
