<?xml version="1.0" encoding="utf-8"?>
<!-- Generated by IcoMoon.io -->
<!DOCTYPE svg PUBLIC "-//W3C//DTD SVG 1.1//EN" "http://www.w3.org/Graphics/SVG/1.1/DTD/svg11.dtd">
<svg version="1.1" xmlns="http://www.w3.org/2000/svg" xmlns:xlink="http://www.w3.org/1999/xlink" width="20" height="20" viewBox="0 0 20 20">
<path fill="rgb(72, 161, 175)" d="M10 0.31c-5.352 0-9.691 4.338-9.691 9.691s4.339 9.69 9.691 9.69c5.352 0 9.69-4.339 9.69-9.69s-4.339-9.691-9.69-9.691z"></path>
<path fill="rgb(0, 0, 0)" d="M5.914 14.104l0.003-0.479c0-0.041-0.034-0.075-0.075-0.075h-0.849c-0.042 0-0.075 0.034-0.075 0.075l0.003 0.478-0.176 0.264v0.051c0 0.041 0.034 0.032 0.075 0.032h1.194c0.041 0 0.075 0.010 0.075-0.032v-0.051l-0.175-0.262z"></path>
<path fill="rgb(0, 0, 0)" d="M5.914 14.061l0.003-0.479c0-0.042-0.034-0.075-0.075-0.075h-0.849c-0.042 0-0.075 0.033-0.075 0.075l0.003 0.478-0.176 0.307c0 0.042 0.034 0.032 0.075 0.032h1.194c0.041 0 0.075 0.009 0.075-0.032l-0.175-0.306z"></path>
<path fill="rgb(8, 9, 11)" d="M7.501 10.381h-4.166c-0.156 0-0.282 0.126-0.282 0.282v2.789c0 0.156 0.126 0.282 0.282 0.282h4.166c0.156 0 0.282-0.126 0.282-0.282v-2.789c0-0.156-0.126-0.282-0.282-0.282z"></path>
<path fill="rgb(52, 52, 51)" d="M3.255 10.567h4.316v0.015h-4.316v-0.015z"></path>
<path fill="rgb(8, 9, 11)" d="M3.334 10.381c-0.156 0-0.282 0.126-0.282 0.282v2.45h0.203v-2.542h3.394l0.133-0.19h-3.448z"></path>
<path fill="rgba(0, 0, 0, 0.30000001192092896)" d="M7.501 10.381h-0.719l-0.133 0.19h0.922v2.542h0.212v-2.45c0-0.156-0.127-0.282-0.282-0.282z"></path>
<path fill="rgb(103, 103, 103)" d="M3.255 10.571h4.316v2.961h-4.316v-2.961z"></path>
<path fill="rgba(0, 0, 0, 0.30000001192092896)" d="M6.649 10.571l-2.069 2.961h2.991v-2.961z"></path>
<path fill="rgb(0, 0, 0)" d="M15.079 14.085l0.003-0.479c0-0.041-0.034-0.075-0.075-0.075h-0.849c-0.042 0-0.075 0.034-0.075 0.075l0.003 0.478-0.176 0.264v0.051c0 0.041 0.034 0.032 0.075 0.032h1.194c0.042 0 0.075 0.010 0.075-0.032v-0.051l-0.175-0.262z"></path>
<path fill="rgb(0, 0, 0)" d="M15.079 14.042l0.003-0.479c0-0.042-0.034-0.075-0.075-0.075h-0.849c-0.042 0-0.075 0.033-0.075 0.075l0.003 0.478-0.176 0.307c0 0.042 0.034 0.032 0.075 0.032h1.194c0.042 0 0.075 0.009 0.075-0.032l-0.175-0.306z"></path>
<path fill="rgb(8, 9, 11)" d="M16.666 10.362h-4.166c-0.156 0-0.282 0.126-0.282 0.282v2.789c0 0.156 0.126 0.282 0.282 0.282h4.166c0.156 0 0.282-0.126 0.282-0.282v-2.789c0-0.156-0.126-0.282-0.282-0.282z"></path>
<path fill="rgb(52, 52, 51)" d="M12.42 10.548h4.316v0.015h-4.316v-0.015z"></path>
<path fill="rgb(8, 9, 11)" d="M12.499 10.362c-0.156 0-0.282 0.126-0.282 0.282v2.45h0.203v-2.542h3.394l0.133-0.19h-3.448z"></path>
<path fill="rgba(0, 0, 0, 0.30000001192092896)" d="M16.666 10.362h-0.719l-0.133 0.19h0.922v2.542h0.212v-2.45c0-0.156-0.126-0.282-0.282-0.282z"></path>
<path fill="rgb(103, 103, 103)" d="M12.42 10.552h4.316v2.961h-4.316v-2.961z"></path>
<path fill="rgba(0, 0, 0, 0.30000001192092896)" d="M15.814 10.552l-2.069 2.961h2.991v-2.961z"></path>
<path fill="rgb(0, 0, 0)" d="M10.497 7.25l0.003-0.479c0-0.041-0.034-0.075-0.075-0.075h-0.849c-0.042 0-0.075 0.034-0.075 0.075l0.003 0.478-0.176 0.264v0.051c0 0.041 0.034 0.032 0.075 0.032h1.194c0.042 0 0.075 0.010 0.075-0.032v-0.051l-0.175-0.262z"></path>
<path fill="rgb(0, 0, 0)" d="M10.497 7.207l0.003-0.479c0-0.042-0.034-0.075-0.075-0.075h-0.849c-0.042 0-0.075 0.033-0.075 0.075l0.003 0.478-0.176 0.307c0 0.042 0.034 0.032 0.075 0.032h1.194c0.042 0 0.075 0.009 0.075-0.032l-0.175-0.306z"></path>
<path fill="rgb(8, 9, 11)" d="M12.083 3.527h-4.166c-0.156 0-0.282 0.126-0.282 0.282v2.789c0 0.156 0.126 0.282 0.282 0.282h4.166c0.156 0 0.282-0.126 0.282-0.282v-2.789c0-0.156-0.126-0.282-0.282-0.282z"></path>
<path fill="rgb(52, 52, 51)" d="M7.838 3.713h4.316v0.015h-4.316v-0.015z"></path>
<path fill="rgb(8, 9, 11)" d="M7.917 3.527c-0.156 0-0.282 0.126-0.282 0.282v2.45h0.203v-2.542h3.394l0.133-0.19h-3.448z"></path>
<path fill="rgba(0, 0, 0, 0.30000001192092896)" d="M12.083 3.527h-0.719l-0.133 0.19h0.922v2.542h0.212v-2.45c-0-0.156-0.127-0.283-0.282-0.283z"></path>
<path fill="rgb(103, 103, 103)" d="M7.838 3.717h4.316v2.961h-4.316v-2.961z"></path>
<path fill="rgba(0, 0, 0, 0.30000001192092896)" d="M11.232 3.717l-2.069 2.961h2.991v-2.961z"></path>
<path fill="rgb(255, 255, 255)" d="M11.338 12.115h-1.061v-3.822c0-0.14-0.114-0.254-0.254-0.254s-0.254 0.114-0.254 0.254v3.822h-1.061c-0.14 0-0.254 0.114-0.254 0.254s0.114 0.254 0.254 0.254h2.63c0.14 0 0.254-0.114 0.254-0.254s-0.114-0.254-0.254-0.254z"></path>
</svg>
