<?xml version="1.0" encoding="utf-8"?>
<!-- Generated by IcoMoon.io -->
<!DOCTYPE svg PUBLIC "-//W3C//DTD SVG 1.1//EN" "http://www.w3.org/Graphics/SVG/1.1/DTD/svg11.dtd">
<svg version="1.1" xmlns="http://www.w3.org/2000/svg" xmlns:xlink="http://www.w3.org/1999/xlink" width="20" height="20" viewBox="0 0 20 20">
<path fill="rgb(74, 188, 150)" d="M10 0.31c-5.352 0-9.691 4.338-9.691 9.691s4.339 9.69 9.691 9.69c5.352 0 9.69-4.339 9.69-9.69s-4.339-9.691-9.69-9.691z"></path>
<path fill="rgb(243, 244, 245)" d="M10.934 9.111c0 0.516-0.418 0.934-0.934 0.934s-0.934-0.418-0.934-0.934c0-0.516 0.418-0.934 0.934-0.934s0.934 0.418 0.934 0.934z"></path>
<path fill="rgb(243, 244, 245)" d="M13.018 16.156l-2.679-7.204c0.001-0.048-0.009-0.096-0.030-0.141-0.036-0.080-0.102-0.14-0.184-0.171-0.037-0.014-0.075-0.021-0.114-0.021-0.004 0-0.008 0.001-0.012 0.001s-0.008-0.001-0.012-0.001c-0.039 0-0.077 0.007-0.114 0.021-0.082 0.031-0.147 0.091-0.184 0.171-0.021 0.045-0.030 0.093-0.030 0.141l-2.679 7.204c-0.031 0.082-0.027 0.171 0.009 0.251s0.102 0.14 0.184 0.171c0.037 0.014 0.075 0.021 0.114 0.021 0.136 0 0.26-0.086 0.307-0.214l2.404-6.464 2.404 6.464c0.048 0.128 0.171 0.214 0.307 0.214 0.039 0 0.077-0.007 0.114-0.021 0.082-0.031 0.147-0.091 0.184-0.171s0.040-0.169 0.009-0.251z"></path>
<path fill="rgb(243, 244, 245)" d="M10 5.369c-1 0-1.939 0.389-2.646 1.096s-1.096 1.646-1.096 2.646c-0 0.576 0.127 1.129 0.378 1.642 0.015 0.032 0.046 0.053 0.081 0.056 0.003 0 0.006 0 0.010 0 0.031 0 0.061-0.015 0.081-0.040l0.277-0.367c0.021-0.028 0.026-0.066 0.013-0.099-0.155-0.378-0.234-0.779-0.234-1.193 0-0.838 0.326-1.626 0.919-2.218s1.38-0.919 2.218-0.919c1.73 0 3.137 1.407 3.137 3.137 0 0.411-0.079 0.811-0.235 1.191-0.014 0.033-0.009 0.071 0.013 0.099l0.277 0.367c0.021 0.028 0.055 0.043 0.090 0.040s0.066-0.025 0.081-0.056c0.252-0.514 0.38-1.066 0.38-1.641-0-2.063-1.679-3.742-3.742-3.742z"></path>
<path fill="rgb(243, 244, 245)" d="M10 3.402c-1.525 0-2.959 0.594-4.037 1.672s-1.672 2.512-1.672 4.037c-0 1.214 0.374 2.371 1.082 3.346 0.019 0.026 0.049 0.041 0.081 0.042h0.001c0.032 0 0.061-0.015 0.081-0.040l0.255-0.338c0.026-0.035 0.027-0.082 0.002-0.118-0.586-0.85-0.896-1.849-0.896-2.891-0-1.363 0.531-2.645 1.495-3.609s2.246-1.495 3.609-1.495c2.815 0 5.104 2.29 5.104 5.104 0 1.037-0.311 2.035-0.898 2.888-0.025 0.036-0.024 0.083 0.003 0.118l0.255 0.338c0.019 0.026 0.051 0.041 0.082 0.040 0.032-0 0.062-0.016 0.081-0.042 0.709-0.978 1.084-2.134 1.084-3.343 0-3.148-2.561-5.71-5.71-5.71z"></path>
<path fill="rgb(243, 244, 245)" d="M9.95 6.304l0.049 0.066 0.049-0.066z"></path>
<path fill="rgb(243, 244, 245)" d="M8.805 12.281h2.354v0.656h-2.354v-0.656z"></path>
<path fill="rgb(243, 244, 245)" d="M7.863 14.535h4.238v0.656h-4.238v-0.656z"></path>
</svg>
