<?xml version="1.0" encoding="utf-8"?>
<!-- Generated by IcoMoon.io -->
<!DOCTYPE svg PUBLIC "-//W3C//DTD SVG 1.1//EN" "http://www.w3.org/Graphics/SVG/1.1/DTD/svg11.dtd">
<svg version="1.1" xmlns="http://www.w3.org/2000/svg" xmlns:xlink="http://www.w3.org/1999/xlink" width="20" height="20" viewBox="0 0 20 20">
<path fill="rgb(216, 219, 186)" d="M10 0.31c-5.352 0-9.691 4.338-9.691 9.691s4.339 9.69 9.691 9.69c5.352 0 9.69-4.339 9.69-9.69s-4.339-9.691-9.69-9.691z"></path>
<path fill="rgb(0, 0, 0)" d="M4.199 9.97l0.662 0.662c2.858-2.783 7.443-2.765 10.279 0.053l0.662-0.662c-3.201-3.183-8.38-3.201-11.602-0.053z"></path>
<path fill="rgb(0, 0, 0)" d="M2.655 8.426l0.662 0.662c3.709-3.634 9.68-3.617 13.367 0.053l0.662-0.662c-4.052-4.035-10.616-4.052-14.69-0.053z"></path>
<path fill="rgb(0, 0, 0)" d="M5.699 11.47l0.663 0.663c2.031-1.956 5.27-1.939 7.278 0.052l0.662-0.662c-2.374-2.356-6.207-2.374-8.603-0.053z"></path>
<path fill="rgb(0, 0, 0)" d="M7.199 12.971l0.662 0.662c1.203-1.129 3.097-1.112 4.279 0.052l0.662-0.662c-1.547-1.529-4.034-1.546-5.602-0.052z"></path>
<path fill="rgb(0, 0, 0)" d="M10.828 14.647c0 0.445-0.361 0.806-0.806 0.806s-0.806-0.361-0.806-0.806c0-0.445 0.361-0.806 0.806-0.806s0.806 0.361 0.806 0.806z"></path>
</svg>
