<?xml version="1.0" encoding="utf-8"?>
<!-- Generated by IcoMoon.io -->
<!DOCTYPE svg PUBLIC "-//W3C//DTD SVG 1.1//EN" "http://www.w3.org/Graphics/SVG/1.1/DTD/svg11.dtd">
<svg version="1.1" xmlns="http://www.w3.org/2000/svg" xmlns:xlink="http://www.w3.org/1999/xlink" width="20" height="20" viewBox="0 0 20 20">
<path fill="rgb(41, 76, 34)" d="M10 0.31c-5.352 0-9.691 4.338-9.691 9.691s4.339 9.69 9.691 9.69c5.352 0 9.69-4.339 9.69-9.69s-4.339-9.691-9.69-9.691z"></path>
<path fill="rgb(58, 104, 46)" d="M19.69 10.049c0-0.016 0.001-0.033 0.001-0.049 0-0.010-0-0.020-0-0.030h-0.571v-1.737h0.41c-0.005-0.026-0.010-0.053-0.015-0.079h-0.395v-1.438c-0.025-0.070-0.051-0.14-0.078-0.209v1.647h-1.738v-1.738h1.703c-0.010-0.026-0.021-0.052-0.032-0.078h-1.671v-1.738h0.744c-0.018-0.026-0.036-0.052-0.054-0.078h-0.691v-0.891c-0.026-0.030-0.052-0.059-0.078-0.088v0.979h-1.738v-1.738h0.98c-0.029-0.026-0.059-0.052-0.088-0.078h-0.892v-0.693c-0.026-0.018-0.052-0.036-0.078-0.054v0.747h-1.738v-1.676c-0.026-0.011-0.052-0.021-0.078-0.032v1.708h-1.738v-1.738h1.66c-0.069-0.027-0.138-0.053-0.207-0.078h-1.453v-0.401c-0.026-0.005-0.053-0.010-0.079-0.015v0.416h-1.738v-0.579c-0.013-0-0.025-0-0.038-0-0.014 0-0.027 0-0.041 0.001v0.579h-1.737v-0.416c-0.026 0.005-0.053 0.010-0.079 0.015v0.4h-1.449c-0.069 0.025-0.139 0.051-0.207 0.078h1.656v1.738h-1.738v-1.706c-0.026 0.010-0.052 0.021-0.078 0.032v1.674h-1.738v-0.745c-0.026 0.018-0.052 0.036-0.078 0.054v0.691h-0.888c-0.030 0.026-0.059 0.052-0.088 0.078h0.976v1.738h-1.738v-0.975c-0.026 0.029-0.052 0.058-0.078 0.088v0.887h-0.687c-0.018 0.026-0.036 0.052-0.054 0.078h0.741v1.738h-1.668c-0.011 0.026-0.021 0.052-0.032 0.078h1.699v1.738h-1.738v-1.638c-0.027 0.070-0.053 0.139-0.078 0.21v1.428h-0.391c-0.005 0.026-0.010 0.053-0.015 0.079h0.407v1.737h-0.567c-0 0.010-0 0.020-0 0.030 0 0.016 0.001 0.033 0.001 0.049h0.567v1.737h-0.403c0.005 0.026 0.010 0.053 0.015 0.079h0.388v1.409c0.025 0.070 0.051 0.14 0.078 0.21v-1.619h1.738v1.737h-1.692c0.011 0.026 0.021 0.053 0.032 0.079h1.659v1.737h-0.728c0.018 0.027 0.037 0.053 0.055 0.079h0.673v0.867c0.026 0.030 0.052 0.059 0.078 0.088v-0.955h1.738v1.738h-0.954c0.029 0.026 0.058 0.052 0.088 0.078h0.866v0.671c0.026 0.018 0.052 0.036 0.078 0.054v-0.725h1.738v1.655c0.026 0.011 0.052 0.021 0.078 0.032v-1.687h1.738v1.738h-1.605c0.070 0.027 0.141 0.053 0.211 0.078h1.394v0.381c0.026 0.005 0.053 0.010 0.079 0.015v-0.396h1.737v0.559c0.014 0 0.027 0.001 0.041 0.001 0.013 0 0.025-0 0.038-0v-0.559h1.738v0.397c0.026-0.005 0.053-0.010 0.079-0.015v-0.382h1.397c0.071-0.025 0.141-0.051 0.211-0.078h-1.609v-1.738h1.738v1.688c0.026-0.010 0.052-0.021 0.078-0.032v-1.656h1.738v0.727c0.026-0.018 0.052-0.036 0.078-0.054v-0.674h0.87c0.030-0.026 0.059-0.052 0.088-0.078h-0.958v-1.738h1.738v0.959c0.026-0.029 0.052-0.058 0.078-0.088v-0.871h0.677c0.018-0.026 0.037-0.052 0.055-0.079h-0.732v-1.737h1.663c0.011-0.026 0.022-0.053 0.032-0.079h-1.695v-1.737h1.738v1.628c0.027-0.069 0.053-0.139 0.078-0.209v-1.419h0.391c0.005-0.026 0.010-0.053 0.015-0.079h-0.406v-1.737h0.571zM2.694 11.787h-1.738v-1.737h1.738v1.737zM2.694 9.97h-1.738v-1.737h1.738v1.737zM4.51 15.419h-1.738v-1.737h1.738v1.737zM4.51 13.603h-1.738v-1.737h1.738v1.737zM4.51 11.787h-1.738v-1.737h1.738v1.737zM4.51 9.97h-1.738v-1.737h1.738v1.737zM4.51 8.154h-1.738v-1.738h1.738v1.738zM4.51 6.338h-1.738v-1.738h1.738v1.738zM6.326 17.236h-1.738v-1.738h1.738v1.738zM6.326 15.419h-1.738v-1.737h1.738v1.737zM6.326 13.603h-1.738v-1.737h1.738v1.737zM6.326 11.787h-1.738v-1.737h1.738v1.737zM6.326 9.97h-1.738v-1.737h1.738v1.737zM6.326 8.154h-1.738v-1.738h1.738v1.738zM6.326 6.338h-1.738v-1.738h1.738v1.738zM6.326 4.521h-1.738v-1.738h1.738v1.738zM8.142 17.236h-1.738v-1.738h1.738v1.738zM8.142 15.419h-1.738v-1.737h1.738v1.737zM8.142 13.603h-1.738v-1.737h1.738v1.737zM8.142 11.787h-1.738v-1.737h1.738v1.737zM8.142 9.97h-1.738v-1.737h1.738v1.737zM8.142 8.154h-1.738v-1.738h1.738v1.738zM8.142 6.338h-1.738v-1.738h1.738v1.738zM8.142 4.521h-1.738v-1.738h1.738v1.738zM9.959 19.053h-1.738v-1.738h1.738v1.738zM9.959 17.236h-1.738v-1.738h1.738v1.738zM9.959 15.419h-1.738v-1.737h1.738v1.737zM9.959 13.603h-1.738v-1.737h1.738v1.737zM9.959 11.787h-1.738v-1.737h1.738v1.737zM9.959 9.97h-1.738v-1.737h1.738v1.737zM9.959 8.154h-1.738v-1.738h1.738v1.738zM9.959 6.338h-1.738v-1.738h1.738v1.738zM9.959 4.521h-1.738v-1.738h1.738v1.738zM9.959 2.705h-1.738v-1.738h1.738v1.738zM11.775 19.053h-1.738v-1.738h1.738v1.738zM11.775 17.236h-1.738v-1.738h1.738v1.738zM11.775 15.419h-1.738v-1.737h1.738v1.737zM11.775 13.603h-1.738v-1.737h1.738v1.737zM11.775 11.787h-1.738v-1.737h1.738v1.737zM11.775 9.97h-1.738v-1.737h1.738v1.737zM11.775 8.154h-1.738v-1.738h1.738v1.738zM11.775 6.338h-1.738v-1.738h1.738v1.738zM11.775 4.521h-1.738v-1.738h1.738v1.738zM11.775 2.705h-1.738v-1.738h1.738v1.738zM13.592 17.236h-1.738v-1.738h1.738v1.738zM13.592 15.419h-1.738v-1.737h1.738v1.737zM13.592 13.603h-1.738v-1.737h1.738v1.737zM13.592 11.787h-1.738v-1.737h1.738v1.737zM13.592 9.97h-1.738v-1.737h1.738v1.737zM13.592 8.154h-1.738v-1.738h1.738v1.738zM13.592 6.338h-1.738v-1.738h1.738v1.738zM13.592 4.521h-1.738v-1.738h1.738v1.738zM15.408 17.236h-1.738v-1.738h1.738v1.738zM15.408 15.419h-1.738v-1.737h1.738v1.737zM15.408 13.603h-1.738v-1.737h1.738v1.737zM15.408 11.787h-1.738v-1.737h1.738v1.737zM15.408 9.97h-1.738v-1.737h1.738v1.737zM15.408 8.154h-1.738v-1.738h1.738v1.738zM15.408 6.338h-1.738v-1.738h1.738v1.738zM15.408 4.521h-1.738v-1.738h1.738v1.738zM17.225 15.419h-1.738v-1.737h1.738v1.737zM17.225 13.603h-1.738v-1.737h1.738v1.737zM17.225 11.787h-1.738v-1.737h1.738v1.737zM17.225 9.97h-1.738v-1.737h1.738v1.737zM17.225 8.154h-1.738v-1.738h1.738v1.738zM17.225 6.338h-1.738v-1.738h1.738v1.738zM19.041 11.787h-1.738v-1.737h1.738v1.737zM19.041 9.97h-1.738v-1.737h1.738v1.737z"></path>
<path fill="rgb(41, 76, 34)" d="M9.199 10.059c0.029 0.397 0.346 0.714 0.743 0.743v-0.743h-0.743z"></path>
<path fill="rgb(41, 76, 34)" d="M9.199 9.941h0.743v-0.743c-0.397 0.029-0.714 0.346-0.743 0.743z"></path>
<path fill="rgb(41, 76, 34)" d="M10.059 10.059v0.743c0.397-0.029 0.714-0.346 0.743-0.743h-0.743z"></path>
<path fill="rgb(41, 76, 34)" d="M10.059 9.199v0.743h0.743c-0.029-0.397-0.346-0.714-0.743-0.743z"></path>
<path fill="rgb(84, 198, 56)" d="M19.69 9.941h-1.66c-0.032-4.382-3.59-7.94-7.971-7.971v-1.66c-0.020-0-0.039-0.001-0.058-0.001s-0.039 0.001-0.059 0.001v1.66c-4.381 0.032-7.939 3.59-7.971 7.971h-1.66c-0 0.020-0.001 0.039-0.001 0.059s0.001 0.039 0.001 0.058h1.66c0.031 4.381 3.589 7.939 7.971 7.971v1.66c0.020 0 0.039 0.001 0.059 0.001s0.039-0.001 0.058-0.001v-1.66c4.382-0.031 7.94-3.59 7.971-7.971h1.66c0-0.019 0.001-0.039 0.001-0.058s-0.001-0.039-0.001-0.059zM9.941 17.912c-4.317-0.032-7.822-3.537-7.854-7.854h1.836c0.031 3.304 2.713 5.986 6.018 6.018v1.836zM9.941 15.959c-3.24-0.031-5.869-2.661-5.901-5.901h1.758c0.031 2.271 1.872 4.112 4.143 4.143v1.758zM9.941 14.084c-2.206-0.031-3.995-1.82-4.026-4.026h1.583c0.031 1.334 1.109 2.412 2.443 2.443v1.583zM9.941 12.385c-1.269-0.031-2.295-1.057-2.326-2.326h1.465c0.029 0.461 0.399 0.832 0.861 0.861v1.465zM9.941 10.801c-0.397-0.029-0.714-0.346-0.743-0.743h0.743v0.743zM9.941 9.941h-0.743c0.029-0.397 0.346-0.714 0.743-0.743v0.743zM9.941 9.081c-0.461 0.029-0.832 0.399-0.861 0.861h-1.465c0.031-1.269 1.057-2.295 2.326-2.326v1.465zM9.941 7.498c-1.334 0.031-2.412 1.109-2.443 2.443h-1.583c0.031-2.206 1.82-3.995 4.026-4.026v1.583zM9.941 5.798c-2.271 0.031-4.112 1.872-4.143 4.143h-1.758c0.032-3.24 2.661-5.869 5.901-5.901v1.758zM9.941 3.924c-3.305 0.031-5.986 2.713-6.018 6.018h-1.836c0.032-4.317 3.537-7.822 7.854-7.854v1.836zM10.059 4.041c3.24 0.031 5.869 2.661 5.901 5.901h-1.758c-0.031-2.271-1.872-4.112-4.143-4.143v-1.758zM10.059 5.916c2.206 0.031 3.995 1.82 4.026 4.026h-1.583c-0.031-1.334-1.109-2.412-2.443-2.443v-1.583zM10.059 7.615c1.269 0.031 2.295 1.057 2.326 2.326h-1.465c-0.029-0.461-0.399-0.832-0.861-0.861v-1.465zM10.059 9.199c0.397 0.029 0.714 0.346 0.743 0.743h-0.743v-0.743zM10.059 10.059h0.743c-0.029 0.397-0.346 0.714-0.743 0.743v-0.743zM10.059 10.919c0.461-0.029 0.832-0.399 0.861-0.861h1.465c-0.031 1.269-1.057 2.295-2.326 2.326v-1.465zM10.059 12.502c1.334-0.031 2.412-1.109 2.443-2.443h1.583c-0.031 2.206-1.82 3.995-4.026 4.026v-1.583zM10.059 14.202c2.271-0.031 4.112-1.872 4.143-4.143h1.758c-0.031 3.24-2.661 5.869-5.901 5.901v-1.758zM10.059 17.912v-1.836c3.305-0.031 5.987-2.713 6.018-6.018h1.836c-0.031 4.317-3.537 7.822-7.854 7.854zM16.077 9.941c-0.032-3.305-2.713-5.986-6.018-6.018v-1.836c4.317 0.031 7.822 3.537 7.854 7.854h-1.836z"></path>
<path fill="rgb(110, 237, 74)" d="M13.1 0.817l-3.122 9.222 3.59-9.045c-0.154-0.063-0.31-0.122-0.468-0.176z"></path>
<path fill="rgba(110, 237, 74, 0.6000000238418579)" d="M9.979 0.284v9.755l3.122-9.222c-0.979-0.34-2.029-0.527-3.122-0.533z"></path>
<path fill="rgb(110, 237, 74)" d="M4.842 11.934c0 0.28-0.227 0.508-0.508 0.508s-0.508-0.227-0.508-0.508c0-0.28 0.227-0.508 0.508-0.508s0.508 0.227 0.508 0.508z"></path>
<path fill="rgb(110, 237, 74)" d="M15.428 13.496c0 0.28-0.227 0.508-0.508 0.508s-0.508-0.227-0.508-0.508c0-0.28 0.227-0.508 0.508-0.508s0.508 0.227 0.508 0.508z"></path>
</svg>
