<?xml version="1.0" encoding="utf-8"?>
<!-- Generated by IcoMoon.io -->
<!DOCTYPE svg PUBLIC "-//W3C//DTD SVG 1.1//EN" "http://www.w3.org/Graphics/SVG/1.1/DTD/svg11.dtd">
<svg version="1.1" xmlns="http://www.w3.org/2000/svg" xmlns:xlink="http://www.w3.org/1999/xlink" width="20" height="20" viewBox="0 0 20 20">
<path fill="rgb(51, 113, 128)" d="M10 0.31c-5.352 0-9.691 4.338-9.691 9.691s4.339 9.69 9.691 9.69c5.352 0 9.69-4.339 9.69-9.69s-4.339-9.691-9.69-9.691z"></path>
<path fill="rgb(163, 213, 224)" d="M16.702 10.455c0.913-0.311 1.907-0.519 2.987-0.618-0.003-0.174-0.010-0.348-0.022-0.52-1.151 0.103-2.172 0.324-3.076 0.631-0.244-1.044-0.561-1.975-0.924-2.805 0.959-0.4 1.958-0.893 2.993-1.495-0.078-0.155-0.16-0.308-0.246-0.458-1.027 0.598-2.016 1.085-2.964 1.479-0.712-1.483-1.568-2.618-2.395-3.471-0.25-0.257-0.502-0.495-0.753-0.714 0.942-0.261 1.947-0.457 3.014-0.587-0.232-0.152-0.47-0.295-0.715-0.428-0.84 0.127-1.624 0.295-2.357 0.498 0.175-0.5 0.351-0.929 0.499-1.263-0.17-0.050-0.342-0.096-0.515-0.137-0.167 0.375-0.361 0.851-0.549 1.406-1.043-0.8-2.034-1.301-2.771-1.602-0.359 0.040-0.711 0.1-1.057 0.178 0.569 0.17 1.91 0.649 3.371 1.733-1.97 0.676-3.521 1.616-4.742 2.666-0.757-1.491-1.573-2.524-1.941-2.955-0.144 0.098-0.285 0.201-0.423 0.306 0.34 0.397 1.192 1.466 1.961 3.008-0.741 0.693-1.348 1.426-1.846 2.157-1.359-0.444-2.393-1.022-3.061-1.464-0.073 0.162-0.142 0.326-0.206 0.492 0.675 0.44 1.674 0.987 2.974 1.424-0.303 0.487-0.561 0.97-0.778 1.436-0.275 0.592-0.498 1.176-0.678 1.739-1.037-1.659-1.574-3.158-1.782-3.821-0.091 0.309-0.166 0.625-0.226 0.946 0.332 0.883 0.903 2.167 1.812 3.533-0.367 1.341-0.5 2.518-0.545 3.32 0.156 0.253 0.323 0.499 0.501 0.737 0.001-0.587 0.055-1.898 0.439-3.489 0.165 0.228 0.339 0.457 0.524 0.686 0.83 1.027 1.929 2.115 3.345 3.041-0.346 0.809-0.782 1.609-1.307 2.399 0.151 0.085 0.305 0.167 0.461 0.244 0.528-0.802 0.95-1.594 1.283-2.369 0.82 0.493 1.738 0.929 2.765 1.271-0.227 0.873-0.326 1.61-0.369 2.081 0.173 0.011 0.347 0.017 0.522 0.019 0.043-0.445 0.137-1.133 0.346-1.943 1.321 0.386 2.81 0.616 4.485 0.616 0.055 0 0.11-0.001 0.165-0.001 0.286-0.168 0.563-0.35 0.829-0.546-1.927 0.105-3.71-0.081-5.345-0.553 0.183-0.612 0.429-1.274 0.764-1.941 0.528-1.052 1.185-1.955 1.964-2.71 0.896 1.015 2.060 1.881 3.483 2.595-0.009 0.645-0.041 1.305-0.098 1.981 0.195-0.176 0.382-0.361 0.562-0.552 0.026-0.403 0.043-0.797 0.052-1.181 0.223 0.102 0.452 0.2 0.687 0.295 0.106-0.143 0.207-0.289 0.305-0.438-0.34-0.136-0.667-0.279-0.983-0.429 0.003-1.655-0.154-3.124-0.42-4.429zM11.957 2.873c0.242 0.211 0.485 0.439 0.725 0.686 0.925 0.953 1.688 2.058 2.288 3.302-1.228 0.477-2.385 0.798-3.464 0.998-0.245-1.803 0.049-3.574 0.451-4.986zM11.437 2.747c-0.418 1.465-0.716 3.305-0.448 5.201-1.216 0.187-2.326 0.224-3.32 0.164-0.097-0.392-0.207-0.765-0.325-1.114-0.192-0.569-0.41-1.099-0.639-1.588 1.311-1.158 2.891-2.047 4.732-2.663zM6.303 5.782c0.196 0.431 0.383 0.892 0.549 1.382 0.102 0.302 0.192 0.604 0.271 0.905-0.692-0.068-1.322-0.181-1.884-0.317-0.169-0.041-0.334-0.085-0.496-0.131 0.463-0.67 0.983-1.283 1.559-1.84zM6.741 15.571c-1.145-0.767-2.186-1.727-3.12-2.878-0.278-0.343-0.533-0.689-0.767-1.031 0.195-0.676 0.45-1.389 0.786-2.108 0.242-0.518 0.511-1.010 0.805-1.477 0.207 0.061 0.421 0.119 0.642 0.173 0.64 0.156 1.364 0.283 2.166 0.352 0.527 2.375 0.355 4.706-0.513 6.969zM10.676 15.106c-0.346 0.692-0.601 1.373-0.79 2.002-0.956-0.317-1.86-0.736-2.709-1.256 1.049-2.708 1.024-5.196 0.61-7.213 0.251 0.013 0.507 0.021 0.772 0.021 0.781 0 1.621-0.059 2.515-0.197 0.091 0.466 0.218 0.934 0.389 1.398 0.315 0.855 0.757 1.644 1.324 2.363-0.967 0.924-1.644 1.946-2.112 2.883zM13.176 11.871c-0.523-0.669-0.932-1.398-1.224-2.188-0.16-0.433-0.279-0.871-0.364-1.309 1.121-0.207 2.323-0.541 3.598-1.039 0.38 0.869 0.684 1.801 0.912 2.793-1.172 0.459-2.134 1.066-2.923 1.742zM13.498 12.258c0.789-0.681 1.693-1.222 2.709-1.624 0.248 1.244 0.379 2.575 0.392 3.988-1.26-0.662-2.295-1.451-3.1-2.364z"></path>
<path fill="rgb(186, 235, 244)" d="M16.386 9.528c-0.418 0-0.758 0.339-0.758 0.758s0.339 0.758 0.758 0.758c0.419 0 0.758-0.339 0.758-0.758s-0.339-0.758-0.758-0.758z"></path>
<path fill="rgb(186, 235, 244)" d="M13.117 11.433c-0.419 0-0.758 0.339-0.758 0.758s0.339 0.758 0.758 0.758c0.418 0 0.758-0.339 0.758-0.758s-0.339-0.758-0.758-0.758z"></path>
<path fill="rgb(186, 235, 244)" d="M10.042 16.716c-0.419 0-0.758 0.339-0.758 0.758s0.339 0.758 0.758 0.758 0.758-0.339 0.758-0.758c0-0.419-0.339-0.758-0.758-0.758z"></path>
<path fill="rgb(186, 235, 244)" d="M6.86 15.157c-0.418 0-0.758 0.339-0.758 0.758s0.339 0.758 0.758 0.758c0.418 0 0.758-0.339 0.758-0.758s-0.339-0.758-0.758-0.758z"></path>
<path fill="rgb(186, 235, 244)" d="M2.551 10.935c-0.419 0-0.758 0.339-0.758 0.758s0.339 0.758 0.758 0.758c0.418 0 0.758-0.339 0.758-0.758s-0.339-0.758-0.758-0.758z"></path>
<path fill="rgb(186, 235, 244)" d="M4.348 6.995c-0.418 0-0.758 0.339-0.758 0.758s0.339 0.758 0.758 0.758c0.419 0 0.758-0.339 0.758-0.758s-0.339-0.758-0.758-0.758z"></path>
<path fill="rgb(186, 235, 244)" d="M7.509 7.622c-0.418 0-0.758 0.339-0.758 0.758s0.339 0.758 0.758 0.758c0.418 0 0.758-0.339 0.758-0.758s-0.339-0.758-0.758-0.758z"></path>
<path fill="rgb(186, 235, 244)" d="M6.362 4.548c-0.419 0-0.758 0.339-0.758 0.758s0.339 0.758 0.758 0.758c0.418 0 0.758-0.339 0.758-0.758s-0.339-0.758-0.758-0.758z"></path>
<path fill="rgb(186, 235, 244)" d="M11.839 1.344c-0.526 0-0.953 0.426-0.953 0.953s0.427 0.953 0.953 0.953c0.526 0 0.953-0.426 0.953-0.953s-0.427-0.953-0.953-0.953z"></path>
<path fill="rgb(186, 235, 244)" d="M11.276 7.449c-0.419 0-0.758 0.339-0.758 0.758s0.339 0.758 0.758 0.758 0.758-0.339 0.758-0.758c0-0.419-0.339-0.758-0.758-0.758z"></path>
<path fill="rgb(186, 235, 244)" d="M15.369 6.237c-0.418 0-0.758 0.339-0.758 0.758s0.339 0.758 0.758 0.758c0.419 0 0.758-0.339 0.758-0.758s-0.339-0.758-0.758-0.758z"></path>
<path fill="rgb(186, 235, 244)" d="M16.841 14.204c-0.418 0-0.758 0.339-0.758 0.758s0.339 0.758 0.758 0.758c0.419 0 0.758-0.339 0.758-0.758s-0.339-0.758-0.758-0.758z"></path>
</svg>
