<?xml version="1.0" encoding="utf-8"?>
<!-- Generated by IcoMoon.io -->
<!DOCTYPE svg PUBLIC "-//W3C//DTD SVG 1.1//EN" "http://www.w3.org/Graphics/SVG/1.1/DTD/svg11.dtd">
<svg version="1.1" xmlns="http://www.w3.org/2000/svg" xmlns:xlink="http://www.w3.org/1999/xlink" width="20" height="20" viewBox="0 0 20 20">
<path fill="rgb(74, 188, 150)" d="M10 0.31c-5.352 0-9.691 4.338-9.691 9.691s4.339 9.69 9.691 9.69c5.352 0 9.69-4.339 9.69-9.69s-4.339-9.691-9.69-9.691z"></path>
<path fill="rgb(63, 63, 63)" d="M13.49 7.186c-0.245 0-0.445 0.199-0.445 0.445v4.714c0 0.245 0.199 0.445 0.445 0.445s0.445-0.199 0.445-0.445v-4.714c0-0.245-0.199-0.445-0.445-0.445z"></path>
<path fill="rgb(232, 232, 232)" d="M13.727 11.638h-8.879c-0.527 0-0.955 0.427-0.955 0.955v1.393c0 0.527 0.427 0.955 0.955 0.955h8.879c0.527 0 0.955-0.427 0.955-0.955v-1.393c0-0.527-0.427-0.955-0.955-0.955z"></path>
<path fill="rgb(226, 226, 226)" d="M13.727 11.638h-6.066l3.302 3.302h2.764c0.527 0 0.955-0.427 0.955-0.955v-1.393c0-0.527-0.427-0.955-0.955-0.955z"></path>
<path fill="rgb(243, 244, 245)" d="M15.245 6.665c-0.288-0.603-0.98-1.015-1.764-1.048-0.872-0.036-1.67 0.411-1.941 1.089-0.052 0.131 0.011 0.279 0.142 0.332 0.031 0.012 0.063 0.018 0.095 0.018 0.101 0 0.197-0.061 0.237-0.161 0.192-0.48 0.787-0.797 1.446-0.769 0.597 0.025 1.117 0.323 1.325 0.758 0.061 0.127 0.213 0.181 0.34 0.121s0.181-0.213 0.12-0.34z"></path>
<path fill="rgb(243, 244, 245)" d="M16.082 5.856c-0.41-0.861-1.403-1.448-2.53-1.496-1.252-0.053-2.395 0.584-2.781 1.55-0.052 0.131 0.011 0.279 0.142 0.332 0.031 0.012 0.063 0.018 0.094 0.018 0.101 0 0.197-0.061 0.237-0.161 0.306-0.768 1.246-1.273 2.285-1.229 0.94 0.040 1.76 0.513 2.091 1.205 0.061 0.127 0.213 0.181 0.34 0.12s0.181-0.213 0.121-0.34z"></path>
<path fill="rgb(89, 89, 89)" d="M4.031 14.479c0.167 0.276 0.471 0.461 0.817 0.461h8.879c0.346 0 0.65-0.185 0.817-0.461h-10.513z"></path>
<path fill="rgb(89, 89, 89)" d="M13.727 11.641h-8.879c-0.346 0-0.65 0.185-0.817 0.461h10.513c-0.167-0.276-0.471-0.461-0.817-0.461z"></path>
<path fill="rgb(193, 221, 244)" d="M4.844 13.199h-0.482c-0.029 0-0.052 0.023-0.052 0.052v0.076c0 0.029 0.023 0.052 0.052 0.052h0.482c0.029 0 0.052-0.023 0.052-0.052v-0.076c0-0.029-0.023-0.052-0.052-0.052z"></path>
<path fill="rgb(193, 221, 244)" d="M5.912 13.199h-0.482c-0.029 0-0.052 0.023-0.052 0.052v0.076c0 0.029 0.023 0.052 0.052 0.052h0.482c0.029 0 0.052-0.023 0.052-0.052v-0.076c0-0.029-0.023-0.052-0.052-0.052z"></path>
<path fill="rgb(193, 221, 244)" d="M6.979 13.199h-0.482c-0.029 0-0.052 0.023-0.052 0.052v0.076c0 0.029 0.023 0.052 0.052 0.052h0.482c0.029 0 0.052-0.023 0.052-0.052v-0.076c0-0.029-0.023-0.052-0.052-0.052z"></path>
<path fill="rgb(193, 221, 244)" d="M8.047 13.199h-0.482c-0.029 0-0.052 0.023-0.052 0.052v0.076c0 0.029 0.023 0.052 0.052 0.052h0.482c0.029 0 0.052-0.023 0.052-0.052v-0.076c0-0.029-0.023-0.052-0.052-0.052z"></path>
<path fill="rgb(193, 221, 244)" d="M9.115 13.199h-0.482c-0.029 0-0.052 0.023-0.052 0.052v0.076c0 0.029 0.023 0.052 0.052 0.052h0.482c0.029 0 0.052-0.023 0.052-0.052v-0.076c0-0.029-0.023-0.052-0.052-0.052z"></path>
<path fill="rgb(175, 209, 232)" d="M10.183 13.199h-0.482c-0.029 0-0.052 0.023-0.052 0.052v0.076c0 0.029 0.023 0.052 0.052 0.052h0.482c0.029 0 0.052-0.023 0.052-0.052v-0.076c0-0.029-0.023-0.052-0.052-0.052z"></path>
<path fill="rgb(72, 73, 73)" d="M10.483 14.479l0.461 0.461h2.783c0.346 0 0.65-0.185 0.817-0.461h-4.061z"></path>
<path fill="rgb(72, 73, 73)" d="M13.727 11.641h-6.083l0.461 0.461h6.439c-0.167-0.276-0.471-0.461-0.817-0.461z"></path>
<path fill="rgb(43, 193, 111)" d="M11.521 13.281c0 0.173-0.14 0.313-0.313 0.313s-0.313-0.14-0.313-0.313c0-0.173 0.14-0.313 0.313-0.313s0.313 0.14 0.313 0.313z"></path>
<path fill="rgb(224, 205, 30)" d="M12.732 13.281c0 0.173-0.14 0.313-0.313 0.313s-0.313-0.14-0.313-0.313c0-0.173 0.14-0.313 0.313-0.313s0.313 0.14 0.313 0.313z"></path>
<path fill="rgb(216, 72, 72)" d="M13.943 13.281c0 0.173-0.14 0.313-0.313 0.313s-0.313-0.14-0.313-0.313c0-0.173 0.14-0.313 0.313-0.313s0.313 0.14 0.313 0.313z"></path>
</svg>
