<?xml version="1.0" encoding="utf-8"?>
<!-- Generated by IcoMoon.io -->
<!DOCTYPE svg PUBLIC "-//W3C//DTD SVG 1.1//EN" "http://www.w3.org/Graphics/SVG/1.1/DTD/svg11.dtd">
<svg version="1.1" xmlns="http://www.w3.org/2000/svg" xmlns:xlink="http://www.w3.org/1999/xlink" width="20" height="20" viewBox="0 0 20 20">
<path fill="rgb(109, 180, 191)" d="M10 0.31c-5.352 0-9.691 4.338-9.691 9.691s4.339 9.69 9.691 9.69c5.352 0 9.69-4.339 9.69-9.69s-4.339-9.691-9.69-9.691z"></path>
<path fill="rgb(107, 130, 143)" d="M15.551 14.144c-0.033-0.047-0.829-1.166-1.879-2.303-1.506-1.63-2.711-2.423-3.685-2.423s-2.176 0.793-3.673 2.424c-1.044 1.137-1.834 2.257-1.867 2.304-0.127 0.18-0.131 0.419-0.011 0.604 0.101 0.155 0.272 0.245 0.452 0.245 0.035 0 0.069-0.003 0.104-0.010 0.026-0.005 2.651-0.517 4.979-0.517 2.329 0 5.010 0.512 5.037 0.517 0.216 0.042 0.436-0.052 0.556-0.237s0.114-0.424-0.013-0.604z"></path>
<path fill="rgb(204, 208, 211)" d="M14.021 9.026c0 2.221-1.8 4.021-4.021 4.021s-4.021-1.8-4.021-4.021c0-2.221 1.8-4.021 4.021-4.021s4.021 1.8 4.021 4.021z"></path>
<path fill="rgb(122, 122, 122)" d="M11.716 9.026c0 0.948-0.768 1.716-1.716 1.716s-1.716-0.768-1.716-1.716c0-0.948 0.768-1.716 1.716-1.716s1.716 0.768 1.716 1.716z"></path>
<path fill="rgb(99, 99, 99)" d="M11.177 9.026c0 0.65-0.527 1.177-1.177 1.177s-1.177-0.527-1.177-1.177c0-0.65 0.527-1.177 1.177-1.177s1.177 0.527 1.177 1.177z"></path>
<path fill="rgb(84, 84, 84)" d="M10.948 9.026c0 0.524-0.424 0.948-0.948 0.948s-0.948-0.424-0.948-0.948c0-0.524 0.424-0.948 0.948-0.948s0.948 0.424 0.948 0.948z"></path>
<path fill="rgb(130, 130, 130)" d="M10.196 8.306c-0.185-0.185-0.54-0.13-0.793 0.123s-0.308 0.608-0.123 0.793c0.185 0.185 1.101-0.73 0.915-0.915z"></path>
<path fill="rgb(183, 183, 183)" d="M10 5.005c-0.525 0-1.026 0.101-1.485 0.283 0.048 0.762 0.694 1.365 1.485 1.365s1.437-0.604 1.485-1.365c-0.459-0.183-0.96-0.283-1.485-0.283z"></path>
<path fill="rgb(140, 140, 140)" d="M10.407 5.768c0 0.141-0.184 0.256-0.41 0.256s-0.41-0.115-0.41-0.256c0-0.141 0.184-0.256 0.41-0.256s0.41 0.115 0.41 0.256z"></path>
<path fill="rgb(124, 124, 124)" d="M10.346 5.768c0 0.12-0.156 0.218-0.349 0.218s-0.349-0.097-0.349-0.218c0-0.12 0.156-0.218 0.349-0.218s0.349 0.097 0.349 0.218z"></path>
</svg>
