<?xml version="1.0" encoding="utf-8"?>
<!-- Generator: Adobe Illustrator 16.0.0, SVG Export Plug-In . SVG Version: 6.00 Build 0)  -->
<!DOCTYPE svg PUBLIC "-//W3C//DTD SVG 1.1//EN" "http://www.w3.org/Graphics/SVG/1.1/DTD/svg11.dtd">
<svg version="1.1" id="Layer_1" xmlns="http://www.w3.org/2000/svg" xmlns:xlink="http://www.w3.org/1999/xlink" x="0px" y="0px"
	 width="20px" height="20px" viewBox="0 0 20 20" enable-background="new 0 0 20 20" xml:space="preserve">
<g>
	<path fill="#29C183" d="M10,0.31c-5.352,0-9.69,4.339-9.69,9.69s4.339,9.69,9.69,9.69c5.351,0,9.689-4.339,9.689-9.69
		C19.689,4.647,15.352,0.31,10,0.31z"/>
	<path fill="#474747" d="M5.609,9.982c-0.929,0-1.683,0.754-1.683,1.684c0,0.929,0.753,1.683,1.683,1.683s1.683-0.754,1.683-1.683
		C7.292,10.736,6.539,9.982,5.609,9.982z"/>
	<path fill="#E5C438" d="M6.54,11.666c0,0.514-0.417,0.93-0.931,0.93s-0.931-0.416-0.931-0.93c0-0.515,0.417-0.931,0.931-0.931
		S6.54,11.151,6.54,11.666z"/>
	<path fill="#CEAE25" d="M6.058,11.666c0,0.247-0.201,0.448-0.448,0.448c-0.248,0-0.449-0.201-0.449-0.448
		c0-0.248,0.201-0.449,0.449-0.449C5.857,11.217,6.058,11.418,6.058,11.666z"/>
	<path fill="#C4C4C4" d="M15.758,7.631l-3.119,3.356l-7.187,0.591l0.029,0.26l7.324-0.606l3.109-3.339h1.623V7.631H15.758z"/>
	<path fill="#C4C4C4" d="M9.272,11.267l0.081,0.176c0.01,0.021,0.079,0.133,1.036,1.685c0.25,0.403,0.621,0.635,1.021,0.635h0.002
		c0.58,0,0.975-0.471,1.102-1.123c0.244-1.24,0.322-1.536,0.322-1.543l0.006-0.153L9.272,11.267L9.272,11.267z M12.242,12.611
		c-0.119,0.505-0.396,0.877-0.83,0.877l0,0c-0.305,0-0.592-0.184-0.789-0.505c-0.646-1.047-0.794-1.22-0.932-1.48l2.866-0.261
		C12.543,11.508,12.445,11.75,12.242,12.611L12.242,12.611z"/>
	<path fill="#C4C4C4" d="M5.751,8.552L5.418,8.64l0.033,2.938l0.358-0.044L5.751,8.552z"/>
	<path fill="#E5C438" d="M17.461,7.571l-1.115-0.093c-0.141,0-0.254,0.113-0.254,0.254c0,0.14,0.113,0.253,0.254,0.253l1.115-0.093
		c0.141,0,0.254-0.072,0.254-0.16C17.715,7.644,17.602,7.571,17.461,7.571z"/>
	<path fill="#C4C4C4" d="M13.225,8.052l0.213-0.218L14.627,9l-0.213,0.217L13.225,8.052z"/>
	<path fill="#E8D689" d="M10.447,6.457c-0.925,0-2.415,1.438-2.415,1.438h4.726C12.758,7.896,11.371,6.457,10.447,6.457z"/>
	<path fill="#EFE5B9" d="M7.211,6.77c-0.703,0-1.836,1.094-1.836,1.094h3.594C8.969,7.863,7.915,6.77,7.211,6.77z"/>
	<path fill="#E5C438" d="M13.457,7.809c-0.049-0.079-0.133-0.127-0.225-0.127H4.614c-0.113,0-0.214,0.072-0.249,0.18
		s0.003,0.226,0.094,0.292l4.375,3.088c0.046,0.033,0.1,0.051,0.155,0.051c0.01,0,0.021,0,0.03-0.001l3.526-0.288
		c0.086-0.01,0.162-0.062,0.201-0.137l0.717-2.8C13.506,7.985,13.504,7.887,13.457,7.809z"/>
</g>
</svg>
