<?xml version="1.0" encoding="utf-8"?>
<!-- Generator: Adobe Illustrator 16.0.0, SVG Export Plug-In . SVG Version: 6.00 Build 0)  -->
<!DOCTYPE svg PUBLIC "-//W3C//DTD SVG 1.1//EN" "http://www.w3.org/Graphics/SVG/1.1/DTD/svg11.dtd">
<svg version="1.1" id="Layer_1" xmlns="http://www.w3.org/2000/svg" xmlns:xlink="http://www.w3.org/1999/xlink" x="0px" y="0px"
	 width="20px" height="20px" viewBox="0 0 20 20" enable-background="new 0 0 20 20" xml:space="preserve">
<g>
	<path fill="#337180" d="M10,0.31C4.648,0.31,0.31,4.647,0.31,10c0,5.352,4.339,9.69,9.689,9.69c5.352,0,9.69-4.339,9.69-9.69
		C19.689,4.647,15.352,0.31,10,0.31z"/>
	<path fill="#F7B034" d="M16.184,8.625L5.388,9.352c0,0-2.536,2.339-1.736,3.356c0.774,0.985,2.253,2.347,5.069,1.689
		c0,0,4.898-1.596,6.304-2.535C15.025,11.862,18.297,10.596,16.184,8.625L16.184,8.625z"/>
	<path fill="#EAA607" d="M16.184,8.625c-0.516-5.305-5.633-4.741-5.633-4.741c-5.538,0.657-5.318,5.93-5.069,6.29
		c0.782,1.126,3.046,1.771,4.193,2.128c2.315,0.719,4.192-0.407,4.192-0.407C16.965,10.768,16.184,8.625,16.184,8.625z"/>
	<path fill="#F9B121" d="M14.244,4.854c0,0-0.564-0.908-1.502-0.971C9.949,3.698,6.249,5.738,5.655,10.4
		c0,0,0.524,0.524,1.213,0.868c0.775,0.389,2.018,0.774,2.018,0.774S7.079,5.386,14.244,4.854L14.244,4.854z"/>
	<path fill="#FFC364" d="M12.742,3.884C9.949,3.698,6.25,5.738,5.655,10.4c0,0,0.524,0.524,1.213,0.868c0,0-0.009-3.255,1.869-5.038
		c1.847-1.752,4.996-1.935,4.996-1.935C13.482,4.096,13.148,3.911,12.742,3.884L12.742,3.884z"/>
</g>
</svg>
