<?xml version="1.0" encoding="utf-8"?>
<!-- Generator: Adobe Illustrator 16.0.0, SVG Export Plug-In . SVG Version: 6.00 Build 0)  -->
<!DOCTYPE svg PUBLIC "-//W3C//DTD SVG 1.1//EN" "http://www.w3.org/Graphics/SVG/1.1/DTD/svg11.dtd">
<svg version="1.1" id="Layer_1" xmlns="http://www.w3.org/2000/svg" xmlns:xlink="http://www.w3.org/1999/xlink" x="0px" y="0px"
	 width="20px" height="20px" viewBox="0 0 20 20" enable-background="new 0 0 20 20" xml:space="preserve">
<g>
	<path fill="#29C183" d="M10,0.31C4.648,0.31,0.31,4.647,0.31,10c0,5.352,4.339,9.69,9.689,9.69c5.352,0,9.69-4.339,9.69-9.69
		C19.689,4.647,15.352,0.31,10,0.31z"/>
	<path fill="#348891" d="M13.457,4.243l-5.471,1.71L3.73,4.813v9.803l4.408,1.14l5.319-1.709l2.812,0.569V4.813L13.457,4.243z"/>
	<path fill="#A3D5E0" d="M13.184,4.813v8.685l2.59,0.525V5.338L13.184,4.813z"/>
	<path fill="#85C0C9" d="M8.146,6.388l0.14,8.685l4.898-1.574V4.813L8.146,6.388z"/>
	<path fill="#A3D5E0" d="M8.146,6.388l-3.919-1.05v8.686l4.059,1.049L8.146,6.388z"/>
	<path fill="#FFFFFF" d="M13.162,5.973l-1.859,0.483v1.812L9.614,8.895V6.771l-1.47,0.552L5.111,6.307v5.863l3.104,1.067
		l2.573-0.979v1.229l2.439-0.919l1.803,0.405V6.421L13.162,5.973z M14.17,11.899l-1.006-0.227l-1.518,0.571V11.01L8.2,12.323
		l-2.229-0.768V7.501L8.16,8.234l0.594-0.223v2.118l3.409-1.265V7.121l1.008-0.262l1,0.239V11.899L14.17,11.899z"/>
	<path fill="#D0D7D8" d="M13.162,5.973l-1.859,0.483v1.811L9.614,8.894V6.771L8.161,7.315l0.015,0.913l0.578-0.217v2.118
		l3.409-1.265V7.121l1.008-0.262l1,0.239v4.8l-1.006-0.226l-1.518,0.571v-1.235l-3.406,1.298l0.015,0.915l2.532-0.964v1.229
		l2.439-0.919l1.803,0.405V6.421L13.162,5.973z"/>
	<path fill="#FFFFFF" d="M8.241,12.307L8.2,12.322l-2.229-0.767V7.501l2.189,0.733l0.015-0.006L8.161,7.315L8.144,7.321L5.111,6.306
		v5.864l3.104,1.067l0.041-0.016L8.241,12.307z"/>
	<path fill="#FFFFFF" d="M13.184,5.979v0.884L14.17,7.1v4.8l-0.986-0.222v0.907l0.043-0.017l1.803,0.405V6.421L13.184,5.979z"/>
</g>
</svg>
