<?xml version="1.0" encoding="utf-8"?>
<!-- Generator: Adobe Illustrator 16.0.0, SVG Export Plug-In . SVG Version: 6.00 Build 0)  -->
<!DOCTYPE svg PUBLIC "-//W3C//DTD SVG 1.1//EN" "http://www.w3.org/Graphics/SVG/1.1/DTD/svg11.dtd">
<svg version="1.1" id="Layer_1" xmlns="http://www.w3.org/2000/svg" xmlns:xlink="http://www.w3.org/1999/xlink" x="0px" y="0px"
	 width="20px" height="20px" viewBox="0 0 20 20" enable-background="new 0 0 20 20" xml:space="preserve">
<g>
	<path fill="#337180" d="M10,0.31C4.648,0.31,0.31,4.647,0.31,10c0,5.352,4.339,9.69,9.689,9.69c5.352,0,9.69-4.339,9.69-9.69
		C19.689,4.647,15.352,0.31,10,0.31z"/>
	<path fill="#525357" d="M3.588,10.359l11.33-6.683L15,3.815L3.669,10.497L3.588,10.359z"/>
	<path fill="#EAA803" d="M15.57,3.599c-0.096-0.097-0.223-0.149-0.359-0.149c-0.135,0-0.264,0.053-0.359,0.149l-6.843,6.843
		c-0.097,0.096-0.149,0.225-0.149,0.359c0,0.136,0.053,0.265,0.149,0.36c0.096,0.096,0.224,0.149,0.359,0.149
		s0.264-0.054,0.359-0.149l6.843-6.844c0.098-0.096,0.15-0.224,0.15-0.359C15.721,3.821,15.668,3.693,15.57,3.599L15.57,3.599z
		 M15.457,4.204l-6.843,6.843c-0.065,0.066-0.153,0.103-0.246,0.103s-0.181-0.036-0.246-0.103c-0.065-0.065-0.102-0.153-0.102-0.246
		s0.036-0.181,0.102-0.246l6.843-6.844c0.066-0.065,0.152-0.102,0.246-0.102s0.18,0.036,0.246,0.102
		c0.066,0.066,0.102,0.153,0.102,0.247C15.559,4.051,15.523,4.138,15.457,4.204L15.457,4.204z"/>
	<path fill="#EAA803" d="M15.473,4.343l-0.025-0.104l-0.664,0.148l0.148-0.664l-0.104-0.023l-0.16,0.714l-0.672,0.15l-0.027-0.006
		l-0.002,0.012l-0.014,0.003l0.006,0.026l-0.15,0.673l-0.693,0.155l-0.012-0.003L13.102,5.43l-0.006,0.002l0.002,0.013l-0.154,0.693
		L12.25,6.293L12.236,6.29l-0.002,0.007l-0.006,0.001l0.004,0.013l-0.156,0.694l-0.699,0.156l-0.01-0.002v0.004l-0.004,0.001
		l0.002,0.009l-0.156,0.7l-0.674,0.15L10.51,8.018L10.506,8.03l-0.012,0.003L10.5,8.06l-0.15,0.673L9.656,8.888L9.643,8.885
		L9.641,8.891L9.635,8.892l0.003,0.013L9.483,9.599L8.789,9.754L8.776,9.751L8.775,9.757L8.769,9.758l0.003,0.014l-0.155,0.693
		l-0.714,0.16l0.023,0.104l0.665-0.149l-0.149,0.665l0.104,0.023l0.16-0.714l0.694-0.155l0.013,0.003l0.001-0.006l0.006-0.001
		l-0.003-0.013l0.155-0.694l0.693-0.155l0.014,0.003l0.001-0.006l0.006-0.001l-0.003-0.014l0.155-0.693l0.672-0.15l0.027,0.006
		l0.002-0.013l0.014-0.003l-0.008-0.026l0.15-0.673l0.701-0.156l0.01,0.002V7.805l0.004-0.001L12.01,7.795l0.156-0.7l0.695-0.155
		l0.012,0.002l0.002-0.006l0.006-0.001l-0.004-0.013l0.156-0.694l0.693-0.155l0.014,0.003V6.069l0.006-0.002l-0.002-0.013
		l0.154-0.694l0.674-0.149l0.025,0.006l0.004-0.013l0.012-0.003l-0.006-0.026l0.15-0.673L15.473,4.343L15.473,4.343z M9.324,10.307
		l-0.592,0.133l0.133-0.593l0.592-0.133L9.324,10.307L9.324,10.307z M10.191,9.44L9.598,9.572L9.731,8.98l0.593-0.133L10.191,9.44z
		 M11.051,8.575l-0.586,0.131l0.131-0.586l0.586-0.131L11.051,8.575z M11.918,7.715l-0.596,0.133l0.133-0.595l0.596-0.133
		L11.918,7.715z M12.785,6.847l-0.594,0.132l0.133-0.593l0.592-0.132L12.785,6.847z M13.65,5.979l-0.592,0.133l0.133-0.593
		l0.592-0.133l-0.131,0.593H13.65z M14.512,5.114l-0.586,0.132l0.129-0.587l0.588-0.131L14.512,5.114z"/>
	<path fill="#525357" d="M15.553,3.96c0,0.189-0.154,0.344-0.344,0.344S14.865,4.15,14.865,3.96c0-0.189,0.154-0.344,0.344-0.344
		S15.553,3.77,15.553,3.96z"/>
	<path fill="#525357" d="M15.334,4.094h0.16v6.071h-0.16V4.094z"/>
	<path fill="#D1D3D3" d="M15.412,8.821c-0.201,0-0.365,0.163-0.365,0.365l0.184,1.806l0.365-0.098l0.184-1.708
		c0-0.202-0.164-0.365-0.365-0.365H15.412z"/>
	<path fill="#FCFCFC" d="M15.568,9.172c0,0.092-0.074,0.166-0.166,0.166c-0.094,0-0.168-0.074-0.168-0.166
		c0-0.093,0.074-0.167,0.168-0.167C15.494,9.005,15.568,9.079,15.568,9.172z"/>
	<path fill="#EFEFEF" d="M15.412,9.433c-0.33,0-0.6,0.269-0.6,0.601s0.27,0.601,0.6,0.601c0.332,0,0.602-0.269,0.602-0.601
		S15.744,9.433,15.412,9.433z"/>
	<path fill="#BCC1C1" d="M15.412,9.654c-0.209,0-0.377,0.17-0.377,0.379s0.168,0.379,0.377,0.379s0.379-0.17,0.379-0.379
		S15.621,9.654,15.412,9.654z"/>
	<path fill="#D1D3D3" d="M15.531,10.849l-0.301,0.144c0,0,0.73,0.327,0.412,0.709s-0.834-0.231-0.834-0.231
		c-0.037,0.056-0.057,0.151-0.037,0.223c0.055,0.204,0.193,0.369,0.379,0.454c0.428,0.194,0.898-0.037,0.992-0.398
		C16.328,11.029,15.531,10.849,15.531,10.849L15.531,10.849z"/>
	<path fill="#FFFFFF" d="M16.105,11.433c-0.021-0.191-0.15-0.327-0.389-0.436c0,0,0.449,0.402,0.17,0.996
		C15.887,11.993,16.148,11.82,16.105,11.433L16.105,11.433z"/>
	<path fill="#A3A19D" d="M7.504,12.857H5.522c-0.021,0-0.039,0.018-0.039,0.04V13.2c0,0.022,0.018,0.039,0.039,0.039h1.982
		c0.021,0,0.039-0.017,0.039-0.039v-0.303C7.543,12.875,7.526,12.857,7.504,12.857z"/>
	<path fill="#BDBDBD" d="M7.843,13.143h-2.66c-0.022,0-0.04,0.018-0.04,0.04v0.304c0,0.021,0.018,0.039,0.04,0.039h2.66
		c0.021,0,0.039-0.018,0.039-0.039v-0.304C7.882,13.16,7.865,13.143,7.843,13.143z"/>
	<path fill="#A3A19D" d="M11.043,13.432H3.56c-0.372,0-0.675,0.302-0.675,0.675v0.333c0,0.373,0.303,0.675,0.675,0.675h7.483
		c0.373,0,0.676-0.302,0.676-0.675v-0.333C11.719,13.733,11.416,13.431,11.043,13.432L11.043,13.432z"/>
	<path fill="#444343" d="M10.959,13.601H3.667c-0.298,0-0.54,0.241-0.54,0.539v0.267c0,0.298,0.242,0.54,0.54,0.54h7.292
		c0.299,0,0.539-0.242,0.539-0.54V14.14C11.498,13.842,11.258,13.601,10.959,13.601z"/>
	<path fill="#6B6868" d="M4.436,14.273c0,0.304-0.246,0.55-0.55,0.55s-0.55-0.246-0.55-0.55s0.246-0.55,0.55-0.55
		S4.436,13.97,4.436,14.273z"/>
	<path fill="#6B6868" d="M5.802,14.273c0,0.304-0.246,0.55-0.55,0.55c-0.303,0-0.549-0.246-0.549-0.55s0.246-0.55,0.549-0.55
		C5.556,13.724,5.802,13.97,5.802,14.273z"/>
	<path fill="#6B6868" d="M7.181,14.273c0,0.304-0.246,0.55-0.55,0.55s-0.55-0.246-0.55-0.55s0.246-0.55,0.55-0.55
		S7.181,13.97,7.181,14.273z"/>
	<path fill="#6B6868" d="M8.548,14.273c0,0.304-0.246,0.55-0.549,0.55c-0.304,0-0.55-0.246-0.55-0.55s0.246-0.55,0.55-0.55
		C8.302,13.724,8.548,13.97,8.548,14.273z"/>
	<path fill="#6B6868" d="M9.915,14.273c0,0.304-0.245,0.55-0.549,0.55s-0.55-0.246-0.55-0.55s0.246-0.55,0.55-0.55
		S9.915,13.97,9.915,14.273z"/>
	<path fill="#6B6868" d="M11.293,14.273c0,0.304-0.246,0.55-0.549,0.55c-0.303,0-0.55-0.246-0.55-0.55s0.247-0.55,0.55-0.55
		C11.047,13.724,11.293,13.97,11.293,14.273z"/>
	<path fill="#544F4F" d="M4.177,14.273c0,0.16-0.131,0.291-0.291,0.291c-0.161,0-0.291-0.131-0.291-0.291
		c0-0.161,0.13-0.291,0.291-0.291C4.046,13.982,4.177,14.112,4.177,14.273z"/>
	<path fill="#544F4F" d="M5.543,14.273c0,0.16-0.13,0.291-0.291,0.291c-0.16,0-0.291-0.131-0.291-0.291
		c0-0.161,0.131-0.291,0.291-0.291C5.414,13.982,5.543,14.112,5.543,14.273z"/>
	<path fill="#544F4F" d="M6.921,14.273c0,0.16-0.13,0.291-0.291,0.291c-0.16,0-0.29-0.131-0.29-0.291c0-0.161,0.13-0.291,0.29-0.291
		C6.792,13.982,6.921,14.112,6.921,14.273z"/>
	<path fill="#544F4F" d="M8.29,14.273c0,0.16-0.131,0.291-0.291,0.291c-0.161,0-0.291-0.131-0.291-0.291
		c0-0.161,0.13-0.291,0.291-0.291C8.159,13.982,8.29,14.112,8.29,14.273z"/>
	<path fill="#544F4F" d="M9.656,14.273c0,0.16-0.13,0.291-0.29,0.291c-0.161,0-0.291-0.131-0.291-0.291
		c0-0.161,0.13-0.291,0.291-0.291C9.526,13.982,9.656,14.112,9.656,14.273z"/>
	<path fill="#544F4F" d="M11.035,14.273c0,0.16-0.131,0.291-0.291,0.291s-0.292-0.131-0.292-0.291c0-0.161,0.131-0.291,0.292-0.291
		S11.035,14.112,11.035,14.273z"/>
	<path fill="#CC8D00" d="M3.593,10.317H2.629c-0.298,0-0.337,0.062-0.337,0.258v0.505c0,0.297,0.241,0.537,0.538,0.537h0.763
		c0.298,0,0.538-0.24,0.538-0.537v-0.225C4.131,10.559,3.891,10.317,3.593,10.317L3.593,10.317z"/>
	<path fill="#EAA803" d="M9.361,11.147H2.987c-0.355,0-0.643,0.287-0.643,0.643v0.554c0,0.354,0.287,0.643,0.643,0.643h6.374
		c0.355,0,0.644-0.288,0.644-0.643V11.79C10.004,11.435,9.716,11.147,9.361,11.147z"/>
	<path fill="#EAA803" d="M8.9,10.317H8.218c-0.609,0-1.104,0.495-1.104,1.104v0.46c0,0.61,0.495,1.104,1.104,1.104H8.9
		c0.609,0,1.104-0.494,1.104-1.104v-0.46C10.004,10.812,9.509,10.317,8.9,10.317z"/>
</g>
</svg>
