<?xml version="1.0" encoding="utf-8"?>
<!-- Generator: Adobe Illustrator 16.0.0, SVG Export Plug-In . SVG Version: 6.00 Build 0)  -->
<!DOCTYPE svg PUBLIC "-//W3C//DTD SVG 1.1//EN" "http://www.w3.org/Graphics/SVG/1.1/DTD/svg11.dtd">
<svg version="1.1" id="Layer_1" xmlns="http://www.w3.org/2000/svg" xmlns:xlink="http://www.w3.org/1999/xlink" x="0px" y="0px"
	 width="20px" height="20px" viewBox="0 0 20 20" enable-background="new 0 0 20 20" xml:space="preserve">
<g>
	<path fill="#EA4949" d="M10,0.31c-5.352,0-9.69,4.338-9.69,9.69c0,5.352,4.339,9.69,9.69,9.69c5.353,0,9.69-4.339,9.69-9.69
		C19.69,4.648,15.352,0.31,10,0.31z"/>
	<path fill="#D3D3D3" d="M9.285,9.953v9.711C9.521,19.681,9.76,19.69,10,19.69c0.21,0,0.418-0.008,0.625-0.021V9.953H9.285z"/>
	<path fill="#EAEAEA" d="M9.285,9.953v9.711C9.521,19.681,9.76,19.69,10,19.69V9.953H9.285z"/>
	<path fill="#EDC92C" d="M15.413,11.162l-5.135-8.275C10.219,2.79,10.113,2.731,10,2.731c-0.114,0-0.219,0.059-0.279,0.155
		l-5.149,8.298c-0.062,0.102-0.066,0.229-0.008,0.333c0.058,0.104,0.168,0.168,0.287,0.168h10.299c0.182,0,0.328-0.146,0.328-0.328
		C15.478,11.284,15.453,11.217,15.413,11.162L15.413,11.162z"/>
	<path fill="#42413F" d="M9.62,8.264c0.02,0.206,0.053,0.359,0.1,0.46s0.13,0.151,0.25,0.151c0.117,0,0.202-0.052,0.253-0.156
		s0.084-0.254,0.1-0.449l0.144-1.64c0.015-0.15,0.023-0.299,0.023-0.445c0-0.248-0.032-0.438-0.097-0.57
		c-0.064-0.132-0.191-0.198-0.382-0.198c-0.158,0-0.285,0.051-0.381,0.154C9.531,5.674,9.483,5.818,9.483,6.002
		c0,0.135,0.01,0.358,0.03,0.668L9.62,8.264z M9.982,9.458c-0.14,0-0.258,0.048-0.354,0.145C9.531,9.699,9.483,9.816,9.483,9.953
		c0,0.158,0.05,0.28,0.151,0.367c0.101,0.088,0.219,0.131,0.354,0.131c0.133,0,0.25-0.044,0.35-0.132
		c0.099-0.089,0.149-0.211,0.149-0.366c0-0.138-0.049-0.255-0.148-0.351C10.241,9.506,10.122,9.458,9.982,9.458L9.982,9.458z"/>
</g>
</svg>
