<?xml version="1.0" encoding="utf-8"?>
<!-- Generator: Adobe Illustrator 16.0.0, SVG Export Plug-In . SVG Version: 6.00 Build 0)  -->
<!DOCTYPE svg PUBLIC "-//W3C//DTD SVG 1.1//EN" "http://www.w3.org/Graphics/SVG/1.1/DTD/svg11.dtd">
<svg version="1.1" id="Layer_1" xmlns="http://www.w3.org/2000/svg" xmlns:xlink="http://www.w3.org/1999/xlink" x="0px" y="0px"
	 width="20px" height="20px" viewBox="0 0 20 20" enable-background="new 0 0 20 20" xml:space="preserve">
<g>
	<path fill="#29C183" d="M10,0.31C4.648,0.31,0.31,4.647,0.31,10c0,5.352,4.339,9.69,9.689,9.69c5.352,0,9.69-4.339,9.69-9.69
		C19.689,4.647,15.352,0.31,10,0.31z"/>
	<path fill="#EFE1A8" d="M9.778,8.195v-1.89c0-0.229-0.187-0.415-0.415-0.415H3.625c-0.229,0-0.414,0.186-0.414,0.415v7.389
		c0,0.229,0.186,0.415,0.414,0.415h12.682c0.23,0,0.416-0.186,0.416-0.415V8.195H9.778L9.778,8.195z"/>
	<path fill="#E5C438" d="M9.43,11.517H3.625c-0.229,0-0.414,0.186-0.414,0.415v1.763c0,0.229,0.186,0.414,0.414,0.414H9.43
		c0.229,0,0.415-0.186,0.415-0.414v-1.763C9.845,11.702,9.66,11.517,9.43,11.517z"/>
	<path fill="#E5C438" d="M16.309,11.517h-5.807c-0.229,0-0.415,0.186-0.415,0.415v1.763c0,0.229,0.186,0.414,0.415,0.414h5.807
		c0.229,0,0.414-0.186,0.414-0.414v-1.763C16.723,11.702,16.537,11.517,16.309,11.517z"/>
	<path fill="#E5C438" d="M9.43,5.891H3.625c-0.229,0-0.414,0.186-0.414,0.414v1.763c0,0.229,0.186,0.415,0.414,0.415H9.43
		c0.229,0,0.415-0.186,0.415-0.415V6.305C9.845,6.076,9.66,5.891,9.43,5.891z"/>
	<path fill="#E5C438" d="M12.887,8.695H7.081c-0.229,0-0.414,0.186-0.414,0.414v1.763c0,0.229,0.186,0.415,0.414,0.415h5.806
		c0.229,0,0.414-0.187,0.414-0.415V9.109C13.301,8.881,13.115,8.695,12.887,8.695z"/>
	<path fill="#E5C438" d="M13.959,8.695c-0.23,0-0.416,0.186-0.416,0.414v1.763c0,0.229,0.186,0.415,0.416,0.415h2.764V8.695H13.959z
		"/>
	<path fill="#E5C438" d="M6.017,8.695H3.21v2.592h2.807c0.229,0,0.415-0.187,0.415-0.415V9.109C6.432,8.881,6.247,8.695,6.017,8.695
		z"/>
	<path fill="#FFFFFF" d="M12.752,5.879l-0.006,0.007c-0.436,0.501-0.297,1.271-0.291,1.302c0.039,0.216,0.031,0.304,0.027,0.326
		l-0.004,0.009l-0.004,0.023c-0.037,0.236-0.346,0.433-0.461,0.489l0.068,0.141l0.068,0.141c0.021-0.011,0.551-0.27,0.631-0.707
		c0.027-0.092,0.021-0.255-0.018-0.479c-0.002-0.007-0.119-0.649,0.215-1.037C13.043,6.028,12.793,5.837,12.752,5.879L12.752,5.879z
		"/>
	<path fill="#334D5C" d="M14.836,3.645c-1.328,0.723-1.984,1.681-2.119,1.982l0.654,0.459c0.693-0.215,1.992-1.631,2.051-1.953
		C15.539,3.489,14.836,3.645,14.836,3.645L14.836,3.645z"/>
	<path fill="#FFFFFF" d="M13.117,5.627c-0.166-0.107-0.4,0-0.4,0c-0.078,0.176-0.039,0.674,0.654,0.459
		C13.371,6.086,13.283,5.734,13.117,5.627z"/>
	<path fill="#898886" d="M10.11,7.18c0,0-1.953,2.49-2.305,2.988s0.371,1.006,1.191,0.781s5.722-1.699,5.722-1.699L10.11,7.18
		L10.11,7.18z"/>
</g>
</svg>
