<?xml version="1.0" encoding="utf-8"?>
<!-- Generator: Adobe Illustrator 16.0.0, SVG Export Plug-In . SVG Version: 6.00 Build 0)  -->
<!DOCTYPE svg PUBLIC "-//W3C//DTD SVG 1.1//EN" "http://www.w3.org/Graphics/SVG/1.1/DTD/svg11.dtd">
<svg version="1.1" id="Layer_1" xmlns="http://www.w3.org/2000/svg" xmlns:xlink="http://www.w3.org/1999/xlink" x="0px" y="0px"
	 width="20px" height="20px" viewBox="0 0 20 20" enable-background="new 0 0 20 20" xml:space="preserve">
<g>
	<path fill="#48A1AF" d="M10,0.31C4.648,0.31,0.31,4.647,0.31,10c0,5.352,4.339,9.69,9.689,9.69c5.352,0,9.69-4.339,9.69-9.69
		C19.689,4.647,15.352,0.31,10,0.31z"/>
	<path fill="#17474C" d="M13.033,11.569c-0.219-1.094-0.67-1.641-1.494-1.641H8.585c-0.825,0-1.214,0.752-1.494,1.641
		c-0.279,0.889-0.621,4.44-0.621,4.44c0,0.906,0.668,1.64,1.492,1.64h4.075c0.824,0,1.492-0.733,1.492-1.64
		C13.529,16.01,13.25,12.662,13.033,11.569z"/>
	<path fill="#0E2C2D" d="M10.006,9.921L9.089,9.93H8.585c-0.825,0-1.214,0.752-1.494,1.64c-0.279,0.889-0.621,4.441-0.621,4.441
		c0,0.905,0.668,1.64,1.492,1.64l2.07,0.005L10.006,9.921L10.006,9.921z"/>
	<path fill="#E9C29C" d="M11.818,16.011l0.219,1.639c0.824,0,1.492-0.733,1.492-1.64L11.818,16.011L11.818,16.011z"/>
	<path fill="#29636D" d="M13.033,11.569c-0.219-1.094-0.67-1.641-1.494-1.641h-0.537l0.816,6.082h1.711c0,0-0.279-3.348-0.498-4.441
		H13.033z"/>
	<path fill="#E9C29C" d="M6.469,16.011c0,0.905,0.669,1.64,1.493,1.64l0.309-1.635L6.469,16.011z"/>
	<path fill="#29636D" d="M8.584,9.929c-0.824,0-1.213,0.752-1.493,1.641s-0.622,4.44-0.622,4.44l1.802,0.005l0.817-6.088
		L8.584,9.929L8.584,9.929z"/>
	<path fill="#FFFFFF" d="M10.264,10.561l-0.242-0.243l-0.101,0.005l-0.186,0.238l-0.681,5.381l0.908,0.831l0.98-0.831L10.264,10.561
		z"/>
	<path fill="#8DD3D5" d="M10.331,11.088l-0.738,0.604l-0.044,0.35l0.818-0.67L10.331,11.088z"/>
	<path fill="#8DD3D5" d="M10.432,11.892l-0.965,0.79l-0.044,0.35l1.045-0.856L10.432,11.892z"/>
	<path fill="#8DD3D5" d="M10.533,12.694L9.342,13.67l-0.044,0.35l1.272-1.041L10.533,12.694z"/>
	<path fill="#8DD3D5" d="M10.635,13.498l-1.417,1.16l-0.044,0.351l1.499-1.228L10.635,13.498z"/>
	<path fill="#8DD3D5" d="M10.736,14.302l-1.644,1.346l-0.037,0.294l0.036,0.021l1.682-1.376L10.736,14.302z"/>
	<path fill="#8DD3D5" d="M10.838,15.105l-1.426,1.165l0.186,0.168l1.278-1.05L10.838,15.105z"/>
	<path fill="#6FC5BC" d="M9.99,9.984c-0.243,0-0.441,0.199-0.441,0.445c0,0.247,0.198,0.446,0.441,0.446s0.44-0.199,0.44-0.446
		C10.43,10.184,10.233,9.984,9.99,9.984z"/>
	<path fill="#E9C29C" d="M10,3.785c-1.58,0-2.861,1.281-2.861,2.861S8.419,9.508,10,9.508c1.581,0,2.862-1.28,2.862-2.861
		S11.58,3.785,10,3.785z"/>
	<path fill="#492A15" d="M10,3.785c-1.58,0-2.861,1.281-2.861,2.861c0,0,1.181-0.083,2.249-0.566
		c1.107-0.501,1.523-1.189,1.523-1.189l1.951,1.756C12.861,5.066,11.58,3.785,10,3.785z"/>
	<path fill="#343433" d="M9.142,6.657c-0.217,0-0.392,0.186-0.392,0.414c0,0.229,0.175,0.414,0.392,0.414S9.534,7.3,9.534,7.071
		C9.534,6.844,9.359,6.657,9.142,6.657z"/>
	<path fill="#343433" d="M10.842,6.657c-0.217,0-0.393,0.186-0.393,0.414c0,0.229,0.176,0.414,0.393,0.414
		c0.215,0,0.391-0.186,0.391-0.414C11.232,6.844,11.057,6.657,10.842,6.657z"/>
	<path fill="#FFFFFF" d="M10.963,6.749c-0.086,0-0.156,0.074-0.156,0.166c0,0.091,0.07,0.165,0.156,0.165
		c0.088,0,0.158-0.074,0.158-0.165C11.121,6.823,11.051,6.749,10.963,6.749z"/>
	<path fill="#FFFFFF" d="M9.26,6.749c-0.087,0-0.156,0.074-0.156,0.166c0,0.091,0.069,0.165,0.156,0.165s0.156-0.074,0.156-0.165
		C9.417,6.823,9.347,6.749,9.26,6.749z"/>
	<path fill="#492A15" d="M9.836,7.76c-0.221-0.081-0.504-0.022-0.716,0.3C8.919,8.365,8.524,8.152,8.53,7.948
		c0.006-0.189,0.225-0.115,0.184,0.008c0,0,0.057-0.08,0.023-0.151C8.644,7.602,8.335,7.753,8.356,8.029c0,0,0.021,0.573,0.837,0.6
		C9.406,8.637,9.694,8.59,9.925,8.335C10.084,8.159,10.042,7.835,9.836,7.76L9.836,7.76z"/>
	<path fill="#492A15" d="M11.262,7.805c-0.031,0.071,0.025,0.151,0.025,0.151c-0.043-0.123,0.176-0.197,0.184-0.008
		c0.006,0.204-0.391,0.417-0.592,0.111c-0.211-0.322-0.496-0.381-0.715-0.3c-0.205,0.075-0.249,0.399-0.089,0.575
		c0.23,0.255,0.519,0.301,0.732,0.294c0.816-0.026,0.838-0.6,0.838-0.6C11.664,7.753,11.355,7.602,11.262,7.805L11.262,7.805z"/>
	<path fill="#E0B500" d="M10,2.322c-3.081,0-2.316,3.3-2.316,3.3h4.632C12.316,5.622,13.082,2.322,10,2.322L10,2.322z"/>
	<path fill="#EDC92C" d="M7.684,5.622h2.303L10,2.322C6.92,2.322,7.685,5.622,7.684,5.622L7.684,5.622z"/>
	<path fill="#EDC92C" d="M10,2.238c-0.842,0-0.633,3.202-0.633,3.202h1.265C10.633,5.44,10.842,2.238,10,2.238z"/>
	<path fill="#EFD050" d="M9.368,5.44h0.619L10,2.239C9.159,2.239,9.368,5.44,9.368,5.44z"/>
	<path fill="#DBB626" d="M10,5.221c-1.684,0-3.048-0.333-3.048,0.128c0,0.462,1.364,0.675,3.048,0.675
		c1.684,0,3.049-0.213,3.049-0.675C13.049,4.888,11.684,5.221,10,5.221z"/>
</g>
</svg>
