<?xml version="1.0" encoding="utf-8"?>
<!-- Generator: Adobe Illustrator 16.0.0, SVG Export Plug-In . SVG Version: 6.00 Build 0)  -->
<!DOCTYPE svg PUBLIC "-//W3C//DTD SVG 1.1//EN" "http://www.w3.org/Graphics/SVG/1.1/DTD/svg11.dtd">
<svg version="1.1" id="Layer_1" xmlns="http://www.w3.org/2000/svg" xmlns:xlink="http://www.w3.org/1999/xlink" x="0px" y="0px"
	 width="20px" height="20px" viewBox="0 0 20 20" enable-background="new 0 0 20 20" xml:space="preserve">
<g>
	<path fill="#29C183" d="M10,0.31C4.648,0.31,0.31,4.647,0.31,10c0,5.352,4.339,9.69,9.689,9.69c5.352,0,9.69-4.339,9.69-9.69
		C19.689,4.647,15.352,0.31,10,0.31z"/>
	<path fill="#EDC92F" d="M8.615,3.085C8.27,3.085,7.99,3.364,7.99,3.71v12.252c0,0.345,0.28,0.625,0.625,0.625
		c0.346,0,0.626-0.28,0.626-0.625V3.71C9.241,3.365,8.96,3.085,8.615,3.085z"/>
	<path fill="#EFE4B4" d="M9.125,14.705L9.125,14.705l0.06-0.058l-0.508-0.502l0.445-0.449h0.001l0.058-0.059l-0.507-0.503
		l0.445-0.45l0.002,0.001l0.058-0.058l-0.507-0.503l0.506-0.511L8.67,11.111l0.445-0.45l0.002,0.001l0.059-0.059l-0.508-0.503
		l0.443-0.447l0.001,0.001l0.059-0.059L9.169,9.595l0.002-0.001L9.113,9.536H9.112L8.668,9.089l0.508-0.503L9.118,8.527L9.116,8.529
		L8.67,8.078l0.508-0.502L9.174,7.572l0,0L8.672,7.065L9.18,6.562L9.122,6.504L9.121,6.506l-0.446-0.45l0.508-0.503L9.124,5.494
		L9.123,5.495l-0.444-0.45l0.507-0.502l-0.058-0.06L9.125,4.485L8.68,4.035l0.507-0.503L9.129,3.474L8.622,3.977L8.119,3.47
		L8.06,3.527l0.503,0.508L8.055,4.538l0.059,0.059l0.001-0.002l0.446,0.45L8.053,5.548l0.059,0.059l0.001-0.001l0.445,0.449
		L8.05,6.558l0.059,0.059L8.11,6.614l0.446,0.45L8.049,7.567l0.002,0.004l0,0l0.503,0.507L8.047,8.581L8.105,8.64l0.002-0.001
		l0.446,0.45L8.045,9.591L8.05,9.596L8.045,9.6l0.508,0.503l-0.446,0.45l-0.002-0.002l-0.058,0.059l0.507,0.503l-0.505,0.511
		l0.507,0.503l-0.446,0.45l-0.001-0.001L8.05,12.633l0.508,0.503l-0.445,0.45l-0.001-0.001l-0.059,0.059l0.508,0.502l-0.446,0.451
		l-0.001-0.002l-0.059,0.059l0.508,0.503L8.06,15.663l0.059,0.059l0.503-0.508l0.508,0.503l0.058-0.059L8.68,15.155L9.125,14.705
		L9.125,14.705z M8.173,4.537l0.447-0.443l0.446,0.45L8.62,4.987L8.173,4.537z M8.17,5.548l0.448-0.444l0.445,0.449L8.616,5.997
		L8.17,5.548L8.17,5.548z M8.168,6.557l0.446-0.442l0.446,0.45L8.615,7.008L8.168,6.557L8.168,6.557z M8.165,7.568l0.449-0.444
		l0.447,0.451L8.613,8.021L8.165,7.568z M8.165,8.58l0.447-0.443l0.445,0.45L8.611,9.03L8.165,8.58L8.165,8.58z M8.158,9.596
		L8.61,9.147l0.444,0.448L8.61,10.044L8.158,9.596z M8.165,10.61l0.446-0.45l0.446,0.443l-0.445,0.45L8.165,10.61z M8.165,11.622
		l0.448-0.452l0.448,0.445l-0.447,0.452L8.165,11.622z M8.168,12.634l0.445-0.45l0.447,0.443l-0.446,0.45L8.168,12.634L8.168,12.634
		z M8.17,13.643l0.446-0.449l0.447,0.444L8.62,14.087L8.17,13.643L8.17,13.643z M8.621,15.097l-0.447-0.443l0.446-0.449l0.447,0.442
		L8.621,15.097z"/>
	<path fill="#EAA803" d="M8.63,3.635L8.615,3.63l-4.51,1.54h9.606L8.63,3.635z M8.617,3.739l4.389,1.326H4.732L8.617,3.739
		L8.617,3.739z"/>
	<path fill="#EAA803" d="M4.062,5.292h1.564v1.077H4.062V5.292z"/>
	<path fill="#EDC92F" d="M16.305,4.962H4.053c-0.158,0-0.286,0.128-0.286,0.286c0,0.159,0.128,0.287,0.286,0.287h12.251
		c0.158,0,0.287-0.128,0.287-0.287C16.592,5.09,16.463,4.962,16.305,4.962z"/>
	<path fill="#EAA803" d="M15.977,5.017l-0.027-0.028l-0.238,0.237l-0.238-0.239l-0.027,0.027h0.002l-0.213,0.211l-0.236-0.238
		l-0.027,0.027l0,0l-0.213,0.21l-0.236-0.238l-0.027,0.027l0,0l-0.211,0.209l-0.236-0.238L14.02,5.011v0.001l-0.211,0.21
		l-0.236-0.239L13.57,4.984l0,0l-0.238,0.236l-0.236-0.239l-0.029,0.027l0.002,0.001l-0.213,0.21L12.619,4.98l-0.002,0.002
		L12.615,4.98L12.379,5.22l-0.211-0.21V5.009l-0.027-0.027l-0.236,0.239l-0.24-0.238l-0.236,0.239l-0.213-0.21V5.011l-0.027-0.027
		l-0.236,0.239l-0.211-0.21l0,0l-0.027-0.027l-0.237,0.238l-0.211-0.21l0,0l-0.027-0.027l-0.236,0.238L9.791,5.017l0,0L9.763,4.988
		v0.001L9.762,4.988L9.735,5.017h0.001L9.525,5.225L9.289,4.986L9.261,5.014l0,0l-0.212,0.21L8.813,4.985L8.786,5.013l0,0
		L8.574,5.222L8.338,4.983L8.31,5.011l0.001,0.001l-0.212,0.21L7.863,4.982L7.861,4.984l0,0L7.622,5.221L7.385,4.981L7.358,5.009
		L7.359,5.01L7.147,5.22L6.911,4.98L6.909,4.982L6.907,4.98L6.669,5.22L6.458,5.01V5.009L6.431,4.981L6.195,5.221l-0.24-0.238
		L5.718,5.222l-0.212-0.21V5.011L5.479,4.983L5.243,5.223l-0.212-0.21h0.001L5.003,4.985L4.767,5.224l-0.212-0.21h0.001L4.529,4.986
		L4.292,5.225L4.053,4.988L4.026,5.016l0.239,0.237L4.028,5.491l0.028,0.027l0.236-0.239l0.212,0.21L4.503,5.49l0.027,0.027
		l0.236-0.239l0.212,0.21l0,0l0.027,0.027l0.236-0.238l0.212,0.21l0,0l0.027,0.027l0.236-0.238l0.24,0.237l0.236-0.238l0.212,0.21
		L6.406,5.486l0.028,0.026L6.67,5.274l0.211,0.209H6.88l0.027,0.027V5.51l0.001,0.001l0.027-0.027l0,0l0.21-0.209l0.236,0.238
		l0.028-0.026L7.41,5.485l0.212-0.21l0.236,0.238L7.86,5.513l0,0l0.238-0.237l0.236,0.239l0.027-0.027l0,0l0.212-0.21L8.81,5.516
		l0.027-0.027l0,0l0.211-0.21l0.236,0.239L9.313,5.49L9.312,5.489l0.212-0.21L9.76,5.519l0.002-0.002l0.002,0.002L10,5.279
		l0.212,0.21V5.49l0.027,0.027l0.236-0.239l0.211,0.21l0,0l0.027,0.027l0.236-0.238l0.213,0.21h-0.002l0.027,0.027l0.238-0.238
		l0.238,0.237l0.238-0.238l0.211,0.21v0.001l0.027,0.026l0.236-0.238l0.211,0.209l0,0l0.027,0.027V5.51v0.001l0.027-0.027l0,0
		l0.211-0.209l0.236,0.238l0.027-0.026V5.485l0.211-0.21l0.236,0.238l0.002-0.001l0,0l0.24-0.237l0.234,0.239l0.029-0.027H14.07
		l0.213-0.21l0.236,0.238l0.027-0.027l0,0l0.211-0.21l0.236,0.239l0.027-0.027V5.489l0.211-0.21l0.238,0.239l0.027-0.027h-0.002
		l0.213-0.211l0.236,0.238l0.029-0.027l-0.238-0.238L15.977,5.017L15.977,5.017z M4.532,5.462L4.32,5.252l0.208-0.211L4.74,5.252
		L4.532,5.462z M5.006,5.461L4.794,5.252l0.209-0.211L5.215,5.25L5.006,5.461L5.006,5.461z M5.482,5.46L5.27,5.25l0.208-0.211
		l0.212,0.21L5.482,5.46L5.482,5.46z M5.958,5.46L5.746,5.249l0.209-0.211l0.212,0.21L5.958,5.46L5.958,5.46z M6.434,5.458
		l-0.212-0.21L6.43,5.037l0.212,0.21L6.434,5.458z M6.908,5.456L6.697,5.247l0.211-0.213l0.211,0.213L6.908,5.456z M7.382,5.458
		L7.174,5.247l0.212-0.21l0.208,0.211L7.382,5.458z M7.859,5.46L7.65,5.248l0.212-0.21l0.209,0.211L7.859,5.46z M8.334,5.46
		L8.126,5.249l0.212-0.21L8.546,5.25L8.334,5.46L8.334,5.46z M8.81,5.461L8.601,5.25l0.211-0.209l0.21,0.211L8.81,5.461L8.81,5.461z
		 M9.285,5.462l-0.208-0.21l0.212-0.211l0.208,0.211L9.285,5.462z M9.763,5.466L9.552,5.253l0.211-0.209l0.21,0.209L9.763,5.466z
		 M10.241,5.462l-0.212-0.21l0.208-0.211l0.212,0.211L10.241,5.462z M10.715,5.461l-0.211-0.209l0.209-0.211l0.211,0.209
		L10.715,5.461L10.715,5.461z M11.191,5.46l-0.213-0.21l0.209-0.211l0.211,0.21L11.191,5.46L11.191,5.46z M11.666,5.46l-0.211-0.211
		l0.209-0.211l0.213,0.21L11.666,5.46z M12.143,5.458l-0.211-0.21l0.209-0.211l0.211,0.21L12.143,5.458z M12.617,5.456l-0.211-0.209
		l0.211-0.213l0.211,0.213L12.617,5.456z M13.092,5.458l-0.209-0.211l0.213-0.21l0.207,0.211L13.092,5.458z M13.568,5.46
		l-0.211-0.212l0.213-0.21l0.209,0.211L13.566,5.46H13.568z M14.043,5.46l-0.207-0.211l0.211-0.21l0.209,0.211L14.043,5.46z
		 M14.52,5.461L14.311,5.25l0.211-0.209l0.209,0.211L14.52,5.461z M14.994,5.462l-0.209-0.21l0.213-0.211l0.207,0.211L14.994,5.462z
		 M15.469,5.463l-0.207-0.21l0.213-0.211l0.207,0.211L15.469,5.463z"/>
	<path fill="#EAA803" d="M16.305,4.884c-0.201,0-0.365,0.163-0.365,0.364c0,0.202,0.164,0.365,0.365,0.365S16.67,5.45,16.67,5.248
		C16.67,5.047,16.506,4.884,16.305,4.884z"/>
	<path fill="#525357" d="M16.422,5.248c0,0.065-0.053,0.117-0.117,0.117s-0.117-0.052-0.117-0.117c0-0.064,0.053-0.117,0.117-0.117
		S16.422,5.184,16.422,5.248z"/>
	<path fill="#525357" d="M16.227,5.248h0.156v3.913h-0.156V5.248z"/>
	<path fill="#EAA803" d="M11.383,15.857H5.847c-0.241,0-0.437,0.195-0.437,0.437v0.43h6.408v-0.43
		C11.818,16.053,11.623,15.857,11.383,15.857L11.383,15.857z"/>
	<path fill="#EAA803" d="M8.836,5.313c0,0.13-0.104,0.234-0.234,0.234S8.368,5.443,8.368,5.313s0.104-0.234,0.234-0.234
		S8.836,5.184,8.836,5.313z"/>
	<path fill="#EAA803" d="M8.772,3.685c0,0.086-0.07,0.156-0.156,0.156c-0.087,0-0.156-0.07-0.156-0.156s0.069-0.156,0.156-0.156
		C8.702,3.528,8.772,3.598,8.772,3.685z"/>
	<path fill="#D1D3D3" d="M16.291,8.906c-0.146,0-0.266,0.119-0.266,0.267l0.133,1.245l0.266,0.071l0.135-1.316
		C16.559,9.025,16.438,8.906,16.291,8.906z"/>
	<path fill="#FCFCFC" d="M16.422,9.161c0,0.067-0.055,0.122-0.121,0.122c-0.068,0-0.123-0.055-0.123-0.122s0.055-0.121,0.123-0.121
		C16.367,9.04,16.422,9.094,16.422,9.161z"/>
	<path fill="#EFEFEF" d="M16.291,9.352c-0.242,0-0.438,0.196-0.438,0.438c0,0.242,0.195,0.438,0.438,0.438s0.439-0.196,0.439-0.438
		C16.73,9.548,16.533,9.352,16.291,9.352z"/>
	<path fill="#BCC1C1" d="M16.568,9.79c0,0.152-0.125,0.275-0.277,0.275s-0.275-0.123-0.275-0.275s0.123-0.276,0.275-0.276
		S16.568,9.638,16.568,9.79z"/>
	<path fill="#D1D3D3" d="M16.732,10.837c0,0-0.377,0.447-0.609,0.169c-0.23-0.277,0.301-0.517,0.301-0.517l-0.219-0.104
		c0,0-0.582,0.132-0.445,0.655c0.068,0.264,0.412,0.433,0.723,0.291c0.137-0.062,0.236-0.183,0.277-0.332
		C16.773,10.947,16.76,10.878,16.732,10.837L16.732,10.837z"/>
	<path fill="#FFFFFF" d="M16.07,10.492c-0.174,0.079-0.27,0.179-0.283,0.318c-0.031,0.283,0.158,0.408,0.158,0.408
		C15.742,10.786,16.07,10.492,16.07,10.492z"/>
</g>
</svg>
