<?xml version="1.0" encoding="utf-8"?>
<!-- Generator: Adobe Illustrator 16.0.0, SVG Export Plug-In . SVG Version: 6.00 Build 0)  -->
<!DOCTYPE svg PUBLIC "-//W3C//DTD SVG 1.1//EN" "http://www.w3.org/Graphics/SVG/1.1/DTD/svg11.dtd">
<svg version="1.1" id="Layer_1" xmlns="http://www.w3.org/2000/svg" xmlns:xlink="http://www.w3.org/1999/xlink" x="0px" y="0px"
	 width="20px" height="20px" viewBox="0 0 20 20" enable-background="new 0 0 20 20" xml:space="preserve">
<g>
	<path fill="#337180" d="M10,0.31C4.648,0.31,0.31,4.647,0.31,10c0,5.352,4.339,9.69,9.689,9.69c5.352,0,9.69-4.339,9.69-9.69
		C19.689,4.647,15.352,0.31,10,0.31z"/>
	<path fill="#F5D8A4" d="M4.93,7.685l0.914,8.331c0,0.387,0.313,0.7,0.7,0.7h6.61c0.387,0,0.701-0.313,0.701-0.7l0.914-8.331
		C14.77,7.298,4.93,7.298,4.93,7.685z"/>
	<path fill="#C1C1C1" d="M9.846,3.284c-5.091,0-4.916,4.4-4.916,4.4L5.339,7.96c0,0,0.128-3.925,4.507-3.925
		c4.38,0,4.513,3.925,4.513,3.925l0.41-0.275C14.77,7.685,14.938,3.284,9.846,3.284L9.846,3.284z"/>
	<path fill="#CECBCB" d="M9.846,3.284c-5.091,0-4.916,4.4-4.916,4.4L5.339,7.96c0,0,0.128-3.925,4.507-3.925V3.284z"/>
	<path fill="#E9CA92" d="M9.829,7.348c-1.817,0-3.617,0.1-4.44,0.206L4.93,7.685l0.914,8.331c0,0.387,0.313,0.7,0.7,0.7h3.302
		L9.829,7.348z"/>
	<path fill="#E9CA92" d="M5.39,7.236H4.967c-0.065,0-0.118,0.091-0.118,0.203v0.349c0,0.112,0.053,0.203,0.118,0.203H5.39
		c0.065,0,0.118-0.091,0.118-0.203V7.439C5.508,7.327,5.456,7.236,5.39,7.236z"/>
	<path fill="#F5D8A4" d="M14.74,7.236h-0.424c-0.064,0-0.117,0.091-0.117,0.203v0.349c0,0.112,0.053,0.203,0.117,0.203h0.424
		c0.064,0,0.117-0.091,0.117-0.203V7.439C14.857,7.327,14.805,7.236,14.74,7.236z"/>
	<path fill="#DD5271" d="M5.685,7.525c0,0,1.426,3.771,3.055,1.328c0,0,0.614-0.743,1.26,0.035c0.645,0.779,0.492,1.726,0.614,2.195
		c0.092,0.354,0.848,1.153,1.092-0.425c0.307-1.982,0.938-1.823,1.275-1.594c0.338,0.23,0.75,0.093,0.891-0.566
		c0.141-0.66,0.182-0.979,0.182-0.979S9.649,7.135,5.685,7.525L5.685,7.525z"/>
	<path fill="#C83D54" d="M5.685,7.525c0,0,1.426,3.771,3.055,1.328c0,0,0.519-0.628,1.103-0.126l0.026-1.38
		C8.712,7.354,6.903,7.405,5.685,7.525L5.685,7.525z"/>
	<path fill="#E79E2D" d="M8.77,11.266L3.166,16.87c0.224,0.222,0.458,0.434,0.703,0.634l2.744-3.295
		c0.327,0.111,0.679,0.054,0.954-0.222l1.624-1.624C9.611,11.943,9.189,11.685,8.77,11.266L8.77,11.266z"/>
	<path fill="#D68A28" d="M7.672,10.845l-1.624,1.624c-0.275,0.275-0.333,0.627-0.222,0.954l-3.309,2.736
		c0.204,0.247,0.421,0.484,0.647,0.711l5.604-5.604C8.351,10.846,8.092,10.425,7.672,10.845L7.672,10.845z"/>
	<path fill="#CDCCCB" d="M8.827,11.209c-0.42-0.42-0.734-0.784-1.154-0.364l-1.625,1.624c-0.197,0.198,1.32,1.717,1.519,1.519
		l1.625-1.625C9.61,11.943,9.246,11.628,8.827,11.209z"/>
	<path fill="#AAAAAA" d="M7.672,10.845l-1.624,1.624c-0.1,0.099,0.23,0.528,0.61,0.908l2.168-2.168
		C8.407,10.789,8.092,10.425,7.672,10.845L7.672,10.845z"/>
	<path fill="#B2B2B2" d="M6.15,13.91c-0.278-0.277-0.377-0.63-0.377-0.63l-0.869,0.888c-0.106,0.106,0.861,1.066,0.969,0.96
		L6.75,14.25C6.75,14.25,6.428,14.188,6.15,13.91z"/>
	<path fill="#8D9091" d="M5.773,13.28l-0.869,0.888c-0.054,0.053,0.148,0.314,0.4,0.565l0.831-0.838
		C5.87,13.62,5.774,13.28,5.773,13.28L5.773,13.28z"/>
	<path fill="#3D4040" d="M7.701,10.435l-0.979,1.36c-0.197,0.198,1.32,1.717,1.519,1.519l0.467-0.336L7.701,10.435L7.701,10.435z"/>
	<path fill="#343433" d="M7.701,10.435l-0.979,1.36c-0.097,0.098,0.221,0.515,0.593,0.89l1.943-1.906
		C8.746,10.266,7.701,10.435,7.701,10.435z"/>
	<path fill="#C83D54" d="M8.081,9.906l-0.38,0.528l0.296,1.335l0.71,1.209l1.423-1.024C10.549,11.535,8.5,9.486,8.081,9.906
		L8.081,9.906z"/>
	<path fill="#DD5271" d="M9.42,10.615l-1.333,1.311l0.619,1.052l1.423-1.023C10.339,11.745,9.932,11.128,9.42,10.615L9.42,10.615z"
		/>
	<path fill="#1D1E1E" d="M7.817,10.962l-0.755,0.985c-0.026,0.034-0.021,0.084,0.015,0.11c0.014,0.011,0.03,0.016,0.047,0.016
		c0.024,0,0.048-0.011,0.062-0.03l0.676-0.881L7.817,10.962z"/>
	<path fill="#2E2F2F" d="M8.453,12.546l-0.432,0.332c-0.034,0.025-0.041,0.075-0.015,0.109c0.015,0.021,0.039,0.031,0.062,0.031
		c0.017,0,0.034-0.006,0.049-0.017l0.416-0.319L8.453,12.546L8.453,12.546z"/>
	<path fill="#2E2F2F" d="M8.196,12.108l-0.498,0.455c-0.032,0.029-0.035,0.079-0.005,0.11C7.708,12.691,7.729,12.7,7.75,12.7
		c0.019,0,0.037-0.007,0.053-0.021l0.474-0.433L8.196,12.108L8.196,12.108z"/>
	<path fill="#1D1E1E" d="M7.997,11.77l-0.039-0.177l-0.593,0.648c-0.028,0.032-0.026,0.081,0.006,0.11
		c0.015,0.015,0.033,0.021,0.053,0.021c0.021,0,0.042-0.009,0.058-0.026l0.521-0.569L7.997,11.77L7.997,11.77z"/>
	<path fill="#A82F49" d="M8.528,10.164c-0.034-0.026-0.084-0.02-0.11,0.015l-0.601,0.783l0.045,0.199l0.681-0.887
		C8.568,10.239,8.562,10.19,8.528,10.164L8.528,10.164z"/>
	<path fill="#A82F49" d="M9.899,11.535c-0.026-0.034-0.076-0.041-0.11-0.015l-1.336,1.025l0.081,0.137l1.351-1.037
		C9.919,11.619,9.925,11.569,9.899,11.535L9.899,11.535z"/>
	<path fill="#A82F49" d="M9.52,11.007c-0.029-0.032-0.079-0.035-0.111-0.005l-1.213,1.107l0.081,0.139l1.238-1.13
		C9.546,11.089,9.549,11.039,9.52,11.007L9.52,11.007z"/>
	<path fill="#A82F49" d="M9.038,10.524c-0.031-0.029-0.081-0.027-0.11,0.005l-0.97,1.063l0.039,0.177l0.005,0.008l1.042-1.143
		C9.073,10.604,9.071,10.554,9.038,10.524L9.038,10.524z"/>
	<path fill="#DD5271" d="M10.201,12.372c0,0-0.403,0.727-0.403,1.007c0,0.223,0.181,0.403,0.403,0.403
		c0.222,0,0.403-0.181,0.403-0.403C10.604,13.118,10.201,12.372,10.201,12.372z"/>
</g>
</svg>
