<?xml version="1.0" encoding="utf-8"?>
<!-- Generator: Adobe Illustrator 16.0.0, SVG Export Plug-In . SVG Version: 6.00 Build 0)  -->
<!DOCTYPE svg PUBLIC "-//W3C//DTD SVG 1.1//EN" "http://www.w3.org/Graphics/SVG/1.1/DTD/svg11.dtd">
<svg version="1.1" id="Layer_1" xmlns="http://www.w3.org/2000/svg" xmlns:xlink="http://www.w3.org/1999/xlink" x="0px" y="0px"
	 width="20px" height="20px" viewBox="0 0 20 20" enable-background="new 0 0 20 20" xml:space="preserve">
<g>
	<path fill="#48A1AF" d="M10,0.31c-5.352,0-9.69,4.338-9.69,9.69c0,5.352,4.339,9.69,9.69,9.69c5.353,0,9.69-4.339,9.69-9.69
		C19.69,4.648,15.352,0.31,10,0.31z"/>
	<path fill="#E84849" d="M15.235,7.934c0-0.507-0.41-0.917-0.917-0.917h-2.216c-0.507,0-0.994,0.411-0.994,0.917v4.853l3.21,0.014
		c0.507,0,1.566-0.411,1.566-0.917L15.235,7.934L15.235,7.934z"/>
	<path fill="#9DDAEC" d="M14.654,8.048C14.623,7.705,14.52,7.55,14.127,7.55h-1.796c-0.394,0-0.541,0.105-0.541,0.498V9.59
		l3.062,0.011L14.654,8.048L14.654,8.048z"/>
	<path fill="#E8BB00" d="M2.795,7.916l7.37-0.755C6.728,3.723,2.795,7.916,2.795,7.916z"/>
	<path fill="#CECBCB" d="M12.42,6.649l-0.456-0.436c-0.014-0.013-0.032-0.019-0.051-0.015L2.312,7.825
		c-0.016,0.003-0.031,0.013-0.04,0.026S2.26,7.883,2.265,7.899c0,0,0.247,0.887,0.494,1.774c0.124,0.443,0.248,0.887,0.342,1.22
		c0.047,0.167,0.086,0.306,0.114,0.402c0.056,0.195,0.056,0.195,0.102,0.195h7.382c0.033,0,0.059-0.026,0.059-0.059V7.015
		l1.631-0.265c0.021-0.003,0.04-0.02,0.047-0.041C12.442,6.688,12.436,6.665,12.42,6.649L12.42,6.649z"/>
	<path fill="#E84849" d="M15.894,9.624h-3.227c-0.376,0-0.68,0.305-0.68,0.679v1.818c0,0.375,0.304,0.68,0.68,0.68h3.227
		c0.375,0,0.679-0.305,0.679-0.68v-1.818C16.572,9.928,16.269,9.624,15.894,9.624z"/>
	<path fill="#CECBCB" d="M16.825,11.861H3.48c-0.198,0-0.358,0.16-0.358,0.357v0.452c0,0.198,0.161,0.358,0.358,0.358h13.345
		c0.198,0,0.359-0.16,0.359-0.358v-0.452C17.185,12.021,17.023,11.861,16.825,11.861z"/>
	<path fill="#E84849" d="M15.146,11.788H3.48c-0.198,0-0.358,0.16-0.358,0.357v0.525c0,0.198,0.161,0.358,0.358,0.358h11.665
		c0.198,0,0.359-0.16,0.359-0.358v-0.525C15.505,11.948,15.344,11.788,15.146,11.788z"/>
	<path fill="#202121" d="M14.396,11.818c-0.94,0-1.703,0.763-1.703,1.703s0.763,1.703,1.703,1.703c0.939,0,1.702-0.763,1.702-1.703
		S15.336,11.818,14.396,11.818z"/>
	<path fill="#5E5F5E" d="M14.396,12.509c-0.56,0-1.014,0.453-1.014,1.013s0.454,1.014,1.014,1.014s1.013-0.454,1.013-1.014
		C15.409,12.963,14.956,12.509,14.396,12.509z"/>
	<path fill="#A19F9F" d="M14.396,13.143c-0.21,0-0.379,0.17-0.379,0.379s0.169,0.379,0.379,0.379c0.209,0,0.379-0.17,0.379-0.379
		S14.605,13.143,14.396,13.143z"/>
	<path fill="#202121" d="M5.996,11.818c-0.94,0-1.703,0.763-1.703,1.703s0.763,1.703,1.703,1.703c0.94,0,1.703-0.763,1.703-1.703
		S6.937,11.818,5.996,11.818z"/>
	<path fill="#5E5F5E" d="M5.996,12.509c-0.56,0-1.013,0.453-1.013,1.013s0.454,1.013,1.013,1.013s1.013-0.453,1.013-1.013
		S6.556,12.509,5.996,12.509z"/>
	<path fill="#A19F9F" d="M5.996,13.143c-0.209,0-0.379,0.17-0.379,0.379S5.787,13.9,5.996,13.9c0.209,0,0.379-0.17,0.379-0.379
		S6.206,13.143,5.996,13.143z"/>
	<path fill="#E13B3B" d="M8.421,13.049c-0.308-1.111-1.291-1.888-2.393-1.888c-1.106,0-2.091,0.78-2.396,1.896
		c-0.004,0.017-0.001,0.033,0.009,0.047c0.01,0.014,0.026,0.021,0.042,0.021h0.937c0.02,0,0.037-0.011,0.046-0.026
		c0.254-0.438,0.826-0.755,1.361-0.755c0.534,0,1.106,0.316,1.361,0.754c0.009,0.017,0.027,0.027,0.046,0.027h0.937c0,0,0,0,0.001,0
		c0.03,0,0.054-0.024,0.054-0.054C8.426,13.063,8.424,13.056,8.421,13.049L8.421,13.049z"/>
	<path fill="#E13B3B" d="M16.754,13.049c-0.308-1.111-1.291-1.888-2.394-1.888c-1.105,0-2.091,0.78-2.396,1.896
		c-0.004,0.017-0.001,0.033,0.009,0.047s0.026,0.021,0.043,0.021h0.937c0.02,0,0.037-0.011,0.047-0.026
		c0.254-0.438,0.826-0.755,1.36-0.755s1.106,0.316,1.361,0.754c0.009,0.017,0.027,0.027,0.046,0.027h0.937h0.001
		c0.029,0,0.054-0.024,0.054-0.054C16.759,13.063,16.757,13.056,16.754,13.049L16.754,13.049z"/>
</g>
</svg>
