<?xml version="1.0" encoding="utf-8"?>
<!-- Generator: Adobe Illustrator 16.0.0, SVG Export Plug-In . SVG Version: 6.00 Build 0)  -->
<!DOCTYPE svg PUBLIC "-//W3C//DTD SVG 1.1//EN" "http://www.w3.org/Graphics/SVG/1.1/DTD/svg11.dtd">
<svg version="1.1" id="Layer_1" xmlns="http://www.w3.org/2000/svg" xmlns:xlink="http://www.w3.org/1999/xlink" x="0px" y="0px"
	 width="20px" height="20px" viewBox="0 0 20 20" enable-background="new 0 0 20 20" xml:space="preserve">
<g>
	<path fill="#334D5C" d="M10,0.31C4.648,0.31,0.31,4.647,0.31,10c0,5.352,4.339,9.69,9.689,9.69c5.352,0,9.69-4.339,9.69-9.69
		C19.689,4.647,15.352,0.31,10,0.31z"/>
	<path fill="#C47516" d="M16.221,13.067v0.187L10.09,9.82c-0.057-0.031-0.125-0.031-0.181,0l-6.131,3.434v-0.183H3.651v0.351
		C3.65,13.426,3.65,13.431,3.65,13.435c0,0.067,0.036,0.129,0.095,0.162l6.165,3.452c0.027,0.016,0.059,0.023,0.09,0.023
		s0.062-0.008,0.091-0.023l6.166-3.452c0.057-0.033,0.094-0.095,0.094-0.162v-0.367H16.221L16.221,13.067z"/>
	<path fill="#D68922" d="M16.256,12.917L10.09,9.465c-0.057-0.032-0.125-0.032-0.181,0l-6.165,3.452
		C3.686,12.95,3.65,13.012,3.65,13.079c0,0.066,0.036,0.129,0.095,0.161l6.165,3.453c0.028,0.016,0.059,0.023,0.09,0.023
		s0.062-0.008,0.091-0.023l6.166-3.453c0.059-0.032,0.094-0.095,0.094-0.161C16.35,13.012,16.314,12.95,16.256,12.917L16.256,12.917
		z"/>
	<path fill="#E79E2F" d="M13.812,13.03l-3.289-9.802c-0.018-0.056-0.07-0.093-0.128-0.093H9.636c-0.059,0-0.11,0.037-0.129,0.093
		L6.189,13.03c-0.018,0.049-0.004,0.104,0.033,0.141c0.068,0.066,1.7,1.629,3.849,1.629c2.152,0,3.648-1.566,3.71-1.634
		C13.816,13.13,13.828,13.077,13.812,13.03L13.812,13.03z"/>
	<path fill="#F7E7D3" d="M12.625,9.493c-0.645,0.382-1.525,0.741-2.555,0.741c-1.059,0-1.992-0.38-2.674-0.772l-0.55,1.622
		c0.677,0.479,1.843,1.125,3.224,1.125c1.358,0,2.456-0.625,3.096-1.103L12.625,9.493z"/>
	<path fill="#F7E7D3" d="M11.426,5.916c-0.412,0.125-0.867,0.206-1.356,0.206c-0.523,0-1.016-0.093-1.463-0.234L8.014,7.637
		c0.588,0.26,1.289,0.459,2.056,0.459c0.735,0,1.393-0.182,1.944-0.425L11.426,5.916z"/>
	<path fill="#D38722" d="M10.523,3.229c-0.018-0.056-0.056-0.094-0.128-0.111c-0.073-0.017-0.179-0.044-0.385-0.044
		S9.705,3.095,9.636,3.117C9.567,3.14,9.53,3.17,9.509,3.222c0.189,0.043,0.336,0.071,0.527,0.071c0.155,0,0.337-0.028,0.489-0.06
		L10.523,3.229L10.523,3.229z"/>
</g>
</svg>
