<?xml version="1.0" encoding="utf-8"?>
<!-- Generator: Adobe Illustrator 16.0.0, SVG Export Plug-In . SVG Version: 6.00 Build 0)  -->
<!DOCTYPE svg PUBLIC "-//W3C//DTD SVG 1.1//EN" "http://www.w3.org/Graphics/SVG/1.1/DTD/svg11.dtd">
<svg version="1.1" id="Layer_1" xmlns="http://www.w3.org/2000/svg" xmlns:xlink="http://www.w3.org/1999/xlink" x="0px" y="0px"
	 width="20px" height="20px" viewBox="0 0 20 20" enable-background="new 0 0 20 20" xml:space="preserve">
<g>
	<path fill="#337180" d="M10,0.31C4.648,0.31,0.31,4.647,0.31,10c0,5.352,4.339,9.69,9.689,9.69c5.352,0,9.69-4.339,9.69-9.69
		C19.689,4.647,15.352,0.31,10,0.31z"/>
	<path fill="#42413A" d="M6.143,13.221c-0.003-0.018-0.013-0.033-0.028-0.042l-0.226-0.131c-0.003-0.002-0.006-0.004-0.01-0.005
		c-0.019-0.007-0.045-0.01-0.087-0.01c-0.044,0-0.102,0.004-0.157,0.007s-0.112,0.006-0.154,0.006c-0.039,0-0.05-0.003-0.051-0.003
		c-1.271-0.473-1.478-1.684-1.479-1.696c-0.004-0.021-0.02-0.04-0.041-0.047c-0.021-0.006-0.045,0-0.061,0.017
		c-0.027,0.03-0.671,0.74-0.801,1.435c-0.127,0.678,0.319,1.271,1.11,1.473c0.07,0.018,0.144,0.026,0.22,0.026
		c0.792,0,1.71-0.939,1.748-0.979C6.139,13.258,6.145,13.239,6.143,13.221L6.143,13.221z"/>
	<path fill="#CE9905" d="M14.215,11.843l0.488-0.861h-4.59l0.543,0.805l-0.918,0.057v2.005h5.696v-2.005H14.215z"/>
	<path fill="#E8B30A" d="M8.783,11.843h6.932v2.005H8.783V11.843z"/>
	<path fill="#E8B30A" d="M4.958,7.736L4.173,5.798C4.165,5.775,4.142,5.761,4.117,5.762S4.07,5.779,4.063,5.804l-0.43,1.484
		C3.632,7.294,3.631,7.3,3.631,7.306l0.09,2.911l-0.667,1.223c-0.008,0.015-0.009,0.032-0.003,0.048
		c0.005,0.017,0.018,0.029,0.033,0.035l1.012,0.394c0.007,0.002,0.014,0.004,0.021,0.004c0.01,0,0.019-0.003,0.027-0.008
		c0.016-0.008,0.026-0.022,0.029-0.04l0.281-1.405l0.506-2.698C4.964,7.758,4.962,7.746,4.958,7.736L4.958,7.736z"/>
	<path fill="#42413A" d="M15.209,5.108c-0.004-0.055-0.031-0.104-0.078-0.134c-0.369-0.238-0.867-0.359-1.48-0.359
		c-1.016,0-1.996,0.328-2.037,0.342c-0.049,0.017-0.086,0.054-0.104,0.102l-1.424,3.935c-0.021,0.057-0.009,0.12,0.029,0.167
		c0.033,0.038,0.08,0.06,0.129,0.06c0.01,0,0.021-0.001,0.03-0.003l0.675-0.123c0.062-0.011,0.111-0.056,0.131-0.115l1.016-3.24
		c0.207-0.062,0.787-0.219,1.367-0.219c0.363,0,0.662,0.062,0.887,0.182l0.066,2.565c0.002,0.049,0.023,0.095,0.062,0.126
		c0.037,0.031,0.088,0.044,0.137,0.035l0.605-0.11c0.082-0.015,0.143-0.09,0.139-0.174L15.209,5.108L15.209,5.108z"/>
	<path fill="#3ADDD1" d="M14.627,5.541L14.576,5.51c-0.277-0.18-0.652-0.271-1.113-0.271c-0.768,0-1.508,0.248-1.539,0.258
		l-0.053,0.019l-1.115,3.557l3.943-0.717L14.627,5.541z"/>
	<path fill="#B0F1ED" d="M12.225,5.801c-0.449,0.762-0.645,1.992-0.645,1.992l1.699-2.285C12.811,5.527,12.352,5.585,12.225,5.801z"
		/>
	<path fill="#CE9905" d="M14.584,8.262L10.92,8.929l-0.076,0.242l3.746-0.682L14.584,8.262z"/>
	<path fill="#E8B30A" d="M15.621,7.882c-0.016-0.012-0.033-0.016-0.051-0.013l-5.317,1.12l-2.34-1.394
		C7.908,7.593,7.902,7.59,7.895,7.589L4.298,6.802c-0.02-0.004-0.041,0.002-0.055,0.017C4.23,6.834,4.224,6.854,4.23,6.874
		l0.168,0.619c0.007,0.022,0.027,0.04,0.051,0.042l0.553,0.056l2.84,1.225l1.171,2.119c0.01,0.016,0.024,0.026,0.044,0.029
		l0.993,0.22c0.008,0.004,0.017,0.006,0.026,0.006h4.553c0.008,0,0.014-0.002,0.021-0.005l0.955-0.393
		c0.021-0.01,0.037-0.03,0.037-0.055v-2.81C15.643,7.909,15.633,7.893,15.621,7.882L15.621,7.882z"/>
	<path fill="#42413A" d="M10.131,13.136c0,0.725-0.587,1.312-1.312,1.312s-1.312-0.587-1.312-1.312s0.587-1.312,1.312-1.312
		S10.131,12.411,10.131,13.136z"/>
	<path fill="#8E8D7C" d="M9.532,13.136c0,0.394-0.318,0.712-0.712,0.712s-0.712-0.318-0.712-0.712s0.318-0.712,0.712-0.712
		S9.532,12.742,9.532,13.136z"/>
	<path fill="#42413A" d="M16.914,13.136c0,0.725-0.588,1.312-1.312,1.312s-1.311-0.587-1.311-1.312s0.586-1.312,1.311-1.312
		S16.914,12.411,16.914,13.136z"/>
	<path fill="#8E8D7C" d="M16.314,13.136c0,0.394-0.32,0.712-0.713,0.712s-0.711-0.318-0.711-0.712s0.318-0.712,0.711-0.712
		S16.314,12.742,16.314,13.136z"/>
	<path fill="#CC9805" d="M4.445,7.278c0,0.13-0.104,0.234-0.234,0.234c-0.129,0-0.234-0.104-0.234-0.234
		c0-0.129,0.105-0.234,0.234-0.234C4.34,7.044,4.445,7.149,4.445,7.278z"/>
	<path fill="#CC9805" d="M8.104,8.15c0,0.13-0.105,0.234-0.234,0.234c-0.13,0-0.234-0.104-0.234-0.234
		c0-0.129,0.104-0.234,0.234-0.234C7.999,7.916,8.104,8.021,8.104,8.15z"/>
	<path fill="#CC9805" d="M4.379,10.156c0,0.129-0.104,0.234-0.234,0.234c-0.129,0-0.234-0.105-0.234-0.234
		c0-0.13,0.105-0.234,0.234-0.234C4.275,9.922,4.379,10.026,4.379,10.156z"/>
</g>
</svg>
