<?xml version="1.0" encoding="utf-8"?>
<!-- Generator: Adobe Illustrator 16.0.0, SVG Export Plug-In . SVG Version: 6.00 Build 0)  -->
<!DOCTYPE svg PUBLIC "-//W3C//DTD SVG 1.1//EN" "http://www.w3.org/Graphics/SVG/1.1/DTD/svg11.dtd">
<svg version="1.1" id="Layer_1" xmlns="http://www.w3.org/2000/svg" xmlns:xlink="http://www.w3.org/1999/xlink" x="0px" y="0px"
	 width="20px" height="20px" viewBox="0 0 20 20" enable-background="new 0 0 20 20" xml:space="preserve">
<g>
	<path fill="#337180" d="M10,0.31C4.648,0.31,0.31,4.647,0.31,10c0,5.352,4.339,9.69,9.689,9.69c5.352,0,9.69-4.339,9.69-9.69
		C19.689,4.647,15.352,0.31,10,0.31z"/>
	<path fill="#C0C8C9" d="M17.098,5.827c0.002-0.016-0.004-0.03-0.014-0.042L16.25,4.798c-0.018-0.021-0.047-0.026-0.07-0.014
		L6.27,9.909C6.251,9.92,6.239,9.939,6.24,9.961l0.075,4.291c0.001,0.021,0.014,0.042,0.034,0.051l0.342,0.151l0.517,0.3
		l0.014-0.546l0.599-0.043l0.057-0.537l0.584,0.015l0.038-0.513l0.631,0.066l0.02-0.574l0.569,0.005l-0.009-0.589l0.621,0.119
		l0.005-0.561l0.627,0.043l0.041-0.551l0.514,0.058v-0.579l0.693,0.052v-0.56l0.559-0.005l0.01-0.508l0.627-0.01l0.006-0.503
		l0.564-0.009l0.051-0.551l0.637,0.043L14.635,7.91l0.607,0.043l0.016-0.518l0.645,0.057l-0.004-0.503l0.574-0.015L16.516,6.4
		l0.588,0.015L17.098,5.827L17.098,5.827z"/>
	<path fill="#D7DBDB" d="M16.25,4.798c-0.018-0.021-0.047-0.026-0.07-0.014L6.27,9.909C6.25,9.92,6.239,9.939,6.239,9.961
		l0.536,2.092l9.838-6.824l-0.365-0.431H16.25z"/>
	<path fill="#DD891B" d="M7.045,11.835L6.342,9.898C6.335,9.879,6.319,9.864,6.298,9.86c-0.002,0-0.028-0.005-0.069-0.005
		c-0.125,0-0.426,0.088-0.593,0.501c-0.15,0.373-0.383,0.429-0.508,0.429c-0.043,0-0.07-0.007-0.07-0.007
		c-0.002-0.001-0.005-0.002-0.008-0.002c-0.063-0.007-0.128-0.011-0.19-0.011c-0.809,0-1.272,0.6-1.366,0.733
		c-0.331,0.018-0.536,0.107-0.612,0.267c-0.106,0.228,0.096,0.495,0.104,0.507c0.01,0.013,0.023,0.021,0.039,0.022
		c0.281,0.031,0.595,0.171,0.68,0.211c0.149,0.521,0.691,1.366,0.812,1.551c-0.144,0.203-0.24,0.763-0.251,0.83
		c-0.002,0.007-0.001,0.015,0,0.021c0.056,0.26,0.199,0.314,0.31,0.314c0.188,0,0.382-0.162,0.391-0.169
		c0.006-0.005,0.01-0.011,0.014-0.018c0.053-0.104,0.256-0.202,0.341-0.235c0.772-0.042,1.085-0.499,1.099-0.519
		c0.003-0.005,0.006-0.011,0.007-0.016l0.619-2.398C7.049,11.857,7.048,11.846,7.045,11.835L7.045,11.835z M5.821,13.618
		l-0.693,0.23c-0.01,0.004-0.019,0.005-0.027,0.005c-0.031,0-0.061-0.018-0.075-0.046l-0.873-1.695
		c-0.021-0.041-0.007-0.092,0.034-0.113l0.768-0.339c0.022-0.013,0.049-0.015,0.073-0.005s0.042,0.03,0.05,0.056l0.799,1.802
		C5.888,13.557,5.865,13.603,5.821,13.618L5.821,13.618z"/>
	<path fill="#EFA645" d="M7.045,11.835L6.342,9.898C6.335,9.879,6.319,9.864,6.298,9.86c-0.002,0-0.028-0.005-0.069-0.005
		c-0.125,0-0.426,0.088-0.593,0.501c-0.15,0.373-0.383,0.429-0.508,0.429c-0.043,0-0.07-0.007-0.07-0.007
		c-0.002-0.001-0.005-0.002-0.008-0.002c-0.063-0.007-0.128-0.011-0.19-0.011c-0.809,0-1.272,0.6-1.366,0.733
		c-0.331,0.018-0.536,0.107-0.612,0.267c-0.106,0.228,0.096,0.495,0.104,0.507c0.01,0.013,0.023,0.021,0.039,0.022
		c0.281,0.031,0.595,0.171,0.68,0.211c0.105,0.369,0.408,0.899,0.618,1.244l0.495-0.344l-0.666-1.294
		c-0.021-0.041-0.007-0.092,0.034-0.113l0.768-0.339c0.022-0.013,0.049-0.015,0.073-0.005s0.042,0.03,0.05,0.056l0.515,1.16
		l1.456-1.009C7.049,11.853,7.049,11.843,7.045,11.835L7.045,11.835z"/>
	<path fill="#B76B11" d="M6.776,12.147c0,0.093-0.076,0.169-0.17,0.169s-0.169-0.075-0.169-0.169s0.075-0.17,0.169-0.17
		S6.776,12.054,6.776,12.147z"/>
	<path fill="#CE8320" d="M6.385,10.415c0,0.094-0.076,0.17-0.17,0.17s-0.169-0.076-0.169-0.17c0-0.093,0.075-0.169,0.169-0.169
		S6.385,10.321,6.385,10.415z"/>
	<path fill="#B76B11" d="M6.385,13.879c0,0.094-0.076,0.169-0.17,0.169s-0.169-0.075-0.169-0.169s0.075-0.169,0.169-0.169
		S6.385,13.785,6.385,13.879z"/>
</g>
</svg>
