<?xml version="1.0" encoding="utf-8"?>
<!-- Generator: Adobe Illustrator 16.0.0, SVG Export Plug-In . SVG Version: 6.00 Build 0)  -->
<!DOCTYPE svg PUBLIC "-//W3C//DTD SVG 1.1//EN" "http://www.w3.org/Graphics/SVG/1.1/DTD/svg11.dtd">
<svg version="1.1" id="Layer_1" xmlns="http://www.w3.org/2000/svg" xmlns:xlink="http://www.w3.org/1999/xlink" x="0px" y="0px"
	 width="20px" height="20px" viewBox="0 0 20 20" enable-background="new 0 0 20 20" xml:space="preserve">
<g>
	<path fill="#EFC849" d="M19.69,10c0,5.351-4.338,9.69-9.69,9.69S0.31,15.353,0.31,10c0-5.352,4.338-9.69,9.69-9.69
		S19.69,4.647,19.69,10z"/>
	<path fill="#F5F5F5" d="M6.216,4.146c-0.361,0-0.653,0.293-0.653,0.653v10.457c0,0.361,0.293,0.654,0.653,0.654h7.518
		c0.36,0,0.652-0.293,0.652-0.654V7.172l-3.15-3.026L6.216,4.146L6.216,4.146z"/>
	<path fill="#E1E1E1" d="M14.386,7.172h-2.497c-0.36,0-0.651-0.292-0.651-0.653V4.146l3.15,3.026L14.386,7.172z"/>
	<path fill="#62C4B5" d="M12.998,8.881c-0.466,0.495-1.046,1.111-2.167,1.213c-0.363,0.034-1.072,0.217-1.496,0.327
		c-0.062,0.016-0.117,0.03-0.163,0.041c-1.025,0.262-1.507,0.482-2.141,1.626c-0.208,0.374-0.43,0.562-0.659,0.562
		c-0.006,0-0.01,0-0.014,0c-0.111-0.003-0.207-0.052-0.29-0.115v2.296c0,0.319,0.26,0.579,0.578,0.579h6.655
		c0.319,0,0.579-0.259,0.579-0.579V8.312C13.566,8.283,13.323,8.536,12.998,8.881L12.998,8.881z"/>
	<path fill="#42A392" d="M13.007,8.695c-0.084-0.07-0.189-0.114-0.307-0.114c-0.266,0-0.479,0.215-0.479,0.479
		c0,0.114,0.041,0.217,0.106,0.3c-0.368,0.298-0.839,0.553-1.506,0.614c-0.018,0.002-0.04,0.005-0.059,0.007
		c-0.066-0.185-0.242-0.317-0.451-0.317c-0.265,0-0.479,0.214-0.479,0.479c0,0.009,0.002,0.018,0.003,0.027
		c-0.193,0.047-0.381,0.096-0.53,0.135c-0.062,0.016-0.116,0.03-0.163,0.042c-0.347,0.088-0.635,0.175-0.891,0.292
		c-0.088-0.098-0.214-0.16-0.356-0.16c-0.265,0-0.479,0.215-0.479,0.479c0,0.091,0.027,0.176,0.071,0.249
		c-0.188,0.209-0.369,0.475-0.563,0.822c-0.188,0.337-0.376,0.507-0.562,0.501c-0.114-0.004-0.215-0.074-0.295-0.155v0.162
		c0.082,0.064,0.18,0.112,0.289,0.115c0.005,0,0.01,0,0.015,0c0.229,0,0.451-0.188,0.659-0.562c0.185-0.333,0.356-0.586,0.532-0.786
		c0.086,0.082,0.203,0.134,0.332,0.134c0.265,0,0.479-0.215,0.479-0.479c0-0.079-0.021-0.151-0.055-0.218
		c0.243-0.109,0.519-0.191,0.852-0.276c0.047-0.012,0.103-0.026,0.163-0.042c0.147-0.039,0.332-0.086,0.522-0.133
		c0.062,0.192,0.24,0.331,0.454,0.331c0.265,0,0.479-0.214,0.479-0.479c0-0.013-0.003-0.026-0.004-0.04
		c0.015-0.002,0.03-0.005,0.044-0.006c0.707-0.064,1.199-0.335,1.583-0.648c0.08,0.059,0.179,0.094,0.284,0.094
		c0.266,0,0.479-0.215,0.479-0.479c0-0.103-0.033-0.197-0.088-0.275c0.279-0.293,0.507-0.498,0.789-0.472V8.188
		c-0.33-0.025-0.581,0.204-0.872,0.509L13.007,8.695z"/>
	<path fill="#A2D8D4" d="M7.005,13.961V7.314H6.771v0.75H6.46v0.247h0.311v0.491H6.46v0.246h0.311V9.54H6.46v0.247h0.311v0.492H6.46
		v0.247h0.311v0.492H6.46v0.246h0.311v0.491H6.46v0.247h0.311v0.491H6.46v0.248h0.311v0.491H6.46v0.247h0.311v0.479H6.218v0.234
		h0.553v0.568h0.234v-0.568H7.5v0.312h0.247v-0.312h0.491v0.312h0.247v-0.312h0.49v0.312h0.247v-0.312h0.491v0.312h0.247v-0.312
		h0.492v0.312H10.7v-0.312h0.492v0.312h0.246v-0.312h0.491v0.312h0.248v-0.312h0.49v0.312h0.247v-0.312h0.751V13.96L7.005,13.961
		L7.005,13.961z"/>
</g>
</svg>
