<?xml version="1.0" encoding="utf-8"?>
<!-- Generator: Adobe Illustrator 16.0.0, SVG Export Plug-In . SVG Version: 6.00 Build 0)  -->
<!DOCTYPE svg PUBLIC "-//W3C//DTD SVG 1.1//EN" "http://www.w3.org/Graphics/SVG/1.1/DTD/svg11.dtd">
<svg version="1.1" id="Layer_1" xmlns="http://www.w3.org/2000/svg" xmlns:xlink="http://www.w3.org/1999/xlink" x="0px" y="0px"
	 width="20px" height="20px" viewBox="0 0 20 20" enable-background="new 0 0 20 20" xml:space="preserve">
<g>
	<path fill="#EFC849" d="M19.69,10c0,5.351-4.338,9.69-9.69,9.69S0.31,15.353,0.31,10c0-5.352,4.338-9.69,9.69-9.69
		S19.69,4.647,19.69,10z"/>
	<path fill="#F5F5F5" d="M6.214,4.146c-0.36,0-0.652,0.293-0.652,0.653v10.457c0,0.361,0.293,0.654,0.652,0.654h7.518
		c0.361,0,0.654-0.293,0.654-0.654V7.172l-3.15-3.026L6.214,4.146L6.214,4.146z"/>
	<path fill="#E1E1E1" d="M14.386,7.172h-2.497c-0.36,0-0.651-0.292-0.651-0.653V4.146l3.15,3.026L14.386,7.172z"/>
	<path fill="#DBF0F5" d="M6.178,12.917l0.944-0.949c0,0,0.505-0.59,0.928-0.615s0.879,0.562,0.879,0.562l0.697,0.694l0.113-0.113
		c0,0,0.41-0.48,0.755-0.5c0.344-0.021,0.714,0.456,0.714,0.456l0.371,0.37c0.059-0.066,0.367-0.396,0.631-0.413
		c0.295-0.017,0.611,0.39,0.611,0.39l0.946,0.943V7.895L6.178,7.91V12.917z"/>
	<path fill="#6CC077" d="M12.821,12.798c0,0-0.316-0.406-0.611-0.39c-0.264,0.017-0.572,0.348-0.631,0.413l-0.371-0.37
		c0,0-0.371-0.477-0.714-0.456c-0.344,0.02-0.755,0.5-0.755,0.5l-0.113,0.113l-0.697-0.694c0,0-0.456-0.587-0.879-0.562
		s-0.928,0.615-0.928,0.615l-0.944,0.949v1.82c0,0.037,0.004,0.071,0.011,0.106c0.006,0.028,0.015,0.057,0.024,0.085
		c0.045,0.122,0.13,0.224,0.24,0.289C6.538,15.269,6.636,15.3,6.74,15.3h6.466c0.092,0,0.176-0.023,0.253-0.062
		c0.131-0.067,0.231-0.183,0.278-0.325c0.011-0.026,0.018-0.056,0.022-0.084c0.006-0.029,0.011-0.06,0.011-0.092v-0.995
		L12.821,12.798L12.821,12.798z"/>
	<path fill="#67B8CB" d="M10.437,10.685c0.001-0.008,0.007-0.016,0.007-0.025c0-0.144-0.157-0.263-0.351-0.262
		c-0.025,0-0.048,0.008-0.072,0.011c-0.058-0.077-0.164-0.131-0.291-0.131c-0.164,0-0.294,0.089-0.324,0.206
		c-0.159,0.033-0.278,0.136-0.278,0.265c0,0.123,0.106,0.223,0.253,0.26C9.431,11.12,9.566,11.2,9.73,11.2
		c0.149,0,0.276-0.066,0.336-0.163c0.039,0.013,0.081,0.02,0.126,0.02c0.172,0,0.312-0.104,0.312-0.233
		C10.504,10.769,10.476,10.724,10.437,10.685L10.437,10.685z"/>
	<path fill="#67B8CB" d="M12.075,11.012c-0.002-0.006-0.006-0.011-0.006-0.019c0-0.104,0.111-0.188,0.249-0.188
		c0.019,0,0.035,0.006,0.051,0.008c0.041-0.055,0.117-0.094,0.207-0.094c0.117,0,0.21,0.062,0.23,0.146
		c0.114,0.022,0.199,0.096,0.199,0.187c0,0.087-0.076,0.159-0.18,0.186c-0.034,0.079-0.132,0.139-0.249,0.139
		c-0.107,0-0.197-0.047-0.24-0.115c-0.026,0.009-0.058,0.014-0.088,0.014c-0.123,0-0.221-0.072-0.221-0.164
		c0-0.039,0.02-0.071,0.047-0.101V11.012z"/>
</g>
</svg>
