<?xml version="1.0" encoding="utf-8"?>
<!-- Generator: Adobe Illustrator 16.0.0, SVG Export Plug-In . SVG Version: 6.00 Build 0)  -->
<!DOCTYPE svg PUBLIC "-//W3C//DTD SVG 1.1//EN" "http://www.w3.org/Graphics/SVG/1.1/DTD/svg11.dtd">
<svg version="1.1" id="Layer_1" xmlns="http://www.w3.org/2000/svg" xmlns:xlink="http://www.w3.org/1999/xlink" x="0px" y="0px"
	 width="20px" height="20px" viewBox="0 0 20 20" enable-background="new 0 0 20 20" xml:space="preserve">
<g>
	<path fill="#3CB881" d="M19.69,10c0,5.351-4.338,9.69-9.69,9.69S0.31,15.353,0.31,10c0-5.352,4.338-9.69,9.69-9.69
		S19.69,4.647,19.69,10z"/>
	<path fill="#CBBD7D" d="M15.155,4.812c0.228,0.228,0.25,0.571,0.052,0.77l-1.859,1.86c-0.198,0.198-0.543,0.175-0.77-0.053l0,0
		c-0.227-0.227-0.249-0.571-0.052-0.769l1.859-1.86C14.584,4.562,14.93,4.586,15.155,4.812L15.155,4.812z"/>
	<path fill="#C0B8AA" d="M14.276,5.534c-0.298-0.298-3.846-0.439-4.456,0.172l-6.004,6.003c-0.611,0.611-0.574,1.271,0.037,1.883
		l2.398,2.4c0.611,0.611,1.234,0.611,1.846,0l6.004-6.004C14.713,9.377,14.574,5.834,14.276,5.534L14.276,5.534z M12.225,7.741
		c-0.237-0.236-0.237-0.622,0-0.861c0.237-0.238,0.623-0.237,0.861,0c0.237,0.238,0.237,0.623,0,0.86
		C12.848,7.979,12.464,7.979,12.225,7.741L12.225,7.741z"/>
	<path fill="#E2DDD0" d="M14.126,5.519c-0.237-0.237-3.726-0.417-4.322,0.18l-5.896,5.896c-0.597,0.596-0.597,1.203,0,1.8
		l2.342,2.343c0.597,0.596,1.205,0.596,1.801,0l5.896-5.896C14.543,9.244,14.364,5.756,14.126,5.519z M12.114,7.649
		c-0.232-0.231-0.232-0.608,0-0.84c0.232-0.232,0.609-0.232,0.841,0c0.232,0.231,0.232,0.608,0,0.84
		C12.724,7.882,12.347,7.881,12.114,7.649z"/>
	<path fill="#EAE8E4" d="M12.728,6.669c0.084,0.028,0.161,0.073,0.228,0.141c0.232,0.231,0.232,0.608,0,0.84
		c-0.231,0.232-0.608,0.231-0.841,0c-0.075-0.075-0.123-0.166-0.149-0.262c-2.729,2.603-7.069,6.996-7.069,6.996l1.354,1.354
		c0.597,0.596,1.205,0.596,1.801,0l5.896-5.896c0.596-0.597,0.417-4.085,0.18-4.322c-0.058-0.057-0.602,0.408-1.4,1.15H12.728z"/>
	<path fill="#C0B8AA" d="M9.059,8.962c0.134,0.135,0.134,0.354,0,0.487l-3.246,3.245c-0.134,0.134-0.353,0.134-0.486,0l0,0
		c-0.134-0.135-0.134-0.354,0-0.486l3.245-3.247C8.706,8.827,8.925,8.827,9.059,8.962L9.059,8.962L9.059,8.962z"/>
	<path fill="#C0B8AA" d="M9.925,9.828c0.134,0.134,0.134,0.353,0,0.486l-3.246,3.247c-0.134,0.133-0.353,0.133-0.487,0l0,0
		c-0.134-0.135-0.134-0.354,0-0.486l3.246-3.247C9.571,9.694,9.79,9.694,9.925,9.828L9.925,9.828z"/>
	<path fill="#C0B8AA" d="M10.79,10.693c0.134,0.134,0.134,0.353,0,0.486l-3.246,3.247c-0.134,0.133-0.353,0.133-0.486,0l0,0
		c-0.135-0.136-0.135-0.354,0-0.487l3.246-3.246C10.438,10.56,10.656,10.56,10.79,10.693L10.79,10.693z"/>
	<path fill="#0EA24A" d="M16.202,15.136c0,1.288-1.045,2.333-2.334,2.333c-1.288,0-2.333-1.045-2.333-2.333
		c0-1.289,1.045-2.334,2.333-2.334C15.157,12.802,16.202,13.847,16.202,15.136z"/>
	<path fill="#FFFFFF" d="M15.437,15.128c0,0.203-0.165,0.368-0.369,0.368h-2.394c-0.204,0-0.367-0.165-0.367-0.368l0,0
		c0-0.203,0.163-0.367,0.367-0.367h2.394C15.271,14.761,15.437,14.925,15.437,15.128L15.437,15.128z"/>
	<path fill="#FFFFFF" d="M13.871,16.693c-0.203,0-0.367-0.163-0.367-0.367v-2.395c0-0.202,0.164-0.368,0.367-0.368l0,0
		c0.204,0,0.368,0.166,0.368,0.368v2.395C14.239,16.528,14.075,16.693,13.871,16.693L13.871,16.693z"/>
	<path fill="#F3F0ED" d="M12.543,6.394c-0.462,0-0.837,0.375-0.837,0.835c0,0.461,0.375,0.837,0.837,0.837s0.835-0.375,0.835-0.837
		C13.378,6.768,13.005,6.394,12.543,6.394z M12.543,7.822c-0.328,0-0.595-0.266-0.595-0.594c0-0.327,0.267-0.593,0.595-0.593
		c0.327,0,0.594,0.266,0.594,0.593C13.137,7.557,12.87,7.822,12.543,7.822z"/>
	<path fill="#DFD48A" d="M15.24,4.896c0.198,0.199,0.198,0.521,0,0.721l-1.869,1.868c-0.198,0.199-0.521,0.199-0.72,0l0,0
		c-0.199-0.198-0.199-0.521,0-0.72l1.869-1.869C14.719,4.698,15.042,4.698,15.24,4.896L15.24,4.896z"/>
</g>
</svg>
