<?xml version="1.0" encoding="utf-8"?>
<!-- Generator: Adobe Illustrator 16.0.0, SVG Export Plug-In . SVG Version: 6.00 Build 0)  -->
<!DOCTYPE svg PUBLIC "-//W3C//DTD SVG 1.1//EN" "http://www.w3.org/Graphics/SVG/1.1/DTD/svg11.dtd">
<svg version="1.1" id="Layer_1" xmlns="http://www.w3.org/2000/svg" xmlns:xlink="http://www.w3.org/1999/xlink" x="0px" y="0px"
	 width="20px" height="20px" viewBox="0 0 20 20" enable-background="new 0 0 20 20" xml:space="preserve">
<g>
	<path fill="#EFC849" d="M19.69,10c0,5.351-4.338,9.69-9.69,9.69S0.31,15.353,0.31,10c0-5.352,4.338-9.69,9.69-9.69
		S19.69,4.647,19.69,10z"/>
	<path fill="#F5F5F5" d="M6.216,4.146c-0.361,0-0.653,0.293-0.653,0.653v10.457c0,0.361,0.293,0.654,0.653,0.654h7.518
		c0.36,0,0.652-0.293,0.652-0.654V7.172l-3.15-3.026L6.216,4.146L6.216,4.146z"/>
	<path fill="#E1E1E1" d="M14.386,7.172h-2.497c-0.36,0-0.651-0.292-0.651-0.653V4.146l3.15,3.026L14.386,7.172z"/>
	<path fill="#5C9942" d="M7.882,8.918c0,0.124-0.1,0.224-0.223,0.224H6.574c-0.123,0-0.223-0.1-0.223-0.224v-1.17
		c0-0.123,0.1-0.224,0.223-0.224h1.085c0.123,0,0.223,0.101,0.223,0.224V8.918z"/>
	<path fill="#5C9942" d="M9.756,8.918c0,0.124-0.1,0.224-0.223,0.224H8.448c-0.123,0-0.223-0.1-0.223-0.224v-1.17
		c0-0.123,0.1-0.224,0.223-0.224h1.085c0.123,0,0.223,0.101,0.223,0.224V8.918z"/>
	<path fill="#5C9942" d="M11.668,8.918c0,0.124-0.099,0.224-0.223,0.224h-1.084c-0.124,0-0.224-0.1-0.224-0.224v-1.17
		c0-0.123,0.1-0.224,0.224-0.224h1.084c0.124,0,0.223,0.101,0.223,0.224V8.918z"/>
	<path fill="#5C9942" d="M13.562,8.918c0,0.124-0.098,0.224-0.223,0.224h-1.084c-0.123,0-0.223-0.1-0.223-0.224v-1.17
		c0-0.123,0.1-0.224,0.223-0.224h1.084c0.125,0,0.223,0.101,0.223,0.224V8.918z"/>
	<path fill="#6FBD44" d="M7.882,10.908c0,0.122-0.1,0.223-0.223,0.223H6.574c-0.123,0-0.223-0.101-0.223-0.223V9.736
		c0-0.124,0.1-0.224,0.223-0.224h1.085c0.123,0,0.223,0.1,0.223,0.224V10.908z"/>
	<path fill="#6FBD44" d="M9.756,10.908c0,0.122-0.1,0.223-0.223,0.223H8.448c-0.123,0-0.223-0.101-0.223-0.223V9.736
		c0-0.124,0.1-0.224,0.223-0.224h1.085c0.123,0,0.223,0.1,0.223,0.224V10.908z"/>
	<path fill="#6FBD44" d="M11.668,10.908c0,0.122-0.099,0.223-0.223,0.223h-1.084c-0.124,0-0.224-0.101-0.224-0.223V9.736
		c0-0.124,0.1-0.224,0.224-0.224h1.084c0.124,0,0.223,0.1,0.223,0.224V10.908z"/>
	<path fill="#6FBD44" d="M13.562,10.908c0,0.122-0.098,0.223-0.223,0.223h-1.084c-0.123,0-0.223-0.101-0.223-0.223V9.736
		c0-0.124,0.1-0.224,0.223-0.224h1.084c0.125,0,0.223,0.1,0.223,0.224V10.908z"/>
	<path fill="#6FBD44" d="M7.882,12.936c0,0.123-0.1,0.224-0.223,0.224H6.574c-0.123,0-0.223-0.101-0.223-0.224v-1.171
		c0-0.123,0.1-0.223,0.223-0.223h1.085c0.123,0,0.223,0.1,0.223,0.223V12.936z"/>
	<path fill="#6FBD44" d="M9.756,12.936c0,0.123-0.1,0.224-0.223,0.224H8.448c-0.123,0-0.223-0.101-0.223-0.224v-1.171
		c0-0.123,0.1-0.223,0.223-0.223h1.085c0.123,0,0.223,0.1,0.223,0.223V12.936z"/>
	<path fill="#6FBD44" d="M7.882,14.924c0,0.124-0.1,0.224-0.223,0.224H6.574c-0.123,0-0.223-0.1-0.223-0.224v-1.17
		c0-0.124,0.1-0.223,0.223-0.223h1.085c0.123,0,0.223,0.099,0.223,0.223V14.924z"/>
	<path fill="#6FBD44" d="M9.756,14.924c0,0.124-0.1,0.224-0.223,0.224H8.448c-0.123,0-0.223-0.1-0.223-0.224v-1.17
		c0-0.124,0.1-0.223,0.223-0.223h1.085c0.123,0,0.223,0.099,0.223,0.223V14.924z"/>
	<path fill="#357180" d="M10.8,13.171h-0.334c-0.167,0-0.301,0.134-0.303,0.299l0,0v0.002c0,0,0,0,0,0.002l0,0v1.662h0.938V13.47
		l0,0c-0.002-0.166-0.136-0.301-0.302-0.301V13.171z"/>
	<path fill="#357180" d="M12.327,12.742v-0.004l0,0c-0.005-0.163-0.138-0.294-0.301-0.294h-0.335c-0.164,0-0.297,0.131-0.301,0.294
		H11.39v2.398h0.939v-2.385c0-0.001,0-0.003,0-0.005c0-0.001,0-0.003,0-0.004L12.327,12.742z"/>
	<path fill="#357180" d="M13.552,11.944c0-0.002,0-0.002,0-0.002v-0.008h-0.003c-0.005-0.164-0.138-0.293-0.3-0.293h-0.335
		c-0.163,0-0.296,0.129-0.301,0.293h-0.001v3.202h0.939v-3.19C13.552,11.944,13.552,11.944,13.552,11.944z"/>
	<path fill="#357180" d="M10.164,14.958h3.385v0.191h-3.385V14.958z"/>
</g>
</svg>
