<?xml version="1.0" encoding="utf-8"?>
<!-- Generator: Adobe Illustrator 16.0.0, SVG Export Plug-In . SVG Version: 6.00 Build 0)  -->
<!DOCTYPE svg PUBLIC "-//W3C//DTD SVG 1.1//EN" "http://www.w3.org/Graphics/SVG/1.1/DTD/svg11.dtd">
<svg version="1.1" id="Layer_1" xmlns="http://www.w3.org/2000/svg" xmlns:xlink="http://www.w3.org/1999/xlink" x="0px" y="0px"
	 width="20px" height="20px" viewBox="0 0 20 20" enable-background="new 0 0 20 20" xml:space="preserve">
<g>
	<path fill="#EFC849" d="M19.69,10c0,5.351-4.338,9.69-9.69,9.69S0.31,15.353,0.31,10c0-5.352,4.338-9.69,9.69-9.69
		S19.69,4.647,19.69,10z"/>
	<path fill="#F5F5F5" d="M6.214,4.146c-0.36,0-0.652,0.293-0.652,0.653v10.457c0,0.361,0.293,0.654,0.652,0.654h7.518
		c0.361,0,0.654-0.294,0.654-0.654V7.172l-3.15-3.026L6.214,4.146L6.214,4.146z"/>
	<path fill="#E1E1E1" d="M14.386,7.172h-2.497c-0.361,0-0.653-0.293-0.653-0.653V4.146L14.386,7.172L14.386,7.172z"/>
	<path fill="#C9C9C8" d="M13.466,8.065c0,0.112-0.09,0.204-0.204,0.204H6.733c-0.112,0-0.204-0.092-0.204-0.204l0,0
		c0-0.113,0.092-0.204,0.204-0.204h6.528C13.376,7.861,13.466,7.952,13.466,8.065L13.466,8.065z"/>
	<path fill="#C9C9C8" d="M13.466,9.136c0,0.113-0.09,0.205-0.204,0.205H6.733c-0.112,0-0.204-0.092-0.204-0.205l0,0
		c0-0.112,0.092-0.204,0.204-0.204h6.528C13.376,8.932,13.466,9.023,13.466,9.136L13.466,9.136z"/>
	<path fill="#C9C9C8" d="M13.466,10.155c0,0.113-0.09,0.204-0.204,0.204H6.733c-0.112,0-0.204-0.091-0.204-0.204l0,0
		c0-0.112,0.092-0.203,0.204-0.203h6.528C13.376,9.952,13.466,10.043,13.466,10.155L13.466,10.155z"/>
	<path fill="#C9C9C8" d="M13.466,11.228c0,0.113-0.09,0.205-0.204,0.205H6.733c-0.112,0-0.204-0.092-0.204-0.205l0,0
		c0-0.113,0.092-0.203,0.204-0.203h6.528C13.376,11.024,13.466,11.114,13.466,11.228L13.466,11.228z"/>
	<path fill="#C9C9C8" d="M10.15,12.095H6.733c-0.112,0-0.204,0.091-0.204,0.203c0,0.114,0.092,0.205,0.204,0.205h3.417
		c0.113,0,0.204-0.091,0.204-0.205C10.354,12.186,10.264,12.095,10.15,12.095z"/>
	<path fill="#0EA24A" d="M16.065,14.95c0,1.289-1.045,2.333-2.334,2.333c-1.288,0-2.333-1.044-2.333-2.333
		c0-1.288,1.045-2.333,2.333-2.333C15.021,12.617,16.065,13.662,16.065,14.95z"/>
	<path fill="#FFFFFF" d="M13.704,15.486l-0.726-0.726c-0.144-0.144-0.378-0.144-0.521,0c-0.143,0.145-0.143,0.377,0,0.521
		l0.727,0.726c0.143,0.144,0.376,0.144,0.521,0C13.847,15.863,13.847,15.63,13.704,15.486z"/>
	<path fill="#FFFFFF" d="M15.072,14.16c-0.143-0.144-0.376-0.144-0.52,0l-1.343,1.343c-0.144,0.144-0.144,0.377,0,0.521
		c0.143,0.143,0.376,0.143,0.52,0l1.343-1.344C15.216,14.537,15.216,14.304,15.072,14.16z"/>
</g>
</svg>
