<?xml version="1.0" encoding="utf-8"?>
<!-- Generated by IcoMoon.io -->
<!DOCTYPE svg PUBLIC "-//W3C//DTD SVG 1.1//EN" "http://www.w3.org/Graphics/SVG/1.1/DTD/svg11.dtd">
<svg version="1.1" xmlns="http://www.w3.org/2000/svg" xmlns:xlink="http://www.w3.org/1999/xlink" width="20" height="20" viewBox="0 0 20 20">
<path fill="rgb(163, 213, 224)" d="M10 0.31c-5.352 0-9.691 4.338-9.691 9.691s4.339 9.69 9.691 9.69c5.352 0 9.69-4.339 9.69-9.69s-4.339-9.691-9.69-9.691z"></path>
<path fill="rgb(129, 178, 59)" d="M0.309 10c0 5.352 4.339 9.69 9.691 9.69s9.69-4.339 9.69-9.69h-19.381z"></path>
<path fill="rgb(100, 168, 13)" d="M14.708 11.003c-0 0.004-0 0.007-0 0.011 0-0 0.001-0 0.001-0-0-0.004-0-0.007-0-0.011z"></path>
<path fill="rgb(100, 168, 13)" d="M5.292 11.002c-0 0.002-0 0.004-0 0.006 0 0 0 0 0 0-0-0.002-0-0.004-0-0.006z"></path>
<path fill="rgb(234, 194, 24)" d="M10.063 7.357c-1.5 0-2.717-0.269-2.717 1.685s1.216 4.464 2.717 4.464 2.717-2.511 2.717-4.464c0-1.954-1.216-1.685-2.717-1.685z"></path>
<path fill="rgb(239, 201, 41)" d="M10.063 3.567c-1.873 0-3.39 0.994-3.39 2.948s1.518 3.201 3.39 3.201 3.39-1.247 3.39-3.201c0-1.954-1.518-2.948-3.39-2.948z"></path>
<path fill="rgb(239, 201, 41)" d="M8.98 2.865c-0.249 0.090 0.226 1.288 0.226 1.288 0.026-0.113 0.164-0.143 0.169-0.247 0.026-0.547-0.182-1.118-0.395-1.040z"></path>
<path fill="rgb(239, 201, 41)" d="M10.606 2.825c-0.187-0.068-0.426 0.457-0.371 0.989 0.011 0.109 0.139 0.056 0.167 0.177 0 0 0.43-1.085 0.205-1.167z"></path>
<path fill="rgb(239, 201, 41)" d="M9.819 2.6c-0.304-0.049-0.357 0.658 0.023 1.524 0 0 0.144-0.070 0.17-0.245 0.064-0.434 0.023-1.244-0.194-1.279z"></path>
<path fill="rgb(244, 235, 201)" d="M14.878 9.055l-0.035-0.055-0.632 1.306-0.969-2.316-1.011 1.053-0.8-0.674-0.674 1.558-0.969-1.053-0.632 0.758-0.758-1.39-0.548 1.39-0.969-0.842-0.716 0.505-0.758-0.505-0.263 0.152c-0.146 0.649-0.225 1.311-0.225 1.958 0 3.475 2.274 5.594 5.078 5.594s5.078-2.118 5.078-5.594c0-0.609-0.070-1.232-0.2-1.845z"></path>
<path fill="rgb(234, 175, 10)" d="M10.682 6.869c-0.015-0.021-0.039-0.034-0.065-0.034h-1.091c-0.026 0-0.051 0.013-0.065 0.035s-0.017 0.050-0.007 0.074l0.533 0.974c0.012 0.029 0.041 0.048 0.072 0.048h0.001c0.032-0 0.060-0.020 0.072-0.049l0.558-0.974c0.010-0.024 0.007-0.051-0.008-0.073z"></path>
<path fill="rgb(229, 186, 3)" d="M8.909 6.031c0 0.378-0.258 0.685-0.575 0.685s-0.575-0.307-0.575-0.685c0-0.378 0.258-0.685 0.575-0.685s0.575 0.307 0.575 0.685z"></path>
<path fill="rgb(71, 71, 71)" d="M8.804 6.031c0 0.313-0.207 0.566-0.461 0.566s-0.461-0.254-0.461-0.566c0-0.313 0.207-0.566 0.461-0.566s0.461 0.254 0.461 0.566z"></path>
<path fill="rgb(226, 226, 226)" d="M8.612 5.764c0 0.101-0.067 0.183-0.149 0.183s-0.149-0.082-0.149-0.183c0-0.101 0.067-0.183 0.149-0.183s0.149 0.082 0.149 0.183z"></path>
<path fill="rgb(229, 186, 3)" d="M12.331 6.031c0 0.378-0.258 0.685-0.575 0.685s-0.575-0.307-0.575-0.685c0-0.378 0.258-0.685 0.575-0.685s0.575 0.307 0.575 0.685z"></path>
<path fill="rgb(71, 71, 71)" d="M12.225 6.031c0 0.313-0.207 0.566-0.462 0.566s-0.462-0.254-0.462-0.566c0-0.313 0.207-0.566 0.462-0.566s0.462 0.254 0.462 0.566z"></path>
<path fill="rgb(226, 226, 226)" d="M12.034 5.764c0 0.101-0.067 0.183-0.149 0.183s-0.149-0.082-0.149-0.183c0-0.101 0.067-0.183 0.149-0.183s0.149 0.082 0.149 0.183z"></path>
</svg>
