<?xml version="1.0" encoding="utf-8"?>
<!-- Generated by IcoMoon.io -->
<!DOCTYPE svg PUBLIC "-//W3C//DTD SVG 1.1//EN" "http://www.w3.org/Graphics/SVG/1.1/DTD/svg11.dtd">
<svg version="1.1" xmlns="http://www.w3.org/2000/svg" xmlns:xlink="http://www.w3.org/1999/xlink" width="20" height="20" viewBox="0 0 20 20">
<path fill="rgb(163, 213, 224)" d="M10 0.31c-5.352 0-9.691 4.338-9.691 9.691s4.339 9.69 9.691 9.69c5.352 0 9.69-4.339 9.69-9.69s-4.339-9.691-9.69-9.691z"></path>
<path fill="rgb(129, 178, 59)" d="M0.309 10c0 5.352 4.339 9.69 9.691 9.69s9.69-4.339 9.69-9.69h-19.381z"></path>
<path fill="rgb(244, 218, 108)" d="M15.339 9.574c0 0-2.096 0.847-5.289 0.847s-5.388-0.847-5.388-0.847c-0.331 0-0.599 0.268-0.599 0.599 0 0 0.474 0.175 0.601 1.044s0.151 2.173 0.151 2.173c0 0.289 0.261 0.559 0.523 0.646 0 0 2.498 0.765 4.662 0.765s4.662-0.765 4.662-0.765c0.283-0.087 0.523-0.358 0.523-0.646 0 0 0.054-1.596 0.163-2.245s0.589-0.972 0.589-0.972c-0-0.331-0.268-0.599-0.599-0.599z"></path>
<path fill="rgb(226, 197, 75)" d="M15.339 9.574c0 0-2.096 0.847-5.289 0.847s-5.388-0.847-5.388-0.847c-0.331 0-0.599 0.268-0.599 0.599l0.039 0.223c0.516 0.255 2.803 0.942 5.955 0.942 3.14 0 5.338-0.679 5.842-0.939l0.039-0.225c0-0.331-0.268-0.599-0.599-0.599z"></path>
<path fill="rgb(239, 201, 41)" d="M8.095 9.549c-0.26-0.998-1.206-1.954-2.011-1.744s-1.165 1.506-0.905 2.503c0.26 0.998 1.071 1.436 1.876 1.226s1.3-0.988 1.040-1.986z"></path>
<path fill="rgb(232, 156, 146)" d="M6.084 7.805c-0.414 0.108-0.711 0.504-0.866 0.998 0 0 0.333 0.068 1.092-0.13s1.016-0.419 1.016-0.419c-0.376-0.356-0.828-0.557-1.242-0.449z"></path>
<path fill="rgb(221, 44, 82)" d="M6.871 10.825c-0.541 0.141-1.022 0.277-1.412 0.111 0.375 0.545 0.987 0.758 1.597 0.599s1.041-0.643 1.102-1.302c-0.259 0.336-0.746 0.451-1.287 0.592z"></path>
<path fill="rgb(100, 168, 13)" d="M7.271 8.203c-0.23 0.133-0.553 0.284-0.98 0.396s-0.782 0.137-1.048 0.132c-0.020 0.057-0.038 0.115-0.054 0.175 0.328 0.018 0.729-0.020 1.148-0.129s0.788-0.272 1.065-0.447c-0.043-0.044-0.087-0.086-0.132-0.126z"></path>
<path fill="rgb(100, 168, 13)" d="M5.356 10.767c0.051 0.095 0.107 0.181 0.17 0.26 0.566 0.108 2.176-0.311 2.617-0.682 0.016-0.099 0.023-0.202 0.021-0.31-0.37 0.359-2.311 0.864-2.809 0.731z"></path>
<path fill="rgb(206, 128, 118)" d="M7.825 8.895c-0.274 0.121-0.755 0.315-1.332 0.465-0.586 0.153-1.104 0.217-1.398 0.243-0.002 0.222 0.021 0.445 0.071 0.655 0.254-0.017 0.794-0.071 1.479-0.249 0.677-0.176 1.192-0.395 1.437-0.508-0.059-0.208-0.147-0.413-0.257-0.606z"></path>
<path fill="rgb(100, 168, 13)" d="M7.781 8.82c-0.277 0.122-0.748 0.309-1.31 0.456-0.57 0.148-1.076 0.213-1.373 0.241-0.002 0.047-0.003 0.093-0.002 0.14 0.318-0.031 0.832-0.1 1.41-0.25 0.569-0.148 1.049-0.337 1.345-0.465-0.022-0.041-0.046-0.081-0.070-0.121z"></path>
<path fill="rgb(100, 168, 13)" d="M8.108 9.601c0 0.001 0.001 0.002 0.001 0.003 0 0 0-0 0-0-0-0.001-0.001-0.002-0.001-0.003z"></path>
<path fill="rgb(100, 168, 13)" d="M5.193 10.36c0 0.001 0 0.001 0 0.002s0 0 0-0-0-0.001-0.001-0.002z"></path>
<path fill="rgb(100, 168, 13)" d="M8.095 9.549c-0.007-0.026-0.014-0.051-0.022-0.077-0.349 0.145-0.848 0.33-1.425 0.481-0.585 0.152-1.116 0.233-1.489 0.276 0.006 0.027 0.012 0.053 0.019 0.080 0.005 0.021 0.011 0.041 0.017 0.062 0.278-0.021 0.811-0.080 1.477-0.254 0.661-0.172 1.171-0.383 1.438-0.504-0.005-0.021-0.010-0.042-0.015-0.063z"></path>
<path fill="rgb(244, 208, 56)" d="M7.896 9.307c0 0.1-0.081 0.181-0.181 0.181s-0.181-0.081-0.181-0.181c0-0.1 0.081-0.181 0.181-0.181s0.181 0.081 0.181 0.181z"></path>
<path fill="rgb(244, 208, 56)" d="M7.349 9.514c0 0.1-0.081 0.181-0.181 0.181s-0.181-0.081-0.181-0.181c0-0.1 0.081-0.181 0.181-0.181s0.181 0.081 0.181 0.181z"></path>
<path fill="rgb(244, 208, 56)" d="M6.754 9.682c0 0.1-0.081 0.181-0.181 0.181s-0.181-0.081-0.181-0.181c0-0.1 0.081-0.181 0.181-0.181s0.181 0.081 0.181 0.181z"></path>
<path fill="rgb(244, 208, 56)" d="M5.554 9.917c0 0.1-0.081 0.181-0.181 0.181s-0.181-0.081-0.181-0.181c0-0.1 0.081-0.181 0.181-0.181s0.181 0.081 0.181 0.181z"></path>
<path fill="rgb(244, 208, 56)" d="M6.132 9.831c0 0.1-0.081 0.181-0.181 0.181s-0.181-0.081-0.181-0.181c0-0.1 0.081-0.181 0.181-0.181s0.181 0.081 0.181 0.181z"></path>
<path fill="rgb(237, 43, 136)" d="M14.284 8.763c-0.775-0.202-1.685 0.718-1.935 1.678s0.226 1.709 1.001 1.911c0.775 0.202 1.555-0.22 1.805-1.18s-0.096-2.207-0.871-2.409z"></path>
<path fill="rgb(43, 175, 226)" d="M14.284 8.763c-0.399-0.104-0.833 0.089-1.196 0.432 0 0 0.248 0.213 0.978 0.403s1.050 0.125 1.050 0.125c-0.149-0.476-0.434-0.857-0.833-0.961z"></path>
<path fill="rgb(43, 175, 226)" d="M13.527 11.669c-0.521-0.136-0.989-0.247-1.238-0.57 0.059 0.634 0.474 1.1 1.060 1.253s1.176-0.052 1.537-0.577c-0.375 0.161-0.838 0.029-1.359-0.106z"></path>
<path fill="rgb(100, 168, 13)" d="M15.094 9.654c-0.256 0.004-0.598-0.020-1.009-0.127s-0.722-0.252-0.943-0.381c-0.043 0.038-0.086 0.079-0.127 0.122 0.267 0.169 0.621 0.325 1.025 0.43s0.79 0.141 1.105 0.124c-0.015-0.057-0.032-0.113-0.051-0.168z"></path>
<path fill="rgb(100, 168, 13)" d="M12.282 10.909c-0.002 0.103 0.005 0.203 0.021 0.298 0.425 0.356 1.974 0.759 2.519 0.656 0.060-0.076 0.115-0.159 0.163-0.25-0.479 0.128-2.347-0.359-2.703-0.704z"></path>
<path fill="rgb(43, 175, 226)" d="M13.89 10.259c-0.555-0.145-1.018-0.331-1.282-0.448-0.106 0.185-0.191 0.383-0.247 0.583 0.236 0.109 0.731 0.319 1.383 0.489 0.659 0.171 1.178 0.224 1.423 0.24 0.048-0.203 0.070-0.417 0.068-0.631-0.283-0.025-0.781-0.087-1.345-0.234z"></path>
<path fill="rgb(100, 168, 13)" d="M15.233 10.41c-0.286-0.027-0.773-0.089-1.322-0.232-0.541-0.141-0.993-0.321-1.26-0.438-0.023 0.038-0.046 0.077-0.068 0.117 0.285 0.124 0.747 0.305 1.295 0.447 0.556 0.145 1.051 0.211 1.357 0.241 0-0.045-0-0.090-0.002-0.135z"></path>
<path fill="rgb(100, 168, 13)" d="M12.336 10.494c0 0 0 0 0 0 0-0.001 0.001-0.002 0.001-0.003-0 0.001-0.001 0.002-0.001 0.003z"></path>
<path fill="rgb(100, 168, 13)" d="M15.141 11.223c0 0 0 0 0 0s0-0.001 0-0.002c-0 0.001-0 0.001-0.001 0.002z"></path>
<path fill="rgb(100, 168, 13)" d="M13.741 10.829c-0.556-0.145-1.036-0.323-1.371-0.462-0.007 0.025-0.014 0.049-0.021 0.074-0.005 0.020-0.010 0.041-0.015 0.061 0.257 0.117 0.748 0.32 1.384 0.485 0.64 0.167 1.153 0.224 1.421 0.244 0.006-0.020 0.011-0.039 0.016-0.059 0.007-0.025 0.013-0.051 0.019-0.077-0.359-0.041-0.869-0.119-1.433-0.266z"></path>
<path fill="rgb(244, 208, 56)" d="M12.889 10.208c0 0.096-0.078 0.174-0.174 0.174s-0.174-0.078-0.174-0.174c0-0.096 0.078-0.174 0.174-0.174s0.174 0.078 0.174 0.174z"></path>
<path fill="rgb(244, 208, 56)" d="M13.415 10.407c0 0.096-0.078 0.174-0.174 0.174s-0.174-0.078-0.174-0.174c0-0.096 0.078-0.174 0.174-0.174s0.174 0.078 0.174 0.174z"></path>
<path fill="rgb(244, 208, 56)" d="M13.988 10.569c0 0.096-0.078 0.174-0.174 0.174s-0.174-0.078-0.174-0.174c0-0.096 0.078-0.174 0.174-0.174s0.174 0.078 0.174 0.174z"></path>
<path fill="rgb(244, 208, 56)" d="M15.143 10.795c0 0.096-0.078 0.174-0.174 0.174s-0.174-0.078-0.174-0.174c0-0.096 0.078-0.174 0.174-0.174s0.174 0.078 0.174 0.174z"></path>
<path fill="rgb(244, 208, 56)" d="M14.586 10.712c0 0.096-0.078 0.174-0.174 0.174s-0.174-0.078-0.174-0.174c0-0.096 0.078-0.174 0.174-0.174s0.174 0.078 0.174 0.174z"></path>
<path fill="rgb(66, 146, 165)" d="M11.54 9.020c-0.114-1.033-0.918-2.123-1.751-2.031s-1.38 1.332-1.266 2.364c0.114 1.033 0.859 1.587 1.692 1.495s1.439-0.796 1.325-1.828z"></path>
<path fill="rgb(255, 89, 51)" d="M9.218 7.954c0 0.099-0.080 0.179-0.179 0.179s-0.179-0.080-0.179-0.179c0-0.099 0.080-0.179 0.179-0.179s0.179 0.080 0.179 0.179z"></path>
<path fill="rgb(94, 214, 234)" d="M9.769 7.894c0 0.099-0.080 0.179-0.179 0.179s-0.179-0.080-0.179-0.179c0-0.099 0.080-0.179 0.179-0.179s0.179 0.080 0.179 0.179z"></path>
<path fill="rgb(234, 191, 12)" d="M10.351 7.829c0 0.099-0.080 0.179-0.179 0.179s-0.179-0.080-0.179-0.179c0-0.099 0.080-0.179 0.179-0.179s0.179 0.080 0.179 0.179z"></path>
<path fill="rgb(94, 214, 234)" d="M10.933 7.765c0 0.099-0.080 0.179-0.179 0.179s-0.179-0.080-0.179-0.179c0-0.099 0.080-0.179 0.179-0.179s0.179 0.080 0.179 0.179z"></path>
<path fill="rgb(255, 89, 51)" d="M9.475 10.282c0 0.099-0.080 0.179-0.179 0.179s-0.179-0.080-0.179-0.179c0-0.099 0.080-0.179 0.179-0.179s0.179 0.080 0.179 0.179z"></path>
<path fill="rgb(255, 216, 51)" d="M10.026 10.221c0 0.099-0.080 0.179-0.179 0.179s-0.179-0.080-0.179-0.179c0-0.099 0.080-0.179 0.179-0.179s0.179 0.080 0.179 0.179z"></path>
<path fill="rgb(149, 209, 55)" d="M10.608 10.157c0 0.099-0.080 0.179-0.179 0.179s-0.179-0.080-0.179-0.179c0-0.099 0.080-0.179 0.179-0.179s0.179 0.080 0.179 0.179z"></path>
<path fill="rgb(244, 71, 154)" d="M11.19 10.092c0 0.099-0.080 0.179-0.179 0.179s-0.179-0.080-0.179-0.179c0-0.099 0.080-0.179 0.179-0.179s0.179 0.080 0.179 0.179z"></path>
<path fill="rgb(149, 209, 55)" d="M9.347 9.118c0 0.099-0.080 0.179-0.179 0.179s-0.179-0.080-0.179-0.179c0-0.099 0.080-0.179 0.179-0.179s0.179 0.080 0.179 0.179z"></path>
<path fill="rgb(244, 71, 154)" d="M9.898 9.057c0 0.099-0.080 0.179-0.179 0.179s-0.179-0.080-0.179-0.179c0-0.099 0.080-0.179 0.179-0.179s0.179 0.080 0.179 0.179z"></path>
<path fill="rgb(255, 216, 51)" d="M10.48 8.993c0 0.099-0.080 0.179-0.179 0.179s-0.179-0.080-0.179-0.179c0-0.099 0.080-0.179 0.179-0.179s0.179 0.080 0.179 0.179z"></path>
<path fill="rgb(255, 89, 51)" d="M11.061 8.929c0 0.099-0.080 0.179-0.179 0.179s-0.179-0.080-0.179-0.179c0-0.099 0.080-0.179 0.179-0.179s0.179 0.080 0.179 0.179z"></path>
<path fill="rgb(255, 216, 51)" d="M9.558 8.506c0 0.099-0.080 0.179-0.179 0.179s-0.179-0.080-0.179-0.179c0-0.099 0.080-0.179 0.179-0.179s0.179 0.080 0.179 0.179z"></path>
<path fill="rgb(206, 0, 128)" d="M8.976 8.57c0 0.099-0.080 0.179-0.179 0.179s-0.179-0.080-0.179-0.179c0-0.099 0.080-0.179 0.179-0.179s0.179 0.080 0.179 0.179z"></path>
<path fill="rgb(149, 209, 55)" d="M10.109 8.445c0 0.099-0.080 0.179-0.179 0.179s-0.179-0.080-0.179-0.179c0-0.099 0.080-0.179 0.179-0.179s0.179 0.080 0.179 0.179z"></path>
<path fill="rgb(244, 71, 154)" d="M10.691 8.381c0 0.099-0.080 0.179-0.179 0.179s-0.179-0.080-0.179-0.179c0-0.099 0.080-0.179 0.179-0.179s0.179 0.080 0.179 0.179z"></path>
<path fill="rgb(244, 71, 154)" d="M9.98 7.281c0 0.099-0.080 0.179-0.179 0.179s-0.179-0.080-0.179-0.179c0-0.099 0.080-0.179 0.179-0.179s0.179 0.080 0.179 0.179z"></path>
<path fill="rgb(255, 216, 51)" d="M11.272 8.317c0 0.099-0.080 0.179-0.179 0.179s-0.179-0.080-0.179-0.179c0-0.099 0.080-0.179 0.179-0.179s0.179 0.080 0.179 0.179z"></path>
<path fill="rgb(94, 214, 234)" d="M9.686 9.669c0 0.099-0.080 0.179-0.179 0.179s-0.179-0.080-0.179-0.179c0-0.099 0.080-0.179 0.179-0.179s0.179 0.080 0.179 0.179z"></path>
<path fill="rgb(255, 216, 51)" d="M9.104 9.734c0 0.099-0.080 0.179-0.179 0.179s-0.179-0.080-0.179-0.179c0-0.099 0.080-0.179 0.179-0.179s0.179 0.080 0.179 0.179z"></path>
<path fill="rgb(206, 0, 128)" d="M10.237 9.609c0 0.099-0.080 0.179-0.179 0.179s-0.179-0.080-0.179-0.179c0-0.099 0.080-0.179 0.179-0.179s0.179 0.080 0.179 0.179z"></path>
<path fill="rgb(234, 191, 12)" d="M10.819 9.544c0 0.099-0.080 0.179-0.179 0.179s-0.179-0.080-0.179-0.179c0-0.099 0.080-0.179 0.179-0.179s0.179 0.080 0.179 0.179z"></path>
<path fill="rgb(234, 191, 12)" d="M8.764 9.163c-0.011-0.098-0.099-0.169-0.198-0.158-0.021 0.002-0.040 0.008-0.058 0.017-0.002 0.111 0.002 0.221 0.014 0.329 0.026 0.010 0.054 0.014 0.083 0.011 0.098-0.011 0.169-0.099 0.158-0.198z"></path>
<path fill="rgb(94, 214, 234)" d="M11.54 9.020c-0.012-0.111-0.033-0.223-0.060-0.334-0.012-0.001-0.023-0.001-0.035 0-0.098 0.011-0.169 0.099-0.159 0.198s0.1 0.169 0.198 0.159c0.020-0.002 0.039-0.008 0.057-0.016-0-0.002-0-0.005-0.001-0.007z"></path>
<path fill="rgb(255, 216, 51)" d="M9.428 7.322c-0.007-0.068-0.051-0.122-0.11-0.146-0.085 0.061-0.165 0.135-0.239 0.22 0.025 0.080 0.104 0.134 0.191 0.124 0.098-0.011 0.169-0.099 0.158-0.198z"></path>
<path fill="rgb(206, 0, 128)" d="M10.284 7.067c-0.054 0.036-0.087 0.1-0.080 0.169 0.011 0.098 0.099 0.169 0.198 0.158 0.089-0.010 0.155-0.083 0.159-0.169-0.089-0.065-0.182-0.118-0.277-0.158z"></path>
<path fill="rgb(234, 191, 12)" d="M9.814 10.814c-0.011-0.098-0.099-0.169-0.198-0.158-0.062 0.007-0.113 0.044-0.139 0.095 0.107 0.044 0.221 0.074 0.338 0.091 0-0.009 0-0.019-0.001-0.028z"></path>
<path fill="rgb(94, 214, 234)" d="M10.365 10.753c-0.011-0.098-0.099-0.169-0.198-0.158s-0.169 0.099-0.158 0.198c0.003 0.024 0.010 0.046 0.021 0.066 0.061 0 0.123-0.003 0.186-0.010 0.048-0.005 0.096-0.013 0.143-0.022 0.007-0.023 0.010-0.048 0.007-0.073z"></path>
<path fill="rgb(255, 89, 51)" d="M10.749 10.53c-0.098 0.011-0.169 0.099-0.158 0.198 0.001 0.010 0.003 0.020 0.006 0.030 0.111-0.042 0.215-0.096 0.311-0.162-0.037-0.046-0.096-0.072-0.159-0.065z"></path>
<path fill="rgb(149, 209, 55)" d="M11.401 9.48c0 0.099-0.080 0.179-0.179 0.179s-0.179-0.080-0.179-0.179c0-0.099 0.080-0.179 0.179-0.179s0.179 0.080 0.179 0.179z"></path>
<path fill="rgb(255, 216, 51)" d="M8.894 8.473c-0.849 0-1.537 1.187-1.537 2.238s0.688 1.693 1.537 1.693c0.849 0 1.537-0.641 1.537-1.693s-0.688-2.238-1.537-2.238z"></path>
<path fill="rgb(100, 168, 13)" d="M10.43 10.769c0 0 0 0 0 0 0-0.001 0-0.002 0-0.003 0 0.001-0 0.002-0 0.003z"></path>
<path fill="rgb(100, 168, 13)" d="M7.358 10.765c0 0.001 0 0.001-0 0.002s0 0 0 0-0-0.001-0-0.002z"></path>
<path fill="rgb(86, 183, 180)" d="M9.984 9.203c-0.032-0.050-0.066-0.099-0.102-0.145-0.053-0.034-0.114-0.033-0.173-0.009-0.101 0.041-0.159 0.134-0.099 0.283 0.044 0.11 0.216 0.298 0.317 0.257 0.095-0.039 0.092-0.273 0.056-0.386z"></path>
<path fill="rgb(239, 201, 41)" d="M10.218 9.656c-0.006 0.001-0.012 0.002-0.019 0.003 0.007 0.002 0.015 0.003 0.022 0.005-0.001-0.003-0.002-0.005-0.003-0.008z"></path>
<path fill="rgb(86, 183, 180)" d="M10.074 9.353c-0.076 0.082-0.139 0.191-0.103 0.255 0.014 0.025 0.042 0.040 0.077 0.048 0.040-0.013 0.095-0.010 0.15 0.002 0.006-0.001 0.013-0.002 0.019-0.003-0.043-0.105-0.091-0.206-0.144-0.303z"></path>
<path fill="rgb(86, 183, 180)" d="M10.221 9.664c-0.007-0.002-0.015-0.003-0.022-0.005-0.053 0.007-0.107 0.008-0.15-0.002-0.020 0.006-0.037 0.017-0.049 0.032-0.065 0.087 0.079 0.306 0.167 0.372 0.073 0.055 0.139 0.068 0.194 0.053-0.035-0.154-0.082-0.305-0.141-0.45z"></path>
<path fill="rgb(86, 183, 180)" d="M10.048 9.657c0.043 0.010 0.097 0.009 0.15 0.002-0.056-0.012-0.11-0.014-0.15-0.002z"></path>
<path fill="rgb(86, 183, 180)" d="M9.917 9.719c-0.108-0.015-0.23 0.216-0.246 0.325-0.023 0.159 0.056 0.236 0.164 0.251s0.205-0.037 0.227-0.196c0.017-0.117-0.037-0.365-0.145-0.381z"></path>
<path fill="rgb(86, 183, 180)" d="M9.892 9.635c-0.023-0.107-0.283-0.14-0.391-0.117-0.157 0.034-0.202 0.135-0.178 0.241s0.106 0.179 0.263 0.145c0.116-0.025 0.329-0.163 0.306-0.269z"></path>
<path fill="rgb(93, 201, 195)" d="M10.051 9.615c-0.022-0.055-0.087-0.081-0.145-0.057s-0.087 0.087-0.065 0.142 0.087 0.081 0.145 0.057c0.058-0.023 0.087-0.087 0.065-0.142z"></path>
<path fill="rgb(86, 183, 180)" d="M10.016 9.629c0.014 0.034-0.006 0.074-0.044 0.089s-0.080 0-0.094-0.033c-0.014-0.034 0.006-0.074 0.044-0.089s0.080-0 0.094 0.033z"></path>
<path fill="rgb(216, 136, 7)" d="M8.471 8.787c-0.079-0.011-0.149 0.028-0.165 0.144-0.012 0.086 0.029 0.267 0.108 0.278s0.167-0.159 0.178-0.239c0.016-0.117-0.042-0.172-0.121-0.183z"></path>
<path fill="rgb(234, 193, 21)" d="M8.437 9.022c-0.036-0.005-0.066 0.001-0.073 0.054s0.026 0.133 0.047 0.136c0.022 0.003 0.075-0.066 0.082-0.119s-0.020-0.067-0.056-0.071z"></path>
<path fill="rgb(216, 136, 7)" d="M8.696 9.094c-0.087-0-0.261 0.064-0.261 0.144s0.18 0.145 0.26 0.145c0.118 0 0.165-0.064 0.165-0.144s-0.047-0.145-0.165-0.145z"></path>
<path fill="rgb(234, 193, 21)" d="M8.561 9.171c-0.053-0-0.129 0.043-0.129 0.065s0.076 0.065 0.129 0.065c0.053 0 0.063-0.029 0.063-0.065s-0.010-0.065-0.063-0.065z"></path>
<path fill="rgb(216, 136, 7)" d="M8.661 9.48c-0.035-0.079-0.163-0.213-0.237-0.181s-0.060 0.223-0.028 0.297c0.047 0.108 0.125 0.125 0.198 0.093s0.113-0.101 0.066-0.209z"></path>
<path fill="rgb(234, 193, 21)" d="M8.536 9.387c-0.021-0.049-0.091-0.101-0.111-0.092s-0.029 0.095-0.008 0.144c0.021 0.049 0.052 0.046 0.085 0.032s0.056-0.035 0.034-0.084z"></path>
<path fill="rgb(216, 136, 7)" d="M8.361 9.288c-0.063-0.049-0.224 0.054-0.274 0.118-0.072 0.093-0.050 0.17 0.013 0.219s0.143 0.051 0.215-0.042c0.053-0.068 0.108-0.246 0.045-0.294z"></path>
<path fill="rgb(234, 193, 21)" d="M8.365 9.288c-0.018-0.014-0.098 0.020-0.13 0.062s-0.016 0.068 0.013 0.090c0.028 0.022 0.058 0.032 0.090-0.010s0.044-0.128 0.027-0.142z"></path>
<path fill="rgb(216, 136, 7)" d="M8.169 9.011c-0.112-0.035-0.177 0.013-0.201 0.089s0.002 0.152 0.115 0.187c0.083 0.026 0.268 0.016 0.292-0.060s-0.129-0.191-0.206-0.215z"></path>
<path fill="rgb(234, 193, 21)" d="M8.273 9.129c-0.051-0.016-0.069 0.009-0.080 0.043s-0.010 0.065 0.041 0.081c0.051 0.016 0.136-0.003 0.142-0.024s-0.053-0.085-0.104-0.1z"></path>
<path fill="rgb(244, 224, 40)" d="M8.412 9.182c0.045 0.006 0.077 0.046 0.071 0.089s-0.047 0.073-0.092 0.067c-0.045-0.006-0.077-0.046-0.071-0.089s0.047-0.073 0.092-0.067z"></path>
<path fill="rgb(226, 203, 35)" d="M8.408 9.211c0.030 0.004 0.051 0.029 0.048 0.055s-0.031 0.045-0.060 0.041c-0.030-0.004-0.051-0.029-0.048-0.055s0.031-0.045 0.060-0.041z"></path>
<path fill="rgb(226, 12, 124)" d="M8.831 10.471c-0.022-0.085-0.234-0.104-0.32-0.081-0.126 0.033-0.158 0.116-0.136 0.201s0.092 0.141 0.217 0.108c0.093-0.024 0.261-0.143 0.238-0.228z"></path>
<path fill="rgb(244, 71, 154)" d="M8.679 10.439c-0.057 0.015-0.059 0.049-0.049 0.088s0.029 0.067 0.086 0.052c0.057-0.015 0.126-0.083 0.119-0.106s-0.099-0.048-0.156-0.033z"></path>
<path fill="rgb(226, 12, 124)" d="M8.89 10.11c-0.049-0.12-0.136-0.142-0.217-0.108s-0.128 0.109-0.079 0.23c0.036 0.089 0.176 0.24 0.258 0.206s0.072-0.245 0.038-0.328z"></path>
<path fill="rgb(244, 71, 154)" d="M8.863 10.283c-0.022-0.054-0.056-0.053-0.093-0.037s-0.063 0.038-0.040 0.092c0.022 0.054 0.099 0.114 0.121 0.104s0.035-0.105 0.013-0.159z"></path>
<path fill="rgb(226, 12, 124)" d="M9.246 10.083c-0.064-0.061-0.152-0.073-0.242 0.021-0.067 0.069-0.149 0.257-0.085 0.319s0.254-0.033 0.315-0.097c0.090-0.094 0.075-0.181 0.012-0.243z"></path>
<path fill="rgb(244, 71, 154)" d="M9.062 10.27c-0.029-0.028-0.060-0.042-0.101 0s-0.064 0.136-0.047 0.153c0.018 0.017 0.11-0.010 0.151-0.053s0.025-0.073-0.003-0.1z"></path>
<path fill="rgb(226, 12, 124)" d="M9.255 10.414c-0.092-0.025-0.297-0.007-0.321 0.078s0.15 0.207 0.236 0.23c0.126 0.034 0.195-0.021 0.218-0.106s-0.009-0.168-0.134-0.202z"></path>
<path fill="rgb(244, 71, 154)" d="M9.089 10.457c-0.057-0.015-0.15 0.009-0.157 0.032-0.007 0.024 0.062 0.092 0.118 0.107s0.076-0.013 0.087-0.051c0.011-0.038 0.008-0.073-0.049-0.088z"></path>
<path fill="rgb(226, 12, 124)" d="M9.050 10.777c-0.009-0.095-0.097-0.281-0.185-0.273s-0.141 0.213-0.133 0.302c0.012 0.13 0.088 0.176 0.176 0.168s0.155-0.067 0.143-0.196z"></path>
<path fill="rgb(244, 71, 154)" d="M8.952 10.636c-0.005-0.058-0.061-0.138-0.085-0.135s-0.064 0.090-0.059 0.148c0.005 0.059 0.038 0.067 0.078 0.063s0.071-0.018 0.066-0.076z"></path>
<path fill="rgb(244, 71, 154)" d="M8.972 10.441c0.013 0.049-0.014 0.099-0.061 0.111s-0.095-0.017-0.108-0.066c-0.013-0.049 0.014-0.099 0.061-0.111s0.095 0.017 0.108 0.066z"></path>
<path fill="rgb(206, 128, 118)" d="M8.94 10.449c0.009 0.032-0.008 0.065-0.036 0.072s-0.059-0.012-0.067-0.045c-0.009-0.032 0.008-0.065 0.036-0.072s0.059 0.012 0.067 0.045z"></path>
<path fill="rgb(255, 255, 255)" d="M7.988 11.035c-0.062-0.152-0.171-0.179-0.274-0.137s-0.161 0.138-0.099 0.29c0.046 0.112 0.222 0.302 0.325 0.26s0.091-0.309 0.048-0.413z"></path>
<path fill="rgb(255, 255, 255)" d="M8.437 11.001c-0.080-0.077-0.191-0.092-0.305 0.026-0.084 0.087-0.188 0.325-0.107 0.402s0.32-0.041 0.398-0.122c0.114-0.118 0.095-0.228 0.015-0.306z"></path>
<path fill="rgb(255, 255, 255)" d="M8.449 11.417c-0.117-0.032-0.375-0.009-0.404 0.099s0.189 0.261 0.298 0.29c0.158 0.043 0.246-0.026 0.275-0.134s-0.011-0.212-0.169-0.255z"></path>
<path fill="rgb(255, 216, 51)" d="M7.848 11.634c-0.054 0.054-0.13 0.103-0.194 0.129 0.042 0.062 0.088 0.119 0.137 0.172-0.001-0.008-0.002-0.015-0.003-0.023-0.006-0.068 0.016-0.19 0.060-0.278z"></path>
<path fill="rgb(255, 255, 255)" d="M7.914 11.489c-0.028-0.108-0.295-0.131-0.403-0.102-0.014 0.004-0.027 0.008-0.040 0.013 0.048 0.133 0.11 0.254 0.184 0.363 0.063-0.026 0.14-0.074 0.194-0.129 0.016-0.033 0.036-0.062 0.058-0.080 0.010-0.022 0.013-0.044 0.008-0.065z"></path>
<path fill="rgb(255, 255, 255)" d="M8.19 11.875c-0.011-0.12-0.122-0.354-0.233-0.344-0.018 0.002-0.035 0.010-0.050 0.023-0.012 0.027-0.032 0.054-0.058 0.080-0.043 0.088-0.066 0.21-0.060 0.278 0.001 0.008 0.002 0.016 0.003 0.023 0.065 0.070 0.136 0.133 0.212 0.188 0.002-0 0.005-0 0.007-0 0.111-0.010 0.195-0.084 0.18-0.247z"></path>
<path fill="rgb(255, 255, 255)" d="M7.848 11.634c0.026-0.026 0.047-0.053 0.058-0.080-0.022 0.018-0.042 0.047-0.058 0.080z"></path>
<path fill="rgb(244, 224, 40)" d="M8.093 11.451c0.016 0.062-0.018 0.124-0.077 0.14s-0.119-0.022-0.136-0.084c-0.016-0.062 0.018-0.124 0.077-0.14s0.119 0.022 0.136 0.084z"></path>
<path fill="rgb(226, 203, 35)" d="M8.051 11.462c0.011 0.041-0.010 0.081-0.046 0.091s-0.074-0.016-0.085-0.056c-0.011-0.041 0.010-0.081 0.046-0.091s0.074 0.016 0.085 0.056z"></path>
<path fill="rgb(149, 209, 55)" d="M9.611 11.845c-0.023-0.085-0.234-0.104-0.32-0.081-0.126 0.033-0.158 0.116-0.136 0.201s0.092 0.141 0.217 0.108c0.093-0.024 0.261-0.143 0.238-0.228z"></path>
<path fill="rgb(125, 170, 46)" d="M9.458 11.813c-0.057 0.015-0.060 0.049-0.049 0.088s0.029 0.067 0.086 0.052 0.126-0.083 0.119-0.106c-0.006-0.024-0.099-0.048-0.156-0.033z"></path>
<path fill="rgb(149, 209, 55)" d="M9.67 11.484c-0.049-0.12-0.136-0.142-0.217-0.108s-0.128 0.109-0.079 0.23c0.036 0.089 0.176 0.24 0.257 0.206s0.072-0.245 0.038-0.328z"></path>
<path fill="rgb(125, 170, 46)" d="M9.643 11.657c-0.022-0.054-0.056-0.053-0.093-0.037s-0.062 0.038-0.040 0.092c0.022 0.054 0.099 0.114 0.121 0.104s0.035-0.105 0.013-0.159z"></path>
<path fill="rgb(149, 209, 55)" d="M10.026 11.457c-0.064-0.061-0.152-0.073-0.242 0.021-0.066 0.069-0.149 0.257-0.085 0.319s0.254-0.033 0.315-0.097c0.090-0.094 0.075-0.181 0.012-0.242z"></path>
<path fill="rgb(125, 170, 46)" d="M9.842 11.644c-0.029-0.028-0.060-0.042-0.101 0s-0.064 0.136-0.047 0.153c0.018 0.017 0.11-0.010 0.151-0.053s0.025-0.073-0.003-0.1z"></path>
<path fill="rgb(255, 216, 51)" d="M9.774 11.988c0.019 0.035 0.035 0.074 0.045 0.109 0.016-0.013 0.032-0.026 0.048-0.039-0.032-0.019-0.066-0.043-0.093-0.070z"></path>
<path fill="rgb(149, 209, 55)" d="M10.035 11.788c-0.092-0.025-0.297-0.007-0.321 0.078-0.004 0.015-0.002 0.030 0.004 0.046 0.020 0.020 0.039 0.047 0.056 0.076 0.027 0.026 0.061 0.051 0.093 0.070 0.085-0.072 0.162-0.154 0.23-0.246-0.018-0.010-0.038-0.018-0.063-0.025z"></path>
<path fill="rgb(149, 209, 55)" d="M9.774 11.988c-0.026-0.025-0.046-0.051-0.056-0.076-0.023-0.023-0.049-0.036-0.074-0.034-0.088 0.008-0.141 0.213-0.133 0.302 0.003 0.036 0.011 0.065 0.023 0.089 0.101-0.046 0.197-0.103 0.284-0.171-0.010-0.035-0.025-0.074-0.045-0.109z"></path>
<path fill="rgb(149, 209, 55)" d="M9.718 11.912c0.010 0.025 0.030 0.052 0.056 0.076-0.016-0.030-0.035-0.056-0.056-0.076z"></path>
<path fill="rgb(125, 170, 46)" d="M9.732 12.010c-0.005-0.058-0.061-0.138-0.085-0.136-0.025 0.002-0.064 0.090-0.059 0.148s0.038 0.067 0.078 0.063c0.040-0.004 0.071-0.018 0.066-0.076z"></path>
<path fill="rgb(244, 224, 40)" d="M9.752 11.814c0.013 0.049-0.014 0.099-0.061 0.111s-0.095-0.017-0.108-0.066c-0.013-0.049 0.014-0.099 0.061-0.111s0.095 0.017 0.108 0.066z"></path>
<path fill="rgb(226, 203, 35)" d="M9.719 11.823c0.009 0.032-0.008 0.065-0.036 0.072s-0.059-0.012-0.067-0.045c-0.009-0.032 0.008-0.065 0.036-0.072s0.059 0.012 0.067 0.045z"></path>
<path fill="rgb(125, 170, 46)" d="M9.868 11.83c-0.057-0.015-0.15 0.009-0.157 0.032s0.062 0.092 0.118 0.107c0.057 0.015 0.076-0.013 0.087-0.051s0.008-0.073-0.049-0.088z"></path>
<path fill="rgb(239, 210, 89)" d="M10 3.702c-3.215 0-5.831 2.825-5.831 6.296 0 0.198 0.161 0.359 0.359 0.359s0.359-0.161 0.359-0.359c0-3.076 2.293-5.578 5.112-5.578s5.112 2.502 5.112 5.578c0 0.198 0.161 0.359 0.359 0.359s0.359-0.161 0.359-0.359c0-3.472-2.616-6.296-5.831-6.296z"></path>
<path fill="rgb(244, 218, 108)" d="M15.339 9.574c0 0-2.096 2.344-5.289 2.344s-5.388-2.344-5.388-2.344c-0.331 0-0.599 0.268-0.599 0.599 0 0 0.474 2.037 0.601 2.907s0.151 1.807 0.151 1.807c0 0.289 0.261 0.559 0.523 0.646 0 0 1.785 0.765 4.662 0.765s4.662-0.765 4.662-0.765c0.283-0.087 0.523-0.357 0.523-0.646 0 0 0.054-1.23 0.163-1.879s0.589-2.835 0.589-2.835c-0-0.331-0.268-0.599-0.599-0.599z"></path>
<path fill="rgb(237, 186, 43)" d="M12.676 7.387c-0.757-0.092-1.5 0.893-1.613 1.831s0.431 1.585 1.189 1.677c0.757 0.092 1.441-0.406 1.554-1.344s-0.372-2.072-1.129-2.164z"></path>
<path fill="rgb(100, 168, 13)" d="M11.063 9.218c-0.017 0.142-0.019 0.278-0.008 0.406l0.154-0.118 0.003 0 0.363 0.422 0.426-0.327 0.017 0.002 0.363 0.422 0.425-0.327 0.363 0.422 0.425-0.326 0.125 0.145c0.041-0.12 0.071-0.25 0.087-0.391 0.034-0.281-2.709-0.612-2.743-0.332z"></path>
<path fill="rgb(120, 186, 25)" d="M11.063 9.218c-0.011 0.090-0.016 0.178-0.015 0.263l0.182-0.105 0.003 0 0.366 0.417 0.412-0.323 0.387 0.42 0.446-0.319 0.332 0.413 0.427-0.321 0.154 0.143c0.021-0.081 0.037-0.167 0.048-0.256 0.029-0.24-2.714-0.572-2.743-0.332z"></path>
<path fill="rgb(100, 168, 13)" d="M13.651 9.318l-0.425 0.327-0.362-0.422-0.425 0.326-0.363-0.422-0.017-0.002-0.426 0.327-0.363-0.422-0.003-0-0.197 0.139c-0.002 0.017-0.005 0.034-0.007 0.051-0.004 0.036-0.008 0.072-0.010 0.107l0.195-0.137 0.003 0 0.363 0.422 0.426-0.327 0.017 0.002 0.363 0.422 0.425-0.326 0.362 0.422 0.425-0.326 0.161 0.165c0.005-0.030 0.009-0.061 0.013-0.092 0.003-0.022 0.005-0.044 0.007-0.067l-0.162-0.166z"></path>
<path fill="rgb(120, 186, 25)" d="M13.672 9.143l-0.425 0.327-0.362-0.422-0.425 0.326-0.363-0.422-0.017-0.002-0.426 0.327-0.363-0.422-0.003-0-0.184 0.13c-0.014 0.061-0.025 0.122-0.034 0.184l0.197-0.139 0.003 0 0.363 0.422 0.426-0.327 0.017 0.002 0.363 0.422 0.425-0.326 0.362 0.422 0.425-0.327 0.162 0.166c0.006-0.062 0.009-0.124 0.009-0.187l-0.15-0.154z"></path>
<path fill="rgb(100, 168, 13)" d="M13.819 9.157c-0.001-0.018-0.002-0.035-0.003-0.053l-0.124-0.127-0.425 0.327-0.363-0.422-0.425 0.326-0.363-0.422-0.017-0.002-0.426 0.327-0.363-0.422-0.003-0-0.153 0.108c-0.002 0.005-0.003 0.010-0.005 0.015-0.018 0.057-0.033 0.115-0.046 0.173l0.184-0.13 0.003 0 0.363 0.422 0.426-0.327 0.017 0.002 0.363 0.422 0.425-0.326 0.362 0.422 0.425-0.327 0.15 0.154c0.001-0.047-0-0.093-0.002-0.14z"></path>
<path fill="rgb(120, 186, 25)" d="M13.805 8.978c-0.002-0.022-0.005-0.043-0.008-0.065l-0.086-0.088-0.425 0.326-0.363-0.422-0.425 0.327-0.363-0.422-0.017-0.002-0.021 0.016-0.405 0.311-0.363-0.422-0.003-0-0.106 0.075c-0.004 0.011-0.009 0.022-0.013 0.033-0.019 0.050-0.037 0.101-0.052 0.152l0.153-0.108 0.003 0 0.363 0.422 0.426-0.327 0.017 0.002 0.363 0.422 0.425-0.326 0.029 0.034 0.334 0.388 0.425-0.327 0.124 0.127c-0.003-0.042-0.007-0.084-0.012-0.126z"></path>
<path fill="rgb(100, 168, 13)" d="M13.774 8.78c-0.005-0.025-0.010-0.051-0.016-0.076l-0.030-0.030-0.425 0.326-0.014-0.016-0.349-0.406-0.425 0.326-0.363-0.422-0.017-0.002-0.426 0.327-0.363-0.422-0.003-0-0.035 0.025c-0.009 0.017-0.017 0.034-0.025 0.052-0.023 0.049-0.045 0.099-0.065 0.15l0.106-0.075 0.003 0 0.363 0.422 0.426-0.327 0.017 0.002 0.363 0.422 0.425-0.327 0.021 0.025 0.341 0.397 0.425-0.326 0.086 0.088c-0.006-0.045-0.014-0.089-0.022-0.134z"></path>
<path fill="rgb(237, 186, 43)" d="M12.676 7.387c-0.001-0-0.002-0-0.003-0l0.024 0.028 0.027-0.020c-0.016-0.003-0.031-0.005-0.047-0.007z"></path>
<path fill="rgb(221, 44, 82)" d="M13.629 8.29l-0.273 0.205-0.332-0.413-0.446 0.319-0.387-0.42-0.412 0.323-0.241-0.274c-0.021 0.028-0.041 0.058-0.061 0.087l0.277 0.323 0.426-0.327 0.017 0.002 0.363 0.422 0.425-0.326 0.362 0.422 0.319-0.245c-0.012-0.033-0.024-0.066-0.038-0.098z"></path>
<path fill="rgb(221, 44, 82)" d="M13.576 8.169l-0.189 0.145-0.363-0.422-0.425 0.326-0.363-0.422-0.017-0.002-0.426 0.327-0.171-0.199c-0.029 0.035-0.057 0.070-0.084 0.107l0.241 0.274 0.412-0.323 0.387 0.42 0.446-0.319 0.332 0.413 0.273-0.205c-0.017-0.041-0.035-0.082-0.054-0.121z"></path>
<path fill="rgb(221, 44, 82)" d="M12.256 7.637l-0.017-0.002-0.011 0.008c0.012 0.001 0.024 0.002 0.036 0.003l-0.008-0.009z"></path>
<path fill="rgb(221, 44, 82)" d="M13.044 7.732l-0.010 0.008c0.006 0.001 0.013 0.002 0.019 0.003l-0.009-0.011z"></path>
<path fill="rgb(221, 44, 82)" d="M13.053 7.743c-0.006-0.001-0.013-0.002-0.019-0.003l-0.032 0.025c0.027 0.004 0.054 0.008 0.081 0.013l-0.030-0.034z"></path>
<path fill="rgb(221, 44, 82)" d="M12.264 7.646c-0.012-0.001-0.024-0.002-0.036-0.003l-0.034 0.026c0.032 0.003 0.065 0.005 0.098 0.008l-0.027-0.032z"></path>
<path fill="rgb(221, 44, 82)" d="M13.523 8.065l-0.116 0.089-0.324-0.377c-0.027-0.004-0.053-0.009-0.081-0.013l-0.383 0.294-0.328-0.381c-0.033-0.003-0.065-0.006-0.098-0.008l-0.38 0.292-0.111-0.129c-0.027 0.029-0.053 0.059-0.079 0.090l0.171 0.199 0.426-0.327 0.017 0.002 0.363 0.422 0.425-0.326 0.363 0.422 0.189-0.145c-0.017-0.035-0.035-0.070-0.053-0.104z"></path>
<path fill="rgb(232, 156, 146)" d="M12.277 7.462l-0.017-0.002-0.222 0.17c0.062 0.003 0.125 0.007 0.19 0.012l0.011-0.008 0.017 0.002 0.008 0.009c0.061 0.005 0.123 0.011 0.186 0.017l-0.173-0.201z"></path>
<path fill="rgb(232, 156, 146)" d="M13.065 7.558l-0.203 0.156c0.058 0.008 0.115 0.017 0.172 0.026l0.010-0.008 0.009 0.011c0.069 0.011 0.137 0.024 0.202 0.036l-0.19-0.221z"></path>
<path fill="rgb(232, 156, 146)" d="M12.038 7.631l-0.033 0.026c0.061 0.004 0.124 0.008 0.189 0.013l0.034-0.026c-0.065-0.005-0.128-0.009-0.19-0.012z"></path>
<path fill="rgb(232, 156, 146)" d="M12.862 7.714l-0.034 0.026c0.058 0.008 0.116 0.016 0.173 0.025l0.032-0.025c-0.056-0.009-0.114-0.018-0.172-0.026z"></path>
<path fill="rgb(232, 156, 146)" d="M13.255 7.779c-0.065-0.013-0.133-0.025-0.202-0.036l0.030 0.034c0.069 0.011 0.136 0.023 0.201 0.035l-0.029-0.033z"></path>
<path fill="rgb(232, 156, 146)" d="M12.449 7.663c-0.063-0.006-0.125-0.012-0.186-0.017l0.027 0.032c0.062 0.006 0.124 0.012 0.187 0.019l-0.029-0.033z"></path>
<path fill="rgb(232, 156, 146)" d="M13.458 7.956l-0.031 0.024-0.144-0.168c-0.065-0.012-0.132-0.024-0.201-0.035l0.324 0.377 0.116-0.089c-0.020-0.037-0.042-0.074-0.064-0.109z"></path>
<path fill="rgb(232, 156, 146)" d="M12.829 7.739l-0.189 0.145-0.162-0.188c-0.063-0.007-0.125-0.013-0.187-0.019l0.328 0.381 0.383-0.294c-0.057-0.009-0.115-0.017-0.173-0.025z"></path>
<path fill="rgb(232, 156, 146)" d="M12.005 7.656l-0.17 0.131-0.041-0.047c-0.031 0.029-0.062 0.060-0.092 0.092l0.111 0.129 0.38-0.292c-0.065-0.005-0.128-0.010-0.189-0.013z"></path>
<path fill="rgb(221, 44, 82)" d="M12.97 7.48l-0.275 0.211c0.056 0.007 0.112 0.015 0.168 0.023l0.203-0.156 0.19 0.221c0.031 0.006 0.061 0.012 0.090 0.018-0.11-0.136-0.235-0.245-0.375-0.317z"></path>
<path fill="rgb(221, 44, 82)" d="M12.389 7.402c-0.16 0.035-0.315 0.114-0.46 0.224 0.036 0.001 0.072 0.003 0.11 0.005l0.222-0.17 0.017 0.002 0.173 0.201c0.060 0.006 0.12 0.013 0.181 0.020l-0.242-0.281z"></path>
<path fill="rgb(221, 44, 82)" d="M12.695 7.691l-0.034 0.026c0.056 0.007 0.113 0.014 0.168 0.022l0.034-0.026c-0.055-0.008-0.111-0.016-0.168-0.023z"></path>
<path fill="rgb(221, 44, 82)" d="M13.345 7.797c-0.029-0.006-0.059-0.012-0.090-0.018l0.029 0.033c0.029 0.005 0.058 0.011 0.086 0.017-0.008-0.011-0.017-0.021-0.025-0.032z"></path>
<path fill="rgb(221, 44, 82)" d="M11.928 7.626c-0.011 0.008-0.021 0.016-0.032 0.025 0.035 0.002 0.071 0.003 0.108 0.006l0.033-0.026c-0.037-0.002-0.074-0.004-0.11-0.005z"></path>
<path fill="rgb(221, 44, 82)" d="M12.63 7.683c-0.060-0.007-0.121-0.014-0.181-0.020l0.029 0.033c0.060 0.006 0.121 0.013 0.182 0.021l-0.029-0.034z"></path>
<path fill="rgb(221, 44, 82)" d="M13.37 7.829c-0.028-0.006-0.057-0.011-0.086-0.017l0.144 0.168 0.031-0.024c-0.028-0.044-0.058-0.087-0.089-0.127z"></path>
<path fill="rgb(221, 44, 82)" d="M11.896 7.651c-0.035 0.028-0.069 0.058-0.103 0.089l0.041 0.047 0.17-0.131c-0.037-0.002-0.073-0.004-0.108-0.006z"></path>
<path fill="rgb(221, 44, 82)" d="M12.66 7.717l-0 0-0-0c-0.061-0.007-0.121-0.014-0.182-0.021l0.162 0.188 0.189-0.145c-0.056-0.008-0.112-0.015-0.168-0.022z"></path>
<path fill="rgb(232, 156, 146)" d="M12.856 7.43l-0.178 0.136-0.158-0.183c-0.044 0.003-0.089 0.009-0.132 0.019l0.242 0.281c0.022 0.003 0.043 0.005 0.065 0.008l0.275-0.211c-0.037-0.019-0.075-0.036-0.114-0.050z"></path>
<path fill="rgb(232, 156, 146)" d="M12.63 7.683l0.029 0.034c0 0 0.001 0 0.001 0l0.034-0.026c-0.022-0.003-0.043-0.005-0.065-0.008z"></path>
<path fill="rgb(232, 156, 146)" d="M12.66 7.717l0 0 0-0c-0-0-0.001-0-0.001-0z"></path>
<path fill="rgb(221, 44, 82)" d="M12.723 7.394l-0.051-0.008c-0.051-0.006-0.101-0.007-0.152-0.004l0.158 0.183 0.178-0.136c-0.043-0.015-0.087-0.027-0.133-0.036z"></path>
<path fill="rgb(86, 183, 180)" d="M12.679 10.743l-0.010 0.008c0.006 0.001 0.013 0.002 0.019 0.003l-0.009-0.011z"></path>
<path fill="rgb(86, 183, 180)" d="M11.891 10.647l-0.017-0.002-0.011 0.008c0.012 0.001 0.024 0.002 0.036 0.003l-0.008-0.009z"></path>
<path fill="rgb(86, 183, 180)" d="M12.688 10.753c-0.006-0.001-0.013-0.002-0.019-0.003l-0.032 0.025c0.027 0.004 0.054 0.008 0.081 0.013l-0.030-0.034z"></path>
<path fill="rgb(86, 183, 180)" d="M11.899 10.656c-0.012-0.001-0.024-0.002-0.036-0.003l-0.034 0.026c0.032 0.003 0.065 0.005 0.098 0.008l-0.028-0.032z"></path>
<path fill="rgb(86, 183, 180)" d="M12.718 10.788c-0.027-0.004-0.053-0.009-0.081-0.013l-0.169 0.13c0.107-0.003 0.212-0.018 0.312-0.045l-0.062-0.072z"></path>
<path fill="rgb(86, 183, 180)" d="M11.927 10.688c-0.033-0.003-0.065-0.006-0.098-0.008l-0.076 0.059c0.101 0.054 0.209 0.096 0.325 0.125l-0.15-0.175z"></path>
<path fill="rgb(169, 196, 195)" d="M12.7 10.568l-0.203 0.156c0.058 0.008 0.115 0.017 0.172 0.026l0.010-0.008 0.009 0.011c0.069 0.011 0.137 0.024 0.202 0.036l-0.19-0.221z"></path>
<path fill="rgb(169, 196, 195)" d="M11.912 10.473l-0.017-0.002-0.222 0.17c0.062 0.003 0.125 0.007 0.19 0.012l0.011-0.008 0.017 0.002 0.008 0.009c0.061 0.005 0.123 0.011 0.186 0.017l-0.173-0.201z"></path>
<path fill="rgb(169, 196, 195)" d="M12.914 10.817c-0.003 0.001-0.006 0.002-0.009 0.003 0.005 0.001 0.009 0.002 0.014 0.003l-0.005-0.006z"></path>
<path fill="rgb(169, 196, 195)" d="M11.673 10.641l-0.033 0.026c0.061 0.004 0.124 0.008 0.189 0.013l0.034-0.026c-0.065-0.005-0.128-0.009-0.19-0.012z"></path>
<path fill="rgb(169, 196, 195)" d="M12.085 10.673c-0.063-0.006-0.125-0.012-0.186-0.017l0.028 0.032c0.062 0.006 0.124 0.012 0.187 0.018l-0.029-0.033z"></path>
<path fill="rgb(169, 196, 195)" d="M12.89 10.789c-0.065-0.013-0.133-0.025-0.202-0.036l0.030 0.034c0.064 0.010 0.127 0.021 0.187 0.032 0.003-0.001 0.006-0.002 0.009-0.003l-0.024-0.027z"></path>
<path fill="rgb(169, 196, 195)" d="M12.498 10.724l-0.034 0.026c0.058 0.008 0.116 0.016 0.173 0.025l0.032-0.025c-0.056-0.009-0.114-0.018-0.172-0.026z"></path>
<path fill="rgb(169, 196, 195)" d="M12.464 10.75l-0.189 0.145-0.162-0.188c-0.063-0.007-0.125-0.013-0.187-0.018l0.15 0.175c0.057 0.014 0.115 0.025 0.174 0.032 0.073 0.009 0.146 0.012 0.217 0.010l0.169-0.13c-0.057-0.009-0.115-0.017-0.173-0.025z"></path>
<path fill="rgb(169, 196, 195)" d="M11.64 10.667l-0.003 0.002c0.037 0.025 0.075 0.049 0.115 0.070l0.076-0.059c-0.065-0.005-0.128-0.010-0.189-0.013z"></path>
<path fill="rgb(169, 196, 195)" d="M12.718 10.788l0.062 0.072c0.042-0.011 0.084-0.025 0.125-0.040-0.060-0.011-0.123-0.022-0.187-0.032z"></path>
<path fill="rgb(86, 183, 180)" d="M12.749 10.435l-0.029-0.034-0.031 0.024-0.359 0.276c0.056 0.007 0.112 0.015 0.168 0.023l0.203-0.156 0.19 0.221c0.021 0.004 0.041 0.008 0.061 0.012 0.027-0.011 0.054-0.024 0.081-0.037l-0.283-0.329z"></path>
<path fill="rgb(86, 183, 180)" d="M11.956 10.333l-0.023-0.027-0.017-0.002-0.378 0.29c0.018 0.015 0.037 0.030 0.055 0.044 0.026 0.001 0.053 0.002 0.080 0.004l0.222-0.17 0.017 0.002 0.173 0.201c0.060 0.006 0.12 0.013 0.181 0.020l-0.31-0.361z"></path>
<path fill="rgb(86, 183, 180)" d="M11.593 10.637c0.013 0.010 0.027 0.020 0.041 0.029 0.002 0 0.004 0 0.006 0l0.033-0.026c-0.027-0.001-0.054-0.003-0.080-0.004z"></path>
<path fill="rgb(86, 183, 180)" d="M12.89 10.789l0.024 0.027c0.013-0.005 0.025-0.010 0.038-0.015-0.020-0.004-0.041-0.008-0.061-0.012z"></path>
<path fill="rgb(86, 183, 180)" d="M12.266 10.693c-0.060-0.007-0.121-0.014-0.181-0.020l0.029 0.033c0.060 0.006 0.121 0.013 0.182 0.021l-0.029-0.034z"></path>
<path fill="rgb(86, 183, 180)" d="M12.33 10.701l-0.034 0.026c0.056 0.007 0.113 0.014 0.168 0.022l0.034-0.026c-0.055-0.008-0.111-0.016-0.168-0.023z"></path>
<path fill="rgb(86, 183, 180)" d="M11.634 10.666c0.001 0.001 0.002 0.002 0.003 0.002l0.003-0.002c-0.002-0-0.004-0-0.006-0z"></path>
<path fill="rgb(86, 183, 180)" d="M12.296 10.728l-0 0-0-0c-0.061-0.007-0.121-0.014-0.182-0.021l0.162 0.188 0.189-0.145c-0.056-0.008-0.112-0.015-0.168-0.022z"></path>
<path fill="rgb(169, 196, 195)" d="M13.426 10.423l-0.324 0.249-0.362-0.422-0.023 0.017-0.402 0.309-0.363-0.422-0.017-0.002-0.021 0.016-0.405 0.311-0.346-0.402c0.085 0.208 0.214 0.382 0.375 0.517l0.378-0.29 0.017 0.002 0.023 0.027 0.31 0.361c0.022 0.003 0.043 0.005 0.065 0.008l0.39-0.3 0.312 0.363c0.18-0.091 0.339-0.224 0.466-0.397l-0.073 0.056z"></path>
<path fill="rgb(169, 196, 195)" d="M12.266 10.693l0.029 0.034c0 0 0.001 0 0.001 0l0.034-0.026c-0.022-0.003-0.043-0.005-0.065-0.008z"></path>
<path fill="rgb(169, 196, 195)" d="M12.295 10.728l0 0 0-0c-0 0-0-0-0.001-0z"></path>
<path fill="rgb(86, 183, 180)" d="M13.574 10.224l-0.030-0.031-0.425 0.326-0.014-0.016-0.349-0.406-0.425 0.327-0.363-0.422-0.017-0.002-0.426 0.327-0.363-0.422-0.003-0-0.035 0.025c-0.003 0.006-0.006 0.012-0.008 0.018 0.014 0.045 0.029 0.088 0.046 0.13l0.346 0.402 0.426-0.327 0.017 0.002 0.016 0.019 0.347 0.404 0.425-0.327 0.362 0.422 0.397-0.305c0.028-0.039 0.055-0.079 0.081-0.122-0.002-0.007-0.003-0.014-0.004-0.021z"></path>
<path fill="rgb(149, 209, 55)" d="M9.832 11.060c0 0.952 0.622 1.532 1.39 1.532v-3.557c-0.768 0-1.39 1.074-1.39 2.025z"></path>
<path fill="rgb(242, 232, 47)" d="M11.222 9.034v3.557c0.768 0 1.391-0.58 1.391-1.532s-0.623-2.025-1.391-2.025z"></path>
<path fill="rgb(239, 201, 41)" d="M11.225 9.044c-0.001 0.001-0.002 0.002-0.003 0.003-0.19 0.463-0.499 2.612-0.279 3.517 0.090 0.018 0.184 0.027 0.28 0.027s0.19-0.009 0.281-0.027c0.224-0.91-0.12-3.089-0.279-3.52z"></path>
<path fill="rgb(232, 156, 146)" d="M9.832 11.060c0 0.014 0 0.029 0 0.043 0 0.004 0 0.007 0 0.011 0 0.011 0.001 0.022 0.001 0.033 0 0.002 0 0.004 0 0.006 0.031 0.702 0.409 1.187 0.929 1.364-0.261-0.358-0.421-0.901-0.421-1.418 0-0.777 0.36-1.625 0.884-2.055-0.003-0.003-0.007-0.006-0.010-0.008-0.765 0.006-1.384 1.076-1.384 2.025zM11.223 9.034c-0.002 0-0.004 0-0.007 0 0.003-0 0.007-0 0.010-0-0.001-0-0.002-0-0.003-0z"></path>
<path fill="rgb(86, 183, 180)" d="M11.236 9.035c-0.003 0.003-0.006 0.006-0.010 0.008 0.524 0.43 0.884 1.278 0.884 2.055 0 0.516-0.159 1.058-0.419 1.415 0.537-0.188 0.922-0.706 0.922-1.454 0-0.946-0.616-2.013-1.377-2.025zM11.226 9.034c0.003 0 0.006 0 0.010 0 0-0 0-0 0-0-0.003-0-0.007-0-0.010-0z"></path>
<path fill="rgb(239, 210, 89)" d="M15.339 9.574c0 0-2.096 2.344-5.289 2.344s-5.388-2.344-5.388-2.344c-0.331 0-0.599 0.268-0.599 0.599l0.039 0.223c0.516 0.255 2.803 2.438 5.955 2.438 3.14 0 5.338-2.176 5.842-2.436l0.039-0.225c0-0.331-0.268-0.599-0.599-0.599z"></path>
</svg>
