<?xml version="1.0" encoding="utf-8"?>
<!-- Generated by IcoMoon.io -->
<!DOCTYPE svg PUBLIC "-//W3C//DTD SVG 1.1//EN" "http://www.w3.org/Graphics/SVG/1.1/DTD/svg11.dtd">
<svg version="1.1" xmlns="http://www.w3.org/2000/svg" xmlns:xlink="http://www.w3.org/1999/xlink" width="20" height="20" viewBox="0 0 20 20">
<path fill="rgb(72, 161, 175)" d="M10 0.31c-5.352 0-9.691 4.338-9.691 9.691s4.339 9.69 9.691 9.69c5.352 0 9.69-4.339 9.69-9.69s-4.339-9.691-9.69-9.691z"></path>
<path fill="rgb(255, 206, 128)" d="M13.769 9.039h-7.365c-0.534 0-0.966 0.29-0.966 0.648l1.024 5.564c0 0.358 0.337 0.648 0.753 0.648h5.742c0.416 0 0.753-0.29 0.753-0.648l1.024-5.564c0-0.358-0.432-0.648-0.966-0.648z"></path>
<path fill="rgb(239, 172, 106)" d="M6.37 14.503l0.092 0.749c0 0.358 0.337 0.648 0.753 0.648h5.742c0.416 0 0.753-0.29 0.753-0.648l0.090-0.736-7.431-0.013z"></path>
<path fill="rgb(239, 172, 106)" d="M8.815 14.911l-0.259-2.567c-0.014-0.136-0.153-0.237-0.312-0.225s-0.276 0.132-0.262 0.268l0.259 2.567c0.014 0.136 0.153 0.237 0.312 0.225s0.276-0.132 0.262-0.268z"></path>
<path fill="rgb(239, 172, 106)" d="M12.175 12.124c-0.158-0.016-0.301 0.082-0.319 0.218l-0.344 2.56c-0.018 0.136 0.095 0.259 0.253 0.275s0.301-0.082 0.319-0.218l0.344-2.559c0.018-0.136-0.095-0.259-0.253-0.274z"></path>
<path fill="rgb(239, 172, 106)" d="M10.184 11.766c-0.159 0-0.288 0.111-0.288 0.248v2.577c0 0.137 0.129 0.248 0.288 0.248s0.288-0.111 0.288-0.248v-2.577c0-0.137-0.129-0.248-0.288-0.248z"></path>
<path fill="rgb(216, 141, 80)" d="M6.1 6.218c-1.485 0-2.689 1.036-2.689 2.313s1.204 2.313 2.689 2.313c1.485 0 2.689-1.036 2.689-2.313s-1.204-2.313-2.689-2.313z"></path>
<path fill="rgb(216, 141, 80)" d="M13.9 6.218c-1.485 0-2.689 1.036-2.689 2.313s1.204 2.313 2.689 2.313 2.689-1.036 2.689-2.313-1.204-2.313-2.689-2.313z"></path>
<path fill="rgb(216, 141, 80)" d="M10 4.373c-2.049 0-3.71 1.429-3.71 3.192s1.661 3.192 3.71 3.192 3.71-1.429 3.71-3.192c0-1.763-1.661-3.192-3.71-3.192z"></path>
<path fill="rgb(239, 172, 106)" d="M13.9 5.945c-0.176 0-0.348 0.015-0.514 0.043-0.58-1.112-1.877-1.888-3.386-1.888s-2.806 0.775-3.386 1.888c-0.167-0.028-0.338-0.043-0.514-0.043-1.485 0-2.689 1.036-2.689 2.313s1.204 2.313 2.689 2.313c0.711 0 1.357-0.238 1.838-0.626 0.59 0.34 1.299 0.538 2.062 0.538s1.472-0.198 2.062-0.538c0.481 0.388 1.127 0.626 1.838 0.626 1.485 0 2.689-1.036 2.689-2.313s-1.204-2.313-2.689-2.313z"></path>
<path fill="rgb(229, 157, 92)" d="M10 4.101c-1.509 0-2.806 0.775-3.386 1.888-0.167-0.028-0.338-0.043-0.514-0.043-1.485 0-2.689 1.036-2.689 2.313s1.204 2.313 2.689 2.313c0.711 0 1.357-0.238 1.838-0.626 0.59 0.34 1.299 0.538 2.062 0.538s1.472-0.198 2.062-0.538c0.481 0.388-0.553-5.845-2.062-5.845z"></path>
<path fill="rgb(169, 196, 195)" d="M5.559 9.227l-0.793-1.277c-0.049-0.078-0.152-0.102-0.23-0.054s-0.102 0.152-0.054 0.23l0.793 1.277c0.049 0.078 0.152 0.102 0.23 0.054s0.103-0.152 0.054-0.23z"></path>
<path fill="rgb(100, 168, 13)" d="M15.451 7.618c-0.090-0.021-0.18 0.035-0.201 0.125l-0.342 1.464c-0.021 0.090 0.035 0.18 0.125 0.201s0.18-0.035 0.201-0.125l0.342-1.464c0.021-0.090-0.035-0.18-0.125-0.201z"></path>
<path fill="rgb(100, 168, 13)" d="M9.665 4.986c-0.049-0.078-0.152-0.102-0.23-0.054l-1.277 0.793c-0.078 0.049-0.102 0.152-0.054 0.23s0.152 0.102 0.23 0.054l1.277-0.793c0.078-0.049 0.102-0.152 0.054-0.23z"></path>
<path fill="rgb(221, 44, 82)" d="M10.531 9.37l-1.464-0.342c-0.090-0.021-0.18 0.035-0.201 0.125s0.035 0.18 0.125 0.201l1.464 0.342c0.090 0.021 0.18-0.035 0.201-0.125s-0.035-0.18-0.125-0.201z"></path>
<path fill="rgb(221, 44, 82)" d="M13.561 7.474l-0.793-1.277c-0.049-0.078-0.152-0.102-0.23-0.054s-0.102 0.152-0.054 0.23l0.793 1.277c0.049 0.078 0.152 0.102 0.23 0.054s0.102-0.152 0.054-0.23z"></path>
<path fill="rgb(169, 196, 195)" d="M10.905 6.504c-0.090-0.021-0.18 0.035-0.201 0.125l-0.342 1.464c-0.021 0.090 0.035 0.18 0.125 0.201s0.18-0.035 0.201-0.125l0.342-1.464c0.021-0.090-0.035-0.18-0.125-0.201z"></path>
<path fill="rgb(237, 186, 43)" d="M8.114 7.709l-1.464-0.342c-0.090-0.021-0.18 0.035-0.201 0.125s0.035 0.18 0.125 0.201l1.464 0.342c0.090 0.021 0.18-0.035 0.201-0.125s-0.035-0.18-0.125-0.201z"></path>
</svg>
