<?xml version="1.0" encoding="utf-8"?>
<!-- Generator: Adobe Illustrator 16.0.0, SVG Export Plug-In . SVG Version: 6.00 Build 0)  -->
<!DOCTYPE svg PUBLIC "-//W3C//DTD SVG 1.1//EN" "http://www.w3.org/Graphics/SVG/1.1/DTD/svg11.dtd">
<svg version="1.1" id="Layer_1" xmlns="http://www.w3.org/2000/svg" xmlns:xlink="http://www.w3.org/1999/xlink" x="0px" y="0px"
	 width="20px" height="20px" viewBox="0 0 20 20" enable-background="new 0 0 20 20" xml:space="preserve">
<g>
	<path fill="#E8E8DF" d="M19.69,10c0,5.351-4.338,9.69-9.69,9.69S0.31,15.353,0.31,10c0-5.352,4.338-9.69,9.69-9.69
		S19.69,4.647,19.69,10z"/>
	<path fill="#B1C635" d="M17.076,7.227c-0.258,0.128-1.479,1.116-1.831-0.152c0,0-1.432,1.489-1.807-0.053
		c0,0-0.239,0.476-0.938,1.099c0.207-1.344,0.434-2.07,0.434-2.07c-1.457,1.522-1.597-1.711-1.597-1.711
		c-1.069,0.405-1.112-1.352-1.177-1.675c0,0-0.077,2.077-1.217,1.604c0,0,0.15,2.508-1.635,1.676c0,0,0.227,0.681,0.411,2.026
		C7.063,7.328,6.853,7.021,6.853,7.021C6.479,8.563,5.045,7.074,5.045,7.074c-0.352,1.269-1.572,0.28-1.83,0.152
		c0,0,1.368,1.293,0.378,2.114c0,0,1.61,1.207,0.476,2.076c0,0,3.429,0.916,2.056,2.791c0,0,2.644,0.277,3.369-0.279
		c0.18-0.138,0.391-0.52,0.574-0.515c0.203,0.007,0.645,0.303,0.803,0.547c0.5,0.774,3.295,0.247,3.295,0.247
		c-1.372-1.875,2.057-2.791,2.057-2.791c-1.135-0.869,0.474-2.076,0.474-2.076C15.708,8.52,17.076,7.227,17.076,7.227z"/>
	<path fill="#857856" d="M9.995,12.425c0,0,0.375,4.571-2.224,5.162h0.473c2.601-0.591,2.206-5.553,2.206-5.553L9.995,12.425z"/>
	<path fill="#857856" d="M9.992,13.447c0,0,0.363-4.384,0.172-10.694c0,0,0.574,9.361,0.274,10.815
		C10.438,13.568,10.088,13.325,9.992,13.447z"/>
	<path fill="#857856" d="M17.076,7.227l-6.854,4.468l0.076,0.496L17.076,7.227z"/>
	<path fill="#857856" d="M3.413,7.371l6.636,5.422l0.134-0.411L3.413,7.371z"/>
</g>
</svg>
