<?xml version="1.0" encoding="utf-8"?>
<!-- Generator: Adobe Illustrator 16.0.0, SVG Export Plug-In . SVG Version: 6.00 Build 0)  -->
<!DOCTYPE svg PUBLIC "-//W3C//DTD SVG 1.1//EN" "http://www.w3.org/Graphics/SVG/1.1/DTD/svg11.dtd">
<svg version="1.1" id="Layer_1" xmlns="http://www.w3.org/2000/svg" xmlns:xlink="http://www.w3.org/1999/xlink" x="0px" y="0px"
	 width="20px" height="20px" viewBox="0 0 20 20" enable-background="new 0 0 20 20" xml:space="preserve">
<g>
	<path fill="#A0D2DC" d="M19.04,13.489c0.419-1.084,0.65-2.26,0.65-3.49c0-5.352-4.338-9.689-9.69-9.689S0.31,4.647,0.31,9.999
		c0,1.098,0.186,2.153,0.522,3.139c2.437-1.284,5.484-1.897,8.791-1.897C13.22,11.24,16.51,11.965,19.04,13.489L19.04,13.489z"/>
	<path fill="#B1C635" d="M10,19.689c4.122,0,7.639-2.574,9.04-6.2c-2.53-1.525-5.819-2.249-9.416-2.249
		c-3.308,0-6.355,0.613-8.791,1.897C2.138,16.948,5.748,19.69,10,19.689L10,19.689z"/>
	<path fill="#3A2F22" d="M12.412,9.971c-0.128-1.195-1.14-2.128-2.369-2.128c-1.23,0-2.242,0.933-2.369,2.128l1.535,0.887h1.466
		L12.412,9.971L12.412,9.971z"/>
	<path fill="#F3F4F5" d="M12.265,9.905c-0.12-1.122-1.068-1.995-2.222-1.995S7.939,8.784,7.821,9.906L6.2,16.327
		c0,0.341,0.499,0.617,1.115,0.617h5.455c0.615,0,1.115-0.276,1.115-0.617L12.265,9.905L12.265,9.905z"/>
	<path fill="#E9E9EA" d="M12.265,9.905l-1.631-0.219H9.26L7.82,9.906l-1.621,6.421c0,0.341,0.499,0.617,1.115,0.617h5.454
		c0.617,0,1.116-0.276,1.116-0.617L12.265,9.905L12.265,9.905z"/>
	<path fill="#DFDFDF" d="M9.261,9.687l-1.439,0.22L6.2,16.327c0,0.341,0.499,0.617,1.115,0.617L9.261,9.687z"/>
	<path fill="#ECECEC" d="M12.265,9.905l-1.631-0.219l2.135,7.258c0.617,0,1.116-0.276,1.116-0.617L12.265,9.905L12.265,9.905z"/>
	<path fill="#665C51" d="M10,19.689c0.461,0,0.914-0.034,1.358-0.097l1.412-2.649H7.315l1.207,2.632
		c0.481,0.074,0.975,0.112,1.478,0.112V19.689z"/>
	<path fill="#5B4F3F" d="M6.227,16.46l-0.027-0.134C6.199,16.372,6.208,16.417,6.227,16.46z"/>
	<path fill="#5B4F3F" d="M7.315,16.943c-0.534,0-0.979-0.208-1.088-0.483l0.538,2.674c0.564,0.199,1.15,0.35,1.757,0.441
		L7.315,16.943L7.315,16.943z"/>
	<path fill="#766959" d="M12.771,16.943l-1.413,2.649c0.682-0.095,1.34-0.261,1.968-0.491l0.533-2.642
		C13.748,16.737,13.302,16.943,12.771,16.943z"/>
	<path fill="#766959" d="M13.858,16.46c0.017-0.043,0.027-0.088,0.027-0.134L13.858,16.46z"/>
	<path fill="#5B4F3F" d="M12.412,9.971c-0.128-1.195-1.14-2.128-2.369-2.128c-1.23,0-2.242,0.933-2.369,2.128l1.535-0.234h1.466
		L12.412,9.971L12.412,9.971z"/>
	<path fill="#3A2F22" d="M10.429,8.871c0,0.237-0.192,0.43-0.43,0.43c-0.238,0-0.431-0.192-0.431-0.43
		c0-0.238,0.192-0.431,0.431-0.431C10.236,8.44,10.429,8.633,10.429,8.871z"/>
	<path fill="#51473A" d="M14.787,13.426c-0.005-0.025-0.016-0.052-0.034-0.069l-0.016-0.015l-4.651-4.652
		c-0.049-0.048-0.128-0.048-0.176,0L9.84,8.761c-0.049,0.048-0.049,0.127,0,0.176l1.124,1.125l-0.589,0.588
		c-0.074,0.075-0.074,0.2,0,0.274l3.391,3.39c0.076,0.077,0.2,0.077,0.274,0l0.697-0.695C14.789,13.566,14.805,13.492,14.787,13.426
		L14.787,13.426z M13.854,13.581l-0.192-0.194l0.233-0.233l0.192,0.194L13.854,13.581L13.854,13.581z M13.606,13.336l-0.193-0.194
		l0.234-0.233l0.193,0.193L13.606,13.336z M13.361,13.089l-0.22-0.22l0.234-0.232l0.219,0.219L13.361,13.089z M13.089,12.816
		l-0.202-0.201l0.233-0.234l0.202,0.202L13.089,12.816z M12.835,12.562l-0.193-0.194l0.234-0.232l0.192,0.194L12.835,12.562z
		 M12.588,12.316l-0.21-0.21l0.233-0.233l0.21,0.21L12.588,12.316z M12.324,12.053l-0.192-0.193l0.232-0.233l0.193,0.193
		L12.324,12.053z M12.079,11.807l-0.212-0.211l0.233-0.233l0.211,0.211l-0.234,0.233H12.079z M11.815,11.545l-0.192-0.193
		l0.233-0.234l0.193,0.194L11.815,11.545L11.815,11.545z M11.57,11.298l-0.211-0.21l0.233-0.234l0.211,0.211L11.57,11.298z
		 M11.307,11.034l-0.192-0.192l0.233-0.234l0.194,0.193L11.307,11.034L11.307,11.034z M11.062,10.788l-0.237-0.237l0.129-0.128
		c0.057-0.057,0.159-0.048,0.229,0.021l0.112,0.111L11.062,10.788z M14.141,13.4l0.105,0.104c0.069,0.07,0.077,0.172,0.02,0.229
		l-0.129,0.129l-0.229-0.229L14.141,13.4z M10.636,10.74l0.135-0.135l0.237,0.236l-0.239,0.24l-0.112-0.113
		C10.587,10.9,10.578,10.799,10.636,10.74z M11.062,10.895l0.191,0.193l-0.24,0.24l-0.192-0.194l0.238-0.239H11.062z M11.307,11.14
		l0.211,0.211l-0.24,0.239l-0.21-0.211L11.307,11.14L11.307,11.14z M11.57,11.402l0.194,0.193l-0.24,0.239l-0.193-0.194
		L11.57,11.402L11.57,11.402z M11.815,11.649l0.211,0.21l-0.239,0.239l-0.211-0.211L11.815,11.649z M12.079,11.913l0.192,0.193
		l-0.239,0.239l-0.193-0.191L12.079,11.913L12.079,11.913z M12.324,12.158l0.212,0.21l-0.24,0.24l-0.211-0.21L12.324,12.158z
		 M12.588,12.422l0.194,0.194l-0.239,0.239l-0.192-0.193l0.24-0.24H12.588z M12.835,12.668l0.201,0.202l-0.239,0.24l-0.202-0.202
		L12.835,12.668z M13.089,12.923l0.22,0.22l-0.24,0.24l-0.219-0.221L13.089,12.923z M13.361,13.194l0.192,0.194l-0.239,0.239
		l-0.192-0.192l0.239-0.239V13.194z M13.606,13.441l0.193,0.192l-0.24,0.24l-0.193-0.192L13.606,13.441L13.606,13.441z
		 M13.948,14.053c-0.058,0.057-0.16,0.049-0.229-0.02l-0.105-0.106l0.24-0.239l0.229,0.229L13.948,14.053z"/>
	<path fill="#51473A" d="M5.203,4.259c0.003,0.025,0.015,0.05,0.035,0.069l4.666,4.666c0.049,0.048,0.127,0.048,0.176,0l0.07-0.069
		c0.048-0.049,0.048-0.127,0-0.177L9.026,7.624l0.588-0.588c0.077-0.076,0.077-0.2,0-0.275l-3.39-3.39
		c-0.076-0.076-0.199-0.076-0.275,0L5.253,4.067C5.201,4.118,5.186,4.192,5.203,4.259L5.203,4.259z M6.137,4.104L6.33,4.298
		L6.097,4.53L5.902,4.337L6.137,4.104L6.137,4.104z M6.383,4.35l0.194,0.193L6.343,4.776L6.149,4.583L6.383,4.35z M6.629,4.595
		l0.221,0.22L6.615,5.048l-0.22-0.22L6.629,4.595z M6.901,4.867l0.202,0.202L6.869,5.303L6.668,5.1L6.901,4.867z M7.156,5.122
		l0.192,0.193L7.116,5.55L6.923,5.355L7.156,5.122L7.156,5.122z M7.401,5.368l0.212,0.21L7.38,5.812L7.168,5.601L7.401,5.368
		L7.401,5.368z M7.665,5.631l0.194,0.194L7.626,6.058L7.432,5.865L7.665,5.631L7.665,5.631z M7.911,5.877l0.211,0.211L7.889,6.32
		L7.678,6.11L7.911,5.877z M8.175,6.141l0.193,0.193L8.134,6.568L7.942,6.374L8.175,6.141z M8.422,6.387l0.21,0.212L8.398,6.832
		L8.187,6.621L8.42,6.388L8.422,6.387z M8.685,6.65l0.191,0.193L8.644,7.077L8.45,6.884L8.685,6.65z M8.93,6.896l0.237,0.237
		L9.038,7.262c-0.058,0.058-0.16,0.05-0.229-0.02L8.697,7.13L8.93,6.896z M5.852,4.284L5.746,4.178
		C5.677,4.11,5.668,4.006,5.726,3.949L5.854,3.82l0.23,0.229L5.852,4.284z M9.354,6.943L9.218,7.079L8.981,6.842l0.239-0.239
		l0.112,0.111C9.402,6.784,9.41,6.886,9.354,6.943L9.354,6.943z M8.93,6.791L8.736,6.599l0.239-0.24L9.17,6.552L8.93,6.791
		L8.93,6.791z M8.685,6.545L8.474,6.334l0.239-0.239l0.211,0.211L8.685,6.545z M8.422,6.281L8.228,6.088l0.24-0.24L8.661,6.04
		L8.422,6.279V6.281z M8.175,6.035l-0.21-0.21l0.24-0.24l0.21,0.21L8.175,6.035z M7.911,5.772L7.719,5.578l0.239-0.239l0.193,0.193
		L7.911,5.772z M7.665,5.526L7.454,5.315l0.239-0.239l0.212,0.211L7.665,5.526z M7.401,5.263L7.209,5.07l0.239-0.24l0.193,0.193
		L7.401,5.263L7.401,5.263z M7.156,5.017L6.953,4.814l0.24-0.24l0.202,0.202L7.156,5.017z M6.901,4.763l-0.22-0.221l0.239-0.239
		l0.22,0.22L6.901,4.763z M6.629,4.49L6.436,4.298l0.24-0.24l0.191,0.193L6.629,4.49L6.629,4.49z M6.383,4.244L6.19,4.051
		L6.43,3.812l0.193,0.193L6.383,4.244L6.383,4.244z M6.043,3.632c0.058-0.058,0.16-0.048,0.229,0.02l0.105,0.106l-0.24,0.239
		l-0.23-0.23L6.043,3.632z"/>
	<path fill="#51473A" d="M5.412,13.634c0.025-0.005,0.05-0.015,0.069-0.034l0.017-0.016l4.65-4.651c0.048-0.048,0.048-0.127,0-0.176
		l-0.07-0.07c-0.048-0.048-0.126-0.048-0.175,0L8.779,9.811L8.19,9.223c-0.076-0.076-0.199-0.076-0.275,0l-3.389,3.39
		c-0.076,0.075-0.075,0.2,0,0.274l0.696,0.696c0.051,0.051,0.124,0.068,0.19,0.049L5.412,13.634z M5.256,12.7l0.193-0.194
		l0.233,0.233l-0.193,0.193L5.256,12.7z M5.502,12.454l0.193-0.194l0.233,0.233l-0.192,0.192l-0.233-0.233L5.502,12.454z
		 M5.748,12.209l0.22-0.221l0.233,0.234l-0.22,0.22L5.748,12.209z M6.021,11.938l0.201-0.203l0.234,0.233L6.253,12.17L6.021,11.938z
		 M6.275,11.682l0.192-0.194l0.233,0.233l-0.192,0.194L6.275,11.682z M6.521,11.436l0.21-0.211l0.233,0.234l-0.211,0.21L6.52,11.436
		H6.521z M6.784,11.173l0.193-0.194l0.233,0.234l-0.193,0.192L6.784,11.173z M7.03,10.926l0.21-0.209l0.233,0.232L7.262,11.16
		L7.03,10.926L7.03,10.926z M7.294,10.662l0.192-0.191l0.233,0.232l-0.192,0.193L7.294,10.662L7.294,10.662z M7.54,10.417l0.21-0.21
		l0.233,0.232L7.772,10.65L7.54,10.417L7.54,10.417z M7.804,10.153l0.192-0.194l0.233,0.234l-0.193,0.193L7.804,10.153L7.804,10.153
		z M8.048,9.907l0.237-0.236L8.414,9.8c0.058,0.058,0.048,0.159-0.021,0.229l-0.111,0.112L8.048,9.907z M5.437,12.986l-0.105,0.106
		c-0.069,0.069-0.172,0.077-0.229,0.021l-0.128-0.129l0.229-0.231L5.437,12.986z M8.097,9.483l0.135,0.135L7.995,9.854L7.756,9.615
		l0.111-0.112C7.937,9.434,8.039,9.426,8.097,9.483z M7.944,9.907L7.75,10.101L7.511,9.861l0.193-0.192L7.944,9.907L7.944,9.907z
		 M7.697,10.153l-0.211,0.21l-0.239-0.239l0.211-0.211L7.697,10.153z M7.434,10.417l-0.191,0.192l-0.24-0.239l0.193-0.194
		L7.434,10.417L7.434,10.417z M7.188,10.662l-0.212,0.211l-0.24-0.24l0.211-0.21l0.239,0.239H7.188z M6.924,10.926L6.73,11.119
		L6.491,10.88l0.193-0.193L6.924,10.926z M6.68,11.173l-0.211,0.21l-0.239-0.24l0.21-0.209L6.68,11.173z M6.416,11.436l-0.194,0.193
		L5.982,11.39l0.193-0.192L6.416,11.436L6.416,11.436z M6.169,11.682l-0.201,0.201l-0.24-0.24l0.202-0.201L6.169,11.682z
		 M5.915,11.938l-0.22,0.219l-0.239-0.239l0.22-0.22L5.915,11.938z M5.642,12.209l-0.192,0.193l-0.24-0.24l0.193-0.193L5.642,12.209
		z M5.397,12.454l-0.194,0.192l-0.239-0.239l0.193-0.192L5.397,12.454L5.397,12.454z M4.785,12.795
		c-0.059-0.058-0.049-0.16,0.02-0.229l0.105-0.104L5.15,12.7L4.92,12.93L4.785,12.795z"/>
	<path fill="#51473A" d="M14.579,4.051c-0.026,0.005-0.051,0.016-0.071,0.035l-0.015,0.015L9.842,8.753
		c-0.048,0.048-0.048,0.126,0,0.176l0.07,0.07c0.048,0.049,0.127,0.049,0.175,0l1.124-1.123l0.588,0.588
		c0.077,0.076,0.201,0.076,0.276,0l3.39-3.39c0.077-0.076,0.077-0.2,0-0.275L14.77,4.103c-0.052-0.052-0.126-0.068-0.19-0.049V4.051
		z M14.735,4.984l-0.194,0.193l-0.233-0.233L14.5,4.752l0.233,0.233L14.735,4.984z M14.488,5.229l-0.192,0.194L14.062,5.19
		l0.192-0.193L14.488,5.229z M14.242,5.477l-0.22,0.22l-0.233-0.233l0.221-0.221L14.242,5.477z M13.971,5.748L13.768,5.95
		l-0.232-0.233l0.202-0.202L13.971,5.748z M13.716,6.003l-0.192,0.193L13.29,5.963l0.193-0.192L13.716,6.003L13.716,6.003z
		 M13.47,6.249l-0.211,0.21l-0.232-0.233l0.21-0.211L13.47,6.249z M13.206,6.513l-0.192,0.193L12.78,6.473l0.192-0.194L13.206,6.513
		z M12.961,6.758L12.75,6.97l-0.233-0.233l0.211-0.21L12.961,6.758L12.961,6.758z M12.697,7.022l-0.192,0.192l-0.234-0.233
		l0.193-0.193l0.232,0.232L12.697,7.022z M12.45,7.269l-0.209,0.21l-0.234-0.233l0.212-0.21L12.45,7.269L12.45,7.269z M12.188,7.531
		l-0.194,0.193l-0.232-0.233l0.193-0.193L12.188,7.531z M11.942,7.776l-0.237,0.237l-0.129-0.129
		c-0.057-0.058-0.048-0.16,0.021-0.229l0.111-0.112L11.942,7.776z M14.553,4.698l0.106-0.105c0.069-0.069,0.172-0.078,0.229-0.021
		l0.129,0.129l-0.23,0.23L14.553,4.698z M11.894,8.202l-0.136-0.136l0.237-0.236l0.239,0.24l-0.112,0.112
		C12.054,8.251,11.951,8.26,11.894,8.202z M12.048,7.776l0.193-0.193l0.24,0.24l-0.193,0.193L12.048,7.776z M12.292,7.532
		l0.211-0.212l0.24,0.24l-0.212,0.21L12.292,7.532L12.292,7.532z M12.556,7.269l0.193-0.194l0.24,0.24l-0.193,0.193L12.556,7.269z
		 M12.802,7.022l0.212-0.211l0.239,0.24l-0.21,0.21L12.802,7.022L12.802,7.022z M13.066,6.758l0.193-0.193l0.239,0.24l-0.192,0.193
		L13.066,6.758L13.066,6.758z M13.312,6.513l0.211-0.211l0.24,0.239l-0.212,0.212L13.312,6.513L13.312,6.513z M13.575,6.25
		l0.192-0.194l0.24,0.24l-0.192,0.193L13.575,6.25z M13.821,6.004l0.202-0.202l0.24,0.239l-0.202,0.202L13.821,6.004z M14.077,5.748
		l0.219-0.22l0.24,0.24l-0.22,0.22L14.077,5.748z M14.349,5.477l0.192-0.194l0.239,0.24l-0.193,0.193l-0.24-0.239H14.349z
		 M14.594,5.229l0.194-0.193l0.239,0.24L14.834,5.47L14.594,5.229z M15.205,4.89c0.058,0.058,0.05,0.16-0.02,0.229l-0.104,0.105
		l-0.24-0.239l0.229-0.23L15.205,4.89z"/>
	<path fill="#3A2F22" d="M10.353,8.871c0,0.195-0.158,0.354-0.354,0.354c-0.196,0-0.354-0.158-0.354-0.354
		c0-0.196,0.157-0.354,0.354-0.354C10.194,8.517,10.353,8.675,10.353,8.871z"/>
	<path fill="#423528" d="M10.222,8.871c0,0.123-0.101,0.224-0.224,0.224c-0.124,0-0.225-0.101-0.225-0.224
		c0-0.124,0.101-0.225,0.225-0.225C10.121,8.646,10.222,8.747,10.222,8.871z"/>
	<path fill="#4C3E30" d="M9.866,8.975c-0.065-0.065-0.065-0.171,0-0.235c0.064-0.065,0.17-0.065,0.235,0
		C10.166,8.804,9.931,9.039,9.866,8.975z"/>
	<path fill="#665C51" d="M10.428,12.68c0,0.109-0.088,0.197-0.195,0.197H9.719c-0.108,0-0.196-0.088-0.196-0.197v-0.871
		c0-0.108,0.088-0.196,0.196-0.196h0.514c0.107,0,0.195,0.088,0.195,0.196V12.68z"/>
	<path fill="#665C51" d="M10.428,15.301c0,0.109-0.088,0.197-0.195,0.197H9.719c-0.108,0-0.196-0.088-0.196-0.197V14.43
		c0-0.108,0.088-0.196,0.196-0.196h0.514c0.107,0,0.195,0.088,0.195,0.196V15.301z"/>
</g>
</svg>
