<?xml version="1.0" encoding="utf-8"?>
<!-- Generator: Adobe Illustrator 16.0.0, SVG Export Plug-In . SVG Version: 6.00 Build 0)  -->
<!DOCTYPE svg PUBLIC "-//W3C//DTD SVG 1.1//EN" "http://www.w3.org/Graphics/SVG/1.1/DTD/svg11.dtd">
<svg version="1.1" id="Layer_1" xmlns="http://www.w3.org/2000/svg" xmlns:xlink="http://www.w3.org/1999/xlink" x="0px" y="0px"
	 width="20px" height="20px" viewBox="0 0 20 20" enable-background="new 0 0 20 20" xml:space="preserve">
<g>
	<path fill="#E8E8DF" d="M19.69,10c0,5.351-4.338,9.69-9.69,9.69S0.31,15.353,0.31,10c0-5.352,4.338-9.69,9.69-9.69
		S19.69,4.647,19.69,10z"/>
	<path fill="#93793D" d="M10.162,10.072c-0.56,0-1.014,0.454-1.014,1.015v6.241c0,0.561,0.455,0.631,1.014,0.631
		c0.56,0,1.014-0.07,1.014-0.631v-6.241C11.176,10.526,10.722,10.072,10.162,10.072z"/>
	<path fill="#93793D" d="M10.609,14.44l2.778-1.479l0.23,0.152l-2.627,2.449L10.609,14.44z"/>
	<path fill="#93793D" d="M9.921,14.032l-2.882-3.953l-0.2,0.153l2.495,4.846L9.921,14.032z"/>
	<path fill="#65A844" d="M8.17,8.754c0,0.888-0.719,1.607-1.607,1.607c-0.887,0-1.606-0.72-1.606-1.607s0.72-1.606,1.606-1.606
		C7.451,7.147,8.17,7.866,8.17,8.754z"/>
	<path fill="#65A844" d="M15.506,8.754c0,0.888-0.719,1.607-1.607,1.607c-0.887,0-1.606-0.72-1.606-1.607s0.72-1.606,1.606-1.606
		C14.787,7.147,15.506,7.866,15.506,8.754z"/>
	<path fill="#65A844" d="M9.829,10.307c0,0.888-0.719,1.607-1.607,1.607c-0.887,0-1.606-0.72-1.606-1.607s0.72-1.607,1.606-1.607
		C9.11,8.699,9.829,9.419,9.829,10.307z"/>
	<path fill="#65A844" d="M13.952,10.253c0,0.888-0.719,1.607-1.606,1.607s-1.606-0.72-1.606-1.607s0.719-1.606,1.606-1.606
		S13.952,9.365,13.952,10.253z"/>
	<path fill="#65A844" d="M11.864,10.735c0,0.887-0.72,1.605-1.606,1.605c-0.889,0-1.607-0.719-1.607-1.605
		c0-0.889,0.719-1.607,1.607-1.607C11.145,9.128,11.864,9.847,11.864,10.735z"/>
	<path fill="#65A844" d="M9.829,7.361c0,0.889-0.719,1.607-1.607,1.607c-0.887,0-1.606-0.719-1.606-1.607
		c0-0.888,0.72-1.606,1.606-1.606C9.11,5.755,9.829,6.474,9.829,7.361z"/>
	<path fill="#65A844" d="M13.952,7.361c0,0.889-0.719,1.607-1.606,1.607s-1.606-0.719-1.606-1.607c0-0.888,0.719-1.606,1.606-1.606
		S13.952,6.474,13.952,7.361z"/>
	<path fill="#65A844" d="M9.08,5.541c0,0.887-0.72,1.606-1.607,1.606s-1.606-0.72-1.606-1.606c0-0.889,0.719-1.607,1.606-1.607
		S9.08,4.652,9.08,5.541z"/>
	<path fill="#65A844" d="M14.488,5.541c0,0.887-0.718,1.606-1.606,1.606s-1.607-0.72-1.607-1.606c0-0.889,0.719-1.607,1.607-1.607
		S14.488,4.652,14.488,5.541z"/>
	<path fill="#65A844" d="M8.276,6.933c0,0.888-0.719,1.606-1.606,1.606S5.063,7.82,5.063,6.933S5.782,5.326,6.67,5.326
		S8.276,6.045,8.276,6.933z"/>
	<path fill="#65A844" d="M15.399,6.933c0,0.888-0.72,1.606-1.606,1.606c-0.888,0-1.607-0.719-1.607-1.606s0.72-1.606,1.607-1.606
		C14.68,5.326,15.399,6.045,15.399,6.933z"/>
	<path fill="#65A844" d="M13.043,7.361c0,1.538-1.247,2.785-2.784,2.785c-1.538,0-2.785-1.247-2.785-2.785
		c0-1.537,1.247-2.784,2.785-2.784C11.796,4.577,13.043,5.824,13.043,7.361z"/>
	<path fill="#65A844" d="M10.204,4.897c0,0.888-0.72,1.607-1.606,1.607c-0.889,0-1.607-0.72-1.607-1.607s0.719-1.606,1.607-1.606
		C9.484,3.291,10.204,4.01,10.204,4.897z"/>
	<path fill="#65A844" d="M11.864,4.31c0,0.888-0.72,1.606-1.606,1.606c-0.889,0-1.607-0.719-1.607-1.606s0.719-1.607,1.607-1.607
		C11.145,2.702,11.864,3.422,11.864,4.31z"/>
	<path fill="#65A844" d="M13.418,4.897c0,0.888-0.719,1.607-1.606,1.607c-0.889,0-1.607-0.72-1.607-1.607s0.719-1.606,1.607-1.606
		C12.699,3.291,13.418,4.01,13.418,4.897z"/>
	<path fill="#5C9340" d="M12.238,7.018c-0.167,0-0.328-0.019-0.483-0.047c-0.371,0.386-0.958,0.636-1.619,0.636
		c-0.65,0-1.228-0.241-1.601-0.616C8.416,7.007,8.294,7.018,8.169,7.018c-0.947,0-1.742-0.513-1.968-1.205
		C6.159,5.941,6.134,6.075,6.134,6.214c0,0.889,0.91,1.607,2.035,1.607c0.126,0,0.247-0.01,0.366-0.027
		c0.373,0.375,0.95,0.617,1.601,0.617c0.661,0,1.248-0.25,1.619-0.637c0.155,0.029,0.316,0.047,0.483,0.047
		c1.125,0,2.036-0.719,2.036-1.607c0-0.139-0.026-0.272-0.066-0.401C13.98,6.505,13.188,7.018,12.238,7.018z"/>
	<path fill="#5C9340" d="M12.539,9.337c-0.191,0-0.376-0.02-0.554-0.055c-0.427,0.443-1.1,0.73-1.858,0.73
		c-0.747,0-1.409-0.277-1.836-0.708c-0.138,0.02-0.278,0.031-0.422,0.031c-1.088,0-1.998-0.588-2.258-1.383
		C5.563,8.101,5.535,8.255,5.535,8.414c0,1.018,1.046,1.844,2.334,1.844c0.144,0,0.284-0.012,0.422-0.032
		c0.427,0.431,1.089,0.709,1.836,0.709c0.759,0,1.431-0.287,1.858-0.731c0.178,0.034,0.362,0.055,0.554,0.055
		c1.29,0,2.335-0.826,2.335-1.844c0-0.159-0.028-0.313-0.076-0.461C14.538,8.748,13.627,9.336,12.539,9.337L12.539,9.337z"/>
	<path fill="#5C9340" d="M11.576,5.043c-0.112,0-0.221-0.012-0.325-0.032C11,5.271,10.605,5.44,10.159,5.44
		c-0.439,0-0.828-0.164-1.079-0.416C9,5.036,8.917,5.043,8.832,5.043c-0.639,0-1.174-0.345-1.326-0.812
		C7.477,4.317,7.461,4.408,7.461,4.502c0,0.599,0.614,1.084,1.371,1.084c0.085,0,0.168-0.008,0.248-0.02
		c0.251,0.252,0.64,0.416,1.079,0.416c0.446,0,0.842-0.169,1.092-0.43c0.104,0.021,0.213,0.033,0.325,0.033
		c0.759,0,1.372-0.485,1.372-1.084c0-0.093-0.017-0.185-0.045-0.271C12.751,4.698,12.216,5.043,11.576,5.043z"/>
	<path fill="#65A844" d="M13.509,12.931c0,0.177-0.145,0.322-0.322,0.322s-0.322-0.144-0.322-0.322c0-0.177,0.145-0.321,0.322-0.321
		S13.509,12.753,13.509,12.931z"/>
	<path fill="#65A844" d="M14.964,13.103c0,0.177-0.143,0.322-0.32,0.322c-0.179,0-0.322-0.145-0.322-0.322
		c0-0.177,0.144-0.321,0.322-0.321C14.821,12.781,14.964,12.925,14.964,13.103z"/>
	<path fill="#65A844" d="M13.801,13.277c0,0.177-0.144,0.321-0.321,0.321s-0.32-0.144-0.32-0.321c0-0.177,0.143-0.321,0.32-0.321
		S13.801,13.1,13.801,13.277z"/>
	<path fill="#65A844" d="M14.63,13.287c0,0.179-0.144,0.322-0.321,0.322c-0.179,0-0.322-0.144-0.322-0.322
		c0-0.178,0.144-0.32,0.322-0.32C14.486,12.967,14.63,13.109,14.63,13.287z"/>
	<path fill="#65A844" d="M14.199,13.373c0,0.179-0.143,0.321-0.32,0.321c-0.179,0-0.321-0.143-0.321-0.321s0.143-0.321,0.321-0.321
		C14.057,13.052,14.199,13.194,14.199,13.373z"/>
	<path fill="#65A844" d="M13.87,12.693c0,0.177-0.143,0.321-0.321,0.321c-0.178,0-0.321-0.144-0.321-0.321
		c0-0.177,0.144-0.321,0.321-0.321C13.728,12.372,13.87,12.515,13.87,12.693z"/>
	<path fill="#65A844" d="M14.688,12.79c0,0.177-0.144,0.321-0.321,0.321s-0.321-0.144-0.321-0.321c0-0.177,0.144-0.322,0.321-0.322
		S14.688,12.612,14.688,12.79z"/>
	<path fill="#65A844" d="M13.764,12.314c0,0.177-0.143,0.321-0.32,0.321c-0.179,0-0.321-0.144-0.321-0.321
		c0-0.177,0.143-0.321,0.321-0.321C13.621,11.993,13.764,12.137,13.764,12.314z"/>
	<path fill="#65A844" d="M14.837,12.441c0,0.177-0.143,0.32-0.32,0.32s-0.322-0.143-0.322-0.32c0-0.177,0.145-0.321,0.322-0.321
		S14.837,12.264,14.837,12.441z"/>
	<path fill="#65A844" d="M13.571,12.572c0,0.177-0.143,0.32-0.32,0.32s-0.322-0.143-0.322-0.32c0-0.177,0.145-0.321,0.322-0.321
		S13.571,12.395,13.571,12.572z"/>
	<path fill="#65A844" d="M14.986,12.739c0,0.178-0.144,0.321-0.321,0.321c-0.179,0-0.322-0.143-0.322-0.321
		c0-0.177,0.144-0.32,0.322-0.32C14.843,12.419,14.986,12.562,14.986,12.739z"/>
	<path fill="#65A844" d="M14.51,12.742c0,0.308-0.249,0.556-0.558,0.556c-0.307,0-0.557-0.248-0.557-0.556
		c0-0.309,0.25-0.558,0.557-0.558C14.261,12.185,14.51,12.434,14.51,12.742z"/>
	<path fill="#65A844" d="M14.002,12.213c0,0.177-0.144,0.321-0.322,0.321c-0.178,0-0.32-0.144-0.32-0.321
		c0-0.177,0.143-0.321,0.32-0.321C13.858,11.892,14.002,12.034,14.002,12.213z"/>
	<path fill="#65A844" d="M14.345,12.136c0,0.177-0.144,0.321-0.321,0.321s-0.321-0.144-0.321-0.321c0-0.177,0.144-0.322,0.321-0.322
		S14.345,11.958,14.345,12.136z"/>
	<path fill="#65A844" d="M14.641,12.288c0,0.178-0.144,0.321-0.321,0.321s-0.322-0.144-0.322-0.321c0-0.176,0.145-0.321,0.322-0.321
		S14.641,12.11,14.641,12.288z"/>
	<path fill="#5C9340" d="M14.298,13.036c-0.03,0-0.059-0.004-0.086-0.008c-0.064,0.067-0.167,0.111-0.283,0.111
		c-0.113,0-0.216-0.042-0.281-0.107c-0.021,0.002-0.041,0.004-0.063,0.004c-0.166,0-0.306-0.09-0.346-0.211
		c-0.007,0.022-0.011,0.046-0.011,0.07c0,0.155,0.16,0.281,0.356,0.281c0.022,0,0.043-0.002,0.063-0.006
		c0.065,0.066,0.168,0.108,0.281,0.108c0.116,0,0.219-0.044,0.283-0.112c0.027,0.006,0.056,0.009,0.086,0.009
		c0.196,0,0.355-0.125,0.355-0.28c0-0.025-0.004-0.05-0.01-0.071C14.603,12.946,14.463,13.036,14.298,13.036z"/>
</g>
</svg>
