<?xml version="1.0" encoding="utf-8"?>
<!-- Generator: Adobe Illustrator 16.0.0, SVG Export Plug-In . SVG Version: 6.00 Build 0)  -->
<!DOCTYPE svg PUBLIC "-//W3C//DTD SVG 1.1//EN" "http://www.w3.org/Graphics/SVG/1.1/DTD/svg11.dtd">
<svg version="1.1" id="Layer_1" xmlns="http://www.w3.org/2000/svg" xmlns:xlink="http://www.w3.org/1999/xlink" x="0px" y="0px"
	 width="20px" height="20px" viewBox="0 0 20 20" enable-background="new 0 0 20 20" xml:space="preserve">
<g>
	<path fill="#B1C635" d="M19.69,10c0,5.351-4.338,9.69-9.69,9.69S0.31,15.353,0.31,10c0-5.352,4.338-9.69,9.69-9.69
		S19.69,4.647,19.69,10z"/>
	<path fill="#4D4946" d="M13.664,16.062c0,0.295-0.239,0.533-0.533,0.533H5.786c-0.295,0-0.533-0.238-0.533-0.533V3.92
		c0-0.294,0.239-0.532,0.533-0.532h7.345c0.294,0,0.533,0.238,0.533,0.532V16.062z"/>
	<path fill="#E8E8E8" d="M12.48,7.899c0,0.211-0.172,0.383-0.384,0.383H6.82c-0.211,0-0.383-0.172-0.383-0.383V4.839
		c0-0.211,0.172-0.383,0.383-0.383h5.276c0.212,0,0.384,0.172,0.384,0.383V7.899z"/>
	<path fill="#453F38" d="M14.592,16.357c0,0.293-0.238,0.532-0.532,0.532H4.879c-0.295,0-0.533-0.239-0.533-0.532l0,0
		c0-0.294,0.239-0.532,0.533-0.532h9.181C14.354,15.825,14.592,16.063,14.592,16.357L14.592,16.357z"/>
	<path fill="#B1C635" d="M11.224,13.118c0-1.714-1.684-3.188-1.684-3.188c-0.643,1.56-1.683,1.947-1.683,3.188
		c0,0.866,0.654,1.578,1.494,1.672c0.216-0.627,0.423-1.136,0.423-1.868c0,0,0.258,0.877-0.033,1.866
		C10.576,14.688,11.224,13.979,11.224,13.118L11.224,13.118z"/>
	<path fill="#4D4946" d="M15.639,14.521h-1.145c-0.131,0-0.237-0.105-0.237-0.236V8.52h-0.748c-0.131,0-0.237-0.105-0.237-0.236
		s0.106-0.237,0.237-0.237h0.986c0.131,0,0.236,0.106,0.236,0.237v5.765h0.671V4.827l-1.174-1.174c-0.093-0.092-0.093-0.243,0-0.335
		c0.092-0.093,0.243-0.093,0.335,0l1.243,1.243c0.045,0.045,0.07,0.104,0.07,0.167v9.556c0,0.131-0.105,0.236-0.236,0.236H15.639z"
		/>
	<path fill="#4D4946" d="M15.749,5.512c-0.118,0.119-0.311,0.119-0.428,0l-0.695-0.693c-0.118-0.118-0.118-0.311,0-0.429
		l0.249-0.249c0.118-0.118,0.31-0.118,0.429,0l0.463,0.464L15.749,5.512L15.749,5.512z"/>
	<path fill="#B1C635" d="M9.919,5.489c0,0.11-0.089,0.199-0.2,0.199H7.171c-0.11,0-0.199-0.089-0.199-0.199l0,0
		c0-0.111,0.089-0.2,0.199-0.2h2.548C9.83,5.289,9.919,5.379,9.919,5.489L9.919,5.489z"/>
	<path fill="#B1C635" d="M11.97,5.289h-1.228c-0.11,0-0.2,0.09-0.2,0.2c0,0.109,0.09,0.199,0.2,0.199h1.228
		c0.111,0,0.2-0.089,0.2-0.199C12.17,5.378,12.081,5.289,11.97,5.289z"/>
	<path fill="#B1C635" d="M9.919,6.437c0,0.11-0.089,0.2-0.2,0.2H7.171c-0.11,0-0.199-0.09-0.199-0.2l0,0c0-0.11,0.089-0.2,0.199-0.2
		h2.548C9.83,6.236,9.919,6.327,9.919,6.437L9.919,6.437z"/>
	<path fill="#B1C635" d="M9.919,7.424c0,0.11-0.089,0.199-0.2,0.199H7.171c-0.11,0-0.199-0.09-0.199-0.199l0,0
		c0-0.11,0.089-0.2,0.199-0.2h2.548C9.83,7.224,9.919,7.313,9.919,7.424L9.919,7.424z"/>
</g>
</svg>
