<?xml version="1.0" encoding="utf-8"?>
<!-- Generator: Adobe Illustrator 16.0.0, SVG Export Plug-In . SVG Version: 6.00 Build 0)  -->
<!DOCTYPE svg PUBLIC "-//W3C//DTD SVG 1.1//EN" "http://www.w3.org/Graphics/SVG/1.1/DTD/svg11.dtd">
<svg version="1.1" id="Layer_1" xmlns="http://www.w3.org/2000/svg" xmlns:xlink="http://www.w3.org/1999/xlink" x="0px" y="0px"
	 width="20px" height="20px" viewBox="0 0 20 20" enable-background="new 0 0 20 20" xml:space="preserve">
<g>
	<path fill="#A0D2DC" d="M19.69,9.996c0,5.352-4.338,9.689-9.69,9.689s-9.69-4.338-9.69-9.689S4.647,0.307,10,0.307
		S19.69,4.644,19.69,9.996z"/>
	<path fill="#A0D2DC" d="M19.04,13.491c0.419-1.084,0.65-2.26,0.65-3.49c0-5.352-4.338-9.689-9.69-9.689s-9.69,4.338-9.69,9.689
		c0,1.098,0.186,2.153,0.522,3.139c2.436-1.284,5.484-1.897,8.791-1.897C13.22,11.242,16.51,11.967,19.04,13.491z"/>
	<path fill="#B1C635" d="M10,19.692c4.122,0,7.639-2.574,9.04-6.2c-2.53-1.525-5.819-2.248-9.416-2.248
		c-3.308,0-6.355,0.611-8.791,1.896C2.138,16.952,5.748,19.693,10,19.692L10,19.692z"/>
	<path fill="#EFEFEF" d="M10.507,11.26l-0.054-0.908c0-0.332-0.16-0.603-0.359-0.603H9.999l0.003,1.497
		C10.172,11.248,10.339,11.253,10.507,11.26L10.507,11.26z"/>
	<path fill="#EFEFEF" d="M10.002,11.246l0.019,8.445c0.331-0.001,0.658-0.019,0.98-0.053l-0.494-8.379
		c-0.168-0.006-0.335-0.01-0.505-0.012V11.246z"/>
	<path fill="#E4E4E4" d="M10.002,11.246L9.999,9.749H9.944c-0.198,0-0.359,0.271-0.359,0.603l-0.052,0.893
		c0.03,0,0.06-0.002,0.09-0.002c0.126,0,0.252,0.004,0.379,0.006V11.246z"/>
	<path fill="#E4E4E4" d="M10.021,19.691l-0.019-8.445c-0.126-0.002-0.253-0.004-0.379-0.004c-0.03,0-0.06,0-0.09,0l-0.495,8.399
		c0.315,0.032,0.636,0.05,0.961,0.05C10.006,19.691,10.013,19.691,10.021,19.691L10.021,19.691z"/>
	<path fill="#E4E4E4" d="M10.507,10.368c0,0.107-0.102,0.194-0.227,0.194H9.748c-0.124,0-0.226-0.087-0.226-0.194V9.705
		c0-0.107,0.102-0.194,0.226-0.194h0.532c0.126,0,0.227,0.087,0.227,0.194V10.368z"/>
	<path fill="#CDCCCB" d="M10.406,9.994c0,0.227-0.185,0.412-0.413,0.412c-0.228,0-0.412-0.185-0.412-0.412s0.185-0.412,0.412-0.412
		C10.222,9.582,10.406,9.766,10.406,9.994z"/>
	<path fill="#D7D7D7" d="M8.361,10.517l0.615,0.032C9.123,10.559,9.9,10.1,9.9,10.1c0.009-0.146-0.104-0.271-0.249-0.278
		L2.073,9.409C1.928,9.4,1.803,9.513,1.795,9.659C1.795,9.659,8.216,10.509,8.361,10.517L8.361,10.517z"/>
	<path fill="#E9E9EA" d="M8.387,10.435l0.615,0.034c0.146,0.008,0.924-0.45,0.924-0.45c0.008-0.146-0.104-0.271-0.251-0.279
		L2.098,9.328C1.951,9.32,1.826,9.432,1.819,9.578C1.819,9.578,8.24,10.429,8.387,10.435L8.387,10.435z"/>
	<path fill="#D7D7D7" d="M10.345,8.43l-0.3,0.54c-0.071,0.127,0.001,1.027,0.001,1.027c0.128,0.071,0.289,0.025,0.359-0.103
		L14.09,3.26c0.07-0.128,0.025-0.288-0.104-0.36c0,0-3.572,5.404-3.644,5.531L10.345,8.43z"/>
	<path fill="#E9E9EA" d="M10.312,8.354l-0.299,0.538c-0.071,0.128,0.002,1.028,0.002,1.028c0.127,0.071,0.289,0.025,0.358-0.103
		l3.686-6.635c0.071-0.128,0.024-0.289-0.103-0.36C13.956,2.823,10.383,8.228,10.312,8.354L10.312,8.354z"/>
	<path fill="#D7D7D7" d="M11.261,11.144l-0.326-0.523c-0.078-0.122-0.899-0.496-0.899-0.496c-0.123,0.077-0.161,0.239-0.084,0.364
		l4.013,6.44c0.078,0.125,0.242,0.163,0.364,0.085C14.328,17.014,11.337,11.268,11.261,11.144z"/>
	<path fill="#E9E9EA" d="M11.294,11.055l-0.326-0.523c-0.076-0.123-0.899-0.496-0.899-0.496c-0.123,0.077-0.16,0.239-0.084,0.364
		l4.013,6.439c0.078,0.124,0.241,0.163,0.365,0.085C14.362,16.924,11.37,11.179,11.294,11.055L11.294,11.055z"/>
	<path fill="#E4E4E4" d="M10.259,9.994c0,0.146-0.119,0.265-0.266,0.265s-0.265-0.118-0.265-0.265s0.118-0.265,0.265-0.265
		S10.259,9.848,10.259,9.994z"/>
</g>
</svg>
