<?xml version="1.0" encoding="utf-8"?>
<!-- Generated by IcoMoon.io -->
<!DOCTYPE svg PUBLIC "-//W3C//DTD SVG 1.1//EN" "http://www.w3.org/Graphics/SVG/1.1/DTD/svg11.dtd">
<svg version="1.1" xmlns="http://www.w3.org/2000/svg" xmlns:xlink="http://www.w3.org/1999/xlink" width="20" height="20" viewBox="0 0 20 20">
<path fill="rgb(177, 198, 53)" d="M19.257 10c0 5.112-4.144 9.257-9.257 9.257s-9.257-4.144-9.257-9.257c0-5.112 4.144-9.257 9.257-9.257s9.257 4.144 9.257 9.257z"></path>
<path fill="rgb(130, 130, 130)" d="M9.461 16.050l-0.115 0.945c0 0.311 0.348 0.406 0.955 0.406s1.015-0.096 1.015-0.406l-0.116-0.945h-1.739z"></path>
<path fill="rgb(192, 192, 192)" d="M9.092 15.535l-0.164 1.019c0 0.401 0.496 0.346 1.36 0.346s1.446 0.055 1.446-0.346l-0.164-1.019h-2.478z"></path>
<path fill="rgb(147, 146, 146)" d="M8.956 15.091l-0.182 1.055c0 0.445 0.55 0.4 1.509 0.4s1.604 0.045 1.604-0.4l-0.182-1.055h-2.748z"></path>
<path fill="rgb(192, 192, 192)" d="M8.909 14.689l-0.189 1.067c0 0.461 0.661 0.424 1.653 0.424s1.568 0.036 1.568-0.424l-0.189-1.067h-2.844z"></path>
<path fill="rgb(161, 159, 159)" d="M8.909 15.002l-0.189 0.377c0 0.461 0.569 0.415 1.562 0.415s1.66 0.046 1.66-0.415l-0.189-0.377h-2.844z"></path>
<path fill="rgb(192, 192, 192)" d="M11.079 13.979h-1.497c-0.476 0-0.862 0.373-0.862 0.834v0.189c0 0.46 0.631 0.395 1.624 0.395s1.598 0.065 1.598-0.395v-0.189c-0-0.46-0.386-0.834-0.862-0.834z"></path>
<path fill="rgb(231, 231, 231)" d="M12.049 14.025c0-2.14 3.078-2.533 3.078-5.998 0-2.709-2.194-4.903-4.903-4.904-2.709 0.001-4.903 2.195-4.903 4.904 0 3.356 3.143 3.818 3.143 6.002 0 1.406 3.585 1.442 3.585-0.004z"></path>
<path fill="rgb(140, 178, 63)" d="M12.942 9.866l-0.081-0.078-1.984 1.056-0.134-2.045c0-0.049-0.004-0.098-0.009-0.144l0.511-1.347-0.054-0.044-0.776 0.767c-0.003-0.002-0.006-0.003-0.009-0.005l-1.061-1.645-0.070 0.057 0.436 2.080c-0.020 0.088-0.032 0.183-0.032 0.282l-0.113 1.717-2.012-2.597-0.072 0.052 1.997 3.877 0.262 3.195c0 0 0.243 0.066 0.581 0.066s0.551-0.066 0.551-0.066l0.072-3.172 1.997-2.005z"></path>
<path fill="rgb(140, 178, 63)" d="M7.774 8.084c0.106 0.109 0.28 0.112 0.389 0.006 0.201-0.195 0.183-0.56 0.183-0.56-0.257 0.102-0.421 0.024-0.566 0.165-0.109 0.106-0.112 0.28-0.006 0.389z"></path>
<path fill="rgb(140, 178, 63)" d="M7.269 7.151c0.147 0.032 0.293-0.062 0.324-0.209 0.058-0.272-0.158-0.564-0.158-0.564-0.155 0.226-0.333 0.251-0.376 0.449-0.031 0.147 0.063 0.293 0.21 0.324z"></path>
<path fill="rgb(140, 178, 63)" d="M6.894 6.814c0.119-0.093 0.14-0.265 0.047-0.384-0.172-0.219-0.534-0.239-0.534-0.239 0.074 0.264-0.020 0.417 0.104 0.576 0.093 0.119 0.265 0.139 0.383 0.046z"></path>
<path fill="rgb(140, 178, 63)" d="M7.281 8.232c-0.161 0.071-0.151 0.228-0.315 0.4 0 0 0.287 0.133 0.508 0.035 0.12-0.053 0.174-0.194 0.121-0.314s-0.193-0.174-0.313-0.12z"></path>
<path fill="rgb(140, 178, 63)" d="M7.387 7.368c-0.046 0.112 0.007 0.24 0.12 0.285 0.111 0.046 0.239-0.007 0.285-0.119 0.085-0.206-0.044-0.466-0.044-0.466-0.154 0.156-0.298 0.15-0.36 0.3z"></path>
<path fill="rgb(140, 178, 63)" d="M7.345 7.81c-0.025-0.202-0.209-0.346-0.41-0.322-0.27 0.033-0.327 0.269-0.649 0.45 0 0 0.365 0.327 0.738 0.282 0.202-0.025 0.346-0.209 0.321-0.411z"></path>
<path fill="rgb(140, 178, 63)" d="M6.833 7.383c0.12-0.022 0.2-0.138 0.178-0.258s-0.138-0.2-0.258-0.178c-0.16 0.030-0.186 0.173-0.372 0.293 0 0 0.231 0.183 0.453 0.142z"></path>
<path fill="rgb(140, 178, 63)" d="M12.811 10.051c-0.111 0.103-0.119 0.277-0.015 0.389 0.19 0.206 0.556 0.196 0.556 0.196-0.096-0.259-0.013-0.42-0.151-0.569-0.103-0.112-0.277-0.119-0.389-0.016z"></path>
<path fill="rgb(140, 178, 63)" d="M14.086 9.367c-0.147-0.035-0.294 0.055-0.33 0.201s0.055 0.295 0.202 0.33c0.271 0.065 0.567-0.144 0.567-0.144-0.222-0.161-0.243-0.34-0.439-0.387z"></path>
<path fill="rgb(140, 178, 63)" d="M14.485 9.258c0.223-0.166 0.252-0.528 0.252-0.528-0.266 0.067-0.417-0.030-0.579 0.090-0.121 0.090-0.146 0.261-0.056 0.382s0.262 0.146 0.383 0.056z"></path>
<path fill="rgb(140, 178, 63)" d="M12.547 9.864c0.121-0.051 0.178-0.19 0.128-0.311-0.067-0.162-0.223-0.156-0.392-0.325 0 0-0.14 0.283-0.047 0.507 0.051 0.121 0.19 0.178 0.311 0.128z"></path>
<path fill="rgb(140, 178, 63)" d="M13.536 9.682c-0.111-0.049-0.24 0.002-0.289 0.113s0.002 0.239 0.112 0.288c0.204 0.090 0.467-0.033 0.467-0.033-0.151-0.158-0.143-0.302-0.291-0.367z"></path>
<path fill="rgb(140, 178, 63)" d="M12.693 9.297c0.019 0.202 0.2 0.351 0.403 0.332s0.351-0.2 0.331-0.402c-0.026-0.271-0.261-0.333-0.434-0.66 0 0-0.335 0.356-0.3 0.731z"></path>
<path fill="rgb(140, 178, 63)" d="M13.788 9.312c0.121-0.019 0.204-0.132 0.184-0.253-0.026-0.161-0.168-0.19-0.284-0.379 0 0-0.189 0.226-0.154 0.449 0.019 0.12 0.133 0.203 0.253 0.184z"></path>
<path fill="rgb(140, 178, 63)" d="M11.066 8.309c-0.095 0.119-0.075 0.292 0.044 0.387 0.219 0.175 0.579 0.109 0.579 0.109-0.134-0.241-0.078-0.413-0.237-0.54-0.118-0.094-0.292-0.075-0.386 0.044z"></path>
<path fill="rgb(140, 178, 63)" d="M12.197 8.22c-0.177-0.319-0.103-0.547-0.313-0.715-0.157-0.125-0.386-0.099-0.512 0.058s-0.099 0.387 0.058 0.512c0.291 0.231 0.767 0.145 0.767 0.145z"></path>
<path fill="rgb(140, 178, 63)" d="M12.016 6.825c-0.15-0.012-0.282 0.099-0.295 0.25s0.099 0.283 0.249 0.295c0.278 0.023 0.539-0.229 0.539-0.229-0.243-0.125-0.292-0.299-0.493-0.316z"></path>
<path fill="rgb(140, 178, 63)" d="M12.356 6.844c0.108 0.106 0.28 0.105 0.387-0.003 0.195-0.198 0.168-0.56 0.168-0.56-0.252 0.107-0.416 0.033-0.558 0.177-0.106 0.108-0.104 0.281 0.003 0.386z"></path>
<path fill="rgb(140, 178, 63)" d="M10.457 7.461c0.23 0.057 0.463-0.082 0.521-0.311 0.077-0.307-0.156-0.467-0.217-0.892 0 0-0.507 0.259-0.614 0.683-0.057 0.23 0.082 0.463 0.311 0.521z"></path>
<path fill="rgb(140, 178, 63)" d="M10.125 6.707c0.147-0.148 0.069-0.318 0.178-0.58 0 0-0.375-0.024-0.58 0.18-0.11 0.111-0.11 0.29 0.001 0.401s0.291 0.11 0.401-0z"></path>
<path fill="rgb(140, 178, 63)" d="M8.942 7.016c0.197-0.051 0.316-0.252 0.266-0.448-0.068-0.264-0.309-0.289-0.53-0.586 0 0-0.278 0.404-0.185 0.768 0.050 0.197 0.251 0.316 0.448 0.266z"></path>
<path fill="rgb(140, 178, 63)" d="M9.155 7.855c-0.259 0.043-0.304 0.272-0.607 0.46 0 0 0.365 0.301 0.722 0.242 0.194-0.032 0.326-0.214 0.294-0.408s-0.215-0.325-0.408-0.294z"></path>
<path fill="rgb(140, 178, 63)" d="M12.044 6.469c0.135 0.007 0.25-0.097 0.258-0.232 0.010-0.18-0.139-0.245-0.22-0.476 0 0-0.256 0.201-0.269 0.451-0.007 0.135 0.097 0.25 0.232 0.258z"></path>
<path fill="rgb(140, 178, 63)" d="M11.475 6.776c0.191-0.061 0.296-0.266 0.235-0.457-0.082-0.254-0.321-0.266-0.556-0.544 0 0-0.249 0.414-0.136 0.766 0.062 0.19 0.266 0.295 0.457 0.235z"></path>
<path fill="rgb(140, 178, 63)" d="M9.264 6.202c0.135 0.007 0.251-0.097 0.258-0.232 0.010-0.18-0.139-0.245-0.22-0.476 0 0-0.257 0.202-0.27 0.451-0.007 0.135 0.098 0.25 0.232 0.258z"></path>
<path fill="rgb(140, 178, 63)" d="M9.155 7.161c-0.193-0.051-0.296 0.094-0.565 0.13 0 0 0.16 0.322 0.426 0.393 0.144 0.038 0.293-0.048 0.331-0.192s-0.048-0.293-0.192-0.331z"></path>
</svg>
