<?xml version="1.0" encoding="utf-8"?>
<!-- Generator: Adobe Illustrator 16.0.0, SVG Export Plug-In . SVG Version: 6.00 Build 0)  -->
<!DOCTYPE svg PUBLIC "-//W3C//DTD SVG 1.1//EN" "http://www.w3.org/Graphics/SVG/1.1/DTD/svg11.dtd">
<svg version="1.1" id="Layer_1" xmlns="http://www.w3.org/2000/svg" xmlns:xlink="http://www.w3.org/1999/xlink" x="0px" y="0px"
	 width="20px" height="20px" viewBox="0 0 20 20" enable-background="new 0 0 20 20" xml:space="preserve">
<g>
	<g>
		<g>
			<g>
				<circle fill="#E23942" cx="10" cy="10" r="9.69"/>
			</g>
		</g>
	</g>
	<g>
		<g>
			<path fill="#6B4E15" d="M10.645,11.385c0,0.35-0.283,0.633-0.632,0.633l0,0c-0.349,0-0.632-0.283-0.632-0.633V5.889
				c0-0.349,0.283-0.355,0.632-0.355l0,0c0.349,0,0.632,0.007,0.632,0.355V11.385z"/>
		</g>
		<g>
			<path fill="#6B4E15" d="M15.166,11.385c0,0.35-0.282,0.633-0.632,0.633l0,0c-0.349,0-0.632-0.283-0.632-0.633V5.889
				c0-0.349,0.283-0.355,0.632-0.355l0,0c0.35,0,0.632,0.007,0.632,0.355V11.385z"/>
		</g>
		<g>
			<path fill="#6B4E15" d="M12.057,7.2v2.243L7.685,7.2v2.24L3.318,7.2v7.083c0,0.248,0.183,0.449,0.407,0.449h12.307
				c0.225,0,0.407-0.201,0.407-0.449V9.449L12.057,7.2z"/>
		</g>
		<g>
			<path fill="#D2D2D2" d="M12.057,7.818v2.243L7.685,7.818v2.24l-4.366-2.24V14.9c0,0.248,0.183,0.451,0.407,0.451h12.307
				c0.225,0,0.407-0.203,0.407-0.451v-4.833L12.057,7.818z"/>
		</g>
		<g>
			<path fill="#FFFFFF" d="M6.394,13.236c0,0.092-0.068,0.168-0.152,0.168H4.847c-0.084,0-0.152-0.076-0.152-0.168v-1.539
				c0-0.092,0.068-0.168,0.152-0.168h1.395c0.084,0,0.152,0.076,0.152,0.168V13.236z"/>
		</g>
		<g>
			<path fill="#FFFFFF" d="M10.862,13.236c0,0.092-0.068,0.168-0.152,0.168H9.314c-0.084,0-0.151-0.076-0.151-0.168v-1.539
				c0-0.092,0.067-0.168,0.151-0.168h1.396c0.084,0,0.152,0.076,0.152,0.168V13.236z"/>
		</g>
		<g>
			<path fill="#FFFFFF" d="M15.148,13.236c0,0.092-0.067,0.168-0.152,0.168h-1.395c-0.084,0-0.151-0.076-0.151-0.168v-1.539
				c0-0.092,0.067-0.168,0.151-0.168h1.395c0.085,0,0.152,0.076,0.152,0.168V13.236z"/>
		</g>
		<g opacity="0.7">
			<g>
				<ellipse fill="#FFFFFF" cx="14.626" cy="4.396" rx="0.407" ry="0.38"/>
			</g>
			<g>
				<ellipse fill="#FFFFFF" cx="14.276" cy="4.009" rx="0.407" ry="0.38"/>
			</g>
			<g>
				<ellipse fill="#FFFFFF" cx="14.75" cy="4.161" rx="0.407" ry="0.38"/>
			</g>
			<g>
				<ellipse fill="#FFFFFF" cx="14.495" cy="4.966" rx="0.407" ry="0.38"/>
			</g>
			<g>
				<ellipse fill="#FFFFFF" cx="14.279" cy="4.579" rx="0.407" ry="0.38"/>
			</g>
			<g>
				<ellipse fill="#FFFFFF" cx="14.367" cy="3.595" rx="0.407" ry="0.38"/>
			</g>
			<g>
				<ellipse fill="#FFFFFF" cx="14.75" cy="3.781" rx="0.407" ry="0.38"/>
			</g>
		</g>
		<g opacity="0.7">
			<g>
				<ellipse fill="#FFFFFF" cx="10.211" cy="3.825" rx="0.621" ry="0.58"/>
			</g>
			<g>
				<ellipse fill="#FFFFFF" cx="9.676" cy="3.234" rx="0.621" ry="0.58"/>
			</g>
			<g>
				<ellipse fill="#FFFFFF" cx="10.399" cy="3.465" rx="0.621" ry="0.58"/>
			</g>
			<g>
				<ellipse fill="#FFFFFF" cx="10.01" cy="4.694" rx="0.621" ry="0.58"/>
			</g>
			<g>
				<ellipse fill="#FFFFFF" cx="9.681" cy="4.103" rx="0.621" ry="0.58"/>
			</g>
			<g>
				<ellipse fill="#FFFFFF" cx="9.815" cy="2.602" rx="0.621" ry="0.58"/>
			</g>
			<g>
				<ellipse fill="#FFFFFF" cx="10.399" cy="2.886" rx="0.621" ry="0.58"/>
			</g>
		</g>
	</g>
</g>
</svg>
