<?xml version="1.0" encoding="utf-8"?>
<!-- Generator: Adobe Illustrator 16.0.0, SVG Export Plug-In . SVG Version: 6.00 Build 0)  -->
<!DOCTYPE svg PUBLIC "-//W3C//DTD SVG 1.1//EN" "http://www.w3.org/Graphics/SVG/1.1/DTD/svg11.dtd">
<svg version="1.1" id="Layer_1" xmlns="http://www.w3.org/2000/svg" xmlns:xlink="http://www.w3.org/1999/xlink" x="0px" y="0px"
	 width="20px" height="20px" viewBox="0 0 20 20" enable-background="new 0 0 20 20" xml:space="preserve">
<g>
	<path fill="#E84849" d="M19.69,10c0,5.351-4.338,9.69-9.69,9.69S0.31,15.353,0.31,10c0-5.352,4.338-9.69,9.69-9.69
		S19.69,4.647,19.69,10z"/>
	<path fill="#C02026" d="M14.857,5.124c-0.644-0.631-1.416-1.128-2.251-1.458c-0.834-0.331-1.733-0.493-2.622-0.479
		C9.09,3.201,8.206,3.391,7.391,3.744C6.577,4.096,5.84,4.612,5.224,5.241C3.985,6.497,3.271,8.243,3.284,10
		c0.004-0.877,0.179-1.752,0.518-2.561C4.141,6.632,4.646,5.897,5.27,5.286s1.371-1.09,2.177-1.41C8.253,3.556,9.123,3.4,9.98,3.415
		c0.866,0.014,1.72,0.198,2.506,0.54c0.786,0.34,1.498,0.838,2.094,1.447c1.195,1.215,1.884,2.899,1.871,4.597
		c0.012,1.697-0.678,3.381-1.872,4.597c-0.597,0.607-1.307,1.107-2.094,1.448c-0.785,0.341-1.641,0.525-2.504,0.538
		c-0.86,0.014-1.729-0.14-2.535-0.461c-0.806-0.318-1.553-0.798-2.177-1.408c-0.622-0.611-1.129-1.346-1.468-2.153
		c-0.339-0.809-0.514-1.684-0.518-2.561c-0.014,1.756,0.701,3.503,1.939,4.759c0.615,0.63,1.354,1.146,2.167,1.496
		c0.814,0.354,1.7,0.544,2.592,0.558c0.893,0.013,1.79-0.146,2.625-0.478s1.608-0.827,2.252-1.459
		c0.644-0.633,1.167-1.392,1.517-2.228s0.532-1.742,0.534-2.648c-0.002-0.907-0.184-1.813-0.534-2.649
		c-0.351-0.835-0.874-1.595-1.519-2.228V5.124z"/>
	<path fill="#C02026" d="M17.391,13.068c-0.405,0.968-1.01,1.85-1.756,2.583s-1.642,1.312-2.606,1.698
		c-0.968,0.387-2.01,0.575-3.043,0.561c-1.038-0.014-2.066-0.23-3.013-0.64c-0.947-0.405-1.806-1.004-2.524-1.735
		c-1.442-1.46-2.274-3.489-2.26-5.534C2.175,7.955,3.007,5.927,4.45,4.468c0.718-0.73,1.576-1.329,2.522-1.734
		c0.944-0.409,1.976-0.627,3.01-0.642c1.036-0.014,2.076,0.175,3.044,0.562c0.967,0.386,1.861,0.963,2.607,1.697
		c0.745,0.733,1.351,1.615,1.755,2.583c0.405,0.969,0.615,2.018,0.617,3.068c0.016-2.104-0.843-4.194-2.327-5.696
		c-0.739-0.753-1.622-1.368-2.598-1.785c-0.974-0.42-2.033-0.644-3.099-0.657C8.918,1.85,7.847,2.043,6.852,2.441
		S4.937,3.434,4.169,4.189C3.401,4.944,2.78,5.851,2.364,6.847C1.947,7.844,1.731,8.923,1.73,10.003
		c0.002,1.081,0.218,2.16,0.634,3.156c0.417,0.997,1.04,1.902,1.806,2.657c0.769,0.755,1.688,1.35,2.683,1.746
		c0.994,0.396,2.066,0.594,3.129,0.579c1.069-0.013,2.126-0.237,3.102-0.656c0.975-0.419,1.858-1.034,2.598-1.785
		c1.485-1.502,2.343-3.593,2.328-5.697c-0.003,1.05-0.212,2.1-0.618,3.068V13.068z"/>
	<path fill="#9BD7D9" d="M15.1,10c0,2.826-2.29,5.117-5.117,5.117c-2.825,0-5.116-2.291-5.116-5.117
		c0-2.827,2.291-5.117,5.116-5.117C12.81,4.883,15.1,7.173,15.1,10z"/>
	<path fill="#5C9340" d="M12.667,7.747c0,0-1.103,0.229-1.497,0.016c0,0-0.265-0.342-1.006-0.048c0,0-1.301,0.781-1.318,1.563
		c0,0-0.362,1.549,1.005,1.761c0,0,1.434-0.473,1.615,0.081c0,0,0.049,0.686,0.181,0.831c0,0,0.214,0.315,0.197,0.504
		c0,0-0.147,0.637,0.05,1.125c0,0,0.133,0.424,0.115,0.554c0,0,1.252-0.359,1.647-1.531c0,0,0.23-0.814,0.247-1.027
		c0,0,0.33-0.945,0.412-1.238c0,0,0.295-0.881-0.198-0.766c0,0-0.347-0.325-0.593-0.57S12.8,7.828,12.667,7.747z"/>
	<path fill="#5C9340" d="M13.771,8.97l-1.385-1.271c0,0,0.297-0.26,0.198-0.406c-0.098-0.146-0.312,0.048-0.493,0.048
		c-0.182,0-0.429,0.146-0.526,0.016c-0.099-0.131-0.165-0.098-0.264-0.016s-0.28,0.212-0.297,0.13s-0.312-0.048-0.329-0.13
		c-0.018-0.082,0.049-0.31-0.101-0.261c-0.147,0.048-0.362,0.213-0.395,0.293c-0.032,0.081-0.147,0.325-0.264,0.325
		c-0.115,0-0.411,0.065-0.462-0.032c-0.05-0.098-0.148-0.423-0.049-0.521c0.099-0.099,0.582,0.005,0.56-0.114
		C9.943,6.91,9.886,6.647,9.959,6.611c0.073-0.037,0.27-0.46,0.402-0.51c0.132-0.049,0.477,0.131,0.528,0.016
		c0,0,0.016-0.343-0.051-0.392c-0.065-0.049-0.115-0.195-0.229-0.179c-0.116,0.017-0.166,0.131-0.083,0.179s0.148,0.244,0.1,0.244
		c-0.052,0-0.495,0.032-0.513-0.082c-0.017-0.114,0.05-0.391,0.197-0.488c0.148-0.098,0.462-0.082,0.561-0.032
		c0.098,0.049,0.215-0.05,0.247-0.131c0.033-0.082-0.468-0.354-0.617-0.354c0,0,3.904,0.291,4.573,4.283
		c0,0-0.415-1.371-0.695-1.452c0,0-0.148,0.098-0.247,0.081c-0.098-0.016-0.593-0.325-0.625-0.243
		c-0.035,0.081,0.229,0.357,0.51,0.391c0.279,0.031,0.296,0.064,0.312,0.212c0.017,0.147,0.066,0.374,0.034,0.521
		c-0.034,0.146-0.232,0.586-0.595,0.293L13.771,8.97z"/>
	<path fill="#5C9340" d="M9.686,6.07c0,0-0.132,0.082-0.198,0.195C9.422,6.38,9.422,6.477,9.422,6.477s0.084,0.049,0.167,0.05
		c0.085,0,0.311-0.081,0.311-0.195S9.685,6.07,9.686,6.07L9.686,6.07z"/>
	<path fill="#5C9340" d="M9.487,5.093c0,0-0.396,0.472-0.592,0.521c-0.197,0.05-0.527,0.212-0.609,0.278
		c-0.082,0.064-0.362-0.05-0.198-0.18C8.253,5.582,8.697,5.288,8.6,5.256C8.501,5.224,8.056,5.533,7.875,5.663
		c-0.182,0.13-0.33,0.325-0.411,0.456C7.381,6.25,7.397,6.592,7.216,6.657c-0.181,0.066-0.972,0.391-1.234,0.62
		C5.718,7.506,5.434,7.674,5.318,7.901c-0.115,0.227,0.059-0.364,0.16-0.584c0,0,0.7-1.247,2.298-2.029c0,0,1.219-0.309,1.713-0.195
		H9.487z"/>
	<path fill="#5C9340" d="M4.877,10.827c0,0-0.165-0.881,0.016-0.961c0.181-0.081,0.235-0.099,0.396,0.064
		c0.159,0.163,0.378,0.439,0.461,0.587c0.082,0.146,0.378,0.325,0.378,0.439s-0.065,0.392,0,0.521
		c0.067,0.13,0.165,0.146,0.313,0.211C6.59,11.754,6.868,11.853,7.033,12c0.164,0.146,0.396,0.324,0.347,0.521
		s-0.148,0.489-0.115,0.604c0.032,0.113,0.148,0.309,0.017,0.391s-0.23,0.065-0.215,0.213c0.017,0.146,0.183,0.602,0.231,0.683
		C7.298,14.41,5.244,13.536,4.877,10.827z"/>
	<path fill="#5C9340" d="M5.101,9.017c0.032-0.113,0.115-0.684,0.016-0.684C4.923,9.046,4.931,9.037,4.853,9.571L5.101,9.017z"/>
</g>
</svg>
