<?xml version="1.0" encoding="utf-8"?>
<!-- Generator: Adobe Illustrator 16.0.0, SVG Export Plug-In . SVG Version: 6.00 Build 0)  -->
<!DOCTYPE svg PUBLIC "-//W3C//DTD SVG 1.1//EN" "http://www.w3.org/Graphics/SVG/1.1/DTD/svg11.dtd">
<svg version="1.1" id="Layer_1" xmlns="http://www.w3.org/2000/svg" xmlns:xlink="http://www.w3.org/1999/xlink" x="0px" y="0px"
	 width="20px" height="20px" viewBox="0 0 20 20" enable-background="new 0 0 20 20" xml:space="preserve">
<g>
	<path fill="#B1C635" d="M19.69,10c0,5.351-4.338,9.69-9.69,9.69S0.31,15.353,0.31,10c0-5.352,4.338-9.69,9.69-9.69
		S19.69,4.647,19.69,10z"/>
	<path fill="#FFFFFF" d="M6.88,12.028c0.015,0.01,0.028,0.018,0.044,0.023c0.117,0.059,0.229,0.025,0.305-0.047
		c0.079-0.061,0.127-0.161,0.094-0.285c-0.243-0.937-0.486-1.872-0.728-2.808C6.555,8.761,6.394,8.67,6.243,8.709
		C5.308,8.952,4.372,9.194,3.438,9.438c-0.245,0.063-0.283,0.4-0.069,0.525c0.299,0.176,0.596,0.351,0.895,0.525l-1.054,1.824
		c-0.105,0.184-0.105,0.494,0,0.679l1.021,1.768c0.017-0.098,0.055-0.197,0.112-0.299l1.696-2.926C6.319,11.7,6.6,11.864,6.88,12.03
		V12.028z"/>
	<path fill="#FFFFFF" d="M8.16,13.021v-0.005H5.505l-0.874,1.502c-0.07,0.125-0.105,0.24-0.107,0.346
		c-0.004,0.157,0.067,0.285,0.2,0.364c0.078,0.038,0.157,0.064,0.236,0.079c0.015,0.002,0.03,0.004,0.046,0.005l0.164,0.004h2.752
		c0.002,0,0.004,0,0.005,0c0.059,0,0.115,0,0.172,0c0.002,0,0.004,0,0.007,0h0.051v-0.003c0.6-0.03,1.095-0.527,1.1-1.137
		c0.004-0.609-0.492-1.132-1.1-1.153L8.16,13.021z"/>
	<path fill="#FFFFFF" d="M13.697,4.752c-0.301,0.172-0.6,0.344-0.9,0.515l-1.059-1.819c-0.106-0.184-0.378-0.339-0.589-0.338
		L9.107,3.117c0.076,0.062,0.144,0.145,0.203,0.245l1.697,2.926c-0.29,0.165-0.58,0.332-0.87,0.497
		c-0.001,0-0.001,0.001-0.002,0.001s-0.003,0.002-0.004,0.003c-0.118,0.071-0.149,0.185-0.126,0.289
		c0.012,0.102,0.073,0.195,0.201,0.23c0.933,0.254,1.864,0.509,2.798,0.762c0.149,0.041,0.311-0.05,0.353-0.201
		c0.254-0.932,0.507-1.864,0.763-2.797c0.066-0.245-0.205-0.447-0.423-0.323V4.752z"/>
	<path fill="#FFFFFF" d="M8.871,3.32C8.737,3.239,8.59,3.237,8.455,3.313C8.384,3.362,8.32,3.417,8.27,3.479
		C8.26,3.491,8.251,3.504,8.242,3.518L8.157,3.658L6.785,6.055c0,0,0,0,0,0.001c-0.028,0.05-0.058,0.1-0.086,0.149
		c0,0.001-0.001,0.001-0.001,0.002L6.673,6.251l0.003,0.001C6.401,6.788,6.593,7.468,7.119,7.772S8.34,7.903,8.662,7.39l0.005,0.003
		l1.319-2.304l-0.87-1.505C9.044,3.461,8.96,3.373,8.871,3.32L8.871,3.32z"/>
	<path fill="#FFFFFF" d="M13.075,13.092c0-0.323,0.002-0.648,0.002-0.974c0.002-0.02,0-0.039-0.002-0.059
		c-0.013-0.121-0.088-0.199-0.183-0.229c-0.088-0.04-0.193-0.035-0.285,0.042c-0.007,0.005-0.013,0.01-0.02,0.017l0,0
		c-0.687,0.682-1.371,1.362-2.058,2.043c-0.112,0.11-0.106,0.295,0.002,0.404c0.683,0.687,1.363,1.371,2.044,2.058
		c0.175,0.176,0.487,0.045,0.488-0.203c0.002-0.348,0.002-0.693,0.004-1.04l2.104-0.01c0.213-0.001,0.482-0.158,0.587-0.342
		l1.011-1.772c-0.092,0.034-0.197,0.053-0.313,0.053l-3.382,0.01V13.092z"/>
	<path fill="#FFFFFF" d="M16.876,12.12c-0.007-0.015-0.013-0.029-0.02-0.043l-0.079-0.143l-1.395-2.39c0-0.001,0-0.002-0.002-0.004
		c-0.028-0.049-0.057-0.1-0.086-0.148c-0.002-0.001-0.002-0.002-0.002-0.003l-0.022-0.037l-0.002,0.001
		c-0.327-0.509-1.021-0.678-1.546-0.37s-0.712,0.991-0.433,1.525l-0.005,0.003l1.338,2.293l1.737-0.003
		c0.143-0.002,0.261-0.029,0.352-0.08c0.138-0.076,0.213-0.202,0.214-0.358c-0.007-0.086-0.021-0.167-0.052-0.243H16.876z"/>
</g>
</svg>
