<?xml version="1.0" encoding="utf-8"?>
<!-- Generator: Adobe Illustrator 16.0.0, SVG Export Plug-In . SVG Version: 6.00 Build 0)  -->
<!DOCTYPE svg PUBLIC "-//W3C//DTD SVG 1.1//EN" "http://www.w3.org/Graphics/SVG/1.1/DTD/svg11.dtd">
<svg version="1.1" id="Layer_1" xmlns="http://www.w3.org/2000/svg" xmlns:xlink="http://www.w3.org/1999/xlink" x="0px" y="0px"
	 width="20px" height="20px" viewBox="0 0 20 20" enable-background="new 0 0 20 20" xml:space="preserve">
<g>
	<path fill="#EDC92C" d="M19.69,10c0,5.351-4.338,9.69-9.69,9.69S0.31,15.353,0.31,10c0-5.352,4.338-9.69,9.69-9.69
		S19.69,4.647,19.69,10z"/>
	<path fill="#606060" d="M12.421,16.146l0.178-0.05l0.023,0.595L12.421,16.146z"/>
	<path fill="#9E9F9F" d="M10.525,3.373c-0.146,0.022-0.23,0.266-0.188,0.543l1.864,12.08c0.043,0.277,0.572,0.195,0.529-0.081
		L10.868,3.834C10.825,3.557,10.673,3.351,10.525,3.373z"/>
	<path fill="#606060" d="M7.834,16.153l-0.375-0.089c0,0-0.022,0.593,0.096,0.615C7.672,16.702,7.834,16.153,7.834,16.153z"/>
	<path fill="#807F7F" d="M7.765,12.49c-0.005,0.028,0.013,0.058,0.041,0.062l0.704,0.152c0.027,0.005,0.055-0.014,0.061-0.041
		l0.044-0.221c0.007-0.027-0.012-0.057-0.04-0.062L7.87,12.229c-0.028-0.005-0.056,0.013-0.062,0.041L7.765,12.49z"/>
	<path fill="#8D8D8D" d="M9.122,6.588C9.234,6.604,9.3,6.792,9.266,7.006l-1.4,9.104c-0.032,0.213-0.441,0.151-0.409-0.063
		l1.4-9.102C8.889,6.73,9.007,6.57,9.122,6.588L9.122,6.588z"/>
	<path fill="#9E9F9F" d="M9.627,3.357C9.773,3.38,9.857,3.623,9.814,3.9l-1.317,8.538c-0.042,0.276-0.195,0.483-0.342,0.461
		c-0.146-0.023-0.23-0.266-0.188-0.543l1.317-8.538C9.327,3.541,9.48,3.335,9.627,3.357z"/>
	<path fill="#9E9F9F" d="M8.139,14.696l-0.062,0.518c-0.043,0.277-0.572,0.196-0.53-0.082l0.062-0.517
		C7.651,14.339,8.182,14.42,8.139,14.696z"/>
	<path fill="#807F7F" d="M7.632,12.335c-0.025,0.141,0.046,0.271,0.158,0.29c0.112,0.021,0.202-0.487,0.09-0.507
		C7.769,12.098,7.657,12.196,7.632,12.335z"/>
	<path fill="#575757" d="M9.755,4.858c0,0.19,0.154,0.343,0.342,0.343l0,0c0.189,0,0.343-0.152,0.343-0.343v-2.74
		c0-0.189-0.153-0.342-0.343-0.342l0,0c-0.188,0-0.342,0.152-0.342,0.342V4.858z"/>
	<path fill="#606060" d="M9.359,5.155c0,0.209,0.121,0.379,0.271,0.379h0.909c0.15,0,0.271-0.17,0.271-0.379l0.283-1.641
		c0-0.209-0.17-0.379-0.379-0.379H9.453c-0.209,0-0.379,0.17-0.379,0.379L9.359,5.155L9.359,5.155z"/>
	<path fill="#797979" d="M10.804,3.679c0,0.136-0.11,0.245-0.245,0.245c-0.136,0-0.246-0.109-0.246-0.245
		c0-0.135,0.11-0.244,0.246-0.244C10.693,3.435,10.804,3.544,10.804,3.679z"/>
	<path fill="#797979" d="M9.805,3.679c0,0.136-0.109,0.245-0.244,0.245c-0.136,0-0.245-0.109-0.245-0.245
		c0-0.135,0.109-0.244,0.245-0.244C9.695,3.435,9.805,3.544,9.805,3.679z"/>
	<path fill="#807F7F" d="M11.505,6.95c0-0.029-0.023-0.052-0.051-0.052L8.715,6.896c-0.027,0-0.052,0.023-0.052,0.053l0.001,0.225
		c0,0.029,0.023,0.053,0.053,0.053l2.737,0.002c0.029,0,0.053-0.023,0.053-0.052L11.505,6.95L11.505,6.95z"/>
	<path fill="#807F7F" d="M11.708,7.073c-0.003-0.143-0.099-0.256-0.214-0.253c-0.114,0.003-0.099,0.52,0.015,0.517
		C11.623,7.334,11.712,7.215,11.708,7.073z"/>
</g>
</svg>
