<?xml version="1.0" encoding="utf-8"?>
<!-- Generator: Adobe Illustrator 16.0.0, SVG Export Plug-In . SVG Version: 6.00 Build 0)  -->
<!DOCTYPE svg PUBLIC "-//W3C//DTD SVG 1.1//EN" "http://www.w3.org/Graphics/SVG/1.1/DTD/svg11.dtd">
<svg version="1.1" id="Layer_1" xmlns="http://www.w3.org/2000/svg" xmlns:xlink="http://www.w3.org/1999/xlink" x="0px" y="0px"
	 width="20px" height="20px" viewBox="0 0 20 20" enable-background="new 0 0 20 20" xml:space="preserve">
<g>
	<path fill="#4ABC96" d="M19.69,10c0,5.351-4.338,9.69-9.69,9.69S0.31,15.353,0.31,10c0-5.352,4.338-9.69,9.69-9.69
		S19.69,4.647,19.69,10z"/>
	<path fill="#242D2B" d="M5.505,9.014l-0.61,2.276c0,0,1.04,2.548,5.075,2.548s5.1-2.548,5.1-2.548l-0.61-2.277L5.505,9.014
		L5.505,9.014z"/>
	<path fill="#2A3633" d="M5.505,9.014l-0.61,2.276c0,0,1.04,2.548,5.075,2.548L9.938,9.014H5.505z"/>
	<path fill="#181E1D" d="M5.505,9.014L5.316,9.672l4.129,1.206c0.315,0.098,0.827,0.098,1.144,0l4.061-1.184l-0.188-0.68
		L5.505,9.014L5.505,9.014z"/>
	<path fill="#2A3633" d="M10.589,10.643c-0.316,0.097-0.828,0.097-1.144,0l-6.992-2.14c-0.315-0.098-0.315-0.253,0-0.35l6.992-2.14
		c0.315-0.098,0.827-0.098,1.144,0l6.992,2.14c0.315,0.097,0.315,0.253,0,0.35l-6.99,2.14H10.589z"/>
	<path fill="#BC992F" d="M13.973,9.603c-0.053,0-0.096,0.043-0.096,0.095v3.843c0,0.052,0.042,0.095,0.096,0.095
		c0.053,0,0.095-0.043,0.095-0.095V9.697C14.067,9.646,14.025,9.603,13.973,9.603z"/>
	<path fill="#BC992F" d="M13.999,9.604l-3.968-1.239C9.98,8.35,9.928,8.379,9.912,8.428s0.013,0.104,0.062,0.119l3.968,1.238
		c0.05,0.016,0.104-0.012,0.119-0.062C14.077,9.673,14.048,9.62,13.999,9.604z"/>
	<path fill="#BC992F" d="M14.23,11.726c0,0.166-0.119,0.299-0.264,0.299c-0.146,0-0.265-0.133-0.265-0.299s0.119-0.301,0.265-0.301
		C14.111,11.425,14.23,11.56,14.23,11.726z"/>
	<path fill="#BC992F" d="M13.881,11.971c0,0-0.262,0.302-0.262,0.484c0,0.077-0.003,0.501-0.006,0.81
		c-0.001,0.188-0.14,0.332-0.14,0.332c0,0.105,0.984,0.105,0.984,0c0,0-0.139-0.141-0.14-0.323
		c-0.002-0.302-0.006-0.718-0.006-0.804c0-0.197-0.261-0.499-0.261-0.499H13.881z"/>
	<path fill="#2B2B2A" d="M10.53,8.477c0,0.17-0.222,0.307-0.496,0.307S9.538,8.646,9.538,8.477S9.76,8.17,10.034,8.17
		S10.53,8.307,10.53,8.477z"/>
</g>
</svg>
