<?xml version="1.0" encoding="utf-8"?>
<!-- Generator: Adobe Illustrator 16.0.0, SVG Export Plug-In . SVG Version: 6.00 Build 0)  -->
<!DOCTYPE svg PUBLIC "-//W3C//DTD SVG 1.1//EN" "http://www.w3.org/Graphics/SVG/1.1/DTD/svg11.dtd">
<svg version="1.1" id="Layer_1" xmlns="http://www.w3.org/2000/svg" xmlns:xlink="http://www.w3.org/1999/xlink" x="0px" y="0px"
	 width="20px" height="20px" viewBox="0 0 20 20" enable-background="new 0 0 20 20" xml:space="preserve">
<g>
	<path fill="#D7DABA" d="M19.69,10c0,5.351-4.338,9.69-9.69,9.69S0.31,15.353,0.31,10c0-5.352,4.338-9.69,9.69-9.69
		S19.69,4.647,19.69,10z"/>
	<path fill="#327477" d="M14.792,15.003c0,0.147-0.119,0.267-0.267,0.267H5.542c-0.148,0-0.268-0.119-0.268-0.267V4.479
		c0-0.148,0.119-0.268,0.268-0.268h8.983c0.147,0,0.267,0.119,0.267,0.268V15.003z"/>
	<path fill="#3B7F89" d="M14.792,15.725c0,0.147-0.119,0.268-0.267,0.268H6.047V6.058h8.479c0.147,0,0.267,0.119,0.267,0.268V15.725
		L14.792,15.725z"/>
	<path fill="#4699A1" d="M5.938,5.919h0.162v10.073H5.938V5.919z"/>
	<path fill="#2A646E" d="M5.966,4.211H5.541c-0.148,0-0.268,0.119-0.268,0.267v11.246c0,0.148,0.119,0.267,0.268,0.267h0.425V4.211
		L5.966,4.211z"/>
	<path fill="#E9E9EA" d="M14.311,6.055H6.188c-0.277,0-0.502-0.226-0.502-0.502V5.224c0-0.278,0.225-0.502,0.502-0.502h7.621
		c0.278,0,0.502,0.225,0.502,0.502V6.055z"/>
	<path fill="#2A646E" d="M11.942,10.597H8.938c-0.355,0-0.644-0.288-0.644-0.643V8.394c0-0.354,0.288-0.643,0.644-0.643h3.005
		c0.355,0,0.644,0.289,0.644,0.643v1.561C12.586,10.309,12.298,10.597,11.942,10.597z"/>
	<path fill="#2A646E" d="M12.974,12.204c0,0.114-0.09,0.208-0.201,0.208H8.016c-0.11,0-0.2-0.093-0.2-0.208l0,0
		c0-0.116,0.09-0.211,0.2-0.211h4.757C12.884,11.993,12.974,12.088,12.974,12.204L12.974,12.204z"/>
	<path fill="#2A646E" d="M12.974,12.979c0,0.116-0.09,0.21-0.201,0.21H8.016c-0.11,0-0.2-0.093-0.2-0.21l0,0
		c0-0.114,0.09-0.208,0.2-0.208h4.757C12.884,12.771,12.974,12.862,12.974,12.979L12.974,12.979z"/>
	<path fill="#2A646E" d="M12.129,14.133c0,0.077-0.06,0.141-0.136,0.141H8.796c-0.074,0-0.135-0.063-0.135-0.141l0,0
		c0-0.077,0.061-0.14,0.135-0.14h3.197C12.069,13.993,12.129,14.056,12.129,14.133L12.129,14.133z"/>
</g>
</svg>
