<?xml version="1.0" encoding="utf-8"?>
<!-- Generator: Adobe Illustrator 16.0.0, SVG Export Plug-In . SVG Version: 6.00 Build 0)  -->
<!DOCTYPE svg PUBLIC "-//W3C//DTD SVG 1.1//EN" "http://www.w3.org/Graphics/SVG/1.1/DTD/svg11.dtd">
<svg version="1.1" id="Layer_1" xmlns="http://www.w3.org/2000/svg" xmlns:xlink="http://www.w3.org/1999/xlink" x="0px" y="0px"
	 width="20px" height="20px" viewBox="0 0 20 20" enable-background="new 0 0 20 20" xml:space="preserve">
<g>
	<path fill="#49A0AE" d="M19.69,10c0,5.351-4.338,9.69-9.69,9.69S0.31,15.353,0.31,10c0-5.352,4.338-9.69,9.69-9.69
		S19.69,4.647,19.69,10z"/>
	<path fill="#D7AF8F" d="M14.585,10.409c-0.348,1.051-1.775,1.99-3.072,1.273c-0.021,0.399-0.019,0.777,0.1,1.079
		c0.068,0.176,0.219,0.265,0.195,0.425c-0.58-0.152-0.338-0.934-0.426-1.535c-0.059-0.41-0.562-0.61-0.457-1.079
		c-0.297,0.04-0.582,0.093-0.882,0.131c0.031,0.425,0.486,0.583,0.653,0.948c0.158,0.35,0.205,0.716,0.393,1.045
		c0.179,0.316,0.432,0.484,0.588,0.818c-0.76-0.277-0.811-1.163-1.145-1.83c-0.186-0.375-0.614-0.523-0.653-0.947
		c-0.614,0.004-0.979-0.24-1.078-0.752c-0.249-0.188-0.611-0.26-0.556-0.752c-0.274-0.098-0.432-0.091-0.62,0.065
		C6.972,9.206,6.317,9.397,5.958,8.972C5.907,8.912,5.907,8.801,5.859,8.71c-0.15-0.288-0.411-0.589-0.457-0.883
		C5.332,7.382,5.472,6.906,5.696,6.52C5.669,6.122,5.863,5.947,6.056,5.769c0.172-0.558,0.488-0.972,0.915-1.273
		C7.073,4.501,7.21,4.473,7.265,4.527C7.531,4.25,7.79,3.963,8.343,3.972c0.425-0.402,1.071-0.36,1.666-0.359
		c0.161,0,0.302-0.073,0.458-0.066c0.083,0.005,0.173,0.092,0.261,0.099c0.135,0.012,0.293-0.104,0.426-0.099
		c0.076,0.005,0.232,0.078,0.327,0.099c0.157,0.034,0.286,0.035,0.393,0.066c0.097,0.027,0.165,0.131,0.262,0.163
		c0.04,0.014,0.131-0.039,0.163-0.032c0.301,0.056,0.643,0.327,0.85,0.489c0.09-0.039,0.115-0.092,0.23-0.032
		c0.433,0.155,0.709,0.559,1.044,0.883c0.436,0.419,0.95,0.984,0.916,1.829c0.313,0.16,0.428,0.912,0.229,1.274
		c0.14,0.981-0.228,1.731-0.753,2.156c-0.104,0.019-0.151-0.022-0.228-0.032H14.585z M10.271,3.71
		c0.089,0.028,0.471,0.503,0.099,0.62c-0.064-0.074,0.034-0.182,0-0.326c-0.381-0.469-1.357-0.256-1.83,0
		c-0.009,0.058,0.093,0.163,0,0.195c-0.334-0.226-0.875,0.095-1.11,0.359C7.335,4.673,7.446,4.793,7.298,4.853
		C7.182,4.826,7.259,4.607,7.103,4.624c-0.48,0.227-0.712,0.704-0.915,1.208C6.296,5.8,6.294,5.878,6.286,5.963
		c-0.401-0.06-0.483,0.362-0.393,0.687C5.398,6.932,5.471,8.217,5.958,8.546C6.031,8.388,6.289,8.11,6.48,8.284
		C6.26,8.39,6.007,8.466,6.023,8.808c0.34,0.374,1.432,0.459,1.829,0.163c0.134,0.021,0.192,0.113,0.359,0.099
		c0.06-0.038,0.022-0.174,0.163-0.131C8.352,9.452,8.53,9.763,8.931,9.854c0.05,0.943,1.271,0.754,2.026,0.588
		c-0.052-0.201,0.206-0.151,0.262-0.326c-0.053-0.188-0.272-0.209-0.295-0.425c0.224,0.07,0.383,0.206,0.393,0.489
		c-0.014,0.116-0.132,0.129-0.196,0.195c0.625-0.053,1.488-0.431,1.309-1.176C12.38,9,12.189,8.988,12.102,8.774
		c0.699,0.107,0.481,1.265-0.032,1.404c0.527-0.028,0.828-0.284,1.111-0.556c0.002-0.112-0.044-0.21,0-0.326
		c0.055-0.146,0.213-0.107,0.326-0.229c0.045-0.049,0.049-0.191,0.098-0.262c0.144-0.2,0.332-0.318,0.458-0.294
		c-0.147,0.243-0.448,0.335-0.489,0.687c-0.603,0.124-0.157,0.567,0.131,0.686c0.388,0.159,0.859,0.301,1.11,0.393
		c0.041-0.069,0.091-0.128,0.131-0.196c-0.088-0.043-0.191-0.07-0.163-0.229c0.159-0.028,0.153,0.108,0.326,0.066
		c0.118-0.154,0.185-0.358,0.262-0.556c0.02-0.128-0.179-0.039-0.131-0.195c0.229-0.007,0.205-0.443,0.195-0.784
		c-0.099-0.005-0.223,0.135-0.262,0c0.008-0.156,0.213-0.114,0.294-0.196c0.06-0.351,0.072-0.915-0.229-1.014
		c-0.041,0.08-0.026,0.213-0.131,0.229c-0.214-0.203,0.17-0.316,0.098-0.588c0-0.108-0.139-0.079-0.131-0.196
		c0.062-0.456-0.278-0.786-0.489-1.078c-0.565-0.127-0.472,0.571-0.784,0.588c0.155-0.279,0.182-0.689,0.621-0.685
		c0.017-0.17-0.141-0.165-0.229-0.229c-0.264-0.303-0.483-0.649-0.915-0.784c0.024,0.119,0.247,0.407,0.033,0.458
		c-0.131-0.514-0.577-0.709-1.046-0.883c0.025,0.157,0.18,0.603-0.033,0.687c-0.101-0.152-0.016-0.479-0.131-0.687
		c-0.162-0.125-0.454-0.23-0.653-0.131c-0.036-0.082-0.137-0.103-0.196-0.163C10.808,3.814,10.628,3.722,10.271,3.71L10.271,3.71z
		 M13.245,9.723c-0.293,0.256-0.64,0.547-1.045,0.588c-0.084,0.009-0.172-0.073-0.262-0.064c-0.28,0.023-0.55,0.372-0.916,0.262
		c0.104,0.9,0.746,1.381,1.699,1.274c0.854-0.096,1.445-0.803,1.698-1.438C14.085,10.08,13.532,10.034,13.245,9.723L13.245,9.723z"
		/>
	<path fill="#E9C29C" d="M11.251,3.71c0.061,0.061,0.16,0.081,0.196,0.163c0.199-0.1,0.491,0.006,0.653,0.131
		c0.115,0.207,0.03,0.534,0.131,0.687c0.213-0.084,0.059-0.527,0.033-0.687c0.469,0.174,0.915,0.369,1.046,0.883
		c0.214-0.051-0.011-0.339-0.033-0.458c0.432,0.135,0.651,0.481,0.915,0.784c0.088,0.063,0.246,0.059,0.229,0.229
		c-0.439-0.005-0.468,0.405-0.621,0.685c0.312-0.017,0.219-0.715,0.784-0.587c0.211,0.291,0.553,0.621,0.489,1.077
		c-0.009,0.118,0.131,0.09,0.131,0.196c0.072,0.271-0.312,0.386-0.098,0.588c0.104-0.017,0.09-0.149,0.131-0.229
		c0.301,0.099,0.286,0.663,0.229,1.014c-0.081,0.082-0.286,0.041-0.294,0.196c0.039,0.135,0.163-0.004,0.262,0
		c0.009,0.341,0.032,0.777-0.195,0.784c-0.048,0.157,0.15,0.067,0.131,0.195c-0.075,0.197-0.144,0.401-0.262,0.556
		c-0.173,0.043-0.167-0.094-0.326-0.066c-0.028,0.159,0.075,0.186,0.163,0.229c-0.04,0.069-0.09,0.128-0.131,0.196
		c-0.251-0.091-0.724-0.232-1.11-0.393c-0.288-0.118-0.732-0.562-0.131-0.686c0.041-0.351,0.342-0.442,0.489-0.687
		c-0.126-0.024-0.314,0.094-0.458,0.294c-0.049,0.071-0.053,0.212-0.098,0.262c-0.113,0.121-0.271,0.082-0.326,0.229
		c-0.044,0.116,0.002,0.214,0,0.326c-0.283,0.272-0.584,0.526-1.111,0.556c0.514-0.14,0.731-1.297,0.032-1.404
		c0.088,0.213,0.278,0.226,0.327,0.425c0.18,0.744-0.684,1.123-1.309,1.176c0.064-0.066,0.183-0.079,0.196-0.195
		c-0.009-0.284-0.167-0.42-0.393-0.489c0.022,0.217,0.242,0.237,0.295,0.425c-0.056,0.175-0.313,0.125-0.262,0.326
		c-0.756,0.166-1.978,0.357-2.026-0.588C8.531,9.764,8.352,9.453,8.375,8.939C8.234,8.896,8.271,9.032,8.212,9.07
		C8.044,9.085,7.985,8.992,7.853,8.972C7.455,9.268,6.363,9.184,6.023,8.809C6.007,8.467,6.26,8.392,6.48,8.285
		C6.289,8.111,6.03,8.389,5.958,8.547C5.47,8.219,5.398,6.933,5.894,6.65C5.802,6.327,5.885,5.904,6.286,5.965
		c0.009-0.086,0.011-0.163-0.099-0.131c0.203-0.505,0.435-0.982,0.915-1.209c0.156-0.017,0.08,0.202,0.195,0.229
		c0.148-0.06,0.036-0.18,0.131-0.294C7.664,4.295,8.205,3.975,8.539,4.2c0.093-0.033-0.009-0.139,0-0.195
		c0.473-0.256,1.449-0.469,1.83,0c0.034,0.145-0.064,0.252,0,0.326c0.372-0.117-0.008-0.592-0.099-0.62
		C10.628,3.726,10.806,3.816,11.251,3.71L11.251,3.71z M10.793,5.05c-0.704,0.018-1.239,1.294-0.229,1.372
		c0.043,0.234,0.262,0.451,0.489,0.393c-0.143-0.162-0.375-0.235-0.424-0.489c-0.958-0.062-0.407-1.181,0.262-1.177
		c-0.045-0.698,0.428-0.879,0.815-1.145c-0.047-0.008-0.055-0.054-0.098-0.065C11.223,4.195,10.761,4.375,10.793,5.05L10.793,5.05z
		 M8.637,4.298c0.104,0.18,0.332,0.234,0.359,0.49c0.573-0.105,1.122,0.038,1.404,0.326c-0.042-0.425-0.806-0.519-1.34-0.457
		C9.001,4.472,8.831,4.239,8.637,4.298L8.637,4.298z M12.2,5.148c0.3-0.147,0.531,0.137,0.719,0.098
		C12.846,5.059,12.29,4.82,12.2,5.148z M6.709,5.376c0.107,0.067,0.226-0.087,0.425-0.032C7.321,5.45,7.4,5.665,7.461,5.899
		c0.554-0.063,0.81,0.171,0.882,0.588c0.149-0.013,0.211-0.073,0.326-0.065c0.399,0.03,0.507,0.565,0.72,0.687
		C9.341,6.728,8.994,6.201,8.407,6.357C8.422,6.137,8.27,6.08,8.212,5.933c0.183-0.211,0.674,0.012,0.816-0.099
		C8.793,5.618,8.306,5.711,8.081,5.866C7.947,5.781,7.757,5.755,7.524,5.768C7.543,5.356,6.981,5,6.709,5.376z M12.95,6.227
		c0.041,0.377-0.178,0.496-0.555,0.457c-0.035,0.333-0.408,0.572-0.752,0.393c-0.102,0.268-0.554,0.157-0.687,0
		c0.091,0.639-1.216,0.379-1.603,0.751c-0.304-0.316-1.009-0.231-1.11-0.751C8.088,6.997,7.722,6.899,7.623,7.108
		c0.532-0.132,0.691,0.342,0.98,0.556c0.41-0.039,0.565,0.176,0.784,0.327c0.353-0.442,1.414-0.178,1.699-0.688
		c0.074,0.057,0.182,0.079,0.326,0.065c0.117-0.034,0.203-0.103,0.294-0.163c0.325,0.168,0.692-0.118,0.784-0.393
		c0.396,0.005,0.608-0.176,0.556-0.621c0.17-0.059,0.38-0.078,0.393-0.294c-0.366,0.321-0.976,0.173-1.11-0.262
		c-0.086,0.362,0.298,0.526,0.621,0.588V6.227z M13.311,6.978c-0.272,0.512-0.729,0.841-1.341,1.014
		c0.253,0.183,0.465-0.095,0.752,0c0.111,0.129,0.075,0.403,0.163,0.556c0.325,0.026,0.899,0.171,0.883-0.163
		c-0.197,0.142-0.489,0.082-0.784,0.064c-0.088-0.097-0.055-0.315-0.099-0.457c-0.06-0.083-0.215-0.068-0.262-0.164
		c0.28-0.241,0.646-0.4,0.818-0.751c0.294-0.033,0.505-0.148,0.556-0.426C13.989,6.614,13.96,6.6,13.932,6.585
		C13.835,6.825,13.655,6.984,13.311,6.978L13.311,6.978z M6.088,7.042c0.553-0.036,0.771,0.534,1.014,0.915
		C6.935,8.009,6.751,8.042,6.709,8.219C6.861,8.274,6.98,8.04,7.199,8.056c0.29,0.166,0.651,0.263,0.783,0.589
		c0.112-0.119-0.113-0.309-0.065-0.359C8.185,8.263,8.326,8.522,8.506,8.48c-0.07-0.205-0.464-0.39-0.687-0.229
		C7.644,8.079,7.496,8.141,7.33,8.022c-0.442-0.31-0.486-1.208-1.275-1.111C6.053,6.97,6.062,7.014,6.088,7.042L6.088,7.042z
		 M8.702,8.808c0.148,0.057,0.182-0.084,0.327-0.099C9.41,8.672,9.626,8.918,9.65,9.33c0.351-0.11,0.689,0.041,0.816,0.262
		c0.218-0.268,0.719-0.106,0.915-0.032c-0.076-0.292-0.652-0.276-0.883-0.131c-0.17-0.164-0.452-0.294-0.752-0.229
		C9.771,8.685,8.986,8.336,8.702,8.808L8.702,8.808z M14.585,8.906c0.109,0.107-0.003,0.438,0.131,0.522
		c0.09-0.104,0.021-0.236,0.064-0.327c0.159-0.052,0.368,0.11,0.359-0.065c-0.085-0.1-0.293-0.062-0.425-0.033
		c-0.019-0.21-0.121-0.336-0.327-0.358C14.367,8.818,14.56,8.778,14.585,8.906L14.585,8.906z M10.793,10.18
		c-0.103-0.483-0.732-0.116-1.144-0.195C9.338,9.923,9.37,9.703,9.093,9.592C9.118,10.32,10.334,9.884,10.793,10.18L10.793,10.18z"
		/>
	<path fill="#D7AF8F" d="M11.611,3.938c0.043,0.012,0.051,0.058,0.098,0.065c-0.389,0.265-0.86,0.446-0.815,1.145
		c-0.669-0.004-1.219,1.113-0.262,1.177c0.049,0.254,0.281,0.327,0.424,0.489c-0.228,0.059-0.447-0.158-0.489-0.393
		C9.556,6.344,10.09,5.067,10.795,5.05C10.763,4.375,11.227,4.195,11.611,3.938L11.611,3.938z"/>
	<path fill="#D7AF8F" d="M9.062,4.658c0.534-0.062,1.298,0.032,1.34,0.457c-0.282-0.289-0.832-0.432-1.404-0.326
		c-0.028-0.256-0.256-0.312-0.359-0.49C8.833,4.241,9.002,4.474,9.062,4.658L9.062,4.658z"/>
	<path fill="#D7AF8F" d="M12.919,5.245C12.731,5.284,12.5,5.001,12.2,5.147C12.29,4.819,12.845,5.058,12.919,5.245z"/>
	<path fill="#D7AF8F" d="M7.526,5.769c0.231-0.013,0.422,0.014,0.556,0.099c0.225-0.155,0.712-0.248,0.947-0.032
		c-0.144,0.11-0.634-0.112-0.816,0.099c0.059,0.147,0.21,0.204,0.195,0.425C8.994,6.202,9.342,6.729,9.39,7.109
		c-0.213-0.121-0.32-0.655-0.72-0.687C8.555,6.415,8.493,6.475,8.344,6.489C8.271,6.071,8.016,5.837,7.462,5.9
		c-0.061-0.234-0.14-0.449-0.327-0.556C6.937,5.29,6.817,5.445,6.71,5.377C6.982,5.002,7.544,5.358,7.526,5.769z"/>
	<path fill="#D7AF8F" d="M12.331,5.638c0.133,0.435,0.744,0.583,1.11,0.262c-0.015,0.216-0.223,0.235-0.393,0.295
		c0.053,0.444-0.159,0.625-0.557,0.62c-0.093,0.275-0.46,0.561-0.784,0.393c-0.091,0.061-0.177,0.129-0.293,0.163
		c-0.146,0.014-0.254-0.009-0.327-0.065c-0.286,0.51-1.347,0.245-1.699,0.688C9.17,7.841,9.015,7.626,8.604,7.665
		C8.315,7.451,8.155,6.979,7.625,7.109C7.724,6.9,8.089,6.998,8.245,7.077c0.103,0.52,0.808,0.435,1.11,0.751
		c0.387-0.371,1.693-0.112,1.603-0.751c0.132,0.157,0.584,0.268,0.686,0c0.344,0.181,0.718-0.059,0.753-0.393
		c0.376,0.039,0.595-0.08,0.556-0.457C12.629,6.166,12.245,6.001,12.331,5.638L12.331,5.638z"/>
	<path fill="#D7AF8F" d="M13.931,6.585C13.96,6.6,13.989,6.613,13.995,6.65c-0.049,0.277-0.262,0.392-0.556,0.426
		c-0.172,0.351-0.536,0.51-0.817,0.751c0.047,0.096,0.202,0.081,0.262,0.164c0.043,0.142,0.009,0.36,0.1,0.457
		c0.294,0.018,0.586,0.077,0.782-0.064c0.019,0.334-0.556,0.189-0.882,0.163c-0.088-0.152-0.052-0.427-0.162-0.556
		c-0.288-0.095-0.5,0.183-0.753,0c0.612-0.172,1.067-0.502,1.34-1.014C13.653,6.985,13.832,6.825,13.931,6.585L13.931,6.585z"/>
	<path fill="#D7AF8F" d="M6.056,6.912c0.788-0.096,0.832,0.802,1.275,1.111C7.498,8.141,7.646,8.079,7.82,8.253
		c0.223-0.16,0.616,0.023,0.687,0.229c-0.18,0.042-0.32-0.219-0.588-0.195C7.87,8.338,8.096,8.526,7.983,8.646
		C7.852,8.319,7.49,8.224,7.2,8.057C6.981,8.041,6.862,8.275,6.71,8.22c0.041-0.177,0.225-0.21,0.393-0.262
		C6.86,7.576,6.642,7.007,6.089,7.043C6.064,7.015,6.055,6.971,6.056,6.912L6.056,6.912z"/>
	<path fill="#D7AF8F" d="M9.747,9.2c0.3-0.065,0.582,0.065,0.752,0.229c0.23-0.146,0.807-0.161,0.883,0.131
		c-0.196-0.074-0.697-0.235-0.915,0.032C10.339,9.373,10,9.22,9.65,9.33C9.626,8.918,9.41,8.671,9.029,8.709
		C8.883,8.724,8.851,8.864,8.702,8.808C8.987,8.335,9.771,8.683,9.747,9.2L9.747,9.2z"/>
	<path fill="#D7AF8F" d="M14.388,8.645c0.206,0.023,0.309,0.148,0.327,0.358c0.132-0.029,0.34-0.066,0.425,0.033
		c0.008,0.176-0.2,0.013-0.359,0.065c-0.043,0.091,0.024,0.225-0.064,0.327c-0.133-0.085-0.021-0.415-0.131-0.522
		c-0.023-0.128-0.217-0.088-0.195-0.262H14.388z"/>
	<path fill="#D7AF8F" d="M9.094,9.592C9.371,9.703,9.34,9.923,9.65,9.984c0.411,0.079,1.041-0.288,1.144,0.195
		C10.335,9.884,9.119,10.32,9.094,9.592L9.094,9.592z"/>
	<path fill="#E9C29C" d="M14.422,10.343c-0.255,0.637-0.845,1.342-1.698,1.438c-0.955,0.105-1.597-0.373-1.699-1.274
		c0.365,0.111,0.635-0.238,0.914-0.263c0.09-0.007,0.178,0.074,0.262,0.065c0.406-0.041,0.754-0.331,1.047-0.589
		C13.534,10.032,14.087,10.078,14.422,10.343L14.422,10.343z"/>
	<path fill="#BEBEBE" d="M14.78,16.062c-0.277-0.652-0.807-1.801-1.013-2.712c-0.245-1.084,1.068-2.368,1.536-3.007
		c0.58-0.793,0.805-2.149,0.489-3.432c-0.269-1.092-0.962-1.817-1.83-2.417c-1.011-0.698-2.331-1.271-4.085-1.145
		C9.115,3.404,8.205,3.679,7.559,3.971C6.385,4.499,5.386,5.504,5.205,6.977c-0.038,0.319,0.054,0.66,0.033,1.046
		c-0.06,1.085-0.926,1.457-1.438,2.222c0.298,0.483,1.443,0.745,0.751,1.537c0.097,0.187,0.452,0.114,0.557,0.294
		c0.022,0.264-0.296,0.184-0.359,0.358c0.17,0.253,0.321,0.245,0.393,0.49c0.197,0.686-0.561,1.52,0.457,1.666
		c0.908,0.131,1.914-0.374,2.876-0.195c0.256,0.192,0.371,0.563,0.457,0.98c0.075,0.366,0.269,0.811,0.131,1.078
		C8.73,16.392,8.73,15.927,8.67,15.604c-0.067-0.373-0.127-0.706-0.326-0.916c-1.292-0.174-2.42,0.619-3.301,0.032
		c-0.151-0.1-0.297-0.329-0.326-0.489c-0.07-0.383,0.207-0.711,0.131-1.145c-0.058-0.327-0.625-0.451-0.295-0.915
		c-0.439-0.093-0.283-0.695-0.064-0.914c-0.242-0.448-0.959-0.377-0.979-0.98C3.492,9.822,3.973,9.629,4.195,9.395
		c0.247-0.26,0.653-0.818,0.719-1.177C4.982,7.845,4.869,7.48,4.882,7.205C4.955,5.581,5.977,4.464,7.169,3.84
		c0.673-0.354,1.54-0.616,2.287-0.752c1.85-0.338,3.789,0.453,5,1.372c1.161,0.882,1.896,2.156,1.798,3.954
		c-0.062,1.118-0.386,1.732-0.948,2.418c-0.249,0.305-0.499,0.606-0.719,0.947c-0.219,0.341-0.569,0.89-0.522,1.405
		c0.044,0.481,0.297,1.012,0.458,1.471c0.161,0.46,0.443,0.882,0.457,1.404h-0.197L14.78,16.062z"/>
</g>
</svg>
