<?xml version="1.0" encoding="utf-8"?>
<!-- Generator: Adobe Illustrator 16.0.0, SVG Export Plug-In . SVG Version: 6.00 Build 0)  -->
<!DOCTYPE svg PUBLIC "-//W3C//DTD SVG 1.1//EN" "http://www.w3.org/Graphics/SVG/1.1/DTD/svg11.dtd">
<svg version="1.1" id="Layer_1" xmlns="http://www.w3.org/2000/svg" xmlns:xlink="http://www.w3.org/1999/xlink" x="0px" y="0px"
	 width="20px" height="20px" viewBox="0 0 20 20" enable-background="new 0 0 20 20" xml:space="preserve">
<g>
	<path fill="#D1AFD2" d="M19.69,10c0,5.351-4.338,9.69-9.69,9.69S0.31,15.353,0.31,10c0-5.352,4.338-9.69,9.69-9.69
		S19.69,4.647,19.69,10z"/>
	<path fill="#A480B1" d="M10.204,11.415L9.39,10.448h1.773L10.204,11.415z"/>
	<path fill="#2A3633" d="M13.504,16.082c0,0.839-0.62,1.519-1.384,1.519H8.346c-0.764,0-1.383-0.68-1.383-1.519
		c0,0,0.317-3.291,0.577-4.115s0.62-1.519,1.383-1.519H9.39l0.814,0.846l0.959-0.846h0.497c0.765,0,1.182,0.507,1.383,1.519
		C13.245,12.979,13.504,16.082,13.504,16.082z"/>
	<path fill="#242D2B" d="M11.917,16.082l0.203,1.52c0.764,0,1.382-0.681,1.382-1.52l-1.586,0.003L11.917,16.082z"/>
	<path fill="#242D2B" d="M11.66,10.448h-0.497l0.756,5.634h1.585c0,0-0.259-3.102-0.462-4.115
		C12.84,10.954,12.423,10.448,11.66,10.448L11.66,10.448z"/>
	<path fill="#BF8A67" d="M12.987,7.294c0,1.539-1.248,2.787-2.789,2.787c-1.54,0-2.787-1.248-2.787-2.787
		c0-1.54,1.247-2.788,2.787-2.788C11.739,4.506,12.987,5.754,12.987,7.294z"/>
	<path fill="#8C5228" d="M12.987,7.294l-1.9-1.71c0,0-0.406,0.669-1.484,1.158c-1.041,0.47-2.19,0.552-2.19,0.552
		c0-1.54,1.248-2.788,2.787-2.788C11.74,4.506,12.987,5.754,12.987,7.294L12.987,7.294z"/>
	<path fill="#343433" d="M9.745,7.708c0,0.224-0.171,0.403-0.382,0.403c-0.212,0-0.382-0.18-0.382-0.403
		c0-0.223,0.17-0.403,0.382-0.403C9.574,7.305,9.745,7.485,9.745,7.708z"/>
	<path fill="#343433" d="M11.4,7.708c0,0.224-0.171,0.403-0.382,0.403s-0.383-0.18-0.383-0.403c0-0.223,0.172-0.403,0.383-0.403
		S11.4,7.485,11.4,7.708z"/>
	<path fill="#FFFFFF" d="M11.29,7.555c0,0.089-0.067,0.161-0.152,0.161s-0.152-0.072-0.152-0.161s0.067-0.162,0.152-0.162
		S11.29,7.466,11.29,7.555z"/>
	<path fill="#FFFFFF" d="M9.631,7.555c0,0.089-0.067,0.161-0.152,0.161S9.325,7.644,9.325,7.555s0.068-0.162,0.153-0.162
		S9.631,7.466,9.631,7.555z"/>
	<path fill="#242D2B" d="M8.923,10.448c-0.765,0-1.125,0.695-1.383,1.519c-0.259,0.823-0.577,4.115-0.577,4.115
		c0,0.839,0.62,1.519,1.383,1.519l0.286-1.514l0.758-5.642l-0.467,0.001V10.448z"/>
	<path fill="#242D2B" d="M10.128,11.26h0.152v6.346h-0.152V11.26z"/>
	<path fill="#242D2B" d="M8.278,4.726L8.023,5.471c0,0,0.436,1.021,2.125,1.021s2.138-1.021,2.138-1.021L12.03,4.726H8.278z"/>
	<path fill="#2A3633" d="M8.278,4.726L8.023,5.471c0,0,0.436,1.021,2.125,1.021l-0.013-1.766H8.278z"/>
	<path fill="#181E1D" d="M8.278,4.726L8.199,5.001l1.729,0.505c0.132,0.041,0.348,0.041,0.479,0l1.699-0.496l-0.079-0.285
		L8.278,4.726L8.278,4.726z"/>
	<path fill="#2A3633" d="M10.408,5.407c-0.132,0.04-0.348,0.04-0.479,0L7,4.512C6.868,4.471,6.868,4.406,7,4.365l2.929-0.896
		c0.132-0.041,0.348-0.041,0.479,0l2.929,0.896c0.131,0.041,0.131,0.105,0,0.146L10.408,5.407z"/>
	<path fill="#BC992F" d="M11.826,4.972c-0.022,0-0.04,0.018-0.04,0.04v1.61c0,0.021,0.018,0.039,0.04,0.039s0.039-0.018,0.039-0.039
		v-1.61C11.865,4.989,11.849,4.972,11.826,4.972z"/>
	<path fill="#BC992F" d="M11.836,4.974l-1.661-0.519c-0.021-0.007-0.043,0.005-0.049,0.026c-0.007,0.021,0.005,0.043,0.025,0.049
		l1.662,0.519c0.021,0.006,0.043-0.006,0.049-0.026c0.007-0.021-0.006-0.044-0.026-0.051V4.974z"/>
	<path fill="#BC992F" d="M11.935,5.86c0,0.069-0.051,0.126-0.112,0.126S11.711,5.93,11.711,5.86c0-0.068,0.05-0.125,0.111-0.125
		S11.935,5.792,11.935,5.86z"/>
	<path fill="#BC992F" d="M11.787,5.965c0,0-0.11,0.126-0.11,0.202c0,0.032,0,0.21-0.002,0.34c0,0.078-0.059,0.139-0.059,0.139
		c0,0.044,0.412,0.044,0.412,0c0,0-0.058-0.058-0.059-0.135c-0.001-0.127-0.002-0.301-0.002-0.337c0-0.083-0.109-0.208-0.109-0.208
		L11.787,5.965L11.787,5.965z"/>
	<path fill="#2B2B2A" d="M10.383,4.501c0,0.071-0.093,0.129-0.207,0.129S9.969,4.572,9.969,4.501s0.093-0.129,0.207-0.129
		S10.383,4.43,10.383,4.501z"/>
</g>
</svg>
