<?xml version="1.0" encoding="utf-8"?>
<!-- Generator: Adobe Illustrator 16.0.0, SVG Export Plug-In . SVG Version: 6.00 Build 0)  -->
<!DOCTYPE svg PUBLIC "-//W3C//DTD SVG 1.1//EN" "http://www.w3.org/Graphics/SVG/1.1/DTD/svg11.dtd">
<svg version="1.1" id="Layer_1" xmlns="http://www.w3.org/2000/svg" xmlns:xlink="http://www.w3.org/1999/xlink" x="0px" y="0px"
	 width="20px" height="20px" viewBox="0 0 20 20" enable-background="new 0 0 20 20" xml:space="preserve">
<g>
	<path fill="#F37C2A" d="M19.69,10c0,5.351-4.338,9.69-9.69,9.69S0.31,15.353,0.31,10c0-5.352,4.338-9.69,9.69-9.69
		S19.69,4.647,19.69,10z"/>
	<path fill="#6D5D49" d="M15.031,15.386l-0.844-9.654c0,0-1.815,1.857-4.222,1.857c-2.213,0-4.161-1.893-4.161-1.893l-0.844,9.689
		c0,0.606,0.647,0.598,0.647,0.598h8.74C15.072,15.983,15.031,15.386,15.031,15.386z"/>
	<path fill="#786451" d="M12.717,6.813c-0.536,0.438-1.541,1.095-2.743,1.095c-1.13,0-2.167-0.698-2.714-1.144
		C7.117,6.681,6.982,6.597,6.855,6.514l-0.632,9.469h7.542L13.134,6.56c-0.129,0.084-0.27,0.17-0.419,0.253L12.717,6.813z"/>
	<path fill="#5B4F3F" d="M9.382,8.246c0,0,0,0.59,0,0.755c0,0.166,0.135,0.3,0.3,0.3h0.599c0.165,0,0.301-0.134,0.301-0.3
		c0-0.165,0.008-0.745,0.008-0.745L9.382,8.246z"/>
	<path fill="#473C30" d="M10.18,9.469c0,0.093-0.074,0.166-0.165,0.166H9.945c-0.091,0-0.165-0.074-0.165-0.166V8.675
		c0-0.092,0.074-0.165,0.165-0.165h0.069c0.092,0,0.165,0.073,0.165,0.165V9.469z"/>
	<path fill="#5B4F3F" d="M9.579,8.955h0.824v0.2H9.579V8.955z"/>
	<path fill="#5B4F3F" d="M9.579,8.385h0.824v0.309H9.579V8.385z"/>
	<path fill="#5B4F3F" d="M13.862,5.197H6.1c-0.608,0-0.587,0.599-0.587,0.599s1.125,2.598,4.465,2.598
		c3.341,0,4.502-2.598,4.502-2.598C14.479,5.17,13.862,5.197,13.862,5.197z"/>
	<path fill="#5B4F3F" d="M9.918,3.896c-1.437,0-2.602,0.849-2.602,1.895c0,1.045,1.164,1.894,2.602,1.894s2.602-0.849,2.602-1.894
		C12.52,4.745,11.355,3.896,9.918,3.896z M9.918,7.033c-0.943,0-1.707-0.558-1.707-1.243c0-0.688,0.765-1.244,1.707-1.244
		s1.707,0.557,1.707,1.244C11.625,6.476,10.86,7.033,9.918,7.033z"/>
</g>
</svg>
