<?xml version="1.0" encoding="utf-8"?>
<!-- Generator: Adobe Illustrator 16.0.0, SVG Export Plug-In . SVG Version: 6.00 Build 0)  -->
<!DOCTYPE svg PUBLIC "-//W3C//DTD SVG 1.1//EN" "http://www.w3.org/Graphics/SVG/1.1/DTD/svg11.dtd">
<svg version="1.1" id="Layer_1" xmlns="http://www.w3.org/2000/svg" xmlns:xlink="http://www.w3.org/1999/xlink" x="0px" y="0px"
	 width="20px" height="20px" viewBox="0 0 20 20" enable-background="new 0 0 20 20" xml:space="preserve">
<g>
	<path fill="#357180" d="M19.69,10c0,5.351-4.338,9.69-9.69,9.69S0.31,15.353,0.31,10c0-5.352,4.338-9.69,9.69-9.69
		S19.69,4.647,19.69,10z"/>
	<path fill="#AAAAAA" d="M12.447,3.773l0.364,0.133L8.086,16.896l-0.364-0.133L12.447,3.773z"/>
	<path fill="#70BFC8" d="M15.805,10.199c0,3.276-2.656,5.933-5.933,5.933s-5.933-2.656-5.933-5.933s2.656-5.932,5.933-5.932
		S15.805,6.923,15.805,10.199z"/>
	<path fill="#43B665" d="M12.944,7.598c0,0-1.27,0.263-1.725,0.019c0,0-0.304-0.394-1.156-0.057c0,0-1.497,0.9-1.516,1.8
		c0,0-0.417,1.78,1.156,2.024c0,0,1.649-0.544,1.858,0.095c0,0,0.056,0.787,0.208,0.955c0,0,0.245,0.362,0.227,0.581
		c0,0-0.17,0.73,0.057,1.294c0,0,0.152,0.488,0.133,0.637c0,0,1.44-0.411,1.895-1.761c0,0,0.266-0.938,0.285-1.181
		c0,0,0.379-1.087,0.475-1.426c0,0,0.341-1.012-0.228-0.881c0,0-0.397-0.375-0.682-0.656c-0.284-0.282-0.833-1.35-0.985-1.442
		L12.944,7.598z"/>
	<path fill="#43B665" d="M14.214,9.003l-1.593-1.462c0,0,0.342-0.299,0.227-0.469c-0.114-0.17-0.359,0.056-0.568,0.056
		c-0.208,0-0.492,0.169-0.604,0.02c-0.114-0.15-0.19-0.113-0.305-0.02c-0.113,0.094-0.322,0.244-0.342,0.15
		c-0.019-0.095-0.359-0.057-0.378-0.15s0.057-0.355-0.112-0.3c-0.172,0.056-0.418,0.244-0.457,0.337
		C10.044,7.259,9.911,7.54,9.778,7.54S9.305,7.614,9.247,7.502C9.19,7.39,9.076,7.015,9.19,6.902s0.67,0.006,0.644-0.131
		S9.743,6.332,9.827,6.289s0.311-0.529,0.463-0.586c0.151-0.058,0.549,0.149,0.607,0.019c0,0,0.019-0.394-0.059-0.45
		c-0.076-0.057-0.133-0.225-0.265-0.206c-0.133,0.019-0.189,0.149-0.095,0.206c0.094,0.057,0.171,0.281,0.113,0.281
		c-0.055,0-0.568,0.038-0.587-0.093s0.057-0.45,0.228-0.562c0.17-0.111,0.531-0.094,0.645-0.038
		c0.114,0.058,0.246-0.056,0.285-0.149c0.037-0.093-0.539-0.407-0.71-0.407c0,0,4.49,0.335,5.263,4.927c0,0-0.479-1.577-0.801-1.671
		c0,0-0.17,0.113-0.284,0.093c-0.114-0.02-0.681-0.374-0.72-0.28c-0.038,0.095,0.265,0.412,0.587,0.449
		c0.323,0.037,0.342,0.075,0.359,0.244c0.02,0.168,0.076,0.431,0.038,0.6c-0.038,0.168-0.266,0.676-0.682,0.337V9.003z"/>
	<path fill="#43B665" d="M9.513,5.667c0,0-0.151,0.094-0.227,0.226S9.211,6.136,9.211,6.136s0.096,0.056,0.193,0.057
		c0.097,0,0.356-0.094,0.356-0.225s-0.245-0.3-0.245-0.3L9.513,5.667z"/>
	<path fill="#43B665" d="M9.286,4.543c0,0-0.455,0.543-0.683,0.6C8.375,5.199,7.997,5.387,7.902,5.461
		C7.808,5.536,7.485,5.404,7.675,5.255s0.701-0.488,0.587-0.526c-0.114-0.037-0.624,0.32-0.834,0.47S7.049,5.573,6.953,5.723
		C6.858,5.872,6.878,6.266,6.669,6.341C6.46,6.417,5.551,6.791,5.247,7.054S4.618,7.511,4.485,7.772s0.066-0.419,0.185-0.67
		c0,0,0.806-1.436,2.643-2.336c0,0,1.402-0.355,1.971-0.224H9.286z"/>
	<path fill="#43B665" d="M3.98,11.141c0,0-0.189-1.012,0.02-1.106c0.208-0.094,0.271-0.113,0.455,0.075
		c0.183,0.188,0.436,0.507,0.53,0.675c0.096,0.168,0.436,0.375,0.436,0.506c0,0.133-0.075,0.451,0,0.602
		c0.076,0.148,0.189,0.167,0.36,0.243c0.17,0.073,0.493,0.187,0.683,0.355s0.454,0.374,0.397,0.6
		c-0.056,0.226-0.171,0.562-0.133,0.693s0.171,0.355,0.019,0.45c-0.151,0.094-0.266,0.075-0.245,0.244
		c0.018,0.168,0.208,0.693,0.266,0.787C6.768,15.265,4.403,14.259,3.98,11.141z"/>
	<path fill="#43B665" d="M4.239,9.058c0.038-0.131,0.133-0.787,0.019-0.787C4.035,9.09,4.044,9.08,3.955,9.695L4.239,9.058z"/>
	<path fill="#BFBEBE" d="M16.552,12.537c1.313-3.739-0.654-7.833-4.393-9.146l-0.236,0.671c3.368,1.182,5.14,4.87,3.958,8.238
		c-1.182,3.367-4.871,5.142-8.239,3.957L7.406,16.93C11.145,18.241,15.239,16.275,16.552,12.537L16.552,12.537z"/>
	<path fill="#DFDFDF" d="M9.942,17.106v2.583c0.02,0,0.038,0.001,0.058,0.001c0.198,0,0.396-0.009,0.591-0.02v-2.565L9.942,17.106
		L9.942,17.106z"/>
	<path fill="#CDCDCE" d="M16.552,12.537c1.312-3.737-0.653-7.83-4.389-9.144l-0.067,0.189c3.59,1.261,5.478,5.191,4.218,8.781
		c-1.261,3.592-5.191,5.479-8.782,4.219l-0.122,0.35C11.147,18.242,15.239,16.275,16.552,12.537L16.552,12.537z"/>
</g>
</svg>
