<?xml version="1.0" encoding="utf-8"?>
<!-- Generator: Adobe Illustrator 16.0.0, SVG Export Plug-In . SVG Version: 6.00 Build 0)  -->
<!DOCTYPE svg PUBLIC "-//W3C//DTD SVG 1.1//EN" "http://www.w3.org/Graphics/SVG/1.1/DTD/svg11.dtd">
<svg version="1.1" id="Layer_1" xmlns="http://www.w3.org/2000/svg" xmlns:xlink="http://www.w3.org/1999/xlink" x="0px" y="0px"
	 width="20px" height="20px" viewBox="0 0 20 20" enable-background="new 0 0 20 20" xml:space="preserve">
<g>
	<path fill="#D7DABA" d="M19.69,10c0,5.351-4.338,9.69-9.69,9.69S0.31,15.353,0.31,10c0-5.352,4.338-9.69,9.69-9.69
		S19.69,4.647,19.69,10z"/>
	<path fill="#357180" d="M12.968,8.981c0,0.192-0.156,0.349-0.349,0.349H7.422c-0.193,0-0.349-0.156-0.349-0.349V3.784
		c0-0.193,0.155-0.349,0.349-0.349h5.197c0.192,0,0.349,0.155,0.349,0.349V8.981z"/>
	<path fill="#ECEDEA" d="M11.08,7.807l-0.197-0.518H9.205L9.009,7.818C8.931,8.024,8.865,8.164,8.812,8.236
		C8.758,8.308,8.668,8.345,8.545,8.345c-0.106,0-0.198-0.039-0.279-0.115c-0.08-0.076-0.121-0.164-0.121-0.262
		c0-0.057,0.01-0.113,0.028-0.175c0.019-0.061,0.051-0.144,0.093-0.25l1.057-2.681c0.029-0.077,0.066-0.17,0.109-0.277
		c0.043-0.108,0.087-0.198,0.135-0.27s0.11-0.129,0.188-0.173s0.174-0.065,0.289-0.065c0.116,0,0.214,0.021,0.291,0.065
		s0.141,0.101,0.188,0.171c0.048,0.069,0.088,0.145,0.122,0.225c0.033,0.079,0.074,0.186,0.125,0.318l1.078,2.664
		c0.086,0.204,0.126,0.351,0.126,0.442c0,0.096-0.038,0.183-0.118,0.264c-0.08,0.08-0.176,0.119-0.289,0.119
		c-0.066,0-0.123-0.011-0.17-0.036c-0.047-0.023-0.086-0.055-0.117-0.096c-0.033-0.04-0.066-0.103-0.104-0.185
		c-0.037-0.083-0.068-0.158-0.094-0.222L11.08,7.807z M9.425,6.66h1.234l-0.623-1.704L9.425,6.66z"/>
	<path fill="#D62127" d="M9.862,15.137c0,0.192-0.157,0.349-0.348,0.349H4.316c-0.192,0-0.349-0.156-0.349-0.349V9.938
		c0-0.192,0.156-0.348,0.349-0.348h5.198c0.192,0,0.348,0.155,0.348,0.348V15.137z"/>
	<path fill="#ECEDEA" d="M7.097,14.558H5.836c-0.183,0-0.312-0.041-0.391-0.123c-0.078-0.081-0.117-0.211-0.117-0.39v-3.103
		c0-0.182,0.04-0.312,0.119-0.393c0.08-0.08,0.209-0.12,0.388-0.12h1.337c0.197,0,0.368,0.013,0.513,0.037
		c0.144,0.023,0.273,0.071,0.389,0.141c0.097,0.058,0.184,0.132,0.258,0.221s0.132,0.188,0.172,0.296s0.06,0.223,0.06,0.342
		c0,0.413-0.206,0.716-0.619,0.908c0.542,0.172,0.813,0.508,0.813,1.008c0,0.23-0.06,0.438-0.178,0.623s-0.277,0.321-0.479,0.409
		c-0.125,0.053-0.27,0.09-0.434,0.111C7.505,14.546,7.313,14.558,7.097,14.558L7.097,14.558z M6.164,11.058v1.068h0.767
		c0.208,0,0.369-0.021,0.482-0.059c0.113-0.041,0.201-0.115,0.261-0.227c0.047-0.078,0.07-0.166,0.07-0.265
		c0-0.208-0.074-0.347-0.223-0.415c-0.146-0.069-0.374-0.104-0.678-0.104H6.164L6.164,11.058z M7.035,12.726h-0.87v1.204h0.898
		c0.565,0,0.848-0.204,0.848-0.611c0-0.209-0.073-0.359-0.22-0.454c-0.146-0.094-0.365-0.141-0.655-0.141L7.035,12.726z"/>
	<path fill="#65A844" d="M16.072,15.137c0,0.192-0.155,0.349-0.349,0.349h-5.196c-0.192,0-0.349-0.156-0.349-0.349V9.938
		c0-0.192,0.156-0.348,0.349-0.348h5.196c0.193,0,0.349,0.155,0.349,0.348V15.137z"/>
	<path fill="#ECEDEA" d="M14.958,13.425c0,0.133-0.033,0.273-0.099,0.427c-0.063,0.154-0.165,0.305-0.304,0.45
		c-0.141,0.148-0.317,0.268-0.533,0.359c-0.216,0.093-0.467,0.139-0.754,0.139c-0.218,0-0.416-0.021-0.595-0.062
		c-0.18-0.041-0.341-0.105-0.486-0.192s-0.279-0.202-0.401-0.346c-0.109-0.129-0.201-0.273-0.279-0.436
		c-0.075-0.161-0.135-0.331-0.174-0.513c-0.039-0.183-0.058-0.376-0.058-0.581c0-0.331,0.05-0.63,0.146-0.893
		c0.099-0.263,0.235-0.487,0.416-0.673c0.18-0.188,0.392-0.33,0.633-0.428c0.242-0.1,0.501-0.147,0.775-0.147
		c0.334,0,0.632,0.067,0.893,0.2s0.46,0.299,0.6,0.494c0.139,0.195,0.208,0.383,0.208,0.556c0,0.097-0.032,0.181-0.101,0.253
		c-0.068,0.073-0.15,0.11-0.244,0.11c-0.107,0-0.188-0.024-0.241-0.075c-0.054-0.051-0.113-0.139-0.18-0.262
		c-0.109-0.205-0.235-0.358-0.384-0.458c-0.148-0.101-0.328-0.151-0.545-0.151c-0.344,0-0.617,0.131-0.822,0.391
		c-0.203,0.262-0.305,0.633-0.305,1.113c0,0.32,0.045,0.587,0.135,0.8c0.091,0.213,0.218,0.373,0.383,0.478
		c0.165,0.105,0.359,0.158,0.58,0.158c0.239,0,0.444-0.059,0.609-0.18c0.166-0.118,0.293-0.293,0.377-0.525
		c0.034-0.108,0.079-0.197,0.131-0.266c0.053-0.067,0.137-0.103,0.253-0.103c0.101,0,0.187,0.035,0.257,0.104
		c0.071,0.07,0.107,0.156,0.107,0.26L14.958,13.425z"/>
</g>
</svg>
