<?xml version="1.0" encoding="utf-8"?>
<!-- Generator: Adobe Illustrator 16.0.0, SVG Export Plug-In . SVG Version: 6.00 Build 0)  -->
<!DOCTYPE svg PUBLIC "-//W3C//DTD SVG 1.1//EN" "http://www.w3.org/Graphics/SVG/1.1/DTD/svg11.dtd">
<svg version="1.1" id="Layer_1" xmlns="http://www.w3.org/2000/svg" xmlns:xlink="http://www.w3.org/1999/xlink" x="0px" y="0px"
	 width="20px" height="20px" viewBox="0 0 20 20" enable-background="new 0 0 20 20" xml:space="preserve">
<g>
	<path fill="#344E5D" d="M19.69,10c0,5.351-4.338,9.69-9.69,9.69S0.31,15.353,0.31,10c0-5.352,4.338-9.69,9.69-9.69
		S19.69,4.647,19.69,10z"/>
	<path fill="#CDCCCB" d="M13.803,6.685H0.892C0.831,6.852,0.775,7.021,0.725,7.191h13.078V6.685z"/>
	<path fill="#CDCCCB" d="M1.487,9.218c0,0.104-0.022,0.201-0.062,0.29h12.377V9.001H1.449C1.472,9.07,1.487,9.142,1.487,9.218z"/>
	<path fill="#CDCCCB" d="M1.361,11.391c0,0.108-0.025,0.208-0.068,0.301h12.51v-0.507H1.327C1.347,11.251,1.36,11.317,1.361,11.391
		L1.361,11.391z"/>
	<path fill="#CDCCCB" d="M1.298,13.491c0,0.113-0.029,0.221-0.078,0.317h12.583v-0.507H1.269
		C1.285,13.362,1.297,13.425,1.298,13.491L1.298,13.491z"/>
	<path fill="#CDCCCB" d="M3.099,15.664c0,0.1-0.021,0.195-0.058,0.281h10.762v-0.507H3.059C3.083,15.51,3.099,15.586,3.099,15.664
		L3.099,15.664z"/>
	<path fill="#CDCCCB" d="M13.803,17.718h-9.66c0.236,0.181,0.483,0.349,0.736,0.508h8.924V17.718z"/>
	<path fill="#E84849" d="M9.089,6.938c0,0.395-0.32,0.714-0.715,0.714S7.659,7.333,7.659,6.938s0.32-0.716,0.715-0.716
		S9.089,6.544,9.089,6.938z"/>
	<path fill="#FFFFFF" d="M7.805,7.053C7.68,6.928,7.789,6.614,7.913,6.489C8.039,6.363,8.352,6.254,8.478,6.38
		S7.931,7.179,7.805,7.053L7.805,7.053z"/>
	<path fill="#E84849" d="M7.53,6.938c0,0.395-0.32,0.713-0.714,0.713S6.103,7.332,6.103,6.938c0-0.395,0.32-0.715,0.714-0.715
		S7.53,6.545,7.53,6.938z"/>
	<path fill="#FFFFFF" d="M6.247,7.053C6.121,6.928,6.23,6.614,6.357,6.489C6.483,6.363,6.795,6.254,6.92,6.38
		C7.046,6.506,6.373,7.179,6.247,7.053z"/>
	<path fill="#E84849" d="M10.578,6.938c0,0.395-0.319,0.713-0.713,0.713S9.15,7.332,9.15,6.938c0-0.395,0.321-0.715,0.715-0.715
		S10.578,6.545,10.578,6.938z"/>
	<path fill="#FFFFFF" d="M9.294,7.053C9.169,6.928,9.277,6.614,9.403,6.489C9.528,6.363,9.842,6.254,9.967,6.38
		C10.093,6.506,9.42,7.179,9.294,7.053z"/>
	<path fill="#E84849" d="M12.053,6.938c0,0.395-0.321,0.714-0.716,0.714s-0.713-0.319-0.713-0.714s0.318-0.716,0.713-0.716
		S12.053,6.544,12.053,6.938z"/>
	<path fill="#FFFFFF" d="M10.769,7.053c-0.126-0.125-0.018-0.438,0.108-0.563c0.126-0.126,0.438-0.235,0.564-0.109
		S10.894,7.179,10.769,7.053z"/>
	<path fill="#E84849" d="M13.558,6.938c0,0.395-0.321,0.714-0.716,0.714s-0.715-0.319-0.715-0.714s0.32-0.716,0.715-0.716
		S13.558,6.544,13.558,6.938z"/>
	<path fill="#FFFFFF" d="M12.272,7.053c-0.126-0.125-0.018-0.438,0.109-0.563c0.125-0.126,0.438-0.235,0.564-0.109
		C13.071,6.506,12.398,7.179,12.272,7.053z"/>
	<path fill="#E84849" d="M4.72,9.218c0,0.395-0.32,0.714-0.714,0.714s-0.714-0.32-0.714-0.714c0-0.395,0.32-0.714,0.714-0.714
		S4.72,8.824,4.72,9.218z"/>
	<path fill="#FFFFFF" d="M3.436,9.333C3.31,9.207,3.418,8.896,3.544,8.77C3.67,8.645,3.982,8.534,4.108,8.66
		C4.234,8.785,3.56,9.46,3.436,9.333z"/>
	<path fill="#E84849" d="M1.732,9.218c0-0.395,0.32-0.715,0.715-0.715s0.714,0.32,0.714,0.715s-0.32,0.714-0.714,0.714
		S1.732,9.612,1.732,9.218z"/>
	<path fill="#FFFFFF" d="M1.878,9.333C1.752,9.207,1.861,8.896,1.986,8.77C2.112,8.645,2.426,8.534,2.551,8.66
		C2.675,8.785,2.003,9.46,1.878,9.333z"/>
	<path fill="#E84849" d="M10.578,9.218c0,0.395-0.319,0.714-0.713,0.714S9.15,9.611,9.15,9.218c0-0.395,0.321-0.714,0.715-0.714
		S10.578,8.824,10.578,9.218z"/>
	<path fill="#FFFFFF" d="M9.294,9.333C9.169,9.207,9.277,8.896,9.403,8.77C9.528,8.645,9.842,8.534,9.967,8.66
		C10.093,8.785,9.42,9.46,9.294,9.333z"/>
	<path fill="#E84849" d="M12.053,9.218c0,0.395-0.321,0.715-0.716,0.715s-0.713-0.32-0.713-0.715s0.318-0.715,0.713-0.715
		S12.053,8.823,12.053,9.218z"/>
	<path fill="#FFFFFF" d="M10.769,9.333c-0.126-0.126-0.018-0.438,0.108-0.563c0.126-0.125,0.438-0.235,0.564-0.109
		C11.567,8.785,10.894,9.46,10.769,9.333z"/>
	<path fill="#E84849" d="M13.558,9.218c0,0.395-0.321,0.715-0.716,0.715s-0.715-0.32-0.715-0.715s0.32-0.715,0.715-0.715
		S13.558,8.823,13.558,9.218z"/>
	<path fill="#FFFFFF" d="M12.272,9.333c-0.126-0.126-0.018-0.438,0.109-0.563c0.125-0.125,0.438-0.235,0.564-0.109
		C13.071,8.785,12.398,9.46,12.272,9.333z"/>
	<path fill="#E84849" d="M3.101,11.391c0-0.395,0.32-0.714,0.715-0.714s0.714,0.319,0.714,0.714s-0.32,0.713-0.714,0.713
		S3.101,11.785,3.101,11.391z"/>
	<path fill="#FFFFFF" d="M3.246,11.507c-0.126-0.127-0.017-0.439,0.108-0.564c0.126-0.127,0.438-0.236,0.564-0.11
		S3.371,11.632,3.246,11.507z"/>
	<path fill="#E84849" d="M2.972,11.391c0,0.395-0.32,0.714-0.715,0.714s-0.715-0.319-0.715-0.714s0.32-0.716,0.715-0.716
		S2.972,10.996,2.972,11.391z"/>
	<path fill="#FFFFFF" d="M1.688,11.507c-0.126-0.127-0.018-0.439,0.109-0.564c0.127-0.127,0.438-0.236,0.564-0.11
		S1.814,11.632,1.688,11.507z"/>
	<path fill="#E84849" d="M10.578,11.391c0,0.395-0.319,0.713-0.713,0.713S9.15,11.784,9.15,11.391c0-0.395,0.321-0.714,0.715-0.714
		S10.578,10.997,10.578,11.391z"/>
	<path fill="#FFFFFF" d="M9.294,11.507c-0.125-0.127-0.017-0.439,0.109-0.564c0.125-0.127,0.438-0.236,0.563-0.11
		C10.093,10.958,9.42,11.632,9.294,11.507z"/>
	<path fill="#E84849" d="M12.053,11.391c0,0.395-0.321,0.714-0.716,0.714s-0.713-0.319-0.713-0.714s0.318-0.716,0.713-0.716
		S12.053,10.996,12.053,11.391z"/>
	<path fill="#FFFFFF" d="M10.769,11.507c-0.126-0.127-0.018-0.439,0.108-0.564c0.126-0.127,0.438-0.236,0.564-0.11
		S10.894,11.632,10.769,11.507z"/>
	<path fill="#E84849" d="M13.558,11.391c0,0.395-0.321,0.714-0.716,0.714s-0.715-0.319-0.715-0.714s0.32-0.716,0.715-0.716
		S13.558,10.996,13.558,11.391z"/>
	<path fill="#FFFFFF" d="M12.272,11.507c-0.126-0.127-0.018-0.439,0.109-0.564c0.125-0.127,0.438-0.236,0.564-0.11
		C13.071,10.958,12.398,11.632,12.272,11.507z"/>
	<path fill="#E84849" d="M7.66,13.491c0-0.395,0.319-0.715,0.714-0.715s0.715,0.321,0.715,0.715c0,0.395-0.32,0.715-0.715,0.715
		S7.66,13.887,7.66,13.491z"/>
	<path fill="#FFFFFF" d="M7.805,13.606c-0.125-0.125-0.016-0.438,0.108-0.563c0.126-0.125,0.438-0.236,0.564-0.11
		S7.931,13.731,7.805,13.606L7.805,13.606z"/>
	<path fill="#E84849" d="M1.479,13.491c0-0.395,0.319-0.715,0.715-0.715c0.396,0,0.715,0.321,0.715,0.715
		c0,0.395-0.32,0.715-0.715,0.715S1.479,13.887,1.479,13.491z"/>
	<path fill="#FFFFFF" d="M1.624,13.606c-0.125-0.125-0.017-0.438,0.109-0.563c0.126-0.125,0.438-0.236,0.564-0.11
		C2.423,13.059,1.75,13.731,1.624,13.606L1.624,13.606z"/>
	<path fill="#E84849" d="M9.149,13.491c0-0.395,0.319-0.715,0.715-0.715c0.395,0,0.714,0.321,0.714,0.715
		c0,0.395-0.318,0.715-0.714,0.715C9.468,14.206,9.149,13.887,9.149,13.491z"/>
	<path fill="#FFFFFF" d="M9.294,13.606c-0.125-0.125-0.017-0.438,0.109-0.563c0.125-0.125,0.438-0.236,0.563-0.11
		C10.093,13.059,9.42,13.731,9.294,13.606L9.294,13.606z"/>
	<path fill="#E84849" d="M10.624,13.491c0-0.395,0.32-0.715,0.715-0.715s0.715,0.321,0.715,0.715c0,0.395-0.32,0.715-0.715,0.715
		S10.624,13.887,10.624,13.491z"/>
	<path fill="#FFFFFF" d="M10.769,13.606c-0.126-0.125-0.018-0.438,0.108-0.563c0.126-0.125,0.438-0.236,0.564-0.11
		S10.894,13.731,10.769,13.606L10.769,13.606z"/>
	<path fill="#E84849" d="M12.128,13.491c0-0.395,0.32-0.715,0.715-0.715s0.715,0.321,0.715,0.715c0,0.395-0.32,0.715-0.715,0.715
		S12.128,13.887,12.128,13.491z"/>
	<path fill="#FFFFFF" d="M12.272,13.606c-0.126-0.125-0.018-0.438,0.109-0.563c0.125-0.125,0.438-0.236,0.564-0.11
		C13.071,13.059,12.398,13.731,12.272,13.606L12.272,13.606z"/>
	<path fill="#E84849" d="M3.229,15.664c0-0.395,0.318-0.714,0.713-0.714c0.396,0,0.715,0.32,0.715,0.714
		c0,0.395-0.319,0.715-0.715,0.715C3.547,16.379,3.229,16.059,3.229,15.664z"/>
	<path fill="#FFFFFF" d="M3.372,15.78c-0.125-0.127-0.016-0.44,0.109-0.564s0.438-0.235,0.564-0.109
		C4.171,15.231,3.498,15.904,3.372,15.78z"/>
	<path fill="#B58755" d="M14.41,6.006c-0.335,0-0.607,0.272-0.607,0.607v12.303c0.421-0.18,0.826-0.389,1.214-0.623V6.613
		C15.017,6.278,14.744,6.006,14.41,6.006L14.41,6.006z"/>
	<path fill="#D5CEA9" d="M1.45,9C1.358,8.712,1.092,8.503,0.773,8.503c-0.133,0-0.256,0.038-0.362,0.102
		c-0.005,0.032-0.009,0.065-0.013,0.1c0.149-0.093,0.376-0.147,0.479-0.046C0.93,8.711,0.844,8.856,0.718,9
		C0.601,9.134,0.449,9.266,0.336,9.32C0.332,9.382,0.325,9.443,0.322,9.507C0.318,9.592,0.318,9.676,0.315,9.761
		c0.125,0.105,0.283,0.17,0.458,0.17c0.291,0,0.54-0.175,0.652-0.424c0.04-0.089,0.062-0.187,0.062-0.29
		C1.488,9.141,1.473,9.069,1.45,9z"/>
	<path fill="#FFFFFF" d="M0.877,8.658C0.774,8.557,0.548,8.611,0.398,8.704C0.385,8.802,0.371,8.9,0.361,9
		C0.35,9.105,0.343,9.214,0.336,9.32C0.448,9.266,0.601,9.134,0.718,9C0.844,8.856,0.929,8.711,0.877,8.658z"/>
	<path fill="#D5CEA9" d="M1.328,11.185c-0.089-0.293-0.358-0.508-0.682-0.508c-0.109,0-0.213,0.026-0.306,0.07
		c0.002,0.03,0.004,0.061,0.007,0.089c0.142-0.065,0.316-0.091,0.402-0.004c0.054,0.054-0.037,0.205-0.169,0.353
		c-0.054,0.061-0.114,0.12-0.174,0.172c0.016,0.111,0.034,0.224,0.054,0.335c0.023,0.136,0.05,0.27,0.079,0.402
		c0.035,0.005,0.071,0.011,0.107,0.011c0.286,0,0.532-0.168,0.646-0.412c0.043-0.092,0.068-0.193,0.068-0.301
		C1.362,11.318,1.349,11.251,1.328,11.185L1.328,11.185z"/>
	<path fill="#FFFFFF" d="M0.75,10.832c-0.086-0.086-0.261-0.062-0.402,0.004c0.01,0.118,0.022,0.233,0.037,0.349
		c0.007,0.059,0.014,0.114,0.022,0.172c0.061-0.052,0.12-0.111,0.174-0.172C0.713,11.037,0.804,10.886,0.75,10.832z"/>
	<path fill="#D5CEA9" d="M1.269,13.302c-0.072-0.259-0.282-0.46-0.55-0.511c0.052,0.173,0.106,0.342,0.168,0.511
		c0.062,0.17,0.128,0.34,0.199,0.507c0.019,0.04,0.038,0.081,0.056,0.122c0.029-0.038,0.056-0.079,0.077-0.122
		c0.049-0.096,0.078-0.202,0.078-0.317C1.297,13.425,1.284,13.362,1.269,13.302z"/>
	<path fill="#E84849" d="M3.059,15.438c-0.095-0.282-0.359-0.488-0.674-0.488c-0.224,0-0.419,0.104-0.551,0.264
		c0.014,0.021,0.026,0.043,0.039,0.063c0.016-0.022,0.033-0.044,0.05-0.062c0.125-0.125,0.438-0.235,0.564-0.109
		c0.051,0.051-0.029,0.19-0.152,0.332c-0.062,0.073-0.137,0.146-0.209,0.206c0.073,0.103,0.147,0.203,0.224,0.301
		c0.101,0.129,0.203,0.255,0.31,0.378c0.171-0.071,0.308-0.208,0.381-0.378c0.036-0.086,0.058-0.181,0.058-0.281
		C3.098,15.585,3.082,15.51,3.059,15.438L3.059,15.438z"/>
	<path fill="#FFFFFF" d="M2.488,15.106c-0.126-0.126-0.439-0.016-0.564,0.109c-0.017,0.018-0.033,0.039-0.05,0.062
		c0.036,0.054,0.069,0.108,0.106,0.161c0.047,0.071,0.098,0.139,0.146,0.208c0.073-0.061,0.146-0.135,0.209-0.208
		C2.458,15.3,2.538,15.157,2.488,15.106L2.488,15.106z"/>
	<path fill="#E84849" d="M4.718,15.664c0-0.395,0.319-0.714,0.714-0.714s0.715,0.32,0.715,0.714c0,0.395-0.319,0.715-0.715,0.715
		S4.718,16.059,4.718,15.664z"/>
	<path fill="#FFFFFF" d="M4.862,15.78c-0.126-0.127-0.016-0.44,0.108-0.564c0.125-0.124,0.439-0.235,0.564-0.109
		C5.661,15.231,4.987,15.904,4.862,15.78z"/>
	<path fill="#E84849" d="M6.191,15.664c0-0.395,0.32-0.714,0.714-0.714s0.715,0.32,0.715,0.714c0,0.395-0.319,0.715-0.715,0.715
		S6.191,16.059,6.191,15.664z"/>
	<path fill="#FFFFFF" d="M6.336,15.78c-0.126-0.127-0.017-0.44,0.11-0.564c0.126-0.124,0.438-0.235,0.563-0.109
		C7.136,15.231,6.463,15.904,6.336,15.78L6.336,15.78z"/>
	<path fill="#E84849" d="M13.558,15.664c0,0.395-0.321,0.715-0.716,0.715s-0.715-0.32-0.715-0.715s0.32-0.714,0.715-0.714
		S13.558,15.27,13.558,15.664z"/>
	<path fill="#FFFFFF" d="M12.272,15.78c-0.126-0.127-0.018-0.44,0.109-0.564c0.125-0.124,0.438-0.235,0.564-0.109
		C13.071,15.231,12.398,15.904,12.272,15.78z"/>
	<path fill="#D5CEA9" d="M7.521,17.925c0-0.395,0.319-0.716,0.716-0.716c0.396,0,0.715,0.321,0.715,0.716s-0.32,0.714-0.715,0.714
		C7.841,18.639,7.521,18.32,7.521,17.925z"/>
	<path fill="#FFFFFF" d="M7.666,18.039c-0.125-0.125-0.017-0.438,0.109-0.564c0.126-0.125,0.438-0.234,0.564-0.108
		S7.791,18.165,7.666,18.039z"/>
	<path fill="#D5CEA9" d="M6.022,17.925c0-0.395,0.319-0.716,0.714-0.716c0.394,0,0.715,0.321,0.715,0.716s-0.321,0.714-0.715,0.714
		C6.341,18.639,6.022,18.32,6.022,17.925z"/>
	<path fill="#FFFFFF" d="M6.166,18.039c-0.125-0.125-0.017-0.438,0.11-0.564c0.127-0.125,0.438-0.234,0.563-0.108
		S6.292,18.165,6.166,18.039z"/>
	<path fill="#D5CEA9" d="M9.066,17.925c0-0.395,0.32-0.716,0.715-0.716s0.715,0.321,0.715,0.716s-0.32,0.714-0.715,0.714
		S9.066,18.32,9.066,17.925z"/>
	<path fill="#FFFFFF" d="M9.211,18.039c-0.126-0.125-0.018-0.438,0.109-0.564c0.127-0.125,0.438-0.234,0.564-0.108
		C10.01,17.492,9.337,18.165,9.211,18.039z"/>
	<path fill="#D5CEA9" d="M10.607,17.925c0-0.395,0.319-0.716,0.713-0.716c0.396,0,0.716,0.321,0.716,0.716s-0.32,0.714-0.716,0.714
		C10.926,18.639,10.607,18.32,10.607,17.925z"/>
	<path fill="#FFFFFF" d="M10.751,18.039c-0.125-0.125-0.016-0.438,0.11-0.564c0.126-0.125,0.439-0.234,0.563-0.108
		C11.55,17.492,10.877,18.165,10.751,18.039z"/>
	<path fill="#D5CEA9" d="M12.153,17.925c0-0.395,0.32-0.716,0.714-0.716s0.715,0.321,0.715,0.716s-0.32,0.714-0.715,0.714
		C12.472,18.639,12.153,18.32,12.153,17.925z"/>
	<path fill="#FFFFFF" d="M12.298,18.039c-0.126-0.125-0.017-0.438,0.108-0.564c0.126-0.125,0.438-0.234,0.564-0.108
		S12.423,18.165,12.298,18.039z"/>
</g>
</svg>
