<?xml version="1.0" encoding="utf-8"?>
<!-- Generator: Adobe Illustrator 16.0.0, SVG Export Plug-In . SVG Version: 6.00 Build 0)  -->
<!DOCTYPE svg PUBLIC "-//W3C//DTD SVG 1.1//EN" "http://www.w3.org/Graphics/SVG/1.1/DTD/svg11.dtd">
<svg version="1.1" id="Layer_1" xmlns="http://www.w3.org/2000/svg" xmlns:xlink="http://www.w3.org/1999/xlink" x="0px" y="0px"
	 width="20px" height="20px" viewBox="0 0 20 20" enable-background="new 0 0 20 20" xml:space="preserve">
<g>
	<path fill="#4ABC96" d="M19.69,10c0,5.351-4.338,9.69-9.69,9.69S0.31,15.353,0.31,10c0-5.352,4.338-9.69,9.69-9.69
		S19.69,4.647,19.69,10z"/>
	<path fill="#81725B" d="M10.072,4.191c-0.223,0-0.401,0.179-0.401,0.4v9.149c0,0.222,0.18,0.401,0.401,0.401
		c0.221,0,0.4-0.181,0.4-0.401V4.592C10.473,4.37,10.293,4.191,10.072,4.191z"/>
	<path fill="#81725B" d="M9.908,13.624c-0.123,0.122-0.123,0.32,0,0.442l2.606,2.606c0.123,0.123,0.32,0.123,0.442,0
		c0.122-0.122,0.122-0.32,0-0.442l-2.607-2.606c-0.123-0.122-0.32-0.122-0.443,0H9.908z"/>
	<path fill="#81725B" d="M10.265,13.624c0.122,0.122,0.122,0.32,0,0.442l-2.606,2.606c-0.123,0.123-0.32,0.123-0.443,0
		c-0.122-0.122-0.122-0.32,0-0.442l2.607-2.606C9.943,13.502,10.142,13.502,10.265,13.624L10.265,13.624z"/>
	<path fill="#383939" d="M15.706,11.765c0,0.83-0.673,0.25-1.503,0.25H6.067c-0.83,0-1.503,0.58-1.503-0.25V5.506
		c0-0.83,0.674-0.376,1.503-0.376h8.136c0.83,0,1.503-0.454,1.503,0.376V11.765z"/>
	<path fill="#81725B" d="M16.27,4.969c0,0.207-0.236,0.376-0.526,0.376H4.401c-0.29,0-0.525-0.169-0.525-0.376l0,0
		c0-0.207,0.235-0.376,0.525-0.376h11.342C16.033,4.593,16.27,4.761,16.27,4.969L16.27,4.969z"/>
	<path fill="#81725B" d="M16.27,11.925c0,0.208-0.236,0.376-0.526,0.376H4.401c-0.29,0-0.525-0.168-0.525-0.376l0,0
		c0-0.207,0.235-0.375,0.525-0.375h11.342C16.033,11.55,16.27,11.718,16.27,11.925L16.27,11.925z"/>
	<path fill="#D7D7D7" d="M7.868,9.215C7.771,9.291,7.675,9.349,7.583,9.388C7.49,9.426,7.387,9.445,7.272,9.445
		c-0.104,0-0.196-0.021-0.275-0.062c-0.078-0.041-0.14-0.098-0.183-0.169s-0.063-0.147-0.063-0.23c0-0.112,0.035-0.206,0.105-0.286
		c0.07-0.079,0.168-0.132,0.291-0.158c0.025-0.006,0.09-0.02,0.192-0.04c0.103-0.021,0.19-0.04,0.264-0.058s0.153-0.039,0.238-0.063
		C7.837,8.271,7.816,8.191,7.777,8.142C7.738,8.091,7.659,8.066,7.539,8.066c-0.104,0-0.182,0.015-0.234,0.043
		c-0.052,0.028-0.097,0.072-0.134,0.13C7.135,8.297,7.107,8.336,7.092,8.353c-0.016,0.02-0.049,0.028-0.1,0.028
		c-0.046,0-0.086-0.016-0.118-0.044C6.842,8.307,6.823,8.27,6.823,8.224c0-0.072,0.026-0.142,0.077-0.21
		c0.051-0.067,0.13-0.123,0.237-0.167C7.246,7.803,7.38,7.78,7.54,7.78c0.179,0,0.32,0.021,0.423,0.064s0.175,0.109,0.218,0.2
		c0.041,0.093,0.063,0.214,0.063,0.364c0,0.096,0,0.178-0.001,0.244C8.242,8.721,8.242,8.795,8.241,8.876
		c0,0.077,0.013,0.158,0.039,0.24c0.025,0.083,0.037,0.138,0.037,0.16c0,0.042-0.02,0.079-0.059,0.114
		C8.22,9.425,8.175,9.441,8.125,9.441c-0.042,0-0.083-0.02-0.125-0.058C7.958,9.345,7.916,9.287,7.87,9.213L7.868,9.215z
		 M7.842,8.624c-0.06,0.022-0.146,0.045-0.26,0.069C7.468,8.718,7.389,8.735,7.345,8.747C7.301,8.758,7.259,8.78,7.219,8.813
		C7.18,8.847,7.16,8.894,7.16,8.953c0,0.062,0.022,0.114,0.069,0.158c0.048,0.044,0.108,0.064,0.185,0.064
		c0.081,0,0.155-0.018,0.225-0.053c0.068-0.036,0.118-0.081,0.149-0.138c0.036-0.062,0.056-0.163,0.056-0.305V8.622L7.842,8.624z"/>
	<path fill="#D7D7D7" d="M9.798,7.413v0.623c0.076-0.08,0.155-0.141,0.234-0.184c0.079-0.042,0.178-0.063,0.296-0.063
		c0.137,0,0.255,0.032,0.356,0.096c0.104,0.064,0.183,0.157,0.238,0.28c0.057,0.122,0.085,0.267,0.085,0.435
		c0,0.123-0.016,0.236-0.047,0.34c-0.03,0.104-0.078,0.192-0.137,0.268c-0.06,0.075-0.132,0.135-0.218,0.177
		c-0.086,0.041-0.18,0.062-0.282,0.062c-0.062,0-0.121-0.008-0.177-0.022s-0.103-0.034-0.142-0.059
		c-0.039-0.023-0.072-0.049-0.1-0.075S9.843,9.224,9.798,9.173v0.041c0,0.076-0.018,0.135-0.056,0.174
		c-0.038,0.038-0.084,0.059-0.14,0.059c-0.059,0-0.104-0.021-0.139-0.059C9.43,9.349,9.412,9.29,9.412,9.214V7.433
		c0-0.083,0.018-0.145,0.051-0.187s0.079-0.064,0.14-0.064c0.062,0,0.11,0.021,0.144,0.062c0.034,0.04,0.052,0.098,0.052,0.172
		V7.413z M9.817,8.624c0,0.162,0.037,0.287,0.112,0.375s0.172,0.131,0.292,0.131c0.103,0,0.19-0.045,0.265-0.134
		c0.075-0.089,0.11-0.217,0.11-0.384c0-0.107-0.014-0.199-0.045-0.276c-0.03-0.078-0.074-0.139-0.133-0.181
		c-0.057-0.042-0.122-0.064-0.198-0.064c-0.077,0-0.146,0.021-0.207,0.064S9.904,8.259,9.87,8.34
		C9.835,8.42,9.817,8.516,9.817,8.624L9.817,8.624z"/>
	<path fill="#D7D7D7" d="M13.562,8.939c0,0.052-0.015,0.104-0.045,0.163c-0.028,0.059-0.075,0.113-0.139,0.165
		c-0.062,0.053-0.141,0.095-0.235,0.127c-0.096,0.033-0.2,0.048-0.319,0.048c-0.252,0-0.449-0.073-0.591-0.22
		c-0.141-0.146-0.213-0.344-0.213-0.59c0-0.167,0.033-0.315,0.099-0.444c0.064-0.129,0.157-0.229,0.28-0.298
		c0.122-0.07,0.269-0.106,0.439-0.106c0.106,0,0.202,0.017,0.291,0.047c0.088,0.03,0.163,0.071,0.224,0.119s0.108,0.101,0.141,0.156
		s0.048,0.106,0.048,0.154s-0.018,0.09-0.054,0.125c-0.037,0.033-0.081,0.051-0.132,0.051c-0.034,0-0.062-0.008-0.085-0.025
		c-0.023-0.019-0.047-0.047-0.076-0.085c-0.049-0.075-0.101-0.133-0.156-0.171c-0.053-0.037-0.123-0.057-0.206-0.057
		c-0.121,0-0.218,0.047-0.292,0.142c-0.072,0.095-0.111,0.223-0.111,0.386c0,0.076,0.011,0.148,0.028,0.212
		c0.02,0.063,0.048,0.119,0.082,0.164c0.036,0.045,0.08,0.08,0.13,0.104c0.05,0.024,0.107,0.035,0.168,0.035
		c0.082,0,0.152-0.019,0.21-0.057c0.059-0.038,0.109-0.096,0.155-0.174c0.025-0.046,0.053-0.082,0.08-0.108
		c0.029-0.025,0.064-0.038,0.105-0.038c0.051,0,0.092,0.019,0.125,0.057C13.547,8.857,13.562,8.897,13.562,8.939L13.562,8.939z"/>
</g>
</svg>
