<?xml version="1.0" encoding="utf-8"?>
<!-- Generated by IcoMoon.io -->
<!DOCTYPE svg PUBLIC "-//W3C//DTD SVG 1.1//EN" "http://www.w3.org/Graphics/SVG/1.1/DTD/svg11.dtd">
<svg version="1.1" xmlns="http://www.w3.org/2000/svg" xmlns:xlink="http://www.w3.org/1999/xlink" width="20" height="20" viewBox="0 0 20 20">
<path fill="rgb(52, 78, 93)" d="M19.251 10c0 5.109-4.142 9.252-9.252 9.252s-9.252-4.142-9.252-9.252c0-5.109 4.142-9.252 9.252-9.252s9.252 4.142 9.252 9.252z"></path>
<path fill="rgb(232, 72, 73)" d="M10.815 15.665c0 0.383-0.311 0.694-0.694 0.694h-5.143c-0.383 0-0.694-0.311-0.694-0.694l2.473-4.782c0-0.383 0.31-0.693 0.694-0.693h0.197c0.383 0 0.694 0.31 0.694 0.693l2.473 4.782z"></path>
<path fill="rgb(219, 63, 62)" d="M10.469 15.525c0 0.36-0.278 0.653-0.62 0.653h-4.6c-0.342 0-0.62-0.293-0.62-0.653l0.712-1.451c0 0-0.040-0.354 1.454-0.13s2.775-0.248 2.775-0.248l0.898 1.829z"></path>
<path fill="rgb(232, 72, 73)" d="M8.196 10.899c0 0.196-0.096 0.356-0.214 0.356h-0.885c-0.119 0-0.215-0.159-0.215-0.356v-3.317c0-0.196 0.096-0.356 0.215-0.356h0.885c0.118 0 0.214 0.159 0.214 0.356v3.317z"></path>
<path fill="rgb(232, 72, 73)" d="M7.539 6.557c-0.747 0-1.044 0.088-1.044 0.387 0 0.009 0.002 0.017 0.003 0.026 0.034 0.287 0.315 0.825 1.041 0.825s1.006-0.538 1.040-0.825c0.001-0.009 0.003-0.017 0.003-0.026 0-0.299-0.296-0.387-1.043-0.387z"></path>
<path fill="rgb(220, 58, 58)" d="M7.539 7.072c0.56 0 0.782-0.066 0.782-0.29 0-0.068-0.21-0.154-0.744-0.154s-0.821 0.048-0.821 0.154c0 0.224 0.223 0.29 0.783 0.29z"></path>
<path fill="rgb(203, 233, 230)" d="M8.408 5.334c0 0.446-0.362 0.808-0.808 0.808s-0.808-0.362-0.808-0.808c0-0.446 0.362-0.808 0.808-0.808s0.808 0.362 0.808 0.808z"></path>
<path fill="rgb(223, 241, 239)" d="M6.966 5.433c-0.129-0.151 0.056-0.526 0.207-0.654s0.5-0.235 0.629-0.083c0.129 0.151-0.707 0.889-0.835 0.738z"></path>
<path fill="rgb(203, 233, 230)" d="M7.601 3.555c0 0.319-0.258 0.577-0.577 0.577s-0.577-0.258-0.577-0.577c0-0.319 0.258-0.577 0.577-0.577s0.577 0.258 0.577 0.577z"></path>
<path fill="rgb(223, 241, 239)" d="M6.571 3.627c-0.092-0.108 0.040-0.376 0.148-0.468s0.358-0.168 0.449-0.059c0.092 0.107-0.505 0.635-0.597 0.527z"></path>
<path fill="rgb(203, 233, 230)" d="M9.347 3.981c0 0.344-0.279 0.624-0.624 0.624s-0.624-0.279-0.624-0.624c0-0.344 0.279-0.624 0.624-0.624s0.624 0.279 0.624 0.624z"></path>
<path fill="rgb(223, 241, 239)" d="M8.235 4.057c-0.1-0.117 0.043-0.406 0.16-0.505s0.386-0.181 0.485-0.064c0.099 0.116-0.545 0.686-0.644 0.569z"></path>
<path fill="rgb(232, 72, 73)" d="M8.367 10.634c0 0.235-0.072 0.425-0.163 0.425h-1.335c-0.090 0-0.163-0.19-0.163-0.425v0c0-0.234 0.073-0.425 0.163-0.425h1.335c0.090 0 0.163 0.19 0.163 0.425v0z"></path>
<path fill="rgb(255, 255, 255)" d="M7.073 8.064c-0.045 0-0.082-0.032-0.084-0.074-0.002-0.043 0.034-0.079 0.080-0.081 0.062-0.003 0.605-0.026 0.647-0.026 0.046 0 0.084 0.034 0.084 0.077s-0.038 0.077-0.084 0.077c-0.029 0-0.399 0.015-0.639 0.025-0.002 0.001-0.003 0.001-0.004 0.001z"></path>
<path fill="rgb(255, 255, 255)" d="M7.073 8.528c-0.045 0-0.082-0.032-0.084-0.073-0.002-0.043 0.034-0.079 0.080-0.081 0.062-0.003 0.605-0.026 0.647-0.026 0.046 0 0.084 0.034 0.084 0.077s-0.038 0.077-0.084 0.077c-0.029 0-0.399 0.015-0.639 0.026-0.002 0-0.003 0-0.004 0z"></path>
<path fill="rgb(255, 255, 255)" d="M7.073 8.991c-0.045 0-0.082-0.032-0.084-0.074-0.002-0.043 0.034-0.079 0.080-0.081 0.062-0.003 0.605-0.026 0.647-0.026 0.046 0 0.084 0.034 0.084 0.077s-0.038 0.077-0.084 0.077c-0.029 0-0.399 0.015-0.639 0.026-0.002 0-0.003 0-0.004 0z"></path>
<path fill="rgb(255, 255, 255)" d="M7.073 9.455c-0.045 0-0.082-0.032-0.084-0.074-0.002-0.043 0.034-0.079 0.080-0.081 0.062-0.003 0.605-0.026 0.647-0.026 0.046 0 0.084 0.034 0.084 0.077s-0.038 0.077-0.084 0.077c-0.029 0-0.399 0.015-0.639 0.026-0.002 0-0.003 0-0.004 0z"></path>
<path fill="rgb(255, 255, 255)" d="M7.073 9.919c-0.045 0-0.082-0.033-0.084-0.074-0.002-0.043 0.034-0.079 0.080-0.081 0.062-0.003 0.605-0.026 0.647-0.026 0.046 0 0.084 0.034 0.084 0.077s-0.038 0.078-0.084 0.078c-0.029 0-0.399 0.015-0.639 0.025-0.002 0-0.003 0-0.004 0z"></path>
<path fill="rgb(3, 154, 136)" d="M15.634 9.258c0.732-0.858 0.972-1.616 0.657-2.092-0.295-0.447-1.046-0.538-2.030-0.261l-0.001-0.003-0.003 0.001c-0.315-0.987-0.797-1.55-1.337-1.55-0.579 0-1.082 0.631-1.393 1.737-0.339-0.072-0.654-0.11-0.936-0.11-0.633 0-1.065 0.185-1.249 0.535-0.266 0.506 0.049 1.235 0.861 2.014l-0.002 0.002 0.002 0.002c-0.73 0.857-0.97 1.614-0.655 2.091 0.183 0.276 0.534 0.422 1.016 0.422 0 0 0 0 0 0 0.298 0 0.641-0.057 1.017-0.163 0.315 0.99 0.798 1.555 1.339 1.555 0.579 0 1.082-0.632 1.393-1.738 0.339 0.072 0.654 0.11 0.935 0.11v0c0.633 0 1.065-0.185 1.249-0.535 0.266-0.506-0.049-1.236-0.863-2.017zM14.079 11.315c-0.229-0.060-0.463-0.134-0.703-0.222 0.16-0.093 0.318-0.189 0.472-0.291 0.124-0.082 0.246-0.168 0.366-0.255-0.033 0.268-0.079 0.524-0.136 0.768zM11.799 11.478c-0.071-0.274-0.128-0.566-0.168-0.877 0.165 0.1 0.333 0.196 0.504 0.286 0.163 0.086 0.33 0.166 0.499 0.242-0.285 0.14-0.564 0.255-0.835 0.348zM10.965 9.763c-0.030-0.023-0.058-0.046-0.087-0.069-0.062-0.049-0.122-0.099-0.181-0.148-0.014-0.012-0.028-0.024-0.042-0.036 0.015-0.015 0.028-0.030 0.043-0.045 0.057-0.059 0.116-0.119 0.177-0.178 0.029-0.028 0.058-0.057 0.088-0.085 0.081-0.076 0.165-0.152 0.252-0.227 0.009-0.008 0.019-0.017 0.028-0.025-0 0.005-0 0.011-0 0.016-0.006 0.143-0.010 0.286-0.010 0.429 0 0.176 0.006 0.352 0.015 0.528 0.001 0.017 0.001 0.034 0.001 0.052-0.002-0.001-0.004-0.003-0.006-0.004-0.096-0.068-0.189-0.137-0.279-0.207zM12.462 7.697c-0.16 0.093-0.318 0.189-0.472 0.291-0.124 0.082-0.246 0.167-0.366 0.255 0.033-0.268 0.080-0.524 0.136-0.768 0.229 0.060 0.463 0.134 0.703 0.222zM13.22 7.652c0.128-0.063 0.256-0.12 0.381-0.174 0.034-0.014 0.068-0.027 0.101-0.041 0.093-0.038 0.186-0.073 0.277-0.106 0.020-0.007 0.040-0.014 0.060-0.020 0.005 0.020 0.010 0.040 0.015 0.060 0.023 0.093 0.044 0.189 0.064 0.286 0.007 0.035 0.015 0.069 0.022 0.105 0.025 0.133 0.046 0.269 0.065 0.408 0.001 0.005 0.001 0.010 0.002 0.015-0.014-0.009-0.029-0.016-0.044-0.025-0.151-0.090-0.304-0.177-0.46-0.259-0.15-0.079-0.302-0.152-0.456-0.224-0.013-0.006-0.027-0.013-0.040-0.020 0.005-0.002 0.009-0.005 0.014-0.007zM14.285 9.395c0 0.24-0.009 0.482-0.027 0.72-0.188 0.145-0.385 0.286-0.586 0.42-0.219 0.145-0.447 0.282-0.676 0.408-0.241-0.102-0.481-0.216-0.713-0.338-0.237-0.124-0.471-0.26-0.695-0.403-0.007-0.080-0.012-0.16-0.017-0.24-0.003-0.047-0.007-0.094-0.009-0.142-0.006-0.141-0.010-0.283-0.010-0.424 0-0.127 0.003-0.254 0.008-0.38 0.002-0.042 0.005-0.083 0.007-0.125 0.004-0.072 0.008-0.144 0.013-0.216 0.189-0.146 0.385-0.287 0.585-0.419 0.219-0.145 0.445-0.281 0.674-0.407 0.077 0.032 0.153 0.066 0.229 0.101 0.037 0.017 0.075 0.033 0.112 0.050 0.126 0.059 0.251 0.121 0.374 0.185 0.126 0.066 0.25 0.136 0.373 0.207 0.038 0.022 0.075 0.046 0.113 0.069 0.071 0.043 0.142 0.086 0.212 0.131 0.022 0.264 0.034 0.534 0.034 0.803zM14.587 8.814c0.215 0.151 0.413 0.308 0.596 0.467-0.178 0.189-0.374 0.376-0.588 0.56 0.007-0.149 0.011-0.298 0.011-0.446 0-0.194-0.008-0.388-0.019-0.58zM16.024 7.343c0.223 0.338-0.016 0.982-0.625 1.7-0.252-0.219-0.535-0.433-0.843-0.636v-0l-0-0c-0.009-0.088-0.020-0.175-0.031-0.261-0.002-0.015-0.003-0.031-0.006-0.046-0.016-0.115-0.034-0.227-0.053-0.337-0.006-0.033-0.013-0.065-0.019-0.098-0.015-0.077-0.030-0.152-0.047-0.227-0.009-0.039-0.018-0.077-0.027-0.115-0.009-0.036-0.017-0.073-0.026-0.109 0.345-0.097 0.663-0.148 0.928-0.148 0.258-0 0.597 0.048 0.749 0.278zM12.919 5.673c0.381 0 0.77 0.505 1.033 1.327-0.037 0.013-0.074 0.027-0.111 0.041-0.035 0.013-0.071 0.026-0.107 0.039-0.074 0.028-0.149 0.059-0.225 0.090-0.029 0.012-0.058 0.023-0.087 0.036-0.105 0.045-0.211 0.094-0.318 0.145-0.009 0.005-0.019 0.010-0.028 0.014-0.084 0.041-0.168 0.083-0.253 0.127l-0-0-0 0c-0.336-0.136-0.667-0.247-0.986-0.331 0.263-0.923 0.672-1.489 1.082-1.489zM9.624 7.664c0.123-0.235 0.466-0.364 0.966-0.364 0.256 0 0.543 0.033 0.856 0.099-0.080 0.348-0.138 0.72-0.174 1.11l-0 0v0c-0.067 0.054-0.132 0.108-0.197 0.163-0.011 0.009-0.023 0.019-0.034 0.028-0.083 0.071-0.164 0.143-0.242 0.216-0.025 0.023-0.048 0.046-0.073 0.069-0.054 0.051-0.108 0.103-0.16 0.154-0.026 0.026-0.051 0.052-0.076 0.078s-0.051 0.050-0.074 0.076c-0.678-0.654-0.98-1.27-0.792-1.629zM10.563 11.725c-0.258 0-0.597-0.048-0.749-0.278-0.223-0.338 0.016-0.982 0.625-1.7 0.023 0.020 0.048 0.040 0.071 0.060s0.048 0.041 0.073 0.061c0.054 0.045 0.111 0.090 0.168 0.134 0.021 0.017 0.043 0.034 0.064 0.051 0.080 0.061 0.161 0.121 0.246 0.18 0.009 0.007 0.019 0.013 0.028 0.019 0.063 0.044 0.126 0.088 0.192 0.131v0.001h0c0.043 0.426 0.113 0.827 0.209 1.193-0.345 0.097-0.664 0.148-0.928 0.148v0zM12.919 13.117c-0.381 0-0.771-0.505-1.033-1.328 0.365-0.125 0.743-0.29 1.128-0.493h0.001c0.336 0.136 0.667 0.247 0.986 0.331-0.263 0.923-0.671 1.489-1.082 1.489zM16.214 11.126c-0.123 0.234-0.466 0.364-0.966 0.364-0.256 0-0.543-0.033-0.856-0.098 0.080-0.348 0.138-0.72 0.174-1.11l0-0v-0.001c0.318-0.254 0.605-0.517 0.855-0.783 0.678 0.654 0.981 1.27 0.792 1.629z"></path>
<path fill="rgb(0, 179, 154)" d="M14.142 6.096c0 0.257-0.208 0.465-0.465 0.465s-0.465-0.208-0.465-0.465c0-0.257 0.208-0.465 0.465-0.465s0.465 0.208 0.465 0.465z"></path>
<path fill="rgb(0, 179, 154)" d="M10.9 11.818c0 0.256-0.208 0.464-0.464 0.464s-0.464-0.208-0.464-0.464c0-0.256 0.208-0.464 0.464-0.464s0.464 0.208 0.464 0.464z"></path>
<path fill="rgb(0, 179, 154)" d="M14.942 10.177c0 0.257-0.208 0.465-0.465 0.465s-0.465-0.208-0.465-0.465c0-0.257 0.208-0.465 0.465-0.465s0.465 0.208 0.465 0.465z"></path>
</svg>
