<?xml version="1.0" encoding="utf-8"?>
<!-- Generator: Adobe Illustrator 16.0.0, SVG Export Plug-In . SVG Version: 6.00 Build 0)  -->
<!DOCTYPE svg PUBLIC "-//W3C//DTD SVG 1.1//EN" "http://www.w3.org/Graphics/SVG/1.1/DTD/svg11.dtd">
<svg version="1.1" id="Layer_1" xmlns="http://www.w3.org/2000/svg" xmlns:xlink="http://www.w3.org/1999/xlink" x="0px" y="0px"
	 width="20px" height="20px" viewBox="0 0 20 20" enable-background="new 0 0 20 20" xml:space="preserve">
<g>
	<path fill="#357180" d="M19.69,10c0,5.351-4.338,9.69-9.69,9.69S0.31,15.353,0.31,10c0-5.352,4.338-9.69,9.69-9.69
		S19.69,4.647,19.69,10z"/>
	<path fill="#036A7B" d="M6.032,13.831c0,0.722-0.585,1.307-1.307,1.307l0,0c-0.721,0-0.719-0.585-0.719-1.307v-0.027
		c0-0.721-0.002-1.307,0.719-1.307l0,0c0.722,0,1.307,0.586,1.307,1.307V13.831z"/>
	<path fill="#CDCDCE" d="M4.99,12.85h10.269v1.894H4.99V12.85z"/>
	<path fill="#D7D7D7" d="M4.99,12.833h10.269v0.256H4.99V12.833z"/>
	<path fill="#D7D7D7" d="M4.99,13.394h10.269v0.256H4.99V13.394z"/>
	<path fill="#D7D7D7" d="M4.99,13.934h10.269v0.257H4.99V13.934z"/>
	<path fill="#D7D7D7" d="M4.99,14.476h10.269v0.258H4.99V14.476z"/>
	<path fill="#028CA3" d="M15.802,12.703c0,0.11-0.066,0.202-0.146,0.202H4.83c-0.081,0-0.147-0.09-0.147-0.202l0,0
		c0-0.112,0.066-0.203,0.147-0.203h10.825C15.735,12.5,15.802,12.591,15.802,12.703L15.802,12.703z"/>
	<path fill="#028CA3" d="M15.802,14.935c0,0.111-0.066,0.202-0.146,0.202H4.83c-0.081,0-0.147-0.091-0.147-0.202l0,0
		c0-0.111,0.066-0.201,0.147-0.201h10.825C15.735,14.733,15.802,14.823,15.802,14.935L15.802,14.935z"/>
	<path fill="#028CA3" d="M4.683,12.688h0.441v2.259H4.683V12.688z"/>
	<path fill="#1D8D45" d="M13.521,11.29c0,0.667,0.54,1.206,1.207,1.206l0,0c0.667,0,0.665-0.539,0.665-1.206v-0.025
		c0-0.666,0.002-1.207-0.665-1.207l0,0c-0.666,0-1.207,0.539-1.207,1.207V11.29z"/>
	<path fill="#CDCDCE" d="M5.126,10.382h9.357v1.75H5.126V10.382z"/>
	<path fill="#D7D7D7" d="M5.126,10.366h9.357v0.237H5.126V10.366z"/>
	<path fill="#D7D7D7" d="M5.126,10.886h9.357v0.234H5.126V10.886z"/>
	<path fill="#D7D7D7" d="M5.126,11.382h9.357v0.237H5.126V11.382z"/>
	<path fill="#D7D7D7" d="M5.126,11.885h9.357v0.237H5.126V11.885z"/>
	<path fill="#21AC4B" d="M4.625,10.247c0,0.103,0.06,0.187,0.135,0.187h9.872c0.074,0,0.136-0.084,0.136-0.187l0,0
		c0-0.103-0.062-0.187-0.136-0.187H4.76C4.685,10.061,4.625,10.145,4.625,10.247L4.625,10.247z"/>
	<path fill="#21AC4B" d="M4.625,12.309c0,0.102,0.06,0.186,0.135,0.186h9.872c0.074,0,0.136-0.084,0.136-0.186l0,0
		c0-0.103-0.062-0.187-0.136-0.187H4.76C4.685,12.122,4.625,12.206,4.625,12.309L4.625,12.309z"/>
	<path fill="#21AC4B" d="M14.362,10.232h0.405v2.088h-0.405V10.232z"/>
	<path fill="#8C402B" d="M13.007,9.043c0,0.562,0.454,1.017,1.016,1.017l0,0c0.562,0,0.56-0.454,0.56-1.017V9.021
		c0-0.561,0.002-1.017-0.56-1.017l0,0c-0.562,0-1.016,0.456-1.016,1.017V9.043z"/>
	<path fill="#CDCDCE" d="M5.777,8.278h8.04v1.474h-8.04V8.278z"/>
	<path fill="#D7D7D7" d="M5.777,8.266h8.04v0.2h-8.04V8.266z"/>
	<path fill="#D7D7D7" d="M5.777,8.702h8.04v0.199h-8.04V8.702z"/>
	<path fill="#D7D7D7" d="M5.777,9.123h8.04v0.198h-8.04V9.123z"/>
	<path fill="#D7D7D7" d="M5.777,9.544h8.04v0.199h-8.04V9.544z"/>
	<path fill="#BB5538" d="M5.355,8.165c0,0.087,0.051,0.156,0.113,0.156h8.473c0.063,0,0.115-0.069,0.115-0.156l0,0
		c0-0.087-0.052-0.157-0.115-0.157H5.469C5.406,8.008,5.355,8.078,5.355,8.165L5.355,8.165z"/>
	<path fill="#BB5538" d="M5.355,9.9c0,0.087,0.051,0.157,0.113,0.157h8.473c0.063,0,0.115-0.07,0.115-0.157l0,0
		c0-0.087-0.052-0.157-0.115-0.157H5.469C5.406,9.743,5.355,9.813,5.355,9.9L5.355,9.9z"/>
	<path fill="#BB5538" d="M13.714,8.153h0.343v1.758h-0.343V8.153z"/>
	<path fill="#036A7B" d="M6.388,6.984C6.388,7.545,5.935,8,5.372,8l0,0c-0.562,0-0.56-0.454-0.56-1.016V6.962
		c0-0.561-0.002-1.017,0.56-1.017l0,0c0.562,0,1.016,0.456,1.016,1.017V6.984z"/>
	<path fill="#CDCDCE" d="M5.578,6.221h9.039v1.473H5.578V6.221z"/>
	<path fill="#D7D7D7" d="M5.578,6.207h9.039v0.199H5.578V6.207z"/>
	<path fill="#D7D7D7" d="M5.578,6.644h9.039v0.199H5.578V6.644z"/>
	<path fill="#D7D7D7" d="M5.578,7.063h9.039v0.198H5.578V7.063z"/>
	<path fill="#D7D7D7" d="M5.578,7.485h9.039v0.199H5.578V7.485z"/>
	<path fill="#028CA3" d="M15.04,6.107c0,0.087-0.052,0.156-0.114,0.156H5.453c-0.063,0-0.115-0.069-0.115-0.156l0,0
		c0-0.087,0.052-0.158,0.115-0.158h9.473C14.988,5.949,15.04,6.021,15.04,6.107L15.04,6.107z"/>
	<path fill="#028CA3" d="M15.04,7.842c0,0.087-0.052,0.157-0.114,0.157H5.453c-0.063,0-0.115-0.07-0.115-0.157l0,0
		c0-0.086,0.052-0.156,0.115-0.156h9.473C14.988,7.686,15.04,7.756,15.04,7.842L15.04,7.842z"/>
	<path fill="#028CA3" d="M5.338,6.096h0.343v1.757H5.338V6.096z"/>
	<path fill="#8C402B" d="M7.377,5.161c0,0.434-0.351,0.783-0.783,0.783l0,0c-0.433,0-0.432-0.351-0.432-0.783V5.145
		c0-0.432-0.001-0.784,0.432-0.784l0,0c0.434,0,0.783,0.352,0.783,0.784V5.161z"/>
	<path fill="#CDCDCE" d="M6.752,4.573h6.327v1.136H6.752V4.573z"/>
	<path fill="#D7D7D7" d="M6.752,4.562h6.327v0.154H6.752V4.562z"/>
	<path fill="#D7D7D7" d="M6.752,4.899h6.327v0.153H6.752V4.899z"/>
	<path fill="#D7D7D7" d="M6.752,5.224h6.327v0.152H6.752V5.224z"/>
	<path fill="#D7D7D7" d="M6.752,5.549h6.327v0.154H6.752V5.549z"/>
	<path fill="#BB5538" d="M13.405,4.485c0,0.066-0.04,0.121-0.088,0.121H6.654c-0.049,0-0.088-0.055-0.088-0.121l0,0
		c0-0.067,0.039-0.121,0.088-0.121h6.663C13.365,4.364,13.405,4.418,13.405,4.485L13.405,4.485z"/>
	<path fill="#BB5538" d="M13.405,5.823c0,0.067-0.04,0.12-0.088,0.12H6.654c-0.049,0-0.088-0.054-0.088-0.12l0,0
		c0-0.067,0.039-0.121,0.088-0.121h6.663C13.365,5.702,13.405,5.756,13.405,5.823L13.405,5.823z"/>
	<path fill="#BB5538" d="M6.566,4.476H6.83v1.355H6.566V4.476z"/>
</g>
</svg>
