<?xml version="1.0" encoding="utf-8"?>
<!-- Generator: Adobe Illustrator 16.0.0, SVG Export Plug-In . SVG Version: 6.00 Build 0)  -->
<!DOCTYPE svg PUBLIC "-//W3C//DTD SVG 1.1//EN" "http://www.w3.org/Graphics/SVG/1.1/DTD/svg11.dtd">
<svg version="1.1" id="Layer_1" xmlns="http://www.w3.org/2000/svg" xmlns:xlink="http://www.w3.org/1999/xlink" x="0px" y="0px"
	 width="20px" height="20px" viewBox="0 0 20 20" enable-background="new 0 0 20 20" xml:space="preserve">
<g>
	<path fill="#344E5D" d="M19.69,10c0,5.351-4.338,9.69-9.69,9.69S0.31,15.353,0.31,10c0-5.352,4.338-9.69,9.69-9.69
		S19.69,4.647,19.69,10z"/>
	<path fill="#DCDCC6" d="M16.329,14.182c0,0.193-0.156,0.349-0.349,0.349h-5.196c-0.193,0-0.349-0.155-0.349-0.349v-2.865
		c0-0.192,0.155-0.349,0.349-0.349h5.196c0.192,0,0.349,0.156,0.349,0.349V14.182z"/>
	<path fill="#B6B6B7" d="M14.653,12.599c0.088,0,0.166-0.025,0.229-0.078c0.063-0.053,0.097-0.126,0.097-0.225
		c0-0.073-0.024-0.137-0.076-0.191c-0.052-0.053-0.12-0.08-0.208-0.08c-0.058,0-0.106,0.008-0.146,0.025s-0.067,0.038-0.091,0.064
		c-0.021,0.027-0.043,0.062-0.062,0.105c-0.021,0.043-0.038,0.082-0.055,0.119c-0.009,0.021-0.027,0.037-0.052,0.049
		c-0.025,0.013-0.055,0.018-0.088,0.018c-0.038,0-0.073-0.016-0.106-0.047c-0.032-0.031-0.048-0.072-0.048-0.126
		c0-0.05,0.016-0.102,0.045-0.157c0.03-0.056,0.075-0.108,0.133-0.158c0.059-0.051,0.131-0.091,0.218-0.121
		c0.087-0.029,0.185-0.046,0.291-0.046c0.094,0,0.18,0.013,0.257,0.039s0.144,0.063,0.201,0.11c0.057,0.049,0.1,0.105,0.129,0.168
		c0.028,0.063,0.044,0.133,0.044,0.205c0,0.097-0.021,0.179-0.062,0.248c-0.043,0.07-0.104,0.137-0.181,0.203
		c0.075,0.041,0.138,0.086,0.19,0.139c0.053,0.052,0.091,0.109,0.116,0.172c0.025,0.063,0.039,0.133,0.039,0.206
		c0,0.088-0.019,0.172-0.054,0.254c-0.036,0.082-0.087,0.155-0.156,0.22c-0.067,0.064-0.149,0.114-0.244,0.15
		c-0.094,0.037-0.198,0.055-0.312,0.055c-0.116,0-0.22-0.021-0.312-0.061c-0.09-0.041-0.167-0.095-0.225-0.157
		c-0.061-0.062-0.105-0.126-0.136-0.192c-0.03-0.067-0.045-0.123-0.045-0.166c0-0.056,0.018-0.103,0.054-0.135
		c0.037-0.034,0.082-0.052,0.135-0.052c0.028,0,0.054,0.009,0.08,0.024c0.024,0.015,0.041,0.033,0.049,0.057
		c0.05,0.134,0.104,0.234,0.161,0.299s0.138,0.097,0.242,0.097c0.06,0,0.118-0.014,0.173-0.043c0.056-0.03,0.102-0.073,0.138-0.131
		c0.035-0.058,0.054-0.124,0.054-0.202c0-0.112-0.029-0.2-0.092-0.266c-0.062-0.064-0.147-0.096-0.258-0.096
		c-0.019,0-0.049,0.002-0.09,0.006c-0.041,0.002-0.066,0.006-0.079,0.006c-0.053,0-0.094-0.015-0.122-0.04
		c-0.028-0.026-0.043-0.064-0.043-0.111c0-0.046,0.018-0.084,0.052-0.112c0.034-0.027,0.085-0.043,0.154-0.043h0.06L14.653,12.599z"
		/>
	<path fill="#DCDCC6" d="M8.033,14.182c0,0.193-0.156,0.349-0.349,0.349H4.51c-0.192,0-0.348-0.155-0.348-0.349v-4.045
		c0-0.192,0.155-0.349,0.348-0.349h3.175c0.192,0,0.349,0.156,0.349,0.349V14.182z"/>
	<path fill="#B6B6B7" d="M5.867,12.778h0.756c0.075,0,0.133,0.017,0.172,0.047c0.038,0.031,0.06,0.074,0.06,0.125
		c0,0.048-0.016,0.088-0.047,0.121c-0.032,0.033-0.079,0.049-0.143,0.049H5.599c-0.071,0-0.129-0.02-0.169-0.06
		c-0.041-0.04-0.061-0.087-0.061-0.141c0-0.035,0.013-0.081,0.038-0.139s0.055-0.103,0.086-0.136
		c0.128-0.133,0.244-0.246,0.348-0.342s0.177-0.157,0.223-0.188c0.079-0.056,0.145-0.111,0.197-0.168
		c0.052-0.057,0.092-0.114,0.12-0.174c0.027-0.059,0.041-0.117,0.041-0.176c0-0.062-0.015-0.116-0.044-0.164
		c-0.029-0.049-0.07-0.087-0.121-0.115c-0.051-0.027-0.104-0.039-0.165-0.039c-0.126,0-0.226,0.055-0.298,0.165
		c-0.01,0.015-0.026,0.056-0.048,0.119c-0.022,0.062-0.049,0.114-0.077,0.148c-0.028,0.035-0.07,0.054-0.124,0.054
		c-0.048,0-0.088-0.017-0.121-0.049c-0.032-0.033-0.047-0.076-0.047-0.131c0-0.066,0.015-0.137,0.045-0.209
		c0.031-0.071,0.075-0.137,0.134-0.196c0.061-0.059,0.134-0.106,0.227-0.142c0.092-0.036,0.198-0.055,0.32-0.055
		c0.147,0,0.273,0.022,0.378,0.068c0.067,0.032,0.126,0.074,0.178,0.128c0.052,0.056,0.091,0.116,0.119,0.188
		c0.029,0.07,0.043,0.143,0.043,0.221c0,0.118-0.029,0.227-0.089,0.326c-0.06,0.098-0.119,0.175-0.182,0.229
		c-0.062,0.056-0.166,0.144-0.311,0.261c-0.146,0.119-0.246,0.212-0.299,0.277c-0.024,0.025-0.047,0.058-0.071,0.094H5.867z"/>
	<path fill="#DCDCC6" d="M12.87,14.53H7.785V7.338c0-0.192,0.157-0.349,0.349-0.349h4.387c0.192,0,0.349,0.156,0.349,0.349
		L12.87,14.53L12.87,14.53z"/>
	<path fill="#D1962A" d="M12.319,3.376c0-0.13-0.078-0.236-0.175-0.236l-0.81,0.177c-0.096,0-0.326,0.105-0.326,0.235v0.862
		c0,0.13,0.186,0.235,0.326,0.235s0.297-0.079,0.59-0.382C12.382,3.797,12.318,3.377,12.319,3.376L12.319,3.376z M11.754,4.158
		c-0.183,0.189-0.278,0.238-0.367,0.238c-0.088,0-0.202,0.001-0.202-0.08v-0.67c0-0.08,0.143-0.078,0.202-0.078l0.49-0.175
		c0.06,0,0.108,0.065,0.108,0.146C11.985,3.54,12.039,3.868,11.754,4.158L11.754,4.158z"/>
	<path fill="#D1962A" d="M8.652,4.267c0.295,0.303,0.45,0.382,0.591,0.382s0.325-0.105,0.325-0.235V3.551
		c0-0.13-0.229-0.235-0.325-0.235L8.433,3.139c-0.096,0-0.174,0.106-0.174,0.235C8.259,3.374,8.195,3.794,8.652,4.267L8.652,4.267z
		 M8.594,3.539c0-0.081,0.049-0.146,0.108-0.146l0.49,0.175c0.061,0,0.202-0.002,0.202,0.078v0.67c0,0.081-0.115,0.08-0.202,0.08
		s-0.184-0.05-0.367-0.238C8.54,3.864,8.594,3.538,8.594,3.539L8.594,3.539z"/>
	<path fill="#E3AA24" d="M11.395,3.492c0-0.188-0.153-0.342-0.342-0.342H9.52c-0.188,0-0.342,0.153-0.342,0.342v1.003
		c0,0.007,0.001,0.015,0.001,0.022C9.178,4.533,9.178,4.549,9.178,4.566c0,0.634,0.496,1.149,1.107,1.149
		c0.612,0,1.108-0.516,1.108-1.149c0-0.017,0-0.033-0.001-0.049c0.001-0.008,0.001-0.016,0.001-0.022L11.395,3.492L11.395,3.492z"/>
	<path fill="#E3AA24" d="M10.613,6.574c0,0.178-0.144,0.32-0.319,0.32l0,0c-0.177,0-0.319-0.144-0.319-0.32L9.771,5.557
		c0-0.177,0.347-0.318,0.523-0.318l0,0c0.176,0,0.523,0.143,0.523,0.318L10.613,6.574L10.613,6.574z"/>
	<path fill="#E3AA24" d="M11.054,6.78c0-0.278-0.342-0.44-0.767-0.44c-0.422,0-0.766,0.162-0.766,0.44c0,0.005,0,0.01,0,0.016h1.533
		C11.055,6.79,11.055,6.785,11.054,6.78L11.054,6.78z"/>
	<path fill="#C48F2C" d="M9.756,6.984h1.062c0.131,0,0.235-0.069,0.235-0.171c0,0,0-0.01,0-0.019H9.52c0,0.009,0,0.019,0,0.019
		C9.52,6.904,9.625,6.984,9.756,6.984L9.756,6.984z"/>
	<path fill="#E3AA24" d="M10.926,5.735c0,0.157-0.282,0.283-0.632,0.283S9.661,5.893,9.661,5.735s0.283-0.284,0.633-0.284
		S10.926,5.578,10.926,5.735z"/>
	<path fill="#CBCBC5" d="M10.827,4.153c0,0.028-0.023,0.051-0.051,0.051H9.792c-0.028,0-0.051-0.022-0.051-0.051V3.686
		c0-0.028,0.022-0.052,0.051-0.052h0.984c0.027,0,0.051,0.023,0.051,0.052V4.153z"/>
	<path fill="#DCDCC6" d="M10.779,4.113c0,0.026-0.021,0.047-0.047,0.047H9.835c-0.025,0-0.047-0.021-0.047-0.047V3.734
		c0-0.024,0.021-0.046,0.047-0.046h0.897c0.026,0,0.047,0.021,0.047,0.046V4.113z"/>
	<path fill="#CBCBC5" d="M10.647,3.8c0,0.021-0.018,0.041-0.041,0.041H9.941C9.919,3.841,9.9,3.822,9.9,3.8l0,0
		c0-0.022,0.018-0.041,0.041-0.041h0.665C10.628,3.759,10.647,3.777,10.647,3.8L10.647,3.8z"/>
	<path fill="#CBCBC5" d="M10.647,4.053c0,0.022-0.018,0.041-0.041,0.041H9.941C9.919,4.094,9.9,4.076,9.9,4.053l0,0
		c0-0.021,0.018-0.041,0.041-0.041h0.665C10.628,4.012,10.647,4.031,10.647,4.053L10.647,4.053z"/>
	<path fill="#CBCBC5" d="M10.647,3.924c0,0.022-0.018,0.041-0.041,0.041H9.941C9.919,3.965,9.9,3.947,9.9,3.924l0,0
		c0-0.021,0.018-0.04,0.041-0.04h0.665C10.628,3.884,10.647,3.901,10.647,3.924L10.647,3.924z"/>
	<path fill="#B6B6B7" d="M10.139,9.462V8.145c-0.245,0.188-0.41,0.283-0.495,0.283c-0.04,0-0.076-0.016-0.107-0.048
		C9.505,8.347,9.489,8.309,9.489,8.268c0-0.05,0.016-0.086,0.046-0.109s0.085-0.053,0.163-0.09c0.117-0.055,0.211-0.113,0.279-0.174
		c0.069-0.061,0.132-0.128,0.187-0.204c0.055-0.075,0.089-0.121,0.105-0.139c0.017-0.019,0.048-0.027,0.093-0.027
		c0.051,0,0.092,0.021,0.123,0.061c0.032,0.04,0.046,0.095,0.046,0.163v1.657c0,0.193-0.065,0.291-0.197,0.291
		c-0.06,0-0.107-0.021-0.143-0.06C10.155,9.597,10.138,9.538,10.139,9.462L10.139,9.462z"/>
</g>
</svg>
