<?xml version="1.0" encoding="utf-8"?>
<!-- Generator: Adobe Illustrator 16.0.0, SVG Export Plug-In . SVG Version: 6.00 Build 0)  -->
<!DOCTYPE svg PUBLIC "-//W3C//DTD SVG 1.1//EN" "http://www.w3.org/Graphics/SVG/1.1/DTD/svg11.dtd">
<svg version="1.1" id="Layer_1" xmlns="http://www.w3.org/2000/svg" xmlns:xlink="http://www.w3.org/1999/xlink" x="0px" y="0px"
	 width="20px" height="20px" viewBox="0 0 20 20" enable-background="new 0 0 20 20" xml:space="preserve">
<g>
	<path fill="#E79E2D" d="M19.69,10c0,5.351-4.338,9.69-9.69,9.69S0.31,15.353,0.31,10c0-5.352,4.338-9.69,9.69-9.69
		S19.69,4.647,19.69,10z"/>
	<path fill="#ECE1D0" d="M13.466,3.062L4.618,14.627l8.864-0.004L13.466,3.062L13.466,3.062z M7.255,13.003l4.738-6.193l0.01,6.191
		L7.255,13.003L7.255,13.003z"/>
	<path fill="#E8C790" d="M12.649,4.767h0.824v0.209h-0.824V4.767z"/>
	<path fill="#E8C790" d="M12.649,5.912h0.824V6.12h-0.824V5.912z"/>
	<path fill="#E8C790" d="M12.649,7.059h0.824v0.208h-0.824V7.059z"/>
	<path fill="#E8C790" d="M12.649,8.205h0.824v0.207h-0.824V8.205z"/>
	<path fill="#E8C790" d="M12.983,5.32h0.49v0.208h-0.49V5.32z"/>
	<path fill="#E8C790" d="M12.983,6.467h0.49v0.208h-0.49V6.467z"/>
	<path fill="#E8C790" d="M12.983,7.611h0.49V7.82h-0.49V7.611z"/>
	<path fill="#E8C790" d="M12.649,9.424h0.824v0.207h-0.824V9.424z"/>
	<path fill="#E8C790" d="M12.649,10.569h0.824v0.208h-0.824V10.569z"/>
	<path fill="#E8C790" d="M12.983,8.832h0.49v0.209h-0.49V8.832z"/>
	<path fill="#E8C790" d="M12.983,9.978h0.49v0.207h-0.49V9.978z"/>
	<path fill="#E8C790" d="M12.649,11.712h0.824v0.209h-0.824V11.712z"/>
	<path fill="#E8C790" d="M12.649,12.858h0.824v0.208h-0.824V12.858z"/>
	<path fill="#E8C790" d="M12.649,14.005h0.824v0.207h-0.824V14.005z"/>
	<path fill="#E8C790" d="M12.983,11.12h0.49v0.209h-0.49V11.12z"/>
	<path fill="#E8C790" d="M12.983,12.268h0.49v0.207h-0.49V12.268z"/>
	<path fill="#E8C790" d="M12.983,13.413h0.49v0.208h-0.49V13.413z"/>
	<path fill="#F5DFB5" d="M14.947,13.126c0.104,0.104,0.104,0.271,0,0.374l-0.264,0.264c-0.103,0.103-0.271,0.103-0.373,0
		L6.145,5.597c-0.104-0.103-0.104-0.27,0-0.373L6.408,4.96c0.104-0.104,0.271-0.104,0.373,0L14.947,13.126L14.947,13.126z"/>
	<path fill="#F2E8D3" d="M6.13,5.23l1.191-1.191l8.545,8.544l-1.192,1.191L6.13,5.23z"/>
	<path fill="#ECE1D0" d="M15.318,13.13l-0.644,0.645L6.131,5.229l0.607-0.608L15.318,13.13z"/>
	<path fill="#E8C790" d="M6.919,5.052l0.706-0.706l0.147,0.148L7.066,5.199L6.919,5.052z"/>
	<path fill="#E8C790" d="M7.729,5.862l0.705-0.705l0.147,0.147L7.876,6.011L7.729,5.862z"/>
	<path fill="#E8C790" d="M8.539,6.673l0.706-0.705l0.147,0.147L8.688,6.82L8.539,6.673z"/>
	<path fill="#E8C790" d="M9.349,7.482l0.705-0.706L10.2,6.923L9.495,7.629L9.349,7.482z"/>
	<path fill="#E8C790" d="M7.67,5.084l0.346-0.347l0.147,0.146L7.816,5.23L7.67,5.084z"/>
	<path fill="#E8C790" d="M8.479,5.895l0.347-0.347l0.146,0.146L8.626,6.041L8.479,5.895z"/>
	<path fill="#E8C790" d="M9.291,6.704l0.347-0.346l0.146,0.146L9.438,6.852L9.291,6.704z"/>
	<path fill="#E8C790" d="M10.211,8.345l0.706-0.705l0.146,0.146l-0.706,0.706L10.211,8.345z"/>
	<path fill="#E8C790" d="M11.022,9.154l0.705-0.706l0.146,0.146l-0.706,0.706L11.022,9.154z"/>
	<path fill="#E8C790" d="M10.152,7.566l0.347-0.346l0.148,0.147l-0.347,0.347L10.152,7.566z"/>
	<path fill="#E8C790" d="M10.963,8.379l0.347-0.347l0.146,0.146L11.11,8.524L10.963,8.379z"/>
	<path fill="#E8C790" d="M11.839,9.967l0.707-0.705l0.146,0.147l-0.705,0.706L11.839,9.967z"/>
	<path fill="#E8C790" d="M12.649,10.778l0.706-0.706l0.146,0.147l-0.705,0.705L12.649,10.778z"/>
	<path fill="#E8C790" d="M13.459,11.589l0.706-0.707l0.147,0.148l-0.706,0.705L13.459,11.589z"/>
	<path fill="#E8C790" d="M11.779,9.189l0.347-0.347l0.146,0.147l-0.347,0.346L11.779,9.189z"/>
	<path fill="#E8C790" d="M12.591,9.999l0.347-0.346L13.083,9.8l-0.346,0.346L12.591,9.999z"/>
	<path fill="#E8C790" d="M13.401,10.812l0.347-0.347l0.146,0.146l-0.348,0.347L13.401,10.812z"/>
	<path fill="#E8C790" d="M14.322,12.45l0.705-0.705l0.147,0.146l-0.705,0.705L14.322,12.45z"/>
	<path fill="#E8C790" d="M14.263,11.673l0.346-0.346l0.148,0.146L14.41,11.82L14.263,11.673z"/>
	<path fill="#E8C790" d="M15.072,12.484l0.347-0.347l0.146,0.146l-0.346,0.347L15.072,12.484z"/>
</g>
</svg>
