<?xml version="1.0" encoding="utf-8"?>
<!-- Generator: Adobe Illustrator 16.0.0, SVG Export Plug-In . SVG Version: 6.00 Build 0)  -->
<!DOCTYPE svg PUBLIC "-//W3C//DTD SVG 1.1//EN" "http://www.w3.org/Graphics/SVG/1.1/DTD/svg11.dtd">
<svg version="1.1" id="Layer_1" xmlns="http://www.w3.org/2000/svg" xmlns:xlink="http://www.w3.org/1999/xlink" x="0px" y="0px"
	 width="20px" height="20px" viewBox="0 0 20 20" enable-background="new 0 0 20 20" xml:space="preserve">
<g>
	<path fill="#6EC2CB" d="M19.689,10c0,5.352-4.336,9.69-9.689,9.69c-5.352,0-9.69-4.338-9.69-9.69c0-5.352,4.338-9.69,9.69-9.69
		C15.354,0.31,19.689,4.647,19.689,10z"/>
	<path fill="#F5DFB5" d="M14.357,15.13c0.219,0.219,0.219,0.572,0,0.791l-0.557,0.558c-0.219,0.219-0.574,0.218-0.793,0L3.564,7.035
		c-0.219-0.219-0.219-0.573,0-0.792l0.558-0.558c0.218-0.218,0.573-0.219,0.792,0L14.357,15.13z"/>
	<path fill="#F2E8D3" d="M3.534,6.257l2.521-2.521l10.248,10.248l-2.52,2.521L3.534,6.257z"/>
	<path fill="#ECE1D0" d="M15.145,15.141l-1.361,1.363L3.535,6.256L4.822,4.97L15.145,15.141z"/>
	<path fill="#E8C790" d="M7.007,4.697L5.515,6.19L5.204,5.879l1.493-1.493L7.007,4.697z"/>
	<path fill="#E8C790" d="M8.722,6.413L7.228,7.906L6.917,7.595l1.494-1.494L8.722,6.413z"/>
	<path fill="#E8C790" d="M8.632,9.311l1.492-1.494l0.312,0.312L8.944,9.622L8.632,9.311L8.632,9.311z"/>
	<path fill="#E8C790" d="M12.15,9.842l-1.492,1.494l-0.312-0.311l1.494-1.494L12.15,9.842z"/>
	<path fill="#E8C790" d="M6.793,5.949l0.734-0.734l0.312,0.312L7.105,6.26L6.793,5.949z"/>
	<path fill="#E8C790" d="M8.507,7.664L9.24,6.931l0.311,0.312L8.818,7.975L8.507,7.664z"/>
	<path fill="#E8C790" d="M10.222,9.379l0.733-0.733l0.312,0.312L10.533,9.69L10.222,9.379z"/>
	<path fill="#E8C790" d="M12.172,12.848l1.494-1.492l0.311,0.311l-1.494,1.494L12.172,12.848z"/>
	<path fill="#E8C790" d="M13.887,14.563l1.494-1.493l0.311,0.312l-1.494,1.492L13.887,14.563z"/>
	<path fill="#E8C790" d="M12.047,11.204l0.734-0.732l0.311,0.311l-0.732,0.732L12.047,11.204z"/>
	<path fill="#E8C790" d="M13.762,12.918l0.734-0.732l0.311,0.311l-0.734,0.734L13.762,12.918z"/>
</g>
</svg>
