<?xml version="1.0" encoding="utf-8"?>
<!-- Generator: Adobe Illustrator 16.0.0, SVG Export Plug-In . SVG Version: 6.00 Build 0)  -->
<!DOCTYPE svg PUBLIC "-//W3C//DTD SVG 1.1//EN" "http://www.w3.org/Graphics/SVG/1.1/DTD/svg11.dtd">
<svg version="1.1" id="Layer_1" xmlns="http://www.w3.org/2000/svg" xmlns:xlink="http://www.w3.org/1999/xlink" x="0px" y="0px"
	 width="20px" height="20px" viewBox="0 0 20 20" enable-background="new 0 0 20 20" xml:space="preserve">
<g>
	<path fill="#4ABC96" d="M19.69,10c0,5.351-4.338,9.69-9.69,9.69S0.31,15.353,0.31,10c0-5.352,4.338-9.69,9.69-9.69
		S19.69,4.647,19.69,10z"/>
	<path fill="#357180" d="M2.316,5.466V4.699H1.889C1.735,4.935,1.59,5.176,1.456,5.425L2.316,5.466z"/>
	<path fill="#357180" d="M7.165,5.294V4.699H3.57v0.766L7.165,5.294z"/>
	<path fill="#357180" d="M14.018,4.699H9.813v0.47l3.258-0.155v0.481h0.419V19.04c0.286-0.111,0.565-0.233,0.838-0.369V5.01
		C14.328,4.839,14.189,4.7,14.018,4.699L14.018,4.699z"/>
	<path fill="#27636D" d="M2.93,5.495l0.642-0.03V4.699H2.317v0.767L2.93,5.495z"/>
	<path fill="#D7D7BF" d="M13.489,19.04V5.495h-0.418V19.19C13.212,19.144,13.351,19.094,13.489,19.04z"/>
	<path fill="#E7E7D6" d="M2.316,5.495V5.466l-0.86-0.041c-0.013,0.023-0.024,0.047-0.035,0.07H2.316z"/>
	<path fill="#E7E7D6" d="M2.34,5.495h0.59L2.316,5.466v0.029H2.34z"/>
	<path fill="#E7E7D6" d="M1.421,5.495C1.136,6.037,0.9,6.609,0.72,7.206L1.8,7.24c0.183,0.007,0.331,0.164,0.331,0.355
		c0,0.189-0.148,0.339-0.331,0.332L0.542,7.889C0.489,8.124,0.444,8.362,0.41,8.605L1.8,8.65c0.183,0.006,0.331,0.165,0.331,0.354
		c0,0.19-0.148,0.34-0.331,0.335L0.338,9.292C0.321,9.518,0.311,9.743,0.31,9.973l1.49,0.048c0.183,0.005,0.331,0.164,0.331,0.354
		c0,0.191-0.148,0.341-0.331,0.334l-1.466-0.047c0.017,0.245,0.041,0.485,0.075,0.724L1.8,11.432
		c0.183,0.006,0.331,0.163,0.331,0.354c0,0.188-0.148,0.339-0.331,0.333l-1.267-0.041c0.056,0.254,0.119,0.503,0.194,0.747
		L1.8,12.858c0.183,0.006,0.331,0.165,0.331,0.355s-0.148,0.34-0.331,0.333l-0.83-0.026c0.098,0.25,0.202,0.493,0.318,0.73
		L1.8,14.268c0.183,0.007,0.331,0.165,0.331,0.355c0,0.189-0.148,0.339-0.331,0.333l-0.132-0.004
		c0.197,0.331,0.414,0.647,0.648,0.952V5.499H1.421V5.495z"/>
	<path fill="#E7E7D6" d="M2.34,5.495H2.317v10.407c0.007,0.009,0.015,0.019,0.022,0.027V5.495z"/>
	<path fill="#E7E7D6" d="M2.34,15.931c0.169,0.221,0.349,0.432,0.535,0.637V5.842H2.93V5.497H2.34V15.931z"/>
	<path fill="#E7E7D6" d="M7.165,5.495V5.294L3.57,5.465v0.03H7.165z"/>
	<path fill="#E7E7D6" d="M13.071,5.495V5.014L9.812,5.169v0.326H13.071z"/>
	<path fill="#E7E7D6" d="M3.571,5.495v-0.03L2.93,5.495h0.618H3.571z"/>
	<path fill="#E7E7D6" d="M9.099,14.105l-0.35-0.71l-0.354,0.012l-0.42,0.734L9.099,14.105z"/>
	<path fill="#E7E7D6" d="M7.175,15.536l2.587-0.082l-0.33-0.672l-1.858,0.061L7.175,15.536z"/>
	<path fill="#E7E7D6" d="M9.812,7.059l2.13-0.068c0.182-0.006,0.331,0.144,0.331,0.334s-0.147,0.349-0.331,0.355l-2.13,0.067v0.722
		l2.13-0.068c0.182-0.007,0.331,0.144,0.331,0.333s-0.147,0.349-0.331,0.354l-2.13,0.068v0.682l2.13-0.068
		c0.182-0.007,0.331,0.144,0.331,0.333s-0.147,0.349-0.331,0.354l-2.13,0.068v0.722l2.13-0.068c0.182-0.006,0.331,0.145,0.331,0.332
		c0,0.19-0.147,0.35-0.331,0.355l-2.13,0.068v0.742l2.13-0.069c0.182-0.007,0.331,0.144,0.331,0.333s-0.147,0.35-0.331,0.355
		l-2.13,0.067v0.722l2.13-0.068c0.182-0.006,0.331,0.144,0.331,0.332c0,0.19-0.147,0.35-0.331,0.355l-2.13,0.067v0.683l2.13-0.068
		c0.182-0.007,0.331,0.144,0.331,0.333s-0.147,0.349-0.331,0.354l-7.829,0.25c-0.182,0.007-0.329-0.143-0.329-0.333
		c0-0.191,0.147-0.35,0.329-0.354l3.052-0.097v-0.682l-3.052,0.097c-0.182,0.006-0.329-0.144-0.329-0.332
		c0-0.189,0.147-0.349,0.329-0.355l3.052-0.098v-0.721l-3.052,0.097c-0.182,0.007-0.329-0.143-0.329-0.333
		c0-0.188,0.147-0.348,0.329-0.354l3.052-0.099v-0.74l-3.052,0.097c-0.182,0.006-0.329-0.144-0.329-0.333
		c0-0.19,0.147-0.349,0.329-0.354l3.052-0.098V10.61l-3.052,0.097c-0.182,0.007-0.329-0.143-0.329-0.334
		c0-0.19,0.147-0.349,0.329-0.354l3.052-0.098V9.239L4.113,9.337C3.932,9.344,3.784,9.193,3.784,9.003s0.147-0.349,0.329-0.354
		l3.052-0.098V7.829L4.113,7.927C3.932,7.934,3.784,7.783,3.784,7.595c0-0.19,0.147-0.349,0.329-0.355l3.052-0.098V5.494H3.57
		v11.753c0.071,0.064,0.144,0.127,0.217,0.187c-0.001-0.012-0.004-0.024-0.004-0.038c0-0.189,0.147-0.348,0.329-0.354l7.83-0.251
		c0.182-0.006,0.33,0.144,0.33,0.333c0,0.19-0.148,0.35-0.33,0.355l-7.788,0.249c1.625,1.229,3.648,1.96,5.844,1.96
		c1.073,0,2.105-0.177,3.07-0.499V5.493H9.811v1.563L9.812,7.059z"/>
	<path fill="#E7E7D6" d="M3.548,17.228c0.008,0.008,0.017,0.014,0.023,0.021V5.495H3.548V17.228L3.548,17.228z"/>
	<path fill="#E7E7D6" d="M3.012,5.841v10.867c0.173,0.18,0.351,0.353,0.535,0.52V5.495H2.929v0.346H3.012L3.012,5.841z"/>
	<path fill="#DCDDD8" d="M2.93,5.841H2.875v10.725c0.018,0.02,0.037,0.038,0.055,0.057V5.841z"/>
	<path fill="#DCDDD8" d="M3.012,16.709V5.842H2.93v10.781C2.957,16.653,2.984,16.681,3.012,16.709z"/>
	<path fill="#B9B9BA" d="M2.132,7.596c0-0.191-0.148-0.349-0.331-0.355l-1.08-0.034C0.653,7.43,0.596,7.657,0.544,7.889l1.259,0.039
		C1.984,7.935,2.133,7.784,2.132,7.596L2.132,7.596z"/>
	<path fill="#B9B9BA" d="M2.132,9.004c0-0.19-0.148-0.349-0.331-0.354l-1.39-0.045C0.379,8.83,0.355,9.06,0.339,9.29l1.462,0.047
		C1.983,9.344,2.132,9.193,2.132,9.004L2.132,9.004z"/>
	<path fill="#B9B9BA" d="M2.132,10.373c0-0.19-0.148-0.349-0.331-0.354l-1.49-0.048c0,0.009-0.001,0.019-0.001,0.028
		c0,0.222,0.011,0.441,0.025,0.66l1.466,0.047C1.983,10.714,2.132,10.563,2.132,10.373L2.132,10.373z"/>
	<path fill="#B9B9BA" d="M2.132,11.782c0-0.189-0.148-0.349-0.331-0.354L0.41,11.382c0.033,0.234,0.075,0.465,0.126,0.693
		l1.267,0.041C1.984,12.122,2.133,11.972,2.132,11.782L2.132,11.782z"/>
	<path fill="#B9B9BA" d="M2.132,13.21c0-0.19-0.148-0.348-0.331-0.354l-1.072-0.035c0.072,0.236,0.153,0.469,0.242,0.695l0.83,0.025
		C1.983,13.549,2.132,13.399,2.132,13.21L2.132,13.21z"/>
	<path fill="#B9B9BA" d="M2.132,14.619c0-0.188-0.148-0.348-0.331-0.354L1.29,14.248c0.116,0.239,0.243,0.472,0.378,0.699
		L1.8,14.952C1.982,14.958,2.131,14.809,2.132,14.619L2.132,14.619z"/>
	<path fill="#B9B9BA" d="M4.113,7.24C3.932,7.247,3.784,7.404,3.784,7.596c0,0.189,0.147,0.339,0.329,0.332l3.052-0.097V7.143
		L4.113,7.24z"/>
	<path fill="#B9B9BA" d="M11.944,7.68c0.182-0.007,0.33-0.165,0.33-0.355s-0.147-0.339-0.33-0.334L9.813,7.059v0.688l2.131-0.068
		V7.68z"/>
	<path fill="#B9B9BA" d="M11.944,9.087c0.182-0.006,0.33-0.164,0.33-0.354c0-0.191-0.147-0.34-0.33-0.333L9.813,8.468v0.688
		L11.944,9.087z"/>
	<path fill="#B9B9BA" d="M4.113,8.649C3.932,8.655,3.784,8.813,3.784,9.004s0.147,0.34,0.329,0.334l3.052-0.097V8.554L4.113,8.649
		L4.113,8.649z"/>
	<path fill="#B9B9BA" d="M4.113,10.019c-0.182,0.005-0.329,0.164-0.329,0.354c0,0.191,0.147,0.341,0.329,0.334l3.052-0.097V9.922
		L4.113,10.019L4.113,10.019z"/>
	<path fill="#B9B9BA" d="M11.944,10.456c0.182-0.006,0.33-0.164,0.33-0.354s-0.147-0.34-0.33-0.333L9.813,9.836v0.688L11.944,10.456
		z"/>
	<path fill="#B9B9BA" d="M11.944,11.865c0.182-0.007,0.33-0.165,0.33-0.354c0-0.19-0.147-0.339-0.33-0.333l-2.131,0.067v0.689
		L11.944,11.865z"/>
	<path fill="#B9B9BA" d="M4.113,11.428c-0.182,0.007-0.329,0.165-0.329,0.354c0,0.188,0.147,0.34,0.329,0.334l3.052-0.099v-0.687
		L4.113,11.428z"/>
	<path fill="#B9B9BA" d="M11.944,13.294c0.182-0.007,0.33-0.165,0.33-0.354c0-0.19-0.147-0.34-0.33-0.334l-2.131,0.067v0.688
		L11.944,13.294z"/>
	<path fill="#B9B9BA" d="M4.113,12.856c-0.182,0.006-0.329,0.164-0.329,0.355c0,0.19,0.147,0.34,0.329,0.332l3.052-0.097v-0.688
		L4.113,12.856z"/>
	<path fill="#B9B9BA" d="M8.588,13.071l-0.193,0.336l0.354-0.012L8.588,13.071z"/>
	<path fill="#B9B9BA" d="M11.944,14.702c0.182-0.006,0.33-0.164,0.33-0.355c0-0.19-0.147-0.339-0.33-0.332l-2.131,0.068v0.687
		L11.944,14.702z"/>
	<path fill="#B9B9BA" d="M4.113,14.265c-0.182,0.007-0.329,0.166-0.329,0.354c0,0.189,0.147,0.339,0.329,0.333l3.052-0.097v-0.688
		L4.113,14.265z"/>
	<path fill="#B9B9BA" d="M7.574,14.843l1.858-0.061l-0.334-0.677l-1.123,0.036L7.574,14.843z"/>
	<path fill="#B9B9BA" d="M9.763,15.454l-2.586,0.082l-0.011,0.019v-0.019l-3.052,0.098c-0.182,0.005-0.329,0.164-0.329,0.354
		c0,0.188,0.147,0.339,0.329,0.333l7.83-0.25c0.182-0.006,0.33-0.165,0.33-0.354c0-0.19-0.147-0.34-0.33-0.334l-2.131,0.069v0.103
		L9.763,15.454z"/>
	<path fill="#B9B9BA" d="M4.113,17.73l0.042-0.001c-0.126-0.096-0.248-0.192-0.368-0.294C3.806,17.607,3.944,17.736,4.113,17.73z"/>
	<path fill="#B9B9BA" d="M11.944,17.48c0.182-0.006,0.33-0.164,0.33-0.355c0-0.19-0.147-0.339-0.33-0.332l-7.83,0.25
		c-0.182,0.007-0.329,0.165-0.329,0.354c0,0.014,0.002,0.025,0.004,0.038c0.12,0.102,0.244,0.2,0.368,0.295L11.944,17.48
		L11.944,17.48z"/>
	<path fill="#BB5538" d="M7.165,4.693h2.647V4.7H7.165V4.693z"/>
	<path fill="#BB5538" d="M9.812,5.169v-0.47H7.165v0.595L9.812,5.169z"/>
	<path fill="#BB5538" d="M7.165,5.495h2.647V5.169L7.165,5.294V5.495z"/>
	<path fill="#BB5538" d="M8.395,13.407l-1.229,0.039v0.721l0.81-0.025L8.395,13.407z"/>
	<path fill="#BB5538" d="M9.812,7.059V5.495H7.165v1.647L9.812,7.059z"/>
	<path fill="#BB5538" d="M7.165,9.921l2.647-0.085V9.155L7.165,9.239V9.921z"/>
	<path fill="#BB5538" d="M7.165,11.331l2.647-0.086v-0.721l-2.647,0.085V11.331z"/>
	<path fill="#BB5538" d="M7.165,8.552l2.647-0.084V7.746L7.165,7.831V8.552z"/>
	<path fill="#BB5538" d="M9.099,14.105l0.715-0.022v-0.722l-1.064,0.033L9.099,14.105z"/>
	<path fill="#BB5538" d="M7.574,14.843l-0.408,0.013v0.681h0.011L7.574,14.843z"/>
	<path fill="#BB5538" d="M7.165,12.759l2.647-0.085v-0.739l-2.647,0.083V12.759z"/>
	<path fill="#BB5538" d="M9.763,15.454l0.051-0.002V14.77l-0.381,0.013L9.763,15.454z"/>
	<path fill="#BB5538" d="M7.165,7.831l2.647-0.085V7.059L7.165,7.143V7.831z"/>
	<path fill="#BB5538" d="M7.165,9.239l2.647-0.084V8.468L7.165,8.552V9.239z"/>
	<path fill="#BB5538" d="M7.165,10.609l2.647-0.085V9.836L7.165,9.921V10.609z"/>
	<path fill="#BB5538" d="M7.165,12.018l2.647-0.083v-0.689l-2.647,0.086V12.018z"/>
	<path fill="#BB5538" d="M7.165,13.446l1.229-0.039l0.193-0.336l0.16,0.324l1.064-0.033v-0.688l-2.647,0.085V13.446z"/>
	<path fill="#BB5538" d="M9.433,14.782l0.381-0.013v-0.687l-0.715,0.022L9.433,14.782z"/>
	<path fill="#BB5538" d="M7.975,14.142l-0.81,0.025v0.688l0.408-0.013L7.975,14.142z"/>
	<path fill="#BB5538" d="M7.175,15.536h-0.01v0.019L7.175,15.536z"/>
	<path fill="#BB5538" d="M9.812,15.555v-0.103l-0.051,0.002L9.812,15.555z"/>
</g>
</svg>
