<?xml version="1.0" encoding="utf-8"?>
<!-- Generated by IcoMoon.io -->
<!DOCTYPE svg PUBLIC "-//W3C//DTD SVG 1.1//EN" "http://www.w3.org/Graphics/SVG/1.1/DTD/svg11.dtd">
<svg version="1.1" xmlns="http://www.w3.org/2000/svg" xmlns:xlink="http://www.w3.org/1999/xlink" width="20" height="20" viewBox="0 0 20 20">
<path fill="rgb(234, 73, 73)" d="M0.309 10c0-5.352 4.339-9.691 9.69-9.691s9.691 4.338 9.691 9.691c0 5.352-4.339 9.691-9.691 9.691s-9.69-4.339-9.69-9.691z"></path>
<path fill="rgb(119, 76, 43)" d="M13.708 16.725h-7.416l0.41-1.469h6.596z"></path>
<path fill="rgb(130, 84, 52)" d="M10.002 16.725h-3.71l0.41-1.469h3.298z"></path>
<path fill="rgb(91, 54, 29)" d="M6.292 16.725h7.416v0.892h-7.416v-0.892z"></path>
<path fill="rgb(99, 63, 38)" d="M6.292 16.725h3.71v0.892h-3.71v-0.892z"></path>
<path fill="rgb(119, 76, 43)" d="M13.047 15.914h-6.093l0.337-1.207h5.419z"></path>
<path fill="rgb(130, 84, 52)" d="M10.002 15.914h-3.048l0.337-1.207h2.711z"></path>
<path fill="rgb(91, 54, 29)" d="M6.953 15.914h6.093v0.394h-6.093v-0.394z"></path>
<path fill="rgb(99, 63, 38)" d="M6.953 15.914h3.047v0.394h-3.047v-0.394z"></path>
<path fill="rgb(216, 154, 0)" d="M12.862 4.918c0.144-0.171 0.312-0.316 0.493-0.45 0.183-0.131 0.381-0.247 0.605-0.329 0.112-0.041 0.229-0.074 0.354-0.092s0.257-0.023 0.392-0.003c0.135 0.019 0.272 0.063 0.397 0.133 0.125 0.069 0.235 0.163 0.324 0.266 0.044 0.052 0.085 0.106 0.12 0.162 0.017 0.028 0.034 0.056 0.050 0.085 0.005 0.009 0.017 0.031 0.024 0.045l0.022 0.046c0.057 0.123 0.094 0.256 0.113 0.39 0.037 0.269-0.010 0.534-0.093 0.764-0.083 0.232-0.199 0.439-0.328 0.629s-0.269 0.368-0.416 0.535c-0.594 0.666-1.289 1.198-2.002 1.688-0.717 0.485-1.461 0.925-2.228 1.317l-0.029-0.051c0.72-0.468 1.421-0.962 2.087-1.496 0.333-0.266 0.657-0.542 0.964-0.833s0.601-0.593 0.856-0.918c0.127-0.162 0.244-0.331 0.342-0.505s0.175-0.355 0.221-0.533c0.045-0.178 0.056-0.351 0.029-0.508-0.013-0.079-0.038-0.153-0.071-0.226l-0.013-0.027-0.014-0.027c-0.010-0.018-0.020-0.037-0.031-0.055-0.022-0.035-0.043-0.069-0.067-0.1-0.095-0.125-0.208-0.208-0.36-0.252s-0.337-0.044-0.528-0.013c-0.191 0.031-0.389 0.087-0.585 0.158-0.197 0.069-0.393 0.155-0.59 0.246l-0.036-0.046z"></path>
<path fill="rgb(216, 154, 0)" d="M7.138 4.918c-0.144-0.171-0.312-0.316-0.493-0.45-0.183-0.131-0.381-0.247-0.605-0.329-0.112-0.041-0.229-0.074-0.354-0.092s-0.257-0.023-0.392-0.003c-0.135 0.019-0.272 0.063-0.397 0.133-0.125 0.069-0.235 0.163-0.324 0.266-0.044 0.052-0.085 0.106-0.12 0.162-0.017 0.028-0.034 0.056-0.050 0.085-0.005 0.009-0.017 0.031-0.024 0.045l-0.022 0.046c-0.057 0.123-0.094 0.256-0.113 0.39-0.037 0.269 0.010 0.534 0.093 0.764 0.083 0.232 0.199 0.439 0.328 0.629s0.269 0.368 0.416 0.535c0.594 0.666 1.289 1.198 2.002 1.688 0.717 0.485 1.461 0.925 2.228 1.317l0.029-0.051c-0.72-0.468-1.421-0.962-2.087-1.496-0.333-0.266-0.657-0.542-0.964-0.833s-0.601-0.593-0.856-0.918c-0.127-0.162-0.244-0.331-0.342-0.505s-0.175-0.355-0.221-0.533c-0.045-0.178-0.056-0.351-0.029-0.508 0.013-0.079 0.038-0.153 0.071-0.226l0.013-0.027 0.014-0.027c0.010-0.018 0.020-0.037 0.031-0.055 0.022-0.035 0.043-0.069 0.067-0.1 0.095-0.125 0.208-0.208 0.36-0.252s0.337-0.044 0.528-0.013c0.191 0.031 0.389 0.087 0.585 0.158 0.197 0.069 0.393 0.155 0.59 0.246l0.036-0.046z"></path>
<path fill="rgb(242, 180, 8)" d="M12.626 7.891l0.859-3.646c-1.11-0.378-2.227-0.378-3.516-0.378s-2.406-0-3.516 0.378l0.859 3.646c0 0 0.391 1.823 1.667 2.891 0 0 0.573 1.094 0.391 1.797l-0.417 0.807 0.156 0.26c0 0-0.391 0.859-1.198 1.276v0.286c0 0 0.574 0.346 1.999 0.364v0.001c0.020 0 0.039-0 0.059-0s0.039 0 0.059 0v-0.001c1.424-0.018 1.999-0.364 1.999-0.364v-0.286c-0.807-0.417-1.198-1.276-1.198-1.276l0.156-0.26-0.417-0.807c-0.182-0.703 0.391-1.797 0.391-1.797 1.276-1.068 1.667-2.891 1.667-2.891z"></path>
<path fill="rgb(247, 187, 38)" d="M10.002 3.867c-1.289 0-2.437-0-3.547 0.378l0.859 3.646c0 0 0.391 1.823 1.667 2.891 0 0 0.573 1.094 0.391 1.797l-0.417 0.807 0.156 0.26c0 0-0.391 0.859-1.198 1.276v0.286c0 0 0.574 0.346 1.999 0.364v0.001c0.020 0 0.071-0 0.090-0v-11.705z"></path>
<path fill="rgb(196, 143, 44)" d="M7.913 14.922v0.286c0 0 0.574 0.346 1.999 0.364l0.036 0.001c0.020 0 0.039-0 0.059-0s0.039 0 0.059 0l-0.036-0.001c1.424-0.018 1.999-0.364 1.999-0.364v-0.286c0 0-0.683 0.303-2.021 0.303s-2.094-0.303-2.094-0.303z"></path>
<path fill="rgb(209, 152, 61)" d="M7.913 14.922v0.286c0 0 0.574 0.346 1.999 0.364l0.036 0.001c0.020 0 0.054-0 0.054-0-0.005 0 0.001-0.348 0.001-0.348-1.338 0-2.090-0.303-2.090-0.303z"></path>
</svg>
