<?xml version="1.0" encoding="utf-8"?>
<!-- Generator: Adobe Illustrator 16.0.0, SVG Export Plug-In . SVG Version: 6.00 Build 0)  -->
<!DOCTYPE svg PUBLIC "-//W3C//DTD SVG 1.1//EN" "http://www.w3.org/Graphics/SVG/1.1/DTD/svg11.dtd">
<svg version="1.1" id="Layer_1" xmlns="http://www.w3.org/2000/svg" xmlns:xlink="http://www.w3.org/1999/xlink" x="0px" y="0px"
	 width="20px" height="20px" viewBox="0 0 20 20" enable-background="new 0 0 20 20" xml:space="preserve">
<g>
	<path fill="#357180" d="M19.69,10c0,5.351-4.338,9.69-9.69,9.69S0.31,15.353,0.31,10c0-5.352,4.338-9.69,9.69-9.69
		S19.69,4.647,19.69,10z"/>
	<path fill="#6CC077" d="M8.389,4.264H4.668c-0.299,0-0.541,0.241-0.541,0.54v3.797c0,0.298,0.242,0.54,0.541,0.54h3.721
		c0.299,0,0.54-0.243,0.54-0.54V4.804C8.929,4.505,8.688,4.264,8.389,4.264z"/>
	<path fill="#FFFFFF" d="M8.047,6.96H6.795v1.262H6.261V6.96H5.007V6.432h1.254V5.18h0.534v1.252h1.252V6.96z"/>
	<path fill="#E84849" d="M15.005,4.261h-3.721c-0.299,0-0.541,0.242-0.541,0.541v3.796c0,0.299,0.242,0.54,0.541,0.54h3.721
		c0.299,0,0.54-0.241,0.54-0.54V4.802C15.545,4.503,15.304,4.261,15.005,4.261z"/>
	<path fill="#FFFFFF" d="M14.665,6.963h-3.041V6.436h3.041V6.963z"/>
	<path fill="#9F77AA" d="M8.374,11.069H4.652c-0.298,0-0.54,0.241-0.54,0.54v3.796c0,0.299,0.242,0.54,0.54,0.54h3.722
		c0.298,0,0.54-0.242,0.54-0.54v-3.796C8.914,11.311,8.672,11.069,8.374,11.069z"/>
	<path fill="#FFFFFF" d="M7.777,14.392l-0.374,0.373L6.518,13.88l-0.893,0.892l-0.377-0.376l0.893-0.894l-0.886-0.885l0.373-0.372
		l0.885,0.885l0.886-0.885l0.378,0.377l-0.886,0.887L7.777,14.392z"/>
	<path fill="#E79E2D" d="M15.005,11.03h-3.721c-0.299,0-0.541,0.241-0.541,0.54v3.797c0,0.298,0.242,0.539,0.541,0.539h3.721
		c0.299,0,0.54-0.241,0.54-0.539V11.57C15.545,11.271,15.304,11.03,15.005,11.03z"/>
	<path fill="#FFFFFF" d="M14.665,14.278h-3.041v-0.527h3.041V14.278z"/>
	<path fill="#FFFFFF" d="M14.665,13.186h-3.041v-0.527h3.041V13.186z"/>
</g>
</svg>
