<?xml version="1.0" encoding="utf-8"?>
<!-- Generator: Adobe Illustrator 16.0.0, SVG Export Plug-In . SVG Version: 6.00 Build 0)  -->
<!DOCTYPE svg PUBLIC "-//W3C//DTD SVG 1.1//EN" "http://www.w3.org/Graphics/SVG/1.1/DTD/svg11.dtd">
<svg version="1.1" id="Layer_1" xmlns="http://www.w3.org/2000/svg" xmlns:xlink="http://www.w3.org/1999/xlink" x="0px" y="0px"
	 width="20px" height="20px" viewBox="0 0 20 20" enable-background="new 0 0 20 20" xml:space="preserve">
<g>
	<path fill="#4ABC96" d="M19.69,10c0,5.351-4.338,9.69-9.69,9.69S0.31,15.353,0.31,10c0-5.352,4.338-9.69,9.69-9.69
		S19.69,4.647,19.69,10z"/>
	<path fill="#357180" d="M16.764,14.549c0,0.099-0.08,0.178-0.18,0.178H3.816c-0.099,0-0.178-0.079-0.178-0.178V5.495
		c0-0.098,0.079-0.178,0.178-0.178h12.768c0.099,0,0.18,0.08,0.18,0.178V14.549z"/>
	<path fill="#27636D" d="M9.847,5.317h0.723v9.409H9.847V5.317z"/>
	<path fill="#D7D7BF" d="M10.2,5.775H4.121v8.493h12.16V5.775H10.2z"/>
	<path fill="#C5C3AE" d="M9.86,5.775h0.697v8.487H9.86V5.775z"/>
	<path fill="#E7E7D6" d="M10.2,14.269l-5.838-0.252V5.5L10.2,5.776V14.269z"/>
	<path fill="#E7E7D6" d="M16.039,14.017l-5.84,0.252V5.775l5.84-0.276V14.017z"/>
	<path fill="#DCDDD8" d="M10.17,5.975h0.078v8.288H10.17V5.975z"/>
	<path fill="#B9B9BA" d="M9.741,6.985c0,0.109-0.085,0.195-0.19,0.191L5.043,7.032c-0.104-0.003-0.19-0.094-0.19-0.204l0,0
		c0-0.109,0.086-0.195,0.19-0.191L9.551,6.78C9.655,6.784,9.741,6.876,9.741,6.985L9.741,6.985z"/>
	<path fill="#B9B9BA" d="M9.741,7.796c0,0.11-0.085,0.196-0.19,0.192L5.043,7.844C4.938,7.84,4.853,7.748,4.853,7.64l0,0
		c0-0.11,0.086-0.196,0.19-0.192l4.508,0.146C9.655,7.596,9.741,7.687,9.741,7.796L9.741,7.796z"/>
	<path fill="#B9B9BA" d="M9.741,8.584c0,0.11-0.085,0.196-0.19,0.192L5.043,8.632c-0.104-0.004-0.19-0.095-0.19-0.204l0,0
		c0-0.11,0.086-0.196,0.19-0.191l4.508,0.145C9.655,8.384,9.741,8.476,9.741,8.584L9.741,8.584z"/>
	<path fill="#B9B9BA" d="M9.741,9.396c0,0.11-0.085,0.196-0.19,0.192L5.043,9.443c-0.104-0.003-0.19-0.095-0.19-0.204l0,0
		c0-0.109,0.086-0.194,0.19-0.191l4.508,0.145C9.655,9.195,9.741,9.287,9.741,9.396L9.741,9.396L9.741,9.396z"/>
	<path fill="#B9B9BA" d="M9.741,10.219c0,0.108-0.085,0.195-0.19,0.191l-4.508-0.145c-0.104-0.003-0.19-0.095-0.19-0.204l0,0
		c0-0.109,0.086-0.194,0.19-0.191l4.508,0.145C9.655,10.018,9.741,10.108,9.741,10.219L9.741,10.219z"/>
	<path fill="#B9B9BA" d="M9.741,11.03c0,0.109-0.085,0.195-0.19,0.191l-4.508-0.145c-0.104-0.004-0.19-0.094-0.19-0.204l0,0
		c0-0.108,0.086-0.196,0.19-0.192l4.508,0.146C9.655,10.829,9.741,10.921,9.741,11.03L9.741,11.03z"/>
	<path fill="#B9B9BA" d="M9.741,11.817c0,0.11-0.085,0.196-0.19,0.192l-4.508-0.145c-0.104-0.003-0.19-0.095-0.19-0.204l0,0
		c0-0.109,0.086-0.195,0.19-0.191l4.508,0.145C9.655,11.617,9.741,11.708,9.741,11.817L9.741,11.817z"/>
	<path fill="#B9B9BA" d="M9.741,12.628c0,0.11-0.085,0.196-0.19,0.191l-4.508-0.143c-0.104-0.005-0.19-0.096-0.19-0.205l0,0
		c0-0.109,0.086-0.195,0.19-0.192l4.508,0.146C9.655,12.427,9.741,12.52,9.741,12.628L9.741,12.628z"/>
	<path fill="#B9B9BA" d="M10.692,6.985c0,0.109,0.085,0.195,0.189,0.191l4.508-0.145c0.105-0.003,0.19-0.094,0.19-0.204l0,0
		c0-0.109-0.085-0.195-0.19-0.191L10.882,6.78C10.778,6.784,10.692,6.876,10.692,6.985L10.692,6.985z"/>
	<path fill="#B9B9BA" d="M10.692,7.796c0,0.11,0.085,0.196,0.189,0.192l4.508-0.145c0.105-0.004,0.19-0.096,0.19-0.204l0,0
		c0-0.11-0.085-0.196-0.19-0.192l-4.508,0.146C10.778,7.596,10.692,7.687,10.692,7.796L10.692,7.796z"/>
	<path fill="#B9B9BA" d="M10.692,8.584c0,0.11,0.085,0.196,0.189,0.192l4.508-0.145c0.105-0.004,0.19-0.095,0.19-0.204l0,0
		c0-0.11-0.085-0.196-0.19-0.191l-4.508,0.145C10.778,8.384,10.692,8.476,10.692,8.584L10.692,8.584z"/>
	<path fill="#B9B9BA" d="M10.692,9.396c0,0.11,0.085,0.196,0.189,0.192l4.508-0.145c0.105-0.003,0.19-0.095,0.19-0.204l0,0
		c0-0.109-0.085-0.194-0.19-0.191l-4.508,0.145C10.778,9.195,10.692,9.287,10.692,9.396L10.692,9.396L10.692,9.396z"/>
	<path fill="#B9B9BA" d="M10.692,10.219c0,0.108,0.085,0.195,0.189,0.191l4.508-0.145c0.105-0.003,0.19-0.095,0.19-0.204l0,0
		c0-0.109-0.085-0.194-0.19-0.191l-4.508,0.145C10.778,10.018,10.692,10.108,10.692,10.219L10.692,10.219z"/>
	<path fill="#B9B9BA" d="M10.692,11.03c0,0.109,0.085,0.195,0.189,0.191l4.508-0.145c0.105-0.004,0.19-0.094,0.19-0.204l0,0
		c0-0.108-0.085-0.196-0.19-0.192l-4.508,0.146C10.778,10.829,10.692,10.921,10.692,11.03L10.692,11.03z"/>
	<path fill="#B9B9BA" d="M10.692,11.817c0,0.11,0.085,0.196,0.189,0.192l4.508-0.145c0.105-0.003,0.19-0.095,0.19-0.204l0,0
		c0-0.109-0.085-0.195-0.19-0.191l-4.508,0.145C10.778,11.617,10.692,11.708,10.692,11.817L10.692,11.817z"/>
	<path fill="#B9B9BA" d="M10.692,12.628c0,0.11,0.085,0.196,0.189,0.191l4.508-0.143c0.105-0.005,0.19-0.096,0.19-0.205l0,0
		c0-0.109-0.085-0.195-0.19-0.192l-4.508,0.146C10.778,12.427,10.692,12.52,10.692,12.628L10.692,12.628z"/>
</g>
</svg>
