<?xml version="1.0" encoding="utf-8"?>
<!-- Generator: Adobe Illustrator 16.0.0, SVG Export Plug-In . SVG Version: 6.00 Build 0)  -->
<!DOCTYPE svg PUBLIC "-//W3C//DTD SVG 1.1//EN" "http://www.w3.org/Graphics/SVG/1.1/DTD/svg11.dtd">
<svg version="1.1" id="Layer_1" xmlns="http://www.w3.org/2000/svg" xmlns:xlink="http://www.w3.org/1999/xlink" x="0px" y="0px"
	 width="20px" height="20px" viewBox="0 0 20 20" enable-background="new 0 0 20 20" xml:space="preserve">
<g>
	<path fill="#344E5D" d="M19.69,10c0,5.351-4.338,9.69-9.69,9.69S0.31,15.353,0.31,10c0-5.352,4.338-9.69,9.69-9.69
		S19.69,4.647,19.69,10z"/>
	<path fill="#83CECA" d="M12.092,6.668c-0.415-1.441-1.085-2.379-1.842-2.379c-0.801,0-1.506,1.05-1.911,2.639
		C8.898,7.061,9.5,7.256,10.12,7.514C10.806,7.146,11.474,6.86,12.092,6.668z"/>
	<path fill="#039A88" d="M10.13,7.684l-0.067-0.029C9.458,7.404,8.866,7.21,8.304,7.076L8.152,7.04L8.19,6.89
		c0.442-1.725,1.213-2.753,2.061-2.753c0.808,0,1.533,0.906,1.987,2.488l0.043,0.144l-0.143,0.045
		c-0.619,0.193-1.273,0.476-1.944,0.835L10.13,7.684L10.13,7.684z M8.525,6.816c0.513,0.13,1.044,0.307,1.586,0.528
		c0.614-0.325,1.216-0.586,1.79-0.776c-0.409-1.333-1.021-2.125-1.651-2.125C9.583,4.443,8.929,5.349,8.525,6.816L8.525,6.816z"/>
	<path fill="#83CECA" d="M8.408,13.517c0.416,1.441,1.086,2.377,1.842,2.377c0.801,0,1.504-1.05,1.911-2.639
		c-0.561-0.133-1.161-0.328-1.782-0.586C9.694,13.038,9.025,13.322,8.408,13.517z"/>
	<path fill="#039A88" d="M10.25,16.046c-0.809,0-1.533-0.906-1.989-2.488l-0.042-0.144l0.143-0.045
		c0.623-0.195,1.276-0.477,1.944-0.835l0.063-0.034l0.067,0.028c0.605,0.25,1.197,0.444,1.76,0.578l0.15,0.036l-0.038,0.151
		C11.866,15.018,11.097,16.046,10.25,16.046L10.25,16.046z M8.599,13.616c0.408,1.334,1.021,2.125,1.651,2.125
		c0.667,0,1.321-0.906,1.724-2.374c-0.51-0.13-1.043-0.307-1.585-0.528C9.777,13.163,9.176,13.425,8.599,13.616z"/>
	<path fill="#83CECA" d="M6.522,10.279c-1.076,1.202-1.549,2.352-1.112,3.013c0.416,0.63,1.567,0.672,2.998,0.225
		c-0.177-0.613-0.307-1.318-0.377-2.083C7.461,11.062,6.951,10.671,6.522,10.279z"/>
	<path fill="#039A88" d="M6.729,13.968L6.729,13.968c-0.69,0-1.19-0.206-1.446-0.592c-0.47-0.711-0.059-1.877,1.126-3.199
		l0.104-0.115l0.114,0.104c0.429,0.394,0.931,0.774,1.488,1.139l0.062,0.041l0.008,0.073c0.07,0.746,0.195,1.438,0.373,2.055
		l0.042,0.144l-0.143,0.045C7.809,13.864,7.228,13.968,6.729,13.968L6.729,13.968z M6.535,10.496
		c-0.979,1.131-1.361,2.162-0.998,2.71c0.248,0.376,0.785,0.455,1.191,0.455c0.425,0,0.938-0.086,1.492-0.25
		C8.065,12.835,7.952,12.2,7.885,11.52C7.387,11.192,6.934,10.847,6.535,10.496L6.535,10.496z"/>
	<path fill="#83CECA" d="M13.978,9.904c1.076-1.202,1.549-2.351,1.113-3.011c-0.417-0.631-1.568-0.674-2.999-0.226
		c0.177,0.613,0.307,1.319,0.378,2.083C13.04,9.122,13.549,9.513,13.978,9.904z"/>
	<path fill="#039A88" d="M13.989,10.121l-0.114-0.104c-0.431-0.394-0.931-0.776-1.489-1.138l-0.062-0.041l-0.007-0.073
		c-0.068-0.746-0.195-1.438-0.373-2.055l-0.041-0.144l0.143-0.045c0.646-0.203,1.228-0.306,1.727-0.306
		c0.688,0,1.189,0.205,1.445,0.593c0.47,0.709,0.06,1.876-1.125,3.197L13.989,10.121L13.989,10.121z M12.615,8.663
		c0.496,0.327,0.95,0.671,1.351,1.023c0.978-1.13,1.359-2.162,0.997-2.71c-0.248-0.376-0.785-0.454-1.19-0.454
		c-0.426,0-0.938,0.085-1.494,0.249C12.435,7.348,12.548,7.983,12.615,8.663L12.615,8.663z"/>
	<path fill="#83CECA" d="M11.312,8.073c0.41,0.214,0.796,0.442,1.158,0.678c-0.071-0.764-0.201-1.47-0.378-2.083
		c-0.616,0.193-1.286,0.479-1.972,0.846c0.392,0.162,0.791,0.349,1.19,0.558L11.312,8.073z"/>
	<path fill="#039A88" d="M12.651,9.051l-0.266-0.172c-0.366-0.238-0.75-0.464-1.145-0.671c-0.385-0.201-0.781-0.388-1.179-0.554
		L9.766,7.531l0.283-0.152c0.688-0.37,1.359-0.657,1.998-0.857l0.149-0.048l0.042,0.151c0.185,0.635,0.313,1.345,0.384,2.111
		L12.651,9.051z M10.478,7.5c0.306,0.136,0.609,0.281,0.904,0.437c0.308,0.161,0.609,0.334,0.902,0.515
		c-0.065-0.568-0.166-1.102-0.297-1.59C11.501,7.022,10.995,7.237,10.478,7.5L10.478,7.5z"/>
	<path fill="#83CECA" d="M9.188,12.112c-0.409-0.215-0.796-0.444-1.157-0.679c0.07,0.765,0.2,1.47,0.377,2.083
		c0.617-0.194,1.286-0.479,1.971-0.848C9.987,12.507,9.588,12.321,9.188,12.112z"/>
	<path fill="#039A88" d="M8.305,13.709l-0.043-0.151c-0.183-0.635-0.312-1.345-0.383-2.111L7.85,11.132l0.265,0.173
		c0.369,0.239,0.755,0.466,1.146,0.67c0.385,0.203,0.78,0.388,1.178,0.554l0.298,0.123l-0.284,0.153
		c-0.685,0.368-1.357,0.656-1.997,0.857L8.305,13.709z M8.216,11.731c0.066,0.568,0.167,1.102,0.298,1.59
		c0.487-0.162,0.993-0.375,1.509-0.637c-0.306-0.135-0.609-0.281-0.904-0.438C8.812,12.088,8.511,11.915,8.216,11.731L8.216,11.731z
		"/>
	<path fill="#83CECA" d="M8.019,8.892c0.059-0.713,0.169-1.375,0.32-1.964C6.743,6.549,5.487,6.684,5.114,7.392
		C4.746,8.094,5.332,9.19,6.523,10.278C6.938,9.815,7.442,9.345,8.019,8.892z"/>
	<path fill="#039A88" d="M6.534,10.496L6.42,10.392C5.108,9.193,4.583,8.075,4.979,7.322c0.26-0.493,0.878-0.754,1.791-0.754
		c0.477,0,1.016,0.071,1.604,0.21l0.151,0.036l-0.038,0.15C8.335,7.561,8.229,8.213,8.171,8.903L8.166,8.969L8.113,9.01
		c-0.561,0.441-1.059,0.902-1.476,1.369l-0.104,0.115V10.496z M6.77,6.875c-0.78,0-1.32,0.209-1.521,0.59
		c-0.306,0.582,0.178,1.57,1.265,2.597c0.394-0.426,0.85-0.845,1.357-1.249c0.055-0.625,0.15-1.219,0.282-1.771
		C7.646,6.932,7.182,6.875,6.77,6.875L6.77,6.875z"/>
	<path fill="#83CECA" d="M13.978,9.904c-0.416,0.464-0.919,0.934-1.495,1.388c-0.06,0.712-0.17,1.374-0.321,1.963
		c1.596,0.378,2.854,0.244,3.227-0.464C15.755,12.09,15.169,10.992,13.978,9.904L13.978,9.904z"/>
	<path fill="#039A88" d="M13.731,13.614L13.731,13.614c-0.477,0-1.017-0.071-1.604-0.21l-0.152-0.036l0.039-0.15
		c0.153-0.596,0.26-1.248,0.317-1.938l0.004-0.065l0.053-0.041c0.562-0.443,1.059-0.904,1.477-1.37l0.104-0.114l0.113,0.104
		c1.311,1.197,1.836,2.316,1.441,3.068c-0.26,0.494-0.879,0.755-1.791,0.755V13.614z M12.348,13.142
		c0.507,0.111,0.972,0.167,1.384,0.167c0.781,0,1.32-0.209,1.521-0.59c0.305-0.582-0.178-1.569-1.263-2.597
		c-0.395,0.426-0.85,0.845-1.358,1.25c-0.055,0.624-0.149,1.219-0.281,1.77H12.348z"/>
	<path fill="#83CECA" d="M11.509,11.995c-0.377,0.25-0.754,0.475-1.129,0.674c0.621,0.258,1.223,0.453,1.781,0.586
		c0.151-0.589,0.262-1.251,0.321-1.963c-0.306,0.239-0.632,0.475-0.976,0.701L11.509,11.995z"/>
	<path fill="#039A88" d="M12.272,13.438l-0.146-0.034c-0.578-0.137-1.186-0.338-1.806-0.593l-0.299-0.125l0.284-0.152
		c0.377-0.203,0.752-0.427,1.117-0.668c0.331-0.22,0.656-0.453,0.963-0.694l0.277-0.217l-0.027,0.35
		c-0.06,0.707-0.168,1.376-0.325,1.989L12.272,13.438z M10.736,12.647c0.448,0.174,0.889,0.315,1.313,0.424
		c0.109-0.453,0.191-0.938,0.246-1.444c-0.227,0.17-0.463,0.337-0.703,0.495C11.312,12.308,11.024,12.483,10.736,12.647z"/>
	<path fill="#83CECA" d="M8.992,8.188c0.376-0.249,0.754-0.474,1.128-0.675C9.5,7.256,8.898,7.061,8.339,6.928
		c-0.151,0.589-0.262,1.251-0.32,1.964C8.324,8.651,8.649,8.415,8.992,8.188L8.992,8.188z"/>
	<path fill="#039A88" d="M7.836,9.229l0.028-0.35C7.923,8.171,8.032,7.502,8.188,6.89l0.038-0.146l0.146,0.034
		c0.579,0.138,1.187,0.338,1.806,0.594l0.298,0.124l-0.284,0.152c-0.379,0.204-0.755,0.43-1.117,0.668
		C8.747,8.534,8.423,8.768,8.111,9.012L7.836,9.229L7.836,9.229z M8.45,7.113C8.342,7.565,8.259,8.05,8.205,8.557
		C8.435,8.385,8.67,8.218,8.909,8.062c0.278-0.185,0.566-0.36,0.856-0.526C9.316,7.361,8.875,7.221,8.45,7.113z"/>
	<path fill="#83CECA" d="M12.531,10.092c0,0.412-0.019,0.813-0.049,1.2c0.575-0.453,1.079-0.924,1.495-1.387
		c-0.429-0.391-0.938-0.782-1.508-1.153C12.509,9.182,12.531,9.631,12.531,10.092L12.531,10.092z"/>
	<path fill="#039A88" d="M12.301,11.63l0.028-0.35c0.032-0.393,0.049-0.794,0.049-1.188c0-0.443-0.021-0.89-0.062-1.326L12.288,8.45
		l0.264,0.172c0.57,0.371,1.085,0.765,1.529,1.169l0.111,0.103l-0.102,0.113c-0.429,0.479-0.939,0.953-1.515,1.406L12.301,11.63z
		 M12.647,9.054c0.023,0.344,0.037,0.691,0.037,1.038c0,0.286-0.008,0.573-0.025,0.861c0.407-0.339,0.776-0.687,1.102-1.037
		C13.427,9.621,13.054,9.332,12.647,9.054L12.647,9.054z"/>
	<path fill="#83CECA" d="M7.969,10.092c0-0.411,0.018-0.813,0.05-1.2c-0.576,0.453-1.08,0.924-1.495,1.387
		c0.429,0.393,0.938,0.783,1.509,1.154C7.992,11.002,7.97,10.552,7.969,10.092L7.969,10.092z"/>
	<path fill="#039A88" d="M8.213,11.733l-0.265-0.173c-0.572-0.372-1.087-0.766-1.528-1.169l-0.112-0.104l0.101-0.112
		C6.839,9.696,7.347,9.223,7.923,8.77l0.276-0.218L8.171,8.903C8.139,9.292,8.123,9.692,8.123,10.09c0,0.443,0.021,0.89,0.061,1.327
		l0.029,0.314V11.733z M6.738,10.268c0.334,0.295,0.707,0.583,1.113,0.862c-0.024-0.344-0.036-0.692-0.036-1.039
		c0-0.288,0.008-0.575,0.024-0.86C7.433,9.568,7.063,9.916,6.738,10.268L6.738,10.268z"/>
	<path fill="#83CECA" d="M12.47,8.751c-0.362-0.235-0.75-0.464-1.158-0.678c-0.399-0.211-0.799-0.396-1.19-0.559
		C9.748,7.716,9.369,7.941,8.993,8.189C8.649,8.417,8.324,8.652,8.019,8.893c-0.032,0.387-0.05,0.788-0.05,1.2
		c0,0.461,0.022,0.911,0.062,1.342c0.362,0.235,0.749,0.463,1.157,0.678c0.399,0.21,0.799,0.396,1.19,0.558
		c0.373-0.2,0.752-0.425,1.128-0.674c0.344-0.228,0.67-0.463,0.976-0.702c0.03-0.387,0.049-0.788,0.049-1.201
		C12.531,9.631,12.509,9.182,12.47,8.751L12.47,8.751z"/>
	<path fill="#039A88" d="M10.389,12.839l-0.067-0.027c-0.406-0.17-0.812-0.359-1.203-0.564c-0.399-0.211-0.793-0.441-1.17-0.687
		l-0.062-0.04l-0.008-0.074c-0.042-0.445-0.062-0.902-0.062-1.354c0-0.407,0.017-0.814,0.049-1.212L7.87,8.812l0.053-0.04
		c0.317-0.25,0.648-0.488,0.984-0.71c0.369-0.244,0.752-0.474,1.14-0.682l0.063-0.035l0.067,0.029
		c0.407,0.168,0.812,0.357,1.202,0.563c0.404,0.212,0.798,0.443,1.172,0.686l0.062,0.041l0.007,0.073
		c0.042,0.446,0.062,0.901,0.062,1.354c0,0.403-0.017,0.812-0.049,1.213l-0.006,0.066l-0.052,0.041
		c-0.313,0.246-0.645,0.486-0.983,0.709c-0.372,0.245-0.757,0.477-1.142,0.683l-0.064,0.034H10.389z M8.176,11.346
		c0.351,0.225,0.716,0.438,1.084,0.631c0.362,0.19,0.736,0.366,1.11,0.523c0.355-0.192,0.71-0.405,1.053-0.633
		c0.314-0.207,0.621-0.427,0.912-0.653c0.028-0.371,0.043-0.749,0.043-1.122c0-0.419-0.019-0.839-0.054-1.253
		c-0.348-0.225-0.712-0.436-1.083-0.631c-0.363-0.191-0.736-0.367-1.111-0.524C9.771,7.878,9.418,8.091,9.076,8.316
		C8.767,8.521,8.46,8.741,8.165,8.971C8.137,9.34,8.122,9.716,8.122,10.092C8.122,10.511,8.141,10.933,8.176,11.346z"/>
	<path fill="#039A88" d="M12.077,5.161c0,0.384-0.311,0.694-0.695,0.694c-0.382,0-0.692-0.311-0.692-0.694
		c0-0.383,0.311-0.693,0.692-0.693C11.767,4.468,12.077,4.778,12.077,5.161z"/>
	<path fill="#039A88" d="M7.233,13.714c0,0.384-0.312,0.694-0.694,0.694s-0.693-0.311-0.693-0.694s0.311-0.694,0.693-0.694
		S7.233,13.33,7.233,13.714z"/>
	<path fill="#039A88" d="M12.579,10.567c-0.383,0-0.694,0.311-0.694,0.694c0,0.382,0.312,0.694,0.694,0.694
		c0.385,0,0.694-0.312,0.694-0.694C13.273,10.878,12.963,10.567,12.579,10.567z"/>
</g>
</svg>
