<?xml version="1.0" encoding="utf-8"?>
<!-- Generator: Adobe Illustrator 16.0.0, SVG Export Plug-In . SVG Version: 6.00 Build 0)  -->
<!DOCTYPE svg PUBLIC "-//W3C//DTD SVG 1.1//EN" "http://www.w3.org/Graphics/SVG/1.1/DTD/svg11.dtd">
<svg version="1.1" id="Layer_1" xmlns="http://www.w3.org/2000/svg" xmlns:xlink="http://www.w3.org/1999/xlink" x="0px" y="0px"
	 width="20px" height="20px" viewBox="0 0 20 20" enable-background="new 0 0 20 20" xml:space="preserve">
<g>
	<path fill="#EA4949" d="M19.689,10c0-5.353-4.338-9.69-9.689-9.69c-5.351,0-9.69,4.338-9.69,9.69c0,5.351,4.338,9.69,9.69,9.69
		S19.69,15.352,19.689,10L19.689,10z"/>
	<path fill="#B5B5B5" d="M6.557,8.73l1.762,2.157l-0.89,0.728L5.667,9.458L6.557,8.73z"/>
	<path fill="#B5B5B5" d="M10.737,7.823l-1.552,3.742l-1.062-0.44l1.551-3.742L10.737,7.823z"/>
	<path fill="#B5B5B5" d="M13.16,6.617c0,1.516-1.229,2.745-2.745,2.745c-1.516,0-2.745-1.229-2.745-2.745
		c0-1.516,1.229-2.744,2.745-2.744C11.932,3.873,13.16,5.102,13.16,6.617z"/>
	<path fill="#DDDDDD" d="M12.841,6.602c0,1.331-1.078,2.41-2.409,2.41s-2.409-1.079-2.409-2.41c0-1.33,1.079-2.409,2.409-2.409
		C11.763,4.192,12.841,5.271,12.841,6.602z"/>
	<path fill="#A5A4A4" d="M10.96,6.602c0,0.292-0.236,0.529-0.528,0.529c-0.292,0-0.528-0.237-0.528-0.529
		c0-0.292,0.237-0.528,0.528-0.528C10.724,6.073,10.96,6.31,10.96,6.602z"/>
	<path fill="#D3D3D3" d="M10.821,6.602c0,0.215-0.175,0.39-0.39,0.39c-0.215,0-0.39-0.175-0.39-0.39c0-0.215,0.175-0.39,0.39-0.39
		C10.646,6.212,10.821,6.387,10.821,6.602z"/>
	<path fill="#A09F9F" d="M10.999,5.175c0,0.313-0.255,0.567-0.567,0.567c-0.313,0-0.567-0.254-0.567-0.567s0.254-0.567,0.567-0.567
		C10.744,4.608,10.999,4.862,10.999,5.175z"/>
	<path fill="#A09F9F" d="M10.09,7.753c0,0.313-0.254,0.567-0.567,0.567S8.956,8.067,8.956,7.753c0-0.313,0.254-0.567,0.567-0.567
		S10.09,7.44,10.09,7.753z"/>
	<path fill="#A09F9F" d="M11.855,7.753c0,0.313-0.255,0.567-0.567,0.567c-0.313,0-0.567-0.254-0.567-0.567
		c0-0.313,0.254-0.567,0.567-0.567C11.601,7.187,11.855,7.44,11.855,7.753z"/>
	<path fill="#A09F9F" d="M9.625,6.2c0,0.313-0.254,0.567-0.567,0.567c-0.313,0-0.567-0.254-0.567-0.567
		c0-0.313,0.254-0.567,0.567-0.567C9.372,5.633,9.625,5.887,9.625,6.2z"/>
	<path fill="#A09F9F" d="M12.373,6.2c0,0.313-0.254,0.567-0.567,0.567S11.238,6.513,11.238,6.2s0.254-0.567,0.567-0.567
		S12.373,5.887,12.373,6.2z"/>
	<path fill="#3A3A38" d="M10.432,5.743c0.313,0,0.567-0.254,0.567-0.567c0-0.067-0.012-0.133-0.033-0.193
		c-0.168-0.055-0.348-0.085-0.534-0.085s-0.365,0.03-0.534,0.085c-0.021,0.06-0.034,0.125-0.034,0.193
		C9.864,5.489,10.118,5.743,10.432,5.743L10.432,5.743z"/>
	<path fill="#3A3A38" d="M10.09,7.753c0-0.313-0.254-0.567-0.567-0.567c-0.234,0-0.435,0.141-0.521,0.343
		c0.202,0.312,0.503,0.553,0.86,0.679C10,8.105,10.09,7.94,10.09,7.753L10.09,7.753z"/>
	<path fill="#3A3A38" d="M11.288,7.187c-0.313,0-0.567,0.254-0.567,0.567c0,0.194,0.097,0.365,0.245,0.467
		c0.353-0.116,0.653-0.343,0.861-0.641C11.754,7.352,11.54,7.187,11.288,7.187L11.288,7.187z"/>
	<path fill="#3A3A38" d="M9.625,6.2c0-0.313-0.254-0.567-0.567-0.567c-0.01,0-0.02,0-0.029,0.001
		c-0.19,0.275-0.302,0.609-0.302,0.968c0,0.02,0.001,0.04,0.002,0.06c0.093,0.066,0.207,0.105,0.33,0.105
		C9.372,6.768,9.625,6.514,9.625,6.2L9.625,6.2z"/>
	<path fill="#3A3A38" d="M11.238,6.2c0,0.313,0.254,0.567,0.567,0.567c0.123,0,0.236-0.039,0.329-0.105
		c0.001-0.02,0.002-0.04,0.002-0.06c0-0.359-0.111-0.693-0.302-0.968c-0.01-0.001-0.02-0.001-0.029-0.001
		C11.492,5.633,11.238,5.887,11.238,6.2L11.238,6.2z"/>
	<path fill="#B5B5B5" d="M7.438,7.722c0,1.262-1.023,2.285-2.285,2.285S2.868,8.984,2.868,7.722c0-1.262,1.023-2.285,2.285-2.285
		S7.438,6.46,7.438,7.722z"/>
	<path fill="#DDDDDD" d="M7.161,7.722c0,1.109-0.899,2.008-2.009,2.008S3.144,8.831,3.144,7.722c0-1.109,0.899-2.009,2.008-2.009
		S7.161,6.613,7.161,7.722z"/>
	<path fill="#A5A4A4" d="M5.593,7.722c0,0.243-0.198,0.44-0.441,0.44s-0.44-0.197-0.44-0.44c0-0.243,0.197-0.441,0.44-0.441
		S5.593,7.479,5.593,7.722z"/>
	<path fill="#D3D3D3" d="M5.478,7.722c0,0.179-0.146,0.325-0.325,0.325S4.828,7.902,4.828,7.722s0.146-0.326,0.325-0.326
		C5.333,7.396,5.478,7.542,5.478,7.722z"/>
	<path fill="#A09F9F" d="M5.625,6.533c0,0.262-0.211,0.473-0.473,0.473S4.68,6.794,4.68,6.533c0-0.261,0.211-0.473,0.473-0.473
		S5.625,6.272,5.625,6.533z"/>
	<path fill="#A09F9F" d="M4.868,8.682c0,0.261-0.211,0.473-0.473,0.473S3.922,8.943,3.922,8.682s0.211-0.473,0.473-0.473
		S4.868,8.421,4.868,8.682z"/>
	<path fill="#A09F9F" d="M6.339,8.682c0,0.261-0.211,0.473-0.473,0.473S5.394,8.943,5.394,8.682s0.211-0.473,0.473-0.473
		S6.339,8.421,6.339,8.682z"/>
	<path fill="#A09F9F" d="M4.48,7.387c0,0.261-0.212,0.473-0.473,0.473c-0.261,0-0.473-0.211-0.473-0.473s0.211-0.473,0.473-0.473
		C4.269,6.915,4.48,7.126,4.48,7.387z"/>
	<path fill="#A09F9F" d="M6.771,7.387c0,0.261-0.211,0.473-0.473,0.473c-0.261,0-0.473-0.211-0.473-0.473s0.211-0.473,0.473-0.473
		C6.56,6.915,6.771,7.126,6.771,7.387z"/>
	<path fill="#3A3A38" d="M5.152,7.006c0.261,0,0.473-0.211,0.473-0.473c0-0.056-0.01-0.11-0.028-0.16
		c-0.14-0.046-0.29-0.072-0.445-0.072c-0.156,0-0.305,0.025-0.445,0.072c-0.018,0.05-0.028,0.104-0.028,0.16
		C4.679,6.794,4.891,7.006,5.152,7.006L5.152,7.006z"/>
	<path fill="#3A3A38" d="M4.868,8.682c0-0.261-0.211-0.473-0.473-0.473c-0.195,0-0.362,0.118-0.435,0.286
		c0.168,0.259,0.42,0.46,0.717,0.566C4.793,8.975,4.868,8.837,4.868,8.682L4.868,8.682z"/>
	<path fill="#3A3A38" d="M5.866,8.209c-0.261,0-0.473,0.211-0.473,0.473c0,0.162,0.081,0.304,0.205,0.39
		c0.293-0.097,0.544-0.287,0.718-0.534C6.255,8.347,6.077,8.21,5.866,8.209L5.866,8.209z"/>
	<path fill="#3A3A38" d="M4.48,7.387c0-0.261-0.212-0.473-0.473-0.473c-0.009,0-0.017,0-0.025,0
		C3.824,7.145,3.731,7.422,3.731,7.722c0,0.017,0.001,0.033,0.001,0.05C3.81,7.827,3.905,7.86,4.007,7.86
		C4.269,7.86,4.48,7.648,4.48,7.387L4.48,7.387z"/>
	<path fill="#3A3A38" d="M5.825,7.387c0,0.261,0.211,0.473,0.473,0.473c0.103,0,0.197-0.032,0.274-0.088
		c0.001-0.017,0.001-0.033,0.001-0.05c0-0.3-0.093-0.578-0.251-0.807c-0.008,0-0.017,0-0.024,0C6.037,6.915,5.825,7.126,5.825,7.387
		z"/>
	<path fill="#A5A4A4" d="M7.637,12.078c0,0.223-0.181,0.403-0.404,0.403H3.698c-0.223,0-0.404-0.181-0.404-0.403v-0.371
		c0-0.223,0.181-0.404,0.404-0.404h3.535c0.224,0,0.404,0.182,0.404,0.404V12.078z"/>
	<path fill="#A5A4A4" d="M3.762,12.19c0,0.357-0.181,0.647-0.404,0.647H2.985c-0.223,0-0.404-0.29-0.404-0.647v-0.595
		c0-0.358,0.181-0.648,0.404-0.648h0.373c0.223,0,0.404,0.29,0.404,0.648V12.19z"/>
	<path fill="#B5B5B5" d="M13.241,14.622c0,0.442-0.358,0.802-0.802,0.802H5.424c-0.443,0-0.802-0.359-0.802-0.802v-3.608
		c0-0.442,0.359-0.802,0.802-0.802h7.016c0.443,0,0.802,0.359,0.802,0.802V14.622z"/>
	<path fill="#8E8E8E" d="M5.424,10.212c-0.443,0-0.802,0.359-0.802,0.802v3.608c0,0.442,0.359,0.802,0.802,0.802h0.535v-5.212H5.424
		z"/>
	<path fill="#B5B5B5" d="M15.78,12.283c0,0.443-0.358,0.802-0.802,0.802H7.962c-0.442,0-0.802-0.358-0.802-0.802v-0.734
		c0-0.443,0.359-0.802,0.802-0.802h7.016c0.442,0,0.802,0.358,0.802,0.802V12.283L15.78,12.283z"/>
	<path fill="#515151" d="M17.332,9.424c-0.053-0.03-0.117-0.029-0.168,0.003l-2.139,1.306c-0.05,0.031-0.08,0.085-0.08,0.144v2.078
		c0,0.059,0.03,0.112,0.08,0.143l2.139,1.307c0.026,0.017,0.057,0.024,0.087,0.024c0.028,0,0.056-0.007,0.082-0.021
		c0.053-0.03,0.085-0.086,0.085-0.146V9.57C17.418,9.51,17.385,9.454,17.332,9.424L17.332,9.424z"/>
	<path fill="#8E8E8E" d="M7.76,11.429c0-0.098,0.103-0.178,0.202-0.178h2.879c0.099,0,0.178,0.08,0.178,0.178v1.511
		c0,0.099-0.079,0.178-0.178,0.178H7.961c-0.099,0-0.202-0.079-0.202-0.178V11.429z"/>
	<path fill="#8E8E8E" d="M6.39,14.339c0-0.098,0.103-0.178,0.201-0.178h5.906c0.098,0,0.178,0.08,0.178,0.178v0.589
		c0,0.098-0.08,0.177-0.178,0.177H6.591c-0.098,0-0.201-0.079-0.201-0.177V14.339z"/>
	<path fill="#3A3A38" d="M9.899,14.636c0,0.204-0.166,0.37-0.37,0.37s-0.37-0.166-0.37-0.37c0-0.205,0.166-0.371,0.37-0.371
		S9.899,14.431,9.899,14.636z"/>
</g>
</svg>
