<?xml version="1.0" encoding="utf-8"?>
<!-- Generated by IcoMoon.io -->
<!DOCTYPE svg PUBLIC "-//W3C//DTD SVG 1.1//EN" "http://www.w3.org/Graphics/SVG/1.1/DTD/svg11.dtd">
<svg version="1.1" xmlns="http://www.w3.org/2000/svg" xmlns:xlink="http://www.w3.org/1999/xlink" width="20" height="20" viewBox="0 0 20 20">
<path fill="rgb(234, 73, 73)" d="M0.309 10c0-5.352 4.339-9.691 9.69-9.691s9.691 4.338 9.691 9.691c0 5.352-4.339 9.69-9.691 9.69s-9.69-4.339-9.69-9.69z"></path>
<path fill="rgb(214, 148, 114)" d="M8.017 2.488c0 0-0.298 2.752-0.785 3.415 0 0-0.177 0.42-0.663 0.508 0 0-1.304-0.022-1.592 0.398 0 0-0.497 0.531-0.055 1.691 0.111 0.292 0.232 0.674 0.696 1.161 0 0 0.398 0.553 0.177 1.304 0 0-0.553 1.304-0.818 1.813 0 0-0.531 1.039-0.155 1.702 0 0 0.343 0.619 1.105 0.265s2.52-3.294 3.006-4.421c0 0 0.884-2.564 1.017-4.045l-0.111-3.758-1.824-0.033z"></path>
<path fill="rgb(238, 216, 203)" d="M6.569 6.411c0 0-1.304-0.022-1.592 0.398 0 0-0.497 0.531-0.055 1.691 0.111 0.292 0.232 0.674 0.696 1.161 0 0 0.398 0.553 0.177 1.304 0 0-0.553 1.304-0.818 1.813 0 0-0.531 1.039-0.155 1.702 0 0 0.343 0.619 1.105 0.265 0.504-0.234 1.442-1.597 2.161-2.82 0.369-0.628-1.034-5.602-1.52-5.514z"></path>
<path fill="rgb(238, 216, 203)" d="M7.685 9.882c0.55 0 1.17-0.155 1.472-0.242-0.13 0.414-0.223 0.684-0.223 0.684-0.003 0.007-0.006 0.013-0.009 0.020-0.57 0.127-1.257 0.218-1.257 0.218l0.017-0.68z"></path>
<path fill="rgb(238, 216, 203)" d="M7.071 8.224l-0.033-0.564c1.426-0.012 2.119 0.735 2.378 1.113-0.067 0.235-0.133 0.457-0.194 0.655-0.775-1.091-2.151-1.204-2.151-1.204z"></path>
<path fill="rgb(219, 183, 165)" d="M6.569 6.411c0 0-0.068-0.001-0.177 0.002 0 0 0.531 0.816 1.039 2.507 0.478 1.59 0.564 3.164 0.564 3.164 0.032-0.053 0.063-0.106 0.094-0.159 0.369-0.628-1.034-5.602-1.52-5.514z"></path>
<path fill="rgb(238, 216, 203)" d="M14.14 10.112c0.223 0.589 0.403 1.18 0.475 1.693 0 0 1.027 5.174-0.166 5.57-0.766 0.255-1.156-0.019-1.492-0.332 0 0-0.796-0.696-1.061-2.122 0 0-0.398-1.459-0.398-2.852 0 0-0.265-1.592-0.232-2.255 0 0 2.275-1.285 2.874 0.296z"></path>
<path fill="rgb(223, 161, 124)" d="M14.615 11.805c0 0 0.080 1.35-0.481 1.956-0.202 0.219-0.939 0.315-1.227 0.182-1.056-0.487-1.655-3.851-1.641-4.128 0 0-0.895-2.421-1.227-3.017 0 0-1.999-3.92-2.843-6.076 0.888-0.268 1.828-0.412 2.803-0.412 0.421 0 0.836 0.027 1.244 0.079 0.253 1.466 1 5.675 1.382 6.575 0-0 1.724 2.951 1.989 4.841z"></path>
<path fill="rgb(219, 183, 165)" d="M12.907 13.944c0.287 0.133 1.024 0.037 1.227-0.182 0.561-0.607 0.481-1.956 0.481-1.956s0.42 1.547-0.553 2.299c0 0-0.818 0.42-1.415 0-0.953-0.67-1.415-3.625-1.382-4.288-0.014 0.277 0.585 3.641 1.641 4.128z"></path>
<path fill="rgb(193, 192, 187)" d="M5.066 7.594c0.116 0.182 0.621 1.292 0.486 1.995-0.409-0.452-0.524-0.811-0.63-1.088-0.159-0.419-0.196-0.755-0.179-1.014 0.067-0.041 0.206-0.075 0.323 0.108z"></path>
<path fill="rgb(193, 192, 187)" d="M4.765 13.357c0.086-0.331 0.212-0.58 0.212-0.58 0.027-0.051 0.056-0.11 0.088-0.175 0.189-0.388 0.45-0.986 0.604-1.342 0.078 0.062 0.194 0.214 0.027 0.512 0 0-0.448 0.995-0.547 1.194 0 0-0.241 0.542-0.457 0.837 0.009-0.155 0.038-0.307 0.074-0.446z"></path>
<path fill="rgb(224, 206, 198)" d="M14.233 10.364c0.108 0.304 0.203 0.605 0.274 0.893-0.622 0.429-2.034 1.095-2.55 1.333-0.076-0.19-0.145-0.388-0.209-0.588 1.375-0.508 2.175-1.287 2.485-1.638z"></path>
<path fill="rgb(238, 216, 203)" d="M14.591 11.652c-0.657-0.182-2.514-0.566-3.126-0.691-0.038-0.165-0.071-0.32-0.098-0.461l3.043 0.401c0.077 0.26 0.14 0.512 0.181 0.751z"></path>
</svg>
