<?xml version="1.0" encoding="utf-8"?>
<!-- Generated by IcoMoon.io -->
<!DOCTYPE svg PUBLIC "-//W3C//DTD SVG 1.1//EN" "http://www.w3.org/Graphics/SVG/1.1/DTD/svg11.dtd">
<svg version="1.1" xmlns="http://www.w3.org/2000/svg" xmlns:xlink="http://www.w3.org/1999/xlink" width="20" height="20" viewBox="0 0 20 20">
<path fill="rgb(51, 77, 92)" d="M19.691 10c0-5.352-4.339-9.691-9.69-9.691s-9.691 4.338-9.691 9.691c0 5.352 4.339 9.69 9.691 9.69s9.69-4.339 9.69-9.69z"></path>
<path fill="rgb(206, 206, 206)" d="M17.67 9.384l-3.762-2.96c0 0-0.379-0.218-0.531 0.191 0 0-0.382 1.115-0.496 1.507-0.18 0.556 0.21 1.117 0.572 0.348l0.328-0.764 1.188 1.146c0 0 0.179 0.129 0.219 0.538l2.481-0.006z"></path>
<path fill="rgb(206, 206, 206)" d="M2.32 9.384l3.762-2.96c0 0 0.379-0.218 0.531 0.191 0 0 0.382 1.115 0.496 1.507 0.18 0.556-0.21 1.117-0.572 0.348l-0.328-0.764-1.188 1.146c0 0-0.179 0.129-0.219 0.538l-2.481-0.006z"></path>
<path fill="rgb(229, 229, 229)" d="M17.562 9.35h-15.124c-0.136 0-0.246 0.119-0.246 0.265v3.752c0 0.146 0.11 0.265 0.246 0.265h6.141c0.158 0 0.265-0.103 0.303-0.235 0.321-1.135 0.853-1.41 1.119-1.41s0.806 0.264 1.126 1.427c0.030 0.109 0.118 0.218 0.295 0.218h6.14c0.136 0 0.246-0.119 0.246-0.265v-3.752c-0-0.147-0.11-0.265-0.246-0.265z"></path>
<path fill="rgb(206, 15, 30)" d="M16.899 11.562c0 0.76-0.504 1.376-1.127 1.376h-2.598c-0.622 0-1.127-0.616-1.127-1.376v-0.115c0-0.76 0.505-1.376 1.127-1.376h2.598c0.622 0 1.127 0.616 1.127 1.376v0.115z"></path>
<path fill="rgb(226, 23, 48)" d="M13.174 12.938c-0.622 0-1.127-0.616-1.127-1.376v-0.115c0-0.76 0.505-1.376 1.127-1.376h2.598l-2.598 2.867z"></path>
<path fill="rgb(3, 190, 205)" d="M8.005 11.562c0 0.76-0.504 1.376-1.127 1.376h-2.598c-0.622 0-1.127-0.616-1.127-1.376v-0.115c0-0.76 0.505-1.376 1.127-1.376h2.598c0.622 0 1.127 0.616 1.127 1.376v0.115z"></path>
<path fill="rgb(14, 211, 216)" d="M4.277 12.938c-0.622 0-1.127-0.616-1.127-1.376v-0.115c0-0.76 0.505-1.376 1.127-1.376h2.598l-2.598 2.867z"></path>
</svg>
