<?xml version="1.0" encoding="utf-8"?>
<!-- Generated by IcoMoon.io -->
<!DOCTYPE svg PUBLIC "-//W3C//DTD SVG 1.1//EN" "http://www.w3.org/Graphics/SVG/1.1/DTD/svg11.dtd">
<svg version="1.1" xmlns="http://www.w3.org/2000/svg" xmlns:xlink="http://www.w3.org/1999/xlink" width="20" height="20" viewBox="0 0 20 20">
<path fill="rgb(51, 77, 92)" d="M19.691 10c0-5.352-4.339-9.691-9.69-9.691s-9.691 4.338-9.691 9.691c0 5.352 4.339 9.69 9.691 9.69s9.69-4.339 9.69-9.69z"></path>
<path fill="rgb(226, 186, 19)" d="M7.667 3.979c-0.347 0.403-0.317 0.999 0.068 1.33 0.155 0.133 0.344 0.203 0.537 0.213 0.052 0.113 0.127 0.217 0.227 0.302 0.385 0.331 0.978 0.273 1.325-0.131 0.166-0.193 0.245-0.429 0.242-0.659 0.088-0.053 0.169-0.121 0.24-0.204 0.347-0.403 0.317-0.999-0.068-1.33s-0.978-0.273-1.325 0.131c-0.030 0.034-0.056 0.070-0.080 0.107-0.375-0.2-0.863-0.111-1.165 0.24z"></path>
<path fill="rgb(237, 201, 47)" d="M10.742 3.531c-0.422 0.026-0.743 0.374-0.718 0.776 0.010 0.162 0.075 0.308 0.177 0.423-0.036 0.092-0.053 0.192-0.046 0.296 0.025 0.402 0.388 0.707 0.809 0.68 0.201-0.013 0.38-0.098 0.508-0.228 0.079 0.020 0.163 0.029 0.249 0.024 0.422-0.026 0.743-0.374 0.718-0.776s-0.388-0.707-0.809-0.68c-0.036 0.002-0.071 0.007-0.105 0.014-0.094-0.324-0.416-0.552-0.783-0.529z"></path>
<path fill="rgb(239, 211, 91)" d="M7.133 5.995c0-0.423-0.327-0.765-0.73-0.765-0.162 0-0.312 0.056-0.434 0.15-0.090-0.041-0.189-0.064-0.293-0.064-0.403 0-0.73 0.343-0.73 0.765 0 0.202 0.075 0.385 0.196 0.522-0.025 0.078-0.039 0.161-0.039 0.247 0 0.423 0.327 0.765 0.73 0.765s0.73-0.343 0.73-0.765c0-0.036-0.003-0.071-0.007-0.106 0.329-0.074 0.577-0.381 0.577-0.748z"></path>
<path fill="rgb(249, 229, 149)" d="M7.953 6.397c0.422-0.024 0.745-0.37 0.722-0.772-0.009-0.162-0.074-0.309-0.174-0.424 0.036-0.092 0.053-0.192 0.047-0.296-0.023-0.402-0.384-0.709-0.806-0.684-0.201 0.012-0.38 0.096-0.51 0.226-0.079-0.021-0.163-0.030-0.249-0.025-0.422 0.024-0.745 0.37-0.722 0.772s0.384 0.709 0.806 0.684c0.036-0.002 0.071-0.007 0.105-0.013 0.092 0.325 0.413 0.554 0.78 0.533z"></path>
<path fill="rgb(239, 211, 91)" d="M14.359 7.251c0.422-0.024 0.745-0.37 0.722-0.772-0.009-0.162-0.074-0.309-0.174-0.424 0.036-0.092 0.053-0.192 0.048-0.296-0.023-0.402-0.384-0.709-0.806-0.684-0.201 0.012-0.38 0.096-0.51 0.226-0.079-0.021-0.162-0.030-0.249-0.025-0.422 0.024-0.745 0.37-0.722 0.772s0.384 0.709 0.806 0.684c0.036-0.002 0.071-0.007 0.105-0.013 0.092 0.325 0.413 0.554 0.78 0.533z"></path>
<path fill="rgb(239, 211, 91)" d="M8.285 7.109c0.422-0.024 0.745-0.37 0.722-0.772-0.009-0.162-0.074-0.309-0.174-0.424 0.036-0.092 0.053-0.192 0.048-0.296-0.023-0.402-0.384-0.709-0.806-0.684-0.201 0.012-0.38 0.096-0.51 0.226-0.079-0.021-0.163-0.030-0.249-0.025-0.422 0.024-0.745 0.37-0.722 0.772s0.384 0.709 0.806 0.684c0.036-0.002 0.071-0.007 0.105-0.013 0.092 0.325 0.413 0.554 0.78 0.533z"></path>
<path fill="rgb(239, 211, 91)" d="M10.041 6.255c0.422-0.024 0.745-0.37 0.722-0.772-0.009-0.162-0.074-0.309-0.174-0.424 0.036-0.092 0.053-0.192 0.047-0.296-0.023-0.402-0.384-0.709-0.806-0.684-0.201 0.012-0.38 0.096-0.51 0.226-0.079-0.021-0.162-0.030-0.249-0.025-0.422 0.024-0.745 0.37-0.722 0.772s0.384 0.709 0.806 0.684c0.036-0.002 0.071-0.007 0.105-0.013 0.093 0.325 0.413 0.554 0.78 0.533z"></path>
<path fill="rgb(239, 211, 91)" d="M13.742 5.825c0.24-0.348 0.166-0.815-0.166-1.044-0.134-0.092-0.289-0.131-0.442-0.123-0.050-0.085-0.119-0.16-0.205-0.219-0.332-0.229-0.795-0.132-1.035 0.216-0.115 0.166-0.157 0.359-0.135 0.541-0.065 0.050-0.123 0.11-0.172 0.181-0.24 0.348-0.166 0.815 0.166 1.044s0.795 0.132 1.035-0.216c0.020-0.030 0.038-0.060 0.054-0.091 0.313 0.126 0.691 0.014 0.899-0.288z"></path>
<path fill="rgb(239, 211, 91)" d="M10.394 5.998c0.051-0.42-0.232-0.799-0.632-0.847-0.161-0.019-0.317 0.018-0.448 0.097-0.084-0.052-0.18-0.087-0.283-0.099-0.4-0.048-0.765 0.253-0.816 0.672-0.024 0.2 0.028 0.391 0.132 0.541-0.034 0.074-0.058 0.155-0.068 0.24-0.051 0.42 0.232 0.799 0.632 0.847s0.765-0.253 0.816-0.672c0.004-0.036 0.006-0.071 0.006-0.106 0.336-0.034 0.618-0.309 0.662-0.674z"></path>
<path fill="rgb(249, 229, 149)" d="M9.335 6.609c-0.051 0.475 0.276 0.899 0.729 0.947 0.182 0.019 0.358-0.025 0.505-0.117 0.096 0.057 0.204 0.095 0.322 0.107 0.453 0.048 0.861-0.298 0.912-0.773 0.024-0.227-0.038-0.442-0.158-0.61 0.038-0.084 0.063-0.176 0.073-0.273 0.051-0.475-0.276-0.899-0.728-0.947s-0.861 0.298-0.912 0.773c-0.004 0.040-0.006 0.080-0.005 0.12-0.379 0.043-0.694 0.359-0.738 0.772z"></path>
<path fill="rgb(239, 211, 91)" d="M13.205 6.623c0.244-0.345 0.176-0.813-0.153-1.046-0.133-0.094-0.287-0.135-0.44-0.128-0.049-0.086-0.117-0.162-0.202-0.222-0.329-0.233-0.793-0.142-1.038 0.203-0.117 0.165-0.162 0.357-0.141 0.539-0.065 0.049-0.125 0.108-0.175 0.179-0.244 0.345-0.176 0.813 0.153 1.046s0.793 0.142 1.038-0.203c0.021-0.029 0.039-0.060 0.055-0.091 0.311 0.13 0.69 0.023 0.903-0.277z"></path>
<path fill="rgb(229, 221, 215)" d="M15.277 5.929c-0.028-0.027-0.067-0.038-0.105-0.030l-0.595-0.262-0.66 0.528-0.746-0.23-0.577 0.511-0.671-0.246-0.603 0.516-0.626-0.255-0.694 0.536-0.754-0.548-0.562 0.269-0.705-0.538-0.599 0.261-0.656-0.528-0.636 0.253-0.63-0.522-0.63 0.254c-0.038-0.008-0.077 0.003-0.105 0.030s-0.041 0.066-0.035 0.104l1.585 9.519c0.007 0.044 0.039 0.080 0.081 0.093l3.608 1.102c0.001 0 0.001 0 0.002 0.001l0.001 0c0.002 0.001 0.003 0.001 0.005 0.001 0.004 0.001 0.008 0.002 0.012 0.003s0.008 0.001 0.012 0.001c0.002 0 0.003 0 0.005 0h0c0.002 0 0.003-0 0.005-0 0.004-0 0.008-0 0.012-0.001s0.008-0.002 0.012-0.003c0.002-0 0.003-0.001 0.005-0.001l0.001-0c0.001-0 0.001-0 0.002-0.001l3.608-1.102c0.043-0.013 0.074-0.049 0.081-0.093l1.585-9.519c0.006-0.038-0.006-0.077-0.034-0.104z"></path>
<path fill="rgb(229, 221, 215)" d="M10 16.635v-0h-0z"></path>
<path fill="rgb(229, 221, 215)" d="M10 16.635l0-0h-0z"></path>
<path fill="rgb(229, 221, 215)" d="M10 7.117l-0 0 0 9.518h0v-9.518z"></path>
<path fill="rgb(234, 73, 73)" d="M5.094 6.075l1.497 9.519 0.573 0.175-1.245-9.519-0.422-0.418z"></path>
<path fill="rgb(234, 73, 73)" d="M6.355 6.343l1.112 9.519 0.573 0.175-0.86-9.519-0.392-0.411z"></path>
<path fill="rgb(234, 73, 73)" d="M7.617 6.611l0.727 9.519 0.573 0.175-0.476-9.519-0.465-0.427z"></path>
<path fill="rgb(234, 73, 73)" d="M8.879 6.879l0.342 9.519 0.573 0.175-0.091-9.519-0.438-0.421z"></path>
<path fill="rgb(191, 23, 23)" d="M10.337 7.045l-0.103 9.519 0.573-0.175 0.354-9.519-0.467-0.229z"></path>
<path fill="rgb(191, 23, 23)" d="M11.599 6.777l-0.488 9.519 0.573-0.175 0.739-9.519-0.454-0.231z"></path>
<path fill="rgb(191, 23, 23)" d="M12.86 6.509l-0.873 9.519 0.573-0.175 1.124-9.519-0.449-0.232z"></path>
<path fill="rgb(191, 23, 23)" d="M14.122 6.241l-1.257 9.519 0.573-0.175 1.509-9.519-0.467-0.229z"></path>
</svg>
