<?xml version="1.0" encoding="utf-8"?>
<!-- Generated by IcoMoon.io -->
<!DOCTYPE svg PUBLIC "-//W3C//DTD SVG 1.1//EN" "http://www.w3.org/Graphics/SVG/1.1/DTD/svg11.dtd">
<svg version="1.1" xmlns="http://www.w3.org/2000/svg" xmlns:xlink="http://www.w3.org/1999/xlink" width="20" height="20" viewBox="0 0 20 20">
<path fill="rgb(250, 188, 61)" d="M19.691 10c0-5.352-4.339-9.691-9.691-9.691s-9.691 4.338-9.691 9.691c0 5.352 4.339 9.69 9.691 9.69s9.691-4.339 9.691-9.69z"></path>
<path fill="rgb(58, 58, 56)" d="M8.103 5.456c-0.156 0.47 2.352 8.175 5.61 7.438s2.203-8.771 1.86-9.129c-0.776 0.744-2.192 1.426-3.534 1.73s-2.914 0.299-3.935-0.039z"></path>
<path fill="rgb(255, 255, 255)" d="M14.966 10.655c0.062-0.245-0.669-1.353-1.998-1.052s-1.511 1.615-1.35 1.81c0 0 0.385-0.492 1.587-0.764s1.761 0.006 1.761 0.006z"></path>
<path fill="rgb(255, 255, 255)" d="M11.643 7.297c0.108 0.271-0.286 0.278-0.708 0.448s-0.708 0.448-0.821 0.165c-0.113-0.282 0.182-0.537 0.604-0.707s0.817-0.177 0.925 0.094z"></path>
<path fill="rgb(255, 255, 255)" d="M13.035 6.982c0.019 0.291 0.378 0.128 0.832 0.099s0.832 0.099 0.813-0.205c-0.020-0.304-0.396-0.406-0.85-0.377s-0.813 0.192-0.795 0.483z"></path>
<path fill="rgb(229, 170, 23)" d="M11.585 8.369c-0.065-0.147-0.237-0.214-0.384-0.149-0.679 0.299-1.671 0.471-2.722 0.471-0.384 0-0.761-0.023-1.121-0.069-1.36-0.173-2.814-0.717-3.619-1.353-0.126-0.1-0.309-0.078-0.409 0.048-0.047 0.060-0.146 0.184-0.205 1.010-0.038 0.531-0.046 1.179-0.021 1.826 0.039 1.021 0.197 2.962 0.82 4.487 0.555 1.359 1.356 2.115 2.38 2.246 0.099 0.013 0.199 0.019 0.298 0.019 1.027 0 1.986-0.673 2.851-1.999 0.881-1.351 1.446-3.059 1.704-3.957 0.025-0.088 0.616-2.152 0.428-2.579z"></path>
<path fill="rgb(58, 58, 56)" d="M3.639 7.592c-0.307 0.389-0.59 8.486 2.724 8.909s5.073-7.487 4.873-7.94c-0.984 0.434-2.548 0.589-3.913 0.415s-2.84-0.717-3.684-1.384z"></path>
<path fill="rgb(255, 255, 255)" d="M5.024 13.162c-0.145 0.213 0.114 1.959 1.492 2.135s2.067-1.449 1.98-1.692c0 0-0.595 0.766-1.842 0.607s-1.631-1.050-1.631-1.050z"></path>
<path fill="rgb(255, 255, 255)" d="M6.334 10.534c0.009 0.291-0.364 0.164-0.819 0.178s-0.819 0.178-0.828-0.126c-0.010-0.304 0.355-0.442 0.81-0.457s0.828 0.113 0.837 0.405z"></path>
<path fill="rgb(255, 255, 255)" d="M7.75 10.715c-0.082 0.28 0.311 0.25 0.748 0.378s0.748 0.378 0.834 0.086c0.086-0.292-0.233-0.517-0.669-0.646s-0.83-0.098-0.912 0.182z"></path>
</svg>
