<?xml version="1.0" encoding="utf-8"?>
<!-- Generated by IcoMoon.io -->
<!DOCTYPE svg PUBLIC "-//W3C//DTD SVG 1.1//EN" "http://www.w3.org/Graphics/SVG/1.1/DTD/svg11.dtd">
<svg version="1.1" xmlns="http://www.w3.org/2000/svg" xmlns:xlink="http://www.w3.org/1999/xlink" width="20" height="20" viewBox="0 0 20 20">
<path fill="rgb(50, 190, 166)" d="M19.691 10c0-5.352-4.339-9.691-9.69-9.691s-9.691 4.338-9.691 9.691c0 5.352 4.339 9.69 9.691 9.69s9.69-4.339 9.69-9.69z"></path>
<path fill="rgb(145, 107, 51)" d="M13.458 9.827l-6.343 4.883h-0.707l6.359-4.86z"></path>
<path fill="rgb(181, 138, 69)" d="M6.546 9.827l6.343 4.883h0.707l-6.359-4.86z"></path>
<path fill="rgb(217, 177, 105)" d="M14.392 10.178l-7.899 6.081h-0.88l8.287-6.349z"></path>
<path fill="rgb(226, 186, 122)" d="M5.613 10.178l7.899 6.081h0.88l-8.279-6.349z"></path>
<path fill="rgb(206, 166, 114)" d="M5.671 10.403h-0.87v-0.87l1.701-0.992h0.543v0.543z"></path>
<path fill="rgb(239, 202, 149)" d="M5.671 9.533h-0.87l1.701-0.992h0.543z"></path>
<path fill="rgb(226, 186, 122)" d="M4.801 9.533h0.87v0.87h-0.87v-0.87z"></path>
<path fill="rgb(206, 166, 114)" d="M14.329 10.403h0.87v-0.87l-1.701-0.992h-0.543v0.543z"></path>
<path fill="rgb(239, 202, 149)" d="M14.329 9.533h0.87l-1.701-0.992h-0.543z"></path>
<path fill="rgb(226, 186, 122)" d="M14.329 9.533h0.87v0.87h-0.87v-0.87z"></path>
<path fill="rgb(226, 186, 122)" d="M14.198 7.126h0.206v2.106h-0.206v-2.106z"></path>
<path fill="rgb(206, 166, 114)" d="M14.198 9.232l-0.087-0.061v-2.106l0.087 0.061z"></path>
<path fill="rgb(226, 186, 122)" d="M13.201 5.586h0.206v3.015h-0.206v-3.015z"></path>
<path fill="rgb(206, 166, 114)" d="M13.201 8.602l-0.087-0.061v-3.015l0.087 0.061z"></path>
<path fill="rgb(226, 186, 122)" d="M5.596 7.126h0.206v2.106h-0.206v-2.106z"></path>
<path fill="rgb(206, 166, 114)" d="M5.803 9.232l0.087-0.061v-2.106l-0.087 0.061z"></path>
<path fill="rgb(226, 186, 122)" d="M6.579 5.601h0.206v3.015h-0.206v-3.015z"></path>
<path fill="rgb(206, 166, 114)" d="M6.785 8.616l0.087-0.061v-3.015l-0.087 0.061z"></path>
<path fill="rgb(206, 166, 114)" d="M14.329 7.485h0.87v-0.166l-1.701-0.494h-0.543v0.117z"></path>
<path fill="rgb(239, 202, 149)" d="M14.329 7.319h0.87l-1.701-0.494h-0.543z"></path>
<path fill="rgb(226, 186, 122)" d="M14.329 7.319h0.87v0.166h-0.87v-0.166z"></path>
<path fill="rgb(15, 15, 15)" d="M14.329 10.076c0 0-2.166 0.506-4.329 0.506s-4.314-0.506-4.314-0.506v-0.193h8.642v0.193z"></path>
<path fill="rgb(58, 58, 56)" d="M14.329 9.883c0 0-2.22 0.507-4.383 0.507s-4.259-0.507-4.259-0.507l1.353-1.037c0 0 1.113 0.154 2.983 0.154s2.954-0.154 2.954-0.154l1.353 1.037z"></path>
<path fill="rgb(58, 58, 56)" d="M13.428 3.741c0 0-0.946 0.117-3.449 0.117s-3.432-0.117-3.432-0.117l0.006 2.398c0 0 1.288 0.154 3.451 0.154s3.417-0.154 3.417-0.154l0.006-2.398z"></path>
<path fill="rgb(206, 166, 114)" d="M5.671 7.485h-0.87v-0.166l1.701-0.494h0.543v0.117z"></path>
<path fill="rgb(239, 202, 149)" d="M5.671 7.319h-0.87l1.701-0.494h0.543z"></path>
<path fill="rgb(226, 186, 122)" d="M4.801 7.319h0.87v0.166h-0.87v-0.166z"></path>
</svg>
