<?xml version="1.0" encoding="utf-8"?>
<!-- Generated by IcoMoon.io -->
<!DOCTYPE svg PUBLIC "-//W3C//DTD SVG 1.1//EN" "http://www.w3.org/Graphics/SVG/1.1/DTD/svg11.dtd">
<svg version="1.1" xmlns="http://www.w3.org/2000/svg" xmlns:xlink="http://www.w3.org/1999/xlink" width="20" height="20" viewBox="0 0 20 20">
<path fill="rgb(50, 190, 166)" d="M19.691 10c0-5.352-4.339-9.691-9.69-9.691s-9.691 4.338-9.691 9.691c0 5.352 4.339 9.69 9.691 9.69s9.69-4.339 9.69-9.69z"></path>
<path fill="rgb(58, 58, 56)" d="M12.656 10.273c0 0-0.519 3.312 1.806 4.222 0.567 0.222 1.54 0.29 2.404-0.094v-0.507c0 0-1.128 0.438-2.097 0.055-1.021-0.403-1.742-1.426-1.508-3.831l-0.604 0.156z"></path>
<path fill="rgb(209, 208, 207)" d="M14.633 10c0 2.59-2.1 4.69-4.69 4.69s-4.69-2.1-4.69-4.69c0-2.59 2.1-4.69 4.69-4.69s4.69 2.1 4.69 4.69z"></path>
<path fill="rgb(165, 164, 164)" d="M10.972 10c0 0.568-0.46 1.028-1.028 1.028s-1.028-0.46-1.028-1.028c0-0.568 0.46-1.028 1.028-1.028s1.028 0.46 1.028 1.028z"></path>
<path fill="rgb(211, 211, 211)" d="M10.703 10c0 0.419-0.34 0.759-0.759 0.759s-0.759-0.34-0.759-0.759c0-0.419 0.34-0.759 0.759-0.759s0.759 0.34 0.759 0.759z"></path>
<path fill="rgb(160, 159, 159)" d="M11.048 7.223c0 0.61-0.494 1.104-1.104 1.104s-1.104-0.494-1.104-1.104c0-0.61 0.494-1.104 1.104-1.104s1.104 0.494 1.104 1.104z"></path>
<path fill="rgb(160, 159, 159)" d="M9.279 12.242c0 0.61-0.494 1.104-1.104 1.104s-1.104-0.494-1.104-1.104c0-0.61 0.494-1.104 1.104-1.104s1.104 0.494 1.104 1.104z"></path>
<path fill="rgb(160, 159, 159)" d="M12.714 12.242c0 0.61-0.494 1.104-1.104 1.104s-1.104-0.494-1.104-1.104c0-0.61 0.494-1.104 1.104-1.104s1.104 0.494 1.104 1.104z"></path>
<path fill="rgb(160, 159, 159)" d="M8.374 9.218c0 0.61-0.494 1.104-1.104 1.104s-1.104-0.494-1.104-1.104c0-0.61 0.494-1.104 1.104-1.104s1.104 0.494 1.104 1.104z"></path>
<path fill="rgb(160, 159, 159)" d="M13.722 9.218c0 0.61-0.494 1.104-1.104 1.104s-1.104-0.494-1.104-1.104c0-0.61 0.494-1.104 1.104-1.104s1.104 0.494 1.104 1.104z"></path>
<path fill="rgb(58, 58, 56)" d="M9.944 8.327c0.61 0 1.104-0.494 1.104-1.104 0-0.132-0.023-0.258-0.065-0.375-0.327-0.108-0.676-0.167-1.039-0.167s-0.712 0.059-1.039 0.167c-0.042 0.117-0.065 0.243-0.065 0.375 0 0.61 0.494 1.104 1.104 1.104z"></path>
<path fill="rgb(58, 58, 56)" d="M9.279 12.242c0-0.61-0.494-1.104-1.104-1.104-0.455 0-0.845 0.275-1.014 0.668 0.394 0.606 0.981 1.076 1.674 1.322 0.27-0.201 0.445-0.523 0.445-0.886z"></path>
<path fill="rgb(58, 58, 56)" d="M11.61 11.138c-0.61 0-1.104 0.494-1.104 1.104 0 0.377 0.189 0.71 0.478 0.909 0.685-0.226 1.271-0.669 1.677-1.247-0.143-0.444-0.559-0.766-1.051-0.766z"></path>
<path fill="rgb(58, 58, 56)" d="M8.374 9.218c0-0.61-0.494-1.104-1.104-1.104-0.019 0-0.038 0.001-0.057 0.001-0.37 0.535-0.587 1.184-0.587 1.884 0 0.039 0.002 0.078 0.003 0.117 0.181 0.129 0.402 0.206 0.642 0.206 0.61 0 1.104-0.494 1.104-1.104z"></path>
<path fill="rgb(58, 58, 56)" d="M11.514 9.218c0 0.61 0.494 1.104 1.104 1.104 0.239 0 0.461-0.076 0.641-0.206 0.001-0.039 0.003-0.078 0.003-0.117 0-0.7-0.217-1.349-0.587-1.884-0.019-0.001-0.038-0.001-0.057-0.001-0.61 0-1.104 0.494-1.104 1.104z"></path>
</svg>
