<?xml version="1.0" encoding="utf-8"?>
<!-- Generator: Adobe Illustrator 16.0.0, SVG Export Plug-In . SVG Version: 6.00 Build 0)  -->
<!DOCTYPE svg PUBLIC "-//W3C//DTD SVG 1.1//EN" "http://www.w3.org/Graphics/SVG/1.1/DTD/svg11.dtd">
<svg version="1.1" id="Layer_1" xmlns="http://www.w3.org/2000/svg" xmlns:xlink="http://www.w3.org/1999/xlink" x="0px" y="0px"
	 width="20px" height="20px" viewBox="0 0 20 20" enable-background="new 0 0 20 20" xml:space="preserve">
<g>
	<path fill="#32BEA6" d="M19.689,10c0-5.353-4.338-9.69-9.689-9.69c-5.351,0-9.69,4.338-9.69,9.69c0,5.351,4.338,9.69,9.69,9.69
		S19.69,15.352,19.689,10L19.689,10z"/>
	<path fill="#3A3A38" d="M15.583,15.021c0,0.251-0.202,0.454-0.452,0.454H4.724c-0.25,0-0.452-0.203-0.452-0.454V7.579h11.312
		V15.021L15.583,15.021z"/>
	<path fill="#B0B0AF" d="M14.439,10.396H5.273c-0.042,0-0.077-0.034-0.077-0.077c0-0.042,0.035-0.077,0.077-0.077h9.166
		c0.043,0,0.077,0.035,0.077,0.077C14.517,10.362,14.482,10.396,14.439,10.396z"/>
	<path fill="#B0B0AF" d="M14.439,11.191H5.273c-0.042,0-0.077-0.034-0.077-0.077c0-0.042,0.035-0.076,0.077-0.076h9.166
		c0.043,0,0.077,0.034,0.077,0.076C14.517,11.157,14.482,11.191,14.439,11.191z"/>
	<path fill="#B0B0AF" d="M14.439,11.986H5.273c-0.042,0-0.077-0.034-0.077-0.076s0.035-0.077,0.077-0.077h9.166
		c0.043,0,0.077,0.035,0.077,0.077S14.482,11.986,14.439,11.986z"/>
	<path fill="#B0B0AF" d="M14.439,13.355H5.273c-0.042,0-0.077,0.034-0.077,0.076s0.035,0.077,0.077,0.077h2.745v1.086
		c0,0.042,0.035,0.077,0.077,0.077c0.043,0,0.077-0.035,0.077-0.077v-1.086h3.403v1.086c0,0.042,0.034,0.077,0.077,0.077
		c0.042,0,0.077-0.035,0.077-0.077v-1.086h2.71c0.042,0,0.077-0.035,0.077-0.077S14.481,13.355,14.439,13.355L14.439,13.355z"/>
	<path fill="#FFFFFF" d="M7.379,9.104H6.282l1.16-1.525h1.097L7.379,9.104z"/>
	<path fill="#FFFFFF" d="M9.556,9.104H8.459l1.16-1.525h1.097L9.556,9.104z"/>
	<path fill="#FFFFFF" d="M11.702,9.104h-1.097l1.16-1.525h1.097L11.702,9.104z"/>
	<path fill="#FFFFFF" d="M13.864,9.104h-1.098l1.16-1.525h1.098L13.864,9.104z"/>
	<path fill="#3A3A38" d="M6.235,5.652L5.146,5.783l1.333,1.37l1.089-0.131L6.235,5.652z"/>
	<path fill="#FFFFFF" d="M5.161,5.781L4.397,5.873l1.009,1.409l1.088-0.131L5.161,5.781z"/>
	<path fill="#FFFFFF" d="M7.308,5.522L6.219,5.654l1.334,1.37l1.089-0.131L7.308,5.522z"/>
	<path fill="#3A3A38" d="M8.38,5.393L7.292,5.524l1.334,1.37l1.088-0.131L8.38,5.393z"/>
	<path fill="#FFFFFF" d="M9.47,5.262L8.38,5.393l1.334,1.369l1.088-0.131L9.47,5.262z"/>
	<path fill="#3A3A38" d="M10.543,5.133L9.454,5.264l1.334,1.369l1.088-0.131L10.543,5.133z"/>
	<path fill="#FFFFFF" d="M11.6,5.005l-1.089,0.131l1.334,1.369l1.089-0.131L11.6,5.005z"/>
	<path fill="#3A3A38" d="M12.673,4.876l-1.089,0.131l1.334,1.369l1.089-0.131L12.673,4.876z"/>
	<path fill="#FFFFFF" d="M13.746,4.747l-1.089,0.131l1.333,1.369l1.089-0.131L13.746,4.747z"/>
	<path fill="#3A3A38" d="M15.311,4.557l-1.549,0.188l1.334,1.37l0.396-0.049L15.311,4.557z"/>
	<path fill="#3A3A38" d="M8.065,9.232H4.271V5.886L4.82,5.822L8.065,9.232z"/>
	<path fill="#B5B4A0" d="M5.022,6.693c0,0.123-0.1,0.223-0.223,0.223s-0.223-0.1-0.223-0.223c0-0.123,0.1-0.222,0.223-0.222
		S5.022,6.57,5.022,6.693z"/>
	<path fill="#B5B4A0" d="M5.022,8.438c0,0.123-0.1,0.222-0.223,0.222s-0.223-0.1-0.223-0.222c0-0.123,0.1-0.223,0.223-0.223
		S5.022,8.314,5.022,8.438z"/>
	<path fill="#B5B4A0" d="M6.775,8.438c0,0.123-0.1,0.222-0.223,0.222c-0.123,0-0.222-0.1-0.222-0.222c0-0.123,0.1-0.223,0.222-0.223
		C6.675,8.215,6.775,8.314,6.775,8.438z"/>
</g>
</svg>
