<?xml version="1.0" encoding="utf-8"?>
<!-- Generator: Adobe Illustrator 16.0.0, SVG Export Plug-In . SVG Version: 6.00 Build 0)  -->
<!DOCTYPE svg PUBLIC "-//W3C//DTD SVG 1.1//EN" "http://www.w3.org/Graphics/SVG/1.1/DTD/svg11.dtd">
<svg version="1.1" id="Layer_1" xmlns="http://www.w3.org/2000/svg" xmlns:xlink="http://www.w3.org/1999/xlink" x="0px" y="0px"
	 width="20px" height="20px" viewBox="0 0 20 20" enable-background="new 0 0 20 20" xml:space="preserve">
<g>
	<path fill="#25B7D3" d="M19.689,10c0-5.353-4.338-9.69-9.689-9.69c-5.351,0-9.69,4.338-9.69,9.69c0,5.351,4.338,9.69,9.69,9.69
		S19.69,15.352,19.689,10L19.689,10z"/>
	<path fill="#FFFFFF" d="M9.965,5.693L7.643,3.37c-0.159-0.159-0.416-0.159-0.575,0L3.379,7.058c-0.159,0.159-0.159,0.416,0,0.575
		l2.323,2.323c0.159,0.159,0.416,0.159,0.575,0l3.688-3.688C10.124,6.109,10.124,5.852,9.965,5.693z"/>
	<path fill="#FFFFFF" d="M2.918,6.597l3.688-3.688c0.159-0.159,0.159-0.416,0-0.575L5.622,1.35C4.729,1.802,3.891,2.401,3.144,3.147
		C2.402,3.889,1.806,4.722,1.355,5.609l0.989,0.988C2.502,6.756,2.759,6.756,2.918,6.597L2.918,6.597z"/>
	<path fill="#FFFFFF" d="M13.291,9.018l-2.323-2.323c-0.159-0.159-0.416-0.159-0.575,0l-3.688,3.688
		c-0.159,0.159-0.159,0.416,0,0.575l2.323,2.323c0.159,0.158,0.417,0.158,0.575,0l3.688-3.688
		C13.449,9.434,13.449,9.177,13.291,9.018L13.291,9.018z"/>
	<path fill="#FFFFFF" d="M16.627,12.354l-2.322-2.323c-0.159-0.159-0.417-0.159-0.575,0l-3.688,3.688
		c-0.159,0.158-0.159,0.416,0,0.574l2.323,2.323c0.159,0.159,0.416,0.159,0.575,0l3.688-3.688
		C16.786,12.771,16.786,12.514,16.627,12.354L16.627,12.354z"/>
	<path fill="#FFFFFF" d="M17.059,13.36l-3.688,3.688c-0.159,0.158-0.159,0.416,0,0.575l1.016,1.016
		c0.888-0.451,1.721-1.047,2.462-1.789c0.747-0.747,1.346-1.585,1.798-2.479l-1.013-1.012C17.475,13.201,17.217,13.201,17.059,13.36
		L17.059,13.36z"/>
	<path fill="#3A3A38" d="M13.37,17.624c-0.159-0.159-0.159-0.416,0-0.574l3.688-3.689c0.159-0.158,0.416-0.158,0.575,0l1.013,1.013
		c0.016-0.031,0.031-0.063,0.048-0.095c0.015-0.031,0.029-0.062,0.045-0.094c0.209-0.437,0.383-0.886,0.523-1.343L7.154,0.734
		c-0.458,0.14-0.906,0.314-1.343,0.523C5.78,1.272,5.749,1.287,5.717,1.302C5.686,1.318,5.654,1.334,5.623,1.35l0.984,0.984
		c0.159,0.159,0.159,0.416,0,0.575L2.918,6.597c-0.159,0.159-0.416,0.159-0.575,0L1.355,5.609C1.345,5.631,1.333,5.652,1.322,5.674
		C1.297,5.726,1.271,5.777,1.247,5.829C1.043,6.257,0.872,6.697,0.735,7.145L12.85,19.26c0.448-0.137,0.888-0.308,1.316-0.512
		c0.052-0.025,0.104-0.05,0.154-0.076c0.022-0.011,0.044-0.021,0.065-0.032L13.37,17.624L13.37,17.624z M18.718,12.816
		c0.041-0.041,0.107-0.041,0.148,0l0.082,0.082c0.041,0.041,0.041,0.107,0,0.148l-0.522,0.522c-0.041,0.041-0.107,0.041-0.148,0
		l-0.082-0.082c-0.041-0.041-0.041-0.107,0-0.148L18.718,12.816L18.718,12.816z M18.023,12.122c0.041-0.041,0.107-0.041,0.148,0
		l0.082,0.083c0.041,0.04,0.041,0.106,0,0.147l-0.522,0.522c-0.041,0.041-0.107,0.041-0.148,0l-0.082-0.082
		c-0.041-0.041-0.041-0.107,0-0.148L18.023,12.122L18.023,12.122z M17.329,11.429c0.041-0.041,0.107-0.041,0.148,0l0.082,0.081
		c0.041,0.041,0.041,0.107,0,0.148l-0.522,0.523c-0.041,0.041-0.107,0.041-0.148,0l-0.082-0.083c-0.041-0.04-0.041-0.107,0-0.147
		L17.329,11.429z M16.635,10.734c0.041-0.041,0.107-0.041,0.148,0l0.083,0.082c0.04,0.041,0.04,0.107,0,0.148l-0.523,0.522
		c-0.041,0.04-0.106,0.04-0.147,0l-0.083-0.083c-0.041-0.041-0.041-0.106,0-0.147L16.635,10.734L16.635,10.734z M15.941,10.04
		c0.041-0.041,0.106-0.041,0.147,0l0.082,0.083c0.041,0.041,0.041,0.107,0,0.148l-0.522,0.522c-0.041,0.041-0.107,0.041-0.148,0
		l-0.082-0.081c-0.04-0.041-0.04-0.107,0-0.148L15.941,10.04L15.941,10.04z M15.247,9.345c0.041-0.041,0.106-0.041,0.147,0
		l0.083,0.083c0.041,0.041,0.041,0.107,0,0.148l-0.523,0.523c-0.041,0.041-0.106,0.041-0.147,0l-0.082-0.083
		c-0.041-0.041-0.041-0.107,0-0.148L15.247,9.345z M14.553,8.651c0.041-0.041,0.107-0.041,0.147,0l0.083,0.082
		c0.04,0.041,0.04,0.107,0,0.148L14.26,9.404c-0.041,0.042-0.106,0.042-0.147,0l-0.083-0.082c-0.041-0.041-0.041-0.107,0-0.148
		L14.553,8.651z M13.858,7.957c0.041-0.041,0.107-0.041,0.148,0l0.082,0.082c0.041,0.041,0.041,0.107,0,0.148L13.566,8.71
		c-0.041,0.041-0.107,0.041-0.148,0l-0.082-0.082c-0.041-0.041-0.041-0.107,0-0.148L13.858,7.957z M13.164,7.263
		c0.041-0.041,0.107-0.041,0.148,0l0.082,0.082c0.041,0.041,0.041,0.107,0,0.148l-0.522,0.523c-0.041,0.041-0.107,0.041-0.148,0
		l-0.082-0.082c-0.041-0.041-0.041-0.107,0-0.148L13.164,7.263z M12.471,6.569c0.04-0.041,0.106-0.041,0.147,0L12.7,6.651
		c0.041,0.041,0.041,0.107,0,0.148l-0.522,0.522c-0.041,0.041-0.107,0.041-0.148,0L11.947,7.24c-0.041-0.041-0.041-0.107,0-0.148
		L12.471,6.569z M11.776,5.875c0.041-0.041,0.106-0.041,0.148,0l0.082,0.083c0.04,0.041,0.04,0.107,0,0.148l-0.522,0.522
		c-0.041,0.041-0.107,0.041-0.148,0l-0.082-0.083c-0.041-0.041-0.041-0.107,0-0.148L11.776,5.875L11.776,5.875z M11.082,5.181
		c0.041-0.041,0.107-0.041,0.148,0l0.082,0.082c0.041,0.041,0.041,0.107,0,0.148l-0.523,0.522c-0.04,0.042-0.106,0.042-0.147,0
		L10.56,5.851c-0.041-0.041-0.041-0.107,0-0.148L11.082,5.181z M10.388,4.486c0.041-0.041,0.107-0.041,0.148,0l0.082,0.083
		c0.041,0.041,0.041,0.107,0,0.148L10.096,5.24c-0.042,0.041-0.107,0.041-0.148,0L9.865,5.157c-0.041-0.041-0.041-0.107,0-0.148
		L10.388,4.486L10.388,4.486z M9.693,3.792c0.041-0.041,0.107-0.041,0.148,0l0.082,0.083c0.041,0.041,0.041,0.107,0,0.148
		L9.401,4.545c-0.041,0.041-0.107,0.041-0.148,0L9.171,4.463c-0.041-0.041-0.041-0.107,0-0.148L9.693,3.792L9.693,3.792z M9,3.098
		c0.041-0.041,0.107-0.041,0.148,0L9.23,3.18c0.041,0.041,0.041,0.107,0,0.148L8.708,3.851c-0.042,0.041-0.107,0.041-0.148,0
		L8.477,3.769c-0.041-0.041-0.041-0.107,0-0.148L9,3.098z M8.306,2.404c0.041-0.041,0.107-0.041,0.148,0l0.082,0.083
		c0.041,0.041,0.041,0.107,0,0.148L8.013,3.157c-0.041,0.041-0.107,0.041-0.148,0L7.783,3.074c-0.041-0.041-0.041-0.107,0-0.148
		L8.306,2.404L8.306,2.404z M7.611,1.71c0.041-0.041,0.107-0.041,0.148,0l0.082,0.082c0.041,0.041,0.041,0.107,0,0.148L7.319,2.462
		c-0.041,0.041-0.107,0.041-0.148,0L7.088,2.38c-0.041-0.041-0.041-0.107,0-0.148L7.611,1.71L7.611,1.71z M6.917,1.016
		c0.041-0.041,0.107-0.041,0.148,0l0.082,0.082c0.041,0.041,0.041,0.107,0,0.148L6.625,1.769c-0.041,0.041-0.107,0.041-0.148,0
		L6.395,1.686c-0.041-0.041-0.041-0.107,0-0.148L6.917,1.016z M1.24,7.154c-0.041,0.041-0.107,0.041-0.148,0L1.009,7.072
		c-0.041-0.041-0.041-0.107,0-0.148l0.522-0.522c0.041-0.041,0.107-0.041,0.148,0l0.083,0.082c0.041,0.041,0.041,0.107,0,0.148
		L1.24,7.154L1.24,7.154z M1.934,7.848c-0.041,0.041-0.107,0.041-0.148,0L1.703,7.766c-0.041-0.041-0.041-0.107,0-0.148l0.522-0.523
		c0.041-0.041,0.107-0.041,0.148,0l0.082,0.082c0.041,0.041,0.041,0.107,0,0.148L1.934,7.848L1.934,7.848z M2.628,8.542
		c-0.041,0.041-0.107,0.041-0.148,0L2.397,8.46c-0.041-0.041-0.041-0.107,0-0.148L2.92,7.789c0.041-0.041,0.107-0.041,0.148,0
		L3.15,7.872c0.041,0.041,0.041,0.107,0,0.148L2.628,8.542L2.628,8.542z M3.322,9.236c-0.041,0.041-0.107,0.041-0.148,0L3.092,9.154
		c-0.041-0.041-0.041-0.107,0-0.148l0.522-0.522c0.041-0.041,0.107-0.041,0.148,0l0.082,0.082c0.041,0.041,0.041,0.107,0,0.148
		L3.322,9.236L3.322,9.236z M4.016,9.931c-0.041,0.041-0.107,0.041-0.148,0L3.786,9.849c-0.041-0.041-0.041-0.107,0-0.148
		l0.522-0.522c0.041-0.041,0.107-0.041,0.148,0L4.539,9.26c0.041,0.042,0.041,0.107,0,0.148L4.016,9.931L4.016,9.931z M4.71,10.625
		c-0.041,0.04-0.107,0.04-0.148,0L4.48,10.543c-0.041-0.041-0.041-0.107,0-0.148l0.523-0.523c0.041-0.041,0.107-0.041,0.148,0
		l0.082,0.082c0.041,0.041,0.041,0.107,0,0.148L4.71,10.625L4.71,10.625z M6.277,9.956c-0.159,0.159-0.416,0.159-0.575,0
		L3.379,7.633c-0.159-0.159-0.159-0.416,0-0.575L7.067,3.37c0.159-0.159,0.416-0.159,0.575,0l2.323,2.323
		c0.159,0.159,0.159,0.416,0,0.575L6.277,9.956z M5.404,11.319c-0.041,0.041-0.107,0.041-0.148,0l-0.083-0.083
		c-0.041-0.041-0.041-0.106,0-0.147l0.523-0.522c0.041-0.041,0.107-0.041,0.148,0l0.083,0.082c0.041,0.041,0.041,0.107,0,0.148
		L5.404,11.319z M6.099,12.013c-0.041,0.041-0.107,0.041-0.148,0l-0.083-0.081c-0.041-0.042-0.041-0.107,0-0.148l0.523-0.522
		c0.041-0.041,0.107-0.041,0.148,0l0.083,0.081c0.041,0.041,0.041,0.107,0,0.148L6.099,12.013z M6.792,12.708
		c-0.041,0.04-0.107,0.04-0.148,0l-0.082-0.083c-0.041-0.041-0.041-0.106,0-0.148l0.522-0.522c0.042-0.041,0.107-0.041,0.148,0
		l0.083,0.083c0.041,0.041,0.041,0.107,0,0.148L6.792,12.708z M7.487,13.401c-0.041,0.041-0.107,0.041-0.148,0l-0.082-0.082
		c-0.041-0.041-0.041-0.107,0-0.148l0.522-0.521c0.041-0.041,0.107-0.041,0.148,0L8.01,12.73c0.041,0.041,0.041,0.107,0,0.148
		L7.487,13.401L7.487,13.401z M8.181,14.096c-0.041,0.041-0.107,0.041-0.148,0l-0.082-0.082c-0.041-0.041-0.041-0.107,0-0.148
		l0.522-0.522c0.041-0.041,0.107-0.041,0.148,0l0.083,0.082c0.041,0.041,0.041,0.107,0,0.148L8.181,14.096z M9.603,13.281
		c-0.159,0.158-0.416,0.158-0.575,0l-2.323-2.323c-0.159-0.158-0.159-0.416,0-0.575l3.688-3.688c0.159-0.159,0.416-0.159,0.575,0
		l2.323,2.323c0.158,0.159,0.158,0.416,0,0.575L9.603,13.281L9.603,13.281z M8.875,14.79c-0.041,0.041-0.107,0.041-0.148,0
		l-0.082-0.082c-0.041-0.041-0.041-0.107,0-0.148l0.522-0.522c0.041-0.041,0.107-0.041,0.148,0l0.083,0.082
		c0.041,0.041,0.041,0.107,0,0.148L8.875,14.79L8.875,14.79z M9.569,15.483c-0.041,0.042-0.107,0.042-0.148,0l-0.082-0.081
		c-0.041-0.041-0.041-0.107,0-0.148l0.523-0.522c0.041-0.041,0.107-0.041,0.148,0l0.082,0.082c0.041,0.041,0.041,0.107,0,0.148
		L9.569,15.483L9.569,15.483z M10.263,16.179c-0.041,0.041-0.107,0.041-0.148,0l-0.082-0.083c-0.041-0.041-0.041-0.107,0-0.148
		l0.522-0.522c0.041-0.04,0.107-0.04,0.148,0l0.082,0.083c0.041,0.041,0.041,0.106,0,0.148L10.263,16.179L10.263,16.179z
		 M10.958,16.872c-0.041,0.041-0.107,0.041-0.148,0l-0.082-0.082c-0.041-0.041-0.041-0.107,0-0.148l0.522-0.522
		c0.041-0.041,0.107-0.041,0.148,0l0.082,0.082c0.041,0.041,0.041,0.107,0,0.148L10.958,16.872L10.958,16.872z M11.651,17.566
		c-0.04,0.041-0.107,0.041-0.147,0l-0.082-0.082c-0.041-0.041-0.041-0.107,0-0.148l0.522-0.522c0.041-0.041,0.106-0.041,0.147,0
		l0.082,0.083c0.041,0.041,0.041,0.106,0,0.147L11.651,17.566L11.651,17.566z M12.939,16.618c-0.159,0.158-0.416,0.158-0.575,0
		l-2.323-2.323c-0.159-0.158-0.159-0.416,0-0.575l3.688-3.688c0.158-0.159,0.415-0.159,0.575,0l2.322,2.323
		c0.159,0.159,0.159,0.417,0,0.575L12.939,16.618z M12.346,18.261c-0.041,0.041-0.106,0.041-0.147,0l-0.083-0.082
		c-0.04-0.041-0.04-0.107,0-0.148l0.522-0.522c0.042-0.041,0.107-0.041,0.148,0l0.083,0.082c0.041,0.041,0.041,0.107,0,0.148
		L12.346,18.261L12.346,18.261z M13.04,18.955c-0.041,0.041-0.107,0.041-0.148,0l-0.082-0.082c-0.041-0.041-0.041-0.107,0-0.148
		l0.522-0.522c0.041-0.041,0.107-0.041,0.148,0l0.082,0.082c0.041,0.041,0.041,0.107,0,0.148L13.04,18.955L13.04,18.955z"/>
</g>
</svg>
