<?xml version="1.0" encoding="utf-8"?>
<!-- Generated by IcoMoon.io -->
<!DOCTYPE svg PUBLIC "-//W3C//DTD SVG 1.1//EN" "http://www.w3.org/Graphics/SVG/1.1/DTD/svg11.dtd">
<svg version="1.1" xmlns="http://www.w3.org/2000/svg" xmlns:xlink="http://www.w3.org/1999/xlink" width="20" height="20" viewBox="0 0 20 20">
<path fill="rgb(50, 190, 166)" d="M19.691 10c0-5.352-4.339-9.691-9.69-9.691s-9.691 4.338-9.691 9.691c0 5.352 4.339 9.69 9.691 9.69s9.69-4.339 9.69-9.69z"></path>
<path fill="rgb(244, 222, 127)" d="M14.863 14.864c2.686-2.686 2.686-7.041 0-9.727s-7.041-2.686-9.727 0c-2.686 2.686-2.686 7.041 0 9.727s7.041 2.686 9.727 0z"></path>
<path fill="rgb(242, 213, 90)" d="M14.863 14.864c2.686-2.686 2.686-7.041 0-9.727l-9.727 9.727c2.686 2.686 7.041 2.686 9.727 0z"></path>
<path fill="rgb(239, 181, 51)" d="M14.504 14.505c2.488-2.488 2.488-6.521 0-9.009s-6.521-2.488-9.009 0c-2.488 2.488-2.488 6.521 0 9.009s6.521 2.488 9.009 0z"></path>
<path fill="rgb(229, 170, 23)" d="M14.504 14.505c2.488-2.488 2.488-6.521 0-9.009l-9.009 9.009c2.488 2.488 6.521 2.488 9.009 0z"></path>
<path fill="rgb(244, 222, 127)" d="M14.139 14.14c2.286-2.286 2.286-5.993 0-8.279s-5.993-2.286-8.279 0c-2.286 2.286-2.286 5.993 0 8.279s5.993 2.286 8.279 0z"></path>
<path fill="rgb(242, 213, 90)" d="M14.139 14.14c2.286-2.286 2.286-5.993 0-8.279l-8.279 8.279c2.286 2.286 5.993 2.286 8.279 0z"></path>
<path fill="rgb(229, 170, 23)" d="M9.152 11.86h2.649c0.438 0 0.624 0.156 0.624 0.516v0.068c0 0.37-0.185 0.536-0.624 0.536h-4.13c-0.428 0-0.623-0.156-0.623-0.536v-0.068c0-0.361 0.195-0.516 0.623-0.516h0.234l0.243-1.305h-0.4c-0.292 0-0.487-0.176-0.487-0.448v-0.117c0-0.282 0.195-0.458 0.487-0.458h0.585l0.195-1.062c0.224-1.257 0.955-1.919 2.133-1.919 1.169 0 1.822 0.614 1.822 1.305 0 0.731-0.789 0.692-0.799 0.672-0.097-0.536-0.399-0.867-0.974-0.867s-0.848 0.293-0.974 0.974l-0.166 0.896h1.286c0.292 0 0.487 0.176 0.487 0.458v0.117c0 0.283-0.195 0.448-0.487 0.448h-1.471l-0.234 1.305z"></path>
<path fill="rgb(239, 181, 51)" d="M9.386 10.555h0.060l1.023-1.023h-0.898l0.166-0.896c0.127-0.682 0.4-0.974 0.974-0.974 0.51 0 0.805 0.262 0.933 0.695l0.798-0.798c-0.161-0.561-0.782-1.008-1.78-1.008-1.179 0-1.909 0.662-2.133 1.919l-0.195 1.062h-0.585c-0.292 0-0.487 0.176-0.487 0.458v0.117c0 0.273 0.195 0.448 0.487 0.448h0.4l-0.243 1.305h-0.234c-0.428 0-0.623 0.156-0.623 0.516v0.068c0 0.172 0.040 0.298 0.124 0.384l2.201-2.201 0.013-0.073z"></path>
<path fill="rgb(229, 170, 23)" d="M10.857 10.555c0.292 0 0.487-0.166 0.487-0.448v-0.117c0-0.282-0.195-0.458-0.487-0.458h-0.388l-1.023 1.023h1.411z"></path>
<path fill="rgb(229, 170, 23)" d="M11.685 8.529c0.010 0.019 0.799 0.058 0.799-0.672 0-0.102-0.014-0.201-0.042-0.298l-0.798 0.798c0.016 0.055 0.030 0.112 0.041 0.172z"></path>
<path fill="rgb(229, 170, 23)" d="M11.801 12.98c0.438 0 0.624-0.166 0.624-0.536v-0.068c0-0.361-0.185-0.516-0.624-0.516h-2.649l0.221-1.233-2.201 2.201c0.101 0.105 0.265 0.152 0.5 0.152h4.13z"></path>
</svg>
