<?xml version="1.0" encoding="utf-8"?>
<!-- Generated by IcoMoon.io -->
<!DOCTYPE svg PUBLIC "-//W3C//DTD SVG 1.1//EN" "http://www.w3.org/Graphics/SVG/1.1/DTD/svg11.dtd">
<svg version="1.1" xmlns="http://www.w3.org/2000/svg" xmlns:xlink="http://www.w3.org/1999/xlink" width="20" height="20" viewBox="0 0 20 20">
<path fill="rgb(250, 188, 61)" d="M0.309 10c0-5.352 4.339-9.691 9.69-9.691s9.691 4.338 9.691 9.691c0 5.352-4.339 9.69-9.691 9.69s-9.69-4.339-9.69-9.69z"></path>
<path fill="rgb(27, 122, 154)" d="M16.687 13.575c0 0.429-0.348 0.777-0.777 0.777h-11.82c-0.429 0-0.777-0.348-0.777-0.777v-7.092c0-0.429 0.348-0.777 0.777-0.777h11.82c0.429 0 0.777 0.348 0.777 0.777v7.092z"></path>
<path fill="rgb(41, 146, 173)" d="M9.949 6.56c0 0-0.13 0.081-0.195 0.193s-0.065 0.209-0.065 0.209 0.083 0.048 0.166 0.048c0.083 0 0.305-0.080 0.305-0.193s-0.211-0.257-0.211-0.257z"></path>
<path fill="rgb(41, 146, 173)" d="M14.331 8.261c0.097 0.016 0.244-0.080 0.244-0.080 0.276 0.080 0.686 1.43 0.686 1.43-0.408-2.429-2.032-3.467-3.214-3.906h-0.695c0.009 0.014 0.013 0.026 0.009 0.036-0.033 0.080-0.146 0.176-0.243 0.128s-0.406-0.064-0.552 0.032c-0.146 0.096-0.211 0.369-0.194 0.482s0.454 0.080 0.503 0.080c0.049 0-0.016-0.192-0.097-0.24s-0.032-0.16 0.081-0.177c0.114-0.016 0.162 0.129 0.228 0.177s0.048 0.385 0.048 0.385c-0.048 0.112-0.389-0.064-0.519-0.016s-0.324 0.466-0.396 0.503c-0.072 0.036-0.016 0.295 0.006 0.413s-0.454 0.015-0.552 0.112c-0.098 0.096 0 0.417 0.048 0.514s0.341 0.032 0.455 0.032c0.114 0 0.227-0.241 0.259-0.321s0.244-0.241 0.39-0.289c0.146-0.048 0.081 0.177 0.097 0.257s0.308 0.048 0.325 0.128c0.016 0.081 0.195-0.048 0.292-0.128s0.162-0.112 0.259 0.016c0.097 0.128 0.341-0.016 0.519-0.016s0.389-0.193 0.487-0.048c0.097 0.144-0.195 0.402-0.195 0.402l0.088 0.081c-0.328 0.054-1.001 0.137-1.29-0.017 0 0-0.26-0.337-0.99-0.048 0 0-1.282 0.77-1.298 1.541 0 0-0.357 1.525 0.99 1.734 0 0 1.412-0.465 1.591 0.080 0 0 0.049 0.674 0.178 0.819 0 0 0.211 0.31 0.195 0.497 0 0-0.146 0.626 0.049 1.108 0 0 0.069 0.222 0.1 0.392h0.388c0.396-0.198 0.998-0.609 1.249-1.355 0 0 0.227-0.803 0.244-1.011 0 0 0.325-0.931 0.406-1.22 0 0 0.292-0.867-0.195-0.754 0 0-0.341-0.321-0.584-0.562-0.123-0.122-0.304-0.416-0.47-0.687l0.713 0.655c0.357 0.289 0.552-0.145 0.584-0.289s-0.016-0.369-0.032-0.513c-0.016-0.145-0.033-0.177-0.308-0.209s-0.536-0.304-0.503-0.385c0.032-0.081 0.519 0.225 0.617 0.241z"></path>
<path fill="rgb(41, 146, 173)" d="M5.801 7.789c-0.1 0.215-0.271 0.799-0.158 0.574s0.393-0.39 0.653-0.615c0.26-0.225 1.039-0.546 1.217-0.61 0.179-0.065 0.162-0.402 0.244-0.53s0.227-0.321 0.406-0.449c0.178-0.129 0.617-0.434 0.714-0.402s-0.341 0.321-0.503 0.449c-0.162 0.128 0.114 0.241 0.195 0.177s0.405-0.224 0.6-0.273c0.134-0.033 0.36-0.264 0.489-0.405h-1.219c-0.219 0.045-0.373 0.084-0.373 0.084-1.574 0.77-2.264 2-2.264 2z"></path>
<path fill="rgb(41, 146, 173)" d="M7.579 13.896c0.13-0.080 0.016-0.273-0.016-0.385s0.065-0.401 0.113-0.594c0.049-0.192-0.178-0.369-0.34-0.513s-0.438-0.242-0.585-0.305c-0.146-0.064-0.244-0.080-0.308-0.209s0-0.401 0-0.514c0-0.113-0.292-0.289-0.373-0.433s-0.297-0.417-0.454-0.578c-0.157-0.161-0.211-0.145-0.39-0.064s-0.016 0.947-0.016 0.947c0.225 1.654 1.087 2.614 1.71 3.105h0.512c-0.032-0.101-0.058-0.195-0.064-0.248-0.016-0.144 0.081-0.128 0.211-0.208z"></path>
<path fill="rgb(41, 146, 173)" d="M5.187 10.010c0.076-0.526 0.069-0.517 0.26-1.22 0.097 0 0.016 0.562-0.016 0.674l-0.244 0.546z"></path>
<path fill="rgb(205, 205, 206)" d="M4.26 12.109v0.749h-0.113v-0.574h-0.112v-0.039c0.017-0.005 0.035-0.010 0.052-0.017s0.033-0.015 0.048-0.025 0.028-0.021 0.039-0.033 0.019-0.027 0.024-0.042c0.004-0.012 0.006-0.018 0.007-0.018h0.054z"></path>
<path fill="rgb(205, 205, 206)" d="M5.087 12.209v0.124c0 0.014-0.002 0.026-0.006 0.036s-0.009 0.018-0.015 0.025-0.015 0.014-0.024 0.020-0.020 0.013-0.032 0.020l-0.264 0.163c-0.006 0.003-0.012 0.005-0.016 0.008s-0.007 0.006-0.009 0.011-0.004 0.012-0.005 0.020-0.001 0.021-0.001 0.036v0.131h0.371v0.054h-0.483v-0.205c0-0.007 0.001-0.014 0.003-0.020s0.005-0.012 0.008-0.018 0.007-0.010 0.011-0.014 0.008-0.006 0.013-0.008l0.301-0.185c0.010-0.005 0.019-0.013 0.025-0.025s0.009-0.024 0.009-0.038v-0.118c0-0.011-0.001-0.021-0.002-0.029s-0.004-0.015-0.009-0.020-0.011-0.009-0.020-0.011-0.020-0.004-0.034-0.004h-0.151c-0.006 0-0.011 0.002-0.016 0.005s-0.010 0.007-0.014 0.013-0.007 0.012-0.009 0.019-0.003 0.016-0.003 0.024v0.169h-0.112v-0.179c0-0.011 0.003-0.023 0.010-0.035s0.014-0.024 0.024-0.034 0.019-0.019 0.030-0.026 0.021-0.010 0.030-0.010h0.288c0.013 0 0.026 0.003 0.039 0.008s0.023 0.012 0.032 0.021 0.017 0.020 0.022 0.032 0.009 0.025 0.009 0.040z"></path>
<path fill="rgb(205, 205, 206)" d="M5.785 12.209v0.173c0 0.022-0.004 0.039-0.013 0.052s-0.020 0.022-0.034 0.027c-0.009 0.003-0.013 0.005-0.013 0.006 0.027 0.017 0.043 0.029 0.046 0.036 0.009 0.021 0.014 0.049 0.014 0.086v0.168c0 0.015-0.003 0.028-0.008 0.041s-0.013 0.023-0.023 0.032-0.020 0.016-0.033 0.021-0.025 0.008-0.038 0.008h-0.288c-0.007 0-0.012-0.001-0.017-0.002s-0.009-0.003-0.014-0.006-0.009-0.006-0.013-0.011-0.010-0.010-0.017-0.017c-0.022-0.023-0.032-0.047-0.032-0.070v-0.179h0.112v0.168c0 0.011 0.001 0.020 0.004 0.027s0.006 0.014 0.010 0.019 0.009 0.008 0.014 0.011 0.010 0.003 0.015 0.003h0.151c0.015 0 0.026-0.001 0.035-0.004s0.015-0.006 0.019-0.011 0.007-0.012 0.009-0.020 0.002-0.018 0.002-0.030v-0.175c0-0.009-0.001-0.018-0.004-0.025s-0.005-0.014-0.009-0.020-0.007-0.010-0.011-0.013-0.007-0.005-0.011-0.005h-0.187v-0.068h0.165c0.013 0 0.023-0.001 0.030-0.003s0.013-0.004 0.017-0.008 0.006-0.008 0.007-0.013 0.002-0.011 0.002-0.018v-0.158c0-0.012-0.001-0.023-0.002-0.031s-0.005-0.015-0.009-0.021-0.011-0.009-0.020-0.011-0.020-0.003-0.034-0.003h-0.151c-0.005 0-0.010 0.001-0.015 0.004s-0.010 0.006-0.014 0.011-0.007 0.011-0.010 0.019-0.004 0.016-0.004 0.026v0.128h-0.112v-0.138c0-0.011 0.003-0.023 0.010-0.035s0.014-0.024 0.024-0.034 0.019-0.019 0.030-0.026 0.021-0.010 0.030-0.010h0.288c0.013 0 0.026 0.003 0.039 0.008s0.023 0.012 0.032 0.021 0.017 0.020 0.022 0.032 0.008 0.025 0.008 0.040z"></path>
<path fill="rgb(205, 205, 206)" d="M6.433 12.109v0.497h0.068v0.064h-0.068v0.188h-0.112v-0.188h-0.34v-0.108l0.309-0.453h0.143zM6.32 12.174l-0.289 0.433h0.289v-0.433z"></path>
<path fill="rgb(205, 205, 206)" d="M7.591 12.109v0.058h-0.371v0.192l0.004-0.004c0.002-0.003 0.005-0.006 0.008-0.009s0.006-0.006 0.009-0.009 0.005-0.005 0.007-0.006c0.022-0.009 0.039-0.013 0.051-0.013h0.197c0.010 0 0.021 0.003 0.032 0.009s0.021 0.014 0.031 0.022 0.017 0.018 0.023 0.028 0.009 0.019 0.009 0.027v0.352c0 0.015-0.003 0.028-0.008 0.041s-0.013 0.023-0.023 0.032-0.020 0.016-0.033 0.021-0.025 0.008-0.038 0.008h-0.288c-0.012 0-0.023-0.003-0.034-0.010s-0.021-0.015-0.030-0.025-0.016-0.022-0.021-0.034-0.008-0.025-0.008-0.037v-0.115h0.112v0.105c0 0.024 0.004 0.040 0.013 0.051s0.020 0.016 0.033 0.016h0.155c0.020 0 0.034-0.006 0.044-0.016s0.014-0.029 0.014-0.054v-0.306c0-0.019-0.004-0.033-0.013-0.042s-0.019-0.014-0.031-0.014h-0.138c-0.014 0-0.028 0.007-0.042 0.021s-0.024 0.034-0.031 0.059c-0.004 0.013-0.042 0.019-0.116 0.019v-0.367h0.483z"></path>
<path fill="rgb(205, 205, 206)" d="M8.288 12.214v0.086h-0.112v-0.076c0-0.020-0.004-0.036-0.012-0.048s-0.020-0.018-0.036-0.018h-0.153c-0.009 0-0.017 0.001-0.024 0.003s-0.013 0.006-0.018 0.011-0.009 0.012-0.011 0.021-0.004 0.020-0.004 0.033c0 0.008 0 0.018 0 0.031s0 0.025 0.001 0.036 0.001 0.022 0.002 0.030 0.002 0.013 0.004 0.013h0.271c0.010 0 0.021 0.003 0.032 0.010s0.021 0.015 0.030 0.025 0.016 0.022 0.022 0.034 0.009 0.025 0.009 0.037v0.314c0 0.015-0.003 0.028-0.008 0.041s-0.013 0.023-0.023 0.032-0.020 0.016-0.033 0.021-0.025 0.008-0.038 0.008h-0.288c-0.012 0-0.024-0.002-0.036-0.007s-0.021-0.012-0.030-0.021-0.015-0.020-0.020-0.033-0.008-0.028-0.008-0.045v-0.543c0-0.015 0.003-0.028 0.008-0.040s0.013-0.023 0.022-0.032 0.020-0.016 0.032-0.021 0.025-0.008 0.038-0.008h0.29c0.010 0 0.021 0.003 0.032 0.010s0.021 0.015 0.030 0.025 0.017 0.021 0.022 0.034 0.009 0.025 0.009 0.037zM8.176 12.453c0-0.020-0.004-0.037-0.012-0.049s-0.020-0.018-0.036-0.018h-0.153c-0.009 0-0.017 0.001-0.024 0.003s-0.013 0.006-0.018 0.011-0.009 0.013-0.011 0.022-0.004 0.021-0.004 0.035v0.284c0 0.024 0.004 0.040 0.013 0.051s0.020 0.016 0.033 0.016h0.155c0.020 0 0.034-0.006 0.044-0.016s0.014-0.029 0.014-0.054v-0.286z"></path>
<path fill="rgb(205, 205, 206)" d="M8.988 12.142c0 0.008-0 0.015-0.001 0.022s-0.001 0.013-0.002 0.019l-0.191 0.676h-0.129l0.24-0.661c0.001-0.006 0.002-0.011 0.003-0.016s0.001-0.008 0.001-0.010c-0.002-0.006-0.013-0.008-0.033-0.008h-0.22c-0.007 0-0.014 0.001-0.019 0.004s-0.010 0.006-0.014 0.010-0.007 0.009-0.008 0.014-0.003 0.011-0.003 0.016v0.145h-0.112v-0.134c0-0.017 0.003-0.033 0.009-0.046s0.014-0.025 0.023-0.034 0.020-0.016 0.032-0.021 0.024-0.007 0.036-0.007h0.344c0.023 0 0.038 0.011 0.044 0.033z"></path>
<path fill="rgb(205, 205, 206)" d="M9.636 12.187v0.138c0 0.010-0.003 0.021-0.008 0.032s-0.015 0.022-0.030 0.033c0.005 0 0.010 0.001 0.017 0.004s0.013 0.006 0.019 0.011 0.013 0.010 0.018 0.016 0.011 0.013 0.014 0.019c0.011 0.020 0.017 0.045 0.017 0.077v0.24c0 0.013-0.003 0.026-0.008 0.038s-0.012 0.023-0.021 0.032-0.020 0.017-0.032 0.022-0.026 0.008-0.041 0.008h-0.288c-0.013 0-0.024-0.003-0.035-0.009s-0.021-0.014-0.030-0.023-0.016-0.021-0.021-0.034-0.008-0.026-0.008-0.040v-0.228c0-0.015 0.001-0.029 0.003-0.041s0.005-0.024 0.010-0.035 0.012-0.020 0.021-0.028 0.020-0.015 0.035-0.021c0.013-0.006 0.020-0.009 0.020-0.009s-0.001-0.001-0.004-0.003-0.005-0.004-0.009-0.006-0.007-0.005-0.010-0.008-0.006-0.006-0.008-0.010c-0.008-0.022-0.012-0.036-0.012-0.041v-0.136c0-0.009 0.001-0.017 0.004-0.027s0.006-0.017 0.012-0.025 0.013-0.013 0.023-0.018 0.021-0.007 0.035-0.007h0.244c0.011 0 0.021 0.002 0.030 0.006s0.016 0.010 0.022 0.017 0.011 0.015 0.014 0.025 0.005 0.020 0.005 0.030zM9.571 12.468c0-0.011-0.001-0.021-0.004-0.029s-0.006-0.014-0.011-0.019-0.010-0.008-0.016-0.010-0.013-0.003-0.020-0.003h-0.153c-0.019 0-0.032 0.004-0.041 0.013s-0.013 0.022-0.013 0.042v0.281c0 0.007 0.001 0.014 0.003 0.021s0.005 0.013 0.008 0.019 0.008 0.010 0.014 0.014 0.011 0.006 0.018 0.006h0.151c0.015 0 0.027-0.001 0.036-0.003s0.015-0.006 0.019-0.010 0.007-0.010 0.008-0.017 0.002-0.015 0.002-0.025v-0.278zM9.523 12.218c0-0.012-0.001-0.023-0.003-0.030s-0.004-0.013-0.007-0.017-0.007-0.006-0.011-0.008-0.008-0.002-0.013-0.002h-0.087c-0.015 0-0.026 0.004-0.033 0.012s-0.011 0.022-0.011 0.043v0.080c0 0.003 0 0.008 0.001 0.014s0.003 0.012 0.006 0.018 0.007 0.011 0.013 0.016 0.014 0.007 0.024 0.007h0.079c0.008 0 0.015-0.001 0.021-0.003s0.010-0.005 0.013-0.009 0.005-0.011 0.007-0.019 0.002-0.018 0.002-0.031v-0.071z"></path>
<path fill="rgb(205, 205, 206)" d="M10.792 12.209v0.548c0 0.013-0.003 0.026-0.008 0.038s-0.012 0.023-0.021 0.032-0.020 0.017-0.032 0.022-0.026 0.008-0.041 0.008h-0.288c-0.012 0-0.024-0.003-0.035-0.009s-0.021-0.014-0.030-0.023-0.016-0.021-0.021-0.034-0.008-0.026-0.008-0.040v-0.071h0.112v0.061c0 0.007 0.001 0.014 0.003 0.021s0.005 0.013 0.008 0.019 0.008 0.010 0.014 0.014 0.011 0.006 0.018 0.006h0.151c0.015 0 0.027-0.001 0.036-0.003s0.015-0.006 0.019-0.010 0.007-0.010 0.008-0.017 0.002-0.015 0.002-0.025v-0.133c-0.003 0.005-0.006 0.009-0.009 0.012s-0.006 0.004-0.010 0.005-0.007 0.001-0.012 0.001h-0.225c-0.017 0-0.033-0.003-0.047-0.008s-0.026-0.013-0.036-0.024-0.018-0.025-0.024-0.042-0.008-0.037-0.008-0.061v-0.283c0-0.014 0.003-0.027 0.008-0.040s0.012-0.024 0.021-0.033 0.019-0.017 0.030-0.023 0.023-0.009 0.035-0.009h0.288c0.016 0 0.030 0.003 0.042 0.009s0.023 0.013 0.032 0.023 0.016 0.020 0.021 0.032 0.007 0.024 0.007 0.037zM10.68 12.221c0-0.009-0-0.017-0.001-0.024s-0.004-0.013-0.008-0.018-0.011-0.008-0.019-0.011-0.021-0.004-0.036-0.004h-0.151c-0.006 0-0.011 0.002-0.016 0.005s-0.010 0.008-0.014 0.014-0.007 0.012-0.009 0.019-0.003 0.014-0.003 0.022v0.295c0 0.019 0.005 0.033 0.014 0.042s0.024 0.013 0.042 0.013h0.153c0.018 0 0.030-0.005 0.038-0.015s0.011-0.025 0.011-0.046v-0.291z"></path>
<path fill="rgb(205, 205, 206)" d="M11.489 12.209v0.548c0 0.013-0.003 0.026-0.008 0.038s-0.012 0.023-0.021 0.032-0.020 0.017-0.032 0.022-0.026 0.008-0.041 0.008h-0.288c-0.012 0-0.024-0.003-0.035-0.009s-0.021-0.014-0.030-0.023-0.016-0.021-0.021-0.034-0.008-0.026-0.008-0.040v-0.538c0-0.014 0.003-0.027 0.008-0.040s0.012-0.024 0.021-0.033 0.019-0.017 0.030-0.023 0.023-0.009 0.035-0.009h0.288c0.016 0 0.030 0.003 0.042 0.009s0.023 0.013 0.032 0.023 0.016 0.020 0.021 0.032 0.007 0.024 0.007 0.037zM11.377 12.221c0-0.009-0-0.017-0.001-0.024s-0.004-0.013-0.008-0.018-0.011-0.008-0.019-0.011-0.021-0.004-0.036-0.004h-0.151c-0.006 0-0.011 0.002-0.016 0.005s-0.010 0.008-0.014 0.014-0.007 0.012-0.009 0.019-0.003 0.014-0.003 0.022v0.518c0 0.007 0.001 0.014 0.003 0.021s0.005 0.013 0.008 0.019 0.008 0.010 0.014 0.014 0.011 0.006 0.018 0.006h0.151c0.015 0 0.027-0.001 0.036-0.003s0.015-0.006 0.019-0.010 0.007-0.010 0.008-0.017 0.002-0.015 0.002-0.025v-0.525z"></path>
<path fill="rgb(205, 205, 206)" d="M12.058 12.109v0.749h-0.113v-0.574h-0.112v-0.039c0.017-0.005 0.035-0.010 0.052-0.017s0.033-0.015 0.048-0.025 0.028-0.021 0.039-0.033 0.019-0.027 0.024-0.042c0.004-0.012 0.006-0.018 0.007-0.018h0.054z"></path>
<path fill="rgb(205, 205, 206)" d="M12.885 12.209v0.124c0 0.014-0.002 0.026-0.006 0.036s-0.009 0.018-0.015 0.025-0.015 0.014-0.024 0.020-0.020 0.013-0.032 0.020l-0.264 0.163c-0.006 0.003-0.012 0.005-0.016 0.008s-0.007 0.006-0.009 0.011-0.004 0.012-0.005 0.020-0.001 0.021-0.001 0.036v0.131h0.371v0.054h-0.483v-0.205c0-0.007 0.001-0.014 0.003-0.020s0.005-0.012 0.008-0.018 0.007-0.010 0.011-0.014 0.008-0.006 0.013-0.008l0.301-0.185c0.010-0.005 0.019-0.013 0.025-0.025s0.009-0.024 0.009-0.038v-0.118c0-0.011-0.001-0.021-0.002-0.029s-0.004-0.015-0.009-0.020-0.011-0.009-0.020-0.011-0.020-0.004-0.034-0.004h-0.151c-0.006 0-0.011 0.002-0.016 0.005s-0.010 0.007-0.014 0.013-0.007 0.012-0.009 0.019-0.003 0.016-0.003 0.024v0.169h-0.112v-0.179c0-0.011 0.003-0.023 0.010-0.035s0.014-0.024 0.024-0.034 0.019-0.019 0.030-0.026 0.021-0.010 0.030-0.010h0.288c0.013 0 0.026 0.003 0.039 0.008s0.023 0.012 0.032 0.021 0.017 0.020 0.022 0.032 0.009 0.025 0.009 0.040z"></path>
<path fill="rgb(205, 205, 206)" d="M13.993 12.209v0.173c0 0.022-0.004 0.039-0.013 0.052s-0.020 0.022-0.034 0.027c-0.009 0.003-0.013 0.005-0.013 0.006 0.027 0.017 0.043 0.029 0.046 0.036 0.009 0.021 0.014 0.049 0.014 0.086v0.168c0 0.015-0.003 0.028-0.008 0.041s-0.013 0.023-0.023 0.032-0.020 0.016-0.033 0.021-0.025 0.008-0.038 0.008h-0.288c-0.007 0-0.012-0.001-0.017-0.002s-0.009-0.003-0.014-0.006-0.009-0.006-0.013-0.011-0.010-0.010-0.017-0.017c-0.022-0.023-0.033-0.047-0.033-0.070v-0.179h0.112v0.168c0 0.011 0.001 0.020 0.004 0.027s0.006 0.014 0.010 0.019 0.009 0.008 0.014 0.011 0.010 0.003 0.015 0.003h0.151c0.015 0 0.026-0.001 0.035-0.004s0.015-0.006 0.019-0.011 0.007-0.012 0.009-0.020 0.002-0.018 0.002-0.030v-0.175c0-0.009-0.001-0.018-0.004-0.025s-0.005-0.014-0.009-0.020-0.007-0.010-0.011-0.013-0.007-0.005-0.011-0.005h-0.187v-0.068h0.165c0.013 0 0.023-0.001 0.030-0.003s0.013-0.004 0.017-0.008 0.006-0.008 0.007-0.013 0.002-0.011 0.002-0.018v-0.158c0-0.012-0.001-0.023-0.002-0.031s-0.005-0.015-0.009-0.021-0.011-0.009-0.020-0.011-0.020-0.003-0.034-0.003h-0.151c-0.005 0-0.010 0.001-0.015 0.004s-0.010 0.006-0.014 0.011-0.007 0.011-0.010 0.019-0.004 0.016-0.004 0.026v0.128h-0.112v-0.138c0-0.011 0.003-0.023 0.010-0.035s0.014-0.024 0.024-0.034 0.019-0.019 0.030-0.026 0.021-0.010 0.030-0.010h0.288c0.013 0 0.026 0.003 0.039 0.008s0.023 0.012 0.032 0.021 0.017 0.020 0.022 0.032 0.008 0.025 0.008 0.040z"></path>
<path fill="rgb(205, 205, 206)" d="M14.641 12.109v0.497h0.068v0.064h-0.068v0.188h-0.112v-0.188h-0.34v-0.108l0.309-0.453h0.143zM14.529 12.174l-0.289 0.433h0.289v-0.433z"></path>
<path fill="rgb(205, 205, 206)" d="M15.388 12.109v0.058h-0.371v0.192l0.004-0.004c0.002-0.003 0.005-0.006 0.008-0.009s0.006-0.006 0.009-0.009 0.005-0.005 0.007-0.006c0.022-0.009 0.039-0.013 0.051-0.013h0.197c0.010 0 0.021 0.003 0.032 0.009s0.021 0.014 0.031 0.022 0.017 0.018 0.023 0.028 0.009 0.019 0.009 0.027v0.352c0 0.015-0.003 0.028-0.008 0.041s-0.013 0.023-0.023 0.032-0.020 0.016-0.033 0.021-0.025 0.008-0.038 0.008h-0.288c-0.012 0-0.023-0.003-0.034-0.010s-0.021-0.015-0.030-0.025-0.016-0.022-0.021-0.034-0.008-0.025-0.008-0.037v-0.115h0.112v0.105c0 0.024 0.004 0.040 0.013 0.051s0.020 0.016 0.033 0.016h0.155c0.020 0 0.034-0.006 0.044-0.016s0.014-0.029 0.014-0.054v-0.306c0-0.019-0.004-0.033-0.013-0.042s-0.019-0.014-0.031-0.014h-0.138c-0.014 0-0.028 0.007-0.042 0.021s-0.024 0.034-0.031 0.059c-0.004 0.013-0.042 0.019-0.116 0.019v-0.367h0.483z"></path>
<path fill="rgb(205, 205, 206)" d="M16.086 12.214v0.086h-0.112v-0.076c0-0.020-0.004-0.036-0.012-0.048s-0.020-0.018-0.036-0.018h-0.153c-0.009 0-0.017 0.001-0.024 0.003s-0.013 0.006-0.018 0.011-0.009 0.012-0.011 0.021-0.004 0.020-0.004 0.033c0 0.008 0 0.018 0 0.031s0 0.025 0.001 0.036 0.001 0.022 0.002 0.030 0.002 0.013 0.004 0.013h0.271c0.010 0 0.021 0.003 0.032 0.010s0.021 0.015 0.030 0.025 0.016 0.022 0.022 0.034 0.009 0.025 0.009 0.037v0.314c0 0.015-0.003 0.028-0.008 0.041s-0.013 0.023-0.023 0.032-0.020 0.016-0.033 0.021-0.025 0.008-0.038 0.008h-0.288c-0.012 0-0.024-0.002-0.036-0.007s-0.021-0.012-0.030-0.021-0.015-0.020-0.020-0.033-0.008-0.028-0.008-0.045v-0.543c0-0.015 0.003-0.028 0.008-0.040s0.013-0.023 0.022-0.032 0.020-0.016 0.032-0.021 0.025-0.008 0.038-0.008h0.29c0.010 0 0.021 0.003 0.032 0.010s0.021 0.015 0.030 0.025 0.017 0.021 0.022 0.034 0.009 0.025 0.009 0.037zM15.974 12.453c0-0.020-0.004-0.037-0.012-0.049s-0.020-0.018-0.036-0.018h-0.153c-0.009 0-0.017 0.001-0.024 0.003s-0.013 0.006-0.018 0.011-0.009 0.013-0.011 0.022-0.004 0.021-0.004 0.035v0.284c0 0.024 0.004 0.040 0.013 0.051s0.020 0.016 0.033 0.016h0.155c0.020 0 0.034-0.006 0.044-0.016s0.014-0.029 0.014-0.054v-0.286z"></path>
<path fill="rgb(187, 188, 187)" d="M4.541 8.295h2.303v0.267h-2.303v-0.267z"></path>
<path fill="rgb(187, 188, 187)" d="M4.541 7.817h2.303v0.225h-2.303v-0.225z"></path>
<path fill="rgb(187, 188, 187)" d="M5.431 7.256h-0.574c-0.175 0-0.317 0.132-0.317 0.295v0.013h0.858v-0.189c0-0.044 0.013-0.084 0.032-0.12z"></path>
<path fill="rgb(187, 188, 187)" d="M6.844 7.551c0-0.163-0.142-0.295-0.317-0.295h-0.604c0.020 0.036 0.032 0.076 0.032 0.12v0.189h0.888v-0.013z"></path>
<path fill="rgb(187, 188, 187)" d="M4.541 8.844c0 0.163 0.142 0.295 0.317 0.295h1.669c0.175 0 0.317-0.133 0.317-0.295v-0.030h-2.303v0.030z"></path>
<path fill="rgb(205, 205, 206)" d="M6.844 7.817v-0.253h-0.888v-0.189c0-0.044-0.012-0.084-0.032-0.12h-0.492c-0.020 0.036-0.032 0.076-0.032 0.12v0.189h-0.858v0.253h0.858v0.225h-0.858v0.253h0.858v0.189c0 0.027 0.004 0.053 0.012 0.077h-0.871v0.253h2.303v-0.253h-0.9c0.008-0.024 0.012-0.050 0.012-0.077v-0.189h0.888v-0.253h-0.888v-0.225h0.888z"></path>
</svg>
