<?xml version="1.0" encoding="utf-8"?>
<!-- Generated by IcoMoon.io -->
<!DOCTYPE svg PUBLIC "-//W3C//DTD SVG 1.1//EN" "http://www.w3.org/Graphics/SVG/1.1/DTD/svg11.dtd">
<svg version="1.1" xmlns="http://www.w3.org/2000/svg" xmlns:xlink="http://www.w3.org/1999/xlink" width="20" height="20" viewBox="0 0 20 20">
<path fill="rgb(50, 190, 166)" d="M19.691 10c0-5.352-4.339-9.691-9.69-9.691s-9.691 4.338-9.691 9.691c0 5.352 4.339 9.69 9.691 9.69s9.69-4.339 9.69-9.69z"></path>
<path fill="rgb(229, 225, 216)" d="M14.863 14.864c2.686-2.686 2.686-7.041 0-9.727s-7.041-2.686-9.727 0c-2.686 2.686-2.686 7.041 0 9.727s7.041 2.686 9.727 0z"></path>
<path fill="rgb(211, 208, 199)" d="M14.863 14.864c2.686-2.686 2.686-7.041 0-9.727l-9.727 9.727c2.686 2.686 7.041 2.686 9.727 0z"></path>
<path fill="rgb(186, 183, 177)" d="M14.504 14.505c2.488-2.488 2.488-6.521 0-9.009s-6.521-2.488-9.009 0c-2.488 2.488-2.488 6.521 0 9.009s6.521 2.488 9.009 0z"></path>
<path fill="rgb(170, 165, 150)" d="M14.504 14.505c2.488-2.488 2.488-6.521 0-9.009l-9.009 9.009c2.488 2.488 6.521 2.488 9.009 0z"></path>
<path fill="rgb(229, 225, 216)" d="M13.451 13.451c1.906-1.906 1.906-4.996 0-6.902s-4.996-1.906-6.902 0c-1.906 1.906-1.906 4.996 0 6.902s4.996 1.906 6.902 0z"></path>
<path fill="rgb(211, 208, 199)" d="M13.451 13.451c1.906-1.906 1.906-4.996 0-6.902l-6.902 6.902c1.906 1.906 4.996 1.906 6.902 0z"></path>
<path fill="rgb(186, 183, 177)" d="M7.995 10.662c-0.361 0-0.516-0.176-0.516-0.409v-0.107c0-0.224 0.156-0.409 0.516-0.409h0.945c0.010 0-1.52-2.348-1.52-2.348-0.048-0.078 0.146-0.594 0.828-0.594 0.292 0 0.516 0.146 0.682 0.497l1.081 2.036 1.111-2.036c0.195-0.37 0.419-0.507 0.701-0.507 0.584 0 0.799 0.536 0.76 0.604l-1.52 2.348h0.935c0.37 0 0.526 0.185 0.526 0.409v0.107c0 0.234-0.156 0.409-0.526 0.409h-1.354v0.516h1.354c0.37 0 0.526 0.176 0.526 0.409v0.107c0 0.224-0.156 0.409-0.526 0.409h-1.354v0.448c0 0.438-0.166 0.663-0.575 0.663h-0.147c-0.399 0-0.555-0.224-0.555-0.663v-0.448h-1.373c-0.361 0-0.516-0.185-0.516-0.409v-0.107c0-0.234 0.156-0.409 0.516-0.409h1.373v-0.516h-1.373z"></path>
<path fill="rgb(211, 208, 199)" d="M9.368 10.662h-0.030l-0.516 0.516h0.547z"></path>
<path fill="rgb(211, 208, 199)" d="M13.451 6.549l-0.919 0.919-1.468 2.269h0.935c0.37 0 0.526 0.185 0.526 0.409v0.107c0 0.234-0.156 0.409-0.526 0.409h-1.354v0.516h1.354c0.37 0 0.526 0.176 0.526 0.409v0.107c0 0.224-0.156 0.409-0.526 0.409h-1.354v0.448c0 0.438-0.166 0.663-0.575 0.663h-0.147c-0.399 0-0.555-0.224-0.555-0.663v-0.448h-1.373c-0.033 0-0.064-0.002-0.094-0.005l-1.352 1.352c1.906 1.906 4.996 1.906 6.902 0s1.906-4.996 0-6.902z"></path>
<path fill="rgb(186, 183, 177)" d="M7.995 11.179c-0.361 0-0.516 0.176-0.516 0.409v0.107c0 0.203 0.129 0.374 0.423 0.404l0.92-0.92h-0.827z"></path>
<path fill="rgb(170, 165, 150)" d="M9.368 12.104v0.448c0 0.438 0.156 0.663 0.555 0.663h0.147c0.409 0 0.575-0.224 0.575-0.663v-0.448h1.354c0.37 0 0.526-0.185 0.526-0.409v-0.107c0-0.234-0.156-0.409-0.526-0.409h-1.354v-0.516h1.354c0.37 0 0.526-0.176 0.526-0.409v-0.107c0-0.224-0.156-0.409-0.526-0.409h-0.935l1.468-2.269-3.194 3.194h0.030v0.516h-0.547l-0.92 0.92c0.030 0.003 0.061 0.005 0.094 0.005h1.373z"></path>
</svg>
