<?xml version="1.0" encoding="utf-8"?>
<!-- Generated by IcoMoon.io -->
<!DOCTYPE svg PUBLIC "-//W3C//DTD SVG 1.1//EN" "http://www.w3.org/Graphics/SVG/1.1/DTD/svg11.dtd">
<svg version="1.1" xmlns="http://www.w3.org/2000/svg" xmlns:xlink="http://www.w3.org/1999/xlink" width="20" height="20" viewBox="0 0 20 20">
<path fill="rgb(250, 188, 61)" d="M0.309 10c0-5.352 4.339-9.691 9.69-9.691s9.691 4.338 9.691 9.691c0 5.352-4.339 9.69-9.691 9.69s-9.69-4.339-9.69-9.69z"></path>
<path fill="rgb(245, 245, 245)" d="M9.701 1.906c-0.404 0.404-0.807 0.807-1.211 1.211-0.256 0.256-0.068 0.714 0.295 0.714 0.202 0 0.403 0 0.604 0-0.012 0.050-0.020 0.104-0.020 0.163 0 0.387 0 0.774 0 1.161 0 0.812 1.257 0.819 1.257 0.009 0-0.387 0-0.774 0-1.161 0-0.062-0.008-0.119-0.022-0.172 0.186 0 0.371 0 0.557 0 0.026 0.002 0.052 0.002 0.077-0.002 0.18-0.012 0.295-0.12 0.346-0.255 0.065-0.132 0.063-0.294-0.057-0.433-0.017-0.023-0.037-0.043-0.059-0.062-0.392-0.392-0.784-0.784-1.176-1.176-0.162-0.162-0.432-0.158-0.593 0.003z"></path>
<path fill="rgb(103, 174, 186)" d="M16.4 6.427h-12.8c-0.074 0-0.133 0.060-0.133 0.133v2.242c0 0.074 0.060 0.133 0.133 0.133h12.8c0.074 0 0.133-0.060 0.133-0.133v-2.242c-0-0.074-0.060-0.133-0.134-0.133z"></path>
<path fill="rgb(75, 134, 140)" d="M4.278 7.086h11.445v1.192h-11.445v-1.192z"></path>
<path fill="rgb(27, 122, 154)" d="M5.677 7.086v8.853c0 0.429 0.348 0.777 0.777 0.777h7.092c0.429 0 0.777-0.348 0.777-0.777v-8.853h-8.647z"></path>
<path fill="rgb(23, 111, 132)" d="M5.678 7.087v1.062h8.644v-1.062h-8.644z"></path>
<path fill="rgb(18, 98, 117)" d="M5.678 7.087v0.388h8.644v-0.388h-8.644z"></path>
<path fill="rgb(41, 146, 173)" d="M13.469 9.977c0 0-0.081-0.13-0.193-0.195s-0.209-0.065-0.209-0.065-0.048 0.083-0.048 0.166c0 0.083 0.080 0.305 0.193 0.305s0.257-0.211 0.257-0.211z"></path>
<path fill="rgb(41, 146, 173)" d="M11.768 14.359c-0.016 0.097 0.080 0.244 0.080 0.244-0.080 0.276-1.43 0.686-1.43 0.686 2.429-0.408 3.467-2.032 3.906-3.214v-0.695c-0.014 0.009-0.026 0.013-0.036 0.009-0.080-0.033-0.176-0.146-0.128-0.243s0.064-0.406-0.032-0.552c-0.096-0.146-0.369-0.211-0.482-0.194s-0.080 0.454-0.080 0.503c0 0.049 0.192-0.016 0.24-0.097s0.16-0.032 0.177 0.081c0.016 0.114-0.129 0.162-0.177 0.228s-0.385 0.048-0.385 0.048c-0.112-0.048 0.064-0.389 0.016-0.519s-0.466-0.324-0.503-0.396c-0.036-0.072-0.295-0.016-0.413 0.006s-0.015-0.454-0.112-0.552c-0.096-0.098-0.417 0-0.514 0.048s-0.032 0.341-0.032 0.455c0 0.114 0.241 0.227 0.321 0.259s0.241 0.244 0.289 0.39c0.048 0.146-0.177 0.081-0.257 0.097s-0.048 0.308-0.128 0.325c-0.081 0.016 0.048 0.195 0.128 0.292s0.112 0.162-0.016 0.259c-0.128 0.097 0.016 0.341 0.016 0.519s0.193 0.389 0.048 0.487c-0.144 0.097-0.402-0.195-0.402-0.195l-0.081 0.088c-0.054-0.328-0.137-1.001 0.017-1.29 0 0 0.337-0.26 0.048-0.99 0 0-0.77-1.282-1.541-1.298 0 0-1.525-0.357-1.734 0.99 0 0 0.465 1.412-0.080 1.591 0 0-0.674 0.049-0.819 0.178 0 0-0.31 0.211-0.497 0.195 0 0-0.626-0.146-1.108 0.049 0 0-0.222 0.069-0.392 0.1v0.388c0.198 0.396 0.609 0.998 1.355 1.249 0 0 0.803 0.227 1.011 0.244 0 0 0.931 0.325 1.22 0.406 0 0 0.867 0.292 0.754-0.195 0 0 0.321-0.341 0.562-0.584 0.122-0.123 0.416-0.304 0.687-0.47l-0.655 0.713c-0.289 0.357 0.145 0.552 0.289 0.584s0.369-0.016 0.513-0.032c0.145-0.016 0.177-0.033 0.209-0.308s0.304-0.536 0.385-0.503c0.081 0.032-0.225 0.519-0.241 0.617z"></path>
<path fill="rgb(41, 146, 173)" d="M14.272 8.906c-0.032 0.097-0.321-0.341-0.449-0.503s-0.241 0.114-0.177 0.195c0.064 0.081 0.224 0.405 0.273 0.6 0.033 0.134 0.264 0.36 0.405 0.489v-1.219c-0.015-0.071-0.029-0.153-0.041-0.208h-0.352c0.145 0.206 0.369 0.562 0.341 0.646z"></path>
<path fill="rgb(156, 156, 160)" d="M7.92 7.619h-0.058v-0.371h-0.192l0.004 0.004c0.003 0.002 0.006 0.005 0.009 0.008s0.006 0.006 0.009 0.009 0.005 0.005 0.006 0.007c0.009 0.022 0.013 0.039 0.013 0.051v0.197c0 0.010-0.003 0.021-0.009 0.032s-0.014 0.021-0.022 0.031-0.018 0.017-0.028 0.023-0.019 0.009-0.027 0.009h-0.352c-0.015 0-0.028-0.003-0.041-0.008s-0.023-0.013-0.032-0.023-0.016-0.020-0.021-0.033-0.008-0.025-0.008-0.038v-0.288c0-0.012 0.003-0.023 0.010-0.034s0.015-0.021 0.025-0.030 0.022-0.016 0.034-0.021 0.025-0.008 0.037-0.008h0.115v0.112h-0.105c-0.024 0-0.040 0.004-0.051 0.013s-0.016 0.020-0.016 0.033v0.155c0 0.020 0.006 0.034 0.016 0.044s0.029 0.014 0.054 0.014h0.306c0.019 0 0.033-0.004 0.042-0.013s0.014-0.019 0.014-0.031v-0.138c0-0.014-0.007-0.028-0.021-0.042s-0.034-0.024-0.059-0.031c-0.013-0.004-0.019-0.042-0.019-0.116h0.367v0.483z"></path>
<path fill="rgb(191, 191, 193)" d="M7.814 8.317h-0.086v-0.112h0.076c0.020 0 0.036-0.004 0.048-0.012s0.018-0.020 0.018-0.036v-0.153c0-0.009-0.001-0.017-0.003-0.024s-0.006-0.013-0.011-0.018-0.012-0.009-0.021-0.011-0.020-0.004-0.033-0.004c-0.008 0-0.018 0-0.031 0s-0.025 0-0.036 0.001-0.022 0.001-0.030 0.002-0.013 0.002-0.013 0.004v0.271c0 0.010-0.003 0.021-0.010 0.032s-0.015 0.021-0.025 0.030-0.022 0.016-0.034 0.022-0.025 0.009-0.037 0.009h-0.314c-0.015 0-0.028-0.003-0.041-0.008s-0.023-0.013-0.032-0.023-0.016-0.020-0.021-0.033-0.008-0.025-0.008-0.038v-0.288c0-0.012 0.002-0.024 0.007-0.036s0.012-0.021 0.021-0.030 0.020-0.015 0.033-0.020 0.028-0.008 0.045-0.008h0.543c0.015 0 0.028 0.003 0.040 0.008s0.023 0.013 0.032 0.022 0.016 0.020 0.021 0.032 0.008 0.025 0.008 0.038v0.29c0 0.010-0.003 0.021-0.010 0.032s-0.015 0.021-0.025 0.030-0.021 0.017-0.034 0.022-0.025 0.009-0.037 0.009zM7.576 8.205c0.020 0 0.037-0.004 0.049-0.012s0.018-0.020 0.018-0.036v-0.153c0-0.009-0.001-0.017-0.003-0.024s-0.006-0.013-0.011-0.018-0.013-0.009-0.022-0.011-0.021-0.004-0.035-0.004h-0.284c-0.024 0-0.040 0.004-0.051 0.013s-0.016 0.020-0.016 0.033v0.155c0 0.020 0.006 0.034 0.016 0.044s0.029 0.014 0.054 0.014h0.286z"></path>
<path fill="rgb(205, 205, 206)" d="M7.887 9.017c-0.008 0-0.015-0-0.022-0.001s-0.013-0.001-0.019-0.002l-0.676-0.191v-0.129l0.661 0.24c0.006 0.001 0.011 0.002 0.016 0.003s0.008 0.001 0.010 0.001c0.006-0.002 0.008-0.013 0.008-0.032v-0.22c0-0.007-0.001-0.014-0.004-0.019s-0.006-0.010-0.010-0.014-0.009-0.007-0.014-0.008-0.011-0.003-0.016-0.003h-0.145v-0.112h0.134c0.017 0 0.033 0.003 0.046 0.009s0.025 0.014 0.034 0.023 0.016 0.020 0.021 0.032 0.007 0.024 0.007 0.036v0.344c-0 0.023-0.011 0.038-0.033 0.044z"></path>
<path fill="rgb(205, 205, 206)" d="M7.842 9.665h-0.138c-0.010 0-0.021-0.003-0.032-0.008s-0.022-0.015-0.033-0.030c0 0.005-0.001 0.010-0.004 0.017s-0.006 0.013-0.011 0.019-0.010 0.012-0.016 0.018-0.013 0.011-0.019 0.014c-0.020 0.011-0.045 0.017-0.077 0.017h-0.24c-0.013 0-0.026-0.002-0.038-0.008s-0.023-0.012-0.032-0.021-0.017-0.020-0.022-0.032-0.008-0.026-0.008-0.041v-0.288c0-0.012 0.003-0.024 0.009-0.035s0.014-0.021 0.023-0.030 0.021-0.016 0.034-0.021 0.026-0.008 0.040-0.008h0.228c0.015 0 0.029 0.001 0.041 0.003s0.024 0.005 0.035 0.010 0.020 0.012 0.028 0.021 0.015 0.020 0.021 0.035c0.006 0.013 0.009 0.020 0.009 0.020s0.001-0.001 0.003-0.004 0.004-0.005 0.006-0.009 0.005-0.007 0.008-0.010 0.006-0.006 0.010-0.008c0.022-0.008 0.036-0.012 0.041-0.012h0.136c0.009 0 0.017 0.001 0.027 0.004s0.017 0.006 0.025 0.012 0.013 0.013 0.018 0.023 0.007 0.021 0.007 0.035v0.244c0 0.011-0.002 0.021-0.006 0.030s-0.010 0.016-0.017 0.022-0.015 0.011-0.025 0.014-0.020 0.005-0.030 0.005zM7.561 9.6c0.011 0 0.021-0.001 0.029-0.004s0.014-0.006 0.019-0.011 0.008-0.010 0.010-0.016 0.003-0.013 0.003-0.020v-0.153c0-0.019-0.004-0.032-0.013-0.041s-0.022-0.013-0.042-0.013h-0.281c-0.007 0-0.014 0.001-0.021 0.003s-0.013 0.005-0.019 0.008-0.010 0.008-0.014 0.014-0.006 0.011-0.006 0.018v0.151c0 0.015 0.001 0.027 0.003 0.036s0.006 0.015 0.010 0.019 0.010 0.007 0.017 0.008 0.015 0.002 0.025 0.002h0.278zM7.811 9.552c0.013 0 0.022-0.001 0.030-0.003s0.013-0.004 0.017-0.007 0.006-0.007 0.008-0.011 0.002-0.008 0.002-0.013v-0.087c0-0.015-0.004-0.026-0.012-0.033s-0.022-0.011-0.043-0.011h-0.080c-0.003 0-0.008 0-0.014 0.001s-0.012 0.003-0.018 0.006-0.011 0.007-0.016 0.013-0.007 0.014-0.007 0.024v0.079c0 0.008 0.001 0.015 0.003 0.021s0.005 0.010 0.009 0.013 0.011 0.005 0.019 0.007 0.018 0.002 0.031 0.002h0.071z"></path>
<path fill="rgb(205, 205, 206)" d="M7.819 10.821h-0.548c-0.013 0-0.026-0.003-0.038-0.008s-0.023-0.012-0.032-0.021-0.017-0.020-0.022-0.032-0.008-0.026-0.008-0.041v-0.288c0-0.013 0.003-0.024 0.009-0.035s0.014-0.021 0.023-0.030 0.021-0.016 0.034-0.021 0.026-0.008 0.040-0.008h0.071v0.112h-0.061c-0.007 0-0.014 0.001-0.021 0.003s-0.013 0.005-0.019 0.008-0.010 0.008-0.014 0.014-0.006 0.011-0.006 0.018v0.151c0 0.015 0.001 0.027 0.003 0.036s0.006 0.015 0.010 0.019 0.010 0.007 0.017 0.008 0.015 0.002 0.025 0.002h0.133c-0.005-0.003-0.009-0.006-0.012-0.009s-0.004-0.006-0.005-0.010-0.001-0.007-0.001-0.012v-0.225c0-0.017 0.003-0.033 0.008-0.047s0.013-0.026 0.024-0.036 0.025-0.018 0.042-0.024 0.037-0.008 0.061-0.008h0.283c0.014 0 0.027 0.003 0.040 0.008s0.024 0.012 0.033 0.021 0.017 0.019 0.023 0.030 0.009 0.023 0.009 0.035v0.288c0 0.016-0.003 0.030-0.009 0.042s-0.013 0.023-0.023 0.032-0.020 0.016-0.032 0.021-0.024 0.007-0.037 0.007zM7.808 10.708c0.009 0 0.017-0 0.024-0.001s0.013-0.004 0.018-0.008 0.008-0.011 0.011-0.019 0.004-0.021 0.004-0.036v-0.151c0-0.006-0.002-0.011-0.005-0.016s-0.008-0.010-0.014-0.014-0.012-0.007-0.019-0.009-0.014-0.003-0.022-0.003h-0.295c-0.019 0-0.033 0.005-0.042 0.014s-0.013 0.024-0.013 0.042v0.153c0 0.018 0.005 0.030 0.015 0.038s0.025 0.011 0.046 0.011h0.291z"></path>
<path fill="rgb(205, 205, 206)" d="M7.819 11.518h-0.548c-0.013 0-0.026-0.003-0.038-0.008s-0.023-0.012-0.032-0.021-0.017-0.020-0.022-0.032-0.008-0.026-0.008-0.041v-0.288c0-0.013 0.003-0.024 0.009-0.035s0.014-0.021 0.023-0.030 0.021-0.016 0.034-0.021 0.026-0.008 0.040-0.008h0.538c0.014 0 0.027 0.003 0.040 0.008s0.024 0.012 0.033 0.021 0.017 0.019 0.023 0.030 0.009 0.023 0.009 0.035v0.288c0 0.016-0.003 0.030-0.009 0.042s-0.013 0.023-0.023 0.032-0.020 0.016-0.032 0.021-0.024 0.007-0.037 0.007zM7.808 11.406c0.009 0 0.017-0 0.024-0.001s0.013-0.004 0.018-0.008 0.008-0.011 0.011-0.019 0.004-0.021 0.004-0.036v-0.151c0-0.006-0.002-0.011-0.005-0.016s-0.008-0.010-0.014-0.014-0.012-0.007-0.019-0.009-0.014-0.003-0.022-0.003h-0.518c-0.007 0-0.014 0.001-0.021 0.003s-0.013 0.005-0.019 0.008-0.010 0.008-0.014 0.014-0.006 0.011-0.006 0.018v0.151c0 0.015 0.001 0.027 0.003 0.036s0.006 0.015 0.010 0.019 0.010 0.007 0.017 0.008 0.015 0.002 0.025 0.002h0.525z"></path>
<path fill="rgb(205, 205, 206)" d="M7.92 12.086h-0.749v-0.113h0.574v-0.112h0.039c0.005 0.017 0.010 0.035 0.017 0.052s0.015 0.033 0.025 0.048 0.021 0.028 0.033 0.039 0.027 0.019 0.042 0.024c0.012 0.004 0.018 0.006 0.018 0.007v0.054z"></path>
<path fill="rgb(205, 205, 206)" d="M7.819 12.913h-0.124c-0.014 0-0.026-0.002-0.036-0.006s-0.018-0.009-0.025-0.015-0.014-0.015-0.020-0.024-0.013-0.020-0.020-0.032l-0.163-0.264c-0.003-0.006-0.005-0.012-0.008-0.016s-0.006-0.007-0.011-0.009-0.012-0.004-0.020-0.005-0.021-0.001-0.036-0.001h-0.131v0.371h-0.054v-0.483h0.205c0.007 0 0.014 0.001 0.020 0.003s0.012 0.005 0.018 0.008 0.010 0.007 0.014 0.011 0.006 0.008 0.008 0.013l0.185 0.301c0.005 0.010 0.013 0.019 0.025 0.025s0.024 0.009 0.038 0.009h0.118c0.011 0 0.021-0.001 0.029-0.002s0.015-0.004 0.020-0.009 0.009-0.011 0.011-0.020 0.004-0.020 0.004-0.034v-0.151c0-0.006-0.002-0.011-0.005-0.016s-0.007-0.010-0.013-0.014-0.012-0.007-0.019-0.009-0.016-0.003-0.024-0.003h-0.169v-0.112h0.179c0.011 0 0.023 0.003 0.035 0.010s0.024 0.014 0.034 0.024 0.019 0.019 0.026 0.030 0.010 0.021 0.010 0.030v0.288c0 0.013-0.002 0.026-0.008 0.039s-0.012 0.023-0.021 0.033-0.020 0.017-0.032 0.022-0.026 0.009-0.040 0.009z"></path>
<path fill="rgb(205, 205, 206)" d="M7.819 14.022h-0.173c-0.022 0-0.039-0.004-0.052-0.013s-0.022-0.020-0.027-0.034c-0.003-0.009-0.005-0.013-0.006-0.013-0.017 0.027-0.029 0.043-0.036 0.046-0.021 0.009-0.049 0.014-0.086 0.014h-0.168c-0.015 0-0.028-0.003-0.041-0.008s-0.023-0.013-0.032-0.023-0.016-0.020-0.021-0.033-0.008-0.025-0.008-0.038v-0.288c0-0.007 0.001-0.012 0.002-0.017s0.003-0.009 0.006-0.014 0.006-0.009 0.011-0.013 0.010-0.010 0.017-0.017c0.023-0.022 0.047-0.032 0.070-0.032h0.179v0.112h-0.168c-0.011 0-0.020 0.001-0.027 0.004s-0.014 0.006-0.019 0.010-0.008 0.009-0.011 0.014-0.003 0.010-0.003 0.015v0.151c0 0.015 0.001 0.026 0.004 0.035s0.006 0.015 0.011 0.019 0.012 0.007 0.020 0.009 0.018 0.002 0.030 0.002h0.175c0.009 0 0.018-0.001 0.025-0.004s0.014-0.005 0.020-0.009 0.010-0.007 0.013-0.011 0.005-0.007 0.005-0.011v-0.187h0.068v0.165c0 0.013 0.001 0.023 0.002 0.030s0.004 0.013 0.008 0.017 0.008 0.006 0.013 0.007 0.011 0.002 0.018 0.002h0.158c0.012 0 0.023-0.001 0.031-0.002s0.015-0.005 0.021-0.009 0.009-0.011 0.011-0.020 0.003-0.020 0.003-0.034v-0.151c0-0.005-0.001-0.010-0.004-0.015s-0.006-0.010-0.011-0.014-0.011-0.007-0.019-0.010-0.016-0.004-0.026-0.004h-0.128v-0.112h0.138c0.011 0 0.023 0.003 0.035 0.010s0.024 0.014 0.034 0.024 0.019 0.019 0.026 0.030 0.010 0.021 0.010 0.030v0.288c0 0.013-0.003 0.026-0.008 0.039s-0.012 0.023-0.021 0.032-0.020 0.017-0.032 0.022-0.025 0.008-0.040 0.008z"></path>
<path fill="rgb(205, 205, 206)" d="M7.92 14.669h-0.497v0.068h-0.064v-0.068h-0.188v-0.112h0.188v-0.34h0.108l0.453 0.309v0.143zM7.855 14.557l-0.433-0.289v0.289h0.433z"></path>
<path fill="rgb(205, 205, 206)" d="M7.92 15.417h-0.058v-0.371h-0.192l0.004 0.004c0.003 0.002 0.006 0.005 0.009 0.008s0.006 0.006 0.009 0.009 0.005 0.005 0.006 0.007c0.009 0.022 0.013 0.039 0.013 0.051v0.197c0 0.010-0.003 0.021-0.009 0.032s-0.014 0.021-0.022 0.031-0.018 0.017-0.028 0.023-0.019 0.009-0.027 0.009h-0.352c-0.015 0-0.028-0.003-0.041-0.008s-0.023-0.013-0.032-0.023-0.016-0.020-0.021-0.033-0.008-0.025-0.008-0.038v-0.288c0-0.012 0.003-0.023 0.010-0.034s0.015-0.021 0.025-0.030 0.022-0.016 0.034-0.021 0.025-0.008 0.037-0.008h0.115v0.112h-0.105c-0.024 0-0.040 0.004-0.051 0.013s-0.016 0.020-0.016 0.033v0.155c0 0.020 0.006 0.034 0.016 0.044s0.029 0.014 0.054 0.014h0.306c0.019 0 0.033-0.004 0.042-0.013s0.014-0.019 0.014-0.031v-0.138c0-0.014-0.007-0.028-0.021-0.042s-0.034-0.024-0.059-0.031c-0.013-0.004-0.019-0.042-0.019-0.116h0.367v0.483z"></path>
<path fill="rgb(205, 205, 206)" d="M7.814 16.115h-0.086v-0.112h0.076c0.020 0 0.036-0.004 0.048-0.012s0.018-0.020 0.018-0.036v-0.153c0-0.009-0.001-0.017-0.003-0.024s-0.006-0.013-0.011-0.018-0.012-0.009-0.021-0.011-0.020-0.004-0.033-0.004c-0.008 0-0.018 0-0.031 0s-0.025 0-0.036 0.001-0.022 0.001-0.030 0.002-0.013 0.002-0.013 0.004v0.271c0 0.010-0.003 0.021-0.010 0.032s-0.015 0.021-0.025 0.030-0.022 0.016-0.034 0.022-0.025 0.009-0.037 0.009h-0.314c-0.015 0-0.028-0.003-0.041-0.008s-0.023-0.013-0.032-0.023-0.016-0.020-0.021-0.033-0.008-0.025-0.008-0.038v-0.288c0-0.013 0.002-0.024 0.007-0.036s0.012-0.021 0.021-0.030 0.020-0.015 0.033-0.020 0.028-0.008 0.045-0.008h0.543c0.015 0 0.028 0.003 0.040 0.008s0.023 0.013 0.032 0.022 0.016 0.020 0.021 0.032 0.008 0.025 0.008 0.038v0.29c0 0.010-0.003 0.021-0.010 0.032s-0.015 0.021-0.025 0.030-0.021 0.017-0.034 0.022-0.025 0.009-0.037 0.009zM7.576 16.002c0.020 0 0.037-0.004 0.049-0.012s0.018-0.020 0.018-0.036v-0.153c0-0.009-0.001-0.017-0.003-0.024s-0.006-0.013-0.011-0.018-0.013-0.009-0.022-0.011-0.021-0.004-0.035-0.004h-0.284c-0.024 0-0.040 0.004-0.051 0.013s-0.016 0.020-0.016 0.033v0.155c0 0.020 0.006 0.034 0.016 0.044s0.029 0.014 0.054 0.014h0.286z"></path>
</svg>
