<?xml version="1.0" encoding="utf-8"?>
<!-- Generated by IcoMoon.io -->
<!DOCTYPE svg PUBLIC "-//W3C//DTD SVG 1.1//EN" "http://www.w3.org/Graphics/SVG/1.1/DTD/svg11.dtd">
<svg version="1.1" xmlns="http://www.w3.org/2000/svg" xmlns:xlink="http://www.w3.org/1999/xlink" width="20" height="20" viewBox="0 0 20 20">
<path fill="rgb(50, 190, 166)" d="M19.691 10c0-5.352-4.339-9.691-9.69-9.691s-9.691 4.338-9.691 9.691c0 5.352 4.339 9.69 9.691 9.69s9.69-4.339 9.69-9.69z"></path>
<path fill="rgb(82, 82, 82)" d="M15.63 13.485c0 0.656-0.154 0.643-0.841 0.643h-9.266c-0.687 0-1.244-0.532-1.244-1.187v-5.572c0-0.656 0.557-1.187 1.244-1.187h9.199c0.687 0 0.907 0.235 0.907 0.89v6.413z"></path>
<path fill="rgb(68, 69, 69)" d="M15.388 13.288c0 0.655-0.189 0.643-0.846 0.643h-8.829c-0.658 0-1.191-0.532-1.191-1.187v-5.069c0-0.656 0.533-1.187 1.191-1.187h8.907c0.658 0 0.769 0.301 0.769 0.956v5.844z"></path>
<path fill="rgb(239, 181, 51)" d="M12.018 8.522c1.115-1.115 1.115-2.922 0-4.037s-2.922-1.115-4.037 0c-1.115 1.115-1.115 2.922 0 4.037s2.922 1.115 4.037 0z"></path>
<path fill="rgb(229, 170, 23)" d="M12.018 8.522c1.115-1.115 1.115-2.922 0-4.037l-4.037 4.037c1.115 1.115 2.922 1.115 4.037 0z"></path>
<path fill="rgb(244, 222, 127)" d="M11.749 8.253c0.966-0.966 0.966-2.533 0-3.499s-2.533-0.966-3.499 0c-0.966 0.966-0.966 2.533 0 3.499s2.533 0.966 3.499 0z"></path>
<path fill="rgb(242, 213, 90)" d="M11.749 8.253c0.966-0.966 0.966-2.533 0-3.499l-3.499 3.499c0.966 0.966 2.533 0.966 3.499 0z"></path>
<path fill="rgb(229, 170, 23)" d="M10.948 5.649c0 0.182-0.206 0.311-0.218 0.295-0.154-0.178-0.417-0.311-0.683-0.311-0.271 0-0.437 0.121-0.437 0.303 0 0.21 0.222 0.267 0.534 0.336 0.372 0.081 0.861 0.231 0.861 0.76 0 0.408-0.283 0.691-0.756 0.764v0.158c0 0.186-0.073 0.275-0.234 0.275h-0.020c-0.17 0-0.23-0.085-0.23-0.275v-0.149c-0.489-0.053-0.768-0.275-0.768-0.501 0-0.174 0.194-0.299 0.21-0.283 0.154 0.186 0.453 0.339 0.768 0.339 0.287 0 0.453-0.121 0.453-0.303 0-0.222-0.251-0.283-0.546-0.352-0.356-0.077-0.825-0.218-0.825-0.752 0-0.388 0.275-0.667 0.712-0.748v-0.15c0-0.186 0.069-0.275 0.231-0.275h0.024c0.166 0 0.23 0.085 0.23 0.275v0.138c0.449 0.048 0.695 0.251 0.695 0.457z"></path>
<path fill="rgb(242, 213, 90)" d="M10.426 7.056c0-0.222-0.251-0.283-0.546-0.352-0.022-0.005-0.044-0.010-0.066-0.015l-0.465 0.465c0.164 0.12 0.389 0.205 0.624 0.205 0.287-0 0.453-0.121 0.453-0.303z"></path>
<path fill="rgb(242, 213, 90)" d="M11.749 4.754l-0.814 0.814c0.008 0.027 0.013 0.053 0.013 0.080 0 0.182-0.206 0.311-0.218 0.295-0.026-0.030-0.054-0.058-0.085-0.084l-0.428 0.428c0.36 0.085 0.789 0.248 0.789 0.744 0 0.408-0.283 0.691-0.756 0.764v0.158c0 0.186-0.073 0.275-0.234 0.275h-0.020c-0.17 0-0.23-0.085-0.23-0.275v-0.149c-0.373-0.040-0.623-0.178-0.721-0.342l-0.792 0.792c0.966 0.966 2.533 0.966 3.499 0s0.966-2.533 0-3.499z"></path>
<path fill="rgb(239, 181, 51)" d="M9.205 7.019c-0.016-0.016-0.21 0.109-0.21 0.283 0 0.054 0.016 0.108 0.047 0.159l0.308-0.308c-0.056-0.041-0.105-0.087-0.145-0.134z"></path>
<path fill="rgb(239, 181, 51)" d="M10.144 6.271c-0.311-0.069-0.534-0.125-0.534-0.336 0-0.182 0.166-0.303 0.437-0.303 0.223 0 0.442 0.093 0.598 0.227l0.291-0.291c-0.055-0.176-0.293-0.334-0.683-0.376v-0.138c0-0.19-0.065-0.275-0.23-0.275h-0.024c-0.162 0-0.231 0.089-0.231 0.275v0.15c-0.437 0.081-0.712 0.36-0.712 0.748 0 0.501 0.414 0.657 0.759 0.737l0.401-0.401c-0.025-0.006-0.049-0.011-0.072-0.017z"></path>
<path fill="rgb(229, 170, 23)" d="M10.73 5.944c0.012 0.016 0.218-0.113 0.218-0.295 0-0.027-0.004-0.054-0.013-0.080l-0.291 0.291c0.031 0.027 0.060 0.055 0.085 0.084z"></path>
<path fill="rgb(97, 97, 97)" d="M15.111 14.029c0 0.656-0.259 0.841-0.915 0.841h-9.249c-0.655 0-0.668-0.062-0.668-0.717v-6.718c0 0 0.008-0.161 0.016-0.261 0.017-0.226 0.182-0.448 0.182-0.448s0.099 0.412 0.379 0.527c0.439 0.181 0.78 0.165 0.78 0.165h8.56c0.656 0 0.915 0.086 0.915 0.742v5.869z"></path>
<path fill="rgb(113, 113, 113)" d="M5.063 7.868v0l-0.61-0c-0.084 0-0.153-0.068-0.153-0.153s0.068-0.153 0.153-0.153v0l0.61 0c0.084 0 0.153 0.068 0.153 0.153s-0.068 0.153-0.153 0.153z"></path>
<path fill="rgb(113, 113, 113)" d="M13.973 14.688h-0.301c-0.084 0-0.152-0.068-0.152-0.153s0.068-0.153 0.152-0.153h0.301c0.508 0 0.593-0.044 0.636-0.208 0.022-0.081 0.105-0.13 0.187-0.108s0.13 0.105 0.108 0.187c-0.116 0.434-0.512 0.434-0.931 0.434zM12.443 14.688h-1.229c-0.084 0-0.153-0.068-0.153-0.153s0.068-0.153 0.153-0.153h1.229c0.084 0 0.153 0.068 0.153 0.153s-0.068 0.153-0.153 0.153zM9.985 14.688h-1.229c-0.084 0-0.153-0.068-0.153-0.153s0.068-0.153 0.153-0.153h1.229c0.084 0 0.152 0.068 0.152 0.153s-0.068 0.153-0.152 0.153zM7.527 14.688h-1.229c-0.084 0-0.153-0.068-0.153-0.153s0.068-0.153 0.153-0.153h1.229c0.084 0 0.153 0.068 0.153 0.153s-0.068 0.153-0.153 0.153zM14.789 13.141c-0.084 0-0.153-0.068-0.153-0.153v-1.229c0-0.084 0.068-0.153 0.153-0.153s0.153 0.068 0.153 0.153v1.229c0 0.084-0.068 0.153-0.153 0.153zM14.789 10.682c-0.084 0-0.153-0.068-0.153-0.153v-1.229c0-0.084 0.068-0.153 0.153-0.153s0.153 0.068 0.153 0.153v1.229c0 0.084-0.068 0.153-0.153 0.153zM14.742 8.229c-0.065 0-0.125-0.042-0.145-0.107-0.043-0.137-0.118-0.25-0.591-0.25l-0.34-0c-0.084-0-0.153-0.068-0.153-0.153s0.068-0.152 0.153-0.152l0.34 0c0.382 0 0.753 0.056 0.882 0.463 0.025 0.080-0.019 0.166-0.099 0.191-0.015 0.005-0.031 0.007-0.046 0.007zM12.437 7.872l-1.229-0.001c-0.084 0-0.152-0.068-0.152-0.153s0.068-0.153 0.153-0.153l1.229 0.001c0.084 0 0.152 0.068 0.152 0.153s-0.068 0.153-0.153 0.153zM9.979 7.87l-1.229-0.001c-0.084 0-0.153-0.068-0.152-0.153s0.068-0.153 0.152-0.153v0l1.229 0.001c0.084 0 0.152 0.069 0.152 0.153s-0.068 0.152-0.152 0.152zM7.521 7.869v0l-1.229-0c-0.084 0-0.153-0.069-0.153-0.153s0.068-0.152 0.153-0.152v0l1.229 0c0.084 0 0.153 0.068 0.153 0.153s-0.068 0.152-0.153 0.152z"></path>
<path fill="rgb(113, 113, 113)" d="M5.063 14.688h-0.61c-0.084 0-0.153-0.068-0.153-0.153s0.068-0.153 0.153-0.153h0.61c0.084 0 0.153 0.068 0.153 0.153s-0.068 0.153-0.153 0.153z"></path>
<path fill="rgb(97, 97, 97)" d="M14.525 13.739c0 0.556-0.195 0.598-0.765 0.598h-9.464v-6.441l9.495 0.004c0.57 0 0.734 0.157 0.734 0.713v5.125z"></path>
<path fill="rgb(114, 113, 114)" d="M15.65 11.4h-2.968c-0.192 0-0.55-0.344-0.55-1.038s0.358-1.018 0.55-1.018h2.968c0.098-0 0.088 2.056 0 2.056z"></path>
<path fill="rgb(87, 86, 86)" d="M15.65 11.565h-2.968c-0.192 0-0.55-0.344-0.55-1.037s0.358-1.018 0.55-1.018h2.968c0.098 0 0.088 2.056 0 2.056z"></path>
<path fill="rgb(214, 203, 120)" d="M13.454 10.543c0 0.25-0.173 0.453-0.388 0.453s-0.387-0.203-0.387-0.453c0-0.25 0.173-0.453 0.387-0.453s0.388 0.203 0.388 0.453z"></path>
<path fill="rgb(236, 225, 126)" d="M13.379 10.543c0 0.202-0.14 0.365-0.312 0.365s-0.312-0.164-0.312-0.365 0.14-0.366 0.312-0.366c0.172 0 0.312 0.164 0.312 0.366z"></path>
</svg>
