<?xml version="1.0" encoding="utf-8"?>
<!-- Generated by IcoMoon.io -->
<!DOCTYPE svg PUBLIC "-//W3C//DTD SVG 1.1//EN" "http://www.w3.org/Graphics/SVG/1.1/DTD/svg11.dtd">
<svg version="1.1" xmlns="http://www.w3.org/2000/svg" xmlns:xlink="http://www.w3.org/1999/xlink" width="20" height="20" viewBox="0 0 20 20">
<path fill="rgb(50, 190, 166)" d="M19.691 10c0-5.352-4.339-9.691-9.69-9.691s-9.691 4.338-9.691 9.691c0 5.352 4.339 9.69 9.691 9.69s9.69-4.339 9.69-9.69z"></path>
<path fill="rgb(237, 201, 44)" d="M5.246 9.849l-0.751-0.162c0.296-0.524 0.082-2.196-0.016-2.546l-0.011-0.040-0.003-0.042c-0.023-0.28 0.074-0.558 0.264-0.764s0.46-0.324 0.741-0.324h9.062c0.28 0 0.55 0.118 0.741 0.324s0.286 0.485 0.264 0.764l-0.003 0.042-0.011 0.040c-0.146 0.523-0.279 2.081-0.016 2.546l-0.751 0.162c-0.487-0.863-0.164-2.555-0.078-2.885-0.003-0.031-0.016-0.060-0.038-0.084-0.027-0.030-0.066-0.047-0.107-0.047h-9.062c-0.040 0-0.079 0.017-0.107 0.047-0.021 0.023-0.034 0.053-0.038 0.084 0.086 0.33 0.409 2.023-0.078 2.885z"></path>
<path fill="rgb(234, 73, 73)" d="M16.582 11.404c-0.206-0.928-0.722-1.155-1.195-1.918s-0.504-2.219-0.504-2.219c0.012-0.153-0.040-0.305-0.144-0.418s-0.251-0.178-0.405-0.178h-8.667c-0.154 0-0.301 0.064-0.405 0.178s-0.157 0.265-0.144 0.418c0 0-0.031 1.456-0.504 2.219s-0.989 0.99-1.195 1.918c-0.161 0.725 0.021 1.712 0.577 2.248 0.555 0.535 1.48 0.946 5.986 0.949v0c0.006 0 0.012-0 0.018-0s0.012 0 0.018 0v-0c4.506-0.002 5.431-0.414 5.986-0.949 0.557-0.536 0.739-1.523 0.577-2.248z"></path>
<path fill="rgb(249, 249, 249)" d="M6.634 10.54c0 0.318-0.258 0.576-0.576 0.576s-0.576-0.258-0.576-0.576c0-0.318 0.258-0.576 0.576-0.576s0.576 0.258 0.576 0.576z"></path>
<path fill="rgb(249, 249, 249)" d="M9.262 10.54c0 0.318-0.258 0.576-0.576 0.576s-0.576-0.258-0.576-0.576c0-0.318 0.258-0.576 0.576-0.576s0.576 0.258 0.576 0.576z"></path>
<path fill="rgb(249, 249, 249)" d="M11.891 10.54c0 0.318-0.258 0.576-0.576 0.576s-0.576-0.258-0.576-0.576c0-0.318 0.258-0.576 0.576-0.576s0.576 0.258 0.576 0.576z"></path>
<path fill="rgb(249, 249, 249)" d="M14.519 10.54c0 0.318-0.258 0.577-0.577 0.577s-0.577-0.258-0.577-0.577c0-0.318 0.258-0.577 0.577-0.577s0.577 0.258 0.577 0.577z"></path>
<path fill="rgb(249, 249, 249)" d="M5.32 12.253c0 0.318-0.258 0.577-0.577 0.577s-0.577-0.258-0.577-0.577c0-0.318 0.258-0.577 0.577-0.577s0.577 0.258 0.577 0.577z"></path>
<path fill="rgb(249, 249, 249)" d="M7.949 12.253c0 0.318-0.258 0.577-0.577 0.577s-0.577-0.258-0.577-0.577c0-0.318 0.258-0.577 0.577-0.577s0.577 0.258 0.577 0.577z"></path>
<path fill="rgb(249, 249, 249)" d="M10.577 12.253c0 0.318-0.258 0.577-0.577 0.577s-0.577-0.258-0.577-0.577c0-0.318 0.258-0.577 0.577-0.577s0.577 0.258 0.577 0.577z"></path>
<path fill="rgb(249, 249, 249)" d="M13.205 12.253c0 0.318-0.258 0.577-0.577 0.577s-0.577-0.258-0.577-0.577c0-0.318 0.258-0.577 0.577-0.577s0.577 0.258 0.577 0.577z"></path>
<path fill="rgb(249, 249, 249)" d="M15.833 12.253c0 0.318-0.258 0.576-0.576 0.576s-0.576-0.258-0.576-0.576c0-0.318 0.258-0.576 0.576-0.576s0.576 0.258 0.576 0.576z"></path>
<path fill="rgb(249, 249, 249)" d="M7.949 8.934c0 0.318-0.258 0.577-0.577 0.577s-0.577-0.258-0.577-0.577c0-0.318 0.258-0.577 0.577-0.577s0.577 0.258 0.577 0.577z"></path>
<path fill="rgb(249, 249, 249)" d="M10.577 8.934c0 0.318-0.258 0.577-0.577 0.577s-0.577-0.258-0.577-0.577c0-0.318 0.258-0.577 0.577-0.577s0.577 0.258 0.577 0.577z"></path>
<path fill="rgb(249, 249, 249)" d="M13.205 8.934c0 0.318-0.258 0.577-0.577 0.577s-0.577-0.258-0.577-0.577c0-0.318 0.258-0.577 0.577-0.577s0.577 0.258 0.577 0.577z"></path>
<path fill="rgb(237, 201, 44)" d="M9.631 6.612c-0.093 0-0.182-0.055-0.22-0.146l-0.606-1.433c-0.051-0.122 0.005-0.262 0.127-0.313s0.262 0.005 0.313 0.127l0.606 1.433c0.051 0.122-0.005 0.262-0.127 0.313-0.030 0.013-0.062 0.019-0.093 0.019z"></path>
<path fill="rgb(237, 201, 44)" d="M8.344 4.903c0-0.244 0.198-0.441 0.441-0.441s0.441 0.197 0.441 0.441c0 0.244-0.198 0.441-0.441 0.441s-0.441-0.197-0.441-0.441z"></path>
<path fill="rgb(237, 201, 44)" d="M10.2 6.612c-0.031 0-0.063-0.006-0.093-0.019-0.122-0.051-0.178-0.192-0.127-0.313l0.606-1.433c0.051-0.121 0.192-0.178 0.313-0.127s0.178 0.192 0.127 0.313l-0.606 1.433c-0.039 0.091-0.127 0.146-0.22 0.146z"></path>
<path fill="rgb(237, 201, 44)" d="M11.487 4.903c0 0.244-0.197 0.441-0.441 0.441s-0.441-0.197-0.441-0.441c0-0.244 0.197-0.441 0.441-0.441s0.441 0.197 0.441 0.441z"></path>
</svg>
