<?xml version="1.0" encoding="utf-8"?>
<!-- Generated by IcoMoon.io -->
<!DOCTYPE svg PUBLIC "-//W3C//DTD SVG 1.1//EN" "http://www.w3.org/Graphics/SVG/1.1/DTD/svg11.dtd">
<svg version="1.1" xmlns="http://www.w3.org/2000/svg" xmlns:xlink="http://www.w3.org/1999/xlink" width="20" height="20" viewBox="0 0 20 20">
<path fill="rgb(37, 183, 211)" d="M19.691 10c0-5.352-4.339-9.691-9.69-9.691s-9.691 4.338-9.691 9.691c0 5.352 4.339 9.69 9.691 9.69s9.69-4.339 9.69-9.69z"></path>
<path fill="rgb(183, 202, 196)" d="M16.426 7.253l-6.335-3.166-6.251 3.166c0 0.085 0 0.608 0 0.693l6.335 3.385 6.251-3.385c0-0.085 0-0.608 0-0.693z"></path>
<path fill="rgb(225, 225, 225)" d="M16.426 7.61l-6.335-3.167-6.251 3.167c0 0.085 0 0.608 0 0.693l6.335 3.385 6.251-3.385c0-0.085 0-0.608 0-0.693z"></path>
<path fill="rgb(183, 202, 196)" d="M3.836 8.253h12.579l-0.721 2.094-5.47 1.368-2.066-0.2z"></path>
<path fill="rgb(185, 239, 189)" d="M7.273 3.977l4.577 8.654-3.744 1.98-4.577-8.654 3.744-1.98z"></path>
<path fill="rgb(113, 173, 113)" d="M8.199 14.374l-4.421-8.36 3.403-1.8 4.421 8.36-3.403 1.8zM11.475 12.547l-4.343-8.212-3.227 1.707 4.343 8.212 3.227-1.706z"></path>
<path fill="rgb(113, 173, 113)" d="M8.471 10.771c0.816-0.431 1.127-1.442 0.696-2.258s-1.442-1.127-2.258-0.696c-0.816 0.432-1.128 1.442-0.696 2.258s1.442 1.127 2.258 0.696z"></path>
<path fill="rgb(99, 189, 110)" d="M8.559 8.786c-0.056-0.070-0.127-0.112-0.212-0.124s-0.17 0.003-0.252 0.047c-0.083 0.044-0.142 0.1-0.178 0.168s-0.046 0.157-0.030 0.266l0.673-0.356zM6.945 9.792c0.052 0.072 0.127 0.115 0.225 0.129s0.198-0.006 0.301-0.061c0.088-0.047 0.15-0.102 0.184-0.166s0.044-0.162 0.029-0.293l-0.739 0.391z"></path>
<path fill="rgb(185, 239, 189)" d="M9.659 3.602l2.351 9.503-4.111 1.017-2.351-9.503 4.111-1.017z"></path>
<path fill="rgb(113, 173, 113)" d="M8.046 13.914l-2.271-9.181 3.737-0.924 2.271 9.181-3.736 0.924zM11.666 12.932l-2.231-9.018-3.543 0.877 2.231 9.018 3.543-0.877z"></path>
<path fill="rgb(113, 173, 113)" d="M9.18 10.484c0.896-0.222 1.442-1.127 1.221-2.023s-1.128-1.442-2.023-1.221c-0.896 0.222-1.443 1.127-1.221 2.023s1.127 1.442 2.023 1.221z"></path>
<path fill="rgb(99, 189, 110)" d="M9.745 8.578c-0.037-0.082-0.096-0.139-0.176-0.172s-0.165-0.038-0.256-0.016c-0.091 0.022-0.162 0.062-0.213 0.12s-0.083 0.141-0.094 0.251l0.739-0.183zM7.936 9.165c0.033 0.083 0.096 0.143 0.188 0.18s0.194 0.042 0.307 0.014c0.097-0.024 0.17-0.063 0.219-0.117s0.082-0.147 0.099-0.278l-0.812 0.201z"></path>
<path fill="rgb(185, 239, 189)" d="M7.803 3.821h4.236v9.789h-4.236v-9.789z"></path>
<path fill="rgb(113, 173, 113)" d="M7.996 13.445v-9.457h3.849v9.457h-3.849zM11.746 13.361v-9.29h-3.65v9.29h3.65z"></path>
<path fill="rgb(113, 173, 113)" d="M9.921 10.387c0.923 0 1.671-0.748 1.671-1.671s-0.748-1.671-1.671-1.671c-0.923 0-1.671 0.748-1.671 1.671s0.748 1.671 1.671 1.671z"></path>
<path fill="rgb(99, 189, 110)" d="M10.927 8.672c-0.017-0.088-0.059-0.158-0.129-0.209s-0.151-0.077-0.245-0.077c-0.094 0-0.172 0.022-0.236 0.065s-0.114 0.117-0.151 0.221h0.761zM9.030 8.808c0.012 0.088 0.059 0.162 0.139 0.22s0.178 0.087 0.295 0.087c0.1 0 0.18-0.020 0.24-0.061s0.115-0.123 0.162-0.246h-0.836z"></path>
<path fill="rgb(185, 239, 189)" d="M14.52 4.726l-2.601 9.438-4.084-1.125 2.601-9.438 4.084 1.125z"></path>
<path fill="rgb(113, 173, 113)" d="M8.066 12.929l2.513-9.118 3.711 1.023-2.513 9.118-3.711-1.023zM11.703 13.845l2.468-8.956-3.519-0.97-2.468 8.956 3.519 0.97z"></path>
<path fill="rgb(113, 173, 113)" d="M10.734 10.493c0.889 0.245 1.809-0.277 2.055-1.167s-0.277-1.809-1.167-2.055c-0.89-0.245-1.81 0.277-2.055 1.167s0.277 1.809 1.167 2.055z"></path>
<path fill="rgb(99, 189, 110)" d="M12.159 9.107c0.007-0.089-0.015-0.168-0.069-0.236s-0.126-0.114-0.216-0.139c-0.090-0.025-0.172-0.025-0.244 0s-0.141 0.082-0.204 0.173l0.734 0.202zM10.295 8.734c-0.011 0.088 0.014 0.171 0.076 0.249s0.149 0.131 0.261 0.162c0.096 0.027 0.179 0.028 0.248 0.005s0.143-0.088 0.222-0.194l-0.806-0.222z"></path>
<path fill="rgb(185, 239, 189)" d="M16.471 6.093l-4.769 8.549-3.699-2.064 4.769-8.549 3.699 2.064z"></path>
<path fill="rgb(113, 173, 113)" d="M8.252 12.527l4.608-8.259 3.361 1.875-4.608 8.259-3.361-1.875zM11.567 14.281l4.526-8.113-3.188-1.778-4.526 8.113 3.188 1.778z"></path>
<path fill="rgb(113, 173, 113)" d="M11.422 10.794c0.806 0.45 1.824 0.161 2.273-0.645s0.161-1.824-0.645-2.273c-0.806-0.45-1.824-0.161-2.273 0.645s-0.161 1.824 0.645 2.273z"></path>
<path fill="rgb(185, 239, 189)" d="M11.038 8.617l0.24 0.134c0.070-0.092 0.142-0.158 0.216-0.198s0.166-0.059 0.277-0.057c0.111 0.002 0.231 0.035 0.36 0.097l-0.068 0.224c-0.136-0.056-0.246-0.081-0.329-0.076-0.117 0.008-0.201 0.049-0.254 0.123l0.763 0.426c0.064-0.072 0.149-0.134 0.255-0.188 0.077-0.040 0.163-0.056 0.257-0.048s0.19 0.039 0.286 0.093c0.171 0.095 0.281 0.222 0.331 0.381 0.033 0.108 0.021 0.232-0.037 0.373l0.114 0.064-0.066 0.118-0.114-0.064c-0.079 0.107-0.171 0.176-0.276 0.206-0.136 0.039-0.286 0.025-0.448-0.042l0.079-0.227c0.101 0.041 0.187 0.057 0.258 0.047s0.132-0.042 0.185-0.098l-0.692-0.386c-0.085 0.084-0.146 0.137-0.182 0.16-0.067 0.044-0.135 0.072-0.204 0.084s-0.141 0.011-0.217-0.004c-0.077-0.015-0.152-0.043-0.226-0.085-0.167-0.093-0.282-0.215-0.343-0.364s-0.057-0.296 0.013-0.44l-0.242-0.135 0.066-0.118zM13.136 9.787c0.029-0.085 0.025-0.167-0.011-0.246s-0.095-0.141-0.176-0.186c-0.082-0.046-0.161-0.065-0.237-0.058s-0.157 0.047-0.24 0.119l0.665 0.371zM11.414 8.981c-0.032 0.083-0.027 0.17 0.014 0.26s0.113 0.163 0.215 0.219c0.087 0.049 0.167 0.070 0.239 0.064s0.16-0.051 0.262-0.136l-0.73-0.407z"></path>
<path fill="rgb(237, 237, 237)" d="M3.841 8.25l-0.001 5.979c0 0.311 0.253 0.564 0.564 0.564h11.459c0.311 0 0.564-0.253 0.564-0.564l-0.011-5.99-6.241 3.428-6.334-3.416z"></path>
<path fill="rgb(229, 229, 229)" d="M10.175 11.689l6.229-3.407 0.011 5.946c0 0.312-0.253 0.565-0.565 0.565l-5.675-3.104z"></path>
<path fill="rgb(229, 229, 229)" d="M3.836 8.253l6.388 3.436-5.824 3.081c-0.312 0-0.565-0.253-0.565-0.565l0.001-5.952z"></path>
</svg>
