<?xml version="1.0" encoding="utf-8"?>
<!-- Generated by IcoMoon.io -->
<!DOCTYPE svg PUBLIC "-//W3C//DTD SVG 1.1//EN" "http://www.w3.org/Graphics/SVG/1.1/DTD/svg11.dtd">
<svg version="1.1" xmlns="http://www.w3.org/2000/svg" xmlns:xlink="http://www.w3.org/1999/xlink" width="20" height="20" viewBox="0 0 20 20">
<path fill="rgb(234, 73, 73)" d="M19.691 10c0-5.352-4.339-9.691-9.69-9.691s-9.691 4.338-9.691 9.691c0 5.352 4.339 9.69 9.691 9.69s9.69-4.339 9.69-9.69z"></path>
<path fill="rgb(185, 239, 189)" d="M6.804 3.971l5.364 10.143-4.389 2.321-5.364-10.143 4.389-2.321z"></path>
<path fill="rgb(113, 173, 113)" d="M7.889 16.157l-5.182-9.799 3.988-2.109 5.182 9.799-3.988 2.109zM11.728 14.015l-5.090-9.625-3.782 2 5.090 9.625 3.782-2z"></path>
<path fill="rgb(113, 173, 113)" d="M8.208 11.934c0.956-0.506 1.321-1.691 0.816-2.647s-1.691-1.321-2.647-0.815c-0.956 0.506-1.322 1.691-0.816 2.647s1.691 1.321 2.647 0.816z"></path>
<path fill="rgb(99, 189, 110)" d="M8.311 9.607c-0.065-0.082-0.148-0.131-0.249-0.146s-0.199 0.003-0.296 0.055c-0.097 0.051-0.167 0.117-0.209 0.197s-0.054 0.184-0.036 0.312l0.788-0.417zM6.419 10.786c0.061 0.085 0.149 0.135 0.264 0.152s0.232-0.008 0.353-0.071c0.104-0.055 0.175-0.12 0.216-0.195s0.051-0.19 0.034-0.344l-0.866 0.458z"></path>
<path fill="rgb(185, 239, 189)" d="M9.6 3.53l2.755 11.138-4.819 1.192-2.755-11.138 4.819-1.192z"></path>
<path fill="rgb(113, 173, 113)" d="M7.709 15.618l-2.662-10.76 4.379-1.083 2.662 10.76-4.379 1.083zM11.952 14.467l-2.615-10.57-4.153 1.027 2.615 10.57 4.153-1.027z"></path>
<path fill="rgb(113, 173, 113)" d="M9.038 11.597c1.050-0.26 1.69-1.321 1.431-2.371s-1.322-1.69-2.371-1.431c-1.050 0.26-1.691 1.321-1.431 2.371s1.321 1.691 2.372 1.431z"></path>
<path fill="rgb(99, 189, 110)" d="M9.701 9.363c-0.044-0.096-0.112-0.163-0.206-0.202s-0.194-0.045-0.3-0.018c-0.107 0.026-0.19 0.073-0.25 0.14s-0.097 0.165-0.11 0.294l0.866-0.214zM7.581 10.051c0.039 0.097 0.112 0.167 0.22 0.211s0.227 0.049 0.36 0.016c0.114-0.028 0.199-0.074 0.256-0.137s0.096-0.172 0.116-0.325l-0.952 0.235z"></path>
<path fill="rgb(185, 239, 189)" d="M7.425 3.788h4.964v11.474h-4.964v-11.474z"></path>
<path fill="rgb(113, 173, 113)" d="M7.652 15.068v-11.085h4.512v11.085h-4.512zM12.047 14.969v-10.888h-4.278v10.888h4.278z"></path>
<path fill="rgb(113, 173, 113)" d="M9.907 11.483c1.081 0 1.958-0.877 1.958-1.958s-0.877-1.958-1.958-1.958c-1.082 0-1.959 0.877-1.959 1.958s0.877 1.958 1.959 1.958z"></path>
<path fill="rgb(99, 189, 110)" d="M11.087 9.474c-0.019-0.103-0.070-0.185-0.151-0.245s-0.177-0.090-0.287-0.090c-0.11 0-0.202 0.025-0.276 0.076s-0.134 0.137-0.177 0.259h0.892zM8.863 9.633c0.015 0.103 0.069 0.189 0.163 0.258s0.209 0.102 0.345 0.102c0.117 0 0.211-0.024 0.282-0.071s0.134-0.144 0.19-0.288h-0.98z"></path>
<path fill="rgb(185, 239, 189)" d="M15.298 4.849l-3.049 11.062-4.786-1.319 3.049-11.062 4.786 1.319z"></path>
<path fill="rgb(113, 173, 113)" d="M7.733 14.464l2.945-10.686 4.349 1.199-2.945 10.686-4.349-1.199zM11.996 15.537l2.893-10.497-4.124-1.137-2.893 10.497 4.124 1.137z"></path>
<path fill="rgb(113, 173, 113)" d="M10.86 11.608c1.042 0.287 2.121-0.325 2.408-1.368s-0.325-2.121-1.368-2.408c-1.043-0.287-2.121 0.325-2.408 1.367s0.325 2.121 1.368 2.408z"></path>
<path fill="rgb(99, 189, 110)" d="M12.531 9.984c0.009-0.105-0.018-0.197-0.081-0.277s-0.147-0.134-0.253-0.163c-0.106-0.029-0.201-0.029-0.287 0s-0.165 0.097-0.24 0.203l0.86 0.237zM10.345 9.546c-0.013 0.104 0.016 0.201 0.089 0.292s0.174 0.154 0.306 0.19c0.113 0.031 0.21 0.033 0.29 0.006s0.168-0.103 0.26-0.227l-0.945-0.26z"></path>
<path fill="rgb(185, 239, 189)" d="M17.584 6.451l-5.59 10.020-4.335-2.419 5.59-10.020 4.335 2.419z"></path>
<path fill="rgb(113, 173, 113)" d="M7.951 13.992l5.401-9.68 3.94 2.198-5.401 9.68-3.94-2.198zM11.837 16.047l5.305-9.509-3.736-2.084-5.305 9.509 3.736 2.084z"></path>
<path fill="rgb(113, 173, 113)" d="M11.667 11.961c0.944 0.527 2.137 0.189 2.664-0.756s0.188-2.137-0.756-2.664c-0.945-0.527-2.137-0.189-2.664 0.756s-0.189 2.137 0.756 2.664z"></path>
<path fill="rgb(185, 239, 189)" d="M11.217 9.409l0.281 0.157c0.082-0.108 0.167-0.185 0.253-0.232s0.194-0.069 0.324-0.067c0.13 0.003 0.27 0.041 0.422 0.114l-0.079 0.263c-0.159-0.065-0.288-0.095-0.386-0.089-0.137 0.010-0.236 0.058-0.298 0.144l0.894 0.499c0.074-0.084 0.174-0.157 0.299-0.221 0.091-0.047 0.191-0.066 0.302-0.057s0.222 0.045 0.335 0.109c0.2 0.112 0.329 0.26 0.387 0.446 0.038 0.126 0.024 0.272-0.043 0.437l0.134 0.075-0.077 0.138-0.134-0.075c-0.092 0.125-0.2 0.206-0.323 0.242-0.16 0.046-0.335 0.030-0.525-0.049l0.093-0.266c0.119 0.048 0.22 0.066 0.302 0.056s0.155-0.049 0.217-0.115l-0.811-0.453c-0.099 0.098-0.171 0.161-0.214 0.188-0.079 0.051-0.159 0.084-0.239 0.099s-0.165 0.013-0.255-0.004c-0.090-0.018-0.178-0.051-0.265-0.099-0.196-0.109-0.33-0.251-0.402-0.427s-0.067-0.347 0.015-0.515l-0.284-0.159 0.077-0.138zM13.676 10.781c0.033-0.1 0.029-0.196-0.013-0.288s-0.111-0.165-0.207-0.218c-0.096-0.053-0.189-0.076-0.278-0.068s-0.183 0.055-0.281 0.14l0.779 0.435zM11.657 9.836c-0.038 0.098-0.032 0.199 0.017 0.304s0.133 0.191 0.252 0.257c0.102 0.057 0.196 0.082 0.281 0.075s0.187-0.060 0.307-0.159l-0.856-0.478z"></path>
</svg>
