<?xml version="1.0" encoding="utf-8"?>
<!-- Generated by IcoMoon.io -->
<!DOCTYPE svg PUBLIC "-//W3C//DTD SVG 1.1//EN" "http://www.w3.org/Graphics/SVG/1.1/DTD/svg11.dtd">
<svg version="1.1" xmlns="http://www.w3.org/2000/svg" xmlns:xlink="http://www.w3.org/1999/xlink" width="20" height="20" viewBox="0 0 20 20">
<path fill="rgb(50, 190, 166)" d="M19.691 10c0-5.352-4.339-9.691-9.69-9.691s-9.691 4.338-9.691 9.691c0 5.352 4.339 9.69 9.691 9.69s9.69-4.339 9.69-9.69z"></path>
<path fill="rgb(229, 170, 23)" d="M14.863 14.864c2.686-2.686 2.686-7.041 0-9.727s-7.041-2.686-9.727 0c-2.686 2.686-2.686 7.041 0 9.727s7.041 2.686 9.727 0z"></path>
<path fill="rgb(214, 154, 22)" d="M14.863 14.864c2.686-2.686 2.686-7.041 0-9.727l-9.727 9.727c2.686 2.686 7.041 2.686 9.727 0z"></path>
<path fill="rgb(239, 181, 51)" d="M14.449 14.449c2.457-2.457 2.457-6.441 0-8.899s-6.441-2.458-8.899 0c-2.457 2.457-2.457 6.441 0 8.898s6.441 2.457 8.898 0z"></path>
<path fill="rgb(229, 170, 23)" d="M14.449 14.449c2.457-2.457 2.457-6.441 0-8.899l-8.898 8.898c2.457 2.457 6.441 2.457 8.898 0z"></path>
<path fill="rgb(229, 225, 216)" d="M13.759 13.759c2.076-2.076 2.076-5.442 0-7.517s-5.441-2.076-7.517 0c-2.076 2.076-2.076 5.441 0 7.517s5.442 2.076 7.517 0z"></path>
<path fill="rgb(216, 211, 195)" d="M13.759 13.759c2.076-2.076 2.076-5.442 0-7.517l-7.517 7.517c2.076 2.076 5.441 2.076 7.517 0z"></path>
<path fill="rgb(229, 170, 23)" d="M7.179 9.712c-0.341 0-0.487-0.166-0.487-0.39v-0.097c0-0.214 0.146-0.38 0.487-0.38h0.429c0.292-1.325 1.286-2.123 2.65-2.123 1.306 0 2.085 0.643 2.085 1.266 0 0.506-0.633 0.73-0.672 0.682-0.351-0.506-0.721-0.779-1.413-0.779-0.614 0-1.071 0.341-1.276 0.955h1.549c0.341 0 0.487 0.166 0.487 0.38v0.097c0 0.224-0.146 0.39-0.487 0.39h-1.666v0.565h1.666c0.341 0 0.487 0.166 0.487 0.38v0.098c0 0.214-0.146 0.38-0.487 0.38h-1.549c0.205 0.614 0.682 0.974 1.315 0.974 0.692 0 1.062-0.292 1.383-0.828 0.049-0.058 0.692 0.176 0.692 0.682 0 0.555-0.672 1.315-2.085 1.315s-2.406-0.789-2.689-2.143c0.010 0-0.419 0-0.419 0-0.341 0-0.487-0.165-0.487-0.38v-0.098c0-0.214 0.146-0.38 0.487-0.38h0.341v-0.565h-0.341z"></path>
<path fill="rgb(239, 181, 51)" d="M8.864 10.278v-0.565h1.424l0.679-0.679c-0.068-0.113-0.209-0.188-0.437-0.188h-1.549c0.205-0.614 0.662-0.955 1.276-0.955 0.597 0 0.955 0.204 1.267 0.585l0.766-0.766c-0.193-0.523-0.922-0.988-2.033-0.988-1.364 0-2.357 0.799-2.65 2.123h-0.429c-0.341 0-0.487 0.166-0.487 0.38v0.097c0 0.224 0.146 0.39 0.487 0.39h0.341v0.565h-0.341c-0.341 0-0.487 0.166-0.487 0.38v0.098c0 0.214 0.146 0.38 0.487 0.38 0 0 0.429 0 0.419 0 0.072 0.344 0.19 0.652 0.349 0.919l1.776-1.776h-0.859z"></path>
<path fill="rgb(229, 170, 23)" d="M11.669 8.67c0.039 0.049 0.672-0.175 0.672-0.682 0-0.093-0.018-0.187-0.052-0.278l-0.766 0.766c0.049 0.060 0.098 0.125 0.146 0.194z"></path>
<path fill="rgb(229, 170, 23)" d="M10.53 9.712c0.341 0 0.487-0.166 0.487-0.39v-0.097c0-0.071-0.016-0.136-0.050-0.192l-0.679 0.679h0.242z"></path>
</svg>
