<?xml version="1.0" encoding="utf-8"?>
<!-- Generated by IcoMoon.io -->
<!DOCTYPE svg PUBLIC "-//W3C//DTD SVG 1.1//EN" "http://www.w3.org/Graphics/SVG/1.1/DTD/svg11.dtd">
<svg version="1.1" xmlns="http://www.w3.org/2000/svg" xmlns:xlink="http://www.w3.org/1999/xlink" width="20" height="20" viewBox="0 0 20 20">
<path fill="rgb(51, 77, 92)" d="M19.691 10c0-5.352-4.339-9.691-9.69-9.691s-9.691 4.338-9.691 9.691c0 5.352 4.339 9.69 9.691 9.69s9.69-4.339 9.69-9.69z"></path>
<path fill="rgb(235, 151, 131)" d="M17.45 10.934c0-0.175-0.142-0.317-0.317-0.317-0.073 0-0.139 0.025-0.193 0.066l-0.431-0.066-2.717-1.949c-0.443-0.332-0.167-1.071-0.164-1.078 0.004-0.012 0.003-0.025-0.003-0.036s-0.017-0.018-0.030-0.020c-0.053-0.008-0.106-0.011-0.16-0.011-0.701 0-1.277 0.629-1.397 0.77-0.855-0.462-1.789-0.696-2.777-0.696-1.968 0-3.501 0.941-3.517 0.951-0.71 0.469-1.132 1.089-1.255 1.841-0.293 1.793 1.229 3.769 1.245 3.789 0.002 0.002 0.004 0.004 0.006 0.006 0.748 0.633 0.874 1.915 0.875 1.928 0.002 0.021 0.020 0.038 0.041 0.038h0.845c0.019 0 0.035-0.013 0.040-0.031l0.41-1.614c0.726 0.287 1.484 0.433 2.255 0.433 1.164-0 2.017-0.338 2.226-0.43l0.287 1.585c0.004 0.020 0.021 0.034 0.041 0.034h0.711c0.018 0 0.034-0.012 0.040-0.029l0.527-1.735c1.244-0.406 2.441-1.671 2.539-1.776l0.373-0.155c0.052 0.037 0.115 0.058 0.183 0.058 0.175 0 0.317-0.142 0.317-0.317l-0.055-0.633 0.055-0.606z"></path>
<path fill="rgb(160, 92, 82)" d="M17.142 11.132c0 0.126 0.085 0.228 0.189 0.228 0.029 0 0.057-0.008 0.082-0.023l0.035-0.384c-0.032-0.031-0.073-0.049-0.117-0.049-0.104 0-0.189 0.102-0.189 0.228z"></path>
<path fill="rgb(218, 229, 232)" d="M14.19 10.212c0 0.196-0.159 0.356-0.356 0.356s-0.356-0.159-0.356-0.356c0-0.196 0.159-0.356 0.356-0.356s0.356 0.159 0.356 0.356z"></path>
<path fill="rgb(80, 81, 81)" d="M13.968 10.123c0 0.11-0.090 0.2-0.2 0.2s-0.2-0.090-0.2-0.2c0-0.11 0.090-0.2 0.2-0.2s0.2 0.090 0.2 0.2z"></path>
<path fill="rgb(235, 151, 131)" d="M5.381 10.502c-0.058 0-0.116-0.019-0.164-0.058-0.039-0.031-0.384-0.323-0.457-0.932-0.032-0.267-0.262-0.571-0.558-0.74-0.22-0.125-0.439-0.156-0.6-0.085-0.515 0.227-0.532 0.591-0.515 0.737 0.021 0.185 0.127 0.326 0.212 0.342 0.218 0.041 0.449-0.036 0.509-0.132 0.055-0.087-0.047-0.245-0.093-0.308-0.086-0.119-0.060-0.286 0.059-0.373s0.286-0.060 0.373 0.059c0.319 0.439 0.207 0.757 0.112 0.907-0.211 0.334-0.693 0.44-1.059 0.371-0.331-0.062-0.596-0.393-0.644-0.805-0.049-0.423 0.143-0.983 0.829-1.286 0.317-0.14 0.711-0.1 1.079 0.109 0.447 0.255 0.771 0.702 0.824 1.14 0.047 0.393 0.255 0.574 0.264 0.582 0.111 0.094 0.127 0.262 0.034 0.374-0.053 0.064-0.129 0.098-0.206 0.098z"></path>
<path fill="rgb(160, 92, 82)" d="M8.362 8.114c0 0 1.58-0.394 2.992 0.31l-0.028 0.501c0 0-1.692-0.605-2.962-0.233l-0.002-0.578z"></path>
<path fill="rgb(239, 181, 51)" d="M11.8 4.64c0 0.994-0.806 1.8-1.8 1.8s-1.8-0.806-1.8-1.8c0-0.994 0.806-1.8 1.8-1.8s1.8 0.806 1.8 1.8z"></path>
<path fill="rgb(229, 170, 23)" d="M11.273 5.913c0.703-0.703 0.703-1.843 0-2.546l-2.545 2.545c0.703 0.703 1.843 0.703 2.545 0z"></path>
<path fill="rgb(244, 222, 127)" d="M11.56 4.64c0 0.862-0.698 1.56-1.56 1.56s-1.56-0.698-1.56-1.56c0-0.862 0.698-1.56 1.56-1.56s1.56 0.698 1.56 1.56z"></path>
<path fill="rgb(242, 213, 90)" d="M11.103 5.743c0.609-0.609 0.609-1.597 0-2.206l-2.206 2.206c0.609 0.609 1.597 0.609 2.206 0z"></path>
<path fill="rgb(229, 170, 23)" d="M10.598 4.101c0 0.115-0.13 0.196-0.138 0.186-0.097-0.112-0.263-0.196-0.431-0.196-0.171 0-0.275 0.076-0.275 0.191 0 0.133 0.14 0.168 0.337 0.212 0.235 0.051 0.543 0.145 0.543 0.479 0 0.258-0.178 0.436-0.477 0.482v0.099c0 0.117-0.046 0.173-0.148 0.173h-0.013c-0.107 0-0.145-0.054-0.145-0.173v-0.094c-0.309-0.033-0.484-0.173-0.484-0.316 0-0.11 0.122-0.189 0.133-0.178 0.097 0.117 0.286 0.214 0.484 0.214 0.181 0 0.286-0.076 0.286-0.191 0-0.14-0.158-0.178-0.344-0.222-0.224-0.048-0.52-0.138-0.52-0.474 0-0.245 0.173-0.421 0.449-0.472v-0.094c0-0.117 0.043-0.173 0.145-0.173h0.015c0.104 0 0.145 0.054 0.145 0.173v0.087c0.283 0.031 0.438 0.158 0.438 0.288z"></path>
<path fill="rgb(242, 213, 90)" d="M10.269 4.988c0-0.14-0.158-0.178-0.344-0.222-0.014-0.003-0.028-0.006-0.042-0.009l-0.293 0.293c0.103 0.076 0.245 0.129 0.393 0.129 0.181-0 0.286-0.077 0.286-0.191z"></path>
<path fill="rgb(242, 213, 90)" d="M11.103 3.537l-0.513 0.513c0.005 0.017 0.008 0.034 0.008 0.051 0 0.115-0.13 0.196-0.138 0.186-0.016-0.019-0.034-0.036-0.054-0.053l-0.27 0.27c0.227 0.054 0.497 0.156 0.497 0.469 0 0.258-0.178 0.436-0.477 0.482v0.099c0 0.117-0.046 0.173-0.148 0.173h-0.013c-0.107 0-0.145-0.054-0.145-0.173v-0.094c-0.235-0.025-0.393-0.113-0.455-0.216l-0.499 0.499c0.609 0.609 1.597 0.609 2.206 0s0.609-1.597 0-2.206z"></path>
<path fill="rgb(239, 181, 51)" d="M9.499 4.965c-0.010-0.010-0.133 0.069-0.133 0.178 0 0.034 0.010 0.068 0.030 0.1l0.194-0.194c-0.035-0.026-0.066-0.055-0.091-0.085z"></path>
<path fill="rgb(229, 170, 23)" d="M10.46 4.287c0.008 0.010 0.138-0.071 0.138-0.186 0-0.017-0.003-0.034-0.008-0.051l-0.183 0.183c0.020 0.017 0.038 0.035 0.054 0.053z"></path>
</svg>
