<?xml version="1.0" encoding="utf-8"?>
<!-- Generated by IcoMoon.io -->
<!DOCTYPE svg PUBLIC "-//W3C//DTD SVG 1.1//EN" "http://www.w3.org/Graphics/SVG/1.1/DTD/svg11.dtd">
<svg version="1.1" xmlns="http://www.w3.org/2000/svg" xmlns:xlink="http://www.w3.org/1999/xlink" width="20" height="20" viewBox="0 0 20 20">
<path fill="rgb(51, 77, 92)" d="M19.691 10c0-5.352-4.339-9.691-9.69-9.691s-9.691 4.338-9.691 9.691c0 5.352 4.339 9.69 9.691 9.69s9.69-4.339 9.69-9.69z"></path>
<path fill="rgb(239, 181, 51)" d="M12.33 9.449c1.287-1.287 1.287-3.373 0-4.66s-3.373-1.287-4.66 0c-1.287 1.287-1.287 3.373 0 4.66s3.373 1.287 4.66 0z"></path>
<path fill="rgb(229, 170, 23)" d="M12.33 9.449c1.287-1.287 1.287-3.373 0-4.66l-4.66 4.66c1.287 1.287 3.373 1.287 4.66 0z"></path>
<path fill="rgb(244, 222, 127)" d="M12.856 7.119c0 1.577-1.279 2.856-2.856 2.856s-2.856-1.279-2.856-2.856c0-1.577 1.279-2.856 2.856-2.856s2.856 1.279 2.856 2.856z"></path>
<path fill="rgb(242, 213, 90)" d="M12.020 9.138c1.115-1.115 1.115-2.924 0-4.039l-4.039 4.039c1.115 1.115 2.924 1.115 4.039 0z"></path>
<path fill="rgb(229, 170, 23)" d="M11.094 6.132c0 0.21-0.238 0.359-0.252 0.341-0.177-0.205-0.481-0.359-0.789-0.359-0.313 0-0.504 0.14-0.504 0.35 0 0.243 0.257 0.308 0.616 0.387 0.429 0.093 0.994 0.266 0.994 0.877 0 0.471-0.327 0.798-0.873 0.882v0.182c0 0.215-0.084 0.317-0.271 0.317h-0.023c-0.196 0-0.266-0.098-0.266-0.317v-0.173c-0.565-0.061-0.887-0.317-0.887-0.579 0-0.201 0.224-0.345 0.243-0.327 0.177 0.215 0.523 0.392 0.887 0.392 0.331 0 0.523-0.14 0.523-0.35 0-0.257-0.289-0.327-0.63-0.406-0.411-0.089-0.952-0.252-0.952-0.868 0-0.448 0.317-0.77 0.821-0.863v-0.173c0-0.215 0.079-0.317 0.266-0.317h0.028c0.191 0 0.266 0.098 0.266 0.317v0.159c0.518 0.056 0.803 0.289 0.803 0.527z"></path>
<path fill="rgb(242, 213, 90)" d="M10.492 7.756c0-0.257-0.289-0.327-0.63-0.406-0.025-0.005-0.050-0.011-0.076-0.017l-0.536 0.536c0.189 0.139 0.449 0.237 0.72 0.237 0.331 0 0.523-0.14 0.523-0.35z"></path>
<path fill="rgb(242, 213, 90)" d="M12.020 5.099l-0.94 0.94c0.010 0.031 0.015 0.062 0.015 0.093 0 0.21-0.238 0.359-0.252 0.341-0.029-0.034-0.063-0.067-0.099-0.097l-0.494 0.494c0.416 0.098 0.91 0.286 0.91 0.859 0 0.471-0.327 0.798-0.873 0.882v0.182c0 0.215-0.084 0.317-0.271 0.317h-0.023c-0.196 0-0.266-0.098-0.266-0.317v-0.173c-0.43-0.046-0.719-0.206-0.833-0.395l-0.914 0.914c1.115 1.115 2.924 1.115 4.039 0s1.115-2.924 0-4.039z"></path>
<path fill="rgb(239, 181, 51)" d="M9.083 7.714c-0.019-0.019-0.243 0.126-0.243 0.327 0 0.062 0.019 0.125 0.054 0.184l0.355-0.355c-0.065-0.048-0.121-0.1-0.167-0.155z"></path>
<path fill="rgb(229, 170, 23)" d="M10.842 6.472c0.014 0.019 0.252-0.131 0.252-0.341 0-0.031-0.005-0.062-0.015-0.093l-0.336 0.336c0.036 0.031 0.069 0.063 0.099 0.097z"></path>
<path fill="rgb(229, 173, 136)" d="M11.444 11.913c0 0-0.794 0.18-1.29 0.166-0.253-0.007-0.761 0.136-1.276 0.326-0.495 0.182-0.995 0.222-1.048 0.383-0.144 0.443 0.595 0.569 0.679 0.573 0.716 0.030 1.592-0.118 1.592-0.118l0.98 0.052 0.363-1.382z"></path>
<path fill="rgb(229, 173, 136)" d="M9.568 15.055c0.257-0.071 0.043-0.73-0.028-0.983v0c-0.071-0.254-0.312-0.32-0.312-0.32l-1.612 0.105-2.268-0.262c-0.202 0.003-0.45-0.009-0.502 0.234-0.068 0.324 0.334 0.388 0.746 0.491s2.006 0.39 2.006 0.39l1.97 0.346z"></path>
<path fill="rgb(229, 173, 136)" d="M19.476 7.966c-2.616 1.931-5.592 4.143-5.761 4.050-0.245-0.134-1.727-0.285-2.468-0.070l-0.672 1.267-0.673 0.341c-0.273 0.088-0.874 0.244-0.874 0.244l0.157 1.196c0.387 0.081 0.554 0.085 0.981 0.012 0.573-0.099 1.237-0.096 3.042-0.421 0 0 3.602-1.213 6.196-2.235 0.187-0.752 0.287-1.539 0.287-2.349 0-0.698-0.074-1.378-0.215-2.035z"></path>
</svg>
