<?xml version="1.0" encoding="utf-8"?>
<!-- Generated by IcoMoon.io -->
<!DOCTYPE svg PUBLIC "-//W3C//DTD SVG 1.1//EN" "http://www.w3.org/Graphics/SVG/1.1/DTD/svg11.dtd">
<svg version="1.1" xmlns="http://www.w3.org/2000/svg" xmlns:xlink="http://www.w3.org/1999/xlink" width="20" height="20" viewBox="0 0 20 20">
<path fill="rgb(50, 190, 166)" d="M19.691 10c0-5.352-4.339-9.691-9.69-9.691s-9.691 4.338-9.691 9.691c0 5.352 4.339 9.69 9.691 9.69s9.69-4.339 9.69-9.69z"></path>
<path fill="rgb(239, 181, 51)" d="M14.863 14.864c2.686-2.686 2.686-7.041 0-9.727s-7.041-2.686-9.727 0c-2.686 2.686-2.686 7.041 0 9.727s7.041 2.686 9.727 0z"></path>
<path fill="rgb(229, 170, 23)" d="M14.863 14.864c2.686-2.686 2.686-7.041 0-9.727l-9.727 9.727c2.686 2.686 7.041 2.686 9.727 0z"></path>
<path fill="rgb(244, 222, 127)" d="M14.216 14.216c2.328-2.328 2.328-6.103 0-8.431s-6.103-2.328-8.431 0c-2.328 2.328-2.328 6.103 0 8.431s6.103 2.328 8.431 0z"></path>
<path fill="rgb(242, 213, 90)" d="M14.216 14.216c2.328-2.328 2.328-6.103 0-8.431l-8.431 8.431c2.328 2.328 6.103 2.328 8.431 0z"></path>
<path fill="rgb(229, 170, 23)" d="M12.284 7.94c0 0.438-0.497 0.75-0.526 0.711-0.371-0.428-1.004-0.75-1.647-0.75-0.653 0-1.052 0.292-1.052 0.731 0 0.507 0.536 0.643 1.286 0.809 0.896 0.195 2.075 0.556 2.075 1.832 0 0.984-0.682 1.666-1.822 1.842v0.38c0 0.448-0.175 0.662-0.565 0.662h-0.049c-0.409 0-0.555-0.205-0.555-0.662v-0.36c-1.179-0.127-1.851-0.662-1.851-1.208 0-0.419 0.467-0.721 0.506-0.682 0.371 0.448 1.091 0.818 1.851 0.818 0.692 0 1.091-0.292 1.091-0.731 0-0.536-0.604-0.682-1.315-0.847-0.857-0.185-1.987-0.526-1.987-1.812 0-0.935 0.662-1.607 1.714-1.802v-0.361c0-0.448 0.166-0.662 0.556-0.662h0.058c0.399 0 0.555 0.204 0.555 0.662v0.332c1.081 0.117 1.676 0.604 1.676 1.101z"></path>
<path fill="rgb(242, 213, 90)" d="M11.028 11.33c0-0.536-0.604-0.682-1.315-0.847-0.052-0.011-0.105-0.023-0.159-0.036l-1.119 1.119c0.394 0.289 0.937 0.494 1.502 0.494 0.692 0 1.091-0.292 1.091-0.731z"></path>
<path fill="rgb(242, 213, 90)" d="M14.216 5.784l-1.962 1.962c0.020 0.064 0.030 0.129 0.030 0.194 0 0.438-0.497 0.75-0.526 0.711-0.062-0.071-0.131-0.139-0.206-0.203l-1.032 1.032c0.867 0.205 1.9 0.597 1.9 1.792 0 0.984-0.682 1.666-1.822 1.842v0.38c0 0.448-0.175 0.662-0.565 0.662h-0.049c-0.409 0-0.555-0.205-0.555-0.662v-0.36c-0.898-0.096-1.501-0.43-1.738-0.824l-1.908 1.908c2.328 2.328 6.103 2.328 8.431 0s2.328-6.103 0-8.431z"></path>
<path fill="rgb(239, 181, 51)" d="M8.085 11.242c-0.039-0.039-0.506 0.263-0.506 0.682 0 0.13 0.039 0.26 0.113 0.384l0.742-0.742c-0.136-0.1-0.254-0.209-0.349-0.324z"></path>
<path fill="rgb(239, 181, 51)" d="M10.346 9.44c-0.75-0.166-1.286-0.302-1.286-0.809 0-0.438 0.399-0.731 1.052-0.731 0.536 0 1.065 0.224 1.441 0.547l0.701-0.701c-0.133-0.425-0.705-0.806-1.645-0.907v-0.332c0-0.458-0.156-0.662-0.555-0.662h-0.058c-0.39 0-0.556 0.214-0.556 0.662v0.361c-1.052 0.195-1.714 0.867-1.714 1.802 0 1.208 0.997 1.582 1.828 1.776l0.967-0.967c-0.059-0.014-0.118-0.027-0.175-0.040z"></path>
<path fill="rgb(229, 170, 23)" d="M11.759 8.651c0.029 0.039 0.526-0.273 0.526-0.711 0-0.065-0.010-0.13-0.030-0.194l-0.701 0.701c0.075 0.064 0.144 0.132 0.206 0.203z"></path>
</svg>
