<?xml version="1.0" encoding="utf-8"?>
<!-- Generated by IcoMoon.io -->
<!DOCTYPE svg PUBLIC "-//W3C//DTD SVG 1.1//EN" "http://www.w3.org/Graphics/SVG/1.1/DTD/svg11.dtd">
<svg version="1.1" xmlns="http://www.w3.org/2000/svg" xmlns:xlink="http://www.w3.org/1999/xlink" width="20" height="20" viewBox="0 0 20 20">
<path fill="rgb(50, 190, 166)" d="M19.691 10c0-5.352-4.339-9.691-9.69-9.691s-9.691 4.338-9.691 9.691c0 5.352 4.339 9.69 9.691 9.69s9.69-4.339 9.69-9.69z"></path>
<path fill="rgb(239, 181, 51)" d="M12.018 6.005c1.115-1.115 1.115-2.922 0-4.037s-2.922-1.115-4.037 0c-1.115 1.115-1.115 2.922 0 4.037s2.922 1.115 4.037 0z"></path>
<path fill="rgb(229, 170, 23)" d="M12.018 6.005c1.115-1.115 1.115-2.922 0-4.037l-4.037 4.037c1.115 1.115 2.922 1.115 4.037 0z"></path>
<path fill="rgb(244, 222, 127)" d="M11.749 5.737c0.966-0.966 0.966-2.533 0-3.499s-2.533-0.966-3.499 0c-0.966 0.966-0.966 2.533 0 3.499s2.533 0.966 3.499 0z"></path>
<path fill="rgb(242, 213, 90)" d="M11.749 5.737c0.966-0.966 0.966-2.533 0-3.499l-3.499 3.499c0.966 0.966 2.533 0.966 3.499 0z"></path>
<path fill="rgb(229, 170, 23)" d="M10.948 3.132c0 0.182-0.206 0.311-0.218 0.295-0.154-0.178-0.417-0.311-0.683-0.311-0.271 0-0.437 0.121-0.437 0.303 0 0.21 0.222 0.267 0.534 0.336 0.372 0.081 0.861 0.231 0.861 0.76 0 0.408-0.283 0.691-0.756 0.764v0.158c0 0.186-0.073 0.275-0.234 0.275h-0.020c-0.17 0-0.23-0.085-0.23-0.275v-0.149c-0.489-0.053-0.768-0.275-0.768-0.501 0-0.174 0.194-0.299 0.21-0.283 0.154 0.186 0.453 0.339 0.768 0.339 0.287 0 0.453-0.121 0.453-0.303 0-0.222-0.251-0.283-0.546-0.352-0.356-0.077-0.825-0.218-0.825-0.752 0-0.388 0.275-0.667 0.712-0.748v-0.15c0-0.186 0.069-0.275 0.231-0.275h0.024c0.166 0 0.23 0.085 0.23 0.275v0.138c0.449 0.048 0.695 0.251 0.695 0.457z"></path>
<path fill="rgb(242, 213, 90)" d="M10.426 4.539c0-0.222-0.251-0.283-0.546-0.352-0.022-0.005-0.044-0.010-0.066-0.015l-0.465 0.465c0.164 0.12 0.389 0.205 0.624 0.205 0.287-0 0.453-0.121 0.453-0.303z"></path>
<path fill="rgb(242, 213, 90)" d="M11.749 2.238l-0.814 0.814c0.008 0.027 0.013 0.053 0.013 0.080 0 0.182-0.206 0.311-0.218 0.295-0.026-0.030-0.054-0.058-0.085-0.084l-0.428 0.428c0.36 0.085 0.789 0.248 0.789 0.744 0 0.408-0.283 0.691-0.756 0.764v0.158c0 0.186-0.073 0.275-0.234 0.275h-0.020c-0.17 0-0.23-0.085-0.23-0.275v-0.149c-0.373-0.040-0.623-0.178-0.721-0.342l-0.792 0.792c0.966 0.966 2.533 0.966 3.499 0s0.966-2.533 0-3.499z"></path>
<path fill="rgb(239, 181, 51)" d="M9.205 4.503c-0.016-0.016-0.21 0.109-0.21 0.283 0 0.054 0.016 0.108 0.047 0.159l0.308-0.308c-0.056-0.041-0.105-0.087-0.145-0.134z"></path>
<path fill="rgb(239, 181, 51)" d="M10.144 3.755c-0.311-0.069-0.534-0.125-0.534-0.336 0-0.182 0.166-0.303 0.437-0.303 0.223 0 0.442 0.093 0.598 0.227l0.291-0.291c-0.055-0.176-0.293-0.334-0.683-0.376v-0.138c0-0.19-0.065-0.275-0.23-0.275h-0.024c-0.162 0-0.231 0.089-0.231 0.275v0.15c-0.437 0.081-0.712 0.36-0.712 0.748 0 0.501 0.414 0.657 0.759 0.737l0.401-0.401c-0.025-0.006-0.049-0.011-0.072-0.017z"></path>
<path fill="rgb(229, 170, 23)" d="M10.73 3.427c0.012 0.016 0.218-0.113 0.218-0.295 0-0.027-0.004-0.054-0.013-0.080l-0.291 0.291c0.031 0.027 0.060 0.055 0.085 0.084z"></path>
<path fill="rgb(251, 191, 150)" d="M12.367 8.972l-1.168-0.799c0 0-0.148-0.18-0.726-0.224-0.911-0.068-2.718-0.485-2.718-0.485-1.114 0.331-1.015 1.318-1.015 1.318l2.915 0.558c0 0 1.342-0.104 1.676 0.105 0.812 0.507 1.215-0.33 1.215-0.33l-0.179-0.144z"></path>
<path fill="rgb(253, 214, 178)" d="M11.764 8.556l0.779 0.5c0 0-0.176 0.165-0.325 0.143-0.165-0.024-0.514-0.405-0.454-0.643z"></path>
<path fill="rgb(237, 172, 128)" d="M12.249 9.304l-1.397-0.371-1.316-0.163 0.935-0.050c0 0 0.383-0.026 0.67 0.127 0.222 0.118 1.108 0.456 1.108 0.456z"></path>
<path fill="rgb(253, 214, 178)" d="M10.945 8.394c-0.025-0.006-0.040-0.030-0.034-0.055l0.052-0.227c0.006-0.025 0.031-0.040 0.055-0.034v0c0.025 0.006 0.040 0.031 0.034 0.056l-0.052 0.227c-0.006 0.025-0.030 0.041-0.056 0.034v0z"></path>
<path fill="rgb(253, 214, 178)" d="M10.801 8.245c-0.025-0.006-0.040-0.031-0.034-0.056l0.024-0.123c0.006-0.025 0.031-0.040 0.055-0.034v0c0.025 0.006 0.040 0.031 0.034 0.056l-0.024 0.123c-0.006 0.025-0.032 0.040-0.056 0.034v0z"></path>
<path fill="rgb(251, 191, 150)" d="M12.521 14.449c0.339-0.211 1.252-1.132 1.042-1.471v0c-0.21-0.339-0.656-0.443-0.995-0.233l-2.623 1.601c-0.339 0.21-0.507 0.535-0.296 0.874v0c0.21 0.339 0.481 0.344 0.939 0.146l1.933-0.917z"></path>
<path fill="rgb(237, 172, 128)" d="M11.454 13.586l-1.902 1.355c-0.010-0.336 0.142-0.439 0.336-0.559l2.085-1.366c-0.049 0.071-0.444 0.519-0.52 0.571z"></path>
<path fill="rgb(241, 169, 119)" d="M9.434 9.926l0.652-0.552-0.139-1.097 3.468-1.185 3.302 3.521c0 0-0.887 1.396-1.776 2.219s-2.461 1.642-2.461 1.642l-3.045-4.548z"></path>
<path fill="rgb(241, 169, 119)" d="M13.27 12.46c0.339-0.21 0.443-0.655 0.233-0.995v0c-0.21-0.339-0.656-0.443-0.995-0.233l-3.714 2.304c-0.339 0.21-0.444 0.655-0.233 0.995v0c0.21 0.339 0.656 0.443 0.995 0.233l3.714-2.304z"></path>
<path fill="rgb(237, 172, 128)" d="M10.117 12.896l-1.664 1.268c-0.005-0.285 0.11-0.484 0.304-0.604l1.498-0.966c-0.049 0.071-0.061 0.25-0.137 0.301z"></path>
<path fill="rgb(241, 169, 119)" d="M10.008 11.064c0.291-0.208 1.281-0.765 1.074-1.056l0.192-0.953c-0.208-0.291-2.258 1.131-2.421 1.247l-3.718 2.539c-0.418 0.299-0.486 0.703-0.278 0.994v0c0.207 0.291 0.612 0.358 0.902 0.151l4.249-2.923z"></path>
<path fill="rgb(241, 169, 119)" d="M12.422 14.396c0.315-0.14 0.412-0.601 0.248-0.865v0c-0.163-0.265-0.526-0.337-0.811-0.161l-3.954 2.391c-0.285 0.175-0.384 0.532-0.222 0.797v0c0.163 0.264 0.514 0.309 0.745 0.188l4.010-2.36z"></path>
<path fill="rgb(237, 172, 128)" d="M11.555 13.569l-1.851 1.236c-0.218 0.13-1.771 0.975-1.607 0.875l4.012-2.498c-0.042 0.058-0.49 0.343-0.553 0.386z"></path>
<path fill="rgb(241, 169, 119)" d="M10.732 12.401c0.382-0.186 0.479-0.758 0.266-1.077v0c-0.213-0.318-0.663-0.39-1.006-0.161l-4.758 3.128c-0.343 0.229-0.449 0.673-0.236 0.992v0c0.213 0.318 0.647 0.357 0.926 0.197l4.828-3.092z"></path>
<path fill="rgb(237, 172, 128)" d="M9.627 11.422l-2.222 1.608c-0.264 0.17-2.135 1.283-1.939 1.152l4.824-3.261c-0.049 0.073-0.587 0.445-0.663 0.501z"></path>
<path fill="rgb(241, 169, 119)" d="M11.478 13.411c0.361-0.183 0.445-0.73 0.237-1.029v0c-0.208-0.3-0.637-0.361-0.961-0.138l-4.484 3.051c-0.324 0.223-0.417 0.648-0.21 0.948v0c0.208 0.3 0.622 0.33 0.885 0.173l4.552-3.018z"></path>
<path fill="rgb(237, 172, 128)" d="M10.41 12.497l-2.092 1.565c-0.248 0.166-2.014 1.254-1.829 1.127l4.545-3.18c-0.046 0.071-0.552 0.433-0.625 0.488z"></path>
<path fill="rgb(251, 191, 150)" d="M7.573 14.449c-0.339-0.211-1.252-1.132-1.042-1.471v0c0.21-0.339 0.656-0.443 0.995-0.233l2.623 1.601c0.339 0.21 0.507 0.535 0.296 0.874v0c-0.211 0.339-0.481 0.344-0.939 0.146l-1.933-0.917z"></path>
<path fill="rgb(237, 172, 128)" d="M8.64 13.586l1.901 1.355c0.010-0.336-0.142-0.439-0.336-0.559l-2.085-1.366c0.049 0.071 0.444 0.519 0.52 0.571z"></path>
<path fill="rgb(251, 191, 150)" d="M10.661 9.926l-0.651-0.552 0.139-1.097-3.468-1.185-3.302 3.521c0 0 0.887 1.396 1.776 2.219s2.461 1.642 2.461 1.642l3.045-4.548z"></path>
<path fill="rgb(251, 191, 150)" d="M6.824 12.46c-0.339-0.21-0.443-0.655-0.233-0.995v0c0.21-0.339 0.656-0.443 0.995-0.233l3.714 2.304c0.339 0.21 0.444 0.655 0.233 0.995v0c-0.21 0.339-0.656 0.443-0.995 0.233l-3.714-2.304z"></path>
<path fill="rgb(237, 172, 128)" d="M9.977 12.896l1.664 1.268c0.005-0.285-0.11-0.484-0.304-0.604l-1.498-0.966c0.049 0.071 0.061 0.25 0.137 0.301z"></path>
<path fill="rgb(251, 191, 150)" d="M10.086 11.064c-0.291-0.208-1.281-0.765-1.073-1.056l-0.192-0.953c0.208-0.291 2.257 1.131 2.422 1.247l3.718 2.539c0.418 0.299 0.486 0.703 0.278 0.994v0c-0.207 0.291-0.612 0.358-0.902 0.151l-4.249-2.923z"></path>
<path fill="rgb(253, 214, 178)" d="M14.291 13.688l0.26 0.185c0.184 0.131 0.448 0.077 0.59-0.12s0.107-0.465-0.078-0.595l-0.26-0.185c0 0-0.135 0.056-0.303 0.296-0.208 0.297-0.188 0.324-0.209 0.42z"></path>
<path fill="rgb(253, 214, 178)" d="M12.305 12.341c-0.021-0.015-0.026-0.044-0.011-0.065l0.473-0.663c0.015-0.021 0.044-0.027 0.065-0.011v0c0.021 0.015 0.026 0.044 0.011 0.065l-0.473 0.663c-0.015 0.021-0.044 0.026-0.066 0.011v0z"></path>
<path fill="rgb(253, 214, 178)" d="M12.239 12.034c-0.019-0.013-0.023-0.039-0.010-0.057l0.234-0.328c0.013-0.019 0.039-0.023 0.058-0.010v0c0.019 0.014 0.023 0.039 0.010 0.058l-0.233 0.328c-0.014 0.018-0.039 0.023-0.058 0.009v0z"></path>
<path fill="rgb(251, 191, 150)" d="M7.672 14.396c-0.316-0.14-0.412-0.601-0.249-0.865v0c0.163-0.265 0.526-0.337 0.811-0.161l3.954 2.392c0.285 0.175 0.384 0.532 0.222 0.797v0c-0.163 0.264-0.514 0.309-0.745 0.188l-4.010-2.36z"></path>
<path fill="rgb(237, 172, 128)" d="M8.539 13.569l1.851 1.236c0.218 0.13 1.771 0.975 1.607 0.875l-4.012-2.498c0.042 0.058 0.49 0.343 0.553 0.386z"></path>
<path fill="rgb(253, 214, 178)" d="M11.559 16.497l0.237 0.145c0.168 0.103 0.393 0.040 0.505-0.139s0.065-0.409-0.103-0.512l-0.236-0.145c0 0-0.114 0.057-0.245 0.274-0.163 0.27-0.144 0.291-0.157 0.377z"></path>
<path fill="rgb(253, 214, 178)" d="M9.844 15.526c-0.019-0.012-0.025-0.037-0.012-0.056l0.38-0.597c0.012-0.019 0.037-0.024 0.056-0.013v0c0.019 0.012 0.024 0.037 0.012 0.056l-0.381 0.597c-0.012 0.019-0.037 0.025-0.056 0.012v0z"></path>
<path fill="rgb(253, 214, 178)" d="M9.774 15.263c-0.017-0.011-0.022-0.032-0.011-0.050l0.188-0.295c0.011-0.017 0.033-0.022 0.050-0.011v0c0.017 0.011 0.022 0.033 0.011 0.050l-0.188 0.295c-0.010 0.017-0.033 0.022-0.050 0.011v0z"></path>
<path fill="rgb(251, 191, 150)" d="M9.362 12.401c-0.382-0.186-0.479-0.758-0.266-1.077v0c0.213-0.318 0.663-0.39 1.006-0.161l4.758 3.128c0.343 0.229 0.449 0.673 0.236 0.992v0c-0.213 0.318-0.647 0.357-0.926 0.197l-4.828-3.092z"></path>
<path fill="rgb(237, 172, 128)" d="M10.467 11.422l2.222 1.608c0.263 0.17 2.135 1.283 1.939 1.152l-4.824-3.261c0.049 0.073 0.587 0.445 0.664 0.501z"></path>
<path fill="rgb(253, 214, 178)" d="M14.050 15.168l0.284 0.189c0.202 0.134 0.483 0.068 0.628-0.148s0.099-0.501-0.103-0.635l-0.284-0.189c0 0-0.143 0.064-0.315 0.327-0.213 0.325-0.191 0.352-0.21 0.457z"></path>
<path fill="rgb(253, 214, 178)" d="M11.984 13.892c-0.023-0.016-0.029-0.047-0.013-0.070l0.496-0.717c0.016-0.023 0.047-0.029 0.070-0.013v0c0.023 0.016 0.029 0.047 0.013 0.070l-0.496 0.718c-0.016 0.023-0.047 0.029-0.069 0.013v0z"></path>
<path fill="rgb(253, 214, 178)" d="M11.909 13.565c-0.020-0.014-0.025-0.041-0.011-0.062l0.245-0.355c0.014-0.020 0.042-0.025 0.061-0.011v0c0.021 0.014 0.025 0.042 0.012 0.062l-0.245 0.355c-0.014 0.020-0.042 0.025-0.062 0.011v0z"></path>
<path fill="rgb(251, 191, 150)" d="M8.616 13.411c-0.361-0.183-0.445-0.73-0.237-1.029v0c0.208-0.3 0.638-0.361 0.961-0.138l4.484 3.051c0.324 0.223 0.417 0.648 0.21 0.948v0c-0.208 0.3-0.622 0.33-0.885 0.173l-4.552-3.018z"></path>
<path fill="rgb(237, 172, 128)" d="M9.684 12.497l2.092 1.565c0.248 0.166 2.014 1.254 1.829 1.127l-4.545-3.18c0.046 0.071 0.552 0.433 0.625 0.488z"></path>
<path fill="rgb(253, 214, 178)" d="M13.039 16.118l0.268 0.185c0.19 0.131 0.458 0.072 0.6-0.131 0.141-0.204 0.102-0.476-0.088-0.606l-0.268-0.185c0 0-0.137 0.060-0.304 0.306-0.208 0.306-0.187 0.333-0.207 0.432z"></path>
<path fill="rgb(253, 214, 178)" d="M11.091 14.872c-0.022-0.015-0.027-0.045-0.012-0.067l0.484-0.676c0.015-0.022 0.045-0.026 0.066-0.011v0c0.022 0.015 0.027 0.045 0.011 0.066l-0.483 0.676c-0.015 0.021-0.045 0.027-0.066 0.011v0z"></path>
<path fill="rgb(253, 214, 178)" d="M11.025 14.559c-0.019-0.013-0.024-0.039-0.010-0.059l0.239-0.334c0.014-0.019 0.040-0.023 0.059-0.010v0c0.019 0.014 0.023 0.040 0.010 0.059l-0.239 0.334c-0.014 0.019-0.040 0.024-0.059 0.010v0z"></path>
<path fill="rgb(245, 183, 140)" d="M10.477 10.943c-0.161-0.049-0.257-0.202-0.219-0.369 0.023-0.101-0.132-0.151-0.155-0.049-0.058 0.252 0.076 0.496 0.326 0.572 0.1 0.030 0.149-0.124 0.048-0.155v0z"></path>
<path fill="rgb(245, 183, 140)" d="M9.734 12.303c-0.267-0.11-0.388-0.378-0.298-0.651 0.033-0.099-0.126-0.131-0.159-0.033-0.112 0.339 0.055 0.695 0.384 0.829 0.096 0.039 0.169-0.105 0.072-0.145v0z"></path>
<path fill="rgb(245, 183, 140)" d="M8.84 13.225c-0.19-0.075-0.29-0.27-0.228-0.468 0.031-0.099-0.119-0.159-0.151-0.059-0.089 0.281 0.043 0.569 0.319 0.678 0.097 0.038 0.157-0.113 0.059-0.151v0z"></path>
<path fill="rgb(245, 183, 140)" d="M7.892 14.253c-0.139-0.059-0.219-0.204-0.167-0.353 0.034-0.097-0.111-0.171-0.145-0.072-0.080 0.228 0.012 0.473 0.24 0.571 0.096 0.041 0.169-0.104 0.073-0.145v0z"></path>
<path fill="rgb(235, 243, 246)" d="M4.252 11.695l-3.192-2.484c-0.297-0.231-0.252-0.785 0.101-1.237l2.213-2.844c0.352-0.452 0.878-0.632 1.174-0.401l3.192 2.484c0.297 0.231-3.192 4.713-3.488 4.482z"></path>
<path fill="rgb(241, 169, 119)" d="M7.727 8.972l1.168-0.799c0 0 0.148-0.18 0.725-0.224 0.911-0.068 2.718-0.485 2.718-0.485 1.114 0.331 1.015 1.318 1.015 1.318l-2.915 0.558c0 0-1.342-0.104-1.676 0.105-0.812 0.507-1.215-0.33-1.215-0.33l0.179-0.144z"></path>
<path fill="rgb(253, 214, 178)" d="M8.331 8.556l-0.779 0.5c0 0 0.176 0.165 0.325 0.143 0.165-0.024 0.514-0.405 0.454-0.643z"></path>
<path fill="rgb(237, 172, 128)" d="M7.846 9.304l1.397-0.371 1.316-0.163-0.935-0.050c0 0-0.383-0.026-0.67 0.127-0.222 0.118-1.108 0.456-1.108 0.456z"></path>
<path fill="rgb(253, 214, 178)" d="M9.149 8.394c0.025-0.006 0.040-0.030 0.034-0.055l-0.052-0.227c-0.006-0.025-0.031-0.040-0.055-0.034v0c-0.025 0.006-0.040 0.031-0.034 0.056l0.052 0.227c0.006 0.025 0.030 0.041 0.056 0.034v0z"></path>
<path fill="rgb(253, 214, 178)" d="M9.293 8.245c0.025-0.006 0.040-0.031 0.034-0.056l-0.024-0.123c-0.006-0.025-0.031-0.040-0.055-0.034v0c-0.025 0.006-0.040 0.031-0.034 0.056l0.024 0.123c0.006 0.025 0.031 0.040 0.056 0.034v0z"></path>
<path fill="rgb(235, 243, 246)" d="M16.138 11.695l3.192-2.484c0.297-0.231 0.251-0.785-0.101-1.237l-2.213-2.844c-0.352-0.452-0.878-0.632-1.174-0.401l-3.192 2.484c-0.297 0.231 3.192 4.713 3.488 4.482z"></path>
<path fill="rgb(51, 113, 128)" d="M7.429 6.725l-4.267-3.588c-1.517 1.512-2.534 3.524-2.787 5.767l3.238 2.723c0.322 0.251 4.138-4.652 3.815-4.902z"></path>
<path fill="rgb(51, 113, 128)" d="M16.582 11.526l3.047-2.576c-0.243-2.25-1.254-4.269-2.768-5.787l-4.095 3.461c-0.322 0.25 3.493 5.153 3.816 4.903z"></path>
</svg>
