<?xml version="1.0" encoding="utf-8"?>
<!-- Generated by IcoMoon.io -->
<!DOCTYPE svg PUBLIC "-//W3C//DTD SVG 1.1//EN" "http://www.w3.org/Graphics/SVG/1.1/DTD/svg11.dtd">
<svg version="1.1" xmlns="http://www.w3.org/2000/svg" xmlns:xlink="http://www.w3.org/1999/xlink" width="20" height="20" viewBox="0 0 20 20">
<path fill="rgb(50, 190, 166)" d="M0.309 10c0-5.352 4.339-9.691 9.691-9.691s9.691 4.338 9.691 9.691c0 5.352-4.339 9.69-9.691 9.69s-9.691-4.339-9.691-9.69z"></path>
<path fill="rgb(255, 255, 255)" d="M7.168 15.102c0 0.266-0.215 0.481-0.481 0.481h-1.899c-0.266 0-0.481-0.215-0.481-0.481v-3.267c0-0.266 0.216-0.481 0.481-0.481h1.899c0.266 0 0.481 0.216 0.481 0.481v3.267z"></path>
<path fill="rgb(255, 255, 255)" d="M11.146 15.102c0 0.266-0.215 0.481-0.481 0.481h-1.899c-0.266 0-0.481-0.215-0.481-0.481v-5.639c0-0.266 0.216-0.481 0.481-0.481h1.899c0.266 0 0.481 0.215 0.481 0.481v5.639z"></path>
<path fill="rgb(255, 255, 255)" d="M15.226 15.102c0 0.266-0.215 0.481-0.481 0.481h-1.899c-0.266 0-0.481-0.215-0.481-0.481v-8.011c0-0.266 0.216-0.481 0.481-0.481h1.899c0.266 0 0.481 0.215 0.481 0.481v8.011z"></path>
<path fill="rgb(255, 255, 255)" d="M11.597 3.511c0 0.306-0.347 0.524-0.368 0.497-0.259-0.299-0.702-0.524-1.151-0.524-0.456 0-0.735 0.204-0.735 0.511 0 0.354 0.374 0.449 0.899 0.565 0.627 0.136 1.45 0.388 1.45 1.28 0 0.688-0.477 1.164-1.274 1.287v0.265c0 0.313-0.122 0.463-0.395 0.463h-0.034c-0.286 0-0.388-0.143-0.388-0.463v-0.252c-0.824-0.089-1.294-0.463-1.294-0.844 0-0.293 0.327-0.504 0.354-0.477 0.259 0.313 0.763 0.572 1.294 0.572 0.484 0 0.763-0.204 0.763-0.511 0-0.374-0.422-0.477-0.919-0.592-0.599-0.129-1.389-0.368-1.389-1.267 0-0.654 0.463-1.124 1.199-1.26v-0.252c0-0.313 0.116-0.463 0.388-0.463h0.041c0.279 0 0.388 0.143 0.388 0.463v0.232c0.756 0.082 1.171 0.422 1.171 0.77z"></path>
</svg>
