<?xml version="1.0" encoding="utf-8"?>
<!-- Generated by IcoMoon.io -->
<!DOCTYPE svg PUBLIC "-//W3C//DTD SVG 1.1//EN" "http://www.w3.org/Graphics/SVG/1.1/DTD/svg11.dtd">
<svg version="1.1" xmlns="http://www.w3.org/2000/svg" xmlns:xlink="http://www.w3.org/1999/xlink" width="20" height="20" viewBox="0 0 20 20">
<path fill="rgb(51, 77, 92)" d="M19.691 10c0-5.352-4.339-9.691-9.69-9.691s-9.691 4.338-9.691 9.691c0 5.352 4.339 9.69 9.691 9.69s9.69-4.339 9.69-9.69z"></path>
<path fill="rgb(163, 213, 224)" d="M10 10h-5.285v-4.612c0-0.371 0.301-0.672 0.672-0.672h4.613v5.284z"></path>
<path fill="rgb(163, 213, 224)" d="M10 10v-5.285h4.612c0.371 0 0.672 0.301 0.672 0.672v4.613h-5.284z"></path>
<path fill="rgb(163, 213, 224)" d="M10 10h-5.285v4.612c0 0.371 0.301 0.672 0.672 0.672h4.613v-5.284z"></path>
<path fill="rgb(229, 225, 216)" d="M10 10v5.285h4.612c0.371 0 0.672-0.301 0.672-0.672v-4.613l-5.284-0z"></path>
<path fill="rgb(111, 164, 173)" d="M4.715 9.941h10.57v0.117h-10.57v-0.117z"></path>
<path fill="rgb(111, 164, 173)" d="M9.941 4.715h0.117v10.57h-0.117v-10.57z"></path>
<path fill="rgb(255, 255, 255)" d="M8.562 7.065h-0.936v-0.935c0-0.043-0.035-0.078-0.078-0.078h-0.432c-0.043 0-0.078 0.035-0.078 0.078v0.935h-0.936c-0.043 0-0.078 0.035-0.078 0.078v0.427c0 0.043 0.035 0.078 0.078 0.078h0.936v0.944c0 0.043 0.035 0.078 0.078 0.078h0.432c0.043 0 0.078-0.035 0.078-0.078v-0.944h0.936c0.043 0 0.078-0.035 0.078-0.078v-0.427c0-0.043-0.035-0.078-0.078-0.078z"></path>
<path fill="rgb(255, 255, 255)" d="M13.916 7.068h-2.459c-0.043 0-0.078 0.035-0.078 0.078v0.427c0 0.043 0.035 0.078 0.078 0.078h2.459c0.043 0 0.078-0.035 0.078-0.078v-0.427c0-0.043-0.035-0.078-0.078-0.078z"></path>
<path fill="rgb(255, 255, 255)" d="M8.422 11.942c0-0.021-0.008-0.041-0.023-0.055l-0.306-0.305c-0.031-0.031-0.080-0.030-0.11 0l-0.661 0.661-0.662-0.661c-0.030-0.031-0.080-0.030-0.11 0l-0.302 0.302c-0.015 0.015-0.023 0.034-0.023 0.055s0.008 0.041 0.023 0.055l0.661 0.661-0.667 0.667c-0.030 0.030-0.031 0.080 0 0.11l0.305 0.305c0.015 0.015 0.035 0.023 0.055 0.023v0c0.021 0 0.041-0.008 0.055-0.023l0.667-0.667 0.661 0.661c0.031 0.031 0.080 0.030 0.11 0l0.302-0.302c0.015-0.015 0.023-0.035 0.023-0.055s-0.008-0.041-0.023-0.055l-0.661-0.661 0.662-0.661c0.015-0.015 0.023-0.035 0.023-0.055z"></path>
<path fill="rgb(163, 158, 149)" d="M13.916 12.778h-2.459c-0.043 0-0.078 0.035-0.078 0.078v0.427c0 0.043 0.035 0.078 0.078 0.078h2.459c0.043 0 0.078-0.035 0.078-0.078v-0.427c0-0.043-0.035-0.078-0.078-0.078z"></path>
<path fill="rgb(163, 158, 149)" d="M13.916 11.894h-2.459c-0.043 0-0.078 0.035-0.078 0.078v0.427c0 0.043 0.035 0.078 0.078 0.078h2.459c0.043 0 0.078-0.035 0.078-0.078v-0.427c0-0.043-0.035-0.078-0.078-0.078z"></path>
</svg>
