<?xml version="1.0" encoding="utf-8"?>
<!-- Generated by IcoMoon.io -->
<!DOCTYPE svg PUBLIC "-//W3C//DTD SVG 1.1//EN" "http://www.w3.org/Graphics/SVG/1.1/DTD/svg11.dtd">
<svg version="1.1" xmlns="http://www.w3.org/2000/svg" xmlns:xlink="http://www.w3.org/1999/xlink" width="20" height="20" viewBox="0 0 20 20">
<path fill="rgb(50, 190, 166)" d="M19.691 10c0-5.352-4.339-9.691-9.69-9.691s-9.691 4.338-9.691 9.691c0 5.352 4.339 9.69 9.691 9.69s9.69-4.339 9.69-9.69z"></path>
<path fill="rgb(221, 212, 162)" d="M8.176 5.293c0 0 3.206 0.653 5.555 1.039 0 0-4.566 1.825-5.555-1.039z"></path>
<path fill="rgb(193, 0, 0)" d="M8.787 5.682c0.187-1.232 0.974-1.459 1.881-1.321s1.591 0.588 1.404 1.82c-0.132 0.867-0.974 1.459-1.881 1.321s-1.536-0.952-1.404-1.82z"></path>
<path fill="rgb(255, 197, 197)" d="M8.966 6.123c-0.177-0.734 0.176-1.448 0.787-1.595s-0.717 1.885-0.787 1.595z"></path>
<path fill="rgb(153, 0, 0)" d="M10.226 4.772c0.013-0.089 0.191-0.136 0.396-0.105s0.361 0.128 0.347 0.217c-0.013 0.089-0.191 0.136-0.396 0.105s-0.361-0.128-0.347-0.217z"></path>
<path fill="rgb(65, 137, 18)" d="M10.436 4.956c0 0 0.651-3.135 2.818-3.298l0.065 0.008c0 0-2.127 0.336-2.708 3.323l-0.174-0.033z"></path>
<path fill="rgb(224, 197, 141)" d="M14.826 10.669c0 1.757-2.174 3.182-4.855 3.182s-4.855-1.425-4.855-3.182c0-1.757 2.174-3.182 4.855-3.182s4.855 1.425 4.855 3.182z"></path>
<path fill="rgb(232, 225, 175)" d="M14.768 10.525c0 1.329-2.148 2.107-4.797 2.107s-4.797-0.778-4.797-2.107c0-1.737 2.148-3.144 4.797-3.144s4.797 1.408 4.797 3.144z"></path>
<path fill="rgb(229, 214, 137)" d="M10.648 11.277c0 0-2.096-0.020-2.766-0.231-1.469-0.461-2.907-1.061-2.756-3.016 0.014-0.187 0.154-0.538 0.24-0.538 0 0 1.566 2.343 5.282 3.784z"></path>
<path fill="rgb(232, 225, 175)" d="M14.663 8.252c-0.067-0.115-0.222-0.242-0.231-0.269-0.015-0.047 0.006-0.303-0.096-0.663-0.163-0.576-0.306-0.541-0.58-0.932-0.013-0.019-4.838 1.242-5.557-1.104 0 0-0.431 0.13-0.519 0.158-0.265 0.086-0.72 0.259-1.066 0.706-0.175 0.226-0.312 0.464-0.346 0.49 0 0-0.187-0.014-0.375 0.101-0.621 0.382-0.759 0.818-0.692 1.225 0.138 0.828 0.692 2.622 3.688 3.141s4.351-0.346 4.754-0.547c-0 0 1.869-0.846 1.018-2.305z"></path>
<path fill="rgb(229, 214, 137)" d="M6.269 6.638h-0.043c0.346 0.553 2.569 3.523 8.251 1.394l-0.044-0.049-0.010-0.073c-1.614 0.529-5.949 1.51-8.129-1.297l-0.025 0.025z"></path>
<path fill="rgb(229, 214, 137)" d="M8.199 5.284l-0.115 0.048c0.23 0.797 1.327 2.257 5.672 1.056l-0.025-0.056c-1.037 0.277-4.978 0.937-5.532-1.048z"></path>
<path fill="rgb(234, 73, 73)" d="M13.362 15.772c0 0-0.665 1.095-3.37 1.095s-3.37-1.095-3.37-1.095l-1.464-4.653c0 0 0.748 1.513 4.833 1.513s4.776-1.513 4.776-1.513l-1.406 4.653z"></path>
<path fill="rgb(237, 213, 169)" d="M9.966 13.102c-0.131 0-0.238 0.365-0.238 0.941v2.82c0.086 0.002 0.174 0.004 0.264 0.004 0.072 0 0.142-0.001 0.211-0.003v-2.821c0-0.595-0.106-0.941-0.238-0.941z"></path>
<path fill="rgb(237, 213, 169)" d="M11.529 13.046c-0.123-0.003-0.232 0.359-0.247 0.935l-0.071 2.8c0.16-0.024 0.31-0.053 0.449-0.085l0.068-2.704c0.015-0.595-0.076-0.943-0.2-0.946z"></path>
<path fill="rgb(237, 213, 169)" d="M12.936 12.76c-0.115-0.008-0.235 0.349-0.278 0.923l-0.204 2.753c0.174-0.077 0.318-0.158 0.436-0.235l0.184-2.487c0.044-0.594-0.024-0.946-0.139-0.954z"></path>
<path fill="rgb(237, 213, 169)" d="M14.065 13.239c0.044-0.594 0.016-0.943-0.051-0.947s-0.147 0.355-0.19 0.93l-0.101 1.355 0.321-1.062 0.020-0.276z"></path>
<path fill="rgb(237, 213, 169)" d="M8.438 13.046c0.123-0.003 0.232 0.359 0.247 0.935l0.071 2.8c-0.16-0.024-0.31-0.053-0.449-0.085l-0.068-2.704c-0.015-0.595 0.076-0.943 0.2-0.946z"></path>
<path fill="rgb(237, 213, 169)" d="M7.031 12.76c0.115-0.008 0.235 0.349 0.278 0.923l0.204 2.753c-0.174-0.077-0.318-0.158-0.436-0.235l-0.184-2.487c-0.044-0.594 0.024-0.946 0.139-0.954z"></path>
<path fill="rgb(237, 213, 169)" d="M5.902 13.239c-0.044-0.594-0.016-0.943 0.051-0.947s0.147 0.355 0.19 0.93l0.101 1.355-0.321-1.062-0.020-0.276z"></path>
</svg>
