<?xml version="1.0" encoding="utf-8"?>
<!-- Generated by IcoMoon.io -->
<!DOCTYPE svg PUBLIC "-//W3C//DTD SVG 1.1//EN" "http://www.w3.org/Graphics/SVG/1.1/DTD/svg11.dtd">
<svg version="1.1" xmlns="http://www.w3.org/2000/svg" xmlns:xlink="http://www.w3.org/1999/xlink" width="20" height="20" viewBox="0 0 20 20">
<path fill="rgb(234, 73, 73)" d="M0.309 10c0-5.352 4.339-9.691 9.691-9.691s9.69 4.338 9.69 9.691c0 5.352-4.339 9.69-9.69 9.69s-9.691-4.339-9.691-9.69z"></path>
<path fill="rgb(234, 159, 60)" d="M10.055 2.539c-4.089 0-7.404 3.315-7.404 7.404 0 2.055 0.838 3.915 2.19 5.256l5.214-5.256v7.404c4.089 0 7.404-3.315 7.404-7.404s-3.315-7.404-7.404-7.404z"></path>
<path fill="rgb(233, 143, 35)" d="M10.055 3.044c-3.81 0-6.899 3.089-6.899 6.899 0 1.915 0.781 3.648 2.041 4.898l4.858-4.898v6.899c3.81 0 6.899-3.089 6.899-6.899s-3.089-6.899-6.899-6.899z"></path>
<path fill="rgb(233, 147, 35)" d="M10.055 3.212c-3.717 0-6.731 3.014-6.731 6.731 0 1.869 0.761 3.559 1.991 4.778l4.74-4.778v6.731c3.717 0 6.731-3.013 6.731-6.731s-3.013-6.731-6.731-6.731z"></path>
<path fill="rgb(234, 215, 96)" d="M10.054 3.554c-1.397-0.676-2.246 0.302-4.082 1.473-1.547 0.986-1.834 2.845-2.309 4.918-0.18 0.784 0.432 1.555 0.42 2.284-0.015 0.915 0.832 1.62 1.47 2.253l4.501-4.537v6.391c1.339-0.432 3.278-0.354 4.156-1.536 1.458-1.963 2.7-2.969 2.235-4.856-0.734-2.98-1.044-4.020-2.648-5.181-1.052-0.761-2.404-0.562-3.743-1.21z"></path>
<path fill="rgb(248, 227, 127)" d="M5.972 5.027c-1.547 0.986-1.834 2.845-2.309 4.918-0.18 0.784 0.432 1.555 0.42 2.284-0.015 0.915 0.832 1.62 1.47 2.253l4.501-4.537v6.391c2.329-5.188-2.246-12.48-4.082-11.309z"></path>
<path fill="rgb(236, 34, 36)" d="M14.406 12.043c0.235 0.507-0.046 1.137-0.628 1.407s-1.245 0.077-1.48-0.429c-0.235-0.507 0.046-1.137 0.629-1.407s1.245-0.078 1.48 0.429z"></path>
<path fill="rgb(218, 31, 38)" d="M13.896 11.908c0.077 0.164-0.236 0.316-0.624 0.496s-0.682 0.371-0.758 0.207c-0.076-0.164 0.094-0.622 0.482-0.802s0.824-0.065 0.9 0.1z"></path>
<path fill="rgb(218, 31, 38)" d="M14.14 12.435c0.076 0.164-0.133 0.537-0.522 0.717s-0.832 0.048-0.908-0.117 0.244-0.299 0.632-0.479c0.388-0.18 0.721-0.286 0.797-0.122z"></path>
<path fill="rgb(236, 34, 36)" d="M12.666 4.834c0 0.559-0.52 1.012-1.162 1.012s-1.162-0.453-1.162-1.012c0-0.559 0.52-1.012 1.162-1.012s1.162 0.453 1.162 1.012z"></path>
<path fill="rgb(218, 31, 38)" d="M12.26 4.496c0 0.181-0.347 0.188-0.775 0.188s-0.775 0.050-0.775-0.131c0-0.181 0.347-0.525 0.775-0.525s0.775 0.287 0.775 0.468z"></path>
<path fill="rgb(218, 31, 38)" d="M12.26 5.078c0 0.181-0.347 0.431-0.775 0.431s-0.775-0.306-0.775-0.487c0-0.181 0.347-0.169 0.775-0.169s0.775 0.044 0.775 0.225z"></path>
<path fill="rgb(236, 34, 36)" d="M8.878 9.733c-0.489-0.252-0.681-0.85-0.431-1.336s0.85-0.677 1.338-0.425c0.489 0.252 0.681 0.85 0.431 1.336s-0.85 0.677-1.338 0.425z"></path>
<path fill="rgb(218, 31, 38)" d="M9.331 9.578c-0.158-0.082-0.028-0.347 0.139-0.671s0.259-0.61 0.417-0.528c0.158 0.082 0.323 0.499 0.156 0.824s-0.554 0.457-0.712 0.376z"></path>
<path fill="rgb(218, 31, 38)" d="M8.824 9.316c-0.159-0.082-0.241-0.457-0.074-0.781s0.57-0.449 0.729-0.368c0.158 0.082 0.012 0.339-0.155 0.663s-0.341 0.567-0.499 0.486z"></path>
<path fill="rgb(163, 30, 34)" d="M8.316 7.068c0 0.697-0.617 1.486-1.395 1.486s-1.409-0.565-1.409-1.262c0-0.697 0.631-1.262 1.409-1.262s1.395 0.341 1.395 1.038z"></path>
<path fill="rgb(183, 53, 53)" d="M8.184 7.068c0 0.632-0.481 1.29-1.186 1.29s-1.354-0.434-1.354-1.066 0.572-1.144 1.277-1.144c0.706-0 1.263 0.287 1.263 0.919z"></path>
<path fill="rgb(193, 59, 59)" d="M6.998 8.358c-0.705 0-1.354-0.434-1.354-1.066s0.572-1.144 1.277-1.144c0.706-0 0.783 2.209 0.077 2.209z"></path>
<path fill="rgb(163, 30, 34)" d="M14.542 8.26c0 0.697-0.617 1.486-1.395 1.486s-1.409-0.565-1.409-1.262c0-0.697 0.631-1.262 1.409-1.262s1.395 0.341 1.395 1.038z"></path>
<path fill="rgb(183, 53, 53)" d="M14.41 8.26c0 0.632-0.481 1.29-1.186 1.29s-1.354-0.434-1.354-1.065c0-0.632 0.572-1.144 1.277-1.144s1.263 0.288 1.263 0.92z"></path>
<path fill="rgb(193, 59, 59)" d="M13.224 9.549c-0.705 0-1.354-0.434-1.354-1.065s0.572-1.144 1.277-1.144c0.705-0 0.782 2.209 0.077 2.209z"></path>
<path fill="rgb(236, 34, 36)" d="M6.332 12.913c-0.508 0.233-1.137-0.051-1.405-0.634s-0.072-1.245 0.436-1.478c0.508-0.233 1.137 0.051 1.405 0.634s0.072 1.245-0.436 1.478z"></path>
<path fill="rgb(218, 31, 38)" d="M6.469 12.403c-0.165 0.075-0.315-0.237-0.493-0.626s-0.369-0.683-0.204-0.759c0.165-0.076 0.622 0.097 0.8 0.485s0.062 0.824-0.103 0.9z"></path>
<path fill="rgb(218, 31, 38)" d="M5.941 12.646c-0.165 0.076-0.536-0.135-0.715-0.524s-0.045-0.832 0.12-0.907c0.165-0.076 0.298 0.245 0.476 0.634s0.283 0.722 0.118 0.798z"></path>
<path fill="rgb(235, 156, 34)" d="M9.62 18.44c-2.034 0-3.876-0.82-5.214-2.147l5.214-5.256v7.404z"></path>
<path fill="rgb(234, 159, 60)" d="M4.406 16.292c1.338 1.327 3.18 2.147 5.214 2.147v-0.567c-1.852-0.069-3.531-0.818-4.793-2.006l-0.421 0.425z"></path>
<path fill="rgb(248, 227, 127)" d="M5.175 15.411c0 0 1.954 1.483 2.688 1.527s1.12 0.362 1.8 0.493l-0.042-6.394-4.445 4.375z"></path>
<path fill="rgb(163, 30, 34)" d="M10.062 12.045c-0.002 0-0.005 0-0.007 0v0.119c0.002 0 0.005-0.001 0.007-0.001 0.705 0 1.263 0.287 1.263 0.919s-0.481 1.29-1.186 1.29c-0.028 0-0.056-0.002-0.084-0.003v0.199c0.002 0 0.005 0 0.007 0 0.778 0 1.395-0.79 1.395-1.486s-0.617-1.038-1.395-1.038z"></path>
<path fill="rgb(183, 53, 53)" d="M10.139 14.373c0.705 0 1.186-0.658 1.186-1.29s-0.558-0.919-1.263-0.919c-0.002 0-0.005 0.001-0.007 0.001v2.205c0.028 0.001 0.056 0.003 0.084 0.003z"></path>
<path fill="rgb(163, 30, 34)" d="M8.379 14.366c0-0.63 0.568-1.14 1.27-1.143v-0.118c-0.775 0.003-1.402 0.567-1.402 1.261s0.627 1.258 1.402 1.262v-0.199c-0.671-0.033-1.27-0.456-1.27-1.063z"></path>
<path fill="rgb(193, 59, 59)" d="M8.379 14.366c0 0.607 0.598 1.030 1.27 1.063v-2.206c-0.702 0.003-1.27 0.514-1.27 1.143z"></path>
<path fill="rgb(118, 105, 42)" d="M11.994 10.487c0 0.209-0.098 0.421-0.379 0.393-0.231-0.023-0.438-0.239-0.365-0.435 0.084-0.224 0.132-0.322 0.365-0.322s0.379 0.155 0.379 0.364z"></path>
<path fill="rgb(143, 133, 71)" d="M11.723 10.636c-0.076 0.057-0.179 0.078-0.245-0.031-0.054-0.090-0.032-0.224 0.059-0.25 0.104-0.030 0.153-0.039 0.216 0.045s0.046 0.18-0.030 0.236z"></path>
<path fill="rgb(118, 105, 42)" d="M11.573 7.065c0 0.209-0.098 0.421-0.379 0.393-0.231-0.023-0.438-0.239-0.365-0.435 0.084-0.224 0.132-0.322 0.365-0.322s0.379 0.155 0.379 0.364z"></path>
<path fill="rgb(143, 133, 71)" d="M11.302 7.214c-0.076 0.057-0.179 0.078-0.245-0.031-0.054-0.090-0.032-0.224 0.059-0.25 0.104-0.030 0.153-0.039 0.216 0.045s0.046 0.18-0.030 0.236z"></path>
<path fill="rgb(92, 42, 42)" d="M7.773 10.263c0 0.209-0.098 0.421-0.379 0.392-0.231-0.023-0.438-0.239-0.364-0.435 0.084-0.224 0.132-0.322 0.364-0.322s0.379 0.155 0.379 0.365z"></path>
<path fill="rgb(134, 79, 79)" d="M7.502 10.411c-0.076 0.057-0.18 0.078-0.245-0.031-0.054-0.090-0.032-0.224 0.059-0.25 0.104-0.030 0.153-0.039 0.216 0.045s0.046 0.18-0.030 0.236z"></path>
<path fill="rgb(92, 42, 42)" d="M8.998 4.921c-0.183 0.101-0.416 0.116-0.527-0.143-0.091-0.214-0.001-0.499 0.206-0.529 0.237-0.034 0.346-0.039 0.458 0.164s0.046 0.407-0.137 0.507z"></path>
<path fill="rgb(134, 79, 79)" d="M8.738 4.755c-0.086-0.039-0.155-0.12-0.091-0.23 0.053-0.091 0.181-0.135 0.248-0.068 0.076 0.076 0.108 0.115 0.064 0.211s-0.135 0.127-0.221 0.087z"></path>
<path fill="rgb(92, 42, 42)" d="M15.533 10.418c-0.183 0.1-0.416 0.116-0.527-0.143-0.091-0.214-0.001-0.499 0.206-0.529 0.237-0.034 0.346-0.039 0.458 0.165s0.046 0.407-0.137 0.507z"></path>
<path fill="rgb(134, 79, 79)" d="M15.272 10.252c-0.086-0.039-0.155-0.12-0.091-0.23 0.053-0.091 0.181-0.135 0.248-0.068 0.077 0.077 0.108 0.115 0.064 0.211s-0.135 0.127-0.221 0.088z"></path>
<path fill="rgb(118, 105, 42)" d="M6.871 15.051c0 0.209-0.098 0.421-0.379 0.393-0.231-0.023-0.438-0.239-0.365-0.435 0.084-0.224 0.132-0.322 0.365-0.322s0.379 0.155 0.379 0.364z"></path>
<path fill="rgb(143, 133, 71)" d="M6.6 15.2c-0.076 0.056-0.179 0.078-0.245-0.031-0.054-0.090-0.032-0.224 0.059-0.25 0.104-0.030 0.153-0.039 0.216 0.045s0.046 0.18-0.030 0.236z"></path>
<path fill="rgb(92, 42, 42)" d="M13.045 14.665c0 0.209-0.098 0.421-0.379 0.393-0.231-0.023-0.438-0.239-0.365-0.435 0.084-0.224 0.132-0.322 0.365-0.322s0.379 0.156 0.379 0.365z"></path>
<path fill="rgb(134, 79, 79)" d="M12.774 14.814c-0.076 0.057-0.18 0.078-0.245-0.031-0.054-0.090-0.031-0.224 0.059-0.25 0.104-0.030 0.153-0.039 0.216 0.045s0.046 0.18-0.030 0.236z"></path>
<path fill="rgb(118, 105, 42)" d="M5.139 8.653c0 0.209-0.098 0.421-0.379 0.393-0.231-0.023-0.438-0.239-0.365-0.435 0.084-0.225 0.132-0.323 0.365-0.323s0.379 0.156 0.379 0.365z"></path>
<path fill="rgb(143, 133, 71)" d="M4.868 8.802c-0.076 0.057-0.179 0.078-0.245-0.031-0.054-0.090-0.032-0.224 0.059-0.25 0.104-0.030 0.153-0.039 0.216 0.045s0.046 0.18-0.030 0.236z"></path>
</svg>
