<?xml version="1.0" encoding="utf-8"?>
<!-- Generated by IcoMoon.io -->
<!DOCTYPE svg PUBLIC "-//W3C//DTD SVG 1.1//EN" "http://www.w3.org/Graphics/SVG/1.1/DTD/svg11.dtd">
<svg version="1.1" xmlns="http://www.w3.org/2000/svg" xmlns:xlink="http://www.w3.org/1999/xlink" width="20" height="20" viewBox="0 0 20 20">
<path fill="rgb(216, 68, 86)" d="M14.904 5.684l-1.795 1.51c0.283 0.364 0.486 0.708 0.623 1.033l2.206-0.7c-0.209-0.81-0.591-1.406-1.034-1.843z"></path>
<path fill="rgb(216, 68, 86)" d="M15.196 11.173c0.381-0.452 0.602-0.947 0.729-1.385l-1.96-0.537c0.009 0.37-0.067 0.705-0.197 1.004l1.427 0.918z"></path>
<path fill="rgb(37, 183, 211)" d="M19.691 10c0 5.352-4.339 9.691-9.691 9.691s-9.691-4.339-9.691-9.691c0-5.352 4.338-9.691 9.691-9.691s9.691 4.339 9.691 9.691z"></path>
<path fill="rgb(190, 30, 45)" d="M16.094 8.536c-0.245-3.878-3.878-4.057-3.878-4.057l-3.477 0.468c0.017 0.034 0.036 0.067 0.054 0.1-0.202 0.009-0.488 0.016-0.831 0.002-0.347-0.016-0.755-0.048-1.176-0.146-0.21-0.049-0.425-0.115-0.628-0.212-0.203-0.095-0.394-0.227-0.53-0.405-0.072-0.086-0.118-0.189-0.156-0.293-0.012-0.054-0.028-0.108-0.035-0.163l-0.007-0.083-0.003-0.042c-0.001-0.011 0-0.028 0.001-0.041 0.002-0.057 0.001-0.116 0.009-0.17l0.009-0.082c0.003-0.027 0.011-0.054 0.015-0.081 0.020-0.109 0.058-0.212 0.101-0.309 0.094-0.193 0.231-0.356 0.389-0.476 0.157-0.122 0.329-0.206 0.492-0.267 0.328-0.121 0.623-0.157 0.826-0.174 0.205-0.016 0.322-0.009 0.322-0.009s-0.117-0.010-0.322 0.001c-0.204 0.012-0.5 0.039-0.836 0.153-0.167 0.057-0.344 0.138-0.509 0.259-0.166 0.118-0.315 0.284-0.418 0.484-0.049 0.101-0.092 0.208-0.115 0.322-0.006 0.028-0.014 0.056-0.019 0.085l-0.012 0.088c-0.011 0.059-0.010 0.116-0.014 0.173-0.001 0.015-0.002 0.027-0.002 0.045l0.002 0.045 0.005 0.090c0.006 0.060 0.022 0.119 0.034 0.179 0.038 0.115 0.087 0.231 0.163 0.328 0.145 0.199 0.347 0.345 0.559 0.451 0.211 0.107 0.431 0.181 0.647 0.238 0.432 0.113 0.846 0.156 1.2 0.182 0.354 0.024 0.65 0.024 0.857 0.020 0.037-0.001 0.071-0.002 0.102-0.003 1.2 1.762 4.040 1.762 4.040 1.762 0.179 0.213 0.33 0.419 0.457 0.619-0.028 0.004-0.057 0.008-0.089 0.012-0.171 0.025-0.398 0.063-0.621 0.119s-0.445 0.128-0.595 0.217c-0.038 0.022-0.071 0.044-0.098 0.067-0.028 0.022-0.049 0.045-0.065 0.064-0.016 0.020-0.026 0.037-0.032 0.049s-0.009 0.018-0.009 0.018 0.004-0.006 0.012-0.017c0.007-0.011 0.020-0.026 0.037-0.043s0.041-0.035 0.070-0.052c0.029-0.018 0.063-0.034 0.102-0.050 0.155-0.063 0.376-0.101 0.599-0.122s0.447-0.026 0.615-0.025c0.084 0.001 0.154 0.002 0.202 0.004 0.005 0 0.009 0 0.014 0.001 0.040 0.073 0.078 0.146 0.112 0.217-0.050 0.006-0.111 0.012-0.18 0.021-0.193 0.024-0.45 0.062-0.704 0.115s-0.506 0.124-0.682 0.211c-0.044 0.022-0.083 0.044-0.116 0.067s-0.058 0.046-0.078 0.066c-0.018 0.022-0.033 0.039-0.039 0.054-0.007 0.013-0.011 0.020-0.011 0.020s0.005-0.007 0.013-0.019c0.008-0.013 0.024-0.028 0.044-0.047 0.022-0.017 0.049-0.036 0.084-0.054s0.074-0.034 0.119-0.050c0.18-0.061 0.432-0.098 0.686-0.117s0.508-0.024 0.699-0.023c0.095 0.001 0.175 0.002 0.23 0.004 0.018 0.001 0.033 0.001 0.045 0.002 0.088 0.228 0.143 0.445 0.172 0.652-0.045-0.009-0.096-0.019-0.154-0.030-0.191-0.036-0.448-0.078-0.706-0.104s-0.52-0.036-0.714-0.007c-0.048 0.008-0.092 0.017-0.131 0.029s-0.070 0.026-0.095 0.039c-0.024 0.016-0.043 0.027-0.053 0.039-0.011 0.011-0.017 0.016-0.017 0.016s0.007-0.005 0.019-0.014c0.011-0.010 0.031-0.019 0.056-0.031 0.026-0.009 0.058-0.019 0.096-0.026s0.081-0.010 0.129-0.011c0.19-0.003 0.442 0.039 0.689 0.097s0.491 0.132 0.672 0.191c0.091 0.029 0.166 0.055 0.218 0.074 0.005 0.002 0.009 0.003 0.014 0.005 0.003 0.115-0.002 0.226-0.014 0.334-0.044-0.016-0.095-0.035-0.155-0.055-0.184-0.064-0.431-0.144-0.682-0.209s-0.508-0.113-0.705-0.114c-0.049 0.001-0.094 0.003-0.134 0.009s-0.073 0.016-0.1 0.025c-0.026 0.012-0.046 0.021-0.058 0.031-0.012 0.009-0.019 0.014-0.019 0.014s0.008-0.004 0.021-0.011c0.013-0.008 0.034-0.015 0.060-0.023 0.027-0.006 0.060-0.011 0.099-0.011s0.082 0.002 0.129 0.008c0.188 0.025 0.431 0.105 0.666 0.199s0.466 0.204 0.636 0.29c0.082 0.041 0.15 0.077 0.198 0.102-0.032 0.136-0.074 0.266-0.126 0.39-0.033-0.020-0.069-0.042-0.109-0.066-0.167-0.1-0.392-0.23-0.625-0.344s-0.475-0.215-0.667-0.256c-0.048-0.009-0.093-0.016-0.133-0.019s-0.075 0-0.103 0.004c-0.028 0.006-0.049 0.011-0.063 0.018-0.014 0.006-0.021 0.009-0.021 0.009s0.008-0.002 0.022-0.006c0.014-0.006 0.036-0.007 0.063-0.010 0.028 0 0.061 0.002 0.099 0.009s0.080 0.019 0.124 0.035c0.179 0.063 0.4 0.191 0.611 0.332s0.414 0.295 0.563 0.414c0.050 0.040 0.094 0.075 0.131 0.106-0.075 0.139-0.161 0.269-0.253 0.391-0.024-0.021-0.049-0.043-0.077-0.067-0.147-0.128-0.346-0.295-0.555-0.448s-0.43-0.295-0.612-0.368c-0.046-0.018-0.088-0.032-0.127-0.042s-0.074-0.013-0.102-0.014c-0.029 0.001-0.051 0.002-0.065 0.007-0.015 0.004-0.023 0.005-0.023 0.005s0.008-0.001 0.023-0.002c0.015-0.003 0.037-0.001 0.064 0.001 0.027 0.005 0.060 0.013 0.096 0.027s0.075 0.033 0.116 0.056c0.165 0.094 0.361 0.258 0.544 0.433s0.356 0.363 0.482 0.506c0.031 0.034 0.058 0.066 0.082 0.094-0.614 0.697-1.409 1.051-1.409 1.051l-2.764-1.404c0.045 1.36 1.048 1.471 1.048 1.471-1.427 0.022-1.627 0.691-1.627 0.691 0.312-0.2 3.9-0.29 3.9-0.29 3.901-0.513 3.678-4.012 3.678-4.012z"></path>
<path fill="rgb(216, 68, 86)" d="M14.029 12.079l-0.989-0.814c-0.318 0.303-0.652 0.524-0.883 0.658l0.281 0.622c0.634-0.085 1.158-0.25 1.592-0.466z"></path>
<path fill="rgb(35, 31, 32)" d="M11.87 4.969c0 0.166-0.135 0.301-0.301 0.301s-0.301-0.135-0.301-0.301c0-0.166 0.135-0.301 0.301-0.301s0.301 0.135 0.301 0.301z"></path>
<path fill="rgb(190, 30, 45)" d="M3.906 11.464c0.245 3.878 3.878 4.057 3.878 4.057l3.477-0.468c-0.017-0.034-0.036-0.067-0.055-0.1 0.202-0.009 0.489-0.016 0.832-0.002 0.347 0.016 0.754 0.048 1.176 0.146 0.21 0.049 0.424 0.115 0.628 0.212 0.203 0.095 0.394 0.227 0.53 0.405 0.072 0.086 0.118 0.189 0.156 0.293 0.012 0.054 0.028 0.108 0.035 0.163l0.007 0.083 0.003 0.042c0.001 0.011-0.001 0.028-0.001 0.041-0.002 0.057-0.001 0.116-0.009 0.17l-0.009 0.082c-0.003 0.027-0.010 0.054-0.015 0.081-0.020 0.109-0.058 0.212-0.101 0.309-0.094 0.193-0.231 0.356-0.39 0.476-0.157 0.122-0.328 0.206-0.492 0.267-0.328 0.121-0.623 0.157-0.826 0.174-0.204 0.016-0.322 0.009-0.322 0.009s0.117 0.010 0.323-0.001c0.204-0.012 0.5-0.039 0.836-0.153 0.167-0.057 0.344-0.137 0.509-0.259 0.167-0.118 0.315-0.285 0.419-0.484 0.048-0.101 0.091-0.209 0.115-0.322 0.006-0.028 0.014-0.056 0.019-0.085l0.012-0.088c0.010-0.059 0.010-0.116 0.014-0.173 0.001-0.015 0.002-0.027 0.002-0.045l-0.003-0.045-0.005-0.090c-0.006-0.060-0.021-0.119-0.033-0.179-0.039-0.115-0.087-0.231-0.163-0.328-0.144-0.199-0.348-0.345-0.558-0.451-0.211-0.107-0.432-0.181-0.647-0.238-0.432-0.113-0.846-0.156-1.2-0.182-0.354-0.024-0.65-0.024-0.857-0.021-0.037 0.001-0.071 0.002-0.102 0.003-1.199-1.762-4.040-1.762-4.040-1.762-0.179-0.213-0.33-0.419-0.457-0.619 0.028-0.004 0.057-0.008 0.089-0.012 0.17-0.025 0.398-0.063 0.621-0.119s0.445-0.128 0.595-0.217c0.038-0.022 0.071-0.044 0.098-0.067 0.027-0.022 0.049-0.045 0.064-0.064s0.026-0.037 0.032-0.049c0.006-0.012 0.009-0.018 0.009-0.018s-0.004 0.006-0.012 0.017c-0.007 0.011-0.020 0.026-0.037 0.043-0.018 0.016-0.041 0.035-0.071 0.052-0.029 0.018-0.063 0.034-0.102 0.050-0.154 0.063-0.377 0.101-0.599 0.122s-0.447 0.026-0.614 0.025c-0.084-0.001-0.154-0.002-0.202-0.004-0.005 0-0.009 0-0.014-0.001-0.040-0.073-0.078-0.146-0.112-0.217 0.050-0.005 0.111-0.012 0.18-0.021 0.193-0.024 0.45-0.062 0.705-0.115s0.506-0.124 0.682-0.211c0.044-0.022 0.083-0.044 0.116-0.067s0.059-0.046 0.078-0.066c0.019-0.022 0.033-0.039 0.039-0.054 0.007-0.013 0.011-0.020 0.011-0.020s-0.005 0.007-0.013 0.019c-0.008 0.013-0.024 0.028-0.044 0.047-0.022 0.017-0.049 0.036-0.084 0.054-0.034 0.018-0.074 0.034-0.119 0.050-0.18 0.061-0.432 0.097-0.686 0.117s-0.508 0.024-0.698 0.023c-0.095-0.001-0.175-0.002-0.23-0.004-0.018-0.001-0.033-0.001-0.045-0.002-0.088-0.228-0.143-0.445-0.172-0.652 0.045 0.009 0.096 0.019 0.155 0.030 0.191 0.036 0.447 0.078 0.706 0.104s0.519 0.036 0.714 0.007c0.049-0.008 0.093-0.017 0.131-0.029s0.070-0.026 0.095-0.039c0.024-0.016 0.043-0.027 0.053-0.039 0.011-0.011 0.017-0.016 0.017-0.016s-0.007 0.005-0.019 0.014c-0.012 0.010-0.031 0.019-0.056 0.031-0.026 0.009-0.058 0.019-0.096 0.026s-0.081 0.010-0.129 0.011c-0.19 0.003-0.441-0.039-0.688-0.097s-0.492-0.132-0.672-0.191c-0.090-0.029-0.166-0.055-0.218-0.074-0.005-0.002-0.009-0.003-0.014-0.005-0.003-0.115 0.002-0.226 0.014-0.334 0.044 0.016 0.095 0.035 0.155 0.055 0.184 0.064 0.431 0.144 0.682 0.209s0.509 0.113 0.706 0.114c0.049-0.001 0.094-0.003 0.134-0.009s0.073-0.016 0.1-0.025c0.026-0.012 0.046-0.021 0.058-0.031 0.012-0.009 0.019-0.014 0.019-0.014s-0.008 0.004-0.020 0.011c-0.013 0.008-0.034 0.015-0.060 0.023-0.028 0.006-0.061 0.011-0.099 0.011s-0.082-0.002-0.129-0.008c-0.188-0.025-0.43-0.105-0.666-0.199s-0.466-0.204-0.637-0.29c-0.081-0.041-0.15-0.076-0.198-0.102 0.032-0.136 0.074-0.266 0.126-0.39 0.033 0.020 0.069 0.042 0.109 0.066 0.167 0.1 0.392 0.23 0.625 0.344s0.475 0.215 0.667 0.256c0.048 0.009 0.093 0.016 0.133 0.019s0.074-0 0.103-0.004c0.028-0.006 0.049-0.011 0.063-0.018 0.014-0.006 0.021-0.009 0.021-0.009s-0.007 0.002-0.022 0.006c-0.014 0.006-0.036 0.007-0.063 0.010-0.028-0-0.061-0.002-0.099-0.009s-0.080-0.019-0.124-0.035c-0.179-0.063-0.4-0.191-0.612-0.331s-0.414-0.295-0.563-0.414c-0.051-0.040-0.094-0.075-0.131-0.106 0.075-0.139 0.161-0.269 0.253-0.39 0.024 0.021 0.048 0.043 0.076 0.067 0.147 0.128 0.346 0.295 0.555 0.448s0.43 0.295 0.612 0.368c0.046 0.018 0.088 0.032 0.127 0.042s0.074 0.013 0.102 0.014c0.029-0.001 0.051-0.002 0.066-0.007 0.014-0.004 0.023-0.005 0.023-0.005s-0.008 0.001-0.023 0.002c-0.015 0.003-0.037 0.001-0.064-0.001-0.027-0.005-0.059-0.013-0.096-0.027s-0.074-0.033-0.116-0.056c-0.165-0.093-0.361-0.258-0.544-0.433s-0.356-0.363-0.482-0.506c-0.031-0.034-0.058-0.066-0.082-0.094 0.613-0.697 1.409-1.051 1.409-1.051l2.764 1.404c-0.045-1.36-1.048-1.471-1.048-1.471 1.427-0.022 1.627-0.691 1.627-0.691-0.312 0.2-3.901 0.29-3.901 0.29-3.901 0.513-3.678 4.012-3.678 4.012z"></path>
<path fill="rgb(216, 68, 86)" d="M5.096 14.316l1.795-1.51c-0.283-0.364-0.486-0.708-0.623-1.033l-2.206 0.7c0.209 0.81 0.591 1.406 1.034 1.843z"></path>
<path fill="rgb(216, 68, 86)" d="M4.804 8.827c-0.382 0.452-0.602 0.947-0.729 1.385l1.959 0.537c-0.009-0.37 0.067-0.705 0.198-1.004l-1.428-0.918z"></path>
<path fill="rgb(216, 68, 86)" d="M5.971 7.921l0.989 0.814c0.318-0.303 0.652-0.524 0.883-0.658l-0.281-0.622c-0.634 0.085-1.158 0.25-1.592 0.466z"></path>
<path fill="rgb(35, 31, 32)" d="M8.13 15.031c0-0.166 0.135-0.301 0.301-0.301s0.3 0.135 0.3 0.301-0.135 0.301-0.3 0.301c-0.166 0-0.301-0.135-0.301-0.301z"></path>
</svg>
