<?xml version="1.0" encoding="utf-8"?>
<!-- Generated by IcoMoon.io -->
<!DOCTYPE svg PUBLIC "-//W3C//DTD SVG 1.1//EN" "http://www.w3.org/Graphics/SVG/1.1/DTD/svg11.dtd">
<svg version="1.1" xmlns="http://www.w3.org/2000/svg" xmlns:xlink="http://www.w3.org/1999/xlink" width="20" height="20" viewBox="0 0 20 20">
<path fill="rgb(250, 188, 61)" d="M19.691 10c0 5.352-4.339 9.691-9.691 9.691s-9.691-4.339-9.691-9.691 4.339-9.691 9.691-9.691c5.352 0 9.691 4.339 9.691 9.691z"></path>
<path fill="rgb(255, 255, 255)" d="M5.752 7.144c0 0 0.454 7.2 0.501 7.924s0.85 1.417 1.992 1.354c1.141-0.063 2.155-0.357 2.131-1.669s-0.105-6.633-0.128-7.473c-0.023-0.84-1.141-1.092-2.19-1.081s-2.329 0.368-2.306 0.945z"></path>
<path fill="rgb(243, 243, 243)" d="M6.090 7.071c0 0.231 0.792 0.493 1.712 0.472s2.085-0.199 2.073-0.472c-0.012-0.273-0.676-0.651-1.77-0.619s-2.014 0.252-2.014 0.619z"></path>
<path fill="rgb(245, 132, 31)" d="M6.323 9.884c0 0 0.268 4.67 0.303 5.143 0.032 0.43 0.686 1.119 1.63 1.060 1.013-0.063 1.7-0.451 1.7-1.039s-0.047-5.521-0.047-5.521l-3.587 0.357z"></path>
<path fill="rgb(223, 116, 38)" d="M6.323 9.884c0.044 0.461 3.61 0.388 3.587-0.357s-3.645-0.252-3.587 0.357z"></path>
<path fill="rgb(234, 88, 69)" d="M9.072 9.438c-0.022 0-0.045-0.003-0.067-0.010-0.12-0.037-0.188-0.164-0.152-0.285l1.469-4.811 3.627-1.166c0.12-0.039 0.248 0.027 0.287 0.148s-0.027 0.248-0.147 0.287l-3.4 1.093-1.399 4.583c-0.030 0.098-0.12 0.162-0.218 0.162z"></path>
<path fill="rgb(255, 255, 255)" d="M12.56 4.11l0.589-0.189c-0.046-0.146-0.107-0.286-0.173-0.424l-0.569 0.183c0.066 0.137 0.118 0.281 0.153 0.43z"></path>
<path fill="rgb(255, 255, 255)" d="M11.665 4.398l0.348-0.112c-0.031-0.15-0.079-0.296-0.152-0.431l-0.425 0.136c0.061 0.142 0.148 0.275 0.228 0.406z"></path>
<path fill="rgb(255, 255, 255)" d="M10.388 5.7l0.1-0.328c-0.138-0.076-0.273-0.159-0.401-0.251l-0.117 0.383c0.142 0.059 0.282 0.124 0.418 0.197z"></path>
<path fill="rgb(255, 255, 255)" d="M10.089 6.679l0.128-0.42c-0.134-0.078-0.272-0.147-0.414-0.207l-0.138 0.453c0.138 0.070 0.277 0.145 0.424 0.175z"></path>
<path fill="rgb(255, 255, 255)" d="M9.405 7.427c0.129 0.074 0.26 0.139 0.394 0.2l0.126-0.411c-0.148-0.043-0.285-0.107-0.425-0.17l-0.114 0.372c0.006 0.003 0.013 0.005 0.019 0.009z"></path>
<path fill="rgb(255, 255, 255)" d="M9.528 8.514l0.103-0.337c-0.141-0.063-0.279-0.131-0.415-0.204l-0.121 0.396c0.141 0.059 0.286 0.109 0.433 0.145z"></path>
<path fill="rgb(255, 255, 255)" d="M8.929 8.915l-0.075 0.246c-0.037 0.121 0.031 0.248 0.151 0.285 0.022 0.007 0.045 0.010 0.067 0.010 0.098 0 0.188-0.063 0.218-0.162l0.072-0.236c-0.147-0.037-0.292-0.085-0.433-0.143z"></path>
<path fill="rgb(255, 255, 255)" d="M10.658 4.815l0.032-0.103 0.42-0.135c-0.079-0.134-0.152-0.268-0.212-0.412l-0.575 0.185-0.056 0.181c0.115 0.113 0.25 0.203 0.391 0.284z"></path>
<path fill="rgb(255, 255, 255)" d="M14.237 3.331c-0.039-0.12-0.167-0.186-0.287-0.148l-0.427 0.137c0.064 0.139 0.121 0.28 0.169 0.425l0.398-0.128c0.12-0.039 0.186-0.167 0.147-0.287z"></path>
<path fill="rgb(246, 146, 30)" d="M13.679 13.812c0 1.238-1.004 2.242-2.242 2.242s-2.242-1.004-2.242-2.242c0-1.238 1.004-2.242 2.242-2.242s2.242 1.004 2.242 2.242z"></path>
<path fill="rgb(35, 31, 32)" d="M10.502 12.113c0.022 0.061 0.168 0.063 0.327 0.005s0.268-0.154 0.246-0.215l-0.012-0.027c-0.022-0.061-0.169-0.063-0.326-0.005s-0.269 0.154-0.246 0.215l0.012 0.027z"></path>
<path fill="rgb(55, 179, 74)" d="M10.749 11.942v-0c0 0 0 0 0-0-0.025-0.259-0.161-0.501-0.392-0.648-0.238-0.152-0.525-0.169-0.776-0.073h-0c-0.002 0-0.003 0.001-0.005 0.002 0.099 0.214 0.272 0.414 0.505 0.563 0.216 0.138 0.451 0.209 0.672 0.218-0.001-0.021-0.002-0.041-0.004-0.061z"></path>
</svg>
