<?xml version="1.0" encoding="utf-8"?>
<!-- Generated by IcoMoon.io -->
<!DOCTYPE svg PUBLIC "-//W3C//DTD SVG 1.1//EN" "http://www.w3.org/Graphics/SVG/1.1/DTD/svg11.dtd">
<svg version="1.1" xmlns="http://www.w3.org/2000/svg" xmlns:xlink="http://www.w3.org/1999/xlink" width="20" height="20" viewBox="0 0 20 20">
<path fill="rgb(50, 190, 166)" d="M19.691 10c0 5.352-4.339 9.691-9.691 9.691s-9.691-4.339-9.691-9.691c0-5.352 4.338-9.691 9.691-9.691s9.691 4.339 9.691 9.691z"></path>
<path fill="rgb(190, 30, 45)" d="M12.573 15.607l-3.806-0.063 0.014-0.837 3.806 0.063z"></path>
<path fill="rgb(253, 222, 191)" d="M14.834 8.868c-0.118-0.002-0.231 0.014-0.339 0.044-0.136-0.345-0.469-0.591-0.862-0.598-0.050-0.001-0.1 0.003-0.148 0.010-0.167-0.241-0.443-0.401-0.759-0.406-0.114-0.002-0.222 0.018-0.324 0.053-0.14-0.277-0.425-0.47-0.757-0.476-0.138-0.002-0.269 0.029-0.386 0.085-0.212-0.362-0.601-0.609-1.052-0.616-0.562-0.009-1.042 0.356-1.205 0.865-0.176-0.113-0.384-0.181-0.608-0.184-0.546-0.009-1.009 0.358-1.145 0.862-0.13-0.046-0.27-0.073-0.416-0.075-0.729-0.012-1.329 0.569-1.341 1.298s0.569 1.329 1.298 1.341c0.668 0.011 1.227-0.477 1.325-1.12 0.078 0.018 0.158 0.028 0.241 0.029 0.009 0 0.017-0.001 0.025-0.001-0.006 0.060-0.010 0.12-0.011 0.182-0.020 1.25 0.976 2.28 2.226 2.3 0.973 0.016 1.812-0.584 2.146-1.44 0.456-0.024 0.827-0.372 0.884-0.821 0.007 0 0.013-0.001 0.020-0.001 0.073 0.572 0.556 1.019 1.149 1.029 0.652 0.011 1.189-0.509 1.199-1.161s-0.509-1.189-1.16-1.199z"></path>
<path fill="rgb(65, 64, 66)" d="M10.655 15.271c2.901 0.048 5.291-2.265 5.339-5.166l-10.505-0.173c-0.048 2.901 2.265 5.291 5.166 5.339z"></path>
<path fill="rgb(190, 30, 45)" d="M8.289 8.836l-3.661-3.989-0.547 0.529 3.517 3.448z"></path>
<path fill="rgb(190, 30, 45)" d="M9.141 8.85l-2.944-4.478-0.625 0.435 2.967 4.033z"></path>
</svg>
