<?xml version="1.0" encoding="utf-8"?>
<!-- Generated by IcoMoon.io -->
<!DOCTYPE svg PUBLIC "-//W3C//DTD SVG 1.1//EN" "http://www.w3.org/Graphics/SVG/1.1/DTD/svg11.dtd">
<svg version="1.1" xmlns="http://www.w3.org/2000/svg" xmlns:xlink="http://www.w3.org/1999/xlink" width="20" height="20" viewBox="0 0 20 20">
<path fill="rgb(250, 188, 61)" d="M19.69 10c0-5.352-4.339-9.691-9.69-9.691s-9.691 4.338-9.691 9.691c0 5.352 4.339 9.69 9.691 9.69s9.69-4.339 9.69-9.69z"></path>
<path fill="rgb(198, 153, 99)" d="M14.050 8.219c0-0.038-0.001-0.789-0.003-0.826 0 0-2.079-1.723-4.527-1.723-2.421 0-4.523 1.723-4.523 1.723-0.004 0.062-0.006 0.761-0.006 0.826 0 1.107 2.028 1.74 4.53 1.74s4.53-0.633 4.53-1.74z"></path>
<path fill="rgb(206, 163, 106)" d="M14.050 7.43c0-1.107-2.028-2.108-4.53-2.108s-4.53 1.001-4.53 2.108c0 1.107 2.028 1.736 4.53 1.736s4.53-0.629 4.53-1.736z"></path>
<path fill="rgb(160, 118, 72)" d="M6.7 7.051c-0.116-0.218-0.535-0.341-0.874-0.161s-0.471 0.596-0.354 0.815c0.116 0.218 0.436 0.156 0.775-0.024s0.569-0.411 0.453-0.63z"></path>
<path fill="rgb(160, 118, 72)" d="M10.087 5.937c-0.031-0.263-0.402-0.549-0.811-0.5s-0.702 0.413-0.671 0.677c0.031 0.263 0.375 0.326 0.784 0.277s0.729-0.19 0.697-0.454z"></path>
<path fill="rgb(160, 118, 72)" d="M12.014 6.399c0.037-0.212-0.184-0.521-0.514-0.579s-0.643 0.157-0.68 0.369c-0.037 0.212 0.216 0.341 0.545 0.399s0.611 0.022 0.648-0.19z"></path>
<path fill="rgb(160, 118, 72)" d="M10.424 8.297c0-0.268-0.307-0.599-0.685-0.599s-0.685 0.331-0.685 0.599c0 0.268 0.307 0.372 0.685 0.372s0.685-0.104 0.685-0.372z"></path>
<path fill="rgb(160, 118, 72)" d="M7.827 6.019c-0.051-0.209-0.377-0.404-0.702-0.325s-0.526 0.401-0.476 0.61 0.334 0.227 0.659 0.148c0.325-0.079 0.569-0.223 0.519-0.433z"></path>
<path fill="rgb(160, 118, 72)" d="M8.264 7.518c-0.051-0.209-0.319-0.418-0.573-0.356s-0.397 0.37-0.347 0.579 0.276 0.241 0.53 0.179c0.254-0.061 0.44-0.192 0.39-0.402z"></path>
<path fill="rgb(160, 118, 72)" d="M13.452 7.522c0.027-0.199-0.19-0.478-0.499-0.52s-0.592 0.17-0.619 0.368c-0.027 0.199 0.213 0.31 0.522 0.351s0.569-0.001 0.596-0.2z"></path>
<path fill="rgb(160, 118, 72)" d="M11.775 7.847c0.021-0.141-0.131-0.342-0.35-0.374s-0.423 0.115-0.444 0.256c-0.021 0.141 0.148 0.222 0.368 0.255s0.405 0.004 0.426-0.137z"></path>
<path fill="rgb(160, 118, 72)" d="M9.995 6.922c-0.009-0.142-0.199-0.307-0.42-0.293s-0.389 0.201-0.38 0.343c0.009 0.142 0.192 0.186 0.413 0.172s0.397-0.080 0.388-0.223z"></path>
<path fill="rgb(198, 153, 99)" d="M8.575 10.521c0-0.038 0.001-0.789 0.003-0.826 0 0 2.079-1.723 4.527-1.723 2.421 0 4.523 1.723 4.523 1.723 0.004 0.062 0.006 0.761 0.006 0.826 0 1.107-2.028 1.74-4.53 1.74s-4.53-0.633-4.53-1.74z"></path>
<path fill="rgb(193, 151, 101)" d="M8.575 9.733c0-1.107 2.028-2.108 4.53-2.108s4.53 1.001 4.53 2.108c0 1.107-2.028 1.736-4.53 1.736s-4.53-0.629-4.53-1.736z"></path>
<path fill="rgb(160, 118, 72)" d="M15.925 9.354c0.116-0.218 0.535-0.341 0.874-0.161s0.471 0.596 0.354 0.815c-0.116 0.218-0.436 0.156-0.775-0.024s-0.569-0.411-0.453-0.63z"></path>
<path fill="rgb(160, 118, 72)" d="M12.539 8.24c0.031-0.263 0.402-0.549 0.811-0.5s0.702 0.413 0.671 0.677c-0.031 0.263-0.375 0.326-0.784 0.277s-0.729-0.19-0.697-0.454z"></path>
<path fill="rgb(160, 118, 72)" d="M10.612 8.702c-0.037-0.212 0.184-0.521 0.514-0.579s0.643 0.157 0.68 0.369c0.037 0.212-0.216 0.341-0.545 0.399s-0.611 0.022-0.648-0.19z"></path>
<path fill="rgb(160, 118, 72)" d="M12.202 10.6c0-0.268 0.307-0.599 0.685-0.599s0.685 0.331 0.685 0.599c0 0.268-0.307 0.372-0.685 0.372s-0.685-0.104-0.685-0.372z"></path>
<path fill="rgb(160, 118, 72)" d="M14.799 8.322c0.051-0.209 0.377-0.404 0.702-0.325s0.526 0.401 0.476 0.61-0.334 0.227-0.659 0.148-0.569-0.223-0.519-0.433z"></path>
<path fill="rgb(160, 118, 72)" d="M14.362 9.821c0.051-0.209 0.319-0.418 0.573-0.357s0.397 0.37 0.347 0.579-0.276 0.241-0.53 0.179c-0.254-0.061-0.44-0.192-0.39-0.402z"></path>
<path fill="rgb(160, 118, 72)" d="M9.174 9.825c-0.027-0.199 0.19-0.478 0.499-0.52s0.592 0.17 0.619 0.368c0.027 0.199-0.213 0.31-0.522 0.351s-0.569-0.001-0.596-0.2z"></path>
<path fill="rgb(160, 118, 72)" d="M10.85 10.15c-0.021-0.141 0.131-0.342 0.35-0.374s0.423 0.115 0.444 0.256-0.148 0.222-0.368 0.255c-0.219 0.033-0.405 0.004-0.426-0.137z"></path>
<path fill="rgb(160, 118, 72)" d="M12.631 9.225c0.009-0.142 0.199-0.307 0.42-0.293s0.389 0.201 0.38 0.343c-0.009 0.142-0.192 0.186-0.413 0.172s-0.397-0.080-0.388-0.223z"></path>
<path fill="rgb(198, 153, 99)" d="M11.776 12.722c0-0.038-0.001-0.789-0.003-0.826 0 0-2.079-1.723-4.527-1.723-2.421 0-4.523 1.723-4.523 1.723-0.004 0.062-0.006 0.761-0.006 0.826 0 1.107 2.028 1.74 4.53 1.74s4.53-0.633 4.53-1.74z"></path>
<path fill="rgb(206, 163, 106)" d="M11.776 11.934c0-1.107-2.028-2.108-4.53-2.108s-4.53 1.001-4.53 2.108c0 1.107 2.028 1.736 4.53 1.736s4.53-0.629 4.53-1.736z"></path>
<path fill="rgb(160, 118, 72)" d="M4.426 11.555c-0.116-0.218-0.535-0.341-0.874-0.161s-0.471 0.596-0.354 0.815c0.116 0.218 0.436 0.156 0.775-0.024s0.569-0.411 0.453-0.63z"></path>
<path fill="rgb(160, 118, 72)" d="M7.812 10.441c-0.031-0.263-0.402-0.549-0.811-0.5s-0.702 0.413-0.671 0.677c0.031 0.263 0.375 0.326 0.784 0.277s0.729-0.19 0.697-0.454z"></path>
<path fill="rgb(160, 118, 72)" d="M9.739 10.903c0.037-0.212-0.184-0.521-0.514-0.579s-0.643 0.157-0.68 0.369c-0.037 0.212 0.216 0.341 0.545 0.399s0.611 0.023 0.648-0.19z"></path>
<path fill="rgb(160, 118, 72)" d="M8.149 12.801c0-0.268-0.307-0.599-0.685-0.599s-0.685 0.331-0.685 0.599c0 0.268 0.307 0.372 0.685 0.372s0.685-0.104 0.685-0.372z"></path>
<path fill="rgb(160, 118, 72)" d="M5.552 10.523c-0.051-0.209-0.377-0.404-0.702-0.325s-0.526 0.401-0.476 0.61c0.051 0.209 0.334 0.227 0.659 0.148s0.569-0.223 0.519-0.433z"></path>
<path fill="rgb(160, 118, 72)" d="M5.989 12.022c-0.051-0.209-0.319-0.418-0.573-0.357s-0.397 0.37-0.347 0.579c0.051 0.209 0.276 0.241 0.53 0.179s0.44-0.192 0.39-0.402z"></path>
<path fill="rgb(160, 118, 72)" d="M11.177 12.026c0.027-0.199-0.19-0.478-0.499-0.52s-0.592 0.17-0.619 0.368c-0.027 0.199 0.213 0.31 0.522 0.351s0.569-0.001 0.596-0.2z"></path>
<path fill="rgb(160, 118, 72)" d="M9.501 12.351c0.021-0.141-0.131-0.342-0.35-0.374s-0.423 0.115-0.444 0.256 0.148 0.222 0.367 0.255c0.219 0.033 0.405 0.004 0.426-0.137z"></path>
<path fill="rgb(160, 118, 72)" d="M7.72 11.426c-0.009-0.142-0.199-0.307-0.42-0.293s-0.389 0.201-0.38 0.343c0.009 0.142 0.192 0.186 0.413 0.172s0.397-0.080 0.388-0.223z"></path>
</svg>
