<?xml version="1.0" encoding="utf-8"?>
<!-- Generated by IcoMoon.io -->
<!DOCTYPE svg PUBLIC "-//W3C//DTD SVG 1.1//EN" "http://www.w3.org/Graphics/SVG/1.1/DTD/svg11.dtd">
<svg version="1.1" xmlns="http://www.w3.org/2000/svg" xmlns:xlink="http://www.w3.org/1999/xlink" width="20" height="20" viewBox="0 0 20 20">
<path fill="rgb(237, 201, 44)" d="M19.691 10c0 5.352-4.339 9.691-9.691 9.691s-9.691-4.339-9.691-9.691c0-5.352 4.339-9.691 9.691-9.691s9.691 4.338 9.691 9.691z"></path>
<path fill="rgb(125, 193, 66)" d="M9.56 9.764c0 0-1.162-2.617-0.828-5.349 0 0 1.628 0.196 1.389 5.132l-0.561 0.217z"></path>
<path fill="rgb(96, 168, 69)" d="M9.558 9.539c0 0-0.185-3.751 1.514-6.935 0 0 1.899 1.013-0.725 6.935h-0.789z"></path>
<path fill="rgb(96, 168, 69)" d="M13.047 3.166c0 0-2.777 2.731-2.936 6.437l0.956 0.393c0 0 1.969-1.933 1.98-6.83z"></path>
<path fill="rgb(125, 193, 66)" d="M10.222 9.527c0 0 1.557-4.223 3.661-4.095 0 0-0.471 3.31-2.816 4.564l-0.845-0.469z"></path>
<path fill="rgb(147, 200, 61)" d="M9.53 9.692c0 0-0.706-0.278-1.212-1.169 0 0 0.612-0.359 1.638 0.896l-0.426 0.273z"></path>
<path fill="rgb(147, 200, 61)" d="M13.040 9.005c0 0-0.983-0.494-2.187 0.633l0.454 0.405c0 0 1.072-0.8 1.733-1.038z"></path>
<path fill="rgb(250, 175, 60)" d="M13.51 14.027c-0.432 2.188-2.418 3.638-4.436 3.239s-3.304-2.495-2.872-4.682c0.432-2.188 2.418-3.638 4.436-3.24s3.304 2.495 2.872 4.683z"></path>
<path fill="rgb(140, 99, 57)" d="M13.111 11.014c-0.028-0.046-0.056-0.093-0.085-0.139-0.038-0.039-0.075-0.077-0.113-0.114-0.039-0.068-0.077-0.136-0.117-0.204-0.024-0.027-0.048-0.053-0.072-0.079 0.037 0.068 0.074 0.137 0.11 0.206-0.117-0.113-0.234-0.219-0.354-0.319-0.026-0.071-0.053-0.142-0.081-0.213-0.025-0.024-0.049-0.047-0.074-0.069 0.025 0.072 0.050 0.143 0.074 0.214-0.119-0.098-0.239-0.19-0.361-0.275-0.015-0.072-0.030-0.145-0.045-0.218-0.025-0.020-0.051-0.039-0.077-0.057 0.014 0.073 0.027 0.145 0.039 0.218-0.122-0.082-0.246-0.158-0.37-0.228-0.003-0.073-0.006-0.146-0.010-0.218-0.026-0.015-0.052-0.031-0.079-0.046 0.002 0.073 0.003 0.145 0.004 0.218-0.125-0.066-0.251-0.126-0.379-0.18 0.008-0.072 0.016-0.144 0.024-0.216-0.027-0.012-0.054-0.023-0.081-0.034-0.009 0.072-0.020 0.143-0.030 0.215-0.128-0.050-0.258-0.094-0.389-0.129 0.019-0.071 0.038-0.14 0.058-0.21-0.027-0.008-0.055-0.015-0.083-0.022-0.021 0.069-0.042 0.138-0.064 0.208-0.132-0.033-0.265-0.059-0.4-0.077 0.030-0.067 0.060-0.134 0.091-0.199-0.029-0.003-0.057-0.007-0.086-0.009-0.032 0.065-0.064 0.131-0.096 0.197-0.135-0.016-0.272-0.023-0.41-0.023 0.041-0.062 0.081-0.124 0.123-0.186-0.029 0.001-0.059 0.002-0.088 0.004-0.044 0.060-0.087 0.121-0.129 0.183-0.139 0.003-0.28 0.014-0.423 0.033 0.051-0.057 0.103-0.113 0.155-0.168-0.031 0.005-0.061 0.011-0.091 0.017-0.055 0.055-0.108 0.109-0.161 0.165-0.143 0.022-0.288 0.053-0.436 0.091 0.061-0.050 0.124-0.099 0.187-0.147-0.032 0.010-0.063 0.021-0.095 0.032-0.065 0.047-0.129 0.094-0.192 0.143-0.048 0.014-0.096 0.028-0.144 0.043-0.046 0.032-0.091 0.065-0.137 0.097 0.050-0.013 0.1-0.027 0.15-0.039-0.19 0.151-0.371 0.307-0.543 0.467-0.057 0.007-0.115 0.013-0.172 0.020-0.040 0.035-0.081 0.070-0.12 0.106 0.059-0.006 0.118-0.011 0.176-0.016-0.168 0.163-0.326 0.33-0.476 0.502-0.065-0.002-0.13-0.003-0.194-0.004-0.035 0.037-0.069 0.075-0.103 0.112 0.066 0.002 0.131 0.004 0.198 0.008-0.146 0.173-0.281 0.35-0.407 0.532-0.070-0.009-0.14-0.018-0.211-0.027-0.029 0.040-0.059 0.079-0.087 0.119 0.071 0.011 0.143 0.021 0.214 0.031-0.122 0.182-0.234 0.369-0.337 0.558-0.074-0.017-0.148-0.033-0.223-0.050-0.024 0.042-0.047 0.083-0.070 0.125 0.075 0.019 0.149 0.037 0.224 0.055-0.098 0.191-0.186 0.384-0.264 0.581-0.076-0.025-0.152-0.049-0.229-0.074-0.018 0.043-0.035 0.086-0.052 0.13 0.076 0.026 0.153 0.052 0.229 0.078-0.074 0.197-0.138 0.399-0.191 0.601-0.077-0.032-0.154-0.064-0.23-0.097-0.012 0.044-0.024 0.089-0.034 0.134 0.076 0.035 0.152 0.069 0.229 0.102-0.049 0.203-0.088 0.41-0.117 0.618-0.076-0.040-0.15-0.080-0.225-0.122-0.006 0.045-0.012 0.091-0.017 0.137 0.075 0.043 0.149 0.085 0.223 0.126-0.024 0.209-0.038 0.42-0.042 0.631-0.072-0.048-0.144-0.097-0.215-0.146-0.001 0.046 0 0.092 0.001 0.139 0.070 0.051 0.141 0.102 0.212 0.151 0.001 0.212 0.012 0.426 0.034 0.641-0.067-0.055-0.133-0.112-0.199-0.171 0.006 0.047 0.013 0.094 0.020 0.141 0.065 0.060 0.13 0.119 0.196 0.176 0.008 0.069 0.018 0.139 0.029 0.209 0.045 0.041 0.089 0.082 0.135 0.121-0.010-0.071-0.018-0.142-0.025-0.214 0.204 0.169 0.411 0.322 0.621 0.459 0.002 0.077 0.005 0.154 0.009 0.23 0.046 0.032 0.093 0.064 0.14 0.094-0.003-0.077-0.005-0.155-0.007-0.233 0.211 0.131 0.426 0.247 0.643 0.348-0.003 0.081-0.006 0.163-0.008 0.243 0.048 0.024 0.096 0.047 0.145 0.069 0.003-0.082 0.007-0.164 0.011-0.245 0.219 0.095 0.44 0.176 0.664 0.243-0.008 0.083-0.016 0.166-0.024 0.249 0.050 0.015 0.1 0.030 0.15 0.044 0.009-0.083 0.018-0.166 0.027-0.249 0.226 0.061 0.454 0.107 0.683 0.143-0.013 0.083-0.025 0.165-0.038 0.249 0.051 0.007 0.102 0.014 0.154 0.020 0.014-0.083 0.028-0.165 0.041-0.248 0.232 0.029 0.466 0.045 0.702 0.049-0.017 0.080-0.034 0.161-0.051 0.241 0.053 0 0.106 0 0.158-0.001 0.018-0.080 0.037-0.16 0.055-0.239 0.237-0.002 0.477-0.016 0.719-0.041-0.021 0.075-0.042 0.152-0.064 0.228 0.054-0.006 0.108-0.014 0.162-0.022 0.023-0.075 0.044-0.15 0.066-0.225 0.243-0.030 0.488-0.071 0.735-0.124-0.024 0.069-0.049 0.139-0.074 0.209 0.055-0.013 0.111-0.027 0.167-0.041 0.026-0.069 0.051-0.137 0.076-0.204 0.248-0.057 0.498-0.124 0.75-0.2-0.026 0.061-0.054 0.122-0.083 0.184 0.056-0.020 0.113-0.039 0.17-0.059 0.029-0.060 0.057-0.119 0.084-0.179 0.253-0.081 0.507-0.171 0.763-0.27-0.029 0.051-0.059 0.102-0.090 0.154 0.057-0.025 0.115-0.049 0.173-0.075 0.032-0.049 0.062-0.097 0.092-0.147 0.083-0.033 0.167-0.068 0.25-0.103 0.022-0.033 0.041-0.065 0.062-0.097-0.084 0.033-0.167 0.065-0.251 0.096 0.087-0.151 0.164-0.303 0.231-0.455 0.085-0.023 0.169-0.046 0.254-0.070 0.015-0.032 0.030-0.065 0.044-0.098-0.085 0.022-0.17 0.043-0.254 0.064 0.063-0.153 0.116-0.307 0.159-0.463 0.084-0.012 0.169-0.025 0.253-0.038 0.010-0.033 0.019-0.067 0.028-0.1-0.085 0.011-0.168 0.023-0.253 0.033 0.039-0.155 0.069-0.313 0.089-0.472 0.082-0.003 0.165-0.007 0.248-0.010 0.004-0.034 0.008-0.069 0.011-0.103-0.082 0.002-0.164 0.003-0.246 0.005 0.016-0.16 0.022-0.322 0.019-0.486 0.079 0.006 0.158 0.012 0.238 0.017-0.002-0.035-0.003-0.071-0.006-0.107-0.079-0.007-0.157-0.014-0.236-0.021-0.008-0.165-0.024-0.333-0.050-0.503 0.075 0.013 0.149 0.027 0.223 0.041-0.007-0.037-0.014-0.074-0.022-0.112-0.073-0.015-0.146-0.030-0.22-0.045-0.030-0.172-0.069-0.346-0.117-0.523 0.068 0.021 0.136 0.041 0.204 0.062-0.012-0.039-0.025-0.078-0.039-0.117-0.066-0.022-0.133-0.045-0.199-0.067-0.053-0.179-0.115-0.361-0.185-0.548 0.060 0.027 0.12 0.054 0.18 0.082-0.017-0.041-0.036-0.083-0.054-0.124-0.058-0.029-0.117-0.057-0.176-0.085-0.074-0.188-0.157-0.38-0.249-0.575 0.051 0.032 0.101 0.065 0.152 0.098-0.023-0.043-0.046-0.087-0.070-0.131-0.049-0.034-0.097-0.068-0.146-0.101-0.096-0.197-0.2-0.399-0.313-0.605 0.040 0.037 0.080 0.074 0.12 0.112zM12.449 10.445c0.071 0.217 0.135 0.431 0.194 0.643-0.153-0.089-0.306-0.175-0.461-0.255-0.033-0.219-0.071-0.438-0.113-0.661 0.128 0.085 0.255 0.176 0.381 0.273zM9.828 12.658c0.052-0.234 0.105-0.467 0.159-0.697 0.215 0.049 0.428 0.099 0.641 0.151-0.038 0.229-0.077 0.46-0.117 0.692-0.227-0.049-0.455-0.097-0.683-0.146zM10.483 12.962c-0.040 0.232-0.081 0.466-0.125 0.699-0.241-0.043-0.48-0.087-0.719-0.134 0.050-0.239 0.101-0.475 0.153-0.71 0.23 0.049 0.461 0.097 0.691 0.145zM9.673 12.625c-0.227-0.049-0.455-0.098-0.683-0.148 0.066-0.232 0.135-0.462 0.207-0.69 0.215 0.046 0.431 0.092 0.645 0.141-0.057 0.23-0.113 0.462-0.168 0.697zM9.636 12.784c-0.054 0.235-0.107 0.472-0.16 0.711-0.239-0.049-0.478-0.099-0.717-0.152 0.059-0.238 0.121-0.474 0.185-0.708 0.231 0.051 0.461 0.1 0.691 0.149zM9.441 13.657c-0.052 0.24-0.103 0.481-0.151 0.724-0.246-0.046-0.491-0.097-0.735-0.153 0.052-0.243 0.107-0.484 0.165-0.723 0.24 0.053 0.481 0.104 0.722 0.152zM9.605 13.69c0.241 0.046 0.483 0.090 0.725 0.131-0.043 0.236-0.087 0.472-0.132 0.709-0.248-0.035-0.494-0.074-0.741-0.118 0.049-0.243 0.098-0.483 0.148-0.722zM10.494 13.848c0.242 0.040 0.485 0.077 0.727 0.113-0.033 0.226-0.069 0.451-0.109 0.678-0.249-0.024-0.498-0.053-0.746-0.086 0.044-0.236 0.086-0.471 0.128-0.704zM10.522 13.69c0.040-0.233 0.080-0.465 0.117-0.696 0.231 0.047 0.461 0.094 0.691 0.14-0.026 0.224-0.055 0.449-0.087 0.674-0.241-0.037-0.482-0.077-0.722-0.118zM10.666 12.837c0.037-0.231 0.073-0.46 0.108-0.689 0.213 0.052 0.426 0.106 0.639 0.161-0.018 0.223-0.041 0.447-0.065 0.672-0.227-0.048-0.455-0.096-0.682-0.144zM10.797 11.992c0.034-0.228 0.067-0.456 0.099-0.682 0.191 0.055 0.382 0.115 0.572 0.177-0.012 0.223-0.026 0.447-0.044 0.67-0.208-0.057-0.417-0.111-0.627-0.165zM10.655 11.957c-0.21-0.053-0.42-0.104-0.631-0.152 0.054-0.23 0.109-0.458 0.164-0.684 0.193 0.048 0.386 0.098 0.578 0.152-0.037 0.226-0.073 0.454-0.111 0.683zM9.88 11.771c-0.211-0.048-0.422-0.094-0.634-0.139 0.073-0.227 0.148-0.45 0.227-0.672 0.196 0.039 0.39 0.082 0.584 0.128-0.060 0.226-0.118 0.453-0.176 0.682zM9.102 11.603c-0.212-0.043-0.426-0.085-0.639-0.124 0.091-0.218 0.186-0.433 0.287-0.645 0.197 0.030 0.394 0.064 0.59 0.102-0.082 0.22-0.161 0.442-0.238 0.667zM9.050 11.756c-0.075 0.226-0.146 0.456-0.215 0.687-0.228-0.049-0.456-0.099-0.684-0.149 0.079-0.226 0.163-0.447 0.251-0.667 0.217 0.042 0.433 0.085 0.648 0.13zM8.789 12.601c-0.068 0.233-0.131 0.468-0.192 0.705-0.238-0.054-0.476-0.111-0.715-0.171 0.067-0.232 0.139-0.461 0.216-0.687 0.23 0.051 0.461 0.103 0.691 0.153zM8.557 13.468c-0.059 0.239-0.115 0.479-0.167 0.722-0.244-0.058-0.487-0.121-0.728-0.19 0.054-0.237 0.113-0.473 0.177-0.707 0.239 0.062 0.479 0.12 0.719 0.175zM8.354 14.355c-0.051 0.244-0.098 0.49-0.142 0.737-0.244-0.060-0.486-0.129-0.726-0.206 0.041-0.244 0.088-0.484 0.139-0.724 0.242 0.070 0.485 0.135 0.729 0.193zM8.52 14.394c0.244 0.056 0.489 0.107 0.736 0.153-0.048 0.243-0.096 0.489-0.143 0.736-0.247-0.043-0.492-0.093-0.736-0.151 0.045-0.248 0.092-0.494 0.143-0.738zM9.424 14.577c0.247 0.043 0.494 0.081 0.744 0.115-0.046 0.238-0.092 0.478-0.14 0.719-0.25-0.026-0.499-0.058-0.746-0.099 0.047-0.246 0.094-0.491 0.142-0.735zM10.336 14.714c0.249 0.031 0.498 0.058 0.748 0.079-0.041 0.227-0.085 0.455-0.132 0.683-0.253-0.010-0.505-0.026-0.755-0.049 0.048-0.238 0.094-0.477 0.139-0.713zM11.255 14.808c0.251 0.019 0.502 0.035 0.753 0.045-0.035 0.211-0.076 0.422-0.122 0.633-0.255 0.004-0.509 0.003-0.762-0.004 0.047-0.226 0.090-0.45 0.131-0.674zM11.282 14.655c0.038-0.224 0.073-0.447 0.105-0.671 0.243 0.034 0.486 0.065 0.729 0.094-0.022 0.211-0.050 0.421-0.083 0.632-0.251-0.015-0.501-0.033-0.75-0.055zM11.407 13.832c0.029-0.223 0.057-0.446 0.079-0.667 0.23 0.045 0.46 0.091 0.69 0.135-0.011 0.212-0.026 0.423-0.046 0.634-0.241-0.032-0.482-0.066-0.723-0.102zM11.502 13.013c0.021-0.222 0.039-0.444 0.055-0.666 0.212 0.055 0.424 0.113 0.636 0.171 0.002 0.213-0.002 0.426-0.010 0.638-0.227-0.047-0.454-0.095-0.68-0.143zM11.566 12.196c0.014-0.223 0.024-0.445 0.031-0.667 0.19 0.063 0.378 0.129 0.567 0.199 0.014 0.216 0.023 0.431 0.027 0.645-0.208-0.061-0.416-0.12-0.624-0.177zM11.602 11.378c0.005-0.223 0.008-0.445 0.007-0.668 0.162 0.067 0.324 0.14 0.485 0.217 0.025 0.219 0.045 0.436 0.061 0.653-0.184-0.071-0.368-0.138-0.553-0.203zM11.476 11.335c-0.186-0.063-0.371-0.123-0.558-0.178 0.031-0.226 0.061-0.451 0.089-0.676 0.165 0.056 0.329 0.118 0.492 0.183-0.004 0.224-0.012 0.447-0.022 0.671zM10.79 11.119c-0.187-0.054-0.376-0.104-0.565-0.152 0.056-0.225 0.112-0.448 0.169-0.67 0.168 0.044 0.334 0.093 0.5 0.147-0.034 0.224-0.069 0.449-0.104 0.675zM10.097 10.936c-0.19-0.045-0.379-0.087-0.571-0.124 0.079-0.221 0.161-0.438 0.247-0.652 0.171 0.031 0.34 0.067 0.508 0.108-0.062 0.221-0.124 0.443-0.184 0.668zM9.396 10.787c-0.192-0.036-0.384-0.068-0.578-0.095 0.103-0.211 0.21-0.417 0.322-0.62 0.173 0.017 0.345 0.040 0.517 0.069-0.090 0.213-0.177 0.428-0.26 0.647zM8.687 10.672c-0.194-0.026-0.389-0.048-0.585-0.065 0.125-0.196 0.256-0.387 0.394-0.574 0.176 0.003 0.352 0.012 0.526 0.027-0.117 0.201-0.228 0.405-0.335 0.613zM8.615 10.814c-0.104 0.209-0.203 0.422-0.298 0.638-0.213-0.039-0.428-0.076-0.643-0.11 0.108-0.204 0.222-0.405 0.344-0.602 0.2 0.021 0.399 0.045 0.597 0.074zM8.255 11.599c-0.091 0.217-0.178 0.438-0.259 0.661-0.228-0.051-0.457-0.1-0.685-0.152 0.090-0.212 0.188-0.421 0.292-0.628 0.219 0.038 0.435 0.077 0.653 0.118zM7.941 12.413c-0.078 0.224-0.152 0.452-0.219 0.682-0.238-0.060-0.475-0.124-0.712-0.19 0.073-0.22 0.153-0.436 0.24-0.65 0.231 0.053 0.462 0.106 0.692 0.158zM7.676 13.252c-0.066 0.232-0.125 0.466-0.179 0.702-0.242-0.071-0.483-0.147-0.722-0.228 0.055-0.226 0.117-0.45 0.186-0.671 0.238 0.070 0.476 0.135 0.715 0.198zM7.46 14.114c-0.052 0.237-0.098 0.477-0.139 0.718-0.239-0.081-0.478-0.17-0.714-0.266 0.036-0.231 0.081-0.46 0.131-0.687 0.24 0.085 0.48 0.163 0.722 0.236zM7.295 14.996c-0.038 0.242-0.070 0.486-0.097 0.732-0.233-0.090-0.463-0.191-0.692-0.303 0.018-0.236 0.044-0.469 0.077-0.701 0.236 0.1 0.473 0.191 0.712 0.273zM7.457 15.051c0.24 0.078 0.482 0.148 0.724 0.21-0.043 0.249-0.082 0.499-0.118 0.751-0.238-0.064-0.474-0.138-0.708-0.223 0.028-0.248 0.063-0.493 0.101-0.737zM8.347 15.301c0.243 0.058 0.489 0.108 0.735 0.151-0.046 0.248-0.091 0.498-0.134 0.749-0.243-0.039-0.484-0.088-0.722-0.148 0.037-0.252 0.077-0.502 0.121-0.751zM9.25 15.48c0.247 0.038 0.496 0.070 0.745 0.094-0.048 0.242-0.097 0.484-0.147 0.728-0.247-0.017-0.492-0.042-0.736-0.076 0.045-0.251 0.091-0.499 0.137-0.746zM10.165 15.589c0.25 0.021 0.502 0.036 0.754 0.042-0.049 0.229-0.1 0.458-0.155 0.69-0.251 0.005-0.5 0.002-0.749-0.010 0.052-0.242 0.101-0.483 0.149-0.722zM11.093 15.636c0.253 0.004 0.507 0.002 0.763-0.007-0.048 0.211-0.101 0.422-0.161 0.634-0.254 0.025-0.507 0.043-0.759 0.052 0.056-0.228 0.108-0.454 0.157-0.68zM12.029 15.622c0.256-0.011 0.512-0.029 0.77-0.051-0.047 0.188-0.101 0.376-0.161 0.564-0.258 0.044-0.514 0.080-0.769 0.11 0.059-0.208 0.113-0.415 0.161-0.622zM12.060 15.481c0.046-0.207 0.085-0.413 0.119-0.621 0.252 0.009 0.505 0.015 0.758 0.016-0.029 0.19-0.065 0.379-0.108 0.567-0.257 0.018-0.514 0.031-0.769 0.038zM12.203 14.72c0.031-0.207 0.057-0.415 0.078-0.622 0.243 0.028 0.487 0.054 0.731 0.077-0.011 0.192-0.029 0.383-0.055 0.573-0.252-0.006-0.503-0.015-0.754-0.028zM12.294 13.956c0.018-0.207 0.032-0.416 0.039-0.625 0.23 0.045 0.46 0.089 0.69 0.132 0.006 0.195 0.004 0.389-0.003 0.581-0.242-0.028-0.483-0.057-0.725-0.089zM12.337 13.188c0.005-0.209 0.005-0.42-0-0.631 0.211 0.058 0.422 0.119 0.633 0.18 0.023 0.199 0.038 0.397 0.047 0.593-0.227-0.047-0.453-0.094-0.68-0.142zM12.332 12.414c-0.008-0.212-0.022-0.425-0.039-0.639 0.188 0.071 0.376 0.144 0.562 0.22 0.039 0.204 0.072 0.407 0.098 0.607-0.206-0.064-0.413-0.127-0.621-0.188zM12.279 11.629c-0.020-0.214-0.046-0.431-0.076-0.649 0.16 0.079 0.319 0.163 0.478 0.25 0.055 0.211 0.104 0.419 0.147 0.625-0.182-0.078-0.365-0.154-0.548-0.226zM11.981 10.115c0.036 0.223 0.068 0.444 0.095 0.663-0.155-0.078-0.311-0.151-0.468-0.22-0.002-0.223-0.007-0.447-0.015-0.67 0.131 0.070 0.26 0.146 0.388 0.227zM11.503 9.842c0.002 0.224 0.002 0.447-0.002 0.67-0.157-0.066-0.316-0.127-0.475-0.183 0.028-0.224 0.055-0.446 0.080-0.669 0.134 0.054 0.267 0.114 0.398 0.182zM11.014 9.624c-0.032 0.222-0.064 0.444-0.097 0.667-0.16-0.054-0.322-0.102-0.484-0.145 0.057-0.221 0.115-0.439 0.174-0.655 0.137 0.038 0.273 0.081 0.407 0.132zM10.514 9.468c-0.065 0.214-0.129 0.432-0.191 0.651-0.163-0.040-0.327-0.075-0.492-0.104 0.086-0.213 0.174-0.423 0.265-0.63 0.141 0.021 0.28 0.048 0.418 0.083zM10 9.372c-0.097 0.204-0.191 0.413-0.282 0.624-0.166-0.027-0.333-0.047-0.502-0.062 0.114-0.201 0.232-0.399 0.355-0.592 0.145 0.003 0.287 0.013 0.428 0.031zM9.473 9.34c-0.129 0.191-0.253 0.386-0.372 0.584-0.169-0.012-0.339-0.018-0.511-0.018 0.141-0.185 0.289-0.366 0.443-0.543 0.148-0.015 0.295-0.023 0.44-0.023zM8.48 9.453c0.152-0.034 0.303-0.059 0.453-0.079-0.16 0.173-0.313 0.351-0.458 0.532-0.173 0.003-0.347 0.012-0.522 0.027 0.167-0.164 0.343-0.325 0.528-0.481zM7.839 10.047c0.18-0.011 0.359-0.017 0.536-0.016-0.143 0.184-0.278 0.372-0.407 0.564-0.196-0.017-0.394-0.028-0.593-0.035 0.146-0.176 0.301-0.347 0.464-0.514zM7.278 10.681c0.202 0.011 0.404 0.027 0.604 0.045-0.125 0.194-0.243 0.392-0.354 0.593-0.215-0.034-0.431-0.065-0.647-0.094 0.124-0.186 0.256-0.366 0.398-0.544zM6.798 11.351c0.219 0.033 0.438 0.068 0.656 0.105-0.107 0.203-0.207 0.409-0.299 0.618-0.229-0.050-0.458-0.101-0.686-0.152 0.1-0.193 0.211-0.384 0.33-0.57zM6.4 12.055c0.231 0.055 0.462 0.11 0.692 0.163-0.089 0.211-0.171 0.425-0.244 0.641-0.237-0.067-0.473-0.137-0.709-0.211 0.078-0.2 0.165-0.398 0.261-0.593zM6.089 12.785c0.236 0.077 0.473 0.151 0.71 0.222-0.070 0.218-0.133 0.439-0.187 0.662-0.239-0.084-0.477-0.174-0.714-0.27 0.054-0.207 0.118-0.412 0.191-0.614zM5.862 13.54c0.237 0.1 0.475 0.193 0.713 0.28-0.051 0.224-0.095 0.45-0.13 0.679-0.236-0.101-0.471-0.21-0.703-0.328 0.030-0.212 0.070-0.423 0.12-0.631zM5.723 14.316c0.232 0.123 0.464 0.235 0.7 0.339-0.032 0.229-0.056 0.461-0.072 0.693-0.227-0.118-0.453-0.247-0.676-0.387 0.006-0.216 0.022-0.431 0.048-0.644zM5.697 15.761c-0.018-0.219-0.026-0.437-0.025-0.654 0.22 0.145 0.443 0.278 0.669 0.398-0.013 0.234-0.017 0.468-0.013 0.704-0.214-0.135-0.424-0.284-0.631-0.448zM6.473 16.298c-0.001-0.239 0.007-0.476 0.021-0.712 0.226 0.115 0.455 0.219 0.686 0.31-0.024 0.247-0.042 0.494-0.054 0.743-0.22-0.1-0.438-0.213-0.653-0.341zM7.276 16.705c0.015-0.251 0.036-0.5 0.062-0.749 0.232 0.087 0.467 0.162 0.702 0.226-0.034 0.252-0.064 0.506-0.092 0.762-0.227-0.067-0.451-0.146-0.672-0.239zM8.102 16.987c0.030-0.256 0.063-0.51 0.099-0.763 0.237 0.059 0.476 0.108 0.717 0.147-0.042 0.252-0.085 0.505-0.125 0.759-0.233-0.035-0.463-0.082-0.691-0.143zM8.952 17.153c0.043-0.254 0.086-0.506 0.131-0.757 0.242 0.034 0.486 0.058 0.732 0.072-0.050 0.244-0.101 0.491-0.154 0.738-0.238-0.006-0.474-0.023-0.708-0.053zM9.823 17.207c0.054-0.246 0.108-0.489 0.159-0.732 0.247 0.010 0.495 0.011 0.745 0.002-0.056 0.231-0.116 0.463-0.179 0.697-0.244 0.022-0.486 0.033-0.725 0.033zM10.714 17.158c0.065-0.231 0.126-0.459 0.183-0.688 0.251-0.013 0.503-0.034 0.757-0.064-0.061 0.212-0.128 0.425-0.2 0.639-0.248 0.048-0.496 0.085-0.741 0.112zM11.624 17.012c0.073-0.209 0.141-0.418 0.203-0.626 0.254-0.033 0.51-0.075 0.768-0.124-0.065 0.188-0.136 0.376-0.216 0.565-0.253 0.071-0.505 0.134-0.754 0.186zM13.318 16.524c-0.257 0.093-0.513 0.178-0.767 0.253 0.081-0.183 0.154-0.366 0.219-0.548 0.258-0.052 0.517-0.112 0.777-0.178-0.067 0.158-0.143 0.316-0.229 0.474zM13.591 15.942c-0.26 0.060-0.52 0.115-0.778 0.162 0.062-0.183 0.115-0.366 0.162-0.549 0.258-0.025 0.517-0.056 0.777-0.092-0.044 0.161-0.097 0.32-0.16 0.479zM13.779 15.353c-0.258 0.031-0.517 0.056-0.774 0.077 0.043-0.184 0.078-0.368 0.105-0.553 0.254-0.001 0.507-0.004 0.762-0.012-0.021 0.165-0.052 0.327-0.092 0.488zM13.885 14.752c-0.253 0.003-0.506 0.002-0.757-0.002 0.024-0.186 0.040-0.373 0.050-0.56 0.244 0.022 0.488 0.043 0.732 0.062 0.001 0.169-0.007 0.335-0.024 0.5zM13.908 14.138c-0.241-0.023-0.483-0.048-0.725-0.075 0.006-0.188 0.004-0.378-0.005-0.569 0.23 0.043 0.459 0.086 0.689 0.128 0.023 0.175 0.036 0.346 0.041 0.516zM13.85 13.503c-0.226-0.047-0.452-0.094-0.679-0.141-0.013-0.192-0.032-0.386-0.059-0.582 0.211 0.061 0.421 0.124 0.631 0.188 0.044 0.181 0.080 0.36 0.107 0.535zM13.712 12.844c-0.206-0.067-0.412-0.134-0.618-0.198-0.030-0.197-0.067-0.397-0.111-0.599 0.187 0.077 0.373 0.157 0.559 0.239 0.065 0.189 0.122 0.375 0.171 0.558zM13.495 12.157c-0.181-0.085-0.362-0.168-0.544-0.247-0.047-0.203-0.101-0.41-0.162-0.617 0.159 0.090 0.316 0.184 0.473 0.282 0.086 0.198 0.164 0.393 0.233 0.583zM13.202 11.437c-0.151-0.1-0.303-0.196-0.456-0.288-0.064-0.21-0.135-0.423-0.212-0.639 0.125 0.099 0.25 0.204 0.373 0.315 0.106 0.207 0.204 0.411 0.294 0.611z"></path>
</svg>
