<?xml version="1.0" encoding="utf-8"?>
<!-- Generated by IcoMoon.io -->
<!DOCTYPE svg PUBLIC "-//W3C//DTD SVG 1.1//EN" "http://www.w3.org/Graphics/SVG/1.1/DTD/svg11.dtd">
<svg version="1.1" xmlns="http://www.w3.org/2000/svg" xmlns:xlink="http://www.w3.org/1999/xlink" width="20" height="20" viewBox="0 0 20 20">
<path fill="rgb(37, 183, 211)" d="M0.309 10c0-5.352 4.339-9.691 9.69-9.691s9.691 4.338 9.691 9.691c0 5.352-4.339 9.691-9.691 9.691s-9.69-4.339-9.69-9.691z"></path>
<path fill="rgb(239, 239, 239)" d="M15.201 7.471c0 2.579-2.328 4.669-5.201 4.669s-5.201-2.090-5.201-4.669c0-2.579 10.401-2.579 10.401 0z"></path>
<path fill="rgb(226, 226, 224)" d="M14.828 7.203c0 0.844-2.161 1.528-4.828 1.528s-4.828-0.684-4.828-1.528c0-0.844 2.161-1.528 4.828-1.528s4.828 0.684 4.828 1.528z"></path>
<path fill="rgb(239, 239, 239)" d="M13.102 17.142c0 0.542-1.389 0.982-3.102 0.982s-3.102-0.439-3.102-0.982c0-0.542 1.389-0.982 3.102-0.982s3.102 0.439 3.102 0.982z"></path>
<path fill="rgb(239, 239, 239)" d="M10.331 10.7c0-0.183-0.148-0.331-0.331-0.331v0c-0.183 0-0.331 0.148-0.331 0.331v6.201c0 0.183 0.148 0.331 0.331 0.331v0c0.183 0 0.331-0.148 0.331-0.331v-6.201z"></path>
<path fill="rgb(224, 185, 128)" d="M5.261 3.703c-0.142-0.166-0.056-0.472 0.192-0.684v0c0.248-0.212 0.564-0.249 0.705-0.083l4.274 5.005c0.142 0.166 0.055 0.472-0.192 0.684v0c-0.248 0.212-0.564 0.249-0.705 0.083l-4.274-5.005z"></path>
<path fill="rgb(193, 153, 99)" d="M7.694 4.735l-0.155-0.181c-0.119 0.349-0.315 0.787-0.616 1.096l0.089 0.104c0.259-0.123 0.591-0.401 0.682-1.019z"></path>
<path fill="rgb(193, 153, 99)" d="M6.331 3.138l-0.128-0.15c-0.102 0.334-0.283 0.797-0.576 1.143l0.116 0.136c0.259-0.161 0.545-0.484 0.588-1.129z"></path>
<path fill="rgb(193, 153, 99)" d="M6.783 3.667l-0.143-0.167c-0.111 0.343-0.3 0.792-0.597 1.119l0.102 0.12c0.261-0.141 0.569-0.441 0.637-1.071z"></path>
<path fill="rgb(193, 153, 99)" d="M7.244 4.208l-0.141-0.166c-0.11 0.342-0.298 0.793-0.595 1.121l0.103 0.121c0.261-0.143 0.567-0.445 0.633-1.077z"></path>
<path fill="rgb(229, 212, 110)" d="M12.366 6.028c0 1.292-1.058 2.339-2.364 2.339s-2.364-1.047-2.364-2.339c0-1.292 1.058-2.339 2.364-2.339s2.364 1.047 2.364 2.339z"></path>
<path fill="rgb(221, 191, 40)" d="M10.179 4.506c0.227 0 0.446-0.029 0.534-0.059s0.146-0.059 0.168-0.132c0.022-0.073-0.015-0.095-0.146-0.095s-0.453 0.073-0.453 0.073c-0.5-0.006-1.097-0.261-1.321-0.366-0.106 0.052-0.208 0.111-0.305 0.178 0.134 0.033 0.368 0.104 0.58 0.181 0.263 0.095 0.717 0.219 0.944 0.219z"></path>
<path fill="rgb(221, 191, 40)" d="M10.296 5.061c0.044 0.059-0.029 0.11-0.051 0.139s-0.080 0.073-0.044 0.132c0.037 0.059 0.059 0.154 0.168 0.132s0.161-0.080 0.168-0.183 0.015-0.132 0.080-0.161c0.066-0.029 0.117-0.022 0.241-0.044s0.439-0.037 0.512-0.081-0.007-0.073 0.271-0.095c0.166-0.013 0.303-0.050 0.386-0.077-0.033-0.054-0.069-0.107-0.106-0.158-0.177 0.026-0.876 0.13-1.187 0.162-0.358 0.037-0.483 0.176-0.439 0.234z"></path>
<path fill="rgb(221, 191, 40)" d="M9.146 5.632c0.168 0.11 0.385 0.093 0.611 0.274 0.272 0.219 0.338 0 0.294-0.137-0.020-0.063-0.251-0.199-0.302-0.221s-0.384-0.223-0.421-0.274c-0.037-0.051-0.227-0.269-0.271-0.327s-0.444-0.199-0.495-0.229c-0.028-0.016-0.243-0.072-0.432-0.119-0.050 0.064-0.097 0.131-0.14 0.2 0.117 0.074 0.318 0.194 0.514 0.27 0.3 0.117 0.474 0.453 0.642 0.563z"></path>
<path fill="rgb(175, 155, 119)" d="M10.243 7.783c0 1.398-1.133 2.531-2.531 2.531s-2.531-1.133-2.531-2.531c0-1.398 1.133-2.531 2.531-2.531s2.531 1.133 2.531 2.531z"></path>
<path fill="rgb(147, 128, 97)" d="M6.418 7.006c0.18-0.082 0.51-0.151 0.795-0.16s0.681-0.233 0.821-0.296c0.14-0.063 0.891 0.21 0.791-0.009 0 0-0.457-0.371-1.080-0.257 0 0-0.437 0.134-0.973 0.281 0 0-0.897 0.31-1.361 0.17-0.034 0.074-0.064 0.149-0.090 0.226 0.077 0.004 0.146 0.011 0.195 0.022 0.214 0.047 0.723 0.106 0.903 0.024z"></path>
<path fill="rgb(147, 128, 97)" d="M8.65 7.621c-0.552-0.064-0.841 0.010-0.841 0.010-0.633-0.019-1.029 0.416-1.029 0.416-0.066 0.232 0.635-0.151 0.783-0.11s0.411 0.062 0.694 0.028c0.283-0.034 0.735-0.021 0.925 0.033s0.684-0.081 0.889-0.16c0.046-0.018 0.107-0.033 0.173-0.046 0-0.086-0.004-0.172-0.012-0.258-0.028 0.010-0.046 0.017-0.046 0.017-0.412 0.248-1.535 0.068-1.535 0.068z"></path>
<path fill="rgb(232, 174, 151)" d="M14.816 7.769c0 1.331-1.079 2.41-2.41 2.41s-2.41-1.079-2.41-2.41c0-1.331 1.079-2.41 2.41-2.41s2.41 1.079 2.41 2.41z"></path>
<path fill="rgb(219, 102, 62)" d="M10.223 7.431c0 0 0.263-0.527 0.878-0.68 0 0 0.453-0.058 1.002-0.146 0 0 1.020-0.095 1.349-0.446 0 0 0.418-0.322 0.506-0.234l0.060 0.052 0.135 0.132c0 0-0.558 0.226-0.734 0.357s-0.614 0.395-0.812 0.395-0.527 0.073-0.79 0.183c-0.263 0.11-0.717 0.069-0.87 0.069s-0.724 0.559-0.724 0.318z"></path>
<path fill="rgb(219, 102, 62)" d="M13.996 7.665c0 0-0.492-0.324-1.1-0.149 0 0-0.299-0-0.818 0.199 0 0-1.044 0.452-1.505 0.314 0 0-0.523-0.063-0.555 0.057 0 0 0.015 0.125 0.048 0.26 0 0 0.472-0.093 0.69-0.068s0.73 0.034 0.9-0.065c0.171-0.099 0.606-0.224 0.888-0.261s0.532-0.122 0.665-0.199c0.133-0.077 0.907 0.121 0.786-0.088z"></path>
<path fill="rgba(239, 239, 239, 0.8500000238418579)" d="M15.176 7.259c-0.114-0.054-0.23-0.1-0.353-0.126 0.003 0.023 0.005 0.046 0.005 0.070 0 0.844-2.161 1.528-4.828 1.528s-4.828-0.684-4.828-1.528c0-0.020 0.002-0.040 0.004-0.061-0.123 0.027-0.24 0.073-0.355 0.126-0.015 0.066-0.022 0.133-0.022 0.202 0 2.579 2.328 4.669 5.201 4.669s5.201-2.090 5.201-4.669c0-0.073-0.009-0.143-0.025-0.212z"></path>
</svg>
