<?xml version="1.0" encoding="utf-8"?>
<!-- Generated by IcoMoon.io -->
<!DOCTYPE svg PUBLIC "-//W3C//DTD SVG 1.1//EN" "http://www.w3.org/Graphics/SVG/1.1/DTD/svg11.dtd">
<svg version="1.1" xmlns="http://www.w3.org/2000/svg" xmlns:xlink="http://www.w3.org/1999/xlink" width="20" height="20" viewBox="0 0 20 20">
<path fill="rgb(41, 193, 131)" d="M19.691 10c0-5.352-4.339-9.691-9.69-9.691s-9.691 4.338-9.691 9.691c0 5.352 4.339 9.69 9.691 9.69s9.69-4.339 9.69-9.69z"></path>
<path fill="rgb(234, 220, 162)" d="M10.825 14.681c0 0.132-0.169 0.361-0.825 0.361s-0.825-0.23-0.825-0.361v0c0-0.132 0.086-0.239 0.193-0.239h1.264c0.107 0 0.193 0.107 0.193 0.239v0z"></path>
<path fill="rgb(237, 130, 58)" d="M14.226 10.63c0 2.285-1.892 4.136-4.226 4.136s-4.226-1.852-4.226-4.136c0-2.285 1.892-4.136 4.226-4.136s4.226 1.852 4.226 4.136z"></path>
<path fill="rgb(237, 130, 58)" d="M10.649 4.98c-0.075 0-0.007 0.342-0.098 0.342s-0.11-0.358-0.224-0.358c-0.114 0-0.101 0.42-0.17 0.42s-0.018-0.428-0.129-0.428c-0.111 0-0.129 0.427-0.185 0.427-0.096 0-0.046-0.422-0.133-0.422-0.075 0-0.162 0.361-0.264 0.361s-0.018-0.342-0.095-0.342-0.101 0.049-0.139 0.131c-0.174 0.376-0.070 1.449-0.912 1.73h3.4c-0.763-0.265-0.665-1.301-0.886-1.702-0.055-0.099-0.090-0.159-0.165-0.159z"></path>
<path fill="rgb(216, 109, 37)" d="M10.805 5.215c0.037 0.272 0.067 0.547 0.14 0.809 0.037 0.13 0.085 0.257 0.15 0.372s0.146 0.218 0.24 0.304c0.094 0.086 0.201 0.155 0.313 0.21 0.115 0.053 0.232 0.113 0.343 0.178 0.225 0.13 0.439 0.285 0.634 0.465s0.374 0.383 0.528 0.608c0.154 0.225 0.283 0.469 0.386 0.726 0.208 0.515 0.303 1.077 0.315 1.636 0.013 0.56-0.078 1.125-0.267 1.646-0.191 0.521-0.477 0.999-0.839 1.394-0.181 0.198-0.379 0.376-0.591 0.53s-0.439 0.284-0.675 0.387c-0.472 0.204-0.98 0.306-1.484 0.287 0.126-0.004 0.251-0.015 0.375-0.033s0.248-0.040 0.37-0.070c0.244-0.060 0.482-0.147 0.71-0.258 0.456-0.22 0.869-0.54 1.211-0.932 0.341-0.393 0.614-0.856 0.791-1.361 0.18-0.504 0.264-1.046 0.251-1.587-0.004-0.271-0.029-0.541-0.077-0.806s-0.12-0.525-0.216-0.773c-0.191-0.497-0.487-0.946-0.859-1.304-0.186-0.179-0.389-0.337-0.605-0.473-0.109-0.068-0.218-0.129-0.333-0.188-0.115-0.062-0.225-0.138-0.321-0.233s-0.178-0.205-0.241-0.327c-0.064-0.122-0.109-0.253-0.142-0.387-0.067-0.269-0.083-0.545-0.109-0.819z"></path>
<path fill="rgb(216, 109, 37)" d="M10.123 14.907c0.033-0.093 0.063-0.188 0.091-0.283s0.055-0.19 0.081-0.286c0.051-0.192 0.097-0.384 0.138-0.578 0.084-0.388 0.149-0.78 0.2-1.173 0.049-0.394 0.086-0.79 0.103-1.187 0.019-0.397 0.023-0.794 0.008-1.191-0.027-0.794-0.123-1.584-0.257-2.367-0.034-0.196-0.071-0.391-0.11-0.586-0.040-0.194-0.081-0.392-0.107-0.59-0.028-0.199-0.049-0.398-0.062-0.598s-0.019-0.4-0.013-0.6c0.020 0.399 0.069 0.796 0.141 1.185 0.019 0.097 0.038 0.194 0.060 0.291s0.046 0.192 0.070 0.289 0.090 0.389 0.13 0.584c0.16 0.783 0.264 1.581 0.295 2.385 0.014 0.402 0.008 0.805-0.015 1.206-0.026 0.401-0.066 0.801-0.129 1.197-0.061 0.396-0.143 0.788-0.244 1.174-0.104 0.384-0.221 0.766-0.38 1.127z"></path>
<path fill="rgb(216, 109, 37)" d="M10.295 14.907c0.288-0.298 0.527-0.647 0.728-1.017 0.202-0.369 0.364-0.764 0.487-1.171 0.121-0.408 0.206-0.829 0.248-1.255 0.045-0.426 0.053-0.857 0.024-1.284-0.027-0.427-0.099-0.85-0.215-1.258-0.114-0.41-0.278-0.801-0.459-1.184-0.090-0.192-0.186-0.382-0.277-0.575s-0.179-0.391-0.246-0.598c-0.136-0.412-0.195-0.857-0.151-1.289-0.005 0.217 0.010 0.434 0.046 0.645s0.095 0.418 0.171 0.615c0.075 0.199 0.166 0.388 0.264 0.576s0.197 0.376 0.294 0.566c0.195 0.38 0.367 0.779 0.491 1.197s0.199 0.854 0.23 1.292c0.029 0.439 0.017 0.878-0.031 1.314-0.052 0.435-0.141 0.866-0.278 1.278-0.135 0.413-0.315 0.808-0.534 1.173-0.111 0.182-0.232 0.356-0.363 0.52s-0.271 0.32-0.427 0.454z"></path>
<path fill="rgb(216, 109, 37)" d="M10.455 14.907c0.345-0.273 0.666-0.581 0.959-0.916 0.294-0.334 0.561-0.696 0.786-1.086 0.223-0.391 0.406-0.81 0.515-1.252 0.055-0.221 0.094-0.446 0.112-0.673s0.015-0.457-0.001-0.685c-0.030-0.457-0.129-0.907-0.304-1.322-0.086-0.208-0.191-0.407-0.309-0.597s-0.249-0.371-0.385-0.548c-0.137-0.177-0.28-0.348-0.421-0.524-0.071-0.088-0.141-0.176-0.209-0.267s-0.136-0.182-0.196-0.281c-0.241-0.394-0.383-0.849-0.45-1.309 0.050 0.227 0.113 0.45 0.196 0.663s0.187 0.416 0.313 0.6c0.062 0.092 0.131 0.179 0.201 0.266s0.143 0.171 0.216 0.256c0.146 0.169 0.294 0.338 0.437 0.513 0.287 0.348 0.548 0.732 0.734 1.164s0.291 0.902 0.324 1.374c0.008 0.118 0.012 0.237 0.012 0.355s-0.005 0.238-0.015 0.357c-0.021 0.237-0.061 0.472-0.121 0.7-0.122 0.456-0.313 0.887-0.553 1.279-0.239 0.393-0.522 0.75-0.832 1.073-0.156 0.161-0.318 0.314-0.486 0.458s-0.342 0.281-0.524 0.402z"></path>
<path fill="rgb(216, 109, 37)" d="M9.195 5.215c-0.037 0.272-0.067 0.547-0.14 0.809-0.037 0.13-0.085 0.257-0.15 0.372s-0.146 0.218-0.24 0.304c-0.094 0.086-0.201 0.155-0.313 0.21-0.115 0.053-0.232 0.113-0.343 0.178-0.225 0.13-0.439 0.285-0.634 0.465s-0.374 0.383-0.528 0.608c-0.154 0.225-0.283 0.469-0.386 0.726-0.208 0.515-0.303 1.077-0.315 1.636-0.013 0.56 0.078 1.125 0.267 1.646 0.191 0.521 0.477 0.999 0.839 1.394 0.181 0.198 0.379 0.376 0.591 0.53s0.439 0.284 0.675 0.387c0.472 0.204 0.98 0.306 1.484 0.287-0.126-0.004-0.251-0.015-0.375-0.033s-0.248-0.040-0.37-0.070c-0.244-0.060-0.482-0.147-0.71-0.258-0.456-0.22-0.869-0.54-1.211-0.932-0.341-0.393-0.614-0.856-0.791-1.361-0.18-0.504-0.264-1.046-0.251-1.587 0.004-0.271 0.029-0.541 0.077-0.806s0.12-0.525 0.216-0.773c0.191-0.497 0.487-0.946 0.859-1.304 0.186-0.179 0.389-0.337 0.605-0.473 0.109-0.068 0.218-0.129 0.333-0.188 0.115-0.062 0.225-0.138 0.321-0.233s0.178-0.205 0.241-0.327c0.064-0.122 0.109-0.253 0.142-0.387 0.067-0.269 0.083-0.545 0.109-0.819z"></path>
<path fill="rgb(216, 109, 37)" d="M9.877 14.907c-0.033-0.093-0.063-0.188-0.091-0.283s-0.055-0.19-0.081-0.286c-0.051-0.192-0.097-0.384-0.138-0.578-0.084-0.388-0.149-0.78-0.2-1.173-0.049-0.394-0.086-0.79-0.103-1.187-0.019-0.397-0.023-0.794-0.008-1.191 0.027-0.794 0.123-1.584 0.257-2.367 0.034-0.196 0.071-0.391 0.11-0.586 0.040-0.194 0.081-0.392 0.107-0.59 0.028-0.199 0.049-0.398 0.062-0.598s0.019-0.4 0.013-0.6c-0.020 0.399-0.069 0.796-0.141 1.185-0.019 0.097-0.038 0.194-0.060 0.291s-0.046 0.192-0.070 0.289-0.090 0.389-0.13 0.584c-0.16 0.783-0.264 1.581-0.295 2.385-0.014 0.402-0.008 0.805 0.015 1.206 0.026 0.401 0.066 0.801 0.129 1.197 0.061 0.396 0.143 0.788 0.244 1.174 0.104 0.384 0.221 0.766 0.38 1.127z"></path>
<path fill="rgb(216, 109, 37)" d="M9.705 14.907c-0.288-0.298-0.527-0.647-0.728-1.017-0.202-0.369-0.364-0.764-0.487-1.171-0.121-0.408-0.206-0.829-0.248-1.255-0.045-0.426-0.053-0.857-0.024-1.284 0.027-0.427 0.099-0.85 0.215-1.258 0.114-0.41 0.278-0.801 0.459-1.184 0.090-0.192 0.186-0.382 0.277-0.575s0.179-0.391 0.246-0.598c0.136-0.412 0.195-0.857 0.151-1.289 0.005 0.217-0.010 0.434-0.046 0.645s-0.095 0.418-0.171 0.615c-0.075 0.199-0.166 0.388-0.264 0.576s-0.197 0.376-0.294 0.566c-0.195 0.38-0.367 0.779-0.491 1.197s-0.199 0.854-0.23 1.292c-0.029 0.439-0.017 0.878 0.031 1.314 0.052 0.435 0.141 0.866 0.278 1.278 0.135 0.413 0.315 0.808 0.534 1.173 0.111 0.182 0.232 0.356 0.363 0.52s0.271 0.32 0.427 0.454z"></path>
<path fill="rgb(216, 109, 37)" d="M9.545 14.907c-0.345-0.273-0.666-0.581-0.959-0.916-0.294-0.334-0.561-0.696-0.786-1.086-0.223-0.391-0.406-0.81-0.515-1.252-0.055-0.221-0.094-0.446-0.112-0.673s-0.015-0.457 0.001-0.685c0.030-0.457 0.129-0.907 0.304-1.322 0.086-0.208 0.191-0.407 0.309-0.597s0.249-0.371 0.385-0.548c0.137-0.177 0.28-0.348 0.421-0.524 0.070-0.088 0.141-0.176 0.209-0.267s0.136-0.182 0.196-0.281c0.241-0.394 0.383-0.849 0.45-1.309-0.050 0.227-0.114 0.45-0.196 0.663s-0.187 0.416-0.313 0.6c-0.062 0.092-0.131 0.179-0.201 0.266s-0.143 0.171-0.216 0.256c-0.146 0.169-0.294 0.338-0.437 0.513-0.287 0.348-0.548 0.732-0.734 1.164s-0.291 0.902-0.324 1.374c-0.008 0.118-0.012 0.237-0.012 0.355s0.005 0.238 0.015 0.357c0.021 0.237 0.061 0.472 0.121 0.7 0.122 0.456 0.313 0.887 0.553 1.279 0.239 0.393 0.522 0.75 0.832 1.073 0.156 0.161 0.318 0.314 0.486 0.458s0.342 0.281 0.524 0.402z"></path>
</svg>
