<?xml version="1.0" encoding="utf-8"?>
<!-- Generator: Adobe Illustrator 16.0.0, SVG Export Plug-In . SVG Version: 6.00 Build 0)  -->
<!DOCTYPE svg PUBLIC "-//W3C//DTD SVG 1.1//EN" "http://www.w3.org/Graphics/SVG/1.1/DTD/svg11.dtd">
<svg version="1.1" id="Layer_1" xmlns="http://www.w3.org/2000/svg" xmlns:xlink="http://www.w3.org/1999/xlink" x="0px" y="0px"
	 width="20px" height="20px" viewBox="0 0 20 20" enable-background="new 0 0 20 20" xml:space="preserve">
<g>
	<path fill="#337180" d="M19.69,10.001c0-5.353-4.339-9.691-9.69-9.691S0.31,4.647,0.31,10.001c0,5.352,4.339,9.689,9.691,9.689
		S19.69,15.353,19.69,10.001z"/>
	<path fill="#A6BF56" d="M15.554,10.006c0,2.872-2.328,5.201-5.201,5.201s-5.201-2.328-5.201-5.201c0-2.872,2.328-5.201,5.201-5.201
		S15.554,7.133,15.554,10.006z"/>
	<path fill="#AFCC56" d="M10.345,4.801c0,0-5.387-0.314-1.822,3.546c0.429,0.51,1.407,1.332,2.35,2.234
		c1.151,1.104,2.701-2.316,2.131-2.417C11.675,7.928,11.067,7.498,10.345,4.801L10.345,4.801z"/>
	<path fill="#D4EA8F" d="M8.617,6c0.261,0.19,0.585,1.306,0.837,1.529C9.31,7.223,9.025,6.046,8.784,5.806
		C8.701,5.724,8.695,5.264,8.659,4.941C8.555,4.967,8.452,4.995,8.353,5.027C8.441,5.356,8.482,5.9,8.617,6z"/>
	<path fill="#98AA4D" d="M10.338,4.801c0,0,5.387-0.314,1.823,3.546c-0.43,0.51,0.678,1.332-0.264,2.234
		c-1.151,1.104-1.131-1.898-1.515-2.586C9.689,6.754,9.169,5.696,10.338,4.801z"/>
	<path fill="#AFBC64" d="M11.335,5.368c0.09,0.169-0.252,0.651-0.202,0.837c0.048,0.186,0.473,0.528,0.491,0.722
		c0.033,0.384,0.345,1.039,0.266,1.419s-0.118,0.717-0.301,1.057c-0.182,0.34-0.713,0.62-0.985,0.887
		c0.188-0.332,0.661-0.631,0.802-0.975c0.139-0.343,0.154-0.663,0.229-1.021c0.075-0.359-0.22-0.989-0.216-1.358
		c0.004-0.185-0.397-0.522-0.411-0.709C10.993,6.04,11.37,5.555,11.335,5.368z"/>
	<path fill="#98AA4D" d="M7.484,5.663c0,0-4.153,1.875-0.647,5.562c0.954,1.135,2.908,2.336,4.507,2.336
		c0.425,0,0.838-0.052,1.232-0.147c0.432-0.104,0.842-0.263,1.223-0.468c0,0,0.914-3.59-1.318-3.826
		C9.43,8.795,8.517,9.514,7.484,5.663L7.484,5.663z"/>
	<path fill="#AFCC56" d="M12.777,6.19c0.325-0.476,0.655-0.426,0.957-0.223c0.993,0.668,2.808,2.43,0.119,5.26
		c-0.954,1.133-2.908,2.334-4.506,2.334c-0.425,0-0.838-0.051-1.233-0.146c-0.431-0.105-0.841-0.264-1.222-0.469
		c0,0-0.71-3.092,1.484-3.562c2.028-0.434,3.05-0.223,3.818-1.228C12.386,7.907,12.288,6.911,12.777,6.19L12.777,6.19z"/>
	<path fill="#CEE279" d="M13.696,6.714C13.837,6.845,13.952,7,14.058,7.159c0.105,0.16,0.373,0.312,0.452,0.488
		c0.157,0.354,0.298,0.741,0.346,1.126c0.048,0.386,0.12,0.718,0.058,1.098s-0.474,0.817-0.646,1.157
		c0.069-0.375,0.421-0.812,0.442-1.181c0.023-0.369-0.066-0.678-0.111-1.041s-0.164-0.734-0.279-1.085
		c-0.057-0.176-0.3-0.331-0.374-0.502C13.872,7.049,13.79,6.88,13.696,6.714L13.696,6.714z"/>
	<path fill="#CEE279" d="M12.282,8.769c0.162,0.104,0.303,0.234,0.438,0.37c0.133,0.138,0.425,0.238,0.534,0.397
		c0.22,0.317,0.432,0.673,0.55,1.042c0.118,0.368,0.251,0.682,0.26,1.067c0.009,0.385-0.313,0.891-0.42,1.256
		c-0.001-0.381,0.265-0.875,0.217-1.241c-0.046-0.367-0.192-0.653-0.304-1.003c-0.112-0.351-0.297-0.691-0.475-1.015
		c-0.09-0.162-0.356-0.269-0.461-0.424c-0.104-0.155-0.215-0.305-0.338-0.45H12.282z"/>
	<path fill="#CEE279" d="M9.584,10.035c0.191-0.014,0.383,0.008,0.572,0.037c0.189,0.032,0.483-0.061,0.667,0.003
		c0.364,0.125,0.745,0.285,1.061,0.512c0.314,0.227,0.607,0.398,0.843,0.704s0.276,0.903,0.408,1.261
		c-0.228-0.306-0.308-0.859-0.563-1.128c-0.255-0.269-0.541-0.412-0.84-0.626c-0.298-0.214-0.648-0.379-0.983-0.534
		c-0.168-0.078-0.446-0.005-0.623-0.068C9.95,10.133,9.771,10.079,9.584,10.035L9.584,10.035z"/>
	<path fill="#98AA4D" d="M15.272,8.314c-0.361,0.084-1.26,0.788-1.455,1.644c-0.22,0.968-1.984,1.639-2.846,1.896
		c-2.078,0.619-1.443,3.287-1.443,3.287c0.269,0.043,0.544,0.065,0.825,0.065c0.29,0,0.574-0.024,0.851-0.07
		c1.244-0.204,2.342-0.852,3.121-1.774c1.074-1.074,1.289-2.582,1.289-2.582C18.017,8.658,15.271,8.313,15.272,8.314L15.272,8.314z"
		/>
	<path fill="#889347" d="M16.567,9.109c0.025,0.154,0.01,0.313-0.023,0.468c-0.031,0.153-0.086,0.304-0.15,0.447
		c-0.134,0.287-0.398,0.496-0.613,0.728c-0.214,0.233-0.38,0.49-0.634,0.675c-0.767,0.545-2.815,0.301-2.239,0.09
		s1.56,0.043,2.1-0.291c0.252-0.166,0.41-0.408,0.629-0.615c0.216-0.209,0.38-0.263,0.533-0.522
		c0.117-0.115,0.137-0.388,0.188-0.531c0.026-0.071,0.165-0.145,0.181-0.219C16.555,9.264,16.566,9.187,16.567,9.109z"/>
	<path fill="#AFCC56" d="M5.434,8.314c0,0-3.191,1.498,0.013,3.433c0,0,0.293,0.973,0.925,1.604
		c0.954,1.135,2.384,1.855,3.982,1.855c0.425,0,0.838-0.051,1.233-0.146c0.431-0.105,0.841-0.264,1.222-0.469
		c0,0,0.71-3.092-1.483-3.562C8.324,10.386,6.467,12.165,5.434,8.314L5.434,8.314z"/>
	<path fill="#D4EA8F" d="M8.449,13.245c0.039,0.267,0.335,1.331,0.464,1.57C8.955,14.894,9,14.968,9.049,15.041
		c0.125,0.032,0.252,0.06,0.38,0.083c-0.121-0.133-0.236-0.271-0.344-0.417C8.931,14.501,8.588,13.476,8.449,13.245z"/>
	<path fill="#D4EA8F" d="M10.917,12.758c0.043,0.267,0,1.229,0.132,1.468c0.067,0.121-0.181,0.838-0.097,0.946
		c0.1-0.011,0.197-0.026,0.295-0.043c-0.123-0.132,0.084-0.871-0.027-1.017c-0.157-0.203-0.159-1.129-0.303-1.356V12.758z"/>
	<path fill="#AFBC64" d="M5.801,9.292c0.002-0.124,0.012-0.245,0.03-0.365c0.035-0.24,0.335-0.564,0.424-0.788
		c0.089-0.224,0.238-0.247,0.367-0.457C6.75,7.471,7.118,6.966,7.265,6.753C7.043,6.887,6.625,7.362,6.457,7.561
		S6.111,7.795,6.014,8.042C5.915,8.288,5.625,8.646,5.627,8.913c0,0.012,0.001,0.022,0.001,0.033
		c0.055,0.157,0.113,0.302,0.172,0.435C5.801,9.351,5.801,9.32,5.801,9.292L5.801,9.292z"/>
	<path fill="#AFBC64" d="M6.841,10.601c0.035-0.24-0.04-0.507,0.049-0.729c0.089-0.224-0.022-0.536,0.107-0.746
		c0.129-0.211,0.669-0.744,0.816-0.957C7.592,8.302,7,8.806,6.832,9.005s-0.085,0.522-0.183,0.77
		c-0.089,0.224-0.002,0.497-0.01,0.737c0.064,0.046,0.13,0.087,0.197,0.124c0.002-0.011,0.003-0.023,0.004-0.033L6.841,10.601z"/>
	<path fill="#AFBC64" d="M14.351,13.05c0.087-0.172,0.182-0.341,0.275-0.523c-0.174,0.109-0.32,0.254-0.446,0.412
		c-0.126,0.16-0.229,0.338-0.31,0.526c-0.068,0.162-0.119,0.331-0.149,0.504c0.126-0.106,0.247-0.22,0.362-0.339
		c0.01-0.021,0.018-0.042,0.025-0.062C14.183,13.392,14.264,13.222,14.351,13.05L14.351,13.05z"/>
	<path fill="#A3BC55" d="M4.527,11.051c0.055,0.058,0.112,0.111,0.172,0.162c0.06,0.052,0.12,0.103,0.182,0.149
		c0.124,0.095,0.252,0.111,0.385,0.191c0.264,0.165,0.543,0.374,0.83,0.487c0.287,0.11,0.582,0.046,0.882,0.11
		c0.302,0.063,0.608,0.258,0.917,0.279c0.294,0.02,0.589-0.131,0.885-0.144c0.323-0.015,0.647,0.106,0.97,0.06
		c0.618-0.089,1.23-0.229,1.845-0.388c-0.571,0.276-1.177,0.485-1.803,0.62c-0.312,0.068-0.63-0.034-0.951-0.008
		c-0.321,0.025-0.644,0.182-0.966,0.16c-0.312-0.022-0.624-0.221-0.929-0.295c-0.325-0.078-0.642-0.037-0.943-0.181
		c-0.293-0.138-0.569-0.383-0.821-0.582c-0.125-0.101-0.245-0.135-0.356-0.251c-0.111-0.115-0.214-0.238-0.298-0.374L4.527,11.051z"
		/>
</g>
</svg>
