<?xml version="1.0" encoding="utf-8"?>
<!-- Generator: Adobe Illustrator 16.0.0, SVG Export Plug-In . SVG Version: 6.00 Build 0)  -->
<!DOCTYPE svg PUBLIC "-//W3C//DTD SVG 1.1//EN" "http://www.w3.org/Graphics/SVG/1.1/DTD/svg11.dtd">
<svg version="1.1" id="Layer_1" xmlns="http://www.w3.org/2000/svg" xmlns:xlink="http://www.w3.org/1999/xlink" x="0px" y="0px"
	 width="20px" height="20px" viewBox="0 0 20 20" enable-background="new 0 0 20 20" xml:space="preserve">
<g>
	<path fill="#4ABC96" d="M19.69,10c0-5.352-4.338-9.691-9.689-9.691S0.31,4.647,0.31,10c0,5.352,4.339,9.69,9.691,9.69
		C15.353,19.69,19.69,15.352,19.69,10z"/>
	<path fill="#EADDCE" d="M9.792,16.441c-0.035,0.077-0.062,0.155-0.082,0.234c-0.021,0.078-0.03,0.156-0.03,0.24
		c-0.006,0.09-0.028,0.174-0.062,0.254c-0.035,0.078-0.079,0.152-0.138,0.213c0.031-0.078,0.06-0.156,0.082-0.234
		c0.023-0.078,0.039-0.159,0.043-0.236c0.002-0.041,0.004-0.089,0.014-0.131c0.009-0.042,0.02-0.086,0.036-0.126
		C9.687,16.574,9.731,16.5,9.792,16.441L9.792,16.441z"/>
	<path fill="#EADDCE" d="M9.649,16.396c-0.046,0.071-0.084,0.144-0.114,0.219c-0.031,0.076-0.053,0.15-0.064,0.233
		c-0.019,0.088-0.053,0.169-0.099,0.242c-0.046,0.072-0.101,0.139-0.167,0.19c0.042-0.073,0.081-0.146,0.114-0.22
		c0.034-0.074,0.062-0.15,0.076-0.227c0.008-0.041,0.018-0.086,0.032-0.127s0.032-0.082,0.055-0.119
		C9.525,16.513,9.582,16.445,9.649,16.396L9.649,16.396z"/>
	<path fill="#EADDCE" d="M9.595,16.34c-0.057,0.062-0.107,0.127-0.151,0.195C9.4,16.604,9.366,16.672,9.34,16.752
		c-0.034,0.082-0.082,0.155-0.139,0.22c-0.058,0.063-0.123,0.118-0.197,0.157C9.059,17.064,9.109,17,9.155,16.934
		c0.047-0.067,0.087-0.137,0.115-0.209c0.016-0.038,0.032-0.081,0.054-0.119c0.021-0.038,0.046-0.074,0.073-0.107
		c0.057-0.064,0.122-0.121,0.198-0.156L9.595,16.34z"/>
	<path fill="#EADDCE" d="M9.941,16.469c-0.021,0.084-0.033,0.164-0.041,0.246c-0.007,0.08-0.003,0.16,0.012,0.242
		c0.009,0.09,0.002,0.178-0.019,0.262c-0.02,0.084-0.052,0.164-0.099,0.236c0.018-0.084,0.032-0.166,0.041-0.248
		s0.011-0.162,0.002-0.24c-0.005-0.041-0.011-0.088-0.009-0.131s0.005-0.088,0.015-0.131C9.861,16.621,9.893,16.539,9.941,16.469
		L9.941,16.469z"/>
	<path fill="#EADDCE" d="M10.097,16.477c-0.006,0.085-0.005,0.168,0.003,0.249c0.005,0.04,0.01,0.08,0.021,0.118
		c0.005,0.02,0.009,0.039,0.015,0.059s0.012,0.037,0.019,0.059c0.025,0.086,0.034,0.174,0.028,0.261
		c-0.006,0.086-0.021,0.172-0.055,0.251c0.002-0.085,0.002-0.168-0.004-0.25s-0.019-0.162-0.041-0.237
		c-0.005-0.019-0.014-0.04-0.019-0.062c-0.005-0.021-0.011-0.043-0.014-0.064c-0.006-0.044-0.01-0.087-0.008-0.131
		C10.045,16.642,10.061,16.555,10.097,16.477L10.097,16.477z"/>
	<path fill="#EADDCE" d="M10.236,16.457c0.008,0.086,0.021,0.166,0.041,0.246c0.012,0.038,0.022,0.077,0.038,0.113
		c0.009,0.018,0.016,0.037,0.024,0.055c0.009,0.019,0.018,0.034,0.028,0.055c0.037,0.08,0.06,0.166,0.067,0.254
		c0.008,0.087,0.005,0.173-0.016,0.256c-0.011-0.085-0.024-0.167-0.042-0.246c-0.019-0.079-0.042-0.157-0.077-0.229
		c-0.008-0.017-0.02-0.037-0.027-0.057s-0.017-0.041-0.023-0.062c-0.014-0.041-0.024-0.084-0.029-0.127
		C10.21,16.629,10.213,16.539,10.236,16.457z"/>
	<path fill="#EADDCE" d="M10.396,16.426c0.017,0.084,0.038,0.164,0.067,0.24c0.015,0.037,0.03,0.074,0.05,0.109
		c0.009,0.018,0.02,0.035,0.029,0.053c0.01,0.016,0.021,0.031,0.034,0.051c0.046,0.076,0.076,0.158,0.094,0.244
		c0.018,0.084,0.023,0.172,0.012,0.256c-0.02-0.082-0.041-0.162-0.068-0.239s-0.06-0.151-0.102-0.218
		c-0.01-0.017-0.023-0.035-0.033-0.055c-0.01-0.019-0.021-0.037-0.029-0.059c-0.018-0.04-0.032-0.082-0.042-0.124
		c-0.021-0.085-0.026-0.173-0.012-0.257V16.426z"/>
	<path fill="#EADDCE" d="M10.538,16.388c0.025,0.081,0.058,0.157,0.096,0.228c0.02,0.035,0.039,0.07,0.062,0.102
		c0.013,0.017,0.023,0.033,0.035,0.048c0.013,0.015,0.025,0.028,0.041,0.047c0.055,0.069,0.096,0.147,0.123,0.229
		c0.026,0.082,0.043,0.166,0.043,0.252c-0.03-0.08-0.062-0.155-0.098-0.229c-0.035-0.073-0.076-0.143-0.127-0.202
		c-0.011-0.015-0.027-0.032-0.04-0.049s-0.026-0.035-0.037-0.054c-0.022-0.038-0.042-0.077-0.057-0.118
		C10.55,16.561,10.531,16.474,10.538,16.388L10.538,16.388z"/>
	<path fill="#EADDCE" d="M10.657,16.301c0.029,0.08,0.064,0.154,0.105,0.224c0.021,0.034,0.043,0.067,0.067,0.099
		c0.012,0.017,0.024,0.031,0.037,0.047c0.013,0.015,0.026,0.027,0.042,0.045c0.058,0.065,0.102,0.142,0.133,0.223
		s0.051,0.165,0.054,0.251c-0.032-0.078-0.067-0.153-0.106-0.224c-0.039-0.071-0.084-0.14-0.137-0.196
		c-0.012-0.015-0.027-0.03-0.041-0.047c-0.015-0.017-0.027-0.034-0.039-0.052c-0.024-0.037-0.047-0.074-0.062-0.115
		c-0.034-0.08-0.055-0.165-0.055-0.251L10.657,16.301z"/>
	<path fill="#E5C9A3" d="M9.874,16.385c-0.024,0.076-0.04,0.152-0.05,0.229c-0.011,0.076-0.011,0.149-0.002,0.227
		c0.006,0.086-0.006,0.168-0.028,0.244c-0.023,0.078-0.057,0.152-0.104,0.217c0.021-0.077,0.037-0.153,0.05-0.229
		c0.014-0.075,0.019-0.151,0.014-0.226c-0.003-0.038-0.006-0.082-0.003-0.123s0.009-0.082,0.02-0.122
		C9.791,16.521,9.824,16.446,9.874,16.385L9.874,16.385z"/>
	<path fill="#E5C9A3" d="M9.77,16.365c-0.039,0.069-0.07,0.139-0.097,0.211s-0.042,0.145-0.049,0.221
		c-0.014,0.084-0.041,0.162-0.081,0.232c-0.04,0.071-0.087,0.135-0.147,0.188c0.036-0.071,0.069-0.142,0.098-0.213
		c0.027-0.07,0.05-0.145,0.06-0.217c0.006-0.037,0.012-0.082,0.024-0.119c0.012-0.039,0.025-0.078,0.045-0.114
		C9.659,16.481,9.708,16.416,9.77,16.365z"/>
	<path fill="#E5C9A3" d="M9.672,16.295c-0.049,0.062-0.092,0.125-0.128,0.191s-0.063,0.135-0.082,0.211
		c-0.026,0.08-0.065,0.152-0.115,0.217c-0.05,0.063-0.107,0.118-0.174,0.16c0.047-0.064,0.09-0.128,0.128-0.193
		c0.038-0.066,0.071-0.135,0.093-0.205c0.011-0.035,0.024-0.078,0.041-0.114c0.018-0.036,0.038-0.073,0.062-0.104
		C9.545,16.392,9.603,16.334,9.672,16.295L9.672,16.295z"/>
	<path fill="#E5C9A3" d="M10.004,16.431c-0.009,0.079-0.01,0.157-0.005,0.233c0.005,0.077,0.019,0.149,0.042,0.224
		c0.021,0.081,0.025,0.165,0.018,0.245c-0.008,0.082-0.027,0.16-0.061,0.233c0.005-0.079,0.008-0.157,0.005-0.235
		c-0.003-0.076-0.011-0.152-0.03-0.224c-0.01-0.036-0.021-0.079-0.026-0.12c-0.005-0.039-0.007-0.082-0.003-0.123
		C9.949,16.582,9.968,16.502,10.004,16.431L10.004,16.431z"/>
	<path fill="#E5C9A3" d="M10.156,16.431c0.002,0.079,0.01,0.157,0.023,0.233c0.008,0.036,0.016,0.073,0.028,0.109
		c0.006,0.018,0.012,0.036,0.019,0.053c0.007,0.018,0.015,0.033,0.023,0.055c0.029,0.078,0.046,0.16,0.047,0.24
		c0.001,0.082-0.007,0.164-0.031,0.239c-0.005-0.08-0.012-0.157-0.023-0.233c-0.013-0.076-0.03-0.15-0.059-0.22
		c-0.006-0.016-0.015-0.036-0.021-0.056c-0.008-0.02-0.015-0.039-0.019-0.059c-0.009-0.041-0.017-0.082-0.019-0.123
		C10.12,16.588,10.128,16.506,10.156,16.431L10.156,16.431z"/>
	<path fill="#E5C9A3" d="M10.3,16.414c0.014,0.078,0.034,0.153,0.06,0.226c0.015,0.036,0.028,0.071,0.045,0.104
		c0.01,0.016,0.018,0.032,0.027,0.049c0.01,0.016,0.021,0.03,0.031,0.049c0.042,0.072,0.07,0.149,0.085,0.23
		s0.019,0.162,0.007,0.241c-0.017-0.078-0.037-0.153-0.06-0.228c-0.023-0.072-0.054-0.143-0.092-0.207
		c-0.009-0.015-0.021-0.032-0.029-0.051c-0.01-0.018-0.021-0.037-0.027-0.056c-0.016-0.038-0.029-0.077-0.038-0.117
		c-0.017-0.08-0.021-0.163-0.007-0.241H10.3z"/>
	<path fill="#E5C9A3" d="M10.453,16.39c0.02,0.077,0.045,0.151,0.075,0.22c0.017,0.034,0.033,0.068,0.054,0.1
		c0.01,0.017,0.019,0.032,0.03,0.047c0.011,0.016,0.021,0.029,0.033,0.047c0.047,0.068,0.082,0.144,0.103,0.223
		s0.03,0.16,0.024,0.24c-0.022-0.077-0.047-0.151-0.076-0.223c-0.029-0.07-0.063-0.139-0.107-0.197
		c-0.01-0.014-0.023-0.032-0.034-0.049c-0.011-0.018-0.021-0.035-0.031-0.053c-0.018-0.037-0.035-0.076-0.046-0.115
		C10.455,16.551,10.443,16.469,10.453,16.39L10.453,16.39z"/>
	<path fill="#E5C9A3" d="M10.596,16.352c0.027,0.074,0.06,0.145,0.099,0.211c0.02,0.031,0.039,0.064,0.062,0.094
		c0.012,0.016,0.023,0.029,0.035,0.043s0.025,0.026,0.039,0.042c0.054,0.063,0.095,0.136,0.124,0.212
		c0.028,0.075,0.047,0.155,0.049,0.235c-0.03-0.074-0.063-0.144-0.099-0.212c-0.036-0.068-0.077-0.131-0.127-0.186
		c-0.01-0.014-0.025-0.029-0.039-0.045c-0.012-0.017-0.025-0.033-0.036-0.05c-0.022-0.034-0.042-0.071-0.058-0.108
		C10.614,16.514,10.594,16.433,10.596,16.352z"/>
	<path fill="#E8E7E2" d="M10.717,16.436c0,0-0.173,0.225-0.632,0.225s-0.631-0.225-0.631-0.225v-5.582h1.262L10.717,16.436
		L10.717,16.436z"/>
	<path fill="#B4D85D" d="M10.717,12.518l-1.262-0.805v-0.859h1.262V12.518z"/>
	<path fill="#6D822C" d="M9.577,3.521H8.314l1.14,7.333h1.262L9.577,3.521z"/>
	<path fill="#718C30" d="M11.687,3.193h-1.262l-0.97,7.66h1.262L11.687,3.193z"/>
	<path fill="#6E822F" d="M13.381,3.88h-1.262l-2.665,6.974h1.262L13.381,3.88z"/>
	<path fill="#718C30" d="M6.789,3.88h1.262l2.665,6.974H9.454L6.789,3.88z"/>
</g>
</svg>
