<?xml version="1.0" encoding="utf-8"?>
<!-- Generated by IcoMoon.io -->
<!DOCTYPE svg PUBLIC "-//W3C//DTD SVG 1.1//EN" "http://www.w3.org/Graphics/SVG/1.1/DTD/svg11.dtd">
<svg version="1.1" xmlns="http://www.w3.org/2000/svg" xmlns:xlink="http://www.w3.org/1999/xlink" width="20" height="20" viewBox="0 0 20 20">
<path fill="rgb(250, 188, 61)" d="M0.309 10c0-5.352 4.339-9.691 9.691-9.691s9.691 4.338 9.691 9.691c0 5.352-4.339 9.69-9.691 9.69s-9.691-4.339-9.691-9.69z"></path>
<path fill="rgb(145, 91, 37)" d="M6.041 13.354c-0.028 0.294 0.174 0.549 0.451 0.569l3.899 0.373 3.901 0.215c0.278 0.020 0.526-0.201 0.554-0.496l0.396-6.732c0 0 0.571-0.354 0.302-1.853-0.103-0.575-0.749-1.322-1.981-1.288-1.395-0.060-2.316 0.527-2.316 0.527s-0.972-0.553-2.162-0.641c-1.189-0.088-1.73-0.036-2.184 1.279s0.045 1.665 0.045 1.665l-0.906 6.382z"></path>
<path fill="rgb(226, 199, 141)" d="M6.445 13.001c-0.026 0.27 0.16 0.503 0.414 0.522l3.57 0.363 3.577 0.175c0.255 0.019 0.482-0.185 0.508-0.455l0.375-6.29c0 0 0.51-0.203 0.264-1.577-0.094-0.527-0.686-1.211-1.815-1.18-1.279-0.055-2.122 0.483-2.122 0.483s-0.891-0.507-1.981-0.587c-1.090-0.081-1.585-0.033-2.002 1.172s0.139 1.343 0.139 1.343l-0.927 6.031z"></path>
<path fill="rgb(145, 91, 37)" d="M6.907 16.835c0.098 0.279 0.388 0.426 0.648 0.328l3.698-1.292 3.633-1.436c0.261-0.097 0.394-0.403 0.296-0.683l-2.456-6.281c0 0 0.371-0.56-0.5-1.81-0.334-0.478-1.233-0.888-2.338-0.341-1.293 0.529-1.884 1.447-1.884 1.447s-1.114-0.096-2.231 0.322c-1.118 0.417-1.586 0.691-1.449 2.075s0.737 1.494 0.737 1.494l1.846 6.176z"></path>
<path fill="rgb(226, 199, 141)" d="M7.046 16.523c0.093 0.264 0.367 0.403 0.614 0.311l3.51-1.202 3.434-1.382c0.248-0.092 0.373-0.382 0.28-0.646l-2.367-6.069c0 0 0.391-0.411-0.434-1.595-0.316-0.454-1.168-0.841-2.214-0.323-1.224 0.501-1.784 1.371-1.784 1.371s-1.055-0.091-2.114 0.305c-1.058 0.395-1.503 0.654-1.373 1.966s0.711 1.201 0.711 1.201l1.736 6.064z"></path>
<path fill="rgba(145, 91, 37, 0.5)" d="M7.066 8.934c0 0.172-0.139 0.312-0.312 0.312s-0.312-0.14-0.312-0.312c0-0.172 0.14-0.312 0.312-0.312s0.312 0.14 0.312 0.312z"></path>
<path fill="rgba(145, 91, 37, 0.5)" d="M8.938 10.382c0 0.211-0.171 0.382-0.382 0.382s-0.383-0.171-0.383-0.382c0-0.211 0.171-0.383 0.383-0.383s0.382 0.171 0.382 0.383z"></path>
<path fill="rgba(145, 91, 37, 0.5)" d="M12.144 10.996c0 0.304-0.247 0.551-0.551 0.551s-0.551-0.247-0.551-0.551c0-0.304 0.247-0.551 0.551-0.551s0.551 0.247 0.551 0.551z"></path>
<path fill="rgba(145, 91, 37, 0.5)" d="M10.866 7.558c0 0.162-0.131 0.293-0.293 0.293s-0.293-0.131-0.293-0.293c0-0.162 0.131-0.293 0.293-0.293s0.293 0.131 0.293 0.293z"></path>
<path fill="rgba(145, 91, 37, 0.5)" d="M8.848 14.062c0 0.162-0.131 0.293-0.293 0.293s-0.293-0.131-0.293-0.293c0-0.162 0.131-0.293 0.293-0.293s0.293 0.131 0.293 0.293z"></path>
<path fill="rgba(145, 91, 37, 0.5)" d="M12.944 13.865c0 0.111-0.090 0.201-0.201 0.201s-0.201-0.090-0.201-0.201c0-0.111 0.090-0.201 0.201-0.201s0.201 0.090 0.201 0.201z"></path>
</svg>
