<?xml version="1.0" encoding="utf-8"?>
<!-- Generated by IcoMoon.io -->
<!DOCTYPE svg PUBLIC "-//W3C//DTD SVG 1.1//EN" "http://www.w3.org/Graphics/SVG/1.1/DTD/svg11.dtd">
<svg version="1.1" xmlns="http://www.w3.org/2000/svg" xmlns:xlink="http://www.w3.org/1999/xlink" width="20" height="20" viewBox="0 0 20 20">
<path fill="rgb(53, 113, 128)" d="M19.691 10c0 5.352-4.339 9.691-9.691 9.691s-9.691-4.339-9.691-9.691c0-5.352 4.338-9.691 9.691-9.691s9.691 4.339 9.691 9.691z"></path>
<path fill="rgb(149, 189, 61)" d="M9.028 7.363c0 0-0.15-0.258-0.39-0.628-0.239-0.371-0.571-0.858-0.933-1.323-0.179-0.233-0.367-0.46-0.552-0.665-0.089-0.105-0.186-0.199-0.273-0.29-0.085-0.092-0.178-0.17-0.258-0.245-0.078-0.077-0.161-0.137-0.231-0.193s-0.131-0.103-0.187-0.135c-0.109-0.069-0.17-0.108-0.17-0.108s0.057 0.046 0.158 0.124c0.051 0.037 0.109 0.089 0.171 0.152s0.138 0.127 0.208 0.212c0.072 0.082 0.154 0.166 0.229 0.266 0.078 0.098 0.162 0.198 0.24 0.31 0.161 0.219 0.324 0.458 0.476 0.705 0.309 0.49 0.587 0.999 0.784 1.386 0.199 0.387 0.318 0.647 0.318 0.647l0.408-0.214z"></path>
<path fill="rgb(149, 189, 61)" d="M8.988 7.308c0 0-0.043-0.037-0.117-0.1-0.074-0.062-0.182-0.148-0.313-0.246-0.132-0.096-0.287-0.208-0.46-0.315-0.171-0.111-0.361-0.217-0.554-0.318-0.099-0.046-0.195-0.095-0.293-0.138-0.099-0.039-0.193-0.085-0.291-0.116-0.096-0.031-0.186-0.069-0.277-0.090-0.090-0.023-0.173-0.050-0.253-0.064s-0.152-0.027-0.216-0.039c-0.064-0.011-0.122-0.011-0.168-0.017-0.093-0.007-0.146-0.012-0.146-0.012s0.052 0.012 0.143 0.031c0.045 0.012 0.1 0.019 0.162 0.039s0.13 0.042 0.206 0.066c0.075 0.025 0.152 0.062 0.236 0.096 0.084 0.032 0.167 0.081 0.254 0.123 0.089 0.043 0.174 0.099 0.263 0.149 0.088 0.053 0.174 0.114 0.262 0.17 0.17 0.121 0.336 0.247 0.485 0.374 0.15 0.124 0.283 0.25 0.394 0.357 0.111 0.109 0.201 0.202 0.261 0.268 0.059 0.066 0.092 0.104 0.092 0.104l0.329-0.323z"></path>
<path fill="rgb(149, 189, 61)" d="M8.876 7.245c0 0-0.289-0.053-0.719-0.116-0.431-0.065-1.007-0.138-1.585-0.188-0.289-0.025-0.579-0.042-0.851-0.051-0.136-0.007-0.268-0.005-0.392-0.007-0.125-0.003-0.243 0.006-0.351 0.007s-0.208 0.014-0.296 0.020c-0.088 0.006-0.165 0.014-0.227 0.026-0.125 0.019-0.196 0.030-0.196 0.030s0.072-0.003 0.198-0.010c0.063-0.005 0.139-0.006 0.227-0.004s0.186 0 0.294 0.010c0.108 0.009 0.224 0.012 0.347 0.028 0.123 0.014 0.252 0.024 0.385 0.045 0.267 0.036 0.55 0.081 0.832 0.135 0.565 0.105 1.124 0.234 1.541 0.34 0.418 0.105 0.691 0.184 0.691 0.184l0.104-0.449z"></path>
<path fill="rgb(149, 189, 61)" d="M8.977 7.297c0 0-0.037-0.027-0.101-0.073-0.067-0.049-0.163-0.111-0.277-0.184-0.057-0.038-0.121-0.073-0.188-0.112s-0.136-0.082-0.211-0.12c-0.15-0.075-0.304-0.166-0.471-0.234-0.081-0.036-0.163-0.072-0.243-0.108-0.078-0.038-0.162-0.063-0.24-0.093-0.158-0.054-0.299-0.117-0.43-0.146-0.255-0.070-0.425-0.116-0.425-0.116s0.16 0.074 0.399 0.183c0.121 0.049 0.251 0.134 0.394 0.211 0.070 0.041 0.146 0.078 0.216 0.127 0.071 0.047 0.144 0.095 0.216 0.143 0.147 0.090 0.28 0.202 0.411 0.297 0.064 0.048 0.123 0.1 0.18 0.147 0.057 0.047 0.111 0.090 0.158 0.134 0.096 0.086 0.173 0.158 0.223 0.209l0.082 0.082 0.306-0.345z"></path>
<path fill="rgb(149, 189, 61)" d="M8.93 7.265c0 0-0.25-0.115-0.625-0.268-0.376-0.154-0.882-0.346-1.396-0.512-0.128-0.043-0.258-0.080-0.385-0.119-0.127-0.040-0.255-0.070-0.377-0.104-0.245-0.063-0.477-0.112-0.677-0.145-0.099-0.019-0.192-0.026-0.273-0.038s-0.153-0.016-0.212-0.019c-0.117-0.006-0.185-0.010-0.185-0.010s0.067 0.011 0.182 0.030c0.058 0.008 0.127 0.020 0.207 0.041s0.169 0.037 0.265 0.067c0.192 0.055 0.415 0.127 0.649 0.214 0.116 0.047 0.238 0.089 0.358 0.142 0.121 0.051 0.244 0.101 0.365 0.157 0.487 0.217 0.962 0.458 1.312 0.649 0.353 0.19 0.578 0.324 0.578 0.324l0.213-0.409z"></path>
<path fill="rgb(149, 189, 61)" d="M8.882 7.247c0 0-0.348-0.073-0.868-0.184-0.521-0.107-1.215-0.248-1.914-0.372-0.348-0.066-0.699-0.121-1.026-0.175-0.327-0.058-0.637-0.090-0.9-0.127-0.131-0.018-0.253-0.033-0.361-0.039-0.107-0.008-0.202-0.015-0.279-0.021-0.154-0.012-0.242-0.018-0.242-0.018s0.087 0.013 0.241 0.038c0.076 0.012 0.169 0.026 0.275 0.043 0.106 0.014 0.226 0.039 0.355 0.068 0.259 0.058 0.562 0.115 0.882 0.199 0.321 0.080 0.664 0.163 1.004 0.257 0.683 0.18 1.362 0.375 1.87 0.524 0.508 0.151 0.845 0.252 0.845 0.252l0.117-0.446z"></path>
<path fill="rgb(149, 189, 61)" d="M9.008 7.332c0 0-0.046-0.054-0.126-0.147-0.080-0.092-0.197-0.221-0.341-0.372-0.143-0.151-0.315-0.322-0.504-0.501-0.191-0.176-0.397-0.361-0.616-0.532-0.108-0.087-0.218-0.171-0.332-0.248-0.109-0.081-0.223-0.152-0.334-0.221-0.108-0.072-0.223-0.126-0.328-0.182-0.103-0.060-0.213-0.093-0.307-0.135-0.094-0.043-0.191-0.059-0.271-0.084-0.040-0.011-0.078-0.020-0.113-0.030-0.036-0.004-0.070-0.008-0.1-0.011-0.119-0.012-0.187-0.019-0.187-0.019s0.067 0.014 0.183 0.039c0.029 0.006 0.061 0.013 0.096 0.020 0.033 0.013 0.070 0.027 0.109 0.041 0.076 0.032 0.166 0.056 0.254 0.109 0.088 0.051 0.189 0.093 0.283 0.162 0.096 0.065 0.2 0.128 0.298 0.209 0.1 0.077 0.203 0.157 0.302 0.247 0.101 0.087 0.199 0.179 0.294 0.274 0.194 0.187 0.375 0.387 0.542 0.578 0.165 0.192 0.314 0.375 0.436 0.536s0.222 0.296 0.29 0.392c0.066 0.095 0.104 0.15 0.104 0.15l0.369-0.276z"></path>
<path fill="rgb(149, 189, 61)" d="M8.843 7.24c0 0-1.439-0.064-2.876-0.023-0.359 0.011-0.718 0.026-1.055 0.051-0.336 0.024-0.649 0.054-0.916 0.094-0.134 0.019-0.256 0.037-0.363 0.061-0.107 0.024-0.201 0.036-0.277 0.061-0.15 0.044-0.236 0.069-0.236 0.069s0.088-0.018 0.241-0.050c0.075-0.019 0.171-0.024 0.279-0.039s0.229-0.024 0.363-0.031c0.267-0.019 0.579-0.024 0.913-0.021 0.334 0.002 0.691 0.016 1.047 0.034 0.713 0.037 1.424 0.1 1.956 0.154 0.533 0.054 0.885 0.098 0.885 0.098l0.039-0.46z"></path>
<path fill="rgb(149, 189, 61)" d="M8.924 7.263c0 0-0.271-0.117-0.677-0.267-0.204-0.076-0.443-0.16-0.701-0.245-0.259-0.083-0.536-0.169-0.816-0.241-0.279-0.076-0.563-0.139-0.83-0.186-0.133-0.027-0.264-0.041-0.387-0.058-0.123-0.020-0.242-0.022-0.35-0.030-0.108-0.012-0.208-0.004-0.296-0.004-0.088-0.001-0.165 0.003-0.227 0.014-0.125 0.016-0.196 0.025-0.196 0.025s0.072-0.001 0.197-0.005c0.063-0.005 0.138-0.002 0.225 0.008 0.087 0.009 0.185 0.011 0.29 0.033 0.105 0.020 0.22 0.033 0.339 0.065 0.119 0.029 0.245 0.055 0.373 0.095 0.257 0.072 0.527 0.162 0.793 0.264 0.267 0.098 0.529 0.209 0.774 0.315 0.244 0.109 0.47 0.214 0.661 0.308 0.384 0.189 0.629 0.324 0.629 0.324l0.201-0.414z"></path>
<path fill="rgb(149, 189, 61)" d="M8.995 7.316c0 0-0.050-0.048-0.137-0.133-0.088-0.083-0.213-0.198-0.369-0.331-0.309-0.268-0.736-0.607-1.199-0.894-0.231-0.144-0.471-0.275-0.706-0.377-0.117-0.051-0.232-0.097-0.344-0.132-0.111-0.036-0.218-0.065-0.319-0.084-0.1-0.022-0.193-0.032-0.276-0.037s-0.154-0.004-0.213 0.001c-0.059 0-0.104 0.013-0.135 0.016-0.032 0.005-0.048 0.007-0.048 0.007s0.016-0.001 0.048-0.002c0.032 0.001 0.077-0.007 0.136-0.001 0.058 0.002 0.129 0.008 0.208 0.022s0.169 0.033 0.262 0.064c0.095 0.028 0.195 0.067 0.298 0.114 0.104 0.046 0.209 0.101 0.317 0.162 0.214 0.122 0.432 0.273 0.639 0.436 0.416 0.325 0.793 0.697 1.063 0.986 0.135 0.144 0.243 0.268 0.318 0.355 0.072 0.086 0.113 0.136 0.113 0.136l0.343-0.308z"></path>
<path fill="rgb(149, 189, 61)" d="M8.829 7.24c0 0-0.299 0.006-0.739 0.036-0.44 0.029-1.026 0.084-1.609 0.174-0.291 0.043-0.581 0.098-0.85 0.161-0.134 0.027-0.263 0.066-0.385 0.098-0.123 0.030-0.235 0.073-0.34 0.107-0.106 0.032-0.198 0.076-0.28 0.109-0.084 0.033-0.154 0.065-0.209 0.098-0.113 0.061-0.176 0.096-0.176 0.096s0.067-0.028 0.185-0.078c0.057-0.027 0.13-0.053 0.216-0.077 0.085-0.025 0.178-0.058 0.286-0.080 0.106-0.023 0.219-0.054 0.343-0.072 0.123-0.020 0.252-0.045 0.388-0.059 0.268-0.035 0.558-0.061 0.848-0.075 0.578-0.032 1.158-0.029 1.592-0.014 0.435 0.013 0.72 0.035 0.72 0.035l0.011-0.461z"></path>
<path fill="rgb(149, 189, 61)" d="M8.866 7.243c0 0-0.050-0.007-0.137-0.018-0.089-0.013-0.216-0.036-0.368-0.067-0.152-0.033-0.33-0.073-0.517-0.128-0.188-0.052-0.385-0.12-0.581-0.194-0.095-0.041-0.193-0.079-0.286-0.122-0.092-0.047-0.186-0.086-0.271-0.135-0.084-0.050-0.171-0.091-0.244-0.143-0.074-0.051-0.148-0.094-0.21-0.143-0.062-0.049-0.119-0.094-0.17-0.134-0.050-0.040-0.088-0.083-0.122-0.114-0.067-0.064-0.106-0.101-0.106-0.101s0.034 0.042 0.091 0.115c0.030 0.035 0.063 0.083 0.107 0.13s0.097 0.1 0.152 0.158c0.057 0.058 0.125 0.113 0.194 0.174 0.068 0.064 0.15 0.118 0.23 0.18s0.17 0.116 0.258 0.177c0.090 0.057 0.184 0.11 0.278 0.166 0.191 0.104 0.384 0.202 0.571 0.283 0.187 0.084 0.365 0.15 0.519 0.206 0.154 0.055 0.285 0.096 0.378 0.123 0.095 0.026 0.149 0.041 0.149 0.041l0.084-0.453z"></path>
<path fill="rgb(149, 189, 61)" d="M8.982 7.301c0 0-0.217-0.183-0.538-0.471-0.32-0.287-0.739-0.68-1.141-1.090-0.202-0.205-0.397-0.415-0.576-0.616-0.091-0.099-0.172-0.201-0.252-0.294-0.081-0.093-0.149-0.188-0.216-0.273-0.068-0.084-0.121-0.167-0.172-0.238s-0.093-0.135-0.124-0.19c-0.065-0.108-0.102-0.17-0.102-0.17s0.031 0.065 0.084 0.179c0.025 0.058 0.061 0.127 0.105 0.203s0.089 0.166 0.149 0.257c0.059 0.091 0.117 0.195 0.19 0.296 0.071 0.103 0.142 0.213 0.224 0.322 0.159 0.221 0.335 0.452 0.517 0.678 0.364 0.453 0.746 0.89 1.039 1.212 0.293 0.322 0.497 0.533 0.497 0.533l0.315-0.337z"></path>
<path fill="rgb(149, 189, 61)" d="M8.882 7.247c0 0-0.042-0.008-0.115-0.022-0.069-0.012-0.172-0.038-0.297-0.070-0.063-0.014-0.129-0.035-0.2-0.056-0.070-0.022-0.147-0.041-0.222-0.068-0.151-0.056-0.319-0.104-0.476-0.176-0.080-0.033-0.16-0.067-0.239-0.1-0.080-0.031-0.152-0.073-0.227-0.108-0.144-0.076-0.286-0.137-0.394-0.21-0.224-0.138-0.374-0.229-0.374-0.229s0.134 0.115 0.333 0.288c0.097 0.092 0.228 0.175 0.361 0.276 0.068 0.048 0.135 0.103 0.21 0.147 0.074 0.047 0.149 0.095 0.225 0.142 0.149 0.099 0.31 0.177 0.457 0.26 0.074 0.040 0.148 0.074 0.218 0.108s0.135 0.067 0.198 0.093c0.124 0.055 0.229 0.099 0.307 0.128 0.075 0.028 0.118 0.043 0.118 0.043l0.116-0.446z"></path>
<path fill="rgb(149, 189, 61)" d="M8.934 7.267c0 0-0.237-0.113-0.592-0.299-0.353-0.185-0.819-0.445-1.27-0.728-0.114-0.069-0.224-0.144-0.334-0.216-0.111-0.071-0.214-0.148-0.317-0.219-0.203-0.146-0.387-0.29-0.539-0.419-0.078-0.063-0.142-0.129-0.203-0.183s-0.11-0.106-0.149-0.149c-0.080-0.086-0.126-0.135-0.126-0.135s0.040 0.054 0.111 0.147c0.035 0.048 0.079 0.105 0.134 0.165s0.112 0.134 0.184 0.206c0.14 0.147 0.309 0.312 0.498 0.481 0.096 0.082 0.192 0.172 0.296 0.255 0.102 0.084 0.206 0.172 0.313 0.254 0.425 0.335 0.866 0.648 1.203 0.874 0.336 0.226 0.57 0.369 0.57 0.369l0.221-0.404z"></path>
<path fill="rgb(149, 189, 61)" d="M8.976 7.297c0 0-0.272-0.225-0.68-0.561-0.406-0.339-0.948-0.794-1.477-1.261-0.268-0.23-0.528-0.469-0.774-0.691-0.248-0.219-0.464-0.439-0.657-0.621-0.097-0.091-0.183-0.176-0.254-0.257-0.073-0.078-0.137-0.148-0.189-0.204-0.105-0.114-0.165-0.179-0.165-0.179s0.054 0.070 0.15 0.191c0.048 0.061 0.106 0.135 0.173 0.219 0.065 0.087 0.144 0.18 0.233 0.278 0.178 0.198 0.377 0.437 0.607 0.676 0.228 0.242 0.469 0.503 0.717 0.755 0.492 0.511 0.996 1.009 1.376 1.382 0.382 0.371 0.636 0.618 0.636 0.618l0.305-0.345z"></path>
<path fill="rgb(149, 189, 61)" d="M8.836 7.24c0 0-0.066-0.001-0.182-0.003-0.117-0.003-0.286-0.009-0.487-0.022s-0.437-0.034-0.688-0.064c-0.251-0.033-0.518-0.071-0.782-0.128-0.132-0.026-0.264-0.056-0.392-0.093-0.13-0.030-0.253-0.071-0.373-0.112-0.121-0.036-0.232-0.087-0.34-0.13-0.11-0.040-0.201-0.1-0.292-0.146-0.093-0.043-0.164-0.105-0.232-0.15-0.034-0.024-0.066-0.046-0.095-0.067-0.026-0.025-0.049-0.047-0.071-0.068-0.086-0.083-0.135-0.131-0.135-0.131s0.044 0.053 0.121 0.145c0.019 0.023 0.041 0.049 0.064 0.077 0.027 0.024 0.057 0.050 0.088 0.078 0.065 0.053 0.131 0.124 0.221 0.177 0.087 0.056 0.176 0.129 0.282 0.18 0.105 0.056 0.214 0.121 0.334 0.171 0.118 0.055 0.241 0.11 0.37 0.155 0.127 0.051 0.258 0.095 0.39 0.137 0.264 0.086 0.533 0.155 0.785 0.215 0.253 0.057 0.492 0.105 0.697 0.14 0.205 0.036 0.377 0.060 0.499 0.076 0.122 0.015 0.192 0.023 0.192 0.023l0.024-0.46z"></path>
<path fill="rgb(149, 189, 61)" d="M9.004 7.326c0 0-0.232-0.268-0.574-0.68s-0.79-0.967-1.218-1.538c-0.213-0.286-0.424-0.574-0.612-0.851s-0.359-0.538-0.492-0.77c-0.068-0.115-0.129-0.221-0.176-0.319-0.048-0.098-0.098-0.179-0.124-0.253-0.059-0.145-0.093-0.227-0.093-0.227s0.027 0.085 0.074 0.234c0.021 0.076 0.063 0.162 0.103 0.264s0.093 0.214 0.151 0.335c0.115 0.244 0.264 0.521 0.432 0.813 0.167 0.293 0.354 0.6 0.545 0.904 0.767 1.216 1.622 2.375 1.622 2.375l0.36-0.288z"></path>
<path fill="rgb(149, 189, 61)" d="M8.94 7.27c0 0-0.249-0.127-0.62-0.342-0.185-0.106-0.398-0.234-0.624-0.376-0.224-0.144-0.463-0.3-0.694-0.466-0.233-0.165-0.457-0.339-0.661-0.512-0.105-0.083-0.196-0.174-0.287-0.256-0.093-0.081-0.167-0.169-0.242-0.245-0.077-0.075-0.134-0.155-0.189-0.222-0.057-0.067-0.101-0.128-0.133-0.182-0.067-0.106-0.106-0.167-0.106-0.167s0.033 0.065 0.089 0.177c0.026 0.058 0.064 0.124 0.114 0.197s0.099 0.159 0.169 0.243c0.068 0.084 0.135 0.182 0.22 0.273 0.083 0.093 0.168 0.194 0.265 0.289 0.188 0.197 0.398 0.396 0.617 0.586 0.216 0.192 0.442 0.374 0.655 0.543 0.214 0.167 0.417 0.319 0.595 0.446 0.351 0.254 0.599 0.413 0.599 0.413l0.232-0.398z"></path>
<path fill="rgb(149, 189, 61)" d="M8.856 7.241c0 0-0.064-0.006-0.177-0.018-0.114-0.013-0.277-0.034-0.472-0.066-0.39-0.063-0.909-0.168-1.411-0.332-0.251-0.082-0.497-0.178-0.718-0.288-0.11-0.055-0.216-0.112-0.312-0.172s-0.184-0.121-0.26-0.185c-0.078-0.060-0.144-0.124-0.199-0.182-0.057-0.058-0.101-0.113-0.135-0.161-0.037-0.045-0.056-0.087-0.074-0.113s-0.026-0.041-0.026-0.041 0.007 0.015 0.020 0.044c0.015 0.028 0.030 0.072 0.063 0.121 0.029 0.052 0.068 0.112 0.118 0.177s0.11 0.138 0.183 0.208c0.071 0.073 0.155 0.146 0.247 0.218s0.193 0.143 0.302 0.212c0.215 0.138 0.457 0.264 0.706 0.375 0.497 0.224 1.017 0.39 1.411 0.498 0.197 0.054 0.363 0.094 0.481 0.12 0.119 0.025 0.187 0.040 0.187 0.040l0.064-0.457z"></path>
<path fill="rgb(149, 189, 61)" d="M9.012 7.337c0 0-0.177-0.224-0.431-0.578-0.254-0.352-0.58-0.832-0.875-1.33-0.149-0.248-0.289-0.502-0.41-0.745-0.064-0.12-0.115-0.241-0.167-0.354-0.055-0.113-0.091-0.224-0.131-0.325-0.043-0.1-0.067-0.197-0.094-0.281s-0.047-0.159-0.056-0.222c-0.024-0.125-0.038-0.197-0.038-0.197s0.007 0.073 0.019 0.2c0.003 0.064 0.015 0.141 0.035 0.228 0.018 0.087 0.033 0.189 0.065 0.294s0.057 0.223 0.101 0.341c0.041 0.119 0.080 0.248 0.133 0.375 0.098 0.258 0.214 0.529 0.339 0.795 0.25 0.534 0.53 1.051 0.752 1.433 0.221 0.381 0.381 0.633 0.381 0.633l0.376-0.266z"></path>
<path fill="rgb(149, 189, 61)" d="M9.043 7.397c0 0-0.018-0.047-0.050-0.129-0.032-0.084-0.074-0.206-0.12-0.354-0.044-0.149-0.096-0.323-0.138-0.514-0.046-0.19-0.081-0.395-0.111-0.602-0.011-0.104-0.025-0.208-0.032-0.31-0.004-0.102-0.015-0.204-0.013-0.302 0.004-0.097-0.003-0.194 0.007-0.283 0.008-0.089 0.011-0.176 0.023-0.254s0.024-0.15 0.035-0.213c0.011-0.064 0.029-0.117 0.040-0.162 0.024-0.090 0.037-0.141 0.037-0.141s-0.020 0.049-0.056 0.135c-0.016 0.044-0.043 0.095-0.062 0.157s-0.041 0.133-0.064 0.21c-0.023 0.078-0.037 0.164-0.058 0.254-0.023 0.090-0.029 0.188-0.047 0.288-0.016 0.1-0.018 0.205-0.029 0.311-0.007 0.107-0.007 0.215-0.011 0.324 0.002 0.217 0.010 0.434 0.030 0.637 0.017 0.203 0.046 0.392 0.070 0.553 0.028 0.161 0.055 0.296 0.076 0.39 0.023 0.095 0.036 0.15 0.036 0.15l0.437-0.146z"></path>
<path fill="rgb(149, 189, 61)" d="M9.047 7.526c0 0 0.055-0.278 0.152-0.698 0.096-0.419 0.237-0.976 0.4-1.526 0.081-0.276 0.17-0.548 0.26-0.802 0.043-0.128 0.092-0.247 0.136-0.363 0.042-0.116 0.093-0.221 0.134-0.321s0.088-0.187 0.125-0.266c0.037-0.079 0.074-0.147 0.107-0.2 0.063-0.109 0.099-0.172 0.099-0.172s-0.042 0.059-0.116 0.161c-0.039 0.050-0.081 0.115-0.127 0.19s-0.102 0.159-0.152 0.255c-0.051 0.095-0.113 0.197-0.167 0.309-0.054 0.111-0.117 0.228-0.173 0.352-0.116 0.246-0.233 0.512-0.342 0.781-0.22 0.538-0.417 1.084-0.557 1.497-0.14 0.412-0.224 0.693-0.224 0.693l0.447 0.112z"></path>
<path fill="rgb(149, 189, 61)" d="M9.047 7.412c0 0-0.013-0.040-0.036-0.11-0.023-0.067-0.050-0.17-0.083-0.294-0.019-0.061-0.031-0.129-0.048-0.202-0.015-0.072-0.035-0.148-0.048-0.227-0.024-0.159-0.063-0.329-0.077-0.501-0.009-0.086-0.019-0.173-0.028-0.257-0.012-0.085-0.010-0.169-0.014-0.25-0.004-0.162-0.020-0.317-0.008-0.447 0.011-0.263 0.019-0.439 0.019-0.439s-0.036 0.172-0.090 0.431c-0.033 0.13-0.043 0.284-0.066 0.45-0.008 0.082-0.025 0.168-0.027 0.256-0.005 0.088-0.010 0.176-0.015 0.266-0.015 0.178-0.004 0.357-0.007 0.526 0.001 0.084 0.008 0.165 0.012 0.243 0.005 0.077 0.006 0.15 0.014 0.218 0.013 0.135 0.024 0.248 0.038 0.33 0.012 0.079 0.018 0.124 0.018 0.124l0.447-0.115z"></path>
<path fill="rgb(149, 189, 61)" d="M9.054 7.468c0 0-0.016-0.262-0.025-0.662s-0.007-0.932 0.022-1.464c0.006-0.134 0.017-0.266 0.027-0.397 0.008-0.131 0.026-0.259 0.038-0.384 0.029-0.248 0.065-0.478 0.105-0.675 0.017-0.099 0.044-0.186 0.062-0.266s0.039-0.147 0.058-0.203c0.036-0.111 0.056-0.176 0.056-0.176s-0.027 0.061-0.075 0.169c-0.025 0.054-0.054 0.119-0.080 0.197s-0.063 0.164-0.091 0.261c-0.061 0.193-0.123 0.421-0.179 0.668-0.025 0.124-0.057 0.252-0.079 0.383-0.024 0.131-0.050 0.264-0.071 0.397-0.087 0.534-0.146 1.071-0.181 1.476-0.034 0.403-0.046 0.678-0.046 0.678l0.461-0.003z"></path>
<path fill="rgb(149, 189, 61)" d="M9.049 7.519c0 0 0.065-0.346 0.161-0.867 0.099-0.52 0.234-1.213 0.386-1.903 0.071-0.345 0.155-0.689 0.23-1.011 0.071-0.324 0.159-0.619 0.226-0.876 0.033-0.129 0.065-0.246 0.101-0.346 0.034-0.102 0.063-0.192 0.088-0.264 0.048-0.147 0.076-0.231 0.076-0.231s-0.035 0.081-0.095 0.223c-0.030 0.072-0.066 0.158-0.109 0.258-0.045 0.099-0.086 0.213-0.129 0.339-0.087 0.251-0.2 0.541-0.297 0.859-0.101 0.315-0.213 0.652-0.313 0.993-0.208 0.678-0.4 1.36-0.542 1.873-0.139 0.513-0.232 0.856-0.232 0.856l0.45 0.1z"></path>
<path fill="rgb(149, 189, 61)" d="M9.031 7.369c0 0-0.031-0.059-0.086-0.161-0.055-0.104-0.13-0.254-0.216-0.437-0.087-0.182-0.182-0.399-0.278-0.632-0.093-0.235-0.189-0.487-0.268-0.746-0.041-0.129-0.079-0.258-0.109-0.387-0.035-0.128-0.059-0.257-0.083-0.381-0.028-0.124-0.036-0.246-0.050-0.361-0.019-0.116-0.010-0.224-0.015-0.326-0.007-0.102 0.013-0.193 0.018-0.275 0.004-0.042 0.009-0.080 0.013-0.115 0.009-0.035 0.018-0.067 0.026-0.095 0.031-0.115 0.049-0.181 0.049-0.181s-0.025 0.064-0.068 0.176c-0.011 0.028-0.023 0.059-0.036 0.094-0.007 0.035-0.016 0.074-0.025 0.115-0.014 0.083-0.044 0.175-0.048 0.278-0.007 0.103-0.027 0.216-0.020 0.335 0.002 0.119-0.003 0.246 0.012 0.375 0.010 0.129 0.021 0.264 0.043 0.398 0.017 0.136 0.042 0.272 0.070 0.408 0.053 0.273 0.124 0.541 0.193 0.792 0.073 0.249 0.147 0.481 0.216 0.677s0.13 0.359 0.175 0.473c0.047 0.114 0.074 0.18 0.074 0.18l0.414-0.202z"></path>
<path fill="rgb(149, 189, 61)" d="M9.037 7.557c0 0 0.121-0.333 0.316-0.832 0.195-0.497 0.463-1.16 0.755-1.811 0.147-0.325 0.297-0.649 0.447-0.947 0.15-0.299 0.297-0.575 0.434-0.803 0.068-0.116 0.13-0.221 0.194-0.309s0.11-0.172 0.162-0.23c0.098-0.122 0.154-0.191 0.154-0.191s-0.061 0.065-0.169 0.179c-0.057 0.055-0.111 0.134-0.181 0.218s-0.142 0.184-0.219 0.295c-0.157 0.219-0.327 0.484-0.502 0.772s-0.352 0.601-0.526 0.915c-0.692 1.26-1.291 2.57-1.291 2.57l0.427 0.175z"></path>
<path fill="rgb(149, 189, 61)" d="M9.054 7.474c0 0-0.009-0.28-0.001-0.708 0.003-0.213 0.012-0.462 0.027-0.728 0.017-0.266 0.037-0.55 0.072-0.833 0.031-0.283 0.074-0.564 0.127-0.826 0.022-0.132 0.056-0.256 0.085-0.375 0.026-0.12 0.066-0.228 0.098-0.331 0.028-0.104 0.070-0.192 0.102-0.273 0.030-0.082 0.063-0.15 0.095-0.204 0.060-0.11 0.094-0.173 0.094-0.173s-0.041 0.059-0.112 0.163c-0.038 0.051-0.077 0.117-0.116 0.196s-0.092 0.164-0.131 0.265c-0.041 0.1-0.094 0.207-0.132 0.325-0.040 0.118-0.089 0.241-0.124 0.371-0.080 0.259-0.153 0.54-0.213 0.824-0.063 0.283-0.113 0.569-0.157 0.837-0.042 0.268-0.077 0.519-0.102 0.736-0.051 0.43-0.071 0.725-0.071 0.725l0.461 0.009z"></path>
<path fill="rgb(149, 189, 61)" d="M9.039 7.387c0 0-0.025-0.059-0.069-0.163-0.044-0.106-0.105-0.259-0.172-0.444-0.134-0.372-0.293-0.877-0.392-1.395-0.050-0.259-0.085-0.521-0.096-0.768-0.006-0.123-0.007-0.242-0.001-0.355s0.017-0.22 0.035-0.318c0.016-0.098 0.039-0.186 0.063-0.263s0.050-0.142 0.075-0.195c0.021-0.054 0.049-0.092 0.062-0.12 0.015-0.027 0.024-0.042 0.024-0.042s-0.010 0.013-0.028 0.039c-0.017 0.027-0.049 0.061-0.076 0.114-0.031 0.050-0.065 0.114-0.098 0.19s-0.066 0.163-0.093 0.261c-0.029 0.098-0.053 0.207-0.071 0.322-0.020 0.115-0.032 0.239-0.040 0.366-0.016 0.255-0.009 0.528 0.015 0.799 0.044 0.544 0.151 1.079 0.248 1.476 0.049 0.199 0.094 0.363 0.128 0.478 0.035 0.116 0.056 0.183 0.056 0.183l0.43-0.166z"></path>
<path fill="rgb(149, 189, 61)" d="M9.032 7.57c0 0 0.11-0.263 0.297-0.657 0.185-0.392 0.447-0.91 0.739-1.41 0.145-0.251 0.299-0.497 0.453-0.72 0.074-0.114 0.155-0.217 0.229-0.318 0.072-0.102 0.152-0.188 0.221-0.273 0.067-0.086 0.14-0.154 0.201-0.218s0.116-0.118 0.167-0.157c0.098-0.081 0.154-0.129 0.154-0.129s-0.060 0.041-0.166 0.114c-0.055 0.034-0.116 0.082-0.183 0.141-0.068 0.058-0.149 0.12-0.225 0.2-0.078 0.077-0.167 0.158-0.25 0.253-0.085 0.094-0.177 0.191-0.263 0.298-0.178 0.211-0.359 0.444-0.53 0.683-0.346 0.477-0.662 0.974-0.889 1.352-0.227 0.378-0.369 0.64-0.369 0.64l0.415 0.201z"></path>
<path fill="rgb(149, 189, 61)" d="M9.045 7.535c0 0 0.011-0.055 0.031-0.151 0.018-0.095 0.041-0.23 0.063-0.392 0.020-0.162 0.043-0.352 0.053-0.556 0.013-0.203 0.014-0.421 0.010-0.637-0.008-0.108-0.011-0.217-0.022-0.323-0.014-0.106-0.020-0.21-0.040-0.31-0.019-0.1-0.029-0.197-0.055-0.287-0.024-0.089-0.041-0.175-0.067-0.252s-0.049-0.146-0.071-0.208c-0.022-0.061-0.049-0.112-0.067-0.155-0.038-0.085-0.060-0.134-0.060-0.134s0.015 0.051 0.042 0.14c0.012 0.045 0.032 0.097 0.045 0.16 0.012 0.063 0.026 0.134 0.042 0.212 0.015 0.077 0.020 0.163 0.031 0.252 0.013 0.089 0.010 0.185 0.016 0.283s-0.003 0.2-0.003 0.302c-0.004 0.103-0.015 0.207-0.022 0.311-0.024 0.208-0.052 0.414-0.091 0.605-0.036 0.192-0.082 0.368-0.122 0.518-0.041 0.15-0.079 0.273-0.108 0.358-0.030 0.083-0.046 0.13-0.046 0.13l0.441 0.132z"></path>
<path fill="rgb(149, 189, 61)" d="M9.046 7.406c0 0-0.094-0.278-0.247-0.685-0.153-0.409-0.368-0.947-0.605-1.478-0.117-0.265-0.243-0.527-0.367-0.77-0.060-0.121-0.126-0.236-0.185-0.345-0.057-0.11-0.122-0.21-0.177-0.304s-0.113-0.175-0.161-0.249c-0.047-0.074-0.093-0.137-0.132-0.186-0.077-0.1-0.121-0.157-0.121-0.157s0.038 0.062 0.105 0.168c0.035 0.052 0.073 0.118 0.114 0.197s0.090 0.163 0.133 0.262c0.044 0.098 0.098 0.201 0.144 0.317 0.047 0.114 0.1 0.232 0.147 0.359 0.098 0.251 0.196 0.521 0.286 0.793 0.182 0.544 0.34 1.097 0.45 1.512 0.11 0.417 0.174 0.693 0.174 0.693l0.443-0.127z"></path>
<path fill="rgb(149, 189, 61)" d="M9.049 7.52c0 0 0.006-0.045 0.015-0.124 0.011-0.083 0.019-0.196 0.027-0.331 0.006-0.067 0.005-0.141 0.008-0.218 0-0.077 0.005-0.159 0.003-0.243-0.008-0.168-0.003-0.347-0.024-0.525-0.008-0.089-0.016-0.178-0.023-0.265-0.005-0.087-0.024-0.172-0.035-0.255-0.029-0.164-0.044-0.318-0.080-0.447-0.063-0.257-0.105-0.428-0.105-0.428s0.013 0.175 0.033 0.437c0.015 0.13 0.004 0.284 0.006 0.447-0.002 0.081 0.003 0.165-0.007 0.251-0.007 0.085-0.013 0.172-0.019 0.258-0.008 0.172-0.042 0.343-0.060 0.503-0.011 0.080-0.029 0.156-0.041 0.229-0.014 0.073-0.024 0.141-0.041 0.203-0.029 0.126-0.053 0.229-0.074 0.296-0.020 0.071-0.033 0.112-0.033 0.112l0.45 0.1z"></path>
<path fill="rgb(149, 189, 61)" d="M9.054 7.464c0 0-0.021-0.273-0.069-0.676-0.047-0.403-0.124-0.94-0.229-1.47-0.024-0.133-0.055-0.265-0.083-0.395-0.027-0.13-0.063-0.257-0.092-0.38-0.064-0.246-0.134-0.471-0.201-0.662-0.031-0.096-0.070-0.181-0.099-0.257-0.029-0.077-0.060-0.142-0.086-0.194-0.052-0.106-0.080-0.166-0.080-0.166s0.023 0.063 0.062 0.173c0.021 0.054 0.045 0.121 0.065 0.2s0.049 0.166 0.070 0.264c0.045 0.194 0.090 0.424 0.127 0.671 0.016 0.124 0.038 0.251 0.050 0.382 0.014 0.131 0.030 0.262 0.040 0.396 0.046 0.531 0.065 1.064 0.069 1.462 0.004 0.4-0.003 0.663-0.003 0.663l0.461-0.012z"></path>
<path fill="rgb(149, 189, 61)" d="M9.047 7.413c0 0-0.104-0.339-0.26-0.848-0.159-0.508-0.373-1.183-0.603-1.854-0.11-0.336-0.233-0.669-0.345-0.982-0.107-0.314-0.23-0.6-0.325-0.849-0.047-0.124-0.093-0.237-0.141-0.334-0.045-0.098-0.085-0.183-0.117-0.253-0.065-0.141-0.102-0.221-0.102-0.221s0.030 0.083 0.084 0.228c0.026 0.073 0.058 0.161 0.095 0.262 0.039 0.1 0.076 0.216 0.113 0.343 0.074 0.254 0.172 0.547 0.253 0.868 0.086 0.32 0.18 0.66 0.263 1.003 0.173 0.684 0.331 1.373 0.448 1.889 0.113 0.517 0.189 0.862 0.189 0.862l0.447-0.114z"></path>
<path fill="rgb(149, 189, 61)" d="M9.034 7.564c0 0 0.025-0.066 0.067-0.182s0.098-0.279 0.16-0.478c0.063-0.199 0.129-0.432 0.193-0.684 0.062-0.253 0.124-0.523 0.167-0.797 0.024-0.136 0.044-0.274 0.057-0.41 0.018-0.135 0.024-0.269 0.031-0.4 0.011-0.129 0.002-0.256-0-0.375 0.002-0.118-0.022-0.231-0.031-0.334-0.007-0.103-0.040-0.195-0.057-0.277-0.011-0.040-0.020-0.078-0.029-0.114-0.014-0.034-0.028-0.064-0.039-0.092-0.047-0.11-0.074-0.173-0.074-0.173s0.020 0.065 0.055 0.18c0.009 0.029 0.018 0.060 0.029 0.094 0.004 0.036 0.010 0.074 0.016 0.115 0.009 0.082 0.032 0.173 0.028 0.275-0.002 0.101 0.011 0.21-0.004 0.326-0.011 0.116-0.015 0.238-0.039 0.362-0.019 0.125-0.039 0.253-0.070 0.383-0.026 0.13-0.059 0.261-0.096 0.391-0.070 0.26-0.157 0.515-0.243 0.754-0.089 0.237-0.176 0.456-0.257 0.641s-0.151 0.338-0.202 0.443c-0.052 0.104-0.081 0.164-0.081 0.164l0.421 0.188z"></path>
<path fill="rgb(149, 189, 61)" d="M9.034 7.375c0 0-0.642-1.29-1.375-2.527-0.183-0.309-0.37-0.616-0.555-0.897s-0.362-0.542-0.527-0.755c-0.081-0.108-0.156-0.206-0.229-0.288-0.072-0.081-0.129-0.159-0.187-0.212-0.112-0.11-0.175-0.173-0.175-0.173s0.059 0.068 0.16 0.186c0.054 0.057 0.104 0.138 0.169 0.225s0.132 0.19 0.203 0.303c0.146 0.224 0.301 0.495 0.46 0.789 0.161 0.294 0.321 0.612 0.478 0.933 0.313 0.64 0.602 1.294 0.814 1.785s0.343 0.822 0.343 0.822l0.421-0.189z"></path>
<path fill="rgb(149, 189, 61)" d="M9.054 7.457c0 0-0.029-0.293-0.095-0.722-0.033-0.214-0.075-0.465-0.127-0.731-0.052-0.267-0.112-0.55-0.183-0.831-0.070-0.281-0.152-0.559-0.24-0.817-0.040-0.129-0.092-0.251-0.137-0.367-0.042-0.116-0.099-0.221-0.143-0.32-0.043-0.1-0.097-0.184-0.14-0.261-0.041-0.078-0.083-0.141-0.122-0.191-0.074-0.101-0.118-0.159-0.118-0.159s0.037 0.062 0.1 0.17c0.034 0.053 0.069 0.12 0.102 0.201 0.034 0.080 0.079 0.167 0.111 0.269 0.034 0.102 0.078 0.208 0.108 0.328 0.032 0.118 0.070 0.241 0.097 0.372 0.061 0.26 0.114 0.54 0.154 0.822 0.044 0.281 0.074 0.564 0.099 0.83 0.023 0.266 0.041 0.514 0.051 0.727 0.021 0.428 0.021 0.707 0.021 0.707l0.46-0.024z"></path>
<path fill="rgb(149, 189, 61)" d="M9.042 7.545c0 0 0.018-0.067 0.050-0.185 0.030-0.116 0.070-0.282 0.111-0.482 0.084-0.4 0.173-0.938 0.201-1.483 0.014-0.272 0.011-0.545-0.013-0.799-0.013-0.128-0.028-0.25-0.051-0.365-0.022-0.115-0.049-0.223-0.081-0.32-0.030-0.097-0.066-0.184-0.101-0.259s-0.071-0.137-0.104-0.186c-0.029-0.051-0.062-0.085-0.080-0.111-0.019-0.025-0.029-0.038-0.029-0.038s0.009 0.014 0.025 0.042c0.014 0.028 0.043 0.064 0.066 0.118 0.027 0.052 0.056 0.116 0.082 0.192s0.053 0.164 0.071 0.261c0.022 0.097 0.036 0.203 0.045 0.316 0.011 0.113 0.013 0.232 0.012 0.356-0.003 0.247-0.029 0.509-0.071 0.77-0.083 0.522-0.225 1.032-0.347 1.407-0.061 0.188-0.116 0.343-0.157 0.45-0.040 0.105-0.064 0.166-0.064 0.166l0.435 0.151z"></path>
<path fill="rgb(243, 147, 31)" d="M7.678 8.703c-0.081-1.193 1.215-1.283 1.215-1.283s0.671-1.112 1.696-0.496c1.025 0.616 1.094 1.789 1.094 1.789 0.914 1.495 1.036 2.446 1.036 2.446 0.866 1.416 0.634 1.612 0.634 1.612 0.541 0.885 1.533 3.79 1.238 3.97s-2.428-2.027-2.969-2.912c0 0-0.279 0.117-1.145-1.299 0 0-0.791-0.543-1.704-2.038 0-0-1.013-0.596-1.094-1.789z"></path>
<path fill="rgb(239, 114, 34)" d="M7.678 8.703c-0.075-1.119 1.059-1.268 1.201-1.282 0.077 0.144-0.253 0.284-0.389 0.44-0.192 0.22-0.308 0.411-0.392 0.69-0.134 0.44 0.186 0.954 0.486 1.24 0.465 0.444 1.126 0.203 1.719-0.065-0.166 0.209-0.367 0.39-0.601 0.574-0.17 0.134-0.24 0.239-0.295 0.443-0.119 0.436 0.591 1.051 0.906 1.208 0.486 0.242 0.924 0.167 1.386-0.109 0.036-0.022 0.725-0.477 0.342 0.079-0.099 0.132-0.218 0.242-0.357 0.329-0.148 0.113-0.285 0.22-0.405 0.364-0.206 0.248-0.152 0.662 0.153 0.813 0.174 0.086 0.434 0.221 0.636 0.144 0.266-0.1 0.478-0.089 0.272 0.297-0.188 0.35 0.109 0.912 0.398 1.121 0.031 0.023 0.060 0.046 0.091 0.069 0.005 0.008 0.007 0.017 0.013 0.026 0.203 0.268 0.412 0.581 0.641 0.88-0.712-0.678-1.549-1.624-1.861-2.133 0 0-0.279 0.117-1.145-1.299 0 0-0.791-0.543-1.704-2.038 0-0-1.013-0.596-1.094-1.789z"></path>
</svg>
