<?xml version="1.0" encoding="utf-8"?>
<!-- Generated by IcoMoon.io -->
<!DOCTYPE svg PUBLIC "-//W3C//DTD SVG 1.1//EN" "http://www.w3.org/Graphics/SVG/1.1/DTD/svg11.dtd">
<svg version="1.1" xmlns="http://www.w3.org/2000/svg" xmlns:xlink="http://www.w3.org/1999/xlink" width="20" height="20" viewBox="0 0 20 20">
<path fill="rgb(235, 151, 131)" d="M19.691 10c0-5.352-4.339-9.691-9.69-9.691s-9.691 4.338-9.691 9.691c0 5.352 4.339 9.69 9.691 9.69s9.69-4.339 9.69-9.69z"></path>
<path fill="rgb(115, 3, 2)" d="M9.685 12.618c0 1.427-1.066 2.584-2.381 2.584s-2.381-1.157-2.381-2.584c0-0.577 0.174-1.109 0.468-1.539 0.434-0.634 1.456-0.795 1.913-0.795s1.487 0.166 1.92 0.806c0.29 0.428 0.461 0.957 0.461 1.529z"></path>
<path fill="rgb(81, 2, 2)" d="M7.973 10.644c0 0.147-0.3 0.267-0.669 0.267s-0.669-0.12-0.669-0.267c0-0.060 0.049-0.115 0.132-0.159 0.122-0.066 0.409-0.082 0.537-0.082s0.418 0.017 0.54 0.083c0.081 0.044 0.13 0.099 0.13 0.158z"></path>
<path fill="rgb(99, 112, 20)" d="M8.805 5.097l-0.082-0.84-0.327 0.198c0.198 0.467 0 0.992 0 0.992l-1.429 5.428c0.099 0.023 0.213 0.036 0.336 0.036 0.106 0 0.206-0.010 0.295-0.028-0.022-0.166-0.032-0.323-0.035-0.465-0.009-0.413 0.040-0.699 0.040-0.699l1.202-4.622z"></path>
<path fill="rgb(115, 3, 2)" d="M15.078 12.618c0 1.427-1.066 2.584-2.381 2.584s-2.381-1.157-2.381-2.584c0-0.577 0.174-1.109 0.469-1.539 0.434-0.634 1.456-0.795 1.913-0.795s1.486 0.166 1.92 0.806c0.29 0.428 0.461 0.957 0.461 1.529z"></path>
<path fill="rgb(81, 2, 2)" d="M13.366 10.644c0 0.147-0.3 0.267-0.669 0.267s-0.669-0.12-0.669-0.267c0-0.060 0.049-0.115 0.132-0.159 0.122-0.066 0.409-0.082 0.538-0.082s0.418 0.017 0.54 0.083c0.082 0.044 0.13 0.099 0.13 0.158z"></path>
<path fill="rgb(118, 127, 24)" d="M12.811 10.406c-0.386-0.953-1.397-3.040-3.515-5.181l-0.405-0.436-0.171-0.514-0.342 0.171 0.381 0.767c0 0 2.971 2.564 3.661 5.207 0.042 0.16 0.075 0.321 0.099 0.481 0.057 0.006 0.116 0.010 0.178 0.010 0.105 0 0.204-0.010 0.292-0.027-0.027-0.083-0.084-0.247-0.178-0.478z"></path>
<path fill="rgb(163, 87, 24)" d="M8.785 4.253l-0.29-0.821c-0.009-0.018-0.024-0.031-0.043-0.036s-0.039-0.003-0.056 0.007l-0.529 0.319c-0.033 0.020-0.044 0.062-0.024 0.095l0.47 0.701c0.009 0.016 0.025 0.028 0.043 0.033 0.006 0.001 0.011 0.002 0.017 0.002 0.013 0 0.025-0.003 0.036-0.010l0.35-0.198c0.031-0.019 0.043-0.058 0.027-0.091z"></path>
<path fill="rgb(135, 14, 14)" d="M9.109 13.329c0 0.852-0.75 1.543-1.674 1.543-0.374 0-0.719-0.113-0.997-0.304-0.411-0.281 2.671-2.092 2.671-1.239z"></path>
<path fill="rgb(135, 14, 14)" d="M13.832 11.151c0.801 0.29 1.195 1.23 0.88 2.1-0.127 0.351-0.351 0.637-0.625 0.834-0.404 0.29-1.056-3.224-0.255-2.934z"></path>
</svg>
