<?xml version="1.0" encoding="utf-8"?>
<!-- Generator: Adobe Illustrator 16.0.0, SVG Export Plug-In . SVG Version: 6.00 Build 0)  -->
<!DOCTYPE svg PUBLIC "-//W3C//DTD SVG 1.1//EN" "http://www.w3.org/Graphics/SVG/1.1/DTD/svg11.dtd">
<svg version="1.1" id="Layer_1" xmlns="http://www.w3.org/2000/svg" xmlns:xlink="http://www.w3.org/1999/xlink" x="0px" y="0px"
	 width="20px" height="20px" viewBox="0 0 20 20" enable-background="new 0 0 20 20" xml:space="preserve">
<g>
	<path fill="#EDC92F" d="M19.69,10c0-5.352-4.338-9.691-9.689-9.691S0.31,4.647,0.31,10c0,5.352,4.339,9.69,9.691,9.69
		C15.353,19.69,19.69,15.352,19.69,10z"/>
	<path fill="#F4F1B3" d="M9.339,10.43c0,1.094-1.011,1.98-2.257,1.98s-2.257-0.887-2.257-1.98c0-1.094,1.011-1.981,2.257-1.981
		S9.339,9.335,9.339,10.43z"/>
	<path fill="#F4F1B3" d="M8.867,8.195c0,0.981-0.796,1.777-1.777,1.777c-0.982,0-1.777-0.795-1.777-1.777
		c0-0.981,0.795-1.777,1.777-1.777C8.071,6.418,8.867,7.213,8.867,8.195z"/>
	<path fill="#F4F1B3" d="M11.502,7.23c0,1.142-1.043,2.068-2.33,2.068s-2.33-0.926-2.33-2.068s1.043-2.068,2.33-2.068
		S11.502,6.088,11.502,7.23L11.502,7.23z"/>
	<path fill="#F4F1B3" d="M13.978,7.434c0,0.981-0.854,1.777-1.908,1.777c-1.053,0-1.907-0.795-1.907-1.777
		c0-0.981,0.854-1.777,1.907-1.777C13.124,5.656,13.978,6.452,13.978,7.434z"/>
	<path fill="#557F2D" d="M13.44,9.717c0,0.981-0.854,1.777-1.907,1.777c-1.055,0-1.908-0.795-1.908-1.777
		c0-0.981,0.854-1.777,1.908-1.777C12.587,7.94,13.44,8.735,13.44,9.717z"/>
	<path fill="#F4F1B3" d="M15.347,9.573c0,0.976-0.775,1.765-1.732,1.765s-1.733-0.789-1.733-1.765c0-0.975,0.776-1.765,1.733-1.765
		S15.347,8.599,15.347,9.573z"/>
	<path fill="#F4F1B3" d="M15.198,10.838c0,0.854-0.815,1.545-1.82,1.545s-1.82-0.691-1.82-1.545c0-0.853,0.815-1.543,1.82-1.543
		S15.198,9.985,15.198,10.838z"/>
	<path fill="#F4F1B3" d="M14.11,11.824c0,0.854-0.691,1.545-1.545,1.545c-0.853,0-1.543-0.691-1.543-1.545
		c0-0.853,0.69-1.544,1.543-1.544C13.419,10.28,14.11,10.972,14.11,11.824z"/>
	<path fill="#F4F1B3" d="M9.252,11.824c0,0.854-0.691,1.545-1.544,1.545c-0.854,0-1.544-0.691-1.544-1.545
		c0-0.853,0.69-1.544,1.544-1.544C8.561,10.28,9.252,10.972,9.252,11.824z"/>
	<path fill="#F4F1B3" d="M14.677,10.288c0,0.853-0.691,1.544-1.544,1.544s-1.544-0.691-1.544-1.544s0.691-1.544,1.544-1.544
		S14.677,9.435,14.677,10.288z"/>
	<path fill="#F4F1B3" d="M10.547,11.293c0,0.98-0.795,1.776-1.777,1.776c-0.981,0-1.776-0.795-1.776-1.776S7.788,9.516,8.77,9.516
		C9.752,9.516,10.547,10.311,10.547,11.293z"/>
	<path fill="#F4F1B3" d="M12.808,11.248c0,0.934-0.756,1.689-1.688,1.689c-0.934,0-1.689-0.756-1.689-1.689
		c0-0.933,0.756-1.688,1.689-1.688C12.052,9.56,12.808,10.315,12.808,11.248z"/>
	<path fill="#F4F1B3" d="M10.653,9.842c0,0.981-0.796,1.777-1.777,1.777c-0.982,0-1.777-0.795-1.777-1.777
		c0-0.981,0.795-1.777,1.777-1.777C9.857,8.065,10.653,8.86,10.653,9.842z"/>
	<path fill="#DDD89B" d="M11.026,6.343C9.838,6.1,8.681,6.779,8.442,7.861c-0.237,1.082,0.534,2.157,1.724,2.401
		c1.188,0.243,2.346-0.436,2.584-1.518C12.987,7.663,12.216,6.587,11.026,6.343z"/>
	<path fill="#F4F1B3" d="M10.953,6.682C9.764,6.438,8.606,7.118,8.369,8.199c-0.238,1.082,0.533,2.157,1.723,2.401
		c1.19,0.243,2.347-0.436,2.584-1.518C12.914,8,12.142,6.925,10.953,6.682L10.953,6.682z"/>
	<path fill="#DDD89B" d="M7.704,8.337c-0.913,0.03-1.642,0.731-1.625,1.564c0.016,0.833,0.769,1.485,1.683,1.455
		c0.913-0.03,1.641-0.731,1.625-1.564C9.371,8.959,8.618,8.308,7.704,8.337L7.704,8.337z"/>
	<path fill="#F4F1B3" d="M7.709,8.599c-0.913,0.03-1.642,0.731-1.625,1.564c0.016,0.833,0.769,1.485,1.682,1.455
		c0.913-0.029,1.641-0.73,1.625-1.563S8.622,8.568,7.709,8.599L7.709,8.599z"/>
	<path fill="#DDD89B" d="M8.666,10.418c-0.713,0.024-1.282,0.571-1.27,1.223c0.014,0.65,0.602,1.16,1.314,1.136
		s1.282-0.571,1.269-1.222C9.967,10.903,9.379,10.395,8.666,10.418z"/>
	<path fill="#F4F1B3" d="M8.67,10.623c-0.713,0.023-1.282,0.57-1.27,1.221c0.014,0.652,0.602,1.16,1.314,1.137
		s1.282-0.57,1.269-1.223C9.971,11.107,9.383,10.599,8.67,10.623z"/>
	<path fill="#DDD89B" d="M12.278,9.479c0.947-0.234,1.879,0.24,2.156,1.069c-0.008-0.049-0.016-0.096-0.026-0.146
		c-0.214-0.916-1.196-1.458-2.196-1.211s-1.64,1.19-1.426,2.106c0.011,0.048,0.025,0.095,0.04,0.142
		C10.708,10.572,11.33,9.713,12.278,9.479z"/>
	<path fill="#6E822F" d="M9.19,12.793l0.328,0.445c4.084,1.139,4.351-3.086,4.351-3.086c-2.377,3.52-4.679,2.643-4.679,2.643V12.793
		z"/>
	<path fill="#6E822F" d="M6.303,10.152c0,0,0.268,4.225,4.351,3.086l0.328-0.445C10.981,12.793,8.679,13.672,6.303,10.152
		L6.303,10.152z"/>
	<path fill="#718C30" d="M7.803,13.271l0.328,0.445c4.083,1.139,3.656-3.086,3.656-3.086C9.411,14.15,7.803,13.272,7.803,13.271
		L7.803,13.271z"/>
	<path fill="#718C30" d="M8.385,10.629c0,0-0.426,4.226,3.656,3.086l0.328-0.444C12.369,13.271,10.761,14.149,8.385,10.629
		L8.385,10.629z"/>
	<path fill="#718C30" d="M8.687,13.353h2.812v1.114H8.687V13.353z"/>
	<path fill="#718C30" d="M3.815,9.864c0,0,0.787,0.677,1.241,1.793c0.468,1.152,1.473,2.81,3.627,2.81l0.776-1.561
		c0,0-2.07,0.169-3.671-1.752C5.301,10.568,4.891,9.865,3.815,9.864L3.815,9.864z"/>
	<path fill="#718C30" d="M16.354,9.864c0,0-0.789,0.677-1.242,1.793c-0.467,1.152-1.473,2.81-3.627,2.81l-0.775-1.561
		c0,0,2.07,0.169,3.671-1.752C14.869,10.568,15.278,9.865,16.354,9.864L16.354,9.864z"/>
</g>
</svg>
