<?xml version="1.0" encoding="utf-8"?>
<!-- Generated by IcoMoon.io -->
<!DOCTYPE svg PUBLIC "-//W3C//DTD SVG 1.1//EN" "http://www.w3.org/Graphics/SVG/1.1/DTD/svg11.dtd">
<svg version="1.1" xmlns="http://www.w3.org/2000/svg" xmlns:xlink="http://www.w3.org/1999/xlink" width="20" height="20" viewBox="0 0 20 20">
<path fill="rgb(234, 73, 73)" d="M10 19.691c5.337 0 9.691-4.353 9.691-9.691s-4.353-9.691-9.691-9.691c-5.338 0-9.691 4.353-9.691 9.691s4.353 9.691 9.691 9.691z"></path>
<path fill="rgb(138, 52, 31)" d="M6.878 14.202c2.382 0 4.325-1.177 4.325-2.621s-1.943-2.621-4.325-2.621-4.325 1.178-4.325 2.621c0 1.444 1.943 2.621 4.325 2.621z"></path>
<path fill="rgb(255, 255, 255)" d="M6.878 13.374c2.382 0 4.325-1.177 4.325-2.621s-1.943-2.622-4.325-2.622-4.325 1.178-4.325 2.622c0 1.443 1.943 2.621 4.325 2.621z"></path>
<path fill="rgb(138, 52, 31)" d="M6.878 12.322c2.382 0 4.325-1.178 4.325-2.621s-1.943-2.621-4.325-2.621-4.325 1.177-4.325 2.621c0 1.443 1.943 2.621 4.325 2.621z"></path>
<path fill="rgb(138, 52, 31)" d="M14.315 8.768c1.75 1.627 2.369 3.804 1.383 4.865s-3.203 0.601-4.953-1.025c-1.749-1.627-2.369-3.804-1.383-4.865s3.203-0.601 4.952 1.025z"></path>
<path fill="rgb(255, 255, 255)" d="M14.878 8.163c1.75 1.626 2.369 3.804 1.383 4.865s-3.203 0.601-4.953-1.025c-1.75-1.626-2.369-3.804-1.383-4.864s3.203-0.602 4.953 1.025z"></path>
<path fill="rgb(138, 52, 31)" d="M15.594 7.392c1.75 1.626 2.369 3.804 1.383 4.864s-3.203 0.602-4.953-1.024c-1.749-1.627-2.369-3.805-1.383-4.865s3.203-0.602 4.953 1.025z"></path>
</svg>
