<?xml version="1.0" encoding="utf-8"?>
<!-- Generated by IcoMoon.io -->
<!DOCTYPE svg PUBLIC "-//W3C//DTD SVG 1.1//EN" "http://www.w3.org/Graphics/SVG/1.1/DTD/svg11.dtd">
<svg version="1.1" xmlns="http://www.w3.org/2000/svg" xmlns:xlink="http://www.w3.org/1999/xlink" width="20" height="20" viewBox="0 0 20 20">
<path fill="rgb(37, 183, 211)" d="M0.309 10c0-5.352 4.339-9.691 9.69-9.691s9.691 4.338 9.691 9.691c0 5.352-4.339 9.691-9.691 9.691s-9.69-4.339-9.69-9.691z"></path>
<path fill="rgb(237, 201, 47)" d="M14.387 6.067l-4.436 0.265-4.436-0.265c0 0-2.341 1.806 0.869 9.697 0 0 0.461 1.311 3.523 1.336v0.001c0.015 0 0.029-0.001 0.044-0.001s0.029 0.001 0.044 0.001v-0.001c3.062-0.025 3.523-1.336 3.523-1.336 3.21-7.891 0.869-9.697 0.869-9.697z"></path>
<path fill="rgb(234, 176, 47)" d="M13.879 6.698l-3.929 0.235-3.929-0.235c0 0-2.073 1.599 0.77 8.587 0 0 0.408 1.161 3.12 1.183v0.001c0.014 0 0.026-0.001 0.039-0.001s0.025 0.001 0.039 0.001v-0.001c2.712-0.022 3.12-1.183 3.12-1.183 2.843-6.988 0.77-8.587 0.77-8.587z"></path>
<path fill="rgb(234, 223, 176)" d="M15.499 8.41c-0.431-0.45-0.669-2.639-0.669-2.639s-2.324 0.581-4.858 0.581c-2.534 0-4.88-0.581-4.88-0.581s-0.457 2.626-0.765 2.991c0 0 1.301-0.237 1.993-0.182 1.196 0.094 1.225 0.535 2.801 0.913 0.473 0.113 1.853 0.002 2.298-0.189 0.661-0.283 1.363-0.21 2.003-0.254 1.333-0.092 2.076-0.639 2.076-0.639z"></path>
<path fill="rgb(214, 191, 128)" d="M9.905 7.588c2.774 0 4.421-0.414 4.989-1.259-0.045-0.325-0.065-0.558-0.065-0.558s-0.050 0.012-0.14 0.033c-0.23 0.918-1.836 1.383-4.785 1.383-2.735 0-4.469-0.519-4.768-1.405-0.028-0.007-0.045-0.011-0.045-0.011s-0.035 0.238-0.093 0.567c0.663 0.804 2.37 1.25 4.906 1.25z"></path>
<path fill="rgb(247, 192, 82)" d="M6.015 11.416c0 0 0.41 2.969 1.46 4.035 0.64 0.649 2.028 0.691 2.831 0.58 0 0-2.898-2.407-4.291-4.614z"></path>
<path fill="rgb(234, 223, 176)" d="M9.905 3.525c-2.77 0-5.015 0.385-5.015 1.722s2.246 1.889 5.015 1.889c2.77 0 5.015-0.401 5.015-1.822s-2.246-1.789-5.015-1.789z"></path>
<path fill="rgb(244, 236, 206)" d="M9.905 3.691c-2.514 0-4.552 0.277-4.552 1.24s2.038 1.361 4.552 1.361c2.514 0 4.552-0.289 4.552-1.313s-2.038-1.289-4.552-1.289z"></path>
<path fill="rgb(234, 223, 176)" d="M8.848 5.83c-0.008 0-0.016-0.001-0.024-0.002-0.040-0.006-0.063-0.026-0.049-0.045l1.199-1.696c0.013-0.019 0.057-0.029 0.098-0.023s0.063 0.026 0.049 0.045l-1.199 1.696c-0.011 0.015-0.041 0.025-0.074 0.025z"></path>
<path fill="rgb(234, 223, 176)" d="M10.047 5.83c-0.008 0-0.016-0.001-0.024-0.002-0.041-0.006-0.063-0.026-0.049-0.045l1.199-1.696c0.013-0.019 0.057-0.029 0.098-0.023s0.063 0.026 0.049 0.045l-1.199 1.696c-0.011 0.015-0.041 0.025-0.074 0.025z"></path>
<path fill="rgb(234, 223, 176)" d="M6.449 5.83c-0.008 0-0.016-0.001-0.024-0.002-0.041-0.006-0.063-0.026-0.050-0.045l1.199-1.696c0.013-0.019 0.057-0.029 0.098-0.023s0.063 0.026 0.050 0.045l-1.199 1.696c-0.011 0.015-0.041 0.025-0.074 0.025z"></path>
<path fill="rgb(234, 223, 176)" d="M7.648 5.83c-0.008 0-0.016-0.001-0.024-0.002-0.041-0.006-0.063-0.026-0.050-0.045l1.199-1.696c0.013-0.019 0.056-0.029 0.098-0.023s0.063 0.026 0.050 0.045l-1.199 1.696c-0.011 0.015-0.041 0.025-0.074 0.025z"></path>
<path fill="rgb(234, 223, 176)" d="M11.247 5.83c-0.008 0-0.016-0.001-0.024-0.002-0.041-0.006-0.063-0.026-0.050-0.045l1.199-1.696c0.013-0.019 0.056-0.029 0.098-0.023s0.063 0.026 0.049 0.045l-1.199 1.696c-0.011 0.015-0.041 0.025-0.073 0.025z"></path>
<path fill="rgb(234, 223, 176)" d="M12.446 5.83c-0.008 0-0.016-0.001-0.024-0.002-0.041-0.006-0.063-0.026-0.050-0.045l1.199-1.696c0.013-0.019 0.056-0.029 0.098-0.023s0.063 0.026 0.049 0.045l-1.2 1.696c-0.011 0.015-0.041 0.025-0.074 0.025z"></path>
<path fill="rgb(234, 223, 176)" d="M11.247 5.83c0.008 0 0.016-0.001 0.024-0.002 0.040-0.006 0.063-0.026 0.049-0.045l-1.199-1.696c-0.013-0.019-0.057-0.029-0.098-0.023s-0.063 0.026-0.049 0.045l1.199 1.696c0.011 0.015 0.041 0.025 0.074 0.025z"></path>
<path fill="rgb(234, 223, 176)" d="M10.047 5.83c0.008 0 0.016-0.001 0.024-0.002 0.040-0.006 0.063-0.026 0.049-0.045l-1.199-1.696c-0.013-0.019-0.057-0.029-0.098-0.023s-0.063 0.026-0.049 0.045l1.199 1.696c0.011 0.015 0.041 0.025 0.073 0.025z"></path>
<path fill="rgb(234, 223, 176)" d="M13.646 5.83c0.008 0 0.016-0.001 0.024-0.002 0.041-0.006 0.063-0.026 0.050-0.045l-1.199-1.696c-0.013-0.019-0.057-0.029-0.098-0.023s-0.063 0.026-0.050 0.045l1.199 1.696c0.011 0.015 0.041 0.025 0.074 0.025z"></path>
<path fill="rgb(234, 223, 176)" d="M12.446 5.83c0.008 0 0.016-0.001 0.024-0.002 0.041-0.006 0.063-0.026 0.050-0.045l-1.2-1.696c-0.013-0.019-0.056-0.029-0.098-0.023s-0.063 0.026-0.050 0.045l1.199 1.696c0.011 0.015 0.041 0.025 0.074 0.025z"></path>
<path fill="rgb(234, 223, 176)" d="M8.848 5.83c0.008 0 0.016-0.001 0.024-0.002 0.041-0.006 0.063-0.026 0.050-0.045l-1.199-1.696c-0.013-0.019-0.056-0.029-0.098-0.023s-0.063 0.026-0.049 0.045l1.199 1.696c0.011 0.015 0.041 0.025 0.073 0.025z"></path>
<path fill="rgb(234, 223, 176)" d="M7.649 5.83c0.008 0 0.016-0.001 0.024-0.002 0.041-0.006 0.063-0.026 0.050-0.045l-1.2-1.696c-0.013-0.019-0.056-0.029-0.098-0.023s-0.063 0.026-0.049 0.045l1.2 1.696c0.011 0.015 0.041 0.025 0.074 0.025z"></path>
<path fill="rgb(232, 193, 26)" d="M12.642 6.109c0 0.988-0.343 2.12-0.767 2.12s-0.767-1.131-0.767-2.12 0.343-1.459 0.767-1.459 0.767 0.471 0.767 1.459z"></path>
<path fill="rgb(81, 81, 80)" d="M11.173 5.443c0.119-0.534 0.388-0.792 0.702-0.792 0.31 0 0.576 0.251 0.697 0.773 0.045 0.192-1.441 0.207-1.399 0.020z"></path>
<path fill="rgb(81, 81, 80)" d="M11.446 7.818c0.122 0.251 0.27 0.411 0.429 0.411 0.155 0 0.299-0.151 0.42-0.392-0.12 0.020-0.245 0.030-0.374 0.030-0.166-0-0.325-0.017-0.474-0.049z"></path>
<path fill="rgb(81, 81, 80)" d="M12.435 7.485c0.041-0.129 0.078-0.269 0.108-0.415-0.19 0.055-0.401 0.086-0.622 0.086-0.261 0-0.505-0.043-0.72-0.118 0.029 0.148 0.065 0.289 0.106 0.42 0.188 0.054 0.395 0.084 0.614 0.084 0.181 0 0.354-0.021 0.515-0.058z"></path>
<path fill="rgb(81, 81, 80)" d="M12.604 6.699c0.017-0.132 0.028-0.265 0.034-0.398-0.213 0.074-0.458 0.117-0.717 0.117-0.298 0-0.575-0.056-0.809-0.151 0.005 0.133 0.015 0.266 0.031 0.399 0.228 0.088 0.494 0.139 0.779 0.139 0.246 0 0.478-0.038 0.683-0.105z"></path>
<path fill="rgba(244, 241, 230, 0.699999988079071)" d="M11.97 5.436c0 0 0.15 2.319 1.272 1.646 0 0 0.785-0.785-1.272-1.646z"></path>
<path fill="rgb(255, 255, 255)" d="M12.86 7.27v0c-0.828-0-0.951-1.755-0.956-1.83-0.001-0.023 0.009-0.044 0.027-0.058s0.042-0.016 0.063-0.007c0.876 0.366 1.363 0.768 1.447 1.195 0.066 0.333-0.145 0.549-0.154 0.558-0.004 0.004-0.008 0.007-0.013 0.010-0.146 0.088-0.286 0.132-0.415 0.132zM12.045 5.539c0.016 0.157 0.056 0.463 0.143 0.765 0.108 0.381 0.313 0.835 0.673 0.835v0c0.103 0 0.218-0.037 0.34-0.109 0.028-0.031 0.161-0.195 0.113-0.437-0.051-0.253-0.315-0.638-1.268-1.054z"></path>
<path fill="rgba(244, 241, 230, 0.699999988079071)" d="M11.78 5.436c0 0-0.15 2.319-1.272 1.646 0 0-0.785-0.785 1.272-1.646z"></path>
<path fill="rgb(255, 255, 255)" d="M10.89 7.27c-0.13 0-0.269-0.044-0.415-0.132-0.005-0.003-0.009-0.006-0.013-0.010-0.009-0.009-0.22-0.224-0.154-0.558 0.084-0.427 0.571-0.829 1.447-1.195 0.021-0.009 0.045-0.006 0.063 0.007s0.029 0.035 0.027 0.058c-0.005 0.075-0.128 1.83-0.956 1.83zM10.55 7.030c0.122 0.072 0.237 0.109 0.34 0.109 0.36 0 0.564-0.454 0.673-0.835 0.086-0.302 0.126-0.608 0.143-0.765-0.953 0.417-1.217 0.801-1.268 1.054-0.049 0.242 0.084 0.405 0.113 0.437z"></path>
</svg>
