<?xml version="1.0" encoding="utf-8"?>
<!-- Generated by IcoMoon.io -->
<!DOCTYPE svg PUBLIC "-//W3C//DTD SVG 1.1//EN" "http://www.w3.org/Graphics/SVG/1.1/DTD/svg11.dtd">
<svg version="1.1" xmlns="http://www.w3.org/2000/svg" xmlns:xlink="http://www.w3.org/1999/xlink" width="20" height="20" viewBox="0 0 20 20">
<path fill="rgb(174, 232, 73)" d="M19.691 10c0-5.352-4.339-9.691-9.69-9.691s-9.691 4.338-9.691 9.691c0 5.352 4.339 9.69 9.691 9.69s9.69-4.339 9.69-9.69z"></path>
<path fill="rgb(101, 150, 38)" d="M10 14.883c3.857 0 6.989-3.105 7.033-6.952h-14.067c0.044 3.847 3.176 6.952 7.033 6.952z"></path>
<path fill="rgb(255, 232, 178)" d="M10 14.661c3.722 0 6.74-3.012 6.751-6.731h-13.502c0.011 3.719 3.029 6.731 6.751 6.731z"></path>
<path fill="rgb(246, 61, 58)" d="M10 14.176c3.463 0 6.273-2.791 6.305-6.246h-12.611c0.032 3.455 2.843 6.246 6.306 6.246z"></path>
<path fill="rgb(96, 77, 54)" d="M10 12.327c-0.095 0-0.253 0.355-0.253 0.434 0 0.139 0.113 0.253 0.253 0.253s0.253-0.113 0.253-0.253c0-0.079-0.158-0.434-0.253-0.434z"></path>
<path fill="rgb(96, 77, 54)" d="M11.374 12.135c-0.092 0.022-0.162 0.404-0.144 0.481 0.033 0.136 0.169 0.219 0.305 0.186s0.219-0.169 0.186-0.305c-0.019-0.077-0.255-0.385-0.347-0.363z"></path>
<path fill="rgb(96, 77, 54)" d="M12.541 11.631c-0.081 0.050-0.029 0.435 0.013 0.502 0.073 0.119 0.229 0.156 0.348 0.082s0.156-0.229 0.082-0.348c-0.042-0.068-0.362-0.287-0.443-0.237z"></path>
<path fill="rgb(96, 77, 54)" d="M6.518 10.729c-0.056-0.076-0.436 0.008-0.499 0.055-0.112 0.083-0.136 0.241-0.053 0.353s0.241 0.136 0.353 0.053c0.064-0.047 0.256-0.385 0.199-0.461z"></path>
<path fill="rgb(96, 77, 54)" d="M13.457 10.736c-0.055 0.078 0.145 0.411 0.21 0.456 0.114 0.080 0.272 0.053 0.352-0.062s0.053-0.272-0.062-0.352c-0.065-0.046-0.446-0.12-0.501-0.043z"></path>
<path fill="rgb(96, 77, 54)" d="M5.954 9.624c-0.016-0.094-0.392-0.191-0.47-0.178-0.138 0.023-0.231 0.153-0.208 0.291s0.153 0.231 0.291 0.208c0.078-0.013 0.402-0.227 0.387-0.321z"></path>
<path fill="rgb(96, 77, 54)" d="M14.023 9.641c-0.011 0.094 0.323 0.292 0.402 0.301 0.139 0.016 0.264-0.083 0.28-0.222s-0.083-0.264-0.222-0.28c-0.079-0.009-0.45 0.106-0.461 0.201z"></path>
<path fill="rgb(96, 77, 54)" d="M7.48 11.627c-0.082-0.048-0.398 0.178-0.438 0.246-0.071 0.12-0.031 0.275 0.090 0.346s0.275 0.031 0.346-0.090c0.040-0.068 0.084-0.454 0.003-0.502z"></path>
<path fill="rgb(96, 77, 54)" d="M8.626 12.135c-0.092-0.022-0.329 0.286-0.348 0.363-0.033 0.136 0.051 0.272 0.186 0.305s0.272-0.051 0.305-0.186c0.019-0.077-0.051-0.459-0.143-0.482z"></path>
</svg>
