<?xml version="1.0" encoding="utf-8"?>
<!-- Generated by IcoMoon.io -->
<!DOCTYPE svg PUBLIC "-//W3C//DTD SVG 1.1//EN" "http://www.w3.org/Graphics/SVG/1.1/DTD/svg11.dtd">
<svg version="1.1" xmlns="http://www.w3.org/2000/svg" xmlns:xlink="http://www.w3.org/1999/xlink" width="20" height="20" viewBox="0 0 20 20">
<path fill="rgb(242, 222, 140)" d="M19.691 10c0-5.352-4.339-9.691-9.69-9.691s-9.691 4.338-9.691 9.691c0 5.352 4.339 9.69 9.691 9.69s9.69-4.339 9.69-9.69z"></path>
<path fill="rgb(227, 59, 72)" d="M15.396 11.248c0-3.572-1.861-4.915-5.396-4.915s-5.396 1.492-5.396 4.915c0 3.423 1.861 4.915 5.396 4.915s5.396-1.342 5.396-4.915z"></path>
<path fill="rgb(244, 231, 201)" d="M15.007 11.248c0-3.315-1.727-4.561-5.007-4.561s-5.007 1.384-5.007 4.561c0 3.177 1.727 4.561 5.007 4.561s5.007-1.246 5.007-4.561z"></path>
<path fill="rgb(160, 26, 42)" d="M14.8 11.247c0-0.97-0.171-1.747-0.458-2.378-0.457-1.002-2.471-0.628-3.061 0.177-0.385 0.525-0.021 1.686 0.158 2.464 0.031 0.133 0.52 0.299 0.54 0.521 0.046 0.501-0.271 0.179-0.534 0.234-0.247 0.052-0.346 0.206-0.469 0.176-0.234-0.059 0.132-0.417 0.076-0.507-0.313-0.505-0.711-1.408-1.272-1.565-0.384-0.108-0.26-0.545 0.322-0.878 0.615-0.351-0.644-2.634-1.543-2.496-2.215 0.339-3.359 1.712-3.359 4.252 0 3.045 1.655 4.372 4.8 4.372s4.8-1.194 4.8-4.372z"></path>
<path fill="rgb(227, 59, 72)" d="M11.738 6.467h-3.469c0.699 0 0.742-1 0.742-1h1.986c0 0 0.081 1 0.742 1z"></path>
<path fill="rgb(244, 231, 201)" d="M11.54 6.795l-3.002 0.005c0 0 0.523-0.023 0.503-0.286-0.019-0.255 0.381-0.245 0.549-0.324 0.183-0.086 0.183-0.268 0.367-0.399s0.525-0.171 0.629 0.045c0.191 0.398 0.673 0.959 0.954 0.959z"></path>
<path fill="rgb(227, 59, 72)" d="M10.784 4.5c0 0-0.086-0.691-0.417-0.662 0 0-0.083 0.5-0.363 0.835-0.28-0.335-0.363-0.835-0.363-0.835-0.331-0.029-0.417 0.662-0.417 0.662-0.273-0.46-0.954-0.345-0.954-0.345s0.742 0.691 0.742 1.327c0 0.429 0.841 0.111 0.993 0.051 0.151 0.061 0.993 0.378 0.993-0.051 0-0.637 0.742-1.327 0.742-1.327s-0.681-0.115-0.954 0.345z"></path>
<path fill="rgb(227, 59, 72)" d="M14.342 13.185c-0.027-0.154-0.113-0.289-0.241-0.379-0.114-0.080-0.529-0.168-0.794-0.168-0.17 0-0.273 0.032-0.321 0.102-0.025 0.036-0.102 0.146 0.115 0.565 0.095 0.182 0.237 0.399 0.326 0.462 0.099 0.070 0.216 0.107 0.337 0.107 0.191 0 0.371-0.093 0.48-0.25 0.090-0.128 0.125-0.284 0.098-0.438z"></path>
<path fill="rgb(242, 100, 117)" d="M14.182 13.201c-0.021-0.119-0.087-0.222-0.185-0.291-0.088-0.061-0.407-0.129-0.61-0.129-0.131 0-0.209 0.025-0.247 0.078-0.019 0.028 0.883 0.799 0.967 0.679 0.069-0.099 0.096-0.218 0.075-0.337z"></path>
<path fill="rgb(227, 59, 72)" d="M14.564 11.827c-0.084-0.089-0.197-0.14-0.319-0.144-0.109-0.003-0.417 0.117-0.589 0.231-0.111 0.073-0.164 0.138-0.166 0.204-0.001 0.034-0.004 0.139 0.317 0.319 0.14 0.078 0.326 0.159 0.41 0.161 0.095 0.003 0.186-0.023 0.265-0.075 0.125-0.082 0.202-0.22 0.206-0.369 0.004-0.122-0.040-0.238-0.124-0.328z"></path>
<path fill="rgb(242, 100, 117)" d="M14.467 11.906c-0.064-0.068-0.152-0.108-0.246-0.111-0.083-0.002-0.321 0.090-0.453 0.177-0.085 0.056-0.126 0.106-0.128 0.157-0.001 0.026 0.918 0.143 0.921 0.028 0.003-0.094-0.031-0.183-0.095-0.252z"></path>
<path fill="rgb(227, 59, 72)" d="M14.484 10.422c-0.125-0.075-0.271-0.097-0.413-0.062-0.126 0.031-0.441 0.269-0.602 0.454-0.104 0.12-0.144 0.211-0.125 0.288 0.010 0.040 0.040 0.161 0.467 0.264 0.186 0.045 0.425 0.078 0.523 0.053 0.109-0.027 0.206-0.086 0.28-0.171 0.117-0.134 0.161-0.317 0.118-0.49-0.035-0.141-0.123-0.261-0.248-0.336z"></path>
<path fill="rgb(242, 100, 117)" d="M14.398 10.544c-0.096-0.058-0.209-0.075-0.317-0.048-0.097 0.024-0.339 0.207-0.463 0.349-0.080 0.092-0.11 0.162-0.096 0.221 0.008 0.031 1.1-0.132 1.067-0.264-0.027-0.109-0.095-0.2-0.191-0.258z"></path>
<path fill="rgb(227, 59, 72)" d="M13.425 14.5c0.061-0.132 0.067-0.28 0.017-0.417-0.045-0.122-0.315-0.409-0.517-0.549-0.13-0.090-0.225-0.12-0.299-0.093-0.038 0.014-0.156 0.057-0.211 0.492-0.024 0.19-0.031 0.431 0.004 0.526 0.039 0.106 0.108 0.196 0.201 0.26 0.146 0.101 0.333 0.125 0.499 0.064 0.137-0.050 0.246-0.151 0.307-0.283z"></path>
<path fill="rgb(242, 100, 117)" d="M13.294 14.427c0.047-0.102 0.052-0.216 0.013-0.321-0.034-0.093-0.242-0.314-0.398-0.422-0.1-0.070-0.173-0.092-0.23-0.071-0.030 0.011 0.251 1.079 0.379 1.032 0.105-0.039 0.189-0.116 0.236-0.217z"></path>
<path fill="rgb(227, 59, 72)" d="M11.902 15.28c0.136-0.052 0.244-0.154 0.303-0.287 0.053-0.118 0.060-0.513 0.013-0.754-0.030-0.156-0.078-0.243-0.15-0.275-0.037-0.017-0.151-0.068-0.495 0.205-0.15 0.119-0.323 0.287-0.364 0.379-0.046 0.103-0.059 0.216-0.038 0.326 0.034 0.175 0.151 0.322 0.313 0.395 0.133 0.059 0.281 0.064 0.417 0.012z"></path>
<path fill="rgb(242, 100, 117)" d="M11.859 15.137c0.105-0.040 0.187-0.118 0.233-0.221 0.041-0.091 0.046-0.394 0.010-0.58-0.023-0.12-0.060-0.187-0.115-0.212-0.029-0.013-0.573 0.947-0.449 1.003 0.102 0.046 0.216 0.049 0.321 0.009z"></path>
<path fill="rgb(227, 59, 72)" d="M10.292 14.552c0.123 0.079 0.268 0.106 0.411 0.075 0.127-0.027 0.449-0.256 0.616-0.436 0.108-0.116 0.15-0.207 0.133-0.284-0.009-0.040-0.035-0.162-0.458-0.278-0.184-0.050-0.423-0.090-0.521-0.069-0.11 0.024-0.209 0.080-0.285 0.163-0.121 0.131-0.17 0.312-0.133 0.486 0.031 0.142 0.115 0.264 0.238 0.343z"></path>
<path fill="rgb(242, 100, 117)" d="M10.382 14.433c0.094 0.061 0.206 0.081 0.316 0.057 0.097-0.021 0.345-0.197 0.473-0.335 0.083-0.089 0.115-0.159 0.102-0.218-0.007-0.031-1.103 0.099-1.074 0.232 0.024 0.109 0.089 0.203 0.183 0.264z"></path>
<path fill="rgb(227, 59, 72)" d="M12.323 13.488c0.052-0.136 0.048-0.284-0.012-0.417-0.053-0.118-0.343-0.386-0.554-0.512-0.136-0.081-0.233-0.104-0.305-0.072-0.037 0.017-0.151 0.068-0.176 0.506-0.011 0.191-0.001 0.432 0.041 0.524 0.046 0.103 0.122 0.188 0.218 0.245 0.153 0.091 0.341 0.102 0.503 0.029 0.133-0.060 0.235-0.167 0.287-0.304z"></path>
<path fill="rgb(242, 100, 117)" d="M12.187 13.425c0.040-0.105 0.036-0.219-0.009-0.321-0.041-0.091-0.264-0.297-0.426-0.393-0.105-0.062-0.179-0.080-0.235-0.055-0.029 0.013 0.325 1.058 0.45 1.003 0.102-0.046 0.18-0.129 0.22-0.233z"></path>
<path fill="rgb(227, 59, 72)" d="M12.646 10.18c-0.090 0.079-0.145 0.189-0.153 0.309-0.007 0.107 0.101 0.414 0.206 0.588 0.068 0.112 0.13 0.166 0.195 0.17 0.034 0.002 0.136 0.009 0.324-0.301 0.082-0.135 0.167-0.315 0.173-0.398 0.006-0.093-0.016-0.184-0.064-0.263-0.076-0.125-0.209-0.206-0.355-0.216-0.12-0.008-0.236 0.031-0.326 0.111z"></path>
<path fill="rgb(242, 100, 117)" d="M12.72 10.278c-0.070 0.061-0.111 0.145-0.117 0.238-0.005 0.082 0.078 0.318 0.159 0.452 0.052 0.086 0.1 0.128 0.15 0.131 0.026 0.002 0.172-0.898 0.060-0.905-0.092-0.006-0.181 0.024-0.251 0.085z"></path>
<path fill="rgb(227, 59, 72)" d="M12.629 8.541c-0.124 0.076-0.212 0.196-0.246 0.337-0.031 0.126 0.035 0.515 0.124 0.744 0.058 0.148 0.121 0.225 0.197 0.244 0.040 0.010 0.161 0.039 0.45-0.292 0.126-0.144 0.265-0.341 0.289-0.439 0.027-0.11 0.019-0.223-0.022-0.328-0.065-0.166-0.207-0.289-0.379-0.331-0.142-0.034-0.288-0.012-0.413 0.064z"></path>
<path fill="rgb(242, 100, 117)" d="M12.697 8.674c-0.096 0.058-0.163 0.15-0.189 0.259-0.023 0.097 0.027 0.396 0.096 0.572 0.045 0.113 0.093 0.173 0.152 0.187 0.031 0.007 0.392-1.036 0.259-1.068-0.109-0.026-0.222-0.009-0.317 0.049z"></path>
<path fill="rgb(227, 59, 72)" d="M11.87 9.067c0.145 0.018 0.273 0.092 0.363 0.207 0.079 0.102 0.179 0.484 0.191 0.73 0.008 0.158-0.018 0.255-0.080 0.303-0.032 0.025-0.131 0.102-0.53-0.082-0.174-0.080-0.382-0.203-0.443-0.282-0.069-0.089-0.108-0.196-0.114-0.308-0.008-0.178 0.070-0.349 0.211-0.457 0.115-0.089 0.258-0.128 0.403-0.11z"></path>
<path fill="rgb(242, 100, 117)" d="M11.862 9.216c0.111 0.014 0.21 0.071 0.279 0.159 0.061 0.079 0.138 0.372 0.147 0.561 0.006 0.122-0.014 0.196-0.062 0.233-0.025 0.019-0.781-0.785-0.673-0.868 0.089-0.069 0.199-0.099 0.31-0.085z"></path>
<path fill="rgb(227, 59, 72)" d="M12.737 11.423c-0.15 0.019-0.284 0.095-0.377 0.215-0.083 0.106-0.187 0.504-0.199 0.759-0.008 0.165 0.019 0.265 0.083 0.315 0.034 0.026 0.136 0.106 0.551-0.085 0.181-0.083 0.397-0.211 0.461-0.293 0.072-0.093 0.113-0.203 0.118-0.32 0.009-0.185-0.073-0.362-0.219-0.476-0.12-0.093-0.268-0.134-0.419-0.115z"></path>
<path fill="rgb(242, 100, 117)" d="M12.746 11.579c-0.116 0.014-0.218 0.073-0.29 0.165-0.063 0.082-0.143 0.387-0.153 0.583-0.006 0.127 0.014 0.203 0.064 0.242 0.026 0.020 0.812-0.815 0.7-0.902-0.092-0.071-0.206-0.103-0.322-0.088z"></path>
<path fill="rgb(227, 59, 72)" d="M11.477 10.682c-0.062 0.112-0.077 0.242-0.042 0.365 0.031 0.11 0.251 0.379 0.42 0.516 0.109 0.088 0.19 0.12 0.257 0.101 0.035-0.010 0.14-0.040 0.217-0.419 0.033-0.165 0.054-0.377 0.030-0.462-0.027-0.096-0.083-0.179-0.16-0.241-0.122-0.098-0.284-0.131-0.435-0.088-0.123 0.035-0.226 0.117-0.288 0.229z"></path>
<path fill="rgb(242, 100, 117)" d="M11.587 10.754c-0.048 0.086-0.059 0.186-0.032 0.281 0.024 0.084 0.193 0.292 0.322 0.396 0.084 0.067 0.146 0.092 0.198 0.077 0.027-0.008-0.151-0.964-0.267-0.93-0.095 0.027-0.173 0.090-0.221 0.176z"></path>
<path fill="rgb(227, 59, 72)" d="M14.073 9.173c-0.128-0.021-0.257 0.009-0.363 0.085-0.094 0.067-0.277 0.369-0.35 0.576-0.047 0.134-0.050 0.223-0.008 0.28 0.021 0.030 0.086 0.12 0.474 0.065 0.169-0.024 0.379-0.076 0.452-0.129 0.082-0.059 0.143-0.14 0.176-0.235 0.053-0.15 0.029-0.317-0.064-0.445-0.076-0.106-0.188-0.176-0.317-0.197z"></path>
<path fill="rgb(242, 100, 117)" d="M14.042 9.303c-0.099-0.016-0.198 0.007-0.279 0.065-0.072 0.052-0.213 0.284-0.269 0.443-0.036 0.103-0.038 0.171-0.007 0.215 0.016 0.023 0.869-0.473 0.798-0.572-0.058-0.081-0.145-0.135-0.244-0.151z"></path>
<path fill="rgb(227, 59, 72)" d="M5.678 13.185c0.027-0.154 0.113-0.289 0.241-0.379 0.114-0.080 0.529-0.168 0.794-0.168 0.17 0 0.273 0.032 0.321 0.102 0.025 0.036 0.102 0.146-0.115 0.565-0.095 0.182-0.237 0.399-0.326 0.462-0.099 0.070-0.216 0.107-0.337 0.107-0.191 0-0.371-0.093-0.48-0.25-0.090-0.128-0.125-0.284-0.098-0.438z"></path>
<path fill="rgb(242, 100, 117)" d="M5.837 13.201c0.021-0.119 0.087-0.222 0.185-0.291 0.088-0.061 0.407-0.129 0.61-0.129 0.131 0 0.209 0.025 0.247 0.078 0.019 0.028-0.883 0.799-0.967 0.679-0.069-0.099-0.096-0.218-0.075-0.337z"></path>
<path fill="rgb(227, 59, 72)" d="M5.413 11.827c0.084-0.089 0.197-0.14 0.319-0.144 0.109-0.003 0.417 0.117 0.589 0.231 0.111 0.073 0.164 0.138 0.166 0.204 0.001 0.034 0.004 0.139-0.317 0.319-0.14 0.078-0.326 0.159-0.41 0.161-0.095 0.003-0.186-0.023-0.265-0.075-0.125-0.082-0.202-0.22-0.206-0.369-0.004-0.122 0.040-0.238 0.124-0.328z"></path>
<path fill="rgb(242, 100, 117)" d="M5.51 11.906c0.064-0.068 0.152-0.108 0.245-0.111 0.083-0.002 0.321 0.090 0.453 0.177 0.085 0.056 0.126 0.106 0.128 0.157 0.001 0.026-0.918 0.143-0.921 0.028-0.003-0.094 0.031-0.183 0.095-0.252z"></path>
<path fill="rgb(227, 59, 72)" d="M5.536 10.422c0.125-0.075 0.271-0.097 0.413-0.062 0.126 0.031 0.441 0.269 0.602 0.454 0.104 0.12 0.144 0.211 0.125 0.288-0.010 0.040-0.040 0.161-0.467 0.264-0.186 0.045-0.425 0.078-0.523 0.053-0.109-0.027-0.206-0.086-0.28-0.171-0.117-0.134-0.161-0.317-0.118-0.49 0.035-0.141 0.123-0.261 0.248-0.336z"></path>
<path fill="rgb(242, 100, 117)" d="M5.622 10.544c0.096-0.058 0.209-0.075 0.317-0.048 0.097 0.024 0.339 0.207 0.463 0.349 0.080 0.092 0.11 0.162 0.096 0.221-0.008 0.031-1.099-0.132-1.067-0.264 0.027-0.109 0.095-0.2 0.191-0.258z"></path>
<path fill="rgb(227, 59, 72)" d="M6.595 14.5c-0.061-0.132-0.067-0.28-0.017-0.417 0.045-0.122 0.315-0.409 0.517-0.549 0.13-0.090 0.225-0.12 0.299-0.093 0.038 0.014 0.156 0.057 0.211 0.492 0.024 0.19 0.031 0.431-0.004 0.526-0.039 0.106-0.108 0.196-0.201 0.26-0.146 0.101-0.333 0.125-0.499 0.064-0.137-0.050-0.246-0.151-0.307-0.283z"></path>
<path fill="rgb(242, 100, 117)" d="M6.726 14.427c-0.047-0.102-0.052-0.216-0.013-0.321 0.034-0.093 0.242-0.314 0.398-0.422 0.1-0.070 0.173-0.092 0.23-0.071 0.030 0.011-0.25 1.079-0.379 1.032-0.105-0.039-0.189-0.116-0.236-0.217z"></path>
<path fill="rgb(227, 59, 72)" d="M8.117 15.28c-0.136-0.052-0.244-0.154-0.303-0.287-0.053-0.118-0.060-0.513-0.013-0.754 0.030-0.156 0.078-0.243 0.15-0.275 0.037-0.017 0.151-0.068 0.495 0.205 0.15 0.119 0.323 0.287 0.364 0.379 0.046 0.103 0.059 0.216 0.038 0.326-0.034 0.175-0.151 0.322-0.313 0.395-0.133 0.059-0.281 0.064-0.417 0.012z"></path>
<path fill="rgb(242, 100, 117)" d="M8.161 15.137c-0.105-0.040-0.187-0.118-0.233-0.221-0.041-0.091-0.046-0.394-0.010-0.58 0.023-0.12 0.060-0.187 0.115-0.212 0.029-0.013 0.573 0.947 0.449 1.003-0.102 0.046-0.216 0.049-0.321 0.009z"></path>
<path fill="rgb(227, 59, 72)" d="M9.064 15.191c-0.079-0.123-0.106-0.268-0.075-0.411 0.027-0.127 0.256-0.449 0.436-0.616 0.116-0.108 0.207-0.15 0.284-0.133 0.040 0.009 0.162 0.035 0.278 0.458 0.050 0.184 0.090 0.423 0.069 0.521-0.024 0.11-0.080 0.209-0.163 0.285-0.131 0.121-0.312 0.17-0.486 0.133-0.142-0.031-0.264-0.115-0.343-0.238z"></path>
<path fill="rgb(242, 100, 117)" d="M9.183 15.101c-0.061-0.094-0.081-0.206-0.057-0.316 0.021-0.097 0.197-0.345 0.335-0.473 0.090-0.083 0.159-0.115 0.218-0.102 0.031 0.007-0.099 1.103-0.232 1.074-0.109-0.024-0.203-0.089-0.264-0.183z"></path>
<path fill="rgb(227, 59, 72)" d="M8.56 13.769c-0.052-0.136-0.047-0.284 0.012-0.417 0.053-0.118 0.343-0.386 0.554-0.512 0.136-0.081 0.233-0.104 0.305-0.071 0.037 0.017 0.151 0.068 0.176 0.506 0.011 0.191 0.001 0.432-0.041 0.524-0.046 0.103-0.122 0.188-0.218 0.245-0.153 0.091-0.341 0.102-0.503 0.029-0.133-0.060-0.235-0.168-0.287-0.304z"></path>
<path fill="rgb(242, 100, 117)" d="M8.696 13.706c-0.040-0.105-0.036-0.219 0.009-0.321 0.041-0.091 0.264-0.297 0.426-0.393 0.105-0.062 0.179-0.080 0.235-0.055 0.029 0.013-0.325 1.059-0.45 1.003-0.102-0.046-0.18-0.129-0.22-0.233z"></path>
<path fill="rgb(227, 59, 72)" d="M10.951 13.424c-0.092 0.055-0.201 0.071-0.305 0.044-0.093-0.024-0.324-0.2-0.442-0.338-0.076-0.089-0.105-0.156-0.091-0.213 0.007-0.029 0.030-0.118 0.345-0.193 0.137-0.032 0.314-0.055 0.386-0.037 0.081 0.020 0.152 0.065 0.206 0.127 0.086 0.099 0.117 0.235 0.085 0.362-0.026 0.104-0.092 0.192-0.184 0.247z"></path>
<path fill="rgb(242, 100, 117)" d="M10.888 13.334c-0.071 0.042-0.154 0.054-0.234 0.034-0.071-0.018-0.249-0.154-0.34-0.26-0.059-0.068-0.081-0.12-0.070-0.163 0.006-0.023 0.81 0.102 0.786 0.199-0.020 0.080-0.071 0.147-0.142 0.19z"></path>
<path fill="rgb(227, 59, 72)" d="M7.374 10.18c0.090 0.079 0.145 0.189 0.153 0.309 0.007 0.107-0.101 0.414-0.206 0.588-0.068 0.112-0.13 0.166-0.195 0.17-0.034 0.002-0.136 0.009-0.324-0.301-0.082-0.135-0.167-0.315-0.173-0.398-0.006-0.093 0.016-0.184 0.064-0.263 0.076-0.125 0.209-0.206 0.355-0.216 0.12-0.008 0.236 0.031 0.326 0.111z"></path>
<path fill="rgb(242, 100, 117)" d="M7.299 10.278c0.070 0.061 0.111 0.145 0.117 0.238 0.005 0.082-0.078 0.318-0.159 0.452-0.052 0.086-0.1 0.128-0.15 0.131-0.026 0.002-0.172-0.898-0.060-0.905 0.092-0.006 0.181 0.024 0.251 0.085z"></path>
<path fill="rgb(227, 59, 72)" d="M6.959 8.066c0.124 0.076 0.212 0.196 0.246 0.337 0.031 0.126-0.035 0.515-0.124 0.744-0.058 0.148-0.121 0.225-0.197 0.244-0.040 0.010-0.161 0.039-0.45-0.292-0.126-0.144-0.265-0.341-0.289-0.439-0.027-0.11-0.019-0.223 0.022-0.328 0.065-0.166 0.207-0.289 0.379-0.331 0.142-0.034 0.288-0.012 0.413 0.064z"></path>
<path fill="rgb(242, 100, 117)" d="M6.891 8.199c0.096 0.058 0.163 0.15 0.189 0.259 0.023 0.097-0.027 0.396-0.096 0.572-0.045 0.113-0.093 0.173-0.152 0.187-0.031 0.007-0.392-1.036-0.259-1.068 0.109-0.026 0.221-0.009 0.317 0.049z"></path>
<path fill="rgb(227, 59, 72)" d="M9.211 7.723c0.061 0.123 0.071 0.263 0.027 0.393-0.039 0.116-0.287 0.394-0.474 0.531-0.121 0.089-0.209 0.119-0.28 0.095-0.037-0.012-0.148-0.050-0.212-0.459-0.028-0.178-0.040-0.406-0.010-0.496 0.034-0.101 0.097-0.187 0.183-0.25 0.135-0.099 0.311-0.127 0.469-0.073 0.13 0.044 0.236 0.136 0.297 0.259z"></path>
<path fill="rgb(242, 100, 117)" d="M9.089 7.794c0.047 0.095 0.054 0.202 0.021 0.302-0.030 0.089-0.221 0.303-0.364 0.408-0.093 0.068-0.161 0.091-0.215 0.073-0.028-0.009 0.209-1.023 0.331-0.982 0.1 0.034 0.181 0.104 0.228 0.199z"></path>
<path fill="rgb(227, 59, 72)" d="M7.876 7.572c0.106 0.054 0.184 0.145 0.221 0.257 0.033 0.1 0.005 0.419-0.053 0.61-0.037 0.123-0.083 0.19-0.144 0.21-0.032 0.010-0.128 0.042-0.382-0.208-0.111-0.109-0.236-0.259-0.262-0.337-0.028-0.087-0.029-0.179-0.003-0.266 0.042-0.138 0.149-0.247 0.286-0.292 0.112-0.037 0.233-0.028 0.338 0.026z"></path>
<path fill="rgb(242, 100, 117)" d="M7.829 7.684c0.081 0.041 0.141 0.111 0.17 0.198 0.025 0.077 0.004 0.322-0.041 0.469-0.029 0.095-0.064 0.146-0.111 0.161-0.024 0.008-0.383-0.813-0.277-0.848 0.086-0.028 0.179-0.021 0.26 0.020z"></path>
<path fill="rgb(227, 59, 72)" d="M9.829 8.638c-0.11-0.096-0.25-0.144-0.395-0.134-0.129 0.008-0.481 0.187-0.673 0.341-0.124 0.099-0.179 0.182-0.173 0.261 0.003 0.041 0.011 0.165 0.413 0.342 0.175 0.077 0.405 0.151 0.505 0.145 0.113-0.007 0.218-0.049 0.306-0.119 0.139-0.111 0.214-0.284 0.203-0.461-0.010-0.145-0.075-0.278-0.185-0.374z"></path>
<path fill="rgb(242, 100, 117)" d="M9.722 8.743c-0.084-0.074-0.192-0.11-0.304-0.103-0.099 0.007-0.37 0.144-0.517 0.262-0.095 0.076-0.137 0.14-0.133 0.201 0.002 0.031 1.106 0.064 1.097-0.072-0.007-0.112-0.058-0.214-0.142-0.288z"></path>
<path fill="rgb(227, 59, 72)" d="M9.333 11.937c-0.063-0.131-0.174-0.23-0.311-0.279-0.122-0.043-0.516-0.017-0.753 0.050-0.153 0.043-0.236 0.098-0.262 0.172-0.014 0.039-0.055 0.156 0.245 0.476 0.131 0.139 0.313 0.298 0.408 0.331 0.106 0.037 0.22 0.041 0.328 0.011 0.171-0.048 0.309-0.177 0.367-0.344 0.048-0.137 0.040-0.286-0.023-0.417z"></path>
<path fill="rgb(242, 100, 117)" d="M9.194 11.992c-0.048-0.101-0.133-0.177-0.239-0.214-0.094-0.033-0.397-0.013-0.579 0.038-0.117 0.033-0.181 0.075-0.201 0.132-0.010 0.030 0.992 0.493 1.037 0.364 0.037-0.106 0.031-0.22-0.018-0.32z"></path>
<path fill="rgb(227, 59, 72)" d="M7.72 9.984c0.146-0.002 0.282-0.060 0.384-0.164 0.091-0.093 0.234-0.461 0.274-0.703 0.026-0.156 0.012-0.255-0.045-0.31-0.029-0.029-0.118-0.116-0.536 0.021-0.182 0.059-0.403 0.157-0.473 0.229-0.079 0.081-0.13 0.182-0.149 0.293-0.029 0.175 0.030 0.354 0.156 0.479 0.104 0.102 0.242 0.157 0.387 0.156z"></path>
<path fill="rgb(242, 100, 117)" d="M7.73 9.834c0.112-0.001 0.217-0.046 0.295-0.126 0.070-0.071 0.18-0.354 0.211-0.54 0.020-0.12 0.009-0.196-0.034-0.238-0.023-0.022-0.867 0.689-0.769 0.785 0.080 0.078 0.186 0.121 0.298 0.12z"></path>
<path fill="rgb(227, 59, 72)" d="M8.26 9.973c0.001 0.109 0.045 0.211 0.123 0.288 0.069 0.068 0.345 0.175 0.527 0.205 0.117 0.019 0.191 0.009 0.232-0.034 0.021-0.022 0.087-0.089-0.015-0.401-0.044-0.136-0.118-0.301-0.172-0.354-0.060-0.059-0.136-0.098-0.219-0.111-0.131-0.022-0.265 0.022-0.359 0.117-0.076 0.078-0.118 0.181-0.117 0.29z"></path>
<path fill="rgb(242, 100, 117)" d="M8.371 9.979c0.001 0.084 0.034 0.162 0.094 0.221 0.053 0.052 0.265 0.135 0.405 0.158 0.090 0.015 0.147 0.007 0.179-0.026 0.016-0.017-0.516-0.649-0.588-0.576-0.059 0.060-0.091 0.139-0.090 0.223z"></path>
<path fill="rgb(227, 59, 72)" d="M7.227 11.421c0.137 0.017 0.258 0.087 0.343 0.196 0.075 0.097 0.17 0.458 0.181 0.69 0.007 0.15-0.017 0.241-0.076 0.286-0.031 0.024-0.124 0.096-0.501-0.077-0.164-0.076-0.361-0.191-0.419-0.267-0.065-0.084-0.103-0.185-0.108-0.291-0.008-0.168 0.066-0.33 0.199-0.433 0.109-0.085 0.244-0.122 0.381-0.104z"></path>
<path fill="rgb(242, 100, 117)" d="M7.22 11.562c0.105 0.013 0.199 0.067 0.264 0.15 0.058 0.074 0.13 0.352 0.139 0.53 0.006 0.115-0.013 0.185-0.058 0.22-0.024 0.018-0.739-0.742-0.637-0.821 0.084-0.065 0.188-0.093 0.293-0.080z"></path>
<path fill="rgb(227, 59, 72)" d="M8.543 10.682c0.062 0.112 0.077 0.242 0.042 0.365-0.031 0.11-0.251 0.379-0.42 0.516-0.109 0.088-0.19 0.12-0.257 0.101-0.035-0.010-0.14-0.040-0.217-0.419-0.033-0.165-0.054-0.377-0.030-0.462 0.027-0.096 0.083-0.179 0.16-0.241 0.122-0.098 0.284-0.131 0.435-0.088 0.123 0.035 0.226 0.117 0.288 0.229z"></path>
<path fill="rgb(242, 100, 117)" d="M8.433 10.754c0.048 0.086 0.059 0.186 0.032 0.281-0.024 0.084-0.193 0.292-0.322 0.396-0.084 0.067-0.146 0.092-0.198 0.077-0.027-0.008 0.151-0.964 0.267-0.93 0.095 0.027 0.173 0.090 0.221 0.176z"></path>
<path fill="rgb(227, 59, 72)" d="M5.86 9.115c0.128-0.021 0.257 0.009 0.363 0.085 0.094 0.067 0.277 0.369 0.35 0.576 0.047 0.134 0.050 0.223 0.008 0.28-0.021 0.030-0.086 0.12-0.474 0.065-0.169-0.024-0.379-0.076-0.452-0.129-0.082-0.059-0.143-0.14-0.176-0.235-0.053-0.15-0.029-0.317 0.064-0.445 0.076-0.106 0.188-0.176 0.317-0.197z"></path>
<path fill="rgb(242, 100, 117)" d="M5.891 9.245c0.099-0.016 0.198 0.007 0.279 0.065 0.072 0.052 0.213 0.284 0.269 0.443 0.036 0.103 0.038 0.171 0.007 0.215-0.016 0.023-0.869-0.473-0.798-0.572 0.058-0.081 0.145-0.135 0.244-0.151z"></path>
<path fill="rgb(227, 59, 72)" d="M8.501 12.876c0.051 0.111 0.055 0.236 0.012 0.35-0.038 0.102-0.267 0.341-0.438 0.458-0.11 0.075-0.19 0.099-0.252 0.076-0.032-0.012-0.13-0.049-0.174-0.415-0.019-0.159-0.023-0.362 0.007-0.441 0.033-0.089 0.092-0.164 0.17-0.217 0.123-0.084 0.28-0.103 0.42-0.051 0.115 0.043 0.205 0.128 0.256 0.239z"></path>
<path fill="rgb(242, 100, 117)" d="M8.391 12.935c0.039 0.086 0.042 0.181 0.009 0.269-0.029 0.078-0.206 0.262-0.336 0.352-0.084 0.058-0.146 0.076-0.194 0.058-0.025-0.009 0.217-0.904 0.324-0.863 0.088 0.033 0.158 0.098 0.197 0.184z"></path>
<path fill="rgb(227, 59, 72)" d="M8.862 10.834c0.059-0.123 0.163-0.216 0.292-0.261 0.115-0.040 0.485-0.015 0.707 0.048 0.143 0.040 0.221 0.092 0.246 0.162 0.013 0.036 0.051 0.147-0.231 0.447-0.123 0.131-0.294 0.279-0.383 0.31-0.1 0.035-0.206 0.038-0.308 0.009-0.161-0.045-0.289-0.166-0.344-0.324-0.045-0.129-0.037-0.268 0.022-0.391z"></path>
<path fill="rgb(242, 100, 117)" d="M8.992 10.886c0.046-0.095 0.125-0.166 0.225-0.201 0.088-0.031 0.373-0.012 0.543 0.037 0.11 0.031 0.17 0.071 0.189 0.124 0.010 0.028-0.931 0.462-0.974 0.341-0.035-0.099-0.029-0.206 0.017-0.301z"></path>
<path fill="rgb(227, 59, 72)" d="M10.797 11.784c0.027 0.155-0.007 0.31-0.097 0.439-0.080 0.114-0.441 0.339-0.69 0.429-0.161 0.058-0.268 0.063-0.337 0.014-0.036-0.025-0.146-0.102-0.084-0.571 0.027-0.204 0.087-0.457 0.149-0.546 0.070-0.099 0.167-0.174 0.281-0.215 0.18-0.065 0.381-0.039 0.538 0.071 0.129 0.090 0.214 0.225 0.242 0.379z"></path>
<path fill="rgb(242, 100, 117)" d="M10.641 11.823c0.021 0.119-0.006 0.239-0.075 0.337-0.062 0.088-0.339 0.261-0.53 0.33-0.123 0.045-0.206 0.048-0.259 0.011-0.028-0.019 0.558-1.054 0.678-0.97 0.099 0.069 0.165 0.173 0.186 0.291z"></path>
</svg>
