<?xml version="1.0" encoding="utf-8"?>
<!-- Generated by IcoMoon.io -->
<!DOCTYPE svg PUBLIC "-//W3C//DTD SVG 1.1//EN" "http://www.w3.org/Graphics/SVG/1.1/DTD/svg11.dtd">
<svg version="1.1" xmlns="http://www.w3.org/2000/svg" xmlns:xlink="http://www.w3.org/1999/xlink" width="20" height="20" viewBox="0 0 20 20">
<path fill="rgb(51, 77, 92)" d="M19.691 10c0 5.352-4.339 9.691-9.691 9.691s-9.691-4.339-9.691-9.691 4.339-9.691 9.691-9.691c5.352 0 9.691 4.339 9.691 9.691z"></path>
<path fill="rgb(198, 197, 197)" d="M13.091 12.867c0 0 0.715-2.324-2.122-5.429s-6.055-2.658-6.055-2.658-1.117 2.86 1.922 5.943c3.038 3.083 6.255 2.145 6.255 2.145z"></path>
<path fill="rgb(198, 197, 197)" d="M17.090 13.203c0 0-3.083-1.117-3.999-0.335s0.425 3.82 0.425 3.82 1.184-2.033 1.117-2.234c-0.067-0.201 1.921-0.536 2.458-1.251z"></path>
<path fill="rgb(246, 246, 245)" d="M9.136 5.964c0 0 0.112 0.961-1.14 2.212s-2.234 1.162-2.234 1.162-1.653-2.547-0.849-4.557c1.854-0.246 4.223 1.184 4.223 1.184z"></path>
</svg>
