<?xml version="1.0" encoding="utf-8"?>
<!-- Generated by IcoMoon.io -->
<!DOCTYPE svg PUBLIC "-//W3C//DTD SVG 1.1//EN" "http://www.w3.org/Graphics/SVG/1.1/DTD/svg11.dtd">
<svg version="1.1" xmlns="http://www.w3.org/2000/svg" xmlns:xlink="http://www.w3.org/1999/xlink" width="20" height="20" viewBox="0 0 20 20">
<path fill="rgb(250, 188, 61)" d="M19.691 10c0 5.352-4.338 9.691-9.691 9.691s-9.691-4.339-9.691-9.691c0-5.352 4.338-9.691 9.691-9.691s9.691 4.339 9.691 9.691z"></path>
<path fill="rgb(255, 255, 255)" d="M3.439 11.343c-0.003-0.009-0.005-0.019-0.008-0.028-0.101-0.287-0.416-0.438-0.704-0.338s-0.439 0.416-0.338 0.704c0.087 0.247 0.332 0.393 0.582 0.365-0.212 0.135-0.313 0.402-0.226 0.649 0.101 0.288 0.416 0.439 0.704 0.338s0.439-0.417 0.338-0.704l2.454-0.862-0.347-0.987-2.455 0.863z"></path>
<path fill="rgb(183, 32, 66)" d="M13.683 8.282c0.566 1.612-0.281 3.379-1.894 3.945s-5.481 1.633-6.415-1.026c-0.886-2.522 2.75-4.247 4.363-4.813s3.379 0.281 3.946 1.894z"></path>
<path fill="rgb(208, 66, 91)" d="M13.286 8.421c0.489 1.393-0.243 2.919-1.636 3.408s-2.919-0.243-3.408-1.636c-0.489-1.393 0.243-2.919 1.636-3.408s2.919 0.243 3.408 1.636z"></path>
<path fill="rgb(255, 255, 255)" d="M11.23 9.144c0.090 0.257-0.045 0.539-0.302 0.63s-0.539-0.045-0.63-0.302c-0.090-0.258 0.045-0.539 0.302-0.63s0.539 0.045 0.63 0.302z"></path>
<path fill="rgb(210, 41, 70)" d="M13.734 7.987c-0.046 0.016-0.091 0.033-0.136 0.051-0.046 0.014-0.093 0.029-0.139 0.045-1.529 0.538-2.333 2.213-1.796 3.742s2.213 2.333 3.742 1.796c0.046-0.016 0.091-0.033 0.136-0.052 0.046-0.014 0.092-0.028 0.138-0.045 1.529-0.537 2.334-2.212 1.796-3.742s-2.213-2.333-3.742-1.796z"></path>
<path fill="rgb(225, 82, 99)" d="M17.229 9.869c0.489 1.393-0.243 2.919-1.636 3.408s-2.919-0.243-3.408-1.636c-0.489-1.393 0.243-2.919 1.636-3.408s2.919 0.243 3.408 1.636z"></path>
<path fill="rgb(255, 255, 255)" d="M15.173 10.592c0.090 0.257-0.045 0.539-0.302 0.63s-0.539-0.045-0.63-0.302c-0.090-0.257 0.045-0.539 0.302-0.63s0.539 0.045 0.63 0.302z"></path>
</svg>
