<?xml version="1.0" encoding="utf-8"?>
<!-- Generator: Adobe Illustrator 16.0.0, SVG Export Plug-In . SVG Version: 6.00 Build 0)  -->
<!DOCTYPE svg PUBLIC "-//W3C//DTD SVG 1.1//EN" "http://www.w3.org/Graphics/SVG/1.1/DTD/svg11.dtd">
<svg version="1.1" id="Layer_1" xmlns="http://www.w3.org/2000/svg" xmlns:xlink="http://www.w3.org/1999/xlink" x="0px" y="0px"
	 width="20px" height="20px" viewBox="0 0 20 20" enable-background="new 0 0 20 20" xml:space="preserve">
<g>
	<path fill="#22A85B" d="M19.69,10.001c0-5.353-4.34-9.691-9.69-9.691s-9.69,4.338-9.69,9.691c0,5.352,4.339,9.689,9.69,9.689
		C15.353,19.69,19.69,15.353,19.69,10.001z"/>
	<path fill="#E2D0B3" d="M11.731,13.795c0,0.235-0.178,0.427-0.396,0.427H8.663c-0.219,0-0.396-0.191-0.396-0.427l-0.251-3.377
		c0-0.236,0.305-0.427,0.541-0.427h2.883c0.235,0,0.541,0.19,0.541,0.427l-0.252,3.377H11.731z"/>
	<path fill="#CCBBA3" d="M11.878,11.815H8.12l-1.05-0.616c0-0.259,5.858-0.259,5.858,0L11.878,11.815z"/>
	<path fill="#E2D0B3" d="M14.774,9.111c0,2.638-2.139,2.221-4.775,2.221s-4.774,0.417-4.774-2.221c0-2.637,2.138-4.043,4.774-4.043
		S14.774,6.475,14.774,9.111z"/>
</g>
</svg>
