<?xml version="1.0" encoding="utf-8"?>
<!-- Generated by IcoMoon.io -->
<!DOCTYPE svg PUBLIC "-//W3C//DTD SVG 1.1//EN" "http://www.w3.org/Graphics/SVG/1.1/DTD/svg11.dtd">
<svg version="1.1" xmlns="http://www.w3.org/2000/svg" xmlns:xlink="http://www.w3.org/1999/xlink" width="20" height="20" viewBox="0 0 20 20">
<path fill="rgb(234, 73, 73)" d="M10 19.69c5.337 0 9.691-4.353 9.691-9.69s-4.353-9.69-9.691-9.69c-5.337-0-9.69 4.353-9.69 9.69s4.353 9.69 9.69 9.69z"></path>
<path fill="rgb(255, 211, 147)" d="M14.397 13.888l-2.758-8.225c-0.045-0.547-0.229-1.207-0.534-1.782-0.118-0.222-0.236-0.431-0.963-0.133-3.352 1.378-5.943 4.19-6.889 7.677-0.076 0.28-0.263 0.852 0.596 1.151 0.448 0.156 0.962 0.227 1.437 0.23l8.463 1.757 0.649-0.676z"></path>
<path fill="rgb(128, 49, 26)" d="M14.492 14.158c-0.95-2.834-1.901-5.67-2.852-8.504-0.564 0.189-1.102 0.427-1.611 0.71-0.81-0.432-1.244-0.065-1.377 0.929-0.868 0.702-1.608 1.551-2.185 2.507-0.936 0.291-1.278 0.795-0.769 1.589-0.172 0.459-0.31 0.934-0.412 1.422l8.717 1.81c0.336 0.069 0.597-0.139 0.488-0.463z"></path>
<path fill="rgb(255, 211, 147)" d="M14.010 12.736c0.066-0.354-0.039-0.645-0.295-0.881-0.287 0.066-0.579 0.133-0.87 0.196-0.014-0.658-0.069-1.255-0.194-1.716-0.039-0.142-0.071-0.29-0.097-0.445 0.158-0.023 0.318-0.047 0.478-0.070 0.022-0.323-0.063-0.622-0.298-0.889-0.091 0.013-0.181 0.026-0.272 0.039-0.011-0.275-0.012-0.562-0.003-0.86-0.068-0.892-0.364-1.614-0.759-2.262-0.121 1.152-0.218 2.263-0.168 3.252-0.278 0.039-0.537 0.074-0.806 0.106v0.932c0.269-0.034 0.588-0.074 0.902-0.117 0.032 0.193 0.078 0.38 0.126 0.559 0.115 0.42 0.152 1.003 0.158 1.658-0.417 0.077-0.917 0.14-1.186 0.175v0.927c0.269-0.033 0.768-0.090 1.176-0.162-0.011 0.328-0.022 0.663-0.040 0.995 0.301 0.197 0.608 0.247 0.917 0.19 0.025-0.453 0.049-0.916 0.060-1.366 0.391-0.083 0.786-0.173 1.17-0.262zM10.727 9.207c-0.269 0.051-0.759 0.092-1.051 0.117-0.029 0.003-0.054 0.006-0.084 0.008 0.050-0.872 0.163-1.87 0.283-2.888-0.582-0.422-1.21 0.254-1.009 0.672-0.093 0.831-0.17 1.633-0.204 2.357-0.711 0.136-1.512 0.345-2.35 0.581-0.753-0.068-0.905 1.027-0.536 1.118 1.026-0.3 2.020-0.577 2.869-0.752 0.003 0.197 0.012 0.384 0.027 0.559 0.032 0.38 0.058 0.884 0.079 1.45-0.857 0.062-1.801 0.264-2.786 0.522 0.745 0.303 1.493 0.482 2.248 0.467 0.195-0.028 0.384-0.049 0.568-0.063l0.005 0.182c0.305 0.226 0.615 0.285 0.929 0.193-0.003-0.126-0.006-0.251-0.010-0.375l0.007 0.002c0.298 0.029 0.745 0.022 1.014-0.012v-0.927c-0.269 0.035-0.661 0.045-0.924 0.019-0.045-0.004-0.086-0.008-0.131-0.011-0.022-0.596-0.046-1.126-0.080-1.521-0.016-0.195-0.023-0.408-0.024-0.636 0.066-0.008 0.121-0.015 0.184-0.020 0.273-0.023 0.706-0.060 0.975-0.108v-0.932z"></path>
</svg>
