<?xml version="1.0" encoding="utf-8"?>
<!-- Generated by IcoMoon.io -->
<!DOCTYPE svg PUBLIC "-//W3C//DTD SVG 1.1//EN" "http://www.w3.org/Graphics/SVG/1.1/DTD/svg11.dtd">
<svg version="1.1" xmlns="http://www.w3.org/2000/svg" xmlns:xlink="http://www.w3.org/1999/xlink" width="20" height="20" viewBox="0 0 20 20">
<path fill="rgb(52, 78, 93)" d="M19.691 10c0 5.352-4.339 9.691-9.691 9.691s-9.691-4.338-9.691-9.691c0-5.352 4.339-9.69 9.691-9.69s9.691 4.339 9.691 9.69z"></path>
<path fill="rgb(139, 197, 65)" d="M13.203 9.618l-0.351-0.317-0.35-0.313c-0.076 0.088-1.381 1.598-2.151 4.009 0.15-2.004 0.367-3.502 0.371-3.525l-0.922-0.136c-0.004 0.024-0.236 1.625-0.389 3.744-0.474-3.389-1.589-4.182-1.747-4.279l-0.485 0.815c0.016 0.010 1.512 1.27 1.512 6.923h2.036c0-4.038 2.45-6.895 2.476-6.923z"></path>
<path fill="rgb(61, 180, 74)" d="M15.083 8.287c0-0.278-0.086-0.536-0.234-0.749 0.064-0.178 0.099-0.369 0.099-0.569 0-0.934-0.757-1.692-1.69-1.692-0.103 0-0.204 0.011-0.303 0.029 0.121-0.183 0.193-0.401 0.193-0.637 0-0.642-0.522-1.163-1.163-1.163-0.158 0-0.309 0.032-0.445 0.089-0.18-0.061-0.371-0.095-0.57-0.095-0.691 0-1.288 0.397-1.579 0.974-0.191-0.089-0.405-0.14-0.63-0.14-0.635 0-1.175 0.395-1.394 0.952-0.035-0.002-0.069-0.005-0.105-0.005-0.871 0-1.577 0.706-1.577 1.577 0 0.113 0.012 0.222 0.035 0.328-0.369 0.201-0.621 0.586-0.621 1.035 0 0.653 0.529 1.183 1.183 1.183 0.201 0 0.389-0.055 0.555-0.145 0.157 0.284 0.406 0.51 0.707 0.638 0.175 0.48 0.631 0.825 1.171 0.825 0.344 0 0.655-0.139 0.881-0.364 0.188 0.13 0.416 0.206 0.662 0.206 0.498 0 0.921-0.311 1.091-0.75 0.193 0.124 0.422 0.198 0.668 0.198 0.351 0 0.667-0.149 0.894-0.384 0.073 0.373 0.402 0.655 0.794 0.655 0.449 0 0.811-0.363 0.811-0.812 0-0.033-0.006-0.064-0.009-0.095 0.346-0.238 0.574-0.636 0.574-1.088z"></path>
<path fill="rgb(9, 146, 71)" d="M13.229 8.804c-0.125 0.025-0.258 0.039-0.4 0.039-0.146 0-0.282-0.015-0.41-0.042-0.271 0.219-0.629 0.357-1.078 0.357-0.023 0-0.045-0.002-0.068-0.003-0.273 0.436-0.745 0.746-1.419 0.746-0.515 0-0.912-0.182-1.193-0.463-0.581-0.058-0.995-0.36-1.238-0.767-1.197-0.584-1.22-2.5-0.073-3.139 0.009-0.107 0.024-0.213 0.051-0.317-0.011 0.023-0.024 0.045-0.034 0.069-0.035-0.002-0.069-0.005-0.105-0.005-0.871 0-1.577 0.706-1.577 1.577 0 0.113 0.012 0.222 0.034 0.328-0.368 0.2-0.62 0.586-0.62 1.035 0 0.653 0.529 1.183 1.183 1.183 0.201 0 0.388-0.056 0.555-0.145 0.157 0.284 0.405 0.51 0.707 0.638 0.175 0.479 0.631 0.824 1.171 0.824 0.344 0 0.655-0.139 0.882-0.364 0.188 0.13 0.416 0.206 0.662 0.206 0.498 0 0.921-0.312 1.091-0.75 0.193 0.124 0.422 0.198 0.668 0.198 0.351 0 0.667-0.149 0.894-0.384 0.073 0.373 0.402 0.655 0.794 0.655 0.132 0 0.256-0.035 0.366-0.091-0.516-0.284-0.8-0.824-0.845-1.387z"></path>
</svg>
