<?xml version="1.0" encoding="utf-8"?>
<!-- Generated by IcoMoon.io -->
<!DOCTYPE svg PUBLIC "-//W3C//DTD SVG 1.1//EN" "http://www.w3.org/Graphics/SVG/1.1/DTD/svg11.dtd">
<svg version="1.1" xmlns="http://www.w3.org/2000/svg" xmlns:xlink="http://www.w3.org/1999/xlink" width="20" height="20" viewBox="0 0 20 20">
<path fill="rgb(250, 188, 61)" d="M0.309 10c0-5.352 4.339-9.691 9.691-9.691s9.691 4.338 9.691 9.691c0 5.352-4.339 9.691-9.691 9.691s-9.691-4.339-9.691-9.691z"></path>
<path fill="rgb(247, 235, 227)" d="M17.136 11.645c-0.076 1.962-3.971 3.482-7.518 3.482-3.771 0-7.361-2.19-6.769-4.304 0.041-0.146-0.331-1.981 0.038-2.136 1.108-0.465 3.633 1.408 6.657 1.408 3.256 0 6.053-2.633 7.399-1.726 0.321 0.216 0.203 3.007 0.193 3.276z"></path>
<path fill="rgb(244, 208, 174)" d="M16.943 8.369c1.183 2.24-3.268 4.587-7.3 4.587s-7.884-2.841-6.61-5.031c1.578-2.713 2.479-0.296 6.511-0.296s6.018-1.874 7.399 0.74z"></path>
<path fill="rgb(149, 47, 37)" d="M16.655 8.428c1.135 2.148-3.134 4.398-6.999 4.398s-7.558-2.724-6.337-4.824c1.514-2.601 2.377-0.284 6.243-0.284s5.77-1.797 7.094 0.709z"></path>
<path fill="rgb(247, 235, 227)" d="M7.094 7.349c0 0 0.888 0.444 0.444 1.266 0 0 0.74-0.444 0.987-0.987l-1.43-0.279z"></path>
<path fill="rgb(247, 235, 227)" d="M12.865 8.895c0 0.264-0.383 0.477-0.855 0.477s-0.855-0.214-0.855-0.477c0-0.263 0.531-0.306 1.003-0.306s0.707 0.043 0.707 0.306z"></path>
</svg>
