<?xml version="1.0" encoding="utf-8"?>
<!-- Generated by IcoMoon.io -->
<!DOCTYPE svg PUBLIC "-//W3C//DTD SVG 1.1//EN" "http://www.w3.org/Graphics/SVG/1.1/DTD/svg11.dtd">
<svg version="1.1" xmlns="http://www.w3.org/2000/svg" xmlns:xlink="http://www.w3.org/1999/xlink" width="20" height="20" viewBox="0 0 20 20">
<path fill="rgb(50, 190, 166)" d="M0.309 10c0-5.352 4.339-9.691 9.69-9.691s9.691 4.338 9.691 9.691c0 5.352-4.339 9.691-9.691 9.691s-9.69-4.339-9.69-9.691z"></path>
<path fill="rgb(224, 185, 128)" d="M10.473 16.776c0 0.288-0.233 0.521-0.521 0.521h-0.065c-0.288 0-0.521-0.233-0.521-0.521v-5.206c0-0.288 0.233-0.521 0.521-0.521h0.065c0.288 0 0.521 0.233 0.521 0.521v5.206z"></path>
<path fill="rgb(224, 86, 99)" d="M12.75 12.401c0 0.493-1.007 0.893-2.711 0.893s-2.789-0.4-2.789-0.893c0 0 0.067-7.035 0.426-8.545 0.142-0.595 1.085-1.153 2.285-1.153s2.223 0.476 2.363 1.153c0.311 1.51 0.426 8.545 0.426 8.545z"></path>
<path fill="rgb(232, 112, 129)" d="M7.615 11.703c0 0 0.060-6.308 0.382-7.662 0.127-0.534 0.973-1.034 2.049-1.034s1.994 0.426 2.119 1.034c0.278 1.354-4.55 8.105-4.55 7.662z"></path>
</svg>
