<?xml version="1.0" encoding="utf-8"?>
<!-- Generated by IcoMoon.io -->
<!DOCTYPE svg PUBLIC "-//W3C//DTD SVG 1.1//EN" "http://www.w3.org/Graphics/SVG/1.1/DTD/svg11.dtd">
<svg version="1.1" xmlns="http://www.w3.org/2000/svg" xmlns:xlink="http://www.w3.org/1999/xlink" width="20" height="20" viewBox="0 0 20 20">
<path fill="rgb(234, 73, 73)" d="M19.691 10c0 5.352-4.339 9.691-9.691 9.691s-9.691-4.339-9.691-9.691 4.339-9.691 9.691-9.691c5.352 0 9.691 4.339 9.691 9.691z"></path>
<path fill="rgb(249, 170, 98)" d="M14.204 11.661c0 1.197-2.061 2.169-4.603 2.169s-4.602-0.971-4.602-2.169c0-1.198 2.060-2.168 4.602-2.168s4.603 0.971 4.603 2.168z"></path>
<path fill="rgb(252, 193, 133)" d="M14.204 11.262c0 1.198-2.061 2.169-4.603 2.169s-4.602-0.971-4.602-2.169c0-1.198 2.060-2.168 4.602-2.168s4.603 0.971 4.603 2.168z"></path>
<path fill="rgb(249, 170, 98)" d="M14.204 10.864c0 1.197-2.061 2.168-4.603 2.168s-4.602-0.971-4.602-2.168c0-1.198 2.060-2.169 4.602-2.169s4.603 0.971 4.603 2.169z"></path>
<path fill="rgb(252, 193, 133)" d="M14.204 10.465c0 1.198-2.061 2.168-4.603 2.168s-4.602-0.971-4.602-2.168 2.060-2.168 4.602-2.168c2.542 0 4.603 0.971 4.603 2.168z"></path>
<path fill="rgb(249, 170, 98)" d="M14.204 10.067c0 1.197-2.061 2.168-4.603 2.168s-4.602-0.971-4.602-2.168c0-1.198 2.060-2.169 4.602-2.169s4.603 0.971 4.603 2.169z"></path>
<path fill="rgb(252, 193, 133)" d="M14.204 9.668c0 1.198-2.061 2.168-4.603 2.168s-4.602-0.971-4.602-2.168 2.060-2.168 4.602-2.168c2.542 0 4.603 0.971 4.603 2.168z"></path>
<path fill="rgb(249, 170, 98)" d="M15.001 8.738c0 1.198-2.061 2.169-4.603 2.169s-4.602-0.971-4.602-2.169c0-1.198 2.060-2.168 4.602-2.168s4.603 0.971 4.603 2.168z"></path>
<path fill="rgb(252, 193, 133)" d="M15.001 8.339c0 1.197-2.061 2.168-4.603 2.168s-4.602-0.971-4.602-2.168c0-1.198 2.060-2.169 4.602-2.169s4.603 0.971 4.603 2.169z"></path>
<path fill="rgb(238, 136, 51)" d="M13.639 8.031c-0.254 0.802-1.636 0.976-2.157 1.338-0.295 0.205-0.929 0.622-1.083 0.947-0.386 0.814-0.248 3.515-0.797 3.515-0.825-0.001-0.583-0.017-0.718-0.027-0.099-0.007 1.065-2.766 0.603-3.535-0.491-0.815-3.282-0.985-3.282-1.929 0-1.091 1.877-1.976 4.194-1.976s3.57 0.628 3.241 1.668z"></path>
<path fill="rgb(228, 211, 28)" d="M12.699 7.455c0 0.318-0.614 0.576-1.372 0.576s-1.372-0.258-1.372-0.576c0-0.318 0.614-0.576 1.372-0.576s1.372 0.258 1.372 0.576z"></path>
<path fill="rgb(255, 241, 0)" d="M12.699 7.322c0 0.318-0.614 0.576-1.372 0.576s-1.372-0.258-1.372-0.576 0.614-0.576 1.372-0.576c0.758 0 1.372 0.258 1.372 0.576z"></path>
</svg>
