<?xml version="1.0" encoding="utf-8"?>
<!-- Generated by IcoMoon.io -->
<!DOCTYPE svg PUBLIC "-//W3C//DTD SVG 1.1//EN" "http://www.w3.org/Graphics/SVG/1.1/DTD/svg11.dtd">
<svg version="1.1" xmlns="http://www.w3.org/2000/svg" xmlns:xlink="http://www.w3.org/1999/xlink" width="20" height="20" viewBox="0 0 20 20">
<path fill="rgb(50, 190, 166)" d="M19.691 10c0-5.352-4.339-9.691-9.69-9.691s-9.691 4.338-9.691 9.691c0 5.352 4.339 9.69 9.691 9.69s9.69-4.339 9.69-9.69z"></path>
<path fill="rgb(171, 196, 91)" d="M15.943 8.122c0 0-1.892-2.114-5.902-2.114s-5.902 2.114-5.902 2.114 1.549 0.782 5.902 0.782 5.901-0.782 5.901-0.782z"></path>
<path fill="rgb(88, 132, 31)" d="M6.988 7.97c0 0.503-0.386 0.911-0.862 0.911s-0.862-0.408-0.862-0.911c0-0.503 0.386-0.911 0.862-0.911s0.862 0.408 0.862 0.911z"></path>
<path fill="rgb(205, 229, 128)" d="M6.922 7.97c0 0.464-0.356 0.841-0.796 0.841s-0.796-0.377-0.796-0.841c0-0.464 0.356-0.841 0.796-0.841s0.796 0.377 0.796 0.841z"></path>
<path fill="rgb(214, 232, 139)" d="M6.8 7.97c0 0.394-0.302 0.713-0.674 0.713s-0.674-0.319-0.674-0.713c0-0.394 0.302-0.713 0.674-0.713s0.674 0.319 0.674 0.713z"></path>
<path fill="rgb(184, 201, 115)" d="M6.54 7.793c-0.002-0.005-0.005-0.008-0.009-0.010s-0.009-0.001-0.013 0.002l-0.267 0.172c-0.005 0.003-0.007 0.008-0.007 0.014s0.003 0.011 0.007 0.014l0.266 0.176c0.002 0.002 0.005 0.002 0.008 0.002 0.002 0 0.003-0 0.005-0.001 0.004-0.002 0.008-0.005 0.009-0.010 0.042-0.116 0.042-0.244 0.001-0.36z"></path>
<path fill="rgb(184, 201, 115)" d="M6.483 8.214l-0.28-0.15c-0.005-0.003-0.010-0.002-0.015 0.001s-0.007 0.008-0.007 0.014l0.001 0.335c0 0.005 0.002 0.009 0.006 0.013 0.002 0.002 0.004 0.003 0.006 0.003s0.004 0.001 0.006 0c0.115-0.025 0.218-0.093 0.289-0.191 0.003-0.004 0.004-0.009 0.003-0.013s-0.004-0.009-0.008-0.011z"></path>
<path fill="rgb(184, 201, 115)" d="M6.2 7.883c0.001-0 0.002-0.001 0.003-0.001l0.281-0.154c0.004-0.002 0.007-0.006 0.008-0.011s-0-0.010-0.003-0.013c-0.072-0.098-0.175-0.165-0.29-0.188-0.004-0.001-0.009 0-0.013 0.003s-0.006 0.008-0.006 0.013l0 0.337c0 0.006 0.003 0.011 0.007 0.014 0.004 0.002 0.008 0.003 0.012 0.002z"></path>
<path fill="rgb(184, 201, 115)" d="M5.75 7.793c0.002-0.005 0.005-0.008 0.009-0.010s0.009-0.001 0.013 0.002l0.267 0.172c0.005 0.003 0.007 0.008 0.007 0.014s-0.003 0.011-0.007 0.014l-0.266 0.176c-0.002 0.002-0.005 0.002-0.008 0.002-0.002 0-0.003-0-0.005-0.001-0.004-0.002-0.008-0.005-0.009-0.010-0.042-0.116-0.042-0.244-0.001-0.36z"></path>
<path fill="rgb(184, 201, 115)" d="M5.807 8.214l0.28-0.15c0.005-0.003 0.011-0.002 0.015 0.001s0.007 0.008 0.007 0.014l-0.001 0.335c0 0.005-0.002 0.009-0.006 0.013-0.002 0.002-0.004 0.003-0.006 0.003s-0.004 0.001-0.006 0c-0.115-0.025-0.218-0.093-0.289-0.191-0.003-0.004-0.004-0.009-0.003-0.013s0.004-0.009 0.008-0.011z"></path>
<path fill="rgb(184, 201, 115)" d="M6.090 7.883c-0.001-0-0.002-0.001-0.003-0.001l-0.281-0.154c-0.004-0.002-0.007-0.006-0.008-0.011s0-0.010 0.003-0.013c0.072-0.098 0.175-0.165 0.29-0.188 0.004-0.001 0.009 0 0.013 0.003s0.006 0.008 0.006 0.013l-0 0.337c0 0.006-0.003 0.011-0.007 0.014-0.004 0.002-0.008 0.003-0.012 0.002z"></path>
<path fill="rgb(145, 188, 60)" d="M14.961 7.078c-0.384-0.278-1.314-0.156-1.314-0.156s0.229 0.96 0.614 1.238c0.384 0.278 0.699 0.15 0.892-0.149s0.192-0.655-0.192-0.933z"></path>
<path fill="rgb(180, 216, 91)" d="M13.712 6.969l1.857 1.277c0.024 0.016 0.030 0.050 0.015 0.075s-0.047 0.032-0.071 0.016c-0.001-0-0.001-0.001-0.002-0.001l-1.799-1.366z"></path>
<path fill="rgb(180, 216, 91)" d="M14.883 7.338l0.18 0.575c0.007 0.016 0.001 0.035-0.014 0.043s-0.033 0.001-0.040-0.014c-0.001-0.001-0.001-0.002-0.001-0.003l-0.124-0.6z"></path>
<path fill="rgb(180, 216, 91)" d="M14.469 7.199l0.201 0.44c0.005 0.011 0.001 0.024-0.010 0.030s-0.023 0.001-0.028-0.010c-0-0.001-0.001-0.001-0.001-0.002l-0.162-0.457z"></path>
<path fill="rgb(180, 216, 91)" d="M14.096 7.023l0.183 0.34c0.004 0.008 0 0.017-0.007 0.021s-0.017 0-0.020-0.008c-0-0-0-0.001-0-0.001l-0.156-0.352z"></path>
<path fill="rgb(180, 216, 91)" d="M14.462 7.989l0.574-0.095c0.017-0.001 0.030 0.013 0.031 0.031s-0.013 0.032-0.029 0.033c-0.001 0-0.002 0-0.004-0l-0.572 0.032z"></path>
<path fill="rgb(180, 216, 91)" d="M14.189 7.631l0.462-0.006c0.012-0 0.021 0.010 0.021 0.022s-0.009 0.022-0.021 0.023c-0.001 0-0.001 0-0.002-0l-0.461-0.038z"></path>
<path fill="rgb(180, 216, 91)" d="M13.899 7.328l0.367 0.025c0.008-0 0.015 0.007 0.015 0.016s-0.007 0.016-0.015 0.016c-0-0-0.001-0-0.001-0l-0.366-0.057z"></path>
<path fill="rgb(113, 140, 48)" d="M10.576 5.825c-0.42-0.213-1.321 0.057-1.321 0.057s0.365 0.912 0.784 1.125c0.42 0.213 0.712 0.036 0.86-0.291s0.096-0.678-0.324-0.891z"></path>
<path fill="rgb(105, 124, 44)" d="M9.325 5.917l2.019 0.964c0.026 0.012 0.037 0.044 0.026 0.072s-0.042 0.039-0.068 0.027c-0.001-0-0.002-0.001-0.002-0.001l-1.975-1.062z"></path>
<path fill="rgb(105, 124, 44)" d="M10.536 6.094l0.26 0.54c0.010 0.014 0.006 0.034-0.007 0.044s-0.032 0.007-0.042-0.008c-0.001-0.001-0.001-0.002-0.002-0.003l-0.209-0.573z"></path>
<path fill="rgb(105, 124, 44)" d="M10.106 6.023l0.262 0.403c0.007 0.010 0.004 0.024-0.005 0.031s-0.023 0.004-0.029-0.006c-0-0-0.001-0.001-0.001-0.002l-0.226-0.426z"></path>
<path fill="rgb(105, 124, 44)" d="M9.712 5.909l0.23 0.306c0.005 0.007 0.003 0.017-0.004 0.022s-0.016 0.003-0.021-0.004c-0-0-0-0.001-0.001-0.001l-0.204-0.323z"></path>
<path fill="rgb(105, 124, 44)" d="M10.213 6.805l0.554-0.186c0.016-0.003 0.032 0.008 0.035 0.026s-0.008 0.034-0.024 0.037c-0.001 0-0.002 0-0.003 0.001l-0.561 0.123z"></path>
<path fill="rgb(105, 124, 44)" d="M9.892 6.495l0.456-0.080c0.011-0.002 0.022 0.006 0.024 0.018s-0.006 0.024-0.017 0.026c-0.001 0-0.001 0-0.002 0l-0.461 0.036z"></path>
<path fill="rgb(105, 124, 44)" d="M9.561 6.242l0.366-0.034c0.008-0.001 0.016 0.005 0.017 0.013s-0.004 0.017-0.012 0.018c-0 0-0.001 0-0.001 0l-0.37 0.002z"></path>
<path fill="rgb(145, 188, 60)" d="M13.382 7.282c-0.384-0.278-1.314-0.156-1.314-0.156s0.23 0.96 0.614 1.238 0.699 0.149 0.892-0.149c0.193-0.299 0.192-0.655-0.192-0.933z"></path>
<path fill="rgb(180, 216, 91)" d="M12.133 7.173l1.857 1.277c0.024 0.016 0.030 0.050 0.015 0.075s-0.047 0.032-0.071 0.016c-0.001-0-0.001-0.001-0.002-0.001l-1.799-1.366z"></path>
<path fill="rgb(180, 216, 91)" d="M13.304 7.542l0.18 0.575c0.007 0.016 0.001 0.035-0.014 0.043s-0.033 0.001-0.040-0.014c-0.001-0.001-0.001-0.002-0.001-0.003l-0.124-0.6z"></path>
<path fill="rgb(180, 216, 91)" d="M12.889 7.402l0.201 0.44c0.005 0.011 0.001 0.024-0.010 0.030s-0.023 0.001-0.028-0.010c-0-0.001-0.001-0.001-0.001-0.002l-0.162-0.457z"></path>
<path fill="rgb(180, 216, 91)" d="M12.516 7.227l0.183 0.34c0.004 0.008 0 0.017-0.007 0.021s-0.017 0-0.020-0.008c-0-0-0-0.001-0-0.001l-0.156-0.352z"></path>
<path fill="rgb(180, 216, 91)" d="M12.882 8.193l0.574-0.095c0.017-0 0.030 0.013 0.031 0.031s-0.013 0.032-0.029 0.033c-0.001 0-0.002-0-0.003-0l-0.572 0.032z"></path>
<path fill="rgb(180, 216, 91)" d="M12.609 7.835l0.462-0.006c0.012-0 0.021 0.010 0.021 0.022s-0.009 0.022-0.021 0.023c-0.001 0-0.001 0-0.002-0l-0.461-0.038z"></path>
<path fill="rgb(180, 216, 91)" d="M12.319 7.532l0.367 0.025c0.008-0 0.015 0.007 0.015 0.016s-0.007 0.016-0.015 0.016c-0-0-0.001-0-0.001-0l-0.366-0.057z"></path>
<path fill="rgb(145, 188, 60)" d="M11.188 7.592c-0.179-0.537-1.124-1.095-1.124-1.095s-0.407 1.061-0.229 1.598c0.178 0.537 0.554 0.645 0.928 0.506s0.603-0.471 0.425-1.008z"></path>
<path fill="rgb(180, 216, 91)" d="M10.094 6.587l0.905 2.534c0.012 0.032-0.004 0.068-0.034 0.081s-0.065-0.004-0.076-0.036c-0-0.001-0.001-0.002-0.001-0.003l-0.793-2.575z"></path>
<path fill="rgb(180, 216, 91)" d="M10.948 7.778l-0.205 0.666c-0.003 0.020-0.021 0.033-0.040 0.030s-0.032-0.023-0.028-0.043c0-0.001 0.001-0.003 0.001-0.004l0.273-0.65z"></path>
<path fill="rgb(180, 216, 91)" d="M10.651 7.348l-0.098 0.555c-0.002 0.014-0.015 0.023-0.028 0.021s-0.022-0.016-0.019-0.030c0-0.001 0-0.002 0-0.002l0.145-0.544z"></path>
<path fill="rgb(180, 216, 91)" d="M10.417 6.915l-0.049 0.449c-0.002 0.010-0.011 0.017-0.020 0.015s-0.016-0.012-0.014-0.022c0-0.001 0-0.001 0-0.001l0.083-0.441z"></path>
<path fill="rgb(180, 216, 91)" d="M10.133 8.080l0.597 0.326c0.016 0.012 0.020 0.035 0.009 0.051s-0.033 0.021-0.049 0.009c-0.001-0.001-0.002-0.002-0.003-0.003l-0.554-0.384z"></path>
<path fill="rgb(180, 216, 91)" d="M10.11 7.549l0.435 0.328c0.011 0.008 0.014 0.024 0.006 0.036s-0.023 0.014-0.034 0.006c-0.001-0-0.001-0.001-0.002-0.001l-0.405-0.369z"></path>
<path fill="rgb(180, 216, 91)" d="M10.036 7.056l0.326 0.289c0.008 0.006 0.010 0.018 0.004 0.026s-0.017 0.010-0.024 0.004c-0-0-0.001-0.001-0.001-0.001l-0.304-0.318z"></path>
<path fill="rgb(145, 188, 60)" d="M7.971 7.757c-0.384-0.278-1.314-0.156-1.314-0.156s0.23 0.96 0.614 1.238c0.384 0.278 0.699 0.149 0.892-0.149s0.192-0.655-0.192-0.933z"></path>
<path fill="rgb(180, 216, 91)" d="M6.722 7.648l1.857 1.277c0.024 0.016 0.030 0.050 0.015 0.075s-0.047 0.032-0.071 0.016c-0.001-0-0.001-0.001-0.002-0.001l-1.799-1.366z"></path>
<path fill="rgb(180, 216, 91)" d="M7.893 8.017l0.18 0.575c0.007 0.016 0.001 0.035-0.014 0.043s-0.033 0.001-0.040-0.014c-0.001-0.001-0.001-0.002-0.001-0.003l-0.124-0.6z"></path>
<path fill="rgb(180, 216, 91)" d="M7.479 7.877l0.201 0.44c0.005 0.011 0.001 0.024-0.010 0.030s-0.023 0.001-0.028-0.011c-0-0.001-0.001-0.001-0.001-0.002l-0.162-0.457z"></path>
<path fill="rgb(180, 216, 91)" d="M7.106 7.702l0.183 0.34c0.004 0.008 0 0.017-0.007 0.021s-0.017 0-0.020-0.008c-0-0-0-0.001-0-0.001l-0.156-0.352z"></path>
<path fill="rgb(180, 216, 91)" d="M7.472 8.668l0.574-0.095c0.017-0 0.030 0.013 0.031 0.031s-0.013 0.032-0.029 0.033c-0.001 0-0.002-0-0.003-0l-0.572 0.032z"></path>
<path fill="rgb(180, 216, 91)" d="M7.199 8.31l0.462-0.006c0.012-0 0.021 0.010 0.021 0.022s-0.009 0.022-0.021 0.023c-0.001 0-0.001 0-0.002-0l-0.461-0.038z"></path>
<path fill="rgb(180, 216, 91)" d="M6.909 8.006l0.367 0.025c0.008-0 0.015 0.007 0.015 0.016s-0.007 0.016-0.015 0.016c-0-0-0.001-0-0.001-0l-0.366-0.057z"></path>
<path fill="rgb(145, 188, 60)" d="M9.351 8.017c0.276-0.426 0.154-1.456 0.154-1.456s-0.952 0.254-1.228 0.681c-0.276 0.426-0.148 0.774 0.148 0.989s0.65 0.213 0.925-0.213z"></path>
<path fill="rgb(180, 216, 91)" d="M9.459 6.633l-1.267 2.059c-0.016 0.026-0.049 0.034-0.074 0.017s-0.032-0.052-0.016-0.078c0-0.001 0.001-0.002 0.001-0.002l1.355-1.995z"></path>
<path fill="rgb(180, 216, 91)" d="M9.093 7.931l-0.571 0.199c-0.016 0.008-0.035 0.002-0.042-0.015s-0.001-0.037 0.014-0.045c0.001-0 0.002-0.001 0.003-0.001l0.596-0.138z"></path>
<path fill="rgb(180, 216, 91)" d="M9.231 7.471l-0.437 0.223c-0.011 0.006-0.024 0.001-0.030-0.011s-0.001-0.026 0.010-0.031c0.001-0 0.001-0.001 0.002-0.001l0.454-0.18z"></path>
<path fill="rgb(180, 216, 91)" d="M9.405 7.058l-0.337 0.203c-0.008 0.004-0.017 0-0.021-0.008s-0-0.018 0.008-0.022c0-0 0.001-0 0.001-0.001l0.349-0.172z"></path>
<path fill="rgb(180, 216, 91)" d="M8.447 7.464l0.095 0.637c0 0.018-0.013 0.034-0.031 0.034s-0.032-0.014-0.032-0.032c0-0.001 0-0.003 0-0.004l-0.031-0.634z"></path>
<path fill="rgb(180, 216, 91)" d="M8.802 7.161l0.006 0.512c0 0.013-0.010 0.024-0.022 0.024s-0.022-0.010-0.022-0.023c-0-0.001 0-0.001 0-0.002l0.038-0.511z"></path>
<path fill="rgb(180, 216, 91)" d="M9.103 6.839l-0.025 0.407c0 0.009-0.007 0.017-0.016 0.017s-0.016-0.007-0.016-0.017c0-0 0-0.001 0-0.001l0.057-0.406z"></path>
<path fill="rgb(145, 188, 60)" d="M11.704 9.505c0.233-0.36 0.131-1.231 0.131-1.231s-0.805 0.215-1.038 0.575c-0.233 0.36-0.125 0.655 0.125 0.836s0.549 0.18 0.782-0.18z"></path>
<path fill="rgb(180, 216, 91)" d="M11.795 8.334l-1.071 1.741c-0.014 0.022-0.042 0.028-0.063 0.014s-0.027-0.044-0.013-0.066c0-0.001 0.001-0.001 0.001-0.002l1.146-1.687z"></path>
<path fill="rgb(180, 216, 91)" d="M11.486 9.432l-0.483 0.168c-0.013 0.007-0.029 0.001-0.036-0.013s-0.001-0.031 0.012-0.038c0.001-0 0.002-0.001 0.003-0.001l0.504-0.117z"></path>
<path fill="rgb(180, 216, 91)" d="M11.603 9.044l-0.369 0.188c-0.009 0.005-0.020 0.001-0.025-0.009s-0.001-0.022 0.009-0.026c0-0 0.001-0 0.002-0.001l0.384-0.152z"></path>
<path fill="rgb(180, 216, 91)" d="M11.75 8.694l-0.285 0.172c-0.007 0.003-0.015 0-0.018-0.007s-0-0.015 0.006-0.019c0-0 0.001-0 0.001-0l0.295-0.146z"></path>
<path fill="rgb(180, 216, 91)" d="M10.94 9.037l0.080 0.538c0 0.016-0.011 0.029-0.026 0.029s-0.027-0.012-0.027-0.027c0-0.001 0-0.002 0-0.003l-0.027-0.536z"></path>
<path fill="rgb(180, 216, 91)" d="M11.24 8.781l0.005 0.433c0 0.011-0.008 0.020-0.018 0.020s-0.019-0.009-0.019-0.019c0-0.001 0-0.001 0-0.002l0.032-0.432z"></path>
<path fill="rgb(180, 216, 91)" d="M11.495 8.51l-0.021 0.344c0 0.008-0.006 0.014-0.013 0.014s-0.013-0.006-0.014-0.014c0-0 0-0.001 0-0.001l0.048-0.343z"></path>
<path fill="rgb(88, 132, 31)" d="M8.916 7.291c0 0.397-0.304 0.718-0.68 0.718s-0.68-0.322-0.68-0.718c0-0.397 0.304-0.718 0.68-0.718s0.68 0.322 0.68 0.718z"></path>
<path fill="rgb(205, 229, 128)" d="M8.864 7.291c0-0.366-0.281-0.663-0.627-0.663s-0.627 0.297-0.627 0.663c0 0.366 0.281 0.663 0.627 0.663s0.627-0.297 0.627-0.663z"></path>
<path fill="rgb(214, 232, 139)" d="M8.768 7.291c0 0.31-0.238 0.562-0.532 0.562s-0.532-0.252-0.532-0.562c0-0.31 0.238-0.562 0.532-0.562s0.532 0.252 0.532 0.562z"></path>
<path fill="rgb(184, 201, 115)" d="M8.563 7.151c-0.001-0.004-0.004-0.006-0.007-0.008s-0.007-0.001-0.010 0.001l-0.211 0.136c-0.004 0.002-0.006 0.006-0.006 0.011s0.002 0.009 0.006 0.011l0.21 0.139c0.002 0.001 0.004 0.002 0.006 0.002s0.003-0 0.004-0.001c0.003-0.001 0.006-0.004 0.007-0.008 0.033-0.091 0.033-0.192 0.001-0.284z"></path>
<path fill="rgb(184, 201, 115)" d="M8.518 7.483l-0.221-0.118c-0.004-0.002-0.008-0.002-0.012 0.001s-0.006 0.007-0.006 0.011l0.001 0.264c0 0.004 0.002 0.007 0.004 0.010 0.001 0.001 0.003 0.002 0.005 0.003s0.003 0 0.005 0c0.091-0.019 0.172-0.073 0.228-0.151 0.002-0.003 0.003-0.007 0.002-0.011s-0.003-0.007-0.006-0.009z"></path>
<path fill="rgb(184, 201, 115)" d="M8.294 7.221c0.001-0 0.002-0.001 0.003-0.001l0.222-0.122c0.003-0.002 0.006-0.005 0.006-0.009s-0-0.008-0.002-0.011c-0.057-0.077-0.138-0.13-0.229-0.149-0.004-0.001-0.007 0-0.010 0.003s-0.004 0.006-0.004 0.010l0 0.266c0 0.004 0.002 0.009 0.006 0.011s0.006 0.002 0.009 0.002z"></path>
<path fill="rgb(184, 201, 115)" d="M7.94 7.151c0.001-0.004 0.004-0.006 0.007-0.008s0.007-0.001 0.010 0.001l0.211 0.136c0.004 0.002 0.006 0.006 0.006 0.011s-0.002 0.009-0.006 0.011l-0.21 0.139c-0.002 0.001-0.004 0.002-0.006 0.002s-0.003-0-0.004-0.001c-0.003-0.001-0.006-0.004-0.007-0.008-0.033-0.091-0.033-0.192-0.001-0.284z"></path>
<path fill="rgb(184, 201, 115)" d="M7.985 7.483l0.221-0.118c0.004-0.002 0.008-0.002 0.012 0.001s0.006 0.007 0.006 0.011l-0.001 0.264c0 0.004-0.002 0.007-0.004 0.010-0.001 0.001-0.003 0.002-0.005 0.003s-0.003 0-0.005 0c-0.091-0.019-0.172-0.073-0.228-0.151-0.002-0.003-0.003-0.007-0.002-0.011s0.003-0.007 0.006-0.009z"></path>
<path fill="rgb(184, 201, 115)" d="M8.208 7.221c-0.001-0-0.002-0.001-0.003-0.001l-0.222-0.122c-0.003-0.002-0.006-0.005-0.006-0.009s0-0.008 0.002-0.011c0.057-0.077 0.138-0.13 0.229-0.149 0.004-0.001 0.007 0 0.010 0.003s0.004 0.006 0.004 0.010v0.266c0 0.004-0.002 0.009-0.006 0.011s-0.006 0.002-0.009 0.002z"></path>
<path fill="rgb(88, 132, 31)" d="M11.233 8.958c-0.059-0.445-0.448-0.756-0.869-0.694s-0.716 0.473-0.657 0.919c0.001 0.006 0.002 0.012 0.002 0.018l1.526-0.224c-0.001-0.006-0.001-0.012-0.002-0.018z"></path>
<path fill="rgb(205, 229, 128)" d="M11.174 8.967c-0.054-0.411-0.413-0.698-0.802-0.641s-0.661 0.437-0.606 0.848c0.001 0.006 0.002 0.012 0.002 0.018l1.408-0.207c-0.001-0.006-0.001-0.012-0.002-0.018z"></path>
<path fill="rgb(214, 232, 139)" d="M11.067 8.982c-0.046-0.348-0.35-0.592-0.68-0.543s-0.56 0.37-0.514 0.719c0.001 0.006 0.002 0.012 0.003 0.018l1.193-0.175c-0.001-0.006-0.001-0.012-0.002-0.018z"></path>
<path fill="rgb(184, 201, 115)" d="M10.572 8.696c0.004 0.001 0.007 0.004 0.009 0.008s0.002 0.008 0 0.012l-0.112 0.271c-0.002 0.004-0.006 0.008-0.011 0.009s-0.009-0.001-0.012-0.005l-0.18-0.227c-0.002-0.002-0.003-0.005-0.003-0.007-0-0.002-0-0.003 0-0.005 0.001-0.004 0.003-0.008 0.007-0.010 0.092-0.053 0.199-0.070 0.301-0.046z"></path>
<path fill="rgb(184, 201, 115)" d="M10.227 8.802l0.16 0.244c0.003 0.004 0.003 0.009 0.001 0.014s-0.006 0.008-0.011 0.009l-0.281 0.040c-0.004 0.001-0.008-0.001-0.011-0.004-0.002-0.002-0.003-0.003-0.004-0.006s-0.001-0.004-0.001-0.006c0.007-0.111 0.051-0.215 0.125-0.294 0.003-0.003 0.007-0.005 0.011-0.004s0.008 0.003 0.010 0.006z"></path>
<path fill="rgb(184, 201, 115)" d="M10.539 9.026c0-0.001 0-0.002 0.001-0.003l0.095-0.282c0.001-0.004 0.004-0.007 0.008-0.009s0.008-0.001 0.012 0.001c0.091 0.055 0.16 0.143 0.193 0.248 0.001 0.004 0.001 0.009-0.001 0.012s-0.006 0.006-0.010 0.007l-0.282 0.041c-0.005 0.001-0.010-0.001-0.013-0.005-0.002-0.003-0.003-0.007-0.003-0.011z"></path>
<path fill="rgb(88, 132, 31)" d="M9.498 6.63c0-0.503-0.216-0.911-0.483-0.911s-0.483 0.408-0.483 0.911c0 0.007 0 0.013 0 0.020h0.965c0-0.007 0-0.013 0-0.020z"></path>
<path fill="rgb(205, 229, 128)" d="M9.46 6.63c0-0.464-0.199-0.841-0.446-0.841s-0.445 0.377-0.445 0.841c0 0.007 0 0.013 0 0.020h0.891c-0-0.007 0-0.013 0-0.020z"></path>
<path fill="rgb(214, 232, 139)" d="M9.392 6.63c0-0.394-0.169-0.713-0.377-0.713s-0.377 0.319-0.377 0.713c0 0.007 0 0.013 0 0.020h0.754c0-0.007 0-0.013 0-0.020z"></path>
<path fill="rgb(184, 201, 115)" d="M9.109 6.232c0.002 0.002 0.004 0.005 0.005 0.010s0.001 0.010-0.001 0.014l-0.091 0.282c-0.002 0.005-0.004 0.008-0.007 0.008s-0.006-0.003-0.007-0.008l-0.093-0.281c-0.001-0.003-0.001-0.006-0.001-0.009 0-0.002 0-0.003 0-0.005 0.001-0.005 0.003-0.008 0.005-0.010 0.061-0.044 0.129-0.045 0.191-0.001z"></path>
<path fill="rgb(184, 201, 115)" d="M8.886 6.292l0.079 0.296c0.001 0.005 0.001 0.011-0 0.016s-0.004 0.008-0.007 0.008l-0.178-0.001c-0.003 0-0.005-0.002-0.007-0.006-0.001-0.002-0.001-0.004-0.002-0.007s-0-0.005-0-0.007c0.013-0.122 0.049-0.23 0.101-0.305 0.002-0.003 0.005-0.004 0.007-0.003s0.005 0.004 0.006 0.009z"></path>
<path fill="rgb(184, 201, 115)" d="M9.061 6.592c0-0.001 0-0.002 0.001-0.004l0.082-0.297c0.001-0.004 0.003-0.007 0.006-0.008s0.005 0 0.007 0.003c0.052 0.076 0.087 0.185 0.1 0.307 0.001 0.005-0 0.010-0.002 0.013s-0.004 0.006-0.007 0.006l-0.178-0c-0.003 0-0.006-0.003-0.007-0.008-0.001-0.004-0.002-0.008-0.001-0.012z"></path>
<path fill="rgb(113, 140, 48)" d="M13.317 7.655c0.487-0.181 0.993-1.139 0.993-1.139s-0.962-0.413-1.449-0.232c-0.487 0.181-0.584 0.562-0.459 0.94s0.427 0.611 0.914 0.43z"></path>
<path fill="rgb(105, 124, 44)" d="M14.229 6.547l-2.297 0.917c-0.029 0.012-0.062-0.004-0.073-0.035s0.004-0.066 0.033-0.077c0.001-0 0.002-0.001 0.003-0.001l2.334-0.803z"></path>
<path fill="rgb(105, 124, 44)" d="M13.149 7.411l-0.604-0.208c-0.018-0.003-0.030-0.022-0.027-0.041s0.020-0.032 0.039-0.029c0.001 0 0.003 0 0.004 0.001l0.589 0.276z"></path>
<path fill="rgb(105, 124, 44)" d="M13.539 7.112l-0.504-0.099c-0.013-0.002-0.021-0.015-0.019-0.029s0.015-0.022 0.027-0.020c0.001 0 0.001 0 0.002 0l0.493 0.147z"></path>
<path fill="rgb(105, 124, 44)" d="M13.932 6.874l-0.407-0.050c-0.009-0.002-0.015-0.011-0.013-0.021s0.011-0.016 0.020-0.014c0 0 0.001 0 0.001 0l0.4 0.084z"></path>
<path fill="rgb(105, 124, 44)" d="M12.875 6.587l-0.296 0.605c-0.011 0.016-0.031 0.020-0.046 0.009s-0.019-0.033-0.008-0.049c0.001-0.001 0.002-0.002 0.002-0.003l0.349-0.561z"></path>
<path fill="rgb(105, 124, 44)" d="M13.356 6.563l-0.298 0.44c-0.007 0.011-0.022 0.014-0.033 0.006s-0.013-0.023-0.005-0.034c0-0.001 0.001-0.001 0.001-0.002l0.334-0.41z"></path>
<path fill="rgb(105, 124, 44)" d="M13.803 6.489l-0.262 0.33c-0.005 0.008-0.016 0.010-0.023 0.004s-0.009-0.017-0.004-0.025c0-0 0.001-0.001 0.001-0.001l0.288-0.308z"></path>
<path fill="rgb(88, 132, 31)" d="M14.56 6.883c-0.434-0.206-0.875-0.165-0.984 0.092s0.154 0.632 0.589 0.838c0.006 0.003 0.011 0.005 0.017 0.008l0.395-0.931c-0.006-0.003-0.011-0.006-0.017-0.008z"></path>
<path fill="rgb(205, 229, 128)" d="M14.545 6.919c-0.401-0.19-0.808-0.152-0.908 0.085s0.143 0.584 0.543 0.774c0.006 0.003 0.012 0.005 0.017 0.008l0.365-0.859c-0.006-0.003-0.011-0.006-0.017-0.008z"></path>
<path fill="rgb(214, 232, 139)" d="M14.517 6.985c-0.34-0.161-0.684-0.129-0.77 0.072s0.121 0.495 0.46 0.656c0.006 0.003 0.011 0.005 0.017 0.008l0.309-0.728c-0.006-0.003-0.011-0.006-0.017-0.008z"></path>
<path fill="rgb(184, 201, 115)" d="M14.057 7.096c0.002-0.002 0.006-0.002 0.011-0.001s0.009 0.003 0.012 0.006l0.206 0.204c0.004 0.004 0.005 0.007 0.004 0.010s-0.005 0.004-0.010 0.004l-0.281-0.025c-0.003-0-0.005-0.001-0.008-0.002-0.001-0.001-0.003-0.002-0.004-0.002-0.004-0.003-0.006-0.006-0.007-0.009-0.013-0.077 0.014-0.143 0.077-0.185z"></path>
<path fill="rgb(184, 201, 115)" d="M14.018 7.335l0.288 0.045c0.005 0.001 0.010 0.003 0.014 0.007s0.005 0.007 0.004 0.010l-0.074 0.171c-0.001 0.002-0.004 0.004-0.008 0.004-0.002 0-0.004-0-0.007-0.001s-0.004-0.002-0.006-0.003c-0.1-0.062-0.178-0.142-0.222-0.223-0.002-0.003-0.002-0.006 0-0.008s0.006-0.003 0.010-0.002z"></path>
<path fill="rgb(184, 201, 115)" d="M14.349 7.289c-0.001-0.001-0.002-0.001-0.003-0.002l-0.223-0.201c-0.003-0.003-0.005-0.006-0.005-0.009s0.002-0.005 0.006-0.006c0.087-0.019 0.195-0.009 0.306 0.029 0.004 0.001 0.008 0.004 0.011 0.007s0.003 0.006 0.002 0.009l-0.073 0.172c-0.001 0.003-0.005 0.004-0.010 0.004-0.004-0-0.008-0.002-0.011-0.004z"></path>
<path fill="rgb(88, 132, 31)" d="M12.262 7.431c0 0.397-0.304 0.718-0.68 0.718s-0.68-0.322-0.68-0.718c0-0.397 0.304-0.718 0.68-0.718s0.68 0.322 0.68 0.718z"></path>
<path fill="rgb(205, 229, 128)" d="M12.21 7.431c0-0.366-0.281-0.663-0.627-0.663s-0.627 0.297-0.627 0.663c0 0.366 0.281 0.663 0.627 0.663s0.627-0.297 0.627-0.663z"></path>
<path fill="rgb(214, 232, 139)" d="M12.114 7.431c0 0.31-0.238 0.562-0.532 0.562s-0.532-0.252-0.532-0.562c0-0.31 0.238-0.562 0.532-0.562s0.532 0.252 0.532 0.562z"></path>
<path fill="rgb(184, 201, 115)" d="M11.909 7.291c-0.001-0.004-0.004-0.006-0.007-0.008s-0.007-0.001-0.010 0.001l-0.211 0.136c-0.004 0.002-0.006 0.006-0.006 0.011s0.002 0.009 0.006 0.011l0.21 0.139c0.002 0.001 0.004 0.002 0.006 0.002s0.003-0 0.004-0.001c0.003-0.001 0.006-0.004 0.007-0.008 0.033-0.091 0.033-0.192 0.001-0.284z"></path>
<path fill="rgb(184, 201, 115)" d="M11.864 7.623l-0.221-0.118c-0.004-0.002-0.008-0.002-0.012 0.001s-0.006 0.007-0.006 0.011l0.001 0.264c0 0.004 0.002 0.007 0.004 0.010 0.001 0.001 0.003 0.002 0.005 0.003s0.003 0.001 0.005 0c0.091-0.019 0.172-0.073 0.227-0.151 0.002-0.003 0.003-0.007 0.002-0.011s-0.003-0.007-0.006-0.009z"></path>
<path fill="rgb(184, 201, 115)" d="M11.641 7.362c0.001-0 0.002-0.001 0.003-0.001l0.222-0.122c0.003-0.002 0.006-0.005 0.006-0.009s-0-0.008-0.002-0.011c-0.057-0.077-0.138-0.13-0.229-0.149-0.004-0.001-0.007 0-0.010 0.003s-0.004 0.006-0.004 0.010l0 0.265c0 0.005 0.002 0.009 0.006 0.011s0.006 0.002 0.009 0.001z"></path>
<path fill="rgb(184, 201, 115)" d="M11.286 7.291c0.001-0.004 0.004-0.006 0.007-0.008s0.007-0.001 0.010 0.001l0.211 0.136c0.004 0.002 0.006 0.006 0.006 0.011s-0.002 0.009-0.006 0.011l-0.21 0.139c-0.002 0.001-0.004 0.002-0.006 0.002s-0.003-0-0.004-0.001c-0.003-0.001-0.006-0.004-0.007-0.008-0.033-0.091-0.033-0.192-0.001-0.284z"></path>
<path fill="rgb(184, 201, 115)" d="M11.331 7.623l0.221-0.118c0.004-0.002 0.008-0.002 0.012 0.001s0.006 0.007 0.006 0.011l-0.001 0.264c0 0.004-0.002 0.007-0.004 0.010-0.001 0.001-0.003 0.002-0.005 0.003s-0.003 0.001-0.005 0c-0.091-0.019-0.172-0.073-0.228-0.151-0.002-0.003-0.003-0.007-0.002-0.011s0.003-0.007 0.006-0.009z"></path>
<path fill="rgb(184, 201, 115)" d="M11.554 7.362c-0.001-0-0.002-0.001-0.003-0.001l-0.222-0.122c-0.003-0.002-0.006-0.005-0.006-0.009s0-0.008 0.002-0.011c0.057-0.077 0.138-0.13 0.229-0.149 0.004-0.001 0.007 0 0.010 0.003s0.004 0.006 0.004 0.010v0.265c0 0.005-0.002 0.009-0.006 0.011s-0.006 0.002-0.009 0.001z"></path>
<path fill="rgb(113, 140, 48)" d="M5.444 7.436c-0.511-0.259-1.607 0.069-1.607 0.069s0.444 1.109 0.954 1.368c0.511 0.259 0.866 0.044 1.046-0.353s0.117-0.825-0.394-1.084z"></path>
<path fill="rgb(105, 124, 44)" d="M3.922 7.548l2.456 1.173c0.031 0.015 0.045 0.054 0.031 0.087s-0.051 0.048-0.082 0.033c-0.001-0-0.002-0.001-0.003-0.001l-2.402-1.292z"></path>
<path fill="rgb(105, 124, 44)" d="M5.395 7.763l0.317 0.657c0.012 0.018 0.008 0.042-0.009 0.054s-0.039 0.008-0.051-0.009c-0.001-0.001-0.002-0.002-0.002-0.004l-0.254-0.698z"></path>
<path fill="rgb(105, 124, 44)" d="M4.873 7.677l0.318 0.49c0.008 0.012 0.005 0.029-0.007 0.038s-0.028 0.005-0.036-0.007c-0-0.001-0.001-0.001-0.001-0.002l-0.275-0.519z"></path>
<path fill="rgb(105, 124, 44)" d="M4.393 7.538l0.28 0.373c0.006 0.009 0.004 0.021-0.005 0.027s-0.020 0.004-0.025-0.005c-0-0-0.001-0.001-0.001-0.001l-0.249-0.393z"></path>
<path fill="rgb(105, 124, 44)" d="M5.002 8.628l0.674-0.227c0.020-0.004 0.039 0.010 0.043 0.031s-0.010 0.041-0.030 0.045c-0.001 0-0.003 0-0.004 0l-0.683 0.15z"></path>
<path fill="rgb(105, 124, 44)" d="M4.612 8.252l0.554-0.098c0.014-0.002 0.027 0.007 0.030 0.022s-0.007 0.029-0.021 0.031c-0.001 0-0.002 0-0.002 0l-0.561 0.044z"></path>
<path fill="rgb(105, 124, 44)" d="M4.21 7.943l0.446-0.041c0.010-0.002 0.019 0.006 0.021 0.016s-0.005 0.021-0.015 0.022c-0 0-0.001 0-0.001 0l-0.45 0.002z"></path>
<path fill="rgb(113, 140, 48)" d="M12.696 7.969c-0.495-0.251-1.556 0.067-1.556 0.067s0.429 1.074 0.924 1.325c0.494 0.251 0.839 0.042 1.013-0.342s0.113-0.799-0.381-1.050z"></path>
<path fill="rgb(105, 124, 44)" d="M11.223 8.078l2.378 1.136c0.030 0.014 0.044 0.052 0.030 0.084s-0.049 0.046-0.080 0.032c-0.001-0-0.002-0.001-0.003-0.001l-2.326-1.251z"></path>
<path fill="rgb(105, 124, 44)" d="M12.649 8.286l0.306 0.636c0.011 0.017 0.007 0.040-0.009 0.052s-0.038 0.008-0.050-0.009c-0.001-0.001-0.002-0.002-0.002-0.004l-0.246-0.675z"></path>
<path fill="rgb(105, 124, 44)" d="M12.143 8.202l0.308 0.474c0.008 0.012 0.005 0.028-0.006 0.037s-0.027 0.005-0.035-0.007c-0-0.001-0.001-0.001-0.001-0.002l-0.266-0.502z"></path>
<path fill="rgb(105, 124, 44)" d="M11.679 8.068l0.271 0.361c0.006 0.009 0.003 0.020-0.005 0.026s-0.019 0.004-0.025-0.005c-0-0-0.001-0.001-0.001-0.001l-0.241-0.381z"></path>
<path fill="rgb(105, 124, 44)" d="M12.268 9.123l0.653-0.219c0.019-0.004 0.038 0.010 0.041 0.030s-0.009 0.040-0.029 0.044c-0.001 0-0.003 0.001-0.004 0.001l-0.661 0.145z"></path>
<path fill="rgb(105, 124, 44)" d="M11.89 8.759l0.537-0.095c0.014-0.002 0.026 0.007 0.029 0.022s-0.007 0.028-0.020 0.030c-0.001 0-0.002 0-0.002 0l-0.543 0.043z"></path>
<path fill="rgb(105, 124, 44)" d="M11.501 8.46l0.432-0.040c0.010-0.002 0.019 0.005 0.020 0.015s-0.005 0.020-0.015 0.022c-0.001 0-0.001 0-0.001 0l-0.436 0.002z"></path>
<path fill="rgb(88, 132, 31)" d="M12.847 9.087c0.445-0.179 0.729-0.537 0.634-0.801s-0.532-0.332-0.977-0.153c-0.006 0.002-0.012 0.005-0.018 0.007l0.343 0.953c0.006-0.002 0.012-0.005 0.018-0.007z"></path>
<path fill="rgb(205, 229, 128)" d="M12.833 9.050c0.411-0.165 0.673-0.496 0.585-0.739s-0.491-0.306-0.902-0.141c-0.006 0.002-0.012 0.005-0.018 0.007l0.317 0.88c0.006-0.002 0.012-0.005 0.018-0.007z"></path>
<path fill="rgb(214, 232, 139)" d="M12.809 8.983c0.348-0.14 0.57-0.42 0.496-0.626s-0.416-0.26-0.764-0.12c-0.006 0.002-0.012 0.005-0.017 0.007l0.268 0.745c0.006-0.002 0.012-0.004 0.018-0.007z"></path>
<path fill="rgb(184, 201, 115)" d="M13.060 8.561c-0.001 0.003-0.003 0.006-0.007 0.009s-0.008 0.004-0.012 0.004l-0.282 0.010c-0.005 0-0.008-0.002-0.009-0.004s0-0.007 0.004-0.010l0.215-0.192c0.002-0.002 0.004-0.003 0.007-0.004 0.001-0.001 0.003-0.001 0.005-0.001 0.004-0.001 0.008-0 0.011 0.001 0.061 0.045 0.086 0.112 0.069 0.188z"></path>
<path fill="rgb(184, 201, 115)" d="M12.927 8.362l-0.234 0.184c-0.004 0.003-0.009 0.005-0.014 0.005s-0.008-0.002-0.009-0.004l-0.062-0.176c-0.001-0.002 0-0.006 0.003-0.009 0.001-0.002 0.003-0.003 0.005-0.004s0.004-0.002 0.006-0.002c0.112-0.030 0.221-0.033 0.306-0.008 0.003 0.001 0.005 0.003 0.005 0.006s-0.002 0.006-0.006 0.009z"></path>
<path fill="rgb(184, 201, 115)" d="M12.725 8.642c0.001-0 0.002-0.001 0.003-0.001l0.292-0.025c0.004-0 0.008 0.001 0.009 0.003s0.002 0.005-0 0.008c-0.049 0.078-0.133 0.152-0.236 0.208-0.004 0.002-0.009 0.003-0.012 0.003s-0.007-0.002-0.008-0.004l-0.063-0.176c-0.001-0.003 0.001-0.007 0.004-0.010s0.007-0.004 0.011-0.005z"></path>
<path fill="rgb(113, 140, 48)" d="M15.267 8.734c0.439-0.163 0.896-1.027 0.896-1.027s-0.868-0.372-1.307-0.209c-0.439 0.163-0.527 0.507-0.414 0.848s0.386 0.551 0.825 0.388z"></path>
<path fill="rgb(105, 124, 44)" d="M16.089 7.734l-2.073 0.827c-0.026 0.011-0.056-0.004-0.066-0.031s0.003-0.059 0.030-0.070c0.001-0 0.002-0.001 0.002-0.001l2.107-0.725z"></path>
<path fill="rgb(105, 124, 44)" d="M15.115 8.514l-0.545-0.187c-0.016-0.003-0.027-0.020-0.025-0.037s0.018-0.029 0.035-0.026c0.001 0 0.002 0 0.003 0.001l0.531 0.249z"></path>
<path fill="rgb(105, 124, 44)" d="M15.467 8.243l-0.454-0.089c-0.011-0.002-0.019-0.014-0.017-0.026s0.013-0.020 0.025-0.018c0.001 0 0.001 0 0.002 0l0.445 0.133z"></path>
<path fill="rgb(105, 124, 44)" d="M15.821 8.029l-0.368-0.045c-0.008-0.002-0.014-0.010-0.012-0.019s0.010-0.014 0.018-0.013c0 0 0.001 0 0.001 0l0.361 0.076z"></path>
<path fill="rgb(105, 124, 44)" d="M14.868 7.769l-0.267 0.546c-0.010 0.015-0.028 0.018-0.042 0.008s-0.017-0.030-0.008-0.044c0.001-0.001 0.001-0.002 0.002-0.003l0.314-0.506z"></path>
<path fill="rgb(105, 124, 44)" d="M15.302 7.748l-0.269 0.397c-0.007 0.010-0.020 0.012-0.029 0.005s-0.012-0.021-0.005-0.031c0-0.001 0.001-0.001 0.001-0.002l0.302-0.37z"></path>
<path fill="rgb(105, 124, 44)" d="M15.706 7.681l-0.237 0.298c-0.005 0.007-0.014 0.009-0.021 0.004s-0.008-0.015-0.003-0.022c0-0 0.001-0.001 0.001-0.001l0.26-0.278z"></path>
<path fill="rgb(113, 140, 48)" d="M9.031 8.34c-0.154-0.464-0.972-0.947-0.972-0.947s-0.352 0.917-0.198 1.382c0.154 0.464 0.479 0.557 0.803 0.437s0.522-0.408 0.367-0.872z"></path>
<path fill="rgb(105, 124, 44)" d="M8.085 7.471l0.782 2.191c0.010 0.028-0.003 0.059-0.030 0.070s-0.056-0.003-0.066-0.032c-0-0.001-0.001-0.002-0.001-0.002l-0.686-2.227z"></path>
<path fill="rgb(105, 124, 44)" d="M8.823 8.501l-0.177 0.576c-0.003 0.017-0.018 0.029-0.035 0.026s-0.027-0.020-0.025-0.037c0-0.001 0-0.002 0.001-0.004l0.236-0.562z"></path>
<path fill="rgb(105, 124, 44)" d="M8.567 8.129l-0.084 0.48c-0.002 0.012-0.013 0.020-0.025 0.018s-0.019-0.014-0.017-0.026c0-0.001 0-0.001 0-0.002l0.125-0.47z"></path>
<path fill="rgb(105, 124, 44)" d="M8.364 7.754l-0.042 0.388c-0.002 0.009-0.009 0.014-0.018 0.013s-0.014-0.010-0.012-0.019c0-0 0-0.001 0-0.001l0.072-0.381z"></path>
<path fill="rgb(105, 124, 44)" d="M8.119 8.762l0.516 0.282c0.014 0.010 0.017 0.030 0.008 0.044s-0.028 0.018-0.042 0.008c-0.001-0.001-0.002-0.001-0.003-0.002l-0.479-0.332z"></path>
<path fill="rgb(105, 124, 44)" d="M8.099 8.303l0.376 0.284c0.009 0.007 0.012 0.021 0.005 0.031s-0.020 0.012-0.029 0.005c-0.001-0-0.001-0.001-0.002-0.001l-0.35-0.319z"></path>
<path fill="rgb(105, 124, 44)" d="M8.035 7.877l0.282 0.25c0.007 0.005 0.008 0.015 0.003 0.022s-0.014 0.009-0.021 0.004c-0-0-0.001-0.001-0.001-0.001l-0.263-0.275z"></path>
<path fill="rgb(113, 140, 48)" d="M7.662 7.524c0.525-0.195 1.071-1.228 1.071-1.228s-1.037-0.445-1.562-0.25c-0.525 0.195-0.63 0.606-0.495 1.014s0.461 0.659 0.986 0.464z"></path>
<path fill="rgb(105, 124, 44)" d="M8.645 6.33l-2.477 0.988c-0.032 0.013-0.067-0.004-0.079-0.038s0.004-0.071 0.036-0.083c0.001-0 0.002-0.001 0.003-0.001l2.517-0.866z"></path>
<path fill="rgb(105, 124, 44)" d="M7.481 7.261l-0.651-0.224c-0.020-0.004-0.033-0.023-0.029-0.044s0.022-0.035 0.042-0.031c0.001 0 0.003 0.001 0.004 0.001l0.635 0.298z"></path>
<path fill="rgb(105, 124, 44)" d="M7.901 6.938l-0.543-0.107c-0.014-0.003-0.023-0.017-0.020-0.031s0.016-0.024 0.029-0.021c0.001 0 0.001 0 0.002 0l0.531 0.158z"></path>
<path fill="rgb(105, 124, 44)" d="M8.324 6.682l-0.439-0.054c-0.010-0.002-0.016-0.012-0.014-0.022s0.011-0.017 0.021-0.015c0 0 0.001 0 0.001 0l0.431 0.091z"></path>
<path fill="rgb(105, 124, 44)" d="M7.185 6.372l-0.319 0.652c-0.011 0.017-0.034 0.021-0.050 0.009s-0.020-0.036-0.009-0.053c0.001-0.001 0.002-0.002 0.002-0.003l0.376-0.605z"></path>
<path fill="rgb(105, 124, 44)" d="M7.704 6.347l-0.321 0.475c-0.008 0.012-0.024 0.015-0.035 0.006s-0.014-0.025-0.006-0.037c0-0.001 0.001-0.001 0.001-0.002l0.36-0.442z"></path>
<path fill="rgb(105, 124, 44)" d="M8.186 6.266l-0.283 0.356c-0.006 0.009-0.017 0.011-0.025 0.004s-0.010-0.018-0.004-0.027c0-0 0.001-0.001 0.001-0.001l0.311-0.332z"></path>
<path fill="rgb(88, 132, 31)" d="M7.484 8.26c-0.434-0.206-0.875-0.165-0.984 0.092s0.154 0.632 0.589 0.838c0.006 0.003 0.011 0.005 0.017 0.008l0.395-0.931c-0.006-0.003-0.011-0.006-0.017-0.008z"></path>
<path fill="rgb(205, 229, 128)" d="M7.469 8.295c-0.401-0.19-0.808-0.152-0.908 0.085s0.143 0.584 0.543 0.774c0.006 0.003 0.012 0.005 0.017 0.008l0.365-0.859c-0.006-0.003-0.011-0.005-0.017-0.008z"></path>
<path fill="rgb(214, 232, 139)" d="M7.441 8.361c-0.34-0.161-0.684-0.129-0.77 0.072s0.121 0.495 0.461 0.656c0.006 0.003 0.011 0.005 0.017 0.008l0.309-0.728c-0.006-0.003-0.011-0.006-0.017-0.008z"></path>
<path fill="rgb(184, 201, 115)" d="M6.982 8.472c0.002-0.002 0.006-0.002 0.011-0.001s0.009 0.003 0.012 0.006l0.206 0.204c0.004 0.004 0.005 0.007 0.004 0.010s-0.005 0.004-0.010 0.004l-0.281-0.025c-0.003-0-0.005-0.001-0.008-0.002-0.001-0.001-0.003-0.002-0.004-0.002-0.004-0.003-0.006-0.006-0.007-0.009-0.013-0.077 0.014-0.143 0.077-0.185z"></path>
<path fill="rgb(184, 201, 115)" d="M6.943 8.712l0.288 0.045c0.005 0.001 0.010 0.003 0.014 0.007s0.005 0.007 0.004 0.010l-0.074 0.171c-0.001 0.002-0.004 0.004-0.008 0.004-0.002 0-0.004-0-0.006-0.001s-0.004-0.002-0.006-0.003c-0.1-0.062-0.178-0.142-0.222-0.223-0.002-0.003-0.002-0.006 0-0.008s0.005-0.003 0.010-0.002z"></path>
<path fill="rgb(184, 201, 115)" d="M7.273 8.665c-0.001-0.001-0.002-0.001-0.003-0.002l-0.223-0.2c-0.003-0.003-0.005-0.006-0.005-0.009s0.002-0.005 0.006-0.006c0.087-0.019 0.195-0.009 0.306 0.029 0.004 0.001 0.008 0.004 0.011 0.007s0.003 0.006 0.002 0.009l-0.073 0.172c-0.001 0.003-0.005 0.004-0.010 0.004-0.004-0-0.008-0.002-0.011-0.004z"></path>
<path fill="rgb(193, 61, 31)" d="M7.237 6.693c0 0.578-0.443 1.047-0.99 1.047s-0.99-0.469-0.99-1.047h1.981z"></path>
<path fill="rgb(229, 106, 90)" d="M6.246 7.641c0.489 0 0.887-0.422 0.902-0.948h-1.804c0.015 0.526 0.413 0.948 0.902 0.948z"></path>
<path fill="rgb(216, 85, 63)" d="M6.246 7.488c0.402 0 0.732-0.348 0.775-0.795h-1.55c0.043 0.447 0.374 0.795 0.775 0.795z"></path>
<path fill="rgb(229, 106, 90)" d="M5.512 7.104l0.097 0.144 0.064-0.048c-0.036-0.045-0.068-0.093-0.095-0.145l-0.066 0.049z"></path>
<path fill="rgb(229, 106, 90)" d="M6.882 7.25l0.089-0.149-0.060-0.040c-0.028 0.052-0.060 0.1-0.096 0.145l0.067 0.045z"></path>
<path fill="rgb(229, 106, 90)" d="M6.060 6.693l-0.482 0.361c0.027 0.052 0.059 0.101 0.095 0.145l0.534-0.4 0.608 0.406c0.036-0.044 0.068-0.093 0.096-0.145l-0.55-0.368h-0.301z"></path>
<path fill="rgb(229, 106, 90)" d="M6.146 6.91c0 0.028-0.114 0.121-0.114 0.158 0 0.047 0.087 0.085 0.194 0.085s0.194-0.038 0.194-0.085c0-0.036-0.114-0.129-0.114-0.158 0-0.087-0.036-0.158-0.081-0.158s-0.081 0.071-0.081 0.158z"></path>
<path fill="rgb(226, 161, 90)" d="M6.213 7.372c0-0.053 0.008-0.095 0.017-0.095s0.017 0.043 0.017 0.095c0 0.053-0.008 0.095-0.017 0.095s-0.017-0.043-0.017-0.095z"></path>
<path fill="rgb(226, 161, 90)" d="M5.997 7.317c0.021-0.048 0.045-0.083 0.053-0.079s-0.001 0.046-0.022 0.094c-0.021 0.048-0.045 0.083-0.053 0.079s0.001-0.046 0.022-0.094z"></path>
<path fill="rgb(226, 161, 90)" d="M5.821 7.164c0.035-0.037 0.069-0.062 0.076-0.055s-0.017 0.043-0.052 0.080-0.069 0.062-0.076 0.055c-0.007-0.007 0.017-0.043 0.052-0.080z"></path>
<path fill="rgb(226, 161, 90)" d="M6.459 7.329c-0.022-0.047-0.033-0.089-0.024-0.094s0.033 0.031 0.055 0.078 0.033 0.089 0.024 0.094c-0.008 0.004-0.033-0.031-0.055-0.078z"></path>
<path fill="rgb(226, 161, 90)" d="M6.637 7.214c-0.035-0.037-0.058-0.073-0.052-0.080s0.041 0.018 0.076 0.055c0.035 0.037 0.058 0.073 0.052 0.080s-0.041-0.018-0.076-0.055z"></path>
<path fill="rgb(226, 161, 90)" d="M5.632 6.865c0.046-0.020 0.086-0.028 0.090-0.019s-0.031 0.033-0.077 0.053c-0.046 0.020-0.086 0.029-0.090 0.019s0.031-0.033 0.077-0.053z"></path>
<path fill="rgb(226, 161, 90)" d="M6.865 6.865c-0.046-0.020-0.086-0.028-0.090-0.019s0.031 0.033 0.077 0.053c0.046 0.020 0.086 0.029 0.090 0.019s-0.031-0.033-0.077-0.053z"></path>
<path fill="rgb(193, 61, 31)" d="M9.772 7.523c0.43 0.357 0.505 1.015 0.167 1.47s-0.96 0.534-1.391 0.177l1.224-1.647z"></path>
<path fill="rgb(229, 106, 90)" d="M9.866 8.932c0.302-0.406 0.234-0.998-0.148-1.336l-1.114 1.5c0.401 0.312 0.961 0.242 1.263-0.164z"></path>
<path fill="rgb(216, 85, 63)" d="M9.752 8.838c0.248-0.334 0.193-0.823-0.112-1.135l-0.958 1.289c0.359 0.24 0.822 0.18 1.070-0.154z"></path>
<path fill="rgb(229, 106, 90)" d="M9.012 9.211l0.167 0.009 0.004-0.083c-0.055 0.002-0.111-0.001-0.167-0.011l-0.004 0.085z"></path>
<path fill="rgb(229, 106, 90)" d="M9.968 8.162l-0.056-0.166-0.067 0.025c0.021 0.055 0.038 0.112 0.048 0.169l0.075-0.028z"></path>
<path fill="rgb(229, 106, 90)" d="M9.046 8.502l-0.029 0.624c0.056 0.009 0.111 0.013 0.167 0.011l0.032-0.691 0.678-0.254c-0.011-0.057-0.027-0.114-0.048-0.169l-0.614 0.23-0.186 0.25z"></path>
<path fill="rgb(229, 106, 90)" d="M9.26 8.564c0.021 0.018 0.020 0.169 0.047 0.192 0.035 0.029 0.117-0.020 0.184-0.109s0.092-0.185 0.056-0.214c-0.027-0.022-0.166 0.015-0.187-0.003-0.065-0.054-0.14-0.067-0.167-0.030s0.003 0.111 0.067 0.165z"></path>
<path fill="rgb(226, 161, 90)" d="M9.645 8.794c-0.039-0.033-0.066-0.065-0.060-0.073s0.042 0.012 0.081 0.045c0.039 0.033 0.066 0.065 0.061 0.073s-0.042-0.012-0.081-0.045z"></path>
<path fill="rgb(226, 161, 90)" d="M9.471 8.94c-0.023-0.047-0.034-0.089-0.026-0.093s0.034 0.030 0.056 0.077c0.023 0.047 0.034 0.089 0.026 0.093s-0.034-0.030-0.056-0.077z"></path>
<path fill="rgb(226, 161, 90)" d="M9.248 8.991c-0.006-0.052-0.003-0.096 0.006-0.097s0.022 0.040 0.028 0.093 0.003 0.096-0.006 0.097c-0.009 0.001-0.022-0.040-0.028-0.093z"></path>
<path fill="rgb(226, 161, 90)" d="M9.765 8.563c-0.049-0.011-0.087-0.028-0.085-0.038s0.043-0.009 0.092 0.003c0.049 0.011 0.087 0.028 0.085 0.038s-0.043 0.008-0.092-0.003z"></path>
<path fill="rgb(226, 161, 90)" d="M9.789 8.343c-0.049 0.006-0.090 0.003-0.092-0.006s0.038-0.023 0.088-0.029c0.049-0.006 0.090-0.003 0.092 0.006s-0.038 0.023-0.088 0.029z"></path>
<path fill="rgb(226, 161, 90)" d="M8.909 8.963c0.014-0.051 0.032-0.089 0.041-0.087s0.005 0.046-0.008 0.097c-0.014 0.051-0.032 0.089-0.041 0.087s-0.005-0.046 0.008-0.097z"></path>
<path fill="rgb(226, 161, 90)" d="M9.671 7.938c-0.043 0.026-0.075 0.054-0.070 0.063s0.043-0.006 0.087-0.032c0.043-0.026 0.075-0.054 0.070-0.063s-0.044 0.006-0.087 0.032z"></path>
<path fill="rgb(193, 61, 31)" d="M12.94 8.799c0-0.578 0.443-1.047 0.99-1.047s0.99 0.469 0.99 1.047h-1.981z"></path>
<path fill="rgb(229, 106, 90)" d="M13.931 7.851c-0.489 0-0.887 0.422-0.902 0.948h1.804c-0.015-0.526-0.413-0.948-0.902-0.948z"></path>
<path fill="rgb(216, 85, 63)" d="M13.931 8.004c-0.402 0-0.732 0.348-0.775 0.795h1.55c-0.043-0.447-0.374-0.795-0.775-0.795z"></path>
<path fill="rgb(229, 106, 90)" d="M14.665 8.389l-0.097-0.144-0.064 0.048c0.036 0.045 0.068 0.093 0.095 0.145l0.066-0.049z"></path>
<path fill="rgb(229, 106, 90)" d="M13.295 8.242l-0.089 0.149 0.060 0.040c0.028-0.052 0.060-0.1 0.096-0.145l-0.067-0.045z"></path>
<path fill="rgb(229, 106, 90)" d="M14.117 8.799l0.482-0.361c-0.027-0.052-0.059-0.101-0.095-0.145l-0.534 0.4-0.608-0.406c-0.036 0.044-0.068 0.093-0.096 0.145l0.55 0.368h0.301z"></path>
<path fill="rgb(229, 106, 90)" d="M14.031 8.582c0-0.028 0.114-0.121 0.114-0.158 0-0.047-0.087-0.085-0.194-0.085s-0.194 0.038-0.194 0.085c0 0.036 0.114 0.129 0.114 0.158 0 0.087 0.036 0.158 0.081 0.158s0.081-0.071 0.081-0.158z"></path>
<path fill="rgb(226, 161, 90)" d="M13.964 8.12c0 0.053-0.008 0.095-0.017 0.095s-0.017-0.043-0.017-0.095c0-0.053 0.008-0.095 0.017-0.095s0.017 0.043 0.017 0.095z"></path>
<path fill="rgb(226, 161, 90)" d="M14.18 8.175c-0.021 0.048-0.045 0.083-0.053 0.079s0.001-0.046 0.022-0.094 0.045-0.083 0.053-0.079c0.009 0.004-0.001 0.046-0.022 0.094z"></path>
<path fill="rgb(226, 161, 90)" d="M14.356 8.328c-0.035 0.037-0.069 0.062-0.076 0.055s0.017-0.043 0.052-0.080c0.035-0.037 0.069-0.062 0.076-0.055s-0.017 0.043-0.052 0.080z"></path>
<path fill="rgb(226, 161, 90)" d="M13.718 8.163c0.022 0.047 0.033 0.089 0.024 0.094s-0.033-0.031-0.055-0.078-0.033-0.089-0.024-0.094c0.008-0.004 0.033 0.031 0.055 0.078z"></path>
<path fill="rgb(226, 161, 90)" d="M13.54 8.279c0.035 0.037 0.058 0.073 0.052 0.080s-0.041-0.017-0.076-0.055c-0.035-0.037-0.058-0.073-0.052-0.080s0.041 0.018 0.076 0.055z"></path>
<path fill="rgb(226, 161, 90)" d="M14.545 8.627c-0.046 0.020-0.086 0.029-0.090 0.019s0.031-0.033 0.077-0.053c0.046-0.020 0.086-0.029 0.090-0.019s-0.031 0.033-0.077 0.053z"></path>
<path fill="rgb(226, 161, 90)" d="M13.312 8.627c0.046 0.020 0.086 0.029 0.090 0.019s-0.031-0.033-0.077-0.053c-0.046-0.020-0.086-0.029-0.090-0.019s0.031 0.033 0.077 0.053z"></path>
<path fill="rgb(193, 61, 31)" d="M12.128 6.277c-0.241 0.519-0.834 0.734-1.325 0.479s-0.694-0.882-0.454-1.401l1.779 0.921z"></path>
<path fill="rgb(229, 106, 90)" d="M10.844 6.668c0.439 0.227 0.972 0.034 1.205-0.432l-1.62-0.839c-0.205 0.48-0.024 1.044 0.415 1.271z"></path>
<path fill="rgb(216, 85, 63)" d="M10.908 6.53c0.361 0.187 0.802 0.028 1.027-0.353l-1.392-0.721c-0.147 0.421 0.005 0.887 0.365 1.074z"></path>
<path fill="rgb(229, 106, 90)" d="M10.408 5.844l0.027 0.174 0.078-0.013c-0.014-0.057-0.022-0.115-0.025-0.175l-0.080 0.014z"></path>
<path fill="rgb(229, 106, 90)" d="M11.577 6.613l0.142-0.092-0.037-0.064c-0.047 0.034-0.096 0.062-0.147 0.085l0.041 0.071z"></path>
<path fill="rgb(229, 106, 90)" d="M11.071 5.73l-0.583 0.1c0.003 0.059 0.011 0.118 0.025 0.175l0.646-0.111 0.377 0.647c0.051-0.023 0.1-0.051 0.147-0.085l-0.341-0.586-0.27-0.14z"></path>
<path fill="rgb(229, 106, 90)" d="M11.058 5.964c-0.012 0.026-0.153 0.056-0.168 0.089-0.020 0.042 0.043 0.117 0.139 0.167s0.19 0.056 0.21 0.014c0.015-0.033-0.048-0.169-0.036-0.194 0.036-0.078 0.033-0.159-0.007-0.179s-0.102 0.026-0.138 0.104z"></path>
<path fill="rgb(226, 161, 90)" d="M10.926 6.411c0.022-0.047 0.047-0.082 0.055-0.078s-0.002 0.046-0.024 0.094c-0.022 0.047-0.047 0.082-0.055 0.078s0.003-0.046 0.024-0.094z"></path>
<path fill="rgb(226, 161, 90)" d="M10.755 6.261c0.039-0.033 0.075-0.054 0.081-0.046s-0.021 0.041-0.059 0.074c-0.039 0.033-0.075 0.054-0.081 0.046s0.021-0.041 0.059-0.074z"></path>
<path fill="rgb(226, 161, 90)" d="M10.661 6.041c0.047-0.017 0.088-0.023 0.091-0.014s-0.033 0.031-0.080 0.048c-0.047 0.017-0.088 0.023-0.091 0.014s0.033-0.031 0.080-0.048z"></path>
<path fill="rgb(226, 161, 90)" d="M11.199 6.487c0 0.053-0.008 0.095-0.017 0.095s-0.017-0.043-0.017-0.095c0-0.053 0.008-0.095 0.017-0.095s0.017 0.043 0.017 0.095z"></path>
<path fill="rgb(226, 161, 90)" d="M11.373 6.466c-0.016-0.050-0.022-0.093-0.013-0.096s0.029 0.035 0.045 0.084c0.016 0.050 0.022 0.093 0.013 0.096s-0.029-0.035-0.045-0.084z"></path>
<path fill="rgb(226, 161, 90)" d="M10.615 5.685c0.050 0.004 0.089 0.014 0.089 0.024s-0.041 0.015-0.091 0.011c-0.050-0.004-0.089-0.015-0.089-0.024s0.041-0.015 0.091-0.011z"></path>
<path fill="rgb(226, 161, 90)" d="M11.723 6.259c-0.033-0.039-0.066-0.066-0.073-0.059s0.014 0.044 0.047 0.083c0.033 0.039 0.066 0.066 0.073 0.059s-0.014-0.044-0.047-0.083z"></path>
<path fill="rgb(249, 235, 180)" d="M15.943 8.122c0 0-1.892 0.782-5.902 0.782s-5.902-0.782-5.902-0.782c0 3.445 1.549 6.238 5.902 6.238s5.901-2.793 5.901-6.238z"></path>
<path fill="rgb(234, 208, 99)" d="M15.887 9.215c0.038-0.355 0.056-0.72 0.056-1.093 0 0-1.892 0.782-5.902 0.782s-5.902-0.782-5.902-0.782c0 0.373 0.018 0.738 0.056 1.093 0.616 0.203 2.524 0.725 5.846 0.725s5.23-0.522 5.845-0.725z"></path>
<path fill="rgb(88, 132, 31)" d="M12.117 7.008c0.445-0.179 0.729-0.537 0.634-0.801s-0.532-0.332-0.977-0.153c-0.006 0.002-0.012 0.005-0.017 0.007l0.343 0.953c0.006-0.002 0.012-0.005 0.018-0.007z"></path>
<path fill="rgb(205, 229, 128)" d="M12.104 6.971c0.411-0.165 0.673-0.496 0.585-0.739s-0.491-0.306-0.902-0.141c-0.006 0.002-0.012 0.005-0.018 0.007l0.317 0.88c0.006-0.002 0.012-0.005 0.018-0.007z"></path>
<path fill="rgb(214, 232, 139)" d="M12.079 6.904c0.348-0.14 0.57-0.42 0.496-0.626s-0.416-0.26-0.764-0.12c-0.006 0.002-0.012 0.005-0.018 0.007l0.268 0.745c0.006-0.002 0.012-0.004 0.018-0.007z"></path>
<path fill="rgb(184, 201, 115)" d="M12.33 6.482c-0.001 0.003-0.003 0.006-0.007 0.009s-0.008 0.004-0.012 0.004l-0.282 0.010c-0.005 0-0.008-0.002-0.009-0.004s0-0.007 0.004-0.010l0.215-0.192c0.002-0.002 0.005-0.003 0.007-0.004 0.002-0.001 0.003-0.001 0.005-0.001 0.004-0.001 0.008-0 0.011 0.001 0.061 0.045 0.085 0.112 0.069 0.188z"></path>
<path fill="rgb(184, 201, 115)" d="M12.197 6.283l-0.234 0.184c-0.004 0.003-0.009 0.005-0.014 0.005s-0.008-0.002-0.009-0.004l-0.062-0.176c-0.001-0.002 0-0.006 0.003-0.009 0.001-0.002 0.003-0.003 0.005-0.004s0.004-0.002 0.006-0.002c0.112-0.030 0.221-0.033 0.306-0.008 0.003 0.001 0.005 0.003 0.005 0.006s-0.002 0.006-0.006 0.009z"></path>
<path fill="rgb(184, 201, 115)" d="M11.995 6.563c0.001-0 0.002-0.001 0.003-0.001l0.292-0.025c0.004-0 0.008 0.001 0.009 0.003s0.002 0.005-0 0.008c-0.049 0.078-0.133 0.152-0.236 0.208-0.004 0.002-0.009 0.003-0.012 0.003s-0.007-0.002-0.008-0.004l-0.063-0.176c-0.001-0.003 0.001-0.007 0.004-0.010s0.007-0.004 0.011-0.005z"></path>
<path fill="rgb(249, 235, 180)" d="M12.477 14.368c0 0.296-1.090 0.275-2.435 0.275s-2.435 0.021-2.435-0.275c0-0.296 1.090-0.798 2.435-0.798s2.435 0.502 2.435 0.798z"></path>
</svg>
