<?xml version="1.0" encoding="utf-8"?>
<!-- Generated by IcoMoon.io -->
<!DOCTYPE svg PUBLIC "-//W3C//DTD SVG 1.1//EN" "http://www.w3.org/Graphics/SVG/1.1/DTD/svg11.dtd">
<svg version="1.1" xmlns="http://www.w3.org/2000/svg" xmlns:xlink="http://www.w3.org/1999/xlink" width="20" height="20" viewBox="0 0 20 20">
<path fill="rgb(50, 190, 166)" d="M0.309 10c0-5.352 4.339-9.691 9.691-9.691s9.69 4.338 9.69 9.691c0 5.352-4.339 9.691-9.69 9.691s-9.691-4.339-9.691-9.691z"></path>
<path fill="rgb(221, 223, 224)" d="M7.493 3.496c0 2.21 0.049 6.34 2.916 6.34s2.916-4.131 2.916-6.34c0-0.892-5.832-1.016-5.832 0z"></path>
<path fill="rgb(206, 207, 208)" d="M12.778 17.467c0 0.555-1.078 1.004-2.407 1.004s-2.408-0.449-2.408-1.004c0-0.554 1.078-1.004 2.408-1.004s2.407 0.45 2.407 1.004z"></path>
<path fill="rgb(215, 215, 215)" d="M12.778 17.377c0 0.505-1.078 0.914-2.407 0.914s-2.408-0.409-2.408-0.914 1.078-0.914 2.408-0.914c1.33-0 2.407 0.409 2.407 0.914z"></path>
<path fill="rgb(227, 228, 229)" d="M11.053 17.313c0 0-0.463-3.5-0.463-4.647s0.162-2.564 0.162-2.564h-0.755c0 0 0.162 1.548 0.162 2.564s-0.463 4.647-0.463 4.647 0.223 0.257 0.687 0.257c0.464 0 0.67-0.257 0.67-0.257z"></path>
<path fill="rgb(227, 228, 229)" d="M11.162 9.639h-1.571l0.425 0.498h0.72z"></path>
<path fill="rgb(223, 224, 225)" d="M13.24 3.578c0 2.145-5.661 2.145-5.661 0 0-0.986 5.661-0.866 5.661 0z"></path>
<path fill="rgb(232, 234, 235)" d="M13.24 3.578c0 2.145-0.048 6.156-2.831 6.156s-2.831-4.010-2.831-6.156c0 0 0.664 0.353 2.919 0.353s2.742-0.353 2.742-0.353z"></path>
<path fill="rgb(178, 31, 36)" d="M12.877 6.874c-0.389 1.645-1.080 2.675-2.468 2.675-1.381 0-2.105-1.002-2.462-2.651 0 0 1.27-0.386 2.535-0.348s2.395 0.324 2.395 0.324z"></path>
<path fill="rgb(196, 33, 38)" d="M12.835 7.046c-0.396 1.577-1.086 2.503-2.426 2.503-1.334 0-2.056-0.903-2.425-2.484-0.013-0.055 1.191 0.306 2.455 0.345s2.409-0.421 2.395-0.363z"></path>
</svg>
