<?xml version="1.0" encoding="utf-8"?>
<!-- Generated by IcoMoon.io -->
<!DOCTYPE svg PUBLIC "-//W3C//DTD SVG 1.1//EN" "http://www.w3.org/Graphics/SVG/1.1/DTD/svg11.dtd">
<svg version="1.1" xmlns="http://www.w3.org/2000/svg" xmlns:xlink="http://www.w3.org/1999/xlink" width="20" height="20" viewBox="0 0 20 20">
<path fill="rgb(37, 183, 211)" d="M19.691 10c0 5.352-4.339 9.691-9.691 9.691s-9.691-4.339-9.691-9.691 4.339-9.691 9.691-9.691c5.352 0 9.691 4.339 9.691 9.691z"></path>
<path fill="rgb(215, 188, 74)" d="M9.535 14.307l-0.356 1.056c0 0-3.706-0.866-5.666-6.338l1.233-0.707 4.789 5.989z"></path>
<path fill="rgb(234, 207, 94)" d="M9.789 14.878c0 0 1.868-9.091-0.070-10.242 0 0-6.048 3.241-6.207 4.39 0 0 0.718-0.821 1.71 0.708 0-0-0.164 3.022 4.566 5.144z"></path>
<path fill="rgb(232, 206, 92)" d="M15.528 8.74l0.96 0.567c0 0-1.614 3.446-7.373 4.232l-0.436-1.352 6.85-3.447z"></path>
<path fill="rgb(255, 255, 255)" d="M11.966 11.752c0.105 0.337-0.423 0.802-1.181 1.039s-1.457 0.156-1.562-0.181c-0.105-0.338 0.423-0.803 1.181-1.039s1.457-0.156 1.563 0.181z"></path>
<path fill="rgb(255, 255, 255)" d="M15.563 9.276c0.232 0.267-0.067 0.905-0.666 1.424s-1.273 0.725-1.504 0.458c-0.231-0.267 0.067-0.905 0.667-1.424s1.273-0.725 1.504-0.458z"></path>
<path fill="rgb(190, 30, 45)" d="M13.429 11.275c0 0.493-0.4 0.892-0.892 0.892s-0.892-0.399-0.892-0.892 0.399-0.892 0.892-0.892c0.493 0 0.892 0.4 0.892 0.892z"></path>
<path fill="rgb(248, 224, 121)" d="M16.138 8.609c0 0-8.507-3.709-10.035-2.050 0 0 1.92 6.588 3.010 6.98 0 0-0.654-0.873 1.047-1.527 0 0 2.923 0.785 5.977-3.403z"></path>
<path fill="rgb(208, 210, 211)" d="M11.589 8.871c0 0.549-0.445 0.994-0.994 0.994s-0.994-0.445-0.994-0.994 0.445-0.994 0.994-0.994c0.549 0 0.994 0.445 0.994 0.994z"></path>
<path fill="rgb(241, 241, 242)" d="M11.589 8.74c0 0.549-0.445 0.994-0.994 0.994s-0.994-0.445-0.994-0.994c0-0.549 0.445-0.994 0.994-0.994s0.994 0.445 0.994 0.994z"></path>
<path fill="rgb(190, 30, 45)" d="M11.027 7.101c1.566 0.378 0.206 1.852-0.411 1.703s-1.154-2.081 0.411-1.703z"></path>
<path fill="rgb(0, 104, 56)" d="M10.547 7.090l-0.029-0.346c-0.004-0.040 0.002-0.064 0.054-0.016l0.273 0.251 0.229-0.276c0.013-0.015 0.041-0.031 0.057-0.025 0.017 0.002 0.034 0.029 0.039 0.049l0.083 0.318 0.353-0.086c0.069-0.017 0.064 0.006 0.041 0.039l-0.207 0.304c-0.106 0.156-0.832-0.009-0.893-0.213z"></path>
</svg>
