<?xml version="1.0" encoding="utf-8"?>
<!-- Generated by IcoMoon.io -->
<!DOCTYPE svg PUBLIC "-//W3C//DTD SVG 1.1//EN" "http://www.w3.org/Graphics/SVG/1.1/DTD/svg11.dtd">
<svg version="1.1" xmlns="http://www.w3.org/2000/svg" xmlns:xlink="http://www.w3.org/1999/xlink" width="20" height="20" viewBox="0 0 20 20">
<path fill="rgb(234, 73, 73)" d="M19.691 10c0 5.352-4.339 9.691-9.691 9.691s-9.691-4.339-9.691-9.691c0-5.352 4.339-9.691 9.691-9.691s9.691 4.338 9.691 9.691z"></path>
<path fill="rgb(230, 231, 232)" d="M14.17 5.652h-0.346l-0.173-0.538h-0.484l-0.173-1.077h-7.020l-0.173 1.077h-0.484l-0.173 0.538h-0.346l-0.173 0.269h0.692l1.314 8.883h5.706l1.314-8.883h0.692z"></path>
<path fill="rgb(146, 148, 151)" d="M5.601 6.025c0 0-0.007-0.001 0.051-0.003s0.124-0.006 0.232-0.008c0.108-0.003 0.23-0.007 0.381-0.011s0.317-0.009 0.502-0.011c0.186-0.003 0.384-0.006 0.597-0.010s0.436-0.008 0.668-0.008c0.464-0.003 0.958-0.005 1.454-0.008 0.495 0.003 0.989 0.005 1.453 0.008 0.232 0 0.456 0.005 0.669 0.008s0.414 0.007 0.599 0.010c0.186 0.002 0.356 0.007 0.506 0.011s0.282 0.008 0.391 0.011c0.108 0.003 0.175 0.006 0.233 0.008s0.070 0.003 0.070 0.003v0.007c0 0-1.923 0.002-3.903 0.003-1.98-0.002-3.903-0.003-3.903-0.003v-0.007z"></path>
<path fill="rgb(195, 153, 107)" d="M9.519 8.075h-3.959l0.599 4.038h6.651l0.599-4.038z"></path>
<path fill="rgb(255, 255, 255)" d="M11.006 10.040c0 0.84-0.681 1.522-1.522 1.522s-1.522-0.681-1.522-1.522c0-0.84 0.681-1.522 1.522-1.522s1.522 0.681 1.522 1.522z"></path>
<path fill="rgb(59, 35, 20)" d="M10.116 9.33c-0.268-0.211-0.746-0.109-1.098 0.243s-0.454 0.83-0.243 1.098l1.342-1.342z"></path>
<path fill="rgb(59, 35, 20)" d="M8.852 10.75c0.268 0.211 0.745 0.109 1.098-0.243s0.454-0.83 0.243-1.098l-1.342 1.341z"></path>
<path fill="rgb(138, 52, 31)" d="M10.194 16.010c1.167 0 2.12-0.577 2.12-1.284s-0.952-1.285-2.12-1.285c-1.168 0-2.12 0.577-2.12 1.285s0.952 1.284 2.12 1.284z"></path>
<path fill="rgb(255, 255, 255)" d="M10.194 15.605c1.167 0 2.12-0.577 2.12-1.285s-0.952-1.285-2.12-1.285c-1.168 0-2.12 0.577-2.12 1.285s0.952 1.285 2.12 1.285z"></path>
<path fill="rgb(138, 52, 31)" d="M10.194 15.089c1.167 0 2.12-0.577 2.12-1.284s-0.952-1.285-2.12-1.285c-1.168 0-2.12 0.577-2.12 1.285s0.952 1.284 2.12 1.284z"></path>
<path fill="rgb(138, 52, 31)" d="M13.84 13.347c0.858 0.797 1.161 1.865 0.678 2.385s-1.57 0.295-2.427-0.502c-0.857-0.797-1.161-1.865-0.678-2.384s1.57-0.295 2.427 0.502z"></path>
<path fill="rgb(255, 255, 255)" d="M14.116 13.050c0.857 0.797 1.161 1.865 0.678 2.385s-1.57 0.295-2.427-0.502c-0.858-0.797-1.161-1.865-0.678-2.385s1.57-0.295 2.427 0.502z"></path>
<path fill="rgb(138, 52, 31)" d="M14.467 12.673c0.858 0.797 1.161 1.865 0.678 2.384s-1.57 0.295-2.427-0.502c-0.857-0.797-1.161-1.865-0.678-2.384s1.57-0.295 2.427 0.502z"></path>
</svg>
