<?xml version="1.0" encoding="utf-8"?>
<!-- Generated by IcoMoon.io -->
<!DOCTYPE svg PUBLIC "-//W3C//DTD SVG 1.1//EN" "http://www.w3.org/Graphics/SVG/1.1/DTD/svg11.dtd">
<svg version="1.1" xmlns="http://www.w3.org/2000/svg" xmlns:xlink="http://www.w3.org/1999/xlink" width="20" height="20" viewBox="0 0 20 20">
<path fill="rgb(250, 188, 61)" d="M0.309 10c0-5.352 4.339-9.691 9.691-9.691s9.69 4.338 9.69 9.691c0 5.352-4.339 9.69-9.69 9.69s-9.691-4.339-9.691-9.69z"></path>
<path fill="rgb(239, 207, 167)" d="M10.207 3.282c-4.135 0-7.42 3.211-7.42 7.143s3.012 6.847 7.146 6.847 7.851-2.914 7.851-6.847c0-3.933-3.443-7.143-7.577-7.143zM9.933 13.258c-1.803 0-2.925-1.117-2.925-2.832s1.396-3.128 3.199-3.128 3.356 1.413 3.356 3.128c0 1.716-1.827 2.832-3.63 2.832z"></path>
<path fill="rgb(175, 94, 39)" d="M10.207 3.717c-3.882 0-6.964 3.016-6.964 6.709s2.808 6.413 6.69 6.413c3.883 0 7.395-2.72 7.395-6.413s-3.239-6.709-7.121-6.709zM9.933 13.167c-1.751 0-2.83-1.076-2.83-2.741s1.353-3.037 3.104-3.037 3.261 1.372 3.261 3.037c0 1.665-1.784 2.741-3.535 2.741z"></path>
<path fill="rgb(164, 106, 40)" d="M5.626 5.728c-2.725 2.725-2.771 7.005-0.179 9.597s6.472 2.531 9.197-0.194c2.725-2.725 3.282-7.1 0.689-9.692s-6.983-2.436-9.708 0.289zM12.067 12.553c-1.229 1.229-2.742 1.231-3.91 0.062s-1.183-3.082 0.046-4.311c1.229-1.229 3.252-1.326 4.421-0.157s0.671 3.177-0.557 4.406z"></path>
<path fill="rgb(187, 104, 40)" d="M4.682 12.717c1.493 3.552 5.287 5.277 8.481 3.934s4.467-4.9 2.974-8.453c-1.493-3.553-5.196-5.779-8.391-4.437s-4.558 5.402-3.065 8.955zM12.961 9.533c0.673 1.602 0.158 2.981-1.283 3.586s-3.148-0.134-3.821-1.736c-0.674-1.602-0.067-3.483 1.373-4.089s3.058 0.637 3.731 2.239z"></path>
<path fill="rgb(175, 94, 39)" d="M9.933 15.484c-2.829-0.282-5.042-2.181-5.224-5.29-0.19-3.253 2.252-5.599 5.284-5.599 3.118 0 6.086 2.726 6.086 5.814 0 2.917-2.877 5.076-6.146 5.076zM9.926 6.328c-2.131 0-3.63 1.72-3.584 3.865 0.048 2.221 1.503 3.853 3.652 3.853 1.972 0 4.658-1.564 4.352-3.706-0.298-2.089-2.239-4.012-4.42-4.012z"></path>
<path fill="rgb(133, 152, 58)" d="M15.274 12.389c0 0.051-0.041 0.091-0.091 0.091v0c-0.051 0-0.091-0.041-0.091-0.091v-0.73c0-0.050 0.041-0.091 0.091-0.091v0c0.051 0 0.091 0.041 0.091 0.091v0.73z"></path>
<path fill="rgb(233, 104, 59)" d="M13.616 6.5c0 0.050-0.041 0.091-0.091 0.091v0c-0.050 0-0.091-0.041-0.091-0.091v-0.73c0-0.051 0.041-0.092 0.091-0.092v0c0.051 0 0.091 0.041 0.091 0.092v0.73z"></path>
<path fill="rgb(229, 69, 38)" d="M6.647 7.292c0 0.050-0.041 0.091-0.091 0.091v0c-0.051 0-0.091-0.041-0.091-0.091v-0.731c0-0.050 0.041-0.091 0.091-0.091v0c0.051 0 0.091 0.041 0.091 0.091v0.731z"></path>
<path fill="rgb(233, 104, 59)" d="M6.586 14.534c0 0.051-0.041 0.091-0.091 0.091v0c-0.051 0-0.091-0.041-0.091-0.091v-0.731c0-0.050 0.041-0.091 0.091-0.091v0c0.051 0 0.091 0.041 0.091 0.091v0.731z"></path>
<path fill="rgb(133, 152, 58)" d="M11.090 15.751c0 0.050-0.041 0.091-0.091 0.091v0c-0.051 0-0.091-0.041-0.091-0.091v-0.73c0-0.051 0.041-0.092 0.091-0.092v0c0.050 0 0.091 0.041 0.091 0.092v0.73z"></path>
<path fill="rgb(224, 169, 37)" d="M14.896 7.866c0.037 0.038 0.038 0.099 0 0.137v0c-0.038 0.038-0.099 0.038-0.137 0l-0.547-0.547c-0.038-0.038-0.038-0.099 0-0.137v0c0.038-0.038 0.099-0.038 0.137 0l0.547 0.547z"></path>
<path fill="rgb(224, 169, 37)" d="M9.54 5.199c0.038 0.038 0.038 0.099 0 0.137v0c-0.038 0.038-0.099 0.038-0.137 0l-0.547-0.548c-0.038-0.037-0.038-0.099 0-0.136v0c0.038-0.038 0.099-0.038 0.137 0l0.547 0.547z"></path>
<path fill="rgb(224, 169, 37)" d="M4.913 11.011c0.038 0.038 0.038 0.099 0 0.137v0c-0.038 0.038-0.099 0.038-0.137 0l-0.547-0.547c-0.038-0.038-0.038-0.099 0-0.137v0c0.038-0.038 0.099-0.038 0.137 0l0.547 0.547z"></path>
<path fill="rgb(224, 169, 37)" d="M10.292 16.482c0.038 0.038 0.038 0.099 0 0.137v0c-0.038 0.038-0.099 0.038-0.137 0l-0.547-0.547c-0.038-0.037-0.038-0.099 0-0.137v0c0.038-0.038 0.099-0.038 0.137 0l0.547 0.547z"></path>
<path fill="rgb(224, 169, 37)" d="M13.471 14.739c0.038 0.038 0.038 0.099 0 0.137v0c-0.038 0.037-0.099 0.037-0.137 0l-0.547-0.547c-0.038-0.038-0.038-0.099 0-0.137v0c0.038-0.038 0.099-0.038 0.137 0l0.547 0.547z"></path>
<path fill="rgb(44, 174, 161)" d="M11.051 6.128c0.049-0.010 0.097 0.021 0.108 0.070v0c0.010 0.049-0.021 0.098-0.070 0.108l-0.715 0.151c-0.049 0.010-0.098-0.021-0.108-0.071v0c-0.011-0.049 0.021-0.098 0.070-0.108l0.715-0.151z"></path>
<path fill="rgb(133, 152, 58)" d="M6.18 8.989c0.049-0.010 0.098 0.021 0.108 0.071v0c0.011 0.049-0.021 0.098-0.070 0.108l-0.715 0.15c-0.049 0.011-0.098-0.021-0.108-0.070v0c-0.010-0.049 0.021-0.098 0.070-0.108l0.715-0.151z"></path>
<path fill="rgb(44, 174, 161)" d="M8.391 15.645c0.049-0.010 0.098 0.021 0.108 0.071v0c0.010 0.049-0.022 0.098-0.071 0.108l-0.714 0.15c-0.050 0.011-0.098-0.021-0.108-0.070v0c-0.011-0.049 0.021-0.098 0.071-0.108l0.714-0.151z"></path>
<path fill="rgb(229, 69, 38)" d="M15.491 14.21c0.049-0.010 0.098 0.021 0.108 0.071v0c0.011 0.049-0.021 0.098-0.070 0.108l-0.715 0.151c-0.049 0.010-0.097-0.021-0.108-0.070v0c-0.010-0.049 0.022-0.098 0.071-0.108l0.715-0.151z"></path>
<path fill="rgb(44, 174, 161)" d="M15.753 9.552c0.049-0.010 0.098 0.021 0.108 0.071v0c0.011 0.049-0.021 0.098-0.071 0.108l-0.715 0.151c-0.050 0.010-0.098-0.021-0.108-0.071v0c-0.010-0.049 0.021-0.098 0.071-0.108l0.715-0.151z"></path>
</svg>
