<?xml version="1.0" encoding="utf-8"?>
<!-- Generated by IcoMoon.io -->
<!DOCTYPE svg PUBLIC "-//W3C//DTD SVG 1.1//EN" "http://www.w3.org/Graphics/SVG/1.1/DTD/svg11.dtd">
<svg version="1.1" xmlns="http://www.w3.org/2000/svg" xmlns:xlink="http://www.w3.org/1999/xlink" width="20" height="20" viewBox="0 0 20 20">
<path fill="rgb(50, 190, 166)" d="M19.691 10c0-5.352-4.339-9.691-9.69-9.691s-9.691 4.338-9.691 9.691c0 5.352 4.339 9.69 9.691 9.69s9.69-4.339 9.69-9.69z"></path>
<path fill="rgb(233, 229, 215)" d="M13.449 10.612c0 2.36-1.544 3.799-3.449 3.799s-3.449-1.439-3.449-3.799c0-2.36 1.544-5.024 3.449-5.024s3.449 2.663 3.449 5.024z"></path>
<path fill="rgb(241, 148, 56)" d="M13.449 10.612c0 2.36-1.544 3.799-3.449 3.799s-3.449-1.439-3.449-3.799l1.514-0.754 1.030 1.251 1.668-1.79 1.619 1.398c0 0 0.859-1.721 0.947-1.279 0.078 0.391 0.12 0.787 0.12 1.175z"></path>
</svg>
