<?xml version="1.0" encoding="utf-8"?>
<!-- Generated by IcoMoon.io -->
<!DOCTYPE svg PUBLIC "-//W3C//DTD SVG 1.1//EN" "http://www.w3.org/Graphics/SVG/1.1/DTD/svg11.dtd">
<svg version="1.1" xmlns="http://www.w3.org/2000/svg" xmlns:xlink="http://www.w3.org/1999/xlink" width="20" height="20" viewBox="0 0 20 20">
<path fill="rgb(50, 190, 166)" d="M19.691 10c0-5.352-4.339-9.691-9.69-9.691s-9.691 4.338-9.691 9.691c0 5.352 4.339 9.69 9.691 9.69s9.69-4.339 9.69-9.69z"></path>
<path fill="rgb(232, 225, 214)" d="M9.3 14.448v5.217c0.231 0.017 0.465 0.025 0.7 0.025s0.469-0.009 0.7-0.025v-5.217h-1.4z"></path>
<path fill="rgb(255, 255, 255)" d="M9.3 14.448v5.217c0.231 0.017 0.465 0.025 0.7 0.025l0.7-5.242h-1.4z"></path>
<path fill="rgb(234, 73, 73)" d="M15.882 10c0-3.249-2.633-5.882-5.881-5.882s-5.882 2.633-5.882 5.882c0 3.248 2.633 5.881 5.882 5.881s5.881-2.633 5.881-5.881z"></path>
<path fill="rgb(247, 182, 182)" d="M10 4.659c-2.768 0-5.050 2.116-5.315 4.816-0.292 2.343 1.45 4.528 3.929 4.896 0.241 0.036 0.481 0.053 0.717 0.053 2.225-0 4.162-1.54 4.482-3.691 0.206-1.387-0.080-2.62-0.806-3.472-0.686-0.805-1.75-1.238-3.076-1.253-0.038-0.001-0.074 0.006-0.107 0.019-1.703 0.051-3.238 1.371-3.488 3.051-0.278 1.872 0.94 3.61 2.715 3.874 0.207 0.031 0.408 0.046 0.601 0.046 0.681 0 1.275-0.189 1.739-0.558 0.639-0.508 1.007-1.318 1.093-2.409 0.001-0.011 0.001-0.022 0.001-0.032 0.116-1.154-0.745-2.218-1.964-2.399-1.253-0.186-2.417 0.631-2.594 1.822-0.094 0.631 0.015 1.146 0.322 1.533 0.328 0.412 0.865 0.651 1.596 0.709 0.008 0.001 0.016 0.001 0.024 0.001 0.007 0 0.013-0.001 0.019-0.001 0.017 0.001 0.033 0.002 0.050 0.002 0.664 0 1.315-0.712 1.413-1.366 0.106-0.712-0.362-1.374-1.043-1.476-0.357-0.053-0.671 0.018-0.908 0.206-0.172 0.137-0.387 0.408-0.427 0.917-0.013 0.161 0.108 0.302 0.269 0.315s0.302-0.108 0.315-0.269c0.019-0.241 0.089-0.41 0.208-0.505 0.134-0.107 0.323-0.105 0.457-0.085 0.361 0.054 0.608 0.417 0.55 0.81-0.064 0.427-0.557 0.911-0.88 0.863-0.021-0.003-0.042-0.004-0.062-0.002-0.53-0.052-0.907-0.214-1.121-0.484-0.202-0.254-0.27-0.619-0.201-1.082 0.13-0.872 0.995-1.468 1.928-1.329s1.588 0.961 1.458 1.832c-0.003 0.022-0.004 0.044-0.002 0.066-0.085 0.874-0.376 1.515-0.865 1.904-0.466 0.371-1.119 0.506-1.89 0.391-1.456-0.216-2.452-1.656-2.221-3.209 0.246-1.654 1.82-2.612 3.14-2.551 0.033 0.002 0.065-0.003 0.096-0.012 1.056 0.054 1.866 0.403 2.409 1.040 0.615 0.721 0.853 1.788 0.672 3.005-0.277 1.861-1.962 3.192-3.902 3.191-0.208 0-0.419-0.015-0.631-0.047-1.982-0.295-3.426-1.907-3.461-3.735 0.003-0.018 0.005-0.037 0.005-0.056 0-0.155 0.008-0.309 0.022-0.46 0.003-0.025 0.006-0.051 0.010-0.076 0.002-0.015 0.003-0.029 0.003-0.044 0.287-2.349 2.294-4.175 4.72-4.175 2.622 0 4.755 2.133 4.755 4.755s-2.069 4.953-4.691 4.953c-0.162 0-0.293 0.131-0.293 0.293s0.131 0.293 0.293 0.293c2.945 0 5.277-2.594 5.277-5.539s-2.396-5.341-5.341-5.341z"></path>
</svg>
