<?xml version="1.0" encoding="utf-8"?>
<!-- Generated by IcoMoon.io -->
<!DOCTYPE svg PUBLIC "-//W3C//DTD SVG 1.1//EN" "http://www.w3.org/Graphics/SVG/1.1/DTD/svg11.dtd">
<svg version="1.1" xmlns="http://www.w3.org/2000/svg" xmlns:xlink="http://www.w3.org/1999/xlink" width="20" height="20" viewBox="0 0 20 20">
<path fill="rgb(51, 77, 92)" d="M0.309 10c0-5.352 4.339-9.691 9.691-9.691s9.691 4.338 9.691 9.691c0 5.352-4.339 9.69-9.691 9.69s-9.691-4.339-9.691-9.69z"></path>
<path fill="rgb(233, 147, 35)" d="M14.157 14.768c0 1.36-0.92 2.463-2.056 2.463h-3.598c-1.135 0-2.847-1.321-2.847-6.97 0-4.712 1.711-6.574 2.847-6.574h3.598c1.135 0 2.056 1.103 2.056 2.463v8.619z"></path>
<path fill="rgb(234, 215, 96)" d="M12.656 14.768c0 1.36-0.267 2.463-1.075 2.463h-2.558c-0.807 0-0.906-1.102-0.906-2.463v-8.619c0-1.36 0.099-2.463 0.906-2.463h2.558c0.808 0 1.075 1.103 1.075 2.463v8.619z"></path>
<path fill="rgb(193, 96, 40)" d="M11.362 15.678c0 1.429-0.25 2.587-1.092 2.587s-1.028-1.158-1.028-2.587v-10.661c0-1.429 0.216-2.587 1.028-2.587s1.092 1.158 1.092 2.587v10.661z"></path>
<path fill="rgb(225, 182, 35)" d="M11.623 6.373c-0.066 0-0.132-0.028-0.177-0.083-0.66-0.799-2.494-1.155-2.512-1.158l-0.193-0.037 0.006-0.196c0.035-1.112 2.426-1.426 2.699-1.458 0.126-0.016 0.24 0.075 0.255 0.201s-0.075 0.24-0.201 0.255c-0.83 0.098-1.964 0.412-2.234 0.838 0.561 0.133 1.922 0.522 2.535 1.264 0.081 0.098 0.067 0.242-0.031 0.323-0.043 0.035-0.094 0.053-0.146 0.053z"></path>
<path fill="rgb(225, 182, 35)" d="M11.623 8.776c-0.066 0-0.132-0.028-0.177-0.083-0.661-0.8-2.494-1.155-2.512-1.158l-0.193-0.036 0.006-0.196c0.035-1.112 2.426-1.426 2.699-1.458 0.126-0.016 0.24 0.075 0.255 0.201s-0.075 0.24-0.201 0.255c-0.83 0.098-1.964 0.412-2.234 0.838 0.561 0.133 1.922 0.521 2.535 1.263 0.081 0.098 0.067 0.242-0.031 0.323-0.043 0.035-0.094 0.053-0.146 0.053z"></path>
<path fill="rgb(225, 182, 35)" d="M11.623 11.215c-0.066 0-0.132-0.028-0.177-0.083-0.66-0.799-2.494-1.155-2.512-1.158l-0.193-0.037 0.006-0.196c0.035-1.112 2.426-1.426 2.699-1.458 0.126-0.016 0.24 0.075 0.255 0.201s-0.075 0.24-0.201 0.255c-0.83 0.098-1.964 0.412-2.234 0.838 0.561 0.133 1.922 0.521 2.535 1.263 0.081 0.098 0.067 0.242-0.031 0.323-0.043 0.035-0.094 0.053-0.146 0.053z"></path>
<path fill="rgb(225, 182, 35)" d="M11.623 13.726c-0.066 0-0.132-0.028-0.177-0.083-0.66-0.799-2.494-1.155-2.512-1.158l-0.193-0.037 0.006-0.196c0.035-1.112 2.426-1.426 2.699-1.458 0.126-0.017 0.24 0.075 0.255 0.201s-0.075 0.24-0.201 0.255c-0.83 0.098-1.964 0.412-2.234 0.838 0.561 0.133 1.922 0.522 2.535 1.264 0.081 0.098 0.067 0.242-0.031 0.323-0.043 0.035-0.094 0.053-0.146 0.053z"></path>
<path fill="rgb(225, 182, 35)" d="M11.623 16.238c-0.066 0-0.132-0.028-0.177-0.083-0.661-0.8-2.494-1.155-2.512-1.158l-0.193-0.036 0.006-0.196c0.035-1.112 2.426-1.426 2.699-1.458 0.126-0.016 0.24 0.075 0.255 0.201s-0.075 0.24-0.201 0.255c-0.83 0.098-1.964 0.412-2.234 0.838 0.561 0.133 1.922 0.521 2.535 1.263 0.081 0.098 0.067 0.242-0.031 0.323-0.043 0.035-0.094 0.053-0.146 0.053z"></path>
<path fill="rgb(225, 182, 35)" d="M8.977 17.367c-0.002 0-0.005 0-0.007-0-0.127-0.004-0.226-0.11-0.222-0.237 0.035-1.112 2.426-1.426 2.699-1.458 0.126-0.016 0.24 0.075 0.255 0.201s-0.075 0.24-0.201 0.255c-0.943 0.112-2.277 0.501-2.294 1.017-0.004 0.124-0.106 0.222-0.229 0.222z"></path>
<path fill="rgb(214, 36, 39)" d="M11.094 16.822c-0.62 0-1.288-0.136-1.696-0.22-0.090-0.018-0.167-0.034-0.226-0.045-0.332-0.060-0.686-0.566-0.714-1.022-0.013-0.214 0.033-0.736 0.746-0.958 1.966-0.61 2.108-1.049 2.077-1.21-0.049-0.258-0.662-0.287-1.203-0.313-0.347-0.016-0.705-0.033-1.023-0.104-0.403-0.090-0.675-0.545-0.661-1.108 0.016-0.652 0.439-1.482 1.577-1.675 1.068-0.182 1.44-0.433 1.508-0.529-0.019-0.023-0.064-0.065-0.153-0.116-0.233-0.133-0.594-0.258-0.944-0.379-0.799-0.276-1.555-0.537-1.532-1.112 0.028-0.706 0.936-0.94 1.738-1.146 0.238-0.061 0.57-0.147 0.745-0.226-0.19-0.099-0.583-0.212-0.862-0.293-0.831-0.239-1.69-0.486-1.69-1.13 0-0.925 1.926-1.319 2.755-1.446 0.166-0.025 0.323 0.089 0.349 0.256s-0.089 0.323-0.256 0.349c-1.238 0.19-2.235 0.615-2.235 0.841 0 0.183 0.906 0.444 1.247 0.542 0.758 0.218 1.356 0.391 1.386 0.86 0.031 0.501-0.579 0.658-1.285 0.84-0.444 0.114-1.269 0.327-1.279 0.578 0.064 0.144 0.751 0.381 1.12 0.509 0.376 0.13 0.765 0.264 1.048 0.426 0.468 0.267 0.489 0.58 0.46 0.743-0.084 0.475-0.762 0.824-2.016 1.037-0.77 0.131-1.056 0.647-1.067 1.087-0.008 0.301 0.112 0.48 0.182 0.495 0.267 0.059 0.598 0.075 0.919 0.090 0.767 0.036 1.636 0.078 1.775 0.809 0.181 0.949-1.239 1.519-2.497 1.909-0.296 0.092-0.311 0.231-0.316 0.277-0.023 0.211 0.157 0.462 0.237 0.521 0.058 0.011 0.13 0.026 0.213 0.042 0.507 0.104 1.451 0.296 2.066 0.163 0.165-0.036 0.328 0.069 0.364 0.234s-0.069 0.328-0.234 0.364c-0.192 0.042-0.404 0.059-0.622 0.059z"></path>
</svg>
