<?xml version="1.0" encoding="utf-8"?>
<!-- Generated by IcoMoon.io -->
<!DOCTYPE svg PUBLIC "-//W3C//DTD SVG 1.1//EN" "http://www.w3.org/Graphics/SVG/1.1/DTD/svg11.dtd">
<svg version="1.1" xmlns="http://www.w3.org/2000/svg" xmlns:xlink="http://www.w3.org/1999/xlink" width="20" height="20" viewBox="0 0 20 20">
<path fill="rgb(51, 113, 128)" d="M19.691 10c0-5.352-4.339-9.691-9.69-9.691s-9.691 4.338-9.691 9.691c0 5.352 4.339 9.69 9.691 9.69s9.69-4.339 9.69-9.69z"></path>
<path fill="rgb(234, 225, 187)" d="M13.227 8.376c-0.989-0.312-1.73-0.669-3.227-0.669s-2.239 0.356-3.227 0.669c0 0-2.74 0.615-2.628 2.46 0 0-0.021 1.804 1.454 2.684 0 0 0.895 2.628 3.019 1.845 0 0 0.808 0.431 1.367 0.447v0.001c0.005 0 0.010-0 0.016-0s0.010 0 0.016 0v-0.001c0.559-0.016 1.367-0.447 1.367-0.447 2.125 0.783 3.019-1.845 3.019-1.845 1.474-0.88 1.454-2.684 1.454-2.684 0.112-1.845-2.628-2.46-2.628-2.46z"></path>
<path fill="rgb(234, 225, 187)" d="M10.719 4.211c0 0-0.142-0.334-0.729-0.334s-0.707 0.334-0.707 0.334 0.232 3.383-1.921 3.97h5.279c-2.153-0.587-1.921-3.97-1.921-3.97z"></path>
<path fill="rgb(221, 212, 177)" d="M9.223 7.001c-0.007-0.315-0.054-0.622-0.118-0.925-0.010 0.041-0.021 0.081-0.032 0.122 0.031 0.268 0.047 0.535 0.032 0.801-0.014 0.251-0.055 0.5-0.138 0.731-0.058 0.161-0.136 0.316-0.234 0.451-0.042 0.057-0.087 0.112-0.137 0.161-0.169 0.167-0.378 0.3-0.596 0.419s-0.449 0.223-0.681 0.331l-0.175 0.082-0.088 0.042c-0.031 0.015-0.061 0.031-0.091 0.047-0.119 0.064-0.232 0.133-0.343 0.203-0.222 0.142-0.432 0.291-0.643 0.45l0.001 0.001c-0.46 0.307-0.886 0.743-1.070 1.351-0.158 0.52-0.256 0.921-0.304 1.232 0.215 0.375 0.53 0.744 0.994 1.021-0.015-0.039-0.659-1.74 0.704-3.264 0.178-0.154 0.347-0.327 0.538-0.465 0.101-0.073 0.203-0.143 0.306-0.206 0.026-0.016 0.052-0.031 0.077-0.046l0.082-0.047 0.166-0.093c0.223-0.124 0.452-0.248 0.673-0.389s0.439-0.302 0.62-0.509c0.045-0.052 0.087-0.107 0.125-0.165 0.010-0.015 0.018-0.028 0.028-0.045l0.024-0.042c0.013-0.023 0.025-0.046 0.037-0.069 0.004-0.007 0.008-0.015 0.012-0.022 0.060-0.121 0.107-0.248 0.142-0.376 0.070-0.258 0.092-0.522 0.087-0.782z"></path>
<path fill="rgb(221, 212, 177)" d="M9.65 7.027c-0.072-0.528-0.224-1.040-0.433-1.524-0.005 0.037-0.011 0.073-0.017 0.111 0.164 0.463 0.274 0.943 0.315 1.428 0.031 0.381 0.020 0.767-0.049 1.138-0.008 0.046-0.017 0.091-0.028 0.136-0.047 0.206-0.113 0.407-0.204 0.593s-0.191 0.367-0.339 0.495c-0.147 0.16-0.588 0.653-0.617 0.686-0.423 0.472-0.925 1.33-0.966 2.632-0.013 0.413 0.16 1.912 0.46 2.786 0.257 0.012 0.538-0.029 0.845-0.142-0.086-0.173-1.356-2.923-0.069-5.069 0.087-0.145 0.407-0.569 0.518-0.705 0.174-0.168 0.296-0.374 0.386-0.584 0.090-0.211 0.149-0.431 0.188-0.652 0.010-0.059 0.018-0.118 0.026-0.176 0.048-0.385 0.037-0.774-0.014-1.153z"></path>
<path fill="rgb(221, 212, 177)" d="M12.693 12.722c-0.050-1.59-1.028-2.843-1.455-3.224-0.003-0.003-0.007-0.005-0.010-0.008-0.354-0.353-0.601-0.805-0.777-1.287-0.003-0.008-0.005-0.015-0.008-0.023-0.086-0.236-0.157-0.479-0.223-0.724-0.068-0.253-0.133-0.509-0.199-0.764-0.134-0.509-0.293-1.014-0.501-1.499-0.071-0.167-0.15-0.331-0.234-0.492-0.001 0.019-0.001 0.039-0.002 0.059 0.071 0.147 0.137 0.297 0.198 0.449 0.194 0.487 0.338 0.993 0.458 1.503 0.030 0.127 0.060 0.255 0.085 0.384l0.076 0.387c0.047 0.233 0.099 0.465 0.165 0.696 0.007 0.026 0.014 0.052 0.022 0.077 0.076 0.256 0.17 0.509 0.293 0.751s0.275 0.473 0.457 0.678l0.001-0.001c1.483 2.154 0.438 5.503 0.35 5.682 0.307 0.113 0.588 0.153 0.845 0.142 0.3-0.875 0.473-2.374 0.46-2.786z"></path>
<path fill="rgb(221, 212, 177)" d="M15.093 11.267c-0.187-0.616-0.622-1.055-1.089-1.363-0.206-0.155-0.412-0.3-0.628-0.439-0.111-0.071-0.224-0.139-0.343-0.203-0.030-0.016-0.060-0.032-0.091-0.047l-0.088-0.042-0.175-0.082c-0.233-0.108-0.463-0.212-0.681-0.331-0.217-0.118-0.459-0.331-0.628-0.498l0.001-0.001c-0.151-0.144-0.272-0.321-0.381-0.51s-0.201-0.389-0.286-0.594c-0.169-0.41-0.301-0.837-0.426-1.268-0.12-0.435-0.276-0.864-0.49-1.262-0.076-0.143-0.159-0.281-0.248-0.416h-0.045c0.087 0.144 0.167 0.292 0.239 0.443 0.193 0.404 0.331 0.829 0.424 1.266 0.101 0.438 0.211 0.877 0.361 1.308 0.075 0.215 0.16 0.428 0.264 0.635 0.104 0.206 0.228 0.411 0.393 0.587l0-0c0.181 0.206 0.455 0.417 0.675 0.559 0.222 0.142 0.45 0.266 0.673 0.389l0.166 0.093 0.082 0.047c0.026 0.015 0.052 0.030 0.077 0.046 0.103 0.063 0.205 0.133 0.306 0.206 0.198 0.143 0.374 0.325 0.559 0.483 1.342 1.519 0.703 3.207 0.688 3.246 0.464-0.277 0.779-0.646 0.994-1.021-0.048-0.31-0.146-0.712-0.304-1.232z"></path>
<path fill="rgb(221, 212, 177)" d="M13.227 8.376c-0.204-0.065-0.398-0.131-0.59-0.196h0.003c-0.009-0.002-0.017-0.005-0.026-0.008-0.061-0.021-0.122-0.041-0.183-0.061-0.84-0.323-1.273-1.106-1.494-1.886-0.004-0.009-0.007-0.019-0.011-0.028-0.038-0.105-0.071-0.209-0.103-0.319-0.032-0.11-0.068-0.218-0.107-0.326-0.077-0.215-0.164-0.425-0.257-0.632-0.108-0.24-0.223-0.477-0.343-0.71h-0.032c0.11 0.243 0.215 0.489 0.311 0.737 0.081 0.211 0.157 0.423 0.222 0.638 0.033 0.107 0.062 0.216 0.088 0.324s0.055 0.223 0.089 0.332c0.136 0.439 0.338 0.862 0.623 1.233 0.142 0.185 0.307 0.357 0.494 0.503s0.355 0.252 0.631 0.344c0.548 0.182 0.982 0.195 1.149 0.191-0.276-0.095-0.464-0.138-0.464-0.138z"></path>
<path fill="rgb(232, 221, 205)" d="M10.116 4.211h-0.032l0 0h0.032z"></path>
</svg>
