<?xml version="1.0" encoding="utf-8"?>
<!-- Generated by IcoMoon.io -->
<!DOCTYPE svg PUBLIC "-//W3C//DTD SVG 1.1//EN" "http://www.w3.org/Graphics/SVG/1.1/DTD/svg11.dtd">
<svg version="1.1" xmlns="http://www.w3.org/2000/svg" xmlns:xlink="http://www.w3.org/1999/xlink" width="20" height="20" viewBox="0 0 20 20">
<path fill="rgb(235, 151, 131)" d="M19.691 10c0-5.352-4.339-9.691-9.69-9.691s-9.691 4.338-9.691 9.691c0 5.352 4.339 9.69 9.691 9.69s9.69-4.339 9.69-9.69z"></path>
<path fill="rgb(62, 19, 66)" d="M11.62 6.452c0 0-1.316 1.514-2.106 2.303s-3.096 0.925-4.2 3.309c-0.639 1.379 0.517 3.089 1.765 3.338 2.184 0.436 4.058-0.724 4.86-1.89s2.902-4.269 2.479-7.013c-0.097-0.633-1.285-1.693-2.798-0.048z"></path>
<path fill="rgb(132, 73, 140)" d="M7.225 10.363c-0.625 0.373-1.248 0.91-1.67 1.822-0.274 0.592-0.172 1.254 0.133 1.801 0.318 0.571 2.347-4.107 1.537-3.623z"></path>
<path fill="rgb(113, 140, 48)" d="M13.79 6.916c0.523 0.141 0.151 1.209 0.686 1.3 0.085-0.556 0.126-1.080-0.006-1.695-0.134-0.626-1.465-1.864-2.962-0.154-0.154 0.176-0.376 0.466-0.376 0.466 0.471 0.441 1.408-0.632 1.495-0.597 0.238 0.036 0.241 1.108-0.181 1.322 0 0 0.329 0.192 0.576 0.031 0.251-0.164 0.538-0.735 0.768-0.673z"></path>
<path fill="rgb(113, 140, 48)" d="M14.687 5.236c0.199-0.28 0.24-0.593 0.092-0.698s-0.429 0.037-0.628 0.318c-0.133 0.188-0.576 0.629-0.709 0.817-0.199 0.281-0.153 0.654-0.005 0.759s0.516 0.024 0.715-0.256c0.133-0.188 0.403-0.752 0.536-0.94z"></path>
</svg>
