<?xml version="1.0" encoding="utf-8"?>
<!-- Generated by IcoMoon.io -->
<!DOCTYPE svg PUBLIC "-//W3C//DTD SVG 1.1//EN" "http://www.w3.org/Graphics/SVG/1.1/DTD/svg11.dtd">
<svg version="1.1" xmlns="http://www.w3.org/2000/svg" xmlns:xlink="http://www.w3.org/1999/xlink" width="20" height="20" viewBox="0 0 20 20">
<path fill="rgb(51, 77, 92)" d="M10 19.691c5.337 0 9.691-4.353 9.691-9.691s-4.353-9.691-9.691-9.691c-5.337 0-9.691 4.353-9.691 9.691s4.353 9.691 9.691 9.691z"></path>
<path fill="rgb(89, 196, 195)" d="M8.311 17.385c-1.67-2.692-1.711-7.537-1.506-10.229h6.391c0.206 2.692 0.164 7.537-1.506 10.229h-3.379z"></path>
<path fill="rgb(238, 72, 97)" d="M8.61 16.578c-1.015-1.615-1.299-4.038-1.31-6.191h5.4c-0.011 2.153-0.295 4.576-1.31 6.191h-2.781z"></path>
<path fill="rgb(255, 255, 255)" d="M12.012 6.113c0.308 0.299 0.49 0.774 0.488 1.044h-5.003l-0.007 0.117c-0.004-0.041-0.006-0.072-0.006-0.115 0.001-0.398 0.186-0.759 0.496-1.054-0.029-0.099-0.044-0.199-0.044-0.304 0.002-0.442 0.278-0.835 0.713-1.101 0.075-0.856 1.307-0.855 0.971-1.819-0.053-0.152 0.086-0.208 0.187-0.169 0.748 0.289 1.545 0.991 1.581 1.959 0.001 0.023 0.001 0.045 0.001 0.067 0.413 0.27 0.671 0.648 0.67 1.077-0 0.106-0.017 0.198-0.046 0.297z"></path>
<path fill="rgb(255, 255, 255)" d="M7.32 10.386c-0.026-1.346-0.040-2.554 0.19-3.448 1.746-0.285 3.223-0.175 4.969 0.054 0.186 0.578 0.228 2.048 0.202 3.394h-5.36z"></path>
</svg>
