<?xml version="1.0" encoding="utf-8"?>
<!-- Generated by IcoMoon.io -->
<!DOCTYPE svg PUBLIC "-//W3C//DTD SVG 1.1//EN" "http://www.w3.org/Graphics/SVG/1.1/DTD/svg11.dtd">
<svg version="1.1" xmlns="http://www.w3.org/2000/svg" xmlns:xlink="http://www.w3.org/1999/xlink" width="20" height="20" viewBox="0 0 20 20">
<path fill="rgb(50, 190, 166)" d="M19.691 10c0 5.352-4.338 9.691-9.691 9.691s-9.691-4.339-9.691-9.691 4.338-9.691 9.691-9.691c5.352 0 9.691 4.339 9.691 9.691z"></path>
<path fill="rgb(234, 234, 235)" d="M13.152 9.952c1.629 0.783 1.26 3.619-3.624 3.071-3.056-0.343-5.575-1.366-5.575-3.051s2.018-1.407 5.096-1.407c3.079 0 3.819 1.251 4.103 1.388z"></path>
<path fill="rgb(247, 181, 107)" d="M14.896 11.697c0 0 0.391 1.771 0.221 1.771-0.172 0-0.998-1.55-0.998-1.55s-0.191-0.149-0.609-0.343c-0.244-0.113-0.567-0.241-0.974-0.364-0.343-0.103-0.747-0.202-1.215-0.284-0.391-0.069-0.828-0.126-1.311-0.164-0.382-0.030-0.793-0.048-1.236-0.051-0.332-0.002-0.682 0.004-1.049 0.021-0.073 0.004-0.145 0.006-0.216 0.009-0.626 0.021-1.149 0.005-1.585-0.042-0.457-0.048-0.818-0.129-1.1-0.234-1.84-0.681-0.315-2.355-0.102-2.456 0.098-0.046-0.012-0.382 0.149-0.674 0.151-0.275 0.303-0.915 1.38-0.915h0.038c0.356 0 0.718 0.097 1.081 0.165 0.043 0.008 0.087 0.044 0.13 0.053 0.323 0.067 0.646 0.171 0.964 0.277 0.362 0.121 0.718 0.271 1.064 0.427 0.498 0.226 0.973 0.485 1.405 0.744 0.332 0.199 0.639 0.403 0.912 0.596 0.028 0.020 0.057 0.042 0.085 0.063 0.37 0.272 0.739 0.618 1.075 0.966 0.19 0.196 0.369 0.394 0.53 0.581 0.498 0.573 0.837 1.040 0.837 1.040s1.675-0.181 1.675 0.001c-0 0.191-1.151 0.359-1.151 0.359z"></path>
<path fill="rgb(219, 79, 38)" d="M13.962 10.82c0.498 0.573 0.435 0.516 0.435 0.516s1.675-0.181 1.675 0.001c0 0.191-1.151 0.359-1.151 0.359s0.39 1.759 0.22 1.771c-0.254 0.018-0.961-1.486-1.152-1.634z"></path>
<path fill="rgb(241, 121, 33)" d="M7.34 7.3c-0.093 0.17-0.174 0.343-0.274 0.508-0.139 0.265-0.181 0.563-0.301 0.836-0.066 0.151-0.154 0.292-0.266 0.414-0.094 0.102-0.195 0.198-0.293 0.295-0.060 0.063-0.117 0.129-0.166 0.202-0.013 0.026-0.023 0.053-0.033 0.080-0.019 0.095-0.027 0.193-0.029 0.29-0.001 0.037-0.002 0.073-0.002 0.11 0.003 0.164 0.009 0.329 0.010 0.493 0 0.046-0.015 0.094-0.039 0.139-0.007 0.012-0.014 0.024-0.021 0.035-0.457-0.048-0.818-0.129-1.1-0.234-0.002-0.015-0.003-0.030-0.005-0.045-0.026-0.201-0.096-0.393-0.13-0.593-0.012-0.070-0.020-0.142-0.023-0.215-0.009-0.207 0.019-0.421 0.097-0.609 0.078-0.187 0.21-0.348 0.381-0.456 0.114-0.073 0.228-0.138 0.329-0.228 0.021-0.023 0.041-0.048 0.058-0.073 0.014-0.030 0.026-0.060 0.036-0.092 0.030-0.146 0.036-0.296 0.057-0.443 0.027-0.195 0.086-0.377 0.174-0.552 0.085-0.168 0.181-0.338 0.306-0.479 0.048-0.054 0.096-0.104 0.147-0.15h0.038c0.356 0.003 0.718 0.043 1.081 0.111 0.043 0.008 0.087 0.017 0.13 0.026 0.044 0.127 0.007 0.327-0.16 0.631z"></path>
<path fill="rgb(241, 121, 33)" d="M9.412 8.382c-0.062 0.216-0.14 0.427-0.228 0.634-0.108 0.256-0.376 0.548-0.462 0.813-0.011 0.057-0.018 0.114-0.021 0.171 0 0.005 0.077 0.701 0.074 0.713-0.332-0.002-0.682 0.005-1.049 0.021-0.073 0.003-0.145 0.006-0.216 0.009-0.006-0.012-0.012-0.024-0.017-0.036-0.042-0.093-0.069-0.193-0.079-0.296-0.014-0.149-0.009-0.299 0.015-0.446 0.009-0.054 0.020-0.107 0.033-0.16 0.054-0.212 0.118-0.418 0.209-0.618 0.063-0.139 0.137-0.27 0.213-0.401 0.047-0.087 0.083-0.179 0.112-0.274 0.056-0.248 0.065-0.505 0.115-0.755 0.059-0.299 0.163-0.587 0.353-0.824 0.362 0.121 0.718 0.264 1.064 0.421 0.007 0.042 0.012 0.084 0.014 0.126 0.014 0.312-0.044 0.603-0.13 0.903z"></path>
<path fill="rgb(241, 121, 33)" d="M11.929 8.751c0.001 0.042-0.001 0.085-0.003 0.128-0.012 0.235-0.071 0.467-0.144 0.691-0.076 0.233-0.329 0.477-0.419 0.705-0.058 0.146-0.029 0.556-0.038 0.621-0.002 0.011-0.003 0.022-0.004 0.033-0.391-0.069-0.828-0.126-1.311-0.164-0.002-0.012-0.005-0.023-0.006-0.035-0.036-0.216-0.011-0.426 0.047-0.636 0.007-0.027 0.015-0.053 0.024-0.079 0.109-0.311 0.341-0.55 0.512-0.828 0.051-0.096 0.091-0.195 0.123-0.299 0.030-0.14 0.038-0.283 0.071-0.423s0.072-0.246 0.149-0.368l0.002-0.002c0.332 0.199 0.639 0.401 0.912 0.595 0.029 0.020 0.057 0.041 0.085 0.062z"></path>
<path fill="rgb(241, 121, 33)" d="M13.473 11.381c0.029 0.053 0.041 0.11 0.039 0.167 0 0.009-0 0.018-0.001 0.028-0.244-0.113-0.567-0.242-0.974-0.364-0.001-0.011-0.003-0.022-0.004-0.032-0.017-0.141-0.018-0.283-0.006-0.421 0.006-0.065 0.015-0.13 0.027-0.194 0.039-0.215 0.111-0.427 0.216-0.616 0.056-0.101 0.113-0.179 0.223-0.227 0.004-0.002 0.008-0.004 0.012-0.005 0.19 0.197 0.369 0.394 0.53 0.58-0.056 0.104-0.1 0.214-0.134 0.327-0.022 0.098-0.036 0.197-0.041 0.297-0.001 0.012-0.001 0.024-0.001 0.036 0.004 0.082 0.015 0.162 0.034 0.242 0.021 0.063 0.047 0.124 0.079 0.182z"></path>
<path fill="rgb(11, 48, 27)" d="M6.51 12.422c-0.122-0.064-0.429-1.609-0.034-2.289 0.243-0.419 1.871-3.2 1.988-3.2 0.419-0.002 1.953 0.866 1.953 0.866s-1.723 2.686-1.813 2.917c-0.217 0.562 0.1 2.19 0.1 2.19s-1.701-0.225-2.195-0.484z"></path>
</svg>
