<?xml version="1.0" encoding="utf-8"?>
<!-- Generated by IcoMoon.io -->
<!DOCTYPE svg PUBLIC "-//W3C//DTD SVG 1.1//EN" "http://www.w3.org/Graphics/SVG/1.1/DTD/svg11.dtd">
<svg version="1.1" xmlns="http://www.w3.org/2000/svg" xmlns:xlink="http://www.w3.org/1999/xlink" width="20" height="20" viewBox="0 0 20 20">
<path fill="rgb(50, 190, 166)" d="M0.309 10c0-5.352 4.339-9.691 9.691-9.691s9.69 4.338 9.69 9.691c0 5.352-4.339 9.691-9.69 9.691s-9.691-4.339-9.691-9.691z"></path>
<path fill="rgb(227, 228, 229)" d="M14.2 15.253c0.005-0.029 0.008-0.059 0.008-0.090l-0.226-0.747-0.586-8.579c0-0.316-0.219-0.573-0.489-0.573h-6.354c-0.27 0-0.489 0.257-0.489 0.573l-0.582 8.518-0.23 0.808c0 0.031 0.003 0.061 0.008 0.091-0.022 0.051-0.033 0.103-0.033 0.155 0 0.709 2.117 1.196 4.503 1.196s4.503-0.487 4.503-1.196c0-0.053-0.011-0.105-0.033-0.156z"></path>
<path fill="rgb(242, 207, 59)" d="M13.485 14.342c0.004-0.026 0.007-0.052 0.007-0.078l-0.45-8.757c0-0.28-6.688-0.28-6.688 0l-0.45 8.757c0 0.027 0.003 0.053 0.007 0.079-0.018 0.044-0.028 0.089-0.028 0.135 0 0.617 1.708 1.117 3.815 1.117s3.815-0.5 3.815-1.117c-0-0.046-0.010-0.091-0.028-0.136z"></path>
<path fill="rgb(255, 221, 77)" d="M13.059 5.507c0-0.28-6.73-0.28-6.73 0l-0.426 8.757c0 0.027 0.003 0.053 0.007 0.079-0.018 0.044-0.028 0.089-0.028 0.135 0 0.617 7.177-8.971 7.177-8.971z"></path>
<path fill="rgb(227, 228, 229)" d="M16.024 11.123c0-1.936-1.083-3.49-2.728-3.915l0.043 0.683c1.189 0.527 1.886 1.737 1.886 3.232 0 0.598-0.669 1.788-1.518 2.612l0.052 0.832c1.13-0.942 2.265-2.638 2.265-3.443z"></path>
<path fill="rgb(219, 221, 220)" d="M13.119 6.708l-0.069-1.116c0-0.311-6.721-0.311-6.721 0l-0.054 1.118c0 0 1.819-0.32 3.455-0.32s3.388 0.318 3.388 0.318z"></path>
<path fill="rgb(239, 242, 241)" d="M13.095 6.541l-0.041-1.057c0-0.694-6.712-0.694-6.712 0l-0.053 1.058c0 0 1.807-0.303 3.443-0.303s3.364 0.302 3.364 0.302z"></path>
<path fill="rgb(219, 221, 220)" d="M4.993 5.083c0 0-0.43 0.996 0.238 1.719s1.334-0.193 1.735-0.578c1.825-1.751 6.153-0.779 6.153-0.779 0.086-0.841-0.103-1.808-1.549-2.085-1.234-0.237-2.025 0.222-2.454 0.167s-1.575-0.445-2.264-0.222c-1.12 0.361-1.668 1.334-1.859 1.779z"></path>
<path fill="rgb(233, 238, 238)" d="M4.993 4.988c0 0-0.43 0.995 0.238 1.718s1.35-0.178 1.735-0.578c1.714-1.783 6.153-0.778 6.153-0.778 0.086-0.841-0.103-1.808-1.549-2.085-1.234-0.236-2.025 0.222-2.454 0.167s-1.575-0.445-2.264-0.222c-1.12 0.361-1.668 1.334-1.859 1.779z"></path>
<path fill="rgb(255, 239, 174)" d="M8.878 10.992c-0.223 0-0.405-0.182-0.405-0.405s0.182-0.405 0.405-0.405 0.405 0.182 0.405 0.405-0.182 0.405-0.405 0.405zM8.878 10.297c-0.16 0-0.29 0.13-0.29 0.29s0.13 0.291 0.29 0.291 0.29-0.13 0.29-0.291c-0-0.16-0.13-0.29-0.29-0.29z"></path>
<path fill="rgb(255, 239, 174)" d="M9.622 11.992c-0.115 0-0.208-0.093-0.208-0.208s0.093-0.208 0.208-0.208 0.208 0.093 0.208 0.208-0.093 0.208-0.208 0.208zM9.622 11.69c-0.051 0-0.093 0.042-0.093 0.093s0.042 0.093 0.093 0.093 0.093-0.042 0.093-0.093c0-0.052-0.042-0.093-0.093-0.093z"></path>
<path fill="rgb(255, 239, 174)" d="M10.064 10.747c-0.189 0-0.344-0.154-0.344-0.344s0.154-0.344 0.344-0.344c0.19 0 0.344 0.154 0.344 0.344s-0.154 0.344-0.344 0.344zM10.064 10.175c-0.126 0-0.229 0.103-0.229 0.229s0.103 0.229 0.229 0.229 0.229-0.103 0.229-0.229-0.103-0.229-0.229-0.229z"></path>
<path fill="rgb(255, 239, 174)" d="M10.246 9.294c-0.29 0-0.526-0.236-0.526-0.526s0.236-0.526 0.526-0.526c0.29 0 0.526 0.236 0.526 0.526s-0.236 0.526-0.526 0.526zM10.246 8.357c-0.227 0-0.411 0.185-0.411 0.411s0.185 0.412 0.411 0.412 0.411-0.185 0.411-0.412c0-0.227-0.185-0.411-0.411-0.411z"></path>
<path fill="rgb(255, 239, 174)" d="M10.1 13.683c-0.152 0-0.276-0.124-0.276-0.276s0.124-0.276 0.276-0.276 0.276 0.124 0.276 0.276c0 0.152-0.124 0.276-0.276 0.276zM10.1 13.246c-0.089 0-0.161 0.072-0.161 0.161s0.072 0.161 0.161 0.161c0.089 0 0.161-0.072 0.161-0.161s-0.072-0.161-0.161-0.161z"></path>
<path fill="rgb(255, 239, 174)" d="M9.556 14.782c-0.116 0-0.211-0.095-0.211-0.211s0.094-0.21 0.211-0.21 0.211 0.094 0.211 0.21c-0 0.116-0.094 0.211-0.211 0.211zM9.556 14.476c-0.053 0-0.096 0.043-0.096 0.096s0.043 0.096 0.096 0.096c0.053 0 0.096-0.043 0.096-0.096s-0.043-0.096-0.096-0.096z"></path>
<path fill="rgb(255, 239, 174)" d="M10.246 12.759c-0.152 0-0.276-0.124-0.276-0.276s0.124-0.276 0.276-0.276c0.152 0 0.276 0.124 0.276 0.276s-0.124 0.276-0.276 0.276zM10.246 12.322c-0.089 0-0.161 0.072-0.161 0.161s0.072 0.161 0.161 0.161c0.089 0 0.161-0.072 0.161-0.161s-0.072-0.161-0.161-0.161z"></path>
</svg>
