<?xml version="1.0" encoding="utf-8"?>
<!-- Generated by IcoMoon.io -->
<!DOCTYPE svg PUBLIC "-//W3C//DTD SVG 1.1//EN" "http://www.w3.org/Graphics/SVG/1.1/DTD/svg11.dtd">
<svg version="1.1" xmlns="http://www.w3.org/2000/svg" xmlns:xlink="http://www.w3.org/1999/xlink" width="20" height="20" viewBox="0 0 20 20">
<path fill="rgb(50, 190, 166)" d="M19.691 10c0 5.352-4.338 9.691-9.691 9.691s-9.691-4.339-9.691-9.691c0-5.352 4.338-9.691 9.691-9.691s9.691 4.339 9.691 9.691z"></path>
<path fill="rgb(255, 255, 255)" d="M16.718 13.176c0 1.286-3.008 2.328-6.718 2.328s-6.718-1.042-6.718-2.328c0-1.285 3.008-2.328 6.718-2.328s6.718 1.042 6.718 2.328z"></path>
<path fill="rgb(143, 33, 54)" d="M15.235 12.575c-0.673-1.38-1.336-2.953-1.862-4.749-0.535-1.73-1.461-2.479-3.345-2.443v0.001c0 0 0.005-0.001 0-0.001s-0 0.001-0 0.001v0.052h0v-0.052c0 0 0.005-0.001 0-0.001s0 0.001 0 0.001v-0.001c-1.615-0.036-2.759 0.713-3.294 2.443-0.526 1.796-1.134 3.369-1.807 4.749-0.075 0.088-0.114 0.18-0.114 0.274 0 0.228 0.227 0.441 0.63 0.628 0.040-0.008 0.086-0.012 0.136-0.012 0.205 0 0.399 0.075 0.433 0.169 0.007 0.019 0.006 0.038-0.001 0.056 0.338 0.103 0.738 0.193 1.183 0.266 0.044-0.031 0.11-0.049 0.19-0.049 0.132 0 0.258 0.052 0.313 0.122 0.403 0.051 0.836 0.089 1.291 0.113 0.029-0.058 0.118-0.099 0.235-0.099 0.13 0 0.254 0.050 0.31 0.12 0.16 0.003 0.323 0.006 0.488 0.006 0.019 0 0.038-0 0.057-0.001s0.038 0.001 0.057 0.001c0.165 0 0.328-0.002 0.488-0.006 0.056-0.069 0.181-0.12 0.31-0.12 0.117 0 0.206 0.041 0.235 0.099 0.455-0.023 0.888-0.061 1.291-0.113 0.055-0.070 0.181-0.122 0.313-0.122 0.079 0 0.146 0.019 0.19 0.049 0.446-0.073 0.846-0.163 1.183-0.266-0.007-0.018-0.007-0.037-0-0.056 0.034-0.094 0.228-0.169 0.433-0.169 0.050 0 0.096 0.004 0.136 0.012 0.402-0.187 0.63-0.401 0.63-0.628 0-0.094-0.039-0.186-0.113-0.274z"></path>
<path fill="rgb(130, 13, 36)" d="M9.242 13.985c-0.099 0-0.178 0.057-0.218 0.101 0.209-2.383 0.534-4.768 0.641-7.149l0.162-0.012-0.273 7.124h-0.002c-0.056 0-0.181-0.064-0.311-0.064zM7.403 13.906c-0.076 0-0.14 0.017-0.183 0.045 0.779-2.116 1.236-4.483 1.619-6.908l0.18-0.090c-0.345 2.447-0.787 4.797-1.309 7.068-0.058-0.067-0.18-0.114-0.307-0.114zM6.029 13.689c0.007-0.018 0.008-0.037 0.001-0.056-0.034-0.094-0.228-0.169-0.433-0.169-0.036 0-0.069 0.002-0.1 0.006 0.899-1.52 1.626-3.728 2.316-6.086l0.18 0.054c-0.59 2.176-1.177 4.357-1.954 6.253-0.003-0.001-0.006-0.001-0.009-0.002z"></path>
<path fill="rgb(130, 13, 36)" d="M10.702 14.050h-0.002l-0.273-7.117 0.162-0.008c0.108 2.381 0.432 4.793 0.641 7.176-0.040-0.044-0.119-0.122-0.218-0.122-0.13 0-0.254 0.071-0.31 0.071zM12.545 14.020c-0.522-2.271-0.964-4.621-1.309-7.068l0.18 0.090c0.383 2.425 0.84 4.793 1.619 6.908-0.043-0.028-0.107-0.045-0.183-0.045-0.127-0-0.249 0.048-0.307 0.114zM14.216 13.692c-0.777-1.896-1.364-4.077-1.954-6.253l0.18-0.054c0.69 2.358 1.418 4.566 2.317 6.086-0.031-0.004-0.065-0.007-0.1-0.007-0.205 0-0.399 0.076-0.433 0.169-0.007 0.019-0.006 0.038 0.001 0.056-0.003 0.001-0.006 0.002-0.009 0.002z"></path>
<path fill="rgb(237, 214, 201)" d="M10.028 5.383v0.001c0 0 0.005-0.001 0-0.001s-0 0.001-0 0.001v0c0 0 0.005-0.001 0-0.001s0 0.001 0 0.001v-0.001c-1.615-0.036-2.759 0.713-3.294 2.443-0.136 0.466-0.281 0.917-0.428 1.354 0.269-0.006 0.467-0.26 0.621-0.78 0.216-0.65 0.984-0.468 0.705 0.082-0.34 0.62-0.605 1.187-0.333 1.365 0.324 0.084 0.586-0.262 0.699-0.884 0.083-0.445 0.223-0.941 0.679-0.878 0.17 0.049 0.077 0.345-0.081 0.589-0.281 0.47 0.271 0.511 0.431 0.106 0.182-0.314 0.504 0.049 0.34 0.797-0.139 0.537-0.122 0.948 0.367 0.869 0.241-0.058 0.334-0.366 0.308-0.873-0.062-0.695 0.514-1.197 0.647-0.646 0.049 0.302 0.339 0.221 0.481 0.061 0.303-0.312 0.541-0.105 0.623 0.305 0.052 0.235 0.321 0.293 0.515 0.072 0.399-0.592 0.533-0.417 0.385 0.357-0.020 0.807 0.542 0.783 0.703 0.181 0.062-0.745 0.198-1.144 0.435-0.799-0.138-0.413-0.328-0.839-0.457-1.278-0.535-1.73-1.461-2.479-3.345-2.443z"></path>
<path fill="rgb(76, 133, 0)" d="M8.246 6.556c0.27-0.633 0.666-1.003 1.421-0.613l0.099 0.415c-0.372 0.492-0.863 0.609-1.52 0.198z"></path>
<path fill="rgb(76, 133, 0)" d="M9.947 6.205l0.302 0.105c0.161 0.436 0.035 0.795-0.491 1.047-0.29-0.428-0.365-0.829 0.188-1.152z"></path>
<path fill="rgb(76, 133, 0)" d="M10.785 5.789l-0.309-0.293c0.043-0.617 0.39-0.983 1.164-0.999 0.119 0.678-0.009 1.204-0.855 1.293z"></path>
<path fill="rgb(227, 25, 33)" d="M9.244 5.789c0-0.418 0.339-0.757 0.756-0.757s0.756 0.34 0.756 0.757c0 0.419-0.339 0.758-0.756 0.758s-0.756-0.339-0.756-0.758z"></path>
<path fill="rgb(227, 25, 33)" d="M10.387 6.051c0-0.349 0.282-0.632 0.63-0.632s0.63 0.283 0.63 0.632c0 0.349-0.282 0.631-0.63 0.631s-0.63-0.283-0.63-0.631z"></path>
</svg>
