<?xml version="1.0" encoding="utf-8"?>
<!-- Generated by IcoMoon.io -->
<!DOCTYPE svg PUBLIC "-//W3C//DTD SVG 1.1//EN" "http://www.w3.org/Graphics/SVG/1.1/DTD/svg11.dtd">
<svg version="1.1" xmlns="http://www.w3.org/2000/svg" xmlns:xlink="http://www.w3.org/1999/xlink" width="20" height="20" viewBox="0 0 20 20">
<path fill="rgb(237, 201, 47)" d="M19.691 10c0-5.352-4.339-9.691-9.69-9.691s-9.691 4.338-9.691 9.691c0 5.352 4.339 9.69 9.691 9.69s9.69-4.339 9.69-9.69z"></path>
<path fill="rgb(215, 62, 46)" d="M11.096 5.847l-1.108 0.39-1.124-0.376c-3.991-0.93-3.958 2.695-3.597 3.621 2.312 5.924 4.058 6.443 4.761 6.408 0.666 0.052 2.437-0.363 4.718-6.475 0.348-0.931 0.327-4.556-3.65-3.567z"></path>
<path fill="rgb(226, 75, 64)" d="M9.988 6.237l-1.124-0.376c-3.991-0.93-3.958 2.695-3.597 3.621 2.312 5.924 4.058 6.443 4.761 6.408 0 0 0.608-2.587 0.713-4.795 0.104-2.188-0.754-4.857-0.754-4.857z"></path>
<path fill="rgb(188, 54, 43)" d="M10.226 15.392c0 0.153-0.101 0.277-0.226 0.277s-0.226-0.124-0.226-0.277c0-0.153 0.101-0.277 0.226-0.277s0.226 0.124 0.226 0.277z"></path>
<path fill="rgb(221, 193, 29)" d="M10.001 15.532c0.039-0 0.103-0.146 0.103-0.178-0-0.057-0.047-0.103-0.104-0.103s-0.103 0.047-0.103 0.104c0 0.033 0.065 0.178 0.104 0.178z"></path>
<path fill="rgb(188, 54, 43)" d="M10.226 14.183c0 0.153-0.101 0.277-0.226 0.277s-0.226-0.124-0.226-0.277c0-0.153 0.101-0.277 0.226-0.277s0.226 0.124 0.226 0.277z"></path>
<path fill="rgb(221, 193, 29)" d="M10.001 14.324c0.039-0 0.103-0.146 0.103-0.178-0-0.057-0.047-0.103-0.104-0.103s-0.103 0.047-0.103 0.104c0 0.033 0.065 0.178 0.104 0.178z"></path>
<path fill="rgb(188, 54, 43)" d="M10.226 12.974c0 0.153-0.101 0.277-0.226 0.277s-0.226-0.124-0.226-0.277c0-0.153 0.101-0.277 0.226-0.277s0.226 0.124 0.226 0.277z"></path>
<path fill="rgb(221, 193, 29)" d="M10.001 13.115c0.039-0 0.103-0.146 0.103-0.178-0-0.057-0.047-0.103-0.104-0.103s-0.103 0.047-0.103 0.104c0 0.033 0.065 0.178 0.104 0.178z"></path>
<path fill="rgb(188, 54, 43)" d="M10.226 11.766c0 0.153-0.101 0.277-0.226 0.277s-0.226-0.124-0.226-0.277c0-0.153 0.101-0.277 0.226-0.277s0.226 0.124 0.226 0.277z"></path>
<path fill="rgb(221, 193, 29)" d="M10.001 11.907c0.039-0 0.103-0.146 0.103-0.178-0-0.057-0.047-0.103-0.104-0.103s-0.103 0.047-0.103 0.104c0 0.033 0.065 0.178 0.104 0.178z"></path>
<path fill="rgb(188, 54, 43)" d="M10.226 10.557c0 0.153-0.101 0.277-0.226 0.277s-0.226-0.124-0.226-0.277c0-0.153 0.101-0.277 0.226-0.277s0.226 0.124 0.226 0.277z"></path>
<path fill="rgb(221, 193, 29)" d="M10.001 10.698c0.039-0 0.103-0.146 0.103-0.178-0-0.057-0.047-0.103-0.104-0.103s-0.103 0.047-0.103 0.104c0 0.033 0.065 0.178 0.104 0.178z"></path>
<path fill="rgb(188, 54, 43)" d="M10.226 9.349c0 0.153-0.101 0.277-0.226 0.277s-0.226-0.124-0.226-0.277c0-0.153 0.101-0.277 0.226-0.277s0.226 0.124 0.226 0.277z"></path>
<path fill="rgb(221, 193, 29)" d="M10.001 9.49c0.039-0 0.103-0.146 0.103-0.178-0-0.057-0.047-0.103-0.104-0.103s-0.103 0.047-0.103 0.104c0 0.033 0.065 0.178 0.104 0.178z"></path>
<path fill="rgb(188, 54, 43)" d="M10.226 8.14c0 0.153-0.101 0.277-0.226 0.277s-0.226-0.124-0.226-0.277c0-0.153 0.101-0.277 0.226-0.277s0.226 0.124 0.226 0.277z"></path>
<path fill="rgb(221, 193, 29)" d="M10.001 8.281c0.039-0 0.103-0.146 0.103-0.178-0-0.057-0.047-0.103-0.104-0.103s-0.103 0.047-0.103 0.104c0 0.033 0.065 0.178 0.104 0.178z"></path>
<path fill="rgb(188, 54, 43)" d="M10.226 6.932c0 0.153-0.101 0.277-0.226 0.277s-0.226-0.124-0.226-0.277c0-0.153 0.101-0.277 0.226-0.277s0.226 0.124 0.226 0.277z"></path>
<path fill="rgb(221, 193, 29)" d="M10.001 7.072c0.039-0 0.103-0.146 0.103-0.178-0-0.057-0.047-0.103-0.104-0.103s-0.103 0.047-0.103 0.104c0 0.033 0.065 0.178 0.104 0.178z"></path>
<path fill="rgb(188, 54, 43)" d="M12.417 13.906c-0.108 0-0.195 0.124-0.195 0.277 0 0.073 0.020 0.139 0.053 0.189 0.090-0.12 0.182-0.25 0.276-0.39-0.035-0.047-0.082-0.077-0.134-0.077z"></path>
<path fill="rgb(221, 193, 29)" d="M12.417 14.042c-0.049 0-0.089 0.047-0.089 0.104 0 0.017 0.016 0.065 0.035 0.107 0.040-0.056 0.081-0.113 0.122-0.173-0.016-0.023-0.040-0.038-0.068-0.038z"></path>
<path fill="rgb(188, 54, 43)" d="M12.612 12.974c0 0.153-0.087 0.277-0.195 0.277s-0.195-0.124-0.195-0.277c0-0.153 0.087-0.277 0.195-0.277s0.195 0.124 0.195 0.277z"></path>
<path fill="rgb(221, 193, 29)" d="M12.418 13.115c0.034-0 0.089-0.146 0.089-0.178-0-0.057-0.040-0.103-0.090-0.103s-0.089 0.047-0.089 0.104c0 0.033 0.056 0.178 0.090 0.178z"></path>
<path fill="rgb(188, 54, 43)" d="M12.612 11.766c0 0.153-0.087 0.277-0.195 0.277s-0.195-0.124-0.195-0.277c0-0.153 0.087-0.277 0.195-0.277s0.195 0.124 0.195 0.277z"></path>
<path fill="rgb(221, 193, 29)" d="M12.418 11.907c0.034-0 0.089-0.146 0.089-0.178-0-0.057-0.040-0.103-0.090-0.103s-0.089 0.047-0.089 0.104c0 0.033 0.056 0.178 0.090 0.178z"></path>
<path fill="rgb(188, 54, 43)" d="M12.612 10.557c0 0.153-0.087 0.277-0.195 0.277s-0.195-0.124-0.195-0.277c0-0.153 0.087-0.277 0.195-0.277s0.195 0.124 0.195 0.277z"></path>
<path fill="rgb(221, 193, 29)" d="M12.418 10.698c0.034-0 0.089-0.146 0.089-0.178-0-0.057-0.040-0.103-0.090-0.103s-0.089 0.047-0.089 0.104c0 0.033 0.056 0.178 0.090 0.178z"></path>
<path fill="rgb(188, 54, 43)" d="M12.612 9.349c0 0.153-0.087 0.277-0.195 0.277s-0.195-0.124-0.195-0.277c0-0.153 0.087-0.277 0.195-0.277s0.195 0.124 0.195 0.277z"></path>
<path fill="rgb(221, 193, 29)" d="M12.418 9.49c0.034-0 0.089-0.146 0.089-0.178-0-0.057-0.040-0.103-0.090-0.103s-0.089 0.047-0.089 0.104c0 0.033 0.056 0.178 0.090 0.178z"></path>
<path fill="rgb(188, 54, 43)" d="M12.612 8.14c0 0.153-0.087 0.277-0.195 0.277s-0.195-0.124-0.195-0.277c0-0.153 0.087-0.277 0.195-0.277s0.195 0.124 0.195 0.277z"></path>
<path fill="rgb(221, 193, 29)" d="M12.418 8.281c0.034-0 0.089-0.146 0.089-0.178-0-0.057-0.040-0.103-0.090-0.103s-0.089 0.047-0.089 0.104c0 0.033 0.056 0.178 0.090 0.178z"></path>
<path fill="rgb(188, 54, 43)" d="M12.612 6.932c0 0.153-0.087 0.277-0.195 0.277s-0.195-0.124-0.195-0.277c0-0.153 0.087-0.277 0.195-0.277s0.195 0.124 0.195 0.277z"></path>
<path fill="rgb(221, 193, 29)" d="M12.418 7.072c0.034-0 0.089-0.146 0.089-0.178-0-0.057-0.040-0.103-0.090-0.103s-0.089 0.047-0.089 0.104c0 0.033 0.056 0.178 0.090 0.178z"></path>
<path fill="rgb(188, 54, 43)" d="M12.417 6.001c0.108 0 0.195-0.124 0.195-0.277 0-0.012-0.001-0.024-0.003-0.035-0.122-0.009-0.25-0.012-0.384-0.008-0.001 0.014-0.003 0.028-0.003 0.043 0 0.153 0.087 0.277 0.195 0.277z"></path>
<path fill="rgb(221, 193, 29)" d="M12.418 5.864c0.034-0 0.089-0.146 0.089-0.178 0-0.001-0.001-0.003-0.001-0.004-0.058-0.002-0.116-0.004-0.177-0.003-0 0.003-0.001 0.005-0.001 0.008 0 0.033 0.056 0.178 0.090 0.178z"></path>
<path fill="rgb(188, 54, 43)" d="M14.665 9.349c0 0.153-0.070 0.277-0.156 0.277s-0.156-0.124-0.156-0.277c0-0.153 0.070-0.277 0.156-0.277s0.156 0.124 0.156 0.277z"></path>
<path fill="rgb(221, 193, 29)" d="M14.51 9.49c0.027-0 0.071-0.146 0.071-0.178-0-0.057-0.032-0.103-0.072-0.103s-0.071 0.047-0.071 0.104c0 0.033 0.045 0.178 0.072 0.178z"></path>
<path fill="rgb(188, 54, 43)" d="M14.665 8.14c0 0.153-0.070 0.277-0.156 0.277s-0.156-0.124-0.156-0.277c0-0.153 0.070-0.277 0.156-0.277s0.156 0.124 0.156 0.277z"></path>
<path fill="rgb(221, 193, 29)" d="M14.51 8.281c0.027-0 0.071-0.146 0.071-0.178-0-0.057-0.032-0.103-0.072-0.103s-0.071 0.047-0.071 0.104c0 0.033 0.045 0.178 0.072 0.178z"></path>
<path fill="rgb(188, 54, 43)" d="M14.353 6.932c0 0.153 0.070 0.277 0.156 0.277 0.050 0 0.094-0.042 0.122-0.107-0.058-0.139-0.127-0.273-0.209-0.401-0.042 0.050-0.069 0.134-0.069 0.231z"></path>
<path fill="rgb(221, 193, 29)" d="M14.438 6.895c0 0.033 0.045 0.178 0.072 0.178 0.018-0 0.042-0.061 0.057-0.113-0.026-0.054-0.055-0.108-0.085-0.16-0.026 0.016-0.044 0.053-0.044 0.096z"></path>
<path fill="rgb(188, 54, 43)" d="M7.583 13.906c-0.037 0-0.071 0.015-0.1 0.041 0.091 0.134 0.181 0.258 0.268 0.375 0.016-0.041 0.027-0.087 0.027-0.138-0-0.153-0.087-0.277-0.195-0.277z"></path>
<path fill="rgb(221, 193, 29)" d="M7.583 14.042c-0.010 0-0.020 0.003-0.029 0.007 0.036 0.051 0.071 0.1 0.106 0.148 0.008-0.022 0.013-0.042 0.013-0.052-0-0.057-0.040-0.103-0.090-0.103z"></path>
<path fill="rgb(188, 54, 43)" d="M7.778 12.974c0 0.153-0.087 0.277-0.195 0.277s-0.195-0.124-0.195-0.277c0-0.153 0.087-0.277 0.195-0.277s0.195 0.124 0.195 0.277z"></path>
<path fill="rgb(221, 193, 29)" d="M7.583 13.115c0.034-0 0.089-0.146 0.089-0.178-0-0.057-0.040-0.103-0.090-0.103s-0.089 0.047-0.089 0.104c0 0.033 0.056 0.178 0.090 0.178z"></path>
<path fill="rgb(188, 54, 43)" d="M7.778 11.766c0 0.153-0.087 0.277-0.195 0.277s-0.195-0.124-0.195-0.277c0-0.153 0.087-0.277 0.195-0.277s0.195 0.124 0.195 0.277z"></path>
<path fill="rgb(221, 193, 29)" d="M7.583 11.907c0.034-0 0.089-0.146 0.089-0.178-0-0.057-0.040-0.103-0.090-0.103s-0.089 0.047-0.089 0.104c0 0.033 0.056 0.178 0.090 0.178z"></path>
<path fill="rgb(188, 54, 43)" d="M7.778 10.557c0 0.153-0.087 0.277-0.195 0.277s-0.195-0.124-0.195-0.277c0-0.153 0.087-0.277 0.195-0.277s0.195 0.124 0.195 0.277z"></path>
<path fill="rgb(221, 193, 29)" d="M7.583 10.698c0.034-0 0.089-0.146 0.089-0.178-0-0.057-0.040-0.103-0.090-0.103s-0.089 0.047-0.089 0.104c0 0.033 0.056 0.178 0.090 0.178z"></path>
<path fill="rgb(188, 54, 43)" d="M7.778 9.349c0 0.153-0.087 0.277-0.195 0.277s-0.195-0.124-0.195-0.277c0-0.153 0.087-0.277 0.195-0.277s0.195 0.124 0.195 0.277z"></path>
<path fill="rgb(221, 193, 29)" d="M7.583 9.49c0.034-0 0.089-0.146 0.089-0.178-0-0.057-0.040-0.103-0.090-0.103s-0.089 0.047-0.089 0.104c0 0.033 0.056 0.178 0.090 0.178z"></path>
<path fill="rgb(188, 54, 43)" d="M7.778 8.14c0 0.153-0.087 0.277-0.195 0.277s-0.195-0.124-0.195-0.277c0-0.153 0.087-0.277 0.195-0.277s0.195 0.124 0.195 0.277z"></path>
<path fill="rgb(221, 193, 29)" d="M7.583 8.281c0.034-0 0.089-0.146 0.089-0.178-0-0.057-0.040-0.103-0.090-0.103s-0.089 0.047-0.089 0.104c0 0.033 0.056 0.178 0.090 0.178z"></path>
<path fill="rgb(188, 54, 43)" d="M7.778 6.932c0 0.153-0.087 0.277-0.195 0.277s-0.195-0.124-0.195-0.277c0-0.153 0.087-0.277 0.195-0.277s0.195 0.124 0.195 0.277z"></path>
<path fill="rgb(221, 193, 29)" d="M7.583 7.072c0.034-0 0.089-0.146 0.089-0.178-0-0.057-0.040-0.103-0.090-0.103s-0.089 0.047-0.089 0.104c0 0.033 0.056 0.178 0.090 0.178z"></path>
<path fill="rgb(188, 54, 43)" d="M5.621 9.349c0 0.153-0.070 0.277-0.156 0.277s-0.156-0.124-0.156-0.277c0-0.153 0.070-0.277 0.156-0.277s0.156 0.124 0.156 0.277z"></path>
<path fill="rgb(221, 193, 29)" d="M5.465 9.49c0.027-0 0.071-0.146 0.071-0.178 0-0.057-0.032-0.103-0.072-0.103s-0.071 0.047-0.071 0.104c0 0.033 0.045 0.178 0.072 0.178z"></path>
<path fill="rgb(188, 54, 43)" d="M5.621 8.14c0 0.153-0.070 0.277-0.156 0.277s-0.156-0.124-0.156-0.277c0-0.153 0.070-0.277 0.156-0.277s0.156 0.124 0.156 0.277z"></path>
<path fill="rgb(221, 193, 29)" d="M5.465 8.281c0.027-0 0.071-0.146 0.071-0.178 0-0.057-0.032-0.103-0.072-0.103s-0.071 0.047-0.071 0.104c0 0.033 0.045 0.178 0.072 0.178z"></path>
<path fill="rgb(188, 54, 43)" d="M5.465 7.209c0.086 0 0.156-0.124 0.156-0.277 0-0.079-0.019-0.15-0.049-0.201-0.083 0.129-0.153 0.266-0.211 0.407 0.028 0.044 0.064 0.072 0.104 0.072z"></path>
<path fill="rgb(221, 193, 29)" d="M5.465 7.072c0.027-0 0.071-0.146 0.071-0.178 0-0.028-0.008-0.053-0.020-0.072-0.034 0.059-0.066 0.118-0.094 0.179 0.014 0.038 0.031 0.071 0.044 0.071z"></path>
<path fill="rgb(188, 54, 43)" d="M11.423 14.8c0 0.153-0.096 0.277-0.214 0.277s-0.214-0.124-0.214-0.277c0-0.153 0.096-0.277 0.214-0.277s0.214 0.124 0.214 0.277z"></path>
<path fill="rgb(221, 193, 29)" d="M11.209 14.941c0.037-0 0.098-0.146 0.098-0.178-0-0.057-0.044-0.103-0.098-0.103s-0.098 0.047-0.098 0.104c0 0.033 0.062 0.178 0.099 0.178z"></path>
<path fill="rgb(188, 54, 43)" d="M11.423 13.592c0 0.153-0.096 0.277-0.214 0.277s-0.214-0.124-0.214-0.277c0-0.153 0.096-0.277 0.214-0.277s0.214 0.124 0.214 0.277z"></path>
<path fill="rgb(221, 193, 29)" d="M11.209 13.733c0.037-0 0.098-0.146 0.098-0.178-0-0.057-0.044-0.103-0.098-0.103s-0.098 0.047-0.098 0.104c0 0.033 0.062 0.178 0.099 0.178z"></path>
<path fill="rgb(188, 54, 43)" d="M11.423 12.383c0 0.153-0.096 0.277-0.214 0.277s-0.214-0.124-0.214-0.277c0-0.153 0.096-0.277 0.214-0.277s0.214 0.124 0.214 0.277z"></path>
<path fill="rgb(221, 193, 29)" d="M11.209 12.524c0.037-0 0.098-0.146 0.098-0.178-0-0.057-0.044-0.103-0.098-0.103s-0.098 0.047-0.098 0.104c0 0.033 0.062 0.178 0.099 0.178z"></path>
<path fill="rgb(188, 54, 43)" d="M11.423 11.175c0 0.153-0.096 0.277-0.214 0.277s-0.214-0.124-0.214-0.277c0-0.153 0.096-0.277 0.214-0.277s0.214 0.124 0.214 0.277z"></path>
<path fill="rgb(221, 193, 29)" d="M11.209 11.315c0.037-0 0.098-0.146 0.098-0.178-0-0.057-0.044-0.103-0.098-0.103s-0.098 0.047-0.098 0.104c0 0.033 0.062 0.178 0.099 0.178z"></path>
<path fill="rgb(188, 54, 43)" d="M11.423 9.966c0 0.153-0.096 0.277-0.214 0.277s-0.214-0.124-0.214-0.277c0-0.153 0.096-0.277 0.214-0.277s0.214 0.124 0.214 0.277z"></path>
<path fill="rgb(221, 193, 29)" d="M11.209 10.107c0.037-0 0.098-0.146 0.098-0.178-0-0.057-0.044-0.103-0.098-0.103s-0.098 0.047-0.098 0.104c0 0.033 0.062 0.178 0.099 0.178z"></path>
<path fill="rgb(188, 54, 43)" d="M11.423 8.757c0 0.153-0.096 0.277-0.214 0.277s-0.214-0.124-0.214-0.277c0-0.153 0.096-0.277 0.214-0.277s0.214 0.124 0.214 0.277z"></path>
<path fill="rgb(221, 193, 29)" d="M11.209 8.898c0.037-0 0.098-0.146 0.098-0.178-0-0.057-0.044-0.103-0.098-0.103s-0.098 0.047-0.098 0.104c0 0.033 0.062 0.178 0.099 0.178z"></path>
<path fill="rgb(188, 54, 43)" d="M11.423 7.549c0 0.153-0.096 0.277-0.214 0.277s-0.214-0.124-0.214-0.277c0-0.153 0.096-0.277 0.214-0.277s0.214 0.124 0.214 0.277z"></path>
<path fill="rgb(221, 193, 29)" d="M11.209 7.69c0.037-0 0.098-0.146 0.098-0.178-0-0.057-0.044-0.103-0.098-0.103s-0.098 0.047-0.098 0.104c0 0.033 0.062 0.178 0.099 0.178z"></path>
<path fill="rgb(188, 54, 43)" d="M11.423 6.34c0 0.153-0.096 0.277-0.214 0.277s-0.214-0.124-0.214-0.277c0-0.153 0.096-0.277 0.214-0.277s0.214 0.124 0.214 0.277z"></path>
<path fill="rgb(221, 193, 29)" d="M11.209 6.481c0.037-0 0.098-0.146 0.098-0.178-0-0.057-0.044-0.103-0.098-0.103s-0.098 0.047-0.098 0.104c0 0.033 0.062 0.178 0.099 0.178z"></path>
<path fill="rgb(188, 54, 43)" d="M13.801 11.175c0 0.153-0.079 0.277-0.175 0.277s-0.175-0.124-0.175-0.277c0-0.153 0.079-0.277 0.175-0.277s0.175 0.124 0.175 0.277z"></path>
<path fill="rgb(221, 193, 29)" d="M13.626 11.315c0.030-0 0.080-0.146 0.080-0.178-0-0.057-0.036-0.103-0.081-0.103s-0.080 0.047-0.080 0.104c0 0.033 0.051 0.178 0.081 0.178z"></path>
<path fill="rgb(188, 54, 43)" d="M13.801 9.966c0 0.153-0.079 0.277-0.175 0.277s-0.175-0.124-0.175-0.277c0-0.153 0.079-0.277 0.175-0.277s0.175 0.124 0.175 0.277z"></path>
<path fill="rgb(221, 193, 29)" d="M13.626 10.107c0.030-0 0.080-0.146 0.080-0.178-0-0.057-0.036-0.103-0.081-0.103s-0.080 0.047-0.080 0.104c0 0.033 0.051 0.178 0.081 0.178z"></path>
<path fill="rgb(188, 54, 43)" d="M13.801 8.757c0 0.153-0.079 0.277-0.175 0.277s-0.175-0.124-0.175-0.277c0-0.153 0.079-0.277 0.175-0.277s0.175 0.124 0.175 0.277z"></path>
<path fill="rgb(221, 193, 29)" d="M13.626 8.898c0.030-0 0.080-0.146 0.080-0.178-0-0.057-0.036-0.103-0.081-0.103s-0.080 0.047-0.080 0.104c0 0.033 0.051 0.178 0.081 0.178z"></path>
<path fill="rgb(188, 54, 43)" d="M13.801 7.549c0 0.153-0.079 0.277-0.175 0.277s-0.175-0.124-0.175-0.277c0-0.153 0.079-0.277 0.175-0.277s0.175 0.124 0.175 0.277z"></path>
<path fill="rgb(221, 193, 29)" d="M13.626 7.69c0.030-0 0.080-0.146 0.080-0.178-0-0.057-0.036-0.103-0.081-0.103s-0.080 0.047-0.080 0.104c0 0.033 0.051 0.178 0.081 0.178z"></path>
<path fill="rgb(188, 54, 43)" d="M13.801 6.34c0 0.153-0.079 0.277-0.175 0.277s-0.175-0.124-0.175-0.277c0-0.153 0.079-0.277 0.175-0.277s0.175 0.124 0.175 0.277z"></path>
<path fill="rgb(221, 193, 29)" d="M13.626 6.481c0.030-0 0.080-0.146 0.080-0.178-0-0.057-0.036-0.103-0.081-0.103s-0.080 0.047-0.080 0.104c0 0.033 0.051 0.178 0.081 0.178z"></path>
<path fill="rgb(188, 54, 43)" d="M9.006 14.8c0 0.153-0.096 0.277-0.214 0.277s-0.214-0.124-0.214-0.277c0-0.153 0.096-0.277 0.214-0.277s0.214 0.124 0.214 0.277z"></path>
<path fill="rgb(221, 193, 29)" d="M8.792 14.941c0.037-0 0.098-0.146 0.098-0.178-0-0.057-0.044-0.103-0.098-0.103s-0.098 0.047-0.098 0.104c0 0.033 0.062 0.178 0.099 0.178z"></path>
<path fill="rgb(188, 54, 43)" d="M9.006 13.592c0 0.153-0.096 0.277-0.214 0.277s-0.214-0.124-0.214-0.277c0-0.153 0.096-0.277 0.214-0.277s0.214 0.124 0.214 0.277z"></path>
<path fill="rgb(221, 193, 29)" d="M8.792 13.733c0.037-0 0.098-0.146 0.098-0.178-0-0.057-0.044-0.103-0.098-0.103s-0.098 0.047-0.098 0.104c0 0.033 0.062 0.178 0.099 0.178z"></path>
<path fill="rgb(188, 54, 43)" d="M9.006 12.383c0 0.153-0.096 0.277-0.214 0.277s-0.214-0.124-0.214-0.277c0-0.153 0.096-0.277 0.214-0.277s0.214 0.124 0.214 0.277z"></path>
<path fill="rgb(221, 193, 29)" d="M8.792 12.524c0.037-0 0.098-0.146 0.098-0.178-0-0.057-0.044-0.103-0.098-0.103s-0.098 0.047-0.098 0.104c0 0.033 0.062 0.178 0.099 0.178z"></path>
<path fill="rgb(188, 54, 43)" d="M9.006 11.175c0 0.153-0.096 0.277-0.214 0.277s-0.214-0.124-0.214-0.277c0-0.153 0.096-0.277 0.214-0.277s0.214 0.124 0.214 0.277z"></path>
<path fill="rgb(221, 193, 29)" d="M8.792 11.315c0.037-0 0.098-0.146 0.098-0.178-0-0.057-0.044-0.103-0.098-0.103s-0.098 0.047-0.098 0.104c0 0.033 0.062 0.178 0.099 0.178z"></path>
<path fill="rgb(188, 54, 43)" d="M9.006 9.966c0 0.153-0.096 0.277-0.214 0.277s-0.214-0.124-0.214-0.277c0-0.153 0.096-0.277 0.214-0.277s0.214 0.124 0.214 0.277z"></path>
<path fill="rgb(221, 193, 29)" d="M8.792 10.107c0.037-0 0.098-0.146 0.098-0.178-0-0.057-0.044-0.103-0.098-0.103s-0.098 0.047-0.098 0.104c0 0.033 0.062 0.178 0.099 0.178z"></path>
<path fill="rgb(188, 54, 43)" d="M9.006 8.757c0 0.153-0.096 0.277-0.214 0.277s-0.214-0.124-0.214-0.277c0-0.153 0.096-0.277 0.214-0.277s0.214 0.124 0.214 0.277z"></path>
<path fill="rgb(221, 193, 29)" d="M8.792 8.898c0.037-0 0.098-0.146 0.098-0.178-0-0.057-0.044-0.103-0.098-0.103s-0.098 0.047-0.098 0.104c0 0.033 0.062 0.178 0.099 0.178z"></path>
<path fill="rgb(188, 54, 43)" d="M9.006 7.549c0 0.153-0.096 0.277-0.214 0.277s-0.214-0.124-0.214-0.277c0-0.153 0.096-0.277 0.214-0.277s0.214 0.124 0.214 0.277z"></path>
<path fill="rgb(221, 193, 29)" d="M8.792 7.69c0.037-0 0.098-0.146 0.098-0.178-0-0.057-0.044-0.103-0.098-0.103s-0.098 0.047-0.098 0.104c0 0.033 0.062 0.178 0.099 0.178z"></path>
<path fill="rgb(188, 54, 43)" d="M9.006 6.34c0 0.153-0.096 0.277-0.214 0.277s-0.214-0.124-0.214-0.277c0-0.153 0.096-0.277 0.214-0.277s0.214 0.124 0.214 0.277z"></path>
<path fill="rgb(221, 193, 29)" d="M8.792 6.481c0.037-0 0.098-0.146 0.098-0.178-0-0.057-0.044-0.103-0.098-0.103s-0.098 0.047-0.098 0.104c0 0.033 0.062 0.178 0.099 0.178z"></path>
<path fill="rgb(188, 54, 43)" d="M6.199 11.175c0-0.153 0.079-0.277 0.175-0.277s0.176 0.124 0.176 0.277-0.078 0.277-0.176 0.277c-0.097-0-0.175-0.124-0.175-0.277z"></path>
<path fill="rgb(221, 193, 29)" d="M6.375 11.315c0.030-0 0.080-0.146 0.080-0.178-0-0.057-0.036-0.103-0.081-0.103s-0.080 0.047-0.080 0.104c0 0.033 0.051 0.178 0.081 0.178z"></path>
<path fill="rgb(188, 54, 43)" d="M6.199 9.966c0-0.153 0.079-0.277 0.175-0.277s0.176 0.124 0.176 0.277-0.078 0.277-0.176 0.277c-0.097 0-0.175-0.124-0.175-0.277z"></path>
<path fill="rgb(221, 193, 29)" d="M6.375 10.107c0.030-0 0.080-0.146 0.080-0.178-0-0.057-0.036-0.103-0.081-0.103s-0.080 0.047-0.080 0.104c0 0.033 0.051 0.178 0.081 0.178z"></path>
<path fill="rgb(188, 54, 43)" d="M6.199 8.757c0-0.153 0.079-0.277 0.175-0.277s0.176 0.124 0.176 0.277c0 0.153-0.078 0.277-0.176 0.277s-0.175-0.124-0.175-0.277z"></path>
<path fill="rgb(221, 193, 29)" d="M6.375 8.898c0.030-0 0.080-0.146 0.080-0.178-0-0.057-0.036-0.103-0.081-0.103s-0.080 0.047-0.080 0.104c0 0.033 0.051 0.178 0.081 0.178z"></path>
<path fill="rgb(188, 54, 43)" d="M6.199 7.549c0-0.153 0.079-0.277 0.175-0.277s0.176 0.124 0.176 0.277-0.078 0.277-0.176 0.277c-0.097 0-0.175-0.124-0.175-0.277z"></path>
<path fill="rgb(221, 193, 29)" d="M6.375 7.69c0.030-0 0.080-0.146 0.080-0.178-0-0.057-0.036-0.103-0.081-0.103s-0.080 0.047-0.080 0.104c0 0.033 0.051 0.178 0.081 0.178z"></path>
<path fill="rgb(188, 54, 43)" d="M6.199 6.34c0-0.153 0.079-0.277 0.175-0.277s0.176 0.124 0.176 0.277c0 0.153-0.078 0.277-0.176 0.277s-0.175-0.124-0.175-0.277z"></path>
<path fill="rgb(221, 193, 29)" d="M6.375 6.481c0.030-0 0.080-0.146 0.080-0.178-0-0.057-0.036-0.103-0.081-0.103s-0.080 0.047-0.080 0.104c0 0.033 0.051 0.178 0.081 0.178z"></path>
<path fill="rgb(108, 147, 59)" d="M9.537 6.729c0 0 0.148 0.395 0.717 0.647 0.621 0.275 0.856 1.345 0.823 1.703 0 0 0.191-0.309 0.308-0.842 0 0 0.122-0.743-0.399-1.423 0 0 1.54 0.181 2.129 1.291 0 0-0.226-1.993-1.744-2.129 0 0 0.747-0.294 1.11-0.294l1.291 0.045c0 0-0.517-0.261-0.906-0.476 0 0-0.906-0.521-1.653-0.181 0 0-0.204-0.34-0.068-0.963 0 0-0.578 0.521-1.042 1.064 0 0-0.766-0.437-1.428-0.447-0.371-0.005-0.663-0.019-1.086-0.029 0 0 0.815 0.385 0.929 0.521 0 0-0.385 0.034-0.804 0.215 0 0-0.668 0.306-1.076 0.136 0 0 0.023 0.985 2.004 0.578 0 0-1.042 1.563-1.472 1.438 0 0 0.522 0.409 1.482-0.039 0.473-0.221 0.728-0.546 0.885-0.816z"></path>
<path fill="rgb(131, 188, 71)" d="M9.537 6.729c0 0 0.148 0.395 0.717 0.647 0.621 0.275 0.856 1.345 0.823 1.703 0 0 0.191-0.309 0.308-0.842 0 0 0.122-0.743-0.399-1.423l-0.833-1.18c-0.18 0-0.774 1.366-0.617 1.095z"></path>
<path fill="rgb(118, 165, 65)" d="M10.154 5.634c0 0-0.104-0.231-0.050-0.462 0 0-0.766-0.437-1.428-0.447-0.371-0.005-0.663-0.019-1.086-0.029 0 0 0.815 0.385 0.929 0.521 0 0 0.613 0.81 1.636 0.417z"></path>
<path fill="rgb(168, 226, 93)" d="M10.987 6.814c0 0 1.54 0.181 2.129 1.291 0 0-0.226-1.993-1.744-2.129l-1.218-0.342c0-0 0.014 0.724 0.833 1.18z"></path>
<path fill="rgb(131, 188, 71)" d="M10.154 5.634c0 0-0.462-0.392-1.636-0.417 0 0-0.385 0.034-0.804 0.215 0 0-0.668 0.306-1.076 0.136 0 0 0.023 0.985 2.004 0.578 0 0 1.354-0.242 1.511-0.512z"></path>
<path fill="rgb(146, 204, 80)" d="M11.372 5.976c0.071 0 0.747-0.294 1.11-0.294l1.291 0.045c0 0-0.517-0.261-0.906-0.476 0 0-0.906-0.521-1.653-0.181 0 0-0.397 0.147-1.059 0.564-0 0 0.238 0.342 1.218 0.342z"></path>
<path fill="rgb(146, 204, 80)" d="M9.537 6.729l0.617-1.095c0 0-0.658-0.378-1.511 0.512 0 0-1.042 1.563-1.472 1.438 0 0 0.522 0.409 1.482-0.039 0.473-0.221 0.728-0.546 0.885-0.816z"></path>
</svg>
