<?xml version="1.0" encoding="utf-8"?>
<!-- Generated by IcoMoon.io -->
<!DOCTYPE svg PUBLIC "-//W3C//DTD SVG 1.1//EN" "http://www.w3.org/Graphics/SVG/1.1/DTD/svg11.dtd">
<svg version="1.1" xmlns="http://www.w3.org/2000/svg" xmlns:xlink="http://www.w3.org/1999/xlink" width="20" height="20" viewBox="0 0 20 20">
<path fill="rgb(231, 158, 47)" d="M19.691 10c0-5.352-4.339-9.691-9.69-9.691s-9.691 4.338-9.691 9.691c0 5.352 4.339 9.69 9.691 9.69s9.69-4.339 9.69-9.69z"></path>
<path fill="rgb(181, 62, 35)" d="M13.317 9.014c0 3.526-1.485 6.384-3.317 6.384s-3.317-2.858-3.317-6.384 2.392-1.998 3.317-1.998 3.317-1.527 3.317 1.998z"></path>
<path fill="rgb(193, 61, 31)" d="M14.981 9.458c0 3.526-1.485 6.384-3.317 6.384s-3.317-2.858-3.317-6.384c0 0 2.392-1.998 3.317-1.998s3.317-1.527 3.317 1.998z"></path>
<path fill="rgb(193, 61, 31)" d="M11.652 9.458c0 3.526-1.485 6.384-3.317 6.384s-3.317-2.858-3.317-6.384 2.392-1.998 3.317-1.998 3.317 1.998 3.317 1.998z"></path>
<path fill="rgb(147, 48, 28)" d="M8.253 7.45c0.255 0.012 0.517 0.065 0.766 0.125 0.383 0.093 0.734 0.201 0.981 0.201s0.598-0.109 0.981-0.201c0.249-0.060 0.511-0.113 0.766-0.125-0.449-0.055-3.045-0.055-3.493 0z"></path>
<path fill="rgb(113, 140, 48)" d="M10.412 5.605c0-0.56-0.24-0.897-0.442-1.081-0.534-0.488-1.331-0.431-1.42-0.423-0.235 0.021-0.409 0.23-0.387 0.465s0.23 0.409 0.465 0.388c0.104-0.009 0.54-0.003 0.765 0.202 0.11 0.1 0.163 0.247 0.163 0.449l-0.163 2.635c0.234 0.059 0.443 0.107 0.607 0.107 0.153 0 0.346-0.042 0.561-0.095l-0.149-2.647z"></path>
<path fill="rgb(113, 140, 48)" d="M8.604 5.152c-0.034 0.010-0.070 0.017-0.107 0.021-0.241 0.028-0.425-0.086-0.411-0.255l0.012-0.155-0.106-0.132c-0.107-0.133-0.019-0.328 0.197-0.436s0.658-0.142 0.765-0.009l0.030 0.313-0.026 0.318c-0.012 0.143-0.162 0.28-0.354 0.335z"></path>
<path fill="rgb(211, 70, 32)" d="M13.317 9.521c0 4.461-1.485 6.384-3.317 6.384s-3.317-1.923-3.317-6.384c0-3.526 2.392-1.808 3.317-1.808s3.317-1.718 3.317 1.808z"></path>
<path fill="rgb(221, 98, 69)" d="M7.095 9.78c0-3.088 2.095-1.583 2.905-1.583l-2.905 1.583z"></path>
</svg>
