<?xml version="1.0" encoding="utf-8"?>
<!-- Generated by IcoMoon.io -->
<!DOCTYPE svg PUBLIC "-//W3C//DTD SVG 1.1//EN" "http://www.w3.org/Graphics/SVG/1.1/DTD/svg11.dtd">
<svg version="1.1" xmlns="http://www.w3.org/2000/svg" xmlns:xlink="http://www.w3.org/1999/xlink" width="20" height="20" viewBox="0 0 20 20">
<path fill="rgb(51, 77, 92)" d="M19.691 10c0 5.352-4.339 9.691-9.691 9.691s-9.691-4.338-9.691-9.691c0-5.352 4.339-9.691 9.691-9.691s9.691 4.339 9.691 9.691z"></path>
<path fill="rgb(219, 118, 39)" d="M16.977 10.862c0 0-0.572 1.838-0.98 2.035 0 0-0.326 0.262-0.817 0.328 0 0-10.697-0.066-10.942-0.066s-0.49 0.066-0.898-0.591c-0.408-0.656-0.49-2.1-0.49-2.1s12.249-0.788 14.128 0.394z"></path>
<path fill="rgb(205, 169, 129)" d="M16.65 11.864c0.216-0.12-0.002-0.621-0.398-1.177-3.22-0.971-13.402-0.156-13.402-0.156s0.043 0.924 0.217 1.748c0.173 0.046 0.425 0.029 0.763-0.197 0.735-0.49 0-0.082 1.062 0.081 0 0 0.98 0.19 1.469-0.3s0.653-0.816 0.926-0.381c0.272 0.435 1.633 0.871 2.178 0.708s0.926-0.708 1.524-1.143c0.599-0.436 1.089-0.164 1.306 0.217s0.762 1.143 1.47 0.817c0.708-0.326 0.708-0.926 1.416-0.653s0.98 0.708 1.47 0.435z"></path>
<path fill="rgb(247, 170, 29)" d="M3.824 11.352c-0.039 0.217-0.386 0.496-1.048 0.22s-1.213-0.937 0.33-2.206c1.544-1.268 4.688-2.592 7.225-2.592 0 0 7.225 0.607 7.556 4.412 0 0-0.276 1.048-1.489 0.552s-1.048-1.324-1.875-0.607c-0.827 0.717-1.324 0.882-2.206 0.386s-0.937-1.047-1.709-0.386-1.048 0.993-2.206 0.221c-1.158-0.772-1.489-0.662-1.985-0.165s-1.379 0.882-1.875-0.11c-0 0-0.607-0.331-0.717 0.276z"></path>
<path fill="rgb(246, 208, 139)" d="M10.199 7.346c0 0-2.695 0.163-3.92 0.898s-4.001 1.878-2.858 1.878c1.143 0 0.816 0.409 1.633 0.572s1.062-1.062 1.796-0.653c0.735 0.408 1.143 1.551 2.205 1.143s1.715-1.388 2.368-1.061c0.653 0.326 0.816 1.143 2.041 0.572s1.551-0.572 1.878-0.408c0.327 0.163 1.47-0.898-0.571-1.715s-3.348-1.143-4.573-1.225z"></path>
<path fill="rgb(173, 100, 40)" d="M9.090 8.12c0 0-1.35 2.060-0.711 2.132s0.711-2.132 0.711-2.132z"></path>
<path fill="rgb(173, 100, 40)" d="M11.621 8.603c0 0 0.462 1.666 1.064 1.435s-1.064-1.435-1.064-1.435z"></path>
<path fill="rgb(173, 100, 40)" d="M13.993 8.607c0 0 0.855 1.503 1.382 1.132s-1.382-1.132-1.382-1.132z"></path>
<path fill="rgb(173, 100, 40)" d="M5.845 8.778c0 0-0.512 1.045-0.881 0.817s0.881-0.817 0.881-0.817z"></path>
</svg>
