<?xml version="1.0" encoding="utf-8"?>
<!-- Generated by IcoMoon.io -->
<!DOCTYPE svg PUBLIC "-//W3C//DTD SVG 1.1//EN" "http://www.w3.org/Graphics/SVG/1.1/DTD/svg11.dtd">
<svg version="1.1" xmlns="http://www.w3.org/2000/svg" xmlns:xlink="http://www.w3.org/1999/xlink" width="20" height="20" viewBox="0 0 20 20">
<path fill="rgb(51, 77, 92)" d="M0.309 10c0-5.352 4.339-9.691 9.691-9.691s9.69 4.338 9.69 9.691c0 5.352-4.339 9.69-9.69 9.69s-9.691-4.339-9.691-9.69z"></path>
<path fill="rgb(241, 206, 106)" d="M16.497 13.57c-0.439 1.35-2.81 2.134-6.277 2.134s-5.963-0.753-6.277-2.166c-0.081-0.365 0-1.193 0-1.193 1.121-0.505 4.077-0.345 6.277-0.345 1.926 0 5.225-0.264 6.376 0.139 0-0 0.041 0.998-0.1 1.43z"></path>
<path fill="rgb(240, 178, 52)" d="M10.22 15.705c-3.467 0-5.963-0.753-6.277-2.166-0.081-0.365 0-1.193 0-1.193 1.121-0.505 4.077-0.345 6.277-0.345v3.703z"></path>
<path fill="rgb(243, 176, 34)" d="M16.497 12.346c0 1.023-2.81 1.852-6.277 1.852s-6.277-0.829-6.277-1.852c0-1.023 2.81-1.852 6.277-1.852s6.277 0.829 6.277 1.852z"></path>
<path fill="rgb(243, 176, 34)" d="M16.597 12.14c0 0.998-2.742 1.807-6.125 1.807s-6.125-0.809-6.125-1.807c0-0.998 2.742-1.807 6.125-1.807s6.125 0.809 6.125 1.807z"></path>
<path fill="rgb(132, 106, 53)" d="M16.395 12.116c0 0.965-2.652 1.747-5.924 1.747s-5.924-0.782-5.924-1.747c0-0.353 0-1.422 0-1.422 1.058-0.477 3.848-0.326 5.924-0.326 1.818 0 4.837-0.099 5.924 0.281 0 0 0 1.037 0 1.466z"></path>
<path fill="rgb(121, 96, 39)" d="M10.471 13.863c-3.272 0-5.924-0.782-5.924-1.747 0-0.353 0-1.422 0-1.422 1.058-0.477 5.924-0.361 5.924-0.326s0 3.495 0 3.495z"></path>
<path fill="rgb(84, 61, 24)" d="M16.395 10.694c0 0.965-2.652 1.747-5.924 1.747s-5.924-0.782-5.924-1.747c0-0.965 2.652-1.748 5.924-1.748s5.924 0.782 5.924 1.748z"></path>
<path fill="rgb(204, 56, 40)" d="M16.461 11.060c0 0.829-1.632 1.501-3.646 1.501s-3.646-0.672-3.646-1.501c0-0.303 0-0.581 0-0.581 0.651-0.41 2.368-0.28 3.646-0.28 1.119 0 2.977-0.085 3.646 0.242 0 0 0 0.25 0 0.619z"></path>
<path fill="rgb(225, 84, 74)" d="M16.461 10.479c0 0.829-1.632 1.501-3.646 1.501s-3.646-0.672-3.646-1.501c0-0.829 1.632-1.501 3.646-1.501s3.646 0.672 3.646 1.501z"></path>
<path fill="rgb(204, 56, 40)" d="M11.078 10.683c0 0.829-1.512 1.501-3.376 1.501s-3.377-0.672-3.377-1.501c0-0.303 0-0.56 0-0.56 0.603-0.409 2.193-0.28 3.377-0.28 1.036 0 2.757-0.085 3.376 0.242 0 0 0 0.23 0 0.598z"></path>
<path fill="rgb(225, 84, 74)" d="M11.078 10.123c0 0.829-1.512 1.501-3.376 1.501s-3.377-0.672-3.377-1.501c0-0.829 1.512-1.501 3.377-1.501s3.376 0.672 3.376 1.501z"></path>
<path fill="rgb(132, 106, 53)" d="M15.835 10.031c0 0.919-2.525 1.664-5.64 1.664s-5.64-0.745-5.64-1.664c0-0.336 0-1.353 0-1.353 1.007-0.454 3.664-0.31 5.64-0.31 1.731 0 4.605-0.094 5.64 0.268 0-0 0 0.988 0 1.396z"></path>
<path fill="rgb(121, 96, 39)" d="M10.196 11.695c-3.115 0-5.64-0.745-5.64-1.664 0-0.336 0-1.353 0-1.353 1.007-0.454 3.664-0.31 5.64-0.31v3.328z"></path>
<path fill="rgb(253, 216, 66)" d="M15.872 9.162c-2.074 1.145-5.694 2.295-5.694 2.295s-3.661-0.962-5.693-2.295c-0.776-0.509 2.549-2.119 5.693-2.119s6.506 1.67 5.694 2.119z"></path>
<path fill="rgb(253, 214, 0)" d="M10.178 11.457c0 0-3.661-0.962-5.693-2.295-0.776-0.509 2.549-2.119 5.693-2.119 0.983 0 0 4.414 0 4.414z"></path>
<path fill="rgb(241, 206, 106)" d="M4.134 7.944c0-1.894 2.706-3.601 6.044-3.601s6.044 1.707 6.044 3.601c0 1.894-2.706 1.651-6.044 1.651s-6.044 0.244-6.044-1.651z"></path>
<path fill="rgb(240, 169, 30)" d="M4.134 7.944c0-1.894 2.706-3.601 6.044-3.601 2.1 0 1.393 5.251 0 5.251-3.338 0-6.044 0.244-6.044-1.651z"></path>
<path fill="rgb(255, 255, 255)" d="M12.022 5.373c0 0.142-0.101 0.257-0.225 0.257s-0.225-0.115-0.225-0.257c0-0.142 0.101-0.257 0.225-0.257s0.225 0.115 0.225 0.257z"></path>
<path fill="rgb(255, 255, 255)" d="M9.996 6.53c0 0.142-0.101 0.257-0.225 0.257s-0.225-0.115-0.225-0.257c0-0.142 0.101-0.257 0.225-0.257s0.225 0.115 0.225 0.257z"></path>
<path fill="rgb(255, 255, 255)" d="M7.745 7.816c0 0.142-0.101 0.257-0.225 0.257s-0.225-0.115-0.225-0.257c0-0.142 0.101-0.257 0.225-0.257s0.225 0.115 0.225 0.257z"></path>
<path fill="rgb(255, 255, 255)" d="M11.057 8.137c0 0.142-0.1 0.257-0.225 0.257s-0.225-0.115-0.225-0.257c0-0.142 0.101-0.257 0.225-0.257s0.225 0.115 0.225 0.257z"></path>
<path fill="rgb(255, 255, 255)" d="M13.243 7.044c0 0.142-0.101 0.257-0.225 0.257s-0.225-0.115-0.225-0.257 0.101-0.257 0.225-0.257 0.225 0.115 0.225 0.257z"></path>
<path fill="rgb(255, 255, 255)" d="M14.561 8.523c0 0.142-0.101 0.257-0.225 0.257s-0.225-0.115-0.225-0.257c0-0.142 0.101-0.257 0.225-0.257s0.225 0.115 0.225 0.257z"></path>
<path fill="rgb(255, 255, 255)" d="M15.108 6.144c0 0.142-0.101 0.257-0.225 0.257s-0.225-0.115-0.225-0.257c0-0.142 0.101-0.257 0.225-0.257s0.225 0.115 0.225 0.257z"></path>
<path fill="rgb(255, 255, 255)" d="M8.839 5.115c0 0.142-0.101 0.257-0.225 0.257s-0.225-0.116-0.225-0.257c0-0.142 0.101-0.257 0.225-0.257s0.225 0.115 0.225 0.257z"></path>
<path fill="rgb(255, 255, 255)" d="M5.141 7.559c0 0.142-0.101 0.257-0.225 0.257s-0.225-0.115-0.225-0.257c0-0.142 0.101-0.257 0.225-0.257s0.225 0.115 0.225 0.257z"></path>
<path fill="rgb(255, 255, 255)" d="M6.845 6.337c0 0.142-0.101 0.257-0.225 0.257s-0.225-0.115-0.225-0.257c0-0.142 0.101-0.257 0.225-0.257s0.225 0.115 0.225 0.257z"></path>
</svg>
