<?xml version="1.0" encoding="utf-8"?>
<!-- Generated by IcoMoon.io -->
<!DOCTYPE svg PUBLIC "-//W3C//DTD SVG 1.1//EN" "http://www.w3.org/Graphics/SVG/1.1/DTD/svg11.dtd">
<svg version="1.1" xmlns="http://www.w3.org/2000/svg" xmlns:xlink="http://www.w3.org/1999/xlink" width="20" height="20" viewBox="0 0 20 20">
<path fill="rgb(51, 77, 92)" d="M19.691 10c0 5.352-4.339 9.691-9.691 9.691s-9.691-4.338-9.691-9.691c0-5.352 4.338-9.691 9.691-9.691s9.691 4.339 9.691 9.691z"></path>
<path fill="rgb(248, 245, 234)" d="M5.31 6.967c0 0 1.209-3.194 4.471-3.918 0 0 3.638 0.781 4.94 3.918 0 0-1.294 4.251-4.705 3.878s-4.705-3.878-4.705-3.878z"></path>
<path fill="rgb(255, 214, 131)" d="M6.847 8.564l-0.741-3.821 0.832-0.177 1.62 5.994-1.227 0.285z"></path>
<path fill="rgb(241, 184, 81)" d="M6.105 4.764l-0.398 0.409 1.38 5.715h0.245z"></path>
<path fill="rgb(255, 214, 131)" d="M12.434 8.721l0.986-3.765 0.827 0.201-1.135 6.104-1.229-0.274z"></path>
<path fill="rgb(241, 184, 81)" d="M13.42 4.955l-0.355 0.124-1.404 5.802 0.222 0.106z"></path>
<path fill="rgb(255, 214, 131)" d="M7.72 8.751l0.031-3.893 0.877 0.403 0.374 5.786-1.259 0.037z"></path>
<path fill="rgb(241, 184, 81)" d="M7.75 4.859l-0.314 0.207 0.066 5.969 0.241 0.049z"></path>
<path fill="rgb(255, 214, 131)" d="M11.764 9.204l-0.362-3.875 0.913 0.312 0.955 5.719-1.248 0.163z"></path>
<path fill="rgb(241, 184, 81)" d="M11.403 5.329l-0.291 0.238 0.667 5.931 0.244 0.024z"></path>
<path fill="rgb(255, 214, 131)" d="M10.932 8.564l0.741-3.821-0.832-0.177-1.62 5.994 1.226 0.285z"></path>
<path fill="rgb(241, 184, 81)" d="M11.673 4.764l0.399 0.409-1.38 5.715h-0.246z"></path>
<path fill="rgb(255, 214, 131)" d="M10.175 8.031l-0.618-3.843-0.807 0.53 0.504 5.776 1.249-0.154z"></path>
<path fill="rgb(241, 184, 81)" d="M9.558 4.187l0.341 0.158 0.837 5.91-0.231 0.084z"></path>
<path fill="rgb(255, 214, 131)" d="M8.986 11.119l0.439-3.868-0.92 0.294-1.068 5.699 1.245 0.188z"></path>
<path fill="rgb(241, 184, 81)" d="M9.425 7.252l0.132 0.454-0.631 5.707-0.245 0.019z"></path>
<path fill="rgb(238, 58, 54)" d="M5.31 6.963l1.711 9.578h6.445l1.255-9.578c0 0-1.825 2.282-4.705 2.282s-4.705-2.282-4.705-2.282z"></path>
</svg>
