<?xml version="1.0" encoding="utf-8"?>
<!-- Generated by IcoMoon.io -->
<!DOCTYPE svg PUBLIC "-//W3C//DTD SVG 1.1//EN" "http://www.w3.org/Graphics/SVG/1.1/DTD/svg11.dtd">
<svg version="1.1" xmlns="http://www.w3.org/2000/svg" xmlns:xlink="http://www.w3.org/1999/xlink" width="20" height="20" viewBox="0 0 20 20">
<path fill="rgb(74, 188, 150)" d="M19.691 10c0-5.352-4.339-9.691-9.69-9.691s-9.691 4.338-9.691 9.691c0 5.352 4.339 9.69 9.691 9.69s9.69-4.339 9.69-9.69z"></path>
<path fill="rgb(108, 158, 56)" d="M6.74 9.703c0.139 0.039-1.678 1.392-1.646 1.217 0.164-0.906 0.255-1.156 0.44-1.291 0.192-0.14 0.44-0.14 1.206 0.074z"></path>
<path fill="rgb(108, 158, 56)" d="M5.648 10.041c-0.048 0-0.094-0.033-0.113-0.086-0.005-0.014 0.121-0.612-1.646-1.64-0.366-0.213-1.145-0.8-1.15-1.501-0.002-0.192 0.064-0.461 0.381-0.658 0.033-0.027 0.128-0.091 0.235-0.055 0.059 0.020 0.138 0.077 0.183 0.236 0.010 0.035 0.007 0.072-0.007 0.105-0.010 0.022-0.063 0.132-0.175 0.148-0.054 0.007-0.135-0.006-0.219-0.115-0.104 0.093-0.154 0.204-0.153 0.336 0.004 0.505 0.618 1.047 1.010 1.275 1.866 1.085 1.753 1.721 1.768 1.762 0.026 0.072-0.004 0.153-0.067 0.182-0.015 0.007-0.031 0.010-0.046 0.010z"></path>
<path fill="rgb(193, 61, 31)" d="M5.094 10.921c0.905 2.667 3.912 3.287 7.004 2.871 2.566-0.345 6.381-2.471 4.785-5.409 0 0-0.327-0.28-0.205 0.093 0 0 0.491 1.352-0.573 2.192 0 0-2.884 2.425-7.158 0.606-0.686-0.292-1.636-0.801-2.209-1.57l-1.646 1.217z"></path>
<path fill="rgb(206, 60, 36)" d="M11.812 12.766c2.478-0.184 6.086-1.738 4.946-4.467-0.076-0.036-0.147-0.030-0.079 0.177 0 0 0.491 1.352-0.573 2.192 0 0-2.884 2.425-7.158 0.606-0.686-0.292-1.636-0.801-2.209-1.57l-0.905 0.67c1.019 2.155 3.106 2.606 5.977 2.393z"></path>
</svg>
