<?xml version="1.0" encoding="utf-8"?>
<!-- Generated by IcoMoon.io -->
<!DOCTYPE svg PUBLIC "-//W3C//DTD SVG 1.1//EN" "http://www.w3.org/Graphics/SVG/1.1/DTD/svg11.dtd">
<svg version="1.1" xmlns="http://www.w3.org/2000/svg" xmlns:xlink="http://www.w3.org/1999/xlink" width="20" height="20" viewBox="0 0 20 20">
<path fill="rgb(250, 188, 61)" d="M19.691 10c0 5.352-4.339 9.691-9.691 9.691s-9.691-4.339-9.691-9.691c0-5.352 4.339-9.691 9.691-9.691s9.691 4.339 9.691 9.691z"></path>
<path fill="rgb(190, 30, 45)" d="M10.952 8.109c0 0 0.629-0.137 0.967 0.24 0 0-0.669-0.151-0.813-0.024 0 0-0.205-0.062-0.154-0.217z"></path>
<path fill="rgb(190, 30, 45)" d="M10.741 8.88l0.38-0.575c0 0-0.164-0.067-0.168-0.196l-0.523 0.607 0.311 0.165z"></path>
<path fill="rgb(190, 30, 45)" d="M10.131 8.006c0 0 0.573-0.295 0.997-0.019 0 0-0.686 0.027-0.791 0.188 0 0-0.214-0.006-0.206-0.169z"></path>
<path fill="rgb(190, 30, 45)" d="M10.127 8.807l0.216-0.654c0 0-0.176-0.023-0.213-0.147l-0.347 0.723 0.344 0.078z"></path>
<path fill="rgb(190, 30, 45)" d="M9.114 8.049c0 0 0.462-0.448 0.948-0.305 0 0-0.648 0.224-0.703 0.409 0 0-0.207 0.056-0.246-0.103z"></path>
<path fill="rgb(190, 30, 45)" d="M9.342 8.817l0.019-0.689c0 0-0.175 0.029-0.246-0.079l-0.124 0.791 0.352-0.023z"></path>
<path fill="rgb(155, 28, 41)" d="M5.15 9.429c0 0-0.417-0.21-0.754-0.082 0 0-0.201 0.117-0.252 0.308 0 0-0.143 0.518 0.068 0.433 0 0 0.744-0.234 0.938-0.658z"></path>
<path fill="rgb(190, 30, 45)" d="M15.919 13.030c0 0-1.144-1.18-3.059-0.072l0.258 0.669c0 0 2.033-0.575 2.801-0.597z"></path>
<path fill="rgb(190, 30, 45)" d="M13.772 10.124c0 0 0.82 1.243 1.946 1.21 0 0-1.241-1.042-1.507-1.725 0 0-0.399-0.095-0.438 0.514z"></path>
<path fill="rgb(190, 30, 45)" d="M12.898 8.671c0 0 0.011 1.012 0.957 1.52 0 0 0.455-0.126 0.41-0.483 0 0 1.292 0.394 1.612 1.597 0 0 1.449-0.583 0.808-1.948 0 0-1.093-2.070-3.892-1.598 0 0 0.228 0.471 0.106 0.912z"></path>
<path fill="rgb(155, 28, 41)" d="M11.96 9.689c0 0 0.235-0.488 0.177-0.751 0 0 0.894-0.074 1.056-0.792 0 0-0.229-1.071-1.63 0.394 0 0-0.359 0.209-0.513 0.612l0.91 0.538z"></path>
<path fill="rgb(155, 28, 41)" d="M5.452 8.955c0 0-0.232 0.141-0.401 0.457 0 0-0.056 0.104-0.026 0.227 0 0 0.247 0.521 0.642 0.309 0.021-0.012 0.29-0.218 0.235-0.447 0 0-0.273-0.545-0.45-0.545z"></path>
<path fill="rgb(155, 28, 41)" d="M5.973 8.393c0 0-0.421 0.114-0.608 0.549 0 0 0.149 0.876 0.53 0.898 0 0 0.318 0.039 0.371-0.381l-0.293-1.066z"></path>
<path fill="rgb(155, 28, 41)" d="M6.779 8.122c0 0-0.559-0.064-0.861 0.208 0 0-0.424 0.528 0.144 1.288 0 0 0.399 0.446 0.783 0.185l0.176-0.311c-0 0-0.355-0.526-0.242-1.369z"></path>
<path fill="rgb(155, 28, 41)" d="M7.554 8.052c0 0-0.576-0.19-0.951 0.033 0 0-0.559 0.467-0.123 1.394 0 0 0.326 0.558 0.786 0.364l0.251-0.29c-0 0-0.263-0.634 0.037-1.501z"></path>
<path fill="rgb(190, 30, 45)" d="M3.812 8.414c-0.22 0.031 0.344-0.175 0.344-0.175 5.233-1.953 8.399 1.345 8.399 1.345 0.213 0.279-0.402 0.289-0.402 0.289-0.135 0.047-0.162-0.144-0.162-0.144 0.050-0.061 0.157-0.036 0.157-0.036 0.277 0.004 0.171-0.056 0.171-0.056-3.207-2.572-6.484-1.862-7.643-1.486l-0.863 0.262z"></path>
<path fill="rgb(155, 28, 41)" d="M11.114 11.556c0 0 0.27 0.609 0.063 1.232 0 0-0.601 0.55-0.868 0.039 0 0-0.142-0.066-0.181 0.033 0 0 0.008-0.197 0.116-0.382 0 0-0.129-0.095-0.182 0.005 0 0-0.14-0.473 0.112-0.971 0 0 0.538-0.323 0.941 0.044z"></path>
<path fill="rgb(155, 28, 41)" d="M10.081 11.739c0 0 0.057-0.983 0.587-1.601 0 0 0.407 0.030 0.538 0.209 0 0 0.285 0.665-0.016 1.431 0 0-0.248-0.344-0.667-0.29 0 0-0.322 0.023-0.442 0.251z"></path>
<path fill="rgb(155, 28, 41)" d="M8.279 9.645c0 0-0.378-0.687 0.086-1.515 0 0-0.551-0.298-0.976-0.139 0 0-0.654 0.373-0.379 1.397 0 0 0.23 0.628 0.736 0.514 0 0 0.382-0.020 0.534-0.257z"></path>
<path fill="rgb(155, 28, 41)" d="M12.241 9.968c0 0-0.436-0.975-1.284-0.951-0.047 0.001-0.646 0.219-0.804 0.846 0 0 0.991 1.289 2.087 0.106z"></path>
<path fill="rgb(155, 28, 41)" d="M10.855 9.639c-0.087 0.239-0.106 0.537 0.065 0.873 0 0-1.963 0.899-3.032-0.853 0 0-0.266-1.535 0.673-1.53 0 0 1.638 0.001 2.73 0.909 0 0-0.039 0.029-0.095 0.084 0 0 0.292 0.074 0.745 0.647 0 0-0.213-0.095-0.356-0.099 0 0 0.173 0.196 0.291 0.21 0 0-0.689-0.048-0.954-0.224l-0.068-0.018z"></path>
<path fill="rgb(190, 30, 45)" d="M15.938 13.11c0 0 0.209 3.136-3.374 2.084 0 0-2.12-0.695-2.106-2.028 0 0 0.439-0.192 0.547-0.573 0 0 1.164-0.55 2.023 0.261l0.14 0.712c0-0 2.164 0.416 2.77-0.456z"></path>
<path fill="rgb(155, 28, 41)" d="M5.215 9.517c0 0-0.63 0.017-1.11 0.357 0 0-0.096 0.079-0.126 0.166 0 0-0.356 0.88 0.702 0.589-0-0 0.489-0.753 0.534-1.112z"></path>
<path fill="rgb(155, 28, 41)" d="M5.375 9.795c0 0 0.117 1.442-0.586 1.158 0 0-0.385-0.164-0.227-0.69 0 0 0.1-0.307 0.766-0.598 0 0 0.054 0.009 0.047 0.129z"></path>
<path fill="rgb(35, 31, 32)" d="M10.502 9.524c0.002 0.097 0.087 0.174 0.187 0.171s0.181-0.084 0.178-0.181c-0.003-0.098-0.087-0.174-0.188-0.171s-0.181 0.084-0.177 0.181z"></path>
<path fill="rgb(35, 31, 32)" d="M10.871 8.944c-0.006 0.076 0.054 0.143 0.136 0.151 0.082 0.007 0.154-0.048 0.16-0.125s-0.054-0.144-0.135-0.15c-0.082-0.008-0.154 0.048-0.161 0.124z"></path>
<path fill="rgb(190, 30, 45)" d="M8.835 12.326c0 0 0.042 1.024 0.274 1.217 0 0-0.661-0.314-0.543-1.316-0 0 0.264-0.061 0.269 0.099z"></path>
<path fill="rgb(190, 30, 45)" d="M9.159 11.106c0 0-0.153 0.696-0.295 1.312 0 0-0.165-0.168-0.336-0.11l0.321-1.326c0 0 0.264-0.074 0.31 0.124z"></path>
<path fill="rgb(190, 30, 45)" d="M9.936 10.366c0 0-0.14-0.276-0.44-0.040 0 0-0.571 0.507-0.698 0.71 0 0 0.198-0.059 0.351 0.163l0.711-0.698c0-0 0.078-0.055 0.076-0.135z"></path>
<path fill="rgb(190, 30, 45)" d="M8.073 11.828c0 0-0.074 0.92 0.112 1.118 0 0-0.556-0.353-0.342-1.236 0 0 0.243-0.025 0.23 0.118z"></path>
<path fill="rgb(190, 30, 45)" d="M8.496 10.772c0 0-0.212 0.606-0.407 1.142 0 0-0.129-0.169-0.289-0.136l0.432-1.152c0 0 0.244-0.037 0.263 0.146z"></path>
<path fill="rgb(190, 30, 45)" d="M9.272 10.194c0 0-0.096-0.262-0.389-0.084 0 0-0.566 0.392-0.702 0.56 0 0 0.184-0.032 0.296 0.183l0.712-0.547c0 0 0.076-0.042 0.083-0.114z"></path>
<path fill="rgb(190, 30, 45)" d="M7.322 11.406c0 0-0.189 0.813-0.050 1.015 0 0-0.45-0.39-0.14-1.151 0 0 0.22 0.010 0.189 0.136z"></path>
<path fill="rgb(190, 30, 45)" d="M7.843 10.519c0 0-0.272 0.513-0.518 0.966 0 0-0.093-0.169-0.24-0.16l0.541-0.971c0 0 0.223-0 0.216 0.165z"></path>
<path fill="rgb(190, 30, 45)" d="M8.614 10.107c0 0-0.051-0.247-0.337-0.129 0 0-0.559 0.275-0.703 0.407 0 0 0.168-0.004 0.239 0.204l0.711-0.394c0-0 0.073-0.027 0.089-0.089z"></path>
<path fill="rgb(190, 30, 45)" d="M11.816 10.069c0 0 0.91 0.493 0.124 0.588 0 0-6.786 0.103-8.782-1.4 0 0-0.057-0.106 0.179-0.005 0 0 1.828 1.291 8.416 1.141 0 0 0.231-0.096-0.13-0.175 0-0-0.134-0.284 0.194-0.149z"></path>
</svg>
