<?xml version="1.0" encoding="utf-8"?>
<!-- Generated by IcoMoon.io -->
<!DOCTYPE svg PUBLIC "-//W3C//DTD SVG 1.1//EN" "http://www.w3.org/Graphics/SVG/1.1/DTD/svg11.dtd">
<svg version="1.1" xmlns="http://www.w3.org/2000/svg" xmlns:xlink="http://www.w3.org/1999/xlink" width="20" height="20" viewBox="0 0 20 20">
<path fill="rgb(50, 190, 166)" d="M0.309 10c0-5.352 4.339-9.691 9.69-9.691s9.691 4.338 9.691 9.691c0 5.352-4.339 9.691-9.691 9.691s-9.69-4.339-9.69-9.691z"></path>
<path fill="rgb(255, 255, 255)" d="M13.073 7.473c0 1.044-1.384 1.655-3.092 1.655s-3.092-0.611-3.092-1.655c0-1.364 1.384-2.47 3.092-2.47s3.092 1.106 3.092 2.47z"></path>
<path fill="rgb(232, 225, 175)" d="M10.418 8.064c0 0-1.351-0.016-1.783-0.181-0.947-0.362-1.873-0.834-1.777-2.369 0.009-0.147 0.099-0.422 0.155-0.422 0 0 1.009 1.841 3.405 2.972z"></path>
<path fill="rgb(255, 255, 255)" d="M13.005 5.688c-0.043-0.091-0.143-0.19-0.149-0.211-0.010-0.037 0.004-0.238-0.062-0.521-0.105-0.453-0.197-0.425-0.374-0.732-0.009-0.015-0.093-0.378-0.258-0.607-0.501-0.698-0.868-0.663-0.947-0.743-1.002-1.019-1.84-1.116-2.538-1.207 0 0 0.584 1.145 0.161 1.69 0 0-0.277 0.102-0.334 0.125-0.171 0.068-0.464 0.204-0.687 0.554-0.113 0.178-0.201 0.365-0.223 0.385 0 0-0.121-0.011-0.241 0.079-0.4 0.3-0.489 0.642-0.446 0.962 0.089 0.65 0.446 2.059 2.377 2.467s2.804-0.272 3.064-0.43c0-0 1.205-0.664 0.656-1.811z"></path>
<path fill="rgb(232, 225, 175)" d="M7.595 4.421h-0.028c0.223 0.434 1.656 2.767 5.318 1.095l-0.029-0.039-0.006-0.058c-1.040 0.416-3.834 1.186-5.239-1.018l-0.016 0.020z"></path>
<path fill="rgb(232, 225, 175)" d="M8.839 3.357l-0.074 0.038c0.149 0.626 0.855 1.773 3.656 0.829l-0.016-0.044c-0.669 0.218-3.208 0.736-3.566-0.823z"></path>
<path fill="rgb(232, 225, 175)" d="M11.17 2.833c0 0-0.214 0.645-0.857 0.585 0 0 0.653 0.206 0.946-0.519l-0.088-0.066z"></path>
<path fill="rgb(244, 185, 98)" d="M11.671 9.817c0 0-1.393 8.039-1.403 8.135-0.033 0.199-0.437 0.199-0.477-0.001-0.010-0.096-1.48-8.134-1.48-8.134l-1.337-1.87c0 0 0.388 0.975 3.021 0.975s2.984-0.975 2.984-0.975l-1.309 1.87z"></path>
<path fill="rgb(237, 178, 84)" d="M11.671 9.817c0 0-0.286 0.302-1.626 0.302s-1.734-0.302-1.734-0.302l-1.337-1.87c0 0 0.509 0.975 3.021 0.975s2.984-0.975 2.984-0.975l-1.309 1.87z"></path>
</svg>
