<?xml version="1.0" encoding="utf-8"?>
<!-- Generated by IcoMoon.io -->
<!DOCTYPE svg PUBLIC "-//W3C//DTD SVG 1.1//EN" "http://www.w3.org/Graphics/SVG/1.1/DTD/svg11.dtd">
<svg version="1.1" xmlns="http://www.w3.org/2000/svg" xmlns:xlink="http://www.w3.org/1999/xlink" width="20" height="20" viewBox="0 0 20 20">
<path fill="rgb(174, 232, 73)" d="M19.691 10c0-5.352-4.339-9.691-9.69-9.691s-9.691 4.338-9.691 9.691c0 5.352 4.339 9.69 9.691 9.69s9.69-4.339 9.69-9.69z"></path>
<path fill="rgb(122, 73, 24)" d="M12.921 7.114c-1.94-1.94-4.478-2.546-5.669-1.354-1.026 1.026-3.732 4.912-0.848 7.796s6.918 0.181 7.871-0.773c1.192-1.192 0.585-3.73-1.354-5.669z"></path>
<path fill="rgb(155, 94, 38)" d="M12.921 7.115c1.939 1.939 2.546 4.478 1.354 5.669s-3.73 0.585-5.669-1.354c-1.939-1.939-2.546-4.478-1.354-5.669s3.73-0.585 5.669 1.354z"></path>
<path fill="rgb(255, 255, 255)" d="M12.693 7.343c-0.175-0.175-0.366-0.323-0.567-0.446-0.741-0.768-1.628-1.219-2.418-1.197-0.897-0.275-1.689-0.209-2.162 0.265-0.47 0.47-0.538 1.252-0.271 2.141-0.040 0.809 0.427 1.72 1.225 2.473 0.118 0.189 0.259 0.368 0.424 0.534 0.175 0.175 0.366 0.323 0.567 0.446 0.741 0.768 1.628 1.219 2.418 1.197 0.897 0.275 1.689 0.209 2.162-0.265 0.47-0.47 0.538-1.252 0.271-2.141 0.040-0.809-0.427-1.72-1.225-2.473-0.118-0.189-0.259-0.368-0.424-0.533z"></path>
<path fill="rgb(229, 229, 229)" d="M12.312 7.724c-0.133-0.132-0.277-0.244-0.431-0.336-0.561-0.581-1.236-0.919-1.841-0.895-0.685-0.203-1.292-0.145-1.659 0.222-0.364 0.364-0.424 0.964-0.227 1.642-0.038 0.62 0.311 1.314 0.916 1.883 0.089 0.144 0.195 0.28 0.32 0.405 0.132 0.132 0.277 0.244 0.43 0.336 0.561 0.582 1.236 0.919 1.842 0.896 0.685 0.203 1.292 0.145 1.659-0.222 0.364-0.364 0.424-0.964 0.227-1.642 0.038-0.62-0.312-1.314-0.916-1.884-0.089-0.144-0.195-0.28-0.32-0.405z"></path>
<path fill="rgb(211, 210, 209)" d="M11.051 9.71c-0.089-0.144-0.195-0.28-0.32-0.405-0.133-0.133-0.277-0.244-0.431-0.336-0.561-0.581-1.236-0.919-1.841-0.895-0.132-0.039-0.261-0.068-0.387-0.088 0.019 0.12 0.046 0.244 0.083 0.37-0.038 0.62 0.311 1.314 0.916 1.883 0.089 0.144 0.195 0.28 0.32 0.405 0.132 0.132 0.277 0.244 0.43 0.336 0.561 0.582 1.236 0.919 1.842 0.896 0.132 0.039 0.261 0.068 0.387 0.088-0.019-0.12-0.046-0.244-0.083-0.37 0.038-0.62-0.312-1.314-0.916-1.883z"></path>
</svg>
