<?xml version="1.0" encoding="utf-8"?>
<!-- Generated by IcoMoon.io -->
<!DOCTYPE svg PUBLIC "-//W3C//DTD SVG 1.1//EN" "http://www.w3.org/Graphics/SVG/1.1/DTD/svg11.dtd">
<svg version="1.1" xmlns="http://www.w3.org/2000/svg" xmlns:xlink="http://www.w3.org/1999/xlink" width="20" height="20" viewBox="0 0 20 20">
<path fill="rgb(250, 188, 61)" d="M0.309 10c0-5.352 4.339-9.691 9.691-9.691s9.69 4.338 9.69 9.691c0 5.352-4.339 9.69-9.69 9.69s-9.691-4.339-9.691-9.69z"></path>
<path fill="rgb(245, 145, 33)" d="M2.634 13.27c-0.433-0.556 2.699-3.852 4.564-3.557 0.599 0.094 2.522 0.944 0.718 2.090 0 0-1.219 0.313-1.86 0.277 0-0-2.989 1.747-3.422 1.191z"></path>
<path fill="rgb(255, 255, 255)" d="M15.358 5.654c0 0-0.165-1.481 0.206-1.317 0 0 0.371 0.123 0.659 0.123 0 0 0.453 0 0.247 0.412 0 0-0.535 0.906-0.576 1.153l-0.535-0.371z"></path>
<path fill="rgb(255, 255, 255)" d="M9.426 4.511c0 0-0.142-1.278 0.178-1.137 0 0 0.237 0.18 0.486 0.18 0 0 0.473-0.074 0.296 0.281 0 0-0.462 0.782-0.497 0.995l-0.462-0.32z"></path>
<path fill="rgb(226, 129, 38)" d="M9.205 4.471c0.123-0.247 0.617-0.247 0.864-0.093s0.247 0.278 0.278 0.648c0.031 0.37 0.339 1.636 0.339 1.636l-3.426 0.833c0 0-0.124-0.37 0.617-1.142s0.998-1.224 1.327-1.883z"></path>
<path fill="rgb(225, 120, 39)" d="M4.205 11.704c0 0 0.679-3.992 5.124-5.103 0 0 3.025-1.296 4.846 0.71 0 0 3.766 1.482 0.278 5.989 0 0-4.229 2.284-7.655 2.439 0 0-1.301 0.157-2.3-0.502-0.768-0.508-0.615-1.612-0.293-3.532z"></path>
<path fill="rgb(226, 129, 38)" d="M4.534 10.799c0 0 1.44-3.539 5.062-4.292 0 0 2.346-1.141 4.569 0.711 0 0-1.517 0.847-1.934 2.222-0.382 1.258 0.053 2.751-0.124 3.046-0.37 0.617-1.819 0.961-4.467 1.080 0 0-3.679 0.643-3.106-2.768z"></path>
<path fill="rgb(246, 152, 33)" d="M4.822 10.182c0 0 1.317-3.128 4.673-3.729 0 0 2.57-0.84 4.175 0.395 0 0-1.504 0.713-2.222 2.017-0.446 0.811-0.194 2.287-0.288 2.634-0.247 0.906-1.080 0.815-3.316 0.916 0 0-3.505 0.647-3.022-2.233z"></path>
<path fill="rgb(226, 129, 38)" d="M14.298 7.126c0 0-0.772 0.401-1.019 0.617 0 0-1.111 0.864-1.173 2.099 0 0-0.278 3.148 0.741 3.519 0 0 2.238 1.9 3.334-3.797 0.154-0.802-0.062-1.697-0.093-2.006 0 0 0.093-0.864 0.123-1.142 0 0 0.062-0.864-0.864-0.957 0-0-0.494-0.154-1.049 1.667z"></path>
<path fill="rgb(245, 145, 33)" d="M12.271 9.842c0.062-1.235 1.173-2.099 1.173-2.099 0.247-0.216 1.018-0.617 1.018-0.617 0.392-1.287 0.754-1.587 0.932-1.653-0.015-0.007-0.030-0.013-0.047-0.014 0 0-0.494-0.154-1.049 1.667 0 0-0.772 0.401-1.019 0.617 0 0-1.111 0.864-1.173 2.099 0 0-0.278 3.148 0.741 3.519 0 0 0.011-0.025 0.030-0.069-0.859-0.588-0.606-3.45-0.606-3.45z"></path>
<path fill="rgb(234, 128, 35)" d="M8.608 15.779c0.13 0.558 4.703 0.007 5.536-1.337 0.268-0.432 0.679-2.068-1.296-1.42 0 0-0.957 0.648-1.296 1.080 0-0-3.118 0.926-2.943 1.677z"></path>
<path fill="rgb(245, 145, 33)" d="M8.813 15.521c0.188 0.488 4.287 0.006 5.046-1.219 0.244-0.394 0.619-1.885-1.182-1.294 0 0-0.872 0.591-1.182 0.985 0 0-2.87 1.041-2.682 1.529z"></path>
</svg>
