<?xml version="1.0" encoding="utf-8"?>
<!-- Generated by IcoMoon.io -->
<!DOCTYPE svg PUBLIC "-//W3C//DTD SVG 1.1//EN" "http://www.w3.org/Graphics/SVG/1.1/DTD/svg11.dtd">
<svg version="1.1" xmlns="http://www.w3.org/2000/svg" xmlns:xlink="http://www.w3.org/1999/xlink" width="20" height="20" viewBox="0 0 20 20">
<path fill="rgb(234, 73, 73)" d="M19.691 10c0-5.352-4.339-9.691-9.69-9.691s-9.691 4.338-9.691 9.691c0 5.352 4.339 9.69 9.691 9.69s9.69-4.339 9.69-9.69z"></path>
<path fill="rgb(253, 191, 35)" d="M10 18.382c-0.053 0-0.096-0.043-0.096-0.096v-13.312c0-0.053 0.043-0.096 0.096-0.096s0.096 0.043 0.096 0.096v13.312c0 0.053-0.043 0.096-0.096 0.096z"></path>
<path fill="rgb(253, 191, 35)" d="M10.456 4.201c0.020 0.87-0.18 1.045-0.432 1.051s-0.46-0.159-0.48-1.029c-0.020-0.87 0.407-2.122 0.407-2.122s0.485 1.231 0.505 2.101z"></path>
<path fill="rgb(253, 191, 35)" d="M5.45 12.676c0 0 1.142 0.299 1.739 1.6 0.853 1.859 2.219 3.516 2.774 3.713-0 0-0.384-4.417-4.513-5.313z"></path>
<path fill="rgb(253, 191, 35)" d="M14.55 12.676c0 0-1.142 0.299-1.739 1.6-0.853 1.859-2.219 3.516-2.774 3.713 0 0 0.384-4.417 4.513-5.313z"></path>
<path fill="rgb(253, 191, 35)" d="M9.679 5.51c-0.234-0.513-1.183-1.021-1.183-1.021s0.119 0.886 0.353 1.399c0.234 0.513 0.465 0.528 0.694 0.424s0.37-0.289 0.136-0.802z"></path>
<path fill="rgb(253, 191, 35)" d="M10.321 5.51c-0.234 0.513-0.093 0.698 0.136 0.802s0.461 0.089 0.694-0.424c0.234-0.513 0.353-1.399 0.353-1.399s-0.949 0.508-1.183 1.021z"></path>
<path fill="rgb(253, 191, 35)" d="M9.679 7.151c-0.234-0.513-1.183-1.021-1.183-1.021s0.119 0.886 0.353 1.399c0.234 0.513 0.465 0.528 0.694 0.424s0.37-0.289 0.136-0.802z"></path>
<path fill="rgb(253, 191, 35)" d="M10.321 7.151c-0.234 0.513-0.093 0.698 0.136 0.802s0.461 0.089 0.694-0.424c0.234-0.513 0.353-1.399 0.353-1.399s-0.949 0.508-1.183 1.021z"></path>
<path fill="rgb(253, 191, 35)" d="M9.679 8.766c-0.234-0.513-1.183-1.021-1.183-1.021s0.119 0.886 0.353 1.399c0.234 0.513 0.465 0.528 0.694 0.424s0.37-0.289 0.136-0.802z"></path>
<path fill="rgb(253, 191, 35)" d="M10.321 8.766c-0.234 0.513-0.093 0.698 0.136 0.802s0.461 0.089 0.694-0.424c0.234-0.513 0.353-1.399 0.353-1.399s-0.949 0.508-1.183 1.021z"></path>
<path fill="rgb(253, 191, 35)" d="M9.679 10.406c-0.234-0.513-1.183-1.021-1.183-1.021s0.119 0.886 0.353 1.399c0.234 0.513 0.465 0.528 0.694 0.424s0.37-0.289 0.136-0.802z"></path>
<path fill="rgb(253, 191, 35)" d="M10.321 10.406c-0.234 0.513-0.093 0.698 0.136 0.802s0.461 0.089 0.694-0.424c0.234-0.513 0.353-1.399 0.353-1.399s-0.949 0.508-1.183 1.021z"></path>
<path fill="rgb(253, 191, 35)" d="M9.679 12.034c-0.234-0.513-1.183-1.021-1.183-1.021s0.119 0.886 0.353 1.399c0.234 0.513 0.465 0.528 0.694 0.424s0.37-0.289 0.136-0.802z"></path>
<path fill="rgb(253, 191, 35)" d="M10.321 12.034c-0.234 0.513-0.093 0.698 0.136 0.802s0.461 0.089 0.694-0.424c0.234-0.513 0.353-1.399 0.353-1.399s-0.949 0.508-1.183 1.021z"></path>
<path fill="rgb(253, 191, 35)" d="M9.679 13.661c-0.234-0.513-1.183-1.021-1.183-1.021s0.119 0.886 0.353 1.399c0.234 0.513 0.465 0.528 0.694 0.424s0.37-0.289 0.136-0.802z"></path>
<path fill="rgb(253, 191, 35)" d="M10.321 13.661c-0.234 0.513-0.093 0.698 0.136 0.802s0.461 0.089 0.694-0.424c0.234-0.513 0.353-1.399 0.353-1.399s-0.949 0.508-1.183 1.021z"></path>
</svg>
