<?xml version="1.0" encoding="utf-8"?>
<!-- Generated by IcoMoon.io -->
<!DOCTYPE svg PUBLIC "-//W3C//DTD SVG 1.1//EN" "http://www.w3.org/Graphics/SVG/1.1/DTD/svg11.dtd">
<svg version="1.1" xmlns="http://www.w3.org/2000/svg" xmlns:xlink="http://www.w3.org/1999/xlink" width="20" height="20" viewBox="0 0 20 20">
<path fill="rgb(50, 190, 166)" d="M0.309 10c0-5.352 4.339-9.691 9.691-9.691s9.69 4.338 9.69 9.691c0 5.352-4.339 9.69-9.69 9.69s-9.691-4.339-9.691-9.69z"></path>
<path fill="rgba(255, 255, 255, 0.5)" d="M11.488 6.262c-1.292-1.308-1.14-2.234-1.14-2.234-0.602 0.872-0.162 1.49 0.31 2.051 1.95 2.315-0.021 3.575-0.021 3.575l0.012 0.030c0.823-0.328 1.316-0.726 1.501-1.219 0.272-0.725 0.111-1.419-0.662-2.203z"></path>
<path fill="rgba(255, 255, 255, 0.5)" d="M9.865 9.811c1.021-1.659 0.277-2.531-0.681-3.595-1.4-1.556 1.191-2.978 1.191-2.978s-2.457 0.124-2.276 2.425c0.085 1.085 1.127 1.191 1.553 2.276 0.378 0.964 0.213 1.872 0.213 1.872z"></path>
<path fill="rgba(255, 255, 255, 0.5)" d="M9.040 9.516c0.287-1.485-0.493-1.915-1.48-2.426-1.443-0.747 0.050-2.49 0.050-2.49s-1.751 0.763-0.99 2.386c0.359 0.765 1.146 0.557 1.752 1.229 0.539 0.597 0.668 1.302 0.668 1.302z"></path>
<path fill="rgb(239, 239, 239)" d="M14.454 12.015c0-0.639-0.316-1.191-0.86-1.463-0-0.066-0-0.131-0-0.191h-7.277c0 1.523-0.13 4.849 3.638 4.849 1.707 0 2.614-0.682 3.096-1.57 0.872-0.114 1.403-0.797 1.403-1.625zM13.266 13.159c0.254-0.695 0.312-1.457 0.325-2.096 0.257 0.225 0.394 0.568 0.394 0.952 0 0.522-0.253 0.966-0.719 1.144z"></path>
<path fill="rgb(221, 224, 119)" d="M6.628 11.154c0.024 1.516 0.308 3.849 3.327 3.849 2.826 0 3.258-2.217 3.319-3.848 0.008-0.207-6.65-0.216-6.647-0.001z"></path>
<path fill="rgba(170, 154, 131, 0.5)" d="M11.725 10.251c-0.073-0.043-0.167-0.019-0.21 0.053-0.041 0.070-0.634 1.703-0.742 2.35-0.001 0.003 0.001 0.007 0 0.010h-0.108c-0.085 0-0.537 0.443-0.537 0.583v1.002c0 0.169 0.137 0.307 0.307 0.307h0.92c0.169 0 0.307-0.137 0.307-0.307v-1.002c0-0.14-0.452-0.583-0.537-0.583h-0.042c0.133-0.621 0.686-2.187 0.695-2.203 0.043-0.073 0.019-0.166-0.053-0.209z"></path>
<path fill="rgb(237, 237, 237)" d="M14.885 14.795c0 0.78-3.13 1.015-4.969 1.015-1.487 0-4.89-0.313-4.89-1.015h9.859z"></path>
<path fill="rgb(170, 154, 131)" d="M12.729 12.108c-0.008 0-0.017-0.001-0.025-0.002-0.083-0.014-0.14-0.093-0.126-0.176 0.066-0.393-0.587-1.122-1.014-1.488-0.064-0.055-0.071-0.152-0.016-0.216s0.152-0.071 0.216-0.016c0.126 0.108 1.232 1.080 1.116 1.771-0.012 0.075-0.077 0.128-0.151 0.128z"></path>
<path fill="rgb(149, 200, 61)" d="M13.374 13.131c0 0.142-0.115 0.257-0.257 0.257h-0.771c-0.142 0-0.257-0.115-0.257-0.257v-0.84c0-0.117 0.379-0.488 0.45-0.488h0.385c0.071 0 0.45 0.371 0.45 0.488v0.84z"></path>
<path fill="rgb(189, 218, 131)" d="M13.181 12.434c0 0.049-0.040 0.089-0.089 0.089h-0.671c-0.049 0-0.089-0.040-0.089-0.089v0c0-0.049 0.040-0.089 0.089-0.089h0.671c0.049 0 0.089 0.040 0.089 0.089v0z"></path>
<path fill="rgb(189, 218, 131)" d="M13.181 12.77c0 0.049-0.040 0.089-0.089 0.089h-0.671c-0.049 0-0.089-0.040-0.089-0.089v0c0-0.049 0.040-0.089 0.089-0.089h0.671c0.049 0 0.089 0.040 0.089 0.089v0z"></path>
<path fill="rgb(189, 218, 131)" d="M13.181 13.125c0 0.049-0.040 0.089-0.089 0.089h-0.671c-0.049 0-0.089-0.040-0.089-0.089v0c0-0.049 0.040-0.089 0.089-0.089h0.671c0.049 0 0.089 0.040 0.089 0.089v0z"></path>
<path fill="rgb(170, 154, 131)" d="M12.821 11.953c0 0.032-0.035 0.059-0.078 0.059s-0.078-0.026-0.078-0.059c0-0.033 0.035-0.059 0.078-0.059s0.078 0.026 0.078 0.059z"></path>
</svg>
