<?xml version="1.0" encoding="utf-8"?>
<!-- Generated by IcoMoon.io -->
<!DOCTYPE svg PUBLIC "-//W3C//DTD SVG 1.1//EN" "http://www.w3.org/Graphics/SVG/1.1/DTD/svg11.dtd">
<svg version="1.1" xmlns="http://www.w3.org/2000/svg" xmlns:xlink="http://www.w3.org/1999/xlink" width="20" height="20" viewBox="0 0 20 20">
<path fill="rgb(37, 183, 211)" d="M0.309 10c0-5.352 4.339-9.691 9.69-9.691s9.691 4.338 9.691 9.691c0 5.352-4.339 9.691-9.691 9.691s-9.69-4.339-9.69-9.691z"></path>
<path fill="rgb(127, 89, 54)" d="M14.028 4.008h-8.056c-0.346 0-0.627 0.281-0.627 0.627v13.866c1.381 0.758 2.968 1.189 4.654 1.189s3.273-0.432 4.655-1.19v-13.866c0-0.346-0.281-0.627-0.627-0.627z"></path>
<path fill="rgb(145, 103, 61)" d="M14.028 4.245h-8.056c-0.346 0-0.627 0.281-0.627 0.627v13.63c1.381 0.758 2.968 1.189 4.654 1.189s3.273-0.432 4.655-1.19v-13.629c0-0.346-0.281-0.627-0.627-0.627z"></path>
<path fill="rgb(153, 112, 74)" d="M7.801 4.245h-1.829c-0.346 0-0.627 0.281-0.627 0.627v13.63c0.943 0.517 1.981 0.882 3.082 1.062v-14.691c0-0.346-0.281-0.627-0.627-0.627z"></path>
<path fill="rgb(127, 87, 51)" d="M8.393 4.33c-0.091 0-0.165 0.074-0.165 0.165v15.034c0.109 0.020 0.219 0.039 0.329 0.055v-15.089c0-0.091-0.074-0.165-0.165-0.165z"></path>
<path fill="rgb(127, 87, 51)" d="M11.483 4.33c-0.091 0-0.165 0.074-0.165 0.165v15.106c0.11-0.015 0.22-0.032 0.329-0.051v-15.056c0-0.091-0.074-0.165-0.165-0.165z"></path>
<path fill="rgb(127, 87, 51)" d="M14.367 7.173h-8.733c-0.091 0-0.165-0.074-0.165-0.165s0.074-0.165 0.165-0.165h8.733c0.091 0 0.165 0.074 0.165 0.165s-0.073 0.165-0.165 0.165z"></path>
<path fill="rgb(127, 87, 51)" d="M14.367 9.851h-8.733c-0.091 0-0.165-0.074-0.165-0.165s0.074-0.165 0.165-0.165h8.733c0.091 0 0.165 0.074 0.165 0.165s-0.073 0.165-0.165 0.165z"></path>
<path fill="rgb(127, 87, 51)" d="M14.367 12.551h-8.733c-0.091 0-0.165-0.074-0.165-0.165s0.074-0.165 0.165-0.165h8.733c0.091 0 0.165 0.074 0.165 0.165s-0.073 0.165-0.165 0.165z"></path>
<path fill="rgb(127, 87, 51)" d="M14.367 15.23h-8.733c-0.091 0-0.165-0.074-0.165-0.165s0.074-0.165 0.165-0.165h8.733c0.091 0 0.165 0.074 0.165 0.165s-0.073 0.165-0.165 0.165z"></path>
<path fill="rgb(127, 87, 51)" d="M14.367 17.942h-8.733c-0.091 0-0.165-0.074-0.165-0.165s0.074-0.165 0.165-0.165h8.733c0.091 0 0.165 0.074 0.165 0.165s-0.073 0.165-0.165 0.165z"></path>
</svg>
