<?xml version="1.0" encoding="utf-8"?>
<!-- Generated by IcoMoon.io -->
<!DOCTYPE svg PUBLIC "-//W3C//DTD SVG 1.1//EN" "http://www.w3.org/Graphics/SVG/1.1/DTD/svg11.dtd">
<svg version="1.1" xmlns="http://www.w3.org/2000/svg" xmlns:xlink="http://www.w3.org/1999/xlink" width="20" height="20" viewBox="0 0 20 20">
<path fill="rgb(74, 188, 150)" d="M19.691 10c0-5.352-4.339-9.691-9.691-9.691s-9.691 4.338-9.691 9.691c0 5.352 4.339 9.69 9.691 9.69s9.691-4.339 9.691-9.69z"></path>
<path fill="rgb(168, 136, 56)" d="M16.417 9.343c-0.137-0.095-0.287-0.099-0.293-0.090l-0.053 0.073 0.499 0.36 0.052-0.073c0.006-0.009-0.069-0.175-0.206-0.27z"></path>
<path fill="rgb(249, 221, 100)" d="M16.582 9.67c0 0-0.554 4.819-6.757 4.819-5.207 0-5.636-4.777-5.317-5.151l0.609-0.277c0 0 0.291 0.18 0.637 0.332 0.272 0.12 3.434 4.57 10.33-0.083l0.498 0.36z"></path>
<path fill="rgb(250, 214, 38)" d="M16.582 9.67c0 0-0.554 4.819-6.757 4.819-5.207 0-5.636-4.777-5.317-5.151l0.385-0.175c0 0 4.364 7.154 11.191 0.147l0.498 0.36z"></path>
<path fill="rgb(252, 219, 84)" d="M3.94 8.133c0 0 0.554 0.72 0.568 1.205l0.609-0.277c0 0-0.485-0.609-0.443-1.316l-0.734 0.388z"></path>
<path fill="rgb(250, 214, 38)" d="M3.94 8.133c0 0 0.554 0.72 0.568 1.205l0.385-0.175c0 0-0.26-0.711-0.219-1.417l-0.734 0.388z"></path>
<path fill="rgb(168, 136, 56)" d="M3.39 7.039c-0.095 0.058 0.245 0.457 0.272 0.568s0.097 0.383 0.277 0.526l0.734-0.388c0 0 0-0.132-0.125-0.235l-0.443-0.402c-0 0-0.503-0.198-0.716-0.069z"></path>
</svg>
