<?xml version="1.0" encoding="utf-8"?>
<!-- Generated by IcoMoon.io -->
<!DOCTYPE svg PUBLIC "-//W3C//DTD SVG 1.1//EN" "http://www.w3.org/Graphics/SVG/1.1/DTD/svg11.dtd">
<svg version="1.1" xmlns="http://www.w3.org/2000/svg" xmlns:xlink="http://www.w3.org/1999/xlink" width="20" height="20" viewBox="0 0 20 20">
<path fill="rgb(234, 73, 73)" d="M19.691 10c0-5.352-4.339-9.691-9.691-9.691s-9.691 4.338-9.691 9.691c0 5.352 4.339 9.69 9.691 9.69s9.691-4.339 9.691-9.69z"></path>
<path fill="rgb(241, 168, 102)" d="M17.344 10.497c0-1.459-3.288-1.848-7.344-1.848s-7.344 0.389-7.344 1.848c0 0.069 1.68 1.28 7.325 1.28s7.364-1.204 7.364-1.28z"></path>
<path fill="rgb(241, 148, 56)" d="M10 11.478c-3.629 0-6.644-0.312-7.238-1.422-0.070 0.149-0.107 0.3-0.107 0.453 0 1.459 3.288 1.848 7.344 1.848s7.344-0.389 7.344-1.848c0-0.139-0.042-0.284-0.119-0.43-0.623 1.092-3.621 1.399-7.225 1.399z"></path>
<path fill="rgb(250, 205, 113)" d="M12.065 12.262l-3.587-1.757h7.175z"></path>
<path fill="rgb(250, 205, 113)" d="M3.229 9.803l2.8 2.147 2.8-2.147z"></path>
<path fill="rgb(253, 191, 35)" d="M12.026 12.164l-3.587-1.757h7.175z"></path>
<path fill="rgb(106, 124, 53)" d="M16.61 10.651l-3.515-1.807c-0.045-0.023-0.046-0.061-0.004-0.085s0.114-0.025 0.159-0.002c0.001 0.001 0.003 0.001 0.004 0.002l3.356 1.892z"></path>
<path fill="rgb(106, 124, 53)" d="M15.066 10.234l-0.264-0.527c-0.007-0.013 0.008-0.027 0.033-0.031s0.050 0.004 0.057 0.018c0 0.001 0.001 0.001 0.001 0.002l0.174 0.538z"></path>
<path fill="rgb(106, 124, 53)" d="M15.803 10.508l-0.265-0.413c-0.005-0.010 0.006-0.019 0.024-0.022s0.036 0.003 0.040 0.013c0 0 0.001 0.001 0.001 0.001l0.201 0.421z"></path>
<path fill="rgb(106, 124, 53)" d="M15.836 9.82l-0.998-0.094c-0.025-0.002-0.042-0.015-0.038-0.029s0.028-0.023 0.054-0.020c0.001 0 0.003 0 0.004 0.001l0.979 0.142z"></path>
<path fill="rgb(106, 124, 53)" d="M16.345 10.217l-0.781-0.108c-0.018-0.002-0.030-0.011-0.027-0.021s0.020-0.016 0.038-0.014c0.001 0 0.002 0 0.003 0l0.767 0.143z"></path>
<path fill="rgb(113, 139, 58)" d="M15.149 10.899c0.722 0.389 2.773 0.457 2.773 0.457s-0.127-1.104-0.849-1.493c-0.722-0.389-2.442-0.851-2.973-0.565s0.328 1.212 1.050 1.601z"></path>
<path fill="rgb(106, 124, 53)" d="M17.8 11.291l-3.515-1.807c-0.045-0.023-0.046-0.061-0.004-0.085s0.114-0.025 0.159-0.002c0.001 0.001 0.002 0.001 0.004 0.002l3.356 1.892z"></path>
<path fill="rgb(106, 124, 53)" d="M15.417 10.631l-0.167-0.671c-0.010-0.019 0.010-0.039 0.046-0.044s0.072 0.006 0.082 0.025c0.001 0.001 0.001 0.003 0.002 0.004l0.038 0.686z"></path>
<path fill="rgb(106, 124, 53)" d="M16.257 10.875l-0.264-0.527c-0.007-0.013 0.008-0.027 0.033-0.031s0.050 0.004 0.057 0.018c0 0.001 0.001 0.001 0.001 0.002l0.174 0.537z"></path>
<path fill="rgb(106, 124, 53)" d="M16.994 11.149l-0.265-0.413c-0.005-0.009 0.006-0.019 0.024-0.022s0.036 0.003 0.040 0.013c0 0 0 0.001 0.001 0.001l0.2 0.421z"></path>
<path fill="rgb(106, 124, 53)" d="M16.574 10.008l-1.275-0.021c-0.036-0.003-0.061-0.021-0.055-0.041s0.040-0.033 0.076-0.029c0.003 0 0.005 0.001 0.007 0.001l1.246 0.090z"></path>
<path fill="rgb(106, 124, 53)" d="M17.026 10.461l-0.999-0.094c-0.025-0.002-0.042-0.015-0.038-0.029s0.028-0.023 0.054-0.020c0.001 0 0.003 0 0.004 0l0.979 0.142z"></path>
<path fill="rgb(106, 124, 53)" d="M17.535 10.857l-0.781-0.108c-0.018-0.002-0.030-0.011-0.027-0.021s0.020-0.016 0.038-0.014c0.001 0 0.002 0 0.003 0l0.767 0.143z"></path>
<path fill="rgb(253, 191, 35)" d="M3.19 9.705l2.8 2.147 2.8-2.147z"></path>
<path fill="rgb(113, 139, 58)" d="M4.653 10.441c-0.621 0.334-2.383 0.393-2.383 0.393s0.109-0.949 0.73-1.283c0.621-0.334 1.563-0.418 2.020-0.172s0.254 0.728-0.367 1.062z"></path>
<path fill="rgb(106, 124, 53)" d="M2.374 10.778l3.021-1.553c0.039-0.020 0.040-0.053 0.003-0.073s-0.098-0.021-0.137-0.002c-0.001 0.001-0.002 0.001-0.003 0.002l-2.885 1.626z"></path>
<path fill="rgb(106, 124, 53)" d="M4.423 10.211l0.144-0.577c0.009-0.016-0.009-0.033-0.039-0.038s-0.062 0.005-0.070 0.021c-0.001 0.001-0.001 0.002-0.001 0.003l-0.033 0.59z"></path>
<path fill="rgb(106, 124, 53)" d="M3.701 10.42l0.227-0.453c0.006-0.011-0.007-0.023-0.028-0.026s-0.043 0.004-0.049 0.015c-0 0.001-0.001 0.001-0.001 0.002l-0.15 0.462z"></path>
<path fill="rgb(106, 124, 53)" d="M3.067 10.656l0.228-0.355c0.004-0.008-0.005-0.016-0.020-0.019s-0.031 0.003-0.035 0.011c-0 0-0 0.001-0.001 0.001l-0.172 0.362z"></path>
<path fill="rgb(106, 124, 53)" d="M3.428 9.675l1.096-0.018c0.031-0.003 0.052-0.018 0.047-0.035s-0.034-0.028-0.065-0.025c-0.002 0-0.004 0-0.006 0.001l-1.071 0.077z"></path>
<path fill="rgb(106, 124, 53)" d="M3.039 10.064l0.858-0.081c0.022-0.002 0.036-0.013 0.032-0.025s-0.024-0.019-0.046-0.017c-0.001 0-0.002 0-0.004 0l-0.841 0.122z"></path>
<path fill="rgb(106, 124, 53)" d="M2.602 10.405l0.672-0.093c0.015-0.002 0.026-0.009 0.023-0.018s-0.018-0.014-0.033-0.012c-0.001 0-0.001 0-0.002 0l-0.659 0.123z"></path>
<path fill="rgb(113, 139, 58)" d="M8.907 11.005c-0.283 0.349-1.572 0.672-1.572 0.672s-0.437-0.728-0.154-1.077c0.283-0.349 0.943-0.561 1.42-0.449s0.588 0.505 0.306 0.854z"></path>
<path fill="rgb(106, 124, 53)" d="M7.383 11.619l1.416-1.643c0.018-0.021 0.001-0.046-0.038-0.056s-0.085-0.001-0.103 0.020c-0 0.001-0.001 0.001-0.001 0.002l-1.273 1.676z"></path>
<path fill="rgb(106, 124, 53)" d="M8.608 10.869l-0.207-0.455c-0.002-0.014-0.025-0.023-0.050-0.022s-0.044 0.013-0.041 0.027c0 0.001 0 0.002 0.001 0.003l0.298 0.447z"></path>
<path fill="rgb(106, 124, 53)" d="M8.181 11.14l-0.077-0.375c-0.002-0.009-0.018-0.016-0.035-0.015s-0.030 0.010-0.028 0.019c0 0.001 0 0.001 0 0.002l0.14 0.37z"></path>
<path fill="rgb(106, 124, 53)" d="M7.835 11.417l-0.023-0.302c-0.001-0.007-0.013-0.012-0.025-0.011s-0.022 0.007-0.020 0.014c0 0 0 0.001 0 0.001l0.068 0.298z"></path>
<path fill="rgb(106, 124, 53)" d="M7.57 10.625l0.812-0.187c0.022-0.007 0.029-0.022 0.016-0.034s-0.041-0.016-0.063-0.009c-0.002 0.001-0.003 0.001-0.004 0.002l-0.761 0.228z"></path>
<path fill="rgb(106, 124, 53)" d="M7.491 10.978l0.599-0.196c0.015-0.005 0.020-0.016 0.011-0.024s-0.029-0.011-0.044-0.006c-0.001 0-0.002 0.001-0.002 0.001l-0.564 0.225z"></path>
<path fill="rgb(106, 124, 53)" d="M7.349 11.303l0.453-0.176c0.011-0.004 0.014-0.011 0.007-0.017s-0.021-0.008-0.031-0.004c-0.001 0-0.001 0-0.002 0.001l-0.427 0.196z"></path>
<path fill="rgb(113, 139, 58)" d="M10.2 11.006c-0.008 0.381-0.962 0.948-0.962 0.948s-0.929-0.58-0.921-0.96c0.008-0.381 0.464-0.714 0.984-0.711s0.907 0.342 0.899 0.723z"></path>
<path fill="rgb(106, 124, 53)" d="M9.24 11.891l0.117-1.81c0.001-0.023-0.032-0.042-0.075-0.043s-0.079 0.017-0.080 0.040c0 0.001 0 0.001 0 0.002l0.039 1.811z"></path>
<path fill="rgb(106, 124, 53)" d="M9.827 10.943l-0.52-0.376c-0.012-0.012-0.040-0.016-0.062-0.010s-0.031 0.021-0.018 0.033c0.001 0.001 0.002 0.002 0.003 0.002l0.598 0.35z"></path>
<path fill="rgb(106, 124, 53)" d="M9.629 11.282l-0.342-0.33c-0.009-0.008-0.028-0.011-0.044-0.007s-0.021 0.015-0.012 0.023c0.001 0 0.001 0.001 0.001 0.001l0.397 0.311z"></path>
<path fill="rgb(106, 124, 53)" d="M9.511 11.61l-0.24-0.274c-0.006-0.006-0.020-0.008-0.031-0.005s-0.015 0.011-0.009 0.017c0 0 0.001 0.001 0.001 0.001l0.279 0.26z"></path>
<path fill="rgb(106, 124, 53)" d="M8.694 10.936l0.613-0.342c0.015-0.011 0.011-0.026-0.010-0.034s-0.049-0.006-0.064 0.005c-0.001 0.001-0.002 0.002-0.003 0.002l-0.536 0.369z"></path>
<path fill="rgb(106, 124, 53)" d="M8.876 11.278l0.41-0.306c0.010-0.008 0.007-0.018-0.007-0.024s-0.034-0.004-0.045 0.004c-0.001 0-0.001 0.001-0.002 0.001l-0.357 0.325z"></path>
<path fill="rgb(106, 124, 53)" d="M8.981 11.607l0.29-0.257c0.007-0.006 0.005-0.013-0.005-0.017s-0.025-0.003-0.032 0.003c-0 0-0.001 0.001-0.001 0.001l-0.252 0.27z"></path>
<path fill="rgb(200, 70, 39)" d="M8.729 10.041c0-0.262-0.921-0.475-2.058-0.475s-2.058 0.213-2.058 0.475c0 0.044 0 0.209 0 0.252 0 0.262 0.921 0.475 2.058 0.475s2.058-0.213 2.058-0.475c0-0.044 0-0.209 0-0.252z"></path>
<path fill="rgb(224, 77, 38)" d="M8.729 10.041c0 0.262-0.921 0.475-2.058 0.475s-2.058-0.213-2.058-0.475c0-0.262 0.921-0.475 2.058-0.475s2.058 0.213 2.058 0.475z"></path>
<path fill="rgb(162, 55, 35)" d="M8.073 10.041c0 0.179-0.628 0.324-1.402 0.324s-1.402-0.145-1.402-0.324c0-0.179 0.628-0.324 1.402-0.324s1.402 0.145 1.402 0.324z"></path>
<path fill="rgb(224, 77, 38)" d="M7.209 10.041c0 0.069-0.241 0.428-0.538 0.428s-0.538-0.359-0.538-0.428 0.241-0.124 0.538-0.124c0.297 0 0.538 0.056 0.538 0.124z"></path>
<path fill="rgb(200, 70, 39)" d="M12.058 10.315c0-0.262-0.921-0.475-2.058-0.475s-2.058 0.213-2.058 0.475c0 0.044 0 0.209 0 0.252 0 0.262 0.921 0.475 2.058 0.475s2.058-0.213 2.058-0.475c0-0.044 0-0.209 0-0.252z"></path>
<path fill="rgb(224, 77, 38)" d="M12.058 10.315c0 0.262-0.921 0.475-2.058 0.475s-2.058-0.213-2.058-0.475c0-0.262 0.921-0.475 2.058-0.475s2.058 0.213 2.058 0.475z"></path>
<path fill="rgb(162, 55, 35)" d="M11.402 10.315c0 0.179-0.628 0.324-1.402 0.324s-1.402-0.145-1.402-0.324c0-0.179 0.628-0.324 1.402-0.324s1.402 0.145 1.402 0.324z"></path>
<path fill="rgb(224, 77, 38)" d="M10.538 10.315c0 0.069-0.241 0.428-0.538 0.428s-0.538-0.359-0.538-0.428 0.241-0.124 0.538-0.124c0.297 0 0.538 0.056 0.538 0.124z"></path>
<path fill="rgb(200, 70, 39)" d="M15.681 10.041c0-0.262-0.921-0.475-2.058-0.475s-2.058 0.213-2.058 0.475c0 0.044 0 0.209 0 0.252 0 0.262 0.921 0.475 2.058 0.475s2.058-0.213 2.058-0.475c0-0.044 0-0.209 0-0.252z"></path>
<path fill="rgb(224, 77, 38)" d="M15.681 10.041c0 0.262-0.921 0.475-2.058 0.475s-2.058-0.213-2.058-0.475c0-0.262 0.921-0.475 2.058-0.475s2.058 0.213 2.058 0.475z"></path>
<path fill="rgb(162, 55, 35)" d="M15.025 10.041c0 0.179-0.628 0.324-1.402 0.324s-1.402-0.145-1.402-0.324c0-0.179 0.628-0.324 1.402-0.324s1.402 0.145 1.402 0.324z"></path>
<path fill="rgb(224, 77, 38)" d="M14.161 10.041c0 0.069-0.241 0.428-0.538 0.428s-0.538-0.359-0.538-0.428 0.241-0.124 0.538-0.124 0.538 0.056 0.538 0.124z"></path>
<path fill="rgb(113, 139, 58)" d="M12.662 10.076c0-0.174-0.61-0.314-1.362-0.314s-1.362 0.141-1.362 0.314c0 0.029 0 0.138 0 0.167 0 0.174 0.61 0.314 1.362 0.314s1.362-0.141 1.362-0.314c0-0.029 0-0.138 0-0.167z"></path>
<path fill="rgb(178, 211, 93)" d="M12.662 10.076c0 0.174-0.61 0.314-1.362 0.314s-1.362-0.141-1.362-0.314c0-0.174 0.61-0.314 1.362-0.314s1.362 0.141 1.362 0.314z"></path>
<path fill="rgb(113, 139, 58)" d="M9.167 10.076c0-0.174-0.61-0.314-1.362-0.314s-1.362 0.141-1.362 0.314c0 0.029 0 0.138 0 0.167 0 0.174 0.61 0.314 1.362 0.314s1.362-0.141 1.362-0.314c0-0.029 0-0.138 0-0.167z"></path>
<path fill="rgb(178, 211, 93)" d="M9.167 10.076c0 0.174-0.61 0.314-1.362 0.314s-1.362-0.141-1.362-0.314c0-0.174 0.61-0.314 1.362-0.314s1.362 0.141 1.362 0.314z"></path>
<path fill="rgb(241, 148, 56)" d="M10 10.093c3.605 0 6.602-0.307 7.225-1.399-0.409-0.776-1.814-1.616-3.344-2.051-0.339-0.096-0.237 0.086-0.617 0.012-0.527-0.102-1.504-0.337-2.094-0.388-0.327-0.028-0.249 0.107-0.591 0.096-0.191-0.006-0.384-0.009-0.579-0.009-0.367 0-1.129-0.060-1.481-0.039-0.303 0.018-0.198 0.113-0.488 0.145-0.721 0.079-1.411 0.157-2.024 0.311-0.097 0.024-0.178 0.092-0.271 0.117-1.542 0.427-2.639 1.070-2.973 1.782 0.594 1.111 3.608 1.422 7.238 1.422z"></path>
<path fill="rgb(241, 168, 102)" d="M5.723 6.891c0.058-0.043 0.124-0.071 0.191-0.094s0.137-0.036 0.209-0.044c0.143-0.014 0.292-0.001 0.436 0.043s0.282 0.116 0.403 0.212c0.121 0.095 0.223 0.212 0.303 0.339 0.161 0.254 0.234 0.54 0.241 0.815 0.004 0.138-0.010 0.274-0.038 0.406-0.030 0.133-0.072 0.262-0.142 0.386-0.071-0.124-0.122-0.244-0.173-0.359l-0.143-0.332c-0.092-0.212-0.183-0.405-0.288-0.571s-0.224-0.309-0.383-0.44c-0.16-0.132-0.358-0.247-0.614-0.359z"></path>
<path fill="rgb(241, 168, 102)" d="M8.019 6.461c0.058-0.043 0.124-0.071 0.191-0.094s0.137-0.036 0.209-0.044c0.143-0.014 0.292-0.001 0.436 0.043s0.282 0.116 0.403 0.212c0.121 0.095 0.223 0.212 0.303 0.339 0.161 0.254 0.234 0.54 0.241 0.815 0.004 0.138-0.010 0.274-0.038 0.406-0.030 0.133-0.072 0.262-0.142 0.386-0.071-0.124-0.122-0.244-0.173-0.359l-0.143-0.332c-0.092-0.212-0.183-0.405-0.288-0.571s-0.224-0.309-0.383-0.44c-0.16-0.132-0.358-0.247-0.614-0.359z"></path>
<path fill="rgb(241, 168, 102)" d="M10.579 6.362c0.062-0.038 0.129-0.061 0.198-0.077s0.14-0.025 0.212-0.026c0.143-0.002 0.291 0.024 0.431 0.080s0.272 0.14 0.383 0.245c0.112 0.105 0.204 0.23 0.273 0.363 0.139 0.267 0.187 0.558 0.171 0.832-0.008 0.137-0.033 0.272-0.073 0.401-0.041 0.129-0.094 0.255-0.175 0.373-0.060-0.13-0.1-0.253-0.142-0.372l-0.114-0.343c-0.074-0.219-0.148-0.419-0.239-0.594s-0.197-0.327-0.344-0.471c-0.148-0.145-0.336-0.277-0.581-0.41z"></path>
<path fill="rgb(241, 168, 102)" d="M13.264 6.654c0.066-0.030 0.136-0.044 0.206-0.052s0.142-0.007 0.213 0c0.142 0.016 0.286 0.060 0.417 0.133s0.252 0.173 0.35 0.291c0.098 0.118 0.174 0.254 0.226 0.395 0.104 0.282 0.116 0.577 0.065 0.847-0.025 0.135-0.067 0.265-0.123 0.389-0.057 0.123-0.125 0.241-0.22 0.348-0.043-0.136-0.068-0.264-0.094-0.387l-0.071-0.355c-0.046-0.227-0.094-0.434-0.162-0.619s-0.154-0.349-0.282-0.511c-0.128-0.163-0.298-0.317-0.526-0.479z"></path>
</svg>
