<?xml version="1.0" encoding="utf-8"?>
<!-- Generated by IcoMoon.io -->
<!DOCTYPE svg PUBLIC "-//W3C//DTD SVG 1.1//EN" "http://www.w3.org/Graphics/SVG/1.1/DTD/svg11.dtd">
<svg version="1.1" xmlns="http://www.w3.org/2000/svg" xmlns:xlink="http://www.w3.org/1999/xlink" width="20" height="20" viewBox="0 0 20 20">
<path fill="rgb(250, 188, 61)" d="M19.691 10c0-5.352-4.339-9.691-9.69-9.691s-9.691 4.338-9.691 9.691c0 5.352 4.339 9.69 9.691 9.69s9.69-4.339 9.69-9.69z"></path>
<path fill="rgb(234, 232, 234)" d="M11.856 8.296c-0.010-0.036-0.016-0.154-0.016-0.154l-1.846-0.070-1.833 0.070c0 0-0.004 0.109-0.012 0.14-0.054 0.213-0.929 5.513-0.929 5.696 0 0.21 0.657 0.452 0.657 0.571 0 0 0.007 0.036 0.010 0.043 0.088 0.194 0.776 0.346 2.114 0.346s2.027-0.151 2.114-0.346c0.003-0.007 0.010-0.043 0.010-0.043 0-0.133 0.657-0.348 0.657-0.571 0-0.191-0.865-5.47-0.925-5.682z"></path>
<path fill="rgb(214, 30, 30)" d="M12.47 5.3l-2.479-0.094-2.461 0.094c0 0-0.006 0.147-0.016 0.188-0.073 0.286-0.365 0.692-0.365 0.939 0 0.282 0 7.504 0 7.504h5.703c0 0 0-7.205 0-7.504 0-0.256-0.279-0.635-0.36-0.92-0.014-0.048-0.022-0.207-0.022-0.207z"></path>
<path fill="rgb(214, 30, 30)" d="M7.148 13.902c0-0.288 1.277-0.522 2.852-0.522s2.852 0.234 2.852 0.522-0.924 0.522-2.852 0.522-2.852-0.234-2.852-0.522z"></path>
<path fill="rgb(229, 40, 40)" d="M7.148 6.427c0 0.282 0 7.504 0 7.504h0.003c0.061 0.275 5.7-7.205 5.7-7.504 0-0.256-5.703-0.246-5.703 0z"></path>
<path fill="rgb(234, 232, 234)" d="M12.476 5.156c0 0-0.548-0.094-2.476-0.094s-2.482 0.094-2.482 0.094v0.189c0 0 0.554-0.094 2.482-0.094s2.476 0.094 2.476 0.094v-0.189z"></path>
<path fill="rgb(234, 232, 234)" d="M12.76 8.674c-0.152 0.097-0.306 0.19-0.46 0.264-0.077 0.036-0.155 0.069-0.225 0.084-0.017 0.004-0.034 0.006-0.049 0.008-0.007 0.001-0.016 0.001-0.018 0.001 0.003 0-0.027-0-0.021-0.001-0.029-0.002-0.059-0.008-0.090-0.019-0.062-0.022-0.128-0.062-0.197-0.11s-0.14-0.103-0.218-0.159c-0.077-0.056-0.162-0.11-0.256-0.156s-0.201-0.083-0.313-0.099c-0.029-0.004-0.054-0.007-0.087-0.008-0.020-0.001-0.060-0.002-0.092 0.002-0.067 0.007-0.128 0.024-0.183 0.046-0.11 0.045-0.198 0.105-0.278 0.167-0.159 0.125-0.287 0.261-0.415 0.391-0.126 0.129-0.248 0.259-0.373 0.358-0.062 0.049-0.126 0.090-0.18 0.11-0.027 0.010-0.051 0.015-0.071 0.016-0.006 0-0.003 0.001-0.006 0-0.002-0-0.006-0.002-0.012-0.006-0.027-0.016-0.074-0.075-0.111-0.142-0.038-0.068-0.072-0.146-0.104-0.226-0.064-0.161-0.122-0.332-0.184-0.505-0.032-0.086-0.064-0.173-0.101-0.261s-0.076-0.175-0.127-0.262c-0.052-0.086-0.11-0.176-0.21-0.252-0.050-0.037-0.114-0.068-0.185-0.077-0.009-0.001-0.017-0.002-0.028-0.002l-0.014-0.001-0.009 0c-0.020 0-0.032 0.002-0.048 0.004-0.030 0.004-0.059 0.010-0.086 0.018-0.11 0.034-0.197 0.094-0.274 0.157s-0.142 0.134-0.202 0.208c-0.12 0.147-0.219 0.303-0.308 0.465-0.027 0.049-0.053 0.099-0.078 0.148 0 0.041 0 0.082 0 0.123 0.158-0.222 0.327-0.433 0.517-0.614 0.064-0.059 0.13-0.115 0.198-0.16s0.141-0.080 0.206-0.092c0.016-0.003 0.032-0.005 0.047-0.005 0.007-0 0.017 0 0.020 0.001l0.009 0.001c0.003 0 0.002 0.001 0.003 0.001l0.006 0.002c0.019 0.005 0.038 0.017 0.059 0.036 0.043 0.038 0.084 0.106 0.119 0.178 0.069 0.147 0.121 0.317 0.172 0.489 0.052 0.172 0.099 0.348 0.162 0.527 0.032 0.090 0.067 0.18 0.114 0.273 0.024 0.046 0.050 0.093 0.085 0.141s0.077 0.096 0.139 0.14c0.031 0.022 0.068 0.041 0.109 0.055 0.040 0.014 0.089 0.020 0.128 0.019 0.071-0.001 0.137-0.016 0.195-0.036 0.117-0.042 0.206-0.103 0.287-0.165 0.16-0.126 0.289-0.261 0.415-0.392 0.125-0.13 0.248-0.258 0.373-0.36 0.062-0.050 0.126-0.093 0.184-0.118 0.029-0.012 0.056-0.020 0.079-0.023 0.013-0.002 0.019-0.002 0.044-0.001 0.013 0 0.032 0.001 0.049 0.003 0.137 0.013 0.274 0.082 0.419 0.176 0.073 0.046 0.148 0.099 0.231 0.15s0.176 0.103 0.288 0.134c0.056 0.015 0.116 0.025 0.178 0.024 0.028-0 0.021-0.001 0.047-0.003 0.021-0.002 0.034-0.005 0.050-0.008 0.030-0.006 0.057-0.015 0.083-0.025 0.103-0.039 0.188-0.090 0.267-0.145 0.157-0.109 0.293-0.233 0.422-0.363 0-0.061 0-0.122 0-0.182-0.030 0.020-0.061 0.040-0.091 0.059z"></path>
<path fill="rgb(255, 253, 255)" d="M11.226 8.586c-0.094-0.046-0.201-0.083-0.313-0.099-0.029-0.004-0.054-0.007-0.087-0.008-0.020-0.001-0.060-0.002-0.092 0.002-0.067 0.007-0.128 0.024-0.183 0.046-0.11 0.045-0.198 0.105-0.278 0.167-0.159 0.125-0.287 0.261-0.415 0.391-0.126 0.129-0.248 0.259-0.373 0.358-0.062 0.049-0.126 0.090-0.18 0.11-0.027 0.010-0.051 0.015-0.071 0.016-0.006 0-0.003 0.001-0.006 0-0.002-0-0.006-0.002-0.012-0.006-0.027-0.016-0.074-0.075-0.111-0.142-0.038-0.068-0.072-0.146-0.104-0.226-0.064-0.161-0.122-0.332-0.184-0.505-0.032-0.086-0.064-0.173-0.101-0.261s-0.076-0.175-0.127-0.262c-0.052-0.086-0.11-0.176-0.21-0.252-0.050-0.037-0.114-0.068-0.185-0.077-0.009-0.001-0.017-0.002-0.028-0.002l-0.014-0.001-0.009 0c-0.020 0-0.032 0.002-0.048 0.004-0.030 0.004-0.059 0.010-0.086 0.018-0.11 0.034-0.197 0.094-0.274 0.157s-0.142 0.134-0.202 0.208c-0.12 0.147-0.219 0.303-0.308 0.465-0.027 0.049-0.053 0.099-0.078 0.148 0 0.041 0 0.082 0 0.123 0.158-0.222 0.327-0.433 0.517-0.614 0.064-0.059 0.13-0.115 0.198-0.16s0.141-0.080 0.206-0.092c0.016-0.003 0.032-0.005 0.047-0.005 0.007-0 0.017 0 0.020 0.001l0.009 0.001c0.003 0 0.002 0.001 0.003 0.001l0.006 0.002c0.019 0.005 0.038 0.017 0.059 0.036 0.043 0.038 0.084 0.106 0.119 0.178 0.069 0.147 0.121 0.317 0.172 0.489 0.052 0.172 0.099 0.348 0.162 0.527 0.032 0.090 0.067 0.18 0.114 0.273 0.024 0.046 0.050 0.093 0.085 0.141s0.077 0.096 0.139 0.14c0.031 0.022 0.068 0.041 0.109 0.055 0.040 0.014 0.089 0.020 0.128 0.019 0.071-0.001 0.137-0.016 0.195-0.036 0.117-0.042 0.206-0.103 0.287-0.165 0.16-0.126 0.289-0.261 0.415-0.392 0.125-0.13 0.248-0.258 0.373-0.36 0.062-0.050 0.126-0.093 0.184-0.118 0.029-0.012 0.056-0.020 0.079-0.023 0.013-0.002 0.019-0.002 0.044-0.001 0.013 0 0.032 0.001 0.049 0.003 0.082 0.008 0.165 0.036 0.25 0.078 0.073-0.099 0.144-0.196 0.215-0.291-0.034-0.020-0.068-0.039-0.105-0.057z"></path>
</svg>
