<?xml version="1.0" encoding="utf-8"?>
<!-- Generated by IcoMoon.io -->
<!DOCTYPE svg PUBLIC "-//W3C//DTD SVG 1.1//EN" "http://www.w3.org/Graphics/SVG/1.1/DTD/svg11.dtd">
<svg version="1.1" xmlns="http://www.w3.org/2000/svg" xmlns:xlink="http://www.w3.org/1999/xlink" width="20" height="20" viewBox="0 0 20 20">
<path fill="rgb(37, 183, 211)" d="M19.691 10c0 5.352-4.338 9.691-9.691 9.691s-9.691-4.339-9.691-9.691c0-5.352 4.339-9.691 9.691-9.691s9.691 4.339 9.691 9.691z"></path>
<path fill="rgb(114, 16, 18)" d="M14.187 14.247c0 0.841-0.682 1.523-1.523 1.523h-5.568c-0.841 0-1.523-0.682-1.523-1.523v-6.375c0-0.841 0.682-1.523 1.523-1.523h5.568c0.841 0 1.523 0.682 1.523 1.523v6.375z"></path>
<path fill="rgb(247, 232, 214)" d="M6.65 8.771h6.73v4.576h-6.73v-4.576z"></path>
<path fill="rgb(236, 34, 36)" d="M13.679 6.382l0.009 0.078-0.221-0.38h-0.004c0.316-0.269 0.536-0.529 0.536-0.899 0-0.507-0.411-0.985-0.918-0.985h-6.173c-0.507 0-0.918 0.478-0.918 0.985 0 0.37 0.22 0.63 0.536 0.899h-0.004l-0.21 0.269h0.026c-0.203 0-0.471 0.28-0.471 0.484s0.165 0.382 0.369 0.382 0.369-0.159 0.369-0.362c0-0.204 0.181-0.366 0.385-0.366s0.369 0.167 0.369 0.371c0 0.203 0.165 0.37 0.369 0.37s0.369-0.165 0.369-0.369c0-0.204 0.165-0.369 0.369-0.369s0.369 0.166 0.369 0.37c0 0.204 0.165 0.369 0.369 0.369s0.369-0.165 0.369-0.369c0-0.204 0.165-0.369 0.369-0.369s0.369 0.165 0.369 0.369c0 0.204 0.165 0.369 0.369 0.369s0.369-0.165 0.369-0.369c0-0.204 0.165-0.369 0.369-0.369s0.369 0.165 0.369 0.369c0 0.204 0.165 0.369 0.369 0.369s0.369-0.165 0.369-0.369c0-0.204 0.165-0.369 0.369-0.369s0.369 0.165 0.369 0.369c0 0.204 0.166 0.369 0.369 0.369s0.369-0.165 0.369-0.369c0-0.204-0.117-0.477-0.32-0.477z"></path>
<path fill="rgb(247, 232, 214)" d="M6.381 5.81h7.268v0.538h-7.268v-0.538z"></path>
<path fill="rgb(236, 34, 36)" d="M10.47 10.905c-0.095 0.591-0.788 1.816-1.38 1.72s-0.86-1.478-0.763-2.069c0.096-0.593 0.654-0.994 1.246-0.898s0.994 0.654 0.897 1.247z"></path>
<path fill="rgb(61, 180, 74)" d="M9.119 10.124c0.007-0.007 0.012-0.014 0.018-0.020l0.002 0.002 0.212-0.192-0.019 0.018c0.008-0.005 0.015-0.008 0.022-0.013l-0.005 0.022-0.010 0.050c-0.009 0.068-0.019 0.136-0.012 0.212-0.001 0.019 0.002 0.039 0.008 0.060s0.006 0.040 0.018 0.064c0.017 0.046 0.055 0.094 0.116 0.129 0.021 0.012 0.048 0.015 0.072 0.007l0.009-0.002c0.047-0.016 0.084-0.047 0.108-0.080 0.020-0.032-0.015-0.061-0.008-0.090 0.013-0.055-0.039-0.1-0.039-0.156v0.040c0-0.016 0.046-0.033 0.046-0.049 0.032 0.026 0.088 0.050 0.133 0.072 0.033 0.012 0.063 0.026 0.115 0.030 0.038 0.009 0.111-0.004 0.165-0.038l0.008-0.003c0.047-0.030 0.072-0.088 0.057-0.145-0.004-0.020-0.011-0.040-0.020-0.059s-0.018-0.042-0.025-0.048c-0.014-0.019-0.031-0.043-0.044-0.058l-0.064-0.071-0.021-0.024-0.004-0.003c-0.018-0.014-0.039-0.026-0.059-0.037 0.032-0.023 0.062-0.048 0.093-0.072 0.005-0.004 0.007-0.011 0.006-0.017-0.003-0.007-0.011-0.012-0.019-0.009l-0.12 0.041-0.1 0.012c-0.011-0.001-0.021-0.001-0.032-0.002-0.019-0.023-0.041-0.048-0.076-0.073-0.004-0.003-0.011-0.006-0.016-0.009l0.018-0.016c0.096-0.082 0.195-0.161 0.295-0.238 0.021-0.014 0.026-0.043 0.012-0.063s-0.043-0.026-0.063-0.013l-0.002 0.002c-0.105 0.071-0.211 0.139-0.319 0.204l-0.081 0.050c0.001-0.002-0.012 0.004-0.023 0.009-0.012-0.013-0.020-0.026-0.034-0.039-0.009-0.010-0.026-0.021-0.041-0.030 0.010-0.030 0.019-0.060 0.028-0.090l0.008-0.115c0.001-0.006-0.003-0.012-0.009-0.014s-0.015 0.002-0.017 0.009l-0.001 0.004c-0.021 0.061-0.049 0.114-0.085 0.166-0.020-0.005-0.042-0.008-0.061-0.011-0.021-0.003-0.044 0.003-0.062 0.018l-0.003 0.002c-0.033 0.027-0.056 0.067-0.054 0.106l-0.081-0.011c-0.010-0.002-0.021-0.004-0.032-0.006l0.001 0.001-0.014-0.002c-0.047-0.006-0.094 0.018-0.114 0.064-0.024 0.055 0.001 0.118 0.056 0.142l0.052 0.022c0.037 0.016 0.071 0.025 0.107 0.039l-0.14 0.159-0.009 0.011c-0.037 0.042-0.036 0.106 0.004 0.146 0.042 0.042 0.11 0.043 0.151 0.002zM9.56 10.117v0zM9.836 10.103c0 0 0.001-0 0.001-0.001l0 0.001c0.006 0.007 0 0.003-0.001-0z"></path>
<path fill="rgb(164, 30, 34)" d="M11.199 12.417c-0.371 0.344-1.469 0.8-1.813 0.428s0.195-1.43 0.567-1.774c0.372-0.344 0.952-0.321 1.297 0.050s0.322 0.952-0.050 1.296z"></path>
<path fill="rgb(61, 180, 74)" d="M10.685 11.195c0.008-0.001 0.003-0.003 0.003-0.004v0.002l0.261-0.017-0.012 0.002c0.008 0.001 0.019 0.002 0.026 0.003l-0.012 0.012-0.032 0.028c-0.042 0.040-0.082 0.080-0.118 0.135-0.009 0.012-0.017 0.027-0.025 0.044s-0.017 0.030-0.021 0.052c-0.012 0.040-0.012 0.091 0.010 0.146 0.008 0.019 0.024 0.035 0.045 0.042l0.008 0.003c0.039 0.014 0.080 0.013 0.113 0.003 0.030-0.011 0.054-0.025 0.073-0.039 0.038-0.030 0.063-0.059 0.087-0.1l-0.022 0.027c0.009-0.010 0.016-0.023 0.025-0.033 0.007 0.033 0.016 0.067 0.035 0.104 0.016 0.025 0.021 0.044 0.053 0.074 0.020 0.026 0.072 0.052 0.126 0.058l0.005 0.001c0.047 0.005 0.093-0.022 0.112-0.067 0.007-0.016 0.013-0.033 0.018-0.050 0.004-0.017 0.009-0.037 0.008-0.045 0.001-0.020 0.002-0.045 0.001-0.061l-0.006-0.081-0.002-0.027-0.001-0.004c-0.005-0.019-0.013-0.037-0.020-0.055 0.033 0.001 0.066 0 0.099 0.001 0.005 0 0.010-0.003 0.012-0.008 0.002-0.006-0.002-0.014-0.008-0.016l-0.101-0.035-0.073-0.044c-0.007-0.005-0.014-0.012-0.020-0.018-0.001-0.025-0.002-0.053-0.013-0.089-0.002-0.004-0.004-0.009-0.006-0.014l0.021-0.001c0.106-0.004 0.213-0.006 0.32-0.005 0.021 0.002 0.039-0.073 0.041-0.094s-0.015-0.099-0.036-0.099h-0.002c-0.107 0-0.213 0.041-0.318 0.028l-0.080 0.020c0.002-0.001-0.010 0.011-0.021 0.009-0.001-0.015 0.001-0.020-0.002-0.036-0.001-0.012-0.007-0.023-0.012-0.037 0.022-0.015 0.044-0.028 0.065-0.044l0.065-0.071c0.003-0.004 0.004-0.009 0.001-0.014s-0.011-0.007-0.016-0.003l-0.003 0.002c-0.046 0.029-0.091 0.050-0.142 0.066-0.011-0.014-0.024-0.093-0.035-0.104-0.013-0.014-0.031-0.086-0.051-0.086h-0.003c-0.036 0-0.072 0.081-0.091 0.108l-0.042-0.017c-0.006-0.007-0.013 0.018-0.013 0.012v0.001l-0.014-0.009c-0.028-0.028-0.075-0.036-0.112-0.016-0.044 0.024-0.062 0.079-0.038 0.124l0.022 0.042c0.016 0.030 0.034 0.054 0.051 0.081l-0.188 0.035c-0.046 0.008-0.088 0.052-0.083 0.099 0.006 0.050 0.040 0.085 0.090 0.080zM10.938 11.503l0.001 0.001c0.002 0.001 0 0.001-0.001-0.001zM11.193 11.554l0.001-0.001-0.001 0.001c0.001 0.008-0.001 0.002 0-0.001z"></path>
</svg>
