<?xml version="1.0" encoding="utf-8"?>
<!-- Generated by IcoMoon.io -->
<!DOCTYPE svg PUBLIC "-//W3C//DTD SVG 1.1//EN" "http://www.w3.org/Graphics/SVG/1.1/DTD/svg11.dtd">
<svg version="1.1" xmlns="http://www.w3.org/2000/svg" xmlns:xlink="http://www.w3.org/1999/xlink" width="20" height="20" viewBox="0 0 20 20">
<path fill="rgb(221, 229, 56)" d="M19.691 10c0-5.352-4.339-9.691-9.69-9.691s-9.691 4.338-9.691 9.691c0 5.352 4.339 9.69 9.691 9.69s9.69-4.339 9.69-9.69z"></path>
<path fill="rgb(244, 221, 174)" d="M14.056 8.724c-0.202-1.897-1.957-2.461-4.056-2.461h-0c-2.232 0-4.075 0.638-4.075 2.839 0 1.64 0.838 4.995 2.685 4.995 1.235 0 1.39-0.599 1.39-0.601 0.001 0.002 0.155 0.601 1.39 0.601 1.060 0 1.788-1.105 2.215-2.357 0 0-1.014-0.595-1.014-1.598s1.464-1.419 1.464-1.419z"></path>
<path fill="rgb(160, 115, 42)" d="M10.199 5.365c-0.008-0.004-0.077-0.038-0.199-0.038s-0.192 0.034-0.199 0.038c-0.030 0.015-0.044 0.050-0.033 0.081l0.091 0.276 0.020 2.789c0 0.037 0.026 0.067 0.058 0.067h0.128c0.032 0 0.058-0.030 0.058-0.067l0.020-2.789 0.091-0.276c0.010-0.032-0.004-0.066-0.033-0.081z"></path>
<path fill="rgb(160, 115, 42)" d="M10 7.027c-0.039 0-0.070-0.032-0.070-0.070 0-0.748 0.239-1.134 0.774-1.252 0.038-0.008 0.076 0.016 0.084 0.054s-0.016 0.076-0.054 0.084c-0.465 0.102-0.663 0.436-0.663 1.114 0 0.039-0.031 0.070-0.070 0.070z"></path>
<path fill="rgb(109, 130, 3)" d="M12.448 5.395c0 0-0.557 0.646-0.959 0.734s-0.742-0.072-0.802-0.349c-0.060-0.276 0.181-0.564 0.584-0.652s1.178 0.267 1.178 0.267z"></path>
<path fill="rgb(102, 53, 20)" d="M10.338 13.868c0 0-0.127 0.099-0.338 0.099s-0.338-0.099-0.338-0.099l0.232-0.371h0.211l0.232 0.371z"></path>
<path fill="rgb(167, 209, 51)" d="M10 6.676v0 0 0 0c-1.996 0-3.646 0.571-3.646 2.54 0 1.468 0.75 4.469 2.402 4.469 1.105 0 3.24-7.008 1.244-7.008z"></path>
<path fill="rgb(146, 193, 43)" d="M11.862 10.13c0-1.067 1.192-1.354 2.194-1.405-0.202-1.897-1.957-2.461-4.056-2.461h-0c-2.232 0-4.075 0.638-4.075 2.839 0 1.64 0.838 4.995 2.685 4.995 1.235 0 1.39-0.599 1.39-0.601 0.001 0.002 0.155 0.601 1.39 0.601 1.060 0 1.788-1.105 2.215-2.357-0.866-0.252-1.743-0.544-1.743-1.611z"></path>
</svg>
