<?xml version="1.0" encoding="utf-8"?>
<!-- Generator: Adobe Illustrator 16.0.0, SVG Export Plug-In . SVG Version: 6.00 Build 0)  -->
<!DOCTYPE svg PUBLIC "-//W3C//DTD SVG 1.1//EN" "http://www.w3.org/Graphics/SVG/1.1/DTD/svg11.dtd">
<svg version="1.1" id="Layer_1" xmlns="http://www.w3.org/2000/svg" xmlns:xlink="http://www.w3.org/1999/xlink" x="0px" y="0px"
	 width="20px" height="20px" viewBox="0 0 20 20" enable-background="new 0 0 20 20" xml:space="preserve">
<g>
	<path fill="#EDC92F" d="M19.69,10.001c0-5.353-4.339-9.691-9.69-9.691S0.31,4.647,0.31,10.001c0,5.352,4.339,9.689,9.691,9.689
		S19.69,15.353,19.69,10.001z"/>
	<path fill="#718C30" d="M18.669,10.001c0,0-0.041,0.671-2.113,1.16c-0.503,0.119-1.114,0.419-1.854,0.516
		c-0.565,0.074-1.811-0.088-2.535-0.056c-0.566,0.024-1.184,0.271-1.857,0.271c-0.704,0-1.346-0.246-1.931-0.273
		c-0.758-0.036-2.027,0.119-2.608,0.039c-0.818-0.113-1.471-0.43-1.993-0.568c-1.811-0.48-1.827-1.088-1.827-1.088
		S1.975,9.374,3.864,8.89C4.39,8.755,5.044,8.441,5.857,8.333c0.561-0.075,1.803,0.085,2.526,0.051
		C8.969,8.356,9.608,8.11,10.311,8.11c0.644,0,1.233,0.243,1.778,0.267c0.758,0.032,2.029-0.129,2.613-0.052
		c0.77,0.101,1.398,0.405,1.912,0.529C18.634,9.343,18.669,10.001,18.669,10.001z"/>
	<path fill="#64772A" d="M12.165,10.001c0,0.785-0.83,1.422-1.855,1.422c-1.025,0-1.856-0.636-1.856-1.422
		c0-0.785,0.831-1.422,1.856-1.422C11.335,8.579,12.165,9.215,12.165,10.001z"/>
	<path fill="#64772A" d="M16.305,10.001c0,0.768-0.813,1.391-1.815,1.391s-1.814-0.623-1.814-1.391c0-0.769,0.812-1.391,1.814-1.391
		S16.305,9.232,16.305,10.001z"/>
	<path fill="#64772A" d="M7.945,10.001c0,0.768-0.812,1.391-1.815,1.391c-1.002,0-1.815-0.623-1.815-1.391
		c0-0.769,0.813-1.391,1.815-1.391C7.133,8.61,7.945,9.232,7.945,10.001z"/>
	<path fill="#798936" d="M4.551,10.001c0-0.668,0.707-1.209,1.579-1.209C7.001,8.792,4.551,10.669,4.551,10.001z"/>
	<path fill="#798936" d="M8.613,10.001c0-0.668,0.707-1.209,1.579-1.209S8.613,10.669,8.613,10.001z"/>
	<path fill="#798936" d="M12.857,10.001c0-0.668,0.707-1.209,1.579-1.209S12.857,10.669,12.857,10.001z"/>
</g>
</svg>
