<?xml version="1.0" encoding="utf-8"?>
<!-- Generated by IcoMoon.io -->
<!DOCTYPE svg PUBLIC "-//W3C//DTD SVG 1.1//EN" "http://www.w3.org/Graphics/SVG/1.1/DTD/svg11.dtd">
<svg version="1.1" xmlns="http://www.w3.org/2000/svg" xmlns:xlink="http://www.w3.org/1999/xlink" width="20" height="20" viewBox="0 0 20 20">
<path fill="rgb(139, 197, 63)" d="M19.691 10c0 5.352-4.338 9.691-9.691 9.691s-9.691-4.339-9.691-9.691c0-5.352 4.338-9.691 9.691-9.691s9.691 4.339 9.691 9.691z"></path>
<path fill="rgb(128, 73, 70)" d="M10.423 9.129c-0.835 0.552-2.171 2.17-1.073 3.951s3.038 1.894 4.536 1.024c1.512-0.877 2.473-2.831 0.805-4.756-1.268-1.463-3.489-0.734-4.268-0.219z"></path>
<path fill="rgb(107, 135, 58)" d="M10.489 9.218c-0.805 0.532-2.156 2.133-1.034 3.807 0.594 0.886 2.391 0.874 3.834 0.036 1.457-0.846 2.187-2.679 1.312-3.631-1.263-1.373-3.362-0.707-4.112-0.211z"></path>
<path fill="rgb(52, 66, 29)" d="M11.61 9.219l-0.12 0.801-0.733-0.515 0.31 0.74-0.969-0.22 0.686 0.552-1.037 0.112 0.944 0.268-0.925 0.425 1.038-0.062-0.654 0.665 0.953-0.382-0.269 0.79 0.702-0.635 0.162 0.777 0.331-0.779 0.565 0.631-0.097-0.788 0.87 0.376-0.509-0.66 1.025 0.055-0.833-0.419 1.003-0.275-1.013-0.105 0.808-0.557-1.018 0.227 0.472-0.743-0.846 0.521 0.055-0.801-0.529 0.723z"></path>
<path fill="rgb(255, 224, 157)" d="M11.391 10.276c-0.249 0.165-0.667 0.66-0.32 1.178 0.184 0.274 0.739 0.27 1.186 0.011 0.451-0.262 0.676-0.829 0.405-1.123-0.391-0.425-1.039-0.219-1.272-0.066z"></path>
<path fill="rgb(128, 73, 70)" d="M11.485 8.473c-0.186-1.165-1.274-3.387-3.72-3.075s-3.513 2.341-3.308 4.372c0.207 2.051 1.837 4.033 4.715 3.18 2.188-0.649 2.487-3.389 2.313-4.476z"></path>
<path fill="rgb(107, 135, 58)" d="M11.358 8.502c-0.179-1.123-1.241-3.354-3.585-2.964-1.241 0.207-2.102 2.142-1.905 4.1 0.199 1.976 1.813 3.653 3.261 3.177 2.089-0.688 2.396-3.266 2.229-4.313z"></path>
<path fill="rgb(52, 66, 29)" d="M10.811 9.704l-0.802-0.519 0.91-0.537-0.946-0.027 0.708-0.934-0.926 0.469 0.384-1.168-0.747 0.883-0.007-1.201-0.438 1.145-0.396-1.026-0.053 1.209-0.716-0.674 0.34 1.064-0.913-0.205 0.676 0.735-0.953 0.299 0.894 0.279-0.827 0.752 0.957-0.226-0.558 1.074 0.855-0.691-0.193 1.211 0.606-1.037 0.205 1.138 0.252-1.203 0.568 0.869-0.147-1.162 0.833 0.449-0.519-0.92z"></path>
<path fill="rgb(255, 224, 157)" d="M9.782 8.954c-0.056-0.347-0.384-1.037-1.109-0.916-0.383 0.064-0.65 0.662-0.589 1.268 0.062 0.611 0.561 1.129 1.009 0.982 0.646-0.212 0.741-1.010 0.689-1.334z"></path>
</svg>
