<?xml version="1.0" encoding="utf-8"?>
<!-- Generated by IcoMoon.io -->
<!DOCTYPE svg PUBLIC "-//W3C//DTD SVG 1.1//EN" "http://www.w3.org/Graphics/SVG/1.1/DTD/svg11.dtd">
<svg version="1.1" xmlns="http://www.w3.org/2000/svg" xmlns:xlink="http://www.w3.org/1999/xlink" width="20" height="20" viewBox="0 0 20 20">
<path fill="rgb(51, 113, 128)" d="M0.309 10c0-5.352 4.339-9.691 9.69-9.691s9.691 4.338 9.691 9.691c0 5.352-4.339 9.69-9.691 9.69s-9.69-4.339-9.69-9.69z"></path>
<path fill="rgb(239, 112, 41)" d="M3.534 10.503c0-3.125 2.034-5.657 6.466-5.657s6.466 2.533 6.466 5.657c0 3.124-2.523 5.393-6.466 5.393s-6.466-2.269-6.466-5.393z"></path>
<path fill="rgb(237, 144, 43)" d="M3.534 10.503c0-3.125 2.034-5.657 6.466-5.657v11.050c-3.943 0-6.466-2.269-6.466-5.393z"></path>
<path fill="rgb(229, 102, 40)" d="M4.046 10.707c0-3.006 1.873-5.443 5.954-5.443s5.954 2.436 5.954 5.443c0 3.006-2.323 5.188-5.954 5.188s-5.954-2.183-5.954-5.188z"></path>
<path fill="rgb(226, 120, 41)" d="M4.046 10.707c0-3.006 1.873-5.443 5.954-5.443v10.631c-3.631 0-5.954-2.183-5.954-5.188z"></path>
<path fill="rgb(237, 121, 43)" d="M4.111 10.707c0-3.006 2.106-5.443 5.889-5.443s5.89 2.436 5.89 5.443c0 3.006-2.298 5.188-5.89 5.188s-5.889-2.183-5.889-5.188z"></path>
<path fill="rgb(232, 139, 46)" d="M4.111 10.707c0-3.006 2.106-5.443 5.889-5.443v10.631c-3.592 0-5.889-2.183-5.889-5.188z"></path>
<path fill="rgb(226, 120, 41)" d="M5.501 10.503c0-4.598 3.267-5.214 4.499-5.214s4.499 0.614 4.499 5.214-1.741 5.393-4.499 5.393c-2.758 0-4.499-0.795-4.499-5.393z"></path>
<path fill="rgb(234, 126, 45)" d="M5.612 10.503c0-4.575 3.326-5.19 4.388-5.19s4.388 0.635 4.388 5.19-1.712 5.393-4.388 5.393c-2.676 0-4.388-0.817-4.388-5.393z"></path>
<path fill="rgb(229, 133, 46)" d="M5.612 10.503c0-4.575 3.326-5.19 4.388-5.19 0 0 0.118 10.583 0 10.583-2.676 0-4.388-0.817-4.388-5.393z"></path>
<path fill="rgb(226, 115, 41)" d="M7.085 10.503c0-3.125 2.262-5.657 2.914-5.657s2.915 2.533 2.915 5.657c0 3.971-1.114 5.393-2.915 5.393s-2.914-1.422-2.914-5.393z"></path>
<path fill="rgb(234, 126, 45)" d="M7.193 10.503c0-3.125 2.245-5.657 2.807-5.657s2.807 2.533 2.807 5.657c0 3.971-1.095 5.393-2.807 5.393s-2.807-1.422-2.807-5.393z"></path>
<path fill="rgb(229, 102, 40)" d="M8.898 10.503c0-3.125 0.856-5.657 1.102-5.657s1.102 2.533 1.102 5.657c0 4.434-0.421 5.393-1.102 5.393s-1.102-0.959-1.102-5.393z"></path>
<path fill="rgb(234, 126, 45)" d="M8.984 10.503c0-3.125 0.813-5.657 1.016-5.657s1.016 2.533 1.016 5.657c0 4.434-0.397 5.393-1.016 5.393s-1.016-0.997-1.016-5.393z"></path>
<path fill="rgb(229, 102, 40)" d="M8.649 4.9c0.131-0.022 0.318-0.002 0.447-0.017 0.283-0.034 0.538-0.101 0.905-0.101 0.377 0 0.609 0.067 0.899 0.104 0.146 0.018 0.354-0.017 0.532 0.028 0 0-0.497 0.497-0.515 0.495-0.192-0.020-0.426-0.087-0.916-0.087-0.5 0-0.733 0.070-0.927 0.088-0.015 0.001-0.424-0.51-0.424-0.51z"></path>
<path fill="rgb(229, 133, 46)" d="M8.75 4.891c0.114-0.023 0.157-0.026 0.345-0.008 0.254 0.1 0.274 0.484 0.274 0.484-0.139 0.021-0.242 0.041-0.339 0.046 0 0 0.259-0.069 0.166-0.191-0.236-0.308-0.448-0.331-0.446-0.331z"></path>
<path fill="rgb(234, 126, 45)" d="M9.112 4.881c0.114-0.023 0.157-0.052 0.345-0.034 0.184 0.073 0.249 0.307 0.271 0.43 0.008 0.047-0.426 0.101-0.4 0.060 0.027-0.044 0.049-0.108 0.020-0.182-0.101-0.265-0.236-0.273-0.236-0.273z"></path>
<path fill="rgb(229, 102, 40)" d="M8.599 4.903c-0.234 0.006-0.545 0.068-0.698 0.17 0 0 0.125 0.032 0.5 0.115 0.317 0.070 0.647 0.218 0.662 0.219 0.022 0.002 0.103-0.010 0.2-0.028 0.016-0.003-0.325-0.477-0.664-0.477z"></path>
<path fill="rgb(232, 139, 46)" d="M8.638 4.898c-0.234 0.006-0.553 0.055-0.707 0.158 0 0 0.345 0.062 0.512 0.104 0.355 0.089 0.637 0.224 0.651 0.225 0.022 0.002 0.061 0.004 0.124 0.006 0.038 0.001-0.038-0.011 0.042-0.026 0.013-0.002-0.283-0.466-0.622-0.466z"></path>
<path fill="rgb(239, 112, 41)" d="M11.255 4.891c-0.114-0.023-0.157-0.026-0.345-0.008-0.254 0.1-0.274 0.484-0.274 0.484 0.139 0.021 0.242 0.041 0.339 0.046 0 0-0.259-0.069-0.166-0.191 0.236-0.308 0.448-0.331 0.446-0.331z"></path>
<path fill="rgb(239, 112, 41)" d="M10.892 4.881c-0.114-0.023-0.157-0.052-0.345-0.034-0.193 0.077-0.256 0.332-0.274 0.448-0.001 0.007 0.414 0.058 0.408 0.049-0.029-0.044-0.055-0.111-0.025-0.19 0.101-0.265 0.236-0.273 0.236-0.273z"></path>
<path fill="rgb(229, 102, 40)" d="M11.405 4.903c0.234 0.006 0.545 0.068 0.698 0.17 0 0-0.125 0.032-0.5 0.115-0.317 0.070-0.647 0.218-0.662 0.219-0.022 0.002-0.103-0.010-0.2-0.028-0.016-0.003 0.325-0.477 0.664-0.477z"></path>
<path fill="rgb(237, 121, 43)" d="M11.367 4.898c0.234 0.006 0.553 0.055 0.707 0.158 0 0-0.345 0.062-0.512 0.104-0.355 0.089-0.637 0.224-0.652 0.225-0.022 0.002-0.061 0.004-0.124 0.006-0.038 0.001 0.038-0.011-0.042-0.026-0.013-0.002 0.283-0.466 0.622-0.466z"></path>
<path fill="rgb(137, 128, 41)" d="M10.4 4.197c0-0.47-0.411-1.091-0.491-1.197-0.059-0.079-0.145-0.080-0.223-0.049-0.055 0.022-0.171 0.069-0.27 0.143-0.108 0.082-0.153 0.139-0.184 0.184-0.024 0.035-0.080 0.12-0.006 0.218 0.083 0.109 0.373 0.393 0.373 0.708 0 0.506-0.276 0.778-0.443 1.033-0.041 0.062-0.094 0.104-0.116 0.134-0.017 0.023-0.008 0.042-0.008 0.042 0.096-0.005 0.198 0.021 0.336 0.001 0.153-0.023 0.349-0.092 0.631-0.092 0.268 0 0.459 0.067 0.609 0.089s0.258-0.003 0.36 0.002c0 0 0.010-0.027-0.006-0.049-0.023-0.032-0.079-0.069-0.124-0.138-0.168-0.262-0.439-0.534-0.439-1.029z"></path>
<path fill="rgb(155, 146, 64)" d="M9.687 2.951c-0.055 0.022-0.171 0.069-0.27 0.143-0.108 0.082-0.153 0.139-0.184 0.184-0.024 0.035-0.080 0.12-0.006 0.218 0.083 0.109 0.373 0.393 0.373 0.708 0 0.506-0.276 0.778-0.443 1.033-0.041 0.062-0.094 0.104-0.116 0.134-0.017 0.023-0.008 0.042-0.008 0.042 0.096-0.005 0.198 0.021 0.336 0.001 0.153-0.023 0.349-0.092 0.631-0.092 0.268 0 0.459 0.067 0.609 0.089 0.054 0.008-0.523-0.305-0.451-0.731 0.176-1.031-0.422-1.749-0.472-1.729z"></path>
<path fill="rgb(146, 139, 49)" d="M10.221 4.737c0.117-0.882-0.28-1.539-0.505-1.796-0.010 0.003-0.020 0.006-0.030 0.010-0.020 0.008-0.048 0.019-0.081 0.034 0.237 0.287 0.613 0.953 0.496 1.834-0.028 0.213 0.088 0.396 0.224 0.535 0.11 0.020 0.202 0.045 0.283 0.056 0.006 0.001 0.011 0.001 0.017 0.002-0.183-0.134-0.445-0.373-0.405-0.676z"></path>
<path fill="rgb(155, 146, 64)" d="M9.349 5.146c0.026-0.094 0.046-0.186 0.061-0.276-0.083 0.139-0.179 0.255-0.253 0.369-0.041 0.062-0.094 0.104-0.116 0.134-0.017 0.023-0.008 0.042-0.008 0.042 0.091-0.005 0.188 0.018 0.316 0.003-0.022-0.086-0.026-0.178-0-0.271z"></path>
<path fill="rgb(155, 146, 64)" d="M9.227 3.497c0.007 0.009 0.015 0.019 0.025 0.031-0.020-0.048-0.041-0.093-0.062-0.134-0 0.031 0.009 0.067 0.037 0.104z"></path>
<path fill="rgb(146, 139, 49)" d="M9.479 5.081c0.058-0.207 0.084-0.405 0.089-0.591-0.034 0.146-0.092 0.27-0.158 0.379-0.015 0.090-0.034 0.182-0.061 0.276s-0.022 0.184 0 0.271c0.007-0.001 0.013-0.001 0.020-0.002 0.039-0.006 0.080-0.014 0.125-0.024-0.034-0.097-0.045-0.202-0.015-0.309z"></path>
<path fill="rgb(137, 128, 41)" d="M9.877 4.864c0.216-0.846-0.224-1.463-0.52-1.721-0.035 0.030-0.061 0.056-0.081 0.079 0.304 0.3 0.69 0.863 0.462 1.706-0.040 0.147 0.021 0.285 0.109 0.402 0.048-0.004 0.099-0.007 0.153-0.007 0.011 0 0.021 0.001 0.032 0.001-0.115-0.124-0.201-0.278-0.154-0.459z"></path>
<path fill="rgb(155, 146, 64)" d="M9.239 5.173c0.013-0.035 0.025-0.069 0.036-0.103-0.042 0.058-0.082 0.113-0.118 0.168-0.041 0.062-0.094 0.104-0.116 0.134-0.017 0.023-0.008 0.042-0.008 0.042 0.061-0.003 0.125 0.006 0.199 0.008-0.023-0.080-0.026-0.164 0.006-0.248z"></path>
<path fill="rgb(137, 128, 41)" d="M9.383 5.124c0.049-0.133 0.080-0.262 0.097-0.386-0.060 0.126-0.134 0.233-0.205 0.332-0.011 0.034-0.023 0.068-0.036 0.103-0.032 0.084-0.029 0.168-0.006 0.248 0.042 0.001 0.087 0 0.137-0.007 0.005-0.001 0.011-0.002 0.017-0.003-0.032-0.090-0.039-0.186-0.002-0.287z"></path>
</svg>
