<?xml version="1.0" encoding="utf-8"?>
<!-- Generated by IcoMoon.io -->
<!DOCTYPE svg PUBLIC "-//W3C//DTD SVG 1.1//EN" "http://www.w3.org/Graphics/SVG/1.1/DTD/svg11.dtd">
<svg version="1.1" xmlns="http://www.w3.org/2000/svg" xmlns:xlink="http://www.w3.org/1999/xlink" width="20" height="20" viewBox="0 0 20 20">
<path fill="rgb(219, 208, 161)" d="M0.309 10c0-5.352 4.339-9.691 9.69-9.691s9.691 4.338 9.691 9.691c0 5.352-4.339 9.69-9.691 9.69s-9.69-4.339-9.69-9.69z"></path>
<path fill="rgb(204, 144, 94)" d="M14.452 10.576c0.427 3.584-1.987 5.206-4.438 5.206s-6.049-1.637-4.438-5.206c0.398-0.882 0.541-1.394 0.643-2.271 0.281-2.409 1.21-3.617 3.112-3.617 2.331 0 4.476 2.109 5.045 5.374 0.029 0.168 0.055 0.34 0.075 0.514z"></path>
<path fill="rgb(175, 120, 79)" d="M12.093 11.845c-0.005 0.472 0.292 0.657 0.573 0.631s0.618-0.249 0.445-0.727c-0.173-0.478-0.222-0.754-0.503-0.727s-0.51 0.355-0.515 0.823z"></path>
<path fill="rgb(175, 120, 79)" d="M6.561 13.579c0.193 0.405 0.524 0.439 0.753 0.299s0.424-0.471 0.076-0.807c-0.348-0.335-0.505-0.551-0.734-0.411s-0.287 0.516-0.096 0.918z"></path>
<path fill="rgb(175, 120, 79)" d="M10.111 5.531c-0.425-0.141-0.671 0.019-0.722 0.23s0.061 0.519 0.539 0.533c0.478 0.014 0.74 0.059 0.791-0.151s-0.185-0.472-0.607-0.612z"></path>
<path fill="rgb(175, 120, 79)" d="M6.545 6.773c-0.030 0.505-0.048 1.002-0.021 1.493s0.096 0.975 0.229 1.439c0.133 0.464 0.332 0.906 0.606 1.306 0.272 0.401 0.62 0.754 1.013 1.072-0.467-0.196-0.891-0.512-1.226-0.909s-0.579-0.875-0.721-1.374c-0.144-0.5-0.193-1.022-0.169-1.533 0.025-0.512 0.12-1.017 0.289-1.494z"></path>
<path fill="rgb(175, 120, 79)" d="M14.452 10.576c-0.021-0.174-0.046-0.346-0.075-0.514-0.027-0.154-0.057-0.305-0.091-0.454-0.101-0.172-0.216-0.335-0.344-0.487-0.34-0.404-0.766-0.731-1.241-0.929 0.376 0.349 0.709 0.719 0.971 1.129 0.264 0.408 0.46 0.852 0.589 1.316s0.19 0.947 0.188 1.436c0 0.028-0.001 0.056-0.001 0.084 0.067-0.477 0.073-1.004 0.004-1.582z"></path>
<path fill="rgb(175, 120, 79)" d="M8.187 14.778c0.498 0.114 0.994 0.174 1.487 0.165s0.979-0.082 1.443-0.227c0.464-0.145 0.905-0.361 1.304-0.646 0.401-0.284 0.755-0.637 1.076-1.034-0.199 0.471-0.515 0.899-0.909 1.244s-0.866 0.605-1.369 0.761c-0.503 0.157-1.035 0.212-1.554 0.169s-1.029-0.185-1.478-0.432z"></path>
<path fill="rgb(175, 120, 79)" d="M7.574 7.717c0.291 0.163 0.57 0.302 0.859 0.405 0.287 0.104 0.58 0.176 0.875 0.209s0.594 0.030 0.893-0.016c0.301-0.044 0.599-0.133 0.914-0.245-0.212 0.26-0.505 0.452-0.829 0.57s-0.681 0.155-1.026 0.115c-0.346-0.040-0.68-0.155-0.972-0.332-0.291-0.178-0.547-0.415-0.713-0.706z"></path>
</svg>
