<?xml version="1.0" encoding="utf-8"?>
<!-- Generated by IcoMoon.io -->
<!DOCTYPE svg PUBLIC "-//W3C//DTD SVG 1.1//EN" "http://www.w3.org/Graphics/SVG/1.1/DTD/svg11.dtd">
<svg version="1.1" xmlns="http://www.w3.org/2000/svg" xmlns:xlink="http://www.w3.org/1999/xlink" width="20" height="20" viewBox="0 0 20 20">
<path fill="rgb(250, 188, 61)" d="M19.691 10c0-5.352-4.339-9.691-9.69-9.691s-9.691 4.338-9.691 9.691c0 5.352 4.339 9.69 9.691 9.69s9.69-4.339 9.69-9.69z"></path>
<path fill="rgb(234, 73, 73)" d="M13.41 10c0-1.578-1.531-2.856-3.419-2.856s-3.419 1.279-3.419 2.856c0 1.577 1.531 2.856 3.419 2.856s3.419-1.279 3.419-2.856z"></path>
<path fill="rgb(244, 118, 118)" d="M10.947 7.809c-0.788-0.858-2.54-0.262-3.392 0.666s-0.8 2.22-0.012 3.078c0.788 0.858 4.192-2.885 3.404-3.744z"></path>
<path fill="rgb(234, 73, 73)" d="M17.124 6.907c-1.919 0-3.008 2.276-3.855 2.523-0.169 0.049-0.177 1.181 0.022 1.224 0.943 0.205 1.952 2.438 3.833 2.438 0.125 0 0.538-1.697 0.541-3.264 0.003-1.525-0.401-2.921-0.541-2.921z"></path>
<path fill="rgb(211, 55, 55)" d="M13.708 9.764l3.326-2.384 0.237 1.002z"></path>
<path fill="rgb(211, 55, 55)" d="M13.708 9.971l3.615-1.174-0.013 1.174z"></path>
<path fill="rgb(211, 55, 55)" d="M13.668 10.186l3.51 1.217 0.105-1.060z"></path>
<path fill="rgb(211, 55, 55)" d="M13.631 10.469l3.29 2.316 0.205-1.010z"></path>
<path fill="rgb(234, 73, 73)" d="M2.876 6.907c1.919 0 3.008 2.276 3.855 2.523 0.169 0.049 0.177 1.181-0.022 1.224-0.943 0.205-1.952 2.438-3.833 2.438-0.125 0-0.538-1.697-0.541-3.264-0.003-1.525 0.401-2.921 0.541-2.921z"></path>
<path fill="rgb(211, 55, 55)" d="M6.292 9.764l-3.326-2.384-0.237 1.002z"></path>
<path fill="rgb(211, 55, 55)" d="M6.292 9.971l-3.615-1.174 0.013 1.174z"></path>
<path fill="rgb(211, 55, 55)" d="M6.332 10.186l-3.51 1.217-0.105-1.060z"></path>
<path fill="rgb(211, 55, 55)" d="M6.369 10.469l-3.29 2.316-0.205-1.010z"></path>
</svg>
