<?xml version="1.0" encoding="utf-8"?>
<!-- Generated by IcoMoon.io -->
<!DOCTYPE svg PUBLIC "-//W3C//DTD SVG 1.1//EN" "http://www.w3.org/Graphics/SVG/1.1/DTD/svg11.dtd">
<svg version="1.1" xmlns="http://www.w3.org/2000/svg" xmlns:xlink="http://www.w3.org/1999/xlink" width="20" height="20" viewBox="0 0 20 20">
<path fill="rgb(51, 77, 92)" d="M19.691 10c0-5.352-4.339-9.691-9.69-9.691s-9.691 4.338-9.691 9.691c0 5.352 4.339 9.69 9.691 9.69s9.69-4.339 9.69-9.69z"></path>
<path fill="rgb(255, 253, 254)" d="M13.354 15.84l-3.355 0.898v-10.268l3.355-0.435z"></path>
<path fill="rgb(211, 209, 209)" d="M10.001 5.098l-3.355 0.917 3.354 0.456 3.355-0.435z"></path>
<path fill="rgb(226, 226, 226)" d="M11.671 3.965l-3.355 0.443-1.67 1.607 3.355-0.917z"></path>
<path fill="rgb(211, 209, 209)" d="M9.422 4.707l-2.777 1.308 3.354 0.456 2.275-0.969z"></path>
<path fill="rgb(226, 226, 226)" d="M6.646 15.827l3.354 0.911v-10.268l-3.354-0.456z"></path>
<path fill="rgb(123, 210, 247)" d="M13.354 15.841l-3.355 0.898v-5.424l3.355-0.898z"></path>
<path fill="rgb(116, 190, 219)" d="M6.646 15.841l3.355 0.898v-5.424l-3.355-0.898z"></path>
<path fill="rgb(123, 210, 247)" d="M13.216 8.692c-0.323 0.092-0.414 0.368-0.751 0.471s-0.502-0.112-0.795-0.049c-0.516 0.111-0.492 0.395-0.816 0.478-0.316 0.080-0.482-0.133-0.855-0.065v2.498l3.355-0.898v-2.454c-0.043-0-0.089 0.005-0.139 0.019z"></path>
<path fill="rgb(114, 190, 219)" d="M9.43 9.592c-0.324-0.082-0.526-0.405-0.816-0.478s-0.459 0.152-0.795 0.049c-0.336-0.103-0.427-0.379-0.751-0.471-0.169-0.048-0.289 0.003-0.423 0.043v2.315l3.354 0.898v-2.424c-0.199 0.034-0.347 0.124-0.57 0.068z"></path>
<path fill="rgb(255, 253, 254)" d="M11.671 3.965l-3.355 0.443 1.684 2.063 3.355-0.435z"></path>
<path fill="rgb(234, 234, 234)" d="M11.67 3.965l-3.355 0.442v-0.442c0-0.187 0.152-0.377 0.339-0.423l2.676-0.271c0.187-0.046 0.339 0.068 0.339 0.255v0.439z"></path>
<path fill="rgb(36, 160, 160)" d="M11.677 5.521c-0.081 0.223-0.522 0.266-0.984 0.098s-0.772-0.485-0.691-0.707c0.081-0.223 0.522-0.266 0.984-0.098s0.772 0.485 0.691 0.707z"></path>
<path fill="rgb(37, 176, 183)" d="M11.196 4.302c-0.421-0.153-0.822-0.113-0.896 0.089-0.030 0.083-0.149 0.358-0.181 0.446-0.074 0.202 0.208 0.491 0.629 0.644s0.822 0.113 0.896-0.089c0.030-0.083 0.149-0.358 0.181-0.446 0.074-0.202-0.208-0.491-0.629-0.644z"></path>
<path fill="rgb(42, 198, 198)" d="M11.825 4.946c-0.074 0.202-0.475 0.242-0.896 0.089s-0.703-0.441-0.629-0.644c0.074-0.202 0.475-0.242 0.896-0.089s0.703 0.441 0.629 0.644z"></path>
<path fill="rgb(255, 253, 254)" d="M10.986 11.386h-0.41c0 0 0.112-0.282 0.112-1.027s-0.376-0.827-0.376-0.827l0.845-0.137c0 0-0.28 0.283-0.28 0.957 0 0.553 0.109 1.034 0.109 1.034z"></path>
<path fill="rgb(255, 253, 254)" d="M11.003 11.568c0 0.234-0.099 0.373-0.221 0.373s-0.221-0.139-0.221-0.373c0-0.234 0.099-0.552 0.221-0.552s0.221 0.318 0.221 0.552z"></path>
</svg>
