<?xml version="1.0" encoding="utf-8"?>
<!-- Generated by IcoMoon.io -->
<!DOCTYPE svg PUBLIC "-//W3C//DTD SVG 1.1//EN" "http://www.w3.org/Graphics/SVG/1.1/DTD/svg11.dtd">
<svg version="1.1" xmlns="http://www.w3.org/2000/svg" xmlns:xlink="http://www.w3.org/1999/xlink" width="20" height="20" viewBox="0 0 20 20">
<path fill="rgb(243, 228, 206)" d="M0.309 10c0-5.352 4.339-9.691 9.691-9.691s9.69 4.338 9.69 9.691c0 5.352-4.339 9.691-9.69 9.691s-9.691-4.339-9.691-9.691z"></path>
<path fill="rgb(125, 55, 25)" d="M10.583 4.249c0 0 0.183-1.096-0.079-1.801s0.366 0.078 0.366 0.078l0.013 1.746-0.3-0.024z"></path>
<path fill="rgb(153, 185, 60)" d="M12.862 10.033c1.794 2.723 0.846 5.922-1.351 6.628-1.182 0.38-2.364 0.211-3.039 0.084-2.543-0.477-3.715-4.053-1.013-7.219 0.662-0.776 0.676-5.465 2.997-5.403 0.095 0.002 0.185 0.089 0.272 0.099s0.169-0.059 0.247-0.043c2.417 0.495 0.715 4.075 1.888 5.854z"></path>
<path fill="rgb(177, 198, 53)" d="M12.573 10.521c1.621 2.461 0.764 5.352-1.221 5.99-1.068 0.343-2.136 0.19-2.747 0.076-2.298-0.431-3.357-3.663-0.915-6.524 0.598-0.701 0.611-5.699 2.708-5.643 2.861 0.076 1.047 4.389 2.175 6.101z"></path>
<path fill="rgb(179, 187, 53)" d="M12.778 13.748c0 0.559-0.34 1.013-0.76 1.013s-1.267-0.454-1.267-1.013c0-0.56 0.847-1.267 1.267-1.267s0.76 0.707 0.76 1.267z"></path>
<path fill="rgb(179, 187, 53)" d="M9.105 11.172c0 0.559-0.34 1.013-0.76 1.013s-0.549-0.454-0.549-1.013c0-0.56 0.847-1.267 1.267-1.267s0.042 0.707 0.042 1.267z"></path>
<path fill="rgb(179, 187, 53)" d="M11.693 6.576c0.154 0.538-0.048 1.068-0.451 1.183s-0.294-0.397-0.448-0.935c-0.154-0.538-0.401-1.086 0.003-1.201s0.742 0.415 0.897 0.953z"></path>
</svg>
