<?xml version="1.0" encoding="utf-8"?>
<!-- Generated by IcoMoon.io -->
<!DOCTYPE svg PUBLIC "-//W3C//DTD SVG 1.1//EN" "http://www.w3.org/Graphics/SVG/1.1/DTD/svg11.dtd">
<svg version="1.1" xmlns="http://www.w3.org/2000/svg" xmlns:xlink="http://www.w3.org/1999/xlink" width="20" height="20" viewBox="0 0 20 20">
<path fill="rgb(74, 188, 150)" d="M19.691 10c0-5.352-4.339-9.691-9.69-9.691s-9.691 4.338-9.691 9.691c0 5.352 4.339 9.69 9.691 9.69s9.69-4.339 9.69-9.69z"></path>
<path fill="rgb(88, 132, 31)" d="M14.065 10c0-2.245-1.82-4.065-4.065-4.065s-4.065 1.82-4.065 4.065c0 2.245 1.82 4.065 4.065 4.065s4.065-1.82 4.065-4.065z"></path>
<path fill="rgb(205, 229, 128)" d="M13.753 10c0-2.073-1.68-3.753-3.752-3.753s-3.753 1.68-3.753 3.753c0 2.072 1.68 3.752 3.753 3.752s3.752-1.68 3.752-3.752z"></path>
<path fill="rgb(214, 232, 139)" d="M13.18 10c0-1.756-1.424-3.18-3.18-3.18s-3.18 1.423-3.18 3.18c0 1.756 1.424 3.179 3.18 3.179s3.18-1.424 3.18-3.179z"></path>
<path fill="rgb(184, 201, 115)" d="M11.953 9.21c-0.008-0.020-0.024-0.036-0.044-0.043s-0.043-0.005-0.062 0.007l-1.26 0.77c-0.021 0.013-0.035 0.036-0.035 0.062s0.013 0.049 0.034 0.062l1.254 0.786c0.012 0.007 0.025 0.011 0.039 0.011 0.008 0 0.016-0.001 0.023-0.004 0.021-0.007 0.037-0.023 0.045-0.043 0.197-0.517 0.199-1.088 0.006-1.607z"></path>
<path fill="rgb(184, 201, 115)" d="M11.684 11.087l-1.322-0.669c-0.023-0.011-0.049-0.010-0.071 0.003s-0.035 0.037-0.035 0.062l0.004 1.496c0 0.022 0.010 0.042 0.027 0.056 0.009 0.007 0.019 0.012 0.030 0.015s0.020 0.002 0.030 0c0.543-0.11 1.026-0.413 1.361-0.854 0.013-0.017 0.018-0.039 0.013-0.060s-0.019-0.039-0.038-0.048z"></path>
<path fill="rgb(184, 201, 115)" d="M10.348 9.609c0.006-0.001 0.011-0.003 0.016-0.006l1.326-0.689c0.019-0.010 0.033-0.028 0.037-0.049s-0-0.043-0.014-0.060c-0.34-0.437-0.826-0.736-1.369-0.84-0.021-0.004-0.043 0.002-0.060 0.015s-0.026 0.034-0.026 0.056l0 1.502c-0 0.025 0.013 0.049 0.035 0.062 0.017 0.010 0.036 0.013 0.055 0.008z"></path>
<path fill="rgb(184, 201, 115)" d="M8.226 9.21c0.008-0.020 0.024-0.036 0.044-0.043s0.043-0.005 0.062 0.007l1.26 0.77c0.021 0.013 0.035 0.036 0.035 0.062s-0.013 0.049-0.034 0.062l-1.254 0.786c-0.012 0.007-0.025 0.011-0.039 0.011-0.008 0-0.016-0.001-0.023-0.004-0.021-0.007-0.037-0.023-0.045-0.043-0.197-0.517-0.199-1.088-0.006-1.607z"></path>
<path fill="rgb(184, 201, 115)" d="M8.496 11.087l1.322-0.669c0.023-0.011 0.049-0.010 0.071 0.003s0.035 0.037 0.035 0.062l-0.004 1.496c-0 0.022-0.010 0.042-0.027 0.056-0.009 0.007-0.019 0.012-0.030 0.015s-0.020 0.002-0.030 0c-0.543-0.11-1.026-0.413-1.361-0.854-0.013-0.017-0.018-0.039-0.013-0.060s0.019-0.039 0.038-0.048z"></path>
<path fill="rgb(184, 201, 115)" d="M9.832 9.609c-0.006-0.001-0.011-0.003-0.016-0.006l-1.326-0.689c-0.019-0.010-0.033-0.028-0.037-0.049s0-0.043 0.014-0.060c0.34-0.437 0.826-0.736 1.369-0.84 0.021-0.004 0.043 0.002 0.060 0.015s0.026 0.034 0.026 0.056l-0 1.502c0 0.025-0.013 0.049-0.035 0.062-0.017 0.010-0.036 0.013-0.055 0.008z"></path>
</svg>
