<?xml version="1.0" encoding="utf-8"?>
<!-- Generated by IcoMoon.io -->
<!DOCTYPE svg PUBLIC "-//W3C//DTD SVG 1.1//EN" "http://www.w3.org/Graphics/SVG/1.1/DTD/svg11.dtd">
<svg version="1.1" xmlns="http://www.w3.org/2000/svg" xmlns:xlink="http://www.w3.org/1999/xlink" width="20" height="20" viewBox="0 0 20 20">
<path fill="rgb(51, 77, 92)" d="M0.309 10c0-5.352 4.339-9.691 9.691-9.691s9.69 4.338 9.69 9.691c0 5.352-4.339 9.69-9.69 9.69s-9.691-4.339-9.691-9.69z"></path>
<path fill="rgba(187, 158, 112, 0.800000011920929)" d="M11.532 6.057c-1.292-1.308-1.14-2.234-1.14-2.234-0.602 0.872-0.162 1.49 0.31 2.051 1.95 2.315-0.021 3.575-0.021 3.575l0.012 0.030c0.823-0.328 1.316-0.726 1.501-1.219 0.272-0.725 0.111-1.419-0.662-2.202z"></path>
<path fill="rgba(187, 158, 112, 0.800000011920929)" d="M9.91 9.605c1.021-1.659 0.277-2.531-0.68-3.595-1.4-1.555 1.191-2.978 1.191-2.978s-2.456 0.124-2.276 2.425c0.085 1.085 1.127 1.191 1.553 2.276 0.378 0.964 0.213 1.872 0.213 1.872z"></path>
<path fill="rgba(187, 158, 112, 0.800000011920929)" d="M9.084 9.31c0.288-1.486-0.492-1.915-1.48-2.426-1.443-0.747 0.050-2.49 0.050-2.49s-1.751 0.763-0.989 2.386c0.359 0.765 1.146 0.557 1.752 1.229 0.539 0.597 0.667 1.302 0.667 1.302z"></path>
<path fill="rgb(255, 255, 255)" d="M14.499 11.809c0-0.638-0.316-1.191-0.86-1.463 0-0.066-0-0.13-0-0.191h-7.277c0 1.523-0.13 4.849 3.638 4.849 1.707 0 2.614-0.682 3.096-1.57 0.872-0.114 1.403-0.797 1.403-1.625zM13.31 12.953c0.254-0.696 0.312-1.457 0.325-2.096 0.257 0.225 0.394 0.568 0.394 0.951 0 0.522-0.253 0.966-0.719 1.144z"></path>
<path fill="rgb(237, 237, 237)" d="M14.929 14.589c0 0.78-3.13 1.015-4.968 1.015-1.487 0-4.89-0.313-4.89-1.015h9.858z"></path>
</svg>
