<?xml version="1.0" encoding="utf-8"?>
<!-- Generated by IcoMoon.io -->
<!DOCTYPE svg PUBLIC "-//W3C//DTD SVG 1.1//EN" "http://www.w3.org/Graphics/SVG/1.1/DTD/svg11.dtd">
<svg version="1.1" xmlns="http://www.w3.org/2000/svg" xmlns:xlink="http://www.w3.org/1999/xlink" width="20" height="20" viewBox="0 0 20 20">
<path fill="rgb(50, 190, 166)" d="M19.691 10c0-5.352-4.339-9.691-9.69-9.691s-9.691 4.338-9.691 9.691c0 5.352 4.339 9.69 9.691 9.69s9.69-4.339 9.69-9.69z"></path>
<path fill="rgb(248, 224, 123)" d="M15.664 11.861c0-1.021 0-4.232 0-5.253v0l-11.328-0c0 0 0 2.727 0 5.279 0 0 7.643 2.757 7.647 2.755 2.262-0.689 3.681-1.68 3.681-2.782z"></path>
<path fill="rgb(227, 170, 36)" d="M15.664 11.861c0-1.021 0-4.232 0-5.253v0l-3.691 2.781c0 0 0.005 5.255 0.009 5.254 2.262-0.689 3.681-1.68 3.681-2.782z"></path>
<path fill="rgb(240, 177, 34)" d="M4.336 6.608l7.649 2.781c2.261-0.689 3.679-1.68 3.679-2.781v0l-11.328-0z"></path>
<path fill="rgb(231, 207, 101)" d="M6.216 10.314c0.374 0.374 0.425 0.927 0.116 1.237s-0.863 0.258-1.237-0.116c-0.374-0.374-0.425-0.927-0.116-1.237s0.863-0.258 1.237 0.116z"></path>
<path fill="rgb(248, 224, 123)" d="M6.426 10.386c0.308 0.308 0.35 0.763 0.095 1.018s-0.711 0.212-1.018-0.095c-0.308-0.308-0.35-0.763-0.095-1.018s0.711-0.212 1.018 0.095z"></path>
<path fill="rgb(231, 207, 101)" d="M7.538 8.881c0.189 0.189 0.215 0.468 0.059 0.625s-0.436 0.13-0.625-0.059c-0.189-0.189-0.215-0.468-0.059-0.625s0.436-0.13 0.624 0.059z"></path>
<path fill="rgb(248, 224, 123)" d="M7.643 8.917c0.155 0.155 0.177 0.386 0.048 0.514s-0.359 0.107-0.514-0.048c-0.155-0.155-0.177-0.386-0.048-0.514s0.359-0.107 0.514 0.048z"></path>
<path fill="rgb(231, 207, 101)" d="M10.453 9.952c0.493 0.494 0.562 1.225 0.153 1.634s-1.14 0.34-1.634-0.153c-0.493-0.493-0.562-1.225-0.153-1.634s1.14-0.34 1.634 0.153z"></path>
<path fill="rgb(248, 224, 123)" d="M10.726 9.82c0.436 0.436 0.463 1.116 0.061 1.519s-1.083 0.376-1.519-0.061c-0.436-0.436-0.464-1.117-0.061-1.519s1.083-0.376 1.519 0.061z"></path>
</svg>
