<?xml version="1.0" encoding="utf-8"?>
<!-- Generated by IcoMoon.io -->
<!DOCTYPE svg PUBLIC "-//W3C//DTD SVG 1.1//EN" "http://www.w3.org/Graphics/SVG/1.1/DTD/svg11.dtd">
<svg version="1.1" xmlns="http://www.w3.org/2000/svg" xmlns:xlink="http://www.w3.org/1999/xlink" width="20" height="20" viewBox="0 0 20 20">
<path fill="rgb(58, 58, 56)" d="M19.691 10c0-5.352-4.339-9.691-9.69-9.691s-9.691 4.338-9.691 9.691c0 5.352 4.339 9.69 9.691 9.69s9.69-4.339 9.69-9.69z"></path>
<path fill="rgb(155, 158, 25)" d="M13.961 8.024c-0.085-0.015-0.168-0.022-0.25-0.024 0.381-0.163 0.634-0.475 0.617-0.821-0.023-0.489-0.571-0.86-1.224-0.829s-1.165 0.451-1.142 0.94c0 0 0 0.001 0 0.001-0.067-0.010-0.136-0.015-0.207-0.012-0.111 0.005-0.217 0.029-0.315 0.066 0.021-0.059 0.038-0.12 0.049-0.184 0.086-0.518-0.235-1.003-0.717-1.084s-0.944 0.274-1.030 0.792c-0.003 0.018-0.004 0.036-0.006 0.054 0.013-0.472-0.47-0.891-1.103-0.944-0.65-0.054-1.21 0.297-1.251 0.784-0.026 0.315 0.171 0.609 0.488 0.793 0 0 0 0 0 0.001 0 0.002 0 0.004 0 0.006-0.137-0.056-0.289-0.094-0.451-0.107-0.65-0.054-1.21 0.297-1.251 0.784-0.027 0.321 0.179 0.621 0.509 0.804-0.036-0.006-0.073-0.010-0.111-0.014-0.65-0.054-1.21 0.297-1.251 0.784-0.027 0.318 0.176 0.616 0.5 0.799-0.023-0.003-0.046-0.007-0.069-0.008-0.65-0.054-1.21 0.297-1.251 0.784-0.029 0.343 0.207 0.661 0.575 0.839-0.183 0.042-0.37 0.124-0.542 0.249-0.528 0.384-0.722 1.015-0.434 1.411s0.948 0.406 1.476 0.022c0.135-0.098 0.248-0.213 0.337-0.336 0.077 0.020 0.158 0.034 0.241 0.042 0.163 0.015 0.32 0.005 0.465-0.027 0.103 0.636 0.57 1.090 1.049 1.018 0.484-0.073 0.797-0.655 0.699-1.3-0.004-0.023-0.009-0.046-0.013-0.068 0.205 0.311 0.515 0.493 0.831 0.446 0.484-0.073 0.797-0.655 0.699-1.3-0.006-0.037-0.013-0.074-0.021-0.11 0.204 0.317 0.517 0.503 0.836 0.454 0.451-0.068 0.753-0.579 0.713-1.17 0.257 0.060 0.508 0.021 0.695-0.132 0.153-0.126 0.238-0.309 0.259-0.516 0.326 0.254 0.719 0.325 1.014 0.145 0.374-0.229 0.462-0.783 0.23-1.297 0.016 0.003 0.032 0.008 0.049 0.011 0.644 0.113 1.235-0.185 1.32-0.667s-0.369-0.964-1.013-1.078z"></path>
<path fill="rgb(142, 121, 19)" d="M12.987 8.579c-0.117 0-0.227-0.070-0.274-0.185-0.061-0.151 0.012-0.323 0.163-0.384 0.094-0.038 2.314-0.931 3.85-1.282 0.159-0.036 0.317 0.063 0.354 0.222s-0.063 0.317-0.222 0.354c-1.491 0.341-3.738 1.245-3.761 1.254-0.036 0.015-0.074 0.022-0.11 0.022z"></path>
<path fill="rgb(155, 158, 21)" d="M14.974 9.102c-0.085 0.482-0.676 0.78-1.32 0.667s-1.098-0.596-1.013-1.078c0.085-0.482 0.676-0.78 1.32-0.667s1.098 0.596 1.013 1.078z"></path>
<path fill="rgb(179, 183, 37)" d="M10.796 6.78c-0.031-0.437 0.4-0.823 0.961-0.862s1.042 0.282 1.072 0.719c0.031 0.437-0.4 0.823-0.961 0.862s-1.042-0.283-1.072-0.719z"></path>
<path fill="rgb(179, 183, 37)" d="M13.375 11.056c-0.418 0.255-1.032 0.009-1.373-0.549s-0.279-1.218 0.139-1.472c0.418-0.255 1.032-0.009 1.373 0.549s0.279 1.217-0.139 1.472z"></path>
<path fill="rgb(179, 183, 37)" d="M10.676 6.743c-0.040 0.472-0.578 0.813-1.203 0.76s-1.1-0.478-1.060-0.95c0.040-0.472 0.578-0.813 1.203-0.76s1.1 0.478 1.060 0.95z"></path>
<path fill="rgb(166, 177, 23)" d="M10.601 9.603c-0.378 0.311-0.349 0.971 0.065 1.475s1.056 0.661 1.434 0.35c0.378-0.31 0.349-0.971-0.065-1.475s-1.056-0.661-1.434-0.35z"></path>
<path fill="rgb(166, 177, 23)" d="M9.377 9.168c-0.483-0.081-0.804-0.566-0.717-1.084s0.548-0.873 1.030-0.792 0.804 0.566 0.717 1.084c-0.087 0.518-0.548 0.873-1.030 0.792z"></path>
<path fill="rgb(155, 158, 21)" d="M8.521 8.438c-0.041 0.488-0.601 0.839-1.251 0.784s-1.144-0.494-1.103-0.981c0.041-0.488 0.601-0.839 1.251-0.784s1.144 0.494 1.103 0.981z"></path>
<path fill="rgb(179, 183, 37)" d="M10.34 10.393c0.484-0.073 0.955 0.39 1.052 1.035s-0.216 1.227-0.699 1.3c-0.484 0.073-0.955-0.39-1.052-1.035s0.216-1.227 0.699-1.3z"></path>
<path fill="rgb(166, 177, 23)" d="M6.905 9.45c-0.121-0.368 0.172-0.795 0.655-0.954s0.973 0.010 1.094 0.378c0.121 0.368-0.172 0.795-0.655 0.954s-0.973-0.010-1.094-0.378z"></path>
<path fill="rgb(166, 177, 23)" d="M8.825 11.35c-0.484 0.073-0.797 0.655-0.699 1.3s0.569 1.109 1.052 1.035c0.484-0.073 0.797-0.655 0.699-1.3s-0.569-1.109-1.052-1.035z"></path>
<path fill="rgb(179, 183, 37)" d="M7.308 12.272c-0.484 0.073-0.797 0.655-0.699 1.3s0.569 1.108 1.052 1.035c0.484-0.073 0.797-0.655 0.699-1.3s-0.569-1.109-1.052-1.035z"></path>
<path fill="rgb(179, 183, 37)" d="M6.004 12.5c0.288 0.396 0.093 1.027-0.434 1.411s-1.189 0.374-1.476-0.022c-0.288-0.396-0.093-1.027 0.434-1.411s1.189-0.374 1.476 0.022z"></path>
<path fill="rgb(179, 183, 37)" d="M14.368 7.883c0.023 0.489-0.488 0.91-1.142 0.94s-1.202-0.341-1.225-0.829c-0.023-0.489 0.488-0.91 1.142-0.94s1.202 0.341 1.224 0.829z"></path>
<path fill="rgb(166, 177, 23)" d="M12.747 8.12c0.023 0.489-0.384 0.905-0.909 0.929s-0.969-0.352-0.991-0.84c-0.023-0.489 0.384-0.905 0.909-0.929s0.968 0.352 0.991 0.84z"></path>
<path fill="rgb(179, 183, 37)" d="M9.682 9.732c-0.34-0.351-0.26-0.981 0.179-1.407s1.071-0.486 1.412-0.134c0.34 0.351 0.26 0.981-0.179 1.407s-1.071 0.486-1.412 0.134z"></path>
<path fill="rgb(155, 158, 21)" d="M8.437 10.828c-0.321-0.391-0.193-1.026 0.286-1.418s1.126-0.394 1.447-0.004c0.321 0.391 0.193 1.026-0.286 1.418s-1.126 0.394-1.446 0.004z"></path>
<path fill="rgb(166, 177, 23)" d="M6.896 12.444c-0.369-0.321-0.32-0.981 0.108-1.472s1.075-0.63 1.444-0.308c0.369 0.321 0.32 0.981-0.109 1.472s-1.075 0.629-1.444 0.308z"></path>
<path fill="rgb(179, 183, 37)" d="M7.865 10.472c-0.041 0.487-0.601 0.838-1.251 0.784s-1.144-0.494-1.103-0.981c0.041-0.487 0.601-0.838 1.251-0.784s1.144 0.494 1.103 0.981z"></path>
<path fill="rgb(166, 177, 23)" d="M7.63 11.080c0.060 0.485-0.415 0.944-1.063 1.025s-1.221-0.248-1.281-0.733c-0.060-0.485 0.415-0.944 1.063-1.025s1.221 0.248 1.281 0.733z"></path>
<path fill="rgb(155, 158, 21)" d="M7.29 12.216c0.215 0.439-0.086 1.028-0.672 1.315s-1.235 0.162-1.45-0.277c-0.215-0.439 0.086-1.028 0.672-1.315s1.235-0.162 1.45 0.277z"></path>
</svg>
