<?xml version="1.0" encoding="utf-8"?>
<!-- Generated by IcoMoon.io -->
<!DOCTYPE svg PUBLIC "-//W3C//DTD SVG 1.1//EN" "http://www.w3.org/Graphics/SVG/1.1/DTD/svg11.dtd">
<svg version="1.1" xmlns="http://www.w3.org/2000/svg" xmlns:xlink="http://www.w3.org/1999/xlink" width="20" height="20" viewBox="0 0 20 20">
<path fill="rgb(250, 188, 61)" d="M19.691 10c0-5.352-4.339-9.691-9.69-9.691s-9.691 4.338-9.691 9.691c0 5.352 4.339 9.69 9.691 9.69s9.69-4.339 9.69-9.69z"></path>
<path fill="rgb(193, 0, 0)" d="M6.62 6.675c0.182-1.2 0.949-1.421 1.832-1.286s1.55 0.572 1.368 1.772c-0.128 0.845-0.949 1.421-1.832 1.286s-1.496-0.928-1.368-1.772z"></path>
<path fill="rgb(255, 197, 197)" d="M6.794 7.105c-0.172-0.715 0.171-1.41 0.766-1.553s-0.698 1.836-0.766 1.553z"></path>
<path fill="rgb(153, 0, 0)" d="M8.021 5.789c0.013-0.087 0.186-0.132 0.386-0.102s0.351 0.125 0.338 0.212c-0.013 0.087-0.186 0.132-0.386 0.102s-0.351-0.125-0.338-0.212z"></path>
<path fill="rgb(65, 137, 18)" d="M8.226 5.968c0 0 0.626-3.109 2.736-3.268l0.067 0.059c0 0-2.001 0.093-2.633 3.24l-0.17-0.032z"></path>
<path fill="rgb(117, 111, 106)" d="M1.783 12.583h16.433c0-0.482-3.679-0.9-8.217-0.9s-8.216 0.418-8.216 0.9z"></path>
<path fill="rgb(117, 79, 45)" d="M16.241 12.309c0 0.306-0.248 0.553-0.553 0.553h-11.668c-0.306 0-0.553-0.248-0.553-0.553v-4.381c0-0.306 0.248-0.553 0.553-0.553h11.668c0.306 0 0.553 0.248 0.553 0.553v4.381z"></path>
<path fill="rgb(76, 49, 27)" d="M16.241 7.927c0-0.306-0.248-0.553-0.553-0.553h-11.668c-0.306 0-0.553 0.248-0.553 0.553v1.337h0.48v0.207c0 0.088 0.082 0.16 0.183 0.16 0.086 0 0.157-0.052 0.177-0.122v-0.219c0-0.127 0.117-0.229 0.262-0.229s0.262 0.103 0.262 0.229v0.639c0.017 0.11 0.124 0.196 0.255 0.196 0.137 0 0.247-0.093 0.257-0.211v-0.618c0-0.005 0.001-0.011 0.002-0.016v-0.017h0.002c0.018-0.111 0.126-0.197 0.258-0.197s0.24 0.086 0.258 0.197h0v0.002c0.002 0.010 0.004 0.020 0.004 0.031v1.155c0.022 0.138 0.157 0.244 0.321 0.244 0.179 0 0.324-0.127 0.324-0.284v-1.148h0.004c0.017-0.074 0.091-0.13 0.181-0.13s0.164 0.056 0.181 0.13h0.005v1.111c0 0.166 0.154 0.301 0.343 0.301s0.343-0.135 0.343-0.301v-1.111h0.001c0.002-0.059 0.056-0.106 0.124-0.106s0.123 0.048 0.124 0.107l0.004 0.002v0.58c0 0.156 0.145 0.283 0.323 0.283 0.16 0 0.292-0.101 0.318-0.235v-0.419c0-0.092 0.085-0.167 0.191-0.167s0.191 0.075 0.191 0.167v0.907c0 0.008-0.001 0.015-0.002 0.022v0.214c0 0.139 0.128 0.251 0.287 0.251 0.138 0 0.254-0.086 0.281-0.2v-0.591c0-0.178 0.164-0.322 0.367-0.322s0.367 0.144 0.367 0.322v1.132c0.005 0.193 0.186 0.349 0.408 0.349 0.225 0 0.408-0.16 0.408-0.357v-0.295c-0-0.003-0.001-0.006-0.001-0.008v-0.682c0-0.069 0.064-0.126 0.144-0.126s0.144 0.056 0.144 0.126v0.16l0.003-0.001v0.28c0 0.15 0.139 0.272 0.311 0.272s0.311-0.122 0.311-0.272v-0.533l0.001-0v-0.145c0-0.075 0.069-0.135 0.154-0.135s0.154 0.061 0.154 0.135v0.47c0.003 0.109 0.104 0.196 0.228 0.196 0.126 0 0.229-0.090 0.229-0.201v-0.633l0.003-0.001v-0.215c0-0.111 0.103-0.201 0.23-0.201s0.23 0.090 0.23 0.201v0.146c0.007 0.054 0.059 0.097 0.122 0.097 0.065 0 0.118-0.044 0.123-0.1v-0.384c0-0.124 0.115-0.225 0.257-0.225 0.127 0 0.232 0.081 0.252 0.187l0.003-0.001v0.027c0 0.004 0.001 0.008 0.001 0.012v0.386c0.007 0.072 0.075 0.129 0.16 0.129 0.089 0 0.161-0.063 0.161-0.141v-0.465h0.003v-0.023c0-0.061 0.057-0.111 0.126-0.111s0.126 0.050 0.126 0.111v0.601c0 0.004-0.001 0.008-0.001 0.012v0.112c0 0.087 0.081 0.158 0.181 0.158s0.181-0.071 0.181-0.158v-0.703h0.001v-0.055c0-0.044 0.040-0.079 0.090-0.079s0.090 0.035 0.090 0.079v0.055h0.003v1.133c0 0.124 0.115 0.225 0.257 0.225 0.133 0 0.241-0.089 0.254-0.202v-1.199c0-0.182 0.168-0.329 0.376-0.329s0.376 0.147 0.376 0.329v0.043h0.002v-1.337z"></path>
<path fill="rgb(122, 112, 101)" d="M4.523 13.584c0 0.491 10.953 0.491 10.953 0s-2.452-0.889-5.477-0.889c-3.025 0-5.477 0.398-5.477 0.889z"></path>
<path fill="rgb(142, 131, 118)" d="M18.217 12.562h-16.433c0 0.482 3.679 0.9 8.217 0.9s8.216-0.418 8.216-0.9z"></path>
<path fill="rgb(193, 0, 0)" d="M10.869 8.655c-0.752-0.953-0.389-1.663 0.312-2.217s1.477-0.741 2.229 0.212c0.529 0.671 0.389 1.663-0.313 2.217s-1.699 0.459-2.229-0.212z"></path>
<path fill="rgb(255, 197, 197)" d="M13.406 6.863c0.376 0.631 0.255 1.397-0.27 1.711s0.121-1.961 0.27-1.711z"></path>
<path fill="rgb(153, 0, 0)" d="M11.179 7.026c-0.054-0.069 0.030-0.226 0.189-0.351s0.331-0.171 0.386-0.102c0.054 0.069-0.030 0.226-0.189 0.351s-0.331 0.171-0.386 0.102z"></path>
<path fill="rgb(65, 137, 18)" d="M11.45 7c0 0-1.744-2.187-0.59-4.229l0.168-0.010c0 0-1.176 1.736 0.561 4.137l-0.139 0.102z"></path>
</svg>
