<?xml version="1.0" encoding="utf-8"?>
<!-- Generated by IcoMoon.io -->
<!DOCTYPE svg PUBLIC "-//W3C//DTD SVG 1.1//EN" "http://www.w3.org/Graphics/SVG/1.1/DTD/svg11.dtd">
<svg version="1.1" xmlns="http://www.w3.org/2000/svg" xmlns:xlink="http://www.w3.org/1999/xlink" width="20" height="20" viewBox="0 0 20 20">
<path fill="rgb(231, 158, 47)" d="M19.691 10c0-5.352-4.339-9.691-9.69-9.691s-9.691 4.338-9.691 9.691c0 5.352 4.339 9.69 9.691 9.69s9.69-4.339 9.69-9.69z"></path>
<path fill="rgb(113, 140, 48)" d="M10.258 5.155c-0.010-0.005-0.1-0.049-0.258-0.049s-0.248 0.044-0.258 0.049c-0.038 0.020-0.056 0.064-0.043 0.105l0.117 0.357 0.026 3.612c0 0.048 0.034 0.087 0.075 0.087h0.166c0.041 0 0.075-0.039 0.075-0.087l0.026-3.612 0.117-0.357c0.014-0.041-0.005-0.085-0.043-0.105z"></path>
<path fill="rgb(113, 140, 48)" d="M13.558 5.473l-1.717 0.474-1.664 0.689-0.001 0.044-0.167 0.025c-0.078-0.358 1.502-1.464 2.024-1.578s1.525 0.345 1.525 0.345z"></path>
<path fill="rgb(113, 140, 48)" d="M6.568 5.473l1.717 0.474 1.664 0.689 0.001 0.044 0.167 0.025c0.078-0.358-1.502-1.464-2.023-1.578s-1.525 0.345-1.525 0.345z"></path>
<path fill="rgb(201, 69, 28)" d="M11.718 6.401c-0.876 0-1.473 0.303-1.718 0.304-0.245-0.001-0.842-0.304-1.718-0.304-2.205 0-3.945 1.244-3.945 3.593 0 2.124 1.473 4.9 3.865 4.9 1.531 0 1.779-0.183 1.798-0.246 0.019 0.063 0.268 0.246 1.798 0.246 2.392 0 3.865-2.776 3.865-4.9-0-2.349-1.74-3.593-3.945-3.593z"></path>
<path fill="rgb(211, 89, 55)" d="M10 7.086c-0.222-0.001-0.761-0.275-1.552-0.275-1.992 0-3.564 1.124-3.564 3.246-0 1.919 5.338-2.972 5.116-2.971z"></path>
</svg>
