<?xml version="1.0" encoding="utf-8"?>
<!-- Generated by IcoMoon.io -->
<!DOCTYPE svg PUBLIC "-//W3C//DTD SVG 1.1//EN" "http://www.w3.org/Graphics/SVG/1.1/DTD/svg11.dtd">
<svg version="1.1" xmlns="http://www.w3.org/2000/svg" xmlns:xlink="http://www.w3.org/1999/xlink" width="20" height="20" viewBox="0 0 20 20">
<path fill="rgb(250, 188, 61)" d="M19.691 10c0-5.352-4.339-9.691-9.69-9.691s-9.691 4.338-9.691 9.691c0 5.352 4.339 9.69 9.691 9.69s9.69-4.339 9.69-9.69z"></path>
<path fill="rgb(191, 113, 0)" d="M6.626 9.473c-0.058 0-0.112-0.037-0.13-0.096-0.047-0.148-1.145-3.638-1.060-4.431 0.127-1.187 1.655-1.401 1.72-1.41 0.075-0.010 0.144 0.043 0.153 0.118s-0.043 0.143-0.118 0.153v0c-0.014 0.002-1.379 0.195-1.484 1.168-0.066 0.611 0.735 3.325 1.049 4.319 0.023 0.072-0.017 0.149-0.089 0.172-0.014 0.004-0.028 0.006-0.041 0.006z"></path>
<path fill="rgb(191, 113, 0)" d="M13.406 9.473c0.058 0 0.112-0.037 0.13-0.096 0.047-0.148 1.145-3.638 1.060-4.431-0.127-1.187-1.655-1.401-1.72-1.41-0.075-0.010-0.144 0.043-0.153 0.118s0.043 0.143 0.118 0.153v0c0.014 0.002 1.379 0.195 1.484 1.168 0.066 0.611-0.735 3.325-1.049 4.319-0.023 0.072 0.017 0.149 0.089 0.172 0.014 0.004 0.028 0.006 0.041 0.006z"></path>
<path fill="rgb(219, 66, 66)" d="M6.013 13.076c0 0-1.375 0.155-2.074-3.615-0.15-0.811-0.358-1.367-1.129-2.079l1.127-0.007c0 0 2.135 2.551 3.085 1.542l-1.008 4.16z"></path>
<path fill="rgb(193, 41, 41)" d="M3.941 7.381c0 0.052-0.253 0.163-0.565 0.163s-0.565-0.111-0.565-0.163 0.253-0.163 0.565-0.163c0.312 0 0.565 0.111 0.565 0.163z"></path>
<path fill="rgb(234, 73, 73)" d="M15.471 14.785c0-2.949-2.45-7.69-5.471-7.69s-5.471 4.584-5.471 7.69c-0 0.645 1.918 1.035 5.492 1.035s5.451-0.156 5.451-1.035z"></path>
<path fill="rgb(191, 113, 0)" d="M10.48 6.63c0 0.285-0.215 0.516-0.481 0.516s-0.481-0.231-0.481-0.516c0-0.285 0.215-0.516 0.481-0.516s0.481 0.231 0.481 0.516z"></path>
<path fill="rgb(234, 96, 96)" d="M10 7.562c-2.698 0-4.886 4.093-4.886 6.866 0 0.26 0.35 0.474 1.028 0.63 0.822 0.189 6.556-7.497 3.858-7.497z"></path>
<path fill="rgb(211, 60, 60)" d="M10.015 8.189c-0.928 0-1.706-0.076-2.329-0.174-0.102 0.083-0.202 0.17-0.3 0.261 0.665 0.123 1.545 0.226 2.629 0.226 1.075 0 1.944-0.101 2.601-0.223-0.098-0.091-0.198-0.179-0.3-0.261-0.614 0.097-1.383 0.171-2.301 0.171z"></path>
<path fill="rgb(211, 60, 60)" d="M13.294 3.789c0 0.259-0.21 0.469-0.469 0.469h-5.625c-0.259 0-0.469-0.21-0.469-0.469v-0.078c0-0.259 0.21-0.469 0.469-0.469h5.625c0.259 0 0.469 0.21 0.469 0.469v0.078z"></path>
</svg>
