<?xml version="1.0" encoding="utf-8"?>
<!-- Generator: Adobe Illustrator 16.0.0, SVG Export Plug-In . SVG Version: 6.00 Build 0)  -->
<!DOCTYPE svg PUBLIC "-//W3C//DTD SVG 1.1//EN" "http://www.w3.org/Graphics/SVG/1.1/DTD/svg11.dtd">
<svg version="1.1" id="Layer_1" xmlns="http://www.w3.org/2000/svg" xmlns:xlink="http://www.w3.org/1999/xlink" x="0px" y="0px"
	 width="20px" height="20px" viewBox="0 0 20 20" enable-background="new 0 0 20 20" xml:space="preserve">
<g>
	<path fill="#F2B800" d="M19.69,10c0,5.352-4.338,9.69-9.69,9.69c-5.352,0-9.69-4.339-9.69-9.69c0-5.351,4.339-9.69,9.69-9.69
		C15.353,0.31,19.69,4.648,19.69,10z"/>
	<path fill="#2B6671" d="M15.029,5.701c-1.213-1.418-3.016-2.318-5.028-2.318c-3.654,0-6.617,2.962-6.617,6.617
		c0,2.072,0.953,3.919,2.442,5.133c1.139,0.929,2.591,1.484,4.175,1.484c3.654,0,6.617-2.962,6.617-6.617
		C16.618,8.358,16.021,6.857,15.029,5.701L15.029,5.701z"/>
	<path fill="#357180" d="M13.061,13.102c2.077-2.079,2.758-4.979,1.979-7.4c-1.215-1.418-3.015-2.318-5.029-2.318
		c-3.653,0-6.617,2.962-6.617,6.617c0,2.072,0.952,3.919,2.442,5.133C8.22,15.826,11.032,15.128,13.061,13.102z"/>
	<path fill="#235D64" d="M7.732,7.479C7.996,7.215,8.356,7.14,8.577,7.289C8.543,7.2,8.49,7.117,8.42,7.047
		C8.129,6.756,7.644,6.771,7.333,7.081c-0.31,0.31-0.324,0.795-0.034,1.086c0.07,0.071,0.153,0.124,0.242,0.158
		C7.392,8.104,7.468,7.744,7.732,7.479L7.732,7.479z"/>
	<path fill="#122528" d="M8.385,8.131c0.233-0.233,0.3-0.567,0.192-0.842C8.356,7.14,7.996,7.215,7.732,7.479
		c-0.264,0.265-0.34,0.624-0.189,0.846C7.818,8.431,8.151,8.365,8.385,8.131z"/>
	<path fill="#235D64" d="M9.61,6.424c0.372,0.02,0.67,0.236,0.708,0.501c0.042-0.086,0.069-0.18,0.074-0.281
		c0.021-0.409-0.316-0.76-0.753-0.782C9.202,5.84,8.832,6.154,8.812,6.564C8.806,6.665,8.822,6.762,8.857,6.851
		C8.921,6.592,9.238,6.405,9.61,6.424L9.61,6.424z"/>
	<path fill="#122528" d="M9.564,7.347c0.329,0.017,0.621-0.159,0.754-0.422C10.28,6.661,9.982,6.443,9.61,6.424
		C9.237,6.405,8.92,6.592,8.856,6.851C8.961,7.126,9.234,7.33,9.564,7.347z"/>
	<path fill="#235D64" d="M11.981,11.671c-0.278,0.276-0.657,0.356-0.889,0.199c0.036,0.093,0.092,0.18,0.166,0.255
		c0.305,0.305,0.814,0.289,1.14-0.035s0.341-0.835,0.036-1.14c-0.075-0.074-0.163-0.13-0.256-0.166
		c0.156,0.232,0.078,0.61-0.199,0.887H11.981z"/>
	<path fill="#122528" d="M11.296,10.984c-0.245,0.245-0.315,0.596-0.202,0.885c0.232,0.156,0.61,0.076,0.888-0.2
		c0.278-0.276,0.355-0.655,0.199-0.887C11.894,10.671,11.541,10.739,11.296,10.984z"/>
</g>
</svg>
