<?xml version="1.0" encoding="utf-8"?>
<!-- Generator: Adobe Illustrator 16.0.0, SVG Export Plug-In . SVG Version: 6.00 Build 0)  -->
<!DOCTYPE svg PUBLIC "-//W3C//DTD SVG 1.1//EN" "http://www.w3.org/Graphics/SVG/1.1/DTD/svg11.dtd">
<svg version="1.1" id="Layer_1" xmlns="http://www.w3.org/2000/svg" xmlns:xlink="http://www.w3.org/1999/xlink" x="0px" y="0px"
	 width="20px" height="20px" viewBox="0 0 20 20" enable-background="new 0 0 20 20" xml:space="preserve">
<g>
	<path fill="#357180" d="M0.31,10c0-5.352,4.338-9.69,9.689-9.69c5.35,0,9.69,4.338,9.69,9.69c0,5.351-4.338,9.689-9.69,9.689
		S0.31,15.352,0.31,10z"/>
	<path fill="#D2D2D2" d="M7.034,11.318c-0.065-1.173-0.713-2.532-0.713-2.845c0-0.696,0.251-0.779,0.251-1.474
		c0,0-0.042-0.893-0.748-0.901l0,0c-0.001,0-0.003,0-0.004,0c-0.001,0-0.003,0-0.004,0l0,0C5.11,6.106,5.068,7,5.068,7
		c0,0.696,0.252,0.778,0.252,1.474c0,0.314-0.648,1.673-0.714,2.845C4.527,12.746,5.026,14,5.026,14h1.587
		C6.613,14,7.114,12.746,7.034,11.318L7.034,11.318z"/>
	<path fill="#DC3735" d="M6.42,7.818H5.221c0.023,0.075,0.046,0.155,0.064,0.246h1.071C6.375,7.973,6.396,7.895,6.42,7.818z"/>
	<path fill="#DC3735" d="M6.437,8.924H5.208C5.182,8.999,5.154,9.081,5.125,9.169h1.394C6.49,9.081,6.461,8.999,6.437,8.924z"/>
	<path fill="#D2D2D2" d="M16.104,11.318c-0.066-1.173-0.715-2.532-0.715-2.845c0-0.696,0.25-0.779,0.25-1.474
		c0,0-0.041-0.893-0.746-0.901l0,0c-0.002,0-0.004,0-0.004,0c-0.002,0-0.004,0-0.006,0l0,0C14.18,6.106,14.137,7,14.137,7
		c0,0.696,0.252,0.778,0.252,1.474c0,0.314-0.648,1.673-0.715,2.845C13.596,12.746,14.094,14,14.094,14h1.586
		c0,0,0.5-1.254,0.422-2.682H16.104z"/>
	<path fill="#DC3735" d="M15.488,7.818h-1.199c0.023,0.075,0.047,0.155,0.062,0.246h1.072C15.441,7.973,15.463,7.895,15.488,7.818z"
		/>
	<path fill="#DC3735" d="M15.504,8.924h-1.229c-0.025,0.075-0.055,0.157-0.084,0.245h1.395C15.557,9.081,15.527,8.999,15.504,8.924z
		"/>
	<path fill="#DBDBDA" d="M9.316,11.459c-0.074-1.302-0.793-2.812-0.793-3.16c0-0.772,0.28-0.864,0.28-1.637c0,0-0.047-0.992-0.831-1
		l0,0c-0.001,0-0.003,0-0.005,0c-0.002,0-0.003,0-0.005,0l0,0c-0.784,0.009-0.831,1-0.831,1c0,0.772,0.28,0.864,0.28,1.637
		c0,0.349-0.72,1.858-0.793,3.16c-0.088,1.588,0.466,2.979,0.466,2.979h1.763c0,0,0.557-1.391,0.467-2.979H9.316z"/>
	<path fill="#DC3735" d="M8.633,7.571H7.302c0.026,0.083,0.052,0.171,0.07,0.272h1.191C8.583,7.742,8.608,7.654,8.633,7.571z"/>
	<path fill="#DC3735" d="M8.65,8.799H7.286C7.257,8.883,7.227,8.974,7.193,9.071h1.548C8.709,8.974,8.677,8.883,8.65,8.799
		L8.65,8.799z"/>
	<path fill="#DBDBDA" d="M14.107,11.459c-0.072-1.302-0.791-2.812-0.791-3.16c0-0.772,0.279-0.864,0.279-1.637
		c0,0-0.045-0.992-0.832-1l0,0c0,0-0.002,0-0.004,0s-0.004,0-0.004,0l0,0c-0.785,0.009-0.832,1-0.832,1
		c0,0.772,0.279,0.864,0.279,1.637c0,0.349-0.719,1.858-0.791,3.16c-0.09,1.588,0.465,2.979,0.465,2.979h1.764
		C13.641,14.438,14.195,13.047,14.107,11.459L14.107,11.459z"/>
	<path fill="#DC3735" d="M13.428,7.571h-1.334c0.025,0.083,0.051,0.171,0.07,0.272h1.193C13.375,7.742,13.4,7.654,13.428,7.571z"/>
	<path fill="#DC3735" d="M13.443,8.799h-1.367c-0.025,0.083-0.057,0.175-0.092,0.272h1.551C13.5,8.974,13.471,8.883,13.443,8.799z"
		/>
	<path fill="#E4E4E4" d="M11.83,11.492c-0.08-1.429-0.871-3.084-0.871-3.466c0-0.847,0.307-0.948,0.307-1.795
		c0,0-0.051-1.087-0.91-1.097V5.133c-0.002,0-0.003,0-0.005,0c-0.002,0-0.003,0-0.005,0v0.001c-0.859,0.008-0.91,1.097-0.91,1.097
		c0,0.847,0.307,0.948,0.307,1.795c0,0.382-0.79,2.037-0.871,3.466c-0.097,1.74,0.513,3.268,0.513,3.268h1.933
		c0,0,0.609-1.527,0.512-3.268H11.83z"/>
	<path fill="#DC3735" d="M11.082,7.228h-1.46c0.028,0.092,0.055,0.189,0.077,0.3h1.305C11.025,7.417,11.053,7.32,11.082,7.228z"/>
	<path fill="#DC3735" d="M11.1,8.575H9.604C9.573,8.667,9.54,8.767,9.503,8.875h1.698C11.164,8.768,11.131,8.667,11.1,8.575z"/>
</g>
</svg>
