<?xml version="1.0" encoding="utf-8"?>
<!-- Generated by IcoMoon.io -->
<!DOCTYPE svg PUBLIC "-//W3C//DTD SVG 1.1//EN" "http://www.w3.org/Graphics/SVG/1.1/DTD/svg11.dtd">
<svg version="1.1" xmlns="http://www.w3.org/2000/svg" xmlns:xlink="http://www.w3.org/1999/xlink" width="20" height="20" viewBox="0 0 20 20">
<path fill="rgb(250, 188, 61)" d="M19.691 10c0-5.352-4.339-9.691-9.69-9.691s-9.691 4.338-9.691 9.691c0 5.352 4.339 9.69 9.691 9.69s9.69-4.339 9.69-9.69z"></path>
<path fill="rgb(103, 178, 54)" d="M14.996 9.525c0-2.759-2.237-4.996-4.996-4.996s-4.996 2.237-4.996 4.996c0 0.223 0 5.945 0 5.945l1.203-0.834 1.27 0.834 1.146-0.834 1.353 0.834 1.284-0.834 1.27 0.834 1.229-0.834 1.234 0.834c0 0 0-5.722 0-5.945z"></path>
<path fill="rgb(255, 255, 253)" d="M9.13 9.215c0 0.583-0.473 1.056-1.056 1.056s-1.056-0.473-1.056-1.056c0-0.583 0.473-1.056 1.056-1.056s1.056 0.473 1.056 1.056z"></path>
<path fill="rgb(58, 58, 56)" d="M8.55 9.215c0 0.263-0.213 0.476-0.476 0.476s-0.476-0.213-0.476-0.476c0-0.263 0.213-0.476 0.476-0.476s0.476 0.213 0.476 0.476z"></path>
<path fill="rgb(255, 255, 253)" d="M12.983 9.215c0 0.583-0.473 1.056-1.056 1.056s-1.056-0.473-1.056-1.056c0-0.583 0.473-1.056 1.056-1.056s1.056 0.473 1.056 1.056z"></path>
<path fill="rgb(58, 58, 56)" d="M12.403 9.215c0 0.263-0.213 0.476-0.476 0.476s-0.476-0.213-0.476-0.476c0-0.263 0.213-0.476 0.476-0.476s0.476 0.213 0.476 0.476z"></path>
</svg>
