<?xml version="1.0" encoding="utf-8"?>
<!-- Generated by IcoMoon.io -->
<!DOCTYPE svg PUBLIC "-//W3C//DTD SVG 1.1//EN" "http://www.w3.org/Graphics/SVG/1.1/DTD/svg11.dtd">
<svg version="1.1" xmlns="http://www.w3.org/2000/svg" xmlns:xlink="http://www.w3.org/1999/xlink" width="20" height="20" viewBox="0 0 20 20">
<path fill="rgb(72, 161, 175)" d="M10 0.31c-5.352 0-9.691 4.338-9.691 9.691s4.339 9.69 9.691 9.69c5.352 0 9.69-4.339 9.69-9.69s-4.339-9.691-9.69-9.691z"></path>
<path fill="rgb(237, 201, 47)" d="M11.947 8.651h-3.912l0.007 2.32 3.908 2.685z"></path>
<path fill="rgb(249, 94, 58)" d="M11.955 5.964l-3.909 2.688 3.909 2.688 3.908-2.688z"></path>
<path fill="rgb(229, 70, 21)" d="M12.629 9.958c0 0.289-0.3 0.524-0.671 0.524s-0.671-0.234-0.671-0.524c0-0.289 0.3-0.524 0.671-0.524s0.671 0.234 0.671 0.524z"></path>
<path fill="rgb(229, 70, 21)" d="M11.286 9.616h1.336v0.342h-1.336v-0.342z"></path>
<path fill="rgb(249, 94, 58)" d="M12.629 9.616c0 0.289-0.3 0.524-0.671 0.524s-0.671-0.234-0.671-0.524c0-0.289 0.3-0.524 0.671-0.524s0.671 0.234 0.671 0.524z"></path>
<path fill="rgb(229, 70, 21)" d="M10.453 8.553c0 0.289-0.3 0.524-0.671 0.524s-0.671-0.234-0.671-0.524c0-0.289 0.3-0.524 0.671-0.524s0.671 0.234 0.671 0.524z"></path>
<path fill="rgb(229, 70, 21)" d="M9.111 8.212h1.336v0.342h-1.336v-0.342z"></path>
<path fill="rgb(249, 94, 58)" d="M10.453 8.212c0 0.289-0.3 0.524-0.671 0.524s-0.671-0.234-0.671-0.524c0-0.289 0.3-0.524 0.671-0.524s0.671 0.234 0.671 0.524z"></path>
<path fill="rgb(229, 70, 21)" d="M14.804 8.587c0 0.289-0.3 0.524-0.671 0.524s-0.671-0.234-0.671-0.524c0-0.289 0.3-0.524 0.671-0.524s0.671 0.234 0.671 0.524z"></path>
<path fill="rgb(229, 70, 21)" d="M13.462 8.246h1.336v0.342h-1.336v-0.342z"></path>
<path fill="rgb(249, 94, 58)" d="M14.804 8.246c0 0.289-0.3 0.524-0.671 0.524s-0.671-0.234-0.671-0.524c0-0.289 0.3-0.524 0.671-0.524s0.671 0.234 0.671 0.524z"></path>
<path fill="rgb(229, 70, 21)" d="M12.586 7.154c0 0.289-0.3 0.524-0.671 0.524s-0.671-0.234-0.671-0.524c0-0.289 0.3-0.524 0.671-0.524s0.671 0.234 0.671 0.524z"></path>
<path fill="rgb(229, 70, 21)" d="M11.244 6.813h1.336v0.342h-1.336v-0.342z"></path>
<path fill="rgb(249, 94, 58)" d="M12.586 6.813c0 0.289-0.3 0.524-0.671 0.524s-0.671-0.234-0.671-0.524c0-0.289 0.3-0.524 0.671-0.524s0.671 0.234 0.671 0.524z"></path>
<path fill="rgb(229, 70, 21)" d="M8.035 8.651l0.007 2.32 0.531 0.365h-4.436l0.007 2.32 3.909 2.685 3.905-2.685v-0.005l3.898-2.681 0.007-2.32z"></path>
<path fill="rgb(239, 72, 27)" d="M8.049 11.337h-3.912l0.007 2.32 3.909 2.685z"></path>
<path fill="rgb(249, 94, 58)" d="M8.057 8.649l-3.908 2.688 3.908 2.688 3.909-2.688z"></path>
<path fill="rgb(229, 70, 21)" d="M8.731 12.643c0 0.289-0.3 0.524-0.671 0.524s-0.671-0.234-0.671-0.524c0-0.289 0.3-0.524 0.671-0.524s0.671 0.234 0.671 0.524z"></path>
<path fill="rgb(229, 70, 21)" d="M7.389 12.301h1.336v0.342h-1.336v-0.342z"></path>
<path fill="rgb(249, 94, 58)" d="M8.731 12.302c0 0.289-0.3 0.524-0.671 0.524s-0.671-0.234-0.671-0.524c0-0.289 0.3-0.524 0.671-0.524s0.671 0.234 0.671 0.524z"></path>
<path fill="rgb(229, 70, 21)" d="M6.556 11.238c0 0.289-0.3 0.524-0.671 0.524s-0.671-0.234-0.671-0.524c0-0.289 0.3-0.524 0.671-0.524s0.671 0.234 0.671 0.524z"></path>
<path fill="rgb(229, 70, 21)" d="M5.213 10.897h1.336v0.342h-1.336v-0.342z"></path>
<path fill="rgb(249, 94, 58)" d="M6.556 10.897c0 0.289-0.3 0.524-0.671 0.524s-0.671-0.234-0.671-0.524c0-0.289 0.3-0.524 0.671-0.524s0.671 0.234 0.671 0.524z"></path>
<path fill="rgb(229, 70, 21)" d="M10.906 11.272c0 0.289-0.3 0.524-0.671 0.524s-0.671-0.234-0.671-0.524c0-0.289 0.3-0.524 0.671-0.524s0.671 0.234 0.671 0.524z"></path>
<path fill="rgb(229, 70, 21)" d="M9.564 10.931h1.336v0.342h-1.336v-0.342z"></path>
<path fill="rgb(249, 94, 58)" d="M10.906 10.931c0 0.289-0.3 0.524-0.671 0.524s-0.671-0.234-0.671-0.524c0-0.289 0.3-0.524 0.671-0.524s0.671 0.234 0.671 0.524z"></path>
<path fill="rgb(229, 70, 21)" d="M8.688 9.839c0 0.289-0.3 0.524-0.671 0.524s-0.671-0.234-0.671-0.524c0-0.289 0.3-0.524 0.671-0.524s0.671 0.234 0.671 0.524z"></path>
<path fill="rgb(249, 94, 58)" d="M7.346 9.498h1.336v0.342h-1.336v-0.342z"></path>
<path fill="rgb(249, 94, 58)" d="M8.688 9.498c0 0.289-0.3 0.524-0.671 0.524s-0.671-0.234-0.671-0.524c0-0.289 0.3-0.524 0.671-0.524s0.671 0.234 0.671 0.524z"></path>
<path fill="rgb(232, 191, 19)" d="M8.035 6.343l0.007 2.32 3.908 2.685 3.905-2.685 0.007-2.32z"></path>
<path fill="rgb(237, 201, 47)" d="M11.947 6.343h-3.912l0.007 2.32 3.908 2.685z"></path>
<path fill="rgb(247, 214, 77)" d="M11.955 3.655l-3.909 2.688 3.909 2.688 3.908-2.688z"></path>
<path fill="rgb(232, 191, 19)" d="M12.629 7.65c0 0.289-0.3 0.524-0.671 0.524s-0.671-0.234-0.671-0.524c0-0.289 0.3-0.524 0.671-0.524s0.671 0.234 0.671 0.524z"></path>
<path fill="rgb(232, 191, 19)" d="M11.286 7.308h1.336v0.342h-1.336v-0.342z"></path>
<path fill="rgb(247, 214, 77)" d="M12.629 7.308c0 0.289-0.3 0.524-0.671 0.524s-0.671-0.234-0.671-0.524c0-0.289 0.3-0.524 0.671-0.524s0.671 0.234 0.671 0.524z"></path>
<path fill="rgb(232, 191, 19)" d="M10.453 6.245c0 0.289-0.3 0.524-0.671 0.524s-0.671-0.234-0.671-0.524c0-0.289 0.3-0.524 0.671-0.524s0.671 0.234 0.671 0.524z"></path>
<path fill="rgb(232, 191, 19)" d="M9.111 5.903h1.336v0.342h-1.336v-0.342z"></path>
<path fill="rgb(247, 214, 77)" d="M10.453 5.904c0 0.289-0.3 0.524-0.671 0.524s-0.671-0.234-0.671-0.524c0-0.289 0.3-0.524 0.671-0.524s0.671 0.234 0.671 0.524z"></path>
<path fill="rgb(232, 191, 19)" d="M14.804 6.279c0 0.289-0.3 0.524-0.671 0.524s-0.671-0.234-0.671-0.524c0-0.289 0.3-0.524 0.671-0.524s0.671 0.234 0.671 0.524z"></path>
<path fill="rgb(232, 191, 19)" d="M13.462 5.938h1.336v0.342h-1.336v-0.342z"></path>
<path fill="rgb(247, 214, 77)" d="M14.804 5.938c0 0.289-0.3 0.524-0.671 0.524s-0.671-0.234-0.671-0.524c0-0.289 0.3-0.524 0.671-0.524s0.671 0.234 0.671 0.524z"></path>
<path fill="rgb(232, 191, 19)" d="M12.586 4.846c0 0.289-0.3 0.524-0.671 0.524s-0.671-0.234-0.671-0.524c0-0.289 0.3-0.524 0.671-0.524s0.671 0.234 0.671 0.524z"></path>
<path fill="rgb(232, 191, 19)" d="M11.244 4.505h1.336v0.342h-1.336v-0.342z"></path>
<path fill="rgb(247, 214, 77)" d="M12.586 4.505c0 0.289-0.3 0.524-0.671 0.524s-0.671-0.234-0.671-0.524c0-0.289 0.3-0.524 0.671-0.524s0.671 0.234 0.671 0.524z"></path>
</svg>
