<?xml version="1.0" encoding="utf-8"?>
<!-- Generated by IcoMoon.io -->
<!DOCTYPE svg PUBLIC "-//W3C//DTD SVG 1.1//EN" "http://www.w3.org/Graphics/SVG/1.1/DTD/svg11.dtd">
<svg version="1.1" xmlns="http://www.w3.org/2000/svg" xmlns:xlink="http://www.w3.org/1999/xlink" width="20" height="20" viewBox="0 0 20 20">
<path fill="rgb(74, 188, 150)" d="M10 0.31c-5.352 0-9.691 4.338-9.691 9.691s4.339 9.69 9.691 9.69c5.352 0 9.69-4.339 9.69-9.69s-4.339-9.691-9.69-9.691z"></path>
<path fill="rgb(224, 224, 226)" d="M15.315 6.913c-0.183-0.318-0.383-0.387-0.628-0.525l-4.138-1.934c-0.301-0.141-0.79-0.141-1.091 0l-4.138 1.934c-0.325 0.184-0.524 0.35-0.649 0.575s-0.158 0.491-0.193 0.89v5.105c0 0.372 0.28 0.521 0.562 0.673l4.261 1.907c0.019 0 0.463 0.113 0.712 0.113s0.685-0.113 0.685-0.113l4.261-1.907c0.272-0.139 0.562-0.301 0.562-0.673v-5.105c-0.009-0.391-0.031-0.635-0.207-0.94z"></path>
<path fill="rgb(255, 255, 255)" d="M9.331 9.123l-4.082-1.827c-0.297 0-0.538 0.289-0.538 0.645v4.889c0 0.356 0.234 0.499 0.538 0.645l4.082 1.827c0.297 0 0.538-0.289 0.538-0.645v-4.549c-0-0.356-0.179-0.797-0.538-0.985z"></path>
<path fill="rgb(255, 255, 255)" d="M14.751 7.297l-4.082 1.827c-0.314 0.188-0.538 0.629-0.538 0.985v4.549c0 0.356 0.241 0.645 0.538 0.645l4.082-1.827c0.282-0.134 0.538-0.289 0.538-0.645v-4.889c0-0.356-0.241-0.645-0.538-0.645z"></path>
<path fill="rgb(255, 255, 255)" d="M14.49 6.538l-3.963-1.852c-0.289-0.135-0.757-0.135-1.045 0l-3.963 1.852c-0.289 0.135-0.289 0.354 0 0.489l3.963 1.852c0.289 0.135 0.757 0.135 1.045 0l3.963-1.852c0.289-0.135 0.289-0.354 0-0.489z"></path>
<path fill="rgb(153, 153, 153)" d="M14.903 12.231c0.087 0.317-0.085 0.64-0.383 0.721s-0.611-0.109-0.697-0.426c-0.087-0.317 0.085-0.64 0.383-0.721s0.611 0.109 0.697 0.426z"></path>
<path fill="rgb(153, 153, 153)" d="M13.322 11.265c0.087 0.317-0.085 0.64-0.383 0.721s-0.611-0.109-0.697-0.426c-0.087-0.317 0.085-0.64 0.383-0.721s0.611 0.109 0.697 0.426z"></path>
<path fill="rgb(153, 153, 153)" d="M11.74 10.3c0.087 0.317-0.085 0.64-0.384 0.721s-0.611-0.109-0.697-0.426c-0.087-0.317 0.085-0.64 0.384-0.721s0.611 0.109 0.697 0.426z"></path>
<path fill="rgb(153, 153, 153)" d="M8.274 6.563c0 0.23-0.313 0.416-0.699 0.416s-0.699-0.186-0.699-0.416c0-0.23 0.313-0.416 0.699-0.416s0.699 0.186 0.699 0.416z"></path>
<path fill="rgb(153, 153, 153)" d="M10.472 5.615c0 0.23-0.313 0.416-0.699 0.416s-0.699-0.186-0.699-0.416c0-0.23 0.313-0.416 0.699-0.416s0.699 0.186 0.699 0.416z"></path>
<path fill="rgb(153, 153, 153)" d="M11.071 7.837c0 0.23-0.313 0.416-0.699 0.416s-0.699-0.186-0.699-0.416c0-0.23 0.313-0.416 0.699-0.416s0.699 0.186 0.699 0.416z"></path>
<path fill="rgb(153, 153, 153)" d="M13.268 6.888c0 0.23-0.313 0.416-0.699 0.416s-0.699-0.186-0.699-0.416c0-0.23 0.313-0.416 0.699-0.416s0.699 0.186 0.699 0.416z"></path>
<path fill="rgb(153, 153, 153)" d="M9.673 7.212c0 0.23-0.313 0.416-0.699 0.416s-0.699-0.186-0.699-0.416c0-0.23 0.313-0.416 0.699-0.416s0.699 0.186 0.699 0.416z"></path>
<path fill="rgb(153, 153, 153)" d="M11.87 6.264c0 0.23-0.313 0.416-0.699 0.416s-0.699-0.186-0.699-0.416c0-0.23 0.313-0.416 0.699-0.416s0.699 0.186 0.699 0.416z"></path>
<path fill="rgb(153, 153, 153)" d="M6.424 8.983c0.098 0.317-0.060 0.647-0.353 0.737s-0.609-0.093-0.707-0.41c-0.098-0.317 0.060-0.647 0.353-0.737s0.609 0.093 0.707 0.41z"></path>
<path fill="rgb(153, 153, 153)" d="M9.177 9.954c0.098 0.317-0.060 0.647-0.353 0.737s-0.609-0.093-0.707-0.41c-0.098-0.317 0.060-0.647 0.353-0.737s0.609 0.093 0.707 0.41z"></path>
<path fill="rgb(153, 153, 153)" d="M6.152 12.362c0.098 0.317-0.060 0.647-0.353 0.737s-0.609-0.093-0.707-0.41c-0.098-0.317 0.060-0.647 0.353-0.737s0.609 0.093 0.707 0.41z"></path>
<path fill="rgb(153, 153, 153)" d="M7.617 11.163c0.098 0.317-0.060 0.647-0.353 0.737s-0.609-0.093-0.707-0.41c-0.098-0.317 0.060-0.647 0.353-0.737s0.609 0.093 0.707 0.41z"></path>
<path fill="rgb(153, 153, 153)" d="M8.892 13.358c0.098 0.317-0.060 0.647-0.353 0.737s-0.609-0.093-0.707-0.41c-0.098-0.317 0.060-0.647 0.353-0.737s0.609 0.093 0.707 0.41z"></path>
</svg>
