<?xml version="1.0" encoding="utf-8"?>
<!-- Generator: Adobe Illustrator 16.0.0, SVG Export Plug-In . SVG Version: 6.00 Build 0)  -->
<!DOCTYPE svg PUBLIC "-//W3C//DTD SVG 1.1//EN" "http://www.w3.org/Graphics/SVG/1.1/DTD/svg11.dtd">
<svg version="1.1" id="Layer_1" xmlns="http://www.w3.org/2000/svg" xmlns:xlink="http://www.w3.org/1999/xlink" x="0px" y="0px"
	 width="20px" height="20px" viewBox="0 0 20 20" enable-background="new 0 0 20 20" xml:space="preserve">
<g>
	<path fill="#3CB881" d="M19.69,10c0,5.351-4.338,9.69-9.69,9.69S0.31,15.353,0.31,10c0-5.352,4.338-9.69,9.69-9.69
		S19.69,4.647,19.69,10z"/>
	<path fill="#767676" d="M16.139,8.743c-0.907-3.25-2.106-4.082-3.214-3.773c-0.267,0.074-0.504,0.21-0.697,0.416
		c-0.538,0.162-1.257,0.33-1.929,0.33c-0.715,0-1.483-0.191-2.031-0.361C8.065,5.115,7.811,4.963,7.519,4.881
		C6.411,4.572,5.212,5.404,4.306,8.654c-0.907,3.251-0.744,6.135,0.363,6.444c0.917,0.256,2.328-1.069,3.255-3.469
		c0.494-0.152,1.447-0.587,2.285-0.587c0.755,0,1.708,0.069,2.306,0.229c1.09,2.501,2.372,4.038,3.306,3.777
		c1.107-0.31,1.223-3.054,0.317-6.304L16.139,8.743z"/>
	<path fill="#ECECEC" d="M16.139,8.475c-0.907-3.25-2.106-4.082-3.214-3.773c-0.267,0.074-0.504,0.209-0.697,0.415
		c-0.538,0.163-1.257,0.33-1.929,0.33c-0.715,0-1.483-0.19-2.031-0.361C8.065,4.847,7.811,4.693,7.519,4.612
		c-1.107-0.31-2.307,0.523-3.213,3.773c-0.907,3.25-0.744,6.135,0.363,6.444c0.917,0.255,2.193-1.338,3.121-3.739
		c0.494-0.152,1.583-0.453,2.419-0.453c0.755,0,1.794,0.244,2.39,0.404c0.932,2.479,2.241,4.138,3.175,3.877
		C16.882,14.61,17.043,11.726,16.139,8.475L16.139,8.475z"/>
	<path fill="#E1E1E1" d="M7.659,6.664c0,0.532-0.396,0.965-0.884,0.965S5.893,7.196,5.893,6.664c0-0.533,0.396-0.966,0.883-0.966
		S7.659,6.131,7.659,6.664z"/>
	<path fill="#818282" d="M7.57,6.622c0,0.438-0.356,0.795-0.795,0.795S5.981,7.061,5.981,6.622s0.355-0.795,0.794-0.795
		S7.57,6.184,7.57,6.622z"/>
	<path fill="#4D4D4D" d="M7.369,6.622c0,0.327-0.266,0.593-0.594,0.593c-0.327,0-0.594-0.266-0.594-0.593
		c0-0.328,0.267-0.594,0.594-0.594C7.104,6.028,7.369,6.294,7.369,6.622z"/>
	<path fill="#E1E1E1" d="M9.964,9.06c0,0.747-0.58,1.354-1.298,1.354c-0.717,0-1.298-0.606-1.298-1.354
		c0-0.747,0.581-1.354,1.298-1.354C9.384,7.705,9.964,8.312,9.964,9.06z"/>
	<path fill="#636463" d="M7.563,9.371c0.122,0.331,0.389,0.592,0.724,0.704V9.371H7.563z"/>
	<path fill="#636463" d="M9.04,10.067C9.367,9.953,9.627,9.696,9.746,9.37H9.04V10.067z"/>
	<path fill="#636463" d="M8.288,7.867C7.934,7.986,7.653,8.27,7.544,8.627h0.744V7.867z"/>
	<path fill="#636463" d="M9.768,8.627C9.658,8.274,9.387,7.995,9.04,7.873v0.754H9.768z"/>
	<path fill="#4D4D4D" d="M9.768,8.627H9.04V7.873C8.919,7.832,8.789,7.807,8.654,7.807c-0.129,0-0.252,0.021-0.367,0.061v0.76H7.543
		C7.51,8.736,7.491,8.852,7.491,8.971c0,0.142,0.026,0.275,0.072,0.4h0.724v0.704c0.116,0.038,0.238,0.061,0.367,0.061
		c0.135,0,0.264-0.024,0.386-0.067V9.371h0.706c0.046-0.124,0.072-0.259,0.072-0.4C9.818,8.852,9.801,8.736,9.768,8.627z"/>
	<path fill="#4D4D4D" d="M8.654,9.934L7.727,9.005l0.928-0.928l0.929,0.928L8.654,9.934z"/>
	<path fill="#E1E1E1" d="M12.985,9.386c0,0.556-0.395,1.007-0.884,1.007c-0.487,0-0.883-0.451-0.883-1.007
		c0-0.557,0.396-1.007,0.883-1.007C12.591,8.379,12.985,8.829,12.985,9.386z"/>
	<path fill="#818282" d="M12.907,9.341c0,0.438-0.355,0.794-0.795,0.794c-0.438,0-0.795-0.355-0.795-0.794
		c0-0.439,0.357-0.795,0.795-0.795C12.552,8.546,12.907,8.901,12.907,9.341z"/>
	<path fill="#4D4D4D" d="M12.706,9.341c0,0.327-0.266,0.592-0.592,0.592c-0.327,0-0.593-0.266-0.593-0.592
		c0-0.328,0.266-0.593,0.593-0.593C12.44,8.748,12.706,9.014,12.706,9.341z"/>
	<path fill="#B2B2B2" d="M11.652,6.738c0,0.126-0.103,0.228-0.228,0.228c-0.126,0-0.227-0.102-0.227-0.228
		c0-0.125,0.101-0.227,0.227-0.227C11.55,6.512,11.652,6.613,11.652,6.738z"/>
	<path fill="#B2B2B2" d="M9.353,6.738c0,0.126-0.102,0.228-0.227,0.228C9,6.966,8.898,6.864,8.898,6.738
		c0-0.125,0.102-0.227,0.228-0.227C9.251,6.512,9.353,6.613,9.353,6.738z"/>
	<path fill="#767676" d="M10.96,6.756c0,0.364-0.296,0.661-0.661,0.661s-0.66-0.296-0.66-0.661c0-0.364,0.295-0.66,0.66-0.66
		S10.96,6.391,10.96,6.756z"/>
	<path fill="#B2B2B2" d="M9.915,6.309C9.789,6.418,9.708,6.576,9.708,6.756c0,0.112,0.033,0.218,0.088,0.308l0.375-0.448
		L9.915,6.309z"/>
	<path fill="#B2B2B2" d="M10.313,6.449c0.042-0.052,0.08-0.097,0.113-0.135l0.093-0.109c-0.068-0.027-0.142-0.043-0.221-0.043
		c-0.062,0-0.122,0.013-0.18,0.03l0.09,0.117C10.251,6.363,10.285,6.409,10.313,6.449L10.313,6.449z"/>
	<path fill="#B2B2B2" d="M10.823,7.031c0.044-0.083,0.07-0.176,0.07-0.276c0-0.171-0.071-0.323-0.188-0.43l-0.241,0.275
		L10.823,7.031z"/>
	<path fill="#B2B2B2" d="M10.323,6.77L9.954,7.235c0.097,0.07,0.217,0.113,0.347,0.113c0.141,0,0.269-0.051,0.37-0.134l-0.27-0.342
		L10.323,6.77z"/>
	<path fill="#81C681" d="M10.823,7.031l-0.358-0.431l0.241-0.275c-0.053-0.051-0.115-0.092-0.186-0.12l-0.093,0.109
		c-0.033,0.037-0.071,0.082-0.113,0.135c-0.027-0.039-0.062-0.086-0.104-0.14l-0.09-0.117c-0.076,0.024-0.146,0.063-0.206,0.115
		l0.256,0.307L9.796,7.062c0.04,0.066,0.094,0.126,0.158,0.172l0.369-0.466l0.078,0.104l0.27,0.342
		C10.733,7.164,10.784,7.103,10.823,7.031L10.823,7.031z"/>
	<path fill="#357180" d="M13.109,6.756c0,0.217-0.177,0.392-0.393,0.392c-0.214,0-0.39-0.176-0.39-0.392
		c0-0.217,0.176-0.392,0.39-0.392C12.933,6.364,13.109,6.54,13.109,6.756z"/>
	<path fill="#265E67" d="M12.468,6.515h0.163l0.084,0.147l0.083-0.147h0.161L12.81,6.747l0.163,0.247h-0.166l-0.095-0.153
		l-0.094,0.153h-0.166l0.166-0.249L12.468,6.515L12.468,6.515z"/>
	<path fill="#E79E2D" d="M13.914,5.949c0,0.217-0.177,0.392-0.392,0.392c-0.216,0-0.392-0.176-0.392-0.392
		c0-0.217,0.176-0.392,0.392-0.392C13.737,5.558,13.914,5.733,13.914,5.949z"/>
	<path fill="#AC782B" d="M13.279,5.752h0.521L13.614,6.03v0.201h-0.148V6.03L13.279,5.752z"/>
	<path fill="#E84849" d="M14.72,6.756c0,0.217-0.176,0.392-0.392,0.392c-0.215,0-0.392-0.176-0.392-0.392
		c0-0.217,0.177-0.392,0.392-0.392C14.544,6.364,14.72,6.54,14.72,6.756z"/>
	<path fill="#B03738" d="M14.146,6.513h0.276c0.048,0,0.082,0.012,0.107,0.035c0.026,0.022,0.038,0.051,0.038,0.085
		c0,0.027-0.008,0.052-0.026,0.072c-0.012,0.015-0.028,0.024-0.051,0.032c0.034,0.009,0.059,0.022,0.075,0.043
		c0.016,0.021,0.023,0.045,0.023,0.076c0,0.025-0.005,0.047-0.017,0.066c-0.011,0.021-0.027,0.036-0.047,0.048
		c-0.013,0.007-0.031,0.013-0.056,0.016c-0.035,0.004-0.057,0.006-0.066,0.006h-0.256V6.514L14.146,6.513z"/>
	<path fill="#2F8442" d="M13.914,7.561c0,0.217-0.177,0.392-0.392,0.392c-0.216,0-0.392-0.176-0.392-0.392
		c0-0.217,0.176-0.392,0.392-0.392C13.737,7.169,13.914,7.345,13.914,7.561z"/>
	<path fill="#256533" d="M13.612,7.685h-0.167l-0.022,0.079h-0.151l0.18-0.478h0.161l0.181,0.478h-0.156L13.612,7.685L13.612,7.685z
		"/>
</g>
</svg>
