<?xml version="1.0" encoding="utf-8"?>
<!-- Generated by IcoMoon.io -->
<!DOCTYPE svg PUBLIC "-//W3C//DTD SVG 1.1//EN" "http://www.w3.org/Graphics/SVG/1.1/DTD/svg11.dtd">
<svg version="1.1" xmlns="http://www.w3.org/2000/svg" xmlns:xlink="http://www.w3.org/1999/xlink" width="20" height="20" viewBox="0 0 20 20">
<path fill="rgb(237, 201, 47)" d="M10 0.31c-5.352 0-9.691 4.338-9.691 9.691s4.339 9.69 9.691 9.69c5.352 0 9.69-4.339 9.69-9.69s-4.339-9.691-9.69-9.691z"></path>
<path fill="rgb(69, 164, 69)" d="M9.159 10.163c0 0-4.185 1.356-2.738 6.672 0 0 0.224 0.235 0.622 0.21s0.573-0.21 0.573-0.21-1.917-4.879 1.543-6.672z"></path>
<path fill="rgb(87, 196, 87)" d="M9.159 10.163c0 0-4.185 1.356-2.738 6.672 0 0 0.224 0.235 0.622 0.21 0 0-2.141-4.94 2.116-6.882z"></path>
<path fill="rgb(48, 117, 48)" d="M14.553 9.318c0.744-0.387 1.077-1.287 0.746-2.073-0.349-0.827-1.302-1.215-2.13-0.866-0.17 0.072-0.353 0.18-0.544 0.313 0.133-0.191 0.241-0.374 0.313-0.544 0.349-0.827-0.039-1.781-0.866-2.13-0.786-0.332-1.686 0.002-2.073 0.746-0.387-0.744-1.287-1.077-2.073-0.746-0.827 0.349-1.215 1.302-0.866 2.13 0.072 0.17 0.18 0.353 0.313 0.544-0.191-0.133-0.374-0.241-0.544-0.313-0.827-0.349-1.781 0.039-2.13 0.866-0.332 0.786 0.002 1.685 0.746 2.073-0.744 0.387-1.077 1.287-0.746 2.073 0.349 0.827 1.302 1.215 2.13 0.866 0.17-0.072 0.353-0.18 0.544-0.313-0.133 0.19-0.241 0.374-0.313 0.544-0.349 0.827 0.039 1.781 0.866 2.13 0.786 0.332 1.686-0.002 2.073-0.746 0.387 0.744 1.287 1.077 2.073 0.746 0.827-0.349 1.215-1.302 0.866-2.13-0.072-0.17-0.18-0.353-0.313-0.544 0.191 0.133 0.374 0.241 0.544 0.313 0.827 0.349 1.781-0.039 2.13-0.866 0.332-0.786-0.002-1.686-0.746-2.073zM10 9.292c0 0.004 0.001 0.006 0.001 0.010-0 0.001-0.001 0.001-0.001 0.002-0-0.001-0.001-0.001-0.001-0.002 0-0.003 0.001-0.006 0.001-0.010zM9.983 9.319c-0.003-0-0.006-0.001-0.010-0.001 0.004-0 0.006-0.001 0.010-0.001 0.001 0.001 0.001 0.001 0.002 0.001-0.001 0-0.001 0.001-0.002 0.001zM10 9.345c-0-0.004-0.001-0.006-0.001-0.010 0-0.001 0.001-0.001 0.001-0.002s0.001 0.001 0.001 0.002c-0 0.003-0.001 0.006-0.001 0.010zM10.003 9.321c-0.001 0-0.002 0-0.003 0s-0.002-0-0.003-0c-0-0.001-0-0.002-0-0.003s0-0.002 0-0.003c0.001-0 0.002-0 0.003-0s0.002 0 0.003 0c0 0.001 0 0.002 0 0.003s-0 0.002-0 0.003zM10.017 9.319c-0.001-0-0.001-0.001-0.002-0.001 0.001-0 0.001-0.001 0.002-0.001 0.003 0 0.006 0.001 0.010 0.001-0.004 0.001-0.007 0.001-0.010 0.001z"></path>
<path fill="rgb(87, 196, 87)" d="M11.906 4.444c-0.723-0.305-1.55 0.002-1.906 0.686-0.356-0.684-1.183-0.991-1.906-0.686-0.761 0.321-1.117 1.198-0.796 1.959 0.475 1.127 2.699 2.923 2.699 2.923s0.002-0.011 0.004-0.032c0.003 0.021 0.004 0.032 0.004 0.032s2.223-1.796 2.699-2.923c0.321-0.761-0.036-1.638-0.796-1.959z"></path>
<path fill="rgb(87, 196, 87)" d="M12.703 12.234c-0.475-1.127-2.699-2.923-2.699-2.923s-0.002 0.011-0.004 0.032c-0.003-0.021-0.004-0.032-0.004-0.032s-2.223 1.796-2.699 2.923c-0.321 0.761 0.036 1.638 0.796 1.959 0.723 0.305 1.55-0.002 1.906-0.686 0.356 0.684 1.183 0.991 1.906 0.686 0.761-0.321 1.117-1.198 0.796-1.959z"></path>
<path fill="rgb(69, 164, 69)" d="M14.188 9.318c0.684-0.356 0.991-1.183 0.686-1.906-0.321-0.761-1.198-1.117-1.959-0.796-1.127 0.476-2.923 2.699-2.923 2.699s0.011 0.002 0.032 0.004c-0.021 0.003-0.032 0.004-0.032 0.004s1.796 2.223 2.923 2.699c0.761 0.321 1.638-0.036 1.959-0.796 0.305-0.723-0.002-1.55-0.686-1.906z"></path>
<path fill="rgb(69, 164, 69)" d="M10.008 9.314c0 0-1.796-2.223-2.923-2.699-0.761-0.321-1.638 0.036-1.959 0.796-0.305 0.723 0.002 1.55 0.686 1.906-0.684 0.356-0.991 1.183-0.686 1.906 0.321 0.761 1.198 1.117 1.959 0.796 1.127-0.475 2.923-2.699 2.923-2.699s-0.011-0.002-0.032-0.004c0.021-0.003 0.032-0.004 0.032-0.004z"></path>
<path fill="rgb(48, 117, 48)" d="M10.406 9.318c0 0.237-0.193 0.43-0.43 0.43s-0.43-0.193-0.43-0.43c0-0.237 0.193-0.43 0.43-0.43s0.43 0.193 0.43 0.43z"></path>
<path fill="rgb(48, 117, 48)" d="M9.829 4.864c0.157 1.099 0.036 3.347 0.163 3.347s-0.006-2.248 0.163-3.347h-0.326z"></path>
<path fill="rgb(48, 117, 48)" d="M9.992 10.471c-0.127 0 0.006 2.248-0.163 3.347h0.326c-0.157-1.1-0.036-3.347-0.163-3.347z"></path>
<path fill="rgb(48, 117, 48)" d="M11.122 9.341c0 0.127 2.248-0.006 3.347 0.163v-0.326c-1.1 0.157-3.347 0.036-3.347 0.163z"></path>
<path fill="rgb(48, 117, 48)" d="M5.515 9.178v0.326c1.099-0.157 3.347-0.036 3.347-0.163s-2.248 0.006-3.347-0.163z"></path>
<path fill="rgb(48, 117, 48)" d="M12.75 6.374c-0.603 0.804-2.117 2.163-2.036 2.244s1.433-1.441 2.244-2.036l-0.209-0.209z"></path>
<path fill="rgb(48, 117, 48)" d="M9.27 10.064c-0.081-0.081-1.433 1.441-2.244 2.036l0.209 0.209c0.603-0.804 2.117-2.163 2.036-2.244z"></path>
<path fill="rgb(48, 117, 48)" d="M10.714 10.064c-0.081 0.081 1.441 1.433 2.036 2.244l0.209-0.209c-0.803-0.603-2.163-2.117-2.244-2.036z"></path>
<path fill="rgb(48, 117, 48)" d="M7.234 6.374l-0.209 0.209c0.803 0.603 2.163 2.117 2.244 2.036s-1.441-1.433-2.036-2.244z"></path>
</svg>
