<?xml version="1.0" encoding="utf-8"?>
<!-- Generated by IcoMoon.io -->
<!DOCTYPE svg PUBLIC "-//W3C//DTD SVG 1.1//EN" "http://www.w3.org/Graphics/SVG/1.1/DTD/svg11.dtd">
<svg version="1.1" xmlns="http://www.w3.org/2000/svg" xmlns:xlink="http://www.w3.org/1999/xlink" width="20" height="20" viewBox="0 0 20 20">
<path fill="rgb(74, 188, 150)" d="M10 0.31c-5.352 0-9.691 4.338-9.691 9.691s4.339 9.69 9.691 9.69c5.352 0 9.69-4.339 9.69-9.69s-4.339-9.691-9.69-9.691z"></path>
<path fill="rgb(43, 102, 113)" d="M11.531 8.974c-0.79-0.923-1.962-1.509-3.273-1.509-2.378 0-4.306 1.928-4.306 4.306 0 1.348 0.62 2.551 1.59 3.341 0.741 0.604 1.686 0.966 2.717 0.966 2.378 0 4.306-1.928 4.306-4.306 0-1.068-0.39-2.045-1.034-2.798z"></path>
<path fill="rgb(53, 113, 128)" d="M11.537 8.974c-0.79-0.923-1.962-1.509-3.273-1.509-2.378 0-4.307 1.928-4.307 4.306 0 1.348 0.62 2.551 1.59 3.341 1.552 0.451 3.382-0.003 4.702-1.322 1.352-1.352 1.795-3.24 1.288-4.816z"></path>
<path fill="rgb(35, 93, 100)" d="M7.228 9.849c-0.189-0.189-0.505-0.179-0.706 0.022s-0.211 0.518-0.022 0.707c0.046 0.046 0.1 0.081 0.158 0.103-0.097-0.144-0.048-0.378 0.123-0.55s0.406-0.221 0.55-0.123c-0.022-0.058-0.057-0.112-0.103-0.158z"></path>
<path fill="rgb(18, 37, 40)" d="M7.332 10.007c-0.144-0.097-0.378-0.049-0.55 0.123s-0.221 0.406-0.123 0.55c0.179 0.070 0.396 0.027 0.548-0.125s0.195-0.369 0.125-0.548z"></path>
<path fill="rgb(35, 93, 100)" d="M8.022 9.078c-0.284-0.014-0.526 0.19-0.539 0.457-0.003 0.065 0.008 0.128 0.030 0.186 0.042-0.169 0.248-0.29 0.491-0.277s0.436 0.154 0.461 0.325c0.028-0.055 0.045-0.117 0.048-0.182 0.014-0.267-0.206-0.495-0.49-0.509z"></path>
<path fill="rgb(18, 37, 40)" d="M8.004 9.444c-0.243-0.012-0.449 0.109-0.491 0.277 0.068 0.179 0.246 0.312 0.461 0.323s0.405-0.103 0.491-0.275c-0.024-0.172-0.218-0.313-0.461-0.325z"></path>
<path fill="rgb(35, 93, 100)" d="M9.842 12.389c-0.049-0.049-0.105-0.084-0.166-0.108 0.102 0.151 0.051 0.397-0.13 0.577s-0.427 0.231-0.578 0.13c0.024 0.061 0.060 0.117 0.108 0.166 0.198 0.198 0.53 0.188 0.742-0.024s0.222-0.543 0.024-0.742z"></path>
<path fill="rgb(18, 37, 40)" d="M9.676 12.281c-0.188-0.073-0.416-0.028-0.576 0.131s-0.205 0.388-0.132 0.576c0.151 0.102 0.397 0.051 0.578-0.13s0.232-0.427 0.13-0.577z"></path>
<path fill="rgb(228, 228, 228)" d="M14.276 11.443c-0.11-1.962-1.195-4.234-1.195-4.759 0-1.164 0.421-1.301 0.421-2.465 0 0-0.070-1.494-1.25-1.506v-0.001c-0.003 0-0.005 0-0.007 0s-0.005-0-0.007-0v0.001c-1.18 0.012-1.25 1.506-1.25 1.506 0 1.164 0.422 1.301 0.422 2.465 0 0.525-1.085 2.798-1.195 4.759-0.133 2.391 0.703 4.486 0.703 4.486h2.655c-0 0 0.836-2.095 0.703-4.486z"></path>
<path fill="rgb(220, 55, 53)" d="M11.243 5.588c0.039 0.127 0.077 0.259 0.107 0.411h1.792c0.029-0.152 0.067-0.284 0.106-0.411h-2.005z"></path>
<path fill="rgb(220, 55, 53)" d="M13.274 7.437h-2.056c-0.042 0.127-0.088 0.264-0.138 0.411h2.332c-0.050-0.147-0.096-0.284-0.138-0.411z"></path>
</svg>
