<?xml version="1.0" encoding="utf-8"?>
<!-- Generated by IcoMoon.io -->
<!DOCTYPE svg PUBLIC "-//W3C//DTD SVG 1.1//EN" "http://www.w3.org/Graphics/SVG/1.1/DTD/svg11.dtd">
<svg version="1.1" xmlns="http://www.w3.org/2000/svg" xmlns:xlink="http://www.w3.org/1999/xlink" width="20" height="20" viewBox="0 0 20 20">
<path fill="rgb(91, 79, 63)" d="M10 0.31c-5.352 0-9.691 4.338-9.691 9.691s4.339 9.69 9.691 9.69c5.352 0 9.69-4.339 9.69-9.69s-4.339-9.691-9.69-9.691z"></path>
<path fill="rgb(12, 163, 66)" d="M10.801 10c0 0.442-0.358 0.801-0.801 0.801s-0.801-0.358-0.801-0.801c0-0.442 0.358-0.801 0.801-0.801s0.801 0.358 0.801 0.801z"></path>
<path fill="rgb(226, 41, 41)" d="M10 2.77c-0.38 0-0.753 0.029-1.117 0.086l0.069 0.462c0.342-0.053 0.692-0.081 1.048-0.081 0.354 0 0.701 0.027 1.040 0.080l0.071-0.462c-0.362-0.056-0.733-0.085-1.111-0.085z"></path>
<path fill="rgb(226, 41, 41)" d="M11.049 16.681c-0.342 0.053-0.692 0.081-1.049 0.081-0.359 0-0.712-0.028-1.056-0.082l-0.070 0.462c0.367 0.057 0.743 0.087 1.126 0.087 0.381 0 0.755-0.030 1.119-0.086l-0.071-0.462z"></path>
<path fill="rgb(12, 163, 66)" d="M13.255 3.543c-0.656-0.331-1.369-0.566-2.121-0.684-0.008-0.001-0.015-0.003-0.023-0.004l-0.071 0.462c0.006 0.001 0.011 0.002 0.017 0.003 0.705 0.111 1.373 0.33 1.988 0.641 0.005 0.003 0.011 0.005 0.016 0.008l0.215-0.415c-0.007-0.004-0.014-0.007-0.021-0.011z"></path>
<path fill="rgb(12, 163, 66)" d="M8.926 16.677c-0.71-0.113-1.383-0.337-2.001-0.653-0.005-0.003-0.011-0.006-0.016-0.008l-0.214 0.415c0.007 0.004 0.014 0.007 0.022 0.011 0.659 0.337 1.377 0.575 2.134 0.696 0.008 0.001 0.016 0.003 0.023 0.004l0.070-0.462c-0.006-0.001-0.012-0.002-0.018-0.003z"></path>
<path fill="rgb(226, 41, 41)" d="M13.276 3.554l-0.215 0.415c0.628 0.319 1.199 0.733 1.694 1.224l0.328-0.332c-0.529-0.523-1.138-0.965-1.807-1.306z"></path>
<path fill="rgb(226, 41, 41)" d="M5.211 14.775l-0.328 0.333c0.529 0.53 1.14 0.978 1.811 1.324l0.214-0.415c-0.63-0.324-1.202-0.745-1.698-1.242z"></path>
<path fill="rgb(12, 163, 66)" d="M16.42 6.673c-0.346-0.667-0.793-1.273-1.321-1.799-0.005-0.005-0.010-0.010-0.015-0.015l-0.328 0.332c0.004 0.004 0.007 0.007 0.011 0.011 0.495 0.492 0.914 1.060 1.239 1.685 0.005 0.010 0.011 0.020 0.016 0.030l0.418-0.209c-0.006-0.012-0.013-0.024-0.019-0.036z"></path>
<path fill="rgb(12, 163, 66)" d="M5.2 14.763c-0.494-0.498-0.911-1.072-1.232-1.703-0.005-0.010-0.010-0.020-0.015-0.030l-0.418 0.209c0.006 0.012 0.012 0.024 0.018 0.037 0.343 0.673 0.788 1.285 1.315 1.816 0.005 0.005 0.010 0.010 0.015 0.016l0.328-0.333c-0.004-0.004-0.007-0.008-0.011-0.011z"></path>
<path fill="rgb(226, 41, 41)" d="M16.439 6.709l-0.418 0.209c0.315 0.615 0.539 1.284 0.653 1.99l0.461-0.075c-0.122-0.753-0.36-1.467-0.696-2.123z"></path>
<path fill="rgb(226, 41, 41)" d="M3.315 11.030l-0.461 0.076c0.116 0.756 0.35 1.474 0.681 2.133l0.418-0.209c-0.311-0.619-0.53-1.291-0.638-2z"></path>
<path fill="rgb(12, 163, 66)" d="M17.139 8.851c-0.001-0.006-0.002-0.013-0.003-0.019l-0.461 0.075c0.001 0.004 0.001 0.009 0.002 0.013 0.056 0.352 0.086 0.712 0.086 1.079 0 0.346-0.026 0.685-0.076 1.017-0.001 0.005-0.001 0.009-0.002 0.014l0.461 0.076c0.001-0.006 0.002-0.013 0.003-0.019 0.054-0.355 0.081-0.718 0.081-1.088 0-0.391-0.031-0.775-0.091-1.149z"></path>
<path fill="rgb(12, 163, 66)" d="M3.326 8.907l-0.461-0.075c-0.001 0.006-0.002 0.013-0.003 0.019-0.060 0.374-0.091 0.758-0.091 1.149 0 0.37 0.028 0.733 0.081 1.087 0.001 0.006 0.002 0.013 0.003 0.019l0.461-0.076c-0.001-0.004-0.001-0.009-0.002-0.013-0.050-0.332-0.076-0.671-0.076-1.017 0-0.368 0.030-0.728 0.086-1.080 0.001-0.004 0.001-0.009 0.002-0.013z"></path>
<path fill="rgb(226, 41, 41)" d="M16.685 11.031c-0.108 0.709-0.327 1.382-0.638 2l0.418 0.209c0.331-0.66 0.565-1.377 0.681-2.133l-0.461-0.076z"></path>
<path fill="rgb(226, 41, 41)" d="M3.561 6.709c-0.336 0.656-0.574 1.37-0.696 2.123l0.461 0.075c0.115-0.706 0.338-1.375 0.654-1.99l-0.418-0.209z"></path>
<path fill="rgb(12, 163, 66)" d="M16.046 13.031c-0.003 0.007-0.007 0.013-0.010 0.020-0.32 0.632-0.736 1.206-1.229 1.705-0.004 0.004-0.009 0.009-0.013 0.014l0.328 0.333c0.006-0.006 0.012-0.012 0.018-0.018 0.526-0.532 0.97-1.144 1.312-1.818 0.004-0.009 0.008-0.017 0.013-0.026l-0.418-0.21z"></path>
<path fill="rgb(12, 163, 66)" d="M4.91 4.866c-0.006 0.006-0.012 0.011-0.018 0.017-0.527 0.526-0.973 1.133-1.318 1.801-0.004 0.008-0.009 0.017-0.013 0.025l0.418 0.209c0.003-0.007 0.007-0.013 0.010-0.019 0.324-0.626 0.742-1.195 1.236-1.687 0.004-0.004 0.009-0.009 0.013-0.013l-0.329-0.332z"></path>
<path fill="rgb(226, 41, 41)" d="M14.794 14.769c-0.495 0.498-1.067 0.918-1.697 1.243l0.215 0.415c0.671-0.347 1.282-0.795 1.81-1.326l-0.328-0.333z"></path>
<path fill="rgb(226, 41, 41)" d="M6.716 3.557c-0.669 0.342-1.278 0.785-1.806 1.308l0.329 0.332c0.495-0.491 1.066-0.906 1.693-1.226l-0.216-0.415z"></path>
<path fill="rgb(12, 163, 66)" d="M13.098 16.013c-0.008 0.004-0.015 0.008-0.023 0.012-0.618 0.316-1.291 0.539-2.001 0.653-0.008 0.001-0.017 0.003-0.025 0.004l0.071 0.462c0.010-0.002 0.020-0.003 0.030-0.005 0.757-0.121 1.475-0.359 2.134-0.696 0.010-0.005 0.019-0.010 0.029-0.015l-0.215-0.415z"></path>
<path fill="rgb(12, 163, 66)" d="M8.883 2.856c-0.006 0.001-0.011 0.002-0.017 0.003-0.752 0.118-1.465 0.353-2.121 0.684-0.009 0.005-0.019 0.009-0.028 0.014l0.216 0.415c0.007-0.004 0.015-0.007 0.022-0.011 0.615-0.311 1.283-0.53 1.988-0.641 0.003-0.001 0.006-0.001 0.010-0.002l-0.069-0.462z"></path>
<path fill="rgb(91, 79, 63)" d="M10 3.237c-0.356 0-0.706 0.028-1.048 0.081l0.326 2.164c0.228-0.035 0.485-0.057 0.722-0.057s0.471 0.018 0.699 0.053l0.141-0.849 0.201-1.313c-0.339-0.052-0.687-0.080-1.040-0.080z"></path>
<path fill="rgb(91, 79, 63)" d="M10.718 14.518c-0.234 0.037-0.474 0.056-0.718 0.056s-0.486-0.020-0.72-0.057l-0.13 0.794-0.206 1.368c0.344 0.054 0.697 0.082 1.056 0.082 0.357 0 0.707-0.028 1.049-0.081l-0.331-2.164z"></path>
<path fill="rgb(91, 79, 63)" d="M13.061 3.969l-0.628 1.211-0.37 0.737c0.424 0.215 0.81 0.494 1.146 0.824l0.691-0.682 0.856-0.866c-0.496-0.49-1.067-0.905-1.694-1.224z"></path>
<path fill="rgb(236, 237, 226)" d="M13.045 3.961c-0.615-0.311-1.283-0.53-1.988-0.641-0.006-0.001-0.011-0.002-0.017-0.003l-0.201 1.313-0.141 0.849c0.004 0.001 0.007 0.001 0.011 0.002 0.476 0.074 0.928 0.222 1.344 0.431 0.003 0.002 0.006 0.003 0.010 0.005l0.37-0.737 0.628-1.211c-0.005-0.003-0.011-0.005-0.016-0.008z"></path>
<path fill="rgb(91, 79, 63)" d="M6.754 13.223l-0.661 0.655-0.882 0.897c0.496 0.497 1.068 0.917 1.698 1.242l0.649-1.258 0.346-0.692c-0.427-0.22-0.814-0.506-1.149-0.844z"></path>
<path fill="rgb(236, 237, 226)" d="M9.269 14.516c-0.482-0.077-0.938-0.23-1.357-0.445-0.003-0.002-0.006-0.003-0.009-0.005l-0.346 0.692-0.649 1.258c0.005 0.003 0.011 0.006 0.016 0.008 0.618 0.316 1.291 0.539 2.001 0.653 0.006 0.001 0.012 0.002 0.018 0.003l0.206-1.368 0.13-0.794c-0.003-0.001-0.007-0.001-0.010-0.002z"></path>
<path fill="rgb(236, 237, 226)" d="M16.021 6.918c-0.005-0.010-0.010-0.020-0.016-0.030-0.325-0.625-0.744-1.193-1.239-1.685-0.004-0.004-0.007-0.007-0.011-0.011l-0.856 0.866-0.691 0.682c0.003 0.003 0.006 0.006 0.009 0.009 0.338 0.334 0.623 0.72 0.844 1.146 0 0 0 0 0 0l1.959-0.977z"></path>
<path fill="rgb(236, 237, 226)" d="M6.746 13.214c-0.336-0.34-0.619-0.733-0.836-1.165-0-0-0-0-0-0l-1.956 0.981c0.005 0.010 0.010 0.020 0.015 0.030 0.321 0.631 0.738 1.205 1.232 1.703 0.004 0.004 0.007 0.008 0.011 0.011l0.882-0.897 0.661-0.655c-0.003-0.003-0.005-0.006-0.008-0.008z"></path>
<path fill="rgb(91, 79, 63)" d="M16.021 6.918l-1.959 0.977c0.217 0.417 0.371 0.872 0.45 1.352l1.084-0.163 1.078-0.176c-0.115-0.706-0.338-1.375-0.653-1.99z"></path>
<path fill="rgb(91, 79, 63)" d="M5.477 10.686l-1.074 0.164-1.087 0.18c0.108 0.709 0.327 1.382 0.638 2l1.956-0.981c-0.211-0.421-0.36-0.88-0.433-1.363z"></path>
<path fill="rgb(91, 79, 63)" d="M15.585 10.849l-1.062-0.162c-0.072 0.481-0.22 0.937-0.43 1.356l0.483 0.25 1.47 0.738c0.311-0.619 0.53-1.291 0.638-2l-1.1-0.182z"></path>
<path fill="rgb(236, 237, 226)" d="M16.677 8.921c-0.001-0.004-0.001-0.009-0.002-0.013l-1.078 0.176-1.084 0.163c0.001 0.004 0.001 0.009 0.002 0.013 0.039 0.241 0.060 0.488 0.060 0.741 0 0.229-0.017 0.454-0.049 0.673-0.001 0.004-0.001 0.009-0.002 0.013l1.062 0.162 1.1 0.182c0.001-0.004 0.001-0.009 0.002-0.014 0.050-0.332 0.076-0.671 0.076-1.017 0-0.367-0.030-0.728-0.086-1.079z"></path>
<path fill="rgb(91, 79, 63)" d="M5.432 7.642l-1.452-0.724c-0.315 0.615-0.539 1.284-0.654 1.99l1.092 0.178 1.070 0.161c0.079-0.477 0.232-0.93 0.447-1.345l-0.503-0.26z"></path>
<path fill="rgb(236, 237, 226)" d="M5.488 9.246l-1.070-0.161-1.092-0.178c-0.001 0.004-0.002 0.009-0.002 0.013-0.056 0.352-0.086 0.712-0.086 1.080 0 0.346 0.026 0.685 0.076 1.017 0.001 0.004 0.001 0.009 0.002 0.013l1.087-0.18 1.074-0.164c-0.001-0.004-0.001-0.009-0.002-0.013-0.032-0.22-0.049-0.444-0.049-0.673 0-0.252 0.021-0.5 0.060-0.741 0.001-0.004 0.001-0.009 0.002-0.013z"></path>
<path fill="rgb(91, 79, 63)" d="M13.772 13.732l-0.521-0.515c-0.336 0.34-0.726 0.627-1.154 0.849l0.161 0.321 0.84 1.625c0.63-0.325 1.201-0.746 1.697-1.243l-1.022-1.037z"></path>
<path fill="rgb(236, 237, 226)" d="M14.576 12.293l-0.483-0.25c-0.001 0.002-0.002 0.004-0.003 0.007-0.216 0.43-0.498 0.822-0.832 1.161-0.002 0.002-0.004 0.005-0.007 0.007l0.521 0.515 1.022 1.037c0.004-0.004 0.009-0.009 0.013-0.014 0.493-0.498 0.909-1.073 1.229-1.705 0.003-0.007 0.007-0.013 0.010-0.020l-1.47-0.738z"></path>
<path fill="rgb(91, 79, 63)" d="M7.754 5.553l-0.822-1.581c-0.627 0.32-1.198 0.735-1.693 1.226l0.997 1.007 0.55 0.541c0.337-0.332 0.724-0.613 1.151-0.829l-0.183-0.363z"></path>
<path fill="rgb(236, 237, 226)" d="M6.236 6.204l-0.997-1.007c-0.004 0.004-0.009 0.009-0.013 0.013-0.494 0.493-0.913 1.062-1.236 1.687-0.003 0.007-0.007 0.013-0.010 0.019l1.452 0.724 0.503 0.26c0.001-0.002 0.002-0.005 0.004-0.007 0.22-0.424 0.505-0.809 0.841-1.142 0.002-0.002 0.005-0.005 0.007-0.007l-0.55-0.541z"></path>
<path fill="rgb(236, 237, 226)" d="M12.257 14.388l-0.161-0.321c-0.001 0.001-0.003 0.002-0.004 0.002-0.423 0.218-0.885 0.372-1.372 0.449-0.001 0-0.001 0-0.002 0l0.331 2.164c0.008-0.001 0.017-0.003 0.025-0.004 0.71-0.113 1.383-0.337 2.001-0.653 0.008-0.004 0.015-0.008 0.023-0.012l-0.84-1.625z"></path>
<path fill="rgb(236, 237, 226)" d="M9.049 3.959l-0.096-0.641c-0.003 0.001-0.006 0.001-0.010 0.002-0.705 0.111-1.373 0.33-1.988 0.641-0.007 0.004-0.015 0.007-0.022 0.011l0.822 1.581 0.183 0.363c0.002-0.001 0.003-0.002 0.005-0.002 0.413-0.209 0.839-0.352 1.313-0.428 0.008-0.001 0.015-0.003 0.023-0.004l-0.229-1.524z"></path>
<path fill="rgb(12, 163, 66)" d="M14.061 7.895l0.001-0v-0z"></path>
<path fill="rgb(12, 163, 66)" d="M5.91 12.049l0 0 0.026-0.013z"></path>
<path fill="rgb(226, 41, 41)" d="M10.686 14.309l-0.014-0.084c-0.219 0.035-0.444 0.053-0.673 0.053s-0.46-0.016-0.679-0.050l-0.041 0.289c0.235 0.037 0.475 0.057 0.72 0.057s0.484-0.019 0.718-0.056l-0.032-0.209z"></path>
<path fill="rgb(12, 163, 66)" d="M10.71 5.481c-0.004-0.001-0.007-0.001-0.011-0.002l-0.048 0.292c0.005 0.001 0.010 0.002 0.015 0.002 0.444 0.069 0.865 0.207 1.252 0.401l0.146-0.258c-0.416-0.209-0.877-0.362-1.353-0.436z"></path>
<path fill="rgb(12, 163, 66)" d="M8.048 13.808c-0.004-0.002-0.008-0.004-0.012-0.006l-0.132 0.265c0.003 0.002 0.006 0.003 0.009 0.005 0.419 0.215 0.886 0.369 1.367 0.447l0.041-0.289c-0.449-0.072-0.882-0.219-1.273-0.42z"></path>
<path fill="rgb(12, 163, 66)" d="M13.209 6.74l-0.199 0.219c0.315 0.311 0.581 0.671 0.788 1.068l0.265-0.132c-0.221-0.425-0.516-0.82-0.853-1.154z"></path>
<path fill="rgb(226, 41, 41)" d="M12.063 5.917c-0.003-0.002-0.146 0.258-0.146 0.258 0.004 0.002 0.009 0.004 0.013 0.006 0.395 0.2 0.755 0.46 1.068 0.767 0.004 0.004 0.008 0.007 0.011 0.011 0 0 0.202-0.216 0.199-0.219-0.335-0.33-0.721-0.609-1.146-0.824z"></path>
<path fill="rgb(12, 163, 66)" d="M6.174 11.917l-0.238 0.12-0.026 0.013c0.217 0.432 0.508 0.833 0.844 1.173l0.199-0.219c-0.313-0.318-0.577-0.684-0.779-1.087z"></path>
<path fill="rgb(226, 41, 41)" d="M6.964 13.015c-0.004-0.004-0.007-0.007-0.011-0.011 0 0-0.202 0.216-0.199 0.219 0.335 0.338 0.723 0.623 1.149 0.844l0.132-0.265c-0.398-0.206-0.759-0.472-1.072-0.787z"></path>
<path fill="rgb(12, 163, 66)" d="M13.797 8.027c0.001 0.001 0.001 0.003 0.002 0.004l0.262-0.136-0.264 0.132z"></path>
<path fill="rgb(12, 163, 66)" d="M6.172 11.913l-0.237 0.123 0.238-0.12c-0.001-0.001-0.001-0.002-0.002-0.004z"></path>
<path fill="rgb(226, 41, 41)" d="M14.062 7.895l-0.001 0-0.262 0.136c0.202 0.389 0.346 0.812 0.421 1.26 0.001 0.006 0.002 0.011 0.003 0.017 0 0 0.29-0.056 0.29-0.061-0.080-0.48-0.234-0.935-0.45-1.352z"></path>
<path fill="rgb(226, 41, 41)" d="M5.767 10.625c0 0-0.291 0.057-0.29 0.061 0.073 0.483 0.221 0.942 0.433 1.363l0.026-0.013 0.237-0.123c-0.197-0.393-0.337-0.837-0.405-1.288z"></path>
<path fill="rgb(12, 163, 66)" d="M14.512 9.246l-0.29 0.061c0.037 0.226 0.056 0.457 0.056 0.693 0 0.212-0.016 0.421-0.046 0.625-0.001 0.006-0.001 0.011-0.002 0.017l0.292 0.045c0.001-0.004 0.001-0.009 0.002-0.013 0.032-0.22 0.049-0.445 0.049-0.673 0-0.252-0.023-0.513-0.062-0.754z"></path>
<path fill="rgb(226, 41, 41)" d="M5.935 7.901c-0.215 0.415-0.368 0.868-0.447 1.345l0.292 0.044c0.074-0.445 0.222-0.877 0.423-1.264l-0.268-0.125z"></path>
<path fill="rgb(12, 163, 66)" d="M5.78 9.29l-0.292-0.044c-0.001 0.004-0.001 0.009-0.002 0.013-0.039 0.241-0.060 0.489-0.060 0.741 0 0.229 0.019 0.467 0.051 0.686l0.29-0.061c-0.030-0.204-0.046-0.413-0.046-0.625 0-0.236 0.019-0.468 0.056-0.693 0.001-0.006 0.002-0.011 0.003-0.017z"></path>
<path fill="rgb(226, 41, 41)" d="M14.231 10.642c-0.067 0.448-0.205 0.874-0.4 1.265-0.002 0.003-0.003 0.007-0.005 0.010 0 0 0.266 0.128 0.268 0.126 0.21-0.419 0.357-0.876 0.43-1.356l-0.292-0.045z"></path>
<path fill="rgb(226, 41, 41)" d="M5.935 7.901l0.263 0.136c0.002-0.003 0.004-0.007 0.005-0.010 0 0-0.267-0.128-0.268-0.125z"></path>
<path fill="rgb(226, 41, 41)" d="M13.041 13.010c-0.314 0.317-0.685 0.589-1.084 0.796l0.14 0.26c0.429-0.222 0.818-0.509 1.154-0.849l-0.21-0.208z"></path>
<path fill="rgb(12, 163, 66)" d="M13.826 11.917c-0.201 0.401-0.464 0.766-0.776 1.083-0.003 0.003-0.006 0.006-0.009 0.010l0.21 0.208c0.002-0.002 0.004-0.005 0.007-0.007 0.335-0.339 0.62-0.737 0.836-1.168l-0.268-0.126z"></path>
<path fill="rgb(12, 163, 66)" d="M6.786 6.745c-0.002 0.002-0.005 0.005-0.007 0.007-0.336 0.333-0.624 0.725-0.844 1.149l0.268 0.125c0.206-0.395 0.471-0.753 0.784-1.064 0.003-0.003 0.007-0.006 0.010-0.010l-0.211-0.207z"></path>
<path fill="rgb(12, 163, 66)" d="M10.674 14.226c-0 0-0.001 0-0.001 0l0.014 0.084-0.013-0.084z"></path>
<path fill="rgb(12, 163, 66)" d="M11.957 13.806c-0.396 0.204-0.827 0.348-1.283 0.42l0.013 0.084 0.034 0.208c0.487-0.077 0.949-0.231 1.372-0.449 0.002-0.001 0.003-0.002 0.004-0.002 0 0-0.137-0.262-0.14-0.26z"></path>
<path fill="rgb(12, 163, 66)" d="M9.278 5.483c-0.473 0.075-0.928 0.225-1.341 0.434l0.142 0.26c0.385-0.194 0.803-0.331 1.243-0.401l-0.044-0.292z"></path>
<path fill="rgb(226, 41, 41)" d="M10 5.426c-0.238 0-0.494 0.022-0.722 0.057-0.008 0.001 0.044 0.292 0.044 0.292 0.009-0.001 0.018-0.003 0.028-0.005 0.212-0.032 0.43-0.049 0.651-0.049s0.438 0.017 0.65 0.049l0.048-0.292c-0.228-0.035-0.461-0.053-0.699-0.053z"></path>
<path fill="rgb(226, 41, 41)" d="M7.937 5.917c-0.426 0.216-0.814 0.496-1.151 0.829l0.211 0.207c0.314-0.309 0.675-0.571 1.073-0.772 0.003-0.001 0.006-0.003 0.009-0.004 0 0-0.14-0.261-0.142-0.26z"></path>
<path fill="rgb(236, 237, 226)" d="M10.665 5.773c-0.005-0.001-0.010-0.002-0.015-0.002l-0.57 3.432c0.020 0.002 0.039 0.005 0.059 0.009 0.061 0.011 0.12 0.028 0.176 0.052l1.602-3.088c-0.387-0.195-0.808-0.332-1.252-0.401z"></path>
<path fill="rgb(91, 79, 63)" d="M10.111 10.794c-0.036 0.005-0.073 0.009-0.111 0.009s-0.075-0.004-0.111-0.009c-0.020-0.003-0.039-0.006-0.058-0.010l-0.51 3.444c0.005 0.001 0.009 0.002 0.014 0.002 0.219 0.035 0.436 0.048 0.665 0.048s0.453-0.018 0.673-0.053l-0.562-3.432z"></path>
<path fill="rgb(236, 237, 226)" d="M9.642 10.717c-0.018-0.009-0.035-0.018-0.052-0.028l-1.555 3.113c0.004 0.002 0.008 0.004 0.012 0.006 0.391 0.201 0.824 0.348 1.273 0.42l0.51-3.444c-0.067-0.014-0.13-0.037-0.189-0.067z"></path>
<path fill="rgb(91, 79, 63)" d="M12.998 6.948c-0.313-0.307-0.673-0.567-1.068-0.767-0.004-0.002-0.009-0.004-0.013-0.006l-1.602 3.088c0.018 0.008 0.036 0.017 0.054 0.026 0.055 0.029 0.106 0.063 0.153 0.103 0.015 0.013 0.030 0.026 0.044 0.040l2.443-2.473c-0.004-0.004-0.008-0.007-0.011-0.011z"></path>
<path fill="rgb(91, 79, 63)" d="M9.433 10.567c-0.014-0.014-0.027-0.029-0.040-0.044l-2.44 2.48c0.004 0.004 0.007 0.007 0.011 0.011 0.313 0.315 0.674 0.581 1.072 0.787l1.555-3.113c-0.057-0.034-0.111-0.075-0.158-0.122z"></path>
<path fill="rgb(236, 237, 226)" d="M13.797 8.027c-0.206-0.396-0.473-0.756-0.788-1.068l-2.443 2.473c0.044 0.044 0.083 0.094 0.116 0.148 0.010 0.016 0.020 0.033 0.029 0.050l3.088-1.599c-0.001-0.001-0.001-0.003-0.002-0.004z"></path>
<path fill="rgb(236, 237, 226)" d="M9.283 10.358c-0.009-0.017-0.017-0.034-0.024-0.052l-3.086 1.607c0.001 0.001 0.001 0.002 0.002 0.004 0.202 0.403 0.466 0.769 0.779 1.087l2.44-2.48c-0.043-0.050-0.080-0.106-0.11-0.166z"></path>
<path fill="rgb(91, 79, 63)" d="M14.22 9.29c-0.075-0.447-0.219-0.871-0.421-1.26l-3.088 1.599c0.029 0.056 0.051 0.116 0.067 0.178 0.005 0.019 0.009 0.039 0.012 0.059l3.432-0.56c-0.001-0.006-0.002-0.011-0.003-0.017z"></path>
<path fill="rgb(91, 79, 63)" d="M9.207 10.116c-0.003-0.020-0.005-0.039-0.007-0.059l-3.434 0.568c0.001 0.006 0.002 0.011 0.002 0.017 0.068 0.451 0.206 0.878 0.403 1.271l3.086-1.607c-0.025-0.060-0.042-0.123-0.051-0.189z"></path>
<path fill="rgb(236, 237, 226)" d="M14.223 9.307l-3.432 0.56c0.007 0.043 0.012 0.088 0.012 0.133 0 0.019-0.002 0.038-0.003 0.057-0.001 0.020-0.004 0.040-0.007 0.059l3.438 0.526c0.001-0.006 0.002-0.011 0.002-0.017 0.030-0.204 0.046-0.413 0.046-0.625-0-0.236-0.019-0.467-0.056-0.693z"></path>
<path fill="rgb(236, 237, 226)" d="M9.222 9.808l-3.442-0.518c-0.001 0.006-0.002 0.011-0.003 0.017-0.037 0.226-0.056 0.457-0.056 0.693 0 0.212 0.016 0.421 0.046 0.625l3.434-0.568c-0.001-0.019-0.003-0.038-0.003-0.057 0-0.046 0.005-0.090 0.012-0.133 0.003-0.020 0.007-0.039 0.012-0.059z"></path>
<path fill="rgb(91, 79, 63)" d="M10.793 10.117c-0.010 0.066-0.026 0.129-0.051 0.188-0.007 0.018-0.016 0.036-0.025 0.053l3.109 1.559c0.002-0.003 0.003-0.007 0.005-0.010 0.195-0.391 0.332-0.817 0.4-1.265l-3.438-0.525z"></path>
<path fill="rgb(91, 79, 63)" d="M6.203 8.026c-0.002 0.003-0.004 0.007-0.005 0.010-0.2 0.387-0.343 0.809-0.417 1.253l3.442 0.518c0.015-0.062 0.037-0.122 0.066-0.177 0.009-0.017 0.019-0.034 0.029-0.051l-3.115-1.553z"></path>
<path fill="rgb(236, 237, 226)" d="M10.717 10.358c-0.030 0.060-0.066 0.115-0.109 0.165-0.013 0.015-0.026 0.030-0.040 0.044l2.473 2.444c0.003-0.003 0.006-0.006 0.009-0.010 0.312-0.317 0.574-0.682 0.776-1.083l-3.109-1.559z"></path>
<path fill="rgb(236, 237, 226)" d="M6.997 6.953c-0.003 0.003-0.007 0.006-0.010 0.010-0.313 0.311-0.578 0.669-0.784 1.064l3.115 1.554c0.033-0.053 0.071-0.103 0.115-0.147 0.014-0.014 0.029-0.027 0.044-0.040l-2.48-2.44z"></path>
<path fill="rgb(236, 237, 226)" d="M10.359 10.717c-0.066 0.033-0.136 0.057-0.211 0.071-0.012 0.002-0.025 0.004-0.037 0.006l0.562 3.432c0-0 0.001-0 0.001-0 0.456-0.072 0.887-0.216 1.283-0.42l-1.598-3.089z"></path>
<path fill="rgb(91, 79, 63)" d="M10.568 10.566c-0.047 0.047-0.101 0.088-0.158 0.123-0.017 0.010-0.034 0.019-0.051 0.028l1.598 3.089c0.003-0.001 0.005-0.003 0.008-0.004 0.4-0.207 0.762-0.475 1.076-0.792l-2.473-2.444z"></path>
<path fill="rgb(236, 237, 226)" d="M9.322 5.775c-0.441 0.070-0.859 0.208-1.243 0.401l1.605 3.087c0.050-0.021 0.102-0.038 0.156-0.049l-0.517-3.439z"></path>
<path fill="rgb(91, 79, 63)" d="M10 5.721c-0.221 0-0.439 0.017-0.651 0.049-0.009 0.001-0.018 0.003-0.028 0.005l0.517 3.439c0.026-0.005 0.053-0.009 0.080-0.012s0.054-0.004 0.081-0.004c0.027 0 0.054 0.001 0.081 0.004l0.57-3.432c-0.212-0.032-0.429-0.049-0.65-0.049z"></path>
<path fill="rgb(91, 79, 63)" d="M8.078 6.176c-0.003 0.001-0.006 0.003-0.009 0.004-0.397 0.201-0.759 0.462-1.073 0.772l2.48 2.44c0.047-0.040 0.098-0.075 0.154-0.104 0.017-0.009 0.035-0.018 0.053-0.025l-1.605-3.087z"></path>
<path fill="rgb(226, 41, 41)" d="M10.381 10c0 0.21-0.17 0.381-0.381 0.381s-0.381-0.17-0.381-0.381c0-0.21 0.17-0.381 0.381-0.381s0.381 0.17 0.381 0.381z"></path>
</svg>
