<?xml version="1.0" encoding="utf-8"?>
<!-- Generated by IcoMoon.io -->
<!DOCTYPE svg PUBLIC "-//W3C//DTD SVG 1.1//EN" "http://www.w3.org/Graphics/SVG/1.1/DTD/svg11.dtd">
<svg version="1.1" xmlns="http://www.w3.org/2000/svg" xmlns:xlink="http://www.w3.org/1999/xlink" width="20" height="20" viewBox="0 0 20 20">
<path fill="rgb(74, 188, 150)" d="M10 0.31c-5.352 0-9.691 4.338-9.691 9.691s4.339 9.69 9.691 9.69c5.352 0 9.69-4.339 9.69-9.69s-4.339-9.691-9.69-9.691z"></path>
<path fill="rgb(50, 53, 49)" d="M12.92 14.878l-0.717-1.646c-0.010-0.023-0.029-0.042-0.053-0.051l-0.225-0.087-0.546-2.788c0.199-0.099 0.754-0.414 0.768-0.836 0.009-0.259-0.182-0.499-0.568-0.714 0.024-0.14 0.058-0.441-0.058-0.609-0.022-0.032-0.049-0.058-0.079-0.078 0.112-0.277 0.171-0.737-0.232-0.986-0.006-0.009-0.016-0.039-0.005-0.1l0.631-2.010c0.005-0.017 0.006-0.036 0.001-0.053-0.010-0.039-0.278-0.973-1.838-0.915-1.563-0.057-1.828 0.876-1.838 0.915-0.005 0.017-0.004 0.036 0.001 0.053l0.631 2.010c0.011 0.060 0.001 0.090-0.005 0.099-0.403 0.248-0.344 0.709-0.232 0.986-0.030 0.020-0.057 0.046-0.079 0.078-0.116 0.168-0.082 0.469-0.058 0.609-0.386 0.215-0.577 0.455-0.568 0.714 0.014 0.422 0.569 0.736 0.768 0.836l-0.546 2.788-0.225 0.087c-0.024 0.009-0.043 0.027-0.053 0.051l-0.717 1.646c-0.005 0.012-0.008 0.025-0.008 0.038v1.804c0 0.021 0.007 0.041 0.019 0.057 0.541 0.719 1.857 0.976 2.909 0.976s2.368-0.256 2.909-0.976c0.012-0.016 0.019-0.036 0.019-0.057v-1.804c0-0.013-0.003-0.026-0.008-0.038z"></path>
<path fill="rgb(58, 63, 57)" d="M12.149 13.181l-0.225-0.087h-3.848l-0.225 0.087c-0.024 0.009-0.043 0.027-0.053 0.051 0 0 1.151 0.46 2.202 0.46s2.202-0.46 2.202-0.46c-0.010-0.023-0.029-0.042-0.053-0.051z"></path>
<path fill="rgb(25, 30, 24)" d="M12.147 9.471c0.009-0.259-0.182-0.499-0.568-0.714 0.024-0.14 0.058-0.441-0.058-0.609-0.022-0.032-0.049-0.058-0.079-0.078 0.112-0.277 0.171-0.737-0.232-0.986-0.006-0.009-0.016-0.039-0.005-0.1l0.631-2.010c0.005-0.017 0.006-0.036 0.001-0.053-0.010-0.039-0.278-0.973-1.838-0.915-1.563-0.057-1.828 0.876-1.838 0.915-0.005 0.017-0.004 0.036 0.001 0.053l0.631 2.010c0.011 0.060 0.001 0.090-0.005 0.099-0.403 0.248-0.344 0.709-0.232 0.986-0.030 0.020-0.057 0.046-0.079 0.078-0.116 0.168-0.082 0.469-0.058 0.609-0.386 0.215-0.577 0.455-0.568 0.714 0.014 0.422 0.569 0.736 0.768 0.836l-0.546 2.788c0 0 0.842 0.365 1.94 0.365s1.909-0.365 1.909-0.365l-0.546-2.788c0.199-0.099 0.754-0.414 0.768-0.836z"></path>
<path fill="rgb(9, 10, 9)" d="M11.578 8.896c0.024-0.14-3.181-0.14-3.157 0-0.386 0.215-0.577 0.455-0.568 0.714 0.014 0.422 0.569 0.736 0.768 0.836 0 0 0.692 0.277 1.356 0.277s1.401-0.277 1.401-0.277c0.199-0.099 0.754-0.414 0.768-0.836 0.009-0.259-0.182-0.499-0.568-0.714z"></path>
<path fill="rgb(25, 30, 24)" d="M11.578 8.757c0 0-0.937 0.319-1.575 0.319s-1.582-0.319-1.582-0.319c-0.386 0.215-0.577 0.455-0.568 0.714 0.014 0.422 0.569 0.736 0.768 0.836 0 0 0.692 0.277 1.356 0.277s1.401-0.277 1.401-0.277c0.199-0.099 0.754-0.414 0.768-0.836 0.009-0.259-0.182-0.499-0.568-0.714z"></path>
<path fill="rgb(58, 63, 57)" d="M11.838 4.921c-0.010-0.039-0.278-0.973-1.838-0.915-1.563-0.057-1.828 0.876-1.838 0.915-0.005 0.017-0.004 0.036 0.001 0.053 0 0 0.476 0.494 1.884 0.494s1.789-0.494 1.789-0.494c0.005-0.017 0.006-0.036 0.001-0.053z"></path>
<path fill="rgb(36, 44, 35)" d="M12.92 14.878c0 0-0.773 0.587-2.883 0.587s-2.957-0.587-2.957-0.587c-0.005 0.012-0.008 0.025-0.008 0.038v1.804c0 0.021 0.007 0.041 0.019 0.057 0.541 0.719 1.857 0.976 2.909 0.976s2.368-0.256 2.909-0.976c0.012-0.016 0.019-0.036 0.019-0.057v-1.804c0-0.013-0.003-0.026-0.008-0.038z"></path>
<path fill="rgb(25, 30, 24)" d="M9.557 2.248h0.87v2.477h-0.87v-2.477z"></path>
<path fill="rgb(25, 30, 24)" d="M8.991 2.766h2.002v0.902h-2.002v-0.902z"></path>
<path fill="rgb(58, 63, 57)" d="M11.591 8.749c0.015-0.15 0.014-0.341-0.070-0.462-0.022-0.032-0.049-0.058-0.079-0.078 0 0-0.801 0.288-1.438 0.288s-1.446-0.288-1.446-0.288c-0.030 0.020-0.057 0.046-0.079 0.078-0.083 0.121-0.085 0.31-0.070 0.459 0 0-0.223 0.11-0.215 0.15 0 0 0.934 0.409 1.826 0.408 0.879-0.001 1.785-0.408 1.785-0.408 0.008-0.039-0.215-0.147-0.215-0.147z"></path>
<path fill="rgb(25, 30, 24)" d="M11.521 8.148c-0.022-0.032-0.049-0.058-0.079-0.078 0 0-0.801 0.288-1.438 0.288s-1.446-0.288-1.446-0.288c-0.030 0.020-0.057 0.046-0.079 0.078-0.116 0.168-0.082 0.469-0.058 0.609 0 0 0.706 0.409 1.599 0.408 0.879-0.001 1.558-0.408 1.558-0.408 0.024-0.14 0.058-0.441-0.058-0.609z"></path>
<path fill="rgb(58, 63, 57)" d="M11.452 8.073c0.081-0.274 0.1-0.638-0.242-0.85-0.006-0.009-0.016-0.179-0.005-0.239 0 0-0.564 0.164-1.202 0.164s-1.209-0.164-1.209-0.164c0.011 0.060 0.001 0.23-0.005 0.239-0.342 0.211-0.323 0.575-0.242 0.85 0 0-0.115 0.095-0.097 0.137-0.016 0.010 0.801 0.308 1.519 0.308 0.738 0 1.594-0.298 1.578-0.308 0.018-0.042-0.097-0.136-0.097-0.136z"></path>
<path fill="rgb(25, 30, 24)" d="M11.21 7.084c-0.006-0.009-0.569 0.178-1.207 0.178s-1.208-0.187-1.214-0.178c-0.403 0.248-0.344 0.709-0.232 0.986-0.015 0.010 0.694 0.308 1.413 0.308 0.738 0 1.487-0.298 1.471-0.308 0.112-0.277 0.171-0.737-0.232-0.986z"></path>
</svg>
