<?xml version="1.0" encoding="utf-8"?>
<!-- Generator: Adobe Illustrator 16.0.0, SVG Export Plug-In . SVG Version: 6.00 Build 0)  -->
<!DOCTYPE svg PUBLIC "-//W3C//DTD SVG 1.1//EN" "http://www.w3.org/Graphics/SVG/1.1/DTD/svg11.dtd">
<svg version="1.1" id="Layer_1" xmlns="http://www.w3.org/2000/svg" xmlns:xlink="http://www.w3.org/1999/xlink" x="0px" y="0px"
	 width="20px" height="20px" viewBox="0 0 20 20" enable-background="new 0 0 20 20" xml:space="preserve">
<g>
	<path fill="#344E5D" d="M19.69,10c0,5.352-4.339,9.69-9.69,9.69S0.31,15.352,0.31,10c0-5.351,4.339-9.69,9.69-9.69
		S19.69,4.648,19.69,10z"/>
	<path fill="#D35959" d="M10.149,3.91c-3.423,0-6.197,2.774-6.197,6.197s2.774,6.197,6.197,6.197s6.198-2.774,6.198-6.197
		S13.572,3.91,10.149,3.91z M10.149,15.386c-2.916,0-5.278-2.363-5.278-5.278s2.362-5.278,5.278-5.278s5.279,2.363,5.279,5.278
		S13.064,15.386,10.149,15.386z"/>
	<path fill="#D35959" d="M10.149,5.67c-2.45,0-4.438,1.987-4.438,4.438c0,2.451,1.987,4.438,4.438,4.438s4.438-1.986,4.438-4.438
		C14.587,7.657,12.6,5.67,10.149,5.67z M10.149,13.888c-2.087,0-3.779-1.692-3.779-3.78c0-2.087,1.692-3.779,3.779-3.779
		c2.088,0,3.78,1.692,3.78,3.779C13.93,12.195,12.237,13.888,10.149,13.888z"/>
	<path fill="#CD4F4F" d="M10.149,7.2c-1.605,0-2.907,1.302-2.907,2.907s1.302,2.908,2.907,2.908s2.908-1.303,2.908-2.908
		S11.755,7.2,10.149,7.2z M10.149,12.43c-1.283,0-2.324-1.039-2.324-2.323s1.04-2.324,2.324-2.324s2.323,1.04,2.323,2.324
		S11.434,12.43,10.149,12.43z"/>
	<path fill="#C54342" d="M10.149,11.081c-0.537,0-0.973-0.436-0.973-0.974c0-0.537,0.436-0.973,0.973-0.973
		c0.538,0,0.974,0.436,0.974,0.973C11.123,10.646,10.688,11.081,10.149,11.081z"/>
	<path fill="#C93435" d="M13.216,7.224l1.528,0.352l2.526-2.526l-1.528-0.353L13.216,7.224z"/>
	<path fill="#E79E2D" d="M16.158,4.916l-0.152-0.587l-0.587-0.152L9.773,9.822v0.739h0.74L16.158,4.916z"/>
	<path fill="#F2BE3E" d="M16.006,4.329l-0.587-0.152L9.773,9.822v0.739L16.006,4.329z"/>
	<path fill="#F9CA62" d="M16.158,4.935l-0.613-0.147L15.4,4.177l0.613,0.147L16.158,4.935z"/>
	<path fill="#C93435" d="M11.305,6.79l1.527,0.352l2.526-2.526l-1.527-0.353L11.305,6.79z"/>
</g>
</svg>
