<?xml version="1.0" encoding="utf-8"?>
<!-- Generator: Adobe Illustrator 16.0.0, SVG Export Plug-In . SVG Version: 6.00 Build 0)  -->
<!DOCTYPE svg PUBLIC "-//W3C//DTD SVG 1.1//EN" "http://www.w3.org/Graphics/SVG/1.1/DTD/svg11.dtd">
<svg version="1.1" id="Layer_1" xmlns="http://www.w3.org/2000/svg" xmlns:xlink="http://www.w3.org/1999/xlink" x="0px" y="0px"
	 width="20px" height="20px" viewBox="0 0 20 20" enable-background="new 0 0 20 20" xml:space="preserve">
<g>
	<path fill="#FFC200" d="M19.689,10c0,5.352-4.338,9.689-9.69,9.689c-5.352,0-9.689-4.338-9.689-9.689
		c0-5.351,4.338-9.689,9.689-9.689C15.352,0.311,19.689,4.648,19.689,10z"/>
	<path fill="#97A0A0" d="M11.922,6.154l0.393,0.475l0.012-0.008c0.439-0.378,0.529-0.456,1.012,0.132l0.406,0.492
		c0.361,0.437,0.348,0.459,0.125,0.876l-2.043,2.959c-0.086,0.127-0.008,0.194,0.117,0.338c0.051,0.058,0.109,0.125,0.152,0.176
		l0.064,0.078l1.258-1.037l0.08,1.161l-0.18,0.147l2.27,2.752c0.107,0.131,0.088,0.323-0.041,0.431l-0.869,0.716
		c-0.129,0.108-0.324,0.089-0.432-0.041l-2.27-2.751l-0.188,0.155l-1.146-0.28l1.248-1.03l-0.066-0.08
		c-0.068-0.084-0.109-0.131-0.145-0.17c-0.266-0.307-0.387-0.408-0.176-0.713l2.059-2.975c0.119-0.222,0.125-0.233-0.086-0.491
		L13.07,6.974c-0.26-0.312-0.303-0.275-0.518-0.09l-0.016,0.014L12.9,7.337c0.17,0.206,0.141,0.514-0.066,0.684L7.39,12.512
		c-0.207,0.172-0.514,0.141-0.685-0.065l-0.361-0.438L5.95,12.334c0,0-0.088,0.002-0.167-0.096c-0.08-0.096-0.055-0.174-0.055-0.174
		l0.395-0.324l-0.393-0.478c-0.17-0.207-0.14-0.515,0.066-0.685l5.444-4.491c0.207-0.169,0.516-0.14,0.684,0.066l0,0L11.922,6.154z
		 M6.392,10.457l0.24,0.288l4.806-3.991l-0.24-0.288L6.392,10.457z"/>
	<path fill="#1CAAB9" d="M11.922,6.154l0.977,1.184c0.172,0.206,0.141,0.514-0.064,0.683l-5.445,4.492
		c-0.206,0.17-0.514,0.14-0.684-0.066L6.344,12.01l-0.615-0.746c-0.17-0.207-0.14-0.515,0.066-0.684l5.446-4.492
		c0.207-0.169,0.514-0.14,0.684,0.066l0,0H11.922z"/>
	<path fill="#3EB5B5" d="M11.922,6.154l0.52,0.63l-6.207,5.095l-0.114-0.137l-0.393-0.478c-0.17-0.207-0.14-0.515,0.066-0.684
		l5.446-4.492c0.207-0.169,0.514-0.14,0.684,0.066l0,0L11.922,6.154z"/>
	<path fill="#97A0A0" d="M12.314,6.63l0.012-0.008c0.439-0.377,0.529-0.456,1.012,0.132l0.406,0.492
		c0.361,0.437,0.348,0.459,0.125,0.876l-2.043,2.958c-0.086,0.127-0.008,0.195,0.117,0.34c0.051,0.058,0.109,0.125,0.152,0.176
		l0.064,0.078l-0.27,0.223l-0.066-0.08c-0.068-0.084-0.109-0.131-0.145-0.17c-0.266-0.307-0.387-0.408-0.176-0.713l2.059-2.975
		c0.119-0.222,0.125-0.233-0.086-0.491L13.07,6.976c-0.26-0.312-0.303-0.275-0.518-0.09l-0.016,0.014l-0.221-0.268L12.314,6.63z"/>
	<path fill="#1CAAB9" d="M5.691,6.844c-0.426-0.107-0.895-0.019-1.258,0.28l0,0C3.829,7.622,3.742,8.525,4.24,9.129l0.894,1.083
		l5.889-4.858L9.177,3.114c-0.265-0.32-0.742-0.366-1.062-0.103l0,0C7.794,3.276,7.748,3.755,8.013,4.074l0.511,0.621
		C8.364,4.7,8.205,4.757,8.073,4.865l0,0C8.007,4.92,7.952,4.984,7.91,5.053L7.519,4.578c-0.498-0.605-1.4-0.69-2.005-0.192l0,0
		c-0.604,0.498-0.69,1.402-0.192,2.005l0.372,0.451L5.691,6.844z"/>
	<path fill="#B14D26" d="M12.16,11.674c0,0,1.016-1.05,1.258-1.037s0.195,1.045,0.08,1.16c-0.117,0.116-0.18,0.148-0.18,0.148
		l2.27,2.75c0.107,0.131,0.088,0.325-0.041,0.431l-0.869,0.717c-0.129,0.107-0.324,0.089-0.432-0.041l-2.27-2.75
		c0,0-0.02-0.015-0.188,0.153c-0.166,0.167-1.146-0.043-1.146-0.279s1.248-1.031,1.248-1.031l0.27-0.223V11.674z"/>
	<path fill="#C15E28" d="M15.145,15.458l-0.467,0.385c-0.129,0.107-0.324,0.089-0.432-0.041l-2.27-2.75c0,0-0.02-0.015-0.188,0.153
		c-0.166,0.167-1.146-0.043-1.146-0.279s1.248-1.031,1.248-1.031l0.141-0.115l3.113,3.677V15.458z"/>
</g>
</svg>
