<?xml version="1.0" encoding="utf-8"?>
<!-- Generator: Adobe Illustrator 16.0.0, SVG Export Plug-In . SVG Version: 6.00 Build 0)  -->
<!DOCTYPE svg PUBLIC "-//W3C//DTD SVG 1.1//EN" "http://www.w3.org/Graphics/SVG/1.1/DTD/svg11.dtd">
<svg version="1.1" id="Layer_1" xmlns="http://www.w3.org/2000/svg" xmlns:xlink="http://www.w3.org/1999/xlink" x="0px" y="0px"
	 width="20px" height="20px" viewBox="0 0 20 20" enable-background="new 0 0 20 20" xml:space="preserve">
<g>
	<path fill="#67B8CB" d="M19.69,10c0,5.351-4.338,9.69-9.69,9.69S0.31,15.353,0.31,10c0-5.352,4.338-9.69,9.69-9.69
		S19.69,4.647,19.69,10z"/>
	<path fill="#FFF4E4" d="M15.381,14.849c0,0.293-0.238,0.532-0.532,0.532H5.152c-0.294,0-0.532-0.238-0.532-0.532V5.151
		c0-0.294,0.237-0.532,0.532-0.532h9.697c0.294,0,0.531,0.237,0.531,0.532V14.849L15.381,14.849z"/>
	<path fill="#DBF0F5" d="M14.866,13.343l-9.738-0.006l0.015-6.765l9.738,0.008L14.866,13.343z"/>
	<path fill="#6CC077" d="M14.758,12.135l-1.316-1.319c0,0-0.378-0.486-0.729-0.467c-0.315,0.018-0.685,0.412-0.754,0.49
		l-0.442-0.442c0,0-0.441-0.57-0.854-0.548c-0.411,0.023-0.902,0.595-0.902,0.595l-0.135,0.134L8.795,9.745
		c0,0-0.543-0.701-1.048-0.673S6.639,9.804,6.639,9.804l-1.4,1.398v2.032l9.519,0.006l0.001-1.107V12.135z"/>
	<path fill="#67B8CB" d="M10.601,8.284c0.002-0.011,0.009-0.021,0.009-0.031c0-0.174-0.188-0.314-0.418-0.314
		c-0.03,0-0.058,0.009-0.086,0.013C10.036,7.859,9.91,7.794,9.759,7.794c-0.195,0-0.351,0.106-0.389,0.245
		C9.18,8.077,9.038,8.2,9.037,8.354c0,0.147,0.128,0.268,0.301,0.312c0.06,0.133,0.223,0.231,0.419,0.231
		c0.179,0,0.331-0.079,0.402-0.194c0.046,0.017,0.096,0.026,0.149,0.026c0.205,0,0.372-0.125,0.372-0.279
		C10.681,8.387,10.647,8.331,10.601,8.284L10.601,8.284z"/>
	<path fill="#67B8CB" d="M12.556,8.68c-0.002-0.008-0.006-0.015-0.006-0.022c0-0.123,0.133-0.223,0.296-0.223
		c0.022,0,0.041,0.006,0.062,0.01c0.049-0.065,0.139-0.112,0.245-0.112c0.14,0,0.251,0.075,0.276,0.175
		c0.135,0.027,0.237,0.115,0.237,0.226c0,0.104-0.091,0.188-0.215,0.221c-0.042,0.094-0.157,0.163-0.299,0.163
		c-0.126,0-0.233-0.058-0.286-0.139c-0.031,0.011-0.067,0.019-0.105,0.019c-0.146,0-0.264-0.089-0.264-0.198
		C12.496,8.753,12.521,8.713,12.556,8.68z"/>
</g>
</svg>
