<?xml version="1.0" encoding="utf-8"?>
<!-- Generator: Adobe Illustrator 16.0.0, SVG Export Plug-In . SVG Version: 6.00 Build 0)  -->
<!DOCTYPE svg PUBLIC "-//W3C//DTD SVG 1.1//EN" "http://www.w3.org/Graphics/SVG/1.1/DTD/svg11.dtd">
<svg version="1.1" id="Layer_1" xmlns="http://www.w3.org/2000/svg" xmlns:xlink="http://www.w3.org/1999/xlink" x="0px" y="0px"
	 width="20px" height="20px" viewBox="0 0 20 20" enable-background="new 0 0 20 20" xml:space="preserve">
<g>
	<path fill="#25B7D3" d="M19.69,10c0-5.353-4.339-9.69-9.69-9.69S0.31,4.648,0.31,10c0,5.351,4.338,9.69,9.69,9.69
		S19.69,15.352,19.69,10z"/>
	<path fill="#EAEADA" d="M9.577,5.024L2.552,7.122c-0.063,0.019-0.1,0.086-0.081,0.15l2.304,7.718
		c0.019,0.064,0.086,0.101,0.15,0.082l7.025-2.097c0.063-0.02,0.1-0.087,0.081-0.15L9.727,5.105
		C9.708,5.042,9.641,5.006,9.577,5.024L9.577,5.024z"/>
	<path fill="#3A3A38" d="M3.208,7.573l6.068-1.812l1.572,5.267L4.781,12.84L3.208,7.573z"/>
	<path fill="#4F4F4E" d="M4.78,12.84L3.208,7.574l6.068-1.812L4.78,12.84z"/>
	<path fill="#FFFFFF" d="M17.471,8.093l-6.45-3.484c-0.059-0.032-0.132-0.01-0.164,0.048l-3.828,7.087
		c-0.032,0.059-0.01,0.132,0.048,0.163l6.45,3.484c0.059,0.032,0.132,0.01,0.164-0.049l3.828-7.087
		C17.551,8.197,17.529,8.124,17.471,8.093z"/>
	<path fill="#51514F" d="M13.742,13.742c-0.016,0-0.031-0.004-0.045-0.011l-3.164-1.68c-0.048-0.025-0.066-0.085-0.041-0.132
		c0.025-0.048,0.084-0.066,0.131-0.041l3.164,1.68c0.048,0.025,0.066,0.085,0.041,0.132C13.812,13.724,13.777,13.742,13.742,13.742z
		"/>
	<path fill="#3A3A38" d="M11.164,5.392l5.572,3.01l-2.613,4.836l-5.571-3.009L11.164,5.392z"/>
	<path fill="#4F4F4E" d="M8.552,10.228l2.612-4.836l5.572,3.01L8.552,10.228z"/>
</g>
</svg>
