<?xml version="1.0" encoding="utf-8"?>
<!-- Generator: Adobe Illustrator 16.0.0, SVG Export Plug-In . SVG Version: 6.00 Build 0)  -->
<!DOCTYPE svg PUBLIC "-//W3C//DTD SVG 1.1//EN" "http://www.w3.org/Graphics/SVG/1.1/DTD/svg11.dtd">
<svg version="1.1" id="Layer_1" xmlns="http://www.w3.org/2000/svg" xmlns:xlink="http://www.w3.org/1999/xlink" x="0px" y="0px"
	 width="20px" height="20px" viewBox="0 0 20 20" enable-background="new 0 0 20 20" xml:space="preserve">
<g>
	<path fill="#22C48A" d="M19.69,10c0,5.351-4.338,9.69-9.69,9.69S0.31,15.353,0.31,10c0-5.352,4.338-9.69,9.69-9.69
		S19.69,4.647,19.69,10z"/>
	<path fill="#7F8092" d="M16.903,9.791c0,0.736-0.597,1.335-1.334,1.335H5.272c-0.735,0-1.333-0.599-1.333-1.335V6.829
		c0-0.736,0.597-1.334,1.333-1.334h10.297c0.736,0,1.334,0.597,1.334,1.334V9.791z"/>
	<path fill="#848698" d="M10.337,11.126H5.272c-0.735,0-1.333-0.599-1.333-1.335V6.829c0-0.736,0.597-1.334,1.333-1.334h5.101
		L10.337,11.126z"/>
	<path fill="#616A89" d="M15.714,9.603c0,0.6-0.488,0.574-1.09,0.574H6.219c-0.601,0-1.087,0.025-1.087-0.574V9.298
		c0-0.602,10.582-0.602,10.582,0V9.603z"/>
	<path fill="#616A89" d="M15.485,7.52c0,0.5-0.404,0.905-0.904,0.905c-0.499,0-0.904-0.405-0.904-0.905
		c0-0.499,0.405-0.904,0.904-0.904C15.081,6.615,15.485,7.021,15.485,7.52z"/>
	<path fill="#9EA3B6" d="M13.896,7.783c-0.165-0.165,0.016-0.621,0.182-0.787c0.164-0.165,0.563-0.32,0.729-0.156
		C14.972,7.005,14.06,7.948,13.896,7.783z"/>
	<path fill="#E9E8A1" d="M15.574,14.517c0,0.585-0.475,1.06-1.06,1.06H6.328c-0.586,0-1.061-0.475-1.061-1.06V9.544
		c0-0.585,10.307-0.585,10.307,0V14.517z"/>
	<path fill="#F1F1B3" d="M10.38,15.576H6.327c-0.586,0-1.061-0.475-1.061-1.06V9.544c0-0.29,2.55-0.438,5.112-0.438L10.38,15.576
		L10.38,15.576z"/>
	<path fill="#BEBC6A" d="M11.622,12.429c-0.084,1.583-2.371,1.583-2.455,0c-0.038-0.695,0.589-1.193,1.228-1.229
		C11.091,11.163,11.589,11.788,11.622,12.429c0.011,0.166,0.269,0.166,0.26,0c-0.045-0.842-0.645-1.441-1.487-1.486
		c-0.84-0.045-1.444,0.713-1.486,1.486c-0.045,0.84,0.713,1.444,1.486,1.486c0.839,0.045,1.444-0.713,1.487-1.486
		C11.891,12.263,11.633,12.264,11.622,12.429z"/>
	<path fill="#BEBC6A" d="M10.266,10.188c0,1.494,0,2.987,0,4.48c0,0.166,0.259,0.166,0.259,0c0-1.493,0-2.986,0-4.48
		C10.524,10.021,10.266,10.021,10.266,10.188L10.266,10.188z"/>
	<path fill="#BEBC6A" d="M12.636,12.3c-1.494,0-2.987,0-4.482,0c-0.166,0-0.166,0.258,0,0.258c1.494,0,2.988,0,4.482,0
		C12.802,12.558,12.802,12.3,12.636,12.3L12.636,12.3z"/>
</g>
</svg>
