<?xml version="1.0" encoding="utf-8"?>
<!-- Generator: Adobe Illustrator 16.0.0, SVG Export Plug-In . SVG Version: 6.00 Build 0)  -->
<!DOCTYPE svg PUBLIC "-//W3C//DTD SVG 1.1//EN" "http://www.w3.org/Graphics/SVG/1.1/DTD/svg11.dtd">
<svg version="1.1" id="Layer_1" xmlns="http://www.w3.org/2000/svg" xmlns:xlink="http://www.w3.org/1999/xlink" x="0px" y="0px"
	 width="20px" height="20px" viewBox="0 0 20 20" enable-background="new 0 0 20 20" xml:space="preserve">
<g>
	<path fill="#49A0AE" d="M19.689,10c0,5.351-4.338,9.689-9.689,9.689c-5.352,0-9.69-4.338-9.69-9.689c0-5.352,4.338-9.69,9.69-9.69
		C15.352,0.31,19.689,4.648,19.689,10z"/>
	<path fill="#E1E1E1" d="M10.805,10.809c-0.252-0.463-0.478-0.888-0.597-1.123c0.222-0.518,0.294-0.885,0.515-1.403
		C9.799,6.507,8.874,4.731,7.949,2.956c-0.892,0.746-1.59,1.891-0.929,3.682l2.792,4.831C9.812,11.469,10.945,10.582,10.805,10.809z
		 M9.554,9.232c-0.248,0-0.449-0.201-0.449-0.449c0-0.249,0.201-0.449,0.449-0.449c0.25,0,0.449,0.201,0.449,0.449
		C10.003,9.031,9.802,9.232,9.554,9.232z"/>
	<path fill="#E1E1E1" d="M11.074,8.21l-0.098,0.23c-0.164,0.382-0.275,0.78-0.424,1.168c0.047,0.089,0.094,0.177,0.141,0.265
		l0.041-0.028l1.883-3.258c0.662-1.79-0.035-2.938-0.928-3.683L10,6.147L11.074,8.21L11.074,8.21z"/>
	<path fill="#2C6973" d="M14.52,12.529c-0.305-0.564-0.75-0.996-1.221-1.234c-0.535-0.271-1.113-0.307-1.609-0.041
		c-0.242,0.131-0.436,0.318-0.578,0.545c-0.727,1.498,0.086,2.525,0.086,2.525c0.029,0.055,0.059,0.109,0.092,0.16l0.064,0.109
		l0.002-0.006c0.289,0.434,0.664,0.766,1.057,0.965c0.537,0.271,1.115,0.305,1.609,0.039s0.785-0.768,0.855-1.367
		C14.938,13.701,14.824,13.096,14.52,12.529z M13.754,14.098c-0.027,0.234-0.119,0.42-0.266,0.5c-0.15,0.08-0.357,0.053-0.566-0.053
		c-0.275-0.139-0.541-0.406-0.732-0.762c-0.193-0.357-0.266-0.725-0.23-1.033c0.027-0.234,0.117-0.418,0.268-0.498
		c0.148-0.08,0.354-0.055,0.564,0.053c0.275,0.141,0.541,0.404,0.732,0.762c0.193,0.357,0.266,0.725,0.232,1.033L13.754,14.098z"/>
	<path fill="#2C6973" d="M5.393,14.225c0.07,0.598,0.36,1.102,0.855,1.367c0.495,0.266,1.073,0.232,1.609-0.039
		c0.394-0.199,0.767-0.531,1.057-0.965l0.003,0.006l0.063-0.109c0.033-0.053,0.064-0.105,0.093-0.16c0,0,0.813-1.027,0.085-2.525
		c-0.142-0.227-0.335-0.414-0.578-0.545c-0.494-0.266-1.073-0.23-1.609,0.041c-0.472,0.238-0.916,0.67-1.22,1.234
		c-0.303,0.566-0.418,1.172-0.357,1.695H5.393z M6.747,13.064c0.193-0.357,0.458-0.621,0.733-0.762
		c0.212-0.107,0.417-0.133,0.565-0.053c0.149,0.08,0.24,0.264,0.268,0.498c0.035,0.309-0.039,0.676-0.23,1.033
		c-0.192,0.357-0.458,0.621-0.733,0.762c-0.211,0.105-0.417,0.133-0.564,0.053s-0.239-0.266-0.268-0.5
		c-0.035-0.309,0.039-0.676,0.23-1.033L6.747,13.064z"/>
</g>
</svg>
