<?xml version="1.0" encoding="utf-8"?>
<!-- Generator: Adobe Illustrator 16.0.0, SVG Export Plug-In . SVG Version: 6.00 Build 0)  -->
<!DOCTYPE svg PUBLIC "-//W3C//DTD SVG 1.1//EN" "http://www.w3.org/Graphics/SVG/1.1/DTD/svg11.dtd">
<svg version="1.1" id="Layer_1" xmlns="http://www.w3.org/2000/svg" xmlns:xlink="http://www.w3.org/1999/xlink" x="0px" y="0px"
	 width="20px" height="20px" viewBox="0 0 20 20" enable-background="new 0 0 20 20" xml:space="preserve">
<g>
	<path fill="#22C48A" d="M0.31,10C0.31,4.648,4.648,0.31,10,0.31c5.351,0,9.69,4.338,9.69,9.689c0,5.352-4.34,9.69-9.69,9.69
		C4.648,19.689,0.31,15.352,0.31,10z"/>
	<path fill="#F7D98B" d="M7.104,4.539l-1.759,6.135l-0.014,0.393l3.801-0.094l-0.019-0.299L7.104,4.539z"/>
	<path fill="#626463" d="M7.093,4.505l-0.765,2.68h1.649L7.093,4.505z"/>
	<path fill="#E84849" d="M8.861,10.352l-0.554,0.623l-0.003,8.564c0.271,0.047,0.546,0.084,0.823,0.109l0.005-8.674L8.861,10.352
		L8.861,10.352z"/>
	<path fill="#E84849" d="M7.034,19.227l0.004-8.254L6.47,10.352l-0.522,0.623l-0.003,7.824C6.297,18.963,6.661,19.105,7.034,19.227
		L7.034,19.227z"/>
	<path fill="#F06668" d="M5.946,10.973l-0.461-0.622l-0.159,0.622l-0.003,7.514c0.202,0.111,0.409,0.215,0.62,0.311L5.946,10.973
		L5.946,10.973z"/>
	<path fill="#F06668" d="M8.305,19.537l0.003-8.564l-0.636-0.622l-0.634,0.622l-0.004,8.252C7.446,19.355,7.869,19.461,8.305,19.537
		L8.305,19.537z"/>
	<path fill="#276D69" d="M13.768,8.887c-0.168,1.718-0.742,1.314-1.345,1.314c-0.592,0-1.141,0.382-1.345-1.314
		c-0.202-1.692,1.345-4.584,1.345-4.584s1.51,2.89,1.345,4.583V8.887z"/>
	<path fill="#355957" d="M12.422,10.203c-0.593,0-1.142,0.383-1.345-1.314c-0.202-1.692,1.345-4.584,1.345-4.584V10.203z"/>
	<path fill="#E79E2D" d="M11.59,10.22l-0.761,8.618l-0.044,0.607c0.024-0.232,0.044-0.447,0.044-0.559l0.761-8.659
		c0-0.141,0.444-0.202,0.888-0.198c0,0,0,7.398,0,9.339c0.57-0.152,1.119-0.354,1.644-0.6l-0.756-8.549
		C13.365,9.975,11.59,9.942,11.59,10.22z"/>
	<path fill="#D68A28" d="M10.784,19.447c-0.008,0.07-0.016,0.139-0.023,0.209c0.004,0,0.006,0,0.009,0L10.784,19.447z"/>
	<path fill="#D68A28" d="M12.478,19.369c0-1.941,0-9.339,0-9.339c-0.443-0.004-0.888,0.058-0.888,0.198l-0.761,8.659
		c0,0.111-0.02,0.328-0.044,0.559l-0.016,0.209c0.585-0.045,1.157-0.141,1.708-0.287V19.369z"/>
	<path fill="#CDCCCB" d="M11.639,10.219l-0.648,6.949l3.027,0.018l-0.605-6.966c0-0.232-1.775-0.265-1.775,0H11.639z"/>
	<path fill="#B1B1B2" d="M11.59,10.216l-0.6,6.952l1.488-0.002c0,0,0.06-7.135-0.001-7.135C12.034,10.031,11.59,10.084,11.59,10.216
		z"/>
	<path fill="#BFBEBE" d="M11.481,11.67l-0.45,5.049l2.954,0.041l-0.45-5.066C13.535,11.518,11.481,11.467,11.481,11.67L11.481,11.67
		z"/>
	<path fill="#AAAAAA" d="M11.59,10.216l-0.566,6.536l1.459-0.02c0,0,0.04-6.703-0.005-6.703C12.034,10.03,11.59,10.083,11.59,10.216
		L11.59,10.216z"/>
</g>
</svg>
