<?xml version="1.0" encoding="utf-8"?>
<!-- Generator: Adobe Illustrator 16.0.0, SVG Export Plug-In . SVG Version: 6.00 Build 0)  -->
<!DOCTYPE svg PUBLIC "-//W3C//DTD SVG 1.1//EN" "http://www.w3.org/Graphics/SVG/1.1/DTD/svg11.dtd">
<svg version="1.1" id="Layer_1" xmlns="http://www.w3.org/2000/svg" xmlns:xlink="http://www.w3.org/1999/xlink" x="0px" y="0px"
	 width="20px" height="20px" viewBox="0 0 20 20" enable-background="new 0 0 20 20" xml:space="preserve">
<g>
	<path fill="#F2BE3E" d="M19.69,10c0,5.351-4.338,9.69-9.69,9.69S0.31,15.353,0.31,10c0-5.352,4.338-9.69,9.69-9.69
		S19.69,4.647,19.69,10z"/>
	<path fill="#F7D98B" d="M15.469,4.401L7.505,8.818L7.096,9.2l3.929,3.74l0.282-0.319L15.469,4.401z"/>
	<path fill="#626463" d="M15.493,4.356l-3.476,1.932l1.665,1.663L15.493,4.356z"/>
	<path fill="#E84849" d="M11.378,12.041l-1.185,0.069l-5.798,5.792c0.327,0.232,0.669,0.447,1.024,0.639l5.606-5.601L11.378,12.041
		L11.378,12.041z"/>
	<path fill="#E84849" d="M3.018,16.715l5.895-5.889l0.052-1.199L7.812,9.726l-5.784,5.779C2.324,15.936,2.656,16.34,3.018,16.715
		L3.018,16.715z"/>
	<path fill="#F06668" d="M7.812,9.727l0.161-1.09L7.186,9.101l-5.64,5.635c0.148,0.266,0.309,0.523,0.481,0.771L7.812,9.727z"/>
	<path fill="#F06668" d="M4.396,17.902l5.798-5.792l-0.016-1.268l-1.266-0.016l-5.895,5.889C3.438,17.152,3.898,17.551,4.396,17.902
		L4.396,17.902z"/>
</g>
</svg>
