<?xml version="1.0" encoding="utf-8"?>
<!-- Generator: Adobe Illustrator 16.0.0, SVG Export Plug-In . SVG Version: 6.00 Build 0)  -->
<!DOCTYPE svg PUBLIC "-//W3C//DTD SVG 1.1//EN" "http://www.w3.org/Graphics/SVG/1.1/DTD/svg11.dtd">
<svg version="1.1" id="Layer_1" xmlns="http://www.w3.org/2000/svg" xmlns:xlink="http://www.w3.org/1999/xlink" x="0px" y="0px"
	 width="20px" height="20px" viewBox="0 0 20 20" enable-background="new 0 0 20 20" xml:space="preserve">
<g>
	<path fill="#954E9D" d="M19.69,10c0,5.351-4.338,9.69-9.69,9.69S0.31,15.353,0.31,10c0-5.352,4.338-9.69,9.69-9.69
		S19.69,4.647,19.69,10z"/>
	<path fill="#AEADAD" d="M10.847,10.366c0.473-0.467,0.983-0.871,1.088-0.769l-3.13-3.129c-0.213-0.213-0.59-0.18-0.842,0.072
		l-0.45,0.45l3.336,3.375H10.847z"/>
	<path fill="#949897" d="M10.802,10.41L10.802,10.41c0.014-0.015,0.029-0.029,0.045-0.044L7.511,6.991L6.933,7.569
		C6.681,7.821,6.647,8.198,6.86,8.411l3.128,3.128C9.885,11.433,10.315,10.896,10.802,10.41L10.802,10.41z"/>
	<path fill="#AE8A50" d="M10.847,10.366l6.203,6.278c0.314-0.333,0.604-0.687,0.868-1.061l-5.983-5.985
		C11.83,9.496,11.319,9.899,10.847,10.366L10.847,10.366z"/>
	<path fill="#AE8A50" d="M10.802,10.41l6.229,6.254c0.006-0.007,0.012-0.014,0.019-0.02l-6.203-6.278
		C10.831,10.381,10.815,10.396,10.802,10.41z"/>
	<path fill="#9B7842" d="M9.99,11.542v-0.003V11.542z"/>
	<path fill="#9B7842" d="M10.802,10.41L10.802,10.41c-0.484,0.485-0.916,1.022-0.812,1.129l0,0
		C9.886,11.433,10.317,10.896,10.802,10.41z"/>
	<path fill="#9B7842" d="M9.99,11.539v0.003l6.041,6.04L9.99,11.539z"/>
	<path fill="#9B7842" d="M9.99,11.539l6.041,6.043c0.355-0.283,0.689-0.59,1-0.918l-6.229-6.254
		C10.317,10.896,9.886,11.433,9.99,11.539L9.99,11.539z"/>
	<path fill="#F1D250" d="M5.784,6.752c0,0-1.091,0.807-1.194,1.1s0.239,1.625,0.239,1.625s-0.826-1.098-1.11-1.198
		c-0.283-0.1-1.614,0.242-1.614,0.242s1.087-0.792,1.198-1.109c0.11-0.317-0.242-1.614-0.242-1.614S3.853,6.883,4.17,6.994
		S5.784,6.753,5.784,6.752L5.784,6.752z"/>
	<path fill="#EDC92C" d="M4.829,9.476c0,0-0.826-1.099-1.11-1.198C3.436,8.178,2.104,8.52,2.104,8.52S3.191,7.728,3.303,7.41
		c0.11-0.317-0.242-1.614-0.242-1.614L4.829,9.476L4.829,9.476z"/>
	<path fill="#F1D250" d="M11.374,6.064c0,0-1.328-1.362-1.756-1.45c-0.427-0.088-2.21,0.641-2.21,0.641s1.368-1.357,1.452-1.77
		c0.083-0.412-0.644-2.197-0.644-2.197s1.308,1.358,1.77,1.452s2.196-0.643,2.196-0.643s-1.357,1.308-1.452,1.77
		C10.636,4.328,11.374,6.064,11.374,6.064z"/>
	<path fill="#EDC92C" d="M7.408,5.255c0,0,1.368-1.357,1.452-1.77c0.083-0.412-0.644-2.197-0.644-2.197s1.308,1.358,1.77,1.452
		s2.196-0.643,2.196-0.643L7.408,5.255z"/>
	<path fill="#F1D250" d="M14.201,8.618c0,0-0.688-0.738-0.914-0.79c-0.227-0.051-1.18,0.313-1.18,0.313s0.742-0.703,0.792-0.921
		c0.049-0.218-0.316-1.173-0.316-1.173s0.678,0.736,0.921,0.792c0.245,0.056,1.173-0.315,1.173-0.315s-0.735,0.678-0.791,0.92
		c-0.056,0.243,0.313,1.173,0.313,1.173L14.201,8.618z"/>
	<path fill="#EDC92C" d="M12.107,8.142c0,0,0.742-0.703,0.792-0.921c0.049-0.218-0.315-1.173-0.315-1.173s0.678,0.736,0.923,0.792
		c0.243,0.056,1.171-0.315,1.171-0.315L12.107,8.142L12.107,8.142z"/>
</g>
</svg>
