<?xml version="1.0" encoding="utf-8"?>
<!-- Generator: Adobe Illustrator 16.0.0, SVG Export Plug-In . SVG Version: 6.00 Build 0)  -->
<!DOCTYPE svg PUBLIC "-//W3C//DTD SVG 1.1//EN" "http://www.w3.org/Graphics/SVG/1.1/DTD/svg11.dtd">
<svg version="1.1" id="Layer_1" xmlns="http://www.w3.org/2000/svg" xmlns:xlink="http://www.w3.org/1999/xlink" x="0px" y="0px"
	 width="20px" height="20px" viewBox="0 0 20 20" enable-background="new 0 0 20 20" xml:space="preserve">
<g>
	<path fill="#954E9D" d="M19.69,10c0,5.352-4.339,9.69-9.69,9.69c-5.353,0-9.69-4.338-9.69-9.69c0-5.352,4.338-9.69,9.69-9.69
		C15.352,0.31,19.69,4.647,19.69,10z"/>
	<path fill="#9A7338" d="M8.095,7.715l8.935,8.952c0.195-0.205,0.38-0.419,0.556-0.64L8.765,7.53
		C8.603,7.368,8.308,7.501,8.095,7.715L8.095,7.715z"/>
	<path fill="#9A7338" d="M7.932,8.363c-0.037-0.036-0.066-0.07-0.086-0.106c0.01,0.048,0.027,0.092,0.064,0.128l8.529,8.854
		c0.002-0.003,0.006-0.005,0.009-0.008L7.932,8.363L7.932,8.363z"/>
	<path fill="#825E2D" d="M8.095,7.715L8.095,7.715c-0.279,0.279-0.32,0.417-0.249,0.542C7.815,8.094,7.931,7.88,8.095,7.715z"/>
	<path fill="#825E2D" d="M7.846,8.257c0.021,0.036,0.05,0.07,0.086,0.106l8.518,8.867c0.2-0.181,0.395-0.369,0.58-0.564L8.095,7.715
		C7.929,7.88,7.814,8.094,7.846,8.257z"/>
	<path fill="#F5D827" d="M11.201,4.079c0.211,0.107-0.258,2.989-0.18,3.176c0.075,0.188,2.516,1.755,2.514,1.949
		c-0.002,0.195-2.908,0.647-3.077,0.811c-0.167,0.162-0.852,2.973-1.077,2.994c-0.225,0.021-1.573-2.61-1.721-2.676
		c-0.147-0.066-3.089,0.105-3.179-0.1s1.979-2.256,2.013-2.463c0.033-0.208-1.032-2.916-0.888-3.055S8.404,5.877,8.57,5.868
		C8.737,5.859,10.992,3.973,11.201,4.079L11.201,4.079z"/>
	<path fill="#F7E497" d="M10.103,6.021c0.102,0.052-0.125,1.45-0.088,1.541c0.036,0.092,1.222,0.853,1.222,0.947
		c-0.003,0.094-1.413,0.314-1.495,0.392c-0.082,0.078-0.414,1.443-0.523,1.453c-0.11,0.012-0.765-1.267-0.835-1.299
		c-0.072-0.032-1.5,0.051-1.544-0.048C6.795,8.908,7.8,7.912,7.816,7.812c0.017-0.101-0.502-1.416-0.432-1.483
		c0.07-0.068,1.358,0.564,1.439,0.56C8.905,6.885,10,5.969,10.103,6.021L10.103,6.021z"/>
	<path fill="#F4D967" d="M13.326,6.309c0.028,0.111-0.938,0.868-1.182,0.892c-0.1,0.009-0.283-0.067-0.348-0.243
		s-0.027-0.323,0.079-0.398C12.055,6.436,13.301,6.197,13.326,6.309L13.326,6.309z"/>
	<path fill="#F4D967" d="M8.297,3.585c0.114,0.004,0.576,1.141,0.531,1.382C8.81,5.067,8.687,5.22,8.499,5.235
		c-0.188,0.014-0.32-0.062-0.36-0.186C8.069,4.844,8.183,3.581,8.297,3.585z"/>
	<path fill="#F4D967" d="M4.119,7.525c0.027-0.111,1.233-0.336,1.46-0.245c0.095,0.037,0.22,0.189,0.196,0.376
		c-0.022,0.186-0.124,0.3-0.253,0.315C5.307,7.999,4.093,7.637,4.119,7.525z"/>
	<path fill="#F4D967" d="M6.609,12.457c-0.095-0.065,0.123-1.272,0.29-1.452c0.068-0.074,0.255-0.137,0.422-0.05
		c0.166,0.087,0.236,0.222,0.205,0.349C7.475,11.515,6.703,12.521,6.609,12.457z"/>
</g>
</svg>
