<?xml version="1.0" encoding="utf-8"?>
<!-- Generator: Adobe Illustrator 16.0.0, SVG Export Plug-In . SVG Version: 6.00 Build 0)  -->
<!DOCTYPE svg PUBLIC "-//W3C//DTD SVG 1.1//EN" "http://www.w3.org/Graphics/SVG/1.1/DTD/svg11.dtd">
<svg version="1.1" id="Layer_1" xmlns="http://www.w3.org/2000/svg" xmlns:xlink="http://www.w3.org/1999/xlink" x="0px" y="0px"
	 width="20px" height="20px" viewBox="0 0 20 20" enable-background="new 0 0 20 20" xml:space="preserve">
<g>
	<path fill="#FFC200" d="M19.689,10c0,5.352-4.336,9.689-9.689,9.689c-5.352,0-9.69-4.337-9.69-9.689
		c0-5.351,4.338-9.689,9.69-9.689C15.354,0.311,19.689,4.648,19.689,10z"/>
	<path fill="#FFFFFF" d="M3.936,14.676l-0.611-0.026c0.002-0.047,0.273-4.803,6.674-4.803c5.819,0,5.897-4.463,5.897-4.652
		l0.611,0.001c0,0.053-0.086,5.264-6.509,5.264C4.201,10.459,3.945,14.504,3.936,14.676z"/>
	<path fill="#448590" d="M10.842,10.95c0,0.025-0.02,0.042-0.041,0.042l-1.576-0.021c-0.022-0.002-0.041-0.019-0.041-0.043
		l0.022-1.574c0-0.024,0.019-0.042,0.042-0.041l1.575,0.022c0.023,0,0.041,0.02,0.041,0.042L10.842,10.95L10.842,10.95z"/>
	<path fill="#DCDBDC" d="M4.468,15.456c0,0.023-0.019,0.042-0.043,0.042l-1.589,0.003c-0.023-0.001-0.042-0.019-0.042-0.042
		L2.792,13.87c0-0.023,0.019-0.042,0.042-0.042l1.589-0.001c0.023-0.001,0.042,0.018,0.042,0.042l0.002,1.589L4.468,15.456z"/>
	<path fill="#448590" d="M2.835,15.653H2.833c-0.105-0.002-0.191-0.09-0.191-0.195l-0.002-1.589c0-0.107,0.087-0.195,0.195-0.195
		l1.589-0.002c0.106,0,0.193,0.086,0.196,0.192l0.002,1.592c0,0.107-0.088,0.195-0.196,0.195L2.835,15.653L2.835,15.653z
		 M2.946,13.98l0.002,1.368l1.367-0.005l-0.002-1.365L2.946,13.98z"/>
	<path fill="#DCDBDC" d="M16.928,6.142c0,0.022-0.018,0.039-0.039,0.039l-1.445,0.003c-0.021,0-0.039-0.018-0.039-0.039L15.402,4.7
		c0-0.021,0.018-0.038,0.039-0.038l1.443-0.002c0.021-0.001,0.039,0.018,0.039,0.038l0.002,1.444L16.928,6.142z"/>
	<path fill="#448590" d="M15.441,6.336h-0.002c-0.104-0.003-0.189-0.088-0.189-0.192l-0.002-1.444c0-0.105,0.086-0.191,0.193-0.191
		l1.443-0.001c0.105,0,0.191,0.086,0.191,0.19l0.002,1.444c0,0.106-0.086,0.191-0.191,0.191L15.441,6.336L15.441,6.336z
		 M15.557,4.813v1.216l1.217-0.003l-0.002-1.214L15.557,4.813z"/>
	<path fill="#448590" d="M4.017,10.052h11.858v0.306H4.017V10.052z"/>
	<path fill="#448590" d="M16.295,9.83c0.213,0.265,0.168,0.649-0.096,0.861c-0.264,0.211-0.648,0.167-0.861-0.097
		c-0.209-0.265-0.166-0.648,0.1-0.859c0.264-0.21,0.648-0.169,0.859,0.095H16.295z"/>
	<path fill="#448590" d="M4.552,9.83c0.211,0.265,0.167,0.649-0.096,0.861c-0.264,0.211-0.649,0.167-0.86-0.097
		c-0.21-0.265-0.167-0.648,0.097-0.859c0.265-0.21,0.65-0.169,0.861,0.095H4.552z"/>
</g>
</svg>
