<?xml version="1.0" encoding="utf-8"?>
<!-- Generator: Adobe Illustrator 16.0.0, SVG Export Plug-In . SVG Version: 6.00 Build 0)  -->
<!DOCTYPE svg PUBLIC "-//W3C//DTD SVG 1.1//EN" "http://www.w3.org/Graphics/SVG/1.1/DTD/svg11.dtd">
<svg version="1.1" id="Layer_1" xmlns="http://www.w3.org/2000/svg" xmlns:xlink="http://www.w3.org/1999/xlink" x="0px" y="0px"
	 width="20px" height="20px" viewBox="0 0 20 20" enable-background="new 0 0 20 20" xml:space="preserve">
<g>
	<path fill="#E84849" d="M0.31,10c0-5.352,4.338-9.69,9.69-9.69c5.353,0,9.689,4.339,9.689,9.69c0,5.353-4.336,9.69-9.689,9.69
		C4.648,19.69,0.31,15.353,0.31,10z"/>
	<path fill="#E79E2D" d="M11.916,11.237l3.143-3.144c0.812-0.812-0.004-1.312-0.814-2.123L3.258,16.957
		c0.443,0.429,0.926,0.815,1.443,1.155l5.369-6.445c0.633,0.215,1.313,0.104,1.846-0.428V11.237z"/>
	<path fill="#D68A28" d="M3.258,16.956L14.244,5.97c-0.812-0.812-1.312-1.626-2.123-0.814L8.978,8.298
		C8.445,8.831,8.335,9.51,8.55,10.145l-6.508,5.38C2.401,16.04,2.808,16.519,3.258,16.956L3.258,16.956z"/>
	<path fill="#CDCCCB" d="M14.354,5.861c-0.812-0.812-1.422-1.517-2.232-0.705L8.977,8.299c-0.382,0.383,2.555,3.321,2.938,2.938
		l3.143-3.144C15.869,7.282,15.162,6.673,14.354,5.861z"/>
	<path fill="#AAAAAA" d="M14.354,5.861c-0.812-0.812-1.422-1.517-2.232-0.705L8.977,8.299c-0.19,0.191,0.447,1.021,1.182,1.756
		L14.354,5.861z"/>
	<path fill="#B2B2B2" d="M9.174,11.088C8.636,10.55,8.446,9.869,8.446,9.869l-1.682,1.717c-0.207,0.207,1.667,2.065,1.874,1.858
		l1.697-1.698c0,0-0.622-0.118-1.16-0.656V11.088z"/>
	<path fill="#8D9091" d="M9.145,11.06c-0.514-0.532-0.699-1.191-0.699-1.191l-1.682,1.717c-0.104,0.104,0.287,0.608,0.774,1.096
		L9.145,11.06L9.145,11.06z"/>
	<path fill="#3D4040" d="M12.91,3.34l-2.63,3.656c-0.382,0.383,2.554,3.321,2.937,2.938l3.656-2.631
		C17.686,6.492,13.721,2.528,12.91,3.34L12.91,3.34z"/>
	<path fill="#343433" d="M12.91,3.34l-2.63,3.656c-0.188,0.188,0.425,0.994,1.146,1.72l4.076-4.002
		C14.51,3.723,13.316,2.934,12.91,3.34L12.91,3.34z"/>
	<path fill="#1D1E1E" d="M11.059,7.534c-0.031,0-0.066-0.011-0.094-0.03c-0.066-0.052-0.078-0.147-0.027-0.214l2.625-3.421
		c0.051-0.067,0.146-0.079,0.213-0.028s0.078,0.146,0.027,0.213l-2.625,3.422C11.148,7.515,11.104,7.534,11.059,7.534z"/>
	<path fill="#2E2F2F" d="M12.885,9.361c-0.045,0-0.088-0.021-0.119-0.06c-0.051-0.066-0.039-0.162,0.029-0.213l3.418-2.624
		c0.068-0.052,0.162-0.039,0.213,0.027s0.039,0.162-0.027,0.213l-3.42,2.625C12.951,9.351,12.918,9.361,12.885,9.361z"/>
	<path fill="#2E2F2F" d="M12.27,8.746c-0.039,0-0.08-0.017-0.111-0.05c-0.057-0.062-0.053-0.158,0.01-0.215l3.312-3.023
		c0.062-0.057,0.158-0.052,0.213,0.01c0.057,0.062,0.053,0.158-0.008,0.215l-3.314,3.022C12.344,8.732,12.307,8.745,12.27,8.746
		L12.27,8.746z"/>
	<path fill="#1D1E1E" d="M11.637,8.113c-0.035,0-0.072-0.014-0.102-0.039c-0.062-0.057-0.066-0.153-0.01-0.216l3.023-3.312
		c0.055-0.062,0.152-0.066,0.213-0.01c0.062,0.058,0.068,0.153,0.01,0.216l-3.023,3.312C11.719,8.098,11.678,8.114,11.637,8.113
		L11.637,8.113z"/>
</g>
</svg>
