<?xml version="1.0" encoding="utf-8"?>
<!-- Generator: Adobe Illustrator 16.0.0, SVG Export Plug-In . SVG Version: 6.00 Build 0)  -->
<!DOCTYPE svg PUBLIC "-//W3C//DTD SVG 1.1//EN" "http://www.w3.org/Graphics/SVG/1.1/DTD/svg11.dtd">
<svg version="1.1" id="Layer_1" xmlns="http://www.w3.org/2000/svg" xmlns:xlink="http://www.w3.org/1999/xlink" x="0px" y="0px"
	 width="20px" height="20px" viewBox="0 0 20 20" enable-background="new 0 0 20 20" xml:space="preserve">
<g>
	<path fill="#22C48A" d="M19.69,10c0,5.351-4.338,9.691-9.69,9.691S0.31,15.352,0.31,10c0-5.351,4.338-9.69,9.69-9.69
		S19.69,4.647,19.69,10z"/>
	<path fill="#EDC92C" d="M12.856,12.845l2.298-7.751C15.142,4.96,15.011,4.83,14.891,4.83L7.139,7.127
		c-0.075,0-0.354,0.25-0.394,0.309c-0.059,0.039-2.181,4.841-2.181,4.841c0,0.121,2.994,3.115,3.115,3.115
		c0,0,4.829-2.095,4.868-2.153C12.606,13.199,12.856,12.921,12.856,12.845z"/>
	<path fill="#F1D250" d="M15.067,4.916c-0.04-0.039-0.111-0.081-0.177-0.087L7.139,7.126c-0.075,0-0.354,0.25-0.394,0.309
		c-0.059,0.039-2.181,4.842-2.181,4.842c0,0.059,0.778,0.867,1.521,1.611L15.067,4.916z"/>
	<path fill="#9B7842" d="M7.319,15.66l-1.504-1.503l-2.681,2.681c0.565,0.568,1.202,1.065,1.893,1.479l2.29-2.291
		c0.103-0.101,0.103-0.264,0-0.366H7.319z"/>
	<path fill="#AE8A50" d="M5.815,14.157L5.815,14.157z"/>
	<path fill="#AE8A50" d="M5.815,14.157L4.31,12.65c-0.101-0.101-0.265-0.101-0.365,0l-2.282,2.282
		c0.412,0.695,0.907,1.336,1.475,1.904l2.681-2.681L5.815,14.157z"/>
	<path fill="#DBBD40" d="M8.904,11.58c-0.041,0.04-0.269-0.121-0.323-0.177l0,0c-0.054-0.053-0.216-0.281-0.176-0.32l6.574-6.271
		c0.041-0.041,0.117-0.029,0.172,0.024l0,0c0.054,0.055,0.064,0.131,0.023,0.172L8.904,11.58z"/>
	<path fill="#DBBD40" d="M9.041,11.888c-0.314,0.314-0.778,0.36-1.035,0.103c-0.258-0.258-0.213-0.722,0.102-1.034
		c0.314-0.315,0.777-0.36,1.035-0.103S9.355,11.575,9.041,11.888L9.041,11.888z"/>
	<path fill="#F0D359" d="M8.946,11.794c-0.251,0.25-0.619,0.285-0.824,0.08s-0.169-0.572,0.082-0.824
		c0.249-0.249,0.619-0.285,0.823-0.08S9.195,11.544,8.946,11.794z"/>
	<path fill="#F0D359" d="M15.192,4.906c0,0-0.011-0.039-0.042-0.07c-0.031-0.031-0.069-0.041-0.069-0.041l-6.547,6.402
		c-0.041,0.041,0.024,0.171,0.055,0.201c0.03,0.029,0.161,0.094,0.202,0.054L15.192,4.906L15.192,4.906z"/>
	<path fill="#F8DE71" d="M15.151,4.835c-0.03-0.03-0.07-0.041-0.07-0.041L8.869,10.87c-0.205-0.078-0.472-0.014-0.667,0.18
		c-0.25,0.252-0.285,0.62-0.081,0.824L15.151,4.835L15.151,4.835z"/>
	<path fill="#3D969F" d="M7.691,15.971c-0.11,0.11-0.29,0.11-0.399,0L4,12.679c-0.111-0.111-0.111-0.291,0-0.402l0.222-0.223
		c0.11-0.109,0.29-0.109,0.401,0l3.291,3.294c0.111,0.11,0.111,0.29,0,0.4L7.691,15.971L7.691,15.971z"/>
	<path fill="#4AA0A5" d="M5.647,14.325L4,12.679c-0.111-0.111-0.111-0.291,0-0.402l0.222-0.223c0.11-0.109,0.29-0.109,0.401,0
		l1.647,1.647L5.647,14.325L5.647,14.325z"/>
</g>
</svg>
