<?xml version="1.0" encoding="utf-8"?>
<!-- Generated by IcoMoon.io -->
<!DOCTYPE svg PUBLIC "-//W3C//DTD SVG 1.1//EN" "http://www.w3.org/Graphics/SVG/1.1/DTD/svg11.dtd">
<svg version="1.1" xmlns="http://www.w3.org/2000/svg" xmlns:xlink="http://www.w3.org/1999/xlink" width="20" height="20" viewBox="0 0 20 20">
<path fill="rgb(51, 77, 92)" d="M19.691 10c0-5.352-4.339-9.691-9.69-9.691s-9.691 4.338-9.691 9.691c0 5.352 4.339 9.69 9.691 9.69s9.69-4.339 9.69-9.69z"></path>
<path fill="rgb(219, 149, 73)" d="M10.699 17.603c0 0.312-0.253 0.564-0.564 0.564h-0.282c-0.311 0-0.564-0.252-0.564-0.564l0.324-1.559 0.031-9.171c0-0.311 0.125-0.564 0.28-0.564h0.14c0.155 0 0.28 0.252 0.28 0.564l0.031 9.171 0.324 1.559z"></path>
<path fill="rgb(51, 77, 92)" d="M10.285 17.496c0 0.162-0.131 0.293-0.293 0.293s-0.293-0.131-0.293-0.293c0-0.162 0.131-0.293 0.293-0.293s0.293 0.131 0.293 0.293z"></path>
<path fill="rgb(135, 84, 34)" d="M9.992 17.652c-0.138 0-0.254-0.096-0.285-0.225-0.005 0.022-0.008 0.045-0.008 0.068 0 0.162 0.131 0.293 0.293 0.293s0.293-0.131 0.293-0.293c0-0.024-0.003-0.046-0.008-0.068-0.031 0.129-0.146 0.225-0.285 0.225z"></path>
<path fill="rgb(51, 77, 92)" d="M9.992 17.652c0.138 0 0.254-0.096 0.285-0.225-0.031-0.129-0.146-0.225-0.285-0.225s-0.254 0.096-0.285 0.225c0.031 0.129 0.146 0.225 0.285 0.225z"></path>
<path fill="rgb(219, 149, 73)" d="M10.862 2.236v1.223c0 0.113-0.092 0.205-0.205 0.205h-0.103c-0.113 0-0.205-0.092-0.205-0.205v-1.254c-0.23-0.007-0.468-0.006-0.698 0.002v1.252c0 0.113-0.092 0.205-0.205 0.205h-0.103c-0.113 0-0.205-0.092-0.205-0.205v-1.218c-0.589 0.058-1.038 0.176-1.038 0.352 0 1.636 0.154 4.957 1.9 4.957s1.9-3.321 1.9-4.957c0-0.185-0.449-0.303-1.038-0.358z"></path>
</svg>
