<?xml version="1.0" encoding="utf-8"?>
<!-- Generated by IcoMoon.io -->
<!DOCTYPE svg PUBLIC "-//W3C//DTD SVG 1.1//EN" "http://www.w3.org/Graphics/SVG/1.1/DTD/svg11.dtd">
<svg version="1.1" xmlns="http://www.w3.org/2000/svg" xmlns:xlink="http://www.w3.org/1999/xlink" width="20" height="20" viewBox="0 0 20 20">
<path fill="rgb(163, 213, 224)" d="M19.691 10c0-5.352-4.339-9.691-9.69-9.691s-9.691 4.338-9.691 9.691c0 5.352 4.339 9.69 9.691 9.69s9.69-4.339 9.69-9.69z"></path>
<path fill="rgb(173, 131, 85)" d="M15.053 8.265h-1.434v0.919h-1.434v0.924h-1.43v0.918h-1.434v0.924h-1.434v0.918h-1.434v0.926h-1.434v1.077h10.033z"></path>
<path fill="rgb(173, 131, 85)" d="M7.054 10.213h0.19v2.809h-0.19v-2.809z"></path>
<path fill="rgb(173, 131, 85)" d="M8.501 9.293h0.19v2.809h-0.19v-2.809z"></path>
<path fill="rgb(173, 131, 85)" d="M9.948 8.367h0.19v2.809h-0.19v-2.809z"></path>
<path fill="rgb(173, 131, 85)" d="M11.39 7.452h0.19v2.809h-0.19v-2.809z"></path>
<path fill="rgb(173, 131, 85)" d="M12.837 6.527h0.19v2.809h-0.19v-2.809z"></path>
<path fill="rgb(173, 131, 85)" d="M14.284 5.609h0.19v2.809h-0.19v-2.809z"></path>
<path fill="rgb(140, 106, 72)" d="M5.021 14.635h10.033v0.237h-10.033v-0.237z"></path>
<path fill="rgb(173, 131, 85)" d="M5.607 11.136h0.19v2.809h-0.19v-2.809z"></path>
<path fill="rgb(140, 106, 72)" d="M5.168 11.637c-0.045 0-0.089-0.022-0.115-0.063-0.041-0.064-0.022-0.148 0.042-0.189l9.751-6.236c0.064-0.041 0.148-0.022 0.189 0.042s0.022 0.148-0.042 0.189l-9.751 6.236c-0.023 0.015-0.048 0.022-0.073 0.022z"></path>
<path fill="rgb(140, 106, 72)" d="M5.023 13.795c-0 0-0.001 0-0.001 0h-0.002v0c-0.042 0.001-0.076 0.035-0.076 0.078s0.034 0.076 0.076 0.078v0.001h1.434v-0.156l-1.431-0z"></path>
<path fill="rgb(140, 106, 72)" d="M6.456 12.713c-0 0-0.001 0-0.001 0h-0.002v0c-0.042 0.001-0.076 0.035-0.076 0.078s0.034 0.076 0.076 0.078v0.001h1.434v-0.156l-1.431-0z"></path>
<path fill="rgb(140, 106, 72)" d="M7.89 11.794c-0 0-0.001 0-0.001 0h-0.002v0c-0.042 0.001-0.076 0.035-0.076 0.078s0.034 0.076 0.076 0.078v0.001h1.434v-0.156l-1.431-0z"></path>
<path fill="rgb(140, 106, 72)" d="M9.324 10.87c-0 0-0.001 0-0.001 0h-0.002v0c-0.042 0.001-0.076 0.035-0.076 0.078s0.034 0.076 0.076 0.078v0.001h1.434v-0.156l-1.431-0z"></path>
<path fill="rgb(140, 106, 72)" d="M10.754 9.952c-0 0-0.001 0-0.001 0h-0.002v0c-0.042 0.001-0.076 0.035-0.076 0.078s0.034 0.076 0.076 0.078v0.001h1.434v-0.156l-1.431-0z"></path>
<path fill="rgb(140, 106, 72)" d="M12.188 9.027c-0 0-0.001 0-0.001 0h-0.002v0c-0.042 0.001-0.076 0.035-0.076 0.078s0.034 0.076 0.076 0.078v0.001h1.434v-0.156l-1.431-0z"></path>
<path fill="rgb(140, 106, 72)" d="M13.622 8.109c-0 0-0.001 0-0.001 0h-0.002v0c-0.042 0.001-0.076 0.035-0.076 0.078s0.034 0.076 0.076 0.078v0.001h1.434v-0.156l-1.431-0z"></path>
</svg>
