<?xml version="1.0" encoding="utf-8"?>
<!-- Generated by IcoMoon.io -->
<!DOCTYPE svg PUBLIC "-//W3C//DTD SVG 1.1//EN" "http://www.w3.org/Graphics/SVG/1.1/DTD/svg11.dtd">
<svg version="1.1" xmlns="http://www.w3.org/2000/svg" xmlns:xlink="http://www.w3.org/1999/xlink" width="20" height="20" viewBox="0 0 20 20">
<path fill="rgb(50, 190, 166)" d="M19.691 10c0-5.352-4.339-9.691-9.69-9.691s-9.691 4.338-9.691 9.691c0 5.352 4.339 9.69 9.691 9.69s9.69-4.339 9.69-9.69z"></path>
<path fill="rgb(255, 255, 255)" d="M11.391 16.092c0 0.303-0.245 0.548-0.548 0.548h-5.052c-0.303 0-0.548-0.245-0.548-0.548v-12.85c0-0.303 0.245-0.548 0.548-0.548h5.052c0.303 0 0.548 0.245 0.548 0.548v12.85z"></path>
<path fill="rgb(207, 209, 209)" d="M15.578 16.758c0 0.303-0.245 0.548-0.548 0.548h-0.381c-0.208-0.078-2.877-0.985-2.877-1.22l3.395-8.935h0.381l0.030 9.607z"></path>
<path fill="rgb(255, 255, 255)" d="M15.197 16.758c0 0.303-0.245 0.548-0.548 0.548 0 0-2.842-0.684-2.902-0.707-0.208-0.078-0.356-0.278-0.356-0.514v-8.667l3.776-0.268 0.030 9.607z"></path>
<path fill="rgb(199, 201, 201)" d="M14.862 16.614l-2.637-0.598v-7.682l2.637-0.156z"></path>
<path fill="rgb(224, 226, 226)" d="M11.68 15.703l0.545 0.313v-7.682l-0.541 0.026z"></path>
<path fill="rgb(72, 161, 175)" d="M14.482 12.111c0 0.008-0.006 0.014-0.014 0.014h-0.209c-0.008 0-0.014-0.006-0.014-0.014v-0.019c0-0.008 0.006-0.014 0.014-0.014h0.209c0.008 0 0.014 0.006 0.014 0.014v0.019z"></path>
<path fill="rgb(227, 235, 238)" d="M14.603 12.501c0-0.168-0.128-0.304-0.128-0.304-0.012-0.022-0.009-0.173-0.009-0.173h-0.206c0 0 0.003 0.152-0.009 0.173 0 0-0.128 0.136-0.128 0.304 0 0 0.001 0.031 0.008 0.075 0.004 0.028 0.020 0.061 0.020 0.097s-0.020 0.073-0.020 0.108c0 0.061 0 0.115 0 0.137 0 0.067 0.022 0.254 0.022 0.296s-0.022 0.084-0.022 0.137 0 0.231 0 0.231 0.011 0.104 0.232 0.104v0 0 0 0c0.221 0 0.232-0.104 0.232-0.104s0-0.178 0-0.231-0.022-0.095-0.022-0.137c0-0.042 0.022-0.229 0.022-0.296 0-0.022 0-0.076 0-0.137 0-0.035-0.020-0.072-0.020-0.108s0.016-0.069 0.020-0.097c0.007-0.044 0.008-0.075 0.008-0.075z"></path>
<path fill="rgb(247, 251, 252)" d="M14.363 12.023h-0.103c0 0 0.003 0.152-0.009 0.173 0 0-0.128 0.136-0.128 0.304 0 0 0.001 0.031 0.008 0.075 0.004 0.028 0.020 0.061 0.020 0.097s-0.020 0.073-0.020 0.108v0.137c0 0.067 0.022 0.254 0.022 0.296s-0.022 0.084-0.022 0.137 0 0.231 0 0.231 0.011 0.104 0.232 0.104v0-1.662z"></path>
<path fill="rgb(156, 201, 211)" d="M14.125 12.529c0.001 0.012 0.003 0.028 0.006 0.046 0.004 0.028 0.020 0.061 0.020 0.097s-0.020 0.073-0.020 0.108c0 0.061 0 0.115 0 0.137 0 0.067 0.022 0.254 0.022 0.296s-0.022 0.084-0.022 0.137 0 0.231 0 0.231 0.087-0.062 0.232-0.062c0.145 0 0.232 0.062 0.232 0.062s0-0.178 0-0.231-0.022-0.095-0.022-0.137c0-0.042 0.022-0.229 0.022-0.296 0-0.022 0-0.076 0-0.137 0-0.035-0.020-0.072-0.020-0.108s0.016-0.069 0.020-0.097c0.003-0.019 0.005-0.036 0.006-0.048 0 0-0.121-0.012-0.242-0.012-0.118 0-0.234 0.014-0.234 0.014z"></path>
<path fill="rgb(72, 161, 175)" d="M14.491 12.139c0 0.008-0.007 0.015-0.015 0.015h-0.225c-0.008 0-0.015-0.007-0.015-0.015v-0.021c0-0.008 0.007-0.015 0.015-0.015h0.225c0.008 0 0.015 0.007 0.015 0.015v0.021z"></path>
<path fill="rgb(92, 182, 191)" d="M14.363 12.154h-0.112c-0.008 0-0.015-0.007-0.015-0.015v-0.021c0-0.008 0.007-0.015 0.015-0.015h0.112v0.051z"></path>
<path fill="rgb(171, 214, 214)" d="M14.475 12.196c-0.002-0.003-0.003-0.009-0.004-0.016h-0.215c-0.001 0.007-0.002 0.012-0.004 0.016v0.001h0.223z"></path>
<path fill="rgb(191, 226, 225)" d="M14.363 12.179h-0.108c-0.001 0.007-0.002 0.012-0.004 0.016v0.001h0.111v-0.016z"></path>
<path fill="rgb(72, 161, 175)" d="M14.498 12.149c0 0.002-0.002 0.004-0.004 0.004h-0.26c-0.002 0-0.004-0.002-0.004-0.004v-0.006c0-0.002 0.002-0.004 0.004-0.004h0.26c0.002 0 0.004 0.002 0.004 0.004v0.006z"></path>
<path fill="rgb(92, 182, 191)" d="M14.363 12.139h-0.13c-0.002 0-0.004 0.002-0.004 0.004v0.006c0 0.002 0.002 0.004 0.004 0.004h0.13v-0.015z"></path>
<path fill="rgb(72, 161, 175)" d="M14.449 11.999h-0.171c-0.047 0-0.042 0.034-0.042 0.034s0 0.048 0 0.054c0 0.005 0.002 0.007 0.007 0.007s0.233 0 0.24 0c0.006 0 0.008-0.003 0.008-0.008s0-0.053 0-0.053 0.005-0.034-0.042-0.034z"></path>
<path fill="rgb(92, 182, 191)" d="M14.363 11.999h-0.085c-0.047 0-0.042 0.034-0.042 0.034s0 0.048 0 0.054c0 0.005 0.002 0.007 0.007 0.007 0.003 0 0.061 0 0.12 0v-0.095z"></path>
<path fill="rgb(202, 226, 232)" d="M14.363 12.515c-0.118 0-0.238 0.014-0.238 0.014 0.001 0.012 0.003 0.028 0.006 0.046 0.004 0.028 0.020 0.061 0.020 0.097s-0.020 0.073-0.020 0.108v0.137c0 0.067 0.022 0.254 0.022 0.296s-0.022 0.084-0.022 0.137 0 0.231 0 0.231 0.012 0.104 0.232 0.104l-0-1.17z"></path>
<path fill="rgb(72, 161, 175)" d="M13.155 11.995c0 0.008-0.006 0.014-0.014 0.014h-0.209c-0.008 0-0.014-0.006-0.014-0.014v-0.019c0-0.008 0.006-0.014 0.014-0.014h0.209c0.008 0 0.014 0.006 0.014 0.014v0.019z"></path>
<path fill="rgb(227, 235, 238)" d="M13.277 12.385c0-0.168-0.128-0.304-0.128-0.304-0.012-0.022-0.009-0.173-0.009-0.173h-0.206c0 0 0.003 0.152-0.009 0.173 0 0-0.128 0.136-0.128 0.304 0 0 0.001 0.031 0.008 0.075 0.004 0.028 0.020 0.061 0.020 0.097s-0.020 0.073-0.020 0.108c0 0.061 0 0.115 0 0.137 0 0.067 0.022 0.254 0.022 0.296s-0.022 0.084-0.022 0.137 0 0.231 0 0.231 0.011 0.104 0.232 0.104v0 0 0 0c0.221 0 0.232-0.104 0.232-0.104s0-0.178 0-0.231-0.022-0.095-0.022-0.137c0-0.042 0.022-0.229 0.022-0.296 0-0.022 0-0.076 0-0.137 0-0.035-0.020-0.072-0.020-0.108s0.016-0.069 0.020-0.097c0.007-0.044 0.008-0.075 0.008-0.075z"></path>
<path fill="rgb(156, 201, 211)" d="M13.277 12.385c0-0.080-0.029-0.152-0.059-0.207-0-0.001-0.362-0.001-0.362-0.001-0.030 0.054-0.059 0.127-0.059 0.207 0 0 0.001 0.031 0.008 0.075 0.004 0.028 0.020 0.061 0.020 0.097s-0.020 0.073-0.020 0.108c0 0.061 0 0.115 0 0.137 0 0.067 0.022 0.254 0.022 0.296s-0.022 0.084-0.022 0.137 0 0.231 0 0.231 0.011 0.104 0.232 0.104v0 0 0 0c0.221 0 0.232-0.104 0.232-0.104s0-0.178 0-0.231-0.022-0.095-0.022-0.137c0-0.042 0.022-0.229 0.022-0.296 0-0.022 0-0.076 0-0.137 0-0.035-0.020-0.072-0.020-0.108s0.016-0.069 0.020-0.097c0.007-0.044 0.008-0.075 0.008-0.075z"></path>
<path fill="rgb(247, 251, 252)" d="M13.036 11.908h-0.103c0 0 0.003 0.152-0.009 0.173 0 0-0.128 0.136-0.128 0.304 0 0 0.001 0.031 0.008 0.075 0.004 0.028 0.020 0.061 0.020 0.097s-0.020 0.073-0.020 0.108v0.137c0 0.067 0.022 0.254 0.022 0.296s-0.022 0.084-0.022 0.137 0 0.231 0 0.231 0.011 0.104 0.232 0.104v0-1.662z"></path>
<path fill="rgb(72, 161, 175)" d="M13.164 12.023c0 0.008-0.007 0.015-0.015 0.015h-0.225c-0.008 0-0.015-0.007-0.015-0.015v-0.021c0-0.008 0.007-0.015 0.015-0.015h0.225c0.008 0 0.015 0.007 0.015 0.015v0.021z"></path>
<path fill="rgb(92, 182, 191)" d="M13.036 12.038h-0.112c-0.008 0-0.015-0.007-0.015-0.015v-0.021c0-0.008 0.007-0.015 0.015-0.015h0.112v0.051z"></path>
<path fill="rgb(171, 214, 214)" d="M13.148 12.080c-0.002-0.003-0.003-0.009-0.004-0.016h-0.215c-0.001 0.007-0.002 0.012-0.004 0.016v0.001h0.223z"></path>
<path fill="rgb(191, 226, 225)" d="M13.036 12.064h-0.108c-0.001 0.007-0.002 0.012-0.004 0.016v0.001h0.111v-0.016z"></path>
<path fill="rgb(72, 161, 175)" d="M13.171 12.034c0 0.002-0.002 0.004-0.004 0.004h-0.26c-0.002 0-0.004-0.002-0.004-0.004v-0.006c0-0.002 0.002-0.004 0.004-0.004h0.26c0.002 0 0.004 0.002 0.004 0.004v0.006z"></path>
<path fill="rgb(92, 182, 191)" d="M13.036 12.024h-0.13c-0.002 0-0.004 0.002-0.004 0.004v0.006c0 0.002 0.002 0.004 0.004 0.004h0.13v-0.015z"></path>
<path fill="rgb(72, 161, 175)" d="M13.122 11.883h-0.171c-0.047 0-0.042 0.034-0.042 0.034s0 0.048 0 0.054c0 0.005 0.002 0.007 0.007 0.007s0.233 0 0.24 0c0.006 0 0.008-0.003 0.008-0.008s0-0.053 0-0.053 0.005-0.034-0.042-0.034z"></path>
<path fill="rgb(92, 182, 191)" d="M13.036 11.883h-0.085c-0.047 0-0.042 0.034-0.042 0.034s0 0.048 0 0.054c0 0.005 0.002 0.007 0.007 0.007 0.003 0 0.061 0 0.12 0v-0.095z"></path>
<path fill="rgb(202, 226, 232)" d="M12.855 12.179c-0.030 0.054-0.059 0.126-0.059 0.206 0 0 0.001 0.031 0.008 0.075 0.004 0.028 0.020 0.061 0.020 0.097s-0.020 0.073-0.020 0.108v0.137c0 0.067 0.022 0.254 0.022 0.296s-0.022 0.084-0.022 0.137 0 0.231 0 0.231 0.011 0.104 0.232 0.104v0-1.391l-0.181 0z"></path>
<path fill="rgb(72, 161, 175)" d="M12.527 11.973c0 0.008-0.006 0.014-0.014 0.014h-0.209c-0.008 0-0.014-0.006-0.014-0.014v-0.019c0-0.008 0.006-0.014 0.014-0.014h0.209c0.008 0 0.014 0.006 0.014 0.014v0.019z"></path>
<path fill="rgb(227, 235, 238)" d="M12.648 12.362c0-0.168-0.128-0.304-0.128-0.304-0.012-0.022-0.009-0.173-0.009-0.173h-0.206c0 0 0.003 0.152-0.009 0.173 0 0-0.128 0.136-0.128 0.304 0 0 0.001 0.031 0.008 0.075 0.004 0.028 0.020 0.061 0.020 0.097s-0.020 0.073-0.020 0.108c0 0.061 0 0.115 0 0.137 0 0.067 0.022 0.254 0.022 0.296s-0.022 0.084-0.022 0.137 0 0.231 0 0.231 0.011 0.104 0.232 0.104v0 0 0 0c0.221 0 0.232-0.104 0.232-0.104s0-0.178 0-0.231-0.022-0.095-0.022-0.137c0-0.042 0.022-0.229 0.022-0.296 0-0.022 0-0.076 0-0.137 0-0.035-0.020-0.072-0.020-0.108s0.016-0.069 0.020-0.097c0.007-0.044 0.008-0.075 0.008-0.075z"></path>
<path fill="rgb(156, 201, 211)" d="M12.648 12.362c0-0.080-0.029-0.152-0.059-0.207-0-0.001-0.362-0.001-0.362-0.001-0.030 0.054-0.059 0.127-0.059 0.207 0 0 0.001 0.031 0.008 0.075 0.004 0.028 0.020 0.061 0.020 0.097s-0.020 0.073-0.020 0.108c0 0.061 0 0.115 0 0.137 0 0.067 0.022 0.254 0.022 0.296s-0.022 0.084-0.022 0.137 0 0.231 0 0.231 0.011 0.104 0.232 0.104v0 0 0 0c0.221 0 0.232-0.104 0.232-0.104s0-0.178 0-0.231-0.022-0.095-0.022-0.137c0-0.042 0.022-0.229 0.022-0.296 0-0.022 0-0.076 0-0.137 0-0.035-0.020-0.072-0.020-0.108s0.016-0.069 0.020-0.097c0.007-0.044 0.008-0.075 0.008-0.075z"></path>
<path fill="rgb(247, 251, 252)" d="M12.408 11.885h-0.103c0 0 0.003 0.152-0.009 0.173 0 0-0.128 0.136-0.128 0.304 0 0 0.001 0.031 0.008 0.075 0.004 0.028 0.020 0.061 0.020 0.097s-0.020 0.073-0.020 0.108v0.137c0 0.067 0.022 0.254 0.022 0.296s-0.022 0.084-0.022 0.137 0 0.231 0 0.231 0.011 0.104 0.232 0.104v0-1.662z"></path>
<path fill="rgb(72, 161, 175)" d="M12.536 12.001c0 0.008-0.007 0.015-0.015 0.015h-0.225c-0.008 0-0.015-0.007-0.015-0.015v-0.021c0-0.008 0.007-0.015 0.015-0.015h0.225c0.008 0 0.015 0.007 0.015 0.015v0.021z"></path>
<path fill="rgb(92, 182, 191)" d="M12.408 12.015h-0.112c-0.008 0-0.015-0.007-0.015-0.015v-0.021c0-0.008 0.007-0.015 0.015-0.015h0.112v0.051z"></path>
<path fill="rgb(171, 214, 214)" d="M12.52 12.057c-0.002-0.003-0.003-0.009-0.004-0.016h-0.215c-0.001 0.007-0.002 0.012-0.004 0.016v0.001h0.223z"></path>
<path fill="rgb(191, 226, 225)" d="M12.408 12.041h-0.108c-0.001 0.007-0.002 0.012-0.004 0.016v0.001h0.111v-0.016z"></path>
<path fill="rgb(72, 161, 175)" d="M12.543 12.011c0 0.002-0.002 0.004-0.004 0.004h-0.26c-0.002 0-0.004-0.002-0.004-0.004v-0.006c0-0.002 0.002-0.004 0.004-0.004h0.26c0.002 0 0.004 0.002 0.004 0.004v0.006z"></path>
<path fill="rgb(92, 182, 191)" d="M12.408 12.001h-0.13c-0.002 0-0.004 0.002-0.004 0.004v0.006c0 0.002 0.002 0.004 0.004 0.004h0.13v-0.015z"></path>
<path fill="rgb(72, 161, 175)" d="M12.494 11.86h-0.171c-0.047 0-0.042 0.034-0.042 0.034s0 0.048 0 0.054c0 0.005 0.002 0.007 0.007 0.007s0.233 0 0.24 0c0.006 0 0.008-0.003 0.008-0.008s0-0.053 0-0.053 0.005-0.034-0.042-0.034z"></path>
<path fill="rgb(92, 182, 191)" d="M12.408 11.86h-0.085c-0.047 0-0.042 0.034-0.042 0.034s0 0.048 0 0.054c0 0.005 0.002 0.007 0.007 0.007 0.003 0 0.061 0 0.12 0v-0.095z"></path>
<path fill="rgb(202, 226, 232)" d="M12.227 12.156c-0.030 0.054-0.059 0.126-0.059 0.206 0 0 0.001 0.031 0.008 0.075 0.004 0.028 0.020 0.061 0.020 0.097s-0.020 0.073-0.020 0.108v0.137c0 0.067 0.022 0.254 0.022 0.296s-0.022 0.084-0.022 0.137 0 0.231 0 0.231 0.011 0.104 0.232 0.104v0-1.391l-0.181 0z"></path>
<path fill="rgb(255, 255, 255)" d="M14.91 14.056l-3.231-0.26v-0.833l3.206 0.13z"></path>
<path fill="rgb(255, 255, 255)" d="M14.951 11.448l-3.273-0.041v-0.703l3.247-0.011z"></path>
<path fill="rgb(237, 175, 107)" d="M12.899 9.009c0.025 0.177-0.076 0.301-0.219 0.321s-0.274-0.072-0.299-0.248c-0.025-0.177 0.063-0.393 0.206-0.413s0.287 0.163 0.312 0.34z"></path>
<path fill="rgb(237, 175, 107)" d="M13.574 9.071c-0.017 0.178-0.144 0.275-0.288 0.261s-0.249-0.134-0.232-0.311c0.017-0.178 0.153-0.367 0.296-0.354s0.241 0.226 0.223 0.404z"></path>
<path fill="rgb(237, 175, 107)" d="M14.237 8.958c0.042 0.174-0.045 0.307-0.185 0.341s-0.28-0.044-0.322-0.217c-0.042-0.174 0.023-0.397 0.163-0.431s0.302 0.134 0.344 0.307z"></path>
<path fill="rgb(255, 255, 255)" d="M14.91 9.844l-3.231 0.052v-0.715l3.206-0.118z"></path>
<path fill="rgb(72, 161, 175)" d="M14.434 14.28c0 0.008-0.006 0.014-0.014 0.014h-0.214c-0.008 0-0.014-0.006-0.014-0.014v-0.020c0-0.008 0.006-0.014 0.014-0.014h0.214c0.008 0 0.014 0.006 0.014 0.014v0.020z"></path>
<path fill="rgb(227, 235, 238)" d="M14.671 14.978c0-0.374-0.243-0.611-0.243-0.611-0.013-0.022-0.010-0.177-0.010-0.177h-0.21c0 0 0.003 0.155-0.010 0.177 0 0-0.243 0.241-0.243 0.611s0.044 0.415 0.044 0.589c0 0.067-0.047 0.142-0.047 0.367 0 0.084 0 0.664 0 0.664s0.031 0.165 0.361 0.165v0 0 0 0c0.33 0 0.361-0.165 0.361-0.165s0-0.58 0-0.664c0-0.219-0.047-0.3-0.047-0.367 0-0.178 0.044-0.215 0.044-0.589z"></path>
<path fill="rgb(247, 251, 252)" d="M14.313 14.19h-0.105c0 0 0.003 0.155-0.010 0.177 0 0-0.243 0.241-0.243 0.611s0.044 0.415 0.044 0.589c0 0.067-0.047 0.142-0.047 0.367 0 0.084 0 0.664 0 0.664s0.031 0.165 0.361 0.165v0 0 0 0l-0-2.573z"></path>
<path fill="rgb(72, 161, 175)" d="M14.444 14.309c0 0.008-0.007 0.015-0.015 0.015h-0.23c-0.008 0-0.015-0.007-0.015-0.015v-0.021c0-0.008 0.007-0.015 0.015-0.015h0.23c0.008 0 0.015 0.007 0.015 0.015v0.021z"></path>
<path fill="rgb(92, 182, 191)" d="M14.313 14.324h-0.115c-0.008 0-0.015-0.007-0.015-0.015v-0.021c0-0.008 0.007-0.015 0.015-0.015h0.115v0.052z"></path>
<path fill="rgb(171, 214, 214)" d="M14.427 14.367c-0.002-0.003-0.003-0.009-0.004-0.017h-0.22c-0.001 0.007-0.002 0.013-0.004 0.016v0.001h0.228z"></path>
<path fill="rgb(191, 226, 225)" d="M14.313 14.35h-0.11c-0.001 0.007-0.002 0.013-0.004 0.016v0.001h0.114v-0.017z"></path>
<path fill="rgb(72, 161, 175)" d="M14.451 14.319c0 0.002-0.002 0.004-0.004 0.004h-0.266c-0.002 0-0.004-0.002-0.004-0.004v-0.006c0-0.002 0.002-0.004 0.004-0.004h0.266c0.002 0 0.004 0.002 0.004 0.004v0.006z"></path>
<path fill="rgb(92, 182, 191)" d="M14.313 14.309h-0.133c-0.002 0-0.004 0.002-0.004 0.004v0.006c0 0.002 0.002 0.004 0.004 0.004h0.133v-0.015z"></path>
<path fill="rgb(72, 161, 175)" d="M14.401 14.165h-0.175c-0.048 0-0.043 0.035-0.043 0.035s0 0.050 0 0.055c0 0.005 0.002 0.007 0.007 0.007s0.239 0 0.245 0 0.008-0.003 0.008-0.008 0-0.054 0-0.054 0.005-0.035-0.043-0.035z"></path>
<path fill="rgb(92, 182, 191)" d="M14.313 14.165h-0.087c-0.048 0-0.043 0.035-0.043 0.035s0 0.050 0 0.055c0 0.005 0.002 0.007 0.007 0.007 0.003 0 0.063 0 0.123 0v-0.097z"></path>
<path fill="rgb(144, 199, 211)" d="M14.671 14.978c0-0.228-0.091-0.406-0.161-0.509l-0.391-0.001c-0.071 0.104-0.163 0.283-0.163 0.51 0 0.369 0.044 0.415 0.044 0.589 0 0.067-0.047 0.142-0.047 0.367 0 0.084 0 0.664 0 0.664s0.031 0.165 0.361 0.165v0 0 0 0c0.33 0 0.361-0.165 0.361-0.165s0-0.58 0-0.664c0-0.219-0.047-0.3-0.047-0.367 0-0.178 0.044-0.215 0.044-0.589z"></path>
<path fill="rgb(72, 161, 175)" d="M14.671 14.978c0-0.228-0.091-0.406-0.161-0.509l-0.391-0.001c-0.071 0.104-0.163 0.283-0.163 0.51 0 0.369 0.044 0.415 0.044 0.589 0 0.067-0.047 0.142-0.047 0.367 0 0.084 0 0.664 0 0.664s0.177-0.073 0.361-0.073c0.183 0 0.361 0.073 0.361 0.073s0-0.58 0-0.664c0-0.219-0.047-0.3-0.047-0.367 0-0.178 0.044-0.215 0.044-0.589z"></path>
<path fill="rgb(92, 182, 191)" d="M14.312 14.469l-0.194-0.001c-0.071 0.104-0.163 0.283-0.163 0.51 0 0.369 0.044 0.415 0.044 0.589 0 0.067-0.047 0.142-0.047 0.367 0 0.084 0 0.664 0 0.664s0.031 0.165 0.361 0.165v0 0 0 0l-0.001-2.295z"></path>
<path fill="rgb(198, 189, 32)" d="M13.393 14.189c0 0.008-0.006 0.014-0.014 0.014h-0.214c-0.008 0-0.014-0.006-0.014-0.014v-0.020c0-0.008 0.006-0.014 0.014-0.014h0.214c0.008 0 0.014 0.006 0.014 0.014v0.020z"></path>
<path fill="rgb(227, 235, 238)" d="M13.629 14.887c0-0.374-0.243-0.611-0.243-0.611-0.013-0.022-0.010-0.177-0.010-0.177h-0.21c0 0 0.003 0.155-0.010 0.177 0 0-0.243 0.241-0.243 0.611s0.044 0.415 0.044 0.589c0 0.067-0.047 0.142-0.047 0.367 0 0.084 0 0.664 0 0.664s0.031 0.165 0.361 0.165v0 0 0 0c0.33 0 0.361-0.165 0.361-0.165s0-0.58 0-0.664c0-0.219-0.047-0.3-0.047-0.367 0-0.178 0.044-0.215 0.044-0.589z"></path>
<path fill="rgb(247, 251, 252)" d="M13.271 14.099h-0.105c0 0 0.003 0.155-0.010 0.177 0 0-0.243 0.241-0.243 0.611s0.044 0.415 0.044 0.589c0 0.067-0.047 0.142-0.047 0.367 0 0.084 0 0.664 0 0.664s0.031 0.165 0.361 0.165v0 0 0 0l-0-2.573z"></path>
<path fill="rgb(214, 209, 30)" d="M13.402 14.217c0 0.008-0.007 0.015-0.015 0.015h-0.23c-0.008 0-0.015-0.007-0.015-0.015v-0.021c0-0.008 0.007-0.015 0.015-0.015h0.23c0.008 0 0.015 0.007 0.015 0.015v0.021z"></path>
<path fill="rgb(234, 225, 52)" d="M13.271 14.233h-0.115c-0.008 0-0.015-0.007-0.015-0.015v-0.021c0-0.008 0.007-0.015 0.015-0.015h0.115v0.052z"></path>
<path fill="rgb(171, 214, 214)" d="M13.386 14.276c-0.002-0.003-0.003-0.009-0.004-0.017h-0.22c-0.001 0.007-0.002 0.013-0.004 0.016v0.001h0.228z"></path>
<path fill="rgb(191, 226, 225)" d="M13.271 14.259h-0.11c-0.001 0.007-0.002 0.013-0.004 0.016v0.001h0.114v-0.017z"></path>
<path fill="rgb(214, 209, 30)" d="M13.409 14.228c0 0.002-0.002 0.004-0.004 0.004h-0.266c-0.002 0-0.004-0.002-0.004-0.004v-0.006c0-0.002 0.002-0.004 0.004-0.004h0.266c0.002 0 0.004 0.002 0.004 0.004v0.006z"></path>
<path fill="rgb(234, 225, 52)" d="M13.271 14.218h-0.133c-0.002 0-0.004 0.002-0.004 0.004v0.006c0 0.002 0.002 0.004 0.004 0.004h0.133v-0.015z"></path>
<path fill="rgb(214, 209, 30)" d="M13.359 14.074h-0.175c-0.048 0-0.043 0.035-0.043 0.035s0 0.050 0 0.055c0 0.005 0.002 0.007 0.007 0.007s0.239 0 0.245 0 0.008-0.003 0.008-0.008 0-0.054 0-0.054 0.005-0.035-0.043-0.035z"></path>
<path fill="rgb(234, 225, 52)" d="M13.271 14.074h-0.087c-0.048 0-0.043 0.035-0.043 0.035s0 0.050 0 0.055c0 0.005 0.002 0.007 0.007 0.007 0.003 0 0.063 0 0.123 0v-0.097z"></path>
<path fill="rgb(144, 199, 211)" d="M13.629 14.887c0-0.228-0.091-0.406-0.161-0.509l-0.391-0.001c-0.071 0.104-0.163 0.283-0.163 0.51 0 0.369 0.044 0.415 0.044 0.589 0 0.067-0.047 0.142-0.047 0.367 0 0.084 0 0.664 0 0.664s0.031 0.165 0.361 0.165v0 0 0 0c0.33 0 0.361-0.165 0.361-0.165s0-0.58 0-0.664c0-0.219-0.047-0.3-0.047-0.367 0-0.178 0.044-0.215 0.044-0.589z"></path>
<path fill="rgb(214, 209, 30)" d="M13.629 14.887c0-0.228-0.091-0.406-0.161-0.509l-0.391-0.001c-0.071 0.104-0.163 0.283-0.163 0.51 0 0.369 0.044 0.415 0.044 0.589 0 0.067-0.047 0.142-0.047 0.367 0 0.084 0 0.664 0 0.664s0.177-0.073 0.361-0.073c0.183 0 0.361 0.073 0.361 0.073s0-0.58 0-0.664c0-0.219-0.047-0.3-0.047-0.367 0-0.178 0.044-0.215 0.044-0.589z"></path>
<path fill="rgb(234, 225, 52)" d="M13.271 14.378l-0.194-0.001c-0.071 0.104-0.163 0.283-0.163 0.51 0 0.369 0.044 0.415 0.044 0.589 0 0.067-0.047 0.142-0.047 0.367 0 0.084 0 0.664 0 0.664s0.031 0.165 0.361 0.165v0 0 0 0l-0.001-2.295z"></path>
<path fill="rgb(255, 255, 255)" d="M14.888 17.051l-3.21-0.688v-0.923l3.206 0.469z"></path>
<path fill="rgb(207, 209, 209)" d="M10.997 15.95h-5.361v-7.465c0-0.264 0.214-0.478 0.478-0.478h4.405c0.264 0 0.478 0.214 0.478 0.478v7.465z"></path>
<path fill="rgb(204, 202, 202)" d="M5.242 7.241h6.148v0.177h-6.148v-0.177z"></path>
<path fill="rgb(204, 202, 202)" d="M11.376 7.418h0.028v8.704h-0.028v-8.704z"></path>
<path fill="rgb(193, 193, 193)" d="M6.187 5.779c0 0.658-0.093 0.912-0.208 0.912s-0.208-0.257-0.208-0.912 0.093-0.912 0.208-0.912c0.115 0 0.208 0.254 0.208 0.912z"></path>
<path fill="rgb(224, 222, 222)" d="M5.979 6.691c-0.115 0-0.208-0.257-0.208-0.912s0.093-0.912 0.208-0.912c0.115 0 0.115 1.824 0 1.824z"></path>
<path fill="rgb(131, 176, 65)" d="M9.997 8.607c-0.057 0.036-0.098 0.094-0.12 0.163-0.070-0.008-0.139 0.005-0.194 0.040-0.149 0.095-0.209 0.334-0.007 0.521 0.182 0.168 0.354 0.245 0.503 0.151 0.041-0.026 0.089-0.068 0.098-0.090 0.027 0 0.078-0.025 0.119-0.051 0.149-0.095 0.152-0.284 0.077-0.52-0.084-0.262-0.326-0.309-0.475-0.214z"></path>
<path fill="rgb(125, 55, 25)" d="M9.904 8.834c0 0-0.047-0.11-0.111-0.159s0.038-0.014 0.038-0.014l0.087 0.168-0.013 0.005z"></path>
<path fill="rgb(125, 55, 25)" d="M10.243 9.38l0.011 0.034 0.013-0.023 0.020 0.009-0-0.021 0.022-0.006-0.042-0.022z"></path>
<path fill="rgb(139, 197, 63)" d="M10.002 8.638c-0.053 0.034-0.091 0.088-0.112 0.152-0.066-0.007-0.129 0.004-0.181 0.037-0.139 0.088-0.195 0.312-0.007 0.486 0.17 0.157 0.331 0.229 0.469 0.14 0.039-0.025 0.083-0.063 0.091-0.084 0.026 0 0.073-0.023 0.111-0.047 0.139-0.088 0.142-0.264 0.072-0.485-0.078-0.245-0.304-0.288-0.443-0.2z"></path>
<path fill="rgb(255, 255, 255)" d="M10.065 8.76c0 0 0.12-0.025 0.211 0.051 0 0-0.065-0.196-0.211-0.051z"></path>
<path fill="rgb(202, 32, 39)" d="M8.572 8.758c-0.064-0.019-0.134-0.011-0.2 0.017-0.040-0.058-0.095-0.101-0.158-0.119-0.168-0.049-0.387 0.063-0.394 0.336-0.007 0.246 0.049 0.426 0.218 0.475 0.047 0.014 0.109 0.022 0.131 0.014 0.018 0.021 0.070 0.042 0.116 0.055 0.168 0.049 0.312-0.072 0.439-0.283 0.141-0.235 0.017-0.446-0.151-0.496z"></path>
<path fill="rgb(125, 55, 25)" d="M8.341 8.837c0 0 0.052-0.107 0.046-0.187s0.035 0.019 0.035 0.019l-0.068 0.175-0.013-0.007z"></path>
<path fill="rgb(125, 55, 25)" d="M8.155 9.447l-0.018 0.031 0.026-0.005 0.007 0.021 0.016-0.014 0.019 0.012-0.011-0.045z"></path>
<path fill="rgb(233, 44, 37)" d="M8.551 8.782c-0.060-0.017-0.125-0.010-0.186 0.016-0.037-0.054-0.088-0.094-0.147-0.111-0.157-0.046-0.36 0.058-0.367 0.313-0.006 0.229 0.046 0.396 0.202 0.442 0.044 0.013 0.101 0.020 0.122 0.013 0.017 0.019 0.065 0.039 0.108 0.052 0.157 0.046 0.29-0.067 0.408-0.263 0.131-0.218 0.016-0.415-0.141-0.461z"></path>
<path fill="rgb(255, 255, 255)" d="M8.538 8.899c0 0 0.085 0.063 0.087 0.166 0 0 0.090-0.154-0.087-0.166z"></path>
<path fill="rgb(29, 158, 73)" d="M8.243 8.601c-0.003 0.025 0.033 0.065 0.084 0.071s0.094-0.008 0.097-0.033c0.008-0.059-0.181-0.038-0.181-0.038z"></path>
<path fill="rgb(125, 55, 25)" d="M6.841 8.844c0 0 0.107-0.067 0.146-0.143s0.021 0.037 0.021 0.037l-0.16 0.119-0.008-0.013z"></path>
<path fill="rgb(125, 55, 25)" d="M6.331 9.289l-0.034 0.017 0.026 0.010-0.006 0.022 0.022-0.004 0.010 0.022 0.015-0.047z"></path>
<path fill="rgb(215, 197, 39)" d="M7.061 8.913c-0.044-0.049-0.107-0.079-0.177-0.090-0.004-0.069-0.027-0.134-0.070-0.182-0.115-0.129-0.356-0.15-0.506 0.076-0.134 0.203-0.181 0.382-0.066 0.511 0.032 0.036 0.080 0.075 0.102 0.080 0.004 0.027 0.037 0.072 0.068 0.107 0.115 0.129 0.299 0.103 0.515-0.008 0.241-0.123 0.248-0.365 0.132-0.494z"></path>
<path fill="rgb(255, 255, 255)" d="M6.956 8.982c0 0 0.043 0.133-0.040 0.261 0 0 0.233-0.132 0.040-0.261z"></path>
<path fill="rgb(237, 237, 237)" d="M5.93 9.431h4.727v0.197h-4.727v-0.197z"></path>
<path fill="rgb(237, 237, 237)" d="M5.93 10.75h4.727v0.197h-4.727v-0.197z"></path>
<path fill="rgb(249, 236, 228)" d="M7.666 11.852c-0.008 0.198-0.402 0.352-0.76 0.352-0.381 0-0.744-0.222-0.685-0.435 0.004-0.015-0.033-0.2 0.004-0.216 0.112-0.047 0.367 0.142 0.673 0.142 0.329 0 0.612-0.266 0.748-0.175 0.032 0.022 0.021 0.304 0.019 0.331z"></path>
<path fill="rgb(245, 209, 175)" d="M7.647 11.521c0.12 0.227-0.331 0.464-0.738 0.464s-0.797-0.287-0.668-0.509c0.16-0.274 0.251-0.030 0.658-0.030s0.609-0.19 0.748 0.075z"></path>
<path fill="rgb(149, 46, 37)" d="M7.617 11.527c0.115 0.217-0.317 0.445-0.708 0.445s-0.764-0.276-0.641-0.488c0.153-0.263 0.24-0.029 0.631-0.029s0.584-0.182 0.717 0.072z"></path>
<path fill="rgb(249, 236, 228)" d="M6.651 11.418c0 0 0.090 0.045 0.045 0.128 0 0 0.075-0.045 0.1-0.1l-0.145-0.028z"></path>
<path fill="rgb(249, 236, 228)" d="M7.234 11.574c0 0.027-0.039 0.048-0.086 0.048s-0.086-0.022-0.086-0.048c0-0.027 0.054-0.031 0.101-0.031s0.071 0.004 0.071 0.031z"></path>
<path fill="rgb(237, 237, 237)" d="M5.93 12.070h4.727v0.197h-4.727v-0.197z"></path>
<path fill="rgb(255, 255, 255)" d="M10.072 13.063c0 0 0.316-0.122 0.301-0.031 0 0-0.006 0.089 0.011 0.152 0 0 0.026 0.099-0.076 0.078 0 0-0.23-0.065-0.286-0.060l0.050-0.139z"></path>
<path fill="rgb(235, 118, 35)" d="M10.057 13.255c-0.069 0-0.125-0.036-0.126-0.082l-0-0.091c-0-0.045 0.056-0.083 0.125-0.083v0c0.069-0 0.125 0.036 0.126 0.082l0 0.091c0 0.045-0.056 0.083-0.125 0.083v0z"></path>
<path fill="rgb(228, 130, 37)" d="M9.687 12.915c0 0-0.133-0.146-0.194-0.188 0 0-0.428-0.26-0.703-0.202 0 0-0.534 0.186-0.556 0.431 0 0-0.288 0.602 1.027 0.513 0.185-0.012 0.369-0.112 0.436-0.136 0 0 0.195-0.030 0.258-0.039 0 0 0.193-0.036 0.16-0.245-0-0 0.005-0.117-0.427-0.134z"></path>
<path fill="rgb(246, 146, 32)" d="M9.697 12.951c0.305 0.012 0.392 0.074 0.417 0.109 0.001-0.004 0.001-0.007 0-0.011 0 0 0.005-0.117-0.427-0.134 0 0-0.133-0.146-0.194-0.188 0 0-0.428-0.26-0.703-0.202 0 0-0.534 0.186-0.556 0.431 0 0 0.006 0.001 0.017 0.003 0.080-0.223 1.447-0.008 1.447-0.008z"></path>
<path fill="rgb(237, 237, 237)" d="M5.93 13.39h4.727v0.197h-4.727v-0.197z"></path>
<path fill="rgb(237, 237, 237)" d="M5.911 13.981h2.265v1.753h-2.265v-1.753z"></path>
<path fill="rgb(212, 214, 214)" d="M5.911 14.217h2.265v0.118h-2.265v-0.118z"></path>
<path fill="rgb(237, 237, 237)" d="M8.412 13.981h2.265v1.753h-2.265v-1.753z"></path>
<path fill="rgb(212, 214, 214)" d="M8.412 14.217h2.265v0.118h-2.265v-0.118z"></path>
</svg>
