<?xml version="1.0" encoding="utf-8"?>
<!-- Generated by IcoMoon.io -->
<!DOCTYPE svg PUBLIC "-//W3C//DTD SVG 1.1//EN" "http://www.w3.org/Graphics/SVG/1.1/DTD/svg11.dtd">
<svg version="1.1" xmlns="http://www.w3.org/2000/svg" xmlns:xlink="http://www.w3.org/1999/xlink" width="20" height="20" viewBox="0 0 20 20">
<path fill="rgb(74, 188, 150)" d="M19.691 10c0-5.352-4.339-9.691-9.69-9.691s-9.691 4.338-9.691 9.691c0 5.352 4.339 9.69 9.691 9.69s9.69-4.339 9.69-9.69z"></path>
<path fill="rgb(239, 237, 230)" d="M10 5.768c-3.318 0-5.783-1.6-5.807-1.616-0.036-0.024-0.046-0.072-0.022-0.108s0.072-0.046 0.108-0.022c0.024 0.016 2.451 1.59 5.721 1.59 3.273 0 6.122-1.577 6.15-1.593 0.038-0.021 0.085-0.008 0.106 0.030s0.008 0.085-0.030 0.106c-0.029 0.016-2.911 1.613-6.227 1.613z"></path>
<path fill="rgb(239, 237, 230)" d="M13.114 5.677l-1.533-0.449c0 0-0.77-0.132-1.481-0.148-0.005-0.001-0.010-0.002-0.015-0.002-0.020 0-0.041 0-0.061 0s-0.041-0-0.061-0c-0.005 0-0.010 0.001-0.015 0.002-0.711 0.016-1.481 0.148-1.481 0.148l-1.533 0.449-2.393 2.357 1.771 1.808 0.639-0.623v5.573c0 0.341 1.448 0.518 2.954 0.532 0.005 0 0.010 0.001 0.016 0.001 0.034 0 0.069 0 0.103-0s0.069 0 0.103 0c0.005 0 0.010-0.001 0.016-0.001 1.506-0.014 2.954-0.191 2.954-0.532v-5.573l0.639 0.623 1.771-1.808-2.393-2.357z"></path>
<path fill="rgb(42, 114, 87)" d="M11.509 5.216c-0.224-0.035-0.928-0.138-1.545-0.138-0.548 0-1.176 0.093-1.471 0.142 0.053 0.080 0.069 0.184 0.048 0.279 0.311-0.050 0.903-0.134 1.423-0.134 0.569 0 1.211 0.087 1.483 0.129-0.013-0.050-0.013-0.105 0.003-0.165 0.011-0.039 0.031-0.078 0.058-0.112z"></path>
<path fill="rgb(56, 142, 111)" d="M15.508 8.034l-0.225-0.222-1.791 1.791 0.245 0.239z"></path>
<path fill="rgb(56, 142, 111)" d="M4.542 8.034l0.225-0.222 1.791 1.791-0.245 0.239z"></path>
<path fill="rgb(56, 142, 111)" d="M10 6.836c0.85 0 1.543-0.904 1.58-1.608-0.013-0.002-0.132-0.022-0.313-0.047 0.002 0.021 0.003 0.042 0.003 0.063 0 0.571-0.568 1.337-1.269 1.337s-1.269-0.766-1.269-1.337c0-0.021 0.001-0.041 0.003-0.061-0.133 0.019-0.241 0.037-0.313 0.050 0.040 0.704 0.732 1.604 1.58 1.604z"></path>
<path fill="rgb(18, 63, 45)" d="M8.024 5.775h-0.286v-0.637l0.078-0.587h0.13l0.078 0.587z"></path>
<path fill="rgb(18, 63, 45)" d="M12.262 5.775h-0.286v-0.637l0.078-0.587h0.13l0.078 0.587z"></path>
</svg>
