<?xml version="1.0" encoding="utf-8"?>
<!-- Generated by IcoMoon.io -->
<!DOCTYPE svg PUBLIC "-//W3C//DTD SVG 1.1//EN" "http://www.w3.org/Graphics/SVG/1.1/DTD/svg11.dtd">
<svg version="1.1" xmlns="http://www.w3.org/2000/svg" xmlns:xlink="http://www.w3.org/1999/xlink" width="20" height="20" viewBox="0 0 20 20">
<path fill="rgb(51, 77, 92)" d="M19.691 10c0-5.352-4.339-9.691-9.69-9.691s-9.691 4.338-9.691 9.691c0 5.352 4.339 9.69 9.691 9.69s9.69-4.339 9.69-9.69z"></path>
<path fill="rgb(173, 173, 173)" d="M11.955 5.176l-0.072 0.072-0.072-0.072-0.072 0.072-0.072-0.072-0.072 0.072-0.072-0.072-0.072 0.072-0.072-0.072-0.072 0.072-0.072-0.072-0.072 0.072-0.072-0.072-0.072 0.072-0.072-0.072-0.072 0.072-0.072-0.072-0.072 0.072-0.072-0.072-0.072 0.072-0.072-0.072-0.072 0.072-0.072-0.072-0.072 0.072-0.072-0.072-0.072 0.072-0.072-0.072-0.072 0.072-0.072-0.072-0.072 0.072-0.072-0.072-0.072 0.072-0.072-0.072-0.072 0.072-0.072-0.072-0.072 0.072-0.072-0.072-0.072 0.072-0.072-0.072-0.072 0.072-0.072-0.072-0.072 0.072-0.072-0.072-0.072 0.072-0.072-0.072-0.072 0.072-0.072-0.072-0.072 0.072-0.072-0.072-0.072 0.072-0.072-0.072-0.072 0.072-0.072-0.072-0.072 0.072-0.072-0.072v0.479l0.072-0.072 0.072 0.072 0.072-0.072 0.072 0.072 0.072-0.072 0.072 0.072 0.072-0.072 0.072 0.072 0.072-0.072 0.072 0.072 0.072-0.072 0.072 0.072 0.072-0.072 0.072 0.072 0.072-0.072 0.072 0.072 0.072-0.072 0.072 0.072 0.072-0.072 0.072 0.072 0.072-0.072 0.072 0.072 0.072-0.072 0.072 0.072 0.072-0.072 0.072 0.072 0.072-0.072 0.072 0.072 0.072-0.072 0.072 0.072 0.072-0.072 0.072 0.072 0.072-0.072 0.072 0.072 0.072-0.072 0.072 0.072 0.072-0.072 0.072 0.072 0.072-0.072 0.072 0.072 0.072-0.072 0.072 0.072 0.072-0.072 0.072 0.072 0.072-0.072 0.072 0.072 0.072-0.072 0.072 0.072 0.072-0.072 0.072 0.072 0.072-0.072 0.072 0.072 0.072-0.072 0.072 0.072z"></path>
<path fill="rgb(173, 173, 173)" d="M8.297 4.85h3.372v0.069h-3.372v-0.069z"></path>
<path fill="rgb(219, 149, 73)" d="M10.74 14.585c0 0.33-0.267 0.597-0.597 0.597h-0.299c-0.33 0-0.597-0.267-0.597-0.597l0.343-1.651 0.033-4.583c0-0.33 0.133-0.597 0.296-0.597h0.148c0.164 0 0.296 0.267 0.296 0.597l0.033 4.583 0.343 1.651z"></path>
<path fill="rgb(219, 149, 73)" d="M11.619 4.817c0 0.118 0 0.202 0 0.206 0 1.395-0.132 2.677-1.619 2.677s-1.619-1.282-1.619-2.677c0-0.006 0-0.086 0-0.199-0.242 0.066-0.393 0.151-0.393 0.256 0 1.733 0.163 3.326 2.012 3.326s2.012-1.593 2.012-3.326c0-0.11-0.151-0.198-0.393-0.264z"></path>
<path fill="rgb(51, 77, 92)" d="M10.302 14.471c0 0.171-0.139 0.31-0.31 0.31s-0.31-0.139-0.31-0.31c0-0.171 0.139-0.31 0.31-0.31s0.31 0.139 0.31 0.31z"></path>
<path fill="rgb(135, 84, 34)" d="M9.992 14.637c-0.146 0-0.269-0.101-0.301-0.238-0.006 0.023-0.009 0.047-0.009 0.072 0 0.171 0.139 0.31 0.31 0.31s0.31-0.139 0.31-0.31c0-0.025-0.003-0.049-0.009-0.072-0.033 0.136-0.155 0.238-0.301 0.238z"></path>
<path fill="rgb(51, 77, 92)" d="M9.992 14.637c0.146 0 0.269-0.101 0.301-0.238-0.033-0.136-0.155-0.238-0.301-0.238s-0.269 0.101-0.301 0.238c0.033 0.136 0.155 0.238 0.301 0.238z"></path>
</svg>
