<?xml version="1.0" encoding="utf-8"?>
<!-- Generated by IcoMoon.io -->
<!DOCTYPE svg PUBLIC "-//W3C//DTD SVG 1.1//EN" "http://www.w3.org/Graphics/SVG/1.1/DTD/svg11.dtd">
<svg version="1.1" xmlns="http://www.w3.org/2000/svg" xmlns:xlink="http://www.w3.org/1999/xlink" width="20" height="20" viewBox="0 0 20 20">
<path fill="rgb(224, 79, 95)" d="M19.691 10c0-5.352-4.339-9.691-9.691-9.691s-9.691 4.338-9.691 9.691c0 5.352 4.339 9.69 9.691 9.69s9.691-4.339 9.691-9.69z"></path>
<path fill="rgb(230, 232, 232)" d="M10.28 10.856c0 0-5.064 0.178-6.093-0.382-1-0.544-1.051-1.348-1.051-1.348h7.144v1.731z"></path>
<path fill="rgb(206, 206, 206)" d="M4.197 10.112c-0.57-0.31-0.831-0.705-0.951-0.987h-0.109c0 0 0.051 0.804 1.051 1.348 1.029 0.56 6.093 0.382 6.093 0.382v-0.361c-0.236 0.008-5.080 0.164-6.084-0.383z"></path>
<path fill="rgb(230, 232, 232)" d="M10.145 9.125v0.843l0.135 0.465c0.039-0.239 0.227-0.426 0.465-0.465h0.001v-0.843h-0.601z"></path>
<path fill="rgb(54, 58, 58)" d="M16.864 10.095c0 0.181-0.136 0.328-0.328 0.328-0.396 0-1.083-0.308-1.451-0.308s-1.352 0.186-1.936 0.186c-0.584 0-2.403-0.332-2.403-0.332v-0.85h5.79c0.181 0 0.328 0.289 0.328 0.47v0.508z"></path>
<path fill="rgb(255, 255, 255)" d="M16.185 9.594c0 0.086-0.070 0.156-0.156 0.156s-0.156-0.070-0.156-0.156c0-0.086 0.070-0.156 0.156-0.156s0.156 0.070 0.156 0.156z"></path>
<path fill="rgb(255, 255, 255)" d="M14.063 9.594c0 0.086-0.070 0.156-0.156 0.156s-0.156-0.070-0.156-0.156c0-0.086 0.070-0.156 0.156-0.156s0.156 0.070 0.156 0.156z"></path>
<path fill="rgb(255, 255, 255)" d="M11.947 9.594c0 0.086-0.070 0.156-0.156 0.156s-0.156-0.070-0.156-0.156c0-0.086 0.070-0.156 0.156-0.156s0.156 0.070 0.156 0.156z"></path>
</svg>
