<?xml version="1.0" encoding="utf-8"?>
<!-- Generated by IcoMoon.io -->
<!DOCTYPE svg PUBLIC "-//W3C//DTD SVG 1.1//EN" "http://www.w3.org/Graphics/SVG/1.1/DTD/svg11.dtd">
<svg version="1.1" xmlns="http://www.w3.org/2000/svg" xmlns:xlink="http://www.w3.org/1999/xlink" width="20" height="20" viewBox="0 0 20 20">
<path fill="rgb(250, 188, 61)" d="M19.691 10c0-5.352-4.339-9.691-9.69-9.691s-9.691 4.338-9.691 9.691c0 5.352 4.339 9.69 9.691 9.69s9.69-4.339 9.69-9.69z"></path>
<path fill="rgb(51, 77, 92)" d="M8.388 16.219c0-1.675 0-12.295 0-12.96 0-0.426 0.25-0.343 0.323 0s1.359 5.435 1.359 5.435v7.082c-1.144 1.24-1.682 1.856-1.682 0.443z"></path>
<path fill="rgb(51, 77, 92)" d="M11.886 16.219c0-1.675 0-12.295 0-12.96 0-0.426-0.25-0.343-0.323 0s-1.359 5.435-1.359 5.435v7.082c1.144 1.24 1.682 1.856 1.682 0.443z"></path>
<path fill="rgb(171, 191, 201)" d="M9.423 9.221c0-0.389 0.32-0.706 0.715-0.706s0.714 0.316 0.714 0.706c0 0.39-0.32 0.706-0.714 0.706s-0.715-0.316-0.715-0.706z"></path>
<path fill="rgb(51, 77, 92)" d="M9.62 9.221c0-0.282 0.231-0.511 0.517-0.511s0.517 0.229 0.517 0.511c0 0.282-0.232 0.511-0.517 0.511s-0.517-0.229-0.517-0.511z"></path>
<path fill="rgb(51, 77, 92)" d="M8.607 11.47l-0.219-0.191c0 2.261 0 4.285 0 4.94 0 1.413 0.538 0.797 1.682-0.444v-5.567l-1.463 1.261z"></path>
<path fill="rgb(171, 191, 201)" d="M10.525 9.816l-0.124-0.144-0.331 0.285v0.252z"></path>
<path fill="rgb(171, 191, 201)" d="M10.070 10.209v-0.251l-1.462 1.26-0.22-0.192c0 0.085 0 0.169 0 0.253l0.219 0.191 1.463-1.261z"></path>
<path fill="rgb(237, 201, 47)" d="M9.52 13.509c0-0.393 0.276-0.711 0.618-0.711s0.618 0.318 0.618 0.711c0 0.393-0.277 0.711-0.618 0.711s-0.618-0.318-0.618-0.711z"></path>
<path fill="rgb(237, 201, 47)" d="M9.818 11.114c0-0.175 0.143-0.316 0.32-0.316s0.32 0.141 0.32 0.316-0.143 0.316-0.32 0.316c-0.177 0-0.32-0.141-0.32-0.316z"></path>
</svg>
