<?xml version="1.0" encoding="utf-8"?>
<!-- Generated by IcoMoon.io -->
<!DOCTYPE svg PUBLIC "-//W3C//DTD SVG 1.1//EN" "http://www.w3.org/Graphics/SVG/1.1/DTD/svg11.dtd">
<svg version="1.1" xmlns="http://www.w3.org/2000/svg" xmlns:xlink="http://www.w3.org/1999/xlink" width="20" height="20" viewBox="0 0 20 20">
<path fill="rgb(50, 190, 166)" d="M19.691 10c0-5.352-4.339-9.691-9.69-9.691s-9.691 4.338-9.691 9.691c0 5.352 4.339 9.69 9.691 9.69s9.69-4.339 9.69-9.69z"></path>
<path fill="rgb(150, 114, 71)" d="M6.016 4.258h7.969v11.484h-7.969v-11.484z"></path>
<path fill="rgb(165, 125, 81)" d="M6.252 4.466h3.654v10.697h-3.654v-10.697z"></path>
<path fill="rgb(165, 125, 81)" d="M10.1 4.466h3.654v10.697h-3.654v-10.697z"></path>
<path fill="rgb(81, 60, 39)" d="M9.772 9.916c0 0.115-0.093 0.208-0.208 0.208s-0.208-0.093-0.208-0.208c0-0.115 0.093-0.208 0.208-0.208s0.208 0.093 0.208 0.208z"></path>
<path fill="rgb(112, 84, 60)" d="M9.439 9.791c0.069-0.069 0.181-0.069 0.249 0s-0.181 0.318-0.249 0.249-0.069-0.181 0-0.249z"></path>
<path fill="rgb(81, 60, 39)" d="M10.644 9.916c0 0.115-0.093 0.208-0.208 0.208s-0.208-0.093-0.208-0.208c0-0.115 0.093-0.208 0.208-0.208s0.208 0.093 0.208 0.208z"></path>
<path fill="rgb(112, 84, 60)" d="M10.311 9.791c0.069-0.069 0.181-0.069 0.249 0s-0.181 0.318-0.249 0.249c-0.069-0.069-0.069-0.181 0-0.249z"></path>
</svg>
