<?xml version="1.0" encoding="utf-8"?>
<!-- Generated by IcoMoon.io -->
<!DOCTYPE svg PUBLIC "-//W3C//DTD SVG 1.1//EN" "http://www.w3.org/Graphics/SVG/1.1/DTD/svg11.dtd">
<svg version="1.1" xmlns="http://www.w3.org/2000/svg" xmlns:xlink="http://www.w3.org/1999/xlink" width="20" height="20" viewBox="0 0 20 20">
<path fill="rgb(51, 77, 92)" d="M19.691 10c0-5.352-4.339-9.691-9.69-9.691s-9.691 4.338-9.691 9.691c0 5.352 4.339 9.69 9.691 9.69s9.69-4.339 9.69-9.69z"></path>
<path fill="rgb(91, 144, 165)" d="M7.727 13.748c-0.001-0.001-0.001-0.002-0.002-0.003-0.003-0.004-0.288-0.4-0.288-0.829 0-0.422 0.281-0.808 0.287-0.816 0.048-0.064 0.035-0.154-0.029-0.202s-0.154-0.035-0.202 0.029c-0.014 0.019-0.344 0.466-0.344 0.988 0 0.505 0.309 0.951 0.341 0.995 0.001 0.001 0.001 0.002 0.002 0.003 0.003 0.004 0.288 0.4 0.288 0.829 0 0.424-0.282 0.81-0.287 0.816-0.048 0.064-0.034 0.154 0.029 0.201 0.026 0.019 0.056 0.029 0.086 0.029 0.044 0 0.087-0.020 0.115-0.058 0.014-0.019 0.344-0.466 0.344-0.988-0-0.505-0.309-0.951-0.341-0.995z"></path>
<path fill="rgb(91, 144, 165)" d="M10.118 13.748c-0.001-0.001-0.001-0.002-0.002-0.003-0.003-0.004-0.288-0.4-0.288-0.829 0-0.422 0.281-0.808 0.287-0.816 0.048-0.064 0.034-0.154-0.029-0.202s-0.154-0.035-0.202 0.029c-0.014 0.019-0.344 0.466-0.344 0.988 0 0.505 0.309 0.951 0.341 0.995 0.001 0.001 0.001 0.002 0.002 0.003 0.003 0.004 0.288 0.4 0.288 0.829 0 0.424-0.282 0.81-0.287 0.816-0.048 0.064-0.034 0.154 0.029 0.201 0.026 0.019 0.056 0.029 0.086 0.029 0.044 0 0.087-0.020 0.115-0.058 0.014-0.019 0.344-0.466 0.344-0.988 0-0.505-0.309-0.951-0.341-0.995z"></path>
<path fill="rgb(91, 144, 165)" d="M12.51 13.748c-0.001-0.001-0.001-0.002-0.002-0.003-0.003-0.004-0.288-0.4-0.288-0.829 0-0.422 0.281-0.808 0.287-0.816 0.048-0.064 0.035-0.154-0.029-0.202s-0.154-0.035-0.202 0.029c-0.014 0.019-0.344 0.466-0.344 0.988 0 0.505 0.309 0.951 0.341 0.995 0.001 0.001 0.001 0.002 0.002 0.003 0.003 0.004 0.288 0.4 0.288 0.829 0 0.424-0.282 0.81-0.287 0.816-0.047 0.064-0.034 0.154 0.029 0.201 0.026 0.019 0.056 0.029 0.086 0.029 0.044 0 0.087-0.020 0.115-0.058 0.014-0.019 0.344-0.466 0.344-0.988-0-0.505-0.309-0.951-0.341-0.995z"></path>
<path fill="rgb(198, 198, 198)" d="M7.862 4.211h4.277v3.066h-4.277v-3.066z"></path>
<path fill="rgb(198, 198, 198)" d="M5.107 9.877h9.786v1.358h-9.786v-1.358z"></path>
<path fill="rgb(221, 221, 221)" d="M12.138 7.254h-4.276l-2.751 2.647h9.778z"></path>
<path fill="rgb(221, 221, 221)" d="M10.261 10.561c0 0.144-0.117 0.261-0.261 0.261s-0.261-0.117-0.261-0.261c0-0.144 0.117-0.261 0.261-0.261s0.261 0.117 0.261 0.261z"></path>
<path fill="rgb(221, 221, 221)" d="M11.136 10.561c0 0.081-0.066 0.147-0.147 0.147s-0.147-0.066-0.147-0.147c0-0.081 0.066-0.147 0.147-0.147s0.147 0.066 0.147 0.147z"></path>
<path fill="rgb(221, 221, 221)" d="M11.893 10.561c0 0.081-0.066 0.147-0.147 0.147s-0.147-0.066-0.147-0.147c0-0.081 0.066-0.147 0.147-0.147s0.147 0.066 0.147 0.147z"></path>
<path fill="rgb(221, 221, 221)" d="M8.4 10.561c0 0.081-0.066 0.147-0.147 0.147s-0.147-0.066-0.147-0.147c0-0.081 0.066-0.147 0.147-0.147s0.147 0.066 0.147 0.147z"></path>
<path fill="rgb(221, 221, 221)" d="M9.157 10.561c0 0.081-0.066 0.147-0.147 0.147s-0.147-0.066-0.147-0.147c0-0.081 0.066-0.147 0.147-0.147s0.147 0.066 0.147 0.147z"></path>
</svg>
