<?xml version="1.0" encoding="utf-8"?>
<!-- Generated by IcoMoon.io -->
<!DOCTYPE svg PUBLIC "-//W3C//DTD SVG 1.1//EN" "http://www.w3.org/Graphics/SVG/1.1/DTD/svg11.dtd">
<svg version="1.1" xmlns="http://www.w3.org/2000/svg" xmlns:xlink="http://www.w3.org/1999/xlink" width="20" height="20" viewBox="0 0 20 20">
<path fill="rgb(51, 77, 92)" d="M0.309 10c0 5.352 4.339 9.691 9.69 9.691s9.691-4.338 9.691-9.691c0-5.352-4.339-9.69-9.691-9.69s-9.69 4.339-9.69 9.69z"></path>
<path fill="rgb(234, 84, 84)" d="M16.097 10.404h-12.194l1.171 2.943h0.003c0.054 0.7 2.238 1.264 4.924 1.264s4.871-0.563 4.924-1.264h0l1.171-2.943z"></path>
<path fill="rgb(198, 64, 64)" d="M3.81 9.858v0.754h0.004c-0 0.004-0.001-0.304-0.001-0.3 0 0.739 2.771 1.552 6.188 1.552s6.188-0.813 6.188-1.552c0-0.004-0.001 0.304-0.001 0.3h0.001v-0.754h-12.379z"></path>
<path fill="rgb(239, 101, 101)" d="M16.189 9.891c0-0.739-2.771-1.337-6.188-1.337s-6.188 0.599-6.188 1.337c0 0.739 2.771 1.582 6.188 1.582s6.188-0.843 6.188-1.582z"></path>
<path fill="rgb(216, 39, 39)" d="M15.215 9.891c0-0.622-2.335-1.127-5.214-1.127s-5.214 0.504-5.214 1.127c0 0.215 0.278 0.415 0.759 0.586 0.915 0.324 7.994 0.324 8.91-0 0.482-0.171 0.759-0.371 0.759-0.586z"></path>
<path fill="rgb(163, 213, 224)" d="M14.456 10.477c-0.915-0.324-2.568-0.541-4.455-0.541s-3.54 0.217-4.455 0.541c0.915 0.324 2.568 0.541 4.455 0.541s3.539-0.217 4.455-0.541z"></path>
<path fill="rgb(237, 201, 47)" d="M13.635 14.915l-1.415-0.449v-0.733l1.415 0.449z"></path>
<path fill="rgb(80, 81, 39)" d="M13.635 13.958l-1.415-0.449v0.224l1.415 0.449z"></path>
<path fill="rgb(244, 211, 74)" d="M15.43 14.336l-1.803 0.579v-0.733l1.803-0.579z"></path>
<path fill="rgb(112, 112, 52)" d="M15.43 13.379l-1.803 0.579v0.224l1.803-0.579z"></path>
<path fill="rgb(102, 102, 51)" d="M15.43 13.379l-1.803 0.579-1.406-0.449 1.803-0.579z"></path>
<path fill="rgb(163, 213, 224)" d="M5.967 10.604c-0.017-0.005-0.035-0.009-0.051-0.014 0.017 0.005 0.034 0.009 0.051 0.014z"></path>
<path fill="rgb(163, 213, 224)" d="M6.067 10.63c-0.018-0.004-0.036-0.009-0.053-0.013 0.018 0.004 0.035 0.009 0.053 0.013z"></path>
<path fill="rgb(163, 213, 224)" d="M7.736 10.906c-0.036-0.004-0.071-0.008-0.107-0.011 0.035 0.004 0.071 0.008 0.107 0.011z"></path>
<path fill="rgb(163, 213, 224)" d="M6.172 10.655c-0.019-0.004-0.037-0.009-0.056-0.013 0.018 0.004 0.037 0.009 0.056 0.013z"></path>
<path fill="rgb(163, 213, 224)" d="M5.869 10.578c-0.017-0.005-0.033-0.009-0.049-0.014 0.016 0.005 0.033 0.009 0.049 0.014z"></path>
<path fill="rgb(163, 213, 224)" d="M5.734 9.243c0.045-0.014 0.092-0.028 0.14-0.041-0.048 0.013-0.095 0.027-0.14 0.041z"></path>
<path fill="rgb(163, 213, 224)" d="M6.279 10.68c-0.019-0.004-0.039-0.009-0.058-0.013 0.019 0.004 0.038 0.009 0.058 0.013z"></path>
<path fill="rgb(163, 213, 224)" d="M8.437 10.966c-0.235-0.016-0.462-0.035-0.681-0.058 0.219 0.023 0.446 0.042 0.681 0.058z"></path>
<path fill="rgb(163, 213, 224)" d="M7.324 10.858c-0.030-0.004-0.060-0.008-0.089-0.012 0.030 0.004 0.059 0.008 0.089 0.012z"></path>
<path fill="rgb(163, 213, 224)" d="M6.948 10.804c-0.1-0.016-0.197-0.032-0.291-0.049 0.094 0.017 0.191 0.033 0.291 0.049z"></path>
<path fill="rgb(163, 213, 224)" d="M7.596 10.891c-0.033-0.004-0.066-0.008-0.098-0.011 0.033 0.004 0.065 0.008 0.098 0.011z"></path>
<path fill="rgb(163, 213, 224)" d="M7.193 10.84c-0.029-0.004-0.058-0.008-0.087-0.012 0.029 0.004 0.058 0.008 0.087 0.012z"></path>
<path fill="rgb(163, 213, 224)" d="M7.066 10.822c-0.029-0.004-0.059-0.009-0.087-0.013 0.029 0.004 0.058 0.009 0.087 0.013z"></path>
<path fill="rgb(163, 213, 224)" d="M7.459 10.875c-0.031-0.004-0.062-0.008-0.093-0.012 0.031 0.004 0.062 0.008 0.093 0.012z"></path>
<path fill="rgb(163, 213, 224)" d="M6.39 10.703c-0.020-0.004-0.040-0.009-0.061-0.013 0.020 0.004 0.040 0.009 0.061 0.013z"></path>
<path fill="rgb(163, 213, 224)" d="M6.504 10.727c-0.022-0.004-0.043-0.009-0.064-0.013 0.021 0.004 0.043 0.009 0.064 0.013z"></path>
<path fill="rgb(163, 213, 224)" d="M6.622 10.749c-0.024-0.004-0.047-0.009-0.070-0.013 0.023 0.004 0.047 0.009 0.070 0.013z"></path>
<path fill="rgb(163, 213, 224)" d="M7.476 8.905c0.042-0.005 0.084-0.010 0.126-0.015-0.042 0.005-0.084 0.010-0.126 0.015z"></path>
<path fill="rgb(163, 213, 224)" d="M8.87 10.991c-0.044-0.002-0.088-0.004-0.132-0.007 0.044 0.002 0.088 0.005 0.132 0.007z"></path>
<path fill="rgb(163, 213, 224)" d="M7.333 8.922c0.040-0.005 0.080-0.010 0.121-0.015-0.041 0.005-0.081 0.010-0.121 0.015z"></path>
<path fill="rgb(163, 213, 224)" d="M9.025 10.998c-0.046-0.002-0.091-0.004-0.137-0.006 0.045 0.002 0.091 0.004 0.137 0.006z"></path>
<path fill="rgb(163, 213, 224)" d="M8.572 10.975c-0.045-0.003-0.090-0.006-0.134-0.009 0.044 0.003 0.089 0.006 0.134 0.009z"></path>
<path fill="rgb(163, 213, 224)" d="M5.876 9.201c0.048-0.013 0.098-0.027 0.149-0.040-0.051 0.013-0.101 0.026-0.149 0.040z"></path>
<path fill="rgb(163, 213, 224)" d="M8.719 10.983c-0.044-0.002-0.088-0.005-0.131-0.008 0.043 0.003 0.087 0.005 0.131 0.008z"></path>
<path fill="rgb(163, 213, 224)" d="M6.925 8.981c0.042-0.007 0.084-0.013 0.127-0.019-0.043 0.006-0.085 0.013-0.127 0.019z"></path>
<path fill="rgb(163, 213, 224)" d="M7.055 8.961c0.087-0.013 0.176-0.025 0.267-0.037-0.091 0.012-0.18 0.024-0.267 0.037z"></path>
<path fill="rgb(242, 248, 249)" d="M7.235 10.846c-0.014-0.002-0.028-0.004-0.042-0.006 0.014 0.002 0.028 0.004 0.042 0.006z"></path>
<path fill="rgb(242, 248, 249)" d="M8.438 10.966c-0.001 0-0.001-0-0.002-0 0.001 0 0.001 0 0.002 0z"></path>
<path fill="rgb(242, 248, 249)" d="M7.366 10.863c-0.014-0.002-0.028-0.004-0.041-0.005 0.014 0.002 0.028 0.004 0.041 0.005z"></path>
<path fill="rgb(242, 248, 249)" d="M9.036 10.998c-0.004-0-0.007-0-0.011-0 0.004 0 0.007 0 0.011 0z"></path>
<path fill="rgb(242, 248, 249)" d="M7.629 10.894c-0.011-0.001-0.022-0.002-0.033-0.004 0.011 0.001 0.022 0.002 0.033 0.004z"></path>
<path fill="rgb(242, 248, 249)" d="M8.588 10.976c-0.005-0-0.010-0.001-0.016-0.001 0.005 0 0.010 0.001 0.016 0.001z"></path>
<path fill="rgb(242, 248, 249)" d="M8.738 10.984c-0.006-0-0.013-0.001-0.019-0.001 0.006 0 0.013 0.001 0.019 0.001z"></path>
<path fill="rgb(242, 248, 249)" d="M7.756 10.908c-0.007-0.001-0.013-0.001-0.020-0.002 0.007 0.001 0.013 0.001 0.020 0.002z"></path>
<path fill="rgb(242, 248, 249)" d="M8.888 10.992c-0.006-0-0.012-0.001-0.018-0.001 0.006 0 0.012 0.001 0.018 0.001z"></path>
<path fill="rgb(242, 248, 249)" d="M7.498 10.879c-0.013-0.002-0.026-0.003-0.039-0.005 0.013 0.002 0.026 0.003 0.039 0.005z"></path>
<path fill="rgb(242, 248, 249)" d="M5.874 9.202c0-0 0.001-0 0.001-0s-0.001 0-0.001 0z"></path>
<path fill="rgb(242, 248, 249)" d="M7.052 8.961c0.001-0 0.002-0 0.004-0.001-0.001 0-0.002 0-0.004 0.001z"></path>
<path fill="rgb(242, 248, 249)" d="M6.026 9.162c-0 0-0.001 0-0.001 0s0.001-0 0.001-0v0z"></path>
<path fill="rgb(242, 248, 249)" d="M6.921 8.981c0.001-0 0.003-0 0.004-0.001-0.001 0-0.003 0-0.004 0.001z"></path>
<path fill="rgb(242, 248, 249)" d="M5.733 9.243c0 0-0 0 0 0s0.001-0 0.001-0c-0 0-0.001 0-0.001 0z"></path>
<path fill="rgb(242, 248, 249)" d="M7.322 8.924c0.003-0 0.007-0.001 0.010-0.001-0.003 0-0.007 0.001-0.010 0.001z"></path>
<path fill="rgb(242, 248, 249)" d="M5.915 10.591c-0.015-0.004-0.030-0.009-0.046-0.013 0.015 0.004 0.030 0.009 0.046 0.013z"></path>
<path fill="rgb(242, 248, 249)" d="M7.608 8.889c-0.002 0-0.004 0-0.006 0.001 0.002-0 0.004-0 0.006-0.001v0z"></path>
<path fill="rgb(242, 248, 249)" d="M7.454 8.907c0.007-0.001 0.015-0.002 0.022-0.003-0.007 0.001-0.015 0.002-0.022 0.003z"></path>
<path fill="rgb(242, 248, 249)" d="M6.44 10.714c-0.017-0.003-0.033-0.007-0.050-0.010 0.017 0.003 0.033 0.007 0.050 0.010z"></path>
<path fill="rgb(242, 248, 249)" d="M7.105 10.828c-0.013-0.002-0.027-0.004-0.040-0.006 0.013 0.002 0.027 0.004 0.040 0.006z"></path>
<path fill="rgb(242, 248, 249)" d="M6.551 10.736c-0.016-0.003-0.032-0.006-0.047-0.009 0.016 0.003 0.031 0.006 0.047 0.009z"></path>
<path fill="rgb(242, 248, 249)" d="M6.657 10.755c-0.012-0.002-0.024-0.004-0.035-0.006 0.012 0.002 0.024 0.004 0.035 0.006z"></path>
<path fill="rgb(242, 248, 249)" d="M6.014 10.617c-0.016-0.004-0.032-0.008-0.047-0.012 0.016 0.004 0.031 0.008 0.047 0.012z"></path>
<path fill="rgb(242, 248, 249)" d="M6.978 10.809c-0.010-0.002-0.020-0.003-0.031-0.005 0.010 0.002 0.020 0.003 0.031 0.005z"></path>
<path fill="rgb(242, 248, 249)" d="M6.329 10.691c-0.017-0.004-0.034-0.007-0.050-0.011 0.017 0.004 0.033 0.007 0.050 0.011z"></path>
<path fill="rgb(242, 248, 249)" d="M6.116 10.642c-0.016-0.004-0.033-0.008-0.049-0.012 0.016 0.004 0.032 0.008 0.049 0.012z"></path>
<path fill="rgb(242, 248, 249)" d="M6.221 10.667c-0.017-0.004-0.033-0.008-0.050-0.011 0.016 0.004 0.033 0.008 0.050 0.011z"></path>
<path fill="rgb(242, 248, 249)" d="M9.84 10.232c0.002-0.025 0.004-0.050 0.004-0.076 0-0.421-0.341-0.762-0.762-0.762-0.088 0-0.173 0.016-0.252 0.044-0.111-0.212-0.332-0.356-0.588-0.356-0.098 0-0.191 0.022-0.274 0.060-0.1-0.108-0.222-0.195-0.36-0.253-0.123-0.052-0.258-0.081-0.401-0.081-0.251 0-0.48 0.090-0.659 0.238h-0c-0.045 0.037-0.086 0.078-0.124 0.122-0.043-0.028-0.090-0.050-0.139-0.068-0.072-0.026-0.149-0.040-0.23-0.040-0.215 0-0.406 0.099-0.532 0.253-0.096 0.118-0.154 0.269-0.154 0.433 0 0.033 0.003 0.065 0.008 0.096-0.179 0.052-0.311 0.214-0.317 0.408v0c0 0 0.001 0.001 0.001 0.001 0.014 0.009 0.029 0.018 0.044 0.027 0.118 0.069 0.266 0.136 0.442 0.198 0.001 0 0.002 0.001 0.003 0.001 0.884 0.313 2.453 0.525 4.255 0.539v-0c0.052 0 0.103 0.001 0.155 0.001 0.038-0.091 0.060-0.19 0.060-0.295 0-0.187-0.068-0.358-0.18-0.491z"></path>
<path fill="rgb(163, 213, 224)" d="M8.346 7.116c0 0.417-0.338 0.755-0.755 0.755s-0.755-0.338-0.755-0.755c0-0.417 0.338-0.755 0.755-0.755s0.755 0.338 0.755 0.755z"></path>
<path fill="rgb(242, 248, 249)" d="M7.122 7.608c-0.266-0.266-0.266-0.696 0-0.962s0.696-0.266 0.962 0c0.266 0.266-0.696 1.228-0.962 0.962z"></path>
<path fill="rgb(163, 213, 224)" d="M9.714 5.749c0 0.309-0.251 0.56-0.56 0.56s-0.56-0.251-0.56-0.56c0-0.309 0.251-0.56 0.56-0.56s0.56 0.251 0.56 0.56z"></path>
<path fill="rgb(242, 248, 249)" d="M8.806 6.114c-0.197-0.197-0.197-0.516 0-0.713s0.516-0.197 0.713 0c0.197 0.197-0.516 0.91-0.713 0.713z"></path>
<path fill="rgb(163, 213, 224)" d="M7.552 4.824c0 0.201-0.163 0.365-0.365 0.365s-0.365-0.163-0.365-0.365c0-0.201 0.163-0.365 0.365-0.365s0.365 0.163 0.365 0.365z"></path>
<path fill="rgb(242, 248, 249)" d="M6.961 5.062c-0.128-0.128-0.128-0.336 0-0.464s0.336-0.128 0.464 0c0.128 0.128-0.336 0.593-0.464 0.464z"></path>
</svg>
