<?xml version="1.0" encoding="utf-8"?>
<!-- Generated by IcoMoon.io -->
<!DOCTYPE svg PUBLIC "-//W3C//DTD SVG 1.1//EN" "http://www.w3.org/Graphics/SVG/1.1/DTD/svg11.dtd">
<svg version="1.1" xmlns="http://www.w3.org/2000/svg" xmlns:xlink="http://www.w3.org/1999/xlink" width="20" height="20" viewBox="0 0 20 20">
<path fill="rgb(250, 188, 61)" d="M19.691 10c0-5.352-4.339-9.691-9.69-9.691s-9.691 4.338-9.691 9.691c0 5.352 4.339 9.69 9.691 9.69s9.69-4.339 9.69-9.69z"></path>
<path fill="rgb(178, 22, 45)" d="M12.956 13.305c0.153 0.153 0.153 0.4 0 0.552v0c-0.153 0.153-0.4 0.153-0.552 0l-0.704-0.704c-0.153-0.153-0.153-0.4 0-0.552v0c0.153-0.153 0.4-0.153 0.552 0l0.704 0.704z"></path>
<path fill="rgb(178, 22, 45)" d="M7.008 13.305c-0.153 0.153-0.153 0.4 0 0.552v0c0.153 0.153 0.4 0.153 0.552 0l0.704-0.704c0.153-0.153 0.153-0.4 0-0.552v0c-0.153-0.153-0.4-0.153-0.552 0l-0.704 0.704z"></path>
<path fill="rgb(193, 30, 61)" d="M4.336 8.067h11.328c0 3.128-2.536 5.664-5.664 5.664s-5.664-2.536-5.664-5.664z"></path>
<path fill="rgb(178, 22, 45)" d="M16.131 7.821c0 0.213-0.224 0.386-0.5 0.386h-11.261c-0.276 0-0.5-0.173-0.5-0.386v0c0-0.213 0.224-0.386 0.5-0.386h11.261c0.276 0 0.5 0.173 0.5 0.386v0z"></path>
<path fill="rgb(235, 151, 131)" d="M6.165 10.309c-0.111 0-0.201-0.087-0.201-0.194s0.090-0.194 0.201-0.194c0.111 0 0.202 0.087 0.202 0.194s-0.090 0.194-0.202 0.194zM6.165 9.561c-0.111 0-0.201-0.087-0.201-0.194s0.090-0.194 0.201-0.194c0.111 0 0.202 0.087 0.202 0.194s-0.090 0.194-0.202 0.194zM6.932 10.702c-0.111 0-0.201-0.087-0.201-0.194s0.090-0.194 0.201-0.194c0.111 0 0.201 0.087 0.201 0.194s-0.090 0.194-0.201 0.194zM6.932 9.935c-0.097 0-0.175-0.078-0.175-0.175s0.078-0.175 0.175-0.175c0.097 0 0.175 0.078 0.175 0.175s-0.078 0.175-0.175 0.175zM6.932 9.207c-0.111 0-0.201-0.087-0.201-0.194s0.090-0.194 0.201-0.194c0.111 0 0.201 0.087 0.201 0.194s-0.090 0.194-0.201 0.194zM7.716 10.247c-0.111 0-0.201-0.087-0.201-0.194s0.090-0.194 0.201-0.194 0.201 0.087 0.201 0.194c0 0.107-0.090 0.194-0.201 0.194zM7.716 9.499c-0.111 0-0.201-0.087-0.201-0.194s0.090-0.194 0.201-0.194 0.201 0.087 0.201 0.194c0 0.107-0.090 0.194-0.201 0.194z"></path>
<path fill="rgb(235, 151, 131)" d="M12.826 10.309c-0.111 0-0.201-0.087-0.201-0.194s0.090-0.194 0.201-0.194c0.111 0 0.202 0.087 0.202 0.194s-0.090 0.194-0.202 0.194zM12.826 9.561c-0.111 0-0.201-0.087-0.201-0.194s0.090-0.194 0.201-0.194c0.111 0 0.202 0.087 0.202 0.194s-0.090 0.194-0.202 0.194zM13.592 10.702c-0.111 0-0.201-0.087-0.201-0.194s0.090-0.194 0.201-0.194c0.111 0 0.201 0.087 0.201 0.194s-0.090 0.194-0.201 0.194zM13.592 9.935c-0.097 0-0.175-0.078-0.175-0.175s0.078-0.175 0.175-0.175c0.097 0 0.175 0.078 0.175 0.175s-0.078 0.175-0.175 0.175zM13.592 9.207c-0.111 0-0.201-0.087-0.201-0.194s0.090-0.194 0.201-0.194c0.111 0 0.201 0.087 0.201 0.194s-0.090 0.194-0.201 0.194zM14.376 10.247c-0.111 0-0.201-0.087-0.201-0.194s0.090-0.194 0.201-0.194 0.201 0.087 0.201 0.194c0 0.107-0.090 0.194-0.201 0.194zM14.376 9.499c-0.111 0-0.201-0.087-0.201-0.194s0.090-0.194 0.201-0.194 0.201 0.087 0.201 0.194c0 0.107-0.090 0.194-0.201 0.194z"></path>
<path fill="rgb(235, 151, 131)" d="M9.147 12.18c-0.122 0-0.222-0.096-0.222-0.214s0.099-0.214 0.222-0.214c0.122 0 0.222 0.096 0.222 0.214s-0.099 0.214-0.222 0.214zM9.147 11.358c-0.122 0-0.222-0.096-0.222-0.214s0.099-0.214 0.222-0.214c0.122 0 0.222 0.096 0.222 0.214s-0.099 0.214-0.222 0.214zM9.991 12.612c-0.122 0-0.222-0.095-0.222-0.214s0.099-0.214 0.222-0.214c0.122 0 0.222 0.096 0.222 0.214s-0.099 0.214-0.222 0.214zM9.991 11.769c-0.106 0-0.193-0.086-0.193-0.193s0.086-0.193 0.193-0.193c0.106 0 0.193 0.086 0.193 0.193s-0.086 0.193-0.192 0.193zM9.991 10.968c-0.122 0-0.222-0.096-0.222-0.214s0.099-0.214 0.222-0.214c0.122 0 0.222 0.096 0.222 0.214s-0.099 0.214-0.222 0.214zM10.853 12.112c-0.122 0-0.222-0.096-0.222-0.214s0.099-0.214 0.222-0.214c0.122 0 0.222 0.096 0.222 0.214s-0.099 0.214-0.222 0.214zM10.853 11.29c-0.122 0-0.222-0.096-0.222-0.214s0.099-0.214 0.222-0.214c0.122 0 0.222 0.096 0.222 0.214s-0.099 0.214-0.222 0.214z"></path>
</svg>
