<?xml version="1.0" encoding="utf-8"?>
<!-- Generated by IcoMoon.io -->
<!DOCTYPE svg PUBLIC "-//W3C//DTD SVG 1.1//EN" "http://www.w3.org/Graphics/SVG/1.1/DTD/svg11.dtd">
<svg version="1.1" xmlns="http://www.w3.org/2000/svg" xmlns:xlink="http://www.w3.org/1999/xlink" width="20" height="20" viewBox="0 0 20 20">
<path fill="rgb(250, 188, 61)" d="M0.309 10c0 5.352 4.339 9.691 9.69 9.691s9.691-4.338 9.691-9.691c0-5.352-4.339-9.69-9.691-9.69s-9.69 4.339-9.69 9.69z"></path>
<path fill="rgb(145, 197, 206)" d="M3.56 7.742c-0.165-0.26-0.237-0.522-0.237-0.522h-0c0 0-0.073 0.261-0.237 0.522-0.202 0.407-0.526 0.622-0.526 1.135 0 0.441 0.322 0.799 0.763 0.799h0c0.441 0 0.763-0.358 0.763-0.799-0-0.512-0.324-0.727-0.526-1.135z"></path>
<path fill="rgb(185, 228, 234)" d="M3.56 7.742c-0.165-0.26-0.237-0.522-0.237-0.522s-0.441 2.455-0 2.455h0c0.441 0 0.763-0.358 0.763-0.799-0-0.512-0.324-0.727-0.526-1.135z"></path>
<path fill="rgb(242, 247, 247)" d="M3.366 9.545h0c0.345 0 0.597-0.28 0.597-0.625 0-0.401-0.943 0.625-0.598 0.625z"></path>
<path fill="rgb(178, 22, 45)" d="M15.194 12.15c0 0 1.451-2.125 1.451-4.010s-1.969-2.359-3.483-2.359c-0.821 0-2.813 0.020-2.813 0.020-1.876 0-1.719 1.993-1.719 1.993v2.227c0 0.391-0.23 0.295-0.361 0.061-2.096-3.737-4.689-3.766-4.689-3.766l-0.401 0.422c0 0 0.571 0.164 1.056 0.36 0.844 0.425 2.041 1.34 3.047 3.294 0.546 1.114 1.328 2.715 1.328 2.715l-0.078 0.567c0 0-0.156 0.645 0.313 0.645 0.86 0 5.92 0 5.92 0 0.655 0 0.528-0.723 0.528-0.723l-0.098-1.446z"></path>
<path fill="rgb(235, 151, 131)" d="M11.267 7.744c1.104 0 2.716 0 2.716 0s0.84-0 0.84 0.84v1.729c0 0 0.479 0.156 0.791-0.723 0 0 0.293-0.43 0.293-1.407 0-0.394-0.391-1.729-2.472-1.729 0 0-0.987 0-2.149 0-1.133 0-1.68 0.068-1.68 0.664s0.557 0.625 1.661 0.625z"></path>
<path fill="rgb(127, 20, 46)" d="M13.745 11.647c0 0.306-0.248 0.554-0.554 0.554s-0.554-0.248-0.554-0.554c0-0.306 0.248-0.554 0.554-0.554s0.554 0.248 0.554 0.554z"></path>
<path fill="rgb(127, 20, 46)" d="M14.498 12.218c0 0.306-0.248 0.554-0.554 0.554s-0.554-0.248-0.554-0.554c0-0.306 0.248-0.554 0.554-0.554s0.554 0.248 0.554 0.554z"></path>
<path fill="rgb(127, 20, 46)" d="M12.996 12.202c0 0.306-0.248 0.554-0.554 0.554s-0.554-0.248-0.554-0.554c0-0.306 0.248-0.554 0.554-0.554s0.554 0.248 0.554 0.554z"></path>
<path fill="rgb(127, 20, 46)" d="M13.301 13.121c0 0.306-0.248 0.554-0.554 0.554s-0.554-0.248-0.554-0.554c0-0.306 0.248-0.554 0.554-0.554s0.554 0.248 0.554 0.554z"></path>
<path fill="rgb(127, 20, 46)" d="M14.253 13.098c0 0.306-0.248 0.554-0.554 0.554s-0.554-0.248-0.554-0.554c0-0.306 0.248-0.554 0.554-0.554s0.554 0.248 0.554 0.554z"></path>
<path fill="rgb(178, 22, 45)" d="M13.673 12.437c0 0.26-0.211 0.471-0.471 0.471s-0.471-0.211-0.471-0.471c0-0.26 0.211-0.471 0.471-0.471s0.471 0.211 0.471 0.471z"></path>
</svg>
