<?xml version="1.0" encoding="utf-8"?>
<!-- Generated by IcoMoon.io -->
<!DOCTYPE svg PUBLIC "-//W3C//DTD SVG 1.1//EN" "http://www.w3.org/Graphics/SVG/1.1/DTD/svg11.dtd">
<svg version="1.1" xmlns="http://www.w3.org/2000/svg" xmlns:xlink="http://www.w3.org/1999/xlink" width="20" height="20" viewBox="0 0 20 20">
<path fill="rgb(37, 183, 211)" d="M19.691 10c0-5.352-4.339-9.691-9.69-9.691s-9.691 4.338-9.691 9.691c0 5.352 4.339 9.69 9.691 9.69s9.69-4.339 9.69-9.69z"></path>
<path fill="rgb(58, 53, 54)" d="M5.213 5.205h9.574v11.22h-9.574v-11.22z"></path>
<path fill="rgb(204, 202, 202)" d="M6.15 7.862h7.699v4.696h-7.699v-4.696z"></path>
<path fill="rgb(221, 221, 221)" d="M5.213 13.441h9.574v2.984h-9.574v-2.984z"></path>
<path fill="rgb(204, 204, 204)" d="M5.213 5.205h9.574v1.963h-9.574v-1.963z"></path>
<path fill="rgb(153, 153, 153)" d="M7.37 6.307c0 0.24-0.194 0.434-0.434 0.434s-0.434-0.194-0.434-0.434c0-0.24 0.194-0.434 0.434-0.434s0.434 0.194 0.434 0.434z"></path>
<path fill="rgb(221, 221, 220)" d="M6.807 6.178c0.192-0.192 0.406-0.288 0.478-0.215s-0.024 0.287-0.216 0.478c-0.192 0.192-0.406 0.288-0.478 0.215s0.024-0.287 0.216-0.478z"></path>
<path fill="rgb(58, 58, 58)" d="M6.856 6.227c0.192-0.192 0.383-0.311 0.427-0.267s-0.075 0.235-0.267 0.427c-0.192 0.192-0.383 0.311-0.427 0.267s0.075-0.235 0.267-0.427z"></path>
<path fill="rgb(153, 153, 153)" d="M9.413 6.307c0 0.24-0.194 0.434-0.434 0.434s-0.434-0.194-0.434-0.434c0-0.24 0.194-0.434 0.434-0.434s0.434 0.194 0.434 0.434z"></path>
<path fill="rgb(221, 221, 220)" d="M8.85 6.178c0.191-0.192 0.406-0.288 0.478-0.216s-0.024 0.287-0.215 0.478c-0.191 0.192-0.406 0.288-0.478 0.215s0.024-0.287 0.216-0.478z"></path>
<path fill="rgb(58, 58, 58)" d="M8.899 6.227c0.191-0.191 0.383-0.311 0.427-0.267s-0.075 0.235-0.267 0.427c-0.191 0.192-0.383 0.311-0.427 0.267s0.075-0.235 0.267-0.427z"></path>
<path fill="rgb(153, 153, 153)" d="M10.587 6.307c0-0.24 0.194-0.434 0.434-0.434s0.434 0.194 0.434 0.434-0.195 0.434-0.434 0.434c-0.24 0-0.434-0.194-0.434-0.434z"></path>
<path fill="rgb(221, 221, 220)" d="M10.892 6.177c0.192-0.192 0.406-0.288 0.478-0.215s-0.024 0.287-0.215 0.478c-0.192 0.192-0.406 0.288-0.478 0.215s0.024-0.287 0.215-0.478z"></path>
<path fill="rgb(58, 58, 58)" d="M10.942 6.227c0.191-0.192 0.383-0.311 0.427-0.267s-0.075 0.235-0.267 0.427c-0.191 0.192-0.383 0.311-0.427 0.267s0.075-0.235 0.267-0.427z"></path>
<path fill="rgb(153, 153, 153)" d="M13.498 6.307c0 0.24-0.194 0.434-0.434 0.434s-0.434-0.194-0.434-0.434c0-0.24 0.194-0.434 0.434-0.434s0.434 0.194 0.434 0.434z"></path>
<path fill="rgb(221, 221, 220)" d="M12.934 6.177c0.192-0.192 0.406-0.288 0.478-0.215s-0.024 0.287-0.215 0.478c-0.192 0.192-0.406 0.288-0.478 0.215s0.024-0.287 0.215-0.478z"></path>
<path fill="rgb(58, 58, 58)" d="M12.983 6.228c0.192-0.192 0.383-0.311 0.427-0.267s-0.075 0.235-0.267 0.427c-0.192 0.192-0.383 0.311-0.427 0.267s0.075-0.235 0.267-0.427z"></path>
<path fill="rgb(221, 221, 221)" d="M13.97 3.575h-7.94l-0.817 1.63h9.574z"></path>
<path fill="rgb(58, 53, 54)" d="M9.072 4.672c0 0.174-0.582 0.316-1.299 0.316s-1.299-0.141-1.299-0.316c0-0.174 0.582-0.316 1.299-0.316s1.299 0.141 1.299 0.316z"></path>
<path fill="rgb(58, 53, 54)" d="M13.525 4.673c0 0.173-0.579 0.314-1.292 0.314s-1.292-0.141-1.292-0.314c0-0.173 0.579-0.314 1.292-0.314s1.292 0.141 1.292 0.314z"></path>
<path fill="rgb(58, 53, 54)" d="M9.287 3.942c0 0.148-0.494 0.268-1.104 0.268s-1.104-0.12-1.104-0.268c0-0.148 0.494-0.268 1.104-0.268s1.104 0.12 1.104 0.268z"></path>
<path fill="rgb(58, 53, 54)" d="M12.92 3.942c0 0.148-0.494 0.268-1.104 0.268s-1.104-0.12-1.104-0.268c0-0.148 0.494-0.268 1.104-0.268s1.104 0.12 1.104 0.268z"></path>
<path fill="rgb(84, 82, 83)" d="M6.998 8.886h5.859v0.117h-5.859v-0.117z"></path>
<path fill="rgb(84, 82, 83)" d="M6.998 10.097h5.859v0.117h-5.859v-0.117z"></path>
<path fill="rgb(84, 82, 83)" d="M6.998 11.308h5.859v0.117h-5.859v-0.117z"></path>
</svg>
