<?xml version="1.0" encoding="utf-8"?>
<!-- Generated by IcoMoon.io -->
<!DOCTYPE svg PUBLIC "-//W3C//DTD SVG 1.1//EN" "http://www.w3.org/Graphics/SVG/1.1/DTD/svg11.dtd">
<svg version="1.1" xmlns="http://www.w3.org/2000/svg" xmlns:xlink="http://www.w3.org/1999/xlink" width="20" height="20" viewBox="0 0 20 20">
<path fill="rgb(250, 188, 61)" d="M19.691 10c0-5.352-4.339-9.691-9.69-9.691s-9.691 4.338-9.691 9.691c0 5.352 4.339 9.69 9.691 9.69s9.69-4.339 9.69-9.69z"></path>
<path fill="rgb(234, 73, 73)" d="M6.998 15.044v-3.176c0 0 0.037-1.084-0.785-3.289 0 0-0.822-1.457 0.112-2.093 0 0 0.897-0.598 1.495 0.785l0.523 1.158c0 0 0.050-0.424 0.075-0.984 0.033-0.747-1.034-2.84 0.972-3.239 0 0 2.542-0.598 3.513 1.158 0.797 1.441 0.289 3.16 0.187 3.737-0.050 0.281-0.224 1.42-0.262 2.878l0.075 3.064h-5.905z"></path>
<path fill="rgb(252, 112, 112)" d="M7.89 14.998l0.746-0.746 0.746 0.746-0.046 0.046h0.312l-0.046-0.046 0.746-0.746 0.746 0.746-0.046 0.046h0.312l-0.046-0.046 0.746-0.746 0.746 0.746-0.046 0.046h0.142l-0.004-0.175-0.727-0.727 0.693-0.693-0.008-0.335-0.685-0.685 0.664-0.664c0.004-0.126 0.010-0.249 0.016-0.369l-0.68-0.68 0.746-0.746 0.046 0.046c0.015-0.13 0.029-0.25 0.043-0.357l-0.090 0.090-0.746-0.746 0.746-0.746 0.286 0.286c0.012-0.060 0.023-0.122 0.034-0.187l-0.21-0.21 0.279-0.279c0.009-0.079 0.016-0.16 0.022-0.243l-0.412 0.412-0.746-0.746 0.746-0.746 0.419 0.419c-0.004-0.079-0.011-0.159-0.019-0.24l-0.289-0.289 0.205-0.205c-0.014-0.059-0.029-0.117-0.045-0.175l-0.27 0.27-0.746-0.746 0.525-0.525c-0.033-0.042-0.067-0.081-0.101-0.12l-0.534 0.534-0.746-0.746 0.388-0.388c-0.054-0.021-0.108-0.040-0.163-0.058l-0.335 0.335-0.491-0.491c-0.079-0.006-0.157-0.010-0.232-0.011l0.613 0.613-0.746 0.746-0.746-0.746 0.612-0.612c-0.082 0.003-0.16 0.007-0.234 0.013l-0.489 0.489-0.345-0.345c-0.057 0.018-0.112 0.037-0.163 0.058l0.397 0.397-0.746 0.746-0.389-0.389c-0.019 0.057-0.034 0.115-0.046 0.175l0.325 0.325-0.347 0.347c0.006 0.066 0.014 0.132 0.023 0.198l0.435-0.435 0.746 0.746-0.746 0.746-0.289-0.289c0.020 0.096 0.037 0.187 0.050 0.271l0.129 0.129-0.106 0.106c0 0.016 0 0.032-0.001 0.047-0.003 0.063-0.006 0.124-0.009 0.184l0.226-0.226 0.746 0.746-0.746 0.746-0.746-0.746 0.225-0.225-0.069-0.152-0.267 0.267-0.746-0.746 0.509-0.509c-0.034-0.044-0.068-0.083-0.102-0.119l-0.517 0.517-0.654-0.654c-0.043 0.033-0.081 0.068-0.116 0.105l0.659 0.659-0.746 0.746-0.111-0.111c0.033 0.123 0.072 0.236 0.11 0.333l0.001-0.001 0.746 0.746-0.334 0.334c0.018 0.057 0.036 0.113 0.053 0.168l0.391-0.391 0.746 0.746-0.746 0.746-0.124-0.124c0.032 0.14 0.059 0.269 0.082 0.387l0.042-0.042 0.746 0.746-0.671 0.671v0.371l0.671 0.671-0.671 0.671v0.371l0.716 0.716h0.221l-0.046-0.046zM7.89 13.285l0.746-0.746 0.746 0.746-0.746 0.746-0.746-0.746zM9.602 11.573l0.746-0.746 0.746 0.746-0.746 0.746-0.746-0.746zM10.237 12.429l-0.746 0.746-0.746-0.746 0.746-0.746 0.746 0.746zM11.204 11.683l0.746 0.746-0.746 0.746-0.746-0.746 0.746-0.746zM10.458 10.717l0.746-0.746 0.746 0.746-0.746 0.746-0.746-0.746zM10.458 9.004l0.746-0.746 0.746 0.746-0.746 0.746-0.746-0.746zM10.458 7.291l0.746-0.746 0.746 0.746-0.746 0.746-0.746-0.746zM11.094 8.148l-0.746 0.746-0.746-0.746 0.746-0.746 0.746 0.746zM11.094 9.86l-0.746 0.746-0.746-0.746 0.746-0.746 0.746 0.746zM10.237 10.717l-0.746 0.746-0.746-0.746 0.746-0.746 0.746 0.746zM9.381 11.573l-0.746 0.746-0.746-0.746 0.746-0.746 0.746 0.746zM9.492 14.887l-0.746-0.746 0.746-0.746 0.746 0.746-0.746 0.746zM9.602 13.285l0.746-0.746 0.746 0.746-0.746 0.746-0.746-0.746zM11.204 14.887l-0.746-0.746 0.746-0.746 0.746 0.746-0.746 0.746zM12.806 13.285l-0.746 0.746-0.746-0.746 0.746-0.746 0.746 0.746zM12.806 11.573l-0.746 0.746-0.746-0.746 0.746-0.746 0.746 0.746zM12.806 9.86l-0.746 0.746-0.746-0.746 0.746-0.746 0.746 0.746zM12.806 8.148l-0.746 0.746-0.746-0.746 0.746-0.746 0.746 0.746zM12.806 6.435l-0.746 0.746-0.746-0.746 0.746-0.746 0.746 0.746zM11.204 4.833l0.746 0.746-0.746 0.746-0.746-0.746 0.746-0.746zM11.094 6.435l-0.746 0.746-0.746-0.746 0.746-0.746 0.746 0.746zM8.746 5.579l0.746-0.746 0.746 0.746-0.746 0.746-0.746-0.746zM8.746 7.291l0.746-0.746 0.746 0.746-0.746 0.746-0.746-0.746zM9.492 8.258l0.746 0.746-0.746 0.746-0.746-0.746 0.746-0.746zM9.381 9.86l-0.746 0.746-0.746-0.746 0.746-0.746 0.746 0.746zM6.177 8.148l0.746-0.746 0.746 0.746-0.746 0.746-0.746-0.746zM7.033 9.004l0.746-0.746 0.746 0.746-0.746 0.746-0.746-0.746zM7.033 10.717l0.746-0.746 0.746 0.746-0.746 0.746-0.746-0.746zM7.033 12.429l0.746-0.746 0.746 0.746-0.746 0.746-0.746-0.746zM7.033 14.142l0.746-0.746 0.746 0.746-0.746 0.746-0.746-0.746z"></path>
<path fill="rgb(198, 54, 54)" d="M13.261 15.255c0 0.158-0.128 0.287-0.286 0.287h-6.029c-0.158 0-0.286-0.128-0.286-0.287v0c0-0.158 0.128-0.286 0.286-0.286h6.029c0.158 0 0.286 0.128 0.286 0.286v0z"></path>
<path fill="rgb(198, 54, 54)" d="M12.9 14.971c0 0 0.846-0.353 1.481-0.353s1.469 0.353 1.469 0.353v0.564c0 0-0.752-0.353-1.469-0.353s-1.481 0.353-1.481 0.353v-0.564z"></path>
<path fill="rgb(234, 73, 73)" d="M15.851 15.539c0 0-0.846 0.353-1.481 0.353s-1.469-0.353-1.469-0.353v-0.564c0 0 0.752 0.353 1.469 0.353s1.481-0.353 1.481-0.353v0.564z"></path>
</svg>
