<?xml version="1.0" encoding="utf-8"?>
<!-- Generated by IcoMoon.io -->
<!DOCTYPE svg PUBLIC "-//W3C//DTD SVG 1.1//EN" "http://www.w3.org/Graphics/SVG/1.1/DTD/svg11.dtd">
<svg version="1.1" xmlns="http://www.w3.org/2000/svg" xmlns:xlink="http://www.w3.org/1999/xlink" width="20" height="20" viewBox="0 0 20 20">
<path fill="rgb(37, 183, 211)" d="M19.691 10c0 5.352-4.339 9.691-9.691 9.691s-9.691-4.338-9.691-9.691 4.339-9.691 9.691-9.691c5.352 0 9.691 4.338 9.691 9.691z"></path>
<path fill="rgb(249, 195, 72)" d="M11.403 6.652c-0.374-0.908-1.254-3.098-1.523-3.348v-0.024c0 0 0.003 0.004 0 0.012-0.003-0.007 0-0.012 0-0.012v0.024c0 0.25-1.029 2.44-1.403 3.348-0.396 0.961 0.311 2.090 1.492 2.097l0.015 0-0.022-0c1.182-0.006 1.836-1.136 1.44-2.097z"></path>
<path fill="rgb(244, 141, 62)" d="M10.895 7.081c-0.246-0.597-0.746-2.045-1.015-2.185v0c0 0.14-0.649 1.588-0.894 2.185-0.258 0.626 0.177 1.362 0.954 1.365 0.778-0.003 1.212-0.739 0.955-1.365z"></path>
<path fill="rgb(193, 39, 45)" d="M10.443 7.38c-0.127-0.309-0.294-1.048-0.563-1.152v0c0 0.104-0.316 0.843-0.443 1.152-0.136 0.331 0.098 0.72 0.503 0.724 0.405-0.004 0.64-0.393 0.503-0.724z"></path>
<path fill="rgb(249, 195, 72)" d="M13.139 7.222c-0.287-0.698-1.105-2.383-1.105-2.576v-0.019c0 0 0.003 0.003 0 0.009-0.002-0.006 0-0.009 0-0.009v0.019c0 0.192-0.858 1.877-1.146 2.576-0.304 0.739 0.216 1.608 1.126 1.613 0.909-0.005 1.43-0.874 1.125-1.613z"></path>
<path fill="rgb(244, 141, 62)" d="M12.748 7.552c-0.189-0.459-0.714-1.573-0.714-1.681v0c0 0.107-0.565 1.222-0.754 1.681-0.198 0.482 0.136 1.048 0.734 1.050 0.598-0.002 0.932-0.568 0.734-1.050z"></path>
<path fill="rgb(193, 39, 45)" d="M12.401 7.782c-0.098-0.238-0.367-0.806-0.367-0.886v0c0 0.080-0.31 0.649-0.408 0.886-0.105 0.255 0.066 0.554 0.377 0.557l-0.005 0-0.002-0-0.001 0 0.009-0c0.312-0.003 0.502-0.302 0.396-0.557z"></path>
<path fill="rgb(249, 195, 72)" d="M9.33 7.222c-0.287-0.698-1.065-2.383-1.065-2.576v-0.019c0 0 0.002 0.003 0 0.009-0.003-0.006 0-0.009 0-0.009v0.019c-0.269 0.192-0.899 1.877-1.186 2.576-0.304 0.739 0.216 1.608 1.125 1.613 0.909-0.005 1.43-0.874 1.125-1.613z"></path>
<path fill="rgb(244, 141, 62)" d="M8.939 7.552c-0.189-0.459-0.674-1.573-0.674-1.681v0c-0.269 0.107-0.606 1.222-0.795 1.681-0.198 0.482 0.136 1.048 0.734 1.050 0.598-0.002 0.933-0.568 0.734-1.050z"></path>
<path fill="rgb(193, 39, 45)" d="M8.591 7.782c-0.098-0.238-0.326-0.806-0.326-0.886v0c-0.269 0.080-0.35 0.649-0.448 0.886-0.105 0.255 0.045 0.554 0.357 0.557l-0.015 0-0.008-0-0.004 0 0.028-0c0.311-0.003 0.52-0.302 0.415-0.557z"></path>
<path fill="rgb(128, 128, 128)" d="M10.632 8.286l-4.58 7.644-0.553-0.331 4.58-7.644z"></path>
<path fill="rgb(128, 128, 128)" d="M5.573 15.384h8.883v0.538h-8.883v-0.538z"></path>
<path fill="rgb(128, 128, 128)" d="M9.485 8.403l4.58 7.644 0.553-0.331-4.58-7.644z"></path>
<path fill="rgb(59, 58, 60)" d="M4.766 14.576h1.077v2.153h-1.077v-2.153z"></path>
<path fill="rgb(59, 58, 60)" d="M14.187 14.576h1.077v2.153h-1.077v-2.153z"></path>
<path fill="rgb(26, 26, 27)" d="M5.469 8.116c0.301 2.423 2.247 4.031 4.604 4.031s4.303-1.608 4.605-4.031h-9.208z"></path>
<path fill="rgb(128, 128, 128)" d="M5.304 7.577h9.421v0.538h-9.421v-0.538z"></path>
</svg>
