<?xml version="1.0" encoding="utf-8"?>
<!-- Generated by IcoMoon.io -->
<!DOCTYPE svg PUBLIC "-//W3C//DTD SVG 1.1//EN" "http://www.w3.org/Graphics/SVG/1.1/DTD/svg11.dtd">
<svg version="1.1" xmlns="http://www.w3.org/2000/svg" xmlns:xlink="http://www.w3.org/1999/xlink" width="20" height="20" viewBox="0 0 20 20">
<path fill="rgb(51, 77, 92)" d="M19.691 10c0-5.352-4.339-9.691-9.69-9.691s-9.691 4.338-9.691 9.691c0 5.352 4.339 9.69 9.691 9.69s9.69-4.339 9.69-9.69z"></path>
<path fill="rgb(178, 177, 177)" d="M10.653 5.62c0-0.358-0.291-0.649-0.649-0.649s-0.649 0.29-0.649 0.649c0 0.659 0.291 0.649 0.649 0.649s0.649 0.010 0.649-0.649z"></path>
<path fill="rgb(211, 211, 211)" d="M15.745 11.946c0-3.472-2.57-6.286-5.741-6.286s-5.741 2.814-5.741 6.286h11.482z"></path>
<path fill="rgb(232, 232, 232)" d="M10.147 5.172c-0.083-0.118-0.275-0.126-0.429-0.017s-0.21 0.292-0.127 0.41c0.083 0.118 0.639-0.275 0.556-0.393z"></path>
<path fill="rgb(232, 232, 232)" d="M5.352 10.855c0 0 0.727-1.327 2.166-2.664s2.737-1.63 2.737-1.63c-2.611-0.548-4.806 1.375-4.904 4.294z"></path>
<path fill="rgb(249, 249, 249)" d="M16.317 12.405c0 0.285-0.231 0.516-0.516 0.516h-11.682c-0.285 0-0.516-0.231-0.516-0.516v-0.064c0-0.285 0.231-0.516 0.516-0.516h11.682c0.285 0 0.516 0.231 0.516 0.516v0.064z"></path>
</svg>
