<?xml version="1.0" encoding="utf-8"?>
<!-- Generated by IcoMoon.io -->
<!DOCTYPE svg PUBLIC "-//W3C//DTD SVG 1.1//EN" "http://www.w3.org/Graphics/SVG/1.1/DTD/svg11.dtd">
<svg version="1.1" xmlns="http://www.w3.org/2000/svg" xmlns:xlink="http://www.w3.org/1999/xlink" width="20" height="20" viewBox="0 0 20 20">
<path fill="rgb(72, 161, 175)" d="M19.691 10c0-5.352-4.339-9.691-9.69-9.691s-9.691 4.338-9.691 9.691c0 5.352 4.339 9.69 9.691 9.69s9.69-4.339 9.69-9.69z"></path>
<path fill="rgb(7, 7, 9)" d="M12.097 16.791c0 0.294-0.238 0.533-0.533 0.533h-3.129c-0.294 0-0.533-0.238-0.533-0.533v-13.582c0-0.294 0.238-0.533 0.533-0.533h3.129c0.294 0 0.533 0.238 0.533 0.533v13.582z"></path>
<path fill="rgb(150, 0, 18)" d="M8.935 3.379c0 0.172-0.139 0.311-0.311 0.311s-0.311-0.139-0.311-0.311c0-0.172 0.139-0.311 0.311-0.311s0.311 0.139 0.311 0.311z"></path>
<path fill="rgb(125, 125, 130)" d="M11.676 3.379c0 0.172-0.139 0.311-0.311 0.311s-0.311-0.139-0.311-0.311c0-0.172 0.139-0.311 0.311-0.311s0.311 0.139 0.311 0.311z"></path>
<path fill="rgb(125, 125, 130)" d="M8.819 4.88c0 0.135-0.109 0.244-0.244 0.244s-0.244-0.109-0.244-0.244c0-0.135 0.109-0.244 0.244-0.244s0.244 0.109 0.244 0.244z"></path>
<path fill="rgb(125, 125, 130)" d="M9.769 4.88c0 0.135-0.109 0.244-0.244 0.244s-0.244-0.109-0.244-0.244c0-0.135 0.109-0.244 0.244-0.244s0.244 0.109 0.244 0.244z"></path>
<path fill="rgb(125, 125, 130)" d="M10.719 4.88c0 0.135-0.109 0.244-0.244 0.244s-0.244-0.109-0.244-0.244c0-0.135 0.109-0.244 0.244-0.244s0.244 0.109 0.244 0.244z"></path>
<path fill="rgb(125, 125, 130)" d="M11.669 4.88c0 0.135-0.109 0.244-0.244 0.244s-0.244-0.109-0.244-0.244c0-0.135 0.109-0.244 0.244-0.244s0.244 0.109 0.244 0.244z"></path>
<path fill="rgb(125, 125, 130)" d="M8.819 5.768c0 0.135-0.109 0.244-0.244 0.244s-0.244-0.109-0.244-0.244c0-0.135 0.109-0.244 0.244-0.244s0.244 0.109 0.244 0.244z"></path>
<path fill="rgb(125, 125, 130)" d="M9.769 5.768c0 0.135-0.109 0.244-0.244 0.244s-0.244-0.109-0.244-0.244c0-0.135 0.109-0.244 0.244-0.244s0.244 0.109 0.244 0.244z"></path>
<path fill="rgb(125, 125, 130)" d="M10.719 5.768c0 0.135-0.109 0.244-0.244 0.244s-0.244-0.109-0.244-0.244c0-0.135 0.109-0.244 0.244-0.244s0.244 0.109 0.244 0.244z"></path>
<path fill="rgb(125, 125, 130)" d="M11.669 5.768c0 0.135-0.109 0.244-0.244 0.244s-0.244-0.109-0.244-0.244c0-0.135 0.109-0.244 0.244-0.244s0.244 0.109 0.244 0.244z"></path>
<path fill="rgb(125, 125, 130)" d="M8.758 10.562c0 0.123-0.099 0.222-0.222 0.222s-0.222-0.099-0.222-0.222c0-0.123 0.099-0.222 0.222-0.222s0.222 0.099 0.222 0.222z"></path>
<path fill="rgb(125, 125, 130)" d="M11.673 10.562c0 0.123-0.099 0.222-0.222 0.222s-0.222-0.099-0.222-0.222c0-0.123 0.099-0.222 0.222-0.222s0.222 0.099 0.222 0.222z"></path>
<path fill="rgb(125, 125, 130)" d="M8.758 12.93c0 0.123-0.099 0.222-0.222 0.222s-0.222-0.099-0.222-0.222c0-0.123 0.099-0.222 0.222-0.222s0.222 0.099 0.222 0.222z"></path>
<path fill="rgb(125, 125, 130)" d="M11.673 12.93c0 0.123-0.099 0.222-0.222 0.222s-0.222-0.099-0.222-0.222c0-0.123 0.099-0.222 0.222-0.222s0.222 0.099 0.222 0.222z"></path>
<path fill="rgb(125, 125, 130)" d="M8.819 15.201c0 0.135-0.109 0.244-0.244 0.244s-0.244-0.109-0.244-0.244c0-0.135 0.109-0.244 0.244-0.244s0.244 0.109 0.244 0.244z"></path>
<path fill="rgb(125, 125, 130)" d="M9.769 15.201c0 0.135-0.109 0.244-0.244 0.244s-0.244-0.109-0.244-0.244c0-0.135 0.109-0.244 0.244-0.244s0.244 0.109 0.244 0.244z"></path>
<path fill="rgb(125, 125, 130)" d="M10.719 15.201c0 0.135-0.109 0.244-0.244 0.244s-0.244-0.109-0.244-0.244c0-0.135 0.109-0.244 0.244-0.244s0.244 0.109 0.244 0.244z"></path>
<path fill="rgb(125, 125, 130)" d="M11.669 15.201c0 0.135-0.109 0.244-0.244 0.244s-0.244-0.109-0.244-0.244c0-0.135 0.109-0.244 0.244-0.244s0.244 0.109 0.244 0.244z"></path>
<path fill="rgb(150, 0, 18)" d="M8.819 16.089c0 0.135-0.109 0.244-0.244 0.244s-0.244-0.109-0.244-0.244c0-0.135 0.109-0.244 0.244-0.244s0.244 0.109 0.244 0.244z"></path>
<path fill="rgb(33, 163, 51)" d="M9.769 16.089c0 0.135-0.109 0.244-0.244 0.244s-0.244-0.109-0.244-0.244c0-0.135 0.109-0.244 0.244-0.244s0.244 0.109 0.244 0.244z"></path>
<path fill="rgb(221, 199, 42)" d="M10.719 16.089c0 0.135-0.109 0.244-0.244 0.244s-0.244-0.109-0.244-0.244c0-0.135 0.109-0.244 0.244-0.244s0.244 0.109 0.244 0.244z"></path>
<path fill="rgb(45, 53, 227)" d="M11.669 16.089c0 0.135-0.109 0.244-0.244 0.244s-0.244-0.109-0.244-0.244c0-0.135 0.109-0.244 0.244-0.244s0.244 0.109 0.244 0.244z"></path>
<path fill="rgb(125, 125, 130)" d="M8.819 14.313c0 0.135-0.109 0.244-0.244 0.244s-0.244-0.109-0.244-0.244c0-0.135 0.109-0.244 0.244-0.244s0.244 0.109 0.244 0.244z"></path>
<path fill="rgb(125, 125, 130)" d="M9.769 14.313c0 0.135-0.109 0.244-0.244 0.244s-0.244-0.109-0.244-0.244c0-0.135 0.109-0.244 0.244-0.244s0.244 0.109 0.244 0.244z"></path>
<path fill="rgb(125, 125, 130)" d="M10.719 14.313c0 0.135-0.109 0.244-0.244 0.244s-0.244-0.109-0.244-0.244c0-0.135 0.109-0.244 0.244-0.244s0.244 0.109 0.244 0.244z"></path>
<path fill="rgb(125, 125, 130)" d="M11.669 14.313c0 0.135-0.109 0.244-0.244 0.244s-0.244-0.109-0.244-0.244c0-0.135 0.109-0.244 0.244-0.244s0.244 0.109 0.244 0.244z"></path>
<path fill="rgb(125, 125, 130)" d="M9.053 6.921c0 0.127-0.103 0.229-0.231 0.229h-0.283c-0.127 0-0.231-0.103-0.231-0.229v0c0-0.127 0.103-0.229 0.231-0.229h0.283c0.128 0 0.231 0.103 0.231 0.229v0z"></path>
<path fill="rgb(125, 125, 130)" d="M10.371 6.921c0 0.127-0.103 0.229-0.231 0.229h-0.283c-0.127 0-0.231-0.103-0.231-0.229v0c0-0.127 0.103-0.229 0.231-0.229h0.283c0.127 0 0.231 0.103 0.231 0.229v0z"></path>
<path fill="rgb(125, 125, 130)" d="M11.692 6.921c0 0.127-0.103 0.229-0.231 0.229h-0.283c-0.128 0-0.231-0.103-0.231-0.229v0c0-0.127 0.103-0.229 0.231-0.229h0.283c0.127 0 0.231 0.103 0.231 0.229v0z"></path>
<path fill="rgb(125, 125, 130)" d="M9.053 7.697c0 0.127-0.103 0.229-0.231 0.229h-0.283c-0.127 0-0.231-0.103-0.231-0.229v0c0-0.127 0.103-0.229 0.231-0.229h0.283c0.128 0 0.231 0.103 0.231 0.229v0z"></path>
<path fill="rgb(125, 125, 130)" d="M10.371 7.697c0 0.127-0.103 0.229-0.231 0.229h-0.283c-0.127 0-0.231-0.103-0.231-0.229v0c0-0.127 0.103-0.229 0.231-0.229h0.283c0.127 0 0.231 0.103 0.231 0.229v0z"></path>
<path fill="rgb(125, 125, 130)" d="M11.692 7.697c0 0.127-0.103 0.229-0.231 0.229h-0.283c-0.128 0-0.231-0.103-0.231-0.229v0c0-0.127 0.103-0.229 0.231-0.229h0.283c0.127 0 0.231 0.103 0.231 0.229v0z"></path>
<path fill="rgb(125, 125, 130)" d="M9.053 8.485c0 0.127-0.103 0.229-0.231 0.229h-0.283c-0.127 0-0.231-0.103-0.231-0.229v0c0-0.127 0.103-0.229 0.231-0.229h0.283c0.128 0 0.231 0.103 0.231 0.229v0z"></path>
<path fill="rgb(125, 125, 130)" d="M10.371 8.485c0 0.127-0.103 0.229-0.231 0.229h-0.283c-0.127 0-0.231-0.103-0.231-0.229v0c0-0.127 0.103-0.229 0.231-0.229h0.283c0.127 0 0.231 0.103 0.231 0.229v0z"></path>
<path fill="rgb(125, 125, 130)" d="M11.692 8.485c0 0.127-0.103 0.229-0.231 0.229h-0.283c-0.128 0-0.231-0.103-0.231-0.229v0c0-0.127 0.103-0.229 0.231-0.229h0.283c0.127 0 0.231 0.103 0.231 0.229v0z"></path>
<path fill="rgb(125, 125, 130)" d="M9.053 9.262c0 0.127-0.103 0.229-0.231 0.229h-0.283c-0.127 0-0.231-0.103-0.231-0.229v0c0-0.127 0.103-0.229 0.231-0.229h0.283c0.128 0 0.231 0.103 0.231 0.229v0z"></path>
<path fill="rgb(125, 125, 130)" d="M10.371 9.262c0 0.127-0.103 0.229-0.231 0.229h-0.283c-0.127 0-0.231-0.103-0.231-0.229v0c0-0.127 0.103-0.229 0.231-0.229h0.283c0.127 0 0.231 0.103 0.231 0.229v0z"></path>
<path fill="rgb(125, 125, 130)" d="M11.692 9.262c0 0.127-0.103 0.229-0.231 0.229h-0.283c-0.128 0-0.231-0.103-0.231-0.229v0c0-0.127 0.103-0.229 0.231-0.229h0.283c0.127 0 0.231 0.103 0.231 0.229v0z"></path>
<path fill="rgb(125, 125, 130)" d="M9.556 11.159c0.013 0.013 0.034 0.014 0.048 0.003 0.114-0.091 0.251-0.139 0.396-0.139s0.282 0.048 0.396 0.139c0.007 0.005 0.015 0.008 0.022 0.008 0.009 0 0.018-0.004 0.025-0.011l0.34-0.34c0.007-0.007 0.011-0.017 0.011-0.027s-0.005-0.019-0.012-0.026c-0.217-0.19-0.495-0.295-0.783-0.295s-0.566 0.105-0.783 0.295c-0.007 0.007-0.012 0.016-0.012 0.026s0.004 0.020 0.011 0.027l0.34 0.341z"></path>
<path fill="rgb(125, 125, 130)" d="M10.983 10.966c-0.007-0.008-0.016-0.012-0.026-0.012s-0.020 0.003-0.027 0.011l-0.341 0.341c-0.013 0.013-0.014 0.033-0.003 0.048 0.089 0.114 0.137 0.25 0.137 0.393 0 0.145-0.048 0.283-0.139 0.397-0.011 0.014-0.010 0.035 0.003 0.048l0.341 0.341c0.007 0.007 0.016 0.011 0.026 0.011 0 0 0.001 0 0.001 0 0.010-0 0.019-0.005 0.026-0.012 0.191-0.217 0.295-0.496 0.295-0.784 0-0.287-0.104-0.564-0.292-0.781z"></path>
<path fill="rgb(125, 125, 130)" d="M9.416 12.143c-0.091-0.114-0.139-0.251-0.139-0.397 0-0.144 0.047-0.28 0.137-0.393 0.011-0.014 0.010-0.035-0.003-0.048l-0.341-0.341c-0.007-0.007-0.017-0.012-0.027-0.011s-0.019 0.005-0.026 0.012c-0.189 0.216-0.293 0.494-0.293 0.781 0 0.289 0.105 0.567 0.295 0.784 0.007 0.007 0.016 0.012 0.026 0.012 0 0 0.001 0 0.001 0 0.010 0 0.019-0.004 0.026-0.011l0.341-0.341c0.013-0.013 0.014-0.034 0.003-0.048z"></path>
<path fill="rgb(125, 125, 130)" d="M10.442 12.334c-0.013-0.013-0.033-0.014-0.048-0.003-0.114 0.090-0.25 0.137-0.394 0.137s-0.28-0.047-0.394-0.137c-0.014-0.011-0.035-0.010-0.048 0.003l-0.342 0.342c-0.007 0.007-0.011 0.017-0.011 0.027s0.005 0.019 0.012 0.026c0.217 0.189 0.495 0.293 0.782 0.293s0.565-0.104 0.782-0.293c0.008-0.007 0.012-0.016 0.012-0.026s-0.003-0.020-0.011-0.027l-0.342-0.342z"></path>
<path fill="rgb(125, 125, 130)" d="M10.52 11.751c0 0.288-0.234 0.522-0.522 0.522s-0.522-0.234-0.522-0.522c0-0.288 0.234-0.522 0.522-0.522s0.522 0.234 0.522 0.522z"></path>
</svg>
