<?xml version="1.0" encoding="utf-8"?>
<!-- Generated by IcoMoon.io -->
<!DOCTYPE svg PUBLIC "-//W3C//DTD SVG 1.1//EN" "http://www.w3.org/Graphics/SVG/1.1/DTD/svg11.dtd">
<svg version="1.1" xmlns="http://www.w3.org/2000/svg" xmlns:xlink="http://www.w3.org/1999/xlink" width="20" height="20" viewBox="0 0 20 20">
<path fill="rgb(72, 161, 175)" d="M19.691 10c0-5.352-4.339-9.691-9.69-9.691s-9.691 4.338-9.691 9.691c0 5.352 4.339 9.69 9.691 9.69s9.69-4.339 9.69-9.69z"></path>
<path fill="rgb(7, 7, 9)" d="M13.799 14.648c0 0.070-0.057 0.127-0.127 0.127h-7.344c-0.070 0-0.127-0.057-0.127-0.127v0c0-0.070 0.057-0.127 0.127-0.127h7.344c0.070 0 0.127 0.057 0.127 0.127v0z"></path>
<path fill="rgb(7, 7, 9)" d="M8.916 13.74h2.168v0.918h-2.168v-0.918z"></path>
<path fill="rgb(198, 198, 198)" d="M3.184 5.381h13.632v8.437h-13.632v-8.437z"></path>
<path fill="rgb(7, 7, 9)" d="M3.184 5.225h13.632v8.437h-13.632v-8.437z"></path>
<path fill="rgb(30, 30, 30)" d="M3.581 5.669h12.839v7.444h-12.839v-7.444z"></path>
</svg>
