<?xml version="1.0" encoding="utf-8"?>
<!-- Generated by IcoMoon.io -->
<!DOCTYPE svg PUBLIC "-//W3C//DTD SVG 1.1//EN" "http://www.w3.org/Graphics/SVG/1.1/DTD/svg11.dtd">
<svg version="1.1" xmlns="http://www.w3.org/2000/svg" xmlns:xlink="http://www.w3.org/1999/xlink" width="20" height="20" viewBox="0 0 20 20">
<path fill="rgb(250, 188, 61)" d="M19.691 10c0-5.352-4.339-9.691-9.69-9.691s-9.691 4.338-9.691 9.691c0 5.352 4.339 9.69 9.691 9.69s9.69-4.339 9.69-9.69z"></path>
<path fill="rgb(58, 53, 54)" d="M14.536 4.8c-0.712-0.302-1.268-0.147-1.52 0.105l-0.975 0.837 0.413 0.182-0.413 0.355 1.68 0.741c0 0 0.889-0.562 1.193-0.755 0.132-0.083 0.212-0.212 0.203-0.356-0.005-0.082-0.006-0.404 0-0.492 0.013-0.198-0.145-0.433-0.581-0.618z"></path>
<path fill="rgb(81, 77, 78)" d="M12.041 5.743l0.975-0.837c0.252-0.252 0.808-0.407 1.52-0.105s0.683 0.737 0.378 0.929c-0.304 0.193-1.193 0.755-1.193 0.755l-1.68-0.741z"></path>
<path fill="rgb(58, 53, 54)" d="M12.679 5.667c0 0 0.423-0.343 0.571-0.49s0.473-0.238 0.89-0.062c0.417 0.177 0.4 0.431 0.221 0.544s-0.698 0.442-0.698 0.442l-0.983-0.434z"></path>
<path fill="rgb(235, 151, 131)" d="M13.25 5.714c-0.037 0.037-0.091 0.086-0.151 0.138l0.564 0.249c0 0 0.385-0.243 0.606-0.383-0.037-0.022-0.080-0.044-0.129-0.065-0.417-0.177-0.742-0.086-0.89 0.062z"></path>
<path fill="rgb(201, 199, 199)" d="M12.041 5.743l0.438-0.376 1.728 0.81-0.486 0.307z"></path>
<path fill="rgb(173, 172, 172)" d="M14.201 7.017l0.007-0.84-0.486 0.307z"></path>
<path fill="rgb(58, 53, 54)" d="M14.95 11.176c0 1.666-2.096 3.017-4.682 3.017s-4.682-1.351-4.682-3.017c0-1.666 2.096-3.017 4.682-3.017s4.682 1.351 4.682 3.017z"></path>
<path fill="rgb(58, 53, 54)" d="M10.268 14.193c2.528 0 4.589-1.292 4.679-2.907-0-0.045-0.001-0.073-0.001-0.079-0.109-1.604-2.161-1.506-4.678-1.506-2.5 0-4.542-0.114-4.675 1.475-0.001 0.009-0.002 0.058-0.002 0.133 0.108 1.605 2.161 2.884 4.677 2.884z"></path>
<path fill="rgb(102, 100, 101)" d="M14.581 12.247c0 1.48-1.931 2.68-4.313 2.68s-4.313-1.2-4.313-2.68c0-1.48 1.931-2.68 4.313-2.68s4.313 1.2 4.313 2.68z"></path>
<path fill="rgb(58, 53, 54)" d="M14.95 8.561c0 1.666-2.096 3.017-4.682 3.017s-4.682-1.351-4.682-3.017c0-1.666 2.096-3.017 4.682-3.017s4.682 1.351 4.682 3.017z"></path>
<path fill="rgb(102, 100, 101)" d="M14.581 11.96c0 1.48-1.931 2.68-4.313 2.68s-4.313-1.2-4.313-2.68c0-1.48 1.931-2.68 4.313-2.68s4.313 1.2 4.313 2.68z"></path>
<path fill="rgb(178, 22, 45)" d="M14.947 8.671c-0.090 1.615-2.15 2.907-4.679 2.907-2.517 0-4.57-1.28-4.677-2.884-0.003 0.367-0.005 3.376-0.005 3.421 0 1.666 2.096 3.252 4.682 3.252s4.682-1.585 4.682-3.252c0-0.037-0.001-3.137-0.003-3.443z"></path>
<path fill="rgb(58, 53, 54)" d="M7.899 11.734l-1.661-0.762c0 0-0.863 0.546-1.159 0.733-0.12 0.076-0.196 0.191-0.197 0.32-0.001 0.091 0 0.448-0 0.547-0.001 0.188 0.157 0.406 0.565 0.579 0.691 0.293 1.231 0.142 1.476-0.102l0.976-0.771v-0.544z"></path>
<path fill="rgb(201, 199, 199)" d="M6.238 10.967l0.492-0.31 1.659 0.762-0.486 0.307z"></path>
<path fill="rgb(173, 172, 172)" d="M7.899 12.273l0.486-0.282v-0.571l-0.486 0.307z"></path>
<path fill="rgb(81, 77, 78)" d="M7.899 11.727l-0.976 0.771c-0.245 0.245-0.785 0.396-1.476 0.102s-0.663-0.715-0.367-0.902 1.159-0.733 1.159-0.733l1.661 0.762z"></path>
<path fill="rgb(58, 53, 54)" d="M7.29 11.782l-0.582 0.46c-0.146 0.146-0.468 0.236-0.88 0.061s-0.395-0.426-0.219-0.538c0.176-0.111 0.691-0.437 0.691-0.437l0.99 0.454z"></path>
<path fill="rgb(178, 22, 45)" d="M6.708 12.242l0.195-0.154-0.603-0.277c0 0-0.427 0.27-0.636 0.403 0.045 0.031 0.099 0.061 0.165 0.089 0.412 0.175 0.734 0.085 0.88-0.061z"></path>
<path fill="rgb(226, 224, 224)" d="M10.268 5.649c-2.54 0-4.607 1.32-4.607 2.942s2.067 2.942 4.607 2.942 4.607-1.32 4.607-2.942c0-1.622-2.066-2.942-4.607-2.942zM10.268 11.683c-2.623 0-4.758-1.387-4.758-3.092s2.134-3.092 4.758-3.092 4.758 1.387 4.758 3.092-2.134 3.092-4.758 3.092z"></path>
</svg>
