<?xml version="1.0" encoding="utf-8"?>
<!-- Generated by IcoMoon.io -->
<!DOCTYPE svg PUBLIC "-//W3C//DTD SVG 1.1//EN" "http://www.w3.org/Graphics/SVG/1.1/DTD/svg11.dtd">
<svg version="1.1" xmlns="http://www.w3.org/2000/svg" xmlns:xlink="http://www.w3.org/1999/xlink" width="20" height="20" viewBox="0 0 20 20">
<path fill="rgb(74, 188, 150)" d="M19.691 10c0-5.352-4.339-9.691-9.69-9.691s-9.691 4.338-9.691 9.691c0 5.352 4.339 9.69 9.691 9.69s9.69-4.339 9.69-9.69z"></path>
<path fill="rgb(50, 54, 54)" d="M3.987 12.356c-0.252 0.347-0.356 0.514-0.293 0.64 0.090 0.18 0.502 0.279 0.82 0.325 1.776 0.256 6.251 0.383 8.298 0.289 0.002 0 1.367-0.029 1.367-0.207 0-1.063-9.051-2.62-10.193-1.046z"></path>
<path fill="rgb(255, 255, 255)" d="M8.229 8.286l-0-0.685c0 0-0.018-0.379 0.487-0.505h1.821l-2.308 1.19z"></path>
<path fill="rgb(201, 217, 214)" d="M7.882 8.879l-0.784 0.333v-0.971h0.784z"></path>
<path fill="rgb(255, 255, 255)" d="M7.882 8.242c0 0.018-0.175 0.033-0.392 0.033s-0.392-0.015-0.392-0.033c0-0.018 0.175-0.033 0.392-0.033s0.392 0.015 0.392 0.033z"></path>
<path fill="rgb(201, 217, 214)" d="M7.246 8.006h0.487v0.225h-0.487v-0.225z"></path>
<path fill="rgb(255, 255, 255)" d="M7.733 8.006c0 0.011-0.109 0.021-0.243 0.021s-0.243-0.009-0.243-0.021c0-0.011 0.109-0.021 0.243-0.021s0.243 0.009 0.243 0.021z"></path>
<path fill="rgb(201, 217, 214)" d="M7.733 8.236c0 0.011-0.109 0.021-0.243 0.021s-0.243-0.009-0.243-0.021c0-0.011 0.109-0.021 0.243-0.021s0.243 0.009 0.243 0.021z"></path>
<path fill="rgb(225, 234, 232)" d="M3.748 12.649c-0.063-0.126 0.088-0.285 0.34-0.633 1.142-1.574 5.143-5.622 9.866-5.657 0.157-0.001 0.333 0.008 0.433 0.044 0.112 0.041 0.139 0.059 0.222 0.216 0.422 0.798 1.353 3.304 1.648 4.524 0.095 0.392 0.079 0.449 0.009 0.549-0.13 0.184-0.279 0.192-0.622 0.27-0.352 0.080-0.734 0.177-1.231 0.372-0.5 0.196-10.576 0.496-10.666 0.316z"></path>
<path fill="rgb(51, 77, 92)" d="M3.748 12.649c0.031 0.063 0.055 0.131 0.137 0.175 0.156 0.083 0.421 0.12 0.629 0.15 1.875 0.271 6.762 0.397 8.62 0.271 0.757-0.051 0.78-0.715 1.28-0.911-0.5 0.196-10.576 0.496-10.666 0.316z"></path>
<path fill="rgb(74, 188, 150)" d="M9.487 8.682c1.095-0.747 2.456-1.344 3.925-1.374 0.167-0.003 0.37 0.064 0.42 0.167 0.195 0.399 0.359 0.938 0.431 1.266 0.056 0.253-0.173 0.476-0.393 0.526-0.226 0.051-2.661 0.78-4.271 1.183-0.452 0.113-0.856-0.209-0.937-0.582-0.093-0.427 0.203-0.761 0.825-1.185z"></path>
<path fill="rgb(255, 255, 255)" d="M11.654 9.729l-1.848 0.501c0 0 0.035 0.163 0.035 0.16 0 0 1.132-0.301 1.85-0.505l-0.037-0.157z"></path>
<path fill="rgb(201, 217, 214)" d="M11.424 9.586l-1.492 0.417c-0.097 0.027-0.154 0.128-0.127 0.225l0.001 0.002c0.567-0.143 1.241-0.33 1.848-0.501l-0.004-0.016c-0.027-0.097-0.128-0.154-0.225-0.127z"></path>
<path fill="rgb(177, 188, 186)" d="M15.645 11.962c0.343-0.078 0.492-0.086 0.622-0.27 0.070-0.099 0.086-0.156-0.009-0.549-0.038-0.157-0.087-0.336-0.144-0.529l-8.8 1.124c-0.398 0.1-0.696 0.348-0.696 0.348l-0.487 0.61c3.037-0.042 7.938-0.227 8.283-0.362 0.497-0.195 0.879-0.292 1.231-0.372z"></path>
</svg>
