<?xml version="1.0" encoding="utf-8"?>
<!-- Generated by IcoMoon.io -->
<!DOCTYPE svg PUBLIC "-//W3C//DTD SVG 1.1//EN" "http://www.w3.org/Graphics/SVG/1.1/DTD/svg11.dtd">
<svg version="1.1" xmlns="http://www.w3.org/2000/svg" xmlns:xlink="http://www.w3.org/1999/xlink" width="20" height="20" viewBox="0 0 20 20">
<path fill="rgb(163, 213, 224)" d="M19.691 10c0-5.352-4.339-9.691-9.69-9.691s-9.691 4.338-9.691 9.691c0 5.352 4.339 9.69 9.691 9.69s9.69-4.339 9.69-9.69z"></path>
<path fill="rgb(150, 114, 71)" d="M6.949 3.863h6.102v0.54h-6.102v-0.54z"></path>
<path fill="rgb(150, 114, 71)" d="M6.949 4.3h0.366v12.822h-0.366v-12.822z"></path>
<path fill="rgb(150, 114, 71)" d="M12.685 4.3h0.366v12.822h-0.366v-12.822z"></path>
<path fill="rgb(173, 131, 85)" d="M13.051 3.863h-6.102l0.499-0.985h5.111z"></path>
<path fill="rgb(117, 89, 57)" d="M7.315 4.401h5.371v12.721h-5.371v-12.721z"></path>
<path fill="rgb(173, 131, 85)" d="M12.685 16.851h-5.371l0.423-0.867h4.514z"></path>
<path fill="rgb(81, 60, 39)" d="M7.734 4.399h4.52v11.578h-4.52v-11.578z"></path>
<path fill="rgb(150, 114, 71)" d="M6.949 16.851h6.102v0.27h-6.102v-0.27z"></path>
<path fill="rgb(173, 131, 85)" d="M12.685 11.451h-5.371l0.423-0.867h4.514z"></path>
<path fill="rgb(150, 114, 71)" d="M6.949 11.451h6.102v0.27h-6.102v-0.27z"></path>
<path fill="rgb(173, 131, 85)" d="M12.685 13.267h-5.371l0.423-0.867h4.514z"></path>
<path fill="rgb(150, 114, 71)" d="M6.949 13.268h6.102v0.27h-6.102v-0.27z"></path>
<path fill="rgb(173, 131, 85)" d="M12.685 15.083h-5.371l0.423-0.867h4.514z"></path>
<path fill="rgb(150, 114, 71)" d="M6.949 15.084h6.102v0.27h-6.102v-0.27z"></path>
<path fill="rgb(173, 131, 85)" d="M12.685 9.634h-5.371l0.423-0.867h4.514z"></path>
<path fill="rgb(150, 114, 71)" d="M6.949 9.635h6.102v0.27h-6.102v-0.27z"></path>
<path fill="rgb(173, 131, 85)" d="M12.685 7.818h-5.371l0.423-0.867h4.514z"></path>
<path fill="rgb(150, 114, 71)" d="M6.949 7.818h6.102v0.27h-6.102v-0.27z"></path>
<path fill="rgb(173, 131, 85)" d="M12.685 6.001h-5.371l0.423-0.867h4.514z"></path>
<path fill="rgb(150, 114, 71)" d="M6.949 6.002h6.102v0.27h-6.102v-0.27z"></path>
<path fill="rgb(72, 161, 175)" d="M7.511 8.089h0.439v1.495h-0.439v-1.495z"></path>
<path fill="rgb(56, 132, 140)" d="M7.951 9.583l0.389-0.814v-0.681h-0.389z"></path>
<path fill="rgb(72, 161, 175)" d="M12.139 9.905h0.439v1.495h-0.439v-1.495z"></path>
<path fill="rgb(56, 132, 140)" d="M12.139 11.4l-0.389-0.814v-0.681h0.389z"></path>
<path fill="rgb(211, 175, 24)" d="M8.071 8.089h0.439v1.495h-0.439v-1.495z"></path>
<path fill="rgb(191, 158, 19)" d="M8.511 9.583l0.194-0.814v-0.681h-0.194z"></path>
<path fill="rgb(211, 175, 24)" d="M11.507 4.4h0.439v1.495h-0.439v-1.495z"></path>
<path fill="rgb(191, 158, 19)" d="M11.507 5.895l-0.194-0.814v-0.681h0.194z"></path>
<path fill="rgb(234, 73, 73)" d="M8.97 8.089h0.439v1.495h-0.439v-1.495z"></path>
<path fill="rgb(209, 61, 61)" d="M9.409 9.583l0.129-0.814v-0.681h-0.129z"></path>
<path fill="rgb(234, 73, 73)" d="M10.915 11.721h0.439v1.495h-0.439v-1.495z"></path>
<path fill="rgb(209, 61, 61)" d="M10.915 13.216l-0.129-0.814v-0.681h0.129z"></path>
<path fill="rgb(211, 175, 24)" d="M9.784 8.089h0.439v1.495h-0.439v-1.495z"></path>
<path fill="rgb(211, 175, 24)" d="M8.071 13.538h0.439v1.495h-0.439v-1.495z"></path>
<path fill="rgb(191, 158, 19)" d="M8.511 15.033l0.194-0.814v-0.681h-0.194z"></path>
<path fill="rgb(72, 161, 175)" d="M9.784 13.538h0.439v1.495h-0.439v-1.495z"></path>
</svg>
