<?xml version="1.0" encoding="utf-8"?>
<!-- Generated by IcoMoon.io -->
<!DOCTYPE svg PUBLIC "-//W3C//DTD SVG 1.1//EN" "http://www.w3.org/Graphics/SVG/1.1/DTD/svg11.dtd">
<svg version="1.1" xmlns="http://www.w3.org/2000/svg" xmlns:xlink="http://www.w3.org/1999/xlink" width="20" height="20" viewBox="0 0 20 20">
<path fill="rgb(50, 190, 166)" d="M19.691 10c0-5.352-4.339-9.691-9.69-9.691s-9.691 4.338-9.691 9.691c0 5.352 4.339 9.69 9.691 9.69s9.69-4.339 9.69-9.69z"></path>
<path fill="rgb(255, 255, 255)" d="M14.864 15.961c0 0.259-0.21 0.469-0.469 0.469h-8.79c-0.259 0-0.469-0.21-0.469-0.469v-11.58c0-0.259 0.21-0.469 0.469-0.469h8.79c0.259 0 0.469 0.21 0.469 0.469v11.58z"></path>
<path fill="rgb(204, 204, 204)" d="M13.164 10.614c0 1.747-1.417 3.164-3.164 3.164s-3.164-1.417-3.164-3.164c0-1.747 1.417-3.164 3.164-3.164s3.164 1.417 3.164 3.164z"></path>
<path fill="rgb(204, 204, 204)" d="M13.438 11.224c0 0.056-0.045 0.101-0.101 0.101h-0.697c-0.056 0-0.101-0.045-0.101-0.101v-1.197c0-0.056 0.045-0.101 0.101-0.101h0.697c0.056 0 0.101 0.045 0.101 0.101v1.197z"></path>
<path fill="rgb(255, 255, 255)" d="M13.054 10.614c0 1.687-1.367 3.054-3.054 3.054s-3.054-1.367-3.054-3.054c0-1.687 1.367-3.054 3.054-3.054s3.054 1.367 3.054 3.054z"></path>
<path fill="rgb(206, 206, 206)" d="M12.373 10.614c0 1.311-1.062 2.373-2.373 2.373s-2.373-1.062-2.373-2.373c0-1.311 1.062-2.373 2.373-2.373s2.373 1.062 2.373 2.373z"></path>
<path fill="rgb(229, 229, 229)" d="M8.454 12.051c-0.824-0.824-0.824-2.159 0-2.983s2.159-0.824 2.983 0c0.824 0.824-2.159 3.807-2.983 2.983z"></path>
<path fill="rgb(206, 206, 206)" d="M12.878 14.675h1.354v1.067h-1.354v-1.067z"></path>
<path fill="rgb(255, 255, 255)" d="M12.988 14.762h1.133v0.893h-1.133v-0.893z"></path>
<path fill="rgb(204, 204, 204)" d="M10.469 5.098c0 0.28-0.227 0.508-0.508 0.508s-0.508-0.227-0.508-0.508c0-0.28 0.227-0.508 0.508-0.508s0.508 0.227 0.508 0.508z"></path>
<path fill="rgb(255, 255, 255)" d="M10.391 5.098c0 0.237-0.192 0.43-0.43 0.43s-0.43-0.192-0.43-0.43c0-0.237 0.192-0.43 0.43-0.43s0.43 0.192 0.43 0.43z"></path>
<path fill="rgb(186, 186, 186)" d="M9.961 5.078c-0.022 0-0.039-0.017-0.039-0.039v-0.449c0-0.022 0.017-0.039 0.039-0.039s0.039 0.017 0.039 0.039v0.449c0 0.022-0.017 0.039-0.039 0.039z"></path>
<path fill="rgb(204, 204, 204)" d="M9.496 4.633c0.099-0.099 0.225-0.162 0.361-0.184v-0.039c-0.146 0.022-0.282 0.089-0.388 0.196-0.115 0.115-0.184 0.262-0.2 0.421h0.039c0.016-0.149 0.081-0.286 0.189-0.393z"></path>
<path fill="rgb(204, 204, 204)" d="M10.426 5.563c-0.099 0.099-0.225 0.162-0.361 0.184v0.039c0.146-0.022 0.282-0.089 0.388-0.195 0.099-0.099 0.164-0.222 0.191-0.356h-0.040c-0.026 0.123-0.087 0.237-0.178 0.328z"></path>
<path fill="rgb(204, 204, 204)" d="M10.426 4.633c0.107 0.107 0.172 0.245 0.189 0.393h0.039c-0.016-0.159-0.086-0.306-0.2-0.421-0.107-0.107-0.242-0.174-0.388-0.196v0.039c0.136 0.022 0.262 0.084 0.361 0.184z"></path>
<path fill="rgb(204, 204, 204)" d="M9.496 5.563c-0.091-0.091-0.152-0.205-0.178-0.328h-0.040c0.027 0.134 0.092 0.257 0.191 0.356 0.107 0.107 0.242 0.174 0.388 0.195v-0.039c-0.136-0.021-0.262-0.084-0.361-0.184z"></path>
<path fill="rgb(204, 204, 204)" d="M5.82 5.97h2.363l-0.005 0.378h-2.352z"></path>
<path fill="rgb(204, 204, 204)" d="M5.82 5.97h2.363l0.003-0.716h-2.368z"></path>
<path fill="rgb(255, 255, 255)" d="M5.895 5.319h2.213v0.664h-2.213v-0.664z"></path>
<path fill="rgb(96, 96, 96)" d="M12.552 4.564h1.471v0.664h-1.471v-0.664z"></path>
<path fill="rgb(112, 111, 111)" d="M12.552 5.228l1.471-0.664h-1.471z"></path>
<path fill="rgb(204, 204, 204)" d="M14.083 6.184c0 0.119-0.096 0.215-0.215 0.215s-0.215-0.096-0.215-0.215c0-0.119 0.096-0.215 0.215-0.215s0.215 0.096 0.215 0.215z"></path>
<path fill="rgb(255, 255, 255)" d="M14.038 6.184c0 0.095-0.077 0.171-0.171 0.171s-0.171-0.077-0.171-0.171c0-0.095 0.077-0.171 0.171-0.171s0.171 0.077 0.171 0.171z"></path>
<path fill="rgb(204, 204, 204)" d="M13.469 6.184c0 0.119-0.096 0.215-0.215 0.215s-0.215-0.096-0.215-0.215c0-0.119 0.096-0.215 0.215-0.215s0.215 0.096 0.215 0.215z"></path>
<path fill="rgb(255, 255, 255)" d="M13.425 6.184c0 0.095-0.077 0.171-0.171 0.171s-0.171-0.077-0.171-0.171c0-0.095 0.077-0.171 0.171-0.171s0.171 0.077 0.171 0.171z"></path>
<path fill="rgb(204, 204, 204)" d="M12.851 6.184c0 0.119-0.096 0.215-0.215 0.215s-0.215-0.096-0.215-0.215c0-0.119 0.096-0.215 0.215-0.215s0.215 0.096 0.215 0.215z"></path>
<path fill="rgb(255, 255, 255)" d="M12.806 6.184c0 0.095-0.077 0.171-0.171 0.171s-0.171-0.077-0.171-0.171c0-0.095 0.077-0.171 0.171-0.171s0.171 0.077 0.171 0.171z"></path>
<path fill="rgb(204, 204, 204)" d="M12.243 6.184c0 0.119-0.096 0.215-0.215 0.215s-0.215-0.096-0.215-0.215c0-0.119 0.096-0.215 0.215-0.215s0.215 0.096 0.215 0.215z"></path>
<path fill="rgb(255, 255, 255)" d="M12.199 6.184c0 0.095-0.077 0.171-0.171 0.171s-0.171-0.077-0.171-0.171c0-0.095 0.077-0.171 0.171-0.171s0.171 0.077 0.171 0.171z"></path>
<path fill="rgb(204, 204, 204)" d="M11.63 6.184c0 0.119-0.096 0.215-0.215 0.215s-0.215-0.096-0.215-0.215c0-0.119 0.096-0.215 0.215-0.215s0.215 0.096 0.215 0.215z"></path>
<path fill="rgb(255, 255, 255)" d="M11.586 6.184c0 0.095-0.077 0.171-0.171 0.171s-0.171-0.077-0.171-0.171c0-0.095 0.077-0.171 0.171-0.171s0.171 0.077 0.171 0.171z"></path>
</svg>
