<?xml version="1.0" encoding="utf-8"?>
<!-- Generator: Adobe Illustrator 16.0.0, SVG Export Plug-In . SVG Version: 6.00 Build 0)  -->
<!DOCTYPE svg PUBLIC "-//W3C//DTD SVG 1.1//EN" "http://www.w3.org/Graphics/SVG/1.1/DTD/svg11.dtd">
<svg version="1.1" id="Layer_1" xmlns="http://www.w3.org/2000/svg" xmlns:xlink="http://www.w3.org/1999/xlink" x="0px" y="0px"
	 width="20px" height="20px" viewBox="0 0 20 20" enable-background="new 0 0 20 20" xml:space="preserve">
<g>
	<path fill="#357180" d="M19.69,10c0,5.351-4.338,9.69-9.69,9.69S0.31,15.353,0.31,10c0-5.352,4.338-9.69,9.69-9.69
		S19.69,4.647,19.69,10z"/>
	<path fill="#D0E3E5" d="M16.691,5.37c-0.03-0.008-0.062-0.014-0.096-0.014H6.732c-0.111,0-0.213,0.046-0.283,0.12
		c-0.074,0.072-0.12,0.173-0.12,0.285v5.063c0,0.22,0.178,0.397,0.397,0.397s0.397-0.178,0.397-0.397V8.359h9.107v2.466
		c0,0.22,0.178,0.397,0.397,0.397c0.221,0,0.398-0.178,0.398-0.397V5.762C17.027,5.563,16.882,5.4,16.691,5.37z"/>
	<path fill="#94C5C5" d="M12.539,11.595h0.849l2.844-2.579V8.359H7.124l-3.706,3.235H12.539z"/>
	<path fill="#8BBEC0" d="M12.539,11.595h0.849l2.844-2.579V8.359L12.539,11.595z"/>
	<path fill="#5EACB4" d="M7.349,8.355c0,0,0.539-0.563,1.97-0.563s1.38,0.13,2.209,0.563H7.349z"/>
	<path fill="#5EACB4" d="M15.926,8.355c0,0-0.386-0.562-1.937-0.562c-1.55,0-1.396,0.121-2.241,0.562H15.926z"/>
	<path fill="#1A7877" d="M8.801,10.03c-2.962,0-4.772,1.133-4.772,1.133h9.486C13.515,11.163,11.765,10.03,8.801,10.03z"/>
	<path fill="#41979F" d="M13.149,11.059l-0.61,0.536h0.798l-0.082-0.51c0,0-0.037-0.01-0.105-0.023V11.059z"/>
	<path fill="#228080" d="M13.337,11.595l0.039,0.244L14.044,11l-0.656,0.595H13.337z"/>
	<path fill="#28898E" d="M16.099,8.419c-5.315-0.418-9.193,0-9.193,0L3.97,11.183c1.847-1.683,8.281-0.324,9.18-0.124l2.8-2.453
		L16.099,8.419L16.099,8.419z"/>
	<path fill="#228080" d="M13.149,11.059c0.068,0.017,0.105,0.025,0.105,0.025l0.082,0.511h0.051L14.044,11l1.905-2.394l-2.8,2.455
		V11.059z"/>
	<path fill="#D0E3E5" d="M12.971,8.624c0.22,0,0.397,0.178,0.397,0.397v5.063c0,0.221-0.178,0.398-0.397,0.398l0,0
		c-0.22,0-0.397-0.178-0.397-0.398V9.021C12.573,8.802,12.751,8.624,12.971,8.624L12.971,8.624z"/>
	<path fill="#D0E3E5" d="M13.335,11.223c0,0.22-0.179,0.397-0.397,0.397H3.075c-0.22,0-0.397-0.178-0.397-0.397l0,0
		c0-0.22,0.178-0.397,0.397-0.397h9.862C13.156,10.825,13.335,11.003,13.335,11.223L13.335,11.223z"/>
	<path fill="#D0E3E5" d="M13.335,9.016c0,0.22-0.179,0.397-0.397,0.397H3.075c-0.22,0-0.397-0.178-0.397-0.397l0,0
		c0-0.22,0.178-0.397,0.397-0.397h9.862C13.156,8.618,13.335,8.796,13.335,9.016L13.335,9.016z"/>
	<path fill="#D0E3E5" d="M3.067,8.624c0.221,0,0.397,0.178,0.397,0.397v5.063c0,0.221-0.179,0.398-0.397,0.398l0,0
		c-0.22,0-0.397-0.178-0.397-0.398V9.021C2.67,8.802,2.848,8.624,3.067,8.624L3.067,8.624z"/>
	<path fill="#D0E3E5" d="M5.673,8.624c0.088,0,0.158,0.178,0.158,0.397v2.042c0,0.221-0.07,0.398-0.158,0.398l0,0
		c-0.088,0-0.16-0.178-0.16-0.398V9.021C5.513,8.802,5.585,8.624,5.673,8.624L5.673,8.624z"/>
	<path fill="#D0E3E5" d="M4.089,8.624c0.088,0,0.158,0.178,0.158,0.397v2.042c0,0.221-0.07,0.398-0.158,0.398l0,0
		c-0.088,0-0.159-0.178-0.159-0.398V9.021C3.93,8.802,4.001,8.624,4.089,8.624L4.089,8.624z"/>
	<path fill="#D0E3E5" d="M4.877,8.624c0.088,0,0.159,0.178,0.159,0.397v2.042c0,0.221-0.071,0.398-0.159,0.398l0,0
		c-0.088,0-0.159-0.178-0.159-0.398V9.021C4.718,8.802,4.789,8.624,4.877,8.624L4.877,8.624z"/>
	<path fill="#D0E3E5" d="M6.435,8.624c0.088,0,0.159,0.178,0.159,0.397v2.042c0,0.221-0.071,0.398-0.159,0.398l0,0
		c-0.088,0-0.159-0.178-0.159-0.398V9.021C6.275,8.802,6.347,8.624,6.435,8.624L6.435,8.624z"/>
	<path fill="#D0E3E5" d="M7.224,8.624c0.088,0,0.159,0.178,0.159,0.397v2.042c0,0.221-0.071,0.398-0.159,0.398l0,0
		c-0.088,0-0.159-0.178-0.159-0.398V9.021C7.064,8.802,7.136,8.624,7.224,8.624L7.224,8.624z"/>
	<path fill="#D0E3E5" d="M8.741,8.624c0.088,0,0.159,0.178,0.159,0.397v2.042c0,0.221-0.071,0.398-0.159,0.398l0,0
		c-0.088,0-0.159-0.178-0.159-0.398V9.021C8.582,8.802,8.653,8.624,8.741,8.624L8.741,8.624z"/>
	<path fill="#D0E3E5" d="M9.53,8.624c0.088,0,0.16,0.178,0.16,0.397v2.042c0,0.221-0.072,0.398-0.16,0.398l0,0
		c-0.088,0-0.159-0.178-0.159-0.398V9.021C9.371,8.802,9.442,8.624,9.53,8.624L9.53,8.624z"/>
	<path fill="#D0E3E5" d="M11.128,8.624c0.088,0,0.158,0.178,0.158,0.397v2.042c0,0.221-0.07,0.398-0.158,0.398l0,0
		c-0.088,0-0.16-0.178-0.16-0.398V9.021C10.968,8.802,11.04,8.624,11.128,8.624L11.128,8.624z"/>
	<path fill="#D0E3E5" d="M11.917,8.624c0.088,0,0.158,0.178,0.158,0.397v2.042c0,0.221-0.07,0.398-0.158,0.398l0,0
		c-0.088,0-0.159-0.178-0.159-0.398V9.021C11.758,8.802,11.829,8.624,11.917,8.624L11.917,8.624z"/>
	<path fill="#D0E3E5" d="M7.999,8.624c0.088,0,0.159,0.178,0.159,0.397v2.042c0,0.221-0.071,0.398-0.159,0.398l0,0
		c-0.088,0-0.159-0.178-0.159-0.398V9.021C7.84,8.802,7.911,8.624,7.999,8.624L7.999,8.624z"/>
	<path fill="#D0E3E5" d="M10.346,8.624c0.088,0,0.159,0.178,0.159,0.397v2.042c0,0.221-0.072,0.398-0.159,0.398l0,0
		c-0.088,0-0.159-0.178-0.159-0.398V9.021C10.187,8.802,10.258,8.624,10.346,8.624L10.346,8.624z"/>
</g>
</svg>
