<?xml version="1.0" encoding="utf-8"?>
<!-- Generated by IcoMoon.io -->
<!DOCTYPE svg PUBLIC "-//W3C//DTD SVG 1.1//EN" "http://www.w3.org/Graphics/SVG/1.1/DTD/svg11.dtd">
<svg version="1.1" xmlns="http://www.w3.org/2000/svg" xmlns:xlink="http://www.w3.org/1999/xlink" width="20" height="20" viewBox="0 0 20 20">
<path fill="rgb(163, 213, 224)" d="M0.309 10c0 5.352 4.339 9.691 9.69 9.691s9.691-4.338 9.691-9.691c0-5.352-4.339-9.69-9.691-9.69s-9.69 4.339-9.69 9.69z"></path>
<path fill="rgb(114, 175, 27)" d="M9.873 3.726h0.332v9.395h-0.332v-9.395z"></path>
<path fill="rgb(114, 175, 27)" d="M10.205 3.725c0 0.28-0.219 0.688-0.869 0.688s-1.765-0.561-1.485-0.561c0.471 0 0.835-0.815 1.485-0.815s0.869 0.408 0.869 0.688z"></path>
<path fill="rgb(114, 175, 27)" d="M10.087 6.517c0 0.28-0.219 0.688-0.869 0.688s-1.765-0.561-1.485-0.561c0.471 0 0.835-0.815 1.485-0.815s0.869 0.408 0.869 0.688z"></path>
<path fill="rgb(114, 175, 27)" d="M9.934 5.279c0 0.28 0.219 0.688 0.869 0.688s1.765-0.561 1.485-0.561c-0.471 0-0.835-0.815-1.485-0.815s-0.869 0.408-0.869 0.688z"></path>
<path fill="rgb(114, 175, 27)" d="M10.087 9.269c0 0.28-0.219 0.688-0.869 0.688s-1.765-0.561-1.485-0.561c0.471 0 0.835-0.815 1.485-0.815s0.869 0.408 0.869 0.688z"></path>
<path fill="rgb(114, 175, 27)" d="M9.934 8.032c0 0.28 0.219 0.688 0.869 0.688s1.765-0.561 1.485-0.561c-0.471 0-0.835-0.815-1.485-0.815s-0.869 0.408-0.869 0.688z"></path>
<path fill="rgb(114, 175, 27)" d="M9.934 10.688c0 0.28 0.219 0.688 0.869 0.688s1.765-0.561 1.485-0.561c-0.471 0-0.835-0.815-1.485-0.815s-0.869 0.408-0.869 0.688z"></path>
<path fill="rgb(244, 124, 44)" d="M12.199 13.46c-0.022-0.027-0.055-0.042-0.090-0.042h-4.219c-0.035 0-0.068 0.015-0.090 0.042s-0.032 0.062-0.026 0.096l0.586 3.311c0.010 0.056 0.059 0.097 0.115 0.097h3.047c0.057 0 0.106-0.041 0.115-0.097l0.586-3.311c0.006-0.034-0.003-0.069-0.026-0.096z"></path>
<path fill="rgb(216, 102, 39)" d="M12.539 12.378h-5.078c-0.065 0-0.117 0.052-0.117 0.117v1.211c0 0.065 0.052 0.117 0.117 0.117h5.078c0.065 0 0.117-0.052 0.117-0.117v-1.211c0-0.065-0.052-0.117-0.117-0.117z"></path>
</svg>
