<?xml version="1.0" encoding="utf-8"?>
<!-- Generated by IcoMoon.io -->
<!DOCTYPE svg PUBLIC "-//W3C//DTD SVG 1.1//EN" "http://www.w3.org/Graphics/SVG/1.1/DTD/svg11.dtd">
<svg version="1.1" xmlns="http://www.w3.org/2000/svg" xmlns:xlink="http://www.w3.org/1999/xlink" width="20" height="20" viewBox="0 0 20 20">
<path fill="rgb(51, 77, 92)" d="M19.691 10c0-5.352-4.339-9.691-9.69-9.691s-9.691 4.338-9.691 9.691c0 5.352 4.339 9.69 9.691 9.69s9.69-4.339 9.69-9.69z"></path>
<path fill="rgb(234, 84, 84)" d="M13.343 11.754h-6.685l0.642 5.609h0.001c0.029 0.384 1.227 0.693 2.7 0.693s2.67-0.309 2.7-0.693h0l0.642-5.609z"></path>
<path fill="rgb(251, 221, 221)" d="M10.005 14.593c-0.902 0-1.925-0.066-2.669-0.552-0.783-0.512-1.164-1.417-1.164-2.769h0.175c0 2.62 1.4 3.146 3.658 3.146 0.874 0 1.863-0.063 2.574-0.529 0.73-0.479 1.085-1.335 1.085-2.616h0.175c0 1.345-0.381 2.249-1.164 2.763-0.749 0.492-1.77 0.558-2.669 0.558z"></path>
<path fill="rgb(216, 39, 39)" d="M11.040 14.52c0 0.126-0.102 0.228-0.228 0.228h-1.637c-0.126 0-0.228-0.102-0.228-0.228v-0.076c0-0.126 0.102-0.229 0.228-0.229h1.637c0.126 0 0.228 0.102 0.228 0.229v0.076z"></path>
<path fill="rgb(224, 68, 68)" d="M6.995 11.891c0.63 0.253 1.435 0.507 3.005 0.507 1.646 0 2.376-0.253 3.005-0.507-0.704 0.191-1.789 0.313-3.005 0.313s-2.301-0.122-3.005-0.313z"></path>
<path fill="rgb(234, 73, 73)" d="M13.846 11.091h-7.692v0.274h0.002c-0 0.002-0 0.005-0 0.008 0 0.459 1.721 0.831 3.845 0.831s3.845-0.372 3.845-0.831c0-0.002-0-0.005-0-0.008h0.001v-0.274z"></path>
<path fill="rgb(239, 101, 101)" d="M13.845 11.112c0 0.459-1.721 0.831-3.845 0.831s-3.845-0.372-3.845-0.831c0-0.459 1.721-0.831 3.845-0.831s3.845 0.372 3.845 0.831z"></path>
<path fill="rgb(216, 39, 39)" d="M13.24 11.112c0-0.387-1.45-0.7-3.24-0.7s-3.24 0.313-3.24 0.7c0 0.133 0.173 0.258 0.472 0.364 0.569 0.201 4.967 0.201 5.536-0 0.299-0.106 0.472-0.231 0.472-0.364z"></path>
<path fill="rgb(163, 213, 224)" d="M12.769 11.476c-0.569-0.202-1.596-0.336-2.768-0.336s-2.199 0.135-2.768 0.336c0.569 0.202 1.596 0.336 2.768 0.336s2.199-0.135 2.768-0.336z"></path>
<path fill="rgb(104, 103, 103)" d="M8.685 4.357c0-0.106 0.086-0.193 0.193-0.193h2.247c0.107 0 0.193 0.086 0.193 0.193v0.495c0 0-2.633 0.019-2.633 0v-0.495z"></path>
<path fill="rgb(188, 187, 187)" d="M10.373 3.848v-3.531c-0.124-0.005-0.248-0.008-0.373-0.008-0.12 0-0.239 0.003-0.358 0.007v3.531c0 0.202 0.731 0.202 0.731 0z"></path>
<path fill="rgb(104, 103, 103)" d="M9.642 3.569c0-0.202 0.731-0.202 0.731 0v0.914c0 0.202-0.731 0.202-0.731 0v-0.914z"></path>
<path fill="rgb(193, 191, 191)" d="M9.358 8.133l-0.895 0.595 0.165-1.497 0.929-0.502-0.044 0.597z"></path>
<path fill="rgb(193, 191, 191)" d="M11.064 8.729l-0.398-0.107 0.144-1.211 0.929-0.502z"></path>
<path fill="rgb(255, 255, 255)" d="M11.318 4.853h-2.633c0 1.326-1.098 3.546-1.098 3.546 0 0.182 0.148 0.33 0.33 0.33h0.547c0.52-0.704 0.922-1.894 0.922-1.894 0.055 0.953-0.068 1.537-0.213 1.894h0.674c0.164-0.383 0.264-0.677 0.264-0.677 0.014 0.25 0.017 0.475 0.009 0.677h0.944c-0.057-0.331-0.084-0.758-0.052-1.307 0 0 0.228 0.673 0.562 1.307h0.511c0.182 0 0.33-0.148 0.33-0.33 0 0-1.096-2.211-1.096-3.546z"></path>
<path fill="rgb(145, 197, 206)" d="M10.326 10.066c-0.064-0.1-0.092-0.201-0.092-0.201h-0c0 0-0.028 0.101-0.092 0.201-0.078 0.157-0.203 0.24-0.203 0.438 0 0.17 0.124 0.308 0.295 0.308h0c0.17 0 0.295-0.138 0.295-0.308 0-0.198-0.125-0.281-0.203-0.438z"></path>
<path fill="rgb(185, 228, 234)" d="M10.326 10.066c-0.064-0.1-0.092-0.201-0.092-0.201s-0.17 0.948-0 0.948h0c0.17 0 0.295-0.138 0.295-0.308 0-0.198-0.125-0.281-0.203-0.438z"></path>
<path fill="rgb(242, 247, 247)" d="M10.251 10.762v0c0.133 0 0.231-0.108 0.231-0.241 0-0.155-0.364 0.241-0.231 0.241z"></path>
<path fill="rgb(145, 197, 206)" d="M8.51 9.311c-0.064-0.1-0.092-0.201-0.092-0.201h-0c0 0-0.028 0.101-0.092 0.201-0.078 0.157-0.203 0.24-0.203 0.438 0 0.17 0.124 0.308 0.295 0.308h0c0.17 0 0.295-0.138 0.295-0.308 0-0.198-0.125-0.281-0.203-0.438z"></path>
<path fill="rgb(185, 228, 234)" d="M8.51 9.311c-0.064-0.1-0.092-0.201-0.092-0.201s-0.17 0.948-0 0.948h0c0.17 0 0.295-0.138 0.295-0.308 0-0.198-0.125-0.281-0.203-0.438z"></path>
<path fill="rgb(242, 247, 247)" d="M8.435 10.007v0c0.133 0 0.231-0.108 0.231-0.241 0-0.155-0.364 0.241-0.231 0.241z"></path>
<path fill="rgb(145, 197, 206)" d="M12.143 9.311c-0.064-0.1-0.092-0.201-0.092-0.201h-0c0 0-0.028 0.101-0.092 0.201-0.078 0.157-0.203 0.24-0.203 0.438 0 0.17 0.124 0.308 0.295 0.308h0c0.17 0 0.295-0.138 0.295-0.308 0-0.198-0.125-0.281-0.203-0.438z"></path>
<path fill="rgb(185, 228, 234)" d="M12.143 9.311c-0.064-0.1-0.092-0.201-0.092-0.201s-0.17 0.948-0 0.948h0c0.17 0 0.295-0.138 0.295-0.308 0-0.198-0.125-0.281-0.203-0.438z"></path>
<path fill="rgb(242, 247, 247)" d="M12.068 10.007v0c0.133 0 0.231-0.108 0.231-0.241 0-0.155-0.364 0.241-0.231 0.241z"></path>
</svg>
