<?xml version="1.0" encoding="utf-8"?>
<!-- Generated by IcoMoon.io -->
<!DOCTYPE svg PUBLIC "-//W3C//DTD SVG 1.1//EN" "http://www.w3.org/Graphics/SVG/1.1/DTD/svg11.dtd">
<svg version="1.1" xmlns="http://www.w3.org/2000/svg" xmlns:xlink="http://www.w3.org/1999/xlink" width="20" height="20" viewBox="0 0 20 20">
<path fill="rgb(37, 183, 211)" d="M0.309 10c0 5.352 4.339 9.691 9.69 9.691s9.691-4.338 9.691-9.691c0-5.352-4.339-9.69-9.691-9.69s-9.69 4.339-9.69 9.69z"></path>
<path fill="rgb(211, 211, 211)" d="M6.836 4.883h6.328v10.234h-6.328v-10.234z"></path>
<path fill="rgb(106, 106, 106)" d="M13.164 5.056c0-0.677-1.417-1.225-3.164-1.225s-3.164 0.548-3.164 1.225c0 0.22 0 0.991 0 1.211 0 0.677 1.417 1.225 3.164 1.225s3.164-0.549 3.164-1.225c0-0.22 0-0.991 0-1.211z"></path>
<path fill="rgb(158, 158, 158)" d="M13.164 4.822c0-0.677-1.417-1.225-3.164-1.225s-3.164 0.548-3.164 1.225c0 0.22 0 0.991 0 1.211 0 0.677 1.417 1.225 3.164 1.225s3.164-0.549 3.164-1.225c0-0.22 0-0.991 0-1.211z"></path>
<path fill="rgb(211, 211, 211)" d="M13.164 4.83c0 0.677-1.417 1.225-3.164 1.225s-3.164-0.548-3.164-1.225c0-0.677 1.417-1.225 3.164-1.225s3.164 0.548 3.164 1.225z"></path>
<path fill="rgb(91, 91, 91)" d="M13.503 14.932c0-0.749-1.568-1.356-3.503-1.356s-3.503 0.607-3.503 1.356c0 0.030 0 0.146 0 0.176 0 0.749 1.568 1.356 3.503 1.356s3.503-0.607 3.503-1.356c0-0.030 0-0.146 0-0.176z"></path>
<path fill="rgb(106, 106, 106)" d="M13.503 14.932c0 0.749-1.568 1.356-3.503 1.356s-3.503-0.607-3.503-1.356c0-0.749 1.568-1.356 3.503-1.356s3.503 0.607 3.503 1.356z"></path>
<path fill="rgb(158, 158, 158)" d="M13.164 13.637c0-0.677-1.417-1.225-3.164-1.225s-3.164 0.548-3.164 1.225c0 0.22 0 0.991 0 1.211 0 0.677 1.417 1.225 3.164 1.225s3.164-0.549 3.164-1.225c0-0.22 0-0.991 0-1.211z"></path>
<path fill="rgb(211, 211, 211)" d="M13.164 13.351c0-0.677-1.417-1.225-3.164-1.225s-3.164 0.548-3.164 1.225c0 0.22 0 0.991 0 1.211 0 0.677 1.417 1.225 3.164 1.225s3.164-0.549 3.164-1.225c0-0.22 0-0.991 0-1.211z"></path>
<path fill="rgb(142, 142, 142)" d="M11.022 14.263h-2.044l0.192-0.251h1.66z"></path>
<path fill="rgb(168, 168, 168)" d="M10.83 14.771h-1.66l-0.192-0.509h2.044z"></path>
</svg>
