<?xml version="1.0" encoding="utf-8"?>
<!-- Generated by IcoMoon.io -->
<!DOCTYPE svg PUBLIC "-//W3C//DTD SVG 1.1//EN" "http://www.w3.org/Graphics/SVG/1.1/DTD/svg11.dtd">
<svg version="1.1" xmlns="http://www.w3.org/2000/svg" xmlns:xlink="http://www.w3.org/1999/xlink" width="20" height="20" viewBox="0 0 20 20">
<path fill="rgb(163, 213, 224)" d="M19.691 10c0-5.352-4.339-9.691-9.69-9.691s-9.691 4.338-9.691 9.691c0 5.352 4.339 9.69 9.691 9.69s9.69-4.339 9.69-9.69z"></path>
<path fill="rgb(30, 30, 30)" d="M14.918 13.134h-2.351l-0.878-2.351h2.351z"></path>
<path fill="rgb(63, 63, 63)" d="M5.863 4.863h8.184v10.273h-8.184v-10.273z"></path>
<path fill="rgb(237, 237, 237)" d="M6.952 6.229h6.007v7.541h-6.007v-7.541z"></path>
<path fill="rgb(51, 51, 51)" d="M11.631 9.514c-0.044 0.096 0.032 0.202 0.032 0.202-0.056-0.163 0.235-0.261 0.243-0.011 0.009 0.271-0.518 0.553-0.784 0.147-0.281-0.428-0.657-0.506-0.95-0.398-0.106 0.039-0.179 0.129-0.217 0.238-0.037-0.109-0.11-0.199-0.217-0.238-0.293-0.108-0.669-0.030-0.95 0.398-0.267 0.406-0.793 0.124-0.784-0.147 0.008-0.251 0.299-0.153 0.243 0.011 0 0 0.076-0.106 0.032-0.202-0.123-0.269-0.533-0.068-0.506 0.299 0 0 0.028 0.76 1.111 0.796 0.282 0.009 0.665-0.052 0.972-0.39 0.046-0.051 0.078-0.11 0.099-0.174 0.021 0.064 0.054 0.124 0.099 0.174 0.307 0.338 0.69 0.4 0.972 0.39 1.083-0.036 1.111-0.796 1.111-0.796 0.028-0.366-0.382-0.567-0.506-0.299z"></path>
<path fill="rgb(255, 255, 255)" d="M6.952 13.771v-7.541h6.007z"></path>
<path fill="rgb(91, 91, 91)" d="M10.172 9.455c-0.106 0.039-0.179 0.129-0.217 0.238-0.037-0.109-0.11-0.199-0.217-0.238-0.293-0.108-0.669-0.030-0.95 0.398-0.267 0.406-0.793 0.124-0.784-0.147 0.008-0.251 0.299-0.153 0.243 0.011 0 0 0.076-0.106 0.032-0.202-0.123-0.269-0.533-0.068-0.506 0.299 0 0 0.028 0.76 1.111 0.796 0.214 0.007 0.485-0.026 0.738-0.19l0.802-1.007c-0.088-0.001-0.173 0.014-0.252 0.043z"></path>
</svg>
