<?xml version="1.0" encoding="utf-8"?>
<!-- Generated by IcoMoon.io -->
<!DOCTYPE svg PUBLIC "-//W3C//DTD SVG 1.1//EN" "http://www.w3.org/Graphics/SVG/1.1/DTD/svg11.dtd">
<svg version="1.1" xmlns="http://www.w3.org/2000/svg" xmlns:xlink="http://www.w3.org/1999/xlink" width="20" height="20" viewBox="0 0 20 20">
<path fill="rgb(216, 219, 186)" d="M19.691 10c0-5.352-4.339-9.691-9.691-9.691s-9.691 4.338-9.691 9.691c0 5.352 4.339 9.69 9.691 9.69s9.691-4.339 9.691-9.69z"></path>
<path fill="rgb(58, 53, 54)" d="M10.012 17.645c-0.158 0-0.287-0.129-0.287-0.287v-5.836c0-0.159 0.129-0.287 0.287-0.287s0.287 0.129 0.287 0.287v5.836c-0 0.159-0.129 0.287-0.287 0.287z"></path>
<path fill="rgb(58, 53, 54)" d="M12.792 16.533c-0.13 0-0.248-0.089-0.279-0.221l-1.112-4.724c-0.036-0.154 0.059-0.309 0.214-0.345s0.309 0.059 0.345 0.214l1.112 4.724c0.036 0.154-0.059 0.309-0.214 0.345-0.022 0.005-0.044 0.008-0.066 0.008z"></path>
<path fill="rgb(58, 53, 54)" d="M7.232 16.533c-0.022 0-0.044-0.003-0.066-0.008-0.154-0.036-0.25-0.191-0.214-0.345l1.112-4.724c0.036-0.154 0.191-0.25 0.345-0.214s0.25 0.191 0.214 0.345l-1.112 4.724c-0.031 0.132-0.149 0.221-0.279 0.221z"></path>
<path fill="rgb(58, 53, 54)" d="M13.813 8.413h-7.606c-0.044 0-0.079 0.011-0.079 0.024l-0.388 1.278c0 0.013 0.039 0.024 0.087 0.024h8.366c0.048 0 0.087-0.011 0.087-0.024l-0.388-1.278c0-0.013-0.035-0.024-0.079-0.024z"></path>
<path fill="rgb(73, 69, 70)" d="M10.010 13.060c-3.77 0-4.27-3.345-4.27-3.345 0 0.013 0.039 0.024 0.087 0.024h8.366c0.048 0 0.087-0.011 0.087-0.024 0 0-0.5 3.345-4.27 3.345z"></path>
<path fill="rgb(58, 53, 54)" d="M14.461 9.22c0 0.95-1.997 1.72-4.461 1.72s-4.461-0.77-4.461-1.72c0-0.95 1.997-1.72 4.461-1.72s4.461 0.77 4.461 1.72z"></path>
<path fill="rgb(76, 74, 75)" d="M14.015 9.22c0 0.855-1.798 1.548-4.015 1.548s-4.015-0.693-4.015-1.548c0-0.855 1.798-1.548 4.015-1.548s4.015 0.693 4.015 1.548z"></path>
<path fill="rgb(58, 53, 54)" d="M10 10.768c1.761 0 3.258-0.437 3.799-1.045-0.541-0.608-2.037-1.045-3.799-1.045s-3.257 0.437-3.798 1.045c0.541 0.608 2.037 1.045 3.798 1.045z"></path>
<path fill="rgb(114, 114, 114)" d="M7.081 9.523c0 0.019-0.052 0.035-0.116 0.035v0c-0.064 0-0.116-0.016-0.116-0.035l0.287-0.925c0-0.019 0.047-0.035 0.105-0.035v0c0.058 0 0.105 0.016 0.105 0.035l-0.266 0.925z"></path>
<path fill="rgb(114, 114, 114)" d="M7.633 9.523c0 0.019-0.052 0.035-0.116 0.035v0c-0.064 0-0.116-0.016-0.116-0.035l0.237-0.925c0-0.019 0.047-0.035 0.105-0.035v0c0.058 0 0.105 0.016 0.105 0.035l-0.216 0.925z"></path>
<path fill="rgb(114, 114, 114)" d="M8.186 9.523c0 0.019-0.052 0.035-0.116 0.035v0c-0.064 0-0.116-0.016-0.116-0.035l0.187-0.925c0-0.019 0.047-0.035 0.105-0.035v0c0.058 0 0.105 0.016 0.105 0.035l-0.166 0.925z"></path>
<path fill="rgb(114, 114, 114)" d="M8.738 9.523c0 0.019-0.052 0.035-0.116 0.035v0c-0.064 0-0.116-0.016-0.116-0.035l0.136-0.925c0-0.019 0.047-0.035 0.105-0.035v0c0.058 0 0.105 0.016 0.105 0.035l-0.115 0.925z"></path>
<path fill="rgb(114, 114, 114)" d="M9.291 9.523c0 0.019-0.052 0.035-0.116 0.035v0c-0.064 0-0.116-0.016-0.116-0.035l0.086-0.925c0-0.019 0.047-0.035 0.105-0.035v0c0.058 0 0.105 0.016 0.105 0.035l-0.065 0.925z"></path>
<path fill="rgb(114, 114, 114)" d="M9.843 9.523c0 0.019-0.052 0.035-0.116 0.035v0c-0.064 0-0.116-0.016-0.116-0.035l0.036-0.925c0-0.019 0.047-0.035 0.105-0.035v0c0.058 0 0.105 0.016 0.105 0.035l-0.015 0.925z"></path>
<path fill="rgb(114, 114, 114)" d="M10.395 9.523c0 0.019-0.052 0.035-0.116 0.035v0c-0.064 0-0.116-0.016-0.116-0.035l-0.014-0.925c0-0.019 0.047-0.035 0.105-0.035v0c0.058 0 0.105 0.016 0.105 0.035l0.035 0.925z"></path>
<path fill="rgb(114, 114, 114)" d="M10.947 9.523c0 0.019-0.052 0.035-0.116 0.035v0c-0.064 0-0.116-0.016-0.116-0.035l-0.064-0.925c0-0.019 0.047-0.035 0.105-0.035v0c0.058 0 0.105 0.016 0.105 0.035l0.085 0.925z"></path>
<path fill="rgb(114, 114, 114)" d="M11.5 9.523c0 0.019-0.052 0.035-0.116 0.035v0c-0.064 0-0.116-0.016-0.116-0.035l-0.114-0.925c0-0.019 0.047-0.035 0.105-0.035v0c0.058 0 0.105 0.016 0.105 0.035l0.135 0.925z"></path>
<path fill="rgb(114, 114, 114)" d="M12.052 9.523c0 0.019-0.052 0.035-0.116 0.035v0c-0.064 0-0.116-0.016-0.116-0.035l-0.164-0.925c0-0.019 0.047-0.035 0.105-0.035v0c0.058 0 0.105 0.016 0.105 0.035l0.186 0.925z"></path>
<path fill="rgb(114, 114, 114)" d="M12.605 9.523c0 0.019-0.052 0.035-0.116 0.035v0c-0.064 0-0.116-0.016-0.116-0.035l-0.215-0.925c0-0.019 0.047-0.035 0.105-0.035v0c0.058 0 0.105 0.016 0.105 0.035l0.236 0.925z"></path>
<path fill="rgb(114, 114, 114)" d="M13.157 9.523c0 0.019-0.052 0.035-0.116 0.035v0c-0.064 0-0.116-0.016-0.116-0.035l-0.265-0.925c0-0.019 0.047-0.035 0.105-0.035v0c0.058 0 0.105 0.016 0.105 0.035l0.286 0.925z"></path>
<path fill="rgb(114, 114, 114)" d="M7.414 8.333c0 0.019-0.046 0.035-0.103 0.035v0c-0.057 0-0.103-0.016-0.103-0.035l0.256-0.925c0-0.019 0.042-0.035 0.094-0.035v0c0.052 0 0.094 0.016 0.094 0.035l-0.237 0.925z"></path>
<path fill="rgb(114, 114, 114)" d="M7.906 8.333c0 0.019-0.046 0.035-0.103 0.035v0c-0.057 0-0.103-0.016-0.103-0.035l0.211-0.925c0-0.019 0.042-0.035 0.094-0.035v0c0.052 0 0.094 0.016 0.094 0.035l-0.192 0.925z"></path>
<path fill="rgb(114, 114, 114)" d="M8.398 8.333c0 0.019-0.046 0.035-0.103 0.035v0c-0.057 0-0.103-0.016-0.103-0.035l0.166-0.925c0-0.019 0.042-0.035 0.094-0.035v0c0.052 0 0.094 0.016 0.094 0.035l-0.147 0.925z"></path>
<path fill="rgb(114, 114, 114)" d="M8.889 8.333c0 0.019-0.046 0.035-0.103 0.035v0c-0.057 0-0.103-0.016-0.103-0.035l0.122-0.925c0-0.019 0.042-0.035 0.094-0.035v0c0.052 0 0.094 0.016 0.094 0.035l-0.103 0.925z"></path>
<path fill="rgb(114, 114, 114)" d="M9.381 8.333c0 0.019-0.046 0.035-0.103 0.035v0c-0.057 0-0.103-0.016-0.103-0.035l0.077-0.925c0-0.019 0.042-0.035 0.094-0.035v0c0.052 0 0.094 0.016 0.094 0.035l-0.058 0.925z"></path>
<path fill="rgb(114, 114, 114)" d="M9.873 8.333c0 0.019-0.046 0.035-0.103 0.035v0c-0.057 0-0.103-0.016-0.103-0.035l0.032-0.925c0-0.019 0.042-0.035 0.094-0.035v0c0.052 0 0.094 0.016 0.094 0.035l-0.013 0.925z"></path>
<path fill="rgb(114, 114, 114)" d="M10.363 8.333c0 0.019-0.046 0.035-0.103 0.035v0c-0.057 0-0.103-0.016-0.103-0.035l-0.012-0.925c0-0.019 0.042-0.035 0.094-0.035v0c0.052 0 0.094 0.016 0.094 0.035l0.031 0.925z"></path>
<path fill="rgb(114, 114, 114)" d="M10.855 8.333c0 0.019-0.046 0.035-0.103 0.035v0c-0.057 0-0.103-0.016-0.103-0.035l-0.057-0.925c0-0.019 0.042-0.035 0.094-0.035v0c0.052 0 0.094 0.016 0.094 0.035l0.076 0.925z"></path>
<path fill="rgb(114, 114, 114)" d="M11.347 8.333c0 0.019-0.046 0.035-0.103 0.035v0c-0.057 0-0.103-0.016-0.103-0.035l-0.102-0.925c0-0.019 0.042-0.035 0.094-0.035v0c0.052 0 0.094 0.016 0.094 0.035l0.121 0.925z"></path>
<path fill="rgb(114, 114, 114)" d="M11.839 8.333c0 0.019-0.046 0.035-0.103 0.035v0c-0.057 0-0.103-0.016-0.103-0.035l-0.146-0.925c0-0.019 0.042-0.035 0.094-0.035v0c0.052 0 0.094 0.016 0.094 0.035l0.165 0.925z"></path>
<path fill="rgb(114, 114, 114)" d="M12.331 8.333c0 0.019-0.046 0.035-0.103 0.035v0c-0.057 0-0.103-0.016-0.103-0.035l-0.191-0.925c0-0.019 0.042-0.035 0.094-0.035v0c0.052 0 0.094 0.016 0.094 0.035l0.21 0.925z"></path>
<path fill="rgb(114, 114, 114)" d="M12.822 8.333c0 0.019-0.046 0.035-0.103 0.035v0c-0.057 0-0.103-0.016-0.103-0.035l-0.236-0.925c0-0.019 0.042-0.035 0.094-0.035v0c0.052 0 0.094 0.016 0.094 0.035l0.254 0.925z"></path>
<path fill="rgb(114, 114, 114)" d="M6.731 10.935c0 0.024-0.058 0.044-0.13 0.044v0c-0.072 0-0.13-0.020-0.13-0.044l0.321-1.164c0-0.024 0.053-0.044 0.118-0.044v0c0.065 0 0.118 0.020 0.118 0.044l-0.298 1.164z"></path>
<path fill="rgb(114, 114, 114)" d="M7.35 10.935c0 0.024-0.058 0.044-0.13 0.044v0c-0.072 0-0.13-0.020-0.13-0.044l0.265-1.164c0-0.024 0.053-0.044 0.118-0.044v0c0.065 0 0.118 0.020 0.118 0.044l-0.242 1.164z"></path>
<path fill="rgb(114, 114, 114)" d="M7.969 10.935c0 0.024-0.058 0.044-0.13 0.044v0c-0.072 0-0.13-0.020-0.13-0.044l0.209-1.164c0-0.024 0.053-0.044 0.118-0.044v0c0.065 0 0.118 0.020 0.118 0.044l-0.186 1.164z"></path>
<path fill="rgb(114, 114, 114)" d="M8.588 10.935c0 0.024-0.058 0.044-0.13 0.044v0c-0.072 0-0.13-0.020-0.13-0.044l0.153-1.164c0-0.024 0.053-0.044 0.118-0.044v0c0.065 0 0.118 0.020 0.118 0.044l-0.129 1.164z"></path>
<path fill="rgb(114, 114, 114)" d="M9.207 10.935c0 0.024-0.058 0.044-0.13 0.044v0c-0.072 0-0.13-0.020-0.13-0.044l0.097-1.164c0-0.024 0.053-0.044 0.118-0.044v0c0.065 0 0.118 0.020 0.118 0.044l-0.073 1.164z"></path>
<path fill="rgb(114, 114, 114)" d="M9.826 10.935c0 0.024-0.058 0.044-0.13 0.044v0c-0.072 0-0.13-0.020-0.13-0.044l0.040-1.164c0-0.024 0.053-0.044 0.118-0.044v0c0.065 0 0.118 0.020 0.118 0.044l-0.017 1.164z"></path>
<path fill="rgb(114, 114, 114)" d="M10.443 10.935c0 0.024-0.058 0.044-0.13 0.044v0c-0.072 0-0.13-0.020-0.13-0.044l-0.016-1.164c0-0.024 0.053-0.044 0.118-0.044v0c0.065 0 0.118 0.020 0.118 0.044l0.039 1.164z"></path>
<path fill="rgb(114, 114, 114)" d="M11.062 10.935c0 0.024-0.058 0.044-0.13 0.044v0c-0.072 0-0.13-0.020-0.13-0.044l-0.072-1.164c0-0.024 0.053-0.044 0.118-0.044v0c0.065 0 0.118 0.020 0.118 0.044l0.095 1.164z"></path>
<path fill="rgb(114, 114, 114)" d="M11.681 10.935c0 0.024-0.058 0.044-0.13 0.044v0c-0.072 0-0.13-0.020-0.13-0.044l-0.128-1.164c0-0.024 0.053-0.044 0.118-0.044v0c0.065 0 0.118 0.020 0.118 0.044l0.152 1.164z"></path>
<path fill="rgb(114, 114, 114)" d="M12.299 10.935c0 0.024-0.058 0.044-0.13 0.044v0c-0.072 0-0.13-0.020-0.13-0.044l-0.184-1.164c0-0.024 0.053-0.044 0.118-0.044v0c0.065 0 0.118 0.020 0.118 0.044l0.208 1.164z"></path>
<path fill="rgb(114, 114, 114)" d="M12.918 10.935c0 0.024-0.058 0.044-0.13 0.044v0c-0.072 0-0.13-0.020-0.13-0.044l-0.24-1.164c0-0.024 0.053-0.044 0.118-0.044v0c0.065 0 0.118 0.020 0.118 0.044l0.264 1.164z"></path>
<path fill="rgb(114, 114, 114)" d="M13.537 10.935c0 0.024-0.058 0.044-0.13 0.044v0c-0.072 0-0.13-0.020-0.13-0.044l-0.297-1.164c0-0.024 0.053-0.044 0.118-0.044v0c0.065 0 0.118 0.020 0.118 0.044l0.32 1.164z"></path>
<path fill="rgb(172, 71, 54)" d="M11.425 8.805c-0.015 0.392-0.793 0.695-1.501 0.695-0.753 0-1.47-0.437-1.352-0.859 0.008-0.029-0.066-0.396 0.008-0.426 0.221-0.093 0.725 0.281 1.329 0.281 0.65 0 1.209-0.526 1.478-0.345 0.064 0.043 0.041 0.601 0.039 0.654z"></path>
<path fill="rgb(234, 174, 122)" d="M11.386 8.151c0.236 0.447-0.653 0.916-1.458 0.916s-1.575-0.567-1.32-1.005c0.315-0.542 0.495-0.059 1.3-0.059s1.202-0.374 1.478 0.148z"></path>
<path fill="rgb(149, 46, 37)" d="M11.329 8.163c0.227 0.429-0.626 0.878-1.398 0.878s-1.509-0.544-1.266-0.963c0.302-0.519 0.475-0.057 1.247-0.057s1.152-0.359 1.417 0.142z"></path>
<path fill="rgb(112, 35, 19)" d="M10.572 8.256c0 0.053-0.076 0.095-0.171 0.095s-0.171-0.043-0.171-0.095c0-0.053 0.106-0.071 0.201-0.071s0.141 0.018 0.141 0.071z"></path>
<path fill="rgb(112, 35, 19)" d="M9.419 7.948c0 0 0.177 0.089 0.089 0.253 0 0 0.148-0.089 0.197-0.197l-0.286-0.056z"></path>
<path fill="rgb(112, 35, 19)" d="M10.675 8.949c0-0.002 0.001-0.004 0.001-0.006-0.005 0.002-0.009 0.003-0.014 0.004l0.013 0.001z"></path>
<path fill="rgb(112, 35, 19)" d="M10.964 7.874c-0.093 0.236-0.323 0.836-0.346 1.070l0.044 0.004c0.005-0.002 0.009-0.003 0.014-0.004 0.026-0.234 0.263-0.85 0.349-1.067-0.020-0.002-0.040-0.003-0.061-0.003z"></path>
<path fill="rgb(112, 35, 19)" d="M11.286 8.006c-0.076 0.196-0.206 0.539-0.277 0.792 0.025-0.014 0.049-0.028 0.072-0.043 0.068-0.229 0.175-0.515 0.246-0.698-0.014-0.019-0.028-0.036-0.042-0.051z"></path>
<path fill="rgb(112, 35, 19)" d="M9.469 7.952c-0.087 0.222-0.262 0.682-0.318 0.943 0.018 0.008 0.036 0.016 0.054 0.024 0.053-0.254 0.235-0.733 0.321-0.954-0.019-0.004-0.038-0.008-0.057-0.013z"></path>
<path fill="rgb(112, 35, 19)" d="M9.125 7.845c-0.066 0.165-0.218 0.559-0.3 0.847 0.016 0.013 0.032 0.026 0.049 0.038 0.080-0.286 0.24-0.701 0.306-0.867-0.019-0.006-0.037-0.012-0.055-0.018z"></path>
<path fill="rgb(112, 35, 19)" d="M8.862 7.814c-0.058 0.147-0.159 0.412-0.237 0.65 0.012 0.021 0.025 0.042 0.041 0.062 0.083-0.263 0.204-0.575 0.261-0.721-0.022 0-0.044 0.003-0.065 0.009z"></path>
<path fill="rgb(112, 35, 19)" d="M10.184 7.989c-0.094 0.234-0.311 0.79-0.374 1.074 0.019 0.001 0.039 0.002 0.058 0.003 0.066-0.291 0.297-0.875 0.381-1.084-0.021 0.003-0.043 0.005-0.065 0.007z"></path>
<path fill="rgb(112, 35, 19)" d="M9.797 8c-0.074 0.183-0.27 0.679-0.36 0.999 0.018 0.005 0.037 0.010 0.055 0.015 0.092-0.325 0.3-0.848 0.366-1.011-0.021-0.001-0.041-0.001-0.061-0.003z"></path>
<path fill="rgb(112, 35, 19)" d="M10.586 7.926c-0.097 0.253-0.328 0.867-0.367 1.122 0.020-0.003 0.040-0.006 0.060-0.009 0.047-0.267 0.288-0.906 0.374-1.126-0.022 0.004-0.044 0.008-0.067 0.013z"></path>
<path fill="rgb(58, 53, 54)" d="M10.434 17.358c0 0.233-0.189 0.422-0.422 0.422s-0.422-0.189-0.422-0.422c0-0.233 0.189-0.422 0.422-0.422s0.422 0.189 0.422 0.422z"></path>
<path fill="rgb(58, 53, 54)" d="M7.653 16.245c0 0.233-0.189 0.422-0.422 0.422s-0.422-0.189-0.422-0.422c0-0.233 0.189-0.422 0.422-0.422s0.422 0.189 0.422 0.422z"></path>
<path fill="rgb(58, 53, 54)" d="M13.214 16.245c0 0.233-0.189 0.422-0.422 0.422s-0.422-0.189-0.422-0.422c0-0.233 0.189-0.422 0.422-0.422s0.422 0.189 0.422 0.422z"></path>
<path fill="rgb(137, 137, 137)" d="M11.346 3.523c-0.065 0.138-0.118 0.276-0.158 0.415s-0.066 0.277-0.069 0.411c-0.007 0.266 0.079 0.531 0.201 0.778 0.015 0.031 0.031 0.061 0.048 0.090l0.013 0.021 0.006 0.010 0.003 0.005 0.001 0.002c0.012 0.022 0.006 0.009-0.004-0.006l0.007 0.011 0.001 0.002 0.002 0.004 0.004 0.007 0.008 0.014 0.015 0.027c0.039 0.073 0.072 0.146 0.1 0.223 0.055 0.152 0.091 0.316 0.087 0.485-0.001 0.042-0.005 0.085-0.011 0.125-0.007 0.044-0.015 0.083-0.027 0.123-0.023 0.079-0.055 0.154-0.093 0.224s-0.082 0.135-0.131 0.195c-0.049 0.060-0.102 0.117-0.162 0.165 0.063-0.139 0.114-0.278 0.146-0.417 0.017-0.069 0.028-0.138 0.033-0.206 0.002-0.033 0.003-0.068 0.002-0.099-0.001-0.034-0.005-0.065-0.009-0.098-0.019-0.13-0.061-0.259-0.117-0.383-0.028-0.062-0.059-0.123-0.094-0.181l-0.013-0.021-0.006-0.010-0.003-0.005-0.001-0.002-0.001-0.001 0.005 0.008-0.023-0.036-0.016-0.027c-0.021-0.035-0.040-0.071-0.059-0.107-0.071-0.144-0.127-0.297-0.158-0.457-0.015-0.080-0.026-0.162-0.027-0.245-0.001-0.042-0-0.082 0.004-0.125l0.003-0.030 0.004-0.032c0.003-0.021 0.006-0.041 0.010-0.061 0.031-0.162 0.094-0.312 0.175-0.446 0.041-0.067 0.086-0.131 0.137-0.189s0.104-0.115 0.164-0.162z"></path>
<path fill="rgb(137, 137, 137)" d="M8.864 3.406c-0.065 0.138-0.118 0.276-0.158 0.415s-0.066 0.277-0.069 0.411c-0.007 0.266 0.079 0.531 0.201 0.778 0.015 0.031 0.031 0.061 0.048 0.090l0.012 0.021 0.006 0.010 0.003 0.005 0.001 0.002c0.012 0.022 0.006 0.009-0.004-0.006l0.007 0.011 0.001 0.002 0.002 0.004 0.004 0.007 0.008 0.014 0.015 0.027c0.039 0.073 0.072 0.146 0.1 0.223 0.055 0.152 0.091 0.316 0.087 0.485-0.001 0.042-0.005 0.085-0.011 0.125-0.007 0.044-0.015 0.083-0.027 0.123-0.023 0.079-0.055 0.154-0.093 0.224s-0.082 0.135-0.131 0.195c-0.049 0.060-0.102 0.117-0.162 0.165 0.063-0.139 0.114-0.278 0.146-0.417 0.017-0.069 0.028-0.138 0.033-0.206 0.002-0.033 0.003-0.068 0.002-0.099-0.001-0.034-0.005-0.065-0.009-0.098-0.019-0.13-0.061-0.259-0.117-0.383-0.028-0.062-0.059-0.123-0.094-0.181l-0.013-0.021-0.009-0.015-0.001-0.002-0.001-0.001 0.005 0.008-0.023-0.036-0.016-0.027c-0.021-0.035-0.040-0.071-0.059-0.107-0.071-0.144-0.127-0.297-0.158-0.457-0.015-0.080-0.026-0.162-0.026-0.245-0.001-0.042-0-0.082 0.004-0.125l0.003-0.030 0.004-0.032c0.003-0.021 0.006-0.041 0.010-0.061 0.031-0.162 0.094-0.312 0.175-0.446 0.041-0.067 0.086-0.131 0.137-0.189s0.104-0.115 0.164-0.162z"></path>
<path fill="rgb(137, 137, 137)" d="M10.144 5.547c-0.062-0.046-0.116-0.1-0.168-0.158s-0.098-0.12-0.141-0.186c-0.085-0.132-0.151-0.281-0.186-0.442-0.004-0.020-0.008-0.041-0.011-0.061l-0.005-0.032-0.004-0.029c-0.005-0.043-0.006-0.083-0.007-0.125-0.001-0.083 0.007-0.165 0.021-0.246 0.027-0.161 0.079-0.315 0.147-0.461 0.017-0.036 0.036-0.072 0.056-0.108l0.015-0.027 0.022-0.037-0.005 0.008 0.001-0.001 0.001-0.002 0.003-0.005 0.006-0.010 0.012-0.021c0.033-0.058 0.063-0.12 0.089-0.183 0.053-0.125 0.093-0.255 0.108-0.385 0.003-0.033 0.006-0.064 0.006-0.098 0-0.031-0.002-0.065-0.004-0.099-0.007-0.067-0.019-0.136-0.038-0.205-0.036-0.138-0.090-0.276-0.156-0.413 0.061 0.047 0.115 0.102 0.166 0.161s0.096 0.123 0.136 0.192c0.039 0.069 0.073 0.143 0.098 0.221 0.013 0.040 0.022 0.079 0.030 0.122 0.007 0.040 0.012 0.083 0.014 0.125 0.008 0.169-0.024 0.333-0.076 0.487-0.026 0.077-0.058 0.151-0.095 0.225l-0.015 0.028-0.008 0.014-0.004 0.007-0.002 0.004-0.001 0.002-0.007 0.011c0.010-0.015 0.016-0.028 0.004-0.006l-0.001 0.002-0.003 0.005-0.006 0.010-0.012 0.022c-0.016 0.030-0.031 0.060-0.046 0.091-0.116 0.249-0.196 0.517-0.183 0.782 0.006 0.134 0.036 0.272 0.079 0.41s0.1 0.274 0.168 0.411z"></path>
</svg>
