<?xml version="1.0" encoding="utf-8"?>
<!-- Generated by IcoMoon.io -->
<!DOCTYPE svg PUBLIC "-//W3C//DTD SVG 1.1//EN" "http://www.w3.org/Graphics/SVG/1.1/DTD/svg11.dtd">
<svg version="1.1" xmlns="http://www.w3.org/2000/svg" xmlns:xlink="http://www.w3.org/1999/xlink" width="20" height="20" viewBox="0 0 20 20">
<path fill="rgb(235, 151, 131)" d="M19.691 10c0-5.352-4.339-9.691-9.69-9.691s-9.691 4.338-9.691 9.691c0 5.352 4.339 9.69 9.691 9.69s9.69-4.339 9.69-9.69z"></path>
<path fill="rgb(178, 22, 45)" d="M15.858 15.213l-0.249-5.494c-0.004-1.235-1.012-2.24-2.247-2.24h-6.724c-1.236 0-2.243 1.004-2.247 2.24l-0.25 5.516c-0.004 0.089 0.029 0.176 0.090 0.24s0.147 0.101 0.236 0.101h11.068c0.18 0 0.326-0.146 0.326-0.326 0-0.012-0.001-0.025-0.002-0.037z"></path>
<path fill="rgb(58, 58, 58)" d="M6.38 7.647h7.24v0.469h-7.24v-0.469z"></path>
<path fill="rgb(142, 69, 20)" d="M12.827 4.484c-0.139-0.395-0.424-0.711-0.801-0.892l-0.102-0.049c-0.213-0.102-0.44-0.154-0.675-0.154-0.486 0-0.954 0.235-1.249 0.62-0.294-0.385-0.762-0.62-1.249-0.62-0.235 0-0.462 0.052-0.675 0.154l-0.102 0.049c-0.377 0.181-0.662 0.498-0.801 0.892s-0.116 0.82 0.064 1.197c0.125 0.26 0.316 0.479 0.556 0.635v1.802h4.412v-1.802c0.24-0.156 0.432-0.375 0.556-0.635 0.181-0.377 0.204-0.803 0.064-1.197z"></path>
<path fill="rgb(183, 93, 32)" d="M11.933 3.785l-0.102-0.049c-0.674-0.322-1.482-0.038-1.804 0.636-0.010 0.020-0.019 0.041-0.028 0.062-0.009-0.021-0.018-0.041-0.028-0.062-0.322-0.674-1.13-0.959-1.804-0.636l-0.102 0.049c-0.674 0.322-0.959 1.13-0.636 1.804 0.128 0.268 0.334 0.475 0.577 0.606v1.924h3.984v-1.924c0.243-0.131 0.449-0.338 0.577-0.606 0.323-0.674 0.038-1.482-0.636-1.804z"></path>
<path fill="rgb(142, 69, 20)" d="M9.196 5.866c-0.039 0-0.076-0.025-0.088-0.064-0.016-0.049 0.010-0.101 0.059-0.118l1.694-0.559c0.049-0.016 0.101 0.010 0.118 0.059s-0.010 0.101-0.059 0.118l-1.694 0.559c-0.010 0.003-0.019 0.005-0.029 0.005z"></path>
<path fill="rgb(142, 69, 20)" d="M9.196 6.368c-0.039 0-0.076-0.025-0.088-0.064-0.016-0.049 0.010-0.101 0.059-0.118l1.694-0.559c0.049-0.016 0.101 0.010 0.118 0.059s-0.010 0.101-0.059 0.118l-1.694 0.559c-0.010 0.003-0.019 0.005-0.029 0.005z"></path>
<path fill="rgb(234, 71, 95)" d="M12.714 12.172c0 0.701-1.215 1.27-2.715 1.27s-2.715-0.568-2.715-1.27c0-0.701 1.215-1.27 2.715-1.27s2.715 0.568 2.715 1.27z"></path>
<path fill="rgb(178, 22, 45)" d="M10.605 12.172c0 0.334-0.271 0.605-0.605 0.605s-0.605-0.271-0.605-0.605c0-0.334 0.271-0.605 0.605-0.605s0.605 0.271 0.605 0.605z"></path>
<path fill="rgb(178, 22, 45)" d="M8.656 11.684c0 0.124-0.101 0.225-0.225 0.225s-0.225-0.101-0.225-0.225c0-0.124 0.101-0.225 0.225-0.225s0.225 0.101 0.225 0.225z"></path>
<path fill="rgb(178, 22, 45)" d="M8.656 12.621c0 0.124-0.101 0.225-0.225 0.225s-0.225-0.101-0.225-0.225c0-0.124 0.101-0.225 0.225-0.225s0.225 0.101 0.225 0.225z"></path>
<path fill="rgb(178, 22, 45)" d="M11.792 11.684c0 0.124-0.101 0.225-0.225 0.225s-0.225-0.101-0.225-0.225c0-0.124 0.101-0.225 0.225-0.225s0.225 0.101 0.225 0.225z"></path>
<path fill="rgb(178, 22, 45)" d="M11.792 12.621c0 0.124-0.101 0.225-0.225 0.225s-0.225-0.101-0.225-0.225c0-0.124 0.101-0.225 0.225-0.225s0.225 0.101 0.225 0.225z"></path>
<path fill="rgb(221, 36, 54)" d="M9.82 11.992c0.267-0.267 0.565-0.401 0.666-0.3s-0.033 0.4-0.3 0.666c-0.267 0.267-0.565 0.401-0.666 0.3s0.033-0.4 0.3-0.666z"></path>
<path fill="rgb(58, 58, 58)" d="M9.888 12.061c0.267-0.267 0.533-0.433 0.595-0.372s-0.105 0.328-0.372 0.595c-0.267 0.267-0.533 0.433-0.595 0.372s0.105-0.328 0.372-0.595z"></path>
<path fill="rgb(234, 71, 95)" d="M14.282 13.854h-0.32c-0.313 0-0.568-0.255-0.568-0.568v-2.458c0-0.313 0.255-0.568 0.568-0.568h0.32c0.313 0 0.568 0.255 0.568 0.568v2.458c-0 0.313-0.255 0.568-0.568 0.568zM13.962 10.435c-0.216 0-0.392 0.176-0.392 0.392v2.458c0 0.216 0.176 0.392 0.392 0.392h0.32c0.216 0 0.392-0.176 0.392-0.392v-2.458c0-0.216-0.176-0.392-0.392-0.392h-0.32z"></path>
<path fill="rgb(58, 58, 58)" d="M14.19 13.495c0 0.032-0.026 0.059-0.059 0.059v0c-0.032 0-0.059-0.026-0.059-0.059v-2.402c0-0.032 0.026-0.059 0.059-0.059v0c0.032 0 0.059 0.026 0.059 0.059v2.402z"></path>
<path fill="rgb(58, 58, 58)" d="M14.591 10.889c0 0.194-0.157 0.352-0.352 0.352h-0.234c-0.194 0-0.352-0.157-0.352-0.352v0c0-0.194 0.157-0.352 0.352-0.352h0.234c0.194 0 0.352 0.157 0.352 0.352v0z"></path>
<path fill="rgb(211, 211, 211)" d="M13.705 10.889v0c0-0.173 0.14-0.313 0.313-0.313l-0.313 0.313z"></path>
</svg>
