<?xml version="1.0" encoding="utf-8"?>
<!-- Generated by IcoMoon.io -->
<!DOCTYPE svg PUBLIC "-//W3C//DTD SVG 1.1//EN" "http://www.w3.org/Graphics/SVG/1.1/DTD/svg11.dtd">
<svg version="1.1" xmlns="http://www.w3.org/2000/svg" xmlns:xlink="http://www.w3.org/1999/xlink" width="20" height="20" viewBox="0 0 20 20">
<path fill="rgb(250, 188, 61)" d="M19.691 10c0-5.352-4.339-9.691-9.69-9.691s-9.691 4.338-9.691 9.691c0 5.352 4.339 9.69 9.691 9.69s9.69-4.339 9.69-9.69z"></path>
<path fill="rgb(53, 53, 53)" d="M13.887 14.539c0 0.149-0.121 0.27-0.27 0.27v0c-0.149 0-0.27-0.121-0.27-0.27v-0.691c0-0.149 0.121-0.27 0.27-0.27v0c0.149 0 0.27 0.121 0.27 0.27v0.691z"></path>
<path fill="rgb(178, 22, 45)" d="M10.919 7.994c-3.121 0-2.717 6.473-2.717 6.473 0 0.602 0.49 1.091 1.091 1.091h3.251c0.602 0 1.091-0.49 1.091-1.091 0 0 0.405-6.473-2.717-6.473z"></path>
<path fill="rgb(145, 19, 43)" d="M8.202 14.467c0 0.602 0.49 1.091 1.091 1.091h3.251c0.602 0 1.091-0.49 1.091-1.091 0 0 0.025-0.394 0.015-0.987h-5.463c-0.010 0.593 0.015 0.987 0.015 0.987z"></path>
<path fill="rgb(235, 151, 131)" d="M10.919 8.308c-0.494 0-0.876 0.205-1.172 0.533h2.345c-0.296-0.328-0.678-0.533-1.172-0.533z"></path>
<path fill="rgb(145, 19, 43)" d="M9.747 9.004h2.345v-0.164h0c-0.009-0.010-0.018-0.019-0.027-0.029h-2.291c-0.009 0.010-0.018 0.019-0.027 0.029v0.164z"></path>
<path fill="rgb(145, 16, 41)" d="M11.554 10.618c0 0.363-0.294 0.658-0.658 0.658s-0.658-0.294-0.658-0.658c0-0.363 0.294-0.658 0.658-0.658s0.658 0.294 0.658 0.658z"></path>
<path fill="rgb(145, 16, 41)" d="M11.554 13.646c0 0.363-0.294 0.658-0.658 0.658s-0.658-0.294-0.658-0.658c0-0.363 0.294-0.658 0.658-0.658s0.658 0.294 0.658 0.658z"></path>
<path fill="rgb(66, 66, 66)" d="M11.359 13.646c0 0.255-0.207 0.462-0.462 0.462s-0.462-0.207-0.462-0.462c0-0.255 0.207-0.462 0.462-0.462s0.462 0.207 0.462 0.462z"></path>
<path fill="rgb(96, 95, 95)" d="M10.622 13.877c-0.14-0.14-0.14-0.367 0-0.506s0.367-0.14 0.506 0c0.14 0.14-0.367 0.646-0.506 0.506z"></path>
<path fill="rgb(66, 66, 66)" d="M11.417 10.618c0 0.288-0.233 0.521-0.521 0.521s-0.521-0.233-0.521-0.521c0-0.288 0.233-0.521 0.521-0.521s0.521 0.233 0.521 0.521z"></path>
<path fill="rgb(66, 66, 66)" d="M9.944 2.835h-0.656l0.148 0.794h0.359c0.397 0 0.719 0.322 0.719 0.719v6.163h0.742v-6.363c0-0.725-0.588-1.313-1.312-1.313z"></path>
<path fill="rgb(229, 229, 229)" d="M7.975 5.309h0.742v8.783h-0.742v-8.783z"></path>
<path fill="rgb(193, 193, 193)" d="M7.963 5.309h0.369v8.776h-0.369v-8.776z"></path>
<path fill="rgb(66, 66, 66)" d="M9.642 2.835h-0.354c-0.725 0-1.313 0.588-1.313 1.313v1.227h0.742v-1.026c0-0.397 0.322-0.719 0.719-0.719h0.206v-0.794z"></path>
<path fill="rgb(43, 43, 43)" d="M8.148 4.792c0-0.070 0.089-0.127 0.198-0.127v0c0.109 0 0.198 0.057 0.198 0.127v0.425c0 0.070-0.396 0.070-0.396 0v-0.425z"></path>
<path fill="rgb(66, 66, 66)" d="M8.115 5.094c0-0.082 0.103-0.148 0.23-0.148v0c0.127 0 0.23 0.066 0.23 0.148v0.122c0 0.082-0.461 0.082-0.461 0v-0.122z"></path>
<path fill="rgb(66, 66, 66)" d="M8.714 16.188c0 0.163-0.132 0.296-0.296 0.296h-0.148c-0.163 0-0.296-0.132-0.296-0.296v-2.096h0.739v2.096z"></path>
<path fill="rgb(53, 53, 53)" d="M10.566 16.696c0 0.259-0.232 0.469-0.517 0.469h-3.419c-0.286 0-0.517-0.21-0.517-0.469 0 0 0.418-0.885 0.677-0.885h3.099c0.259 0 0.677 0.885 0.677 0.885z"></path>
<path fill="rgb(66, 66, 66)" d="M10.566 16.696c0 0.259-4.453 0.259-4.453 0 0 0 0.418-0.885 0.677-0.885h3.099c0.259 0 0.677 0.885 0.677 0.885z"></path>
<path fill="rgb(155, 155, 155)" d="M10.671 8.682h0.456v0.039h-0.456v-0.039z"></path>
<path fill="rgb(155, 155, 155)" d="M10.671 9.287h0.456v0.039h-0.456v-0.039z"></path>
<path fill="rgb(155, 155, 155)" d="M10.671 9.893h0.456v0.039h-0.456v-0.039z"></path>
<path fill="rgb(155, 155, 155)" d="M10.671 10.498h0.456v0.039h-0.456v-0.039z"></path>
<path fill="rgb(155, 155, 155)" d="M10.671 8.076h0.456v0.039h-0.456v-0.039z"></path>
<path fill="rgb(155, 155, 155)" d="M10.671 7.471h0.456v0.039h-0.456v-0.039z"></path>
<path fill="rgb(155, 155, 155)" d="M10.671 6.26h0.456v0.039h-0.456v-0.039z"></path>
<path fill="rgb(155, 155, 155)" d="M10.671 6.865h0.456v0.039h-0.456v-0.039z"></path>
<path fill="rgb(155, 155, 155)" d="M10.671 5.654h0.456v0.039h-0.456v-0.039z"></path>
<path fill="rgb(155, 155, 155)" d="M10.671 5.049h0.456v0.039h-0.456v-0.039z"></path>
<path fill="rgb(155, 155, 155)" d="M10.671 4.443h0.456v0.039h-0.456v-0.039z"></path>
<path fill="rgb(155, 155, 155)" d="M11.018 3.768l0.012 0.037-0.433 0.141-0.012-0.037 0.433-0.141z"></path>
<path fill="rgb(155, 155, 155)" d="M10.644 3.277l0.028 0.028-0.341 0.337-0.028-0.028 0.341-0.337z"></path>
<path fill="rgb(155, 155, 155)" d="M9.935 3.024h0.039v0.456h-0.039v-0.456z"></path>
</svg>
