<?xml version="1.0" encoding="utf-8"?>
<!-- Generated by IcoMoon.io -->
<!DOCTYPE svg PUBLIC "-//W3C//DTD SVG 1.1//EN" "http://www.w3.org/Graphics/SVG/1.1/DTD/svg11.dtd">
<svg version="1.1" xmlns="http://www.w3.org/2000/svg" xmlns:xlink="http://www.w3.org/1999/xlink" width="20" height="20" viewBox="0 0 20 20">
<path fill="rgb(74, 188, 150)" d="M19.691 10c0-5.352-4.339-9.691-9.69-9.691s-9.691 4.338-9.691 9.691c0 5.352 4.339 9.69 9.691 9.69s9.69-4.339 9.69-9.69z"></path>
<path fill="rgb(104, 221, 176)" d="M9.204 15.35c-0.045 0.128-0.132 0.207-0.267 0.24-0.187 0.047-0.351 0.032-0.462-0.041-0.095-0.062-0.155-0.168-0.179-0.316-0.032-0.191 0.081-0.299 0.197-0.338 0.114-0.038 0.272-0.017 0.366 0.113 0.024 0.033 0.070 0.043 0.102 0.023s0.039-0.064 0.015-0.098c-0.122-0.169-0.339-0.239-0.54-0.172-0.21 0.069-0.322 0.259-0.284 0.484 0.031 0.19 0.115 0.331 0.248 0.419 0.15 0.099 0.352 0.121 0.584 0.063 0.179-0.045 0.3-0.153 0.359-0.323 0.11-0.313-0.007-0.819-0.228-1.38-0.338-0.857-0.921-1.842-1.316-2.468-0.044 0.019-0.088 0.038-0.13 0.058 0.639 1.016 1.793 3.003 1.536 3.736z"></path>
<path fill="rgb(104, 221, 176)" d="M11.178 15.164c0.051 0.117 0.144 0.186 0.276 0.206 0.191 0.029 0.353-0.003 0.47-0.093 0.052-0.040 0.093-0.090 0.122-0.149s0.047-0.126 0.053-0.201c0.015-0.182-0.089-0.326-0.266-0.366-0.17-0.038-0.344 0.033-0.433 0.178-0.022 0.035-0.011 0.077 0.024 0.094s0.080 0.003 0.101-0.031c0.061-0.099 0.176-0.124 0.262-0.104 0.088 0.020 0.178 0.091 0.166 0.23-0.009 0.11-0.048 0.192-0.115 0.243-0.079 0.061-0.202 0.082-0.348 0.060-0.084-0.013-0.142-0.056-0.175-0.132-0.228-0.518 0.673-2.294 1.33-3.442-0.042-0.020-0.084-0.040-0.127-0.059-0.596 1.039-1.607 2.956-1.339 3.566z"></path>
<path fill="rgb(104, 221, 176)" d="M9.854 17.109c-0.086 0.084-0.188 0.123-0.312 0.117-0.228-0.010-0.403-0.082-0.493-0.201-0.077-0.102-0.096-0.242-0.055-0.416 0.053-0.226 0.23-0.312 0.378-0.316 0.146-0.004 0.314 0.072 0.359 0.253 0.010 0.038 0.049 0.061 0.087 0.050s0.062-0.050 0.052-0.088c-0.055-0.221-0.256-0.365-0.499-0.358-0.255 0.007-0.458 0.176-0.518 0.43-0.051 0.216-0.024 0.396 0.079 0.533 0.117 0.155 0.324 0.244 0.599 0.256 0.165 0.008 0.307-0.046 0.422-0.159 0.29-0.285 0.38-0.937 0.394-1.733 0.006-0.36-0.003-0.749-0.015-1.148-0.033-1.016-0.073-2.086-0.1-2.774-0.048 0.001-0.096 0.002-0.144 0.004 0.027 0.687 0.068 1.759 0.1 2.778 0.038 1.199 0.044 2.4-0.334 2.772z"></path>
<path fill="rgb(239, 239, 239)" d="M16.669 11.709h-13.619c-0.143 0-0.323-0.763-0.323-2.543s0.18-2.543 0.323-2.543h13.619c0.143 0 0.323 0.743 0.323 2.543s-0.18 2.543-0.323 2.543z"></path>
<path fill="rgb(194, 196, 196)" d="M3.395 10.589h12.929v1.121h-12.929v-1.121z"></path>
<path fill="rgb(239, 239, 239)" d="M3.583 10.783l-0.144 0.927h12.843l-0.144-0.927z"></path>
<path fill="rgb(242, 242, 242)" d="M16.669 6.624h-13.619c-0.135 0-0.304 0.683-0.322 2.263h14.262c-0.018-1.596-0.186-2.263-0.322-2.263z"></path>
<path fill="rgb(66, 66, 66)" d="M16.991 8.887h-14.262c-0.001 0.091-0.002 0.184-0.002 0.28 0 0.278 0.004 0.532 0.012 0.761h14.241c0.008-0.229 0.012-0.483 0.012-0.761 0-0.097-0.001-0.19-0.002-0.28z"></path>
<path fill="rgb(199, 227, 231)" d="M7.94 9.251c-0.037-0.058-0.053-0.117-0.053-0.117v0c0 0-0.016 0.059-0.053 0.117-0.045 0.092-0.118 0.14-0.118 0.255 0 0.099 0.072 0.179 0.172 0.179v0c0.099 0 0.172-0.080 0.172-0.179-0-0.115-0.073-0.164-0.118-0.255z"></path>
<path fill="rgb(199, 227, 231)" d="M9.062 9.1v0.059l0.088-0.049v0.047l-0.088 0.053v0.053l0.088-0.051v0.104l0.047-0.027v-0.104l0.043-0.024v0.104l0.059-0.035 0.021 0.037-0.061 0.035 0.090 0.051-0.039 0.024-0.094-0.053-0.047 0.029 0.092 0.051-0.092 0.053 0.047 0.027 0.096-0.049 0.037 0.022-0.090 0.053 0.061 0.033-0.020 0.035-0.061-0.035v0.102l-0.043-0.022v-0.102l-0.047-0.029v0.102l-0.088-0.049v0.055l0.088 0.051v0.045l-0.088-0.053v0.069h-0.045v-0.069l-0.090 0.053v-0.045l0.090-0.051v-0.055l-0.092 0.049v-0.102l-0.047 0.029v0.102l-0.039 0.022v-0.102l-0.063 0.035-0.020-0.035 0.061-0.033-0.088-0.053 0.035-0.022 0.096 0.049 0.047-0.027-0.092-0.053 0.092-0.051-0.047-0.029-0.096 0.053-0.039-0.024 0.090-0.051-0.057-0.035 0.020-0.037 0.061 0.035v-0.104l0.039 0.024v0.104l0.047 0.027v-0.104l0.092 0.051v-0.053l-0.090-0.053v-0.047l0.090 0.049v-0.059h0.045zM8.901 9.403l0.049 0.027 0.049-0.027-0.049-0.025-0.049 0.025zM8.966 9.291v0.053l0.051 0.027v-0.059l-0.051-0.022zM8.966 9.517l0.051-0.022v-0.059l-0.051 0.025v0.055zM9.062 9.313v0.059l0.049-0.031v-0.049l-0.049 0.022zM9.062 9.495l0.049 0.022v-0.049l-0.049-0.031v0.059zM9.085 9.403l0.047 0.027 0.049-0.027-0.049-0.025-0.047 0.025z"></path>
<path fill="rgb(199, 227, 231)" d="M10.433 9.406c0 0.036-0.029 0.065-0.065 0.065s-0.065-0.029-0.065-0.065c0-0.036 0.029-0.065 0.065-0.065s0.065 0.029 0.065 0.065z"></path>
<path fill="rgb(199, 227, 231)" d="M10.303 9.342c-0.125-0.075-0.19-0.001-0.19-0.001-0.055 0.056-0.045 0.119-0.027 0.141 0.066 0.082 0.152-0.016 0.152-0.016 0.016-0.012 0.036-0.018 0.047-0.020-0.017-0.034-0.011-0.077 0.017-0.105z"></path>
<path fill="rgb(199, 227, 231)" d="M10.439 9.698c0.085-0.062-0.008-0.153-0.008-0.153-0.016-0.023-0.018-0.053-0.019-0.057-0.007 0.004-0.015 0.006-0.023 0.008-0.030 0.006-0.059-0.003-0.079-0.022-0.081 0.122-0.010 0.19-0.010 0.19 0.053 0.058 0.117 0.050 0.14 0.034z"></path>
<path fill="rgb(199, 227, 231)" d="M10.435 9.47c0.125 0.075 0.19 0.001 0.19 0.001 0.055-0.056 0.045-0.119 0.027-0.141-0.066-0.082-0.152 0.016-0.152 0.016-0.016 0.012-0.036 0.018-0.047 0.020 0.017 0.034 0.011 0.077-0.017 0.105z"></path>
<path fill="rgb(199, 227, 231)" d="M10.299 9.115c-0.085 0.062 0.008 0.153 0.008 0.153 0.016 0.023 0.018 0.053 0.019 0.057 0.007-0.004 0.015-0.006 0.023-0.008 0.030-0.006 0.059 0.003 0.079 0.022 0.081-0.122 0.010-0.19 0.010-0.19-0.053-0.058-0.117-0.050-0.14-0.034z"></path>
<path fill="rgb(199, 227, 231)" d="M11.945 9.304c-0.005 0.001-0.010-0-0.015-0.004-0.001-0.001-0.096-0.065-0.292-0.016-0.201 0.050-0.312-0.013-0.317-0.015-0.009-0.006-0.013-0.018-0.007-0.027s0.018-0.013 0.027-0.007c0.001 0.001 0.103 0.057 0.287 0.011 0.216-0.053 0.321 0.020 0.325 0.023 0.009 0.006 0.011 0.019 0.005 0.028-0.003 0.005-0.008 0.007-0.013 0.008z"></path>
<path fill="rgb(199, 227, 231)" d="M11.966 9.451c-0.005 0.001-0.010-0-0.015-0.003-0.001-0.001-0.096-0.065-0.292-0.016-0.202 0.050-0.312-0.013-0.317-0.016-0.010-0.006-0.013-0.018-0.007-0.027s0.018-0.013 0.027-0.007c0.001 0.001 0.103 0.057 0.287 0.011 0.216-0.053 0.321 0.020 0.325 0.023 0.009 0.006 0.011 0.019 0.005 0.028-0.003 0.005-0.008 0.007-0.013 0.008z"></path>
<path fill="rgb(199, 227, 231)" d="M11.988 9.597c-0.005 0.001-0.010-0-0.015-0.004-0.001-0.001-0.096-0.065-0.292-0.016-0.202 0.050-0.312-0.013-0.317-0.016-0.010-0.006-0.013-0.018-0.007-0.027s0.018-0.013 0.027-0.007c0.001 0.001 0.103 0.057 0.287 0.011 0.216-0.053 0.321 0.020 0.325 0.023 0.009 0.006 0.011 0.019 0.005 0.028-0.003 0.005-0.008 0.007-0.013 0.008z"></path>
</svg>
