<?xml version="1.0" encoding="utf-8"?>
<!-- Generated by IcoMoon.io -->
<!DOCTYPE svg PUBLIC "-//W3C//DTD SVG 1.1//EN" "http://www.w3.org/Graphics/SVG/1.1/DTD/svg11.dtd">
<svg version="1.1" xmlns="http://www.w3.org/2000/svg" xmlns:xlink="http://www.w3.org/1999/xlink" width="20" height="20" viewBox="0 0 20 20">
<path fill="rgb(250, 188, 61)" d="M19.691 10c0-5.352-4.339-9.691-9.69-9.691s-9.691 4.338-9.691 9.691c0 5.352 4.339 9.69 9.691 9.69s9.69-4.339 9.69-9.69z"></path>
<path fill="rgb(58, 53, 54)" d="M12.86 8.989l1.581-2.12c0 0 2.12-1.172 1.743-2.071l-2.353 1.801-1.653 1.85 0.683 0.539z"></path>
<path fill="rgb(81, 77, 78)" d="M11.279 8.072c0 0 1.689-1.545 2.156-1.94s1.576-1.202 1.904-1.401c0.503-0.305 1.060 0.018 0.773 0.269s-1.258 0.844-1.815 1.419c-0.557 0.575-1.796 2.192-1.796 2.192l-1.222-0.539z"></path>
<path fill="rgb(201, 199, 199)" d="M11.279 8.072c0 0 0.118-0.108 0.301-0.275l1.139 0.532c-0.134 0.172-0.218 0.282-0.218 0.282l-1.222-0.539z"></path>
<path fill="rgb(173, 172, 172)" d="M12.968 8.971l-0.249-0.641c-0.134 0.172-0.218 0.282-0.218 0.282s0.285 0.526 0.467 0.359z"></path>
<path fill="rgb(58, 53, 54)" d="M3.852 10.902c0-1.786 2.247-3.234 5.019-3.234s5.019 1.448 5.019 3.234c0 1.786-2.247 3.234-5.019 3.234s-5.019-1.448-5.019-3.234z"></path>
<path fill="rgb(58, 53, 54)" d="M8.871 14.136c2.71 0 4.918-1.384 5.015-3.116-0-0.048-0.001-0.079-0.001-0.085-0.116-1.719-2.317-1.615-5.014-1.615-2.679 0-4.869-0.123-5.011 1.581-0.001 0.010-0.002 0.062-0.002 0.142 0.116 1.72 2.316 3.092 5.014 3.092z"></path>
<path fill="rgb(102, 100, 101)" d="M13.494 12.050c0 1.587-2.070 2.873-4.623 2.873s-4.623-1.286-4.623-2.873c0-1.587 2.070-2.873 4.623-2.873s4.623 1.286 4.623 2.873z"></path>
<path fill="rgb(178, 22, 45)" d="M8.871 14.136c-2.698 0-4.898-1.372-5.014-3.092-0.003 0.393-0.005 0.815-0.005 0.864 0 1.786 2.247 3.485 5.019 3.485s5.019-1.699 5.019-3.485c0-0.042-0.001-0.559-0.004-0.888-0.097 1.731-2.305 3.116-5.015 3.116z"></path>
<path fill="rgb(226, 224, 224)" d="M8.871 14.217c-2.812 0-5.1-1.487-5.1-3.315s2.288-3.315 5.1-3.315c2.812 0 5.099 1.487 5.099 3.315s-2.288 3.315-5.099 3.315zM8.871 7.749c-2.723 0-4.938 1.414-4.938 3.153s2.215 3.153 4.938 3.153c2.723 0 4.938-1.414 4.938-3.153s-2.215-3.153-4.938-3.153z"></path>
<path fill="rgb(58, 53, 54)" d="M15.714 5.135c-0.148 0.081-0.309 0.072-0.359-0.020s0.029-0.232 0.178-0.313c0.148-0.081 0.309-0.072 0.359 0.020s-0.029 0.232-0.178 0.313z"></path>
</svg>
