<?xml version="1.0" encoding="utf-8"?>
<!-- Generated by IcoMoon.io -->
<!DOCTYPE svg PUBLIC "-//W3C//DTD SVG 1.1//EN" "http://www.w3.org/Graphics/SVG/1.1/DTD/svg11.dtd">
<svg version="1.1" xmlns="http://www.w3.org/2000/svg" xmlns:xlink="http://www.w3.org/1999/xlink" width="20" height="20" viewBox="0 0 20 20">
<path fill="rgb(250, 188, 61)" d="M19.691 10c0-5.352-4.339-9.691-9.69-9.691s-9.691 4.338-9.691 9.691c0 5.352 4.339 9.69 9.691 9.69s9.69-4.339 9.69-9.69z"></path>
<path fill="rgb(86, 67, 47)" d="M15.393 10.872h-10.917l-2.29 1.38 2.29 1.495h10.917l2.29-1.495z"></path>
<path fill="rgb(114, 114, 114)" d="M13.875 11.128h-9.097l-1.306 0.801h11.413z"></path>
<path fill="rgb(173, 173, 173)" d="M4.997 8.786h0.246v2.4h-0.246v-2.4z"></path>
<path fill="rgb(173, 173, 173)" d="M5.265 10.117c0 0.081-0.066 0.146-0.146 0.146v0c-0.081 0-0.146-0.066-0.146-0.146v-0.172c0-0.081 0.066-0.146 0.146-0.146v0c0.081 0 0.146 0.065 0.146 0.146v0.172z"></path>
<path fill="rgb(216, 215, 214)" d="M4.997 11.184h0.246v0.032h-0.246v-0.032z"></path>
<path fill="rgb(188, 188, 188)" d="M4.997 11.118h0.246v0.067h-0.246v-0.067z"></path>
<path fill="rgb(117, 117, 117)" d="M5.161 10.827l-0.041 0.218-0.041-0.218v-2.041h0.082z"></path>
<path fill="rgb(86, 67, 47)" d="M17.781 10.365c0 0.174-0.277 0.314-0.618 0.314s-0.618-0.141-0.618-0.314c0-0.174 0.277-0.314 0.618-0.314s0.618 0.141 0.618 0.314z"></path>
<path fill="rgb(38, 38, 37)" d="M13.374 9.147l2.587-0.002v0.296l-1.766 0.15c0 0-0.345-0.021-0.345 0.312l-0.049 1.355h-0.509l0.082-2.111z"></path>
<path fill="rgb(38, 38, 37)" d="M15.838 9.496c0 0 0.185 0.253 0.148 1.029h0.289v-0.344h-0.129c0 0 0.018-0.759-0.197-0.839l-0.111 0.154z"></path>
<path fill="rgb(86, 67, 47)" d="M16.238 10.181h0.842v0.345h-0.842v-0.345z"></path>
<path fill="rgb(40, 40, 38)" d="M15.973 6.051c0 0.141-0.119 0.255-0.266 0.255h-2.709c-0.147 0-0.266-0.114-0.266-0.255v0c0-0.141 0.119-0.255 0.266-0.255h2.709c0.147 0 0.266 0.114 0.266 0.255v0z"></path>
<path fill="rgb(163, 213, 224)" d="M11.299 3.828h1.186v1.377h-1.186v-1.377z"></path>
<path fill="rgb(217, 234, 237)" d="M12.051 3.828h0.228v1.377h-0.228v-1.377z"></path>
<path fill="rgb(58, 58, 56)" d="M11.97 3.411l-0.079-0.027-0.072 0.027v0.287h0.151z"></path>
<path fill="rgb(167, 149, 135)" d="M11.892 3.561c-0.253 0-0.593 0.267-0.593 0.267h1.186c0 0-0.34-0.267-0.593-0.267z"></path>
<path fill="rgb(167, 149, 135)" d="M11.299 5.073h1.186v0.214h-1.186v-0.214z"></path>
<path fill="rgb(117, 117, 117)" d="M5.243 9.484c0 0-0.053 0.016-0.123 0.016s-0.123-0.016-0.123-0.016v-0.493h0.246v0.493z"></path>
<path fill="rgb(117, 117, 117)" d="M5.243 4.474c0 0-0.053 0.016-0.123 0.016s-0.123-0.016-0.123-0.016v-0.493h0.246v0.493z"></path>
<path fill="rgb(58, 58, 56)" d="M4.635 9.032v-4.764c0 0 0.361-0.049 0.723 0.115s1.166 1.101 1.495 1.183c0.329 0.082 1.692 0.164 2.283 0.115s1.807-0.394 2.135-0.427c0 0 1.577-0.296 1.971 0.526 0 0 0.23 1.774 0.197 3.154s-0.066 2.694-0.066 2.694h-2.464c0 0-0.46 0.066-0.46-0.329 0 0 0.345-0.756 0.411-0.953 0 0 0.427-0.821 0.115-2.218-0.084-0.375-0.69-0.854-1.561-0.936s-2.48-0.246-2.48-0.246l-1.068 0.46c0 0-0.263 1.248-0.361 1.396-0 0 0.033 0.296-0.871 0.23z"></path>
<path fill="rgb(38, 38, 37)" d="M11.255 8.309c-0.099-1.15-2.119-1.265-2.119-1.265-0.296-0.066-2.25-0.214-2.25-0.214l-1.248 0.493-0.322 1.662c0.203-0.071 0.19-0.183 0.19-0.183 0.099-0.148 0.361-1.396 0.361-1.396l1.068-0.46c0 0 1.61 0.164 2.48 0.246s1.477 0.561 1.561 0.936c0.312 1.396-0.115 2.218-0.115 2.218-0.066 0.197-0.411 0.953-0.411 0.953 0 0.15 0.066 0.233 0.148 0.279 0.989-1.648 0.656-3.268 0.656-3.268z"></path>
<path fill="rgb(54, 56, 51)" d="M5.358 7.587c0 0.254-0.206 0.46-0.46 0.46s-0.46-0.206-0.46-0.46c0-0.254 0.206-0.46 0.46-0.46s0.46 0.206 0.46 0.46z"></path>
<path fill="rgb(89, 91, 86)" d="M5.177 7.587c0 0.154-0.125 0.279-0.279 0.279s-0.279-0.125-0.279-0.279c0-0.154 0.125-0.279 0.279-0.279s0.279 0.125 0.279 0.279z"></path>
<path fill="rgb(215, 209, 197)" d="M12.906 9.32c0 0.404-0.239 0.731-0.534 0.731s-0.534-0.327-0.534-0.731c0-0.404 0.239-0.731 0.534-0.731s0.534 0.327 0.534 0.731z"></path>
<path fill="rgb(117, 117, 117)" d="M5.194 9.225h0.263v0.086h-0.263v-0.086z"></path>
<path fill="rgb(117, 117, 117)" d="M5.477 9.267c0 0.086-0.029 0.155-0.065 0.155s-0.065-0.069-0.065-0.155c0-0.086 0.029-0.155 0.065-0.155s0.065 0.069 0.065 0.155z"></path>
<path fill="rgb(173, 173, 173)" d="M4.753 10.615h0.263v0.086h-0.263v-0.086z"></path>
<path fill="rgb(173, 173, 173)" d="M4.861 10.659c0 0.086-0.029 0.155-0.065 0.155s-0.065-0.069-0.065-0.155c0-0.086 0.029-0.155 0.065-0.155s0.065 0.069 0.065 0.155z"></path>
<path fill="rgb(198, 198, 198)" d="M5.243 11.21h-0.246v0.148h0.090c-0.001-0.049 0.003-0.082 0.035-0.082s0.036 0.034 0.035 0.082h0.086v-0.148z"></path>
<path fill="rgb(91, 91, 90)" d="M5.243 11.356h-0.246v0.031h0.090c-0-0.010-0.001-0.020-0.001-0.029h0.070c-0 0.009-0 0.019-0.001 0.029h0.087v-0.031z"></path>
<path fill="rgb(114, 114, 114)" d="M5.121 11.276c-0.032 0-0.036 0.034-0.035 0.082 0 0.009 0 0.019 0.001 0.029h0.069c0-0.010 0.001-0.020 0.001-0.029 0.001-0.049-0.003-0.082-0.035-0.082z"></path>
<path fill="rgb(48, 48, 48)" d="M15.39 6.010c0-0.145 0.134-0.263 0.299-0.263v0c0.165 0 0.299 0.118 0.299 0.263v3.33c0 0.145-0.134 0.263-0.299 0.263v0c-0.165 0-0.299-0.118-0.299-0.263v-3.33z"></path>
<path fill="rgb(20, 20, 20)" d="M15.39 6.010c0-0.145 0.134-0.263 0.299-0.263v0 3.856c-0.165 0-0.299-0.118-0.299-0.263v-3.33z"></path>
<path fill="rgb(83, 55, 43)" d="M2.186 12.252h15.496v2.070h-15.496v-2.070z"></path>
<path fill="rgb(170, 170, 170)" d="M11.074 5.648c0 0 1.79-0.575 1.955 0.723 0 0-1.216-0.23-1.955-0.723z"></path>
<path fill="rgb(117, 117, 117)" d="M5.038 3.709h0.15v0.458h-0.15v-0.458z"></path>
<path fill="rgb(117, 117, 117)" d="M5.382 3.785c0 0.062-0.121 0.113-0.27 0.113s-0.27-0.051-0.27-0.113c0-0.062 0.121-0.113 0.27-0.113s0.27 0.051 0.27 0.113z"></path>
<path fill="rgb(86, 86, 86)" d="M13.494 4.843c0-0.124 0.149-0.225 0.332-0.225v0c0.183 0 0.332 0.101 0.332 0.225v2.41c0 0.124-0.149 0.225-0.332 0.225v0c-0.183 0-0.332-0.101-0.332-0.225v-2.41z"></path>
<path fill="rgb(20, 20, 20)" d="M13.826 4.618v2.859c0.183 0 0.332-0.101 0.332-0.225v-2.41c0-0.124-0.149-0.225-0.332-0.225z"></path>
<path fill="rgb(181, 168, 160)" d="M14.328 4.243c0-0.186 0.211-0.336 0.471-0.336v0c0.26 0 0.471 0.15 0.471 0.336v3.602c0 0.185-0.211 0.336-0.471 0.336v0c-0.26 0-0.471-0.15-0.471-0.336v-3.602z"></path>
<path fill="rgb(167, 149, 135)" d="M14.799 3.907v4.274c0.26 0 0.471-0.15 0.471-0.336v-3.602c0-0.186-0.211-0.336-0.471-0.336z"></path>
</svg>
