<?xml version="1.0" encoding="utf-8"?>
<!-- Generated by IcoMoon.io -->
<!DOCTYPE svg PUBLIC "-//W3C//DTD SVG 1.1//EN" "http://www.w3.org/Graphics/SVG/1.1/DTD/svg11.dtd">
<svg version="1.1" xmlns="http://www.w3.org/2000/svg" xmlns:xlink="http://www.w3.org/1999/xlink" width="20" height="20" viewBox="0 0 20 20">
<path fill="rgb(51, 77, 92)" d="M0.309 10c0 5.352 4.339 9.691 9.69 9.691s9.691-4.338 9.691-9.691c0-5.352-4.339-9.69-9.691-9.69s-9.69 4.339-9.69 9.69z"></path>
<path fill="rgb(255, 255, 255)" d="M5.101 10.799c0-0.151 0.123-0.274 0.274-0.274h9.243c0.151 0 0.274 0.123 0.274 0.274v1.425c0 0-9.791 0.027-9.791 0v-1.425z"></path>
<path fill="rgb(237, 201, 47)" d="M15.212 13.919h-6.939l-0.289-0.393-0.277 0.393h-2.925l0.32-2.536c0 0 9.791-0.027 9.791 0l0.32 2.536z"></path>
<path fill="rgb(188, 187, 187)" d="M10.005 11.106c0.286 0 0.518-0.232 0.518-0.518v-10.264c-0.173-0.009-0.348-0.014-0.524-0.014-0.172 0-0.343 0.005-0.513 0.014v10.264c0 0.286 0.232 0.518 0.518 0.518z"></path>
<path fill="rgb(255, 255, 255)" d="M9.487 9.68c0-0.286 1.037-0.286 1.037 0v1.296c0 0.286-1.037 0.286-1.037 0v-1.296z"></path>
<path fill="rgb(178, 154, 16)" d="M8.77 11.719h0.052v1.832h-0.052v-1.832z"></path>
<path fill="rgb(178, 154, 16)" d="M7.966 11.719h0.052v1.417h-0.052v-1.417z"></path>
<path fill="rgb(178, 154, 16)" d="M7.162 11.719h0.052v1.832h-0.052v-1.832z"></path>
<path fill="rgb(178, 154, 16)" d="M6.359 11.719h0.052v1.832h-0.052v-1.832z"></path>
<path fill="rgb(178, 154, 16)" d="M5.555 11.719h0.052v1.832h-0.052v-1.832z"></path>
<path fill="rgb(178, 154, 16)" d="M9.573 11.719h0.052v1.832h-0.052v-1.832z"></path>
<path fill="rgb(178, 154, 16)" d="M10.377 11.719h0.052v1.832h-0.052v-1.832z"></path>
<path fill="rgb(178, 154, 16)" d="M11.181 11.719h0.052v1.832h-0.052v-1.832z"></path>
<path fill="rgb(178, 154, 16)" d="M11.984 11.719h0.052v1.832h-0.052v-1.832z"></path>
<path fill="rgb(178, 154, 16)" d="M12.788 11.719h0.052v1.832h-0.052v-1.832z"></path>
<path fill="rgb(178, 154, 16)" d="M13.592 11.719h0.052v1.832h-0.052v-1.832z"></path>
<path fill="rgb(178, 154, 16)" d="M14.395 11.719h0.052v1.832h-0.052v-1.832z"></path>
</svg>
