<?xml version="1.0" encoding="utf-8"?>
<!-- Generated by IcoMoon.io -->
<!DOCTYPE svg PUBLIC "-//W3C//DTD SVG 1.1//EN" "http://www.w3.org/Graphics/SVG/1.1/DTD/svg11.dtd">
<svg version="1.1" xmlns="http://www.w3.org/2000/svg" xmlns:xlink="http://www.w3.org/1999/xlink" width="20" height="20" viewBox="0 0 20 20">
<path fill="rgb(250, 188, 61)" d="M19.691 10c0-5.352-4.339-9.691-9.69-9.691s-9.691 4.338-9.691 9.691c0 5.352 4.339 9.69 9.691 9.69s9.69-4.339 9.69-9.69z"></path>
<path fill="rgb(58, 53, 54)" d="M11.461 9.141l1.581-2.12c0 0 2.12-1.172 1.743-2.071l-2.353 1.801-1.653 1.85 0.683 0.539z"></path>
<path fill="rgb(81, 77, 78)" d="M9.88 8.225c0 0 1.689-1.545 2.156-1.94s1.576-1.202 1.904-1.401c0.503-0.305 1.060 0.018 0.773 0.269s-1.258 0.844-1.815 1.419c-0.557 0.575-1.796 2.192-1.796 2.192l-1.222-0.539z"></path>
<path fill="rgb(201, 199, 199)" d="M9.88 8.225c0 0 0.118-0.108 0.301-0.275l1.139 0.532c-0.134 0.172-0.218 0.282-0.218 0.282l-1.222-0.539z"></path>
<path fill="rgb(173, 172, 172)" d="M11.569 9.123l-0.249-0.641c-0.134 0.172-0.218 0.282-0.218 0.282s0.285 0.526 0.467 0.359z"></path>
<path fill="rgb(58, 53, 54)" d="M12.034 12.194c0 1.211-1.524 2.193-3.404 2.193s-3.404-0.982-3.404-2.193c0-1.211 1.524-2.193 3.404-2.193s3.404 0.982 3.404 2.193z"></path>
<path fill="rgb(58, 53, 54)" d="M8.63 14.388c1.838 0 3.336-0.939 3.402-2.113-0-0.033-0.001-0.053-0.001-0.057-0.079-1.166-1.571-1.095-3.401-1.095-1.817 0-3.302-0.083-3.399 1.072-0.001 0.007-0.001 0.042-0.002 0.096 0.078 1.167 1.571 2.097 3.401 2.097z"></path>
<path fill="rgb(102, 100, 101)" d="M11.766 12.973c0 1.076-1.404 1.949-3.136 1.949s-3.136-0.872-3.136-1.949c0-1.076 1.404-1.949 3.136-1.949s3.136 0.872 3.136 1.949z"></path>
<path fill="rgb(58, 53, 54)" d="M12.034 10.293c0 1.211-1.524 2.193-3.404 2.193s-3.404-0.982-3.404-2.193c0-1.211 1.524-2.193 3.404-2.193s3.404 0.982 3.404 2.193z"></path>
<path fill="rgb(102, 100, 101)" d="M11.766 12.765c0 1.076-1.404 1.949-3.136 1.949s-3.136-0.872-3.136-1.949c0-1.076 1.404-1.949 3.136-1.949s3.136 0.872 3.136 1.949z"></path>
<path fill="rgb(58, 53, 54)" d="M14.315 5.288c-0.148 0.081-0.309 0.072-0.359-0.020s0.029-0.232 0.178-0.313c0.148-0.081 0.309-0.072 0.359 0.020s-0.029 0.232-0.178 0.313z"></path>
<path fill="rgb(178, 22, 45)" d="M12.031 10.373c-0.066 1.174-1.563 2.113-3.402 2.113-1.83 0-3.322-0.93-3.401-2.097-0.002 0.266-0.004 2.455-0.004 2.487 0 1.211 1.524 2.364 3.404 2.364s3.404-1.153 3.404-2.364c0-0.027-0.001-2.28-0.003-2.503z"></path>
<path fill="rgb(226, 224, 224)" d="M8.63 8.176c-1.847 0-3.349 0.959-3.349 2.139s1.502 2.139 3.349 2.139 3.349-0.959 3.349-2.139c0-1.179-1.502-2.139-3.349-2.139zM8.63 12.563c-1.907 0-3.459-1.009-3.459-2.248s1.552-2.248 3.459-2.248 3.459 1.009 3.459 2.248c0 1.24-1.552 2.248-3.459 2.248z"></path>
</svg>
