<?xml version="1.0" encoding="utf-8"?>
<!-- Generated by IcoMoon.io -->
<!DOCTYPE svg PUBLIC "-//W3C//DTD SVG 1.1//EN" "http://www.w3.org/Graphics/SVG/1.1/DTD/svg11.dtd">
<svg version="1.1" xmlns="http://www.w3.org/2000/svg" xmlns:xlink="http://www.w3.org/1999/xlink" width="20" height="20" viewBox="0 0 20 20">
<path fill="rgb(216, 219, 186)" d="M19.691 10c0-5.352-4.339-9.691-9.69-9.691s-9.691 4.338-9.691 9.691c0 5.352 4.339 9.69 9.691 9.69s9.69-4.339 9.69-9.69z"></path>
<path fill="rgb(173, 131, 85)" d="M3.924 12.992h12.153v2.025h-12.153v-2.025z"></path>
<path fill="rgb(173, 131, 85)" d="M5.438 4.983h9.125v2.927h-9.125v-2.927z"></path>
<path fill="rgb(244, 210, 203)" d="M14.557 6.682h-9.115l-1.519 6.31h12.153z"></path>
<path fill="rgb(214, 134, 118)" d="M16.219 13.477h-12.438l0.012-0.486h12.413z"></path>
<path fill="rgb(175, 112, 104)" d="M13.955 8.341l-0.293-1.667c0 0-0.723-0.218-1.514-0.218s-1.507 0.218-1.507 0.218l-0.293 1.667v0.205c0 0 1.117 0.303 1.8 0.303s1.807-0.303 1.807-0.303v-0.205z"></path>
<path fill="rgb(206, 134, 120)" d="M10.348 8.341c0 0 1.117-0.104 1.8-0.104s1.807 0.104 1.807 0.104l-0.293-1.667c0 0-0.723-0.218-1.514-0.218s-1.507 0.218-1.507 0.218l-0.293 1.667z"></path>
<path fill="rgb(175, 112, 104)" d="M9.717 8.341l-0.293-1.667c0 0-0.723-0.218-1.514-0.218s-1.507 0.218-1.507 0.218l-0.293 1.667v0.205c0 0 1.117 0.303 1.8 0.303s1.807-0.303 1.807-0.303v-0.205z"></path>
<path fill="rgb(206, 134, 120)" d="M6.11 8.341c0 0 1.117-0.104 1.8-0.104s1.807 0.104 1.807 0.104l-0.293-1.667c0 0-0.723-0.218-1.514-0.218s-1.507 0.218-1.507 0.218l-0.293 1.667z"></path>
<path fill="rgb(235, 151, 131)" d="M14.828 7.359c0 0-1.488-0.172-4.828-0.172s-4.828 0.172-4.828 0.172l-1.379 5.633h12.413l-1.379-5.633z"></path>
<path fill="rgb(204, 152, 100)" d="M5.438 4.983h9.124l-0.047-0.19h-9.030z"></path>
</svg>
