<?xml version="1.0" encoding="utf-8"?>
<!-- Generated by IcoMoon.io -->
<!DOCTYPE svg PUBLIC "-//W3C//DTD SVG 1.1//EN" "http://www.w3.org/Graphics/SVG/1.1/DTD/svg11.dtd">
<svg version="1.1" xmlns="http://www.w3.org/2000/svg" xmlns:xlink="http://www.w3.org/1999/xlink" width="20" height="20" viewBox="0 0 20 20">
<path fill="rgb(250, 188, 61)" d="M19.691 10c0-5.352-4.339-9.691-9.69-9.691s-9.691 4.338-9.691 9.691c0 5.352 4.339 9.69 9.691 9.69s9.69-4.339 9.69-9.69z"></path>
<path fill="rgb(147, 112, 77)" d="M3.578 11.963h12.963v0.336h-12.963v-0.336z"></path>
<path fill="rgb(86, 86, 86)" d="M10.003 5.424c-0.397 0-0.725 0.299-0.772 0.684-0.023 0.025-0.038 0.058-0.038 0.095 0 0.077 0.063 0.139 0.139 0.139s0.139-0.063 0.139-0.139c0-0.030-0.009-0.057-0.025-0.080 0.039-0.273 0.273-0.483 0.557-0.483 0.31 0 0.563 0.253 0.563 0.563s-0.253 0.563-0.563 0.563c-0.060 0-0.108 0.048-0.108 0.108v1.575c0 0.060 0.048 0.108 0.108 0.108s0.108-0.048 0.108-0.108v-1.474c0.378-0.053 0.671-0.379 0.671-0.771 0-0.429-0.349-0.779-0.779-0.779z"></path>
<path fill="rgb(165, 125, 81)" d="M3.459 12.466l6.541-3.45v-1.366c0 0-0.863 0-1.438 1.114 0 0-0.581 0.885-1.671 1.33-2.246 0.916-4.079 0.899-3.432 2.372z"></path>
<path fill="rgb(186, 141, 96)" d="M16.541 12.466l-6.541-3.45v-1.366c0 0 0.863 0 1.438 1.114 0 0 0.581 0.885 1.671 1.33 2.246 0.916 4.079 0.899 3.432 2.372z"></path>
</svg>
