<?xml version="1.0" encoding="utf-8"?>
<!-- Generated by IcoMoon.io -->
<!DOCTYPE svg PUBLIC "-//W3C//DTD SVG 1.1//EN" "http://www.w3.org/Graphics/SVG/1.1/DTD/svg11.dtd">
<svg version="1.1" xmlns="http://www.w3.org/2000/svg" xmlns:xlink="http://www.w3.org/1999/xlink" width="20" height="20" viewBox="0 0 20 20">
<path fill="rgb(250, 188, 61)" d="M19.691 10c0-5.352-4.339-9.691-9.69-9.691s-9.691 4.338-9.691 9.691c0 5.352 4.339 9.69 9.691 9.69s9.69-4.339 9.69-9.69z"></path>
<path fill="rgb(173, 131, 85)" d="M4.106 5.713h11.789v9.063h-11.789v-9.063z"></path>
<path fill="rgb(104, 87, 70)" d="M4.106 5.225h11.789v0.488h-11.789v-0.488z"></path>
<path fill="rgb(76, 67, 59)" d="M5.518 6.798h8.964v6.891h-8.964v-6.891z"></path>
<path fill="rgb(130, 109, 90)" d="M14.482 12.934h-8.964l0.823-1.641h7.318z"></path>
<path fill="rgb(102, 89, 79)" d="M5.518 12.934l0.823-1.641h-0.823z"></path>
<path fill="rgb(102, 89, 79)" d="M5.518 6.798h0.823v4.494h-0.823v-4.494z"></path>
<path fill="rgb(102, 89, 79)" d="M14.486 12.934l-0.823-1.641h0.823z"></path>
<path fill="rgb(102, 89, 79)" d="M13.662 6.798h0.823v4.494h-0.823v-4.494z"></path>
<path fill="rgb(104, 87, 70)" d="M5.518 12.934h8.964v0.756h-8.964v-0.756z"></path>
<path fill="rgb(225, 122, 45)" d="M9.395 9.358c0.197-0.513 0.159-1.288 0.159-1.288s0.525 0.22 0.887 0.823c0.34 0.567 0.019 1.412 0.019 1.412 0.251-0.251 0.344-0.502 0.352-0.803 0.282 0.45 0.499 0.965 0.499 1.487 0 0.645-0.587 1.168-1.311 1.168s-1.311-0.523-1.311-1.168c0-0.628 0.473-1.026 0.706-1.631z"></path>
<path fill="rgba(244, 224, 40, 0.800000011920929)" d="M9.652 10.457c0.108-0.311 0.087-0.781 0.087-0.781s1.039 0.791 0.965 1.771c-0.030 0.39-0.322 0.708-0.72 0.708s-0.72-0.317-0.72-0.708c0-0.381 0.26-0.622 0.388-0.989z"></path>
<path fill="rgba(255, 255, 255, 0.800000011920929)" d="M9.775 11.066c0.069-0.197 0.055-0.495 0.055-0.495s0.658 0.501 0.611 1.122c-0.019 0.247-0.204 0.449-0.456 0.449s-0.456-0.201-0.456-0.449c0-0.241 0.165-0.394 0.246-0.627z"></path>
</svg>
