<?xml version="1.0" encoding="utf-8"?>
<!-- Generated by IcoMoon.io -->
<!DOCTYPE svg PUBLIC "-//W3C//DTD SVG 1.1//EN" "http://www.w3.org/Graphics/SVG/1.1/DTD/svg11.dtd">
<svg version="1.1" xmlns="http://www.w3.org/2000/svg" xmlns:xlink="http://www.w3.org/1999/xlink" width="20" height="20" viewBox="0 0 20 20">
<path fill="rgb(50, 190, 166)" d="M19.691 10c0-5.352-4.339-9.691-9.69-9.691s-9.691 4.338-9.691 9.691c0 5.352 4.339 9.69 9.691 9.69s9.69-4.339 9.69-9.69z"></path>
<path fill="rgb(255, 255, 255)" d="M2.945 11.6c0-1.675 3.198-2.635 7.055-2.635s7.055 0.959 7.055 2.635c0 1.675-3.198 3.432-7.055 3.432s-7.055-1.757-7.055-3.432z"></path>
<path fill="rgb(210, 214, 216)" d="M17.073 11.475c0 1.697-3.167 3.072-7.073 3.072s-7.073-1.376-7.073-3.072c0-1.697 3.167-3.072 7.073-3.072s7.073 1.376 7.073 3.072z"></path>
<path fill="rgb(181, 186, 188)" d="M15.002 11.529c0 1.188-2.268 1.868-5.002 1.868s-5.002-0.68-5.002-1.868c0-1.188 2.268-2.433 5.002-2.433s5.002 1.246 5.002 2.433z"></path>
<path fill="rgb(210, 214, 216)" d="M14.653 11.648c0 1.116-2.083 2.021-4.653 2.021s-4.653-0.905-4.653-2.021c0-1.116 2.083-2.021 4.653-2.021s4.653 0.905 4.653 2.021z"></path>
<path fill="rgb(255, 255, 255)" d="M2.945 10.911c0-1.675 3.198-2.635 7.055-2.635s7.055 0.959 7.055 2.635c0 1.675-3.198 3.432-7.055 3.432s-7.055-1.757-7.055-3.432z"></path>
<path fill="rgb(210, 214, 216)" d="M17.073 10.786c0 1.697-3.167 3.072-7.073 3.072s-7.073-1.376-7.073-3.072c0-1.697 3.167-3.072 7.073-3.072s7.073 1.376 7.073 3.072z"></path>
<path fill="rgb(181, 186, 188)" d="M15.002 10.839c0 1.188-2.268 1.868-5.002 1.868s-5.002-0.68-5.002-1.868c0-1.188 2.268-2.433 5.002-2.433s5.002 1.246 5.002 2.433z"></path>
<path fill="rgb(210, 214, 216)" d="M14.653 10.959c0 1.116-2.083 2.021-4.653 2.021s-4.653-0.905-4.653-2.021c0-1.116 2.083-2.021 4.653-2.021s4.653 0.905 4.653 2.021z"></path>
<path fill="rgb(255, 255, 255)" d="M2.945 10.221c0-1.675 3.198-2.635 7.055-2.635s7.055 0.959 7.055 2.635c0 1.675-3.198 3.432-7.055 3.432s-7.055-1.757-7.055-3.432z"></path>
<path fill="rgb(210, 214, 216)" d="M17.073 10.096c0 1.697-3.167 3.072-7.073 3.072s-7.073-1.375-7.073-3.072c0-1.697 3.167-3.072 7.073-3.072s7.073 1.375 7.073 3.072z"></path>
<path fill="rgb(181, 186, 188)" d="M15.002 10.15c0 1.188-2.268 1.868-5.002 1.868s-5.002-0.68-5.002-1.868c0-1.188 2.268-2.433 5.002-2.433s5.002 1.246 5.002 2.433z"></path>
<path fill="rgb(210, 214, 216)" d="M14.653 10.269c0 1.116-2.083 2.021-4.653 2.021s-4.653-0.905-4.653-2.021c0-1.116 2.083-2.021 4.653-2.021s4.653 0.905 4.653 2.021z"></path>
<path fill="rgb(255, 255, 255)" d="M2.945 9.532c0-1.675 3.198-2.635 7.055-2.635s7.055 0.959 7.055 2.635c0 1.675-3.198 3.432-7.055 3.432s-7.055-1.757-7.055-3.432z"></path>
<path fill="rgb(210, 214, 216)" d="M17.073 9.407c0 1.697-3.167 3.072-7.073 3.072s-7.073-1.376-7.073-3.072c0-1.697 3.167-3.072 7.073-3.072s7.073 1.376 7.073 3.072z"></path>
<path fill="rgb(181, 186, 188)" d="M15.002 9.461c0 1.188-2.268 1.868-5.002 1.868s-5.002-0.68-5.002-1.868c0-1.188 2.268-2.433 5.002-2.433s5.002 1.246 5.002 2.433z"></path>
<path fill="rgb(210, 214, 216)" d="M14.653 9.58c0 1.116-2.083 2.021-4.653 2.021s-4.653-0.905-4.653-2.021c0-1.116 2.083-2.021 4.653-2.021s4.653 0.905 4.653 2.021z"></path>
<path fill="rgb(255, 255, 255)" d="M2.945 8.854c0-1.675 3.198-2.635 7.055-2.635s7.055 0.959 7.055 2.635c0 1.675-3.198 3.432-7.055 3.432s-7.055-1.757-7.055-3.432z"></path>
<path fill="rgb(210, 214, 216)" d="M17.073 8.729c0 1.697-3.167 3.072-7.073 3.072s-7.073-1.375-7.073-3.072c0-1.697 3.167-3.072 7.073-3.072s7.073 1.375 7.073 3.072z"></path>
<path fill="rgb(181, 186, 188)" d="M15.002 8.783c0 1.188-2.268 1.868-5.002 1.868s-5.002-0.68-5.002-1.868c0-1.188 2.268-2.433 5.002-2.433s5.002 1.246 5.002 2.433z"></path>
<path fill="rgb(210, 214, 216)" d="M14.653 8.902c0 1.116-2.083 2.021-4.653 2.021s-4.653-0.905-4.653-2.021c0-1.116 2.083-2.021 4.653-2.021s4.653 0.905 4.653 2.021z"></path>
<path fill="rgb(255, 255, 255)" d="M2.945 8.165c0-1.675 3.198-2.635 7.055-2.635s7.055 0.959 7.055 2.635c0 1.675-3.198 3.432-7.055 3.432s-7.055-1.757-7.055-3.432z"></path>
<path fill="rgb(210, 214, 216)" d="M17.073 8.040c0 1.697-3.167 3.072-7.073 3.072s-7.073-1.376-7.073-3.072c0-1.697 3.167-3.072 7.073-3.072s7.073 1.376 7.073 3.072z"></path>
<path fill="rgb(181, 186, 188)" d="M15.002 8.094c0 1.188-2.268 1.868-5.002 1.868s-5.002-0.68-5.002-1.868c0-1.188 2.268-2.433 5.002-2.433s5.002 1.246 5.002 2.433z"></path>
<path fill="rgb(210, 214, 216)" d="M14.653 8.213c0 1.116-2.083 2.021-4.653 2.021s-4.653-0.905-4.653-2.021c0-1.116 2.083-2.021 4.653-2.021s4.653 0.905 4.653 2.021z"></path>
</svg>
