<?xml version="1.0" encoding="utf-8"?>
<!-- Generated by IcoMoon.io -->
<!DOCTYPE svg PUBLIC "-//W3C//DTD SVG 1.1//EN" "http://www.w3.org/Graphics/SVG/1.1/DTD/svg11.dtd">
<svg version="1.1" xmlns="http://www.w3.org/2000/svg" xmlns:xlink="http://www.w3.org/1999/xlink" width="20" height="20" viewBox="0 0 20 20">
<path fill="rgb(37, 183, 211)" d="M19.691 10c0-5.352-4.339-9.691-9.69-9.691s-9.691 4.338-9.691 9.691c0 5.352 4.339 9.69 9.691 9.69s9.69-4.339 9.69-9.69z"></path>
<path fill="rgb(234, 234, 234)" d="M12.61 12.771c-0.067 0-0.121-0.054-0.121-0.121v-5.968c0-0.067 0.054-0.121 0.121-0.121s0.121 0.054 0.121 0.121v5.968c0 0.067-0.054 0.121-0.121 0.121z"></path>
<path fill="rgb(234, 234, 234)" d="M12.878 15.733c0 0 0 0-0 0l-0.352-0c-0.266 0-0.475-0.339-0.475-0.772 0-0.002 0-0.005 0-0.007l0.145-1.769c0.001-0.332 0.165-0.591 0.375-0.591h0.261c0.209 0 0.374 0.259 0.375 0.591l0.145 1.769c0 0.002 0 0.005 0 0.007 0 0.433-0.209 0.772-0.475 0.772zM12.233 14.964c0.001 0.346 0.155 0.587 0.293 0.587h0.352c0.138 0 0.292-0.241 0.293-0.587l-0.145-1.769c-0-0.002-0-0.005-0-0.007 0-0.237-0.102-0.413-0.193-0.413h-0.261c-0.091 0-0.193 0.177-0.193 0.413 0 0.002-0 0.005-0 0.007l-0.145 1.769z"></path>
<path fill="rgb(234, 234, 234)" d="M12.128 12.771c-0.067 0-0.121-0.054-0.121-0.121v-5.968c0-0.067 0.054-0.121 0.121-0.121s0.121 0.054 0.121 0.121v5.968c0 0.067-0.054 0.121-0.121 0.121z"></path>
<path fill="rgb(234, 234, 234)" d="M12.212 15.733c-0 0-0 0 0 0l-0.352-0c-0.266 0-0.475-0.339-0.475-0.772 0-0.002 0-0.005 0-0.007l0.145-1.769c0.001-0.332 0.165-0.591 0.375-0.591h0.261c0.209 0 0.374 0.259 0.375 0.591l0.145 1.769c0 0.002 0 0.005 0 0.007 0 0.433-0.209 0.772-0.475 0.772zM11.567 14.964c0.001 0.346 0.155 0.587 0.293 0.587h0.352c0.138 0 0.292-0.241 0.293-0.587l-0.145-1.769c-0-0.002-0-0.005-0-0.007 0-0.237-0.102-0.413-0.193-0.413h-0.261c-0.091 0-0.193 0.177-0.193 0.413 0 0.002-0 0.005-0 0.007l-0.145 1.769z"></path>
<path fill="rgb(91, 89, 89)" d="M13.309 4.993c0 0.073-0.044 0.132-0.099 0.132h-0.662c-0.055 0-0.099-0.059-0.099-0.132v-0.593c0-0.073 0.044-0.132 0.099-0.132h0.662c0.055 0 0.099 0.059 0.099 0.132v0.593z"></path>
<path fill="rgb(91, 89, 89)" d="M12.381 5.299c0 0.073-0.044 0.115-0.099 0.095l-0.662-0.245c-0.055-0.020-0.099-0.096-0.099-0.169v-0.593c0-0.073 0.044-0.115 0.099-0.095l0.662 0.245c0.055 0.020 0.099 0.096 0.099 0.169v0.593z"></path>
<path fill="rgb(178, 22, 45)" d="M12.896 4.58h-5.804c-0.733 0-1.341 0.54-1.446 1.244l-0.004 2.741c0.043 0.769 0.68 1.379 1.459 1.379h5.794c0.807 0 1.462-0.654 1.462-1.462v-2.44c0-0.807-0.654-1.462-1.462-1.462z"></path>
<path fill="rgb(147, 20, 44)" d="M10.384 5.145h-3.223c-0.373 0-0.682 0.275-0.736 0.633l-0.008 0.634c0 0.411 0.333 0.744 0.744 0.744h3.223c0.373 0 0.682-0.275 0.736-0.633l0.008-0.634c0-0.411-0.333-0.744-0.744-0.744z"></path>
<path fill="rgb(72, 161, 175)" d="M10.384 7.156c0.373 0 0.682-0.275 0.736-0.633l0.008-0.634c0-0.111-0.025-0.217-0.069-0.312-0.095-0.044-0.2-0.069-0.312-0.069h-3.223c-0.373 0-0.682 0.275-0.736 0.633l-0.008 0.634c0 0.111 0.025 0.217 0.069 0.312 0.095 0.044 0.2 0.069 0.312 0.069h3.223z"></path>
<path fill="rgb(178, 22, 45)" d="M13.67 9.582c0 0.304-0.247 0.55-0.551 0.55h-1.529c-0.304 0-0.551-0.247-0.551-0.55v-0.887c0-0.304 0.247-0.55 0.551-0.55h1.529c0.304 0 0.551 0.246 0.551 0.55v0.887z"></path>
</svg>
