<?xml version="1.0" encoding="utf-8"?>
<!-- Generator: Adobe Illustrator 16.0.0, SVG Export Plug-In . SVG Version: 6.00 Build 0)  -->
<!DOCTYPE svg PUBLIC "-//W3C//DTD SVG 1.1//EN" "http://www.w3.org/Graphics/SVG/1.1/DTD/svg11.dtd">
<svg version="1.1" id="Layer_1" xmlns="http://www.w3.org/2000/svg" xmlns:xlink="http://www.w3.org/1999/xlink" x="0px" y="0px"
	 width="20px" height="20px" viewBox="0 0 20 20" enable-background="new 0 0 20 20" xml:space="preserve">
<g>
	<path fill="#49A0AE" d="M19.69,10c0,5.351-4.338,9.69-9.69,9.69S0.31,15.353,0.31,10c0-5.352,4.338-9.69,9.69-9.69
		S19.69,4.647,19.69,10z"/>
	<path fill="#DCD2CC" d="M15.326,15.825c-0.003,0-0.006,0-0.01,0c-0.047-0.005-0.461-0.034-0.693-0.21
		c-0.231-0.174-0.39-0.559-0.407-0.601c-0.031-0.079,0.007-0.168,0.084-0.2c0.077-0.03,0.167,0.007,0.199,0.086
		c0.039,0.095,0.168,0.366,0.307,0.47c0.138,0.104,0.43,0.142,0.53,0.148c0.084,0.006,0.148,0.079,0.144,0.162
		C15.474,15.762,15.406,15.825,15.326,15.825z"/>
	<path fill="#DCD2CC" d="M4.411,15.825c-0.08,0-0.147-0.062-0.153-0.145c-0.005-0.085,0.059-0.156,0.144-0.162
		c0.102-0.007,0.394-0.045,0.53-0.148c0.138-0.104,0.268-0.375,0.307-0.47c0.031-0.079,0.12-0.116,0.198-0.086
		c0.078,0.032,0.116,0.121,0.085,0.2c-0.018,0.042-0.176,0.427-0.407,0.601c-0.233,0.176-0.648,0.205-0.694,0.21
		C4.417,15.825,4.413,15.825,4.411,15.825L4.411,15.825z"/>
	<path fill="#E5DCD6" d="M14.833,15.061H4.905c-1.098,0-1.921-4.03-1.921-4.03h13.771C16.755,11.03,15.93,15.061,14.833,15.061z"/>
	<path fill="#DDD3CC" d="M16.698,10.54H3.064c-0.27,0-0.368,0.135-0.368,0.298c0,0.165,0.099,0.299,0.368,0.299h13.634
		c0.27,0,0.367-0.134,0.367-0.299C17.065,10.675,16.968,10.54,16.698,10.54z"/>
	<path fill="#E5DCD6" d="M15.994,10.935c-0.126,0-0.229-0.103-0.229-0.229V4.126c0-0.007,0.001-0.016,0.001-0.022
		c0.003-0.057-0.005-0.361-0.531-0.438c-0.126-0.02-0.213-0.136-0.193-0.261c0.019-0.126,0.135-0.212,0.26-0.194
		c0.78,0.114,0.944,0.648,0.924,0.926v6.569c0,0.127-0.103,0.229-0.229,0.229H15.994z"/>
	<path fill="#E5DCD6" d="M15.138,4.563l0.241-1.221c0.019-0.092-0.041-0.151-0.133-0.134l-1.223,0.242
		c-0.091,0.018-0.18,0.106-0.198,0.199l1.112,1.112C15.029,4.745,15.117,4.656,15.138,4.563L15.138,4.563z"/>
	<path fill="#D5CEC9" d="M15.138,4.563l-1.114-1.112c-0.091,0.018-0.18,0.106-0.198,0.199l1.112,1.112
		C15.029,4.745,15.117,4.656,15.138,4.563L15.138,4.563z"/>
	<path fill="#A2D4DE" d="M11.01,8.932c0,0-0.337,0.027-0.534,0.215c-0.086,0.082-0.09,0.218-0.008,0.303s0.217,0.089,0.303,0.007
		C10.866,9.365,11.01,8.932,11.01,8.932z"/>
	<path fill="#8CC3CC" d="M10.769,9.393c-0.002,0.051-0.102,0.092-0.153,0.091c-0.051-0.001-0.138-0.041-0.136-0.092
		C10.48,9.341,10.771,9.342,10.769,9.393L10.769,9.393z"/>
	<path fill="#A2D4DE" d="M9.808,8.959c0,0-0.337,0.027-0.535,0.215C9.187,9.256,9.184,9.392,9.265,9.478
		c0.082,0.086,0.218,0.089,0.303,0.007C9.663,9.394,9.807,8.96,9.808,8.959L9.808,8.959z"/>
	<path fill="#8CC3CC" d="M9.567,9.419C9.566,9.471,9.465,9.511,9.413,9.51C9.362,9.509,9.276,9.469,9.277,9.418
		C9.278,9.366,9.568,9.367,9.567,9.419z"/>
	<path fill="#A2D4DE" d="M13.431,8.932c0,0-0.338,0.027-0.535,0.215c-0.086,0.082-0.089,0.218-0.008,0.303
		c0.082,0.085,0.218,0.089,0.303,0.007C13.285,9.365,13.431,8.932,13.431,8.932L13.431,8.932z"/>
	<path fill="#8CC3CC" d="M13.189,9.393c-0.001,0.051-0.102,0.092-0.153,0.091c-0.051-0.001-0.137-0.041-0.135-0.092
		C12.901,9.341,13.191,9.342,13.189,9.393L13.189,9.393z"/>
	<path fill="#A2D4DE" d="M12.181,8.959c0,0-0.339,0.027-0.537,0.215c-0.085,0.082-0.088,0.218-0.006,0.304s0.217,0.089,0.303,0.007
		C12.036,9.394,12.181,8.96,12.181,8.959L12.181,8.959z"/>
	<path fill="#8CC3CC" d="M11.938,9.419c0,0.052-0.103,0.092-0.153,0.091c-0.052-0.001-0.138-0.041-0.137-0.092
		C11.65,9.366,11.94,9.367,11.938,9.419z"/>
	<path fill="#A2D4DE" d="M10.944,7.745c0,0-0.338,0.027-0.535,0.214c-0.086,0.082-0.089,0.217-0.008,0.303
		c0.082,0.086,0.218,0.089,0.304,0.008C10.802,8.178,10.944,7.745,10.944,7.745z"/>
	<path fill="#8CC3CC" d="M10.703,8.205c-0.001,0.051-0.101,0.092-0.153,0.091c-0.051-0.001-0.137-0.041-0.136-0.092
		C10.415,8.151,10.705,8.153,10.703,8.205L10.703,8.205z"/>
	<path fill="#A2D4DE" d="M9.763,7.771c0,0-0.338,0.026-0.535,0.215C9.142,8.067,9.138,8.204,9.22,8.289
		c0.082,0.086,0.218,0.088,0.304,0.008C9.618,8.206,9.763,7.772,9.763,7.771L9.763,7.771z"/>
	<path fill="#8CC3CC" d="M9.521,8.231C9.521,8.283,9.419,8.324,9.367,8.322C9.316,8.321,9.23,8.282,9.231,8.23
		S9.522,8.181,9.521,8.231z"/>
	<path fill="#A2D4DE" d="M13.476,7.745c0,0-0.337,0.027-0.535,0.214c-0.086,0.082-0.088,0.217-0.008,0.303
		c0.082,0.086,0.218,0.089,0.304,0.008C13.333,8.178,13.476,7.745,13.476,7.745z"/>
	<path fill="#8CC3CC" d="M13.234,8.205c-0.001,0.051-0.102,0.092-0.153,0.091c-0.053-0.001-0.137-0.041-0.137-0.092
		C12.946,8.151,13.234,8.153,13.234,8.205z"/>
	<path fill="#A2D4DE" d="M12.062,7.771c0,0-0.339,0.026-0.535,0.215c-0.086,0.081-0.089,0.218-0.007,0.303
		c0.08,0.086,0.218,0.088,0.302,0.008C11.918,8.206,12.062,7.772,12.062,7.771L12.062,7.771z"/>
	<path fill="#8CC3CC" d="M11.821,8.231c-0.001,0.052-0.102,0.093-0.153,0.091c-0.051-0.001-0.138-0.04-0.136-0.092
		C11.533,8.179,11.823,8.181,11.821,8.231L11.821,8.231z"/>
	<path fill="#A2D4DE" d="M11.878,6.625c0,0-0.339,0.027-0.536,0.215c-0.085,0.081-0.089,0.217-0.007,0.302
		c0.082,0.086,0.217,0.09,0.303,0.008C11.731,7.059,11.877,6.625,11.878,6.625L11.878,6.625z"/>
	<path fill="#8CC3CC" d="M11.636,7.085c-0.002,0.052-0.103,0.093-0.153,0.092c-0.051-0.002-0.138-0.041-0.136-0.093
		C11.348,7.032,11.638,7.034,11.636,7.085L11.636,7.085z"/>
	<path fill="#A2D4DE" d="M10.747,6.65c0,0-0.338,0.028-0.536,0.215c-0.085,0.082-0.089,0.218-0.007,0.304
		c0.081,0.086,0.218,0.088,0.303,0.008C10.603,7.085,10.746,6.65,10.747,6.65L10.747,6.65z"/>
	<path fill="#8CC3CC" d="M10.506,7.112c-0.001,0.051-0.104,0.092-0.154,0.091s-0.137-0.041-0.136-0.092
		C10.217,7.06,10.506,7.061,10.506,7.112L10.506,7.112z"/>
	<path fill="#A2D4DE" d="M14.117,6.625c0,0-0.339,0.027-0.535,0.215c-0.086,0.081-0.089,0.217-0.007,0.302
		c0.081,0.086,0.218,0.09,0.304,0.008C13.974,7.059,14.117,6.625,14.117,6.625z"/>
	<path fill="#8CC3CC" d="M13.876,7.085c-0.001,0.052-0.102,0.093-0.153,0.092c-0.051-0.002-0.138-0.041-0.137-0.093
		S13.877,7.034,13.876,7.085z"/>
	<path fill="#A2D4DE" d="M12.95,6.65c0,0-0.337,0.028-0.535,0.215c-0.086,0.082-0.088,0.218-0.008,0.304
		c0.082,0.086,0.218,0.088,0.304,0.008C12.807,7.085,12.95,6.65,12.95,6.65z"/>
	<path fill="#8CC3CC" d="M12.71,7.112c-0.001,0.051-0.103,0.092-0.152,0.091c-0.051-0.001-0.139-0.041-0.137-0.092
		C12.423,7.06,12.712,7.061,12.71,7.112L12.71,7.112z"/>
	<path fill="#A2D4DE" d="M12.711,5.448c0,0-0.339,0.027-0.535,0.215c-0.086,0.081-0.089,0.218-0.009,0.303
		c0.082,0.084,0.219,0.089,0.305,0.007C12.566,5.882,12.711,5.448,12.711,5.448z"/>
	<path fill="#8CC3CC" d="M12.47,5.908C12.468,5.96,12.367,6.001,12.316,6s-0.137-0.041-0.136-0.093
		C12.182,5.856,12.472,5.857,12.47,5.908L12.47,5.908z"/>
	<path fill="#A2D4DE" d="M11.685,5.475c0,0-0.337,0.027-0.535,0.214c-0.086,0.082-0.088,0.218-0.008,0.303
		c0.082,0.085,0.218,0.089,0.303,0.008C11.539,5.907,11.685,5.475,11.685,5.475L11.685,5.475z"/>
	<path fill="#8CC3CC" d="M11.443,5.936c-0.001,0.051-0.103,0.092-0.153,0.091s-0.137-0.041-0.137-0.092
		C11.155,5.883,11.444,5.884,11.443,5.936z"/>
	<path fill="#A2D4DE" d="M14.737,5.388c0,0-0.339,0.027-0.536,0.214c-0.086,0.082-0.088,0.218-0.007,0.303
		c0.082,0.085,0.218,0.089,0.303,0.008C14.592,5.82,14.737,5.388,14.737,5.388L14.737,5.388z"/>
	<path fill="#8CC3CC" d="M14.496,5.849c-0.001,0.051-0.102,0.092-0.153,0.091s-0.137-0.041-0.135-0.092
		C14.208,5.796,14.498,5.797,14.496,5.849L14.496,5.849z"/>
	<path fill="#A2D4DE" d="M13.719,5.475c0,0-0.339,0.027-0.535,0.214c-0.086,0.082-0.089,0.218-0.008,0.303s0.218,0.089,0.303,0.008
		C13.574,5.907,13.718,5.475,13.719,5.475L13.719,5.475z"/>
	<path fill="#8CC3CC" d="M13.478,5.936c-0.002,0.051-0.102,0.092-0.154,0.091c-0.051-0.001-0.137-0.041-0.136-0.092
		C13.188,5.883,13.479,5.884,13.478,5.936z"/>
	<path fill="#A2D4DE" d="M12.923,4.454c0,0-0.34,0.027-0.537,0.215c-0.085,0.081-0.088,0.217-0.006,0.302
		c0.082,0.086,0.217,0.09,0.303,0.008C12.776,4.888,12.922,4.454,12.923,4.454L12.923,4.454z"/>
	<path fill="#8CC3CC" d="M12.681,4.914c0,0.052-0.102,0.093-0.152,0.092c-0.052-0.001-0.138-0.042-0.137-0.094
		c0.002-0.053,0.291-0.05,0.291,0.001L12.681,4.914z"/>
	<path fill="#A2D4DE" d="M13.87,4.451c0,0-0.339,0.026-0.535,0.214c-0.086,0.082-0.09,0.218-0.009,0.304
		c0.082,0.086,0.218,0.089,0.303,0.008c0.097-0.091,0.239-0.524,0.239-0.524L13.87,4.451z"/>
	<path fill="#8CC3CC" d="M13.628,4.911c-0.001,0.052-0.103,0.093-0.154,0.091c-0.051-0.001-0.137-0.04-0.135-0.092
		C13.339,4.857,13.629,4.859,13.628,4.911z"/>
</g>
</svg>
