<?xml version="1.0" encoding="utf-8"?>
<!-- Generated by IcoMoon.io -->
<!DOCTYPE svg PUBLIC "-//W3C//DTD SVG 1.1//EN" "http://www.w3.org/Graphics/SVG/1.1/DTD/svg11.dtd">
<svg version="1.1" xmlns="http://www.w3.org/2000/svg" xmlns:xlink="http://www.w3.org/1999/xlink" width="20" height="20" viewBox="0 0 20 20">
<path fill="rgb(163, 213, 224)" d="M19.691 10c0-5.352-4.339-9.691-9.69-9.691s-9.691 4.338-9.691 9.691c0 5.352 4.339 9.69 9.691 9.69s9.69-4.339 9.69-9.69z"></path>
<path fill="rgb(173, 131, 85)" d="M10.598 16.908c0 0.123-0.1 0.222-0.222 0.222v0c-0.123 0-0.222-0.099-0.222-0.222v-13.569c0-0.123 0.099-0.222 0.222-0.222v0c0.123 0 0.222 0.099 0.222 0.222v13.569z"></path>
<path fill="rgb(173, 131, 85)" d="M11.645 16.991c0 0.319-0.569 0.578-1.27 0.578s-1.27-0.259-1.27-0.578c0-0.319 0.569-0.578 1.27-0.578s1.27 0.259 1.27 0.578z"></path>
<path fill="rgb(112, 102, 92)" d="M12.562 4.932l-0.788 0.176c-0.149 0-0.269-0.121-0.269-0.269v-1.602c0-0.149 0.121-0.269 0.269-0.269l0.788 0.176c0 0 0.446 0.141 0.446 0.875s-0.446 0.913-0.446 0.913z"></path>
<path fill="rgb(20, 99, 97)" d="M11.952 3.008l-0.178-0.040c-0.149 0-0.269 0.121-0.269 0.269v1.602c0 0.149 0.121 0.269 0.269 0.269l0.169-0.038c0.052-0.28 0.084-0.651 0.084-1.058 0-0.382-0.028-0.731-0.074-1.004z"></path>
<path fill="rgb(112, 102, 92)" d="M11.871 4.012c0 0.873-0.145 1.581-0.325 1.581s-0.325-0.708-0.325-1.581c0-0.873 0.145-1.581 0.325-1.581s0.325 0.708 0.325 1.581z"></path>
<path fill="rgb(58, 54, 51)" d="M11.744 4.012c0 0.531-0.088 0.962-0.198 0.962s-0.198-0.431-0.198-0.962c0-0.531 0.088-0.962 0.198-0.962s0.198 0.431 0.198 0.962z"></path>
<path fill="rgb(173, 131, 85)" d="M11.645 3.178l-1.332 1.322c-0.036 0.036-0.036 0.094 0 0.13s0.094 0.036 0.13 0l1.253-1.244c-0.015-0.083-0.032-0.153-0.052-0.208z"></path>
<path fill="rgb(173, 131, 85)" d="M8.961 3.035c-0.036-0.036-0.094-0.036-0.13 0v0c-0.036 0.036-0.036 0.094 0 0.13l1.476 1.465c0.036 0.036 0.094 0.036 0.13 0v0c0.036-0.036 0.036-0.094 0-0.13l-1.476-1.465z"></path>
<path fill="rgb(173, 131, 85)" d="M11.789 6.317c0.036-0.036 0.094-0.036 0.13 0v0c0.036 0.036 0.036 0.094 0 0.13l-1.476 1.465c-0.036 0.036-0.094 0.036-0.13 0v0c-0.036-0.036-0.036-0.094 0-0.13l1.476-1.465z"></path>
<path fill="rgb(15, 48, 46)" d="M7.891 12.078l0.028 0.776c0 0 0.254 0.621 1.807 0.621 0 0 1.101-8.016-1.214-9.767 0 0-0.635 0.889-0.734 1.129s0.113 7.24 0.113 7.24z"></path>
<path fill="rgb(20, 99, 97)" d="M7.891 11.937l0.028 0.917c0 0 0.254 0.48 1.807 0.48 0 0 1.101-8.016-1.214-9.767 0 0-0.635 0.889-0.734 1.129s0.113 7.24 0.113 7.24z"></path>
<path fill="rgb(15, 48, 46)" d="M9.328 9.632l-0.581-0.246c-0.019-0.008-0.041-0.008-0.060-0s-0.035 0.023-0.043 0.042l-0.702 1.66c-0.017 0.040 0.002 0.086 0.042 0.103l0.581 0.246c0.010 0.004 0.020 0.006 0.031 0.006s0.020-0.002 0.030-0.006c0.019-0.008 0.035-0.023 0.043-0.042l0.702-1.66c0.017-0.040-0.002-0.086-0.042-0.103z"></path>
<path fill="rgb(20, 99, 97)" d="M8.711 9.435l0.576 0.243-0.717 1.696-0.576-0.243 0.717-1.696z"></path>
<path fill="rgb(16, 81, 78)" d="M8.512 3.568c0 0-0.635 0.889-0.734 1.129-0.028 0.067 0.2 0.146 0.492 0.185l0.242-1.314z"></path>
<path fill="rgb(15, 48, 46)" d="M8.191 11.833c0.026-0.028 0.181-0.341 0.228-0.868 0.007-0.083-0.116-0.127-0.116-0.127 0.166-1.965 0.492-5.901 0.492-5.901-0.196-0.333-0.833-0.48-0.931-0.24s-0.423 1.835-0.494 2.766c-0.071 0.932 0.522 4.402 0.522 4.402l0.3-0.032z"></path>
<path fill="rgb(20, 99, 97)" d="M8.131 11.796l0.579-6.859c-0.196-0.333-0.833-0.48-0.931-0.24s-0.424 1.835-0.494 2.766c-0.071 0.932-0.169 4.46-0.169 4.46l1.016-0.127z"></path>
<path fill="rgb(20, 99, 97)" d="M8.307 10.965c-0.012-0.014-0.030-0.022-0.048-0.022l-1.2-0.001c-0.034 0-0.062 0.027-0.063 0.062-0.017 0.541 0.054 0.916 0.058 0.932 0.006 0.030 0.032 0.051 0.062 0.051 0.003 0 0.005-0 0.008-0.001l1.016-0.127c0.028-0.004 0.050-0.025 0.055-0.053l0.127-0.79c0.003-0.018-0.002-0.037-0.014-0.051z"></path>
<path fill="rgb(16, 81, 78)" d="M7.807 8.013c0.184-1.755 0.563-3.36 0.48-3.388-0.223-0.076-0.452-0.064-0.508 0.072-0.099 0.24-0.424 1.835-0.494 2.766-0.047 0.615-0.106 2.363-0.14 3.479l0.482 0c0.021-0.754 0.069-1.867 0.181-2.929z"></path>
<path fill="rgb(15, 48, 46)" d="M8.075 3.088l0.896-0.176 1.009 3.677-0.967-0.233 0.24-1.284-0.677 0.042 0.071-1.284z"></path>
<path fill="rgb(20, 99, 97)" d="M8.075 3.088l0.96-0.24 0.946 3.74-0.903-0.296 0.24-1.284-0.678 0.042 0.071-1.284z"></path>
<path fill="rgb(15, 48, 46)" d="M9.888 7.153l0.092-0.564-0.962-0.231 0.813 0.358z"></path>
<path fill="rgb(15, 48, 46)" d="M8.075 3.088l0.219 0.79 0.374 0.55 0.042-0.663z"></path>
<path fill="rgb(15, 48, 46)" d="M9.543 6.038c0 0.074-0.060 0.134-0.134 0.134s-0.134-0.060-0.134-0.134c0-0.074 0.060-0.134 0.134-0.134s0.134 0.060 0.134 0.134z"></path>
<path fill="rgb(20, 99, 97)" d="M9.458 6.038c0 0.027-0.022 0.049-0.049 0.049s-0.049-0.022-0.049-0.049c0-0.027 0.022-0.049 0.049-0.049s0.049 0.022 0.049 0.049z"></path>
<path fill="rgb(15, 48, 46)" d="M9.719 7.456c0 0.074-0.060 0.134-0.134 0.134s-0.134-0.060-0.134-0.134c0-0.074 0.060-0.134 0.134-0.134s0.134 0.060 0.134 0.134z"></path>
<path fill="rgb(20, 99, 97)" d="M9.634 7.456c0 0.027-0.022 0.049-0.049 0.049s-0.049-0.022-0.049-0.049c0-0.027 0.022-0.049 0.049-0.049s0.049 0.022 0.049 0.049z"></path>
<path fill="rgb(15, 48, 46)" d="M9.719 8.769c0 0.074-0.060 0.134-0.134 0.134s-0.134-0.060-0.134-0.134c0-0.074 0.060-0.134 0.134-0.134s0.134 0.060 0.134 0.134z"></path>
<path fill="rgb(20, 99, 97)" d="M9.634 8.769c0 0.027-0.022 0.049-0.049 0.049s-0.049-0.022-0.049-0.049c0-0.027 0.022-0.049 0.049-0.049s0.049 0.022 0.049 0.049z"></path>
<path fill="rgb(15, 48, 46)" d="M9.719 10.081c0 0.074-0.060 0.134-0.134 0.134s-0.134-0.060-0.134-0.134c0-0.074 0.060-0.134 0.134-0.134s0.134 0.060 0.134 0.134z"></path>
<path fill="rgb(20, 99, 97)" d="M9.634 10.081c0 0.027-0.022 0.049-0.049 0.049s-0.049-0.022-0.049-0.049c0-0.027 0.022-0.049 0.049-0.049s0.049 0.022 0.049 0.049z"></path>
<path fill="rgb(15, 48, 46)" d="M8.675 10.222c0 0.051-0.041 0.092-0.092 0.092s-0.092-0.041-0.092-0.092c0-0.051 0.041-0.092 0.092-0.092s0.092 0.041 0.092 0.092z"></path>
<path fill="rgb(20, 99, 97)" d="M8.617 10.222c0 0.019-0.015 0.034-0.034 0.034s-0.034-0.015-0.034-0.034c0-0.019 0.015-0.034 0.034-0.034s0.034 0.015 0.034 0.034z"></path>
</svg>
