<?xml version="1.0" encoding="utf-8"?>
<!-- Generated by IcoMoon.io -->
<!DOCTYPE svg PUBLIC "-//W3C//DTD SVG 1.1//EN" "http://www.w3.org/Graphics/SVG/1.1/DTD/svg11.dtd">
<svg version="1.1" xmlns="http://www.w3.org/2000/svg" xmlns:xlink="http://www.w3.org/1999/xlink" width="20" height="20" viewBox="0 0 20 20">
<path fill="rgb(37, 183, 211)" d="M19.691 10c0-5.352-4.339-9.691-9.69-9.691s-9.691 4.338-9.691 9.691c0 5.352 4.339 9.69 9.691 9.69s9.69-4.339 9.69-9.69z"></path>
<path fill="rgb(68, 65, 63)" d="M10.699 17.603c0 0.312-0.252 0.564-0.564 0.564h-0.282c-0.311 0-0.564-0.252-0.564-0.564l0.123-10.729c0-0.311 0.357-0.564 0.512-0.564h0.14c0.155 0 0.512 0.252 0.512 0.564l0.123 10.729z"></path>
<path fill="rgb(68, 65, 63)" d="M12.427 2.663c0 0.717-0.027 2.585-0.177 3.547-0.252 1.621-0.851 2.282-2.251 2.282-1.384 0-1.985-0.626-2.242-2.226-0.157-0.979-0.186-2.872-0.186-3.603-0-0.602 4.855-0.632 4.855-0z"></path>
<path fill="rgb(51, 77, 92)" d="M10.285 17.496c0 0.162-0.131 0.293-0.293 0.293s-0.293-0.131-0.293-0.293c0-0.162 0.131-0.293 0.293-0.293s0.293 0.131 0.293 0.293z"></path>
<path fill="rgb(40, 39, 38)" d="M9.992 17.652c-0.138 0-0.254-0.096-0.285-0.225-0.005 0.022-0.008 0.045-0.008 0.068 0 0.162 0.131 0.293 0.293 0.293s0.293-0.131 0.293-0.293c0-0.024-0.003-0.046-0.008-0.068-0.031 0.129-0.146 0.225-0.285 0.225z"></path>
<path fill="rgb(72, 161, 175)" d="M9.992 17.652c0.138 0 0.254-0.096 0.285-0.225-0.031-0.129-0.146-0.225-0.285-0.225s-0.254 0.096-0.285 0.225c0.031 0.129 0.146 0.225 0.285 0.225z"></path>
<path fill="rgb(72, 161, 175)" d="M8.681 5.845c0 0.199-0.1 0.36-0.224 0.36v0c-0.124 0-0.224-0.161-0.224-0.36l-0.098-2.637c0-0.199 0.106-0.36 0.236-0.36v0c0.131 0 0.236 0.161 0.236 0.36l0.073 2.637z"></path>
<path fill="rgb(72, 161, 175)" d="M9.71 5.845c0 0.199-0.1 0.36-0.224 0.36v0c-0.124 0-0.224-0.161-0.224-0.36l-0.041-2.637c0-0.199 0.106-0.36 0.236-0.36v0c0.131 0 0.236 0.161 0.236 0.36l0.016 2.637z"></path>
<path fill="rgb(72, 161, 175)" d="M10.738 5.845c0 0.199-0.1 0.36-0.224 0.36v0c-0.124 0-0.224-0.161-0.224-0.36l0.016-2.637c0-0.199 0.106-0.36 0.236-0.36v0c0.131 0 0.236 0.161 0.236 0.36l-0.041 2.637z"></path>
<path fill="rgb(72, 161, 175)" d="M11.767 5.845c0 0.199-0.1 0.36-0.224 0.36v0c-0.124 0-0.224-0.161-0.224-0.36l0.074-2.637c0-0.199 0.106-0.36 0.236-0.36v0c0.131 0 0.236 0.161 0.236 0.36l-0.099 2.637z"></path>
<path fill="rgb(40, 39, 38)" d="M8.457 6.048c-0.124 0-0.224-0.161-0.224-0.36v0.156c0 0.199 0.1 0.36 0.224 0.36s0.224-0.161 0.224-0.36l-0.003-0.102c-0.016 0.173-0.109 0.305-0.221 0.305z"></path>
<path fill="rgb(40, 39, 38)" d="M9.486 6.048c-0.124 0-0.224-0.161-0.224-0.36v0.156c0 0.199 0.1 0.36 0.224 0.36s0.224-0.161 0.224-0.36l-0.001-0.131c-0.008 0.187-0.105 0.334-0.223 0.334z"></path>
<path fill="rgb(40, 39, 38)" d="M10.514 6.048c-0.118 0-0.215-0.147-0.223-0.334l-0.001 0.131c0 0.199 0.1 0.36 0.224 0.36s0.224-0.161 0.224-0.36v-0.156c0 0.199-0.1 0.36-0.224 0.36z"></path>
<path fill="rgb(40, 39, 38)" d="M11.767 5.689c0 0.199-0.1 0.36-0.224 0.36-0.112 0-0.205-0.132-0.221-0.305l-0.003 0.102c0 0.199 0.1 0.36 0.224 0.36s0.224-0.161 0.224-0.36v-0.156z"></path>
</svg>
