<?xml version="1.0" encoding="utf-8"?>
<!-- Generated by IcoMoon.io -->
<!DOCTYPE svg PUBLIC "-//W3C//DTD SVG 1.1//EN" "http://www.w3.org/Graphics/SVG/1.1/DTD/svg11.dtd">
<svg version="1.1" xmlns="http://www.w3.org/2000/svg" xmlns:xlink="http://www.w3.org/1999/xlink" width="20" height="20" viewBox="0 0 20 20">
<path fill="rgb(250, 188, 61)" d="M19.691 10c0-5.352-4.339-9.691-9.69-9.691s-9.691 4.338-9.691 9.691c0 5.352 4.339 9.69 9.691 9.69s9.69-4.339 9.69-9.69z"></path>
<path fill="rgb(173, 131, 85)" d="M18.532 10.020c0-0.244-0.518-0.469-1.133-0.469-0.801 0-1.27 0.156-1.816 0.156s-0.879-0.273-0.879-0.488 0 1.821 0 1.606 0.332-0.488 0.879-0.488 1.016 0.156 1.816 0.156c0.615 0 1.133-0.225 1.133-0.469v-0.005z"></path>
<path fill="rgb(173, 131, 85)" d="M1.468 10.020c0-0.244 0.518-0.469 1.133-0.469 0.801 0 1.27 0.156 1.816 0.156s0.879-0.273 0.879-0.488 0 1.821 0 1.606-0.332-0.488-0.879-0.488-1.016 0.156-1.816 0.156c-0.615 0-1.133-0.225-1.133-0.469v-0.005z"></path>
<path fill="rgb(193, 146, 99)" d="M14.578 8.721h-9.156c-0.209 0-0.209 2.559 0 2.559h9.156c0.209 0 0.209-2.559-0-2.559z"></path>
<path fill="rgb(204, 167, 131)" d="M18.347 9.989c-0.024 0.089-0.259 0.102-0.524 0.030s-0.461-0.202-0.437-0.29c0.024-0.089 0.259-0.102 0.524-0.030s0.461 0.202 0.437 0.29z"></path>
</svg>
