<?xml version="1.0" encoding="utf-8"?>
<!-- Generated by IcoMoon.io -->
<!DOCTYPE svg PUBLIC "-//W3C//DTD SVG 1.1//EN" "http://www.w3.org/Graphics/SVG/1.1/DTD/svg11.dtd">
<svg version="1.1" xmlns="http://www.w3.org/2000/svg" xmlns:xlink="http://www.w3.org/1999/xlink" width="20" height="20" viewBox="0 0 20 20">
<path fill="rgb(250, 188, 61)" d="M19.691 10c0-5.352-4.339-9.691-9.69-9.691s-9.691 4.338-9.691 9.691c0 5.352 4.339 9.69 9.691 9.69s9.69-4.339 9.69-9.69z"></path>
<path fill="rgb(102, 98, 93)" d="M8.17 6.63c-0.020 0-0.040-0.005-0.058-0.015-0.056-0.032-0.076-0.104-0.044-0.16l1.816-3.182c0.032-0.056 0.104-0.076 0.16-0.044s0.076 0.104 0.044 0.16l-1.816 3.182c-0.022 0.038-0.061 0.059-0.102 0.059z"></path>
<path fill="rgb(102, 98, 93)" d="M11.803 6.63c-0.041 0-0.080-0.021-0.102-0.059l-1.816-3.182c-0.032-0.056-0.013-0.128 0.044-0.16s0.128-0.012 0.16 0.044l1.816 3.182c0.032 0.056 0.013 0.128-0.044 0.16-0.018 0.010-0.038 0.015-0.058 0.015z"></path>
<path fill="rgb(173, 131, 85)" d="M3.997 6.24h12.005v8.516h-12.005v-8.516z"></path>
<path fill="rgb(139, 214, 33)" d="M4.522 11.878h10.956v2.428h-10.956v-2.428z"></path>
<path fill="rgb(163, 213, 224)" d="M4.522 6.689h10.956v5.189h-10.956v-5.189z"></path>
<path fill="rgb(100, 168, 13)" d="M8.32 9.417c0 0.777-0.536 1.406-1.198 1.406s-1.198-0.63-1.198-1.406c0-0.777 0.536-1.406 1.198-1.406s1.198 0.63 1.198 1.406z"></path>
<path fill="rgb(91, 79, 63)" d="M7.122 12.73c-0.032 0-0.059-0.026-0.059-0.059v-3.255c0-0.032 0.026-0.059 0.059-0.059s0.059 0.026 0.059 0.059v3.255c0 0.032-0.026 0.059-0.059 0.059z"></path>
<path fill="rgb(91, 79, 63)" d="M7.122 10.055c-0 0-0.001 0-0.001 0-0.017-0-0.033-0.008-0.044-0.022l-0.566-0.703c-0.020-0.025-0.016-0.062 0.009-0.082s0.062-0.016 0.082 0.009l0.523 0.649 0.579-0.651c0.021-0.024 0.059-0.026 0.083-0.005s0.026 0.059 0.005 0.083l-0.625 0.703c-0.011 0.013-0.027 0.020-0.044 0.020z"></path>
<path fill="rgb(100, 168, 13)" d="M11.048 9.736c0 0.935-0.402 1.693-0.898 1.693s-0.898-0.758-0.898-1.693c0-0.935 0.402-1.693 0.898-1.693s0.898 0.758 0.898 1.693z"></path>
<path fill="rgb(91, 79, 63)" d="M10.15 12.73c-0.032 0-0.059-0.026-0.059-0.059v-2.65c0-0.032 0.026-0.059 0.059-0.059s0.059 0.026 0.059 0.059v2.65c0 0.032-0.026 0.059-0.059 0.059z"></path>
<path fill="rgb(91, 79, 63)" d="M10.15 10.66c-0 0-0.001 0-0.001 0-0.017-0-0.033-0.008-0.044-0.022l-0.566-0.703c-0.020-0.025-0.016-0.062 0.009-0.082s0.062-0.016 0.082 0.009l0.523 0.649 0.579-0.651c0.021-0.024 0.059-0.026 0.083-0.005s0.026 0.059 0.005 0.083l-0.625 0.703c-0.011 0.013-0.027 0.020-0.044 0.020z"></path>
<path fill="rgb(100, 168, 13)" d="M14.076 10.126c0 0.478-0.402 0.866-0.898 0.866s-0.898-0.388-0.898-0.866c0-0.478 0.402-0.866 0.898-0.866s0.898 0.388 0.898 0.866z"></path>
<path fill="rgb(91, 79, 63)" d="M13.177 12.73c-0.032 0-0.059-0.026-0.059-0.059v-2.65c0-0.032 0.026-0.059 0.059-0.059s0.059 0.026 0.059 0.059v2.65c0 0.032-0.026 0.059-0.059 0.059z"></path>
<path fill="rgb(91, 79, 63)" d="M13.177 10.66c-0 0-0.001 0-0.001 0-0.017-0-0.033-0.008-0.044-0.022l-0.566-0.703c-0.020-0.025-0.016-0.062 0.009-0.082s0.062-0.016 0.082 0.009l0.523 0.649 0.579-0.651c0.021-0.024 0.059-0.026 0.083-0.005s0.026 0.059 0.005 0.083l-0.625 0.703c-0.011 0.013-0.027 0.020-0.044 0.020z"></path>
</svg>
