<?xml version="1.0" encoding="utf-8"?>
<!-- Generated by IcoMoon.io -->
<!DOCTYPE svg PUBLIC "-//W3C//DTD SVG 1.1//EN" "http://www.w3.org/Graphics/SVG/1.1/DTD/svg11.dtd">
<svg version="1.1" xmlns="http://www.w3.org/2000/svg" xmlns:xlink="http://www.w3.org/1999/xlink" width="20" height="20" viewBox="0 0 20 20">
<path fill="rgb(250, 188, 61)" d="M19.691 10c0-5.352-4.339-9.691-9.69-9.691s-9.691 4.338-9.691 9.691c0 5.352 4.339 9.69 9.691 9.69s9.69-4.339 9.69-9.69z"></path>
<path fill="rgb(206, 62, 62)" d="M5.4 16.404c-0.022 0-0.045-0.004-0.068-0.012-0.101-0.037-0.153-0.149-0.116-0.25v0c0.004-0.012 0.413-1.199-0.437-3.082-0.442-0.978-0.687-1.773-0.75-2.43-0.084-0.876 0.16-1.52 0.726-1.913 0.544-0.377 1.061-0.493 1.536-0.343 0.832 0.261 1.204 1.241 1.219 1.282 0.038 0.101-0.014 0.214-0.115 0.251s-0.214-0.014-0.251-0.115c-0.003-0.008-0.323-0.843-0.971-1.046-0.354-0.111-0.756-0.012-1.195 0.292-0.812 0.564-0.761 1.827 0.158 3.861 0.922 2.041 0.468 3.324 0.448 3.377-0.029 0.079-0.104 0.128-0.183 0.128z"></path>
<path fill="rgb(234, 73, 73)" d="M13.525 15.483h-6.875l0.469-5.917h5.937z"></path>
<path fill="rgb(234, 73, 73)" d="M12 5.17c-0.439-3.659-3.431-3.664-3.824 0-0.397 3.695-1.056 4.395-1.056 4.395h5.937c0 0-0.617-0.739-1.057-4.395z"></path>
<path fill="rgb(235, 151, 131)" d="M10.078 2.817c-1.292 0-1.512 2.549-1.512 2.549h3.046c0 0-0.241-2.549-1.533-2.549z"></path>
<path fill="rgb(244, 105, 105)" d="M12.093 10.836h-4.009c-0.043 0-0.078 0.035-0.078 0.078v1.009c0 0.013 0.003 0.027 0.010 0.038 0.023 0.041 0.585 1.014 2.072 1.014s2.050-0.973 2.073-1.014c0.007-0.012 0.010-0.025 0.010-0.038v-1.009c0-0.043-0.035-0.078-0.078-0.078z"></path>
<path fill="rgb(234, 73, 73)" d="M11.893 10.982h-3.608c-0.039 0-0.070 0.031-0.070 0.070v0.804c0 0.012 0.003 0.024 0.009 0.034 0.021 0.037 0.527 0.913 1.865 0.913s1.845-0.875 1.866-0.913c0.006-0.011 0.009-0.022 0.009-0.034v-0.804c0-0.039-0.031-0.070-0.070-0.070z"></path>
<path fill="rgb(234, 73, 73)" d="M12.069 14.292c0.046 0.538 0.457 0.974 0.704 1.191h0.752l-0.224-2.823c-0.281 0.141-0.525 0.282-0.682 0.434-0.4 0.388-0.585 0.791-0.55 1.198z"></path>
<path fill="rgb(206, 62, 62)" d="M12.738 15.954c0.034 0.023 0.072 0.034 0.11 0.034 0.062 0 0.124-0.030 0.162-0.085 0.061-0.089 0.038-0.211-0.051-0.271-0.002-0.002-0.079-0.054-0.185-0.148h-0.551c0.25 0.287 0.497 0.457 0.517 0.471z"></path>
<path fill="rgb(206, 62, 62)" d="M15.929 9.732c-0.164-0.694-0.484-1.113-0.951-1.246-0.726-0.207-1.602 0.371-2.092 0.766 0.104 0.234 0.17 0.313 0.17 0.313l0.004 0.049c0.468-0.389 1.258-0.91 1.811-0.752 0.32 0.091 0.548 0.414 0.677 0.96 0.288 1.217-0.846 1.747-1.944 2.26-0.114 0.053-0.227 0.106-0.337 0.159l0.033 0.419c0.148-0.074 0.307-0.149 0.469-0.224 1.123-0.525 2.52-1.178 2.158-2.704z"></path>
<path fill="rgb(206, 62, 62)" d="M12.348 12.813c-0.489 0.474-0.713 0.983-0.668 1.512 0.041 0.474 0.293 0.873 0.541 1.157h0.551c-0.247-0.217-0.657-0.653-0.704-1.191-0.035-0.407 0.15-0.81 0.55-1.198 0.157-0.152 0.401-0.294 0.682-0.434l-0.033-0.419c-0.368 0.178-0.699 0.358-0.921 0.573z"></path>
</svg>
