<?xml version="1.0" encoding="utf-8"?>
<!-- Generated by IcoMoon.io -->
<!DOCTYPE svg PUBLIC "-//W3C//DTD SVG 1.1//EN" "http://www.w3.org/Graphics/SVG/1.1/DTD/svg11.dtd">
<svg version="1.1" xmlns="http://www.w3.org/2000/svg" xmlns:xlink="http://www.w3.org/1999/xlink" width="20" height="20" viewBox="0 0 20 20">
<path fill="rgb(250, 188, 61)" d="M19.691 10c0-5.352-4.339-9.691-9.69-9.691s-9.691 4.338-9.691 9.691c0 5.352 4.339 9.69 9.691 9.69s9.69-4.339 9.69-9.69z"></path>
<path fill="rgb(86, 86, 86)" d="M12.262 9.149l-0.624-0.555h-3.311l-0.624 0.555z"></path>
<path fill="rgb(58, 58, 60)" d="M15.694 13.206c0 0-2.774-2.15-3.433-4.057h-4.559c-0.659 1.907-3.433 4.057-3.433 4.057h11.425z"></path>
<path fill="rgb(58, 58, 60)" d="M11.464 7.676h-2.964l-0.173 0.919h3.311z"></path>
<path fill="rgb(44, 44, 45)" d="M4.269 13.206h11.425v0.428h-11.425v-0.428z"></path>
<path fill="rgb(58, 58, 60)" d="M3.871 13.622h12.222v1.381h-12.222v-1.381z"></path>
<path fill="rgb(38, 38, 38)" d="M17.113 7.312c-0.291-0.595-3.481-2.315-7.111-2.315-3.636 0-6.83 1.72-7.121 2.315-0.264 0.539 0.153 2.145 0.201 2.326 0.014 0.052 0.065 0.085 0.119 0.076l3.479-0.636c0.051-0.009 0.087-0.055 0.085-0.107l-0.069-1.659c0.033-0.576 0.362-0.662 0.556-0.662 0.024 0 0.040 0.002 0.042 0.002 0.004 0.001 0.009 0.001 0.013 0.001l2.696 0.035 2.683-0.035c0.004-0 0.008-0 0.012-0.001 0.003-0 0.018-0.002 0.043-0.002 0.194 0 0.523 0.086 0.556 0.662l-0.069 1.659c-0.002 0.052 0.034 0.097 0.085 0.107l3.479 0.636c0.006 0.001 0.013 0.002 0.019 0.002 0.046 0 0.088-0.031 0.1-0.077 0.048-0.181 0.465-1.787 0.201-2.326z"></path>
<path fill="rgb(58, 58, 60)" d="M12.309 5.578c-0 0-0.001 0-0.001 0-0.191 0-0.346 0.154-0.347 0.345-0.001 0.304-0.071 0.806-0.198 0.959-0.175 0.211-0.639 0.221-1.667 0.221-0.009 0-0.218 0-0.227 0-1.028 0-1.492-0.011-1.667-0.221-0.132-0.159-0.196-0.666-0.198-0.959-0.001-0.191-0.156-0.345-0.347-0.345-0 0-0.001 0-0.001 0-0.191 0.001-0.346 0.157-0.345 0.348 0.001 0.162 0.021 0.993 0.357 1.399 0.384 0.463 0.98 0.472 2.153 0.472 0.025 0 0.297 0 0.322 0 1.173 0 1.77-0.010 2.153-0.472 0.336-0.406 0.357-1.236 0.357-1.399 0.001-0.192-0.154-0.347-0.345-0.348z"></path>
<path fill="rgb(58, 58, 60)" d="M17.239 8.423l-4.001-0.751c-0.065-0.012-0.128 0.031-0.141 0.096l-0.239 1.275c-0.006 0.031 0.001 0.064 0.019 0.090s0.046 0.044 0.077 0.050l4.001 0.751c0.007 0.001 0.015 0.002 0.022 0.002 0.024 0 0.048-0.007 0.068-0.021 0.026-0.018 0.045-0.046 0.050-0.077l0.239-1.275c0.012-0.065-0.031-0.128-0.096-0.14z"></path>
<path fill="rgb(58, 58, 60)" d="M2.761 8.423l4.001-0.751c0.065-0.012 0.128 0.031 0.141 0.096l0.239 1.275c0.006 0.031-0.001 0.064-0.019 0.090s-0.046 0.044-0.077 0.050l-4.001 0.751c-0.007 0.001-0.015 0.002-0.022 0.002-0.024 0-0.048-0.007-0.068-0.021-0.026-0.018-0.045-0.046-0.050-0.077l-0.239-1.275c-0.012-0.065 0.031-0.128 0.096-0.14z"></path>
<path fill="rgb(38, 38, 38)" d="M7.373 10.744c0-1.208 1.183-1.329 2.557-1.329s2.557 0.121 2.557 1.329c0 1.93-1.183 2.67-2.557 2.67s-2.557-0.74-2.557-2.67z"></path>
<path fill="rgb(219, 219, 211)" d="M12.487 10.744c0 1.13-1.145 2.046-2.557 2.046s-2.557-0.916-2.557-2.046c0-1.13 1.145-2.046 2.557-2.046s2.557 0.916 2.557 2.046z"></path>
<path fill="rgb(198, 198, 196)" d="M11.424 10.744c0 0.66-0.669 1.195-1.494 1.195s-1.494-0.535-1.494-1.195c0-0.66 0.669-1.195 1.494-1.195s1.494 0.535 1.494 1.195z"></path>
<path fill="rgb(219, 219, 211)" d="M11.285 10.744c0 0.599-0.607 1.084-1.355 1.084s-1.355-0.485-1.355-1.084c0-0.599 0.607-1.084 1.355-1.084s1.355 0.485 1.355 1.084z"></path>
<path fill="rgb(196, 181, 150)" d="M10.984 10.744c0 0.466-0.472 0.844-1.055 0.844s-1.055-0.378-1.055-0.844c0-0.466 0.472-0.844 1.055-0.844s1.055 0.378 1.055 0.844z"></path>
<path fill="rgb(196, 181, 150)" d="M10.262 9.114c0 0.168-0.149 0.305-0.332 0.305s-0.332-0.136-0.332-0.305c0-0.168 0.149-0.305 0.332-0.305s0.332 0.136 0.332 0.305z"></path>
<path fill="rgb(178, 161, 132)" d="M9.93 9.353c0.184 0 0.276-0.068 0.276-0.068-0.060 0.081-0.161 0.134-0.276 0.134s-0.216-0.053-0.276-0.134c0 0 0.092 0.068 0.276 0.068z"></path>
<path fill="rgb(196, 181, 150)" d="M10.262 12.351c0 0.168-0.149 0.305-0.332 0.305s-0.332-0.136-0.332-0.305c0-0.168 0.149-0.305 0.332-0.305s0.332 0.136 0.332 0.305z"></path>
<path fill="rgb(178, 161, 132)" d="M9.93 12.589c0.184 0 0.276-0.068 0.276-0.068-0.060 0.081-0.161 0.134-0.276 0.134s-0.216-0.053-0.276-0.134c0 0 0.092 0.068 0.276 0.068z"></path>
<path fill="rgb(196, 181, 150)" d="M8.263 10.675c0 0.168-0.149 0.305-0.332 0.305s-0.332-0.136-0.332-0.305c0-0.168 0.149-0.305 0.332-0.305s0.332 0.136 0.332 0.305z"></path>
<path fill="rgb(178, 161, 132)" d="M7.93 10.913c0.183 0 0.276-0.068 0.276-0.068-0.060 0.081-0.161 0.134-0.276 0.134s-0.216-0.053-0.276-0.134c0 0 0.092 0.068 0.276 0.068z"></path>
<path fill="rgb(196, 181, 150)" d="M11.643 10.675c0-0.168 0.149-0.305 0.332-0.305s0.332 0.136 0.332 0.305c0 0.168-0.149 0.305-0.332 0.305s-0.332-0.136-0.332-0.305z"></path>
<path fill="rgb(178, 161, 132)" d="M11.976 10.913c0.183 0 0.275-0.068 0.275-0.068-0.060 0.081-0.161 0.134-0.275 0.134s-0.216-0.053-0.276-0.134c0 0 0.092 0.068 0.276 0.068z"></path>
<path fill="rgb(196, 181, 150)" d="M12.028 11.484c0 0.168-0.149 0.305-0.332 0.305s-0.332-0.136-0.332-0.305c0-0.168 0.149-0.305 0.332-0.305s0.332 0.136 0.332 0.305z"></path>
<path fill="rgb(178, 161, 132)" d="M11.695 11.722c0.183 0 0.276-0.068 0.276-0.068-0.060 0.081-0.161 0.134-0.276 0.134s-0.216-0.053-0.276-0.134c0 0 0.092 0.068 0.276 0.068z"></path>
<path fill="rgb(196, 181, 150)" d="M8.482 11.484c0 0.168-0.149 0.305-0.332 0.305s-0.332-0.136-0.332-0.305c0-0.168 0.149-0.305 0.332-0.305s0.332 0.136 0.332 0.305z"></path>
<path fill="rgb(178, 161, 132)" d="M8.15 11.722c0.184 0 0.276-0.068 0.276-0.068-0.060 0.081-0.161 0.134-0.276 0.134s-0.216-0.053-0.276-0.134c0 0 0.092 0.068 0.276 0.068z"></path>
<path fill="rgb(196, 181, 150)" d="M11.268 12.116c0 0.168-0.149 0.305-0.332 0.305s-0.332-0.136-0.332-0.305c0-0.168 0.149-0.305 0.332-0.305s0.332 0.136 0.332 0.305z"></path>
<path fill="rgb(178, 161, 132)" d="M10.935 12.355c0.184 0 0.276-0.068 0.276-0.068-0.060 0.081-0.161 0.134-0.276 0.134s-0.216-0.053-0.276-0.134c0-0 0.092 0.068 0.276 0.068z"></path>
<path fill="rgb(196, 181, 150)" d="M9.222 12.116c0 0.168-0.149 0.305-0.332 0.305s-0.332-0.136-0.332-0.305c0-0.168 0.149-0.305 0.332-0.305s0.332 0.136 0.332 0.305z"></path>
<path fill="rgb(178, 161, 132)" d="M8.89 12.355c0.184 0 0.276-0.068 0.276-0.068-0.060 0.081-0.161 0.134-0.276 0.134s-0.216-0.053-0.276-0.134c0-0 0.092 0.068 0.276 0.068z"></path>
<path fill="rgb(196, 181, 150)" d="M11.291 9.346c0 0.168-0.149 0.305-0.332 0.305s-0.332-0.136-0.332-0.305c0-0.168 0.149-0.305 0.332-0.305s0.332 0.136 0.332 0.305z"></path>
<path fill="rgb(178, 161, 132)" d="M10.958 9.584c0.184 0 0.276-0.068 0.276-0.068-0.060 0.081-0.161 0.134-0.276 0.134s-0.216-0.053-0.276-0.134c0 0 0.092 0.068 0.276 0.068z"></path>
<path fill="rgb(196, 181, 150)" d="M11.984 9.889c0 0.168-0.149 0.305-0.332 0.305s-0.332-0.136-0.332-0.305c0-0.168 0.149-0.305 0.332-0.305s0.332 0.136 0.332 0.305z"></path>
<path fill="rgb(178, 161, 132)" d="M11.652 10.127c0.183 0 0.276-0.068 0.276-0.068-0.060 0.081-0.161 0.134-0.276 0.134s-0.216-0.053-0.276-0.134c0 0 0.092 0.068 0.276 0.068z"></path>
<path fill="rgb(196, 181, 150)" d="M9.254 9.346c0 0.168-0.149 0.305-0.332 0.305s-0.332-0.136-0.332-0.305c0-0.168 0.149-0.305 0.332-0.305s0.332 0.136 0.332 0.305z"></path>
<path fill="rgb(178, 161, 132)" d="M8.921 9.584c0.184 0 0.276-0.068 0.276-0.068-0.060 0.081-0.161 0.134-0.276 0.134s-0.216-0.053-0.276-0.134c0 0 0.092 0.068 0.276 0.068z"></path>
<path fill="rgb(196, 181, 150)" d="M8.543 9.889c0 0.168-0.149 0.305-0.332 0.305s-0.332-0.136-0.332-0.305c0-0.168 0.149-0.305 0.332-0.305s0.332 0.136 0.332 0.305z"></path>
<path fill="rgb(178, 161, 132)" d="M8.211 10.127c0.184 0 0.276-0.068 0.276-0.068-0.060 0.081-0.161 0.134-0.276 0.134s-0.216-0.053-0.275-0.134c0 0 0.092 0.068 0.275 0.068z"></path>
<path fill="rgb(181, 181, 177)" d="M11.666 12.008c0.143 0.213 0.105 0.273 0.038 0.319s-0.141 0.059-0.283-0.154c-0.143-0.213-0.302-0.571-0.234-0.617s0.337 0.239 0.479 0.452z"></path>
</svg>
