<?xml version="1.0" encoding="utf-8"?>
<!-- Generated by IcoMoon.io -->
<!DOCTYPE svg PUBLIC "-//W3C//DTD SVG 1.1//EN" "http://www.w3.org/Graphics/SVG/1.1/DTD/svg11.dtd">
<svg version="1.1" xmlns="http://www.w3.org/2000/svg" xmlns:xlink="http://www.w3.org/1999/xlink" width="20" height="20" viewBox="0 0 20 20">
<path fill="rgb(163, 213, 224)" d="M19.691 10c0-5.352-4.339-9.691-9.69-9.691s-9.691 4.338-9.691 9.691c0 5.352 4.339 9.69 9.691 9.69s9.69-4.339 9.69-9.69z"></path>
<path fill="rgb(72, 161, 175)" d="M12.685 9.838c0 0.256-0.208 0.464-0.464 0.464h-4.444c-0.256 0-0.464-0.208-0.464-0.464v-2.937c0-0.256 0.208-0.464 0.464-0.464 0 0 1.386 0.127 2.231 0.127s2.213-0.127 2.213-0.127c0.256 0 0.464 0.208 0.464 0.464v2.937z"></path>
<path fill="rgb(54, 125, 132)" d="M6.21 11.073h7.577v2.073h-7.577v-2.073z"></path>
<path fill="rgb(54, 125, 132)" d="M6.756 9.745h6.487v1.328h-6.487v-1.328z"></path>
<path fill="rgb(72, 161, 175)" d="M6.922 11.82h6.155v1.326h-6.155v-1.326z"></path>
<path fill="rgb(72, 161, 175)" d="M6.922 11.085h6.155v0.64h-6.155v-0.64z"></path>
<path fill="rgb(137, 97, 77)" d="M7.69 9.745h4.619v1.233h-4.619v-1.233z"></path>
<path fill="rgb(54, 125, 132)" d="M7.385 9.863l-1.382-1.387 1.447-0.285 0.839 0.418 0.045 0.4z"></path>
<path fill="rgb(72, 161, 175)" d="M6.739 9.229h0.652v1.737h-0.652v-1.737z"></path>
<path fill="rgb(54, 125, 132)" d="M8.295 8.677c0 0.281-0.293 0.509-0.655 0.509s-0.655-0.228-0.655-0.509c0-0.281 0.293-0.509 0.655-0.509s0.655 0.228 0.655 0.509z"></path>
<path fill="rgb(72, 161, 175)" d="M7.391 9.253c0 0.452-0.471 0.818-1.052 0.818s-1.052-0.366-1.052-0.818c0-0.452 0.471-0.818 1.052-0.818s1.052 0.366 1.052 0.818z"></path>
<path fill="rgb(54, 125, 132)" d="M6.922 9.236c0 0.229-0.229 0.415-0.512 0.415s-0.512-0.186-0.512-0.415c0-0.229 0.229-0.415 0.512-0.415s0.512 0.186 0.512 0.415z"></path>
<path fill="rgb(72, 161, 175)" d="M6.863 9.263c0 0.175-0.183 0.317-0.408 0.317s-0.408-0.142-0.408-0.317c0-0.175 0.183-0.317 0.408-0.317s0.408 0.142 0.408 0.317z"></path>
<path fill="rgb(54, 125, 132)" d="M6.27 9.229h0.652v3.917h-0.652v-3.917z"></path>
<path fill="rgb(72, 161, 175)" d="M6.21 9.229h0.652v3.917h-0.652v-3.917z"></path>
<path fill="rgb(54, 125, 132)" d="M6.132 9.521v0.534c0.026 0.004 0.052 0.007 0.078 0.010v-0.544h-0.078z"></path>
<path fill="rgb(54, 125, 132)" d="M12.615 9.863l1.382-1.387-1.447-0.285-0.839 0.418-0.045 0.4z"></path>
<path fill="rgb(72, 161, 175)" d="M12.609 9.229h0.652v1.737h-0.652v-1.737z"></path>
<path fill="rgb(54, 125, 132)" d="M13.015 8.677c0 0.281-0.293 0.509-0.655 0.509s-0.655-0.228-0.655-0.509c0-0.281 0.293-0.509 0.655-0.509s0.655 0.228 0.655 0.509z"></path>
<path fill="rgb(72, 161, 175)" d="M14.714 9.253c0 0.452-0.471 0.818-1.052 0.818s-1.052-0.366-1.052-0.818c0-0.452 0.471-0.818 1.052-0.818s1.052 0.366 1.052 0.818z"></path>
<path fill="rgb(54, 125, 132)" d="M14.099 9.236c0 0.229-0.229 0.415-0.512 0.415s-0.512-0.186-0.512-0.415c0-0.229 0.229-0.415 0.512-0.415s0.512 0.186 0.512 0.415z"></path>
<path fill="rgb(72, 161, 175)" d="M13.952 9.263c0 0.175-0.183 0.317-0.408 0.317s-0.408-0.142-0.408-0.317c0-0.175 0.183-0.317 0.408-0.317s0.408 0.142 0.408 0.317z"></path>
<path fill="rgb(54, 125, 132)" d="M13.076 9.229h0.652v3.917h-0.652v-3.917z"></path>
<path fill="rgb(72, 161, 175)" d="M13.136 9.229h0.652v3.917h-0.652v-3.917z"></path>
<path fill="rgb(54, 125, 132)" d="M13.788 9.521v0.544c0.026-0.002 0.052-0.006 0.078-0.009v-0.534h-0.078z"></path>
<path fill="rgb(82, 182, 193)" d="M12.454 9.632h-4.909l0.79-0.623c0 0 0.722-0.19 1.665-0.19s1.665 0.19 1.665 0.19l0.79 0.623z"></path>
<path fill="rgb(72, 161, 175)" d="M12.543 10.704c0 0.151-0.122 0.273-0.273 0.273h-4.541c-0.151 0-0.273-0.122-0.273-0.273v-0.87c0-0.151 0.122-0.273 0.273-0.273 0 0 0.788-0.071 2.277-0.071s2.265 0.071 2.265 0.071c0.151 0 0.273 0.122 0.273 0.273v0.87z"></path>
</svg>
