<?xml version="1.0" encoding="utf-8"?>
<!-- Generated by IcoMoon.io -->
<!DOCTYPE svg PUBLIC "-//W3C//DTD SVG 1.1//EN" "http://www.w3.org/Graphics/SVG/1.1/DTD/svg11.dtd">
<svg version="1.1" xmlns="http://www.w3.org/2000/svg" xmlns:xlink="http://www.w3.org/1999/xlink" width="20" height="20" viewBox="0 0 20 20">
<path fill="rgb(224, 79, 95)" d="M0.309 10c0 5.352 4.339 9.691 9.69 9.691s9.691-4.338 9.691-9.691c0-5.352-4.339-9.69-9.691-9.69s-9.69 4.339-9.69 9.69z"></path>
<path fill="rgb(232, 232, 230)" d="M10.998 4.228c0.084 0.251-0.154 0.557-0.533 0.685s-0.754 0.027-0.838-0.224c-0.084-0.251 0.154-0.557 0.533-0.685s0.754-0.027 0.838 0.224z"></path>
<path fill="rgb(234, 73, 73)" d="M10.577 4.369c0.057 0.171-0.077 0.37-0.3 0.445s-0.45-0.003-0.508-0.173c-0.057-0.171 0.077-0.37 0.3-0.445s0.45 0.003 0.508 0.173z"></path>
<path fill="rgb(232, 232, 230)" d="M9.994 5.654h-1.835c0 0-0.298 3.002-0.805 6.003-0.421 2.496 0 5.027 0 5.027 0 0.32 0.259 0.579 0.579 0.579h3.544c0.32 0 0.579-0.259 0.579-0.579 0 0 0.398-1.88 0-4.737-0.15-1.075-2.061-1.736-2.061-3.436v-2.857z"></path>
<path fill="rgb(163, 213, 224)" d="M11.818 12.238c-0.107-0.771-1.223-1.305-1.67-2.266h-2.25c-0.090 0.639-0.193 1.322-0.308 2.006-0.379 2.245 0 4.521 0 4.521 0 0.287 0.233 0.52 0.52 0.52h3.187c0.287 0 0.52-0.233 0.52-0.52 0 0 0.358-1.691 0-4.26z"></path>
<path fill="rgb(218, 238, 242)" d="M9.792 14.323c0 0.158-0.128 0.286-0.286 0.286s-0.286-0.128-0.286-0.286c0-0.158 0.128-0.286 0.286-0.286s0.286 0.128 0.286 0.286z"></path>
<path fill="rgb(163, 213, 224)" d="M9.57 14.206c0.093 0 0.169 0.076 0.169 0.169s-0.076 0.169-0.169 0.169c-0.094 0-0.169-0.076-0.169-0.169s0.076-0.169 0.169-0.169z"></path>
<path fill="rgb(218, 238, 242)" d="M10.992 12.062c0 0.23-0.187 0.417-0.417 0.417s-0.417-0.187-0.417-0.417c0-0.23 0.187-0.417 0.417-0.417s0.417 0.187 0.417 0.417z"></path>
<path fill="rgb(163, 213, 224)" d="M10.897 11.967c0 0.136-0.11 0.246-0.246 0.246s-0.246-0.11-0.246-0.246c0-0.136 0.11-0.246 0.246-0.246s0.246 0.11 0.246 0.246z"></path>
<path fill="rgb(218, 238, 242)" d="M11.403 16.122c0 0.194-0.157 0.352-0.352 0.352s-0.352-0.157-0.352-0.352c0-0.194 0.157-0.352 0.352-0.352s0.352 0.157 0.352 0.352z"></path>
<path fill="rgb(163, 213, 224)" d="M11.339 16.186c0 0.115-0.093 0.208-0.208 0.208s-0.208-0.093-0.208-0.208c0-0.115 0.093-0.208 0.208-0.208s0.208 0.093 0.208 0.208z"></path>
<path fill="rgb(218, 238, 242)" d="M8.256 13.068c0 0.093-0.076 0.169-0.169 0.169s-0.169-0.076-0.169-0.169c0-0.093 0.076-0.169 0.169-0.169s0.169 0.076 0.169 0.169z"></path>
<path fill="rgb(163, 213, 224)" d="M8.225 13.099c0 0.055-0.045 0.1-0.1 0.1s-0.1-0.045-0.1-0.1c0-0.055 0.045-0.1 0.1-0.1s0.1 0.045 0.1 0.1z"></path>
<path fill="rgb(72, 161, 175)" d="M7.463 3.84h4.731l-2.2 0.711h-1.826z"></path>
<path fill="rgb(72, 161, 175)" d="M8.168 2.737h4.026v1.103h-4.731z"></path>
<path fill="rgb(232, 232, 230)" d="M12.194 2.737h0.639v1.1h-0.639v-1.1z"></path>
<path fill="rgb(72, 161, 175)" d="M12.578 6.355l-0.177 0.091-1.787-3.046 0.531-0.272z"></path>
<path fill="rgb(122, 160, 168)" d="M8.584 16.65c-0.002 0-0.003-0-0.005-0-0.059-0.003-0.104-0.052-0.102-0.111l0.497-11.444c0.003-0.059 0.053-0.102 0.111-0.102 0.059 0.003 0.104 0.052 0.102 0.111l-0.497 11.444c-0.002 0.057-0.050 0.102-0.106 0.102z"></path>
<path fill="rgb(72, 161, 175)" d="M8.168 4.539h1.826v1.121h-1.826v-1.121z"></path>
</svg>
