<?xml version="1.0" encoding="utf-8"?>
<!-- Generated by IcoMoon.io -->
<!DOCTYPE svg PUBLIC "-//W3C//DTD SVG 1.1//EN" "http://www.w3.org/Graphics/SVG/1.1/DTD/svg11.dtd">
<svg version="1.1" xmlns="http://www.w3.org/2000/svg" xmlns:xlink="http://www.w3.org/1999/xlink" width="20" height="20" viewBox="0 0 20 20">
<path fill="rgb(51, 77, 92)" d="M19.691 10c0-5.352-4.339-9.691-9.69-9.691s-9.691 4.338-9.691 9.691c0 5.352 4.339 9.69 9.691 9.69s9.69-4.339 9.69-9.69z"></path>
<path fill="rgb(234, 239, 239)" d="M17.109 11.136c0-1.651-3.183-2.988-7.109-2.988s-7.109 1.338-7.109 2.988c0 1.65 3.183 2.988 7.109 2.988s7.109-1.338 7.109-2.988z"></path>
<path fill="rgb(234, 239, 239)" d="M11.403 5.876c0.001 0.012 0.001 0.025 0.001 0.037 0 0.577-0.629 1.045-1.405 1.045s-1.405-0.468-1.405-1.045c0-0.013 0.001-0.025 0.001-0.037-3.254 0.274-5.706 1.481-5.706 2.93 0 1.65 3.183 2.988 7.109 2.988s7.109-1.338 7.109-2.988c0-1.449-2.452-2.656-5.706-2.93z"></path>
<path fill="rgb(234, 239, 239)" d="M2.9 8.654h14.198v2.444h-14.198v-2.444z"></path>
<path fill="rgb(215, 219, 219)" d="M11.325 6.259c-0.192 0.407-0.713 0.698-1.325 0.698s-1.133-0.292-1.325-0.698c-2.787 0.255-4.875 1.298-4.875 2.546 0 1.439 2.776 2.606 6.2 2.606s6.2-1.167 6.2-2.606c0-1.248-2.087-2.291-4.875-2.546z"></path>
<path fill="rgb(188, 188, 188)" d="M11.405 11.386c0 0.577-0.629 1.045-1.405 1.045s-1.405-0.468-1.405-1.045c0-0.577 0.629-1.045 1.405-1.045s1.405 0.468 1.405 1.045z"></path>
<path fill="rgb(188, 188, 188)" d="M10 11.412c2.714 0 5.020-0.733 5.86-1.753-0.736-1.089-3.086-1.886-5.873-1.886-2.772 0-5.113 0.789-5.861 1.869 0.829 1.029 3.146 1.77 5.874 1.77z"></path>
</svg>
