<?xml version="1.0" encoding="utf-8"?>
<!-- Generated by IcoMoon.io -->
<!DOCTYPE svg PUBLIC "-//W3C//DTD SVG 1.1//EN" "http://www.w3.org/Graphics/SVG/1.1/DTD/svg11.dtd">
<svg version="1.1" xmlns="http://www.w3.org/2000/svg" xmlns:xlink="http://www.w3.org/1999/xlink" width="20" height="20" viewBox="0 0 20 20">
<path fill="rgb(51, 77, 92)" d="M19.691 10c0-5.352-4.339-9.691-9.691-9.691s-9.691 4.338-9.691 9.691c0 5.352 4.339 9.69 9.691 9.69s9.691-4.339 9.691-9.69z"></path>
<path fill="rgb(239, 234, 230)" d="M10.218 15.409l-0.013-1.712c-0.014-0.079-0.090-0.131-0.168-0.116l-0.166-0.001c-0.079 0.014-0.131 0.090-0.116 0.168l0.013 1.712c0.014 0.079 0.089 0.131 0.168 0.116l0.166 0.001c0.079-0.014 0.131-0.089 0.116-0.168z"></path>
<path fill="rgb(239, 234, 230)" d="M8.65 13.673l-0.157-0.063c-0.074-0.030-0.158 0.006-0.188 0.080l-0.422 2.54c-0.030 0.074 0.006 0.158 0.080 0.188l0.157 0.063c0.074 0.030 0.158-0.006 0.188-0.080l0.422-2.54c0.030-0.074-0.006-0.158-0.080-0.188z"></path>
<path fill="rgb(239, 234, 230)" d="M11.35 13.673l0.157-0.063c0.074-0.030 0.158 0.006 0.188 0.080l0.422 2.54c0.030 0.074-0.006 0.158-0.080 0.188l-0.157 0.063c-0.074 0.030-0.158-0.006-0.188-0.080l-0.422-2.54c-0.030-0.074 0.006-0.158 0.080-0.188z"></path>
<path fill="rgb(239, 234, 230)" d="M12.17 12.924c0-0.267-0.971-0.484-2.17-0.484s-2.17 0.217-2.17 0.484c0 0.088 0 0.74 0 0.829 0 0.267 0.971 0.484 2.17 0.484s2.17-0.217 2.17-0.484c0-0.088 0-0.74 0-0.829z"></path>
<path fill="rgb(255, 255, 255)" d="M12.17 12.924c0 0.267-0.971 0.484-2.17 0.484s-2.17-0.217-2.17-0.484c0-0.267 0.971-0.484 2.17-0.484s2.17 0.217 2.17 0.484z"></path>
<path fill="rgb(216, 185, 158)" d="M12.024 12.878c0 0.249-0.906 0.451-2.024 0.451s-2.024-0.202-2.024-0.451c0-0.768 0.906-0.897 2.024-0.897s2.024 0.118 2.024 0.897z"></path>
<path fill="rgb(117, 89, 57)" d="M6.177 9.834h7.647v0.368h-7.647v-0.368z"></path>
<path fill="rgb(255, 255, 255)" d="M5.606 9.834h8.788v0.313h-8.788v-0.313z"></path>
<path fill="rgb(255, 255, 255)" d="M5.607 10.027h0.423v6.046h-0.423v-6.046z"></path>
<path fill="rgb(255, 255, 255)" d="M14.393 16.065c0 0.063-0.051 0.114-0.114 0.114h-0.195c-0.063 0-0.114-0.051-0.114-0.114v-0.409c0-0.063 0.051-0.114 0.114-0.114h0.195c0.063 0 0.114 0.051 0.114 0.114v0.409z"></path>
<path fill="rgb(255, 255, 255)" d="M6.030 16.065c0 0.063-0.051 0.114-0.114 0.114h-0.195c-0.063 0-0.114-0.051-0.114-0.114v-0.409c0-0.063 0.051-0.114 0.114-0.114h0.195c0.063 0 0.114 0.051 0.114 0.114v0.409z"></path>
<path fill="rgb(255, 255, 255)" d="M6.6 14.975c0 0.063-0.051 0.114-0.114 0.114h-0.195c-0.063 0-0.114-0.051-0.114-0.114v-0.409c0-0.063 0.051-0.114 0.114-0.114h0.195c0.063 0 0.114 0.051 0.114 0.114v0.409z"></path>
<path fill="rgb(255, 255, 255)" d="M13.822 14.975c0 0.063-0.051 0.114-0.114 0.114h-0.195c-0.063 0-0.114-0.051-0.114-0.114v-0.409c0-0.063 0.051-0.114 0.114-0.114h0.195c0.063 0 0.114 0.051 0.114 0.114v0.409z"></path>
<path fill="rgb(255, 255, 255)" d="M6.177 10.064h0.423v4.868h-0.423v-4.868z"></path>
<path fill="rgb(255, 255, 255)" d="M13.97 10.027h0.423v6.046h-0.423v-6.046z"></path>
<path fill="rgb(255, 255, 255)" d="M13.4 10.064h0.423v4.868h-0.423v-4.868z"></path>
<path fill="rgb(216, 185, 158)" d="M14.394 9.834h-8.788l0.571-1.141h7.647z"></path>
<path fill="rgb(255, 255, 255)" d="M11.546 6.382c0-2.014-3.093-2.014-3.093 0s-2.277 2.31-2.277 2.31h7.647c0 0-2.277-0.296-2.277-2.31z"></path>
<path fill="rgb(216, 185, 158)" d="M6.030 10.146h7.941v0.978h-7.941v-0.978z"></path>
<path fill="rgb(255, 255, 255)" d="M12.070 6.043c0 1.4-0.927 2.535-2.070 2.535s-2.070-1.135-2.070-2.535c0-1.4 0.927-2.535 2.070-2.535s2.070 1.135 2.070 2.535z"></path>
<path fill="rgb(163, 213, 224)" d="M11.706 6.043c0 1.154-0.764 2.090-1.707 2.090s-1.707-0.936-1.707-2.090c0-1.154 0.764-2.090 1.707-2.090s1.707 0.936 1.707 2.090z"></path>
<path fill="rgb(255, 255, 255)" d="M10.238 10.612c0 0.131-0.107 0.238-0.238 0.238s-0.238-0.107-0.238-0.238c0-0.132 0.107-0.238 0.238-0.238s0.238 0.107 0.238 0.238z"></path>
<path fill="rgb(187, 232, 239)" d="M10 3.953c-0.942 0-1.707 0.936-1.707 2.090 0 0.505 0.146 0.967 0.389 1.328l2.643-2.643c-0.313-0.472-0.79-0.775-1.326-0.775z"></path>
</svg>
