<?xml version="1.0" encoding="utf-8"?>
<!-- Generated by IcoMoon.io -->
<!DOCTYPE svg PUBLIC "-//W3C//DTD SVG 1.1//EN" "http://www.w3.org/Graphics/SVG/1.1/DTD/svg11.dtd">
<svg version="1.1" xmlns="http://www.w3.org/2000/svg" xmlns:xlink="http://www.w3.org/1999/xlink" width="20" height="20" viewBox="0 0 20 20">
<path fill="rgb(224, 79, 95)" d="M19.691 10c0-5.352-4.339-9.691-9.69-9.691s-9.691 4.338-9.691 9.691c0 5.352 4.339 9.69 9.691 9.69s9.69-4.339 9.69-9.69z"></path>
<path fill="rgb(211, 209, 209)" d="M7.381 15.851c0 0.283-0.23 0.513-0.513 0.513h-0.257c-0.283 0-0.513-0.23-0.513-0.513l0.295-1.417 0.028-6.034c0-0.283 0.114-0.513 0.254-0.513h0.127c0.141 0 0.254 0.23 0.254 0.513l0.028 6.034 0.294 1.417z"></path>
<path fill="rgb(211, 209, 209)" d="M8.226 6.578c0 1.276-0.663 1.787-1.481 1.787s-1.481-0.511-1.481-1.787c0-1.276 0.663-2.658 1.481-2.658s1.481 1.382 1.481 2.658z"></path>
<path fill="rgb(239, 237, 237)" d="M6.706 7.955c-0.624 0-1.13-0.39-1.13-1.363s1.754 1.363 1.13 1.363z"></path>
<path fill="rgb(211, 209, 209)" d="M14.39 15.851c0 0.283-0.23 0.513-0.513 0.513h-0.257c-0.283 0-0.513-0.23-0.513-0.513l0.294-1.417 0.028-6.034c0-0.283 0.114-0.513 0.254-0.513h0.127c0.141 0 0.254 0.23 0.254 0.513l0.028 6.034 0.294 1.417z"></path>
<path fill="rgb(211, 209, 209)" d="M14.736 6.578c0 1.276-0.44 1.787-0.983 1.787s-0.983-0.511-0.983-1.787h1.966z"></path>
<path fill="rgb(211, 209, 209)" d="M13.866 6.5c0 1.088-0.225 1.088-0.225 0s0.050-2.266 0.112-2.266 0.112 1.178 0.112 2.266z"></path>
<path fill="rgb(211, 209, 209)" d="M13.431 6.5c0 1.088-0.225 1.088-0.225 0s0.050-2.266 0.112-2.266 0.112 1.178 0.112 2.266z"></path>
<path fill="rgb(211, 209, 209)" d="M12.995 6.5c0 1.088-0.225 1.088-0.225 0s0.050-2.266 0.112-2.266c0.062 0 0.112 1.178 0.112 2.266z"></path>
<path fill="rgb(211, 209, 209)" d="M14.301 6.5c0 1.088-0.225 1.088-0.225 0s0.050-2.266 0.112-2.266c0.062 0 0.112 1.178 0.112 2.266z"></path>
<path fill="rgb(211, 209, 209)" d="M14.736 6.5c0 1.088-0.225 1.088-0.225 0s0.050-2.266 0.112-2.266 0.112 1.178 0.112 2.266z"></path>
<path fill="rgb(211, 209, 209)" d="M10.9 15.851c0 0.283-0.23 0.513-0.513 0.513h-0.257c-0.283 0-0.513-0.23-0.513-0.513l0.295-1.417 0.028-6.034c0-0.283 0.114-0.513 0.254-0.513h0.127c0.141 0 0.254 0.23 0.254 0.513l0.028 6.034 0.294 1.417z"></path>
<path fill="rgb(211, 209, 209)" d="M11.332 6.578c0 1.276-0.578 2.499-1.396 2.499 0 0 0-1.223 0-2.499v-2.942c0.818 0 1.396 1.667 1.396 2.942z"></path>
</svg>
