<?xml version="1.0" encoding="utf-8"?>
<!-- Generated by IcoMoon.io -->
<!DOCTYPE svg PUBLIC "-//W3C//DTD SVG 1.1//EN" "http://www.w3.org/Graphics/SVG/1.1/DTD/svg11.dtd">
<svg version="1.1" xmlns="http://www.w3.org/2000/svg" xmlns:xlink="http://www.w3.org/1999/xlink" width="20" height="20" viewBox="0 0 20 20">
<path fill="rgb(163, 213, 224)" d="M0.309 10c0 5.352 4.339 9.691 9.69 9.691s9.691-4.338 9.691-9.691c0-5.352-4.339-9.69-9.691-9.69s-9.69 4.339-9.69 9.69z"></path>
<path fill="rgb(132, 99, 66)" d="M3.218 5.779h13.564v8.442h-13.564v-8.442z"></path>
<path fill="rgb(173, 131, 85)" d="M3.795 6.353h12.41v7.293h-12.41v-7.293z"></path>
<path fill="rgb(119, 89, 61)" d="M6.079 10.491l-0.229-1.117-0.232 1.117c-0.018 0.085-0.032 0.146-0.043 0.182s-0.029 0.070-0.056 0.099c-0.026 0.029-0.062 0.044-0.105 0.044-0.035 0-0.065-0.009-0.088-0.026s-0.041-0.042-0.056-0.074c-0.014-0.032-0.026-0.070-0.035-0.113s-0.017-0.084-0.024-0.121l-0.236-1.255c-0.014-0.073-0.021-0.128-0.021-0.167 0-0.048 0.013-0.089 0.039-0.122s0.058-0.050 0.096-0.050c0.052 0 0.087 0.022 0.105 0.066s0.034 0.108 0.047 0.192l0.186 1.088 0.208-1.018c0.016-0.078 0.029-0.137 0.042-0.178s0.032-0.076 0.060-0.106c0.028-0.030 0.065-0.044 0.113-0.044s0.086 0.016 0.113 0.046c0.027 0.031 0.045 0.065 0.056 0.101s0.024 0.097 0.042 0.181l0.21 1.018 0.186-1.088c0.009-0.057 0.018-0.101 0.026-0.134s0.022-0.061 0.042-0.086c0.020-0.025 0.048-0.038 0.086-0.038s0.069 0.016 0.095 0.049c0.026 0.033 0.039 0.074 0.039 0.123 0 0.035-0.007 0.090-0.021 0.167l-0.236 1.255c-0.016 0.085-0.029 0.147-0.040 0.186s-0.029 0.074-0.054 0.104c-0.025 0.030-0.061 0.044-0.108 0.044-0.044 0-0.079-0.014-0.105-0.043s-0.045-0.061-0.055-0.097c-0.010-0.036-0.025-0.098-0.043-0.185z"></path>
<path fill="rgb(119, 89, 61)" d="M7.868 9.212h-0.647v0.458h0.596c0.044 0 0.077 0.013 0.098 0.039s0.032 0.060 0.032 0.102c0 0.043-0.011 0.077-0.032 0.104s-0.054 0.040-0.099 0.040h-0.596v0.53h0.669c0.045 0 0.079 0.014 0.102 0.041s0.034 0.064 0.034 0.11c0 0.044-0.011 0.080-0.034 0.108s-0.057 0.041-0.102 0.041h-0.781c-0.063 0-0.108-0.018-0.135-0.055s-0.041-0.095-0.041-0.177v-1.401c0-0.054 0.006-0.099 0.018-0.133s0.031-0.059 0.058-0.075c0.026-0.016 0.059-0.023 0.1-0.023h0.758c0.046 0 0.080 0.013 0.102 0.040s0.033 0.062 0.033 0.105c0 0.044-0.011 0.079-0.033 0.106s-0.056 0.040-0.102 0.040z"></path>
<path fill="rgb(119, 89, 61)" d="M8.536 9.118v1.356h0.582c0.046 0 0.082 0.015 0.107 0.045s0.037 0.067 0.037 0.112c0 0.046-0.012 0.083-0.037 0.111s-0.060 0.043-0.107 0.043h-0.694c-0.063 0-0.108-0.018-0.135-0.055s-0.041-0.095-0.041-0.177v-1.435c0-0.076 0.013-0.133 0.039-0.172s0.060-0.057 0.103-0.057c0.043 0 0.078 0.019 0.105 0.057s0.040 0.095 0.040 0.172z"></path>
<path fill="rgb(119, 89, 61)" d="M10.561 10.196c0 0.059-0.011 0.124-0.033 0.193s-0.057 0.137-0.105 0.203c-0.048 0.066-0.109 0.121-0.183 0.162s-0.161 0.062-0.259 0.062c-0.075 0-0.143-0.009-0.204-0.028s-0.117-0.048-0.167-0.087c-0.050-0.039-0.096-0.091-0.138-0.156-0.037-0.058-0.069-0.124-0.096-0.196s-0.046-0.15-0.059-0.232c-0.013-0.082-0.020-0.17-0.020-0.262 0-0.15 0.017-0.284 0.050-0.403s0.081-0.22 0.143-0.304c0.062-0.084 0.134-0.149 0.218-0.193s0.172-0.066 0.266-0.066c0.115 0 0.217 0.030 0.307 0.090s0.158 0.135 0.206 0.223c0.048 0.089 0.072 0.172 0.072 0.251 0 0.043-0.012 0.081-0.035 0.114s-0.051 0.050-0.084 0.050c-0.037 0-0.064-0.011-0.083-0.034s-0.039-0.062-0.061-0.118c-0.037-0.092-0.081-0.161-0.132-0.207s-0.113-0.069-0.187-0.069c-0.118 0-0.212 0.059-0.282 0.177s-0.105 0.285-0.105 0.502c0 0.145 0.015 0.266 0.046 0.362s0.075 0.168 0.132 0.215c0.057 0.047 0.123 0.071 0.199 0.071 0.083 0 0.152-0.027 0.209-0.081s0.1-0.133 0.129-0.237c0.012-0.049 0.027-0.089 0.045-0.12s0.047-0.046 0.087-0.046c0.034 0 0.064 0.016 0.088 0.047s0.037 0.070 0.037 0.117z"></path>
<path fill="rgb(119, 89, 61)" d="M11.443 8.889c0.147 0 0.273 0.039 0.379 0.118s0.185 0.19 0.239 0.334c0.054 0.145 0.081 0.314 0.081 0.509 0 0.144-0.015 0.275-0.044 0.393s-0.074 0.22-0.134 0.306c-0.059 0.086-0.132 0.153-0.219 0.198s-0.185 0.069-0.297 0.069c-0.111 0-0.21-0.024-0.298-0.071s-0.161-0.113-0.22-0.199c-0.059-0.086-0.103-0.189-0.133-0.309s-0.045-0.25-0.045-0.39c0-0.143 0.016-0.275 0.047-0.394s0.077-0.221 0.136-0.305c0.059-0.084 0.132-0.148 0.217-0.193s0.182-0.067 0.29-0.067zM11.851 9.848c0-0.136-0.017-0.255-0.050-0.355s-0.081-0.176-0.144-0.227c-0.062-0.051-0.134-0.077-0.214-0.077-0.057 0-0.11 0.014-0.159 0.043s-0.091 0.070-0.126 0.124c-0.035 0.054-0.063 0.124-0.083 0.208s-0.030 0.179-0.030 0.284c0 0.106 0.010 0.202 0.030 0.287s0.049 0.157 0.086 0.213 0.080 0.099 0.128 0.126c0.048 0.028 0.101 0.042 0.158 0.042 0.074 0 0.141-0.024 0.203-0.072s0.111-0.123 0.147-0.224c0.036-0.101 0.055-0.225 0.055-0.372z"></path>
<path fill="rgb(119, 89, 61)" d="M12.867 10.504l-0.227-1.187v1.286c0 0.071-0.012 0.125-0.036 0.16s-0.056 0.053-0.096 0.053c-0.039 0-0.070-0.018-0.095-0.053s-0.037-0.089-0.037-0.161v-1.475c0-0.081 0.016-0.136 0.048-0.165s0.076-0.042 0.131-0.042h0.089c0.054 0 0.092 0.006 0.117 0.019s0.042 0.036 0.054 0.069c0.012 0.033 0.025 0.087 0.040 0.161l0.206 1.021 0.206-1.021c0.015-0.075 0.028-0.128 0.040-0.161s0.029-0.056 0.054-0.069c0.024-0.013 0.063-0.019 0.117-0.019h0.089c0.055 0 0.098 0.014 0.131 0.042s0.048 0.083 0.048 0.165v1.475c0 0.071-0.012 0.125-0.036 0.16s-0.057 0.053-0.097 0.053c-0.038 0-0.069-0.018-0.094-0.053s-0.037-0.089-0.037-0.16v-1.286l-0.227 1.187c-0.015 0.077-0.027 0.134-0.036 0.17s-0.027 0.069-0.052 0.099c-0.025 0.030-0.060 0.044-0.104 0.044-0.034 0-0.062-0.009-0.085-0.029s-0.041-0.043-0.054-0.073c-0.013-0.030-0.023-0.062-0.030-0.099s-0.015-0.074-0.023-0.113z"></path>
<path fill="rgb(119, 89, 61)" d="M14.973 9.212h-0.647v0.458h0.596c0.044 0 0.077 0.013 0.098 0.039s0.032 0.060 0.032 0.102c0 0.043-0.011 0.077-0.032 0.104s-0.054 0.040-0.099 0.040h-0.596v0.53h0.669c0.045 0 0.079 0.014 0.102 0.041s0.034 0.064 0.034 0.11c0 0.044-0.011 0.080-0.034 0.108s-0.057 0.041-0.102 0.041h-0.781c-0.063 0-0.108-0.018-0.135-0.055s-0.041-0.095-0.041-0.177v-1.401c0-0.054 0.006-0.099 0.018-0.133s0.031-0.059 0.058-0.075c0.026-0.016 0.059-0.023 0.1-0.023h0.758c0.046 0 0.080 0.013 0.102 0.040s0.033 0.062 0.033 0.105c0 0.044-0.011 0.079-0.033 0.106s-0.056 0.040-0.102 0.040z"></path>
<path fill="rgb(58, 58, 58)" d="M11.38 11.244c1.133 0 1.37 1.923 1.37 2.627 0 0.059-0.004 0.114-0.012 0.166l0.011 0.004-0.162 1.416-0.175 1.696h-0c-0.010 0.502-0.376 0.81-0.939 0.822-0.499-0.012-0.852-0.321-0.862-0.822 0 0-0.071-1.353-0.071-1.886 0-0.376-0.163-1.248-0.218-1.729 0-0.563 0.348-2.294 1.058-2.294z"></path>
<path fill="rgb(79, 79, 78)" d="M10.434 14.321c0.030 0.204 0.138 2.214 0.159 2.392 0.153-0.547-0.35-2.747 0.899-2.747s0.81 2.285 0.963 2.786l0.245-2.275 0.050-0.436-0.011-0.004c0.008-0.052 0.012-0.107 0.012-0.166 0-0.704-0.238-2.627-1.37-2.627-0.71 0-1.058 1.754-1.058 2.294s0.069 0.496 0.112 0.782z"></path>
<path fill="rgb(79, 79, 78)" d="M10.584 16.589c0.015 0.321 0.027 0.564 0.027 0.564 0.010 0.502 0.362 0.81 0.862 0.822 0.563-0.012 0.929-0.321 0.939-0.822h0l0.058-0.564c0 0-0.114 1.165-0.993 1.165s-0.894-1.165-0.894-1.165z"></path>
<path fill="rgb(58, 58, 58)" d="M8.62 11.244c-1.133 0-1.37 1.923-1.37 2.627 0 0.059 0.004 0.114 0.012 0.166l-0.011 0.004 0.162 1.416 0.175 1.696h0c0.010 0.502 0.376 0.81 0.939 0.822 0.499-0.012 0.852-0.321 0.862-0.822 0 0 0.071-1.353 0.071-1.886 0-0.376 0.163-1.248 0.218-1.729-0-0.563-0.348-2.294-1.058-2.294z"></path>
<path fill="rgb(79, 79, 78)" d="M9.566 14.321c-0.030 0.204-0.138 2.214-0.159 2.392-0.153-0.547 0.35-2.747-0.899-2.747s-0.81 2.285-0.963 2.786l-0.245-2.275-0.050-0.436 0.011-0.004c-0.008-0.052-0.012-0.107-0.012-0.166 0-0.704 0.238-2.627 1.37-2.627 0.71 0 1.058 1.754 1.058 2.294s-0.069 0.496-0.112 0.782z"></path>
<path fill="rgb(79, 79, 78)" d="M9.416 16.589c-0.015 0.321-0.027 0.564-0.027 0.564-0.010 0.502-0.362 0.81-0.862 0.822-0.563-0.012-0.929-0.321-0.939-0.822h-0l-0.058-0.564c0 0 0.114 1.165 0.993 1.165s0.894-1.165 0.894-1.165z"></path>
</svg>
