<?xml version="1.0" encoding="utf-8"?>
<!-- Generated by IcoMoon.io -->
<!DOCTYPE svg PUBLIC "-//W3C//DTD SVG 1.1//EN" "http://www.w3.org/Graphics/SVG/1.1/DTD/svg11.dtd">
<svg version="1.1" xmlns="http://www.w3.org/2000/svg" xmlns:xlink="http://www.w3.org/1999/xlink" width="20" height="20" viewBox="0 0 20 20">
<path fill="rgb(51, 77, 92)" d="M19.691 10c0-5.352-4.339-9.691-9.69-9.691s-9.691 4.338-9.691 9.691c0 5.352 4.339 9.69 9.691 9.69s9.69-4.339 9.69-9.69z"></path>
<path fill="rgb(232, 230, 230)" d="M10 16.406c-0.173 0-0.313-0.14-0.313-0.313 0-3.207-0.786-5.096-1.479-6.763-0.497-1.195-0.927-2.227-0.927-3.472 0-0.724 0.252-1.355 0.728-1.824 0.503-0.496 1.25-0.787 1.995-0.774 0.737 0.011 1.41 0.318 1.895 0.863 0.115 0.129 0.103 0.326-0.026 0.441s-0.326 0.103-0.441-0.026c-0.373-0.419-0.87-0.645-1.438-0.654-0.011-0-0.022-0-0.033-0-0.571 0-1.134 0.221-1.513 0.594-0.36 0.354-0.542 0.818-0.542 1.379 0 1.119 0.407 2.098 0.879 3.232 0.68 1.635 1.527 3.671 1.527 7.003 0 0.173-0.14 0.313-0.313 0.313z"></path>
<path fill="rgb(130, 130, 130)" d="M12.625 5.063l-0.102-0.131c-0.038-0.038-0.093-0.007-0.168 0.068s-0.113 0.137-0.075 0.175l0.131 0.102 0.214-0.214z"></path>
<path fill="rgb(192, 192, 192)" d="M12.734 5.081l-0.105-0.146c-0.049-0.049-0.104 0.018-0.21 0.125s-0.185 0.172-0.136 0.221l0.146 0.105 0.305-0.305z"></path>
<path fill="rgb(147, 146, 146)" d="M12.806 5.119l-0.108-0.152c-0.055-0.055-0.117 0.018-0.235 0.137s-0.203 0.192-0.148 0.247l0.153 0.107 0.339-0.339z"></path>
<path fill="rgb(192, 192, 192)" d="M12.861 5.162l-0.108-0.155c-0.057-0.057-0.134 0.029-0.256 0.152s-0.198 0.189-0.141 0.246l0.155 0.108 0.351-0.35z"></path>
<path fill="rgb(161, 159, 159)" d="M12.822 5.124l-0.023-0.070c-0.057-0.057-0.121 0.019-0.244 0.142s-0.21 0.199-0.154 0.256l0.070 0.023 0.351-0.351z"></path>
<path fill="rgb(192, 192, 192)" d="M12.681 5.517l0.184-0.184c0.059-0.059 0.060-0.152 0.004-0.209l-0.023-0.023c-0.057-0.057-0.126 0.029-0.249 0.152s-0.205 0.189-0.148 0.246l0.023 0.023c0.057 0.057 0.15 0.055 0.209-0.003z"></path>
<path fill="rgb(239, 235, 172)" d="M12.556 5.631c0.264 0.264-0.067 0.692 0.36 1.119 0.334 0.334 0.875 0.334 1.209 0s0.334-0.875-0-1.209c-0.414-0.414-0.858-0.083-1.127-0.352-0.173-0.173-0.62 0.264-0.441 0.442z"></path>
<path fill="rgb(235, 151, 131)" d="M15.053 4.747l-3.481-1.31c-0.019-0.016-0.037-0.022-0.044-0.015l-0.88 0.88c-0.007 0.007-0.001 0.026 0.015 0.044l1.314 3.487c0.009 0.012 0.022 0.020 0.038 0.022s0.030-0.004 0.041-0.015l3.010-3.010c0-0 0-0 0-0 0.020-0.020 0.020-0.052 0-0.072-0.004-0.004-0.008-0.007-0.013-0.009z"></path>
<path fill="rgb(232, 230, 230)" d="M12.713 16.895h-5.426c0-0.885 1.215-1.602 2.713-1.602s2.713 0.717 2.713 1.602z"></path>
<path fill="rgb(204, 202, 202)" d="M11.646 15.956c0.262 0.137 0.525 0.153 0.587 0.035 0.001-0.001 0.001-0.003 0.002-0.004-0.243-0.208-0.567-0.381-0.945-0.501-0.002 0.003-0.004 0.006-0.006 0.009-0.062 0.118 0.101 0.325 0.363 0.462z"></path>
<path fill="rgb(145, 144, 144)" d="M12.173 15.96c-0.042 0.080-0.261 0.047-0.491-0.073s-0.382-0.282-0.34-0.362c0.042-0.080 0.261-0.047 0.491 0.073s0.382 0.282 0.34 0.362z"></path>
</svg>
