<?xml version="1.0" encoding="utf-8"?>
<!-- Generated by IcoMoon.io -->
<!DOCTYPE svg PUBLIC "-//W3C//DTD SVG 1.1//EN" "http://www.w3.org/Graphics/SVG/1.1/DTD/svg11.dtd">
<svg version="1.1" xmlns="http://www.w3.org/2000/svg" xmlns:xlink="http://www.w3.org/1999/xlink" width="20" height="20" viewBox="0 0 20 20">
<path fill="rgb(50, 190, 166)" d="M19.691 10c0-5.352-4.339-9.691-9.69-9.691s-9.691 4.338-9.691 9.691c0 5.352 4.339 9.69 9.691 9.69s9.69-4.339 9.69-9.69z"></path>
<path fill="rgb(255, 255, 255)" d="M3.368 11.167c0-1.575 3.006-2.476 6.632-2.476s6.632 0.902 6.632 2.476c0 1.575-3.006 3.226-6.632 3.226s-6.632-1.651-6.632-3.226z"></path>
<path fill="rgb(210, 214, 216)" d="M16.649 11.050c0 1.595-2.977 2.888-6.649 2.888s-6.649-1.293-6.649-2.888c0-1.595 2.977-2.888 6.649-2.888s6.649 1.293 6.649 2.888z"></path>
<path fill="rgb(181, 186, 188)" d="M13.684 11.070c0 0.875-1.67 1.376-3.684 1.376s-3.684-0.501-3.684-1.376c0-0.875 1.67-1.792 3.684-1.792s3.684 0.918 3.684 1.792z"></path>
<path fill="rgb(210, 214, 216)" d="M13.427 11.158c0 0.822-1.534 1.488-3.427 1.488s-3.427-0.667-3.427-1.488c0-0.822 1.534-1.489 3.427-1.489s3.427 0.667 3.427 1.489z"></path>
<path fill="rgb(237, 237, 237)" d="M7.975 11.134c0-0.321 1.287-0.417 2.043-0.417 0.611 0 2.010 0.129 2.010 0.417h-4.053z"></path>
<path fill="rgb(239, 239, 239)" d="M14.714 7.865c0-0.601-0.73-1.061-1.29-1.152-0-0.062-0-0.123-0-0.18h-6.844c0 1.433-0.123 4.56 3.422 4.56 1.606 0 2.459-0.642 2.912-1.477 0.82-0.107 1.8-0.972 1.8-1.751zM13.115 9.164c0.238-0.654 0.294-1.37 0.306-1.971 0.321 0.093 0.851 0.311 0.851 0.672 0 0.491-0.719 1.132-1.157 1.299z"></path>
<path fill="rgb(239, 239, 239)" d="M13.685 6.502c0 0.494-1.65 0.895-3.685 0.895s-3.685-0.401-3.685-0.895c0-0.494 1.65-0.895 3.685-0.895s3.685 0.401 3.685 0.895z"></path>
<path fill="rgb(239, 239, 239)" d="M12.051 11.091c0 0.275-0.918 0.498-2.051 0.498s-2.051-0.223-2.051-0.498c0-0.275 0.918-0.498 2.051-0.498s2.051 0.223 2.051 0.498z"></path>
<path fill="rgb(181, 186, 188)" d="M12.994 6.502c0 0.335-1.341 0.606-2.994 0.606s-2.994-0.271-2.994-0.606c0-0.335 1.341-0.606 2.994-0.606s2.994 0.271 2.994 0.606z"></path>
</svg>
