<?xml version="1.0" encoding="utf-8"?>
<!-- Generated by IcoMoon.io -->
<!DOCTYPE svg PUBLIC "-//W3C//DTD SVG 1.1//EN" "http://www.w3.org/Graphics/SVG/1.1/DTD/svg11.dtd">
<svg version="1.1" xmlns="http://www.w3.org/2000/svg" xmlns:xlink="http://www.w3.org/1999/xlink" width="20" height="20" viewBox="0 0 20 20">
<path fill="rgb(216, 219, 186)" d="M19.691 10c0-5.352-4.339-9.691-9.69-9.691s-9.691 4.338-9.691 9.691c0 5.352 4.339 9.69 9.691 9.69s9.69-4.339 9.69-9.69z"></path>
<path fill="rgb(204, 204, 204)" d="M9.781 8.979h0.437v1.924h-0.437v-1.924z"></path>
<path fill="rgb(232, 230, 230)" d="M9.781 8.979h0.205v1.924h-0.205v-1.924z"></path>
<path fill="rgb(235, 151, 131)" d="M13.348 9.617l-0.925-5.209c-0.007-0.038-0.039-0.065-0.077-0.065h-4.692c-0.038 0-0.071 0.027-0.077 0.065l-0.927 5.22c-0.004 0.023 0.002 0.046 0.017 0.064s0.037 0.028 0.060 0.028h6.545c0 0 0.001 0 0.001 0 0.043 0 0.079-0.035 0.079-0.079-0-0.009-0.001-0.017-0.004-0.025z"></path>
<path fill="rgb(155, 155, 155)" d="M10.995 12.964c-0.965-1.275-0.543-2.458-0.538-2.47 0.005-0.013 0.003-0.028-0.005-0.040s-0.022-0.019-0.036-0.019h-0.831c-0.014 0-0.028 0.007-0.036 0.019s-0.010 0.027-0.005 0.040c0.004 0.012 0.426 1.195-0.538 2.47-0.266 0.27-0.711 0.822-0.711 1.499 0 0.614 0.308 1.152 0.566 1.496 0.003 0.004 0.007 0.007 0.011 0.010 0.012 0.008 0.303 0.193 1.129 0.193s1.117-0.186 1.129-0.194c0.004-0.003 0.008-0.006 0.011-0.010 0.258-0.344 0.566-0.882 0.566-1.495 0-0.677-0.444-1.229-0.711-1.499z"></path>
<path fill="rgb(183, 183, 183)" d="M8.903 13.696c0.334-0.384 0.812-0.516 1.068-0.293s-0.952 1.614-1.208 1.392c-0.256-0.222-0.194-0.714 0.14-1.099z"></path>
<path fill="rgb(211, 137, 125)" d="M12.423 4.407c-0.007-0.038-0.039-0.065-0.077-0.065h-4.692c-0.038 0-0.071 0.027-0.077 0.065l-0.030 0.17h4.907l-0.030-0.17z"></path>
<path fill="rgb(211, 137, 125)" d="M6.667 9.692c0.015 0.018 0.037 0.028 0.060 0.028h6.545c0 0 0.001 0 0.001 0 0.043 0 0.079-0.035 0.079-0.079 0-0.009-0.001-0.017-0.004-0.025l-0.025-0.139h-6.647l-0.027 0.15c-0.004 0.023 0.002 0.046 0.017 0.064z"></path>
</svg>
