<?xml version="1.0" encoding="utf-8"?>
<!-- Generated by IcoMoon.io -->
<!DOCTYPE svg PUBLIC "-//W3C//DTD SVG 1.1//EN" "http://www.w3.org/Graphics/SVG/1.1/DTD/svg11.dtd">
<svg version="1.1" xmlns="http://www.w3.org/2000/svg" xmlns:xlink="http://www.w3.org/1999/xlink" width="20" height="20" viewBox="0 0 20 20">
<path fill="rgb(72, 161, 175)" d="M19.691 10c0-5.352-4.339-9.691-9.691-9.691s-9.691 4.338-9.691 9.691c0 5.352 4.339 9.69 9.691 9.69s9.691-4.339 9.691-9.69z"></path>
<path fill="rgb(210, 212, 214)" d="M13.376 15.548c0-0.433-1.511-0.784-3.376-0.784s-3.376 0.351-3.376 0.784c0 0.075 0 0.357 0 0.432 0 0.433 1.511 0.784 3.376 0.784s3.376-0.351 3.376-0.784c0-0.075 0-0.357 0-0.432z"></path>
<path fill="rgb(191, 192, 193)" d="M13.376 15.548c0 0.433-1.511 0.784-3.376 0.784s-3.376-0.351-3.376-0.784c0-0.433 1.511-0.784 3.376-0.784s3.376 0.351 3.376 0.784z"></path>
<path fill="rgb(210, 212, 214)" d="M10.478 15.512c0 0.061-0.214 0.111-0.478 0.111s-0.478-0.050-0.478-0.111c0-0.061 0.214-0.111 0.478-0.111s0.478 0.050 0.478 0.111z"></path>
<path fill="rgb(210, 212, 214)" d="M10.479 15.508h-0.957l0.169-3.52h0.62z"></path>
<path fill="rgb(191, 192, 193)" d="M15.035 8.271c0-2.781-2.254-5.036-5.035-5.036s-5.036 2.254-5.036 5.036c0 2.781 2.254 5.035 5.036 5.035s5.035-2.255 5.035-5.035z"></path>
<path fill="rgb(239, 239, 239)" d="M14.68 8.271c0-2.585-2.095-4.68-4.68-4.68s-4.68 2.095-4.68 4.68c0 2.584 2.095 4.68 4.68 4.68s4.68-2.095 4.68-4.68z"></path>
<path fill="rgb(66, 66, 66)" d="M10.945 8.631c0.199-0.522-0.063-1.107-0.585-1.306s-1.107 0.063-1.306 0.585c-0.199 0.522 0.063 1.107 0.585 1.306s1.107-0.063 1.306-0.585z"></path>
<path fill="rgb(66, 66, 66)" d="M9.538 7.133c0.276-0.11 0.592-0.121 0.892-0.007 0.198 0.076 0.366 0.197 0.495 0.347 1.131-1.634 0.191-2.579 0.191-2.579-0.706-0.793-1.571-0.706-1.882-0.488-1.167 0.819 0.078 2.072 0.078 2.072 0.151 0.228 0.207 0.498 0.227 0.654z"></path>
<path fill="rgb(66, 66, 66)" d="M8.821 7.905c-1.967-0.112-2.287 1.174-2.287 1.174-0.312 1.015 0.21 1.709 0.558 1.863 1.305 0.574 1.732-1.14 1.732-1.14 0.117-0.249 0.322-0.437 0.444-0.535-0.418-0.305-0.608-0.851-0.447-1.361z"></path>
<path fill="rgb(66, 66, 66)" d="M13.807 9.609c-0.088-1.423-1.808-1.017-1.808-1.017-0.382 0.014-0.738-0.175-0.785-0.201-0.010 0.107-0.035 0.215-0.075 0.321-0.145 0.382-0.46 0.648-0.826 0.748 0.802 1.805 2.094 1.499 2.094 1.499 1.045-0.188 1.423-0.97 1.4-1.35z"></path>
</svg>
