<?xml version="1.0" encoding="utf-8"?>
<!-- Generated by IcoMoon.io -->
<!DOCTYPE svg PUBLIC "-//W3C//DTD SVG 1.1//EN" "http://www.w3.org/Graphics/SVG/1.1/DTD/svg11.dtd">
<svg version="1.1" xmlns="http://www.w3.org/2000/svg" xmlns:xlink="http://www.w3.org/1999/xlink" width="20" height="20" viewBox="0 0 20 20">
<path fill="rgb(250, 188, 61)" d="M19.691 10c0-5.352-4.339-9.691-9.69-9.691s-9.691 4.338-9.691 9.691c0 5.352 4.339 9.69 9.691 9.69s9.69-4.339 9.69-9.69z"></path>
<path fill="rgb(38, 36, 37)" d="M13.546 5.29c0-0.264-1.489-0.479-3.326-0.479s-3.326 0.214-3.326 0.479c0 0.217 0 9.242 0 9.458 0 0.264 1.489 0.479 3.326 0.479s3.326-0.214 3.326-0.479c0-0.196 0-9.262 0-9.458z"></path>
<path fill="rgb(76, 75, 75)" d="M13.546 5.559c0-0.047 0-0.222 0-0.269 0-0.264-1.489-0.479-3.326-0.479s-3.326 0.214-3.326 0.479c0 0.047 0 0.222 0 0.269 0 0.245 0 2.052 0 2.297 0 0.047 0 0.222 0 0.269 0 0.264 1.489 0.479 3.326 0.479s3.326-0.214 3.326-0.479c0-0.047 0-0.222 0-0.269 0-0.214 0-2.083 0-2.297z"></path>
<path fill="rgb(58, 58, 58)" d="M13.546 5.29c0-0.264-1.489-0.479-3.326-0.479s-3.326 0.214-3.326 0.479c0 0.047 0 0.222 0 0.269 0 0.264 1.489 0.479 3.326 0.479s3.326-0.214 3.326-0.479c0-0.047 0-0.222 0-0.269z"></path>
<path fill="rgb(48, 48, 48)" d="M13.546 5.29c0 0.264-1.489 0.479-3.326 0.479s-3.326-0.214-3.326-0.479c0-0.264 1.489-0.479 3.326-0.479s3.326 0.214 3.326 0.479z"></path>
<path fill="rgb(91, 89, 89)" d="M13.531 14.006c0-0.705-1.482-1.276-3.311-1.276s-3.311 0.571-3.311 1.276c0 0-0.3 1.262-0.3 1.568 0 0.769 1.616 1.392 3.611 1.392s3.611-0.623 3.611-1.392c0-0.306-0.3-1.568-0.3-1.568z"></path>
<path fill="rgb(58, 53, 54)" d="M13.531 14.006c0 0.705-1.482 1.276-3.311 1.276s-3.311-0.571-3.311-1.276c0-0.705 1.482-1.276 3.311-1.276s3.311 0.571 3.311 1.276z"></path>
<path fill="rgb(38, 36, 37)" d="M14.698 10.668c-0.009-0.209-0.187-0.372-0.396-0.363l-2.311-0.154c-0.21 0.009 0.081 0.493 0.081 0.493l1.702 0.147c0.146-0.006 0.27 0.107 0.276 0.253l0.068 1.544c0.006 0.146-0.107 0.27-0.253 0.276l-0.972 0.186 0.145 0.475 1.396-0.248c0.21-0.009 0.372-0.187 0.363-0.396l-0.098-2.213z"></path>
<path fill="rgb(91, 89, 89)" d="M14.796 12.881l-0.098-2.213c-0.009-0.209-0.187-0.372-0.396-0.363l-2.311-0.154c-0.092 0.004-0.088 0.099-0.054 0.204l2.145 0.143c0.21-0.009 0.387 0.153 0.396 0.362l0.098 2.213c0.003 0.066-0.011 0.128-0.038 0.183 0.157-0.052 0.267-0.203 0.259-0.377z"></path>
<path fill="rgb(58, 56, 57)" d="M14.478 10.861c-0.009-0.209-0.187-0.372-0.396-0.362l-2.145-0.143c0.043 0.136 0.135 0.289 0.135 0.289l1.702 0.147c0.146-0.006 0.27 0.107 0.276 0.253l0.068 1.544c0.006 0.138-0.095 0.256-0.23 0.274-0.008 0.001-0.015 0.002-0.023 0.002l-0.972 0.186 0.043 0.143 0.101 0.332 1.396-0.248c0.036-0.002 0.071-0.009 0.104-0.020 0.027-0.055 0.041-0.118 0.038-0.183l-0.098-2.213z"></path>
<path fill="rgb(209, 205, 205)" d="M12.401 9.862c0 0-0.977 0.299-2.181 0.299s-2.181-0.299-2.181-0.299c-0.981 3.626-0.914 3.616-0.914 3.943 0 0.659 1.386 1.193 3.095 1.193s3.095-0.534 3.095-1.193c0-0.583-0.914-3.943-0.914-3.943z"></path>
<path fill="rgb(209, 205, 205)" d="M8.428 10.462l-0.664 0.442-0.227-0.764 0.444-0.063z"></path>
<path fill="rgb(255, 255, 255)" d="M7.934 10.306l-0.29-0.123 0.329-0.035z"></path>
<path fill="rgb(7, 7, 7)" d="M12.398 9.673c0-0.169-0.975-0.306-2.178-0.306s-2.178 0.137-2.178 0.306c0 0.033 0 0.158 0 0.191 0 0.169 0.975 0.306 2.178 0.306s2.178-0.137 2.178-0.306c0-0.033 0-0.158 0-0.191z"></path>
<path fill="rgb(58, 53, 54)" d="M12.398 9.673c0 0.169-0.975 0.306-2.178 0.306s-2.178-0.137-2.178-0.306c0-0.169 0.975-0.306 2.178-0.306s2.178 0.137 2.178 0.306z"></path>
<path fill="rgb(91, 89, 89)" d="M12.393 9.44c0 0.168-0.973 0.305-2.173 0.305s-2.173-0.137-2.173-0.305c0-0.168 0.973-0.305 2.173-0.305s2.173 0.137 2.173 0.305z"></path>
<path fill="rgb(91, 89, 89)" d="M8.047 9.439h4.346c0 0 0.922-5.321 0.922-5.888 0-0.659-6.19-0.659-6.19 0 0 0.583 0.922 5.888 0.922 5.888z"></path>
<path fill="rgb(196, 194, 194)" d="M13.028 13.714c0 0.598-1.257 1.082-2.808 1.082s-2.808-0.485-2.808-1.082c0-0.598 1.257-1.082 2.808-1.082s2.808 0.485 2.808 1.082z"></path>
<path fill="rgb(114, 114, 114)" d="M13.297 3.467c0-0.239-1.378-0.432-3.077-0.432s-3.077 0.193-3.077 0.432c0 0.051 0 0.239 0 0.29 0 0.239 1.378 0.432 3.077 0.432s3.077-0.193 3.077-0.432c0-0.051 0-0.239 0-0.29z"></path>
<path fill="rgb(255, 253, 253)" d="M10.189 14.5c-0.023 0-0.041-0.019-0.041-0.041v-3.89c0-0.023 0.019-0.041 0.041-0.041s0.041 0.019 0.041 0.041v3.89c-0 0.023-0.019 0.041-0.041 0.041z"></path>
<path fill="rgb(255, 253, 253)" d="M10.183 12.983h-0.417c-0.018 0-0.033-0.015-0.033-0.033s0.015-0.033 0.033-0.033h0.417c0.018 0 0.033 0.015 0.033 0.033s-0.015 0.033-0.033 0.033z"></path>
<path fill="rgb(255, 253, 253)" d="M10.617 12.567h-0.417c-0.018 0-0.033-0.015-0.033-0.033s0.015-0.033 0.033-0.033h0.417c0.018 0 0.033 0.015 0.033 0.033s-0.015 0.033-0.033 0.033z"></path>
<path fill="rgb(255, 253, 253)" d="M10.183 13.814h-0.417c-0.018 0-0.033-0.015-0.033-0.033s0.015-0.033 0.033-0.033h0.417c0.018 0 0.033 0.015 0.033 0.033s-0.015 0.033-0.033 0.033z"></path>
<path fill="rgb(255, 253, 253)" d="M10.617 13.398h-0.417c-0.018 0-0.033-0.015-0.033-0.033s0.015-0.033 0.033-0.033h0.417c0.018 0 0.033 0.015 0.033 0.033s-0.015 0.033-0.033 0.033z"></path>
<path fill="rgb(255, 253, 253)" d="M10.617 14.229h-0.417c-0.018 0-0.033-0.015-0.033-0.033s0.015-0.033 0.033-0.033h0.417c0.018 0 0.033 0.015 0.033 0.033s-0.015 0.033-0.033 0.033z"></path>
<path fill="rgb(255, 253, 253)" d="M10.183 11.327h-0.417c-0.018 0-0.033-0.015-0.033-0.033s0.015-0.033 0.033-0.033h0.417c0.018 0 0.033 0.015 0.033 0.033s-0.015 0.033-0.033 0.033z"></path>
<path fill="rgb(255, 253, 253)" d="M10.617 10.912h-0.417c-0.018 0-0.033-0.015-0.033-0.033s0.015-0.033 0.033-0.033h0.417c0.018 0 0.033 0.015 0.033 0.033s-0.015 0.033-0.033 0.033z"></path>
<path fill="rgb(255, 253, 253)" d="M10.183 12.158h-0.417c-0.018 0-0.033-0.015-0.033-0.033s0.015-0.033 0.033-0.033h0.417c0.018 0 0.033 0.015 0.033 0.033s-0.015 0.033-0.033 0.033z"></path>
<path fill="rgb(255, 253, 253)" d="M10.617 11.743h-0.417c-0.018 0-0.033-0.015-0.033-0.033s0.015-0.033 0.033-0.033h0.417c0.018 0 0.033 0.015 0.033 0.033s-0.015 0.033-0.033 0.033z"></path>
<path fill="rgb(188, 188, 188)" d="M13.297 3.467c0 0.239-1.378 0.432-3.077 0.432s-3.077-0.193-3.077-0.432c0-0.239 1.378-0.432 3.077-0.432s3.077 0.193 3.077 0.432z"></path>
<path fill="rgb(160, 159, 159)" d="M11.152 3.426c0 0.141-0.417 0.255-0.932 0.255s-0.932-0.114-0.932-0.255c0-0.141 0.417-0.255 0.932-0.255s0.932 0.114 0.932 0.255z"></path>
<path fill="rgb(188, 188, 188)" d="M10.841 3.411c0 0.087-0.278 0.157-0.621 0.157s-0.621-0.070-0.621-0.157c0-0.087 0.278-0.157 0.621-0.157s0.621 0.070 0.621 0.157z"></path>
<path fill="rgb(127, 127, 127)" d="M10.773 15.754h-1.106c-0.020 0-0.037 0.016-0.037 0.037v0.418c0 0.020 0.016 0.037 0.037 0.037h1.106c0.020 0 0.037-0.016 0.037-0.037v-0.418c0-0.020-0.016-0.037-0.037-0.037z"></path>
<path fill="rgb(96, 96, 96)" d="M10.729 16.152v-0.305c0-0.015-0.012-0.027-0.027-0.027h-0.485v0.358h0.485c0.015 0 0.027-0.012 0.027-0.027z"></path>
<path fill="rgb(71, 70, 70)" d="M10.217 15.82h-0.48c-0.015 0-0.027 0.012-0.027 0.027v0.305c0 0.015 0.012 0.027 0.027 0.027h0.48v-0.358z"></path>
</svg>
