<?xml version="1.0" encoding="utf-8"?>
<!-- Generated by IcoMoon.io -->
<!DOCTYPE svg PUBLIC "-//W3C//DTD SVG 1.1//EN" "http://www.w3.org/Graphics/SVG/1.1/DTD/svg11.dtd">
<svg version="1.1" xmlns="http://www.w3.org/2000/svg" xmlns:xlink="http://www.w3.org/1999/xlink" width="20" height="20" viewBox="0 0 20 20">
<path fill="rgb(250, 188, 61)" d="M19.782 10c0-5.352-4.339-9.691-9.69-9.691s-9.691 4.338-9.691 9.691c0 5.352 4.339 9.69 9.691 9.69s9.69-4.339 9.69-9.69z"></path>
<path fill="rgb(150, 114, 71)" d="M4.434 9.343h11.133v0.332h-11.133v-0.332z"></path>
<path fill="rgb(150, 114, 71)" d="M4.434 9.548h0.449v6.416h-0.449v-6.416z"></path>
<path fill="rgb(150, 114, 71)" d="M5.040 9.587h0.449v5.166h-0.449v-5.166z"></path>
<path fill="rgb(150, 114, 71)" d="M15.117 9.548h0.449v6.416h-0.449v-6.416z"></path>
<path fill="rgb(150, 114, 71)" d="M14.511 9.587h0.449v5.166h-0.449v-5.166z"></path>
<path fill="rgb(173, 131, 85)" d="M15.566 9.343h-11.133l0.605-1.211h9.922z"></path>
<path fill="rgb(117, 89, 57)" d="M10 9.675h5.117v1.166h-5.117v-1.166z"></path>
<path fill="rgb(117, 89, 57)" d="M4.883 9.675h5.117v1.166h-5.117v-1.166z"></path>
<path fill="rgb(150, 114, 71)" d="M4.991 9.772h4.948v0.97h-4.948v-0.97z"></path>
<path fill="rgb(150, 114, 71)" d="M10.053 9.772h4.948v0.97h-4.948v-0.97z"></path>
<path fill="rgb(117, 89, 57)" d="M12.71 10.246c0 0.105-0.085 0.19-0.19 0.19s-0.19-0.085-0.19-0.19c0-0.105 0.085-0.19 0.19-0.19s0.19 0.085 0.19 0.19z"></path>
<path fill="rgb(117, 89, 57)" d="M7.661 10.246c0 0.105-0.085 0.19-0.19 0.19s-0.19-0.085-0.19-0.19c0-0.105 0.085-0.19 0.19-0.19s0.19 0.085 0.19 0.19z"></path>
<path fill="rgb(119, 85, 57)" d="M5.462 7.351h-0.423l-0.28 0.56-0.322 1.432h0.514l0.511-1.211z"></path>
<path fill="rgb(145, 107, 70)" d="M5.273 7.351h-0.234l-0.28 0.56-0.322 1.432h0.514z"></path>
<path fill="rgb(119, 85, 57)" d="M14.538 7.351h0.423l0.28 0.56 0.326 1.432h-0.514l-0.514-1.211z"></path>
<path fill="rgb(145, 107, 70)" d="M14.727 7.351h0.234l0.28 0.56 0.326 1.432h-0.514z"></path>
<path fill="rgb(150, 114, 71)" d="M15.241 7.832l-0.28-0.56h-9.922l-0.28 0.56v0.078h10.482z"></path>
<path fill="rgb(173, 131, 85)" d="M14.961 7.273h-9.922l-0.28 0.56h10.482z"></path>
<path fill="rgb(6, 6, 7)" d="M8.39 7.557c0 0.119-0.346 0.215-0.773 0.215s-0.773-0.096-0.773-0.215c0-0.119 0.346-0.215 0.773-0.215s0.773 0.096 0.773 0.215z"></path>
<path fill="rgb(31, 31, 38)" d="M7.959 7.531c0 0.053-0.153 0.095-0.342 0.095s-0.342-0.043-0.342-0.095c0-0.053 0.153-0.095 0.342-0.095s0.342 0.043 0.342 0.095z"></path>
<path fill="rgb(31, 31, 38)" d="M7.959 7.534h-0.683l0.093-0.497h0.498z"></path>
<path fill="rgb(7, 7, 9)" d="M5.469 4.036h4.297v3.055h-4.297v-3.055z"></path>
<path fill="rgb(30, 30, 30)" d="M5.594 4.16h4.047v2.816h-4.047v-2.816z"></path>
<path fill="rgb(7, 7, 9)" d="M9.292 8.337c-0.004-0.028-0.028-0.049-0.056-0.049h-3.117c-0.028 0-0.052 0.021-0.056 0.049l-0.107 0.759c-0.002 0.016 0.002 0.033 0.013 0.045s0.027 0.020 0.043 0.020h3.333c0.031 0 0.057-0.025 0.057-0.057-0-0.006-0.109-0.767-0.109-0.767z"></path>
<path fill="rgb(52, 52, 58)" d="M8.481 8.442h-2.295c-0.011 0-0.020-0.009-0.020-0.020s0.009-0.020 0.020-0.020h2.295c0.011 0 0.020 0.009 0.020 0.020s-0.009 0.020-0.020 0.020z"></path>
<path fill="rgb(52, 52, 58)" d="M8.488 8.643h-2.328c-0.011 0-0.020-0.009-0.020-0.020s0.009-0.020 0.020-0.020h2.328c0.011 0 0.020 0.009 0.020 0.020s-0.009 0.020-0.020 0.020z"></path>
<path fill="rgb(52, 52, 58)" d="M8.496 8.848h-2.365c-0.011 0-0.020-0.009-0.020-0.020s0.009-0.020 0.020-0.020h2.365c0.011 0 0.020 0.009 0.020 0.020s-0.009 0.020-0.020 0.020z"></path>
<path fill="rgb(52, 52, 58)" d="M8.503 9.048h-2.401c-0.011 0-0.020-0.009-0.020-0.020s0.009-0.020 0.020-0.020h2.401c0.011 0 0.020 0.009 0.020 0.020s-0.009 0.020-0.020 0.020z"></path>
<path fill="rgb(52, 52, 58)" d="M9.179 8.442h-0.602c-0.011 0-0.020-0.009-0.020-0.020s0.009-0.020 0.020-0.020h0.602c0.011 0 0.020 0.009 0.020 0.020s-0.009 0.020-0.020 0.020z"></path>
<path fill="rgb(52, 52, 58)" d="M8.606 9.048c-0.010 0-0.019-0.008-0.019-0.019l-0.029-0.605c-0.001-0.011 0.008-0.020 0.019-0.020 0.012-0.002 0.020 0.008 0.020 0.019l0.029 0.605c0.001 0.011-0.008 0.020-0.019 0.020-0 0-0.001 0-0.001 0z"></path>
<path fill="rgb(52, 52, 58)" d="M8.503 9.048c-0.011 0-0.019-0.008-0.020-0.019l-0.022-0.605c-0-0.011 0.008-0.020 0.019-0.020 0.013-0.001 0.020 0.008 0.020 0.019l0.022 0.605c0 0.011-0.008 0.020-0.019 0.020-0 0-0.001 0-0.001 0z"></path>
<path fill="rgb(52, 52, 58)" d="M6.102 9.048c-0.001 0-0.002-0-0.003-0-0.011-0.001-0.018-0.011-0.017-0.022l0.085-0.605c0.001-0.011 0.011-0.018 0.022-0.017s0.018 0.011 0.017 0.022l-0.085 0.605c-0.001 0.010-0.010 0.017-0.019 0.017z"></path>
<path fill="rgb(52, 52, 58)" d="M6.321 9.048c-0.001 0-0.002-0-0.002-0-0.011-0.001-0.018-0.011-0.017-0.022l0.070-0.605c0.001-0.011 0.011-0.018 0.022-0.017s0.018 0.011 0.017 0.022l-0.070 0.605c-0.001 0.010-0.010 0.017-0.019 0.017z"></path>
<path fill="rgb(52, 52, 58)" d="M6.536 9.048c-0.001 0-0.001-0-0.002-0-0.011-0.001-0.018-0.011-0.017-0.022l0.065-0.605c0.001-0.011 0.011-0.018 0.022-0.017s0.018 0.011 0.017 0.022l-0.065 0.605c-0.001 0.010-0.010 0.017-0.019 0.017z"></path>
<path fill="rgb(52, 52, 58)" d="M6.758 9.048c-0.001 0-0.001-0-0.002-0-0.011-0.001-0.019-0.011-0.018-0.021l0.056-0.605c0.001-0.011 0.011-0.018 0.021-0.018s0.019 0.011 0.018 0.021l-0.056 0.605c-0.001 0.010-0.009 0.018-0.019 0.018z"></path>
<path fill="rgb(52, 52, 58)" d="M6.982 9.048c-0 0-0.001 0-0.001-0-0.011-0.001-0.019-0.010-0.018-0.021l0.041-0.605c0.001-0.011 0.010-0.019 0.021-0.018s0.019 0.010 0.018 0.021l-0.041 0.605c-0.001 0.010-0.009 0.018-0.019 0.018z"></path>
<path fill="rgb(52, 52, 58)" d="M7.195 9.048c-0.001 0-0.001 0-0.001-0-0.011-0.001-0.019-0.010-0.018-0.021l0.044-0.605c0.001-0.011 0.011-0.019 0.021-0.018s0.019 0.010 0.018 0.021l-0.044 0.605c-0.001 0.010-0.009 0.018-0.019 0.018z"></path>
<path fill="rgb(52, 52, 58)" d="M7.407 9.048c-0 0-0.001 0-0.001-0-0.011-0.001-0.019-0.010-0.018-0.021l0.041-0.605c0.001-0.011 0.010-0.019 0.021-0.018s0.019 0.010 0.018 0.021l-0.041 0.605c-0.001 0.010-0.009 0.018-0.019 0.018z"></path>
<path fill="rgb(52, 52, 58)" d="M7.622 9.048c-0 0-0.001 0-0.001-0-0.011-0.001-0.019-0.010-0.018-0.021l0.040-0.605c0.001-0.011 0.010-0.019 0.021-0.018s0.019 0.010 0.018 0.021l-0.040 0.605c-0.001 0.010-0.009 0.018-0.019 0.018z"></path>
<path fill="rgb(52, 52, 58)" d="M7.832 9.048c-0 0-0.001 0-0.001-0-0.011-0.001-0.019-0.010-0.018-0.021l0.040-0.605c0.001-0.011 0.010-0.019 0.021-0.018s0.019 0.010 0.018 0.021l-0.040 0.605c-0.001 0.010-0.009 0.018-0.019 0.018z"></path>
<path fill="rgb(52, 52, 58)" d="M8.065 9.048c-0 0-0 0-0.001 0-0.011-0-0.019-0.009-0.019-0.020l0.019-0.605c0-0.011 0.007-0.019 0.020-0.019 0.011 0 0.019 0.009 0.019 0.020l-0.019 0.605c-0 0.011-0.009 0.019-0.020 0.019z"></path>
<path fill="rgb(52, 52, 58)" d="M8.301 9.048c-0.011 0-0.019-0.009-0.020-0.019l-0.007-0.605c-0-0.011 0.009-0.020 0.019-0.020 0.010 0.001 0.020 0.009 0.020 0.019l0.007 0.605c0 0.011-0.009 0.020-0.019 0.020-0 0-0 0-0 0z"></path>
<path fill="rgb(52, 52, 58)" d="M8.834 9.047c-0.010 0-0.019-0.008-0.019-0.018l-0.043-0.601c-0.001-0.011 0.007-0.020 0.018-0.021s0.020 0.007 0.021 0.018l0.043 0.601c0.001 0.011-0.007 0.020-0.018 0.021-0.001 0-0.001 0-0.001 0z"></path>
<path fill="rgb(52, 52, 58)" d="M9.054 9.048c-0.010 0-0.018-0.007-0.019-0.017l-0.066-0.605c-0.001-0.011 0.007-0.020 0.017-0.022s0.020 0.007 0.022 0.017l0.066 0.605c0.001 0.011-0.007 0.020-0.017 0.022-0.001 0-0.001 0-0.002 0z"></path>
<path fill="rgb(52, 52, 58)" d="M9.269 9.048c-0.009 0-0.018-0.007-0.019-0.017l-0.090-0.605c-0.002-0.011 0.006-0.021 0.016-0.022s0.021 0.006 0.022 0.016l0.090 0.605c0.002 0.011-0.006 0.021-0.016 0.022-0.001 0-0.002 0-0.003 0z"></path>
<path fill="rgb(52, 52, 58)" d="M9.208 8.643h-0.621c-0.011 0-0.020-0.009-0.020-0.020s0.009-0.020 0.020-0.020h0.621c0.011 0 0.020 0.009 0.020 0.020s-0.009 0.020-0.020 0.020z"></path>
<path fill="rgb(52, 52, 58)" d="M9.239 8.848h-0.642c-0.011 0-0.020-0.009-0.020-0.020s0.009-0.020 0.020-0.020h0.642c0.011 0 0.020 0.009 0.020 0.020s-0.009 0.020-0.020 0.020z"></path>
<path fill="rgb(52, 52, 58)" d="M9.269 9.048h-0.663c-0.011 0-0.020-0.009-0.020-0.020s0.009-0.020 0.020-0.020h0.663c0.011 0 0.020 0.009 0.020 0.020s-0.009 0.020-0.020 0.020z"></path>
<path fill="rgb(7, 7, 9)" d="M10.218 8.709l-0.061-0.246c-0.005-0.041-0.038-0.071-0.075-0.066l-0.191 0.022c-0.037 0.004-0.062 0.041-0.058 0.081l-0.004 0.254c0.001 0.011 0.014 0.12 0.014 0.12 0.005 0.041 0.040 0.178 0.218 0.158s0.175-0.161 0.17-0.202c0 0-0.012-0.108-0.014-0.12z"></path>
<path fill="rgb(35, 35, 40)" d="M10.218 8.709c0.005 0.041-0.002 0.091-0.18 0.111s-0.203-0.026-0.208-0.067l0.004-0.254c-0.005-0.041 0.021-0.077 0.058-0.081l0.191-0.022c0.037-0.004 0.070 0.026 0.075 0.066l0.061 0.246z"></path>
<path fill="rgb(70, 70, 79)" d="M10.165 8.493l-0.008-0.030c-0.005-0.041-0.038-0.071-0.075-0.066l-0.191 0.022c-0.037 0.004-0.062 0.041-0.058 0.081l-0 0.029c0.028 0.016 0.079 0.023 0.173 0.013 0.089-0.010 0.135-0.028 0.159-0.048z"></path>
<path fill="rgb(7, 7, 9)" d="M9.983 8.408l0.010-0.001 0.014 0.135-0.010 0.001-0.014-0.135z"></path>
<path fill="rgb(7, 7, 9)" d="M10.030 8.467c0.002 0.016-0.012 0.031-0.031 0.034s-0.036-0.009-0.038-0.026c-0.002-0.016 0.012-0.031 0.031-0.034s0.036 0.009 0.038 0.026z"></path>
<path fill="rgb(232, 230, 230)" d="M13.715 7.47c0.043 0 0.079-0.035 0.079-0.079 0-0.806 0.197-1.281 0.372-1.699 0.125-0.3 0.233-0.56 0.233-0.872 0-0.182-0.063-0.341-0.183-0.458-0.126-0.125-0.314-0.198-0.501-0.194-0.185 0.003-0.354 0.080-0.476 0.217-0.029 0.032-0.026 0.082 0.006 0.111s0.082 0.026 0.111-0.006c0.094-0.105 0.219-0.162 0.361-0.164 0.003-0 0.006-0 0.008-0 0.143 0 0.285 0.056 0.38 0.149 0.090 0.089 0.136 0.206 0.136 0.347 0 0.281-0.102 0.527-0.221 0.812-0.171 0.411-0.384 0.922-0.384 1.76-0 0.043 0.035 0.079 0.078 0.079z"></path>
<path fill="rgb(130, 130, 130)" d="M13.055 4.62l0.026-0.033c0.010-0.010 0.023-0.002 0.042 0.017s0.028 0.034 0.019 0.044l-0.033 0.026-0.054-0.054z"></path>
<path fill="rgb(192, 192, 192)" d="M13.028 4.625l0.026-0.037c0.012-0.012 0.026 0.005 0.053 0.031s0.046 0.043 0.034 0.056l-0.037 0.026-0.077-0.077z"></path>
<path fill="rgb(147, 146, 146)" d="M13.010 4.634l0.027-0.038c0.014-0.014 0.029 0.005 0.059 0.034s0.051 0.048 0.037 0.062l-0.038 0.027-0.085-0.085z"></path>
<path fill="rgb(192, 192, 192)" d="M12.996 4.645l0.027-0.039c0.014-0.014 0.034 0.007 0.064 0.038s0.050 0.047 0.035 0.062l-0.039 0.027-0.088-0.088z"></path>
<path fill="rgb(161, 159, 159)" d="M13.006 4.636l0.006-0.018c0.014-0.014 0.030 0.005 0.061 0.036s0.053 0.050 0.039 0.064l-0.018 0.006-0.088-0.088z"></path>
<path fill="rgb(192, 192, 192)" d="M13.041 4.734l-0.046-0.046c-0.015-0.015-0.015-0.038-0.001-0.053l0.006-0.006c0.014-0.014 0.032 0.007 0.063 0.038s0.051 0.047 0.037 0.062l-0.006 0.006c-0.014 0.014-0.038 0.014-0.053-0.001z"></path>
<path fill="rgb(239, 235, 172)" d="M13.072 4.763c-0.066 0.066 0.017 0.174-0.090 0.281-0.084 0.084-0.22 0.084-0.304 0s-0.084-0.22 0-0.304c0.104-0.104 0.216-0.021 0.283-0.089 0.044-0.044 0.156 0.066 0.111 0.111z"></path>
<path fill="rgb(72, 161, 175)" d="M12.445 4.541l0.875-0.329c0.005-0.004 0.009-0.006 0.011-0.004l0.221 0.221c0.002 0.002 0 0.007-0.004 0.011l-0.33 0.876c-0.002 0.003-0.006 0.005-0.009 0.005s-0.007-0.001-0.010-0.004l-0.756-0.756c0-0-0-0-0-0-0.005-0.005-0.005-0.013 0-0.018 0.001-0.001 0.002-0.002 0.003-0.002z"></path>
<path fill="rgb(232, 230, 230)" d="M13.033 7.593h1.363c0-0.222-0.305-0.402-0.682-0.402s-0.682 0.18-0.682 0.402z"></path>
<path fill="rgb(204, 202, 202)" d="M13.301 7.357c-0.066 0.034-0.132 0.038-0.147 0.009-0-0-0-0.001-0-0.001 0.061-0.052 0.142-0.096 0.237-0.126 0.001 0.001 0.001 0.001 0.002 0.002 0.015 0.030-0.025 0.082-0.091 0.116z"></path>
<path fill="rgb(145, 144, 144)" d="M13.169 7.359c-0.010-0.020 0.028-0.061 0.085-0.091s0.113-0.038 0.123-0.018c0.010 0.020-0.028 0.061-0.085 0.091s-0.113 0.038-0.123 0.018z"></path>
</svg>
