<?xml version="1.0" encoding="utf-8"?>
<!-- Generated by IcoMoon.io -->
<!DOCTYPE svg PUBLIC "-//W3C//DTD SVG 1.1//EN" "http://www.w3.org/Graphics/SVG/1.1/DTD/svg11.dtd">
<svg version="1.1" xmlns="http://www.w3.org/2000/svg" xmlns:xlink="http://www.w3.org/1999/xlink" width="20" height="20" viewBox="0 0 20 20">
<path fill="rgb(37, 183, 211)" d="M19.691 10c0-5.352-4.339-9.691-9.69-9.691s-9.691 4.338-9.691 9.691c0 5.352 4.339 9.69 9.691 9.69s9.69-4.339 9.69-9.69z"></path>
<path fill="rgb(221, 221, 221)" d="M16.172 13.584c0 0.259-0.21 0.469-0.469 0.469h-11.406c-0.259 0-0.469-0.21-0.469-0.469v-7.168c0-0.259 0.21-0.469 0.469-0.469h11.406c0.259 0 0.469 0.21 0.469 0.469v7.168z"></path>
<path fill="rgb(58, 53, 54)" d="M4.844 6.953h8.75v6.094h-8.75v-6.094z"></path>
<path fill="rgb(58, 53, 54)" d="M14.199 6.953h1.386v0.879h-1.386v-0.879z"></path>
<path fill="rgb(73, 67, 69)" d="M15.585 6.953h-1.386v0.879z"></path>
<path fill="rgb(204, 202, 202)" d="M5.791 7.694h6.855v4.611h-6.855v-4.611z"></path>
<path fill="rgb(94, 91, 92)" d="M14.439 9.262c0.223-0.223 0.584-0.223 0.807 0s0.223 0.584 0 0.807c-0.223 0.223-0.584 0.223-0.807 0s-0.223-0.584-0-0.807z"></path>
<path fill="rgb(109, 107, 107)" d="M15.427 10.25l-0.073-0.073c0.137-0.137 0.212-0.319 0.212-0.512s-0.075-0.376-0.212-0.512c-0.283-0.283-0.742-0.283-1.025-0s-0.282 0.742 0 1.025l-0.073 0.073c-0.323-0.323-0.323-0.847-0-1.17s0.847-0.322 1.17 0c0.156 0.156 0.242 0.364 0.242 0.585s-0.086 0.429-0.242 0.585z"></path>
<path fill="rgb(58, 53, 54)" d="M14.842 9.425c0.356-0 0.644 0.109 0.644 0.244s-0.288 0.244-0.644 0.244c-0.356-0-0.644-0.109-0.644-0.244s0.288-0.244 0.644-0.244z"></path>
<path fill="rgb(38, 38, 38)" d="M14.842 9.517c0.356 0 0.644 0.066 0.644 0.149s-0.288 0.149-0.644 0.149-0.644-0.067-0.644-0.149c0-0.082 0.288-0.149 0.644-0.149z"></path>
<path fill="rgb(73, 67, 69)" d="M14.707 11.26c0 0.141-0.114 0.255-0.255 0.255s-0.255-0.114-0.255-0.255c0-0.141 0.114-0.255 0.255-0.255s0.255 0.114 0.255 0.255z"></path>
<path fill="rgb(73, 67, 69)" d="M15.655 11.26c0 0.141-0.114 0.255-0.255 0.255s-0.255-0.114-0.255-0.255c0-0.141 0.114-0.255 0.255-0.255s0.255 0.114 0.255 0.255z"></path>
<path fill="rgb(73, 67, 69)" d="M14.707 12.025c0 0.141-0.114 0.255-0.255 0.255s-0.255-0.114-0.255-0.255c0-0.141 0.114-0.255 0.255-0.255s0.255 0.114 0.255 0.255z"></path>
<path fill="rgb(73, 67, 69)" d="M15.655 12.025c0 0.141-0.114 0.255-0.255 0.255s-0.255-0.114-0.255-0.255c0-0.141 0.114-0.255 0.255-0.255s0.255 0.114 0.255 0.255z"></path>
<path fill="rgb(73, 67, 69)" d="M14.707 12.779c0 0.141-0.114 0.255-0.255 0.255s-0.255-0.114-0.255-0.255c0-0.141 0.114-0.255 0.255-0.255s0.255 0.114 0.255 0.255z"></path>
<path fill="rgb(73, 67, 69)" d="M15.655 12.779c0 0.141-0.114 0.255-0.255 0.255s-0.255-0.114-0.255-0.255c0-0.141 0.114-0.255 0.255-0.255s0.255 0.114 0.255 0.255z"></path>
</svg>
