<?xml version="1.0" encoding="utf-8"?>
<!-- Generated by IcoMoon.io -->
<!DOCTYPE svg PUBLIC "-//W3C//DTD SVG 1.1//EN" "http://www.w3.org/Graphics/SVG/1.1/DTD/svg11.dtd">
<svg version="1.1" xmlns="http://www.w3.org/2000/svg" xmlns:xlink="http://www.w3.org/1999/xlink" width="20" height="20" viewBox="0 0 20 20">
<path fill="rgb(51, 77, 92)" d="M19.691 10c0-5.352-4.339-9.691-9.69-9.691s-9.691 4.338-9.691 9.691c0 5.352 4.339 9.69 9.691 9.69s9.69-4.339 9.69-9.69z"></path>
<path fill="rgb(242, 238, 235)" d="M10 19.69c2.84 0 5.395-1.222 7.168-3.169v-10.015c0-1.202-0.974-2.177-2.177-2.177h-9.982c-1.202 0-2.177 0.975-2.177 2.177v10.015c1.773 1.947 4.327 3.169 7.168 3.169z"></path>
<path fill="rgb(255, 255, 255)" d="M10 19.69c3.622 0 6.78-1.988 8.443-4.931-1.496-0.822-5.526-1.426-8.458-1.426-2.931 0-6.937 0.604-8.428 1.425 1.663 2.944 4.821 4.932 8.443 4.932z"></path>
<path fill="rgb(217, 218, 219)" d="M8.012 16.409c-0.085 0-0.154 0.069-0.154 0.154v2.89c0.102 0.023 0.205 0.044 0.308 0.064v-2.954c0-0.085-0.069-0.154-0.154-0.154z"></path>
<path fill="rgb(217, 218, 219)" d="M8.807 16.409c-0.085 0-0.154 0.069-0.154 0.154v3.035c0.102 0.014 0.205 0.027 0.308 0.038v-3.072c-0-0.085-0.069-0.154-0.154-0.154z"></path>
<path fill="rgb(217, 218, 219)" d="M9.602 16.409c-0.085 0-0.154 0.069-0.154 0.154v3.112c0.102 0.006 0.205 0.010 0.308 0.012v-3.124c0-0.085-0.069-0.154-0.154-0.154z"></path>
<path fill="rgb(217, 218, 219)" d="M10.398 16.409c-0.085 0-0.154 0.069-0.154 0.154v3.124c0.103-0.003 0.206-0.007 0.308-0.012v-3.112c-0-0.085-0.069-0.154-0.154-0.154z"></path>
<path fill="rgb(217, 218, 219)" d="M11.193 16.409c-0.085 0-0.154 0.069-0.154 0.154v3.072c0.103-0.011 0.206-0.023 0.308-0.038v-3.035c0-0.085-0.069-0.154-0.154-0.154z"></path>
<path fill="rgb(217, 218, 219)" d="M11.988 16.409c-0.085 0-0.154 0.069-0.154 0.154v2.954c0.103-0.020 0.206-0.041 0.308-0.064v-2.89c-0-0.085-0.069-0.154-0.154-0.154z"></path>
<path fill="rgb(191, 192, 193)" d="M14.74 17.513c0 0.582-0.472 1.055-1.055 1.055s-1.055-0.472-1.055-1.055c0-0.582 0.472-1.055 1.055-1.055s1.055 0.472 1.055 1.055z"></path>
<path fill="rgb(255, 255, 255)" d="M14.575 17.513c0 0.492-0.398 0.89-0.89 0.89s-0.89-0.398-0.89-0.89c0-0.492 0.398-0.89 0.89-0.89s0.89 0.398 0.89 0.89z"></path>
<path fill="rgb(175, 16, 16)" d="M13.683 17.566c-0.029 0-0.053-0.024-0.053-0.053v-0.437c0-0.029 0.024-0.053 0.053-0.053s0.053 0.024 0.053 0.053v0.437c0 0.029-0.024 0.053-0.053 0.053z"></path>
<path fill="rgb(51, 102, 163)" d="M14.059 17.923c-0.009 0-0.018-0.003-0.025-0.010l-0.375-0.374c-0.014-0.014-0.014-0.036 0-0.050s0.036-0.014 0.050 0l0.375 0.374c0.014 0.014 0.014 0.036 0 0.050-0.007 0.007-0.016 0.010-0.025 0.010z"></path>
<path fill="rgb(48, 160, 24)" d="M13.133 18.021c-0.005 0-0.010-0.002-0.013-0.006-0.007-0.007-0.006-0.018 0.001-0.025l0.55-0.491c0.007-0.006 0.018-0.006 0.025 0.001s0.006 0.018-0.001 0.025l-0.55 0.491c-0.003 0.003-0.008 0.004-0.012 0.004z"></path>
<path fill="rgb(159, 159, 160)" d="M13.83 17.512c0 0.081-0.066 0.147-0.147 0.147s-0.147-0.066-0.147-0.147 0.066-0.147 0.147-0.147c0.081 0 0.147 0.066 0.147 0.147z"></path>
<path fill="rgb(201, 184, 31)" d="M5.494 13.696c-0.25 0.038-0.496 0.080-0.736 0.123 0.030 0.089 0.046 0.184 0.046 0.283 0 0.489-0.396 0.885-0.885 0.885-0.455 0-0.829-0.343-0.879-0.784-0.251 0.070-0.486 0.142-0.701 0.218l0.249 1.153 3.165-0.682-0.258-1.196z"></path>
<path fill="rgb(51, 102, 163)" d="M3.919 14.779c0.374 0 0.677-0.303 0.677-0.677 0-0.086-0.017-0.168-0.046-0.244-0.464 0.088-0.903 0.185-1.306 0.291 0.024 0.352 0.317 0.631 0.675 0.631z"></path>
<path fill="rgb(255, 255, 255)" d="M3.919 14.987c0.489 0 0.885-0.396 0.885-0.885 0-0.099-0.016-0.194-0.046-0.283-0.070 0.013-0.139 0.026-0.208 0.039 0.029 0.076 0.046 0.158 0.046 0.244 0 0.374-0.303 0.677-0.677 0.677-0.358 0-0.651-0.278-0.675-0.631-0.069 0.018-0.138 0.036-0.205 0.055 0.050 0.441 0.425 0.784 0.879 0.784z"></path>
<path fill="rgb(51, 102, 163)" d="M17.412 15.574l0.248-1.151c-0.823-0.289-1.943-0.537-3.156-0.724l-0.257 1.193 3.165 0.682z"></path>
<path fill="rgb(175, 16, 16)" d="M14.505 13.699l-0.123 0.571 3.165 0.682 0.114-0.529c-0.823-0.289-1.943-0.537-3.156-0.724z"></path>
<path fill="rgb(255, 255, 255)" d="M15.602 14.179l0.852 0.18-0.145 0.688-0.852-0.18 0.145-0.688z"></path>
<path fill="rgb(201, 184, 31)" d="M16.011 14.351l0.052 0.196 0.191 0.068-0.17 0.11-0.006 0.203-0.158-0.128-0.195 0.057 0.073-0.189-0.115-0.167 0.203 0.011z"></path>
<path fill="rgb(219, 219, 219)" d="M13.92 12.822c0-0.434-1.755-0.785-3.92-0.785s-3.92 0.352-3.92 0.785c0 0.050 0 0.848 0 0.898 0 0.434 1.755 0.785 3.92 0.785s3.92-0.352 3.92-0.785c0-0.050 0-0.848 0-0.898z"></path>
<path fill="rgb(255, 255, 255)" d="M13.92 12.822c0 0.434-1.755 0.785-3.92 0.785s-3.92-0.352-3.92-0.785c0-0.434 1.755-0.785 3.92-0.785s3.92 0.352 3.92 0.785z"></path>
<path fill="rgb(42, 63, 73)" d="M13.32 12.822c0 0.356-1.487 0.644-3.32 0.644s-3.32-0.289-3.32-0.644c0-0.356 1.487-0.644 3.32-0.644s3.32 0.289 3.32 0.644z"></path>
<path fill="rgb(226, 163, 121)" d="M11.316 12.23c0.027-0.256 0.088-0.556 0.203-0.901h-3.038c0.114 0.345 0.176 0.644 0.203 0.901 0.404-0.034 0.849-0.053 1.316-0.053s0.913 0.019 1.316 0.053z"></path>
<path fill="rgb(226, 163, 121)" d="M11.316 12.23c-0.404-0.034-0.849-0.053-1.316-0.053s-0.913 0.019-1.316 0.053c0.077 0.724-0.117 1.101-0.157 1.169 0.444 0.043 0.944 0.067 1.474 0.067s1.029-0.024 1.474-0.067c-0.040-0.068-0.235-0.445-0.157-1.169z"></path>
<path fill="rgb(244, 179, 130)" d="M13.447 7.152c0-3.611-1.543-4.437-3.447-4.437s-3.447 0.827-3.447 4.437c0 1.221 0.242 2.178 0.604 2.917 0.797 1.625 2.176 2.193 2.843 2.193s2.047-0.568 2.843-2.193c0.362-0.739 0.604-1.696 0.604-2.917z"></path>
<path fill="rgb(229, 161, 115)" d="M10.964 10.511c0 0.092-0.431 0.345-0.964 0.345s-0.964-0.252-0.964-0.345c0-0.057 0.306-0.22 0.511-0.25 0.128-0.019 0.452 0.104 0.452 0.104s0.32-0.123 0.447-0.104c0.209 0.030 0.517 0.251 0.517 0.251z"></path>
<path fill="rgb(216, 147, 100)" d="M10.964 10.511c0 0.092-0.431 0.449-0.964 0.449s-0.964-0.357-0.964-0.449c0 0 0.393 0.046 0.964 0.046s0.964-0.046 0.964-0.046z"></path>
<path fill="rgb(244, 179, 130)" d="M6.966 9.631c-0.33 0.056-0.561 0.006-0.747-1.082s0.065-1.23 0.394-1.286l0.352 2.368z"></path>
<path fill="rgb(244, 179, 130)" d="M13.038 9.631c0.33 0.056 0.561 0.006 0.747-1.082s-0.065-1.23-0.394-1.286l-0.352 2.368z"></path>
<path fill="rgb(58, 29, 18)" d="M11.803 4.48l1.644 2.672c0-3.611-1.182-4.535-3.447-4.535s-3.447 0.924-3.447 4.535l1.514-2.672h3.737z"></path>
<path fill="rgb(58, 29, 18)" d="M6.772 5.808c-0.166 0.425-0.22 0.952-0.22 1.464 0 0 0.342-0.075 0.342 0.101l0.107 1.079 0.151-0.073c-0.010-0.898 0.19-2.656 0.19-2.656l-0.571 0.085z"></path>
<path fill="rgb(58, 29, 18)" d="M13.231 5.808c0.166 0.425 0.22 0.952 0.22 1.464 0 0-0.342-0.075-0.342 0.101l-0.107 1.079-0.151-0.073c0.010-0.898-0.19-2.585-0.19-2.585l0.571 0.014z"></path>
<path fill="rgb(42, 63, 73)" d="M8.032 13.426v0z"></path>
<path fill="rgb(42, 63, 73)" d="M12.477 13.487c-0-0-0.001-0-0.001-0s0.001 0 0.001 0v0z"></path>
<path fill="rgb(42, 63, 73)" d="M12.22 13.456c0.004 0 0.007 0.001 0.011 0.001-0.004-0-0.007-0.001-0.011-0.001z"></path>
<path fill="rgb(42, 63, 73)" d="M11.967 13.429v0l0 0z"></path>
</svg>
