<?xml version="1.0" encoding="utf-8"?>
<!-- Generated by IcoMoon.io -->
<!DOCTYPE svg PUBLIC "-//W3C//DTD SVG 1.1//EN" "http://www.w3.org/Graphics/SVG/1.1/DTD/svg11.dtd">
<svg version="1.1" xmlns="http://www.w3.org/2000/svg" xmlns:xlink="http://www.w3.org/1999/xlink" width="20" height="20" viewBox="0 0 20 20">
<path fill="rgb(163, 213, 224)" d="M19.691 10c0-5.352-4.339-9.691-9.69-9.691s-9.691 4.338-9.691 9.691c0 5.352 4.339 9.69 9.691 9.69s9.69-4.339 9.69-9.69z"></path>
<path fill="rgb(1, 152, 151)" d="M9.987 13.333c-3.014 0-5.433 0.862-5.719 1.927-0.127 0.475-0.272 1.375-0.396 2.247 1.67 1.365 3.803 2.183 6.128 2.183s4.458-0.819 6.127-2.183c-0.124-0.872-0.268-1.772-0.396-2.247-0.286-1.066-2.731-1.927-5.745-1.927z"></path>
<path fill="rgb(208, 234, 239)" d="M8.073 13.452c0 0-0.751 1.717 1.913 1.717s1.943-1.717 1.943-1.717l-1.929-0.225-1.927 0.225z"></path>
<path fill="rgb(226, 163, 121)" d="M11.519 11.33h-3.038c0.474 1.429 0.038 2.082 0.038 2.082l1.051 0.505h0.859l1.051-0.505c0 0-0.436-0.653 0.038-2.082z"></path>
<path fill="rgb(244, 179, 130)" d="M13.115 7.152c0-3.611-1.395-4.437-3.115-4.437s-3.115 0.827-3.115 4.437c0 1.221 0.219 2.178 0.546 2.917 0.72 1.625 1.966 2.193 2.57 2.193s1.85-0.568 2.57-2.193c0.327-0.739 0.546-1.696 0.546-2.917z"></path>
<path fill="rgb(242, 222, 124)" d="M10 2.715c-1.904 0-3.232 0.999-3.232 4.609 0 0 3.229-1.791 3.229-3.105l0.003-1.504z"></path>
<path fill="rgb(242, 222, 124)" d="M9.997 2.715c1.904 0 3.232 0.999 3.232 4.609 0 0-3.229-1.791-3.229-3.105l-0.003-1.504z"></path>
<path fill="rgb(1, 152, 151)" d="M6.94 3.438c0 0.313-0.147 2.797-0.147 2.797h6.426c0 0-0.146-2.484-0.146-2.797 0-0.156-1.292-0.839-3.034-0.84-1.763-0.001-3.099 0.682-3.099 0.84z"></path>
<path fill="rgb(226, 163, 121)" d="M8.519 13.411c0 0-0.577 1.433 1.47 1.433s1.492-1.433 1.492-1.433l-1.491-0.719-1.471 0.719z"></path>
<path fill="rgb(244, 179, 130)" d="M6.585 8.423c0.168 0.983 0.377 1.028 0.675 0.978l-0.318-2.139c-0.298 0.051-0.524 0.179-0.356 1.162z"></path>
<path fill="rgb(244, 179, 130)" d="M13.063 7.261l-0.318 2.139c0.298 0.051 0.507 0.005 0.675-0.978s-0.059-1.111-0.356-1.162z"></path>
<path fill="rgb(242, 222, 124)" d="M7.135 7.461c-0.017-0.105-0.019-0.202-0.016-0.279 0.004-0.111 0.019-0.183 0.019-0.183l-0.366 0.137c-0.001 0.056-0.001 0.112-0.001 0.169 0 0 0.040-0.013 0.109-0.037-0.003 0.001-0.007 0.002-0.010 0.003 0.050 0.086 0.113 0.217 0.174 0.411 0 0 0.143 0.107 0.091-0.221z"></path>
<path fill="rgb(242, 222, 124)" d="M12.882 7.183c0.003 0.077 0 0.173-0.016 0.278-0.052 0.328 0.091 0.221 0.091 0.221 0.061-0.194 0.123-0.325 0.173-0.411 0.063 0.022 0.099 0.033 0.099 0.033 0-0.057-0-0.114-0.001-0.17l-0.365-0.136c0 0 0.015 0.072 0.019 0.184z"></path>
<path fill="rgb(228, 240, 242)" d="M12.584 8.33l-2.584-0.4-2.584 0.4v1.71h0.004c0.002 0.010 0.005 0.019 0.010 0.029 0.72 1.625 1.966 2.193 2.57 2.193s1.85-0.568 2.57-2.193c0.004-0.010 0.007-0.020 0.010-0.029h0.004v-1.71z"></path>
<path fill="rgb(228, 240, 242)" d="M12.471 8.503c-0.011 0-0.022-0.002-0.033-0.007-0.039-0.018-0.056-0.065-0.038-0.104l0.586-1.263c0.018-0.039 0.065-0.056 0.104-0.038s0.056 0.065 0.038 0.104l-0.586 1.263c-0.013 0.029-0.041 0.045-0.071 0.045z"></path>
<path fill="rgb(228, 240, 242)" d="M7.529 8.503c-0.029 0-0.058-0.017-0.071-0.045l-0.586-1.263c-0.018-0.039-0.001-0.086 0.038-0.104s0.086-0.001 0.104 0.038l0.586 1.263c0.018 0.039 0.001 0.086-0.038 0.104-0.011 0.005-0.022 0.007-0.033 0.007z"></path>
</svg>
