<?xml version="1.0" encoding="utf-8"?>
<!-- Generated by IcoMoon.io -->
<!DOCTYPE svg PUBLIC "-//W3C//DTD SVG 1.1//EN" "http://www.w3.org/Graphics/SVG/1.1/DTD/svg11.dtd">
<svg version="1.1" xmlns="http://www.w3.org/2000/svg" xmlns:xlink="http://www.w3.org/1999/xlink" width="20" height="20" viewBox="0 0 20 20">
<path fill="rgb(74, 188, 150)" d="M19.691 10c0-5.352-4.339-9.691-9.69-9.691s-9.691 4.338-9.691 9.691c0 5.352 4.339 9.69 9.691 9.69s9.69-4.339 9.69-9.69z"></path>
<path fill="rgb(29, 29, 30)" d="M9.987 13.333c-3.014 0-5.433 0.861-5.719 1.927-0.127 0.475-0.272 1.375-0.396 2.247 1.67 1.365 3.803 2.183 6.128 2.183s4.458-0.819 6.127-2.183c-0.124-0.872-0.268-1.772-0.396-2.247-0.286-1.066-2.731-1.927-5.745-1.927z"></path>
<path fill="rgb(214, 231, 242)" d="M13.711 17.915h-2.988v1.748c1.052-0.078 2.057-0.323 2.988-0.709v-1.039z"></path>
<path fill="rgb(85, 104, 119)" d="M10.723 17.881h2.988v0.243h-2.988v-0.243z"></path>
<path fill="rgb(85, 104, 119)" d="M13.412 18.506h-1.218c-0.034 0-0.062-0.028-0.062-0.062s0.028-0.062 0.062-0.062h1.218c0.034 0 0.062 0.028 0.062 0.062s-0.028 0.062-0.062 0.062z"></path>
<path fill="rgb(85, 104, 119)" d="M13.412 18.971h-1.218c-0.034 0-0.062-0.028-0.062-0.062s0.028-0.062 0.062-0.062h1.218c0.034 0 0.062 0.028 0.062 0.062s-0.028 0.062-0.062 0.062z"></path>
<path fill="rgb(85, 104, 119)" d="M12.194 19.312c-0.034 0-0.062 0.028-0.062 0.062s0.028 0.062 0.062 0.062h0.022c0.16-0.037 0.319-0.079 0.476-0.124h-0.497z"></path>
<path fill="rgb(85, 104, 119)" d="M10.955 18.321h0.914v1.161h-0.914v-1.161z"></path>
<path fill="rgb(212, 214, 216)" d="M8.519 13.411l1.47 1.097 1.492-1.097 0.073-0.514-1.563-0.205-1.544 0.205z"></path>
<path fill="rgb(175, 75, 25)" d="M13.477 11.22c0 0-0.914 0.916-3.477 0.916s-3.477-0.916-3.477-0.916l0.243-4.502h6.468l0.243 4.502z"></path>
<path fill="rgb(229, 186, 156)" d="M11.519 11.33h-3.038c0.474 1.429 0.038 2.082 0.038 2.082l1.051 0.505h0.859l1.051-0.505c0 0-0.436-0.653 0.038-2.082z"></path>
<path fill="rgb(249, 197, 162)" d="M13.115 7.152c0-3.611-1.395-4.437-3.115-4.437s-3.115 0.827-3.115 4.437c0 1.221 0.219 2.178 0.546 2.917 0.72 1.625 1.966 2.193 2.57 2.193s1.85-0.568 2.57-2.193c0.327-0.739 0.546-1.696 0.546-2.917z"></path>
<path fill="rgb(214, 135, 107)" d="M10.879 10.781c0 0-0.394 0.205-0.879 0.205s-0.879-0.205-0.879-0.205c0-0.053 0.279-0.375 0.466-0.403 0.117-0.018 0.413 0.097 0.413 0.097s0.291-0.115 0.408-0.098c0.19 0.028 0.471 0.404 0.471 0.404z"></path>
<path fill="rgb(204, 120, 94)" d="M10.879 10.781c0 0-0.394 0.356-0.879 0.356s-0.879-0.356-0.879-0.356 0.091-0.11 0.604-0.141c0.087-0.005 0.199 0.063 0.274 0.063 0.065 0 0.163-0.069 0.239-0.065 0.533 0.029 0.64 0.143 0.64 0.143z"></path>
<path fill="rgb(229, 186, 156)" d="M8.519 13.411c0 0 0.657 1.097 1.47 1.097s1.492-1.097 1.492-1.097l-1.491-0.719-1.471 0.719z"></path>
<path fill="rgb(249, 197, 162)" d="M6.585 8.423c0.168 0.983 0.377 1.028 0.675 0.978l-0.318-2.139c-0.298 0.051-0.524 0.179-0.356 1.162z"></path>
<path fill="rgb(249, 197, 162)" d="M13.063 7.261l-0.318 2.139c0.298 0.051 0.507 0.005 0.675-0.978s-0.059-1.111-0.356-1.162z"></path>
<path fill="rgb(175, 75, 25)" d="M13.229 7.305c0.729-2.266-0.545-3.282-0.545-3.282-0.509-0.979-1.387-1.307-2.684-1.307-2.24 0-3.776 1.022-3.229 4.59 0 0 4.792-1.035 4.792-2.349 0 1.314 1.667 2.349 1.667 2.349z"></path>
<path fill="rgb(175, 75, 25)" d="M7.135 7.461c-0.017-0.105-0.019-0.202-0.016-0.279 0.004-0.111 0.019-0.183 0.019-0.183l-0.366 0.137c-0.001 0.056-0.001 0.112-0.001 0.169 0 0 0.040-0.013 0.109-0.037-0.003 0.001-0.007 0.002-0.010 0.003 0.050 0.086 0.113 0.217 0.174 0.411 0 0 0.143 0.107 0.091-0.221z"></path>
<path fill="rgb(175, 75, 25)" d="M12.882 7.183c0.003 0.077 0 0.173-0.016 0.278-0.052 0.328 0.091 0.221 0.091 0.221 0.061-0.194 0.123-0.325 0.173-0.411 0.063 0.022 0.099 0.033 0.099 0.033 0-0.057-0-0.114-0.001-0.17l-0.365-0.136c0-0 0.015 0.072 0.019 0.184z"></path>
<path fill="rgb(199, 200, 201)" d="M10.011 17.63c0.76 0 1.623-4.219 1.623-4.219l-1.638 0.505-1.613-0.505c0 0 0.869 4.219 1.629 4.219z"></path>
<path fill="rgb(212, 214, 216)" d="M10.011 17.63l-0.016-3.714-1.793-0.505c0 0 1.804 4.219 1.808 4.219z"></path>
<path fill="rgb(243, 250, 255)" d="M12.253 13.504l-0.699-0.607-1.554 1.019c0 0 1.329 0.407 1.336 0.401l0.918-0.812z"></path>
<path fill="rgb(243, 250, 255)" d="M7.747 13.504l0.699-0.607 1.553 1.019c0 0-1.328 0.407-1.334 0.401l-0.918-0.812z"></path>
<path fill="rgb(74, 74, 84)" d="M7.988 13.293l-0.488 0.251 0.313 2.159 0.638-0.143-0.469 0.573 2.018 2.087-0.001-0.589c0 0-1.328-3.307-1.334-3.313l-0.677-1.024z"></path>
<path fill="rgb(74, 74, 84)" d="M12.012 13.293l0.488 0.251-0.313 2.159-0.638-0.143 0.469 0.573-2.018 2.087 0.001-0.589c0 0 1.328-3.307 1.334-3.313l0.677-1.024z"></path>
</svg>
