<?xml version="1.0" encoding="utf-8"?>
<!-- Generated by IcoMoon.io -->
<!DOCTYPE svg PUBLIC "-//W3C//DTD SVG 1.1//EN" "http://www.w3.org/Graphics/SVG/1.1/DTD/svg11.dtd">
<svg version="1.1" xmlns="http://www.w3.org/2000/svg" xmlns:xlink="http://www.w3.org/1999/xlink" width="20" height="20" viewBox="0 0 20 20">
<path fill="rgb(51, 77, 92)" d="M19.691 10c0-5.352-4.339-9.691-9.69-9.691s-9.691 4.338-9.691 9.691c0 5.352 4.339 9.69 9.691 9.69s9.69-4.339 9.69-9.69z"></path>
<path fill="rgb(29, 29, 30)" d="M9.987 13.333c-0.798 0-1.555 0.060-2.241 0.169-1.905 0.302-3.75 3.133-3.874 4.005 1.67 1.365 3.803 2.183 6.128 2.183s4.458-0.819 6.127-2.183c-0.124-0.872-1.973-3.699-3.875-4.002-0.694-0.111-1.46-0.172-2.266-0.172z"></path>
<path fill="rgb(212, 214, 216)" d="M8.519 13.411l1.47 1.097 1.492-1.097 0.073-0.514-1.563-0.205-1.544 0.205z"></path>
<path fill="rgb(226, 163, 121)" d="M11.519 11.33h-3.038c0.474 1.429 0.038 2.082 0.038 2.082l1.051 0.505h0.859l1.051-0.505c0 0-0.436-0.653 0.038-2.082z"></path>
<path fill="rgb(244, 179, 130)" d="M13.115 7.152c0-3.611-1.395-4.437-3.115-4.437s-3.115 0.827-3.115 4.437c0 1.221 0.219 2.178 0.546 2.917 0.72 1.625 1.966 2.193 2.57 2.193s1.85-0.568 2.57-2.193c0.327-0.739 0.546-1.696 0.546-2.917z"></path>
<path fill="rgb(242, 222, 124)" d="M11.641 2.891c0 0.618-0.734 1.12-1.641 1.12s-1.641-0.501-1.641-1.12c0-0.618 0.734-1.12 1.641-1.12s1.641 0.501 1.641 1.12z"></path>
<path fill="rgb(39, 39, 40)" d="M10 2.534v0c-0.001-0-0.001 0-0.002 0s-0.001-0-0.002-0v0c-0.691 0-1.226 0.136-1.627 0.481 0.008 0.050 0.021 0.098 0.038 0.145 0.395-0.32 0.917-0.445 1.589-0.446v-0c0.001 0 0.001 0 0.002 0s0.001 0 0.002 0v0c0.673 0 1.196 0.126 1.592 0.448 0.017-0.047 0.030-0.096 0.038-0.145-0.402-0.347-0.938-0.483-1.63-0.483z"></path>
<path fill="rgb(242, 222, 124)" d="M10 2.715c-1.904 0-3.232 0.999-3.232 4.609 0 0 3.229-1.791 3.229-3.105l0.003-1.504z"></path>
<path fill="rgb(242, 222, 124)" d="M9.997 2.715c1.904 0 3.232 0.999 3.232 4.609 0 0-3.229-1.791-3.229-3.105l-0.003-1.504z"></path>
<path fill="rgb(183, 78, 57)" d="M10.879 10.781c0 0-0.394 0.205-0.879 0.205s-0.879-0.205-0.879-0.205c0-0.053 0.279-0.375 0.466-0.403 0.117-0.018 0.413 0.097 0.413 0.097s0.291-0.115 0.408-0.098c0.19 0.028 0.471 0.404 0.471 0.404z"></path>
<path fill="rgb(170, 64, 53)" d="M10.879 10.781c0 0-0.394 0.356-0.879 0.356s-0.879-0.356-0.879-0.356 0.091-0.11 0.604-0.141c0.087-0.005 0.199 0.063 0.274 0.063 0.065 0 0.163-0.069 0.239-0.065 0.533 0.029 0.64 0.143 0.64 0.143z"></path>
<path fill="rgb(226, 163, 121)" d="M8.519 13.411c0 0 0.657 1.097 1.47 1.097s1.492-1.097 1.492-1.097l-1.491-0.719-1.471 0.719z"></path>
<path fill="rgb(230, 231, 232)" d="M12.193 13.452l-0.639-0.555-1.554 0.751-1.553-0.751-0.635 0.552-0.065 0.053c0 0 0.015 4.978 2.254 4.978s2.252-4.975 2.252-4.975l-0.060-0.052z"></path>
<path fill="rgb(60, 60, 63)" d="M11.899 13.197l-0.128-0.112-1.771 0.725-1.769-0.725-0.128 0.111 1.898 0.787z"></path>
<path fill="rgb(155, 155, 154)" d="M10.176 15.078c0 0.097-0.079 0.176-0.176 0.176s-0.176-0.079-0.176-0.176c0-0.097 0.079-0.176 0.176-0.176s0.176 0.079 0.176 0.176z"></path>
<path fill="rgb(155, 155, 154)" d="M10.176 16.289c0 0.097-0.079 0.176-0.176 0.176s-0.176-0.079-0.176-0.176c0-0.097 0.079-0.176 0.176-0.176s0.176 0.079 0.176 0.176z"></path>
<path fill="rgb(155, 155, 154)" d="M10.176 17.5c0 0.097-0.079 0.176-0.176 0.176s-0.176-0.079-0.176-0.176c0-0.097 0.079-0.176 0.176-0.176s0.176 0.079 0.176 0.176z"></path>
<path fill="rgb(29, 29, 30)" d="M9.751 14.024l-1.216 0.42v-1.336l1.216 0.42z"></path>
<path fill="rgb(29, 29, 30)" d="M10.249 13.528l1.216-0.42v1.336l-1.216-0.42z"></path>
<path fill="rgb(29, 29, 30)" d="M9.624 13.446h0.753v0.67h-0.753v-0.67z"></path>
<path fill="rgb(244, 179, 130)" d="M6.585 8.423c0.168 0.983 0.377 1.028 0.675 0.978l-0.318-2.139c-0.298 0.051-0.524 0.179-0.356 1.162z"></path>
<path fill="rgb(244, 179, 130)" d="M13.063 7.261l-0.318 2.139c0.298 0.051 0.507 0.005 0.675-0.978s-0.059-1.111-0.356-1.162z"></path>
<path fill="rgb(242, 222, 124)" d="M7.135 7.461c-0.017-0.105-0.019-0.202-0.016-0.279 0.004-0.111 0.019-0.183 0.019-0.183l-0.366 0.137c-0.001 0.056-0.001 0.112-0.001 0.169 0 0 0.040-0.013 0.109-0.037-0.003 0.001-0.007 0.002-0.010 0.003 0.050 0.086 0.113 0.217 0.174 0.411 0 0 0.143 0.107 0.091-0.221z"></path>
<path fill="rgb(242, 222, 124)" d="M12.882 7.183c0.003 0.077 0 0.173-0.016 0.278-0.052 0.328 0.091 0.221 0.091 0.221 0.061-0.194 0.123-0.325 0.173-0.411 0.063 0.022 0.099 0.033 0.099 0.033 0-0.057-0-0.114-0.001-0.17l-0.365-0.136c0-0 0.015 0.072 0.019 0.184z"></path>
<path fill="rgb(29, 29, 30)" d="M10.166 18.476c-1.596-1.596-2.42-4.974-2.42-4.974-1.902 0.303-3.751 3.13-3.875 4.002 0 0.001 0 0.001 0 0.002 1.67 1.365 3.804 2.184 6.129 2.184 0.054 0 0.108-0.001 0.163-0.002 0.001-0 0.002-0.001 0.003-0.001v-1.211z"></path>
<path fill="rgb(29, 29, 30)" d="M12.252 13.505c0 0-0.842 3.378-2.438 4.974v1.209c0.062 0.001 0.124 0.002 0.186 0.002 2.325 0 4.458-0.819 6.127-2.183v-0c-0.124-0.872-1.973-3.699-3.875-4.002z"></path>
<path fill="rgb(230, 231, 232)" d="M15.732 15.26c-0.187-0.699-1.305-1.311-2.902-1.648l0.988 5.297c0.837-0.359 1.614-0.833 2.31-1.402-0.124-0.872-0.268-1.772-0.396-2.247z"></path>
<path fill="rgb(230, 231, 232)" d="M4.268 15.26c-0.127 0.475-0.272 1.375-0.396 2.247 0.686 0.561 1.45 1.029 2.274 1.386l0.984-5.277c-1.579 0.339-2.676 0.948-2.863 1.644z"></path>
<path fill="rgb(15, 15, 15)" d="M10.43 18.652c0 0.124-0.101 0.225-0.225 0.225s-0.225-0.101-0.225-0.225c0-0.124 0.101-0.225 0.225-0.225s0.225 0.101 0.225 0.225z"></path>
<path fill="rgb(29, 29, 30)" d="M10.391 18.652c0 0.102-0.083 0.186-0.186 0.186s-0.186-0.083-0.186-0.186c0-0.102 0.083-0.186 0.186-0.186s0.186 0.083 0.186 0.186z"></path>
<path fill="rgb(15, 15, 15)" d="M12.252 13.505c-0.115 0.452-0.254 0.897-0.406 1.338s-0.323 0.875-0.514 1.301c-0.191 0.426-0.403 0.843-0.646 1.242s-0.519 0.781-0.849 1.116l0.009-0.023 0.007 1.209h-0.078l0.007-1.209 0-0.013 0.009-0.009c0.329-0.326 0.607-0.702 0.854-1.096s0.462-0.808 0.658-1.23c0.195-0.423 0.37-0.855 0.528-1.293s0.301-0.882 0.421-1.333z"></path>
</svg>
