<?xml version="1.0" encoding="utf-8"?>
<!-- Generated by IcoMoon.io -->
<!DOCTYPE svg PUBLIC "-//W3C//DTD SVG 1.1//EN" "http://www.w3.org/Graphics/SVG/1.1/DTD/svg11.dtd">
<svg version="1.1" xmlns="http://www.w3.org/2000/svg" xmlns:xlink="http://www.w3.org/1999/xlink" width="20" height="20" viewBox="0 0 20 20">
<path fill="rgb(72, 161, 175)" d="M19.691 10c0-5.352-4.339-9.691-9.69-9.691s-9.691 4.338-9.691 9.691c0 5.352 4.339 9.69 9.691 9.69s9.69-4.339 9.69-9.69z"></path>
<path fill="rgb(199, 200, 201)" d="M8.519 13.411l1.47 1.097 1.492-1.097 0.073-0.514-1.563-0.205-1.544 0.205z"></path>
<path fill="rgb(228, 233, 237)" d="M10 19.69c2.742 0 5.218-1.139 6.981-2.97-0.108-0.591-0.22-1.129-0.324-1.46-0.332-1.066-3.172-1.927-6.673-1.927s-6.311 0.861-6.643 1.927c-0.103 0.331-0.216 0.869-0.324 1.46 1.763 1.831 4.239 2.971 6.981 2.971z"></path>
<path fill="rgb(23, 32, 35)" d="M5.875 13.788l0.119 0.582-0.302 0.062-0.115-0.564c-0.064 0.018-0.126 0.036-0.187 0.055l0.112 0.549 0.687-0.141-0.121-0.59c-0.065 0.015-0.129 0.031-0.193 0.047z"></path>
<path fill="rgb(23, 32, 35)" d="M6.988 14.167l0.254-0.052-0.118-0.576c-0.086 0.013-0.172 0.027-0.256 0.041l0.12 0.586z"></path>
<path fill="rgb(23, 32, 35)" d="M6.369 13.675l0.122 0.594 0.195-0.040-0.121-0.593c-0.066 0.013-0.131 0.026-0.196 0.039z"></path>
<path fill="rgb(23, 32, 35)" d="M5.2 14.533l-0.105-0.515c-0.085 0.029-0.167 0.059-0.246 0.090l0.098 0.477 0.254-0.052z"></path>
<path fill="rgb(175, 150, 4)" d="M6.988 14.167v0z"></path>
<path fill="rgb(175, 150, 4)" d="M6.565 13.635l0.121 0.593 0.302-0.062-0.12-0.586c-0.103 0.018-0.204 0.036-0.303 0.055z"></path>
<path fill="rgb(175, 150, 4)" d="M5.503 14.473l-0.302 0.062-0-0.002 0.302-0.062 0 0.002z"></path>
<path fill="rgb(175, 150, 4)" d="M5.095 14.019l0.105 0.515 0.302-0.062-0.112-0.549c-0.101 0.031-0.2 0.063-0.295 0.096z"></path>
<path fill="rgb(175, 150, 4)" d="M5.994 14.369l-0.119-0.582c-0.102 0.026-0.201 0.052-0.298 0.080l0.115 0.564 0.302-0.062z"></path>
<path fill="rgb(175, 150, 4)" d="M6.491 14.269l-0.302 0.062-0-0 0.302-0.062 0 0z"></path>
<path fill="rgb(175, 150, 4)" d="M6.068 13.741l0.121 0.59 0.302-0.062-0.122-0.594c-0.102 0.021-0.203 0.043-0.301 0.066z"></path>
<path fill="rgb(23, 32, 35)" d="M12.961 14.167l0.121-0.591c-0.084-0.014-0.17-0.028-0.256-0.041l-0.119 0.58 0.254 0.052z"></path>
<path fill="rgb(23, 32, 35)" d="M14.374 13.858l-0.117 0.573-0.302-0.062 0.121-0.59c-0.063-0.016-0.128-0.031-0.193-0.046l-0.122 0.597 0.687 0.141 0.114-0.559c-0.062-0.018-0.124-0.037-0.188-0.054z"></path>
<path fill="rgb(23, 32, 35)" d="M13.385 13.63l-0.123 0.599 0.195 0.040 0.123-0.6c-0.065-0.013-0.13-0.026-0.196-0.039z"></path>
<path fill="rgb(23, 32, 35)" d="M14.749 14.533l0.254 0.052 0.1-0.491c-0.080-0.030-0.162-0.060-0.247-0.088l-0.108 0.527z"></path>
<path fill="rgb(175, 150, 4)" d="M13.262 14.229v0z"></path>
<path fill="rgb(175, 150, 4)" d="M13.082 13.576l-0.121 0.591 0.302 0.062 0.123-0.599c-0.1-0.019-0.201-0.037-0.304-0.054z"></path>
<path fill="rgb(175, 150, 4)" d="M14.748 14.535l-0.302-0.062 0-0.002 0.302 0.062-0 0.002z"></path>
<path fill="rgb(175, 150, 4)" d="M14.561 13.912l-0.114 0.559 0.302 0.062 0.108-0.527c-0.095-0.032-0.194-0.064-0.295-0.094z"></path>
<path fill="rgb(175, 150, 4)" d="M14.256 14.431l0.117-0.573c-0.097-0.027-0.197-0.053-0.299-0.078l-0.121 0.59 0.302 0.062z"></path>
<path fill="rgb(175, 150, 4)" d="M13.76 14.331l-0.302-0.062 0-0 0.302 0.062-0 0z"></path>
<path fill="rgb(175, 150, 4)" d="M13.581 13.669l-0.123 0.6 0.302 0.062 0.122-0.597c-0.098-0.023-0.199-0.044-0.301-0.065z"></path>
<path fill="rgb(228, 233, 237)" d="M10 19.69c0 0 3.486-6.358-0.015-6.358s0.015 6.358 0.015 6.358z"></path>
<path fill="rgb(23, 32, 35)" d="M9.999 14.39l-0.614 0.31 0.614 1 0.614-1z"></path>
<path fill="rgb(23, 32, 35)" d="M10.139 15.052h-0.137l-0.001 0.029v-0.029h-0.137c0 0-0.522 0.621-0.601 1.505-0.063 0.703-0.155 2.087-0.206 3.087 0.311 0.030 0.626 0.046 0.945 0.046s0.635-0.016 0.946-0.046c-0.052-1-0.143-2.384-0.206-3.087-0.080-0.884-0.601-1.505-0.601-1.505z"></path>
<path fill="rgb(229, 186, 156)" d="M11.519 11.33h-3.038c0.474 1.429 0.038 2.082 0.038 2.082l1.051 0.237h0.859l1.051-0.237c0-0-0.436-0.653 0.038-2.082z"></path>
<path fill="rgb(229, 186, 156)" d="M8.519 13.411c0 0 0.657 1.097 1.47 1.097s1.492-1.097 1.492-1.097l-1.491-0.719-1.471 0.719z"></path>
<path fill="rgb(249, 197, 162)" d="M13.447 7.152c0-3.611-1.543-4.437-3.447-4.437s-3.447 0.827-3.447 4.437c0 1.221 0.242 2.178 0.604 2.917 0.797 1.625 2.176 2.193 2.843 2.193s2.047-0.568 2.843-2.193c0.362-0.739 0.604-1.696 0.604-2.917z"></path>
<path fill="rgb(249, 197, 162)" d="M6.966 9.631c-0.33 0.056-0.561 0.006-0.747-1.082s0.065-1.23 0.394-1.286l0.352 2.368z"></path>
<path fill="rgb(249, 197, 162)" d="M13.038 9.631c0.33 0.056 0.561 0.006 0.747-1.082s-0.065-1.23-0.394-1.286l-0.352 2.368z"></path>
<path fill="rgb(201, 138, 95)" d="M11.1 9.419c0 0.040-0.033 0.073-0.073 0.073s-0.073-0.033-0.073-0.073c0-0.040 0.033-0.073 0.073-0.073s0.073 0.033 0.073 0.073z"></path>
<path fill="rgb(201, 138, 95)" d="M11.1 8.932c0 0.040-0.033 0.073-0.073 0.073s-0.073-0.033-0.073-0.073c0-0.040 0.033-0.073 0.073-0.073s0.073 0.033 0.073 0.073z"></path>
<path fill="rgb(201, 138, 95)" d="M11.1 8.445c0 0.040-0.033 0.073-0.073 0.073s-0.073-0.033-0.073-0.073c0-0.040 0.033-0.073 0.073-0.073s0.073 0.033 0.073 0.073z"></path>
<path fill="rgb(201, 138, 95)" d="M12.074 9.419c0 0.040-0.033 0.073-0.073 0.073s-0.073-0.033-0.073-0.073c0-0.040 0.033-0.073 0.073-0.073s0.073 0.033 0.073 0.073z"></path>
<path fill="rgb(201, 138, 95)" d="M12.074 8.932c0 0.040-0.033 0.073-0.073 0.073s-0.073-0.033-0.073-0.073c0-0.040 0.033-0.073 0.073-0.073s0.073 0.033 0.073 0.073z"></path>
<path fill="rgb(201, 138, 95)" d="M12.074 8.445c0 0.040-0.033 0.073-0.073 0.073s-0.073-0.033-0.073-0.073c0-0.040 0.033-0.073 0.073-0.073s0.073 0.033 0.073 0.073z"></path>
<path fill="rgb(201, 138, 95)" d="M11.587 9.665c0 0.040-0.033 0.073-0.073 0.073s-0.073-0.033-0.073-0.073c0-0.040 0.033-0.073 0.073-0.073s0.073 0.033 0.073 0.073z"></path>
<path fill="rgb(201, 138, 95)" d="M11.587 9.178c0 0.040-0.033 0.073-0.073 0.073s-0.073-0.033-0.073-0.073c0-0.040 0.033-0.073 0.073-0.073s0.073 0.033 0.073 0.073z"></path>
<path fill="rgb(201, 138, 95)" d="M11.587 8.691c0 0.040-0.033 0.073-0.073 0.073s-0.073-0.033-0.073-0.073c0-0.040 0.033-0.073 0.073-0.073s0.073 0.033 0.073 0.073z"></path>
<path fill="rgb(201, 138, 95)" d="M11.587 8.205c0 0.040-0.033 0.073-0.073 0.073s-0.073-0.033-0.073-0.073c0-0.040 0.033-0.073 0.073-0.073s0.073 0.033 0.073 0.073z"></path>
<path fill="rgb(201, 138, 95)" d="M8.073 9.419c0 0.040-0.033 0.073-0.073 0.073s-0.073-0.033-0.073-0.073c0-0.040 0.033-0.073 0.073-0.073s0.073 0.033 0.073 0.073z"></path>
<path fill="rgb(201, 138, 95)" d="M8.073 8.932c0 0.040-0.033 0.073-0.073 0.073s-0.073-0.033-0.073-0.073c0-0.040 0.033-0.073 0.073-0.073s0.073 0.033 0.073 0.073z"></path>
<path fill="rgb(201, 138, 95)" d="M8.073 8.445c0 0.040-0.033 0.073-0.073 0.073s-0.073-0.033-0.073-0.073c0-0.040 0.033-0.073 0.073-0.073s0.073 0.033 0.073 0.073z"></path>
<path fill="rgb(201, 138, 95)" d="M9.046 9.419c0 0.040-0.033 0.073-0.073 0.073s-0.073-0.033-0.073-0.073c0-0.040 0.033-0.073 0.073-0.073s0.073 0.033 0.073 0.073z"></path>
<path fill="rgb(201, 138, 95)" d="M9.046 8.932c0 0.040-0.033 0.073-0.073 0.073s-0.073-0.033-0.073-0.073c0-0.040 0.033-0.073 0.073-0.073s0.073 0.033 0.073 0.073z"></path>
<path fill="rgb(201, 138, 95)" d="M9.046 8.445c0 0.040-0.033 0.073-0.073 0.073s-0.073-0.033-0.073-0.073c0-0.040 0.033-0.073 0.073-0.073s0.073 0.033 0.073 0.073z"></path>
<path fill="rgb(201, 138, 95)" d="M8.56 9.665c0 0.040-0.033 0.073-0.073 0.073s-0.073-0.033-0.073-0.073c0-0.040 0.033-0.073 0.073-0.073s0.073 0.033 0.073 0.073z"></path>
<path fill="rgb(201, 138, 95)" d="M8.56 9.178c0 0.040-0.033 0.073-0.073 0.073s-0.073-0.033-0.073-0.073c0-0.040 0.033-0.073 0.073-0.073s0.073 0.033 0.073 0.073z"></path>
<path fill="rgb(201, 138, 95)" d="M8.56 8.691c0 0.040-0.033 0.073-0.073 0.073s-0.073-0.033-0.073-0.073c0-0.040 0.033-0.073 0.073-0.073s0.073 0.033 0.073 0.073z"></path>
<path fill="rgb(201, 138, 95)" d="M8.56 8.205c0 0.040-0.033 0.073-0.073 0.073s-0.073-0.033-0.073-0.073c0-0.040 0.033-0.073 0.073-0.073s0.073 0.033 0.073 0.073z"></path>
<path fill="rgb(175, 75, 25)" d="M13.447 7.152c0-3.611-1.182-4.535-3.447-4.535s-3.447 0.924-3.447 4.535l1.553-1.293c0 0 1.035 0 1.895 0s1.803-1.379 1.803-1.379l1.644 2.672z"></path>
<path fill="rgb(175, 75, 25)" d="M6.772 5.808c-0.166 0.425-0.22 0.952-0.22 1.464 0 0 0.342-0.075 0.342 0.101l0.107 1.079 0.151-0.073c-0.010-0.898 0.19-2.656 0.19-2.656l-0.571 0.085z"></path>
<path fill="rgb(175, 75, 25)" d="M13.231 5.808c0.166 0.425 0.22 0.952 0.22 1.464 0 0-0.342-0.075-0.342 0.101l-0.107 1.079-0.151-0.073c0.010-0.898-0.19-2.585-0.19-2.585l0.571 0.014z"></path>
<path fill="rgb(25, 25, 25)" d="M13.861 3.19c0 0-1.491-1.367-3.867-1.367s-3.855 1.367-3.855 1.367-0.41 0.41-0.078 0.977c0.011 0.018 0.023 0.037 0.036 0.057 0.18 0.267 0.552 0.606 0.552 0.606l-0.119 0.138 0.168 0.218c0 0-0.008 0.565 0.544 0.565s1.236-0.216 2.759-0.216 2.198 0.216 2.759 0.216 0.556-0.581 0.556-0.581l0.155-0.201-0.119-0.138c0 0 0.364-0.332 0.546-0.597 0.015-0.022 0.029-0.044 0.042-0.066 0.332-0.566-0.078-0.977-0.078-0.977z"></path>
<path fill="rgb(175, 150, 4)" d="M13.363 4.835c-0.565-0.237-1.805-0.668-3.363-0.668s-2.798 0.431-3.363 0.668l-0.114 0.133 0.17 0.221c0.588-0.325 1.799-0.651 3.307-0.651s2.719 0.326 3.307 0.651l0.17-0.221-0.114-0.133z"></path>
<path fill="rgb(175, 150, 4)" d="M10 3.405l-1.309-0.82 1.309 0.252 1.309-0.252z"></path>
<path fill="rgb(31, 35, 35)" d="M10.475 7.578c0 0-0.267-0.065-0.475-0.065s-0.475 0.065-0.475 0.065v-0.182c0 0 0.202-0.065 0.475-0.065s0.475 0.065 0.475 0.065v0.182z"></path>
<path fill="rgb(31, 35, 35)" d="M7.432 7.417l-0.083-0.156-0.867-0.009c-0.022-0.007-0.028-0.246 0.008-0.24l1.27 0.005-0.327 0.4z"></path>
<path fill="rgb(46, 53, 53)" d="M10.27 7.643c0-0.573 0.741-0.726 1.389-0.726s0.955 0.189 0.955 0.837c0 0.647-0.48 1.012-0.941 1.012-0.796-0-1.403-0.689-1.403-1.122z"></path>
<path fill="rgb(46, 53, 53)" d="M9.73 7.643c0-0.573-0.741-0.726-1.389-0.726s-0.955 0.189-0.955 0.837c0 0.647 0.48 1.012 0.941 1.012 0.796-0 1.403-0.689 1.403-1.122z"></path>
<path fill="rgb(31, 35, 35)" d="M12.578 7.417l0.083-0.156 0.867-0.009c0.022-0.007 0.028-0.246-0.008-0.24l-1.27 0.005 0.327 0.4z"></path>
<path fill="rgb(212, 214, 216)" d="M12.253 13.504l-0.699-0.607-1.554 1.624 1.43 0.401z"></path>
<path fill="rgb(212, 214, 216)" d="M7.747 13.504l0.699-0.607 1.553 1.624-1.429 0.401z"></path>
<path fill="rgb(42, 63, 73)" d="M8.032 13.426v0z"></path>
<path fill="rgb(42, 63, 73)" d="M12.477 13.487c-0-0-0.001-0-0.001-0s0.001 0 0.001 0v0z"></path>
<path fill="rgb(42, 63, 73)" d="M11.967 13.429v0l0 0z"></path>
</svg>
