<?xml version="1.0" encoding="utf-8"?>
<!-- Generated by IcoMoon.io -->
<!DOCTYPE svg PUBLIC "-//W3C//DTD SVG 1.1//EN" "http://www.w3.org/Graphics/SVG/1.1/DTD/svg11.dtd">
<svg version="1.1" xmlns="http://www.w3.org/2000/svg" xmlns:xlink="http://www.w3.org/1999/xlink" width="20" height="20" viewBox="0 0 20 20">
<path fill="rgb(74, 188, 150)" d="M19.691 10c0-5.352-4.339-9.691-9.69-9.691s-9.691 4.338-9.691 9.691c0 5.352 4.339 9.69 9.691 9.69s9.69-4.339 9.69-9.69z"></path>
<path fill="rgb(93, 138, 148)" d="M10 19.69c2.742 0 5.218-1.139 6.981-2.97-0.108-0.591-0.22-1.129-0.324-1.46-0.332-1.066-3.172-1.927-6.673-1.927s-6.311 0.862-6.643 1.927c-0.103 0.331-0.216 0.869-0.324 1.46 1.763 1.831 4.239 2.971 6.981 2.971z"></path>
<path fill="rgb(40, 48, 48)" d="M10 18.945c-0.727 0-1.404-0.378-1.907-1.064-0.485-0.661-0.752-1.535-0.752-2.461s0.267-1.8 0.752-2.461c0.503-0.686 1.181-1.064 1.907-1.064s1.404 0.378 1.907 1.064c0.485 0.661 0.752 1.535 0.752 2.461s-0.267 1.8-0.752 2.461c-0.503 0.686-1.181 1.064-1.907 1.064zM10 12.441c-1.165 0-2.112 1.336-2.112 2.979s0.948 2.979 2.112 2.979 2.112-1.336 2.112-2.979-0.948-2.979-2.112-2.979z"></path>
<path fill="rgb(226, 163, 121)" d="M16.076 17.548l-1.421 0.239 0.159 0.623c0.444-0.255 0.866-0.543 1.262-0.863z"></path>
<path fill="rgb(73, 108, 114)" d="M16.887 16.817l-2.378 0.4 0.146 0.571 1.421-0.239c0.284-0.229 0.554-0.473 0.811-0.732z"></path>
<path fill="rgb(226, 163, 121)" d="M5.152 18.391l0.156-0.61-1.384-0.233c0.386 0.311 0.796 0.593 1.228 0.843z"></path>
<path fill="rgb(73, 108, 114)" d="M3.113 16.817c0.256 0.259 0.527 0.503 0.811 0.732l1.384 0.233 0.146-0.571-2.34-0.394z"></path>
<path fill="rgb(226, 163, 121)" d="M11.519 11.33h-3.038c0.474 1.429 0.038 2.082 0.038 2.082l1.051 0.237h0.859l1.051-0.237c0 0-0.436-0.653 0.038-2.082z"></path>
<path fill="rgb(226, 163, 121)" d="M8.519 13.411c0 0 0.657 1.097 1.47 1.097s1.492-1.097 1.492-1.097l-1.491-0.719-1.471 0.719z"></path>
<path fill="rgb(244, 179, 130)" d="M13.447 7.152c0-3.611-1.543-4.437-3.447-4.437s-3.447 0.827-3.447 4.437c0 1.221 0.242 2.178 0.604 2.917 0.797 1.625 2.176 2.193 2.843 2.193s2.047-0.568 2.843-2.193c0.362-0.739 0.604-1.696 0.604-2.917z"></path>
<path fill="rgb(244, 179, 130)" d="M6.966 9.631c-0.33 0.056-0.561 0.006-0.747-1.082s0.065-1.23 0.394-1.286l0.352 2.368z"></path>
<path fill="rgb(244, 179, 130)" d="M13.038 9.631c0.33 0.056 0.561 0.006 0.747-1.082s-0.065-1.23-0.394-1.286l-0.352 2.368z"></path>
<path fill="rgb(229, 161, 115)" d="M10.944 10.514c0 0.089-0.423 0.334-0.944 0.334s-0.944-0.244-0.944-0.334c0-0.055 0.3-0.213 0.501-0.242 0.126-0.018 0.443 0.1 0.443 0.1s0.313-0.119 0.438-0.101c0.204 0.029 0.506 0.243 0.506 0.243z"></path>
<path fill="rgb(216, 147, 100)" d="M10.944 10.514c0 0.089-0.423 0.435-0.944 0.435s-0.944-0.346-0.944-0.435c0 0 0.385 0.045 0.944 0.045s0.944-0.045 0.944-0.045z"></path>
<path fill="rgb(63, 28, 10)" d="M13.447 7.152c0-3.611-1.182-4.535-3.447-4.535s-3.447 0.924-3.447 4.535l1.514-2.672c0 0 1.074 0.168 1.934 0.168s1.803-0.168 1.803-0.168l1.644 2.672z"></path>
<path fill="rgb(63, 28, 10)" d="M6.772 5.808c-0.166 0.425-0.22 0.952-0.22 1.464 0 0 0.342-0.075 0.342 0.101l0.107 1.079 0.151-0.073c-0.010-0.898 0.19-2.656 0.19-2.656l-0.571 0.085z"></path>
<path fill="rgb(63, 28, 10)" d="M13.231 5.808c0.166 0.425 0.22 0.952 0.22 1.464 0 0-0.342-0.075-0.342 0.101l-0.107 1.079-0.151-0.073c0.010-0.898-0.19-2.585-0.19-2.585l0.571 0.014z"></path>
<path fill="rgb(255, 255, 255)" d="M8.032 13.426v0z"></path>
<path fill="rgb(255, 255, 255)" d="M11.967 13.429v0l0 0z"></path>
<path fill="rgb(1, 1, 1)" d="M8.212 16.367c0-0.108-0.048-0.196-0.107-0.196h-0.451c-0.059 0-0.107 0.088-0.107 0.196s0.048 0.196 0.107 0.196h0.451c0.059 0 0.107-0.088 0.107-0.196z"></path>
<path fill="rgb(32, 33, 33)" d="M12.779 19.285v-2.258c0-0.189-0.153-0.343-0.343-0.343h-4.874c-0.189 0-0.342 0.154-0.342 0.343v2.258c0.881 0.263 1.813 0.405 2.78 0.405s1.899-0.142 2.779-0.405z"></path>
<path fill="rgb(32, 33, 33)" d="M9.613 16.785c0-0.23-0.155-0.416-0.347-0.416h-1.7c-0.192 0-0.347 0.187-0.347 0.416v0.989c0 0.23 0.155 0.416 0.347 0.416h1.7c0.191 0 0.347-0.186 0.347-0.416v-0.989z"></path>
<path fill="rgb(1, 1, 1)" d="M11.707 18.293c0-0.943-0.764-1.707-1.707-1.707s-1.707 0.764-1.707 1.707c0 0.543 0.254 1.027 0.65 1.34 0.347 0.038 0.7 0.058 1.057 0.058s0.71-0.020 1.057-0.058c0.396-0.313 0.65-0.796 0.65-1.34z"></path>
<path fill="rgb(35, 31, 32)" d="M11.62 18.293c0-0.895-0.725-1.62-1.62-1.62s-1.62 0.725-1.62 1.62c0 0.568 0.293 1.067 0.735 1.357 0.292 0.026 0.587 0.041 0.885 0.041s0.594-0.014 0.885-0.041c0.442-0.289 0.735-0.789 0.735-1.357z"></path>
<path fill="rgb(151, 151, 151)" d="M11.533 18.293c0-0.847-0.687-1.533-1.533-1.533s-1.533 0.687-1.533 1.533c0 0.601 0.347 1.122 0.851 1.373 0.226 0.016 0.453 0.024 0.683 0.024s0.457-0.009 0.682-0.024c0.504-0.251 0.851-0.772 0.851-1.373z"></path>
<path fill="rgb(35, 31, 32)" d="M11.464 18.293c0-0.809-0.656-1.464-1.464-1.464s-1.464 0.656-1.464 1.464c0 0.643 0.415 1.189 0.991 1.386 0.157 0.008 0.315 0.012 0.473 0.012s0.316-0.004 0.473-0.012c0.576-0.197 0.991-0.743 0.991-1.386z"></path>
<path fill="rgb(1, 1, 1)" d="M11.356 18.293c0-0.743-0.603-1.346-1.346-1.346s-1.346 0.602-1.346 1.346c0 0.743 0.602 1.346 1.346 1.346s1.346-0.603 1.346-1.346z"></path>
<path fill="rgb(35, 31, 32)" d="M11.287 18.293c0-0.706-0.572-1.277-1.277-1.277s-1.277 0.572-1.277 1.277c0 0.706 0.572 1.277 1.277 1.277s1.277-0.572 1.277-1.277z"></path>
<path fill="rgb(89, 90, 92)" d="M11.219 18.293c0-0.668-0.541-1.209-1.209-1.209s-1.209 0.541-1.209 1.209c0 0.668 0.541 1.209 1.209 1.209s1.209-0.541 1.209-1.209z"></path>
<path fill="rgb(35, 31, 32)" d="M11.164 18.293c0-0.637-0.517-1.154-1.155-1.154s-1.154 0.517-1.154 1.154c0 0.638 0.517 1.155 1.154 1.155s1.155-0.517 1.155-1.155z"></path>
<path fill="rgb(165, 182, 185)" d="M11.011 18.293c0-0.553-0.448-1.001-1.001-1.001s-1.001 0.448-1.001 1.001c0 0.553 0.448 1.001 1.001 1.001s1.001-0.448 1.001-1.001z"></path>
<path fill="rgb(255, 255, 255)" d="M10.151 17.957c0 0.265-0.215 0.481-0.48 0.481s-0.481-0.215-0.481-0.481c0-0.265 0.215-0.48 0.481-0.48s0.48 0.215 0.48 0.48z"></path>
<path fill="rgb(102, 185, 204)" d="M7.528 16.563c-0.069 0-0.125 0.056-0.125 0.125v0.101l0.226-0.226h-0.101z"></path>
<path fill="rgb(102, 185, 204)" d="M8.496 16.688c0-0.069-0.056-0.125-0.125-0.125h-0.164l-0.716 0.716c0.012 0.004 0.024 0.006 0.038 0.006h0.594l0.374-0.374v-0.223z"></path>
<path fill="rgb(215, 228, 244)" d="M7.629 16.563l-0.226 0.226v0.371c0 0.056 0.037 0.103 0.088 0.119l0.716-0.716h-0.577z"></path>
<path fill="rgb(215, 228, 244)" d="M8.496 17.16v-0.249l-0.374 0.374h0.249c0.069 0 0.125-0.056 0.125-0.125z"></path>
</svg>
