<?xml version="1.0" encoding="utf-8"?>
<!-- Generated by IcoMoon.io -->
<!DOCTYPE svg PUBLIC "-//W3C//DTD SVG 1.1//EN" "http://www.w3.org/Graphics/SVG/1.1/DTD/svg11.dtd">
<svg version="1.1" xmlns="http://www.w3.org/2000/svg" xmlns:xlink="http://www.w3.org/1999/xlink" width="20" height="20" viewBox="0 0 20 20">
<path fill="rgb(50, 190, 166)" d="M19.691 10c0-5.352-4.339-9.691-9.69-9.691s-9.691 4.338-9.691 9.691c0 5.352 4.339 9.69 9.691 9.69s9.69-4.339 9.69-9.69z"></path>
<path fill="rgb(63, 187, 216)" d="M12.279 14.076h-4.563l0.731-1.253 1.554-0.205 1.554 0.205z"></path>
<path fill="rgb(233, 242, 244)" d="M10 19.69c2.742 0 5.218-1.139 6.981-2.97-0.108-0.591-0.22-1.129-0.324-1.46-0.332-1.066-3.172-1.927-6.673-1.927s-6.311 0.862-6.643 1.927c-0.103 0.331-0.216 0.869-0.324 1.46 1.763 1.831 4.239 2.971 6.981 2.971z"></path>
<path fill="rgb(120, 221, 244)" d="M9.985 13.333c-0.056 0-0.112 0-0.167 0.001-0.015 0-0.030 0-0.045 0.001-0.041 0-0.082 0.001-0.123 0.001-0.009 0-0.018 0-0.026 0.001-0.771 0.013-1.481 0.069-2.065 0.16 0 0 0.156 1.482 0.156 2.29l2.285 2.693 2.279-2.692c-0.001-1.664-0.004-2.301-0.004-2.301-0.659-0.099-1.408-0.154-2.291-0.154z"></path>
<path fill="rgb(226, 163, 121)" d="M11.519 11.33h-3.038c0.474 1.429 0.038 2.082 0.038 2.082l1.051 0.237h0.859l1.051-0.237c0 0-0.436-0.653 0.038-2.082z"></path>
<path fill="rgb(155, 24, 24)" d="M9.999 13.599l-0.614 0.183c0 0 0.209 1 0.614 1s0.614-1 0.614-1l-0.614-0.183z"></path>
<path fill="rgb(155, 24, 24)" d="M10 18.623c0 0 0.627-1.147 0.924-1.787l-0.767-2.565h-0.318l-0.763 2.553c0.3 0.647 0.924 1.799 0.924 1.799z"></path>
<path fill="rgb(244, 179, 130)" d="M13.447 7.152c0-3.611-1.543-4.437-3.447-4.437s-3.447 0.827-3.447 4.437c0 1.221 0.242 2.178 0.604 2.917 0.797 1.625 2.176 2.193 2.843 2.193s2.047-0.568 2.843-2.193c0.362-0.739 0.604-1.696 0.604-2.917z"></path>
<path fill="rgb(25, 25, 25)" d="M9.98 11.751h0.020c-0.007 0-0.013-0-0.020-0.001 0 0 0 0 0 0.001z"></path>
<path fill="rgb(25, 25, 25)" d="M10.020 11.751c0-0 0-0 0-0.001-0.007 0-0.013 0.001-0.020 0.001h0.020z"></path>
<path fill="rgb(244, 179, 130)" d="M6.966 9.631c-0.33 0.056-0.561 0.006-0.747-1.082s0.065-1.23 0.394-1.286l0.352 2.368z"></path>
<path fill="rgb(244, 179, 130)" d="M13.038 9.631c0.33 0.056 0.561 0.006 0.747-1.082s-0.065-1.23-0.394-1.286l-0.352 2.368z"></path>
<path fill="rgb(229, 161, 115)" d="M11.042 10.347c0 0.1-0.466 0.373-1.042 0.373s-1.042-0.273-1.042-0.373c0-0.061 0.331-0.238 0.553-0.27 0.139-0.020 0.489 0.112 0.489 0.112s0.345-0.133 0.483-0.113c0.226 0.033 0.559 0.271 0.559 0.271z"></path>
<path fill="rgb(216, 147, 100)" d="M11.042 10.347c0 0.1-0.466 0.486-1.042 0.486s-1.042-0.386-1.042-0.486c0 0 0.424 0.050 1.042 0.050s1.042-0.050 1.042-0.050z"></path>
<path fill="rgb(230, 231, 232)" d="M13.447 7.152c0-3.611-1.182-4.535-3.447-4.535s-3.447 0.924-3.447 4.535l1.553-1.293c0 0 1.035 0 1.895 0s1.803-1.379 1.803-1.379l1.644 2.672z"></path>
<path fill="rgb(230, 231, 232)" d="M6.772 5.808c-0.166 0.425-0.22 0.952-0.22 1.464 0 0 0.342-0.075 0.342 0.101l0.107 1.079 0.151-0.073c-0.010-0.898 0.19-2.656 0.19-2.656l-0.571 0.085z"></path>
<path fill="rgb(230, 231, 232)" d="M13.231 5.808c0.166 0.425 0.22 0.952 0.22 1.464 0 0-0.342-0.075-0.342 0.101l-0.107 1.079-0.151-0.073c0.010-0.898-0.19-2.585-0.19-2.585l0.571 0.014z"></path>
<path fill="rgb(38, 29, 23)" d="M8.391 6.932c-0.748 0-1.354 0.131-1.354 1.064 0 0.588 0.336 1.177 1.354 1.177 0.748 0 1.354-0.589 1.354-1.177s-0.606-1.064-1.354-1.064zM8.391 8.941c-0.807 0-1.074-0.467-1.074-0.933 0-0.741 0.481-0.844 1.074-0.844s1.074 0.378 1.074 0.844c0 0.466-0.481 0.933-1.074 0.933z"></path>
<path fill="rgb(244, 196, 164)" d="M8.391 7.163c-0.593 0-1.074 0.104-1.074 0.844 0 0.466 0.267 0.933 1.074 0.933 0.593 0 1.074-0.467 1.074-0.933s-0.481-0.844-1.074-0.844z"></path>
<path fill="rgb(244, 204, 176)" d="M8.391 7.163c-0.593 0-1.074 0.104-1.074 0.844 0 0.391 0.188 0.782 0.724 0.898l0.643-1.711c-0.093-0.021-0.191-0.032-0.293-0.032z"></path>
<path fill="rgb(244, 196, 164)" d="M9.465 8.008c0-0.386-0.33-0.712-0.781-0.812l-0.643 1.711c0.103 0.022 0.219 0.035 0.35 0.035 0.593 0 1.074-0.467 1.074-0.933z"></path>
<path fill="rgb(38, 29, 23)" d="M7.201 7.68c-0.036 0-0.072-0.014-0.099-0.043l-0.521-0.565c-0.050-0.054-0.047-0.139 0.008-0.189s0.139-0.047 0.189 0.008l0.521 0.565c0.050 0.054 0.047 0.139-0.008 0.189-0.026 0.024-0.058 0.035-0.091 0.035z"></path>
<path fill="rgb(38, 29, 23)" d="M12.825 7.68c0.036 0 0.072-0.014 0.099-0.043l0.521-0.565c0.050-0.054 0.047-0.139-0.008-0.189s-0.139-0.047-0.189 0.008l-0.521 0.565c-0.050 0.054-0.047 0.139 0.008 0.189 0.026 0.024 0.058 0.035 0.091 0.035z"></path>
<path fill="rgb(38, 29, 23)" d="M10.251 7.996c0 0.588 0.606 1.177 1.354 1.177 1.018 0 1.354-0.589 1.354-1.177 0-0.934-0.606-1.064-1.354-1.064s-1.354 0.477-1.354 1.064zM10.531 8.008c0-0.466 0.481-0.844 1.074-0.844s1.074 0.104 1.074 0.844c0 0.466-0.267 0.933-1.074 0.933-0.593 0-1.074-0.467-1.074-0.933z"></path>
<path fill="rgb(244, 196, 164)" d="M11.605 7.163c0.593 0 1.074 0.104 1.074 0.844 0 0.466-0.267 0.933-1.074 0.933-0.593 0-1.074-0.467-1.074-0.933s0.481-0.844 1.074-0.844z"></path>
<path fill="rgb(244, 204, 176)" d="M11.605 7.163c-0.102 0-0.2 0.011-0.293 0.032-0.451 0.1-0.781 0.426-0.781 0.812s0.329 0.772 0.778 0.893l0.646-1.719c-0.11-0.014-0.228-0.018-0.351-0.018z"></path>
<path fill="rgb(244, 196, 164)" d="M11.955 8.906c0.537-0.116 0.724-0.507 0.724-0.898 0-0.587-0.302-0.774-0.723-0.826l-0.646 1.719c0.094 0.025 0.193 0.040 0.295 0.040 0.13 0 0.246-0.012 0.35-0.035z"></path>
<path fill="rgb(38, 29, 23)" d="M10.477 8.143l-0.846 0c-0.009 0-0.233-0.465-0.223-0.465h1.179c0.011-0-0.101 0.465-0.11 0.465z"></path>
<path fill="rgb(38, 29, 23)" d="M10.403 8.149c-0.117-0.082-0.259-0.164-0.409-0.164-0.115 0-0.225 0.062-0.322 0.111-0.153 0.077-0.153 0.498-0.153 0.498 0.087-0.182 0.274-0.3 0.475-0.3s0.388 0.118 0.475 0.3c0 0 0.046-0.366-0.066-0.445z"></path>
<path fill="rgb(255, 255, 255)" d="M12.477 13.487c-0-0-0.001-0-0.001-0s0.001 0 0.001 0v0z"></path>
<path fill="rgb(255, 255, 255)" d="M11.967 13.429v0l0 0z"></path>
<path fill="rgb(78, 207, 242)" d="M12.28 13.456l-0.726-0.633-1.554 0.777c0 0 2.27 1.28 2.281 1.274v-1.418z"></path>
<path fill="rgb(201, 222, 226)" d="M14.292 13.818l-2.524-0.817-1.768 5.632 3.198-3.75-0.43-0.43h0.645z"></path>
<path fill="rgb(78, 207, 242)" d="M7.72 13.456l0.726-0.633 1.553 0.777c0 0-2.268 1.28-2.279 1.274v-1.418z"></path>
<path fill="rgb(201, 222, 226)" d="M5.703 13.818l2.539-0.817 1.758 5.632-3.203-3.75 0.43-0.43h-0.645z"></path>
<path fill="rgb(63, 63, 63)" d="M8.701 12.497c-1.365 0.334-2.337 1.179-2.337 2.166v3.331h0.195v-3.331c0-0.887 0.885-1.648 2.138-1.965 0.003-0.062 0.004-0.129 0.003-0.2z"></path>
<path fill="rgb(63, 63, 63)" d="M11.299 12.497c-0.001 0.071-0.001 0.138 0.003 0.2 1.253 0.317 2.138 1.079 2.138 1.965v0.611h0.195v-0.611c0-0.987-0.972-1.831-2.337-2.166z"></path>
<path fill="rgb(94, 94, 94)" d="M7.118 17.653c0 0.361-0.293 0.654-0.654 0.654s-0.654-0.293-0.654-0.654c0-0.361 0.293-0.654 0.654-0.654s0.654 0.293 0.654 0.654z"></path>
<path fill="rgb(130, 130, 130)" d="M7.034 17.653c0 0.315-0.255 0.57-0.57 0.57s-0.57-0.255-0.57-0.57c0-0.315 0.255-0.57 0.57-0.57s0.57 0.255 0.57 0.57z"></path>
<path fill="rgb(94, 94, 94)" d="M6.865 17.653c0 0.221-0.18 0.401-0.401 0.401s-0.401-0.18-0.401-0.401c0-0.221 0.18-0.401 0.401-0.401s0.401 0.18 0.401 0.401z"></path>
<path fill="rgb(130, 130, 130)" d="M6.752 17.653c0 0.159-0.129 0.288-0.288 0.288s-0.288-0.129-0.288-0.288c0-0.159 0.129-0.288 0.288-0.288s0.288 0.129 0.288 0.288z"></path>
<path fill="rgb(105, 105, 107)" d="M13.957 18.249c-0.226 0-0.527-0.005-0.787-0.142-0.325-0.173-0.49-0.511-0.49-1.006v-0.844h0.156v0.844c0 0.438 0.133 0.722 0.407 0.868 0.234 0.124 0.525 0.125 0.738 0.124h0.022v0.156h-0.022c-0.008 0-0.016 0-0.025 0z"></path>
<path fill="rgb(105, 105, 107)" d="M14.17 18.171c0 0.092-0.074 0.166-0.166 0.166v0c-0.092 0-0.166-0.074-0.166-0.166v0c0-0.092 0.074-0.166 0.166-0.166v0c0.092 0 0.166 0.074 0.166 0.166v0z"></path>
<path fill="rgb(141, 141, 142)" d="M13.114 18.245c-0.008 0-0.017-0-0.025-0h-0.022v-0.156h0.022c0.212-0 0.504 0 0.738-0.124 0.274-0.146 0.407-0.429 0.407-0.868v-0.844h0.156v0.844c0 0.494-0.165 0.833-0.49 1.006-0.259 0.138-0.56 0.142-0.787 0.142z"></path>
<path fill="rgb(141, 141, 142)" d="M12.901 18.167c0 0.092 0.074 0.166 0.166 0.166v0c0.092 0 0.166-0.074 0.166-0.166v0c0-0.092-0.074-0.166-0.166-0.166v0c-0.092 0-0.166 0.074-0.166 0.166v0z"></path>
<path fill="rgb(63, 63, 63)" d="M14.312 16.354c-0.054 0-0.098-0.044-0.098-0.098v-0.258c0-0.375-0.305-0.679-0.679-0.679s-0.679 0.305-0.679 0.679v0.258c0 0.054-0.044 0.098-0.098 0.098s-0.098-0.044-0.098-0.098v-0.258c0-0.482 0.392-0.875 0.875-0.875s0.875 0.392 0.875 0.875v0.258c0 0.054-0.044 0.098-0.098 0.098z"></path>
</svg>
