<?xml version="1.0" encoding="utf-8"?>
<!-- Generated by IcoMoon.io -->
<!DOCTYPE svg PUBLIC "-//W3C//DTD SVG 1.1//EN" "http://www.w3.org/Graphics/SVG/1.1/DTD/svg11.dtd">
<svg version="1.1" xmlns="http://www.w3.org/2000/svg" xmlns:xlink="http://www.w3.org/1999/xlink" width="20" height="20" viewBox="0 0 20 20">
<path fill="rgb(74, 188, 150)" d="M19.691 10c0-5.352-4.339-9.691-9.69-9.691s-9.691 4.338-9.691 9.691c0 5.352 4.339 9.69 9.691 9.69s9.69-4.339 9.69-9.69z"></path>
<path fill="rgb(206, 134, 153)" d="M9.987 13.333c-3.014 0-5.433 0.862-5.719 1.927-0.127 0.475-0.272 1.375-0.396 2.247 1.67 1.365 3.803 2.183 6.128 2.183s4.458-0.819 6.127-2.183c-0.124-0.872-0.268-1.772-0.396-2.247-0.286-1.066-2.731-1.927-5.745-1.927z"></path>
<path fill="rgb(40, 48, 48)" d="M10 18.945c-0.727 0-1.404-0.378-1.907-1.064-0.485-0.661-0.752-1.535-0.752-2.461s0.267-1.8 0.752-2.461c0.503-0.686 1.181-1.064 1.907-1.064s1.404 0.378 1.907 1.064c0.485 0.661 0.752 1.535 0.752 2.461s-0.267 1.8-0.752 2.461c-0.503 0.686-1.181 1.064-1.907 1.064zM10 12.441c-1.165 0-2.112 1.336-2.112 2.979s0.948 2.979 2.112 2.979 2.112-1.336 2.112-2.979-0.948-2.979-2.112-2.979z"></path>
<path fill="rgb(226, 163, 121)" d="M16.128 17.507c-0.007-0.049-0.014-0.098-0.021-0.147l-2.5 0.418 0.211 1.13c0.837-0.359 1.614-0.833 2.31-1.402z"></path>
<path fill="rgb(226, 163, 121)" d="M6.146 18.893l0.209-1.121-2.462-0.412c-0.007 0.049-0.014 0.098-0.021 0.147 0.686 0.561 1.45 1.029 2.274 1.386z"></path>
<path fill="rgb(206, 134, 153)" d="M15.732 15.26c-0.187-0.699-1.305-1.311-2.902-1.648l0.704 3.773 2.515-0.417c-0.104-0.686-0.216-1.331-0.317-1.708z"></path>
<path fill="rgb(206, 134, 153)" d="M4.268 15.26c-0.101 0.377-0.213 1.022-0.317 1.708l2.478 0.411 0.702-3.762c-1.579 0.339-2.676 0.948-2.863 1.644z"></path>
<path fill="rgb(193, 77, 113)" d="M3.893 17.36l2.462 0.412 0.073-0.394-2.478-0.411c-0.020 0.13-0.039 0.261-0.058 0.393z"></path>
<path fill="rgb(193, 77, 113)" d="M16.107 17.361c-0.019-0.131-0.038-0.263-0.058-0.393l-2.515 0.417 0.073 0.394 2.5-0.418z"></path>
<path fill="rgb(226, 163, 121)" d="M11.519 11.33h-3.038c0.474 1.429 0.038 2.082 0.038 2.082s0.657 1.097 1.47 1.097 1.492-1.097 1.492-1.097-0.436-0.653 0.038-2.082z"></path>
<path fill="rgb(63, 28, 10)" d="M13.073 8.27c-4.703 1.76-5.093 4.363-4.927 5.671 0.334 2.632-2.436 2.415-2.436 2.415l-0.083 0.017c0 0 1.695-0.345 0.945-2.89-0.373-1.265-1.852-4.055 2.51-6.544l3.991 1.331z"></path>
<path fill="rgb(244, 179, 130)" d="M13.115 7.152c0-3.611-1.395-4.437-3.115-4.437s-3.115 0.827-3.115 4.437c0 1.221 0.219 2.178 0.546 2.917 0.72 1.625 1.966 2.193 2.57 2.193s1.85-0.568 2.57-2.193c0.327-0.739 0.546-1.696 0.546-2.917z"></path>
<path fill="rgb(244, 179, 130)" d="M6.585 8.423c0.168 0.983 0.377 1.028 0.675 0.978l-0.318-2.139c-0.298 0.051-0.524 0.179-0.356 1.162z"></path>
<path fill="rgb(244, 179, 130)" d="M13.063 7.261l-0.318 2.139c0.298 0.051 0.507 0.005 0.675-0.978s-0.059-1.111-0.356-1.162z"></path>
<path fill="rgb(63, 28, 10)" d="M13.229 7.305c0-3.61-0.99-4.59-3.229-4.59s-3.229 0.979-3.229 4.59l0.369-0.308c1.79 0 3.318-1.052 4.422-2.041 0.469 1.295 1.667 2.35 1.667 2.35z"></path>
<path fill="rgb(204, 120, 94)" d="M11.042 10.612c0 0-0.556 0.374-1.042 0.374s-1.042-0.374-1.042-0.374c0-0.053 0.442-0.205 0.629-0.234 0.117-0.018 0.413 0.097 0.413 0.097s0.291-0.115 0.408-0.098c0.19 0.028 0.634 0.234 0.634 0.234z"></path>
<path fill="rgb(193, 105, 82)" d="M11.042 10.612c0 0-0.556 0.526-1.042 0.526s-1.042-0.526-1.042-0.526 0.254 0.060 0.767 0.028c0.087-0.005 0.199 0.063 0.274 0.063 0.065 0 0.163-0.069 0.239-0.065 0.533 0.029 0.802-0.026 0.802-0.026z"></path>
<path fill="rgb(63, 28, 10)" d="M7.135 7.461c-0.017-0.105-0.019-0.202-0.016-0.279 0.004-0.111 0.019-0.183 0.019-0.183l-0.366 0.137c-0.001 0.056-0.001 0.112-0.001 0.169 0 0 0.040-0.013 0.109-0.037-0.003 0.001-0.007 0.002-0.010 0.003 0.050 0.086 0.113 0.217 0.174 0.411 0 0 0.143 0.107 0.091-0.221z"></path>
<path fill="rgb(63, 28, 10)" d="M12.882 7.183c0.003 0.077 0 0.173-0.016 0.278-0.052 0.328 0.091 0.221 0.091 0.221 0.061-0.194 0.123-0.325 0.173-0.411 0.063 0.022 0.099 0.033 0.099 0.033 0-0.057-0-0.114-0.001-0.17l-0.365-0.24c0 0 0.015 0.176 0.019 0.288z"></path>
<path fill="rgb(242, 248, 249)" d="M7.502 13.543v0c0.001-0 0.001-0 0.002-0s-0.001 0-0.002 0z"></path>
<path fill="rgb(1, 1, 1)" d="M8.212 16.367c0-0.108-0.048-0.196-0.107-0.196h-0.451c-0.059 0-0.107 0.088-0.107 0.196s0.048 0.196 0.107 0.196h0.451c0.059 0 0.107-0.088 0.107-0.196z"></path>
<path fill="rgb(32, 33, 33)" d="M12.779 19.285v-2.258c0-0.189-0.153-0.343-0.343-0.343h-4.874c-0.189 0-0.342 0.154-0.342 0.343v2.258c0.881 0.263 1.813 0.405 2.78 0.405s1.899-0.142 2.779-0.405z"></path>
<path fill="rgb(32, 33, 33)" d="M9.613 16.785c0-0.23-0.155-0.416-0.347-0.416h-1.7c-0.192 0-0.347 0.187-0.347 0.416v0.989c0 0.23 0.155 0.416 0.347 0.416h1.7c0.191 0 0.347-0.186 0.347-0.416v-0.989z"></path>
<path fill="rgb(1, 1, 1)" d="M11.707 18.293c0-0.943-0.764-1.707-1.707-1.707s-1.707 0.764-1.707 1.707c0 0.543 0.254 1.027 0.65 1.34 0.347 0.038 0.7 0.058 1.057 0.058s0.71-0.020 1.057-0.058c0.396-0.313 0.65-0.796 0.65-1.34z"></path>
<path fill="rgb(35, 31, 32)" d="M11.62 18.293c0-0.895-0.725-1.62-1.62-1.62s-1.62 0.725-1.62 1.62c0 0.568 0.293 1.067 0.735 1.357 0.292 0.026 0.587 0.041 0.885 0.041s0.594-0.014 0.885-0.041c0.442-0.289 0.735-0.789 0.735-1.357z"></path>
<path fill="rgb(151, 151, 151)" d="M11.533 18.293c0-0.847-0.687-1.533-1.533-1.533s-1.533 0.687-1.533 1.533c0 0.601 0.347 1.122 0.851 1.373 0.226 0.016 0.453 0.024 0.683 0.024s0.457-0.009 0.682-0.024c0.504-0.251 0.851-0.772 0.851-1.373z"></path>
<path fill="rgb(35, 31, 32)" d="M11.464 18.293c0-0.809-0.656-1.464-1.464-1.464s-1.464 0.656-1.464 1.464c0 0.643 0.415 1.189 0.991 1.386 0.157 0.008 0.315 0.012 0.473 0.012s0.316-0.004 0.473-0.012c0.576-0.197 0.991-0.743 0.991-1.386z"></path>
<path fill="rgb(1, 1, 1)" d="M11.356 18.293c0-0.743-0.603-1.346-1.346-1.346s-1.346 0.602-1.346 1.346c0 0.743 0.602 1.346 1.346 1.346s1.346-0.603 1.346-1.346z"></path>
<path fill="rgb(35, 31, 32)" d="M11.287 18.293c0-0.706-0.572-1.277-1.277-1.277s-1.277 0.572-1.277 1.277c0 0.706 0.572 1.277 1.277 1.277s1.277-0.572 1.277-1.277z"></path>
<path fill="rgb(89, 90, 92)" d="M11.219 18.293c0-0.668-0.541-1.209-1.209-1.209s-1.209 0.541-1.209 1.209c0 0.668 0.541 1.209 1.209 1.209s1.209-0.541 1.209-1.209z"></path>
<path fill="rgb(35, 31, 32)" d="M11.164 18.293c0-0.637-0.517-1.154-1.155-1.154s-1.154 0.517-1.154 1.154c0 0.638 0.517 1.155 1.154 1.155s1.155-0.517 1.155-1.155z"></path>
<path fill="rgb(165, 182, 185)" d="M11.011 18.293c0-0.553-0.448-1.001-1.001-1.001s-1.001 0.448-1.001 1.001c0 0.553 0.448 1.001 1.001 1.001s1.001-0.448 1.001-1.001z"></path>
<path fill="rgb(255, 255, 255)" d="M10.151 17.957c0 0.265-0.215 0.481-0.48 0.481s-0.481-0.215-0.481-0.481c0-0.265 0.215-0.48 0.481-0.48s0.48 0.215 0.48 0.48z"></path>
<path fill="rgb(102, 185, 204)" d="M7.528 16.563c-0.069 0-0.125 0.056-0.125 0.125v0.101l0.226-0.226h-0.101z"></path>
<path fill="rgb(102, 185, 204)" d="M8.496 16.688c0-0.069-0.056-0.125-0.125-0.125h-0.164l-0.716 0.716c0.012 0.004 0.024 0.006 0.038 0.006h0.594l0.374-0.374v-0.223z"></path>
<path fill="rgb(215, 228, 244)" d="M7.629 16.563l-0.226 0.226v0.371c0 0.056 0.037 0.103 0.088 0.119l0.716-0.716h-0.577z"></path>
<path fill="rgb(215, 228, 244)" d="M8.496 17.16v-0.249l-0.374 0.374h0.249c0.069 0 0.125-0.056 0.125-0.125z"></path>
</svg>
