<?xml version="1.0" encoding="utf-8"?>
<!-- Generated by IcoMoon.io -->
<!DOCTYPE svg PUBLIC "-//W3C//DTD SVG 1.1//EN" "http://www.w3.org/Graphics/SVG/1.1/DTD/svg11.dtd">
<svg version="1.1" xmlns="http://www.w3.org/2000/svg" xmlns:xlink="http://www.w3.org/1999/xlink" width="20" height="20" viewBox="0 0 20 20">
<path fill="rgb(74, 188, 150)" d="M19.691 10c0-5.352-4.339-9.691-9.69-9.691s-9.691 4.338-9.691 9.691c0 5.352 4.339 9.69 9.691 9.69s9.69-4.339 9.69-9.69z"></path>
<path fill="rgb(230, 231, 232)" d="M9.987 13.333c-3.014 0-5.433 0.861-5.719 1.927-0.127 0.475-0.272 1.375-0.396 2.247 1.67 1.365 3.803 2.183 6.128 2.183s4.458-0.819 6.127-2.183c-0.124-0.872-0.268-1.772-0.396-2.247-0.286-1.066-2.731-1.927-5.745-1.927z"></path>
<path fill="rgb(212, 214, 216)" d="M8.519 13.411l1.47 1.097 1.492-1.097 0.073-0.514-1.563-0.205-1.544 0.205z"></path>
<path fill="rgb(226, 163, 121)" d="M11.519 11.33h-3.038c0.474 1.429 0.038 2.082 0.038 2.082l1.051 0.505h0.859l1.051-0.505c0 0-0.436-0.653 0.038-2.082z"></path>
<path fill="rgb(244, 179, 130)" d="M13.115 7.152c0-3.611-1.395-4.437-3.115-4.437s-3.115 0.827-3.115 4.437c0 1.221 0.219 2.178 0.546 2.917 0.72 1.625 1.966 2.193 2.57 2.193s1.85-0.568 2.57-2.193c0.327-0.739 0.546-1.696 0.546-2.917z"></path>
<path fill="rgb(20, 20, 20)" d="M10 2.715c-1.904 0-3.232 0.999-3.232 4.609 0 0 3.229-1.791 3.229-3.105l0.003-1.504z"></path>
<path fill="rgb(20, 20, 20)" d="M9.997 2.715c1.904 0 3.232 0.999 3.232 4.609 0 0-3.229-1.791-3.229-3.105l-0.003-1.504z"></path>
<path fill="rgb(245, 246, 247)" d="M13.009 2.583h-6.019l-0.233 4.277h6.484z"></path>
<path fill="rgb(222, 223, 224)" d="M9.961 6.576c-0.022 0-0.039-0.018-0.039-0.039v-2.188c0-0.022 0.017-0.039 0.039-0.039s0.039 0.018 0.039 0.039v2.188c0 0.022-0.017 0.039-0.039 0.039z"></path>
<path fill="rgb(222, 223, 224)" d="M8.145 6.576c-0.022 0-0.039-0.018-0.039-0.039v-2.188c0-0.022 0.017-0.039 0.039-0.039s0.039 0.018 0.039 0.039v2.188c0 0.022-0.017 0.039-0.039 0.039z"></path>
<path fill="rgb(222, 223, 224)" d="M11.777 6.576c-0.022 0-0.039-0.018-0.039-0.039v-2.188c0-0.022 0.017-0.039 0.039-0.039s0.039 0.018 0.039 0.039v2.188c0 0.022-0.017 0.039-0.039 0.039z"></path>
<path fill="rgb(222, 223, 224)" d="M10.859 6.576c-0.022 0-0.039-0.013-0.039-0.029v-1.622c0-0.016 0.017-0.029 0.039-0.029s0.039 0.013 0.039 0.029v1.622c0 0.016-0.017 0.029-0.039 0.029z"></path>
<path fill="rgb(222, 223, 224)" d="M9.043 6.576c-0.022 0-0.039-0.013-0.039-0.029v-1.622c0-0.016 0.017-0.029 0.039-0.029s0.039 0.013 0.039 0.029v1.622c0 0.016-0.017 0.029-0.039 0.029z"></path>
<path fill="rgb(222, 223, 224)" d="M7.22 6.576c-0.022 0-0.039-0.013-0.039-0.029v-1.622c0-0.016 0.017-0.029 0.039-0.029s0.039 0.013 0.039 0.029v1.622c0 0.016-0.018 0.029-0.039 0.029z"></path>
<path fill="rgb(222, 223, 224)" d="M12.676 6.576c-0.022 0-0.039-0.013-0.039-0.029v-1.622c0-0.016 0.017-0.029 0.039-0.029s0.039 0.013 0.039 0.029v1.622c0 0.016-0.017 0.029-0.039 0.029z"></path>
<path fill="rgb(245, 246, 247)" d="M11.472 2.422c0 0.813-0.659 1.472-1.472 1.472s-1.472-0.659-1.472-1.472c0-0.813 0.659-1.472 1.472-1.472s1.472 0.659 1.472 1.472z"></path>
<path fill="rgb(245, 246, 247)" d="M13.467 2.76c0 0.813-0.659 1.472-1.472 1.472s-1.472-0.659-1.472-1.472c0-0.813 0.659-1.472 1.472-1.472s1.472 0.659 1.472 1.472z"></path>
<path fill="rgb(245, 246, 247)" d="M9.477 2.76c0 0.813-0.659 1.472-1.472 1.472s-1.472-0.659-1.472-1.472c0-0.813 0.659-1.472 1.472-1.472s1.472 0.659 1.472 1.472z"></path>
<path fill="rgb(183, 78, 57)" d="M10.879 10.781c0 0-0.394 0.205-0.879 0.205s-0.879-0.205-0.879-0.205c0-0.053 0.279-0.375 0.466-0.403 0.117-0.018 0.413 0.097 0.413 0.097s0.291-0.115 0.408-0.098c0.19 0.028 0.471 0.404 0.471 0.404z"></path>
<path fill="rgb(170, 64, 53)" d="M10.879 10.781c0 0-0.394 0.356-0.879 0.356s-0.879-0.356-0.879-0.356 0.091-0.11 0.604-0.141c0.087-0.005 0.199 0.063 0.274 0.063 0.065 0 0.163-0.069 0.239-0.065 0.533 0.029 0.64 0.143 0.64 0.143z"></path>
<path fill="rgb(226, 163, 121)" d="M8.519 13.411c0 0 0.657 1.097 1.47 1.097s1.492-1.097 1.492-1.097l-1.491-0.719-1.471 0.719z"></path>
<path fill="rgb(230, 231, 232)" d="M12.193 13.452l-0.639-0.555-1.554 0.751-1.553-0.751-0.635 0.552-0.065 0.053c0 0 0.015 4.978 2.254 4.978s2.252-4.975 2.252-4.975l-0.060-0.052z"></path>
<path fill="rgb(155, 155, 154)" d="M12.051 15.298c0 0.129-0.105 0.234-0.234 0.234s-0.234-0.105-0.234-0.234c0-0.129 0.105-0.234 0.234-0.234s0.234 0.105 0.234 0.234z"></path>
<path fill="rgb(155, 155, 154)" d="M12.051 17.114c0 0.129-0.105 0.234-0.234 0.234s-0.234-0.105-0.234-0.234c0-0.129 0.105-0.234 0.234-0.234s0.234 0.105 0.234 0.234z"></path>
<path fill="rgb(155, 155, 154)" d="M12.051 18.931c0 0.129-0.105 0.234-0.234 0.234s-0.234-0.105-0.234-0.234c0-0.129 0.105-0.234 0.234-0.234s0.234 0.105 0.234 0.234z"></path>
<path fill="rgb(155, 155, 154)" d="M8.418 15.298c0 0.129-0.105 0.234-0.234 0.234s-0.234-0.105-0.234-0.234c0-0.129 0.105-0.234 0.234-0.234s0.234 0.105 0.234 0.234z"></path>
<path fill="rgb(155, 155, 154)" d="M8.418 17.114c0 0.129-0.105 0.234-0.234 0.234s-0.234-0.105-0.234-0.234c0-0.129 0.105-0.234 0.234-0.234s0.234 0.105 0.234 0.234z"></path>
<path fill="rgb(155, 155, 154)" d="M8.418 18.931c0 0.129-0.105 0.234-0.234 0.234s-0.234-0.105-0.234-0.234c0-0.129 0.105-0.234 0.234-0.234s0.234 0.105 0.234 0.234z"></path>
<path fill="rgb(155, 155, 154)" d="M7.109 14.896v4.356c0.035 0.011 0.069 0.021 0.104 0.032v-4.387h-0.104z"></path>
<path fill="rgb(244, 179, 130)" d="M6.585 8.423c0.168 0.983 0.377 1.028 0.675 0.978l-0.318-2.139c-0.298 0.051-0.524 0.179-0.356 1.162z"></path>
<path fill="rgb(244, 179, 130)" d="M13.063 7.261l-0.318 2.139c0.298 0.051 0.507 0.005 0.675-0.978s-0.059-1.111-0.356-1.162z"></path>
<path fill="rgb(20, 20, 20)" d="M7.135 7.461c-0.017-0.105-0.019-0.202-0.016-0.279 0.004-0.111 0.019-0.183 0.019-0.183l-0.366 0.137c-0.001 0.056-0.001 0.112-0.001 0.169 0 0 0.040-0.013 0.109-0.037-0.003 0.001-0.007 0.002-0.010 0.003 0.050 0.086 0.113 0.217 0.174 0.411 0 0 0.143 0.107 0.091-0.221z"></path>
<path fill="rgb(20, 20, 20)" d="M12.882 7.183c0.003 0.077 0 0.173-0.016 0.278-0.052 0.328 0.091 0.221 0.091 0.221 0.061-0.194 0.123-0.325 0.173-0.411 0.063 0.022 0.099 0.033 0.099 0.033 0-0.057-0-0.114-0.001-0.17l-0.365-0.136c0-0 0.015 0.072 0.019 0.184z"></path>
</svg>
