<?xml version="1.0" encoding="utf-8"?>
<!-- Generated by IcoMoon.io -->
<!DOCTYPE svg PUBLIC "-//W3C//DTD SVG 1.1//EN" "http://www.w3.org/Graphics/SVG/1.1/DTD/svg11.dtd">
<svg version="1.1" xmlns="http://www.w3.org/2000/svg" xmlns:xlink="http://www.w3.org/1999/xlink" width="20" height="20" viewBox="0 0 20 20">
<path fill="rgb(72, 161, 175)" d="M19.691 10c0-5.352-4.339-9.691-9.69-9.691s-9.691 4.338-9.691 9.691c0 5.352 4.339 9.69 9.691 9.69s9.69-4.339 9.69-9.69z"></path>
<path fill="rgb(51, 77, 92)" d="M10 19.69c2.742 0 5.218-1.139 6.981-2.97-0.108-0.591-0.22-1.129-0.324-1.46-0.332-1.066-3.172-1.927-6.673-1.927s-6.311 0.862-6.643 1.927c-0.103 0.331-0.216 0.869-0.324 1.46 1.763 1.831 4.239 2.971 6.981 2.971z"></path>
<path fill="rgb(27, 42, 48)" d="M8.519 13.411l1.47 1.097 1.492-1.097 0.194-0.41-1.684-0.309-1.67 0.309z"></path>
<path fill="rgb(226, 163, 121)" d="M11.519 11.33h-3.038c0.474 1.429 0.038 2.082 0.038 2.082l1.051 0.237h0.859l1.051-0.237c0 0-0.436-0.653 0.038-2.082z"></path>
<path fill="rgb(226, 163, 121)" d="M8.519 13.411c0 0 0.657 1.097 1.47 1.097s1.492-1.097 1.492-1.097l-1.491-0.719-1.471 0.719z"></path>
<path fill="rgb(38, 58, 68)" d="M11.788 13.44c-0.566-0.069-1.171-0.107-1.801-0.107-0.622 0-1.218 0.037-1.776 0.104l1.789 3.555 1.788-3.552z"></path>
<path fill="rgb(226, 163, 121)" d="M10 15.801l-1.475-2.396c0 0 0.361-0.485 1.462-0.485s1.489 0.487 1.489 0.487l-1.476 2.394z"></path>
<path fill="rgb(191, 138, 61)" d="M16.576 4.478c0 0-2.959 0.346-6.576 0.346s-6.576-0.346-6.576-0.346c0 0.174 0.433 1.306 0.44 1.322 0.15 0.384 1.507 2.468 6.136 2.468s5.953-2.083 6.131-2.457c0.010-0.020 0.444-1.159 0.444-1.333z"></path>
<path fill="rgb(230, 231, 232)" d="M13.447 7.152c0-3.611-1.543-4.437-3.447-4.437s-3.447 0.827-3.447 4.437c0 1.221 0.242 2.178 0.604 2.917 0.797 1.625 2.176 2.193 2.843 2.193s2.047-0.568 2.843-2.193c0.362-0.739 0.604-1.696 0.604-2.917z"></path>
<path fill="rgb(244, 179, 130)" d="M13.056 7.152c0-3.611-1.152-4.437-3.056-4.437s-3.056 0.827-3.056 4.437c0 1.221 1.256 4.352 3.056 4.352s3.056-3.131 3.056-4.352z"></path>
<path fill="rgb(230, 231, 232)" d="M10 9.603c-0.008 0-0.098-0.093-0.134-0.092-0.831 0.036-1.584 0.336-1.584 0.591 0 0.080-0.063 0.656 0.228 0.489 0.237-0.31 0.772-0.545 1.346-0.567 0.047-0.002 0.094 0.038 0.143 0.039 0.051-0.001 0.101-0.040 0.149-0.038 0.571 0.022 1.080 0.22 1.34 0.566 0.291 0.167 0.228-0.409 0.228-0.489 0-0.254-0.749-0.553-1.578-0.591-0.039-0.002-0.132 0.091-0.14 0.091z"></path>
<path fill="rgb(244, 179, 130)" d="M6.966 9.631c-0.33 0.056-0.561 0.006-0.747-1.082s0.065-1.23 0.394-1.286l0.352 2.368z"></path>
<path fill="rgb(244, 179, 130)" d="M13.038 9.631c0.33 0.056 0.561 0.006 0.747-1.082s-0.065-1.23-0.394-1.286l-0.352 2.368z"></path>
<path fill="rgb(230, 231, 232)" d="M13.447 7.152c0-3.611-1.182-4.535-3.447-4.535s-3.447 0.924-3.447 4.535l1.514-2.672c0 0 1.074 0.168 1.934 0.168s1.803-0.168 1.803-0.168l1.644 2.672z"></path>
<path fill="rgb(155, 115, 52)" d="M9.1 1.192c-0.349 0 0.312 0.451 0.9 0.449s1.104-0.455 0.822-0.455c-0.304-0.082-0.563-0.122-0.851-0.121-0.261 0.002-0.605 0.049-0.871 0.127z"></path>
<path fill="rgb(209, 151, 67)" d="M9.1 1.104c-0.698 0-1.868 2.529-1.868 2.529h5.537c0 0-1.383-2.535-1.947-2.535-0.296 0-0.563 0.2-0.851 0.201-0.261 0.002-0.539-0.195-0.871-0.195z"></path>
<path fill="rgb(230, 231, 232)" d="M6.772 5.808c-0.166 0.425-0.22 0.952-0.22 1.464 0 0 0.342-0.075 0.342 0.101l0.107 1.079 0.151-0.073c-0.010-0.898 0.19-2.656 0.19-2.656l-0.571 0.085z"></path>
<path fill="rgb(230, 231, 232)" d="M13.231 5.808c0.166 0.425 0.22 0.952 0.22 1.464 0 0-0.342-0.075-0.342 0.101l-0.107 1.079-0.151-0.073c0.010-0.898-0.19-2.585-0.19-2.585l0.571 0.014z"></path>
<path fill="rgb(255, 255, 255)" d="M8.032 13.426v0z"></path>
<path fill="rgb(255, 255, 255)" d="M11.967 13.429v0l0 0z"></path>
<path fill="rgb(226, 168, 75)" d="M16.576 4.523c0 0-2.959-1.203-6.576-1.203s-6.576 1.203-6.576 1.203c0 0.174 0.44 1.341 0.44 1.322 0-0.045 3.265-0.279 6.136-0.279s6.131 0.289 6.131 0.289c0.010-0.020 0.444-1.159 0.444-1.333z"></path>
<path fill="rgb(38, 58, 68)" d="M10.273 19.686v-3.658h-0.547v3.658c0.091 0.003 0.182 0.004 0.274 0.004s0.183-0.002 0.273-0.004z"></path>
<path fill="rgb(226, 168, 75)" d="M13.22 13.6v4.408h-6.44v-4.412c-0.355 0.063-0.689 0.135-1.001 0.217v4.912c1.276 0.619 2.708 0.966 4.221 0.966s2.945-0.348 4.221-0.966v-4.908c-0.311-0.081-0.646-0.154-1.001-0.217z"></path>
<path fill="rgb(66, 65, 49)" d="M6.563 17.982c0 0.158-0.128 0.286-0.286 0.286s-0.286-0.128-0.286-0.286c0-0.158 0.128-0.286 0.286-0.286s0.286 0.128 0.286 0.286z"></path>
<path fill="rgb(66, 65, 49)" d="M14.010 17.982c0 0.158-0.128 0.286-0.286 0.286s-0.286-0.128-0.286-0.286c0-0.158 0.128-0.286 0.286-0.286s0.286 0.128 0.286 0.286z"></path>
<path fill="rgb(38, 58, 68)" d="M6.914 13.555l1.407-0.553c0 0 1.718 3.222 1.705 3.21l-2.018-1.328 0.43-0.43h-1.25l-0.273-0.898z"></path>
<path fill="rgb(38, 58, 68)" d="M13.081 13.555l-1.407-0.553c0 0-1.718 3.222-1.705 3.21l2.018-1.328-0.43-0.43h1.25l0.273-0.898z"></path>
</svg>
