<?xml version="1.0" encoding="utf-8"?>
<!-- Generator: Adobe Illustrator 16.0.0, SVG Export Plug-In . SVG Version: 6.00 Build 0)  -->
<!DOCTYPE svg PUBLIC "-//W3C//DTD SVG 1.1//EN" "http://www.w3.org/Graphics/SVG/1.1/DTD/svg11.dtd">
<svg version="1.1" id="Layer_1" xmlns="http://www.w3.org/2000/svg" xmlns:xlink="http://www.w3.org/1999/xlink" x="0px" y="0px"
	 width="20px" height="20px" viewBox="0 0 20 20" enable-background="new 0 0 20 20" xml:space="preserve">
<g>
	<path fill="#49A0AE" d="M19.69,10c0,5.351-4.338,9.69-9.69,9.69S0.31,15.353,0.31,10c0-5.352,4.338-9.69,9.69-9.69
		S19.69,4.647,19.69,10z"/>
	<path fill="#D62127" d="M17.138,11.642c0,0.495-1.036,0.896-1.529,0.896l-3.72-0.013V7.349c0-0.42,0.941-0.448,1.555-0.46
		s2.1-0.069,2.532,0.326C17.174,8.312,17.138,11.642,17.138,11.642z"/>
	<path fill="#D62127" d="M11.916,12.733H3.845c-0.656,0-0.76-0.531-0.76-1.188v-0.588c0-0.657,0.532-0.875,1.188-0.875h7.642
		L11.916,12.733L11.916,12.733z"/>
	<path fill="#D62127" d="M17.353,12.034c0,0.387-0.313,0.699-0.699,0.699h-4.053c-0.386,0-0.699-0.312-0.699-0.699v-1.873
		c0-0.387,0.313-0.699,0.699-0.699l4.053,0.455c0.386,0,0.699,0.313,0.699,0.699V12.034L17.353,12.034z"/>
	<path fill="#C02026" d="M17.346,12.399c0,0.203-0.165,0.369-0.369,0.369H3.512c-0.204,0-0.369-0.166-0.369-0.369v-0.206
		c0-0.204,14.203-0.204,14.203,0V12.399L17.346,12.399z"/>
	<path fill="#202121" d="M7.688,12.647c0,0.683-0.553,1.236-1.235,1.236s-1.235-0.554-1.235-1.236c0-0.682,0.553-1.234,1.235-1.234
		S7.688,11.966,7.688,12.647z"/>
	<path fill="#5E5F5E" d="M7.189,12.647c0,0.407-0.329,0.736-0.735,0.736S5.72,13.055,5.72,12.647c0-0.404,0.328-0.733,0.734-0.733
		S7.189,12.243,7.189,12.647z"/>
	<path fill="#A19F9F" d="M6.729,12.647c0,0.152-0.124,0.276-0.274,0.276S6.179,12.8,6.179,12.647c0-0.151,0.123-0.273,0.275-0.273
		C6.605,12.374,6.729,12.496,6.729,12.647z"/>
	<path fill="#202121" d="M16.315,12.647c0,0.683-0.553,1.236-1.234,1.236c-0.684,0-1.236-0.554-1.236-1.236
		c0-0.682,0.553-1.234,1.236-1.234C15.763,11.413,16.315,11.966,16.315,12.647z"/>
	<path fill="#5E5F5E" d="M15.814,12.647c0,0.407-0.328,0.736-0.733,0.736c-0.407,0-0.736-0.329-0.736-0.736
		c0-0.404,0.329-0.733,0.736-0.733C15.486,11.914,15.814,12.243,15.814,12.647z"/>
	<path fill="#A19F9F" d="M15.354,12.647c0,0.152-0.124,0.276-0.276,0.276c-0.15,0-0.274-0.124-0.274-0.276
		c0-0.151,0.124-0.273,0.274-0.273C15.23,12.374,15.354,12.496,15.354,12.647z"/>
	<path fill="#9DDAEC" d="M13.7,9.222c0,0.113-0.092,0.206-0.205,0.206h-1.063c-0.113,0-0.205-0.093-0.205-0.206v-1.68
		c0-0.113,0.092-0.205,0.205-0.205h1.063c0.113,0,0.205,0.092,0.205,0.205V9.222z"/>
	<path fill="#9DDAEC" d="M16.224,9.428h-2.021c-0.113,0-0.206-0.093-0.206-0.206v-1.68c0-0.113,0.093-0.205,0.206-0.205h1.282
		C16.021,7.337,16.671,9.428,16.224,9.428z"/>
	<path fill="#D62127" d="M3.058,10.784h14.301v0.414H3.058V10.784z"/>
	<path fill="#EDAF1E" d="M16.592,5.485c-0.022-0.093-0.115-0.15-0.207-0.128L5.592,7.916C5.5,7.938,5.442,8.031,5.464,8.124
		c0.022,0.093,0.115,0.149,0.208,0.128l10.792-2.56C16.557,5.671,16.614,5.577,16.592,5.485z"/>
	<path fill="#EDAF1E" d="M5.785,7.975c-0.058-0.075-0.166-0.09-0.24-0.031L3.381,9.414C3.306,9.473,3.292,9.581,3.35,9.656
		s0.165,0.089,0.24,0.031l2.164-1.472C5.829,8.157,5.844,8.05,5.785,7.975z"/>
	<path fill="#FFC10D" d="M16.592,5.787c-0.022-0.092-0.115-0.149-0.207-0.127L5.592,8.219C5.5,8.241,5.442,8.333,5.464,8.427
		C5.486,8.52,5.579,8.576,5.672,8.555l10.792-2.561C16.557,5.973,16.614,5.88,16.592,5.787z"/>
	<path fill="#FFC10D" d="M5.785,8.276c-0.058-0.075-0.166-0.089-0.24-0.031L3.381,9.717C3.306,9.774,3.292,9.884,3.35,9.959
		s0.165,0.089,0.24,0.031l2.164-1.472C5.829,8.46,5.844,8.352,5.785,8.276z"/>
	<path fill="#EDC92C" d="M15.064,6.929h-0.612v-0.51c0-0.17,0.137-0.307,0.306-0.307l0,0c0.17,0,0.306,0.137,0.306,0.307
		L15.064,6.929L15.064,6.929z"/>
	<path fill="#F37C2A" d="M14.768,6.929h-0.315v-0.51c0-0.17,0.137-0.307,0.306-0.307l0,0L14.768,6.929L14.768,6.929z"/>
	<path fill="#D62127" d="M6.321,10.085h-1.56L3.64,9.275V8.918l2.652-0.152L6.321,10.085z"/>
</g>
</svg>
