<?xml version="1.0" encoding="utf-8"?>
<!-- Generator: Adobe Illustrator 16.0.0, SVG Export Plug-In . SVG Version: 6.00 Build 0)  -->
<!DOCTYPE svg PUBLIC "-//W3C//DTD SVG 1.1//EN" "http://www.w3.org/Graphics/SVG/1.1/DTD/svg11.dtd">
<svg version="1.1" id="Layer_1" xmlns="http://www.w3.org/2000/svg" xmlns:xlink="http://www.w3.org/1999/xlink" x="0px" y="0px"
	 width="20px" height="20px" viewBox="0 0 20 20" enable-background="new 0 0 20 20" xml:space="preserve">
<g>
	<path fill="#E84849" d="M19.69,10c0,5.351-4.338,9.69-9.69,9.69S0.31,15.353,0.31,10c0-5.352,4.338-9.69,9.69-9.69
		S19.69,4.647,19.69,10z"/>
	<path fill="#E9C29C" d="M14.497,11.178c0,2.371-1.921,4.291-4.291,4.291s-4.291-1.92-4.291-4.291c0-2.369,1.921-4.291,4.291-4.291
		S14.497,8.808,14.497,11.178z"/>
	<path fill="#343433" d="M9.508,11.815c0,0.344-0.263,0.622-0.589,0.622c-0.325,0-0.588-0.278-0.588-0.622
		c0-0.343,0.263-0.619,0.588-0.619C9.245,11.196,9.508,11.474,9.508,11.815z"/>
	<path fill="#343433" d="M12.056,11.815c0,0.344-0.263,0.622-0.588,0.622c-0.326,0-0.589-0.278-0.589-0.622
		c0-0.343,0.263-0.619,0.589-0.619C11.793,11.196,12.056,11.474,12.056,11.815z"/>
	<path fill="#FFFFFF" d="M11.885,11.579c0,0.139-0.104,0.25-0.233,0.25s-0.234-0.111-0.234-0.25c0-0.137,0.105-0.248,0.234-0.248
		C11.779,11.331,11.885,11.442,11.885,11.579z"/>
	<path fill="#FFFFFF" d="M9.332,11.579c0,0.139-0.106,0.25-0.235,0.25c-0.13,0-0.234-0.111-0.234-0.25
		c0-0.137,0.105-0.248,0.234-0.248C9.225,11.331,9.332,11.442,9.332,11.579z"/>
	<path fill="#B25E27" d="M14.497,11.178l-2.926-2.632c0,0-0.623,1.032-2.285,1.782c-1.603,0.725-3.372,0.85-3.372,0.85
		c0-2.369,1.921-4.291,4.291-4.291S14.496,8.808,14.497,11.178L14.497,11.178z"/>
	<path fill="#EDC92C" d="M14.291,9.663c0,0,1.35-5.822-4.086-5.822S6.119,9.663,6.119,9.663H14.291z"/>
	<path fill="#BF2626" d="M11.652,6.055c0,0.852-0.691,1.543-1.544,1.543c-0.852,0-1.543-0.691-1.543-1.543
		c0-0.853,0.691-1.543,1.543-1.543C10.961,4.512,11.652,5.202,11.652,6.055z"/>
	<path fill="#E17A2D" d="M9.808,5.62c0.12-0.313,0.097-0.784,0.097-0.784s0.319,0.134,0.54,0.501c0.208,0.346,0.012,0.86,0.012,0.86
		c0.153-0.153,0.209-0.305,0.215-0.489c0.172,0.274,0.305,0.587,0.305,0.905c0,0.393-0.358,0.711-0.799,0.711
		S9.378,7.006,9.378,6.613C9.378,6.231,9.667,5.988,9.808,5.62L9.808,5.62z"/>
	<path fill="#E5DF0E" d="M9.964,6.289c0.066-0.189,0.054-0.476,0.054-0.476s0.633,0.48,0.588,1.078
		c-0.019,0.237-0.196,0.432-0.439,0.432S9.729,7.13,9.729,6.892C9.729,6.659,9.887,6.513,9.964,6.289L9.964,6.289z"/>
	<path opacity="0.5" fill="#E2A333" d="M10.039,6.659c0.041-0.12,0.033-0.301,0.033-0.301s0.4,0.304,0.371,0.682
		c-0.011,0.151-0.124,0.273-0.277,0.273c-0.152,0-0.277-0.122-0.277-0.273C9.889,6.895,9.988,6.801,10.039,6.659z"/>
	<path fill="#DBB626" d="M15.788,9.166c0,0.844-2.501,0.6-5.584,0.6c-3.084,0-5.585,0.245-5.585-0.6c0-0.847,2.501-0.86,5.585-0.86
		C13.287,8.306,15.788,8.32,15.788,9.166z"/>
</g>
</svg>
