<?xml version="1.0" encoding="utf-8"?>
<!-- Generated by IcoMoon.io -->
<!DOCTYPE svg PUBLIC "-//W3C//DTD SVG 1.1//EN" "http://www.w3.org/Graphics/SVG/1.1/DTD/svg11.dtd">
<svg version="1.1" xmlns="http://www.w3.org/2000/svg" xmlns:xlink="http://www.w3.org/1999/xlink" width="20" height="20" viewBox="0 0 20 20">
<path fill="rgb(74, 188, 150)" d="M19.691 10c0-5.352-4.339-9.691-9.69-9.691s-9.691 4.338-9.691 9.691c0 5.352 4.339 9.69 9.691 9.69s9.69-4.339 9.69-9.69z"></path>
<path fill="rgb(29, 29, 30)" d="M10 19.69c2.742 0 5.218-1.139 6.981-2.97-0.108-0.591-0.22-1.129-0.324-1.46-0.332-1.066-3.172-1.927-6.673-1.927s-6.311 0.861-6.643 1.927c-0.103 0.331-0.216 0.869-0.324 1.46 1.763 1.831 4.239 2.971 6.981 2.971z"></path>
<path fill="rgb(214, 231, 242)" d="M13.711 17.915h-2.988v1.748c1.052-0.078 2.057-0.323 2.988-0.709v-1.039z"></path>
<path fill="rgb(85, 104, 119)" d="M10.723 17.881h2.988v0.243h-2.988v-0.243z"></path>
<path fill="rgb(85, 104, 119)" d="M13.412 18.506h-1.218c-0.034 0-0.062-0.028-0.062-0.062s0.028-0.062 0.062-0.062h1.218c0.034 0 0.062 0.028 0.062 0.062s-0.028 0.062-0.062 0.062z"></path>
<path fill="rgb(85, 104, 119)" d="M13.412 18.971h-1.218c-0.034 0-0.062-0.028-0.062-0.062s0.028-0.062 0.062-0.062h1.218c0.034 0 0.062 0.028 0.062 0.062s-0.028 0.062-0.062 0.062z"></path>
<path fill="rgb(85, 104, 119)" d="M12.194 19.312c-0.034 0-0.062 0.028-0.062 0.062s0.028 0.062 0.062 0.062h0.022c0.16-0.037 0.319-0.079 0.476-0.124h-0.497z"></path>
<path fill="rgb(85, 104, 119)" d="M10.955 18.321h0.914v1.161h-0.914v-1.161z"></path>
<path fill="rgb(212, 214, 216)" d="M10.003 17.63c0.764 0 1.631-4.219 1.631-4.219l-1.647 1.045-1.622-1.045c0 0 0.873 4.219 1.637 4.219z"></path>
<path fill="rgb(212, 214, 216)" d="M8.519 13.411l1.47 1.097 1.492-1.097 0.073-0.514-1.563-0.205-1.544 0.205z"></path>
<path fill="rgb(226, 163, 121)" d="M11.519 11.33h-3.038c0.474 1.429 0.038 2.082 0.038 2.082l1.051 0.237h0.859l1.051-0.237c0-0-0.436-0.653 0.038-2.082z"></path>
<path fill="rgb(243, 250, 255)" d="M11.328 14.323l0.226-1.426 0.699 0.607z"></path>
<path fill="rgb(243, 250, 255)" d="M8.672 14.323l-0.226-1.426-0.699 0.607z"></path>
<path fill="rgb(243, 250, 255)" d="M12.253 13.504l-0.699-0.607-1.554 0.751c0 0 1.329 0.675 1.336 0.668l0.918-0.812z"></path>
<path fill="rgb(243, 250, 255)" d="M7.747 13.504l0.699-0.607 1.553 0.751c0 0-1.328 0.675-1.334 0.668l-0.918-0.812z"></path>
<path fill="rgb(134, 180, 209)" d="M9.999 13.648l-0.614 0.31 0.614 1 0.614-1z"></path>
<path fill="rgb(134, 180, 209)" d="M10.003 17.63c0.199 0 0.405-0.45 0.598-1.090l-0.444-2.094h-0.318l-0.44 2.082c0.195 0.647 0.403 1.102 0.603 1.102z"></path>
<path fill="rgb(74, 74, 84)" d="M7.988 13.293l-0.488 0.251 0.313 2.159 0.638-0.143-0.469 0.573 2.018 2.087-0.001-0.589c0 0-1.328-3.307-1.334-3.313l-0.677-1.024z"></path>
<path fill="rgb(74, 74, 84)" d="M12.012 13.293l0.488 0.251-0.313 2.159-0.638-0.143 0.469 0.573-2.018 2.087 0.001-0.589c0 0 1.328-3.307 1.334-3.313l0.677-1.024z"></path>
<path fill="rgb(244, 179, 130)" d="M13.447 7.152c0-3.611-1.543-4.437-3.447-4.437s-3.447 0.827-3.447 4.437c0 1.221 0.242 2.178 0.604 2.917 0.797 1.625 2.176 2.193 2.843 2.193s2.047-0.568 2.843-2.193c0.362-0.739 0.604-1.696 0.604-2.917z"></path>
<path fill="rgb(216, 147, 100)" d="M11.016 10.67c0 0.090-0.455 0.335-1.016 0.335s-1.016-0.245-1.016-0.335c0-0.055 0.322-0.214 0.539-0.243 0.135-0.018 0.477 0.101 0.477 0.101s0.337-0.119 0.471-0.102c0.22 0.029 0.545 0.244 0.545 0.244z"></path>
<path fill="rgb(206, 135, 87)" d="M11.016 10.67c0 0.090-0.455 0.437-1.016 0.437s-1.016-0.347-1.016-0.437c0 0 0.414 0.045 1.016 0.045s1.016-0.045 1.016-0.045z"></path>
<path fill="rgb(244, 179, 130)" d="M6.966 9.631c-0.33 0.056-0.561 0.006-0.747-1.082s0.065-1.23 0.394-1.286l0.352 2.368z"></path>
<path fill="rgb(81, 37, 13)" d="M13.447 7.272c0-2.129-0.718-3.324-0.718-3.324-0.295-0.967-1.619-1.292-2.73-1.292-1.904 0-3.447 1.24-3.447 4.616l0.791-0.133c0-0.103 3.789-2.295 3.789-2.295 0.378 0.221 0.977 0.078 0.977 0.078 0-0.149 0.551 2.217 0.551 2.217l0.787 0.133z"></path>
<path fill="rgb(81, 37, 13)" d="M6.772 5.808c-0.166 0.425-0.22 0.952-0.22 1.464 0 0 0.342-0.075 0.342 0.101l0.107 1.079 0.151-0.073c-0.010-0.898 0.19-1.24 0.19-1.24l-0.571-1.331z"></path>
<path fill="rgb(244, 179, 130)" d="M13.038 9.631c0.33 0.056 0.561 0.006 0.747-1.082s-0.065-1.23-0.394-1.286l-0.352 2.368z"></path>
<path fill="rgb(81, 37, 13)" d="M13.231 5.808c0.166 0.425 0.22 0.952 0.22 1.464 0 0-0.342-0.075-0.342 0.101l-0.107 1.079-0.151-0.073c0.010-0.898-0.19-1.24-0.19-1.24l0.571-1.331z"></path>
<path fill="rgb(229, 170, 23)" d="M13.401 6.085c0.125 0 0.060-2.063-0.432-2.788-0.529-0.779-1.973-1.457-2.963-1.457s-2.441 0.677-2.969 1.457c-0.492 0.725-0.62 2.788-0.439 2.788s6.677 0 6.803 0z"></path>
<path fill="rgb(239, 199, 108)" d="M6.564 6.656c0 0 1.481 0.151 3.439 0.151s3.435-0.151 3.435-0.151l0.007-0.822h-6.917l0.035 0.822z"></path>
<path fill="rgb(229, 170, 23)" d="M11.199 3.004c0 0.277-0.537 3.394-1.199 3.394v0c-0.662 0-1.199-3.117-1.199-3.394v-0.885c0-0.277 0.537-0.411 1.199-0.411v0c0.662 0 1.199 0.134 1.199 0.411v0.885z"></path>
<path fill="rgb(193, 141, 23)" d="M8.797 3.004c-0.030-0.074-0.045-0.148-0.055-0.221-0.007-0.037-0.008-0.074-0.012-0.111-0.002-0.037-0.003-0.074-0.004-0.111 0.001-0.037 0.002-0.074 0.004-0.111 0.004-0.037 0.005-0.074 0.012-0.111 0.011-0.074 0.026-0.148 0.055-0.221l0.001-0.001c0.001-0.002 0.003-0.003 0.005-0.002s0.002 0.002 0.003 0.004l0.004 0.443-0.004 0.443c-0 0.002-0.002 0.004-0.004 0.004s-0.003-0.001-0.004-0.003l-0.001-0.001z"></path>
<path fill="rgb(193, 141, 23)" d="M11.203 2.119c0.030 0.074 0.045 0.148 0.055 0.221 0.007 0.037 0.008 0.074 0.012 0.111 0.002 0.037 0.003 0.074 0.004 0.111-0.001 0.037-0.002 0.074-0.004 0.111-0.004 0.037-0.005 0.074-0.012 0.111-0.011 0.074-0.026 0.148-0.055 0.221l-0.001 0.001c-0.001 0.002-0.003 0.003-0.005 0.002s-0.003-0.002-0.003-0.004l-0.004-0.443 0.004-0.443c0-0.002 0.002-0.004 0.004-0.004s0.003 0.001 0.004 0.003l0.001 0.001z"></path>
<path fill="rgb(244, 178, 30)" d="M11.185 5.758c0 0.277-0.792 0.502-1.185 0.502v0c-0.393 0-1.185-0.225-1.185-0.502l0.474-3.778c0-0.277 0.318-0.502 0.711-0.502v0c0.393 0 0.711 0.225 0.711 0.502l0.474 3.778z"></path>
<path fill="rgb(229, 170, 23)" d="M6.146 6.273c0 0 1.661 0.17 3.858 0.17s3.853-0.17 3.853-0.17-0.15-0.92-0.561-0.92c-0.491-0.020-1.898 0.293-3.297 0.292-1.378-0-2.748-0.314-3.226-0.295-0.471 0-0.628 0.922-0.628 0.922z"></path>
<path fill="rgb(193, 141, 23)" d="M6.529 5.458c0.287 0.022 0.575 0.044 0.862 0.060 0.287 0.018 0.575 0.034 0.862 0.046 0.575 0.025 1.15 0.044 1.726 0.041 0.575 0.004 1.151-0.014 1.726-0.039 0.288-0.012 0.575-0.028 0.862-0.046 0.288-0.016 0.575-0.038 0.862-0.061-0.285 0.042-0.572 0.072-0.859 0.102-0.287 0.027-0.574 0.050-0.862 0.070-0.575 0.038-1.152 0.056-1.729 0.058-0.577-0.004-1.154-0.022-1.729-0.060-0.288-0.020-0.575-0.042-0.862-0.069-0.287-0.030-0.574-0.059-0.859-0.1z"></path>
</svg>
