<?xml version="1.0" encoding="utf-8"?>
<!-- Generated by IcoMoon.io -->
<!DOCTYPE svg PUBLIC "-//W3C//DTD SVG 1.1//EN" "http://www.w3.org/Graphics/SVG/1.1/DTD/svg11.dtd">
<svg version="1.1" xmlns="http://www.w3.org/2000/svg" xmlns:xlink="http://www.w3.org/1999/xlink" width="20" height="20" viewBox="0 0 20 20">
<path fill="rgb(51, 113, 128)" d="M19.691 10c0-5.352-4.339-9.691-9.69-9.691s-9.691 4.338-9.691 9.691c0 5.352 4.339 9.69 9.691 9.69s9.69-4.339 9.69-9.69z"></path>
<path fill="rgb(226, 163, 121)" d="M11.519 11.33h-3.038c0.474 1.429 0.038 2.082 0.038 2.082l1.051 0.237h0.859l1.051-0.237c0 0-0.436-0.653 0.038-2.082z"></path>
<path fill="rgb(154, 232, 244)" d="M10 19.69c2.742 0 5.218-1.139 6.981-2.97-0.108-0.591-0.22-1.129-0.324-1.46-0.332-1.066-3.172-1.927-6.673-1.927s-6.311 0.862-6.643 1.927c-0.103 0.331-0.216 0.869-0.324 1.46 1.763 1.831 4.239 2.971 6.981 2.971z"></path>
<path fill="rgb(122, 198, 206)" d="M5.789 17.246h2.461v0.41h-2.461v-0.41z"></path>
<path fill="rgb(226, 163, 121)" d="M8.519 13.411c0 0-0.577 1.11 1.47 1.11s1.492-1.11 1.492-1.11l-1.491-0.719-1.471 0.719z"></path>
<path fill="rgb(1, 152, 151)" d="M12.253 13.504l-0.699-0.607-1.554 1.624 1.43 0.401z"></path>
<path fill="rgb(1, 152, 151)" d="M7.747 13.504l0.699-0.607 1.553 1.624-1.429 0.401z"></path>
<path fill="rgb(244, 179, 130)" d="M13.447 7.152c0-3.611-1.543-4.437-3.447-4.437s-3.447 0.827-3.447 4.437c0 1.221 0.242 2.178 0.604 2.917 0.797 1.625 2.176 2.193 2.843 2.193s2.047-0.568 2.843-2.193c0.362-0.739 0.604-1.696 0.604-2.917z"></path>
<path fill="rgb(58, 29, 18)" d="M13.447 7.152c0-3.611-1.182-4.535-3.447-4.535s-3.447 0.924-3.447 4.535l1.553-2.074c0 0 1.035 0.781 1.895 0.781s1.803-0.781 1.803-0.781l1.644 2.074z"></path>
<path fill="rgb(58, 29, 18)" d="M6.772 5.808c-0.166 0.425-0.22 0.952-0.22 1.464 0 0 0.342-0.075 0.342 0.101l0.107 1.079 0.151-0.073c-0.010-0.898 0.19-2.656 0.19-2.656l-0.571 0.085z"></path>
<path fill="rgb(58, 29, 18)" d="M13.231 5.808c0.166 0.425 0.22 0.952 0.22 1.464 0 0-0.342-0.075-0.342 0.101l-0.107 1.079-0.151-0.073c0.010-0.898-0.19-2.585-0.19-2.585l0.571 0.014z"></path>
<path fill="rgb(58, 29, 18)" d="M9.115 5.593v1.172l1.992-1.23z"></path>
<path fill="rgb(58, 29, 18)" d="M8.509 5.261v1.172l1.992-1.23z"></path>
<path fill="rgb(58, 29, 18)" d="M7.904 5.007v1.172l1.992-1.23z"></path>
<path fill="rgb(244, 179, 130)" d="M6.966 9.631c-0.33 0.056-0.561 0.006-0.747-1.082s0.065-1.23 0.394-1.286l0.352 2.368z"></path>
<path fill="rgb(244, 179, 130)" d="M13.038 9.631c0.33 0.056 0.561 0.006 0.747-1.082s-0.065-1.23-0.394-1.286l-0.352 2.368z"></path>
<path fill="rgb(228, 240, 242)" d="M12.471 8.503c-0.011 0-0.022-0.002-0.033-0.007-0.039-0.018-0.056-0.065-0.038-0.104l0.586-1.263c0.018-0.039 0.065-0.056 0.104-0.038s0.056 0.065 0.038 0.104l-0.586 1.263c-0.013 0.029-0.041 0.045-0.071 0.045z"></path>
<path fill="rgb(228, 240, 242)" d="M7.529 8.503c-0.029 0-0.058-0.017-0.071-0.045l-0.586-1.263c-0.018-0.039-0.001-0.086 0.038-0.104s0.086-0.001 0.104 0.038l0.586 1.263c0.018 0.039 0.001 0.086-0.038 0.104-0.011 0.005-0.022 0.007-0.033 0.007z"></path>
<path fill="rgb(228, 240, 242)" d="M12.843 10.069l-0.226-1.738-2.616-0.4-2.619 0.4-0.226 1.738 0 0c0.797 1.625 2.176 2.193 2.843 2.193s2.047-0.568 2.843-2.193l-0-0z"></path>
<path fill="rgb(1, 152, 151)" d="M13.532 16.369c-0.22-0.122-0.405 0.071-0.563 0.071-0.192 0-0.343-0.194-0.563-0.071-0.224 0.125-0.455 0.322-0.081 0.857 0 0 0.031 1.059 0.247 1.275 0 0 0.117 0.017 0.117-0.266 0 0-0.095-0.755 0.281-0.776 0.376 0.021 0.28 0.776 0.28 0.776 0 0.282 0.117 0.266 0.117 0.266 0.216-0.216 0.247-1.275 0.247-1.275 0.374-0.536 0.144-0.733-0.081-0.857z"></path>
</svg>
