<?xml version="1.0" encoding="utf-8"?>
<!-- Generated by IcoMoon.io -->
<!DOCTYPE svg PUBLIC "-//W3C//DTD SVG 1.1//EN" "http://www.w3.org/Graphics/SVG/1.1/DTD/svg11.dtd">
<svg version="1.1" xmlns="http://www.w3.org/2000/svg" xmlns:xlink="http://www.w3.org/1999/xlink" width="20" height="20" viewBox="0 0 20 20">
<path fill="rgb(72, 161, 175)" d="M19.691 10c0-5.352-4.339-9.691-9.691-9.691s-9.691 4.338-9.691 9.691c0 5.352 4.339 9.69 9.691 9.69s9.691-4.339 9.691-9.69z"></path>
<path fill="rgb(29, 29, 30)" d="M9.987 13.333c-3.014 0-5.433 0.862-5.719 1.927-0.127 0.475-0.272 1.375-0.396 2.247 1.67 1.365 3.803 2.183 6.128 2.183s4.458-0.819 6.127-2.183c-0.124-0.872-0.268-1.772-0.396-2.247-0.286-1.066-2.731-1.927-5.745-1.927z"></path>
<path fill="rgb(29, 29, 30)" d="M4.023 16.517c0 0-0.651-3.21 2.013-2.596l-0.294 2.74-1.719-0.143z"></path>
<path fill="rgb(29, 29, 30)" d="M15.978 16.517c0 0 0.651-3.21-2.013-2.596l0.294 2.74 1.719-0.143z"></path>
<path fill="rgb(29, 29, 30)" d="M15.732 15.26c-0.187-0.699-1.305-1.311-2.903-1.648l0.704 3.773 2.515-0.417c-0.104-0.686-0.216-1.331-0.317-1.708z"></path>
<path fill="rgb(29, 29, 30)" d="M4.268 15.26c-0.101 0.377-0.213 1.022-0.317 1.708l2.478 0.411 0.702-3.762c-1.579 0.339-2.676 0.948-2.863 1.644z"></path>
<path fill="rgb(226, 163, 121)" d="M16.128 17.507c-0.007-0.049-0.014-0.098-0.021-0.147l-2.5 0.418 0.211 1.13c0.837-0.359 1.614-0.833 2.31-1.402z"></path>
<path fill="rgb(226, 163, 121)" d="M6.146 18.893l0.209-1.121-2.462-0.412c-0.007 0.049-0.014 0.098-0.021 0.147 0.686 0.561 1.45 1.029 2.274 1.386z"></path>
<path fill="rgb(230, 231, 232)" d="M3.893 17.36l2.462 0.412 0.073-0.394-2.478-0.411c-0.020 0.13-0.039 0.261-0.058 0.393z"></path>
<path fill="rgb(230, 231, 232)" d="M16.107 17.361c-0.019-0.131-0.038-0.263-0.058-0.393l-2.515 0.417 0.073 0.394 2.5-0.418z"></path>
<path fill="rgb(29, 29, 30)" d="M6.107 17.174v1.701c1.192 0.523 2.508 0.815 3.893 0.815s2.702-0.291 3.893-0.815v-1.701h-7.787z"></path>
<path fill="rgb(226, 163, 121)" d="M11.519 11.33h-3.038c0.474 1.429 0.038 2.082 0.038 2.082 0 2.409 1.481 5.026 1.481 5.026s1.481-2.611 1.481-5.026c0 0-0.436-0.653 0.038-2.082z"></path>
<path fill="rgb(204, 147, 109)" d="M9.787 17.832l0.215-1.162 0.215 1.162z"></path>
<path fill="rgb(76, 35, 12)" d="M10 11.719c-1.51 0-2.764-0.677-2.764-0.677s-2.314-1.354-1.142-3.463c0 0-0.073-1.372 0.767-1.958l3.14 0.454v5.644z"></path>
<path fill="rgb(76, 35, 12)" d="M10.007 11.719c1.51 0 2.764-0.677 2.764-0.677s2.243-1.316 1.143-3.463c-0.033-0.065 0.059-1.489-0.774-1.958l-3.132 0.454v5.644z"></path>
<path fill="rgb(244, 179, 130)" d="M13.115 7.152c0-3.611-1.395-4.437-3.115-4.437s-3.115 0.827-3.115 4.437c0 1.221 0.219 2.178 0.546 2.917 0.72 1.625 1.966 2.193 2.57 2.193s1.85-0.568 2.569-2.193c0.327-0.739 0.546-1.696 0.546-2.917z"></path>
<path fill="rgb(76, 35, 12)" d="M13.229 7.305c0-3.61-0.99-4.59-3.229-4.59s-3.229 0.979-3.229 4.59l0.369-0.308c1.79 0 1.286-1.052 2.391-2.041 0 1.672 3.698 2.35 3.698 2.35z"></path>
<path fill="rgb(230, 231, 232)" d="M13.216 4.758c-0.148-0.333-0.456-0.54-0.773-0.555-0.003-0.251-0.105-0.513-0.307-0.718-0.257-0.262-0.607-0.366-0.916-0.304-0.152-0.37-0.641-0.642-1.22-0.642s-1.068 0.271-1.22 0.642c-0.308-0.062-0.659 0.043-0.916 0.304-0.201 0.205-0.304 0.466-0.307 0.718-0.318 0.015-0.626 0.222-0.773 0.555-0.131 0.296-0.103 0.619 0.047 0.86l-0.002 0.002c0 0 0.001-0.001 0.003-0.001 0.046-0.020 0.729-0.307 1.546-0.531 0.531-0.145 1.118-0.264 1.622-0.264s1.092 0.118 1.623 0.264c0.817 0.224 1.5 0.511 1.546 0.531 0.002 0.001 0.003 0.001 0.003 0.001l-0.002-0.002c0.15-0.241 0.178-0.564 0.047-0.86z"></path>
<path fill="rgb(244, 179, 130)" d="M6.585 8.423c0.168 0.983 0.377 1.028 0.675 0.978l-0.318-2.139c-0.298 0.051-0.524 0.179-0.356 1.162z"></path>
<path fill="rgb(244, 179, 130)" d="M13.063 7.261l-0.318 2.139c0.298 0.051 0.507 0.005 0.675-0.978s-0.059-1.111-0.356-1.162z"></path>
<path fill="rgb(76, 35, 12)" d="M7.135 7.461c-0.017-0.105-0.019-0.202-0.016-0.279 0.004-0.111 0.019-0.183 0.019-0.183l-0.366 0.137c-0.001 0.056-0.001 0.112-0.001 0.169 0 0 0.040-0.013 0.109-0.037-0.003 0.001-0.007 0.002-0.010 0.003 0.050 0.086 0.113 0.217 0.174 0.411 0 0 0.143 0.107 0.091-0.221z"></path>
<path fill="rgb(76, 35, 12)" d="M12.882 7.183c0.003 0.077 0 0.173-0.016 0.278-0.052 0.328 0.091 0.221 0.091 0.221 0.061-0.194 0.123-0.325 0.173-0.411 0.063 0.022 0.099 0.033 0.099 0.033 0-0.057-0-0.114-0.001-0.17l-0.365-0.136c0 0 0.015 0.072 0.019 0.184z"></path>
<path fill="rgb(204, 120, 94)" d="M11.042 10.612c0 0-0.556 0.374-1.042 0.374s-1.042-0.374-1.042-0.374c0-0.053 0.442-0.205 0.629-0.234 0.117-0.018 0.413 0.097 0.413 0.097s0.291-0.115 0.408-0.098c0.19 0.028 0.634 0.234 0.634 0.234z"></path>
<path fill="rgb(193, 105, 82)" d="M11.042 10.612c0 0-0.556 0.526-1.042 0.526s-1.042-0.526-1.042-0.526 0.254 0.060 0.767 0.028c0.087-0.005 0.199 0.063 0.274 0.063 0.065 0 0.163-0.069 0.239-0.065 0.533 0.029 0.802-0.026 0.802-0.026z"></path>
<path fill="rgb(230, 231, 232)" d="M8.665 12.969c0 0-0.679 0.271-0.995 0.703-0.286 0.391-0.339 0.977-0.339 0.977l0.758 0.301-0.342 0.663 2.254 3.415-0.001-1.195c0 0-0.673-1.098-0.872-1.725-0.404-1.276-0.463-3.138-0.463-3.138z"></path>
<path fill="rgb(230, 231, 232)" d="M11.332 12.969c0 0 0.679 0.271 0.995 0.703 0.286 0.391 0.339 0.977 0.339 0.977l-0.758 0.301 0.342 0.663-2.254 3.415 0.001-1.195c0 0 0.673-1.098 0.872-1.725 0.404-1.276 0.463-3.138 0.463-3.138z"></path>
</svg>
