<?xml version="1.0" encoding="utf-8"?>
<!-- Generated by IcoMoon.io -->
<!DOCTYPE svg PUBLIC "-//W3C//DTD SVG 1.1//EN" "http://www.w3.org/Graphics/SVG/1.1/DTD/svg11.dtd">
<svg version="1.1" xmlns="http://www.w3.org/2000/svg" xmlns:xlink="http://www.w3.org/1999/xlink" width="20" height="20" viewBox="0 0 20 20">
<path fill="rgb(51, 77, 92)" d="M19.691 10c0-5.352-4.339-9.691-9.69-9.691s-9.691 4.338-9.691 9.691c0 5.352 4.339 9.69 9.691 9.69s9.69-4.339 9.69-9.69z"></path>
<path fill="rgb(72, 161, 175)" d="M9.987 13.333c-3.014 0-5.433 0.861-5.719 1.927-0.127 0.475-0.272 1.375-0.396 2.247 1.67 1.365 3.803 2.183 6.128 2.183s4.458-0.819 6.127-2.183c-0.124-0.872-0.268-1.772-0.396-2.247-0.286-1.066-2.731-1.927-5.745-1.927z"></path>
<path fill="rgb(232, 234, 234)" d="M12.5 13.544l-0.489-0.315-2.011-0.599-2.011 0.599-0.487 0.314c0.158-0.028 0.487 0.689 0.487 0.689h4.022c0 0 0.33-0.713 0.489-0.685l0-0.003z"></path>
<path fill="rgb(226, 163, 121)" d="M9.987 13.333c-0.51 0-1 0.033-1.468 0.079 0 0-0.844 2.272 1.481 2.272s1.481-2.278 1.481-2.278c-0.476-0.048-0.977-0.073-1.494-0.073z"></path>
<path fill="rgb(226, 163, 121)" d="M11.519 11.33h-3.038c0.474 1.429 0.038 2.082 0.038 2.082s0.657 1.097 1.47 1.097 1.492-1.097 1.492-1.097-0.436-0.653 0.038-2.082z"></path>
<path fill="rgb(226, 163, 121)" d="M8.669 11.33h-0.188c0.102 0.309 0.162 0.581 0.193 0.818 0.032-0.205 0.043-0.476-0.005-0.818z"></path>
<path fill="rgb(226, 163, 121)" d="M11.331 11.33c-0.048 0.342-0.037 0.614-0.005 0.818 0.031-0.237 0.091-0.51 0.193-0.818h-0.188z"></path>
<path fill="rgb(226, 163, 121)" d="M11.519 10.548h-3.038c0.097 0.293 0.156 0.553 0.188 0.781h2.662c0.032-0.229 0.091-0.488 0.188-0.781z"></path>
<path fill="rgb(244, 179, 130)" d="M13.115 7.152c0-3.611-1.395-4.437-3.115-4.437s-3.115 0.827-3.115 4.437c0 1.221 0.219 2.178 0.546 2.917 0.72 1.625 1.966 2.193 2.57 2.193s1.85-0.568 2.57-2.193c0.327-0.739 0.546-1.696 0.546-2.917z"></path>
<path fill="rgb(244, 179, 130)" d="M6.585 8.423c0.168 0.983 0.377 1.028 0.675 0.978l-0.318-2.139c-0.298 0.051-0.524 0.179-0.356 1.162z"></path>
<path fill="rgb(244, 179, 130)" d="M13.063 7.261l-0.318 2.139c0.298 0.051 0.507 0.005 0.675-0.978s-0.059-1.111-0.356-1.162z"></path>
<path fill="rgb(242, 222, 124)" d="M13.229 7.305c0-3.61-0.99-4.59-3.229-4.59s-3.229 0.979-3.229 4.59l0.369-0.308c1.79 0 3.317-1.052 4.422-2.041 0.469 1.295 1.667 2.349 1.667 2.349z"></path>
<path fill="rgb(204, 120, 94)" d="M11.042 10.612c0 0-0.556 0.374-1.042 0.374s-1.042-0.374-1.042-0.374c0-0.053 0.442-0.205 0.629-0.234 0.117-0.018 0.413 0.097 0.413 0.097s0.291-0.115 0.408-0.098c0.19 0.028 0.634 0.234 0.634 0.234z"></path>
<path fill="rgb(193, 105, 82)" d="M11.042 10.612c0 0-0.556 0.526-1.042 0.526s-1.042-0.526-1.042-0.526 0.254 0.060 0.767 0.028c0.087-0.005 0.199 0.063 0.274 0.063 0.065 0 0.163-0.069 0.239-0.065 0.533 0.029 0.802-0.026 0.802-0.026z"></path>
<path fill="rgb(242, 222, 124)" d="M7.135 7.461c-0.017-0.105-0.019-0.202-0.016-0.279 0.004-0.111 0.019-0.183 0.019-0.183l-0.366 0.137c-0.001 0.056-0.001 0.112-0.001 0.169 0 0 0.040-0.013 0.109-0.037-0.003 0.001-0.007 0.002-0.010 0.003 0.050 0.086 0.113 0.217 0.174 0.411 0 0 0.143 0.107 0.091-0.221z"></path>
<path fill="rgb(242, 222, 124)" d="M12.882 7.183c0.003 0.077 0 0.173-0.016 0.278-0.052 0.328 0.091 0.221 0.091 0.221 0.061-0.194 0.123-0.325 0.173-0.411 0.063 0.022 0.099 0.033 0.099 0.033 0-0.057-0-0.114-0.001-0.17l-0.365-0.221c0 0 0.015 0.157 0.019 0.269z"></path>
<path fill="rgb(175, 150, 4)" d="M13.096 9.16c0 0.054-0.044 0.098-0.098 0.098s-0.098-0.044-0.098-0.098c0-0.054 0.044-0.098 0.098-0.098s0.098 0.044 0.098 0.098z"></path>
<path fill="rgb(175, 150, 4)" d="M7.1 9.16c0 0.054-0.044 0.098-0.098 0.098s-0.098-0.044-0.098-0.098c0-0.054 0.044-0.098 0.098-0.098s0.098 0.044 0.098 0.098z"></path>
<path fill="rgb(226, 163, 121)" d="M10.3 19.685c0.569-1.194 1.178-5.232 1.178-5.232s-0.524 0.801-1.489 0.801c-0.965 0-1.467-0.801-1.467-0.801s0.6 4.037 1.179 5.232c0.099 0.003 0.199 0.005 0.299 0.005s0.2-0.002 0.3-0.005z"></path>
<path fill="rgb(49, 133, 137)" d="M10.538 15.088c0.68 0.57-0.207 1.307-0.207 1.307s-0.076-0.652-0.756-1.222c-0.559-0.468 0.059-2.080 0.325-2.104s-0.012 1.474 0.639 2.019z"></path>
<path fill="rgb(242, 248, 249)" d="M7.502 13.543v0c0.001-0 0.001-0 0.002-0-0.001 0-0.001 0-0.002 0z"></path>
<path fill="rgb(242, 248, 249)" d="M10 18.479c0 0-1.33-4.156-1.335-4.162l-0.146-0.905c-0.202 0.026-0.823 0.097-1.016 0.131-0.001 0-0.001 0-0.002 0l-0.002 0.001-1.367 1.853 3.437 4.284c0.142 0.006 0.286 0.009 0.43 0.009v-1.212z"></path>
<path fill="rgb(242, 248, 249)" d="M12.5 13.547c-0.192-0.035-0.815-0.109-1.019-0.136l-0.146 0.905c-0.006 0.006-1.335 4.162-1.335 4.162v1.212c0 0 0 0 0 0 0.144 0 0.287-0.003 0.43-0.009l3.437-4.284-1.368-1.85z"></path>
<path fill="rgb(44, 122, 130)" d="M9.989 13.196c-0.565 0-1.055-0.422-1.297-0.742-0.204 0.233-0.099 0.73-0.099 0.73s0.59 0.789 1.397 0.789c0.807 0 1.419-0.789 1.419-0.789s0.105-0.459-0.1-0.735c-0.248 0.32-0.751 0.748-1.319 0.748z"></path>
<path fill="rgb(42, 113, 117)" d="M9.39 14.704c-0.543 0.597 0.132 1.307 0.132 1.307s0.035-0.633 0.683-1.113c0.323-0.239 0.328-0.736 0.249-1.18-0.075-0.417-0.106-0.81-0.55-0.731s-0.153 0.47-0.201 0.899c-0.043 0.383-0.072 0.553-0.313 0.818z"></path>
<path fill="rgb(175, 150, 4)" d="M12.396 15.98l-0.905-0.567 0.905 0.174 0.905-0.174z"></path>
<path fill="rgb(58, 133, 137)" d="M10.651 1.745h-1.302c0 0-0.042 1.002 0.651 1.002s0.651-1.002 0.651-1.002z"></path>
<path fill="rgb(63, 145, 153)" d="M10.651 1.745c0 0-0.456 0.909-0.651 0.909s-0.651-0.909-0.651-0.909l-1.294 1.068c0 0 1.252 0.937 1.945 0.937s1.945-0.937 1.945-0.937l-1.294-1.068z"></path>
<path fill="rgb(72, 161, 175)" d="M11.945 2.813l-1.945 0.645-1.945-0.645c0 0-0.675 0.106-0.675 1.098 0 0 2.366 0.972 2.619 0.972s2.619-0.972 2.619-0.972c0-1.040-0.675-1.098-0.675-1.098z"></path>
</svg>
