<?xml version="1.0" encoding="utf-8"?>
<!-- Generator: Adobe Illustrator 16.0.0, SVG Export Plug-In . SVG Version: 6.00 Build 0)  -->
<!DOCTYPE svg PUBLIC "-//W3C//DTD SVG 1.1//EN" "http://www.w3.org/Graphics/SVG/1.1/DTD/svg11.dtd">
<svg version="1.1" id="Layer_1" xmlns="http://www.w3.org/2000/svg" xmlns:xlink="http://www.w3.org/1999/xlink" x="0px" y="0px"
	 width="20px" height="20px" viewBox="0 0 20 20" enable-background="new 0 0 20 20" xml:space="preserve">
<g>
	<path fill="#4ABC96" d="M19.69,10c0,5.351-4.338,9.69-9.69,9.69S0.31,15.353,0.31,10c0-5.352,4.338-9.69,9.69-9.69
		S19.69,4.647,19.69,10z"/>
	<path fill="#E9C29C" d="M14.497,11.178c0,2.371-1.921,4.291-4.291,4.291s-4.291-1.92-4.291-4.291c0-2.369,1.921-4.291,4.291-4.291
		S14.497,8.808,14.497,11.178z"/>
	<path fill="#343433" d="M9.507,11.815c0,0.344-0.263,0.622-0.589,0.622c-0.325,0-0.588-0.278-0.588-0.622
		c0-0.343,0.263-0.619,0.588-0.619C9.244,11.196,9.507,11.474,9.507,11.815z"/>
	<path fill="#343433" d="M12.055,11.815c0,0.344-0.263,0.622-0.589,0.622c-0.325,0-0.588-0.278-0.588-0.622
		c0-0.343,0.263-0.619,0.588-0.619C11.792,11.196,12.055,11.474,12.055,11.815z"/>
	<path fill="#FFFFFF" d="M11.886,11.58c0,0.138-0.104,0.25-0.234,0.25s-0.234-0.112-0.234-0.25c0-0.137,0.105-0.247,0.234-0.247
		C11.779,11.333,11.886,11.443,11.886,11.58z"/>
	<path fill="#FFFFFF" d="M9.332,11.58c0,0.138-0.104,0.25-0.235,0.25s-0.234-0.112-0.234-0.25c0-0.137,0.105-0.247,0.234-0.247
		C9.225,11.333,9.332,11.443,9.332,11.58z"/>
	<path fill="#B25E27" d="M14.497,11.178l-2.926-2.632c0,0-0.623,1.032-2.285,1.782c-1.603,0.725-3.372,0.85-3.372,0.85
		c0-2.369,1.921-4.291,4.291-4.291S14.496,8.808,14.497,11.178L14.497,11.178z"/>
	<path fill="#367180" d="M14.291,10.393l1.866-2.184l-2.137-2.566l-3.815-1.565L6.323,5.684L4.243,8.21l1.876,2.183
		C6.119,8.458,14.291,8.458,14.291,10.393z"/>
	<path fill="#E79E2D" d="M11.138,5.672c0.143-0.21-0.006-0.564-0.336-0.447c-0.321,0.113-0.674-0.129-0.689-0.14V5.084h-0.001l0,0
		H10.11v0.001c-0.016,0.011-0.368,0.252-0.688,0.14C9.092,5.107,8.943,5.462,9.086,5.672c0.153,0.227,0.18,0.338,0.18,0.383
		C9.265,6.174,8.822,6.429,9.168,6.993c0.129,0.21,0.214,0.18,0.696,0.228c0,0,0.217,0.079,0.246,0.222V7.378v0.064
		c0.03-0.144,0.247-0.222,0.247-0.222c0.481-0.048,0.567-0.018,0.696-0.228c0.347-0.564-0.097-0.819-0.098-0.938
		c0-0.045,0.025-0.156,0.18-0.383H11.138z"/>
	<path fill="#FFC10D" d="M10.726,6.069c-0.008-0.031-0.034-0.053-0.066-0.058L10.33,5.963l-0.146-0.297
		c-0.028-0.058-0.122-0.058-0.15,0L9.887,5.963L9.559,6.012C9.526,6.016,9.5,6.038,9.49,6.069C9.479,6.1,9.489,6.133,9.511,6.155
		l0.237,0.23L9.693,6.713C9.688,6.744,9.7,6.776,9.727,6.795c0.026,0.018,0.061,0.021,0.088,0.006l0.294-0.155l0.294,0.155
		c0.013,0.007,0.025,0.01,0.039,0.01c0.018,0,0.035-0.005,0.049-0.016c0.027-0.02,0.039-0.051,0.034-0.082l-0.056-0.327l0.237-0.23
		c0.021-0.022,0.031-0.056,0.021-0.086H10.726z"/>
	<path fill="#2D6370" d="M14.497,10.274H5.915c0-1.275,1.921-2.372,4.291-2.372S14.497,8.948,14.497,10.274z"/>
	<path fill="#FFC10D" d="M10.206,8.617c1.925,0,3.552,0.688,4.096,1.657h0.195c0-1.326-1.921-2.372-4.291-2.372
		s-4.291,1.097-4.291,2.372h0.206C6.678,9.33,8.296,8.617,10.206,8.617z"/>
</g>
</svg>
