<?xml version="1.0" encoding="utf-8"?>
<!-- Generator: Adobe Illustrator 16.0.0, SVG Export Plug-In . SVG Version: 6.00 Build 0)  -->
<!DOCTYPE svg PUBLIC "-//W3C//DTD SVG 1.1//EN" "http://www.w3.org/Graphics/SVG/1.1/DTD/svg11.dtd">
<svg version="1.1" id="Layer_1" xmlns="http://www.w3.org/2000/svg" xmlns:xlink="http://www.w3.org/1999/xlink" x="0px" y="0px"
	 width="20px" height="20px" viewBox="0 0 20 20" enable-background="new 0 0 20 20" xml:space="preserve">
<g>
	<path fill="#49A0AE" d="M19.69,10c0,5.351-4.338,9.69-9.69,9.69S0.31,15.353,0.31,10c0-5.352,4.338-9.69,9.69-9.69
		S19.69,4.647,19.69,10z"/>
	<path fill="#3A3A3A" d="M14.104,8.697c-1.757-2.152-3.494-2.7-5.141-2.732C7.214,5.93,5.3,6.507,4.02,8.502H4.016
		c0,0-0.737,0.423-1.523,0.538c-0.583,0.085-0.787,0.578-0.798,1.121c-0.014,0.705,0.418,1.106,2.606,1.5
		c0,0,12.86,0.258,13.307,0.266c0.309,0.008,0.348-0.613,0.348-0.613C18.002,9.003,15.104,8.725,14.104,8.697z"/>
	<path fill="#D7D7D7" d="M14.104,8.697c-1.757-2.152-3.494-2.7-5.141-2.732C7.248,5.93,5.374,6.489,4.095,8.393l3.367,3.318
		c2.043,0.05,4.641,0.106,6.682,0.147v-3.16C14.13,8.698,14.115,8.697,14.104,8.697L14.104,8.697z"/>
	<path fill="#818282" d="M10.398,11.55c4.321,0.009,7.524-0.011,7.524-0.011s0.002,0.048,0.015,0.185
		c0.016,0.17-0.072,0.285-0.197,0.283L4.313,11.739l-0.02-0.312C5.611,11.402,6.077,11.542,10.398,11.55L10.398,11.55z"/>
	<path fill="#202121" d="M16.686,11.458c0.019-0.877-0.679-1.604-1.558-1.622c-0.877-0.016-1.604,0.681-1.619,1.559
		c-0.019,0.877,0.679,1.604,1.556,1.62C15.941,13.032,16.668,12.335,16.686,11.458L16.686,11.458z"/>
	<path fill="#202121" d="M7.386,11.239c0,0.879-0.711,1.589-1.589,1.589c-0.877,0-1.589-0.712-1.589-1.589
		c0-0.878,0.712-1.589,1.589-1.589C6.675,9.65,7.386,10.362,7.386,11.239z"/>
	<path fill="#818282" d="M15.872,11.425c0,0.428-0.346,0.775-0.774,0.775c-0.428,0-0.774-0.348-0.774-0.775s0.347-0.774,0.774-0.774
		C15.526,10.65,15.872,10.997,15.872,11.425z"/>
	<path fill="#818282" d="M6.571,11.239c0,0.428-0.348,0.774-0.774,0.774s-0.774-0.348-0.774-0.774c0-0.428,0.348-0.774,0.774-0.774
		S6.571,10.812,6.571,11.239z"/>
	<path fill="#A3DADA" d="M9.222,8.601l4.083,0.081c-1.382-1.705-2.747-2.136-4.041-2.163L9.222,8.601z"/>
	<path fill="#A3DADA" d="M8.731,8.591L4.648,8.51c1.448-1.649,2.83-2.026,4.125-2.001L8.751,7.602L8.731,8.591z"/>
	<path fill="#EDC92C" d="M9.31,6.001H8.697v-0.51c0-0.169,0.138-0.307,0.306-0.307l0,0c0.169,0,0.306,0.138,0.306,0.307L9.31,6.001
		L9.31,6.001z"/>
	<path fill="#F37C2A" d="M9.014,6.001H8.698v-0.51c0-0.169,0.138-0.307,0.306-0.307l0,0L9.014,6.001z"/>
	<path fill="#E79E2D" d="M11.222,9.613c0.123-0.18-0.005-0.485-0.289-0.385c-0.276,0.098-0.58-0.111-0.594-0.12V9.107h-0.001h-0.001
		v0.001c-0.014,0.01-0.317,0.218-0.593,0.12C9.46,9.128,9.332,9.434,9.454,9.613c0.133,0.196,0.155,0.291,0.155,0.33
		c0,0.104-0.384,0.322-0.084,0.808c0.111,0.182,0.185,0.156,0.601,0.195c0,0,0.187,0.07,0.213,0.192l0,0
		c0.026-0.122,0.213-0.192,0.213-0.192c0.415-0.039,0.49-0.014,0.602-0.195c0.297-0.485-0.084-0.705-0.086-0.808
		C11.067,9.904,11.09,9.81,11.222,9.613L11.222,9.613z"/>
	<path fill="#FFC10D" d="M10.867,9.955c-0.009-0.026-0.032-0.045-0.06-0.05l-0.282-0.04l-0.127-0.257
		c-0.024-0.049-0.105-0.049-0.13,0l-0.127,0.257l-0.282,0.04C9.832,9.91,9.811,9.929,9.801,9.955C9.791,9.98,9.8,10.01,9.82,10.029
		l0.204,0.198L9.977,10.51c-0.005,0.028,0.006,0.055,0.028,0.071c0.021,0.016,0.052,0.018,0.076,0.006l0.254-0.134l0.252,0.134
		c0.01,0.004,0.022,0.008,0.033,0.008c0.016,0,0.03-0.006,0.043-0.014c0.021-0.016,0.034-0.043,0.029-0.071l-0.049-0.282
		l0.205-0.198C10.868,10.01,10.875,9.98,10.867,9.955L10.867,9.955z"/>
</g>
</svg>
