<?xml version="1.0" encoding="utf-8"?>
<!-- Generated by IcoMoon.io -->
<!DOCTYPE svg PUBLIC "-//W3C//DTD SVG 1.1//EN" "http://www.w3.org/Graphics/SVG/1.1/DTD/svg11.dtd">
<svg version="1.1" xmlns="http://www.w3.org/2000/svg" xmlns:xlink="http://www.w3.org/1999/xlink" width="20" height="20" viewBox="0 0 20 20">
<path fill="rgb(216, 219, 186)" d="M10 0.31c-5.352 0-9.691 4.338-9.691 9.691s4.339 9.69 9.691 9.69c5.352 0 9.69-4.339 9.69-9.69s-4.339-9.691-9.69-9.691z"></path>
<path fill="rgb(155, 120, 66)" d="M19.66 9.226l-3.704-1.627c-0.242-0.079-0.281-0.475-0.425-0.54s-0.238 0.002-0.344-0.009c-1.18-0.122-1.437-1.181-2.631-1.288l-0.85 1.512c0.643 0.58 1.953 0.48 2.604 1.052 0.109 0.096 0.115 0.314 0.266 0.353 0.209 0.053 0.408-0.017 0.531-0.108l4.571 1.944c0.009-0.171 0.014-0.343 0.014-0.516-0-0.261-0.011-0.519-0.031-0.774z"></path>
<path fill="rgb(175, 139, 90)" d="M14.681 8.031c0.288-0.396 0.354-0.572 0.638-0.864-0.404 0.093-0.44 0.561-0.638 0.864z"></path>
<path fill="rgb(165, 124, 70)" d="M9.997 2.056c-0.558 0.255-0.117 1.57-0.319 1.837l-1.382 2.809c0 0-0.513 0.242-0.9 0.628-0.649 0.649 0.312 1.73 1.231 2.197 1.137 0.578 2.707 0.748 2.914-0.037 0.092-0.348 0.037-0.759-0.057-1.169l1.498-3.298c0.315-0.4 0.998-0.483 1.1-1.1-0.001-1.589-3.14-2.626-4.085-1.868z"></path>
<path fill="rgb(181, 138, 85)" d="M9.997 2.056c-0.558 0.255-0.117 1.57-0.319 1.837l-1.382 2.809c0 0-0.513 0.242-0.9 0.628-0.649 0.649 0.312 1.73 1.231 2.197l3.848-7.383c-0.922-0.393-1.992-0.479-2.479-0.088z"></path>
<path fill="rgb(155, 120, 66)" d="M9.723 3.796l-1.426 2.906c0 0 0.96 0.18 1.71 0.535 1.156 0.548 1.479 1.085 1.479 1.085l1.498-3.298c-0.356-0.66-2.504-1.591-3.26-1.228z"></path>
<path fill="rgb(155, 120, 66)" d="M8.297 6.702l1.382-2.809c0.015-0.020 0.026-0.045 0.034-0.076l-1.416 2.884z"></path>
<path fill="rgb(165, 127, 76)" d="M9.723 3.796l-0.010 0.021c-0.009 0.030-0.020 0.056-0.034 0.076l-1.382 2.809c0 0 0.838 0.157 1.56 0.468l1.639-3.146c-0.674-0.268-1.397-0.409-1.773-0.228z"></path>
<path fill="rgb(155, 120, 66)" d="M14.537 14.143c-0.124 0.103-0.167-0.335-0.167-0.469 0-0.006-0.001-0.011-0.001-0.017 0.008 0.004 0.015 0.008 0.022 0.012l-0.288-0.643c-0.052 0.046-0.18-0.34-0.172-0.366 0.005-0.015 0.008-0.030 0.008-0.046 0-0.005-0-0.010-0.001-0.016-0.044-0.398-1.791-0.717-3.938-0.717s-3.894 0.32-3.938 0.717c-0.001 0.005-0.001 0.010-0.001 0.015 0 0.015 0.003 0.031 0.008 0.046 0.018 0.054-0.114 0.421-0.182 0.356l-0.297 0.664c0.014-0.008 0.028-0.015 0.042-0.023-0.001 0.006-0.001 0.011-0.001 0.017 0 0.148-0.052 0.574-0.185 0.454l-0.041 1.738h0.013c0 0.552 1.615 1 4.583 1s4.581-0.448 4.581-1l-0.044-1.723z"></path>
<path fill="rgb(163, 124, 77)" d="M6.062 12.598c-0.001 0.005-0.001 0.010-0.001 0.015 0 0.015 0.003 0.031 0.008 0.046 0.018 0.054-0.114 0.421-0.182 0.356l-0.297 0.664c0.014-0.008 0.028-0.015 0.042-0.023-0.001 0.006-0.001 0.011-0.001 0.017 0 0.148-0.052 0.574-0.185 0.454l-0.041 1.738h0.013c0 0.552 1.615 1 4.583 1v-4.985c-2.148 0-3.894 0.32-3.938 0.717z"></path>
<path fill="rgb(170, 129, 79)" d="M14.391 13.669c-0.007-0.004-0.015-0.008-0.022-0.012 0.001 0.006 0.001 0.011 0.001 0.017 0 0.449-1.956 0.813-4.37 0.813s-4.37-0.364-4.37-0.813c0-0.006 0.001-0.011 0.001-0.017-0.015 0.008-0.029 0.015-0.042 0.023-0.154 0.086-0.238 0.178-0.238 0.274 0 0.060 0.033 0.118 0.095 0.174 0.434 0.394 2.308 0.691 4.555 0.691 2.218 0 4.072-0.289 4.537-0.675 0.073-0.061 0.112-0.124 0.112-0.19 0-0.1-0.091-0.196-0.258-0.285z"></path>
<path fill="rgb(170, 129, 79)" d="M13.938 12.598c0.001 0.005 0.001 0.010 0.001 0.016 0 0.015-0.003 0.031-0.008 0.046-0.054 0.162-0.389 0.309-0.916 0.426-0.202 0.045-0.432 0.085-0.685 0.119-0.653 0.089-1.458 0.142-2.33 0.142s-1.678-0.053-2.33-0.142c-0.253-0.035-0.483-0.075-0.685-0.119-0.527-0.117-0.863-0.264-0.916-0.426-0.005-0.015-0.008-0.030-0.008-0.046 0-0.005 0-0.010 0.001-0.015-0.164 0.083-0.253 0.173-0.253 0.267 0 0.051 0.027 0.101 0.077 0.15 0.082 0.079 0.228 0.153 0.428 0.222 0.111 0.038 0.239 0.074 0.381 0.108 0.767 0.183 1.963 0.3 3.306 0.3s2.539-0.118 3.306-0.3c0.142-0.034 0.27-0.070 0.381-0.108 0.191-0.065 0.333-0.137 0.417-0.212 0.058-0.052 0.088-0.105 0.088-0.16 0-0.094-0.089-0.184-0.253-0.268z"></path>
</svg>
