<?xml version="1.0" encoding="utf-8"?>
<!-- Generator: Adobe Illustrator 16.0.0, SVG Export Plug-In . SVG Version: 6.00 Build 0)  -->
<!DOCTYPE svg PUBLIC "-//W3C//DTD SVG 1.1//EN" "http://www.w3.org/Graphics/SVG/1.1/DTD/svg11.dtd">
<svg version="1.1" id="Layer_1" xmlns="http://www.w3.org/2000/svg" xmlns:xlink="http://www.w3.org/1999/xlink" x="0px" y="0px"
	 width="20px" height="20px" viewBox="0 0 20 20" enable-background="new 0 0 20 20" xml:space="preserve">
<g>
	<path fill="#4ABC96" d="M19.69,10c0,5.351-4.338,9.69-9.69,9.69S0.31,15.353,0.31,10c0-5.352,4.338-9.69,9.69-9.69
		S19.69,4.647,19.69,10z"/>
	<path fill="#F1EDCD" d="M13.026,4.382C11.843,3.726,10.851,4.765,10,4.765c-1.031,0-1.844-1.041-3.025-0.383
		C5.77,5.051,4.532,6.109,6.541,8.986c0,0,0.166,5.688,1.325,6.848c0,0,0.626,0.089,0.626-1.427c0,0-0.513-4.054,1.507-4.167
		c2.019,0.112,1.506,4.167,1.506,4.167c0,1.517,0.627,1.427,0.627,1.427c1.16-1.16,1.324-6.848,1.324-6.848
		c2.009-2.877,0.772-3.936-0.433-4.604H13.026z"/>
</g>
</svg>
