<?xml version="1.0" encoding="utf-8"?>
<!-- Generator: Adobe Illustrator 16.0.0, SVG Export Plug-In . SVG Version: 6.00 Build 0)  -->
<!DOCTYPE svg PUBLIC "-//W3C//DTD SVG 1.1//EN" "http://www.w3.org/Graphics/SVG/1.1/DTD/svg11.dtd">
<svg version="1.1" id="Layer_1" xmlns="http://www.w3.org/2000/svg" xmlns:xlink="http://www.w3.org/1999/xlink" x="0px" y="0px"
	 width="20px" height="20px" viewBox="0 0 20 20" enable-background="new 0 0 20 20" xml:space="preserve">
<g>
	<path fill="#357180" d="M19.69,10c0,5.351-4.338,9.69-9.69,9.69S0.31,15.353,0.31,10c0-5.352,4.338-9.69,9.69-9.69
		S19.69,4.647,19.69,10z"/>
	<path fill="#C0C0C0" d="M10.024,6.224c1.344,0,2.553,0.558,3.415,1.454h-2.714c-0.227-0.048-0.46-0.076-0.702-0.076
		c-1.858,0-3.366,1.507-3.366,3.366s1.508,3.366,3.366,3.366c1.513,0,2.794-0.997,3.217-2.371h1.422
		c-0.456,2.142-2.359,3.748-4.638,3.748c-2.618,0-4.742-2.124-4.742-4.743S7.406,6.225,10.024,6.224L10.024,6.224z"/>
	<path fill="#A5A9B6" d="M12.049,9.931c0.185,0.211,0.468,0.266,0.632,0.122l1.463-1.28c0.164-0.145,0.147-0.432-0.038-0.644
		L9.175,2.473C8.99,2.261,8.707,2.207,8.543,2.35L7.08,3.631C6.916,3.775,6.933,4.062,7.118,4.273L12.049,9.931z"/>
	<path fill="#A5A9B6" d="M12.78,10.098c0.127,0.146,0.323,0.185,0.438,0.085l1.012-0.885c0.113-0.1,0.101-0.299-0.026-0.445
		l-4.103-4.684C9.973,4.022,9.777,3.984,9.663,4.084L8.651,4.97c-0.113,0.1-0.102,0.299,0.026,0.445L12.78,10.1V10.098z"/>
	<path fill="#A5A9B6" d="M13.784,10.442c0.037,0.042,0.108,0.041,0.16-0.004l0.454-0.398c0.052-0.045,0.062-0.115,0.026-0.158
		l-1.198-1.367c-0.038-0.043-0.108-0.041-0.16,0.003l-0.454,0.398c-0.053,0.045-0.062,0.115-0.026,0.158L13.784,10.442
		L13.784,10.442z"/>
	<path fill="#A5A9B6" d="M9.453,5.753C9.529,5.84,9.646,5.862,9.714,5.804l0.602-0.528c0.067-0.06,0.061-0.178-0.015-0.265
		L7.858,2.222c-0.077-0.087-0.193-0.109-0.261-0.05L6.995,2.698c-0.066,0.06-0.061,0.178,0.016,0.265L9.453,5.753L9.453,5.753z"/>
	<path fill="#DBDDE1" d="M10.484,6.989c0,0.619-0.503,1.122-1.122,1.122c-0.62,0-1.122-0.503-1.122-1.122s0.502-1.122,1.122-1.122
		C9.981,5.867,10.484,6.37,10.484,6.989z"/>
	<path fill="#A5A9B6" d="M9.985,6.989c0,0.345-0.28,0.622-0.623,0.622c-0.344,0-0.623-0.278-0.623-0.622
		c0-0.345,0.279-0.623,0.623-0.623C9.705,6.366,9.985,6.646,9.985,6.989z"/>
	<path fill="#A5A9B6" d="M11.556,11.771c0,0.191,0.153,0.346,0.344,0.346h4.208c0.189,0,0.344-0.154,0.344-0.346l0,0
		c0-0.19-0.154-0.344-0.344-0.344h-4.208C11.709,11.427,11.556,11.58,11.556,11.771L11.556,11.771z"/>
	<path fill="#C0C0C0" d="M5.843,16.055c0,0.32,0.26,0.581,0.581,0.581h7.101c0.321,0,0.581-0.261,0.581-0.581l0,0
		c0-0.319-0.26-0.581-0.581-0.581H6.424C6.103,15.474,5.843,15.735,5.843,16.055L5.843,16.055z"/>
	<path fill="#C0C0C0" d="M8.916,14.486h2.219c0.612,0,1.11,0.371,1.11,0.829s-0.497,0.829-1.11,0.829H8.916
		c-0.612,0-1.109-0.371-1.109-0.829S8.304,14.486,8.916,14.486z"/>
</g>
</svg>
