<?xml version="1.0" encoding="utf-8"?>
<!-- Generator: Adobe Illustrator 16.0.0, SVG Export Plug-In . SVG Version: 6.00 Build 0)  -->
<!DOCTYPE svg PUBLIC "-//W3C//DTD SVG 1.1//EN" "http://www.w3.org/Graphics/SVG/1.1/DTD/svg11.dtd">
<svg version="1.1" id="Layer_1" xmlns="http://www.w3.org/2000/svg" xmlns:xlink="http://www.w3.org/1999/xlink" x="0px" y="0px"
	 width="20px" height="20px" viewBox="0 0 20 20" enable-background="new 0 0 20 20" xml:space="preserve">
<g>
	<path fill="#F37C2A" d="M19.69,10c0,5.351-4.338,9.69-9.69,9.69S0.31,15.353,0.31,10c0-5.352,4.338-9.69,9.69-9.69
		S19.69,4.647,19.69,10z"/>
	<path fill="#C1E4DD" d="M10.284,2c-0.074-0.036-0.152-0.058-0.233-0.058H9.947c-0.08,0-0.159,0.021-0.233,0.058
		C8.937,2.067,8.497,2.549,8.497,3.133v12.553c0,0.233,0.151,0.697,0.62,0.896v0.123c0,0.785,0.372,1.421,0.83,1.421l0.104,0.002
		c0.459,0,0.83-0.638,0.83-1.423v-0.123c0.469-0.198,0.62-0.604,0.62-0.896V3.133C11.501,2.549,11.062,2.068,10.284,2L10.284,2z"/>
	<path fill="#E0F1EF" d="M10.234,2.189c-0.061-0.035-0.125-0.057-0.191-0.057H9.958c-0.067,0-0.131,0.021-0.191,0.057
		c-0.64,0.066-1.136,0.536-1.136,1.106v12.259c0,0.413,0.259,0.772,0.645,0.965v0.12c0,0.768,0.306,1.39,0.683,1.39h0.086
		c0.377,0,0.682-0.622,0.682-1.39v-0.12c0.387-0.192,0.646-0.552,0.646-0.965V3.296C11.372,2.726,10.875,2.256,10.234,2.189
		L10.234,2.189z"/>
	<path fill="#E3E1C6" d="M8.754,5.401h2.472v10.473H8.754V5.401z"/>
	<path fill="#B3DCD2" d="M10.486,8.122c0,0.084-0.074,0.15-0.165,0.15H8.745V7.971h1.576C10.413,7.971,10.486,8.039,10.486,8.122
		L10.486,8.122L10.486,8.122z"/>
	<path fill="#B3DCD2" d="M10.486,10.35c0,0.084-0.074,0.15-0.165,0.15H8.745v-0.302h1.576C10.413,10.198,10.486,10.266,10.486,10.35
		L10.486,10.35z"/>
	<path fill="#B3DCD2" d="M9.729,9.207c0,0.083-0.074,0.151-0.166,0.151H8.748V9.057h0.813C9.653,9.057,9.728,9.125,9.729,9.207
		L9.729,9.207L9.729,9.207z"/>
	<path fill="#B3DCD2" d="M10.486,5.912c0,0.082-0.074,0.151-0.165,0.151H8.745V5.762h1.576C10.412,5.762,10.486,5.829,10.486,5.912
		L10.486,5.912z"/>
	<path fill="#B3DCD2" d="M9.729,6.997c0,0.083-0.074,0.151-0.165,0.151H8.749V6.847h0.814C9.655,6.847,9.729,6.915,9.729,6.997
		L9.729,6.997z"/>
	<path fill="#B3DCD2" d="M10.486,12.543c0,0.084-0.074,0.151-0.165,0.151H8.745v-0.301h1.576
		C10.412,12.394,10.486,12.462,10.486,12.543L10.486,12.543z"/>
	<path fill="#B3DCD2" d="M9.729,11.401c0,0.083-0.074,0.15-0.165,0.15H8.749v-0.301h0.814C9.654,11.251,9.729,11.318,9.729,11.401
		L9.729,11.401z"/>
	<path fill="#B3DCD2" d="M10.486,14.794c0,0.083-0.074,0.151-0.165,0.151H8.745v-0.302h1.576
		C10.413,14.644,10.486,14.712,10.486,14.794L10.486,14.794z"/>
	<path fill="#B3DCD2" d="M9.729,13.652c0,0.083-0.074,0.15-0.165,0.15H8.749v-0.301h0.814C9.655,13.502,9.729,13.568,9.729,13.652
		L9.729,13.652z"/>
	<path fill="#CDCCCB" d="M9.845,2.133h0.309v7.108H9.845V2.133z"/>
	<path fill="#D0D1D1" d="M9.845,2.133h0.151v7.108H9.845V2.133z"/>
	<path fill="#E84849" d="M10.153,9.241H9.845v7.315l-0.449,0.211c0,0.625,0.25,1.134,0.558,1.134h0.069
		c0.308,0,0.559-0.509,0.559-1.134l-0.428-0.207V9.239V9.241z"/>
	<path fill="#DC3735" d="M10.153,9.241H9.988l-0.007,8.66h0.04c0.308,0,0.557-0.509,0.557-1.134l-0.426-0.207V9.239L10.153,9.241z"
		/>
	<path fill="#AAAAAA" d="M8.345,3.412c0-0.744,0.697-1.54,1.559-1.54h0.194c0.861,0,1.56,0.796,1.56,1.54H8.345L8.345,3.412z"/>
	<path fill="#BFBEBE" d="M8.345,3.412c0-0.744,0.697-1.54,1.559-1.54h0.09l-0.014,1.54H8.345L8.345,3.412z"/>
</g>
</svg>
