<?xml version="1.0" encoding="utf-8"?>
<!-- Generated by IcoMoon.io -->
<!DOCTYPE svg PUBLIC "-//W3C//DTD SVG 1.1//EN" "http://www.w3.org/Graphics/SVG/1.1/DTD/svg11.dtd">
<svg version="1.1" xmlns="http://www.w3.org/2000/svg" xmlns:xlink="http://www.w3.org/1999/xlink" width="20" height="20" viewBox="0 0 20 20">
<path fill="rgb(163, 213, 224)" d="M0.309 10c0-5.352 4.339-9.691 9.69-9.691s9.691 4.338 9.691 9.691c0 5.352-4.339 9.69-9.691 9.69s-9.69-4.339-9.69-9.69z"></path>
<path fill="rgb(47, 48, 48)" d="M15.333 13.323c0 1.243-2.309 2.251-5.157 2.251s-5.157-1.008-5.157-2.251c0-1.243 2.309-2.251 5.157-2.251s5.157 1.008 5.157 2.251z"></path>
<path fill="rgb(62, 65, 66)" d="M15.333 13.323c0 1.243-10.313 1.243-10.313 0s2.309-2.251 5.157-2.251 5.157 1.008 5.157 2.251z"></path>
<path fill="rgb(47, 48, 48)" d="M14.629 10.619c-0.060 1.015-2.207 1.714-4.796 1.561s-4.638-1.1-4.578-2.115c0.060-1.015 2.207-1.714 4.796-1.561s4.638 1.1 4.578 2.115z"></path>
<path fill="rgb(62, 65, 66)" d="M14.628 10.619c-0.060 1.015-9.433 0.46-9.373-0.554s2.207-1.714 4.795-1.56c2.588 0.153 4.638 1.1 4.578 2.115z"></path>
<path fill="rgb(47, 48, 48)" d="M14.22 7.474c0.035 0.902-1.77 1.704-4.032 1.792s-4.124-0.573-4.159-1.475c-0.035-0.902 1.77-1.704 4.032-1.792s4.124 0.573 4.159 1.475z"></path>
<path fill="rgb(62, 65, 66)" d="M14.221 7.474c0.035 0.902-8.157 1.22-8.192 0.318s1.771-1.704 4.033-1.792c2.262-0.088 4.124 0.573 4.159 1.475z"></path>
<path fill="rgb(47, 48, 48)" d="M12.526 5.762c-0.053 0.765-1.152 1.311-2.454 1.22s-2.314-0.785-2.261-1.55c0.053-0.765 1.152-1.311 2.454-1.22s2.314 0.785 2.261 1.55z"></path>
<path fill="rgb(62, 65, 66)" d="M12.525 5.761c-0.053 0.765-4.768 0.435-4.715-0.33s1.152-1.311 2.454-1.22c1.302 0.091 2.314 0.785 2.261 1.549z"></path>
</svg>
