<?xml version="1.0" encoding="utf-8"?>
<!-- Generator: Adobe Illustrator 16.0.0, SVG Export Plug-In . SVG Version: 6.00 Build 0)  -->
<!DOCTYPE svg PUBLIC "-//W3C//DTD SVG 1.1//EN" "http://www.w3.org/Graphics/SVG/1.1/DTD/svg11.dtd">
<svg version="1.1" id="Layer_1" xmlns="http://www.w3.org/2000/svg" xmlns:xlink="http://www.w3.org/1999/xlink" x="0px" y="0px"
	 width="20px" height="20px" viewBox="0 0 20 20" enable-background="new 0 0 20 20" xml:space="preserve">
<g>
	<path fill="#357180" d="M19.69,10c0,5.351-4.338,9.69-9.69,9.69S0.31,15.353,0.31,10c0-5.352,4.338-9.69,9.69-9.69
		S19.69,4.647,19.69,10z"/>
	<path fill="#63998F" d="M10,1.877c-0.271,0-0.701,0.216-0.701,0.797c0,0.446,0.396,0.656,0.573,0.728v1.346
		c0,0.07,0.058,0.128,0.128,0.128c0.069,0,0.128-0.058,0.128-0.128V3.312c0-0.058-0.039-0.107-0.094-0.123
		c-0.005-0.001-0.48-0.143-0.48-0.516c0-0.397,0.268-0.542,0.446-0.542c0.421,0,0.701,0.098,0.701,0.574
		c0,0.07,0.058,0.127,0.128,0.127s0.128-0.057,0.128-0.127C10.957,2.154,10.634,1.876,10,1.877L10,1.877z"/>
	<path fill="#E84849" d="M10.007,18.123c-0.092,0-0.167-0.074-0.167-0.168v-6.154c0-0.093,0.074-0.167,0.167-0.167
		c0.094,0,0.168,0.074,0.168,0.167v6.154C10.175,18.047,10.101,18.123,10.007,18.123z"/>
	<path fill="#E13F41" d="M10.007,18.123c-0.092,0-0.167-0.074-0.167-0.168v-6.154c0-0.093,0.074-0.167,0.167-0.167V18.123z"/>
	<path fill="#CAE8E4" d="M7.152,5.524v3.896c0,1.327,0.911,2.082,2.141,2.284v1.219c0,0.395,0.32,0.713,0.714,0.713
		s0.715-0.318,0.715-0.713v-1.221c1.221-0.206,2.122-0.96,2.122-2.281V5.525L7.152,5.524L7.152,5.524z"/>
	<path fill="#BCE2DD" d="M7.152,5.524v3.896c0,1.327,0.911,2.082,2.141,2.284v1.219c0,0.395,0.32,0.713,0.714,0.713V5.524H7.152z"/>
	<path fill="#87C3B7" d="M13.315,5.043c0,0.333-0.271,0.603-0.604,0.603H7.287c-0.334,0-0.604-0.27-0.604-0.603l0,0
		c0-0.333,0.27-0.603,0.604-0.603h5.425C13.045,4.44,13.315,4.709,13.315,5.043L13.315,5.043z"/>
	<path fill="#80BAAE" d="M10.007,5.646h-2.72c-0.334,0-0.604-0.27-0.604-0.603l0,0c0-0.333,0.27-0.603,0.604-0.603h2.726
		L10.007,5.646z"/>
	<path fill="#E84849" d="M7.298,8.415v0.966c0,1.298,0.915,2.019,2.134,2.186v1.148c0,0.317,0.258,0.575,0.574,0.575
		c0.317,0,0.575-0.258,0.575-0.575v-1.15c1.21-0.171,2.116-0.892,2.116-2.183V8.416L7.298,8.415L7.298,8.415z"/>
	<path fill="#E13F41" d="M7.298,8.415v0.966c0,1.298,0.915,2.019,2.134,2.186v1.148c0,0.317,0.258,0.575,0.574,0.575V8.415H7.298
		L7.298,8.415z"/>
	<path fill="#87C3B7" d="M10.778,12.784H9.203c-0.273,0-0.494,0.222-0.494,0.494c0,0.273,0.222,0.494,0.494,0.494h1.575
		c0.272,0,0.493-0.221,0.493-0.494C11.271,13.006,11.051,12.784,10.778,12.784z"/>
	<path fill="#80BAAE" d="M9.998,12.784H9.203c-0.273,0-0.494,0.222-0.494,0.494c0,0.273,0.222,0.494,0.494,0.494h0.801L9.998,12.784
		L9.998,12.784z"/>
	<path fill="#EC6666" d="M8.361,8.795c0,0.085-0.067,0.153-0.152,0.153S8.056,8.88,8.056,8.795s0.068-0.152,0.153-0.152
		S8.361,8.71,8.361,8.795z"/>
	<path fill="#EC6666" d="M9.687,9.521c0,0.119-0.098,0.217-0.216,0.217c-0.12,0-0.217-0.098-0.217-0.217s0.097-0.217,0.217-0.217
		C9.589,9.305,9.687,9.402,9.687,9.521z"/>
	<path fill="#EC6666" d="M10.031,11.447c0,0.085-0.068,0.153-0.153,0.153c-0.084,0-0.152-0.068-0.152-0.153s0.068-0.153,0.152-0.153
		C9.963,11.294,10.031,11.362,10.031,11.447z"/>
	<path fill="#EC6666" d="M11.944,9.012c0,0.119-0.098,0.217-0.217,0.217s-0.217-0.098-0.217-0.217s0.098-0.217,0.217-0.217
		S11.944,8.893,11.944,9.012z"/>
	<path fill="#EC6666" d="M8.554,10.121c0,0.077-0.063,0.141-0.141,0.141s-0.141-0.063-0.141-0.141S8.336,9.98,8.413,9.98
		S8.554,10.044,8.554,10.121z"/>
	<path fill="#EC6666" d="M10.815,10.268c0,0.119-0.098,0.217-0.217,0.217s-0.217-0.098-0.217-0.217s0.098-0.217,0.217-0.217
		S10.815,10.148,10.815,10.268z"/>
	<path fill="#EC6666" d="M10.759,8.617c0,0.119-0.098,0.216-0.217,0.216s-0.217-0.097-0.217-0.216c0-0.12,0.098-0.217,0.217-0.217
		S10.759,8.497,10.759,8.617z"/>
</g>
</svg>
