<?xml version="1.0" encoding="utf-8"?>
<!-- Generator: Adobe Illustrator 16.0.0, SVG Export Plug-In . SVG Version: 6.00 Build 0)  -->
<!DOCTYPE svg PUBLIC "-//W3C//DTD SVG 1.1//EN" "http://www.w3.org/Graphics/SVG/1.1/DTD/svg11.dtd">
<svg version="1.1" id="Layer_1" xmlns="http://www.w3.org/2000/svg" xmlns:xlink="http://www.w3.org/1999/xlink" x="0px" y="0px"
	 width="20px" height="20px" viewBox="0 0 20 20" enable-background="new 0 0 20 20" xml:space="preserve">
<g>
	<path fill="#357180" d="M19.69,10c0,5.351-4.338,9.69-9.69,9.69S0.31,15.353,0.31,10c0-5.352,4.338-9.69,9.69-9.69
		S19.69,4.647,19.69,10z"/>
	<path fill="#4ABC96" d="M11.892,8.042c-1.806-1.806-4.732-1.806-6.538,0c-1.807,1.806-1.807,4.732,0,6.538
		c1.805,1.805,4.731,1.805,6.538,0C13.696,12.774,13.696,9.848,11.892,8.042z M10.648,13.337c-1.12,1.119-2.934,1.119-4.053,0
		c-1.119-1.118-1.119-2.934,0-4.052c1.119-1.119,2.933-1.119,4.053,0C11.767,10.403,11.767,12.219,10.648,13.337z"/>
	<path fill="#4ABC96" d="M10.646,9.259c0.682,0.682,1.454-0.446,1.882-0.873c0.408-0.408,1.425-1.425,1.834-1.834
		c0.037,0.429,0.112,2.083,0.175,2.506c0.099,0.672,0.933,0.923,1.239,0.332c0.031-0.042,0.052-0.096,0.061-0.157
		c0.014-0.057,0.015-0.109,0.003-0.157c-0.012-0.554-0.055-2.337-0.067-2.89c-0.01-0.541,0.063-1.128-0.135-1.635
		c-0.007-0.027-0.018-0.057-0.032-0.087c-0.039-0.079-0.14-0.152-0.234-0.175c-0.468-0.177-0.984-0.118-1.485-0.127
		c-0.621-0.013-2.462-0.028-3.083-0.04c-0.718-0.015-0.743,0.907-0.219,1.215c0.262,0.153,1.902,0.14,2.193,0.169
		c0.187,0.019,0.373,0.037,0.561,0.056c-0.406,0.406-1.419,1.42-1.826,1.825c-0.426,0.427-1.546,1.193-0.864,1.874L10.646,9.259z"/>
	<path fill="#3BAE85" d="M15.369,4.289c-0.469-0.177-0.985-0.118-1.485-0.127c-0.621-0.013-2.463-0.028-3.082-0.04
		c-0.719-0.015-0.744,0.907-0.221,1.215c0.262,0.153,1.903,0.14,2.193,0.169c0.188,0.019,0.374,0.037,0.562,0.056
		c-0.407,0.406-1.42,1.42-1.826,1.825c-0.053,0.054-0.117,0.112-0.188,0.175C9.517,6.257,6.98,6.418,5.354,8.044
		c-1.803,1.803-1.806,4.723-0.01,6.528l1.243-1.242c-1.11-1.12-1.107-2.928,0.008-4.042c1.114-1.115,2.923-1.119,4.041-0.009
		l4.897-4.896c-0.047-0.043-0.105-0.077-0.165-0.091L15.369,4.289z"/>
</g>
</svg>
