<?xml version="1.0" encoding="utf-8"?>
<!-- Generator: Adobe Illustrator 16.0.0, SVG Export Plug-In . SVG Version: 6.00 Build 0)  -->
<!DOCTYPE svg PUBLIC "-//W3C//DTD SVG 1.1//EN" "http://www.w3.org/Graphics/SVG/1.1/DTD/svg11.dtd">
<svg version="1.1" id="Layer_1" xmlns="http://www.w3.org/2000/svg" xmlns:xlink="http://www.w3.org/1999/xlink" x="0px" y="0px"
	 width="20px" height="20px" viewBox="0 0 20 20" enable-background="new 0 0 20 20" xml:space="preserve">
<g>
	<path fill="#49A0AE" d="M19.69,10c0,5.351-4.338,9.69-9.69,9.69S0.31,15.353,0.31,10c0-5.352,4.338-9.69,9.69-9.69
		S19.69,4.647,19.69,10z"/>
	<path fill="#FFFFFF" d="M4.79,4.797l9.021-1.44l1.991,12.471L6.78,17.267L4.79,4.797z"/>
	<path fill="#F1EDCD" d="M11.774,6.698c0,1.126-0.913,2.04-2.039,2.04c-1.127,0-2.041-0.914-2.041-2.04s0.914-2.04,2.041-2.04
		C10.861,4.658,11.774,5.572,11.774,6.698z"/>
	<path fill="#D62127" d="M10.352,7.851c0.021,0.131-0.065,0.256-0.196,0.277L9.814,8.187C9.684,8.209,9.56,8.121,9.537,7.991
		L9.118,5.547C9.097,5.416,9.185,5.291,9.314,5.27l0.342-0.059c0.131-0.022,0.255,0.065,0.277,0.195L10.352,7.851L10.352,7.851z"/>
	<path fill="#D62127" d="M8.582,7.314C8.451,7.337,8.327,7.25,8.305,7.119L8.246,6.777C8.225,6.646,8.312,6.523,8.442,6.501
		l2.445-0.42c0.131-0.021,0.254,0.066,0.275,0.196l0.06,0.341c0.022,0.131-0.065,0.256-0.196,0.278L8.582,7.314z"/>
	<path fill="#E84849" d="M6.673,10.908l7.356-1.175l0.075,0.465l-7.357,1.176L6.673,10.908z"/>
	<path fill="#E84849" d="M6.886,12.071l7.356-1.176l0.075,0.466L6.96,12.536L6.886,12.071z"/>
	<path fill="#E84849" d="M7.08,13.307l7.357-1.174l0.075,0.466l-7.357,1.174L7.08,13.307z"/>
	<path fill="#E7474A" d="M14.666,8.681l0.024,0.15l-9.021,1.445l-0.024-0.15L14.666,8.681z"/>
</g>
</svg>
