<?xml version="1.0" encoding="utf-8"?>
<!-- Generator: Adobe Illustrator 16.0.0, SVG Export Plug-In . SVG Version: 6.00 Build 0)  -->
<!DOCTYPE svg PUBLIC "-//W3C//DTD SVG 1.1//EN" "http://www.w3.org/Graphics/SVG/1.1/DTD/svg11.dtd">
<svg version="1.1" id="Layer_1" xmlns="http://www.w3.org/2000/svg" xmlns:xlink="http://www.w3.org/1999/xlink" x="0px" y="0px"
	 width="20px" height="20px" viewBox="0 0 20 20" enable-background="new 0 0 20 20" xml:space="preserve">
<g>
	<path fill="#4ABC96" d="M19.69,10c0,5.351-4.338,9.69-9.69,9.69S0.31,15.353,0.31,10c0-5.352,4.338-9.69,9.69-9.69
		S19.69,4.647,19.69,10z"/>
	<path fill="#F1EDCD" d="M8.39,5.211h3.16v0.513H8.39V5.211z"/>
	<path fill="#F1EDCD" d="M7.583,6.464h4.773v0.513H7.583V6.464z"/>
	<path fill="#F1EDCD" d="M7.179,7.773h5.58v0.512h-5.58V7.773z"/>
	<path fill="#F1EDCD" d="M7.179,9.141h5.58v0.513h-5.58V9.141z"/>
	<path fill="#F1EDCD" d="M7.396,10.45h5.145v0.512H7.396V10.45z"/>
	<path fill="#F1EDCD" d="M8.021,11.703h3.896v0.513H8.021V11.703z"/>
	<path fill="#F1EDCD" d="M8.929,12.728h2.081v0.513H8.929V12.728z"/>
	<path fill="#F1EDCD" d="M8.717,15.157h2.506v0.514H8.717V15.157z"/>
	<path fill="#F1EDCD" d="M7.986,16.372h3.967v0.513H7.986V16.372z"/>
	<path fill="#F1EDCD" d="M8.564,3.009h2.914v0.513H8.564V3.009z"/>
	<path fill="#49A0AE" d="M12.39,17.54h-0.513c0-0.989-1.001-2.037-2.061-3.146c-1.481-1.553-3.161-3.311-3.004-5.642
		c0.113-1.678,0.94-3.205,2.395-4.415c1.09-0.906,2.135-1.314,2.178-1.331l0.093,0.24l0.092,0.238
		c-0.011,0.004-1.021,0.4-2.047,1.257C8.167,5.873,7.427,7.234,7.323,8.785c-0.142,2.106,1.455,3.777,2.864,5.253
		c1.132,1.186,2.202,2.306,2.202,3.5V17.54z"/>
	<path fill="#E84849" d="M8.056,17.54H7.543c0-1.194,1.069-2.314,2.202-3.5c1.41-1.476,3.006-3.148,2.864-5.253
		c-0.25-3.723-4.206-5.286-4.246-5.302l0.185-0.479c0.044,0.017,1.089,0.425,2.178,1.331c1.455,1.21,2.283,2.737,2.395,4.415
		c0.156,2.331-1.523,4.089-3.004,5.642C9.057,15.504,8.056,16.552,8.056,17.54L8.056,17.54z"/>
</g>
</svg>
