<?xml version="1.0" encoding="utf-8"?>
<!-- Generator: Adobe Illustrator 16.0.0, SVG Export Plug-In . SVG Version: 6.00 Build 0)  -->
<!DOCTYPE svg PUBLIC "-//W3C//DTD SVG 1.1//EN" "http://www.w3.org/Graphics/SVG/1.1/DTD/svg11.dtd">
<svg version="1.1" id="Layer_1" xmlns="http://www.w3.org/2000/svg" xmlns:xlink="http://www.w3.org/1999/xlink" x="0px" y="0px"
	 width="20px" height="20px" viewBox="0 0 20 20" enable-background="new 0 0 20 20" xml:space="preserve">
<g>
	<path fill="#EDC92C" d="M0.31,10c0-5.353,4.338-9.69,9.69-9.69s9.69,4.338,9.69,9.69c0,5.351-4.338,9.69-9.69,9.69
		S0.31,15.351,0.31,10z"/>
	<path fill="#E9B82B" d="M0.31,10H19.69c0,5.351-4.338,9.69-9.69,9.69S0.31,15.351,0.31,10z"/>
	<path fill="#ED3432" d="M16.567,8.418c0-1.881-1.396-3.123-3.122-3.123c-1.09,0-2.057,0.548-2.621,1.382l-0.445,0.566L9.977,6.729
		C9.421,5.867,8.452,5.295,7.352,5.295c-1.724,0-3.123,1.19-3.123,3.123c0,2.896,5.694,7.448,5.694,7.448
		c0.242,0.242,0.633,0.242,0.874,0C10.797,15.866,16.567,11.239,16.567,8.418z"/>
	<path fill="#D62127" d="M4.705,10.088c1.37,2.704,5.218,5.78,5.218,5.78c0.242,0.241,0.633,0.241,0.874,0
		c0,0,3.81-3.055,5.238-5.715l-4.362-0.03L10.87,9.032l-1.034,1.084l-0.841-0.97L7.49,11.697l-0.637-1.596L5.896,7.616L4.94,10.094
		L4.705,10.088L4.705,10.088z"/>
</g>
</svg>
