<?xml version="1.0" encoding="utf-8"?>
<!-- Generator: Adobe Illustrator 16.0.0, SVG Export Plug-In . SVG Version: 6.00 Build 0)  -->
<!DOCTYPE svg PUBLIC "-//W3C//DTD SVG 1.1//EN" "http://www.w3.org/Graphics/SVG/1.1/DTD/svg11.dtd">
<svg version="1.1" id="Layer_1" xmlns="http://www.w3.org/2000/svg" xmlns:xlink="http://www.w3.org/1999/xlink" x="0px" y="0px"
	 width="20px" height="20px" viewBox="0 0 20 20" enable-background="new 0 0 20 20" xml:space="preserve">
<g>
	<path fill="#49A0AE" d="M19.69,10c0,5.351-4.338,9.69-9.69,9.69S0.31,15.353,0.31,10c0-5.352,4.338-9.69,9.69-9.69
		S19.69,4.647,19.69,10z"/>
	<path fill="#E4AB6E" d="M7.087,16.7c-0.487,0.487-1.276,0.487-1.764,0l-2.022-2.023c-0.488-0.486-0.487-1.276,0-1.765l9.612-9.611
		c0.487-0.488,1.277-0.488,1.765,0L16.7,5.323c0.488,0.487,0.487,1.276,0,1.764L7.087,16.7L7.087,16.7z"/>
	<path fill="#DDA166" d="M7.087,16.7c-0.487,0.487-1.276,0.487-1.764,0l-1.157-1.157L15.638,4.251L16.7,5.322
		c0.487,0.487,0.486,1.276,0,1.764L7.087,16.7z"/>
	<path fill="#EBB677" d="M10.19,13.776c-0.086,0.086-0.225,0.086-0.311,0l-3.619-3.621c-0.086-0.086-0.086-0.225,0-0.31l3.621-3.621
		c0.085-0.085,0.225-0.085,0.311,0l3.621,3.621c0.085,0.086,0.085,0.226,0,0.31L10.19,13.776L10.19,13.776z"/>
	<path fill="#E4B076" d="M10.185,13.768c-0.085,0.086-0.224,0.086-0.31,0l-1.938-1.936l3.957-3.908l1.912,1.912
		c0.086,0.086,0.086,0.226,0,0.311L10.185,13.768L10.185,13.768z"/>
	<path fill="#FBF0E6" d="M10.393,8.175c0,0.229-0.187,0.416-0.416,0.416S9.562,8.404,9.562,8.175c0-0.229,0.186-0.415,0.415-0.415
		S10.393,7.946,10.393,8.175z"/>
	<path fill="#FBF0E6" d="M12.264,10.046c0,0.229-0.187,0.415-0.415,0.415c-0.23,0-0.416-0.186-0.416-0.415s0.186-0.416,0.416-0.416
		C12.077,9.63,12.264,9.816,12.264,10.046z"/>
	<path fill="#FBF0E6" d="M8.59,9.979c0,0.229-0.187,0.416-0.416,0.416c-0.229,0-0.415-0.187-0.415-0.416s0.187-0.415,0.415-0.415
		C8.403,9.563,8.59,9.749,8.59,9.979z"/>
	<path fill="#FBF0E6" d="M10.459,11.849c0,0.229-0.187,0.416-0.415,0.416c-0.229,0-0.416-0.188-0.416-0.416
		c0-0.229,0.187-0.415,0.416-0.415C10.272,11.434,10.459,11.619,10.459,11.849z"/>
</g>
</svg>
