<?xml version="1.0" encoding="utf-8"?>
<!-- Generator: Adobe Illustrator 16.0.0, SVG Export Plug-In . SVG Version: 6.00 Build 0)  -->
<!DOCTYPE svg PUBLIC "-//W3C//DTD SVG 1.1//EN" "http://www.w3.org/Graphics/SVG/1.1/DTD/svg11.dtd">
<svg version="1.1" id="Layer_1" xmlns="http://www.w3.org/2000/svg" xmlns:xlink="http://www.w3.org/1999/xlink" x="0px" y="0px"
	 width="20px" height="20px" viewBox="0 0 20 20" enable-background="new 0 0 20 20" xml:space="preserve">
<g>
	<path fill="#EDC92C" d="M19.69,10c0,5.351-4.338,9.69-9.69,9.69S0.31,15.353,0.31,10c0-5.352,4.338-9.69,9.69-9.69
		S19.69,4.647,19.69,10z"/>
	<path fill="#DCD5B1" d="M11.611,8.7c-0.081-0.002-0.162-0.003-0.243-0.003c-0.137,0-0.271,0.003-0.404,0.009
		C9.37,8.767,7.579,9.238,6.918,9.82c0,0,0.006,0.701,0.006,0.989c0,0.978,1.774,1.778,4.04,1.864
		c0.133,0.007,0.268,0.009,0.404,0.009c0.081,0,0.162,0,0.243-0.002c2.341-0.055,4.2-0.871,4.2-1.871
		c0-0.221-0.004-1.075-0.004-1.075C15.218,9.042,13.431,8.741,11.611,8.7L11.611,8.7z"/>
	<path fill="#F1EDCD" d="M6.924,9.923c0,0.977,1.774,1.778,4.04,1.865V8.06c-2.265,0.086-4.04,0.889-4.04,1.865V9.923z"/>
	<path fill="#E6E2C5" d="M15.812,9.923c0-0.999-1.859-1.815-4.2-1.869v3.738C13.952,11.739,15.812,10.922,15.812,9.923L15.812,9.923
		z"/>
	<path fill="#E7E2C3" d="M11.368,8.052c-0.137,0-0.271,0.003-0.404,0.008v3.729c0.133,0.005,0.268,0.008,0.404,0.008
		c0.081,0,0.162-0.001,0.243-0.003V8.055C11.53,8.054,11.449,8.052,11.368,8.052z"/>
	<path fill="#DCD5B1" d="M11.368,8.052v3.744c0.081,0,0.162-0.001,0.243-0.003V8.055C11.53,8.054,11.449,8.052,11.368,8.052z"/>
	<path fill="#E4DFBC" d="M7.256,15.089c1.015,0,1.836-0.821,1.836-1.836v-6.91c0-1.014-0.821-1.836-1.836-1.836
		c-1.014,0-1.836,0.822-1.836,1.836v6.91C5.42,14.268,6.242,15.089,7.256,15.089z"/>
	<path fill="#ED3432" d="M7.256,15.089c1.015,0,1.836-0.821,1.836-1.836V9.76H5.42v3.493C5.42,14.268,6.242,15.089,7.256,15.089z"/>
	<path fill="#F1EDCD" d="M9.092,9.76V6.343c0-1.014-0.821-1.836-1.836-1.836V9.76H9.092L9.092,9.76z"/>
	<path fill="#EE4646" d="M7.256,15.089c1.015,0,1.836-0.821,1.836-1.836V9.76H7.256V15.089z"/>
</g>
</svg>
