<?xml version="1.0" encoding="utf-8"?>
<!-- Generator: Adobe Illustrator 16.0.0, SVG Export Plug-In . SVG Version: 6.00 Build 0)  -->
<!DOCTYPE svg PUBLIC "-//W3C//DTD SVG 1.1//EN" "http://www.w3.org/Graphics/SVG/1.1/DTD/svg11.dtd">
<svg version="1.1" id="Layer_1" xmlns="http://www.w3.org/2000/svg" xmlns:xlink="http://www.w3.org/1999/xlink" x="0px" y="0px"
	 width="20px" height="20px" viewBox="0 0 20 20" enable-background="new 0 0 20 20" xml:space="preserve">
<g>
	<path fill="#357180" d="M19.69,10c0,5.351-4.338,9.69-9.69,9.69c-5.352,0-9.69-4.338-9.69-9.69c0-5.351,4.338-9.69,9.69-9.69
		C15.353,0.31,19.69,4.648,19.69,10z"/>
	<path fill="#E27660" d="M8.395,14.089c-0.16-0.159-0.772-0.787-0.762-0.776c0.002-0.002,1.175-1.159,1.175-1.159
		s0.661-0.584,0.911-1.146c0.02-0.045-0.769-0.775-0.769-0.775c-0.565,0.25-1.158,0.919-1.158,0.919
		c-0.389,0.388-1.168,1.152-1.168,1.152C6.333,12.013,6.06,11.74,5.891,11.57c-0.426-0.427-0.887-1.239-1.566-0.559
		c-0.682,0.683,0.138,1.147,0.565,1.574c0.16,0.16,0.718,0.733,0.718,0.733c-0.298,0.299-0.085,0.085-0.257,0.257
		c-0.426,0.426-1.541,1.188-0.86,1.868c0.683,0.683,1.45-0.439,1.876-0.866c0.171-0.171-0.046,0.046,0.25-0.25
		c0.308,0.309,0.6,0.601,0.776,0.778c0.426,0.426,0.886,1.237,1.566,0.558C9.641,14.982,8.821,14.517,8.395,14.089L8.395,14.089z"/>
	<path fill="#E27660" d="M14.714,5.209c-1.805-1.805-4.732-1.805-6.538,0c-1.805,1.806-1.804,4.732,0,6.538
		c1.806,1.807,4.731,1.807,6.538,0C16.52,9.941,16.52,7.016,14.714,5.209z M13.472,10.504c-1.118,1.118-2.932,1.118-4.052,0
		c-1.119-1.119-1.119-2.933,0-4.053c1.12-1.119,2.934-1.119,4.052,0C14.591,7.571,14.591,9.385,13.472,10.504z"/>
	<path fill="#E27F76" d="M6.369,14.576c0.17-0.17-0.047,0.047,0.249-0.249c0.308,0.308,0.6,0.601,0.776,0.778
		c0.426,0.426,0.886,1.238,1.566,0.558c0.682-0.682-0.138-1.146-0.565-1.574c-0.16-0.159-0.772-0.787-0.762-0.776
		c0.002-0.002,0.85-0.839,1.102-1.089c1.807,1.311,4.35,1.152,5.978-0.478c1.805-1.805,1.805-4.731,0-6.538
		c-0.001-0.001-0.002-0.002-0.004-0.003l-1.243,1.242c0.002,0.001,0.004,0.002,0.004,0.003c1.119,1.119,1.119,2.934,0,4.052
		c-1.118,1.119-2.932,1.119-4.052,0c-0.001-0.001-0.002-0.002-0.003-0.003L4.48,15.433c0.003,0.004,0.006,0.006,0.009,0.011
		c0.683,0.682,1.45-0.44,1.876-0.867H6.369z"/>
</g>
</svg>
