<?xml version="1.0" encoding="utf-8"?>
<!-- Generator: Adobe Illustrator 16.0.0, SVG Export Plug-In . SVG Version: 6.00 Build 0)  -->
<!DOCTYPE svg PUBLIC "-//W3C//DTD SVG 1.1//EN" "http://www.w3.org/Graphics/SVG/1.1/DTD/svg11.dtd">
<svg version="1.1" id="Layer_1" xmlns="http://www.w3.org/2000/svg" xmlns:xlink="http://www.w3.org/1999/xlink" x="0px" y="0px"
	 width="20px" height="20px" viewBox="0 0 20 20" enable-background="new 0 0 20 20" xml:space="preserve">
<g>
	<path fill="#4ABC96" d="M0.31,10c0-5.353,4.338-9.69,9.69-9.69s9.69,4.338,9.69,9.69c0,5.351-4.338,9.69-9.69,9.69
		S0.31,15.351,0.31,10z"/>
	<path fill="#8F8376" d="M15.526,7.491h-1.216V4.646c0-0.225-0.183-0.405-0.405-0.405h-7.81c-0.225,0-0.406,0.181-0.406,0.405v2.845
		H4.474c-0.224,0-0.405,0.182-0.405,0.405v7.81c0,0.224,0.182,0.405,0.405,0.405h11.055c0.224,0,0.405-0.182,0.405-0.405v-7.81
		c0-0.224-0.182-0.405-0.405-0.405H15.526z"/>
	<path fill="#938980" d="M9.963,4.24H6.096c-0.225,0-0.406,0.181-0.406,0.405V7.49H4.474c-0.224,0-0.405,0.182-0.405,0.405v7.81
		c0,0.224,0.182,0.405,0.405,0.405h5.49L9.963,4.24L9.963,4.24z"/>
	<path fill="#82786D" d="M7.97,16.442c-0.081,0-0.148-0.067-0.148-0.15v-2.865c0-0.084,0.067-0.15,0.148-0.15h4.059
		c0.082,0,0.149,0.066,0.149,0.15v2.865c0,0.083-0.067,0.15-0.149,0.15H7.97z"/>
	<path fill="#847D77" d="M7.97,16.442c-0.081,0-0.148-0.067-0.148-0.15v-2.865c0-0.084,0.067-0.15,0.148-0.15h1.992v3.166H7.97z"/>
	<path fill="#F1EDCD" d="M7.431,9.979c0,0.092-0.073,0.165-0.164,0.165h-1.75c-0.092,0-0.164-0.073-0.164-0.165V9.054
		c0-0.092,0.072-0.166,0.164-0.166h1.75c0.091,0,0.164,0.073,0.164,0.166V9.979z"/>
	<path fill="#F1EDCD" d="M11.048,9.979c0,0.092-0.072,0.165-0.165,0.165h-1.75c-0.091,0-0.164-0.073-0.164-0.165V9.054
		c0-0.092,0.073-0.166,0.164-0.166h1.75c0.093,0,0.165,0.073,0.165,0.166V9.979z"/>
	<path fill="#F1EDCD" d="M14.529,9.979c0,0.092-0.073,0.165-0.164,0.165h-1.75c-0.091,0-0.165-0.073-0.165-0.165V9.054
		c0-0.092,0.074-0.166,0.165-0.166h1.75c0.091,0,0.164,0.073,0.164,0.166V9.979z"/>
	<path fill="#F1EDCD" d="M7.431,12.366c0,0.091-0.073,0.165-0.164,0.165h-1.75c-0.092,0-0.164-0.074-0.164-0.165V11.44
		c0-0.091,0.072-0.165,0.164-0.165h1.75c0.091,0,0.164,0.074,0.164,0.165V12.366z"/>
	<path fill="#F1EDCD" d="M11.048,12.366c0,0.091-0.072,0.165-0.165,0.165h-1.75c-0.091,0-0.164-0.074-0.164-0.165V11.44
		c0-0.091,0.073-0.165,0.164-0.165h1.75c0.093,0,0.165,0.074,0.165,0.165V12.366z"/>
	<path fill="#F1EDCD" d="M14.529,12.366c0,0.091-0.073,0.165-0.164,0.165h-1.75c-0.091,0-0.165-0.074-0.165-0.165V11.44
		c0-0.091,0.074-0.165,0.165-0.165h1.75c0.091,0,0.164,0.074,0.164,0.165V12.366z"/>
	<path fill="#F1EDCD" d="M12.045,4.543c0,1.136-0.922,2.056-2.057,2.056S7.933,5.678,7.933,4.543c0-1.136,0.921-2.056,2.056-2.056
		S12.045,3.408,12.045,4.543z"/>
	<path fill="#D62127" d="M10.405,5.793c0,0.134-0.108,0.241-0.242,0.241h-0.35c-0.134,0-0.242-0.108-0.242-0.241v-2.5
		c0-0.134,0.109-0.242,0.242-0.242h0.35c0.134,0,0.242,0.108,0.242,0.242V5.793z"/>
	<path fill="#D62127" d="M8.738,4.96c-0.134,0-0.242-0.108-0.242-0.242v-0.35c0-0.134,0.108-0.242,0.242-0.242h2.501
		c0.133,0,0.241,0.109,0.241,0.242v0.35c0,0.134-0.108,0.242-0.241,0.242H8.738z"/>
	<path fill="#F1EDCD" d="M9.081,16.442v-2.365c0-0.127,0.103-0.23,0.229-0.23h1.287c0.127,0,0.23,0.104,0.23,0.23v2.365H9.081z"/>
	<path fill="#E9E3C4" d="M9.081,16.442v-2.365c0-0.127,0.103-0.23,0.229-0.23h0.655l0.006,2.594h-0.89V16.442z"/>
</g>
</svg>
