<?xml version="1.0" encoding="utf-8"?>
<!-- Generator: Adobe Illustrator 16.0.0, SVG Export Plug-In . SVG Version: 6.00 Build 0)  -->
<!DOCTYPE svg PUBLIC "-//W3C//DTD SVG 1.1//EN" "http://www.w3.org/Graphics/SVG/1.1/DTD/svg11.dtd">
<svg version="1.1" id="Layer_1" xmlns="http://www.w3.org/2000/svg" xmlns:xlink="http://www.w3.org/1999/xlink" x="0px" y="0px"
	 width="20px" height="20px" viewBox="0 0 20 20" enable-background="new 0 0 20 20" xml:space="preserve">
<g>
	<path fill="#4ABC96" d="M19.69,10c0,5.351-4.338,9.69-9.69,9.69S0.31,15.353,0.31,10c0-5.352,4.338-9.69,9.69-9.69
		S19.69,4.647,19.69,10z"/>
	<path fill="#8D734F" d="M10.387,8.478c0.464,0.463,0.464,1.215,0,1.677l0,0c-0.462,0.463-1.214,0.463-1.677,0l-3.7-4.341
		c-0.463-0.463-0.36-0.824-0.073-1.109l0,0c0.286-0.286,0.647-0.39,1.109,0.073L10.387,8.478z"/>
	<path fill="#C2A681" d="M15.668,8.211c0-0.104-0.001-0.203-0.001-0.299H4.309c0,2.379-0.204,7.569,5.68,7.569
		c2.665,0,4.08-1.065,4.833-2.451C15.684,11.232,15.743,9.035,15.668,8.211z"/>
	<path fill="#C2A681" d="M5.057,15.54c0-1.218,2.122-1.995,4.992-1.995c2.32,0,4.87,0.898,4.87,1.995H5.057L5.057,15.54z"/>
	<path fill="#65A844" d="M11.771,11.186c-0.809,0.095-1.283,1.137-1.423,1.497c-0.187-0.36-0.085-1.334,0.58-2
		c0.729-0.727,2.112-0.55,2.112-0.55s0.172,1.38-0.555,2.108c-0.568,0.568-1.311,0.775-1.77,0.679
		C10.909,11.854,11.771,11.187,11.771,11.186L11.771,11.186z"/>
	<path fill="#608C3D" d="M10.348,12.683c0.14-0.36,0.614-1.402,1.423-1.497c0,0-0.861,0.669-1.055,1.733
		c-0.129-0.028-0.235-0.079-0.31-0.152C10.384,12.744,10.364,12.715,10.348,12.683z"/>
	<path fill="#65A844" d="M8.667,10.765c1.031,0.121,1.637,1.45,1.815,1.909c0.237-0.459,0.106-1.7-0.741-2.551
		C8.813,9.195,7.048,9.421,7.048,9.421s-0.22,1.76,0.708,2.687c0.724,0.726,1.672,0.992,2.258,0.867
		C9.768,11.617,8.668,10.765,8.667,10.765L8.667,10.765z"/>
	<path fill="#608C3D" d="M10.482,12.674c-0.179-0.459-0.783-1.788-1.815-1.909c0,0,1.1,0.853,1.347,2.211
		c0.163-0.033,0.299-0.1,0.395-0.194C10.437,12.753,10.461,12.717,10.482,12.674L10.482,12.674z"/>
</g>
</svg>
