<?xml version="1.0" encoding="utf-8"?>
<!-- Generator: Adobe Illustrator 16.0.0, SVG Export Plug-In . SVG Version: 6.00 Build 0)  -->
<!DOCTYPE svg PUBLIC "-//W3C//DTD SVG 1.1//EN" "http://www.w3.org/Graphics/SVG/1.1/DTD/svg11.dtd">
<svg version="1.1" id="Layer_1" xmlns="http://www.w3.org/2000/svg" xmlns:xlink="http://www.w3.org/1999/xlink" x="0px" y="0px"
	 width="20px" height="20px" viewBox="0 0 20 20" enable-background="new 0 0 20 20" xml:space="preserve">
<g>
	<path fill="#49A0AE" d="M19.69,10c0,5.351-4.338,9.69-9.69,9.69S0.31,15.353,0.31,10c0-5.352,4.338-9.69,9.69-9.69
		S19.69,4.647,19.69,10z"/>
	<path fill="#F7F2F3" d="M15.149,11.642c0,0.495-1.036,0.896-1.529,0.896l-3.135-0.013v-4.74c0-0.493,0.357-0.884,0.971-0.896
		s1.481,0.55,1.915,0.945C14.569,8.931,15.15,11.642,15.149,11.642L15.149,11.642z"/>
	<path fill="#9DDAEC" d="M13.892,9.428l-2.793,0.007V7.853c0-0.402,0.246-0.57,0.557-0.512s1.049,0.432,1.407,0.812
		C13.726,8.854,13.892,9.428,13.892,9.428z"/>
	<path fill="#F7F2F3" d="M11.114,12.733H3.844c-0.657,0-0.76-0.531-0.76-1.188V7.005c0-0.657,0.532-0.875,1.188-0.875h5.65
		c0.658,0,1.189,0.218,1.189,0.875v5.73L11.114,12.733z"/>
	<path fill="#EDC92C" d="M9.926,6.12H9.312V5.61c0-0.169,0.138-0.307,0.306-0.307l0,0c0.169,0,0.307,0.138,0.307,0.307L9.926,6.12
		L9.926,6.12z"/>
	<path fill="#F37C2A" d="M9.629,6.12H9.312V5.61c0-0.169,0.138-0.307,0.306-0.307l0,0L9.629,6.12L9.629,6.12z"/>
	<path fill="#F7F2F3" d="M17.353,12.034c0,0.387-0.313,0.699-0.699,0.699h-4.053c-0.386,0-0.699-0.312-0.699-0.699v-1.873
		c0-0.387,0.313-0.699,0.699-0.699l4.053,0.455c0.386,0,0.699,0.313,0.699,0.699V12.034L17.353,12.034z"/>
	<path fill="#EFECEC" d="M17.346,12.399c0,0.203-0.165,0.369-0.369,0.369H3.512c-0.204,0-0.369-0.166-0.369-0.369v-0.206
		c0-0.204,14.203-0.204,14.203,0V12.399L17.346,12.399z"/>
	<path fill="#202121" d="M7.688,12.647c0,0.683-0.553,1.236-1.235,1.236s-1.235-0.554-1.235-1.236c0-0.682,0.553-1.234,1.235-1.234
		S7.688,11.966,7.688,12.647z"/>
	<path fill="#5E5F5E" d="M7.189,12.647c0,0.407-0.329,0.736-0.735,0.736S5.72,13.055,5.72,12.647c0-0.404,0.328-0.733,0.734-0.733
		S7.189,12.243,7.189,12.647z"/>
	<path fill="#A19F9F" d="M6.729,12.647c0,0.152-0.123,0.275-0.274,0.275c-0.152,0-0.274-0.123-0.274-0.275
		c0-0.151,0.122-0.273,0.274-0.273C6.605,12.374,6.729,12.496,6.729,12.647z"/>
	<path fill="#202121" d="M16.315,12.647c0,0.683-0.553,1.236-1.234,1.236c-0.684,0-1.236-0.554-1.236-1.236
		c0-0.682,0.553-1.234,1.236-1.234C15.763,11.413,16.315,11.966,16.315,12.647z"/>
	<path fill="#5E5F5E" d="M15.814,12.647c0,0.407-0.328,0.736-0.733,0.736c-0.407,0-0.736-0.329-0.736-0.736
		c0-0.404,0.329-0.733,0.736-0.733C15.486,11.914,15.814,12.243,15.814,12.647z"/>
	<path fill="#A19F9F" d="M15.354,12.647c0,0.152-0.123,0.275-0.273,0.275c-0.152,0-0.275-0.123-0.275-0.275
		c0-0.151,0.123-0.273,0.275-0.273C15.231,12.374,15.354,12.496,15.354,12.647z"/>
	<path fill="#D62127" d="M3.058,10.784h14.301v0.414H3.058V10.784z"/>
	<path fill="#D62127" d="M5.896,7.242H5.836H5.774c-0.101,0-0.292,0-0.292,0.217v2.408c0,0.218,0.19,0.218,0.292,0.218h0.062h0.061
		c0.068,0,0.133-0.002,0.187-0.028c0.049-0.023,0.105-0.075,0.105-0.188V7.461C6.188,7.243,5.99,7.243,5.896,7.242L5.896,7.242z"/>
	<path fill="#D62127" d="M7.137,8.088L7.109,8.034L7.083,7.979C7.038,7.889,6.954,7.718,6.76,7.814L4.601,8.879
		C4.406,8.975,4.489,9.146,4.534,9.236l0.027,0.055l0.026,0.055C4.618,9.406,4.648,9.464,4.697,9.5
		C4.738,9.533,4.81,9.562,4.912,9.511l2.16-1.064C7.267,8.35,7.18,8.173,7.137,8.088L7.137,8.088z"/>
	<path fill="#D62127" d="M7.079,9.354L7.106,9.3l0.027-0.055C7.18,9.154,7.265,8.984,7.07,8.887L4.918,7.809
		c-0.195-0.097-0.28,0.072-0.326,0.163L4.564,8.026L4.538,8.081c-0.031,0.061-0.058,0.12-0.059,0.18
		c-0.002,0.054,0.02,0.128,0.121,0.178l2.152,1.079C6.947,9.614,7.035,9.438,7.079,9.354L7.079,9.354z"/>
</g>
</svg>
