<?xml version="1.0" encoding="utf-8"?>
<!-- Generator: Adobe Illustrator 16.0.0, SVG Export Plug-In . SVG Version: 6.00 Build 0)  -->
<!DOCTYPE svg PUBLIC "-//W3C//DTD SVG 1.1//EN" "http://www.w3.org/Graphics/SVG/1.1/DTD/svg11.dtd">
<svg version="1.1" id="Layer_1" xmlns="http://www.w3.org/2000/svg" xmlns:xlink="http://www.w3.org/1999/xlink" x="0px" y="0px"
	 width="20px" height="20px" viewBox="0 0 20 20" enable-background="new 0 0 20 20" xml:space="preserve">
<g>
	<path fill="#49A0AE" d="M19.69,10c0,5.351-4.338,9.69-9.69,9.69c-5.352,0-9.69-4.338-9.69-9.69c0-5.351,4.338-9.69,9.69-9.69
		C15.353,0.31,19.69,4.648,19.69,10z"/>
	<path fill="#D1D1D1" d="M12.577,16.071c-0.355,0-0.7-0.056-1.02-0.158c-1.387-0.448-2.149-1.667-1.855-2.967l0.747,0.17
		c-0.239,1.053,0.503,1.799,1.343,2.069c1.214,0.392,2.809-0.086,3.636-2.036c0.719-1.691,0.344-3.181-1.06-4.19
		C11.91,7.189,6.978,7.33,3.554,10.359L3.047,9.786c3.699-3.271,9.071-3.389,11.768-1.447c1.699,1.222,2.178,3.084,1.319,5.11
		C15.338,15.323,13.888,16.072,12.577,16.071L12.577,16.071z"/>
	<path fill="#FFFFFF" d="M2.122,9.908c0-0.763,0.618-1.382,1.38-1.382s1.381,0.619,1.381,1.382c0,0.763-0.619,1.38-1.381,1.38
		S2.122,10.671,2.122,9.908z"/>
	<path fill="#D1D1D1" d="M2.788,9.908c0-0.396,0.32-0.716,0.715-0.716s0.715,0.32,0.715,0.716c0,0.395-0.321,0.716-0.715,0.716
		S2.788,10.303,2.788,9.908z"/>
	<path fill="#FFFFFF" d="M12.294,3.644c-0.028-0.13-0.079-0.223-0.151-0.223c-0.239,0-0.496,0.227-0.496,0.508
		c0,0.28,0.257,0.508,0.496,0.508c0.088,0,0.144-0.137,0.167-0.311c0.364,0.051,1.039,0.221,1.037,0.775
		c-0.012,2.608-1.145,6.704-1.193,6.882c-0.003,0.008-0.213,0.76-1.845,0.826c-0.074-0.017-0.153-0.027-0.233-0.027
		c-0.08,0-0.158,0.011-0.233,0.027c-1.598-0.066-1.741-0.8-1.743-0.812l-0.006-0.026c-0.049-0.172-1.202-4.223-1.155-6.793
		C6.946,4.42,7.554,4.217,7.928,4.143c0.024,0.166,0.079,0.294,0.165,0.294c0.24,0,0.497-0.228,0.497-0.508S8.333,3.422,8.093,3.422
		c-0.076,0-0.126,0.1-0.155,0.235C7.329,3.753,6.479,4.104,6.463,4.969c-0.047,2.609,1.047,6.491,1.17,6.916
		c0.046,0.266,0.347,1.493,1.941,1.707c0.145,0.073,0.316,0.122,0.5,0.122c0.185,0,0.355-0.048,0.499-0.119
		c1.683-0.222,2.005-1.535,2.038-1.693c0.011-0.041,1.193-4.285,1.207-6.996C13.823,4.031,12.914,3.713,12.294,3.644L12.294,3.644z"
		/>
</g>
</svg>
