<?xml version="1.0" encoding="utf-8"?>
<!-- Generator: Adobe Illustrator 16.0.0, SVG Export Plug-In . SVG Version: 6.00 Build 0)  -->
<!DOCTYPE svg PUBLIC "-//W3C//DTD SVG 1.1//EN" "http://www.w3.org/Graphics/SVG/1.1/DTD/svg11.dtd">
<svg version="1.1" id="Layer_1" xmlns="http://www.w3.org/2000/svg" xmlns:xlink="http://www.w3.org/1999/xlink" x="0px" y="0px"
	 width="20px" height="20px" viewBox="0 0 20 20" enable-background="new 0 0 20 20" xml:space="preserve">
<g>
	<path fill="#49A0AE" d="M19.69,10c0,5.351-4.338,9.69-9.69,9.69S0.31,15.353,0.31,10c0-5.352,4.338-9.69,9.69-9.69
		S19.69,4.647,19.69,10z"/>
	<path fill="#E9C29C" d="M10.204,11.415L9.39,10.448h1.773L10.204,11.415z"/>
	<path fill="#F5EFD8" d="M13.504,16.082c0,0.839-0.62,1.519-1.384,1.519H8.346c-0.764,0-1.383-0.68-1.383-1.519
		c0,0,0.317-3.291,0.576-4.115c0.258-0.824,0.619-1.519,1.383-1.519h0.467l0.814,0.846l0.958-0.846h0.498
		c0.764,0,1.182,0.507,1.383,1.519c0.2,1.012,0.46,4.115,0.46,4.115H13.504z"/>
	<path fill="#E9C29C" d="M13.504,16.082c0,0.839-0.62,1.519-1.384,1.519l-0.202-1.519l1.586-0.002V16.082z"/>
	<path fill="#F5EFD8" d="M13.504,16.082h-1.585l-0.756-5.634h0.497c0.765,0,1.182,0.507,1.383,1.519
		c0.202,1.012,0.461,4.113,0.461,4.113V16.082z"/>
	<path fill="#E9C29C" d="M8.346,17.601c-0.764,0-1.383-0.68-1.383-1.519l1.669,0.005L8.346,17.601z"/>
	<path fill="#E9C29C" d="M12.987,7.294c0,1.539-1.248,2.787-2.789,2.787c-1.54,0-2.787-1.248-2.787-2.787
		c0-1.54,1.247-2.788,2.787-2.788C11.739,4.506,12.987,5.754,12.987,7.294z"/>
	<path fill="#F1EDCD" d="M12.854,6.782c0,0,0.875-4.554-2.656-4.554c-3.53,0-2.654,4.554-2.654,4.554
		c0-1.255,1.397-2.275,2.654-2.275C11.456,4.507,12.854,5.527,12.854,6.782z"/>
	<path fill="#A46434" d="M12.987,7.294l-1.9-1.71c0,0-0.406,0.669-1.484,1.158c-1.041,0.47-2.19,0.552-2.19,0.552
		c0-1.54,1.248-2.788,2.787-2.788C11.74,4.506,12.987,5.754,12.987,7.294L12.987,7.294z"/>
	<path fill="#343433" d="M9.745,7.708c0,0.224-0.171,0.403-0.382,0.403c-0.212,0-0.382-0.18-0.382-0.403
		c0-0.223,0.17-0.403,0.382-0.403C9.574,7.305,9.745,7.485,9.745,7.708z"/>
	<path fill="#343433" d="M11.4,7.708c0,0.224-0.171,0.403-0.382,0.403s-0.383-0.18-0.383-0.403c0-0.223,0.172-0.403,0.383-0.403
		S11.4,7.485,11.4,7.708z"/>
	<path fill="#FFFFFF" d="M11.29,7.555c0,0.089-0.067,0.161-0.152,0.161s-0.152-0.072-0.152-0.161s0.067-0.162,0.152-0.162
		S11.29,7.466,11.29,7.555z"/>
	<path fill="#FFFFFF" d="M9.631,7.555c0,0.089-0.067,0.161-0.152,0.161S9.325,7.644,9.325,7.555s0.068-0.162,0.153-0.162
		S9.631,7.466,9.631,7.555z"/>
	<path fill="#F5EFD8" d="M6.963,16.082c0,0,0.317-3.291,0.576-4.115c0.258-0.824,0.619-1.519,1.383-1.519l0.467-0.003l-0.758,5.642
		L6.963,16.082L6.963,16.082z"/>
	<path fill="#F1EDCD" d="M11.102,3.546c0,0.479-0.386,0.866-0.865,0.866c-0.479,0-0.866-0.388-0.866-0.866s0.388-0.865,0.866-0.865
		C10.716,2.681,11.102,3.067,11.102,3.546z"/>
	<path fill="#D62127" d="M10.411,4.072c0,0.058-0.046,0.104-0.102,0.104h-0.147c-0.057,0-0.102-0.046-0.102-0.104V3.021
		c0-0.057,0.046-0.103,0.102-0.103h0.147c0.057,0,0.102,0.046,0.102,0.103V4.072z"/>
	<path fill="#D62127" d="M9.709,3.722c-0.057,0-0.102-0.046-0.102-0.103V3.472c0-0.057,0.046-0.102,0.102-0.102h1.054
		c0.056,0,0.102,0.046,0.102,0.102v0.147c0,0.057-0.046,0.103-0.102,0.103H9.709z"/>
</g>
</svg>
