<?xml version="1.0" encoding="utf-8"?>
<!-- Generator: Adobe Illustrator 16.0.0, SVG Export Plug-In . SVG Version: 6.00 Build 0)  -->
<!DOCTYPE svg PUBLIC "-//W3C//DTD SVG 1.1//EN" "http://www.w3.org/Graphics/SVG/1.1/DTD/svg11.dtd">
<svg version="1.1" id="Layer_1" xmlns="http://www.w3.org/2000/svg" xmlns:xlink="http://www.w3.org/1999/xlink" x="0px" y="0px"
	 width="20px" height="20px" viewBox="0 0 20 20" enable-background="new 0 0 20 20" xml:space="preserve">
<g>
	<path fill="#4ABC96" d="M19.69,10c0,5.351-4.338,9.69-9.69,9.69S0.31,15.353,0.31,10c0-5.352,4.338-9.69,9.69-9.69
		S19.69,4.647,19.69,10z"/>
	<path fill="#F3F2D9" d="M14.886,6.295c0-3.019-2.187-4.465-4.886-4.465S5.114,3.275,5.114,6.295c0,1.196,0.455,1.133,0.455,3.203
		c0,2.071-0.455,2.007-0.455,3.203c0,3.02,1.866,5.467,4.886,5.467s4.886-2.447,4.886-5.467c0-1.196-0.455-1.716-0.455-3.203
		S14.886,7.491,14.886,6.295z"/>
	<path fill="#E7E4B9" d="M10.062,9.323c-1.809,0-3.282-1.472-3.282-3.281s1.473-3.281,3.282-3.281c1.811,0,3.282,1.473,3.282,3.281
		S11.873,9.323,10.062,9.323z M10.062,2.955c-1.702,0-3.087,1.385-3.087,3.087S8.36,9.13,10.062,9.13s3.087-1.385,3.087-3.088
		S11.765,2.955,10.062,2.955z"/>
	<path fill="#D7AD8C" d="M8.544,8.722l2.869,0.043l-1.382,1.229L8.544,8.722z"/>
	<path fill="#E7E4B9" d="M10.032,10.221c-0.018,0-0.035-0.005-0.053-0.016c-0.045-0.028-0.059-0.089-0.028-0.134
		c0.309-0.484,1.494-1.359,1.546-1.396c0.042-0.031,0.102-0.022,0.135,0.021c0.03,0.043,0.021,0.104-0.021,0.136
		c-0.012,0.009-1.208,0.891-1.497,1.344C10.095,10.205,10.063,10.221,10.032,10.221z"/>
	<path fill="#E7E4B9" d="M12.782,14.793c-0.053,0-0.098-0.043-0.098-0.097c0-2.733-4.541-6.089-4.587-6.123
		C8.055,8.541,8.045,8.48,8.077,8.437c0.031-0.044,0.092-0.052,0.136-0.021c0.19,0.14,4.666,3.446,4.666,6.278
		C12.879,14.749,12.836,14.792,12.782,14.793L12.782,14.793z"/>
	<path fill="#E9C29C" d="M13.183,6.042c0,1.725-1.396,3.12-3.12,3.12c-1.723,0-3.119-1.396-3.119-3.12
		c0-1.723,1.396-3.119,3.119-3.119C11.786,2.923,13.183,4.319,13.183,6.042z"/>
	<path fill="#343433" d="M11.925,5.837c0,0.344-0.265,0.624-0.592,0.624c-0.326,0-0.591-0.28-0.591-0.624
		c0-0.345,0.265-0.624,0.591-0.624C11.66,5.213,11.925,5.492,11.925,5.837z"/>
	<path fill="#FFFFFF" d="M11.754,5.6c0,0.138-0.105,0.251-0.236,0.251S11.282,5.738,11.282,5.6c0-0.138,0.106-0.25,0.235-0.25
		C11.647,5.35,11.754,5.462,11.754,5.6z"/>
	<path fill="#343433" d="M9.364,5.837c0,0.344-0.265,0.624-0.59,0.624c-0.326,0-0.591-0.28-0.591-0.624
		c0-0.345,0.265-0.624,0.591-0.624C9.1,5.213,9.364,5.492,9.364,5.837z"/>
	<path fill="#FFFFFF" d="M9.188,5.6c0,0.139-0.105,0.251-0.236,0.251S8.714,5.738,8.714,5.6c0-0.138,0.106-0.25,0.237-0.25
		S9.188,5.462,9.188,5.6z"/>
	<path fill="#A46434" d="M10.032,4.155c-0.054,0-0.098-0.043-0.098-0.097V3.885c-0.052-0.032-0.103-0.071-0.15-0.12
		c-0.258-0.251-0.082-0.563,0.142-0.96C9.94,2.771,9.929,2.619,9.9,2.487C9.889,2.435,9.922,2.384,9.975,2.372
		c0.052-0.012,0.104,0.021,0.115,0.074c0.021,0.101,0.064,0.348,0.004,0.454c-0.22,0.391-0.319,0.584-0.175,0.726
		C9.925,3.631,9.93,3.635,9.935,3.641V3.544c0-0.165,0.098-0.325,0.241-0.396c0.084-0.042,0.257-0.087,0.464,0.073
		c0.115,0.088,0.17,0.229,0.147,0.376c-0.024,0.154-0.127,0.282-0.269,0.335c-0.137,0.05-0.268,0.061-0.391,0.031v0.092
		c0,0.055-0.044,0.098-0.098,0.098L10.032,4.155z M10.13,3.765c0.099,0.036,0.205,0.029,0.323-0.013
		c0.075-0.029,0.132-0.098,0.144-0.183c0.006-0.037,0.01-0.129-0.073-0.192c-0.095-0.073-0.186-0.092-0.262-0.054
		c-0.077,0.038-0.133,0.131-0.133,0.222L10.13,3.765L10.13,3.765z"/>
	<path fill="#49A0AE" d="M10.808,7.492c0,0.393-0.318,0.713-0.712,0.713S9.385,7.887,9.385,7.492c0-0.392,0.317-0.712,0.711-0.712
		S10.808,7.099,10.808,7.492z"/>
	<path fill="#3D929A" d="M10.485,7.492c0,0.215-0.174,0.389-0.389,0.389c-0.214,0-0.388-0.174-0.388-0.389
		c0-0.214,0.174-0.388,0.388-0.388C10.312,7.104,10.485,7.278,10.485,7.492z"/>
	<path fill="#357180" d="M10.334,7.492c0,0.131-0.107,0.238-0.238,0.238S9.858,7.623,9.858,7.492s0.106-0.237,0.237-0.237
		S10.334,7.361,10.334,7.492z"/>
	<path fill="#357180" d="M10.089,8.527c-0.223,0-0.355-0.044-0.42-0.138C9.578,8.255,9.654,8.066,9.752,7.828
		C9.8,7.712,9.854,7.579,9.889,7.444c0.01-0.034,0.045-0.056,0.08-0.046c0.034,0.01,0.055,0.044,0.046,0.079
		c-0.038,0.144-0.094,0.28-0.143,0.4C9.797,8.064,9.725,8.239,9.777,8.317c0.036,0.055,0.141,0.082,0.312,0.082
		c0.177,0,0.285-0.03,0.325-0.092c0.063-0.096-0.028-0.305-0.124-0.525c-0.042-0.096-0.086-0.195-0.124-0.299
		C10.154,7.45,10.173,7.412,10.206,7.4s0.071,0.006,0.082,0.039c0.037,0.101,0.08,0.198,0.121,0.292
		c0.116,0.265,0.217,0.494,0.115,0.648c-0.067,0.102-0.204,0.149-0.434,0.149L10.089,8.527z"/>
	<path fill="#E9C29C" d="M13.56,5.956c0,0.295-0.239,0.534-0.533,0.534c-0.297,0-0.535-0.239-0.535-0.534s0.238-0.534,0.535-0.534
		C13.32,5.422,13.56,5.661,13.56,5.956z"/>
	<path fill="#E9C29C" d="M7.476,5.956c0,0.295-0.238,0.534-0.533,0.534c-0.296,0-0.534-0.239-0.534-0.534s0.238-0.534,0.534-0.534
		C7.237,5.422,7.476,5.661,7.476,5.956z"/>
</g>
</svg>
