<?xml version="1.0" encoding="utf-8"?>
<!-- Generator: Adobe Illustrator 16.0.0, SVG Export Plug-In . SVG Version: 6.00 Build 0)  -->
<!DOCTYPE svg PUBLIC "-//W3C//DTD SVG 1.1//EN" "http://www.w3.org/Graphics/SVG/1.1/DTD/svg11.dtd">
<svg version="1.1" id="Layer_1" xmlns="http://www.w3.org/2000/svg" xmlns:xlink="http://www.w3.org/1999/xlink" x="0px" y="0px"
	 width="20px" height="20px" viewBox="0 0 20 20" enable-background="new 0 0 20 20" xml:space="preserve">
<g>
	<path fill="#EDC92C" d="M0.31,10c0-5.353,4.338-9.69,9.69-9.69s9.69,4.338,9.69,9.69c0,5.351-4.338,9.69-9.69,9.69
		S0.31,15.351,0.31,10z"/>
	<path fill="#CAE8E4" d="M6.367,15.798c-0.581,0.581-1.521,0.581-2.103,0l-0.059-0.059c-0.581-0.579-0.581-1.521,0-2.103
		l9.463-9.463c0.582-0.582,2.742,1.58,2.162,2.161L6.367,15.798L6.367,15.798z"/>
	<path fill="#CAE8E4" d="M16.168,6.41c-0.151,0.15-0.817-0.055-1.651-0.888c-0.832-0.833-1.081-1.543-0.931-1.693l0,0
		c0.151-0.152,0.648-0.101,1.66,0.912C16.258,5.753,16.319,6.258,16.168,6.41L16.168,6.41z"/>
	<path fill="#E0F1EF" d="M6.367,15.798c-0.581,0.581-1.521,0.581-2.103,0L14.986,4.924c0.564,0.546,1.101,1.155,0.845,1.411
		L6.367,15.798L6.367,15.798z"/>
	<path fill="#EF5353" d="M6.241,15.594c-0.489,0.488-1.283,0.488-1.771,0l-0.05-0.048c-0.488-0.489-0.488-1.282,0-1.771l1.354-1.352
		l3.655-0.004l-3.188,3.177V15.594z"/>
	<path fill="#F06465" d="M6.241,15.594c-0.489,0.488-1.283,0.488-1.771,0l3.125-3.173l1.834-0.002l-3.188,3.177V15.594z"/>
	<path fill="#F49396" d="M4.297,14.938c0,0.3,0.429,0.809,1.074,0.809c0.645,0,1.023-0.474,1.023-0.772
		C6.395,14.673,4.297,14.637,4.297,14.938z"/>
</g>
</svg>
