<?xml version="1.0" encoding="utf-8"?>
<!-- Generator: Adobe Illustrator 16.0.0, SVG Export Plug-In . SVG Version: 6.00 Build 0)  -->
<!DOCTYPE svg PUBLIC "-//W3C//DTD SVG 1.1//EN" "http://www.w3.org/Graphics/SVG/1.1/DTD/svg11.dtd">
<svg version="1.1" id="Layer_1" xmlns="http://www.w3.org/2000/svg" xmlns:xlink="http://www.w3.org/1999/xlink" x="0px" y="0px"
	 width="20px" height="20px" viewBox="0 0 20 20" enable-background="new 0 0 20 20" xml:space="preserve">
<g>
	<path fill="#EDC92C" d="M19.69,10c0,5.351-4.338,9.69-9.69,9.69S0.31,15.353,0.31,10c0-5.352,4.338-9.69,9.69-9.69
		S19.69,4.647,19.69,10z"/>
	<path fill="#DC3735" d="M10.405,14.889c-0.677,0.677-2.312,1.316-2.987,0.642c-0.676-0.675,3.053-4.541,3.729-3.864
		c0.016,0.017,0.028,0.036,0.041,0.054c0.143-0.391,0.304-0.762,0.473-1.107c-0.99-3.165-3.598-8.079-3.598-8.079
		s-3.972,4.89-3.972,9.933c0,2.194,1.777,3.973,3.972,3.973c1.086,0,2.07-0.436,2.787-1.144c-0.094-0.231-0.152-0.482-0.17-0.742
		C10.589,14.682,10.497,14.798,10.405,14.889L10.405,14.889z"/>
	<path fill="#E84849" d="M7.417,15.529c0.674,0.676,2.311,0.034,2.986-0.642c0.093-0.092,0.186-0.208,0.275-0.337
		c-0.004-0.059-0.008-0.116-0.008-0.176c0-0.919,0.215-1.829,0.517-2.655c-0.014-0.019-0.026-0.039-0.04-0.055
		C10.47,10.989,6.741,14.854,7.417,15.529z"/>
	<path fill="#DC3735" d="M13.189,8.652c0,0-2.288,2.817-2.288,5.725c0,1.264,1.023,2.289,2.288,2.289s2.29-1.025,2.29-2.291
		C15.479,12.969,13.189,8.651,13.189,8.652L13.189,8.652z"/>
	<path fill="#E84849" d="M14.966,13.916c0.39,0.39-0.038,1.467-0.427,1.857c-0.389,0.389-1.333,0.759-1.722,0.369
		C12.427,15.753,14.576,13.526,14.966,13.916z"/>
</g>
</svg>
