<?xml version="1.0" encoding="utf-8"?>
<!-- Generator: Adobe Illustrator 16.0.0, SVG Export Plug-In . SVG Version: 6.00 Build 0)  -->
<!DOCTYPE svg PUBLIC "-//W3C//DTD SVG 1.1//EN" "http://www.w3.org/Graphics/SVG/1.1/DTD/svg11.dtd">
<svg version="1.1" id="Layer_1" xmlns="http://www.w3.org/2000/svg" xmlns:xlink="http://www.w3.org/1999/xlink" x="0px" y="0px"
	 width="20px" height="20px" viewBox="0 0 20 20" enable-background="new 0 0 20 20" xml:space="preserve">
<g>
	<path fill="#4ABC96" d="M19.69,10c0,5.351-4.338,9.69-9.69,9.69S0.31,15.353,0.31,10c0-5.352,4.338-9.69,9.69-9.69
		S19.69,4.647,19.69,10z"/>
	<path fill="#3F3F3E" d="M4.178,8.782h11.945v3.123H4.178V8.782z"/>
	<path fill="#82725A" d="M4.18,8.955c0,0,3.401,1.337,5.946,1.337c2.781,0,5.995-1.35,5.995-1.35V7.298
		c0-0.834-0.821-0.797-0.821-0.797H4.96c-0.81,0-0.781,0.797-0.781,0.797L4.18,8.955L4.18,8.955z M16.121,13.261V9.403
		c0,0-2.587,1.292-6.013,1.292c-3.151,0-5.929-1.33-5.929-1.33v3.896c0,0.81,0.768,0.798,0.768,0.798h10.365
		C16.173,14.059,16.121,13.261,16.121,13.261L16.121,13.261z"/>
	<path fill="#5B4F3F" d="M4.18,8.955c0,0,3.401,1.337,5.946,1.337c2.781,0,5.995-1.35,5.995-1.35V7.298
		c0-0.834-0.821-0.797-0.821-0.797H4.96c-0.81,0-0.781,0.797-0.781,0.797L4.18,8.955L4.18,8.955z"/>
	<path fill="#3F3F3E" d="M12.122,6.502v-0.81c0-0.822-0.771-0.785-0.771-0.785H8.934c-0.76,0-0.784,0.798-0.784,0.798v0.798
		L12.122,6.502L12.122,6.502z M8.933,6.077c0-0.36,0.399-0.386,0.399-0.386h1.606c0.424,0,0.398,0.435,0.398,0.435l-0.012,0.375
		H8.933V6.077L8.933,6.077z"/>
	<path fill="#F1EDCD" d="M12.7,10.369c0,1.465-1.188,2.651-2.652,2.651s-2.651-1.187-2.651-2.651c0-1.464,1.187-2.651,2.651-2.651
		S12.7,8.905,12.7,10.369z"/>
	<path fill="#D62127" d="M10.585,11.981c0,0.174-0.14,0.312-0.312,0.312H9.823c-0.173,0-0.312-0.139-0.312-0.312V8.757
		c0-0.173,0.14-0.312,0.312-0.312h0.449c0.173,0,0.312,0.139,0.312,0.312V11.981z"/>
	<path fill="#D62127" d="M8.436,10.907c-0.173,0-0.312-0.141-0.312-0.312v-0.45c0-0.173,0.139-0.312,0.312-0.312h3.225
		c0.173,0,0.312,0.14,0.312,0.312v0.45c0,0.172-0.139,0.312-0.312,0.312H8.436z"/>
</g>
</svg>
