<?xml version="1.0" encoding="utf-8"?>
<!-- Generator: Adobe Illustrator 16.0.0, SVG Export Plug-In . SVG Version: 6.00 Build 0)  -->
<!DOCTYPE svg PUBLIC "-//W3C//DTD SVG 1.1//EN" "http://www.w3.org/Graphics/SVG/1.1/DTD/svg11.dtd">
<svg version="1.1" id="Layer_1" xmlns="http://www.w3.org/2000/svg" xmlns:xlink="http://www.w3.org/1999/xlink" x="0px" y="0px"
	 width="20px" height="20px" viewBox="0 0 20 20" enable-background="new 0 0 20 20" xml:space="preserve">
<g>
	<path fill="#4ABC96" d="M19.69,10c0,5.351-4.338,9.69-9.69,9.69S0.31,15.353,0.31,10c0-5.352,4.338-9.69,9.69-9.69
		S19.69,4.647,19.69,10z"/>
	<path fill="#BADDD6" d="M10.769,11.427c0,0.535-0.433,0.97-0.969,0.97l-1.184,0.001c-0.535,0-0.97-0.434-0.97-0.97L7.645,7.18
		c0-0.535,0.434-0.97,0.968-0.97l1.185-0.001c0.534,0,0.97,0.434,0.97,0.97L10.769,11.427L10.769,11.427z"/>
	<path fill="#5D919F" d="M12.396,12.396c-0.177-0.438-0.161-0.859,0.035-0.938l0.436-0.176c0.196-0.08,0.5,0.211,0.676,0.649
		l1.201,2.983c0.08,0.202-0.057,0.581-0.312,0.702c-0.301,0.145-0.74-0.001-0.834-0.24L12.396,12.396z"/>
	<path fill="#8B8B8C" d="M12.517,13.64c0.004,0.414-0.072,0.83-0.227,1.223l-0.002-0.003c-0.146,0.364-0.358,0.708-0.64,1.013
		c-1.23,1.328-3.303,1.406-4.629,0.176c-1.326-1.229-1.406-3.301-0.176-4.629c0.121-0.131,0.251-0.249,0.389-0.355v-0.879
		c-0.334,0.194-0.646,0.441-0.923,0.739c-1.503,1.622-1.407,4.154,0.215,5.657c1.621,1.503,4.154,1.407,5.658-0.215
		c0.272-0.295,0.494-0.619,0.66-0.963l0.002,0.002c0.079-0.161,0.146-0.327,0.201-0.494l-0.527-1.271H12.517z"/>
	<path fill="#B9B9BA" d="M12.517,13.64c0.004,0.414-0.072,0.83-0.227,1.223l-0.002-0.003c-0.146,0.364-0.358,0.708-0.64,1.013
		c-1.23,1.328-3.303,1.406-4.629,0.176c-0.861-0.798-1.189-1.935-0.981-3.01c0.113-0.581,0.376-1.154,0.807-1.619
		c0.121-0.131,0.251-0.249,0.389-0.355V10.61c0,0-0.98,0.76-1.478,1.941c-0.485,1.154-0.015,2.847,0.972,3.764
		c1.437,1.335,3.162,0.996,4.168,0.566c1.517-0.647,1.909-2.554,1.909-2.554l-0.286-0.688H12.517z"/>
	<path fill="#5D919F" d="M8.54,12.403c-0.473,0-0.893-0.268-0.893-0.707l-0.006-0.564h4.773c0.472,0,0.784,0.172,0.784,0.384v0.47
		c0,0.211-0.312,0.384-0.784,0.384L8.54,12.403z"/>
	<path fill="#E9C29C" d="M11.022,4.181c0,1.012-0.819,1.831-1.831,1.831c-1.011,0-1.831-0.819-1.831-1.831
		c0-1.01,0.82-1.831,1.831-1.831C10.203,2.35,11.022,3.17,11.022,4.181z"/>
	<path fill="#A46434" d="M9.581,4.352c-0.215,0.464-1.914,0.82-1.914,0.82C7.417,4.908,7.36,4.181,7.36,4.181
		c0-1.01,0.82-1.831,1.831-1.831c0.47,0,0.971,0.14,1.466,0.729C10.657,3.079,9.891,3.68,9.581,4.352L9.581,4.352z"/>
	<path fill="#343433" d="M10.851,4.253c0,0.146-0.111,0.265-0.251,0.265s-0.25-0.118-0.25-0.265s0.111-0.265,0.25-0.265
		S10.851,4.106,10.851,4.253z"/>
	<path fill="#FFFFFF" d="M10.779,4.152c0,0.059-0.045,0.105-0.101,0.105c-0.055,0-0.102-0.047-0.102-0.105s0.047-0.105,0.102-0.105
		C10.734,4.047,10.779,4.094,10.779,4.152z"/>
	<path fill="#ABD0C8" d="M9.985,6.866C9.961,6.661,9.782,6.502,9.577,6.502c-0.017,0-0.034,0.001-0.056,0.004L5.564,7.24
		C5.456,7.253,5.358,7.312,5.297,7.403c-0.06,0.092-0.079,0.203-0.051,0.309l0.938,3.436c0.044,0.162,0.192,0.275,0.361,0.275
		c0.033,0,0.066-0.004,0.098-0.012c0.096-0.027,0.177-0.091,0.227-0.176c0.051-0.088,0.063-0.189,0.036-0.286L6.081,7.928
		l3.542-0.604C9.733,7.312,9.83,7.257,9.899,7.17S9.998,6.976,9.985,6.866z"/>
</g>
</svg>
