<?xml version="1.0" encoding="utf-8"?>
<!-- Generator: Adobe Illustrator 16.0.0, SVG Export Plug-In . SVG Version: 6.00 Build 0)  -->
<!DOCTYPE svg PUBLIC "-//W3C//DTD SVG 1.1//EN" "http://www.w3.org/Graphics/SVG/1.1/DTD/svg11.dtd">
<svg version="1.1" id="Layer_1" xmlns="http://www.w3.org/2000/svg" xmlns:xlink="http://www.w3.org/1999/xlink" x="0px" y="0px"
	 width="20px" height="20px" viewBox="0 0 20 20" enable-background="new 0 0 20 20" xml:space="preserve">
<g>
	<path fill="#49A0AE" d="M19.69,10c0,5.351-4.338,9.69-9.69,9.69S0.31,15.353,0.31,10c0-5.352,4.338-9.69,9.69-9.69
		S19.69,4.647,19.69,10z"/>
	<path fill="#E2DCBF" d="M4.238,8.462h7.454c0.209,0,0.379,1.686,0.379,1.839c0,0.152-0.17,0.276-0.379,0.276
		c0,0-7.832-1.301-7.832-1.838C3.86,8.571,4.029,8.462,4.238,8.462z"/>
	<path fill="#E2DCBF" d="M3.831,8.707l-0.52-0.906C3.207,7.62,3.23,7.411,3.363,7.335c0.133-0.077,0.324,0.008,0.429,0.188
		l0.52,0.907c0.104,0.18,0.082,0.39-0.051,0.466C4.127,8.972,3.936,8.887,3.831,8.707L3.831,8.707z"/>
	<path fill="#367A82" d="M5.608,7.441l5.305,0.378l5.32-0.378c0.298,0,0.538,0.124,0.538,0.277c0,0.152-0.24,0.277-0.538,0.277
		H5.608c-0.297,0-0.539-0.124-0.539-0.277C5.069,7.564,5.312,7.441,5.608,7.441z"/>
	<path fill="#E2DCBF" d="M10.573,8.453h3.675c0.871,0,1.789,0.707,2.051,1.578l0.369,1.228c0.262,0.87-0.231,1.577-1.104,1.577
		h-3.675c-0.87,0-1.789-0.707-2.051-1.577l-0.722-2.31L10.573,8.453L10.573,8.453z"/>
	<path fill="#90BABA" d="M14.188,9.016c1.469,0,2.029,1.872,1.742,1.872h-1.742V9.016z"/>
	<path fill="#F1EDCD" d="M13.3,10.422c0,0.767-0.621,1.39-1.388,1.39c-0.769,0-1.39-0.623-1.39-1.39c0-0.768,0.621-1.39,1.39-1.39
		C12.679,9.032,13.3,9.654,13.3,10.422z"/>
	<path fill="#D62127" d="M11.63,11.267c0,0.09,0.073,0.163,0.163,0.163h0.235c0.09,0,0.163-0.073,0.163-0.163V9.578
		c0-0.091-0.073-0.164-0.163-0.164h-0.235c-0.09,0-0.163,0.073-0.163,0.164V11.267z"/>
	<path fill="#D62127" d="M12.755,10.702c0.09,0,0.164-0.072,0.164-0.162v-0.236c0-0.09-0.074-0.164-0.164-0.164h-1.689
		c-0.09,0-0.164,0.074-0.164,0.164v0.236c0,0.09,0.074,0.162,0.164,0.162H12.755z"/>
	<path fill="#367A82" d="M3.496,6.707c-0.347,0-0.272,1.761,0,1.761C3.768,8.468,3.842,6.707,3.496,6.707z"/>
	<path fill="#367A82" d="M2.615,7.587c0,0.347,1.761,0.273,1.761,0C4.376,7.314,2.615,7.242,2.615,7.587z"/>
	<path fill="#255259" d="M3.501,7.759c0.094,0,0.169-0.075,0.169-0.169c0-0.093-0.075-0.168-0.169-0.168
		c-0.092,0-0.167,0.075-0.168,0.168C3.332,7.684,3.408,7.758,3.501,7.759z"/>
	<path fill="#E2DCBF" d="M10.728,8.634c0,0.116,0.095,0.209,0.211,0.209l0,0c0.115,0,0.209-0.094,0.209-0.209V7.945
		c0-0.117-0.094-0.21-0.209-0.21l0,0c-0.116,0-0.211,0.093-0.211,0.21V8.634z"/>
	<path fill="#E2DCBF" d="M14.967,12.257c0.116,0,0.21,0.095,0.21,0.209v0.688c0,0.117-0.094,0.101-0.21,0.101
		s-0.209,0.017-0.209-0.101v-0.688C14.758,12.351,14.852,12.257,14.967,12.257z"/>
	<path fill="#E2DCBF" d="M12.21,12.257c0.117,0,0.209,0.095,0.209,0.209v0.688c0,0.117-0.095,0.114-0.209,0.114
		c-0.115,0-0.21,0.003-0.21-0.114v-0.688C12,12.351,12.094,12.257,12.21,12.257z"/>
	<path fill="#E2DCBF" d="M15.689,13.446h-4.356c-0.086,0-0.153-0.068-0.153-0.152c0-0.086,0.067-0.153,0.153-0.153h4.356
		c0.446,0,0.631-0.203,0.632-0.205c0.055-0.063,0.151-0.071,0.216-0.016c0.064,0.055,0.073,0.151,0.017,0.216
		c-0.01,0.012-0.272,0.312-0.866,0.312L15.689,13.446z"/>
</g>
</svg>
