<?xml version="1.0" encoding="utf-8"?>
<!-- Generator: Adobe Illustrator 16.0.0, SVG Export Plug-In . SVG Version: 6.00 Build 0)  -->
<!DOCTYPE svg PUBLIC "-//W3C//DTD SVG 1.1//EN" "http://www.w3.org/Graphics/SVG/1.1/DTD/svg11.dtd">
<svg version="1.1" id="Layer_1" xmlns="http://www.w3.org/2000/svg" xmlns:xlink="http://www.w3.org/1999/xlink" x="0px" y="0px"
	 width="20px" height="20px" viewBox="0 0 20 20" enable-background="new 0 0 20 20" xml:space="preserve">
<g>
	<path fill="#EDC92C" d="M19.69,10c0,5.351-4.338,9.69-9.69,9.69S0.31,15.353,0.31,10c0-5.352,4.338-9.69,9.69-9.69
		S19.69,4.647,19.69,10z"/>
	<path fill="#DDF0EE" d="M5.226,10.687l-0.031,0.031c-0.309,0.309,3.848,4.466,4.156,4.157l0.031-0.031
		C9.382,14.844,5.194,10.718,5.226,10.687z"/>
	<path fill="#CEE9E4" d="M5.226,10.687l-0.031,0.031c-0.155,0.155,0.807,1.271,1.846,2.311l0.252-0.252
		C6.245,11.738,5.209,10.702,5.226,10.687z"/>
	<path fill="#DDF0EE" d="M13.531,6.538C12.993,6,12.12,6,11.581,6.538l-5.46,5.46l1.948,1.95l5.461-5.461
		C14.067,7.949,14.067,7.077,13.531,6.538L13.531,6.538z"/>
	<path fill="#CEE9E4" d="M13.531,6.538C12.993,6,12.12,6,11.581,6.538l-5.498,5.498l0.976,0.975L13.531,6.538z"/>
	<path fill="#BDE3DB" d="M13.416,6.657c-0.474-0.478-1.245-0.478-1.719,0.001L8.551,9.829l1.721,1.729l3.146-3.171
		C13.893,7.908,13.892,7.134,13.416,6.657L13.416,6.657z"/>
	<path fill="#B6DBD4" d="M13.416,6.657c-0.474-0.478-1.245-0.478-1.719,0.001L8.55,9.83l0.847,0.841L13.416,6.657z"/>
	<path fill="#49A0AE" d="M5.127,15.866l4.609-4.609l-0.925-0.926l-4.6,4.601c-0.153-0.16-0.26-0.271-0.26-0.271l-0.035,0.036
		c-0.175,0.174,0.087,0.64,0.451,1.004c0.364,0.363,0.829,0.626,1.004,0.45l0.035-0.036C5.397,16.125,5.285,16.021,5.127,15.866
		L5.127,15.866z"/>
	<path fill="#3F98A1" d="M9.275,10.795l-0.464-0.464l-4.6,4.601c-0.153-0.16-0.26-0.271-0.26-0.271l-0.035,0.036
		c-0.175,0.174,0.087,0.64,0.451,1.004L9.275,10.795L9.275,10.795z"/>
	<path fill="#E4E4E4" d="M16.05,3.945l-2.394,2.343c-0.034,0.034,0.09,0.16,0.124,0.126l2.345-2.394c0,0,0.002-0.039-0.02-0.059
		C16.085,3.941,16.05,3.945,16.05,3.945z"/>
	<path fill="#49A0AE" d="M13.847,6.222c-0.113-0.112-0.295-0.112-0.41,0l-0.143,0.144l0.41,0.41l0.143-0.143
		C13.96,6.519,13.96,6.335,13.847,6.222z"/>
	<path fill="#86BBB1" d="M8.577,9.544l0.159-0.158l1.18,1.18l-0.159,0.158L8.577,9.544z"/>
	<path fill="#86BBB1" d="M9.254,8.87l0.158-0.159l1.181,1.179l-0.159,0.159L9.254,8.87z"/>
	<path fill="#86BBB1" d="M9.971,8.151l0.159-0.159l1.18,1.18l-0.158,0.159L9.971,8.151z"/>
	<path fill="#86BBB1" d="M10.705,7.418l0.16-0.16l1.18,1.18l-0.16,0.16L10.705,7.418z"/>
	<path fill="#86BBB1" d="M11.374,6.747l0.159-0.158l1.18,1.18l-0.159,0.158L11.374,6.747z"/>
</g>
</svg>
