<?xml version="1.0" encoding="utf-8"?>
<!-- Generator: Adobe Illustrator 16.0.0, SVG Export Plug-In . SVG Version: 6.00 Build 0)  -->
<!DOCTYPE svg PUBLIC "-//W3C//DTD SVG 1.1//EN" "http://www.w3.org/Graphics/SVG/1.1/DTD/svg11.dtd">
<svg version="1.1" id="Layer_1" xmlns="http://www.w3.org/2000/svg" xmlns:xlink="http://www.w3.org/1999/xlink" x="0px" y="0px"
	 width="20px" height="20px" viewBox="0 0 20 20" enable-background="new 0 0 20 20" xml:space="preserve">
<g>
	<path fill="#49A0AE" d="M19.69,10c0,5.351-4.338,9.69-9.69,9.69S0.31,15.353,0.31,10c0-5.352,4.338-9.69,9.69-9.69
		S19.69,4.647,19.69,10z"/>
	<path fill="#E9B82B" d="M7.972,10.161c0,0,1.158,1.17,0.515,2.877c-0.621,1.646-1.784,2.984-1.784,2.984
		c-1.676-1.676-1.676-4.393,0-6.068C8.379,8.277,7.971,10.161,7.972,10.161L7.972,10.161z"/>
	<path fill="#E9B82B" d="M12.653,10.161c0,0-1.156,1.17-0.514,2.877c0.62,1.646,1.784,2.984,1.784,2.984
		c1.674-1.676,1.676-4.393,0-6.068c-1.677-1.677-1.269,0.207-1.269,0.207H12.653z"/>
	<path fill="#E9C29C" d="M14.497,10.681c0,2.371-1.921,4.292-4.291,4.292s-4.291-1.921-4.291-4.292c0-2.369,1.921-4.292,4.291-4.292
		S14.497,8.31,14.497,10.681z"/>
	<path fill="#F1EDCD" d="M14.291,9.895c0,0,1.35-7.01-4.086-7.01s-4.086,7.01-4.086,7.01c0-1.935,2.151-3.503,4.086-3.503
		S14.291,7.96,14.291,9.895z"/>
	<path fill="#E2BE28" d="M13.144,9.552c0,0-0.777,0.785-0.345,1.93c0.417,1.103,1.196,2.002,1.196,2.002
		c1.124-1.124,1.124-2.945,0-4.07C12.871,8.291,13.145,9.553,13.144,9.552L13.144,9.552z"/>
	<path fill="#E2BE28" d="M7.142,9.804c0,0,0.777,0.785,0.346,1.93c-0.416,1.104-1.196,2.002-1.196,2.002
		c-1.123-1.123-1.124-2.946,0-4.069S7.142,9.805,7.142,9.804L7.142,9.804z"/>
	<path fill="#343433" d="M9.508,11.317c0,0.344-0.263,0.621-0.589,0.621c-0.325,0-0.588-0.278-0.588-0.621
		c0-0.342,0.263-0.62,0.588-0.62C9.245,10.697,9.508,10.976,9.508,11.317z"/>
	<path fill="#343433" d="M12.056,11.317c0,0.344-0.263,0.621-0.588,0.621c-0.326,0-0.589-0.278-0.589-0.621
		c0-0.342,0.263-0.62,0.589-0.62C11.793,10.697,12.056,10.976,12.056,11.317z"/>
	<path fill="#FFFFFF" d="M11.885,11.083c0,0.137-0.104,0.248-0.233,0.248s-0.234-0.111-0.234-0.248c0-0.139,0.105-0.249,0.234-0.249
		C11.779,10.834,11.885,10.944,11.885,11.083z"/>
	<path fill="#FFFFFF" d="M9.332,11.083c0,0.137-0.106,0.248-0.235,0.248c-0.13,0-0.234-0.111-0.234-0.248
		c0-0.139,0.105-0.249,0.234-0.249C9.225,10.834,9.332,10.944,9.332,11.083z"/>
	<path fill="#EDC92C" d="M14.497,10.681l-2.926-2.633c0,0-0.623,1.033-2.285,1.783c-1.603,0.725-3.372,0.85-3.372,0.85
		c0-2.369,1.921-4.292,4.291-4.292S14.496,8.31,14.497,10.681L14.497,10.681z"/>
	<path fill="#F1EDCD" d="M11.595,4.912c0,0.736-0.596,1.334-1.333,1.334S8.928,5.649,8.928,4.912c0-0.735,0.597-1.333,1.334-1.333
		S11.595,4.176,11.595,4.912z"/>
	<path fill="#D62127" d="M10.531,5.722c0,0.087-0.07,0.157-0.157,0.157h-0.227c-0.086,0-0.157-0.071-0.157-0.157v-1.62
		c0-0.087,0.07-0.157,0.157-0.157h0.227c0.087,0,0.157,0.07,0.157,0.157V5.722z"/>
	<path fill="#D62127" d="M9.451,5.183c-0.087,0-0.157-0.07-0.157-0.157V4.799c0-0.086,0.07-0.158,0.157-0.158h1.62
		c0.086,0,0.157,0.071,0.157,0.158v0.227c0,0.087-0.069,0.157-0.157,0.157H9.451z"/>
</g>
</svg>
