<?xml version="1.0" encoding="utf-8"?>
<!-- Generator: Adobe Illustrator 16.0.0, SVG Export Plug-In . SVG Version: 6.00 Build 0)  -->
<!DOCTYPE svg PUBLIC "-//W3C//DTD SVG 1.1//EN" "http://www.w3.org/Graphics/SVG/1.1/DTD/svg11.dtd">
<svg version="1.1" id="Layer_1" xmlns="http://www.w3.org/2000/svg" xmlns:xlink="http://www.w3.org/1999/xlink" x="0px" y="0px"
	 width="20px" height="20px" viewBox="0 0 20 20" enable-background="new 0 0 20 20" xml:space="preserve">
<g>
	<path fill="#E84849" d="M19.69,10c0,5.351-4.338,9.69-9.69,9.69S0.31,15.353,0.31,10c0-5.352,4.338-9.69,9.69-9.69
		S19.69,4.647,19.69,10z"/>
	<path fill="#BFBEBE" d="M16.863,7.618c0.41,0.409,0.41,1.073,0,1.482l-3.585,4.085l-4.041,3.541c-0.409,0.409-1.072,0.409-1.481,0
		l-4.045-4.044c-0.409-0.41-0.409-1.073,0-1.482l3.976-3.477l3.65-4.15c0.409-0.409,1.072-0.409,1.482,0L16.863,7.618z"/>
	<path fill="#939292" d="M16.197,7.789c0.355,0.355,0.355,0.933,0,1.287l-3.294,3.729L9.225,16.05c-0.355,0.355-0.932,0.355-1.287,0
		l-3.516-3.516c-0.355-0.355-0.355-0.934,0-1.287l3.622-3.189l3.351-3.784c0.355-0.355,0.933-0.355,1.288,0L16.197,7.789z"/>
	<path fill="#8B8B8C" d="M6.179,14.291l-1.758-1.757c-0.355-0.355-0.355-0.934,0-1.287l3.622-3.189l3.351-3.784
		c0.355-0.355,0.934-0.355,1.287,0l1.703,1.739L6.179,14.291L6.179,14.291z"/>
	<path fill="#E4DFBC" d="M7.005,13.141c0.185-0.185,0.185-0.482,0-0.667L5.75,11.219c-0.185-0.185-0.482-0.185-0.667,0
		c-0.185,0.184-0.185,0.482,0,0.666l1.255,1.256C6.522,13.324,6.82,13.324,7.005,13.141z"/>
	<path fill="#ED3432" d="M7.005,13.141c0.185-0.185,0.185-0.482,0-0.667l-0.634-0.635l-0.667,0.668l0.634,0.634
		C6.522,13.324,6.82,13.324,7.005,13.141z"/>
	<path fill="#F1EDCD" d="M6.371,11.838l-0.621-0.62c-0.185-0.186-0.482-0.186-0.667,0l0.953,0.953L6.371,11.838L6.371,11.838z"/>
	<path fill="#EE4646" d="M7.005,13.141c0.185-0.185,0.185-0.482,0-0.667l-0.634-0.635l-0.335,0.334L7.005,13.141L7.005,13.141z"/>
	<path fill="#E4DFBC" d="M13.38,6.766c0.184-0.185,0.184-0.482,0-0.667l-1.256-1.255c-0.184-0.185-0.482-0.185-0.666,0
		c-0.185,0.184-0.185,0.482,0,0.666l1.255,1.256C12.897,6.949,13.195,6.949,13.38,6.766z"/>
	<path fill="#ED3432" d="M13.38,6.766c0.184-0.185,0.184-0.482,0-0.667l-0.634-0.635l-0.667,0.667l0.634,0.635
		C12.897,6.949,13.195,6.949,13.38,6.766z"/>
	<path fill="#F1EDCD" d="M12.746,5.463l-0.622-0.62c-0.184-0.185-0.482-0.185-0.666,0l0.954,0.953L12.746,5.463L12.746,5.463z"/>
	<path fill="#EE4646" d="M13.38,6.766c0.184-0.185,0.184-0.482,0-0.667l-0.634-0.635l-0.334,0.334L13.38,6.766L13.38,6.766z"/>
	<path fill="#E4DFBC" d="M10.294,10.229c0.185-0.184,0.185-0.482,0-0.666L9.039,8.307c-0.185-0.184-0.482-0.184-0.667,0
		c-0.185,0.185-0.185,0.482,0,0.667l1.255,1.255C9.812,10.413,10.109,10.413,10.294,10.229z"/>
	<path fill="#ED3432" d="M10.294,10.229c0.185-0.184,0.185-0.482,0-0.666L9.659,8.928L8.993,9.595l0.634,0.634
		C9.812,10.413,10.109,10.413,10.294,10.229z"/>
	<path fill="#F1EDCD" d="M9.659,8.927l-0.62-0.621c-0.185-0.184-0.482-0.184-0.667,0L9.325,9.26L9.659,8.927z"/>
	<path fill="#EE4646" d="M10.294,10.229c0.185-0.184,0.185-0.482,0-0.666L9.659,8.928L9.325,9.262L10.294,10.229z"/>
	<path fill="#E4DFBC" d="M11.822,8.496c0.185-0.184,0.185-0.482,0-0.667l-1.255-1.255c-0.185-0.184-0.482-0.184-0.667,0
		c-0.185,0.185-0.185,0.483,0,0.668l1.255,1.254C11.339,8.681,11.638,8.681,11.822,8.496z"/>
	<path fill="#ED3432" d="M11.822,8.496c0.185-0.184,0.185-0.482,0-0.667l-0.635-0.634l-0.666,0.667l0.634,0.634
		C11.339,8.681,11.638,8.681,11.822,8.496z"/>
	<path fill="#F1EDCD" d="M11.188,7.195l-0.62-0.621c-0.185-0.184-0.482-0.184-0.667,0l0.954,0.954L11.188,7.195L11.188,7.195z"/>
	<path fill="#EE4646" d="M11.822,8.496c0.185-0.184,0.185-0.482,0-0.667l-0.635-0.634l-0.333,0.334L11.822,8.496L11.822,8.496z"/>
	<path fill="#E4DFBC" d="M8.635,11.655c0.185-0.186,0.185-0.482,0-0.668L7.38,9.733c-0.185-0.185-0.482-0.185-0.667,0
		c-0.185,0.184-0.185,0.482,0,0.666l1.255,1.256C8.152,11.839,8.45,11.839,8.635,11.655z"/>
	<path fill="#ED3432" d="M8.635,11.655c0.185-0.186,0.185-0.482,0-0.668L8,10.354l-0.666,0.667l0.634,0.635
		C8.152,11.839,8.45,11.839,8.635,11.655z"/>
	<path fill="#F1EDCD" d="M8,10.354l-0.62-0.62c-0.185-0.185-0.482-0.185-0.667,0l0.953,0.953L8,10.354z"/>
	<path fill="#EE4646" d="M8.635,11.655c0.185-0.186,0.185-0.482,0-0.668L8,10.354l-0.334,0.334L8.635,11.655L8.635,11.655z"/>
	<path fill="#E4DFBC" d="M9.217,15.353c0.185-0.184,0.185-0.484,0-0.666l-1.255-1.256c-0.185-0.184-0.483-0.184-0.667,0
		s-0.184,0.482,0,0.667l1.255,1.255C8.734,15.536,9.032,15.536,9.217,15.353z"/>
	<path fill="#ED3432" d="M9.217,15.353c0.185-0.184,0.185-0.484,0-0.666l-0.635-0.636l-0.667,0.667l0.635,0.635
		C8.734,15.536,9.032,15.536,9.217,15.353z"/>
	<path fill="#F1EDCD" d="M8.582,14.051l-0.62-0.62c-0.185-0.184-0.483-0.184-0.667,0l0.955,0.953L8.582,14.051L8.582,14.051z"/>
	<path fill="#EE4646" d="M9.217,15.353c0.185-0.184,0.185-0.484,0-0.666l-0.635-0.636l-0.333,0.335L9.217,15.353L9.217,15.353z"/>
	<path fill="#BFBEBE" d="M15.592,8.977c0.184-0.184,0.184-0.482,0-0.667l-1.256-1.255c-0.184-0.184-0.482-0.184-0.666,0
		c-0.184,0.185-0.184,0.483,0,0.667l1.255,1.255C15.109,9.161,15.408,9.161,15.592,8.977z"/>
	<path fill="#AEAEAF" d="M15.592,8.977c0.184-0.184,0.184-0.482,0-0.667l-0.634-0.634l-0.667,0.667l0.634,0.634
		C15.109,9.161,15.408,9.161,15.592,8.977z"/>
	<path fill="#CDCCCB" d="M14.958,7.676l-0.622-0.621c-0.184-0.184-0.482-0.184-0.666,0l0.955,0.954L14.958,7.676L14.958,7.676z"/>
	<path fill="#C6C5C5" d="M15.592,8.977c0.184-0.184,0.184-0.482,0-0.667l-0.634-0.634L14.624,8.01L15.592,8.977L15.592,8.977z"/>
	<path fill="#BFBEBE" d="M12.507,12.441c0.184-0.185,0.184-0.482,0-0.667l-1.256-1.255c-0.184-0.185-0.482-0.185-0.666,0
		c-0.185,0.184-0.185,0.482,0,0.666l1.255,1.256C12.024,12.625,12.322,12.625,12.507,12.441z"/>
	<path fill="#AEAEAF" d="M12.507,12.441c0.184-0.185,0.184-0.482,0-0.667l-0.634-0.635l-0.667,0.668l0.634,0.634
		C12.024,12.625,12.322,12.625,12.507,12.441z"/>
	<path fill="#CDCCCB" d="M11.873,11.14l-0.622-0.62c-0.184-0.185-0.482-0.185-0.666,0l0.954,0.953L11.873,11.14z"/>
	<path fill="#C6C5C5" d="M12.507,12.441c0.184-0.185,0.184-0.482,0-0.667l-0.634-0.635l-0.334,0.334L12.507,12.441z"/>
	<path fill="#BFBEBE" d="M14.036,10.709c0.184-0.184,0.184-0.482,0-0.666L12.78,8.787c-0.184-0.184-0.482-0.184-0.666,0
		c-0.186,0.185-0.186,0.483,0,0.667l1.254,1.255C13.554,10.894,13.852,10.894,14.036,10.709z"/>
	<path fill="#AEAEAF" d="M14.036,10.709c0.184-0.184,0.184-0.482,0-0.666l-0.635-0.635l-0.668,0.667l0.635,0.634
		C13.554,10.894,13.852,10.894,14.036,10.709z"/>
	<path fill="#CDCCCB" d="M13.401,9.407L12.78,8.786c-0.184-0.184-0.482-0.184-0.666,0l0.952,0.954L13.401,9.407L13.401,9.407z"/>
	<path fill="#C6C5C5" d="M14.036,10.709c0.184-0.184,0.184-0.482,0-0.666l-0.635-0.635l-0.335,0.334l0.97,0.97V10.709z"/>
	<path fill="#E4DFBC" d="M10.849,13.868c0.184-0.184,0.184-0.482,0-0.666l-1.256-1.256c-0.185-0.184-0.482-0.184-0.667,0
		c-0.185,0.185-0.185,0.482,0,0.667l1.255,1.255C10.365,14.052,10.663,14.052,10.849,13.868z"/>
	<path fill="#ED3432" d="M10.849,13.868c0.184-0.184,0.184-0.482,0-0.666l-0.635-0.636l-0.668,0.667l0.635,0.635
		C10.365,14.052,10.663,14.052,10.849,13.868z"/>
	<path fill="#F1EDCD" d="M10.214,12.565l-0.621-0.621c-0.185-0.184-0.482-0.184-0.667,0l0.953,0.955L10.214,12.565z"/>
	<path fill="#EE4646" d="M10.849,13.868c0.184-0.184,0.184-0.482,0-0.666l-0.635-0.636l-0.335,0.335L10.849,13.868z"/>
</g>
</svg>
