<?xml version="1.0" encoding="utf-8"?>
<!-- Generated by IcoMoon.io -->
<!DOCTYPE svg PUBLIC "-//W3C//DTD SVG 1.1//EN" "http://www.w3.org/Graphics/SVG/1.1/DTD/svg11.dtd">
<svg version="1.1" xmlns="http://www.w3.org/2000/svg" xmlns:xlink="http://www.w3.org/1999/xlink" width="20" height="20" viewBox="0 0 20 20">
<path fill="rgb(37, 183, 211)" d="M19.691 10c0-5.352-4.339-9.691-9.69-9.691s-9.691 4.338-9.691 9.691c0 5.352 4.339 9.69 9.691 9.69s9.69-4.339 9.69-9.69z"></path>
<path fill="rgb(237, 201, 47)" d="M4.579 11.542c2.040 3.201 4.828 2.014 6.321 1.315 0.64-0.3 1.332-0.571 1.933-0.722 0.775-0.195 1.607-0.144 1.848 0.089s0.872 1.127 1.487 0.735c0.154-0.098 0.663-1.207-0.882-3.637l0-0c-0.001-0.002-0.002-0.004-0.004-0.006s-0.002-0.004-0.003-0.006l-0 0c-1.55-2.427-2.771-2.434-2.924-2.336-0.615 0.392-0.071 1.342 0.038 1.659s-0.167 1.117-0.7 1.712c-0.271 0.302-0.745 0.762-1.082 1.082 0.697-1.122 0.738-2.591-0.018-3.778-1.049-1.647-3.243-2.133-4.89-1.084-1.472 0.938-2.047 2.809-1.403 4.372h-0c0.071 0.197 0.171 0.435 0.279 0.605zM9.34 12.276c-0.004 0.003-0.008 0.005-0.012 0.007-0.712 0.325-1.545 0.535-2.36 0.312-0.709-0.233-1.35-0.747-1.813-1.468-0.003-0.004-0.005-0.008-0.008-0.012-0.028-0.044-0.055-0.089-0.081-0.134-0.007-0.011-0.013-0.023-0.020-0.035-0.018-0.031-0.036-0.063-0.053-0.095-0.012-0.022-0.023-0.044-0.034-0.066-0.010-0.020-0.021-0.041-0.031-0.061-0.014-0.029-0.028-0.057-0.041-0.086-0.638-1.386-0.332-2.904 1.013-3.761 1.502-0.957 3.47-0.563 4.427 0.939s0.513 3.502-0.988 4.459z"></path>
<path fill="rgb(237, 201, 47)" d="M8.613 12.786c0.037-0.024 0.059-0.067 0.053-0.114-0.008-0.064-0.067-0.109-0.131-0.102v0c-0.039 0.005-0.946 0.107-1.314-0.681l-0.445-1.197c-0.023-0.061-0.090-0.091-0.151-0.069s-0.091 0.090-0.069 0.151l0.447 1.201c0.001 0.003 0.002 0.005 0.003 0.008 0.439 0.949 1.546 0.821 1.557 0.819 0.018-0.002 0.034-0.008 0.048-0.017z"></path>
<path fill="rgb(244, 213, 83)" d="M8.641 12.356c-0.714 0.128-1.218-0.23-1.35-0.958-0.036-0.201 0.036-0.515 0.237-0.744l-0.72 0.276c-0.060 0.023-0.128-0.007-0.151-0.068s0.007-0.128 0.068-0.151l2.153-0.824c0.005-0.002 0.5-0.194 0.775-0.292 0.112-0.040 0.291-0.052 0.457 0.035 0.168 0.088 0.286 0.254 0.351 0.492 0.107 0.396-0.171 0.679-0.341 0.779-0.412 0.331-1.28-0.175-1.437-0.272-0.399-0.105-0.72-0.060-0.928 0.13-0.199 0.182-0.255 0.464-0.231 0.598 0.147 0.811 0.738 0.83 1.078 0.769 1.693-0.304 2.221-1.838 2.228-1.858 0.021-0.061 0.088-0.093 0.149-0.072s0.094 0.088 0.072 0.149c-0.017 0.050-0.32 0.975-1.243 1.563-0.314 0.2-0.699 0.365-1.165 0.449zM9.994 10.701c0.014-0.007 0.328-0.193 0.24-0.519-0.047-0.173-0.125-0.289-0.233-0.345-0.106-0.055-0.219-0.040-0.269-0.022-0.272 0.097-0.764 0.288-0.769 0.29l-0.611 0.234c0.121 0.005 0.257 0.026 0.408 0.067 0.011 0.003 0.022 0.008 0.032 0.014 0.228 0.143 0.935 0.505 1.185 0.294 0.004-0.003 0.008-0.007 0.013-0.009 0.002-0.001 0.003-0.002 0.005-0.003z"></path>
<path fill="rgb(244, 213, 83)" d="M10.010 11.756c0.004-0.003 0.008-0.006 0.012-0.009 0.731-0.612 0.912-0.944 0.805-1.48-0.097-0.486-0.297-0.819-0.596-0.99-0.37-0.212-0.768-0.1-0.881-0.061-0.176 0.061-2.724 1.058-2.832 1.101-0.061 0.024-0.090 0.092-0.066 0.152s0.092 0.090 0.152 0.066c0.026-0.010 2.651-1.038 2.823-1.098 0.090-0.031 0.404-0.12 0.688 0.043 0.237 0.136 0.4 0.416 0.482 0.832 0.082 0.41-0.016 0.661-0.725 1.255-0.050 0.042-0.056 0.116-0.015 0.165 0.038 0.046 0.104 0.055 0.153 0.024z"></path>
<path fill="rgb(237, 201, 47)" d="M7.054 9.178c-0.005 0.003-0.012 0.008-0.023 0.015v0c-0.099 0.063-0.366 0.212-0.72 0.234-0.319 0.021-0.792-0.062-1.237-0.574-0.010-0.012-1.028-1.227 0.034-2.186 0.003-0.002 0.005-0.005 0.008-0.007s0.027-0.020 0.070-0.047c0.22-0.141 0.802-0.448 1.436-0.273 0.473 0.131 0.865 0.502 1.164 1.103 0.001 0.002 0.002 0.005 0.003 0.007 0.004 0.010 0.4 1.006-0.639 1.668-0.031 0.020-0.064 0.039-0.097 0.058zM6.56 6.567c-0.559-0.155-1.096 0.148-1.247 0.244-0.027 0.017-0.044 0.029-0.052 0.035-0.885 0.804-0.045 1.813-0.009 1.854 0.719 0.826 1.504 0.391 1.654 0.295 0.011-0.007 0.017-0.011 0.018-0.012 0.003-0.002 0.007-0.005 0.011-0.007 0.031-0.018 0.062-0.036 0.091-0.055 0.852-0.543 0.575-1.313 0.55-1.378-0.269-0.536-0.61-0.865-1.015-0.978z"></path>
<path fill="rgb(244, 213, 83)" d="M8.934 12.176c-0.002 0.001-0.005 0.002-0.008 0.002-0.331 0.091-1.019 0.1-1.258-0.515-0.038-0.095-0.934-2.337-1.021-2.599-0.063-0.189 0.031-0.53 0.297-0.775 0.184-0.169 0.574-0.401 1.221-0.207-0.549-1.238-1.277-1.109-1.308-1.103-0.006 0.001-0.013 0.002-0.019 0.003-0.573 0.028-0.976 0.184-1.168 0.453-0.147 0.206-0.126 0.42-0.113 0.466 0.034 0.115 0.336 0.859 0.449 1.136 0.025 0.060-0.004 0.128-0.064 0.153s-0.128-0.004-0.153-0.064c-0.042-0.103-0.414-1.011-0.457-1.159-0.033-0.113-0.045-0.398 0.147-0.668 0.237-0.333 0.688-0.518 1.339-0.551 0.118-0.021 1.044-0.128 1.647 1.448l1.031 2.561c0.035 0.064 0.24 0.46 0.097 0.849-0.063 0.173-0.184 0.315-0.359 0.427-0.087 0.055-0.187 0.103-0.301 0.143zM7.103 8.461c-0.209 0.192-0.262 0.442-0.233 0.529 0.085 0.256 1.007 2.563 1.017 2.588 0.217 0.559 0.912 0.392 0.974 0.376 0.271-0.096 0.443-0.239 0.512-0.427 0.115-0.311-0.082-0.656-0.083-0.66-0.003-0.005-0.005-0.010-0.008-0.015l-0.998-2.479c-0.485-0.198-0.904-0.167-1.181 0.089z"></path>
<path fill="rgb(244, 213, 83)" d="M9.72 7.961c0.164-0.104 0.517-0.367 0.622-0.744 0.063-0.227 0.028-0.456-0.106-0.68-0.001-0.001-0.002-0.003-0.003-0.004-0.011-0.018-0.287-0.431-0.715-0.481-0.244-0.028-0.481 0.066-0.706 0.279-0.002 0.002-0.003 0.003-0.005 0.005-0.015 0.016-0.37 0.405-0.124 1.007 0.003 0.007 0.053 0.134-0.015 0.279-0.071 0.149-0.25 0.272-0.519 0.354-0.003 0.001-0.006 0.002-0.008 0.003l-2.2 0.861c-0.061 0.024-0.090 0.092-0.066 0.152s0.092 0.090 0.152 0.066l2.195-0.859c0.339-0.105 0.562-0.267 0.661-0.483 0.111-0.241 0.021-0.455 0.017-0.464-0.18-0.44 0.051-0.724 0.078-0.754 0.171-0.161 0.344-0.233 0.515-0.213 0.308 0.036 0.527 0.349 0.545 0.375 0.1 0.168 0.126 0.33 0.080 0.495-0.104 0.371-0.539 0.621-0.587 0.647l-1.335 0.559-1.751 0.715c-0.060 0.024-0.089 0.093-0.064 0.153s0.093 0.089 0.153 0.064l1.752-0.715 1.342-0.561c0.003-0.001 0.007-0.003 0.010-0.005 0.005-0.003 0.037-0.020 0.084-0.050z"></path>
<path fill="rgb(237, 201, 47)" d="M6.475 9.137c0 0.18-0.146 0.326-0.326 0.326s-0.326-0.146-0.326-0.326c0-0.18 0.146-0.326 0.326-0.326s0.326 0.146 0.326 0.326z"></path>
<path fill="rgb(237, 201, 47)" d="M7.17 10.639c0 0.18-0.146 0.326-0.326 0.326s-0.326-0.146-0.326-0.326c0-0.18 0.146-0.326 0.326-0.326s0.326 0.146 0.326 0.326z"></path>
<path fill="rgb(244, 213, 83)" d="M8.927 8.941c-0.12-0.188-0.064-0.438 0.124-0.557s0.438-0.064 0.557 0.124c0.12 0.188 0.064 0.438-0.124 0.557s-0.438 0.064-0.557-0.123zM9.059 8.858c0.073 0.115 0.227 0.149 0.342 0.076s0.149-0.227 0.076-0.342c-0.073-0.115-0.227-0.149-0.342-0.076s-0.149 0.227-0.076 0.342z"></path>
<path fill="rgb(237, 201, 47)" d="M4.877 7.968c-0.163-0.425-0.010-2.292 0.080-2.978l-0.136-0.023c-0.034 0.258-0.376 2.527-0.163 3.084l0.219-0.084z"></path>
<path fill="rgb(237, 201, 47)" d="M5.171 4.918c0 0-0.324-0.164-0.561-0.054 0 0 0.162 0.418 0.113 0.831 0 0 0.144 0.187 0.161 0.025 0.041-0.408 0.287-0.803 0.287-0.803z"></path>
<path fill="rgb(244, 213, 83)" d="M8.877 9.265c0.095-0.060 0.19-0.172 0.089-0.423-0.093-0.232-0.316-0.256-0.443-0.216-0.003 0.001-0.007 0.002-0.010 0.004l-2.152 0.9c-0.060 0.025-0.088 0.094-0.063 0.153s0.094 0.088 0.153 0.063l2.145-0.897c0.041-0.011 0.114-0.013 0.152 0.081 0.047 0.117 0.042 0.121-0.044 0.164l-2.1 0.852c-0.060 0.024-0.089 0.093-0.064 0.153s0.093 0.089 0.153 0.064l2.104-0.854c0.003-0.001 0.005-0.002 0.008-0.003 0.022-0.011 0.048-0.023 0.073-0.040z"></path>
<path fill="rgb(237, 201, 47)" d="M5.986 11.34c0.045-0.029 0.066-0.086 0.047-0.138l-0.996-2.781c-0.022-0.061-0.089-0.093-0.15-0.071s-0.093 0.089-0.071 0.15l0.996 2.781c0.022 0.061 0.089 0.093 0.15 0.071 0.008-0.003 0.016-0.007 0.024-0.012z"></path>
<path fill="rgb(237, 201, 47)" d="M5.28 9.451c0.015-0.009 0.022-0.028 0.016-0.045-0.007-0.021-0.029-0.032-0.049-0.025l-0.731 0.234c-0.021 0.007-0.032 0.029-0.025 0.049s0.029 0.032 0.049 0.025l0.731-0.234c0.003-0.001 0.006-0.002 0.009-0.004z"></path>
<path fill="rgb(237, 201, 47)" d="M5.431 9.888c0.015-0.009 0.022-0.027 0.016-0.045-0.007-0.020-0.029-0.032-0.049-0.025l-0.731 0.234c-0.020 0.007-0.032 0.029-0.025 0.049s0.029 0.032 0.049 0.025l0.731-0.234c0.003-0.001 0.006-0.003 0.009-0.004z"></path>
<path fill="rgb(237, 201, 47)" d="M5.554 10.353c0.015-0.009 0.022-0.028 0.016-0.045-0.007-0.020-0.028-0.032-0.049-0.025l-0.731 0.234c-0.021 0.007-0.032 0.029-0.025 0.049s0.029 0.032 0.049 0.025l0.731-0.234c0.003-0.001 0.006-0.002 0.009-0.004z"></path>
<path fill="rgb(237, 201, 47)" d="M5.767 10.797c0.015-0.009 0.022-0.028 0.016-0.045-0.007-0.021-0.029-0.032-0.049-0.025l-0.731 0.234c-0.021 0.007-0.032 0.029-0.025 0.049s0.029 0.032 0.049 0.025l0.731-0.234c0.003-0.001 0.006-0.003 0.009-0.004z"></path>
<path fill="rgb(237, 201, 47)" d="M6.81 9.881c0 0.18-0.146 0.326-0.326 0.326s-0.326-0.146-0.326-0.326c0-0.18 0.146-0.326 0.326-0.326s0.326 0.146 0.326 0.326z"></path>
<path fill="rgb(237, 201, 47)" d="M10.831 11.216c-0 0.011-0 0.023 0 0.034-0.007 0.015-0.026 0.061-0.031 0.070-0.046 0.082-0.046 0.081-0.109 0.158-0.126 0.153-0.267 0.295-0.416 0.425-0.137 0.12-0.284 0.232-0.439 0.329-0.068 0.043-0.138 0.086-0.211 0.12 0.076-0.036-0.175 0.031-0.044 0.017-0.101 0.011-0.177 0.058-0.228 0.121-0.040-0.056-0.082-0.111-0.128-0.162 0.035-0.015 0.069-0.030 0.103-0.046 0.004-0.003 0.008-0.005 0.012-0.007 0.811-0.517 1.313-1.339 1.453-2.222 0.105 0.004 0.211 0.003 0.316 0.002-0.070 0.484-0.239 0.952-0.499 1.371 0.069-0.065 0.143-0.137 0.221-0.211z"></path>
<path fill="rgb(242, 214, 95)" d="M12.548 11.657c-0.605 0.349-1.232 0.659-1.871 0.934-0.319 0.138-0.641 0.268-0.965 0.391-0.16 0.061-0.329 0.125-0.5 0.175-0.171 0.051-0.346 0.092-0.522 0.121-0.353 0.059-0.716 0.072-1.072 0.026s-0.704-0.148-1.026-0.302c-0.322-0.153-0.618-0.354-0.882-0.588s-0.498-0.5-0.695-0.791c-0.194-0.293-0.356-0.604-0.48-0.931s-0.204-0.671-0.229-1.019c-0.026-0.348 0.005-0.699 0.092-1.035 0.044-0.168 0.101-0.332 0.172-0.489s0.154-0.31 0.258-0.448c-0.098 0.142-0.175 0.297-0.24 0.456s-0.115 0.324-0.152 0.491c-0.074 0.335-0.090 0.68-0.052 1.018 0.075 0.679 0.366 1.318 0.759 1.867 0.401 0.542 0.935 0.992 1.547 1.256 0.306 0.132 0.63 0.214 0.959 0.243s0.662 0.006 0.986-0.061c0.162-0.034 0.322-0.077 0.479-0.131s0.309-0.116 0.469-0.184c0.315-0.134 0.628-0.301 0.949-0.484 0.586-0.38 1.056-0.756 1.586-1.217 0.401-0.349 1.581-1.487 2.474-2.602 0.22 0.267 0.451 0.583 0.69 0.957l0-0c0.001 0.002 0.002 0.004 0.003 0.006s0.002 0.004 0.004 0.006l-0 0c0.217 0.342 0.394 0.657 0.536 0.948-0.455 0.142-0.94 0.307-1.373 0.481-0.652 0.261-1.296 0.559-1.901 0.908z"></path>
</svg>
