<?xml version="1.0" encoding="utf-8"?>
<!-- Generator: Adobe Illustrator 16.0.0, SVG Export Plug-In . SVG Version: 6.00 Build 0)  -->
<!DOCTYPE svg PUBLIC "-//W3C//DTD SVG 1.1//EN" "http://www.w3.org/Graphics/SVG/1.1/DTD/svg11.dtd">
<svg version="1.1" id="Layer_1" xmlns="http://www.w3.org/2000/svg" xmlns:xlink="http://www.w3.org/1999/xlink" x="0px" y="0px"
	 width="20px" height="20px" viewBox="0 0 20 20" enable-background="new 0 0 20 20" xml:space="preserve">
<g>
	<path fill="#FABC3D" d="M19.69,10.001c0-5.353-4.34-9.691-9.69-9.691s-9.69,4.338-9.69,9.691c0,5.352,4.339,9.689,9.69,9.689
		C15.353,19.69,19.69,15.353,19.69,10.001z"/>
	<path fill="#B1B2B2" d="M10.26,14.573c2.368-0.03,4.279-0.699,4.27-1.495c0-0.004-0.001-0.339-0.001-0.343l-0.087-5.231
		L5.864,7.612l0.089,5.109c0,0.002,0,0.37,0,0.371c0,0.788,1.938,1.51,4.308,1.479L10.26,14.573z"/>
	<path fill="#238587" d="M5.856,7.287l8.576-0.11l0.089,5.239l-8.577,0.108L5.856,7.287z"/>
	<path fill="#B1B2B2" d="M14.433,7.146c-0.01-0.795-1.938-1.416-4.306-1.385C7.758,5.792,5.847,6.46,5.856,7.256
		c0.002,0.151-0.002,0.725,0,0.881c0.01,0.796,1.938,1.416,4.307,1.385c2.369-0.03,4.28-0.699,4.27-1.495
		C14.431,7.875,14.435,7.302,14.433,7.146z"/>
	<path fill="#CCCECE" d="M6.135,7.252c-0.011-0.744,1.777-1.37,3.994-1.398c2.216-0.027,4.019,0.552,4.027,1.296
		c0.01,0.744-1.778,1.37-3.994,1.398C7.947,8.576,6.144,7.996,6.135,7.252z"/>
	<path fill="#238587" d="M5.945,12.53c-0.01-0.795,1.902-1.465,4.271-1.495c2.367-0.03,4.297,0.59,4.307,1.385
		s-1.902,1.465-4.27,1.495c-2.368,0.029-4.298-0.59-4.308-1.387V12.53z"/>
	<path fill="#CCCECE" d="M10.634,9.369c0,0.499-0.197,1.229-0.441,1.229s-0.44-0.729-0.44-1.229c0-0.499,0.196-0.58,0.44-0.58
		S10.634,8.869,10.634,9.369z"/>
	<path fill="#CCCECE" d="M9.753,13.913c0-0.499,0.196-1.229,0.44-1.229s0.441,0.729,0.441,1.229c0,0.499-0.197,0.58-0.441,0.58
		S9.753,14.413,9.753,13.913z"/>
	<path fill="#CCCECE" d="M6.243,8.317c0,0.499-0.148,1.229-0.332,1.229c-0.183,0-0.332-0.729-0.332-1.229
		c0-0.499,0.149-0.58,0.332-0.58C6.095,7.737,6.243,7.817,6.243,8.317z"/>
	<path fill="#CCCECE" d="M5.579,12.46c0-0.499,0.149-1.229,0.332-1.229c0.184,0,0.332,0.729,0.332,1.229
		c0,0.499-0.148,0.58-0.332,0.58C5.729,13.04,5.579,12.96,5.579,12.46z"/>
	<path fill="#CCCECE" d="M14.745,8.317c0,0.499-0.148,1.229-0.332,1.229c-0.183,0-0.332-0.729-0.332-1.229
		c0-0.499,0.149-0.58,0.332-0.58C14.597,7.737,14.745,7.817,14.745,8.317z"/>
	<path fill="#CCCECE" d="M14.08,12.46c0-0.499,0.149-1.229,0.332-1.229s0.332,0.729,0.332,1.229c0,0.499-0.149,0.58-0.332,0.58
		S14.08,12.96,14.08,12.46z"/>
	<path fill="#5B371E" d="M14.56,6.972l-8.811-0.2c-0.063,0-0.115-0.052-0.115-0.116c0-0.063,0.052-0.115,0.115-0.115l8.811-0.2
		c0.176,0,0.316,0.142,0.316,0.315C14.876,6.83,14.734,6.972,14.56,6.972z"/>
	<path fill="#6D4326" d="M14.4,5.356L6.289,8.803c-0.058,0.026-0.127,0-0.152-0.058C6.11,8.687,6.136,8.618,6.194,8.592L14.14,4.78
		c0.16-0.071,0.347-0.001,0.418,0.158C14.63,5.098,14.56,5.286,14.4,5.356z"/>
</g>
</svg>
