<?xml version="1.0" encoding="utf-8"?>
<!-- Generator: Adobe Illustrator 16.0.0, SVG Export Plug-In . SVG Version: 6.00 Build 0)  -->
<!DOCTYPE svg PUBLIC "-//W3C//DTD SVG 1.1//EN" "http://www.w3.org/Graphics/SVG/1.1/DTD/svg11.dtd">
<svg version="1.1" id="Layer_1" xmlns="http://www.w3.org/2000/svg" xmlns:xlink="http://www.w3.org/1999/xlink" x="0px" y="0px"
	 width="20px" height="20px" viewBox="0 0 20 20" enable-background="new 0 0 20 20" xml:space="preserve">
<g>
	<path fill="#FABC3D" d="M19.69,10c0-5.353-4.339-9.69-9.69-9.69S0.31,4.648,0.31,10c0,5.351,4.338,9.69,9.69,9.69
		S19.69,15.352,19.69,10z"/>
	<path fill="#232323" d="M17.28,10c0-4.021-3.26-7.281-7.28-7.281C5.979,2.72,2.72,5.979,2.72,10c0,4.02,3.259,7.28,7.28,7.28
		C14.021,17.28,17.28,14.021,17.28,10z"/>
	<path fill="#333333" d="M16.777,7.334c-0.741-1.882-2.243-3.38-4.126-4.116L9.903,9.782l-6.696,2.84
		c0.733,1.9,2.241,3.415,4.137,4.158l2.772-6.62L16.777,7.334L16.777,7.334z"/>
	<path d="M16.317,9.946h-0.118c-0.032,0-0.059,0.027-0.059,0.059c0,3.383-2.753,6.137-6.136,6.137c-0.033,0-0.059,0.025-0.059,0.059
		v0.117c0,0.032,0.027,0.059,0.059,0.059c1.702,0,3.302-0.663,4.505-1.865c1.203-1.204,1.865-2.804,1.865-4.506
		C16.375,9.973,16.35,9.946,16.317,9.946L16.317,9.946z"/>
	<path d="M10.005,15.134c-0.033,0-0.059,0.026-0.059,0.059v0.117c0,0.032,0.027,0.059,0.059,0.059c2.958,0,5.363-2.405,5.363-5.363
		c0-0.032-0.026-0.059-0.059-0.059h-0.117c-0.033,0-0.06,0.026-0.06,0.059C15.133,12.833,12.832,15.134,10.005,15.134L10.005,15.134
		z"/>
	<path d="M9.946,14.132v0.117c0,0.032,0.027,0.059,0.059,0.059c1.147,0,2.227-0.448,3.041-1.262
		c0.813-0.813,1.261-1.894,1.261-3.041c0-0.032-0.026-0.059-0.059-0.059H14.13c-0.031,0-0.059,0.026-0.059,0.06
		c0,2.243-1.824,4.067-4.067,4.067C9.972,14.073,9.946,14.099,9.946,14.132L9.946,14.132z"/>
	<path d="M10,3.864c0.032,0,0.059-0.026,0.059-0.059V3.688c0-0.033-0.026-0.059-0.059-0.059c-1.702,0-3.302,0.663-4.505,1.866
		C4.292,6.698,3.63,8.298,3.63,10c0,0.032,0.026,0.059,0.059,0.059h0.118c0.03,0,0.056-0.023,0.058-0.053c0-0.001,0-0.004,0-0.006
		c0-1.636,0.639-3.176,1.799-4.336S8.365,3.864,10,3.864L10,3.864z"/>
	<path d="M10,4.872c0.032,0,0.059-0.026,0.059-0.059V4.696c0-0.016-0.006-0.031-0.018-0.042C10.03,4.643,10.016,4.637,10,4.637
		c-2.958,0-5.363,2.406-5.363,5.364c0,0.033,0.026,0.059,0.059,0.059h0.118c0.032,0,0.059-0.027,0.059-0.059
		c0-1.368,0.534-2.655,1.504-3.625C7.345,5.406,8.633,4.872,10,4.872L10,4.872z"/>
	<path d="M10.059,5.875V5.757c0-0.015-0.006-0.031-0.018-0.042C10.03,5.704,10.015,5.698,10,5.698c-2.372,0-4.302,1.93-4.302,4.302
		c0,0.032,0.026,0.059,0.059,0.059h0.118c0.033,0,0.059-0.026,0.059-0.06c0-2.243,1.825-4.067,4.067-4.067
		C10.033,5.933,10.059,5.906,10.059,5.875L10.059,5.875z"/>
	<path fill="#191919" d="M13.289,10c0-1.817-1.473-3.289-3.289-3.289S6.711,8.183,6.711,10c0,1.816,1.473,3.289,3.289,3.289
		S13.289,11.816,13.289,10z"/>
	<path fill="#29C183" d="M12.645,10c0-1.461-1.184-2.645-2.645-2.645S7.355,8.539,7.355,10S8.539,12.645,10,12.645
		S12.645,11.461,12.645,10L12.645,10z"/>
	<path fill="#FFFFFF" d="M10.45,10c0,0.249-0.201,0.45-0.45,0.45S9.55,10.249,9.55,10S9.751,9.55,10,9.55S10.45,9.751,10.45,10z"/>
</g>
</svg>
