<?xml version="1.0" encoding="utf-8"?>
<!-- Generated by IcoMoon.io -->
<!DOCTYPE svg PUBLIC "-//W3C//DTD SVG 1.1//EN" "http://www.w3.org/Graphics/SVG/1.1/DTD/svg11.dtd">
<svg version="1.1" xmlns="http://www.w3.org/2000/svg" xmlns:xlink="http://www.w3.org/1999/xlink" width="20" height="20" viewBox="0 0 20 20">
<path fill="rgb(37, 183, 211)" d="M19.691 10c0-5.352-4.339-9.691-9.69-9.691s-9.691 4.338-9.691 9.691c0 5.352 4.339 9.69 9.691 9.69s9.69-4.339 9.69-9.69z"></path>
<path fill="rgb(58, 58, 56)" d="M5.527 2.794l0.573-0.128c0 0 0.129-0.011 0.193-0.075l0.728 0.086 0.011 0.054 0.348 0.064-0.016 0.396-0.391 0.016-0.016 0.043h-0.15c0 0-0.98-0.182-1.279-0.455z"></path>
<path fill="rgb(237, 201, 47)" d="M7.34 2.875v0.289c0 0 0.464 0.13 1.41-0.242 0 0 0.62-0.305 1.024 0.1 0.071 0.071 0.157 0.178 0.157 0.514l-0.030 0.978-0.393 11.256c0 0-0.096 1.783 1.493 1.879 0 0 1.028 0.064 1.397-0.979 0 0 0.161-0.514 0.177-1.622 0 0 0.051-3.354 1.040-3.719 0 0 0.877-0.2 0.858-0.227-0.005-0.007-0.272-0.554-0.838-1.12-0.596-0.596-1.118-0.918-1.118-0.918-0.021 0.027-0.235 0.827-0.265 0.871-0.659 0.963-0.947 2.31-0.947 3.873l-0.036 2.006c0 0 0.029 0.55-0.285 0.557 0 0-0.343 0.050-0.314-0.421l-0.171-12.433c0 0 0.029-0.528-0.389-0.914 0 0-0.31-0.321-0.867-0.236 0 0-0.401 0.016-0.717 0.214 0-0-0.437 0.333-1.185 0.295z"></path>
<path fill="rgb(237, 201, 47)" d="M10.773 9.924c0 0.183-0.098 0.332-0.219 0.332s-0.219-0.149-0.219-0.332c0-0.183 0.098-0.332 0.219-0.332s0.219 0.149 0.219 0.332z"></path>
<path fill="rgb(237, 201, 47)" d="M10.741 9.113c0 0.161-0.086 0.291-0.193 0.291s-0.193-0.13-0.193-0.291c0-0.161 0.086-0.291 0.193-0.291s0.193 0.13 0.193 0.291z"></path>
<path fill="rgb(237, 201, 47)" d="M10.816 10.812c0 0.201-0.108 0.364-0.241 0.364s-0.241-0.163-0.241-0.364c0-0.201 0.108-0.364 0.241-0.364s0.241 0.163 0.241 0.364z"></path>
<path fill="rgb(237, 201, 47)" d="M10.858 11.771c0 0.219-0.117 0.397-0.262 0.397s-0.262-0.178-0.262-0.397c0-0.219 0.117-0.397 0.262-0.397s0.262 0.178 0.262 0.397z"></path>
<path fill="rgb(237, 201, 47)" d="M10.869 12.769c0 0.215-0.115 0.389-0.257 0.389s-0.257-0.174-0.257-0.389c0-0.215 0.115-0.389 0.257-0.389s0.257 0.174 0.257 0.389z"></path>
<path fill="rgb(237, 201, 47)" d="M10.912 13.893c0 0.226-0.121 0.41-0.271 0.41s-0.271-0.183-0.271-0.41c0-0.226 0.121-0.41 0.271-0.41s0.271 0.183 0.271 0.41z"></path>
<path fill="rgb(237, 201, 47)" d="M10.998 15.050c0 0.262-0.141 0.475-0.314 0.475s-0.314-0.212-0.314-0.475c0-0.262 0.141-0.475 0.314-0.475s0.314 0.212 0.314 0.475z"></path>
<path fill="rgb(237, 201, 47)" d="M10.73 8.288c0 0.161-0.086 0.291-0.193 0.291s-0.193-0.13-0.193-0.291c0-0.161 0.086-0.291 0.193-0.291s0.193 0.13 0.193 0.291z"></path>
<path fill="rgb(237, 201, 47)" d="M10.762 7.41c0 0.161-0.086 0.291-0.193 0.291s-0.193-0.13-0.193-0.291c0-0.161 0.086-0.291 0.193-0.291s0.193 0.13 0.193 0.291z"></path>
<path fill="rgb(252, 227, 122)" d="M11.701 11.914c0 0-0.039-1.211 0.753-1.704l-0.753 1.704z"></path>
<path fill="rgb(252, 227, 122)" d="M10.996 17.521c0 0 1.177 0.021 1.355-1.164 0 0-0.281 0.486-0.623 0.76s-0.732 0.404-0.732 0.404z"></path>
<path fill="rgb(252, 227, 122)" d="M9.488 2.415c0 0 0.595 0 0.893 0.724 0 0-0.136-0.197-0.426-0.429s-0.467-0.294-0.467-0.294z"></path>
<path fill="rgb(122, 122, 122)" d="M5.905 2.764c0 0-0.313 0.051-0.067 0.123l0.282 0.082-0.216-0.205z"></path>
</svg>
