<?xml version="1.0" encoding="utf-8"?>
<!-- Generated by IcoMoon.io -->
<!DOCTYPE svg PUBLIC "-//W3C//DTD SVG 1.1//EN" "http://www.w3.org/Graphics/SVG/1.1/DTD/svg11.dtd">
<svg version="1.1" xmlns="http://www.w3.org/2000/svg" xmlns:xlink="http://www.w3.org/1999/xlink" width="20" height="20" viewBox="0 0 20 20">
<path fill="rgb(250, 188, 61)" d="M19.691 10c0-5.352-4.339-9.691-9.69-9.691s-9.691 4.338-9.691 9.691c0 5.352 4.339 9.69 9.691 9.69s9.69-4.339 9.69-9.69z"></path>
<path fill="rgb(41, 41, 41)" d="M13.635 12.748c0 0 0.453-0.416 0.424-1.932 0 0 0.012-1.040 0.208-1.137 0.256-0.126 0.669 0.022 0.55 0.364-0.022 0.063-0.178 0.149-0.268-0.030 0 0-0.119-0.119-0.119 0.089 0 0 0.275 2.318-0.111 3.061l-0.684-0.416z"></path>
<path fill="rgb(102, 61, 38)" d="M16.158 15.608l-0.764-0.828-4.031-1.023-4.032 1.023-0.765 0.828 4.796 1.743 0.001-0.005v0.005z"></path>
<path fill="rgb(130, 72, 49)" d="M11.362 13.757l-4.032 1.023 4.032 1.469 4.032-1.469z"></path>
<path fill="rgb(81, 46, 29)" d="M16.158 15.608l-4.796 1.743-0-1.102 4.032-1.469z"></path>
<path fill="rgb(107, 59, 40)" d="M6.565 15.608l4.796 1.743 0-1.102-4.031-1.469z"></path>
<path fill="rgb(102, 61, 38)" d="M15.391 14.777l-0.009-1.463-4.020-1.465-4.021 1.465-0.009 1.463 4.029 1.465 0.001-0.004v0.004z"></path>
<path fill="rgb(130, 72, 49)" d="M11.362 11.849l-4.020 1.465 4.020 1.465 4.020-1.465z"></path>
<path fill="rgb(102, 61, 38)" d="M15.391 14.777l-4.029 1.465 0-1.463 4.020-1.465z"></path>
<path fill="rgb(119, 68, 43)" d="M7.332 14.777l4.029 1.465v-1.463l-4.020-1.465z"></path>
<path fill="rgb(45, 25, 18)" d="M13.677 14.429c0 0.125-0.089 0.226-0.199 0.226s-0.199-0.101-0.199-0.226c0-0.125 0.089-0.226 0.199-0.226s0.199 0.101 0.199 0.226z"></path>
<path fill="rgb(212, 212, 212)" d="M14.656 15.841c0 0-0.396-0.138-0.423-0.148-0.052-0.019-0.087-0.069-0.092-0.129-0.003-0.042 0-0.819-0-0.869s-0.023-0.133-0.090-0.163c-0.083-0.037-0.577-0.204-0.577-0.204-0.044-0.015-0.092 0.008-0.107 0.052s0.008 0.092 0.052 0.107c0 0 0.396 0.138 0.423 0.148 0.052 0.019 0.087 0.069 0.092 0.129 0.003 0.042-0 0.819 0 0.869s0.023 0.133 0.090 0.163c0.083 0.037 0.577 0.204 0.577 0.204 0.044 0.015 0.092-0.008 0.107-0.052s-0.008-0.092-0.052-0.107z"></path>
<path fill="rgb(22, 22, 22)" d="M14.694 15.775c0 0-0.314-0.117-0.356-0.133-0.079-0.030-0.133-0.106-0.141-0.198l-0.319 0.031c-0.013 0.038-0 0.067 0 0.076 0.001 0.076 0.035 0.205 0.138 0.25 0.127 0.056 0.592 0.217 0.592 0.217 0.067 0.023 0.141-0.012 0.164-0.079s-0.012-0.141-0.079-0.164z"></path>
<path fill="rgb(19, 56, 41)" d="M13.674 13.268c0 0.525-1.044 0.951-2.333 0.951s-2.333-0.426-2.333-0.951c0-0.525 1.044-0.951 2.333-0.951s2.333 0.426 2.333 0.951z"></path>
<path fill="rgb(31, 96, 72)" d="M13.674 13.070c0 0.525-1.044 0.951-2.333 0.951s-2.333-0.426-2.333-0.951c0-0.525 1.044-0.951 2.333-0.951s2.333 0.426 2.333 0.951z"></path>
<path fill="rgb(15, 48, 35)" d="M11.451 13.070c0 0.039-0.049 0.070-0.11 0.070s-0.11-0.032-0.11-0.070c0-0.039 0.049-0.070 0.11-0.070s0.11 0.032 0.11 0.070z"></path>
<path fill="rgb(165, 144, 111)" d="M13.477 9.157l-2.715-1.248c-1.427-0.634-2.477-3.012-2.477-3.012l-1.585 5.687c3.21-2.12 6.886-0.545 6.886-0.545s0.089 0.109 0.050 0.718c-0.040 0.609-0.446 0.639-0.446 0.639l-1.313 0.292 0.191 0.243 1.129-0.223c0.282-0.052 0.468-0.208 0.468-0.208 0.45-0.405 0.42-1.248 0.42-1.248 0-0.832-0.608-1.095-0.608-1.095z"></path>
<path fill="rgb(146, 126, 89)" d="M5.878 3.431c0 0-0.624 0.030-1.070 1.962 0 0-0.723 0.832-0.723 2.417 0 0-0.575 1.724-0.178 2.477 0 0-0.317 1.526 0.416 1.585 0 0 0.258 1.169 1.149 0.020 0 0 0.971 0 1.506-2.1 0 0 0.991-1.466 1.050-3.448 0 0 0.654-2.14 0-2.933 0 0 0.059-1.684-0.892-1.070 0 0-0.674-0.555-1.258 1.090z"></path>
<path fill="rgb(114, 96, 68)" d="M5.911 4.206c0 0-0.499 0.024-0.856 1.569 0 0-0.578 0.666-0.578 1.933 0 0-0.46 1.379-0.143 1.981 0 0-0.254 1.22 0.333 1.268 0 0 0.206 0.935 0.919 0.016 0 0 0.777 0 1.204-1.68 0 0 0.792-1.173 0.84-2.757 0 0 0.523-1.711 0-2.345 0 0 0.048-1.347-0.713-0.856 0-0-0.539-0.444-1.006 0.872z"></path>
<path fill="rgb(41, 41, 41)" d="M11.471 12.49l0.143 0.452 0.137-0.469z"></path>
<path fill="rgb(142, 121, 94)" d="M11.036 11.902c0.070-0.266 0.33-0.428 0.58-0.362s0.396 0.335 0.325 0.601c-0.070 0.266-0.33 0.428-0.58 0.362s-0.396-0.335-0.325-0.601z"></path>
<path fill="rgb(142, 121, 94)" d="M11.614 11.54l0.117 0.031-0.254 0.963-0.117-0.031 0.254-0.963z"></path>
<path fill="rgb(165, 144, 111)" d="M11.156 11.934c0.070-0.266 0.33-0.428 0.58-0.362s0.396 0.335 0.326 0.601c-0.070 0.266-0.33 0.428-0.58 0.362s-0.396-0.335-0.326-0.601z"></path>
<path fill="rgb(41, 41, 41)" d="M14.116 10.787h-0.488c0 0-0.082-0.104-0.092-0.243s0.092-0.218 0.092-0.218h0.488v0.461z"></path>
</svg>
