<?xml version="1.0" encoding="utf-8"?>
<!-- Generated by IcoMoon.io -->
<!DOCTYPE svg PUBLIC "-//W3C//DTD SVG 1.1//EN" "http://www.w3.org/Graphics/SVG/1.1/DTD/svg11.dtd">
<svg version="1.1" xmlns="http://www.w3.org/2000/svg" xmlns:xlink="http://www.w3.org/1999/xlink" width="20" height="20" viewBox="0 0 20 20">
<path fill="rgb(250, 188, 61)" d="M19.691 10c0-5.352-4.339-9.691-9.69-9.691s-9.691 4.338-9.691 9.691c0 5.352 4.339 9.69 9.691 9.69s9.69-4.339 9.69-9.69z"></path>
<path fill="rgb(170, 111, 41)" d="M12.278 13.375c0-0.873 0.322-1.128 0.322-1.827 0-1.542-1.18-1.885-2.635-1.885s-2.635 0.343-2.635 1.885c0 0.699 0.321 0.982 0.321 1.827s-0.997 1.657-0.997 2.802c0 1.938 1.482 2.458 3.311 2.458s3.311-0.52 3.311-2.458c0-1.145-0.997-1.929-0.997-2.802z"></path>
<path fill="rgb(122, 85, 41)" d="M11.098 12.139c0 0.638-0.516 1.154-1.154 1.154s-1.154-0.517-1.154-1.154c0-0.637 0.517-1.154 1.154-1.154s1.154 0.516 1.154 1.154z"></path>
<path fill="rgb(76, 51, 27)" d="M10.8 12.139c0 0.473-0.383 0.856-0.855 0.856s-0.856-0.383-0.856-0.856c0-0.472 0.383-0.855 0.856-0.855s0.855 0.383 0.855 0.855z"></path>
<path fill="rgb(99, 68, 33)" d="M9.941 12.994c-0.038 0-0.075-0.005-0.113-0.009 0.037 0.005 0.074 0.009 0.113 0.009z"></path>
<path fill="rgb(99, 68, 33)" d="M9.944 12.995c0.042 0 0.083-0.004 0.123-0.010-0.041 0.004-0.081 0.010-0.124 0.010h0.001z"></path>
<path fill="rgb(112, 76, 33)" d="M9.943 12.995h0.001c-0.001 0-0.002 0-0.003-0 0 0 0.002 0 0.002 0z"></path>
<path fill="rgb(112, 76, 33)" d="M10.604 11.594l-0.001-0.105-0.186-8.274h-0.931l-0.186 8.262-0.001 0.102-0.013 1.106c0.134 0.161 0.325 0.272 0.543 0.301 0.037 0.004 0.074 0.009 0.113 0.009 0.001 0 0.002 0 0.003 0 0.042 0 0.083-0.005 0.124-0.010 0.222-0.032 0.417-0.149 0.549-0.318l-0.013-1.073z"></path>
<path fill="rgb(112, 76, 33)" d="M9.941 1.411c-0.332 0-0.601 0.122-0.601 0.486v1.203c0 0.364 0.269 0.659 0.601 0.659s0.601-0.295 0.601-0.659v-1.203c0-0.364-0.269-0.486-0.601-0.486z"></path>
<path fill="rgb(112, 76, 33)" d="M9.941 1.36c-0.020 0-0.089-0.046-0.166-0.044-0.071 0.001-0.234 0.236-0.234 0.236 0 0.364 0.179 0.659 0.4 0.659s0.4-0.295 0.4-0.659c0 0-0.171-0.238-0.242-0.237-0.073 0.001-0.136 0.045-0.158 0.045z"></path>
<path fill="rgb(122, 85, 41)" d="M11.543 16.262c0 0.11-0.089 0.199-0.199 0.199h-2.712c-0.11 0-0.199-0.089-0.199-0.199v0c0-0.11 0.089-0.199 0.199-0.199h2.712c0.11 0 0.199 0.089 0.199 0.199v0z"></path>
<path fill="rgb(122, 85, 41)" d="M10.954 16.262c0 0.068-0.055 0.123-0.123 0.123h-1.685c-0.068 0-0.123-0.055-0.123-0.123v0c0-0.068 0.055-0.124 0.123-0.124h1.685c0.068-0 0.123 0.055 0.123 0.124v0z"></path>
<path fill="rgba(211, 211, 211, 0.5)" d="M9.484 16.28h-0.053l0.131-13.522h0.042z"></path>
<path fill="rgba(211, 211, 211, 0.5)" d="M10.274 16.268h-0.053l-0.067-14.029h0.042z"></path>
<path fill="rgba(211, 211, 211, 0.5)" d="M10.474 16.269h-0.053l-0.126-13.502h0.042z"></path>
<path fill="rgba(211, 211, 211, 0.5)" d="M9.691 16.271h-0.053l0.074-14.026h0.042z"></path>
<path fill="rgba(211, 211, 211, 0.5)" d="M10.080 16.28h-0.053l-0.020-14.541h0.042z"></path>
<path fill="rgba(211, 211, 211, 0.5)" d="M9.871 16.28h-0.053l0.040-14.536h0.042z"></path>
<path fill="rgb(95, 67, 29)" d="M10.629 1.862c-0.037 0-0.067-0.014-0.067-0.031v-0.168c0-0.017 0.030-0.031 0.067-0.031v0c0.037 0 0.067 0.014 0.067 0.031v0.168c0 0.017-0.030 0.031-0.067 0.031v0z"></path>
<path fill="rgb(95, 67, 29)" d="M10.629 2.4c-0.037 0-0.067-0.014-0.067-0.031v-0.168c0-0.017 0.030-0.031 0.067-0.031v0c0.037 0 0.067 0.014 0.067 0.031v0.168c0 0.017-0.030 0.031-0.067 0.031v0z"></path>
<path fill="rgb(95, 67, 29)" d="M10.59 2.729h-0.243c-0.037 0-0.067 0.030-0.067 0.067s0.030 0.067 0.067 0.067h0.243c0.037 0 0.067-0.030 0.067-0.067s-0.030-0.067-0.067-0.067z"></path>
<path fill="rgb(95, 67, 29)" d="M10.629 2.911c-0.037 0-0.067-0.014-0.067-0.031v-0.168c0-0.017 0.030-0.031 0.067-0.031v0c0.037 0 0.067 0.014 0.067 0.031v0.168c0 0.017-0.030 0.031-0.067 0.031v0z"></path>
<path fill="rgb(95, 67, 29)" d="M9.244 1.862c0.037 0 0.067-0.014 0.067-0.031v-0.168c0-0.017-0.030-0.031-0.067-0.031v0c-0.037 0-0.067 0.014-0.067 0.031v0.168c0 0.017 0.030 0.031 0.067 0.031v0z"></path>
<path fill="rgb(95, 67, 29)" d="M9.244 2.4c0.037 0 0.067-0.014 0.067-0.031v-0.168c0-0.017-0.030-0.031-0.067-0.031v0c-0.037 0-0.067 0.014-0.067 0.031v0.168c0 0.017 0.030 0.031 0.067 0.031v0z"></path>
<path fill="rgb(95, 67, 29)" d="M10.658 1.747c0-0.037-0.030-0.067-0.067-0.067h-0.56c-0.037 0-0.067 0.030-0.067 0.067s0.030 0.067 0.067 0.067h0.56c0.037-0 0.067-0.030 0.067-0.067z"></path>
<path fill="rgb(95, 67, 29)" d="M10.59 2.217h-0.388c-0.037 0-0.067 0.030-0.067 0.067s0.030 0.067 0.067 0.067h0.388c0.037 0 0.067-0.030 0.067-0.067s-0.030-0.067-0.067-0.067z"></path>
<path fill="rgb(95, 67, 29)" d="M9.874 1.68h-0.592c-0.037 0-0.067 0.030-0.067 0.067s0.030 0.067 0.067 0.067h0.592c0.037 0 0.067-0.030 0.067-0.067s-0.030-0.067-0.067-0.067z"></path>
<path fill="rgb(95, 67, 29)" d="M9.704 2.217h-0.421c-0.037 0-0.067 0.030-0.067 0.067s0.030 0.067 0.067 0.067h0.421c0.037 0 0.067-0.030 0.067-0.067s-0.030-0.067-0.067-0.067z"></path>
<path fill="rgb(95, 67, 29)" d="M9.559 2.729h-0.277c-0.037 0-0.067 0.030-0.067 0.067s0.030 0.067 0.067 0.067h0.277c0.037 0 0.067-0.030 0.067-0.067s-0.030-0.067-0.067-0.067z"></path>
<path fill="rgb(95, 67, 29)" d="M9.244 2.911c0.037 0 0.067-0.014 0.067-0.031v-0.168c0-0.017-0.030-0.031-0.067-0.031v0c-0.037 0-0.067 0.014-0.067 0.031v0.168c0 0.017 0.030 0.031 0.067 0.031v0z"></path>
<path fill="rgb(84, 57, 25)" d="M9.935 1.75c0 0.048-0.039 0.088-0.088 0.088s-0.088-0.039-0.088-0.088c0-0.049 0.039-0.088 0.088-0.088s0.088 0.039 0.088 0.088z"></path>
<path fill="rgb(84, 57, 25)" d="M10.136 1.75c0 0.048-0.039 0.088-0.088 0.088s-0.088-0.039-0.088-0.088c0-0.049 0.039-0.088 0.088-0.088s0.088 0.039 0.088 0.088z"></path>
<path fill="rgb(84, 57, 25)" d="M9.807 2.281c0 0.048-0.039 0.088-0.088 0.088s-0.088-0.039-0.088-0.088c0-0.049 0.039-0.088 0.088-0.088s0.088 0.039 0.088 0.088z"></path>
<path fill="rgb(84, 57, 25)" d="M10.263 2.281c0 0.048-0.039 0.088-0.088 0.088s-0.088-0.039-0.088-0.088c0-0.049 0.039-0.088 0.088-0.088s0.088 0.039 0.088 0.088z"></path>
<path fill="rgb(84, 57, 25)" d="M9.663 2.798c0 0.049-0.039 0.088-0.088 0.088s-0.088-0.039-0.088-0.088 0.039-0.088 0.088-0.088 0.088 0.039 0.088 0.088z"></path>
<path fill="rgb(84, 57, 25)" d="M10.408 2.798c0 0.049-0.039 0.088-0.088 0.088s-0.088-0.039-0.088-0.088 0.039-0.088 0.088-0.088 0.088 0.039 0.088 0.088z"></path>
</svg>
