<?xml version="1.0" encoding="utf-8"?>
<!-- Generated by IcoMoon.io -->
<!DOCTYPE svg PUBLIC "-//W3C//DTD SVG 1.1//EN" "http://www.w3.org/Graphics/SVG/1.1/DTD/svg11.dtd">
<svg version="1.1" xmlns="http://www.w3.org/2000/svg" xmlns:xlink="http://www.w3.org/1999/xlink" width="20" height="20" viewBox="0 0 20 20">
<path fill="rgb(50, 190, 166)" d="M19.691 10c0-5.352-4.339-9.691-9.691-9.691s-9.691 4.338-9.691 9.691c0 5.352 4.339 9.69 9.691 9.69s9.691-4.339 9.691-9.69z"></path>
<path fill="rgb(51, 77, 92)" d="M11.723 13.306c0 0-0.959-0.309-1.567-0.309s-1.567 0.309-1.567 0.309l-2.865-6.971c0 0 1.584-0.944 4.421-0.944s4.445 0.943 4.445 0.943l-2.867 6.971z"></path>
<path fill="rgb(53, 112, 142)" d="M10.145 5.195c-0.008 0-0.015 0-0.023 0v7.802c0.011-0 0.023-0.001 0.034-0.001s0.023 0 0.034 0.001v-7.801c-0.015-0-0.030-0-0.045-0z"></path>
<path fill="rgb(53, 112, 142)" d="M10.429 5.199l-0.005 0.195-0.203 7.604c0.022 0.001 0.045 0.002 0.068 0.003l0.203-7.605 0.005-0.195c-0.023-0.001-0.045-0.001-0.068-0.002z"></path>
<path fill="rgb(53, 112, 142)" d="M10.735 5.209l-0.011 0.195-0.413 7.598c0.022 0.002 0.045 0.003 0.067 0.006l0.423-7.795c-0.022-0.001-0.045-0.002-0.068-0.003z"></path>
<path fill="rgb(53, 112, 142)" d="M11.023 5.226l-0.615 7.785c0.022 0.002 0.045 0.005 0.067 0.008l0.615-7.787c-0.022-0.002-0.045-0.003-0.067-0.005z"></path>
<path fill="rgb(53, 112, 142)" d="M11.315 5.251l-0.020 0.193-0.787 7.579c0.022 0.003 0.045 0.006 0.067 0.009l0.807-7.775c-0.022-0.002-0.045-0.004-0.067-0.007z"></path>
<path fill="rgb(53, 112, 142)" d="M11.614 5.283l-0.025 0.192-0.974 7.563c0.022 0.003 0.045 0.007 0.067 0.011l0.999-7.758c-0.022-0.003-0.045-0.006-0.067-0.008z"></path>
<path fill="rgb(53, 112, 142)" d="M11.921 5.325l-0.030 0.191-1.171 7.54c0.022 0.004 0.045 0.008 0.067 0.012l1.201-7.733c-0.022-0.003-0.044-0.007-0.067-0.010z"></path>
<path fill="rgb(53, 112, 142)" d="M12.22 5.374l-0.035 0.189-1.371 7.51c0.022 0.004 0.045 0.009 0.067 0.013l1.406-7.7c-0.022-0.004-0.044-0.008-0.067-0.012z"></path>
<path fill="rgb(53, 112, 142)" d="M12.519 5.432l-1.595 7.664c0.022 0.005 0.044 0.010 0.066 0.014l1.595-7.664c-0.022-0.005-0.044-0.009-0.067-0.014z"></path>
<path fill="rgb(53, 112, 142)" d="M12.834 5.502l-0.044 0.185-1.761 7.431c0.022 0.005 0.045 0.010 0.066 0.015l1.805-7.615c-0.022-0.005-0.044-0.011-0.066-0.016z"></path>
<path fill="rgb(53, 112, 142)" d="M13.135 5.58l-0.048 0.182-1.957 7.38c0.023 0.005 0.045 0.011 0.066 0.016l2.004-7.56c-0.022-0.006-0.044-0.012-0.066-0.018z"></path>
<path fill="rgb(53, 112, 142)" d="M13.445 5.671l-0.053 0.179-2.157 7.318c0.023 0.006 0.045 0.011 0.066 0.017l2.209-7.493c-0.021-0.007-0.043-0.014-0.065-0.021z"></path>
<path fill="rgb(53, 112, 142)" d="M13.724 5.764l-0.057 0.176-2.34 7.252c0.023 0.006 0.045 0.012 0.066 0.018l2.395-7.423c-0.021-0.008-0.043-0.015-0.065-0.023z"></path>
<path fill="rgb(53, 112, 142)" d="M13.987 5.862l-2.56 7.357c0.023 0.006 0.045 0.013 0.066 0.019l2.558-7.35c-0.021-0.008-0.042-0.017-0.064-0.025z"></path>
<path fill="rgb(53, 112, 142)" d="M14.263 5.977l-0.063 0.168-2.675 7.102c0.024 0.007 0.046 0.013 0.066 0.019l2.734-7.26c-0.020-0.009-0.041-0.019-0.063-0.029z"></path>
<path fill="rgb(53, 112, 142)" d="M14.527 6.104l-2.907 7.17c0.027 0.008 0.050 0.015 0.066 0.020l2.902-7.157c-0.005-0.003-0.026-0.015-0.061-0.033z"></path>
<path fill="rgb(53, 112, 142)" d="M9.891 5.393l-0.005-0.195c-0.023 0-0.045 0.001-0.068 0.002l0.005 0.195 0.203 7.606c0.023-0.001 0.045-0.002 0.068-0.003l-0.203-7.604z"></path>
<path fill="rgb(53, 112, 142)" d="M9.59 5.403l-0.011-0.195c-0.023 0.001-0.045 0.002-0.068 0.003l0.011 0.195 0.413 7.602c0.023-0.002 0.045-0.004 0.067-0.006l-0.413-7.599z"></path>
<path fill="rgb(53, 112, 142)" d="M9.307 5.419l-0.015-0.194c-0.023 0.002-0.045 0.003-0.068 0.005l0.015 0.194 0.6 7.595c0.023-0.003 0.045-0.005 0.067-0.008l-0.6-7.592z"></path>
<path fill="rgb(53, 112, 142)" d="M9.019 5.442l-0.020-0.193c-0.022 0.002-0.045 0.004-0.067 0.006l0.020 0.193 0.787 7.583c0.022-0.003 0.045-0.006 0.067-0.009l-0.787-7.581z"></path>
<path fill="rgb(53, 112, 142)" d="M8.725 5.473l-0.025-0.192c-0.023 0.003-0.045 0.006-0.067 0.008l0.025 0.192 0.974 7.568c0.022-0.004 0.045-0.007 0.067-0.011l-0.974-7.565z"></path>
<path fill="rgb(53, 112, 142)" d="M8.423 5.513l-0.030-0.191c-0.023 0.003-0.045 0.007-0.067 0.010l0.030 0.191 1.172 7.545c0.022-0.004 0.045-0.008 0.067-0.012l-1.172-7.543z"></path>
<path fill="rgb(53, 112, 142)" d="M8.128 5.56l-0.035-0.189c-0.022 0.004-0.045 0.008-0.067 0.012l1.406 7.703c0.022-0.005 0.044-0.009 0.067-0.013l-1.372-7.513z"></path>
<path fill="rgb(53, 112, 142)" d="M7.834 5.615l-0.039-0.187c-0.022 0.005-0.045 0.009-0.067 0.014l0.039 0.187 1.556 7.48c0.022-0.005 0.044-0.010 0.067-0.014l-1.556-7.48z"></path>
<path fill="rgb(53, 112, 142)" d="M7.523 5.683l-0.044-0.185c-0.022 0.005-0.044 0.011-0.066 0.016l0.044 0.185 1.762 7.434c0.022-0.005 0.044-0.010 0.066-0.015l-1.762-7.435z"></path>
<path fill="rgb(53, 112, 142)" d="M7.227 5.758l-0.048-0.182c-0.022 0.006-0.044 0.012-0.066 0.018l0.048 0.182 1.957 7.381c0.022-0.005 0.044-0.011 0.066-0.016l-1.957-7.383z"></path>
<path fill="rgb(53, 112, 142)" d="M6.921 5.846l-0.053-0.179c-0.022 0.007-0.044 0.014-0.065 0.021l2.21 7.496c0.022-0.006 0.044-0.011 0.066-0.017l-2.158-7.321z"></path>
<path fill="rgb(53, 112, 142)" d="M6.646 5.936l-0.057-0.176c-0.022 0.008-0.043 0.015-0.065 0.023l0.056 0.175 2.34 7.25c0.021-0.006 0.044-0.012 0.066-0.018l-2.341-7.255z"></path>
<path fill="rgb(53, 112, 142)" d="M6.386 6.031l-0.060-0.172c-0.022 0.009-0.043 0.017-0.064 0.026l0.060 0.171 2.499 7.181c0.021-0.006 0.043-0.012 0.066-0.019l-2.501-7.187z"></path>
<path fill="rgb(53, 112, 142)" d="M6.114 6.142l-0.063-0.167c-0.022 0.010-0.043 0.019-0.063 0.029l0.063 0.167 2.673 7.095c0.020-0.006 0.043-0.012 0.067-0.019l-2.677-7.103z"></path>
<path fill="rgb(53, 112, 142)" d="M5.853 6.264l-0.065-0.161c-0.034 0.018-0.054 0.030-0.061 0.034l2.901 7.157c0.017-0.005 0.039-0.012 0.066-0.020l-2.841-7.009z"></path>
<path fill="rgb(51, 77, 92)" d="M15.976 6.908l-1.386-0.574-2.867 6.971 1.386 0.574c0.147 0.060 0.315-0.010 0.375-0.156l2.649-6.44c0.060-0.147-0.010-0.315-0.156-0.375z"></path>
<path fill="rgb(42, 65, 76)" d="M14.591 6.334l-2.868 6.971 0.098 0.041 2.867-6.971z"></path>
<path fill="rgb(215, 226, 232)" d="M14.118 8.633c0.032-0.078 0.121-0.115 0.199-0.083s0.115 0.121 0.083 0.199c-0.032 0.078-0.121 0.115-0.199 0.083s-0.115-0.121-0.083-0.199z"></path>
<path fill="rgb(215, 226, 232)" d="M14.665 8.859c0.032-0.078 0.121-0.115 0.199-0.083s0.115 0.121 0.083 0.199c-0.032 0.078-0.122 0.115-0.199 0.083s-0.115-0.121-0.083-0.199z"></path>
<path fill="rgb(215, 226, 232)" d="M13.892 9.179c0.032-0.078 0.121-0.115 0.199-0.083s0.115 0.121 0.083 0.199c-0.032 0.078-0.121 0.115-0.199 0.083s-0.115-0.121-0.083-0.199z"></path>
<path fill="rgb(215, 226, 232)" d="M14.732 9.463c0 0.084-0.068 0.153-0.153 0.153s-0.153-0.068-0.153-0.153c0-0.084 0.068-0.153 0.153-0.153s0.153 0.068 0.153 0.153z"></path>
<path fill="rgb(215, 226, 232)" d="M13.96 9.784c0 0.084-0.068 0.153-0.153 0.153s-0.153-0.068-0.153-0.153c0-0.084 0.068-0.153 0.153-0.153s0.153 0.068 0.153 0.153z"></path>
<path fill="rgb(215, 226, 232)" d="M14.213 9.952c0.032-0.078 0.121-0.115 0.199-0.083s0.115 0.121 0.083 0.199c-0.032 0.078-0.121 0.115-0.199 0.083s-0.115-0.121-0.083-0.199z"></path>
<path fill="rgb(215, 226, 232)" d="M13.441 10.272c0.032-0.078 0.121-0.115 0.199-0.083s0.115 0.121 0.083 0.199c-0.032 0.078-0.121 0.115-0.199 0.083s-0.115-0.121-0.083-0.199z"></path>
<path fill="rgb(215, 226, 232)" d="M14.281 10.556c0 0.084-0.068 0.153-0.153 0.153s-0.153-0.068-0.153-0.153c0-0.084 0.068-0.153 0.153-0.153s0.153 0.068 0.153 0.153z"></path>
<path fill="rgb(215, 226, 232)" d="M13.215 10.819c0.032-0.078 0.121-0.115 0.199-0.083s0.115 0.121 0.083 0.199c-0.032 0.078-0.121 0.115-0.199 0.083s-0.115-0.121-0.083-0.199z"></path>
<path fill="rgb(215, 226, 232)" d="M14.055 11.103c0 0.084-0.068 0.153-0.153 0.153s-0.153-0.068-0.153-0.153c0-0.084 0.068-0.153 0.153-0.153s0.153 0.068 0.153 0.153z"></path>
<path fill="rgb(215, 226, 232)" d="M12.989 11.365c0.032-0.078 0.121-0.115 0.199-0.083s0.115 0.121 0.083 0.199c-0.032 0.078-0.121 0.115-0.199 0.083s-0.115-0.121-0.083-0.199z"></path>
<path fill="rgb(215, 226, 232)" d="M13.829 11.649c0 0.084-0.068 0.153-0.153 0.153s-0.153-0.068-0.153-0.153c0-0.084 0.068-0.153 0.153-0.153s0.153 0.068 0.153 0.153z"></path>
<path fill="rgb(51, 77, 92)" d="M4.339 6.908l1.386-0.573 2.865 6.971-1.386 0.573c-0.147 0.060-0.315-0.010-0.375-0.157l-2.646-6.439c-0.060-0.147 0.010-0.315 0.157-0.375z"></path>
<path fill="rgb(44, 65, 76)" d="M5.105 6.958l-1.139 0.465c-0.118 0.049-0.138 0.272-0.285 0.353l-0.482 0.2c-0.126 0.052-0.186 0.196-0.134 0.321l2.268 5.519c0.052 0.126 0.196 0.186 0.321 0.134l0.482-0.199c0.172-0.079 0.329 0.092 0.448 0.043l1.139-0.465-2.618-6.37z"></path>
<path fill="rgb(215, 226, 232)" d="M5.66 12.449c0 0.070-0.057 0.127-0.127 0.127s-0.127-0.057-0.127-0.127c0-0.070 0.057-0.127 0.127-0.127s0.127 0.057 0.127 0.127z"></path>
<path fill="rgb(215, 226, 232)" d="M4.831 10.446c0 0.070-0.057 0.127-0.127 0.127s-0.127-0.057-0.127-0.127c0-0.070 0.057-0.127 0.127-0.127s0.127 0.057 0.127 0.127z"></path>
<path fill="rgb(215, 226, 232)" d="M5.522 12.115c0 0.070-0.057 0.127-0.127 0.127s-0.127-0.057-0.127-0.127c0-0.070 0.057-0.127 0.127-0.127s0.127 0.057 0.127 0.127z"></path>
<path fill="rgb(215, 226, 232)" d="M5.383 11.781c0 0.070-0.057 0.127-0.127 0.127s-0.127-0.057-0.127-0.127c0-0.070 0.057-0.127 0.127-0.127s0.127 0.057 0.127 0.127z"></path>
<path fill="rgb(215, 226, 232)" d="M5.245 11.448c0 0.070-0.057 0.127-0.127 0.127s-0.127-0.057-0.127-0.127c0-0.070 0.057-0.127 0.127-0.127s0.127 0.057 0.127 0.127z"></path>
<path fill="rgb(215, 226, 232)" d="M5.107 11.114c0 0.070-0.057 0.127-0.127 0.127s-0.127-0.057-0.127-0.127c0-0.070 0.057-0.127 0.127-0.127s0.127 0.057 0.127 0.127z"></path>
<path fill="rgb(215, 226, 232)" d="M4.969 10.78c0 0.070-0.057 0.127-0.127 0.127s-0.127-0.057-0.127-0.127c0-0.070 0.057-0.127 0.127-0.127s0.127 0.057 0.127 0.127z"></path>
<path fill="rgb(215, 226, 232)" d="M4.693 10.112c0 0.070-0.057 0.127-0.127 0.127s-0.127-0.057-0.127-0.127c0-0.070 0.057-0.127 0.127-0.127s0.127 0.057 0.127 0.127z"></path>
<path fill="rgb(215, 226, 232)" d="M4.545 9.73c0.027 0.065-0.004 0.139-0.069 0.166s-0.139-0.004-0.166-0.069c-0.027-0.065 0.004-0.139 0.069-0.166s0.139 0.004 0.166 0.069z"></path>
<path fill="rgb(215, 226, 232)" d="M4.407 9.396c0.027 0.065-0.004 0.139-0.069 0.166s-0.139-0.004-0.166-0.069c-0.027-0.065 0.004-0.139 0.069-0.166s0.139 0.004 0.166 0.069z"></path>
<path fill="rgb(215, 226, 232)" d="M4.279 9.111c0 0.070-0.057 0.127-0.127 0.127s-0.127-0.057-0.127-0.127c0-0.070 0.057-0.127 0.127-0.127s0.127 0.057 0.127 0.127z"></path>
<path fill="rgb(215, 226, 232)" d="M5.253 12.411c0 0.070-0.057 0.127-0.127 0.127s-0.127-0.057-0.127-0.127c0-0.070 0.057-0.127 0.127-0.127s0.127 0.057 0.127 0.127z"></path>
<path fill="rgb(215, 226, 232)" d="M4.425 10.409c0 0.070-0.057 0.127-0.127 0.127s-0.127-0.057-0.127-0.127c0-0.070 0.057-0.127 0.127-0.127s0.127 0.057 0.127 0.127z"></path>
<path fill="rgb(215, 226, 232)" d="M4.277 10.026c0.027 0.065-0.004 0.139-0.069 0.166s-0.139-0.004-0.166-0.069c-0.027-0.065 0.004-0.139 0.069-0.166s0.139 0.004 0.166 0.069z"></path>
<path fill="rgb(215, 226, 232)" d="M4.148 9.741c0 0.070-0.057 0.127-0.127 0.127s-0.127-0.057-0.127-0.127c0-0.070 0.057-0.127 0.127-0.127s0.127 0.057 0.127 0.127z"></path>
<path fill="rgb(215, 226, 232)" d="M4.010 9.407c0 0.070-0.057 0.127-0.127 0.127s-0.127-0.057-0.127-0.127c0-0.070 0.057-0.127 0.127-0.127s0.127 0.057 0.127 0.127z"></path>
<path fill="rgb(215, 226, 232)" d="M5.921 12.135c0 0.070-0.057 0.127-0.127 0.127s-0.127-0.057-0.127-0.127c0-0.070 0.057-0.127 0.127-0.127s0.127 0.057 0.127 0.127z"></path>
<path fill="rgb(215, 226, 232)" d="M5.783 11.801c0 0.070-0.057 0.127-0.127 0.127s-0.127-0.057-0.127-0.127c0-0.070 0.057-0.127 0.127-0.127s0.127 0.057 0.127 0.127z"></path>
<path fill="rgb(215, 226, 232)" d="M5.644 11.467c0 0.070-0.057 0.127-0.127 0.127s-0.127-0.057-0.127-0.127c0-0.070 0.057-0.127 0.127-0.127s0.127 0.057 0.127 0.127z"></path>
<path fill="rgb(215, 226, 232)" d="M5.506 11.134c0 0.070-0.057 0.127-0.127 0.127s-0.127-0.057-0.127-0.127c0-0.070 0.057-0.127 0.127-0.127s0.127 0.057 0.127 0.127z"></path>
<path fill="rgb(215, 226, 232)" d="M5.368 10.8c0 0.070-0.057 0.127-0.127 0.127s-0.127-0.057-0.127-0.127c0-0.070 0.057-0.127 0.127-0.127s0.127 0.057 0.127 0.127z"></path>
<path fill="rgb(215, 226, 232)" d="M5.23 10.466c0 0.070-0.057 0.127-0.127 0.127s-0.127-0.057-0.127-0.127c0-0.070 0.057-0.127 0.127-0.127s0.127 0.057 0.127 0.127z"></path>
<path fill="rgb(215, 226, 232)" d="M5.092 10.132c0 0.070-0.057 0.127-0.127 0.127s-0.127-0.057-0.127-0.127c0-0.070 0.057-0.127 0.127-0.127s0.127 0.057 0.127 0.127z"></path>
<path fill="rgb(215, 226, 232)" d="M5.115 12.078c0 0.070-0.057 0.127-0.127 0.127s-0.127-0.057-0.127-0.127c0-0.070 0.057-0.127 0.127-0.127s0.127 0.057 0.127 0.127z"></path>
<path fill="rgb(215, 226, 232)" d="M4.977 11.744c0 0.070-0.057 0.127-0.127 0.127s-0.127-0.057-0.127-0.127c0-0.070 0.057-0.127 0.127-0.127s0.127 0.057 0.127 0.127z"></path>
<path fill="rgb(215, 226, 232)" d="M4.839 11.41c0 0.070-0.057 0.127-0.127 0.127s-0.127-0.057-0.127-0.127c0-0.070 0.057-0.127 0.127-0.127s0.127 0.057 0.127 0.127z"></path>
<path fill="rgb(215, 226, 232)" d="M4.701 11.076c0 0.070-0.057 0.127-0.127 0.127s-0.127-0.057-0.127-0.127c0-0.070 0.057-0.127 0.127-0.127s0.127 0.057 0.127 0.127z"></path>
<path fill="rgb(215, 226, 232)" d="M4.563 10.742c0 0.070-0.057 0.127-0.127 0.127s-0.127-0.057-0.127-0.127c0-0.070 0.057-0.127 0.127-0.127s0.127 0.057 0.127 0.127z"></path>
<path fill="rgb(215, 226, 232)" d="M4.954 9.798c0 0.070-0.057 0.127-0.127 0.127s-0.127-0.057-0.127-0.127c0-0.070 0.057-0.127 0.127-0.127s0.127 0.057 0.127 0.127z"></path>
<path fill="rgb(215, 226, 232)" d="M4.816 9.465c0 0.070-0.057 0.127-0.127 0.127s-0.127-0.057-0.127-0.127c0-0.070 0.057-0.127 0.127-0.127s0.127 0.057 0.127 0.127z"></path>
<path fill="rgb(215, 226, 232)" d="M4.678 9.131c0 0.070-0.057 0.127-0.127 0.127s-0.127-0.057-0.127-0.127c0-0.070 0.057-0.127 0.127-0.127s0.127 0.057 0.127 0.127z"></path>
<path fill="rgb(215, 226, 232)" d="M7.853 12.988l-2.418-5.884c-0.055-0.134-0.209-0.198-0.343-0.143l-0.891 0.369 2.618 6.37 0.891-0.369c0.134-0.055 0.198-0.209 0.143-0.343z"></path>
<path fill="rgb(42, 65, 76)" d="M5.724 6.335l2.865 6.971-0.098 0.041-2.865-6.971z"></path>
</svg>
