<?xml version="1.0" encoding="utf-8"?>
<!-- Generator: Adobe Illustrator 16.0.0, SVG Export Plug-In . SVG Version: 6.00 Build 0)  -->
<!DOCTYPE svg PUBLIC "-//W3C//DTD SVG 1.1//EN" "http://www.w3.org/Graphics/SVG/1.1/DTD/svg11.dtd">
<svg version="1.1" id="Layer_1" xmlns="http://www.w3.org/2000/svg" xmlns:xlink="http://www.w3.org/1999/xlink" x="0px" y="0px"
	 width="20px" height="20px" viewBox="0 0 20 20" enable-background="new 0 0 20 20" xml:space="preserve">
<g>
	<path fill="#32BEA6" d="M19.689,10c0-5.353-4.338-9.69-9.689-9.69c-5.351,0-9.69,4.338-9.69,9.69c0,5.351,4.338,9.69,9.69,9.69
		S19.69,15.352,19.689,10L19.689,10z"/>
	<path fill="#5B4F3F" d="M16.223,5.9H3.777c-0.134,0-0.243,0.108-0.243,0.243v7.713c0,0.135,0.109,0.244,0.243,0.244h12.446
		c0.134,0,0.243-0.109,0.243-0.244V6.144C16.466,6.009,16.356,5.9,16.223,5.9z M16.174,11.215c0,0.107-0.088,0.194-0.194,0.194
		H4.133c-0.107,0-0.194-0.087-0.194-0.194v-3.16c0-0.107,0.087-0.194,0.194-0.194h11.846c0.107,0,0.194,0.087,0.194,0.194V11.215z"
		/>
	<path fill="#F5F5F5" d="M15.458,6.514H4.541c-0.118,0-0.213,0.096-0.213,0.213v0.69c0,0.118,0.095,0.213,0.213,0.213h10.917
		c0.118,0,0.213-0.096,0.213-0.213v-0.69C15.671,6.609,15.575,6.514,15.458,6.514z"/>
	<path fill="#443B30" d="M14.554,14.003H5.446l0.486-2.075h8.135L14.554,14.003z"/>
	<path fill="#141311" d="M10.357,12.613c0,0.174-0.142,0.315-0.316,0.315s-0.316-0.142-0.316-0.315c0-0.175,0.142-0.316,0.316-0.316
		S10.357,12.438,10.357,12.613z"/>
	<path fill="#141311" d="M13.492,13.512c0,0.175-0.142,0.316-0.315,0.316c-0.175,0-0.316-0.142-0.316-0.316s0.142-0.315,0.316-0.315
		C13.351,13.196,13.492,13.338,13.492,13.512z"/>
	<path fill="#141311" d="M7.173,13.512c0,0.175-0.142,0.316-0.316,0.316c-0.175,0-0.316-0.142-0.316-0.316s0.141-0.315,0.316-0.315
		C7.031,13.196,7.173,13.338,7.173,13.512z"/>
	<path fill="#141311" d="M12.123,13.253c0,0.147-0.119,0.268-0.268,0.268c-0.147,0-0.268-0.12-0.268-0.268s0.12-0.268,0.268-0.268
		C12.004,12.985,12.123,13.105,12.123,13.253z"/>
	<path fill="#141311" d="M8.461,13.253c0,0.147-0.12,0.268-0.267,0.268c-0.148,0-0.268-0.12-0.268-0.268s0.12-0.268,0.268-0.268
		C8.341,12.985,8.461,13.105,8.461,13.253z"/>
	<path fill="#141311" d="M4.14,6.255c0,0.129-0.105,0.235-0.235,0.235S3.67,6.385,3.67,6.255c0-0.13,0.105-0.235,0.235-0.235
		S4.14,6.125,4.14,6.255z"/>
	<path fill="#443B30" d="M4.072,6.255c0,0.092-0.075,0.167-0.167,0.167S3.737,6.348,3.737,6.255c0-0.093,0.075-0.167,0.167-0.167
		S4.072,6.163,4.072,6.255z"/>
	<path fill="#141311" d="M16.333,6.255c0,0.129-0.105,0.235-0.235,0.235c-0.129,0-0.234-0.105-0.234-0.235
		c0-0.13,0.105-0.235,0.234-0.235C16.228,6.021,16.333,6.125,16.333,6.255z"/>
	<path fill="#443B30" d="M16.266,6.255c0,0.092-0.075,0.167-0.167,0.167c-0.093,0-0.168-0.075-0.168-0.167
		c0-0.093,0.075-0.167,0.168-0.167C16.19,6.088,16.266,6.163,16.266,6.255z"/>
	<path fill="#141311" d="M4.14,13.711c0,0.13-0.105,0.235-0.235,0.235S3.67,13.841,3.67,13.711s0.105-0.235,0.235-0.235
		S4.14,13.581,4.14,13.711z"/>
	<path fill="#443B30" d="M4.072,13.711c0,0.093-0.075,0.168-0.167,0.168s-0.167-0.075-0.167-0.168c0-0.092,0.075-0.167,0.167-0.167
		S4.072,13.619,4.072,13.711z"/>
	<path fill="#141311" d="M16.333,13.711c0,0.13-0.105,0.235-0.235,0.235c-0.129,0-0.234-0.105-0.234-0.235s0.105-0.235,0.234-0.235
		C16.228,13.476,16.333,13.581,16.333,13.711z"/>
	<path fill="#443B30" d="M16.266,13.711c0,0.093-0.075,0.168-0.167,0.168c-0.093,0-0.168-0.075-0.168-0.168
		c0-0.092,0.075-0.167,0.168-0.167C16.19,13.544,16.266,13.619,16.266,13.711z"/>
	<path fill="#453939" d="M10.035,7.861H4.487C4.151,8.378,3.956,8.996,3.956,9.66c0,0.643,0.184,1.243,0.5,1.75h5.61
		c0.318-0.507,0.5-1.107,0.5-1.75C10.566,8.996,10.372,8.378,10.035,7.861L10.035,7.861z"/>
	<path fill="#F8F4F1" d="M8.655,9.66c0,0.77-0.624,1.394-1.394,1.394c-0.77,0-1.394-0.625-1.394-1.394s0.624-1.394,1.394-1.394
		C8.031,8.266,8.655,8.89,8.655,9.66z"/>
	<path fill="#E2D9D3" d="M8.517,9.66c0,0.694-0.562,1.256-1.256,1.256c-0.694,0-1.256-0.562-1.256-1.256s0.562-1.256,1.256-1.256
		C7.955,8.404,8.517,8.966,8.517,9.66z"/>
	<path fill="#F8F4F1" d="M8.444,9.66c0,0.654-0.53,1.183-1.183,1.183S6.078,10.313,6.078,9.66c0-0.653,0.53-1.183,1.183-1.183
		S8.444,9.006,8.444,9.66z"/>
	<path fill="#49433B" d="M7.431,8.615h-0.34c-0.013,0-0.024,0.011-0.024,0.023v2.042c0,0.014,0.011,0.023,0.024,0.023h0.34
		c0.013,0,0.023-0.01,0.023-0.023V8.639C7.455,8.626,7.444,8.615,7.431,8.615z"/>
	<path fill="#5F574A" d="M8.136,9.66c0,0.483-0.392,0.875-0.875,0.875c-0.483,0-0.875-0.392-0.875-0.875s0.392-0.875,0.875-0.875
		C7.744,8.785,8.136,9.177,8.136,9.66z"/>
	<path fill="#F8F4F1" d="M7.99,9.66c0,0.403-0.327,0.729-0.729,0.729S6.531,10.062,6.531,9.66s0.327-0.729,0.729-0.729
		S7.99,9.257,7.99,9.66z"/>
	<path fill="#5F574A" d="M7.374,8.994c0,0.061-0.049,0.066-0.109,0.066l0,0c-0.061,0-0.109-0.005-0.109-0.066V8.921
		c0-0.06,0.049-0.109,0.109-0.109l0,0c0.06,0,0.109,0.049,0.109,0.109V8.994z"/>
	<path fill="#5F574A" d="M7.154,10.328c0-0.061,0.049-0.066,0.109-0.066l0,0c0.06,0,0.109,0.005,0.109,0.066v0.073
		c0,0.06-0.049,0.109-0.109,0.109l0,0c-0.061,0-0.109-0.049-0.109-0.109V10.328z"/>
	<path fill="#5F574A" d="M7.931,9.771c-0.061,0-0.066-0.049-0.066-0.109l0,0c0-0.061,0.006-0.109,0.066-0.109h0.073
		c0.061,0,0.109,0.049,0.109,0.109l0,0c0,0.061-0.049,0.109-0.109,0.109H7.931z"/>
	<path fill="#5F574A" d="M6.597,9.552c0.061,0,0.066,0.049,0.066,0.109l0,0c0,0.061-0.006,0.109-0.066,0.109H6.524
		c-0.06,0-0.109-0.049-0.109-0.109l0,0c0-0.061,0.049-0.109,0.109-0.109H6.597z"/>
	<path fill="#5F574A" d="M7.813,9.267C7.77,9.31,7.731,9.279,7.689,9.236l0,0C7.646,9.193,7.616,9.154,7.658,9.112L7.71,9.061
		c0.042-0.043,0.112-0.043,0.154,0l0,0c0.043,0.042,0.043,0.112,0,0.154L7.813,9.267z"/>
	<path fill="#5F574A" d="M6.714,10.055c0.043-0.042,0.082-0.012,0.124,0.031l0,0c0.043,0.043,0.074,0.082,0.031,0.124l-0.051,0.051
		c-0.043,0.043-0.112,0.043-0.155,0l0,0c-0.043-0.042-0.043-0.111,0-0.154L6.714,10.055z"/>
	<path fill="#5F574A" d="M7.658,10.21c-0.042-0.042-0.012-0.082,0.031-0.124l0,0c0.043-0.043,0.082-0.073,0.125-0.031l0.051,0.052
		c0.043,0.043,0.043,0.112,0,0.154l0,0c-0.042,0.043-0.112,0.043-0.154,0L7.658,10.21L7.658,10.21z"/>
	<path fill="#5F574A" d="M6.87,9.112c0.043,0.043,0.012,0.082-0.031,0.125l0,0C6.796,9.279,6.757,9.31,6.715,9.267L6.664,9.215
		c-0.043-0.043-0.043-0.112,0-0.155l0,0c0.042-0.042,0.112-0.042,0.154,0L6.87,9.112L6.87,9.112z"/>
	<path fill="#F8F4F1" d="M14.132,9.66c0,0.77-0.624,1.394-1.394,1.394s-1.394-0.625-1.394-1.394s0.624-1.394,1.394-1.394
		S14.132,8.89,14.132,9.66z"/>
	<path fill="#E2D9D3" d="M13.994,9.66c0,0.694-0.562,1.256-1.256,1.256s-1.256-0.562-1.256-1.256s0.562-1.256,1.256-1.256
		S13.994,8.966,13.994,9.66z"/>
	<path fill="#F8F4F1" d="M13.921,9.66c0,0.654-0.529,1.183-1.183,1.183s-1.183-0.529-1.183-1.183c0-0.653,0.529-1.183,1.183-1.183
		S13.921,9.006,13.921,9.66z"/>
	<path fill="#49433B" d="M13.598,9.042l-0.241-0.241c-0.009-0.009-0.024-0.009-0.033,0l-1.443,1.443c-0.01,0.01-0.01,0.024,0,0.034
		l0.24,0.24c0.009,0.01,0.024,0.01,0.033,0l1.443-1.443C13.606,9.065,13.606,9.051,13.598,9.042L13.598,9.042z"/>
	<path fill="#5F574A" d="M13.613,9.66c0,0.483-0.392,0.875-0.874,0.875c-0.483,0-0.876-0.392-0.876-0.875s0.393-0.875,0.876-0.875
		C13.222,8.785,13.613,9.177,13.613,9.66z"/>
	<path fill="#F8F4F1" d="M13.468,9.66c0,0.403-0.327,0.729-0.729,0.729c-0.403,0-0.729-0.327-0.729-0.729s0.326-0.729,0.729-0.729
		C13.141,8.931,13.468,9.257,13.468,9.66z"/>
	<path fill="#5F574A" d="M13.289,9.268c-0.043,0.043-0.082,0.012-0.125-0.03l0,0c-0.043-0.043-0.073-0.082-0.03-0.124l0.051-0.052
		c0.043-0.043,0.112-0.043,0.155,0l0,0c0.043,0.042,0.043,0.112,0,0.155L13.289,9.268L13.289,9.268z"/>
	<path fill="#5F574A" d="M12.19,10.057c0.042-0.043,0.081-0.012,0.124,0.03l0,0c0.043,0.043,0.073,0.082,0.03,0.124l-0.052,0.052
		c-0.042,0.043-0.111,0.043-0.154,0l0,0c-0.043-0.042-0.043-0.112,0-0.155L12.19,10.057z"/>
	<path fill="#5F574A" d="M13.134,10.211c-0.043-0.043-0.013-0.082,0.03-0.124l0,0c0.043-0.042,0.082-0.073,0.125-0.03l0.051,0.051
		c0.043,0.043,0.043,0.112,0,0.155l0,0c-0.043,0.043-0.112,0.043-0.154,0L13.134,10.211L13.134,10.211z"/>
	<path fill="#5F574A" d="M12.345,9.114c0.043,0.042,0.013,0.081-0.03,0.124l0,0c-0.043,0.042-0.082,0.073-0.124,0.03l-0.052-0.051
		c-0.043-0.043-0.043-0.112,0-0.155l0,0c0.043-0.043,0.112-0.043,0.154,0L12.345,9.114z"/>
	<path fill="#5F574A" d="M13.406,9.772c-0.061,0-0.066-0.049-0.066-0.109l0,0c0-0.061,0.006-0.109,0.066-0.109h0.073
		c0.061,0,0.108,0.049,0.108,0.109l0,0c0,0.061-0.049,0.109-0.108,0.109H13.406z"/>
	<path fill="#5F574A" d="M12.072,9.553c0.061,0,0.066,0.049,0.066,0.109l0,0c0,0.061-0.006,0.109-0.066,0.109h-0.073
		c-0.06,0-0.109-0.049-0.109-0.109l0,0c0-0.061,0.05-0.109,0.109-0.109H12.072z"/>
	<path fill="#5F574A" d="M12.63,10.33c0-0.06,0.049-0.066,0.109-0.066l0,0c0.061,0,0.109,0.006,0.109,0.066v0.073
		c0,0.061-0.049,0.11-0.109,0.11l0,0c-0.061,0-0.109-0.05-0.109-0.11V10.33z"/>
	<path fill="#5F574A" d="M12.849,8.996c0,0.061-0.049,0.066-0.109,0.066l0,0c-0.061,0-0.109-0.005-0.109-0.066V8.922
		c0-0.06,0.049-0.109,0.109-0.109l0,0c0.061,0,0.109,0.049,0.109,0.109V8.996z"/>
	<path opacity="0.1" fill="#FFFFFF" d="M4.133,11.41c-0.107,0-0.194-0.088-0.194-0.194V8.055c0-0.107,0.087-0.194,0.194-0.194
		h11.846c0.107,0,0.194,0.087,0.194,0.194L4.133,11.41L4.133,11.41z"/>
	<path fill="#443B30" d="M4.187,6.605c0-0.105,0.085-0.19,0.19-0.19h11.262c0.104,0,0.189,0.085,0.189,0.19v1.256h0.064V6.605
		c0-0.141-0.114-0.255-0.254-0.255H4.377c-0.141,0-0.255,0.115-0.255,0.255v1.256h0.065L4.187,6.605L4.187,6.605z"/>
</g>
</svg>
