<?xml version="1.0" encoding="utf-8"?>
<!-- Generated by IcoMoon.io -->
<!DOCTYPE svg PUBLIC "-//W3C//DTD SVG 1.1//EN" "http://www.w3.org/Graphics/SVG/1.1/DTD/svg11.dtd">
<svg version="1.1" xmlns="http://www.w3.org/2000/svg" xmlns:xlink="http://www.w3.org/1999/xlink" width="20" height="20" viewBox="0 0 20 20">
<path fill="rgb(37, 183, 211)" d="M19.691 10c0-5.352-4.339-9.691-9.69-9.691s-9.691 4.338-9.691 9.691c0 5.352 4.339 9.69 9.691 9.69s9.69-4.339 9.69-9.69z"></path>
<path fill="rgb(237, 201, 47)" d="M5.704 8.672c0.502-0.020 9.463-0.198 10.012-0.198 0.933 0 1.7-1.073 2.153-1.073s0.452 3.455 0 3.455-1.22-1.070-2.153-1.070c-0.549 0-10.404-0.184-10.404-0.184l-0.484-0.148-2.146-0.002c0 0-0.971 0.8-0.886-0.316-0.082-1.106 0.886-0.31 0.886-0.31l2.146-0.005c0 0 0.374-0.128 0.876-0.148z"></path>
<path fill="rgb(237, 201, 47)" d="M10.239 7.821c0 0.181-0.134 0.116-0.134 0.186h-0.001v0.45c0.034 0.033 0.057 0.073 0.065 0.118-0.186 0.004-0.37 0.007-0.553 0.011 0.006-0.049 0.030-0.094 0.067-0.129v-0.45h-0.001c0-0.067-0.134-0.010-0.134-0.186 0-0.067 0.074-0.089 0.106-0.089h0.476c0.033 0 0.106 0.022 0.106 0.089z"></path>
<path fill="rgb(237, 201, 47)" d="M8.34 8.61c0-0.059 0.026-0.112 0.069-0.153v-0.45h-0.001c0-0.067-0.134-0.010-0.134-0.186 0-0.067 0.074-0.089 0.106-0.089h0.476c0.033 0 0.106 0.022 0.106 0.089 0 0.181-0.134 0.116-0.134 0.186h-0.001v0.45c0.040 0.039 0.066 0.089 0.068 0.144-0.19 0.004-0.376 0.008-0.557 0.011v-0.002z"></path>
<path fill="rgb(237, 201, 47)" d="M7.065 8.61c0-0.059 0.026-0.112 0.069-0.153v-0.45h-0.001c0-0.067-0.134-0.010-0.134-0.186 0-0.067 0.074-0.089 0.106-0.089h0.476c0.033 0 0.106 0.022 0.106 0.089 0 0.181-0.134 0.116-0.134 0.186h-0.001v0.45c0.043 0.041 0.069 0.094 0.069 0.153v0.017c-0.197 0.004-0.384 0.008-0.558 0.012v-0.029z"></path>
<path fill="rgb(237, 201, 47)" d="M11.080 8.939c0.282 0 0.708 0 1.076 0.167 0.329 0.149 0.72 0.486 0.72 1.245v0.219c0 0.759-0.392 1.096-0.72 1.245-0.369 0.167-0.794 0.167-1.076 0.167h-5.075c-0.282 0-0.708 0-1.076-0.167-0.329-0.149-0.72-0.486-0.72-1.245v-0.069c0-0.521 0.107-0.835 0.254-1.042h-1.831v-0.521h8.449zM12.356 10.352c0-0.522-0.237-0.69-0.415-0.771-0.266-0.121-0.61-0.121-0.861-0.121h-5.075v0.151c-0.251 0-0.595 0-0.861 0.121-0.178 0.081-0.415 0.249-0.415 0.771v0.069c0 0.522 0.237 0.69 0.415 0.771 0.266 0.121 0.61 0.121 0.861 0.121h5.075c0.251 0 0.595 0 0.861-0.121 0.178-0.081 0.415-0.249 0.415-0.771v-0.219z"></path>
<path fill="rgb(237, 201, 47)" d="M10.729 11.52c-0.185 0-0.335-0.15-0.335-0.335s0.15-0.335 0.335-0.335c0.185 0 0.335 0.15 0.335 0.335s-0.15 0.335-0.335 0.335zM10.729 10.947c-0.131 0-0.238 0.107-0.238 0.238s0.107 0.238 0.238 0.238 0.238-0.107 0.238-0.238c0-0.131-0.107-0.238-0.238-0.238z"></path>
<path fill="rgb(237, 201, 47)" d="M6.491 11.52c-0.185 0-0.335-0.15-0.335-0.335v-0.299c0-0.027 0.022-0.049 0.049-0.049s0.049 0.022 0.049 0.049v0.299c0 0.131 0.107 0.238 0.238 0.238s0.238-0.107 0.238-0.238v-0.299c0-0.027 0.022-0.049 0.049-0.049s0.049 0.022 0.049 0.049v0.299c0 0.185-0.15 0.335-0.335 0.335z"></path>
<path fill="rgb(237, 201, 47)" d="M10.485 8.327c0-0.185 0.15-0.335 0.335-0.335h0.299c0.027 0 0.049 0.022 0.049 0.049s-0.022 0.049-0.049 0.049h-0.299c-0.131 0-0.238 0.107-0.238 0.238s0.107 0.238 0.238 0.238h0.299c0.027 0 0.049 0.022 0.049 0.049s-0.022 0.049-0.049 0.049h-0.299c-0.185 0-0.335-0.15-0.335-0.335z"></path>
<path fill="rgb(242, 214, 95)" d="M16.045 9.022h-10.039v-0.082l10.039-0.111c0.563 0 1.158-0.215 1.643-0.498 0.141-0.082 0.282 0.297 0.007 0.433-0.419 0.207-1.199 0.259-1.65 0.259z"></path>
<path fill="rgb(204, 169, 21)" d="M12.137 11.467c-0.078 0.039-0.159 0.071-0.242 0.097s-0.166 0.048-0.251 0.065c-0.169 0.034-0.342 0.052-0.513 0.051-0.042-0-0.086-0.002-0.13-0.003l-0.393-0.011c-0.175-0.005-0.35-0.008-0.525-0.012l-0.262-0.005-0.787-0.010-1.049-0.005c-0.35 0.002-0.7 0.002-1.049 0.005l-0.787 0.010-0.262 0.005c-0.173 0.002-0.344-0.004-0.511-0.031s-0.329-0.077-0.469-0.166c-0.070-0.044-0.134-0.098-0.188-0.162s-0.098-0.136-0.134-0.213c-0.035-0.077-0.060-0.16-0.078-0.244s-0.029-0.171-0.033-0.258h-0.011c-0 0.175 0.022 0.352 0.087 0.516 0.033 0.082 0.076 0.159 0.131 0.229s0.12 0.13 0.192 0.18c0.146 0.1 0.316 0.158 0.488 0.191s0.349 0.042 0.524 0.044l2.099 0.003 2.099-0.003c0.35-0.001 0.699-0 1.050-0.002 0.175-0.005 0.35-0.030 0.52-0.072s0.337-0.102 0.489-0.19l-0.005-0.010z"></path>
<path fill="rgb(237, 201, 47)" d="M10.174 12.234h0.001c0 0.089 0.115 0.165 0.115 0.247 0 0.089-0.035 0.118-0.078 0.118h-0.633c-0.043 0-0.079-0.029-0.079-0.118 0-0.082 0.115-0.154 0.115-0.247h0.001v-2.554c0 0 0.089-0.097 0.276-0.097s0.282 0.107 0.282 0.107v2.544z"></path>
<path fill="rgb(237, 201, 47)" d="M8.898 12.234h0.001c0 0.089 0.115 0.165 0.115 0.247 0 0.089-0.035 0.118-0.079 0.118h-0.633c-0.043 0-0.079-0.029-0.079-0.118 0-0.082 0.115-0.154 0.115-0.247h0.001v-2.577c0 0 0.093-0.073 0.267-0.073s0.291 0.084 0.291 0.084v2.567z"></path>
<path fill="rgb(237, 201, 47)" d="M7.623 12.234h0.001c0 0.089 0.115 0.165 0.115 0.247 0 0.089-0.035 0.118-0.079 0.118h-0.633c-0.043 0-0.079-0.029-0.079-0.118 0-0.082 0.115-0.154 0.115-0.247h0.001v-2.601c0 0 0.116-0.057 0.28-0.057s0.277 0.067 0.277 0.067v2.59z"></path>
<path fill="rgb(229, 199, 74)" d="M12.551 9.88l-0.010 0.004c-0.021-0.053-0.046-0.104-0.076-0.152 0.007 0 0.014 0 0.021 0 0.026 0.047 0.047 0.097 0.065 0.148z"></path>
<path fill="rgb(242, 214, 95)" d="M8.82 9.191l2.25 0.001c0.083 0 0.167 0 0.25 0.003 0.167 0.006 0.334 0.022 0.497 0.062s0.32 0.107 0.451 0.213c0.065 0.053 0.123 0.115 0.17 0.184 0.017 0.025 0.032 0.050 0.047 0.077-0.007-0-0.014-0-0.021-0-0.014-0.022-0.028-0.044-0.043-0.064-0.024-0.033-0.051-0.064-0.080-0.093s-0.059-0.056-0.091-0.080c-0.129-0.099-0.284-0.158-0.443-0.193-0.32-0.069-0.652-0.040-0.986-0.040l-0.5 0.007-1.5 0.015-1 0.006c-0.333 0.002-0.667 0.005-1 0.005l-2 0.002-2-0.006-1-0.006c-0.009-0-0.018-0-0.027-0-0-0.030 0-0.061 0.002-0.094l7.027 0z"></path>
<path fill="rgb(204, 169, 21)" d="M9.825 9.584h0.151v2.551h-0.151v-2.551z"></path>
<path fill="rgb(204, 169, 21)" d="M8.536 9.584h0.151v2.551h-0.151v-2.551z"></path>
<path fill="rgb(204, 169, 21)" d="M7.274 9.584h0.151v2.551h-0.151v-2.551z"></path>
</svg>
