<?xml version="1.0" encoding="utf-8"?>
<!-- Generator: Adobe Illustrator 16.0.0, SVG Export Plug-In . SVG Version: 6.00 Build 0)  -->
<!DOCTYPE svg PUBLIC "-//W3C//DTD SVG 1.1//EN" "http://www.w3.org/Graphics/SVG/1.1/DTD/svg11.dtd">
<svg version="1.1" id="Layer_1" xmlns="http://www.w3.org/2000/svg" xmlns:xlink="http://www.w3.org/1999/xlink" x="0px" y="0px"
	 width="20px" height="20px" viewBox="0 0 20 20" enable-background="new 0 0 20 20" xml:space="preserve">
<g>
	<path fill="#25B7D3" d="M19.691,10.001c0-5.353-4.34-9.691-9.691-9.691s-9.691,4.338-9.691,9.691c0,5.352,4.339,9.689,9.691,9.689
		C15.354,19.69,19.691,15.353,19.691,10.001z"/>
	<path fill="#383838" d="M3.105,11.741l0.187,0.023c0.728-0.068,3.272-0.345,3.449-0.363c0.376-0.035,0.399-0.127,0.399-0.127V9.146
		L4.059,9.299v0.743c0,0,0,0.641-0.58,0.713l-0.218,0.023c0,0-0.157,0.049-0.157,0.219S3.104,11.74,3.105,11.741L3.105,11.741z"/>
	<path fill="#2B2A2A" d="M3.105,11.741l0.187,0.023c0.728-0.068,3.272-0.345,3.449-0.363c0.376-0.035,0.399-0.127,0.399-0.127
		L4.248,9.322L4.061,9.299v0.743c0,0,0,0.641-0.58,0.713l-0.218,0.023c0,0-0.157,0.049-0.157,0.219S3.105,11.74,3.105,11.741
		L3.105,11.741z"/>
	<path fill="#424242" d="M3.292,11.767c0,0,3.43-0.318,3.637-0.339c0.376-0.036,0.399-0.127,0.399-0.127V9.126
		c0,0-0.108,0.06-0.337,0.06l-2.743,0.14v0.742c0,0,0,0.641-0.58,0.713L3.45,10.806c0,0-0.157,0.047-0.157,0.217
		S3.293,11.767,3.292,11.767L3.292,11.767z"/>
	<path fill="#C9C9C5" d="M8.467,12.537L3.29,11.133v-0.104l5.388,1.299L8.467,12.537z"/>
	<path fill="#191919" d="M8.154,12.336L3.29,11.133v0.401l4.865,1.283V12.336z"/>
	<path fill="#F2F2ED" d="M9.598,11.954l-5.349-1.11l-0.961,0.183l5.174,1.262L9.598,11.954z"/>
	<path fill="#3A3A3A" d="M4.972,12.12l0.397,2.796l0.306,0.106l0.336-0.092l0.336-2.475l-0.67-0.164L4.972,12.12z"/>
	<path fill="#191919" d="M4.972,12.12l0.397,2.796l0.306,0.106l0.003-2.73L4.972,12.12z"/>
	<path fill="#AF9651" d="M5.449,15.673l-0.08-0.756l0.306,0.107l0.336-0.092l-0.126,0.756l-0.212,0.053L5.449,15.673z"/>
	<path fill="#99833D" d="M5.449,15.673l-0.08-0.756l0.306,0.107l-0.002,0.718L5.449,15.673z"/>
	<path fill="#3A3A3A" d="M13.359,11.295l0.396,2.796l0.307,0.107l0.336-0.092l0.336-2.476l-0.67-0.164L13.359,11.295z"/>
	<path fill="#191919" d="M13.359,11.295l0.396,2.796l0.307,0.107l0.004-2.731L13.359,11.295z"/>
	<path fill="#AF9651" d="M13.836,14.849l-0.08-0.757l0.307,0.107l0.336-0.093l-0.125,0.756l-0.213,0.054L13.836,14.849z"/>
	<path fill="#99833D" d="M13.836,14.849l-0.08-0.757l0.307,0.107l-0.002,0.718L13.836,14.849z"/>
	<path fill="#3A3A3A" d="M6.936,15.956l1.009,0.391l0.894-0.115v0.252l-0.896,0.145l-1.006-0.413L6.936,15.956z"/>
	<path fill="#424242" d="M8.837,16.231l-1.008-0.397l-0.894,0.122l1.009,0.391L8.837,16.231z"/>
	<path fill="#262626" d="M6.936,15.956l1.009,0.391l-0.003,0.282l-1.006-0.413V15.956z"/>
	<path fill="#262626" d="M7.661,16.093l-0.183-0.068v-3.159l0.183-0.011V16.093z"/>
	<path fill="#3A3A3A" d="M7.831,16.078l-0.186,0.015v-3.238h0.186V16.078z"/>
	<path fill="#262626" d="M8.119,16.215l-0.183-0.069v-3.158l0.183-0.012V16.215z"/>
	<path fill="#3A3A3A" d="M8.29,16.196l-0.186,0.019v-3.239H8.29V16.196z"/>
	<path fill="#2B2A2A" d="M8.379,12.877l-5.274-1.396v0.261l5.274,1.395V12.877z"/>
	<path fill="#232323" d="M7.141,9.149l4.509-0.166c0,0,0.996,0.034,1.479,0.058c0,0,2.518,0.053,2.518,0.27v0.773L8.859,9.637
		L7.141,9.149L7.141,9.149z"/>
	<path fill="#471518" d="M7.027,9.181l4.508-0.166c0,0,0.998,0.034,1.479,0.057c0,0,2.518,0.054,2.518,0.271v0.773L8.744,9.668
		L7.027,9.181z"/>
	<path fill="#191919" d="M4.247,9.325l5.119,0.694l-0.007,1.909L4.25,10.845L4.247,9.325z"/>
	<path fill="#191919" d="M14.17,3.506c-0.023-0.056-0.201-0.053-0.201-0.053L11.42,3.326l-4.4,5.219l2.143,0.316l4.951-5.22
		C14.113,3.642,14.199,3.568,14.17,3.506L14.17,3.506z"/>
	<path fill="#282828" d="M12.326,9.075c0,0,1.191-0.584,1.73-1.055c0,0,2.049-1.387,0.666-2.188
		c-0.51-0.296-1.834-0.316-1.816-0.735c0.01-0.212,1.209-1.455,1.209-1.455l-2.568-0.091L7.311,8.468L9.29,9.086L12.326,9.075z"/>
	<path fill="#C55F2E" d="M9.19,9.515l2.673-0.175c0,0,0.367-0.053,0.658,0.053l0.604,0.022c0,0,0.953,0.022,1.371-0.014
		c0.543-0.047,0.076,0.637,0.076,0.637l-2.205,0.064L9.19,9.515L9.19,9.515z"/>
	<path fill="#F78F50" d="M9.771,9.767l2.093-0.145c0,0,0.367-0.054,0.658,0.053l0.604,0.183c0,0,0.008,0.084,0.541-0.015
		c0.535-0.099,0.076,0.519,0.076,0.519l-1.375,0.023L9.771,9.767L9.771,9.767z"/>
	<path fill="#04090D" d="M10.922,5.117l1.094,2.962l0.035,0.24l0.607,1.56l0.287,0.022l-0.654-1.649l-0.125-0.206l-1.176-2.95
		L10.922,5.117z"/>
	<path fill="#585858" d="M10.99,5.094l1.096,2.962l0.033,0.241l0.607,1.559l0.287,0.023l-0.652-1.65l-0.127-0.206L11.156,5.09
		L10.99,5.094z"/>
	<path fill="#2B2A2A" d="M8.142,13.075l0.237,0.061c0.921-0.086,4.136-0.437,4.361-0.458c0.475-0.046,0.504-0.159,0.504-0.159
		L9.586,10.05l-0.237-0.031v0.94c0,0,0,0.81-0.733,0.901l-0.275,0.031c0,0-0.199,0.062-0.199,0.275S8.142,13.076,8.142,13.075
		L8.142,13.075z"/>
	<path fill="#232323" d="M13.428,9.798c0,0-0.014-0.049-0.064-0.077c0,0-0.053-0.074,0.025-0.094c0,0,0.311-0.079,0.635-0.1
		c0,0,1.541-0.097,1.568-0.216l-0.004,2.092c0,0-0.014,0.135-1.109,0.265c0,0-0.879,0.108-1.053,0.231l0.002-2.1V9.798z"/>
	<path fill="#3A3A3A" d="M13.482,9.798c0,0-0.016-0.049-0.066-0.077c0,0-0.053-0.074,0.025-0.094c0,0,0.311-0.079,0.635-0.1
		c0,0,1.541-0.097,1.568-0.216l-0.004,2.092c0,0-0.014,0.135-1.109,0.265c0,0-0.879,0.108-1.051,0.231V9.8L13.482,9.798z"/>
	<path fill="#383838" d="M8.142,13.075l0.237,0.061c0.921-0.086,4.136-0.437,4.361-0.458c0.475-0.046,0.504-0.159,0.504-0.159
		l0.232-2.738l-0.232,0.047L9.349,10.02v0.94c0,0,0,0.811-0.733,0.902l-0.275,0.031c0,0-0.199,0.061-0.199,0.274s0,0.909,0,0.909
		V13.075z"/>
	<path fill="#3A3A3A" d="M9.624,12.983l0.508,3.576l0.391,0.137l0.431-0.117l0.582-4.236l-1.009,0.448L9.624,12.983z"/>
	<path fill="#191919" d="M9.624,12.983l0.508,3.576l0.391,0.137l0.003-4.01L9.624,12.983z"/>
	<path fill="#424242" d="M8.379,13.137c0,0,4.337-0.403,4.599-0.428c0.475-0.046,0.504-0.16,0.504-0.16v-2.75
		c0,0-0.137,0.076-0.428,0.076l-3.469,0.176v0.94c0,0,0,0.81-0.734,0.9l-0.275,0.031c0,0-0.199,0.061-0.199,0.275
		c0,0.214,0,0.939,0,0.939L8.379,13.137z"/>
	<path fill="#2D2D2D" d="M9.349,10.019L4.245,9.324l2.166-0.111l5.704,0.67L9.349,10.019z"/>
	<path fill="#191919" d="M6.545,9.385L7.026,8.36c0,0,1.604-0.32,2.88,0.352L9.555,9.797L6.545,9.385L6.545,9.385z"/>
	<path fill="#AF9651" d="M10.233,17.526l-0.102-0.967l0.391,0.137l0.431-0.117l-0.162,0.967l-0.271,0.068L10.233,17.526z"/>
	<path fill="#99833D" d="M10.233,17.526l-0.102-0.967l0.391,0.137l-0.003,0.918L10.233,17.526z"/>
	<path fill="#AF9651" d="M6.653,16.162l0.118,0.043l0.462-0.06v0.063l-0.463,0.075l-0.117-0.055V16.162z"/>
	<path fill="#BCA15C" d="M7.233,16.146l-0.118-0.047l-0.462,0.063l0.118,0.043L7.233,16.146z"/>
	<path fill="#99833D" d="M6.653,16.162l0.118,0.043l-0.001,0.079l-0.117-0.055V16.162z"/>
	<path fill="#AF9651" d="M7.256,16.422l0.119,0.044l0.462-0.059v0.062l-0.463,0.075L7.257,16.49L7.256,16.422z"/>
	<path fill="#BCA15C" d="M7.837,16.405l-0.118-0.047l-0.462,0.063l0.119,0.044L7.837,16.405z"/>
	<path fill="#99833D" d="M7.256,16.422l0.119,0.044l-0.001,0.079L7.257,16.49L7.256,16.422z"/>
	<path fill="#AF9651" d="M6.958,16.292l0.118,0.043l0.462-0.059v0.062l-0.463,0.075l-0.117-0.056V16.292z"/>
	<path fill="#BCA15C" d="M7.54,16.276L7.42,16.229l-0.462,0.062l0.118,0.043L7.54,16.276z"/>
	<path fill="#99833D" d="M6.958,16.292l0.118,0.043l-0.001,0.079l-0.117-0.056V16.292z"/>
</g>
</svg>
