<?xml version="1.0" encoding="utf-8"?>
<!-- Generated by IcoMoon.io -->
<!DOCTYPE svg PUBLIC "-//W3C//DTD SVG 1.1//EN" "http://www.w3.org/Graphics/SVG/1.1/DTD/svg11.dtd">
<svg version="1.1" xmlns="http://www.w3.org/2000/svg" xmlns:xlink="http://www.w3.org/1999/xlink" width="20" height="20" viewBox="0 0 20 20">
<path fill="rgb(50, 190, 166)" d="M19.691 10c0-5.352-4.339-9.691-9.69-9.691s-9.691 4.338-9.691 9.691c0 5.352 4.339 9.69 9.691 9.69s9.69-4.339 9.69-9.69z"></path>
<path fill="rgb(51, 77, 92)" d="M6.065 5.013l-0-0c-0.001 0.001-0.003 0.002-0.004 0.002s-0.003 0.002-0.004 0.002l0 0c-0.938 0.557-1.454 2.066-0.080 3.746 0.623 0.762 1.832 1.366 1.996 1.435 0.147 0.062 0.426 0.174 0.682 0.469 0.203 0.234 0.76 0.854 1.347 1.851s0.946 1.758 1.337 2.544c0.166 0.333 0.468 0.84 0.962 0.557l0 0c0.001-0.001 0.003-0.002 0.004-0.003s0.003-0.001 0.004-0.002l-0-0c0.487-0.294 0.19-0.805-0.021-1.111-0.498-0.724-0.989-1.406-1.576-2.403s-0.859-1.784-0.965-2.076c-0.134-0.367-0.096-0.666-0.079-0.824 0.019-0.177 0.077-1.528-0.287-2.442-0.802-2.016-2.373-2.296-3.315-1.747z"></path>
<path fill="rgb(56, 122, 155)" d="M9.746 10.025c-0.134-0.367-0.096-0.666-0.079-0.824 0.010-0.097 0.032-0.545-0.010-1.081-0.386 0.294-0.806 0.589-1.209 0.826-0.431 0.254-0.941 0.499-1.428 0.712 0.453 0.301 0.862 0.502 0.952 0.54 0.147 0.062 0.426 0.174 0.682 0.469 0.037 0.043 0.086 0.099 0.145 0.167l1.022-0.602c-0.031-0.085-0.057-0.155-0.076-0.208z"></path>
<path fill="rgb(160, 51, 23)" d="M8.8 10.835c0.263 0.306 0.722 0.869 1.202 1.684 0.587 0.997 0.946 1.758 1.337 2.544 0.166 0.333 0.468 0.84 0.962 0.557l0 0c0.001-0.001 0.003-0.002 0.004-0.003s0.003-0.001 0.004-0.002l-0-0c0.487-0.294 0.19-0.805-0.021-1.111-0.498-0.724-0.989-1.406-1.576-2.403-0.48-0.815-0.749-1.489-0.889-1.867l-1.022 0.602z"></path>
<path fill="rgb(229, 170, 23)" d="M7.881 4.972c-0.643-0.308-1.317-0.25-1.816 0.041l-0-0c-0.001 0.001-0.003 0.002-0.004 0.002s-0.003 0.002-0.004 0.002l0 0c-0.494 0.294-0.87 0.851-0.916 1.558 0.449-0.215 0.952-0.473 1.457-0.771 0.474-0.279 0.907-0.567 1.282-0.833z"></path>
<path fill="rgb(56, 122, 155)" d="M8.502 5.404c-0.052-0.049-0.104-0.095-0.157-0.138-0.42 0.304-0.925 0.645-1.489 0.977-0.596 0.351-1.182 0.647-1.686 0.883 0.011 0.067 0.027 0.135 0.044 0.204 0.517-0.238 1.13-0.543 1.748-0.907 0.587-0.345 1.112-0.705 1.54-1.019z"></path>
<path fill="rgb(51, 77, 92)" d="M9.585 7.531c-0.046-0.268-0.111-0.534-0.206-0.771-0.154-0.386-0.336-0.708-0.536-0.973-0.445 0.328-0.997 0.707-1.623 1.075-0.657 0.387-1.302 0.708-1.839 0.953 0.135 0.306 0.329 0.624 0.595 0.948 0.159 0.194 0.356 0.378 0.564 0.546 0.552-0.233 1.16-0.514 1.649-0.802 0.464-0.273 0.96-0.635 1.395-0.977z"></path>
<path fill="rgb(255, 255, 255)" d="M8.345 5.266c-0.151-0.122-0.307-0.219-0.465-0.295-0.375 0.266-0.808 0.554-1.282 0.833-0.506 0.298-1.008 0.557-1.457 0.771-0.011 0.175-0.003 0.359 0.030 0.55 0.504-0.235 1.090-0.531 1.686-0.883 0.564-0.332 1.069-0.673 1.489-0.977z"></path>
<path fill="rgb(255, 255, 255)" d="M8.844 5.787c-0.109-0.144-0.223-0.271-0.342-0.382-0.428 0.314-0.953 0.674-1.54 1.019-0.618 0.364-1.231 0.67-1.748 0.907 0.040 0.158 0.095 0.319 0.168 0.485 0.537-0.245 1.181-0.566 1.839-0.953 0.626-0.368 1.178-0.747 1.623-1.075z"></path>
<path fill="rgb(255, 255, 255)" d="M9.657 8.12c-0.015-0.19-0.038-0.39-0.072-0.59-0.436 0.343-0.931 0.704-1.395 0.977-0.489 0.288-1.097 0.569-1.649 0.802 0.158 0.127 0.321 0.244 0.48 0.349 0.487-0.213 0.997-0.458 1.428-0.712 0.403-0.237 0.822-0.533 1.209-0.826z"></path>
<path fill="rgb(255, 255, 255)" d="M8.674 10.69c0.077 0.088 0.194 0.222 0.339 0.4 0.184-0.094 0.362-0.191 0.529-0.288 0.133-0.079 0.268-0.164 0.403-0.253-0.085-0.211-0.145-0.378-0.185-0.489-0.16 0.108-0.32 0.211-0.476 0.303-0.189 0.111-0.395 0.221-0.609 0.327z"></path>
<path fill="rgb(51, 77, 92)" d="M13.935 5.013l0-0c0.001 0.001 0.003 0.002 0.004 0.002s0.003 0.002 0.004 0.002l-0 0c0.938 0.557 1.454 2.066 0.080 3.746-0.623 0.762-1.832 1.366-1.996 1.435-0.147 0.062-0.426 0.174-0.682 0.469-0.203 0.234-0.76 0.854-1.347 1.851s-0.946 1.758-1.337 2.544c-0.166 0.333-0.468 0.84-0.962 0.557l-0 0c-0.001-0.001-0.003-0.002-0.004-0.003s-0.003-0.001-0.004-0.002l0-0c-0.487-0.294-0.19-0.805 0.021-1.111 0.498-0.724 0.989-1.406 1.576-2.403s0.859-1.784 0.965-2.076c0.134-0.367 0.096-0.666 0.079-0.824-0.019-0.177-0.077-1.528 0.287-2.442 0.802-2.016 2.373-2.296 3.315-1.747z"></path>
<path fill="rgb(56, 122, 155)" d="M10.254 10.025c0.134-0.367 0.096-0.666 0.079-0.824-0.010-0.097-0.032-0.545 0.010-1.081 0.386 0.294 0.806 0.589 1.209 0.826 0.431 0.254 0.941 0.499 1.428 0.712-0.453 0.301-0.862 0.502-0.952 0.54-0.147 0.062-0.426 0.174-0.682 0.469-0.037 0.043-0.086 0.099-0.145 0.167l-1.022-0.602c0.031-0.085 0.057-0.155 0.076-0.208z"></path>
<path fill="rgb(181, 66, 21)" d="M11.2 10.835c-0.263 0.306-0.722 0.869-1.202 1.684-0.587 0.997-0.946 1.758-1.337 2.544-0.166 0.333-0.468 0.84-0.962 0.557l-0 0c-0.001-0.001-0.003-0.002-0.004-0.003s-0.003-0.001-0.004-0.002l0-0c-0.487-0.294-0.19-0.805 0.021-1.111 0.498-0.724 0.989-1.406 1.576-2.403 0.48-0.815 0.749-1.489 0.889-1.867l1.022 0.602z"></path>
<path fill="rgb(229, 170, 23)" d="M12.119 4.972c0.643-0.308 1.317-0.25 1.816 0.041l0-0c0.001 0.001 0.003 0.002 0.004 0.002s0.003 0.002 0.004 0.002l-0 0c0.494 0.294 0.87 0.851 0.916 1.558-0.449-0.215-0.952-0.473-1.457-0.771-0.474-0.279-0.907-0.567-1.282-0.833z"></path>
<path fill="rgb(56, 122, 155)" d="M11.498 5.404c0.052-0.049 0.104-0.095 0.157-0.138 0.42 0.304 0.925 0.645 1.489 0.977 0.596 0.351 1.182 0.647 1.686 0.883-0.011 0.067-0.027 0.135-0.044 0.204-0.517-0.238-1.13-0.543-1.748-0.907-0.587-0.345-1.112-0.705-1.54-1.019z"></path>
<path fill="rgb(51, 77, 92)" d="M10.415 7.531c0.046-0.268 0.111-0.534 0.206-0.771 0.154-0.386 0.336-0.708 0.536-0.973 0.445 0.328 0.997 0.707 1.623 1.075 0.658 0.387 1.302 0.708 1.839 0.953-0.135 0.306-0.329 0.624-0.595 0.948-0.159 0.194-0.356 0.378-0.564 0.546-0.552-0.233-1.16-0.514-1.649-0.802-0.464-0.273-0.96-0.635-1.395-0.977z"></path>
<path fill="rgb(255, 255, 255)" d="M11.655 5.266c0.151-0.122 0.307-0.219 0.465-0.295 0.375 0.266 0.808 0.554 1.282 0.833 0.506 0.298 1.008 0.557 1.457 0.771 0.011 0.175 0.003 0.359-0.030 0.55-0.504-0.235-1.090-0.531-1.686-0.883-0.564-0.332-1.069-0.673-1.489-0.977z"></path>
<path fill="rgb(255, 255, 255)" d="M11.156 5.787c0.109-0.144 0.223-0.271 0.342-0.382 0.428 0.314 0.953 0.674 1.54 1.019 0.618 0.364 1.231 0.67 1.748 0.907-0.040 0.158-0.095 0.319-0.168 0.485-0.537-0.245-1.181-0.566-1.839-0.953-0.626-0.368-1.178-0.747-1.623-1.075z"></path>
<path fill="rgb(255, 255, 255)" d="M10.343 8.12c0.015-0.19 0.038-0.39 0.072-0.59 0.436 0.343 0.931 0.704 1.395 0.977 0.489 0.288 1.097 0.569 1.649 0.802-0.158 0.127-0.321 0.244-0.48 0.349-0.487-0.213-0.997-0.458-1.428-0.712-0.403-0.237-0.822-0.533-1.209-0.826z"></path>
<path fill="rgb(255, 255, 255)" d="M11.326 10.69c-0.077 0.088-0.194 0.222-0.339 0.4-0.184-0.094-0.362-0.191-0.529-0.288-0.133-0.079-0.268-0.164-0.403-0.253 0.085-0.211 0.145-0.378 0.185-0.489 0.16 0.108 0.32 0.211 0.476 0.303 0.189 0.111 0.395 0.221 0.609 0.327z"></path>
</svg>
