<?xml version="1.0" encoding="utf-8"?>
<!-- Generator: Adobe Illustrator 16.0.0, SVG Export Plug-In . SVG Version: 6.00 Build 0)  -->
<!DOCTYPE svg PUBLIC "-//W3C//DTD SVG 1.1//EN" "http://www.w3.org/Graphics/SVG/1.1/DTD/svg11.dtd">
<svg version="1.1" id="Layer_1" xmlns="http://www.w3.org/2000/svg" xmlns:xlink="http://www.w3.org/1999/xlink" x="0px" y="0px"
	 width="20px" height="20px" viewBox="0 0 20 20" enable-background="new 0 0 20 20" xml:space="preserve">
<g>
	<path fill="#32BEA6" d="M19.689,10c0-5.352-4.338-9.69-9.689-9.69S0.31,4.648,0.31,10s4.339,9.689,9.69,9.689
		S19.69,15.352,19.689,10L19.689,10z"/>
	<path fill="#3A3A38" d="M13.776,8.505c-0.09-0.351-0.268-0.692-0.514-0.987c-0.234-0.283-0.508-0.51-0.768-0.718l-0.062-0.05
		c-0.107-0.086-0.21-0.168-0.306-0.252c-0.104-0.09-0.212-0.197-0.32-0.316c-0.197-0.215-0.384-0.459-0.556-0.728
		c-0.083-0.129-0.161-0.262-0.233-0.397c-0.036-0.068-0.072-0.136-0.104-0.203c-0.037-0.078-0.067-0.144-0.089-0.196
		c0-0.001-0.002-0.004-0.002-0.005c-0.003-0.007-0.006-0.014-0.009-0.021c-0.078-0.162-0.25-0.262-0.43-0.247
		c-0.054,0.004-0.104,0.018-0.152,0.041c-0.106,0.05-0.186,0.138-0.225,0.249C9.995,4.708,9.988,4.742,9.984,4.776
		c-0.009,0.035-0.014,0.072-0.011,0.11l0.562,6.944c-0.575-0.342-1.41-0.395-2.219-0.08c-1.218,0.475-1.914,1.607-1.555,2.527
		c0.358,0.922,1.638,1.285,2.854,0.809c1.033-0.4,1.69-1.277,1.647-2.096h0.001l-0.555-6.893c0.174,0.225,0.357,0.431,0.547,0.617
		c0.138,0.135,0.269,0.25,0.4,0.353c0.114,0.089,0.229,0.172,0.341,0.251l0.069,0.049c0.241,0.172,0.495,0.359,0.703,0.584
		c0.202,0.216,0.347,0.458,0.43,0.722c0.082,0.254,0.114,0.546,0.097,0.868c-0.016,0.281-0.066,0.58-0.156,0.915
		c-0.077,0.287-0.178,0.582-0.308,0.904c-0.044,0.109,0.008,0.234,0.116,0.281c0.033,0.016,0.069,0.021,0.104,0.02
		c0.075-0.008,0.146-0.053,0.18-0.125c0.155-0.332,0.279-0.639,0.378-0.939c0.119-0.364,0.194-0.694,0.229-1.011
		c0.043-0.389,0.021-0.753-0.063-1.08L13.776,8.505z"/>
</g>
</svg>
