<?xml version="1.0" encoding="utf-8"?>
<!-- Generated by IcoMoon.io -->
<!DOCTYPE svg PUBLIC "-//W3C//DTD SVG 1.1//EN" "http://www.w3.org/Graphics/SVG/1.1/DTD/svg11.dtd">
<svg version="1.1" xmlns="http://www.w3.org/2000/svg" xmlns:xlink="http://www.w3.org/1999/xlink" width="20" height="20" viewBox="0 0 20 20">
<path fill="rgb(37, 183, 211)" d="M19.691 10c0-5.352-4.339-9.691-9.69-9.691s-9.691 4.338-9.691 9.691c0 5.352 4.339 9.69 9.691 9.69s9.69-4.339 9.69-9.69z"></path>
<path fill="rgb(175, 134, 84)" d="M13.478 4.399h-7.233v11.124c0 0 0.179 0.078 0.581 0.078s0.625-0.078 0.625-0.078l0.017-1.406c0 0 0.156 0.068 0.508 0.068s0.546-0.068 0.546-0.068l0.013-1.217c0 0 0.137 0.060 0.444 0.060s0.478-0.060 0.478-0.060l0.012-1.073c0 0 0.12 0.052 0.388 0.052s0.417-0.052 0.417-0.052l0.014-0.924c0 0 0.105 0.046 0.34 0.046s0.366-0.046 0.366-0.046l0.018-0.834c0 0 0.091 0.040 0.296 0.040s0.319-0.040 0.319-0.040l0.015-0.716c0 0 0.080 0.035 0.259 0.035s0.278-0.035 0.278-0.035l0.016-0.596c0 0 0.070 0.031 0.228 0.031s0.245-0.031 0.245-0.031l0.013-0.566c0 0 0.061 0.027 0.198 0.027s0.213-0.027 0.213-0.027l0.015-0.473c0 0 0.053 0.023 0.173 0.023s0.186-0.023 0.186-0.023v-0.392h0.013c0 0 0.047 0.021 0.153 0.021s0.164-0.021 0.164-0.021v-2.926h-0.317z"></path>
<path fill="rgb(234, 73, 73)" d="M14.518 5.339c0 0.23-0.157 0.417-0.352 0.417s-0.352-0.187-0.352-0.417c0-0.23 0.157-0.417 0.352-0.417s0.352 0.187 0.352 0.417z"></path>
<path fill="rgb(234, 73, 73)" d="M14.583 5.339c0 0.194-0.187 0.352-0.417 0.352s-0.417-0.157-0.417-0.352c0-0.194 0.187-0.352 0.417-0.352s0.417 0.157 0.417 0.352z"></path>
<path fill="rgb(234, 73, 73)" d="M13.918 5.587c-0.163-0.163-0.183-0.406-0.046-0.543s0.381-0.117 0.543 0.046c0.163 0.163 0.183 0.406 0.046 0.543s-0.381 0.117-0.543-0.046z"></path>
<path fill="rgb(234, 73, 73)" d="M13.918 5.090c0.163-0.163 0.406-0.183 0.543-0.046s0.117 0.381-0.046 0.543c-0.163 0.163-0.406 0.183-0.543 0.046s-0.117-0.381 0.046-0.543z"></path>
<path fill="rgb(234, 73, 73)" d="M6.185 5.339c0 0.23-0.157 0.417-0.352 0.417s-0.352-0.187-0.352-0.417c0-0.23 0.157-0.417 0.352-0.417s0.352 0.187 0.352 0.417z"></path>
<path fill="rgb(234, 73, 73)" d="M6.25 5.339c0 0.194-0.187 0.352-0.417 0.352s-0.417-0.157-0.417-0.352c0-0.194 0.187-0.352 0.417-0.352s0.417 0.157 0.417 0.352z"></path>
<path fill="rgb(234, 73, 73)" d="M5.585 5.587c-0.163-0.163-0.183-0.406-0.046-0.543s0.381-0.117 0.543 0.046c0.163 0.163 0.183 0.406 0.046 0.543s-0.381 0.117-0.543-0.046z"></path>
<path fill="rgb(234, 73, 73)" d="M5.585 5.090c0.163-0.163 0.406-0.183 0.543-0.046s0.117 0.381-0.046 0.543c-0.163 0.163-0.406 0.183-0.543 0.046s-0.117-0.381 0.046-0.543z"></path>
<path fill="rgb(221, 179, 114)" d="M7.451 15.523c0 0-0.223 0.078-0.625 0.078s-0.581-0.078-0.581-0.078v-11.124h1.206v11.124z"></path>
<path fill="rgb(211, 167, 108)" d="M8.521 14.117c0 0-0.195 0.068-0.546 0.068s-0.508-0.068-0.508-0.068v-9.718h1.054v9.718z"></path>
<path fill="rgb(226, 183, 125)" d="M9.456 12.9c0 0-0.171 0.060-0.478 0.060s-0.444-0.060-0.444-0.060v-8.501h0.922v8.501z"></path>
<path fill="rgb(221, 179, 114)" d="M10.274 11.827c0 0-0.149 0.052-0.417 0.052s-0.388-0.052-0.388-0.052v-7.428h0.805v7.428z"></path>
<path fill="rgb(211, 167, 108)" d="M10.993 10.902c0 0-0.131 0.046-0.366 0.046s-0.34-0.046-0.34-0.046v-6.504h0.705v6.504z"></path>
<path fill="rgb(226, 183, 125)" d="M11.626 10.068c0 0-0.114 0.040-0.319 0.040s-0.296-0.040-0.296-0.040v-5.669h0.615v5.669z"></path>
<path fill="rgb(221, 179, 114)" d="M12.178 9.352c0 0-0.099 0.035-0.278 0.035s-0.259-0.035-0.259-0.035v-4.953h0.537v4.953z"></path>
<path fill="rgb(211, 167, 108)" d="M12.667 8.756c0 0-0.087 0.031-0.245 0.031s-0.228-0.031-0.228-0.031v-4.357h0.472v4.357z"></path>
<path fill="rgb(226, 183, 125)" d="M13.091 8.19c0 0-0.076 0.027-0.213 0.027s-0.198-0.027-0.198-0.027v-3.791h0.411v3.791z"></path>
<path fill="rgb(221, 179, 114)" d="M13.465 7.717c0 0-0.067 0.023-0.186 0.023s-0.173-0.023-0.173-0.023v-3.318h0.36v3.318z"></path>
<path fill="rgb(211, 167, 108)" d="M13.795 7.325c0 0-0.059 0.021-0.164 0.021s-0.153-0.021-0.153-0.021v-2.926h0.317v2.926z"></path>
<path fill="rgb(234, 73, 73)" d="M13.864 5.741h-7.728v-0.802l0.109-0.077v0.077h7.55v-0.077l0.069 0.077z"></path>
<path fill="rgb(216, 162, 9)" d="M6.442 5.626l-0.287-0.287 0.287-0.287 0.287 0.287-0.287 0.287zM6.222 5.339l0.22 0.22 0.22-0.22-0.22-0.22-0.22 0.22z"></path>
<path fill="rgb(216, 162, 9)" d="M6.953 5.626l-0.287-0.287 0.287-0.287 0.287 0.287-0.287 0.287zM6.733 5.339l0.22 0.22 0.22-0.22-0.22-0.22-0.22 0.22z"></path>
<path fill="rgb(216, 162, 9)" d="M7.458 5.626l-0.287-0.287 0.287-0.287 0.287 0.287-0.287 0.287zM7.238 5.339l0.22 0.22 0.22-0.22-0.22-0.22-0.22 0.22z"></path>
<path fill="rgb(216, 162, 9)" d="M7.968 5.626l-0.287-0.287 0.287-0.287 0.287 0.287-0.287 0.287zM7.749 5.339l0.22 0.22 0.22-0.22-0.22-0.22-0.22 0.22z"></path>
<path fill="rgb(216, 162, 9)" d="M8.473 5.626l-0.287-0.287 0.287-0.287 0.287 0.287-0.287 0.287zM8.253 5.339l0.22 0.22 0.22-0.22-0.22-0.22-0.22 0.22z"></path>
<path fill="rgb(216, 162, 9)" d="M8.984 5.626l-0.287-0.287 0.287-0.287 0.287 0.287-0.287 0.287zM8.764 5.339l0.22 0.22 0.22-0.22-0.22-0.22-0.22 0.22z"></path>
<path fill="rgb(216, 162, 9)" d="M9.489 5.626l-0.287-0.287 0.287-0.287 0.287 0.287-0.287 0.287zM9.269 5.339l0.22 0.22 0.22-0.22-0.22-0.22-0.22 0.22z"></path>
<path fill="rgb(216, 162, 9)" d="M10.006 5.626l-0.287-0.287 0.287-0.287 0.287 0.287-0.287 0.287zM9.786 5.339l0.22 0.22 0.22-0.22-0.22-0.22-0.22 0.22z"></path>
<path fill="rgb(216, 162, 9)" d="M10.511 5.626l-0.287-0.287 0.287-0.287 0.287 0.287-0.287 0.287zM10.291 5.339l0.22 0.22 0.22-0.22-0.22-0.22-0.22 0.22z"></path>
<path fill="rgb(216, 162, 9)" d="M11.022 5.626l-0.287-0.287 0.287-0.287 0.287 0.287-0.287 0.287zM10.802 5.339l0.22 0.22 0.22-0.22-0.22-0.22-0.22 0.22z"></path>
<path fill="rgb(216, 162, 9)" d="M11.527 5.626l-0.287-0.287 0.287-0.287 0.287 0.287-0.287 0.287zM11.307 5.339l0.22 0.22 0.22-0.22-0.22-0.22-0.22 0.22z"></path>
<path fill="rgb(216, 162, 9)" d="M12.038 5.626l-0.287-0.287 0.287-0.287 0.287 0.287-0.287 0.287zM11.818 5.339l0.22 0.22 0.22-0.22-0.22-0.22-0.22 0.22z"></path>
<path fill="rgb(216, 162, 9)" d="M12.542 5.626l-0.287-0.287 0.287-0.287 0.287 0.287-0.287 0.287zM12.323 5.339l0.22 0.22 0.22-0.22-0.22-0.22-0.22 0.22z"></path>
<path fill="rgb(216, 162, 9)" d="M13.053 5.626l-0.287-0.287 0.287-0.287 0.287 0.287-0.287 0.287zM12.833 5.339l0.22 0.22 0.22-0.22-0.22-0.22-0.22 0.22z"></path>
<path fill="rgb(216, 162, 9)" d="M13.558 5.626l-0.287-0.287 0.287-0.287 0.287 0.287-0.287 0.287zM13.338 5.339l0.22 0.22 0.22-0.22-0.22-0.22-0.22 0.22z"></path>
</svg>
