<?xml version="1.0" encoding="utf-8"?>
<!-- Generated by IcoMoon.io -->
<!DOCTYPE svg PUBLIC "-//W3C//DTD SVG 1.1//EN" "http://www.w3.org/Graphics/SVG/1.1/DTD/svg11.dtd">
<svg version="1.1" xmlns="http://www.w3.org/2000/svg" xmlns:xlink="http://www.w3.org/1999/xlink" width="20" height="20" viewBox="0 0 20 20">
<path fill="rgb(250, 188, 61)" d="M19.691 10c0-5.352-4.339-9.691-9.69-9.691s-9.691 4.338-9.691 9.691c0 5.352 4.339 9.69 9.691 9.69s9.69-4.339 9.69-9.69z"></path>
<path fill="rgb(160, 147, 147)" d="M5.445 5.783l0.048 0.001-0.152 9.481-0.048-0.001 0.152-9.481z"></path>
<path fill="rgb(72, 5, 0)" d="M5.001 15.313c-0.001 0-0.003-0-0.004-0-0.036-0.001-0.063-0.016-0.061-0.034 0.002-0.015 0.029-1.478 0.158-3.263s-0.069-7.405-0.071-7.462c-0.001-0.018 0.028-0.032 0.064-0.032s0.066 0.014 0.067 0.031c0.003 0.057 0.201 5.679 0.071 7.465s-0.157 3.251-0.158 3.265c-0.002 0.017-0.031 0.030-0.065 0.030z"></path>
<path fill="rgb(124, 123, 123)" d="M5.518 5.512h-0.111c-0.010 0-0.018 0.008-0.018 0.018v0.251c0 0.010 0.008 0.019 0.018 0.019h0.111c0.010 0 0.018-0.008 0.018-0.019v-0.251c-0-0.010-0.008-0.018-0.018-0.018z"></path>
<path fill="rgb(72, 5, 0)" d="M5.565 5.047c-0.001-0.026-0.002-0.047-0.003-0.062-0.001-0.019-0.004-0.052-0.035-0.052h-0c-0.001-0-0.153-0.003-0.27-0.003-0.041 0-0.074 0-0.097 0.001-0.038 0.001-0.070 0.003-0.070 0.036v0.793c0 0.029 0.023 0.052 0.052 0.052h0.098c0.015 0 0.028-0.011 0.031-0.026l0.051-0.26h0.204c0.031 0 0.034-0.033 0.035-0.052 0.001-0.014 0.002-0.035 0.003-0.062 0.001-0.048 0.002-0.114 0.002-0.183s-0.001-0.135-0.002-0.183z"></path>
<path fill="rgb(72, 5, 0)" d="M4.94 15.249c0 0-0.016 0.136 0.055 0.174 0.103 0.055 0.277 0.135 0.269 0.19s0.016 0.095 0.032 0.016c0.016-0.079 0.040-0.309 0.040-0.309s0.040-0.103-0.040-0.087c-0.079 0.016-0.222 0.063-0.23-0.063s-0.127 0.079-0.127 0.079z"></path>
<path fill="rgb(124, 68, 58)" d="M5.418 5.197c0 0.038-0.031 0.069-0.069 0.069s-0.069-0.031-0.069-0.069c0-0.038 0.031-0.069 0.069-0.069s0.069 0.031 0.069 0.069z"></path>
<path fill="rgb(17, 9, 9)" d="M5.087 4.521c-0.036 0-0.065 0.015-0.064 0.032 0 0.005 0.002 0.059 0.005 0.152h0.131c-0.003-0.095-0.005-0.149-0.005-0.154-0.001-0.017-0.030-0.031-0.067-0.031z"></path>
<path fill="rgb(181, 66, 21)" d="M12.66 14.14c-0.104-0.287 0-0.563 0-0.563-0.232 0.033-0.53-0.132-0.828-0.463s-0.298-1.070-0.166-1.556c0.131-0.48 0.761-0.596 0.761-0.596-0.127-0.166-0.033-0.728-0.033-0.728 0.497-0.894 0-2.185 0-2.185-0.418-0.985-2.073-1.028-2.395-1.027-0.322-0.001-1.977 0.042-2.395 1.027 0 0-0.497 1.291 0 2.185 0 0 0.094 0.563-0.033 0.728 0 0 0.631 0.116 0.761 0.596 0.132 0.486 0.132 1.225-0.166 1.556s-0.596 0.497-0.828 0.463c0 0 0.105 0.276 0 0.563-0.066 0.181-0.514 1.452-0.43 2.086 0.076 0.577 0.292 1.982 3.035 2.050v0.002c0.019-0 0.037-0.001 0.055-0.001s0.036 0.001 0.055 0.001v-0.002c2.743-0.068 2.959-1.473 3.035-2.050 0.084-0.634-0.364-1.904-0.43-2.086z"></path>
<path fill="rgb(137, 44, 16)" d="M9.964 18.177l-0.003-0.001c-0.005-0.001-0.009-0.001-0.014-0.001-1.149-0.029-1.973-0.299-2.447-0.803-0.393-0.418-0.457-0.901-0.491-1.161-0.067-0.505 0.236-1.519 0.425-2.038 0.065-0.178 0.058-0.351 0.040-0.465l-0.005-0.032 0.031-0.005c0.23-0.039 0.486-0.209 0.741-0.492 0.318-0.353 0.334-1.113 0.188-1.649-0.105-0.384-0.478-0.558-0.691-0.628l-0.028-0.009 0.006-0.029c0.049-0.221 0.007-0.527-0.013-0.648-0.002-0.011-0.006-0.022-0.011-0.032-0.46-0.828-0.014-2.047 0.005-2.098 0.392-0.919 1.978-0.965 2.292-0.965h0.021c0.314 0 1.899 0.046 2.291 0.964 0.020 0.053 0.465 1.272 0.006 2.1-0.006 0.010-0.009 0.021-0.011 0.032-0.020 0.121-0.062 0.427-0.013 0.648l0.006 0.029-0.028 0.009c-0.213 0.070-0.587 0.244-0.691 0.628-0.146 0.536-0.13 1.296 0.188 1.649 0.255 0.283 0.511 0.453 0.741 0.492l0.032 0.005-0.005 0.032c-0.017 0.114-0.024 0.287 0.040 0.465 0.189 0.519 0.492 1.533 0.425 2.038-0.034 0.259-0.098 0.742-0.491 1.161-0.474 0.504-1.298 0.774-2.447 0.803-0.005 0-0.009 0.001-0.014 0.001l-0.003 0.001-0.034-0.001-0.037 0.001zM10.002 18.112l0.030 0.001c0.006-0.001 0.013-0.002 0.019-0.002 1.131-0.028 1.939-0.291 2.402-0.782 0.379-0.403 0.441-0.872 0.474-1.124 0.065-0.493-0.235-1.494-0.422-2.008-0.064-0.175-0.063-0.345-0.048-0.466-0.236-0.050-0.494-0.225-0.747-0.507-0.333-0.37-0.353-1.157-0.202-1.71 0.108-0.397 0.477-0.584 0.706-0.664-0.042-0.229-0.002-0.524 0.018-0.644 0.003-0.019 0.009-0.037 0.019-0.053 0.445-0.802 0.010-1.994-0.009-2.044-0.375-0.878-1.924-0.923-2.231-0.923h-0.021c-0.307 0-1.856 0.045-2.231 0.924-0.018 0.049-0.454 1.24-0.009 2.043 0.009 0.016 0.015 0.034 0.019 0.053 0.020 0.12 0.060 0.416 0.018 0.644 0.229 0.080 0.598 0.267 0.706 0.664 0.151 0.553 0.131 1.339-0.202 1.71-0.254 0.282-0.511 0.456-0.747 0.507 0.015 0.121 0.016 0.291-0.048 0.466-0.187 0.514-0.487 1.515-0.422 2.008 0.033 0.252 0.095 0.722 0.474 1.124 0.462 0.491 1.27 0.754 2.402 0.782 0.007 0 0.013 0.001 0.020 0.002l0.033-0.001zM12.66 13.609h-0v-0.065l0 0.065z"></path>
<path fill="rgb(63, 53, 51)" d="M10.094 18.942c0 0-0.009 0.049-0.085 0.049s-0.081-0.049-0.081-0.049v-0.767h0.166v0.767z"></path>
<path fill="rgb(183, 111, 24)" d="M9.554 18.76c0.11 0 0.121-0.147 0.121-0.147h0.441v-0.124h-0.441c0 0-0.012-0.147-0.121-0.147 0 0-0.135 0.012-0.135 0.209s0.135 0.209 0.135 0.209z"></path>
<path fill="rgb(140, 83, 21)" d="M9.554 18.76c0.11 0 0.121-0.147 0.121-0.147h0.441v-0.062h-0.697c0 0.197 0.135 0.209 0.135 0.209z"></path>
<path fill="rgb(224, 215, 213)" d="M9.928 18.682h0.166v0.087h-0.166v-0.087z"></path>
<path fill="rgb(63, 53, 51)" d="M10.183 18.39h-0.347c-0.025 0-0.045 0.020-0.045 0.045v0.246c0 0.025 0.020 0.045 0.045 0.045h0.347c0.025 0 0.045-0.020 0.045-0.045v-0.246c-0-0.025-0.020-0.045-0.045-0.045z"></path>
<path fill="rgb(33, 25, 23)" d="M9.791 18.547v0.134c0 0.025 0.020 0.045 0.045 0.045h0.347c0.025 0 0.045-0.020 0.045-0.045v-0.134h-0.436z"></path>
<path fill="rgb(58, 47, 45)" d="M10.511 14.996c-0.156 0.079-0.301 0.097-0.498 0.099-0.197-0.002-0.342-0.020-0.498-0.099 0 0 0.601 1.851 0.23 3.183 0 0 0.024 0.141 0.269 0.141s0.267-0.141 0.267-0.141c-0.378-1.361 0.23-3.183 0.23-3.183z"></path>
<path fill="rgb(33, 25, 23)" d="M9.222 12.462c0.001-0.031-0.001-0.062-0.007-0.091s-0.016-0.056-0.032-0.074c-0.031-0.035-0.075-0.031-0.128-0.018-0.050 0.013-0.083 0.040-0.107 0.078s-0.041 0.089-0.052 0.142c-0.021 0.108-0.026 0.226-0.026 0.345 0 0.059 0.001 0.119 0.003 0.182l0 0.186c-0.002 0.125-0.006 0.25-0.018 0.377-0.007 0.063-0.014 0.127-0.028 0.192s-0.030 0.131-0.062 0.199c-0.008 0.017-0.018 0.034-0.029 0.051-0.006 0.008-0.012 0.017-0.018 0.025-0.005 0.006-0.006 0.007-0.009 0.010l-0.009 0.011c-0.026 0.028-0.054 0.053-0.087 0.073-0.064 0.041-0.146 0.062-0.225 0.045-0.039-0.009-0.076-0.026-0.105-0.053s-0.050-0.060-0.059-0.095c-0.020-0.071-0.002-0.139 0.028-0.194-0.006 0.062 0.001 0.125 0.030 0.169s0.075 0.064 0.12 0.062c0.045-0.002 0.089-0.024 0.123-0.056 0.017-0.016 0.033-0.036 0.046-0.055l0.005-0.008c0.002-0.003 0.005-0.008 0.005-0.008 0.002-0.004 0.005-0.009 0.007-0.014 0.004-0.010 0.008-0.021 0.012-0.032 0.015-0.047 0.022-0.103 0.028-0.16s0.008-0.117 0.010-0.176 0.004-0.242 0.005-0.365c0.002-0.124 0.001-0.243 0.009-0.373 0.009-0.128 0.025-0.258 0.071-0.389 0.024-0.065 0.055-0.131 0.11-0.189 0.027-0.028 0.060-0.053 0.097-0.069s0.076-0.024 0.113-0.025c0.018-0 0.037 0.001 0.054 0.003 0.019 0.002 0.038 0.006 0.057 0.014 0.038 0.014 0.074 0.046 0.087 0.083 0.027 0.074 0.008 0.14-0.018 0.197z"></path>
<path fill="rgb(33, 25, 23)" d="M8.494 13.925c-0.041 0.102-0.13 0.161-0.198 0.134s-0.089-0.132-0.048-0.234c0.041-0.102 0.13-0.161 0.198-0.134s0.089 0.132 0.048 0.234z"></path>
<path fill="rgb(33, 25, 23)" d="M9.234 12.437c-0.034 0.083-0.106 0.132-0.162 0.11s-0.073-0.108-0.039-0.192c0.034-0.083 0.106-0.132 0.162-0.11s0.073 0.108 0.039 0.192z"></path>
<path fill="rgb(51, 40, 38)" d="M11.072 3.128c-0.156 0-0.173 0.166-0.173 0.166h-0.629v0.265h0.629c0 0 0.017 0.166 0.173 0.166 0 0 0.407-0.017 0.407-0.298s-0.407-0.298-0.407-0.298z"></path>
<path fill="rgb(51, 40, 38)" d="M11.072 2.201c-0.156 0-0.173 0.165-0.173 0.165h-0.629v0.265h0.629c0 0 0.017 0.166 0.173 0.166 0 0 0.407-0.017 0.407-0.298s-0.407-0.298-0.407-0.298z"></path>
<path fill="rgb(51, 40, 38)" d="M8.889 3.112c0.156 0 0.173-0.166 0.173-0.166h0.629v-0.265h-0.629c0 0-0.016-0.165-0.173-0.165 0 0-0.407 0.017-0.407 0.298s0.407 0.298 0.407 0.298z"></path>
<path fill="rgb(51, 40, 38)" d="M8.889 4.039c0.156 0 0.173-0.166 0.173-0.166h0.629v-0.265h-0.629c0 0-0.016-0.165-0.173-0.165 0 0-0.407 0.017-0.407 0.298s0.407 0.298 0.407 0.298z"></path>
<path fill="rgb(33, 25, 23)" d="M10.766 12.462c-0.001-0.031 0.001-0.062 0.007-0.091s0.016-0.056 0.032-0.074c0.031-0.035 0.075-0.031 0.128-0.018 0.050 0.013 0.083 0.040 0.107 0.078s0.041 0.089 0.052 0.142c0.021 0.108 0.026 0.226 0.026 0.345-0 0.059-0.001 0.119-0.003 0.182l-0 0.186c0.002 0.125 0.006 0.25 0.018 0.377 0.007 0.063 0.014 0.127 0.028 0.192s0.030 0.131 0.062 0.199c0.008 0.017 0.018 0.034 0.029 0.051 0.006 0.008 0.012 0.017 0.019 0.025 0.005 0.006 0.006 0.007 0.009 0.010l0.009 0.011c0.026 0.028 0.054 0.053 0.087 0.073 0.064 0.041 0.146 0.062 0.225 0.045 0.039-0.009 0.076-0.026 0.105-0.053s0.050-0.060 0.059-0.095c0.020-0.071 0.002-0.139-0.028-0.194 0.006 0.062-0.001 0.125-0.030 0.169s-0.075 0.064-0.12 0.062c-0.045-0.002-0.089-0.024-0.123-0.056-0.017-0.016-0.033-0.036-0.046-0.055l-0.005-0.008c-0.002-0.003-0.005-0.008-0.005-0.008-0.002-0.004-0.005-0.009-0.007-0.014-0.004-0.010-0.008-0.021-0.012-0.032-0.015-0.047-0.022-0.103-0.028-0.16s-0.008-0.117-0.010-0.176-0.004-0.242-0.005-0.365c-0.002-0.124-0.001-0.243-0.009-0.373-0.009-0.128-0.025-0.258-0.071-0.389-0.024-0.065-0.055-0.131-0.11-0.189-0.027-0.028-0.060-0.053-0.097-0.069s-0.076-0.024-0.113-0.025c-0.018-0-0.037 0.001-0.054 0.003-0.019 0.002-0.038 0.006-0.057 0.014-0.038 0.014-0.073 0.046-0.087 0.083-0.027 0.074-0.008 0.14 0.018 0.197z"></path>
<path fill="rgb(33, 25, 23)" d="M11.493 13.924c-0.041-0.102-0.020-0.206 0.048-0.234s0.156 0.032 0.198 0.134c0.041 0.102 0.020 0.206-0.048 0.234s-0.156-0.032-0.198-0.134z"></path>
<path fill="rgb(33, 25, 23)" d="M10.754 12.437c-0.034-0.083-0.017-0.169 0.039-0.192s0.128 0.026 0.162 0.11c0.034 0.083 0.017 0.169-0.039 0.192s-0.128-0.026-0.162-0.11z"></path>
<path fill="rgb(183, 78, 19)" d="M10.452 1.556c0 0-0.050-0.215-0.215-0.215 0 0-0.017-0.314-0.248-0.331h-0.014c-0.232 0.017-0.248 0.331-0.248 0.331-0.165 0-0.215 0.215-0.215 0.215-0.182 0.017-0.149 0.149-0.149 0.149-0.017 0.248 0.248 0.248 0.248 0.248-0.066 0.116 0.066 0.166 0.066 0.166l-0.116 1.688c-0.050 0.43 0.149-0.064 0.149-0.064l0.272-0.015 0.272 0.015c0 0 0.199 0.494 0.149 0.064l-0.116-1.688c0 0 0.132-0.050 0.066-0.166 0 0 0.265 0 0.248-0.248 0 0 0.033-0.132-0.149-0.149z"></path>
<path fill="rgb(163, 65, 22)" d="M10.287 2.119c0 0-0.099 0.050-0.306 0.050s-0.304-0.050-0.304-0.050-0.070-0.026-0.082-0.085c-0.018 0.086 0.082 0.124 0.082 0.124s0.097 0.050 0.304 0.050c0.207 0 0.306-0.050 0.306-0.050s0.1-0.038 0.083-0.124c-0.013 0.059-0.083 0.085-0.083 0.085z"></path>
<path fill="rgb(168, 70, 20)" d="M10.007 2.63h0.315l-0.018-0.263h-0.297z"></path>
<path fill="rgb(168, 70, 20)" d="M9.989 2.681h-0.351l-0.018 0.263h0.369z"></path>
<path fill="rgb(168, 70, 20)" d="M10.139 3.557h0.246l-0.018-0.263h-0.228z"></path>
<path fill="rgb(168, 70, 20)" d="M9.864 3.608h-0.29l-0.014 0.199c-0.003 0.023-0.004 0.044-0.006 0.065h0.31v-0.263z"></path>
<path fill="rgb(66, 57, 56)" d="M10.424 11.491l-0.122-7.436-0.322 0.046-0.322-0.046-0.122 7.436z"></path>
<path fill="rgb(168, 70, 20)" d="M10.156 2.052l0.146 2.003-0.322 0.046-0.322-0.046 0.146-2.003z"></path>
<path fill="rgb(232, 222, 170)" d="M10.798 13.401l-0.123-0.080c-0.007-0.005-0.015-0.007-0.024-0.007h-1.297c-0.008 0-0.017 0.002-0.024 0.007l-0.123 0.080c-0.012 0.008-0.019 0.021-0.020 0.035s0.006 0.028 0.017 0.036l0.123 0.094c0.008 0.006 0.017 0.009 0.026 0.009h1.297c0.010 0 0.019-0.003 0.027-0.009l0.123-0.094c0.011-0.009 0.018-0.022 0.017-0.036s-0.008-0.027-0.020-0.035z"></path>
<path fill="rgb(226, 207, 201)" d="M9.674 15.215c-0.006 0-0.011-0.007-0.011-0.015l-0.052-1.721 0.14-9.242 0.022-0.621c0-0.009 0.007-0.017 0.017-0.016s0.016 0.008 0.016 0.017l-0.022 0.621-0.152 9.24 0.054 1.72c0.001 0.009-0.004 0.017-0.010 0.018-0 0-0.001 0-0.001 0z"></path>
<path fill="rgb(226, 207, 201)" d="M9.896 15.193c-0.005 0-0.009-0.007-0.009-0.016l-0.036-1.699 0.055-9.219 0.017-1.603c0-0.009 0.009-0.017 0.017-0.016s0.016 0.008 0.016 0.017l-0.017 1.603-0.070 9.218 0.036 1.698c0 0.009-0.004 0.017-0.009 0.017-0 0-0 0-0 0z"></path>
<path fill="rgb(226, 207, 201)" d="M10.314 15.215c-0 0-0.001 0-0.001-0-0.006-0.001-0.011-0.009-0.010-0.018l0.054-1.721-0.153-9.238-0.025-0.96c-0-0.009 0.007-0.017 0.016-0.017 0.009 0.001 0.017 0.007 0.017 0.016l0.025 0.96 0.14 9.24-0.052 1.723c-0 0.009-0.005 0.015-0.011 0.015z"></path>
<path fill="rgb(226, 207, 201)" d="M10.092 15.193c-0 0-0 0-0 0-0.005-0-0.009-0.008-0.009-0.017l0.036-1.699-0.070-9.217-0.019-1.917c-0-0.009 0.007-0.017 0.016-0.017 0 0 0 0 0 0 0.009 0 0.017 0.007 0.017 0.016l0.019 1.917 0.055 9.218-0.036 1.7c-0 0.009-0.004 0.016-0.009 0.016z"></path>
<path fill="rgb(196, 81, 24)" d="M10.452 1.556c0 0-0.050-0.215-0.215-0.215 0 0-0.017-0.314-0.248-0.331h-0.014c-0.232 0.017-0.248 0.331-0.248 0.331-0.165 0-0.215 0.215-0.215 0.215-0.182 0.017-0.149 0.149-0.149 0.149-0.017 0.248 0.248 0.248 0.248 0.248-0.066 0.116 0.066 0.166 0.066 0.166s0.097 0.050 0.304 0.050c0.207 0 0.306-0.050 0.306-0.050s0.132-0.050 0.066-0.166c0 0 0.265 0 0.248-0.248 0 0 0.033-0.132-0.149-0.149z"></path>
<path fill="rgb(181, 73, 26)" d="M10.239 1.341c0.001 0.052 0.006 0.104 0.014 0.156s0.016 0.103 0.027 0.153c0.011 0.051 0.027 0.1 0.039 0.15s0.026 0.1 0.036 0.152l-0.003 0.001c-0.028-0.045-0.047-0.095-0.064-0.144s-0.025-0.103-0.033-0.154-0.025-0.209-0.018-0.314l0.003 0z"></path>
<path fill="rgb(181, 73, 26)" d="M10.455 1.555c0.012 0.056 0.026 0.11 0.042 0.165 0.008 0.027 0.019 0.053 0.024 0.081s0.011 0.055 0.011 0.085l-0.003 0.001c-0.018-0.024-0.030-0.050-0.040-0.077s-0.013-0.056-0.018-0.084c-0.010-0.056-0.017-0.113-0.020-0.17l0.003-0z"></path>
<path fill="rgb(181, 73, 26)" d="M9.727 1.341c0.006 0.105-0.002 0.21-0.018 0.314-0.008 0.052-0.017 0.104-0.033 0.154s-0.037 0.099-0.065 0.144l-0.003-0.001c0.010-0.052 0.024-0.102 0.036-0.152s0.028-0.1 0.039-0.15c0.011-0.051 0.020-0.102 0.027-0.153s0.012-0.103 0.014-0.156l0.003-0z"></path>
<path fill="rgb(181, 73, 26)" d="M9.51 1.556c-0.003 0.057-0.009 0.114-0.020 0.17-0.005 0.028-0.008 0.057-0.018 0.084s-0.022 0.053-0.040 0.077l-0.003-0.001c0.001-0.030 0.006-0.058 0.011-0.085s0.017-0.054 0.024-0.081c0.016-0.054 0.030-0.109 0.042-0.165l0.003 0z"></path>
</svg>
