<?xml version="1.0" encoding="utf-8"?>
<!-- Generator: Adobe Illustrator 16.0.0, SVG Export Plug-In . SVG Version: 6.00 Build 0)  -->
<!DOCTYPE svg PUBLIC "-//W3C//DTD SVG 1.1//EN" "http://www.w3.org/Graphics/SVG/1.1/DTD/svg11.dtd">
<svg version="1.1" id="Layer_1" xmlns="http://www.w3.org/2000/svg" xmlns:xlink="http://www.w3.org/1999/xlink" x="0px" y="0px"
	 width="20px" height="20px" viewBox="0 0 20 20" enable-background="new 0 0 20 20" xml:space="preserve">
<g>
	<path fill="#EA4949" d="M19.689,10c0-5.352-4.338-9.69-9.689-9.69S0.31,4.648,0.31,10c0,5.352,4.339,9.689,9.69,9.689
		S19.69,15.352,19.689,10L19.689,10z"/>
	<path fill="#3A3A38" d="M14.354,12.582c0,0-0.976-7.239-0.995-7.238l-6.08,0.378c-0.035,0.002,0.702,6.5,0.702,6.5
		c-0.458-0.238-1.104-0.246-1.714,0.031c-0.918,0.418-1.407,1.32-1.092,2.016c0.316,0.693,1.317,0.92,2.235,0.502
		c0.779-0.354,1.249-1.057,1.181-1.686h0.001l-0.68-5.98l5.126-0.321l0.704,4.935c-0.458-0.239-1.104-0.245-1.714,0.032
		c-0.919,0.417-1.407,1.318-1.092,2.014s1.317,0.92,2.235,0.502C13.951,13.914,14.42,13.212,14.354,12.582L14.354,12.582
		L14.354,12.582z"/>
</g>
</svg>
