<?xml version="1.0" encoding="utf-8"?>
<!-- Generated by IcoMoon.io -->
<!DOCTYPE svg PUBLIC "-//W3C//DTD SVG 1.1//EN" "http://www.w3.org/Graphics/SVG/1.1/DTD/svg11.dtd">
<svg version="1.1" xmlns="http://www.w3.org/2000/svg" xmlns:xlink="http://www.w3.org/1999/xlink" width="20" height="20" viewBox="0 0 20 20">
<path fill="rgb(37, 183, 211)" d="M19.691 10c0-5.352-4.339-9.691-9.69-9.691s-9.691 4.338-9.691 9.691c0 5.352 4.339 9.69 9.691 9.69s9.69-4.339 9.69-9.69z"></path>
<path fill="rgb(255, 219, 157)" d="M8.449 17.061h1.988l3.492-11.039-0.679-0.23-4.995 10.763z"></path>
<path fill="rgb(252, 158, 94)" d="M12.135 4.871c-0.364 0.216-0.921 1.242-2.376 0.414l-3.589-2.346c0 0-1.062 6.958 2.255 13.248l0.485-1.043c-0.389-0.93-2.189-5.532-1.625-9.766 0 0 3.658 2.203 5.212 0.413 0.285-0.328 0.867-0.328 0.754 0.001l0.679 0.23c0 0 0.245-0.755-0.232-1.11-0.258-0.192-0.98-0.385-1.562-0.040z"></path>
<path fill="rgb(221, 133, 74)" d="M10.807 6.412c-1.716 0-3.733-1.234-4.36-1.679l-0.011-0.839c0.027 0.018 2.583 1.955 4.066 2.093 1.004 0.093 1.106-0.043 2.075-0.655 0.073-0.046 0.2-0.098 0.346-0.029v0.174c-0.146 0-0.313 0.098-0.418 0.194-0.367 0.334-0.627 0.742-1.698 0.742z"></path>
<path fill="rgb(232, 223, 217)" d="M8.934 15.405c-0.023 0-0.043-0.015-0.047-0.037l-2.352-10.97c-0.005-0.025 0.012-0.049 0.038-0.054s0.052 0.011 0.057 0.036l2.352 10.97c0.005 0.025-0.012 0.049-0.038 0.054-0.003 0.001-0.007 0.001-0.010 0.001z"></path>
<path fill="rgb(232, 223, 217)" d="M9.299 14.717c-0.023 0-0.043-0.015-0.047-0.037l-2.136-9.96c-0.005-0.025 0.012-0.049 0.038-0.054s0.052 0.011 0.057 0.036l2.136 9.96c0.005 0.025-0.012 0.049-0.038 0.054-0.003 0.001-0.007 0.001-0.010 0.001z"></path>
<path fill="rgb(232, 223, 217)" d="M9.623 13.948c-0.023 0-0.043-0.015-0.048-0.037l-1.877-8.754c-0.005-0.025 0.012-0.049 0.038-0.054s0.052 0.011 0.057 0.036l1.877 8.754c0.005 0.025-0.012 0.049-0.038 0.054-0.003 0.001-0.007 0.001-0.010 0.001z"></path>
<path fill="rgb(232, 223, 217)" d="M9.977 13.208c-0.023 0-0.043-0.015-0.047-0.037l-1.649-7.693c-0.005-0.025 0.012-0.049 0.038-0.054s0.052 0.011 0.057 0.036l1.649 7.693c0.005 0.025-0.012 0.049-0.038 0.054-0.003 0.001-0.007 0.001-0.010 0.001z"></path>
<path fill="rgb(232, 223, 217)" d="M10.316 12.417c-0.023 0-0.043-0.015-0.047-0.037l-1.431-6.672c-0.005-0.025 0.012-0.049 0.038-0.054s0.052 0.011 0.057 0.036l1.431 6.672c0.005 0.025-0.012 0.049-0.038 0.054-0.003 0.001-0.007 0.001-0.010 0.001z"></path>
<path fill="rgb(232, 223, 217)" d="M10.668 11.667c-0.023 0-0.043-0.015-0.047-0.037l-1.201-5.6c-0.005-0.025 0.012-0.049 0.038-0.054s0.052 0.011 0.057 0.036l1.201 5.6c0.005 0.025-0.012 0.049-0.038 0.054-0.003 0.001-0.007 0.001-0.010 0.001z"></path>
<path fill="rgb(232, 223, 217)" d="M11.003 10.9c-0.023 0-0.043-0.015-0.047-0.037l-1.018-4.722c-0.005-0.025 0.012-0.049 0.038-0.054s0.052 0.011 0.057 0.036l1.018 4.722c0.005 0.025-0.012 0.049-0.038 0.054-0.003 0.001-0.007 0.001-0.010 0.001z"></path>
<path fill="rgb(232, 223, 217)" d="M11.339 10.094c-0.023 0-0.043-0.015-0.048-0.037l-0.804-3.751c-0.005-0.025 0.012-0.049 0.038-0.054s0.052 0.011 0.057 0.036l0.804 3.751c0.005 0.025-0.012 0.049-0.038 0.054-0.003 0.001-0.007 0.001-0.010 0.001z"></path>
<path fill="rgb(232, 223, 217)" d="M11.704 9.332c-0.023 0-0.043-0.015-0.047-0.037l-0.661-3.080c-0.005-0.025 0.012-0.049 0.038-0.054s0.052 0.011 0.057 0.036l0.661 3.080c0.005 0.025-0.012 0.049-0.038 0.054-0.003 0.001-0.007 0.001-0.010 0.001z"></path>
<path fill="rgb(232, 223, 217)" d="M12.047 8.54c-0.023 0-0.043-0.015-0.048-0.037l-0.494-2.323c-0.005-0.025 0.012-0.049 0.038-0.054s0.052 0.011 0.057 0.036l0.494 2.323c0.005 0.025-0.012 0.049-0.038 0.054-0.003 0.001-0.006 0.001-0.010 0.001z"></path>
<path fill="rgb(232, 223, 217)" d="M12.41 7.953c-0.022 0-0.043-0.015-0.047-0.037l-0.445-2.047c-0.005-0.025 0.011-0.049 0.038-0.054s0.052 0.011 0.057 0.036l0.445 2.047c0.006 0.025-0.011 0.049-0.038 0.054-0.003 0.001-0.007 0.001-0.010 0.001z"></path>
<path fill="rgb(232, 223, 217)" d="M12.749 7.156c-0.022 0-0.043-0.015-0.047-0.037l-0.335-1.526c-0.006-0.025 0.011-0.049 0.037-0.054s0.052 0.011 0.057 0.036l0.335 1.526c0.006 0.025-0.011 0.049-0.037 0.054-0.003 0.001-0.007 0.001-0.010 0.001z"></path>
<path fill="rgb(232, 223, 217)" d="M13.105 6.42c-0.022 0-0.042-0.015-0.047-0.036l-0.242-1.031c-0.006-0.025 0.011-0.049 0.037-0.055s0.052 0.010 0.058 0.035l0.243 1.031c0.006 0.025-0.011 0.049-0.037 0.055-0.003 0.001-0.007 0.001-0.011 0.001z"></path>
<path fill="rgb(252, 158, 94)" d="M8.449 17.061h1.988l3.492-11.039-0.679-0.23z"></path>
<path fill="rgb(183, 99, 42)" d="M6.687 4.388c0 0.055-0.047 0.1-0.105 0.1s-0.105-0.045-0.105-0.1c0-0.055 0.047-0.1 0.105-0.1s0.105 0.045 0.105 0.1z"></path>
<path fill="rgb(183, 99, 42)" d="M7.277 4.764c0 0.055-0.047 0.1-0.105 0.1s-0.105-0.045-0.105-0.1c0-0.055 0.047-0.1 0.105-0.1s0.105 0.045 0.105 0.1z"></path>
<path fill="rgb(183, 99, 42)" d="M7.851 5.147c0 0.055-0.047 0.1-0.105 0.1s-0.105-0.045-0.105-0.1c0-0.055 0.047-0.1 0.105-0.1s0.105 0.045 0.105 0.1z"></path>
<path fill="rgb(183, 99, 42)" d="M8.433 5.469c0 0.055-0.047 0.1-0.105 0.1s-0.105-0.045-0.105-0.1c0-0.055 0.047-0.1 0.105-0.1s0.105 0.045 0.105 0.1z"></path>
<path fill="rgb(183, 99, 42)" d="M8.797 5.745c0-0.055 0.047-0.1 0.105-0.1s0.105 0.045 0.105 0.1-0.047 0.1-0.105 0.1c-0.058 0-0.105-0.045-0.105-0.1z"></path>
<path fill="rgb(183, 99, 42)" d="M9.581 6.017c0 0.055-0.047 0.1-0.105 0.1s-0.105-0.045-0.105-0.1c0-0.055 0.047-0.1 0.105-0.1s0.105 0.045 0.105 0.1z"></path>
<path fill="rgb(183, 99, 42)" d="M10.090 6.132c0 0.055-0.047 0.1-0.105 0.1s-0.105-0.045-0.105-0.1c0-0.055 0.047-0.1 0.105-0.1s0.105 0.045 0.105 0.1z"></path>
<path fill="rgb(183, 99, 42)" d="M10.611 6.224c0 0.055-0.047 0.1-0.105 0.1s-0.105-0.045-0.105-0.1c0-0.055 0.047-0.1 0.105-0.1s0.105 0.045 0.105 0.1z"></path>
<path fill="rgb(183, 99, 42)" d="M11.161 6.24c0 0.055-0.047 0.1-0.105 0.1s-0.105-0.045-0.105-0.1c0-0.055 0.047-0.1 0.105-0.1s0.105 0.045 0.105 0.1z"></path>
<path fill="rgb(183, 99, 42)" d="M11.658 6.136c0 0.055-0.047 0.1-0.105 0.1s-0.105-0.045-0.105-0.1c0-0.055 0.047-0.1 0.105-0.1s0.105 0.045 0.105 0.1z"></path>
<path fill="rgb(183, 99, 42)" d="M12.082 5.918c0 0.055-0.047 0.1-0.105 0.1s-0.105-0.045-0.105-0.1c0-0.055 0.047-0.1 0.105-0.1s0.105 0.045 0.105 0.1z"></path>
<path fill="rgb(183, 99, 42)" d="M12.519 5.584c0 0.055-0.047 0.1-0.105 0.1s-0.105-0.045-0.105-0.1c0-0.055 0.047-0.1 0.105-0.1s0.105 0.045 0.105 0.1z"></path>
<path fill="rgb(183, 99, 42)" d="M12.963 5.339c0 0.055-0.047 0.1-0.105 0.1s-0.105-0.045-0.105-0.1c0-0.055 0.047-0.1 0.105-0.1s0.105 0.045 0.105 0.1z"></path>
<path fill="rgb(252, 158, 94)" d="M9.049 15.404c0 0.055-0.047 0.1-0.105 0.1s-0.105-0.045-0.105-0.1c0-0.055 0.047-0.1 0.105-0.1s0.105 0.045 0.105 0.1z"></path>
<path fill="rgb(252, 158, 94)" d="M9.402 14.668c0 0.055-0.047 0.1-0.105 0.1s-0.105-0.045-0.105-0.1c0-0.055 0.047-0.1 0.105-0.1s0.105 0.045 0.105 0.1z"></path>
<path fill="rgb(252, 158, 94)" d="M9.734 13.919c0 0.055-0.047 0.1-0.105 0.1s-0.105-0.045-0.105-0.1c0-0.055 0.047-0.1 0.105-0.1s0.105 0.045 0.105 0.1z"></path>
<path fill="rgb(252, 158, 94)" d="M10.092 13.164c0 0.055-0.047 0.1-0.105 0.1s-0.105-0.045-0.105-0.1c0-0.055 0.047-0.1 0.105-0.1s0.105 0.045 0.105 0.1z"></path>
<path fill="rgb(252, 158, 94)" d="M10.444 12.37c0 0.055-0.047 0.1-0.105 0.1s-0.105-0.045-0.105-0.1c0-0.055 0.047-0.1 0.105-0.1s0.105 0.045 0.105 0.1z"></path>
<path fill="rgb(252, 158, 94)" d="M10.78 11.631c0 0.055-0.047 0.1-0.105 0.1s-0.105-0.045-0.105-0.1c0-0.055 0.047-0.1 0.105-0.1s0.105 0.045 0.105 0.1z"></path>
<path fill="rgb(252, 158, 94)" d="M11.121 10.884c0 0.055-0.047 0.1-0.105 0.1s-0.105-0.045-0.105-0.1c0-0.055 0.047-0.1 0.105-0.1s0.105 0.045 0.105 0.1z"></path>
<path fill="rgb(252, 158, 94)" d="M11.492 10.098c0 0.055-0.047 0.1-0.105 0.1s-0.105-0.045-0.105-0.1c0-0.055 0.047-0.1 0.105-0.1s0.105 0.045 0.105 0.1z"></path>
<path fill="rgb(252, 158, 94)" d="M11.84 9.332c0 0.055-0.047 0.1-0.105 0.1s-0.105-0.045-0.105-0.1c0-0.055 0.047-0.1 0.105-0.1s0.105 0.045 0.105 0.1z"></path>
<path fill="rgb(252, 158, 94)" d="M12.196 8.555c0 0.055-0.047 0.1-0.105 0.1s-0.105-0.045-0.105-0.1c0-0.055 0.047-0.1 0.105-0.1s0.105 0.045 0.105 0.1z"></path>
<path fill="rgb(252, 158, 94)" d="M12.543 7.872c0 0.055-0.047 0.1-0.105 0.1s-0.105-0.045-0.105-0.1c0-0.055 0.047-0.1 0.105-0.1s0.105 0.045 0.105 0.1z"></path>
</svg>
