<?xml version="1.0" encoding="utf-8"?>
<!-- Generated by IcoMoon.io -->
<!DOCTYPE svg PUBLIC "-//W3C//DTD SVG 1.1//EN" "http://www.w3.org/Graphics/SVG/1.1/DTD/svg11.dtd">
<svg version="1.1" xmlns="http://www.w3.org/2000/svg" xmlns:xlink="http://www.w3.org/1999/xlink" width="20" height="20" viewBox="0 0 20 20">
<path fill="rgb(224, 79, 95)" d="M19.691 10c0-5.352-4.339-9.691-9.69-9.691s-9.691 4.338-9.691 9.691c0 5.352 4.339 9.69 9.691 9.69s9.69-4.339 9.69-9.69z"></path>
<path fill="rgb(188, 188, 188)" d="M14.43 8.623c0 0.073 0.059 0.132 0.132 0.132h0.451c0.073 0 0.132-0.059 0.132-0.132v-1.163c0-0.073-0.059-0.132-0.132-0.132h-0.451c-0.073 0-0.132 0.059-0.132 0.132v1.163z"></path>
<path fill="rgb(180, 204, 94)" d="M15.527 14.149c0 0.237-0.192 0.429-0.429 0.429h-10.196c-0.237 0-0.429-0.192-0.429-0.429v-6.010c0-0.237 0.192-0.429 0.429-0.429 0 0 1.614-0.224 5.089-0.224s5.107 0.224 5.107 0.224c0.237 0 0.429 0.192 0.429 0.429v6.010z"></path>
<path fill="rgb(125, 173, 51)" d="M15.527 14.149c0 0.237-0.192 0.429-0.429 0.429h-10.196c-0.237 0-0.429-0.192-0.429-0.429v-0.191h11.054v0.191z"></path>
<path fill="rgb(204, 157, 62)" d="M14.548 12.508c0 0.195-0.158 0.353-0.353 0.353h-8.39c-0.195 0-0.353-0.158-0.353-0.353v-3.837c0-0.195 0.158-0.353 0.353-0.353h8.39c0.195 0 0.353 0.158 0.353 0.353v3.837z"></path>
<path fill="rgb(183, 134, 55)" d="M5.452 8.671c0-0.195 0.158-0.353 0.353-0.353h8.39c0.195 0 0.353 0.158 0.353 0.353l-9.098 2.439 0.001-2.439z"></path>
<path fill="rgb(211, 176, 91)" d="M8.71 8.499l-0.538 0.538-0.538-0.538 0.181-0.181h-0.181l-0.091 0.091-0.091-0.091h-0.181l0.181 0.181-0.538 0.538-0.538-0.538 0.181-0.181h-0.181l-0.091 0.091-0.091-0.091h-0.181l0.181 0.181-0.538 0.538-0.208-0.208v0.181l0.118 0.118-0.118 0.118v0.181l0.208-0.208 0.538 0.538-0.538 0.538-0.208-0.208v0.181l0.118 0.118-0.118 0.118v0.181l0.208-0.208 0.538 0.538-0.538 0.538-0.208-0.208v0.181l0.118 0.118-0.118 0.118v0.181l0.208-0.208 0.538 0.538-0.538 0.538-0.192-0.192c0.043 0.137 0.169 0.238 0.319 0.246l0.501-0.501 0.502 0.502h0.252l0.502-0.502 0.502 0.502h0.252l0.502-0.502 0.502 0.502h0.253l0.502-0.502 0.502 0.502h0.252l0.502-0.502 0.502 0.502h0.252l0.502-0.502 0.502 0.502h0.252l0.502-0.502 0.484 0.483c0.043-0.014 0.082-0.037 0.116-0.065l-0.509-0.509 0.538-0.538 0.095 0.095v-0.181l-0.005-0.005 0.005-0.005v-0.181l-0.095 0.095-0.538-0.538 0.538-0.538 0.095 0.095v-0.181l-0.005-0.005 0.005-0.005v-0.181l-0.095 0.095-0.538-0.538 0.538-0.538 0.095 0.095v-0.181l-0.005-0.005 0.005-0.005v-0.181l-0.095 0.095-0.538-0.538 0.181-0.181h-0.181l-0.091 0.091-0.091-0.091h-0.181l0.181 0.181-0.538 0.538-0.538-0.538 0.181-0.181h-0.181l-0.091 0.091-0.091-0.091h-0.181l0.181 0.181-0.538 0.538-0.538-0.538 0.181-0.181h-0.181l-0.091 0.091-0.091-0.091h-0.181l0.181 0.181-0.538 0.538-0.538-0.538 0.181-0.181h-0.181l-0.091 0.091-0.091-0.091h-0.181l0.181 0.181-0.537 0.537-0.537-0.537 0.181-0.181h-0.181l-0.091 0.091-0.091-0.091h-0.181l0.182 0.182zM8.468 9.513l-0.001 0.001 0.242 0.242-0.537 0.537-0.537-0.537 0.538-0.538 0.295 0.295zM11.017 10.141l0.295-0.295 0.538 0.538-0.537 0.537-0.537-0.537 0.242-0.242-0.001-0.001zM12.568 10.921l-0.538-0.538 0.538-0.538 0.538 0.538-0.538 0.538zM13.197 10.474l0.538 0.538-0.538 0.538-0.538-0.538 0.538-0.538zM12.478 11.012l-0.538 0.538-0.295-0.295 0.001-0.001-0.242-0.242 0.242-0.242-0.001-0.001 0.295-0.295 0.538 0.538zM11.221 11.012l-0.537 0.537-0.537-0.537 0.537-0.537 0.537 0.537zM10.056 10.921l-0.537-0.537 0.537-0.537 0.537 0.537-0.537 0.537zM9.965 11.012l-0.537 0.537-0.537-0.537 0.537-0.537 0.537 0.537zM8.8 10.921l-0.537-0.537 0.537-0.537 0.537 0.537-0.537 0.537zM7.211 11.254l-0.295 0.295-0.538-0.538 0.538-0.538 0.295 0.295-0.001 0.001 0.242 0.242-0.242 0.242 0.001 0.001zM7.007 10.384l0.538-0.538 0.295 0.295-0.001 0.001 0.242 0.242-0.537 0.537-0.537-0.537zM8.172 10.475l0.537 0.537-0.537 0.537-0.537-0.537 0.537-0.537zM7.544 8.589l0.538 0.538-0.538 0.538-0.538-0.538 0.538-0.538zM7.454 9.755l-0.538 0.538-0.538-0.538 0.538-0.538 0.538 0.538zM5.75 9.127l0.538-0.538 0.538 0.538-0.538 0.538-0.538-0.538zM5.75 10.384l0.538-0.538 0.538 0.538-0.538 0.538-0.538-0.538zM5.75 11.64l0.538-0.538 0.538 0.538-0.538 0.538-0.538-0.538zM6.916 12.806l-0.538-0.538 0.538-0.538 0.538 0.538-0.538 0.538zM7.007 11.64l0.537-0.537 0.537 0.537-0.242 0.242 0.001 0.001-0.295 0.295-0.538-0.538zM8.468 12.511l-0.295 0.295-0.538-0.538 0.537-0.537 0.537 0.537-0.242 0.242 0.001 0.001zM8.263 11.64l0.537-0.537 0.537 0.537-0.537 0.537-0.537-0.537zM9.428 12.805l-0.537-0.537 0.537-0.537 0.537 0.537-0.537 0.537zM9.519 11.64l0.537-0.537 0.537 0.537-0.537 0.537-0.537-0.537zM10.684 12.806l-0.295-0.295 0.001-0.001-0.242-0.242 0.537-0.537 0.537 0.537-0.538 0.538zM11.017 11.883l0.001-0.001-0.242-0.242 0.537-0.537 0.537 0.537-0.538 0.538-0.295-0.295zM11.94 12.806l-0.538-0.538 0.538-0.538 0.538 0.538-0.538 0.538zM12.031 11.64l0.538-0.538 0.538 0.538-0.538 0.538-0.538-0.538zM13.197 12.806l-0.538-0.538 0.538-0.538 0.538 0.538-0.538 0.538zM14.363 11.64l-0.538 0.538-0.538-0.538 0.538-0.538 0.538 0.538zM14.363 10.384l-0.538 0.538-0.538-0.538 0.538-0.538 0.538 0.538zM13.825 8.59l0.538 0.538-0.538 0.538-0.538-0.538 0.538-0.538zM13.734 9.755l-0.538 0.538-0.538-0.538 0.538-0.538 0.538 0.538zM12.568 8.589l0.538 0.538-0.538 0.538-0.538-0.538 0.538-0.538zM12.478 9.755l-0.538 0.538-0.538-0.538 0.538-0.538 0.538 0.538zM11.312 8.589l0.538 0.538-0.538 0.538-0.538-0.538 0.538-0.538zM11.222 9.755l-0.537 0.537-0.537-0.537 0.242-0.242-0.001-0.001 0.295-0.295 0.538 0.538zM9.76 8.885l0.295-0.295 0.538 0.538-0.537 0.537-0.537-0.537 0.242-0.242-0.001-0.001zM9.965 9.755l-0.537 0.537-0.537-0.537 0.537-0.537 0.537 0.537zM9.096 8.885l-0.001 0.001 0.242 0.242-0.537 0.537-0.537-0.537 0.538-0.538 0.295 0.295z"></path>
<path fill="rgb(158, 178, 75)" d="M5.451 10.641h9.099v0.47h-9.099v-0.47z"></path>
<path fill="rgb(180, 204, 94)" d="M5.436 10.641h9.115v0.088h-9.115v-0.088z"></path>
<path fill="rgb(180, 204, 94)" d="M5.436 11.024h9.115v0.088h-9.115v-0.088z"></path>
<path fill="rgb(201, 219, 125)" d="M10.483 10.898c0 1.321-1.071 2.393-2.393 2.393s-2.393-1.071-2.393-2.393c0-1.321 1.071-2.393 2.393-2.393s2.393 1.071 2.393 2.393z"></path>
<path fill="rgb(102, 102, 101)" d="M5.984 10.898c0-1.163 0.943-2.107 2.107-2.107s2.107 0.943 2.107 2.107-0.943 2.107-2.107 2.107c-1.164 0-2.107-0.943-2.107-2.107z"></path>
<path fill="rgb(226, 173, 0)" d="M10.076 10.898c0 1.097-0.889 1.986-1.986 1.986s-1.986-0.889-1.986-1.986c0-1.097 0.889-1.986 1.986-1.986s1.986 0.889 1.986 1.986z"></path>
<path fill="rgb(165, 124, 32)" d="M9.195 10.898c0 0.61-0.495 1.105-1.105 1.105s-1.105-0.495-1.105-1.105c0-0.61 0.495-1.105 1.105-1.105s1.105 0.495 1.105 1.105z"></path>
<path fill="rgb(109, 81, 25)" d="M8.694 10.898c0 0.334-0.27 0.604-0.604 0.604s-0.604-0.27-0.604-0.604c0-0.334 0.27-0.604 0.604-0.604s0.604 0.27 0.604 0.604z"></path>
<path fill="rgb(165, 124, 32)" d="M10.059 10.642h-3.938c-0.011 0.084-0.017 0.169-0.017 0.255 0 0.071 0.004 0.142 0.011 0.211h3.949c0.007-0.069 0.011-0.14 0.011-0.211 0-0.086-0.006-0.172-0.017-0.255z"></path>
<path fill="rgb(250, 218, 128)" d="M10.57 13.514c0 0.31-0.251 0.561-0.561 0.561s-0.561-0.251-0.561-0.561c0-0.31 0.251-0.561 0.561-0.561s0.561 0.251 0.561 0.561z"></path>
<path fill="rgb(250, 218, 128)" d="M10.174 13.066c0 0.091-0.074 0.166-0.166 0.166s-0.166-0.074-0.166-0.166c0-0.091 0.074-0.166 0.166-0.166s0.166 0.074 0.166 0.166z"></path>
<path fill="rgb(250, 218, 128)" d="M10.174 13.969c0 0.091-0.074 0.166-0.166 0.166s-0.166-0.074-0.166-0.166c0-0.091 0.074-0.166 0.166-0.166s0.166 0.074 0.166 0.166z"></path>
<path fill="rgb(250, 218, 128)" d="M10.46 13.683c-0.091 0-0.166-0.074-0.166-0.166s0.074-0.166 0.166-0.166c0.092 0 0.166 0.074 0.166 0.166s-0.074 0.166-0.166 0.166z"></path>
<path fill="rgb(250, 218, 128)" d="M9.723 13.517c0 0.091-0.074 0.166-0.166 0.166s-0.166-0.074-0.166-0.166c0-0.091 0.074-0.166 0.166-0.166s0.166 0.074 0.166 0.166z"></path>
<path fill="rgb(250, 218, 128)" d="M10.445 13.315c-0.065 0.065-0.17 0.065-0.234 0s-0.065-0.17 0-0.234c0.065-0.065 0.17-0.065 0.234 0s0.065 0.17 0 0.234z"></path>
<path fill="rgb(250, 218, 128)" d="M9.806 13.954c-0.065 0.065-0.169 0.065-0.234 0s-0.065-0.17 0-0.234c0.065-0.065 0.169-0.065 0.234 0s0.065 0.17 0 0.234z"></path>
<path fill="rgb(250, 218, 128)" d="M10.211 13.954c-0.065-0.065-0.065-0.17 0-0.234s0.17-0.065 0.234 0c0.065 0.065 0.065 0.17 0 0.234s-0.17 0.065-0.234 0z"></path>
<path fill="rgb(250, 218, 128)" d="M9.572 13.315c-0.065-0.065-0.065-0.17 0-0.234s0.169-0.065 0.234 0c0.065 0.065 0.065 0.17 0 0.234s-0.169 0.065-0.234 0z"></path>
<path fill="rgb(250, 218, 128)" d="M10.348 13.101c0 0.091-0.074 0.166-0.166 0.166s-0.166-0.074-0.166-0.166c0-0.091 0.074-0.166 0.166-0.166s0.166 0.074 0.166 0.166z"></path>
<path fill="rgb(250, 218, 128)" d="M10 13.934c0 0.091-0.074 0.166-0.166 0.166s-0.166-0.074-0.166-0.166c0-0.091 0.074-0.166 0.166-0.166s0.166 0.074 0.166 0.166z"></path>
<path fill="rgb(250, 218, 128)" d="M10.362 13.844c-0.084-0.035-0.124-0.132-0.089-0.217s0.132-0.124 0.217-0.089c0.085 0.035 0.124 0.132 0.089 0.217s-0.132 0.124-0.217 0.089z"></path>
<path fill="rgb(250, 218, 128)" d="M9.528 13.496c-0.084-0.035-0.124-0.132-0.089-0.217s0.132-0.124 0.217-0.089c0.084 0.035 0.124 0.132 0.089 0.217s-0.132 0.124-0.217 0.089z"></path>
<path fill="rgb(250, 218, 128)" d="M10.592 13.345c0 0.091-0.074 0.166-0.166 0.166s-0.166-0.074-0.166-0.166c0-0.091 0.074-0.166 0.166-0.166s0.166 0.074 0.166 0.166z"></path>
<path fill="rgb(250, 218, 128)" d="M9.757 13.689c0 0.091-0.074 0.166-0.166 0.166s-0.166-0.074-0.166-0.166c0-0.091 0.074-0.166 0.166-0.166s0.166 0.074 0.166 0.166z"></path>
<path fill="rgb(250, 218, 128)" d="M10.027 13.998c-0.035-0.085 0.006-0.181 0.090-0.216s0.181 0.006 0.216 0.090c0.035 0.085-0.006 0.181-0.090 0.216s-0.181-0.006-0.216-0.090z"></path>
<path fill="rgb(250, 218, 128)" d="M10.003 13.1c0 0.091-0.074 0.166-0.166 0.166s-0.166-0.074-0.166-0.166c0-0.091 0.074-0.166 0.166-0.166s0.166 0.074 0.166 0.166z"></path>
<path fill="rgb(0, 0, 0)" d="M10.506 13.514c0 0.274-0.222 0.497-0.497 0.497s-0.497-0.222-0.497-0.497c0-0.274 0.222-0.497 0.497-0.497s0.497 0.222 0.497 0.497z"></path>
<path fill="rgb(250, 218, 128)" d="M10.452 13.514c0 0.245-0.199 0.443-0.443 0.443s-0.443-0.199-0.443-0.443c0-0.245 0.199-0.443 0.443-0.443s0.443 0.199 0.443 0.443z"></path>
<path fill="rgb(81, 81, 81)" d="M6.2 13.44c0 0.201-0.163 0.364-0.364 0.364s-0.364-0.163-0.364-0.364c0-0.201 0.163-0.364 0.364-0.364s0.364 0.163 0.364 0.364z"></path>
<path fill="rgb(51, 51, 51)" d="M6 13.44c0 0.090-0.073 0.164-0.164 0.164s-0.164-0.073-0.164-0.164c0-0.090 0.073-0.164 0.164-0.164s0.164 0.073 0.164 0.164z"></path>
<path fill="rgb(232, 232, 232)" d="M14.783 7.563c-0.015 0.003-0.030 0.003-0.046-0.002l-9.858-3.056c-0.047-0.015-0.074-0.065-0.059-0.112s0.065-0.074 0.112-0.059l9.858 3.056c0.047 0.015 0.074 0.065 0.059 0.112-0.010 0.032-0.036 0.054-0.066 0.061z"></path>
<path fill="rgb(214, 214, 214)" d="M14.812 7.607c-0.021 0.005-0.042 0.004-0.064-0.003l-7.037-2.171c-0.066-0.020-0.103-0.090-0.083-0.157s0.090-0.103 0.157-0.083l7.037 2.171c0.066 0.020 0.103 0.090 0.083 0.157-0.014 0.045-0.050 0.076-0.093 0.085z"></path>
<path fill="rgb(198, 198, 198)" d="M14.839 7.643c-0.026 0.006-0.054 0.005-0.082-0.003l-2.704-0.838c-0.085-0.026-0.133-0.116-0.106-0.201s0.116-0.133 0.201-0.106l2.704 0.838c0.085 0.026 0.133 0.116 0.106 0.201-0.018 0.057-0.065 0.098-0.119 0.11z"></path>
<path fill="rgb(232, 232, 232)" d="M4.626 4.481c-0.034-0.154 0.063-0.307 0.217-0.341s0.307 0.063 0.341 0.217c0.034 0.154-0.063 0.307-0.217 0.341s-0.307-0.063-0.341-0.217z"></path>
</svg>
