<?xml version="1.0" encoding="utf-8"?>
<!-- Generated by IcoMoon.io -->
<!DOCTYPE svg PUBLIC "-//W3C//DTD SVG 1.1//EN" "http://www.w3.org/Graphics/SVG/1.1/DTD/svg11.dtd">
<svg version="1.1" xmlns="http://www.w3.org/2000/svg" xmlns:xlink="http://www.w3.org/1999/xlink" width="20" height="20" viewBox="0 0 20 20">
<path fill="rgb(37, 183, 211)" d="M19.691 10c0-5.352-4.339-9.691-9.69-9.691s-9.691 4.338-9.691 9.691c0 5.352 4.339 9.69 9.691 9.69s9.69-4.339 9.69-9.69z"></path>
<path fill="rgb(0, 0, 0)" d="M9.649 11.533l0.881 0.030c0.034 0.357 0.008 1.026 0.593 1.026 0 0 0.41-0.008 0.577-0.623s0.646-0.296 0.745-0.046c0.063 0.159 0.274 0.668-0.091 1.246 0 0-0.456 0.821-0.258 1.276 0 0 0.569 1.179 0.638 1.565 0.213 1.185-0.168 1.978-0.665 2.234-0.376 0.193-0.683 0.239-2.067 0.239v0c-0.001 0-0.001 0-0.002 0s-0.001 0-0.002 0v0c-1.384-0-1.691-0.046-2.067-0.239-0.497-0.256-0.878-1.049-0.665-2.234 0.069-0.387 0.696-1.535 0.696-1.535 0.331-0.79 0.22-0.988-0.023-1.565s-0.342-1.36-0.235-1.755c0.070-0.26 0.296-0.798 0.714-0.577 0.17 0.089 0.182 0.631 0.312 0.874 0.1 0.189 0.365 0.547 0.919 0.084z"></path>
<path fill="rgb(245, 245, 245)" d="M12.244 16.768h-0c-0.127-0-0.273-0.167-0.414-0.328-0.059-0.067-0.115-0.131-0.164-0.176-0.077-0.070-0.436-0.271-1.057-0.271-0.048 0-0.097 0.001-0.146 0.004-0.197 0.010-0.36 0.017-0.515 0.017-0.403 0-0.812-0.044-1.076-0.367-0.332-0.405 0.060-1.329 0.076-1.368l0.016-0.039c0.129-0.31 0.177-0.425 0.26-0.751 0.111-0.437-0.115-1.158-0.117-1.165l-0.001-0.007c0-0.108 0.081-0.167 0.229-0.167 0.085 0 0.161 0.019 0.164 0.020l0.005 0.002c0.025 0.012 0.064 0.041 0.123 0.085 0.229 0.169 0.705 0.521 1.353 0.654 0.056 0.011 0.111 0.017 0.164 0.017 0.656-0 0.867-0.891 0.869-0.9l0.001-0.003c0.008-0.022 0.032-0.087 0.080-0.087 0.071 0 0.121 0.161 0.134 0.212 0.183 0.439-0.279 1.228-0.298 1.261-0.255 0.465-0.102 1.128-0.1 1.134 0.025 0.093 0.099 0.262 0.184 0.458 0.122 0.279 0.273 0.625 0.374 0.954 0.213 0.697-0.082 0.799-0.095 0.803-0.014 0.006-0.031 0.009-0.049 0.009z"></path>
<path fill="rgb(59, 54, 51)" d="M10.576 14.223c0 0.080-0.065 0.144-0.144 0.144h-0.866c-0.080 0-0.144-0.065-0.144-0.144v0c0-0.080 0.065-0.144 0.144-0.144h0.866c0.080-0 0.144 0.065 0.144 0.144v0z"></path>
<path fill="rgb(89, 81, 77)" d="M10.556 13.091h-0.986c-0.091 0-0.164 0.065-0.164 0.144s0.074 0.144 0.164 0.144h0.986c0.091 0 0.164-0.065 0.164-0.144s-0.074-0.144-0.164-0.144z"></path>
<path fill="rgb(59, 54, 51)" d="M10.576 15.051c0 0.080-0.065 0.144-0.144 0.144h-0.866c-0.080 0-0.144-0.065-0.144-0.144v0c0-0.080 0.065-0.144 0.144-0.144h0.866c0.080-0 0.144 0.065 0.144 0.144v0z"></path>
<path fill="rgb(59, 54, 51)" d="M10.576 15.355c0 0.080-0.065 0.144-0.144 0.144h-0.866c-0.080 0-0.144-0.065-0.144-0.144v0c0-0.080 0.065-0.144 0.144-0.144h0.866c0.080 0 0.144 0.065 0.144 0.144v0z"></path>
<path fill="rgb(59, 54, 51)" d="M12.331 16.289c0 0.105-0.085 0.19-0.19 0.19s-0.19-0.085-0.19-0.19c0-0.105 0.085-0.19 0.19-0.19s0.19 0.085 0.19 0.19z"></path>
<path fill="rgb(59, 54, 51)" d="M11.784 15.765c0 0.105-0.085 0.19-0.19 0.19s-0.19-0.085-0.19-0.19c0-0.105 0.085-0.19 0.19-0.19s0.19 0.085 0.19 0.19z"></path>
<path fill="rgb(59, 54, 51)" d="M11.13 15.408c0 0.105-0.085 0.19-0.19 0.19s-0.19-0.085-0.19-0.19c0-0.105 0.085-0.19 0.19-0.19s0.19 0.085 0.19 0.19z"></path>
<path fill="rgb(206, 214, 228)" d="M9.377 3.662c0.060 0.015 0.096 0.082 0.079 0.149s-0.079 0.109-0.14 0.094c-0.060-0.015-0.096-0.082-0.079-0.149s0.079-0.109 0.14-0.094z"></path>
<path fill="rgb(206, 214, 228)" d="M9.338 3.823l0.019-0.078 0.241 0.060-0.019 0.078-0.241-0.060z"></path>
<path fill="rgb(206, 214, 228)" d="M9.473 3.281c0.060 0.015 0.096 0.082 0.079 0.149s-0.079 0.109-0.14 0.094c-0.060-0.015-0.096-0.082-0.079-0.149s0.079-0.109 0.14-0.094z"></path>
<path fill="rgb(206, 214, 228)" d="M9.432 3.442l0.019-0.078 0.241 0.060-0.019 0.078-0.241-0.060z"></path>
<path fill="rgb(206, 214, 228)" d="M9.568 2.9c0.060 0.015 0.096 0.082 0.079 0.149s-0.079 0.109-0.14 0.094c-0.060-0.015-0.096-0.082-0.079-0.149s0.079-0.109 0.14-0.094z"></path>
<path fill="rgb(206, 214, 228)" d="M9.528 3.060l0.019-0.078 0.241 0.060-0.019 0.078-0.241-0.060z"></path>
<path fill="rgb(206, 214, 228)" d="M9.663 2.518c0.060 0.015 0.096 0.082 0.079 0.149s-0.079 0.109-0.14 0.094c-0.060-0.015-0.096-0.082-0.079-0.149s0.079-0.109 0.14-0.094z"></path>
<path fill="rgb(206, 214, 228)" d="M9.623 2.678l0.019-0.078 0.241 0.060-0.019 0.078-0.241-0.060z"></path>
<path fill="rgb(206, 214, 228)" d="M9.759 2.136c0.060 0.015 0.096 0.082 0.079 0.149s-0.079 0.109-0.14 0.094c-0.060-0.015-0.096-0.082-0.079-0.149s0.079-0.109 0.14-0.094z"></path>
<path fill="rgb(206, 214, 228)" d="M9.718 2.297l0.019-0.078 0.241 0.060-0.019 0.078-0.241-0.060z"></path>
<path fill="rgb(206, 214, 228)" d="M9.853 1.755c0.060 0.015 0.096 0.082 0.079 0.149s-0.079 0.109-0.14 0.094c-0.060-0.015-0.096-0.082-0.079-0.149s0.079-0.109 0.14-0.094z"></path>
<path fill="rgb(206, 214, 228)" d="M9.814 1.915l0.019-0.078 0.241 0.060-0.019 0.078-0.241-0.060z"></path>
<path fill="rgb(84, 42, 20)" d="M9.988 12.934c0.239-0.003 0.518-0.051 0.516-0.234l-0.145-7.886c0 0 0.013-0.889 0.569-1.123 0 0-0.131-0.506-0.191-0.807s-0.261-0.875 0.162-0.845c0 0 0.017-0.524-0.406-0.611 0 0-0.298-0.133-0.506 0.598l-0.546 2.149c0 0 0.247 0.208 0.206 0.562 0 0-0.146 7.884-0.145 7.969s0.134 0.232 0.487 0.228z"></path>
<path fill="rgb(89, 81, 77)" d="M10.36 4.814c0 0 0-0.011 0.001-0.031h-0.716c-0 0.013-0.001 0.028-0.001 0.046h0.716l-0-0.014z"></path>
<path fill="rgb(89, 81, 77)" d="M10.372 5.443h-0.738c-0 0.015-0.001 0.030-0.001 0.046h0.74l-0-0.046z"></path>
<path fill="rgb(89, 81, 77)" d="M10.382 6.028h-0.76c-0 0.015-0.001 0.030-0.001 0.046h0.762l-0.001-0.046z"></path>
<path fill="rgb(89, 81, 77)" d="M9.611 6.575c-0 0.015-0.001 0.030-0.001 0.046h0.782l-0.001-0.046h-0.78z"></path>
<path fill="rgb(89, 81, 77)" d="M10.402 7.107h-0.799c-0 0.015-0.001 0.030-0.001 0.046h0.801l-0.001-0.046z"></path>
<path fill="rgb(89, 81, 77)" d="M10.41 7.586h-0.817c-0 0.015-0.001 0.030-0.001 0.046h0.818l-0.001-0.046z"></path>
<path fill="rgb(89, 81, 77)" d="M9.584 8.103h0.836l-0.001-0.046h-0.834c-0 0.015-0.001 0.030-0.001 0.046z"></path>
<path fill="rgb(89, 81, 77)" d="M9.576 8.536h0.852l-0.001-0.046h-0.85c-0 0.015-0.001 0.030-0.001 0.046z"></path>
<path fill="rgb(89, 81, 77)" d="M9.569 8.946h0.867l-0.001-0.046h-0.865c-0 0.015-0.001 0.030-0.001 0.046z"></path>
<path fill="rgb(89, 81, 77)" d="M9.562 9.318h0.88l-0.001-0.045h-0.879c-0 0.015-0.001 0.030-0.001 0.045z"></path>
<path fill="rgb(89, 81, 77)" d="M9.555 9.691h0.894l-0.001-0.046h-0.892c-0 0.015-0.001 0.031-0.001 0.046z"></path>
<path fill="rgb(89, 81, 77)" d="M9.548 10.070h0.908l-0.001-0.046h-0.906c-0 0.015-0.001 0.030-0.001 0.046z"></path>
<path fill="rgb(89, 81, 77)" d="M9.542 10.397h0.92l-0.001-0.046h-0.918c-0 0.015-0.001 0.030-0.001 0.046z"></path>
<path fill="rgb(89, 81, 77)" d="M9.537 10.686h0.93l-0.001-0.046h-0.929c-0 0.015-0.001 0.030-0.001 0.046z"></path>
<path fill="rgb(89, 81, 77)" d="M9.532 10.967h0.941l-0.001-0.046h-0.939c-0 0.015-0.001 0.031-0.001 0.046z"></path>
<path fill="rgb(89, 81, 77)" d="M9.528 11.248h0.947l-0-0.046h-0.945c-0 0.015-0.001 0.030-0.001 0.046z"></path>
<path fill="rgb(89, 81, 77)" d="M9.521 11.522h0.961l-0.001-0.046h-0.959c-0 0.015-0.001 0.030-0.001 0.046z"></path>
<path fill="rgb(89, 81, 77)" d="M9.518 11.757h0.97l-0.001-0.046h-0.968c-0 0.015-0.001 0.031-0.001 0.046z"></path>
<path fill="rgb(89, 81, 77)" d="M9.518 12h0.978l-0-0.046h-0.977c-0 0.015-0.001 0.031-0.001 0.046z"></path>
<path fill="rgb(89, 81, 77)" d="M9.512 12.228h0.987l-0.001-0.046h-0.985c-0 0.015-0.001 0.031-0.001 0.046z"></path>
<path fill="rgb(89, 81, 77)" d="M9.508 12.426h0.994l-0.001-0.046h-0.992c-0 0.016-0.001 0.031-0.001 0.046z"></path>
<path fill="rgb(89, 81, 77)" d="M9.503 12.631h1.001l-0.001-0.046h-0.999c-0 0.017-0.001 0.032-0.001 0.046z"></path>
<path fill="rgb(89, 81, 77)" d="M9.545 12.798h0.926c0.011-0.014 0.019-0.029 0.025-0.046h-0.982c0.007 0.015 0.017 0.030 0.031 0.046z"></path>
<path fill="rgb(89, 81, 77)" d="M10.638 16.39c0 0.028-0.025 0.051-0.057 0.051h-1.15c-0.031 0-0.057-0.023-0.057-0.051v-0.574c0-0.028 0.025-0.051 0.057-0.051h1.15c0.031 0 0.057 0.023 0.057 0.051v0.574z"></path>
<path fill="rgb(226, 219, 215)" d="M10.582 16.463h-1.15c-0.044 0-0.079-0.033-0.079-0.074v-0.574c0-0.041 0.036-0.073 0.079-0.073h1.15c0.044 0 0.079 0.033 0.079 0.073v0.574c0 0.041-0.036 0.074-0.079 0.074zM9.432 15.788c-0.019 0-0.034 0.012-0.034 0.028v0.574c0 0.015 0.015 0.028 0.034 0.028h1.15c0.019 0 0.034-0.012 0.034-0.028v-0.574c0-0.015-0.015-0.028-0.034-0.028h-1.15z"></path>
<path fill="rgb(0, 0, 0)" d="M10.129 18.543l-0.030-0.104c-0.003-0.012-0.014-0.020-0.027-0.020h-0.147c-0.012 0-0.023 0.008-0.027 0.020l-0.032 0.108c-0.002 0.008-0.001 0.017 0.004 0.024s0.013 0.011 0.022 0.011h0.21c0 0 0 0 0 0 0.015 0 0.028-0.012 0.028-0.028 0-0.004-0.001-0.008-0.003-0.012z"></path>
<path fill="rgb(229, 223, 220)" d="M9.926 3.283h0.023v13.141h-0.023v-13.141z"></path>
<path fill="rgb(229, 223, 220)" d="M10.086 2.856l0.006 13.578h-0.023l-0.006-13.578h0.023z"></path>
<path fill="rgb(229, 223, 220)" d="M10.194 2.429l0.085 13.996-0.023 0-0.085-13.996 0.023-0z"></path>
<path fill="rgb(229, 223, 220)" d="M10.32 2.018l0.148 14.417-0.023 0-0.148-14.417 0.023-0z"></path>
<path fill="rgb(229, 223, 220)" d="M9.724 4.109l0.023 0-0.165 12.315-0.023-0 0.165-12.315z"></path>
<path fill="rgb(229, 223, 220)" d="M9.85 3.71l0.023 0-0.127 12.724-0.023-0 0.127-12.724z"></path>
<path fill="rgb(206, 214, 228)" d="M10.368 2.003c0 0.066-0.054 0.12-0.12 0.12s-0.12-0.054-0.12-0.12c0-0.066 0.054-0.12 0.12-0.12s0.12 0.054 0.12 0.12z"></path>
<path fill="rgb(206, 214, 228)" d="M10.25 2.429c0 0.066-0.054 0.12-0.12 0.12s-0.12-0.054-0.12-0.12c0-0.066 0.054-0.12 0.12-0.12s0.12 0.054 0.12 0.12z"></path>
<path fill="rgb(206, 214, 228)" d="M10.152 2.857c0 0.066-0.054 0.12-0.12 0.12s-0.12-0.054-0.12-0.12c0-0.066 0.054-0.12 0.12-0.12s0.12 0.054 0.12 0.12z"></path>
<path fill="rgb(206, 214, 228)" d="M10.048 3.269c0 0.066-0.054 0.12-0.12 0.12s-0.12-0.054-0.12-0.12c0-0.066 0.054-0.12 0.12-0.12s0.12 0.054 0.12 0.12z"></path>
<path fill="rgb(206, 214, 228)" d="M9.933 3.697c0 0.066-0.054 0.12-0.12 0.12s-0.12-0.054-0.12-0.12c0-0.066 0.054-0.12 0.12-0.12s0.12 0.054 0.12 0.12z"></path>
<path fill="rgb(206, 214, 228)" d="M9.596 4.104c-0.001-0.066 0.052-0.12 0.118-0.121s0.12 0.052 0.121 0.118c0.001 0.066-0.052 0.12-0.118 0.121s-0.12-0.052-0.121-0.118z"></path>
</svg>
