<?xml version="1.0" encoding="utf-8"?>
<!-- Generated by IcoMoon.io -->
<!DOCTYPE svg PUBLIC "-//W3C//DTD SVG 1.1//EN" "http://www.w3.org/Graphics/SVG/1.1/DTD/svg11.dtd">
<svg version="1.1" xmlns="http://www.w3.org/2000/svg" xmlns:xlink="http://www.w3.org/1999/xlink" width="20" height="20" viewBox="0 0 20 20">
<path fill="rgb(234, 73, 73)" d="M19.691 10c0-5.352-4.339-9.691-9.69-9.691s-9.691 4.338-9.691 9.691c0 5.352 4.339 9.69 9.691 9.69s9.69-4.339 9.69-9.69z"></path>
<path fill="rgb(122, 67, 21)" d="M16.284 14.646l-13.426-2.174v-4.89l13.426-2.228z"></path>
<path fill="rgb(229, 170, 23)" d="M4.456 11.855c0 0.18-0.146 0.239-0.326 0.239h-0.489c-0.18 0-0.326-0.059-0.326-0.239v-3.655c0-0.18 0.146-0.239 0.326-0.239h0.489c0.18 0 0.326 0.059 0.326 0.239v3.655z"></path>
<path fill="rgb(229, 170, 23)" d="M5.719 12.065c0 0.18-0.146 0.231-0.326 0.231h-0.489c-0.18 0-0.326-0.050-0.326-0.231v-4.076c0-0.18 0.146-0.231 0.326-0.231h0.489c0.18 0 0.326 0.051 0.326 0.231v4.076z"></path>
<path fill="rgb(229, 170, 23)" d="M6.983 12.276c0 0.18-0.146 0.222-0.326 0.222h-0.489c-0.18 0-0.326-0.042-0.326-0.222v-4.497c0-0.18 0.146-0.222 0.326-0.222h0.489c0.18 0 0.326 0.042 0.326 0.222v4.497z"></path>
<path fill="rgb(229, 170, 23)" d="M8.246 12.486c0 0.18-0.146 0.214-0.326 0.214h-0.489c-0.18 0-0.326-0.033-0.326-0.214v-4.919c0-0.18 0.146-0.214 0.326-0.214h0.489c0.18 0 0.326 0.033 0.326 0.214v4.919z"></path>
<path fill="rgb(229, 170, 23)" d="M9.509 12.697c0 0.18-0.146 0.205-0.326 0.205h-0.489c-0.18 0-0.326-0.025-0.326-0.205v-5.34c0-0.18 0.146-0.205 0.326-0.205h0.489c0.18 0 0.326 0.025 0.326 0.205v5.34z"></path>
<path fill="rgb(229, 170, 23)" d="M10.773 12.908c0 0.18-0.146 0.197-0.326 0.197h-0.489c-0.18 0-0.326-0.017-0.326-0.197v-5.761c0-0.18 0.146-0.197 0.326-0.197h0.489c0.18 0 0.326 0.016 0.326 0.197v5.761z"></path>
<path fill="rgb(229, 170, 23)" d="M12.036 13.118c0 0.18-0.146 0.188-0.326 0.188h-0.489c-0.18 0-0.326-0.008-0.326-0.188v-6.182c0-0.18 0.146-0.188 0.326-0.188h0.489c0.18 0 0.326 0.008 0.326 0.188v6.182z"></path>
<path fill="rgb(229, 170, 23)" d="M13.299 13.329c0 0.18-0.146 0.18-0.326 0.18h-0.489c-0.18 0-0.326 0.001-0.326-0.18v-6.603c0-0.18 0.146-0.18 0.326-0.18h0.489c0.18 0 0.326-0.001 0.326 0.18v6.603z"></path>
<path fill="rgb(229, 170, 23)" d="M14.563 13.539c0 0.18-0.146 0.171-0.326 0.171h-0.489c-0.18 0-0.326 0.009-0.326-0.171v-7.024c0-0.18 0.146-0.171 0.326-0.171h0.489c0.18 0 0.326-0.009 0.326 0.171v7.024z"></path>
<path fill="rgb(229, 170, 23)" d="M15.826 13.75c0 0.18-0.146 0.163-0.326 0.163h-0.489c-0.18 0-0.326 0.018-0.326-0.163v-7.445c0-0.18 0.146-0.163 0.326-0.163h0.489c0.18 0 0.326-0.017 0.326 0.163v7.445z"></path>
<path fill="rgb(104, 55, 19)" d="M4.065 8.458c0 0.105-0.085 0.19-0.19 0.19s-0.19-0.085-0.19-0.19c0-0.105 0.085-0.19 0.19-0.19s0.19 0.085 0.19 0.19z"></path>
<path fill="rgb(104, 55, 19)" d="M5.328 8.254c0 0.105-0.085 0.19-0.19 0.19s-0.19-0.085-0.19-0.19c0-0.105 0.085-0.19 0.19-0.19s0.19 0.085 0.19 0.19z"></path>
<path fill="rgb(104, 55, 19)" d="M6.592 8.037c0 0.105-0.085 0.19-0.19 0.19s-0.19-0.085-0.19-0.19c0-0.105 0.085-0.19 0.19-0.19s0.19 0.085 0.19 0.19z"></path>
<path fill="rgb(104, 55, 19)" d="M7.855 7.833c0 0.105-0.085 0.19-0.19 0.19s-0.19-0.085-0.19-0.19c0-0.105 0.085-0.19 0.19-0.19s0.19 0.085 0.19 0.19z"></path>
<path fill="rgb(104, 55, 19)" d="M9.118 7.616c0 0.105-0.085 0.19-0.19 0.19s-0.19-0.085-0.19-0.19c0-0.105 0.085-0.19 0.19-0.19s0.19 0.085 0.19 0.19z"></path>
<path fill="rgb(104, 55, 19)" d="M10.382 7.405c0 0.105-0.085 0.19-0.19 0.19s-0.19-0.085-0.19-0.19c0-0.105 0.085-0.19 0.19-0.19s0.19 0.085 0.19 0.19z"></path>
<path fill="rgb(104, 55, 19)" d="M11.645 7.202c0 0.105-0.085 0.19-0.19 0.19s-0.19-0.085-0.19-0.19c0-0.105 0.085-0.19 0.19-0.19s0.19 0.085 0.19 0.19z"></path>
<path fill="rgb(104, 55, 19)" d="M12.908 6.991c0 0.105-0.085 0.19-0.19 0.19s-0.19-0.085-0.19-0.19c0-0.105 0.085-0.19 0.19-0.19s0.19 0.085 0.19 0.19z"></path>
<path fill="rgb(104, 55, 19)" d="M14.172 6.781c0 0.105-0.085 0.19-0.19 0.19s-0.19-0.085-0.19-0.19c0-0.105 0.085-0.19 0.19-0.19s0.19 0.085 0.19 0.19z"></path>
<path fill="rgb(104, 55, 19)" d="M15.435 6.577c0 0.105-0.085 0.19-0.19 0.19s-0.19-0.085-0.19-0.19c0-0.105 0.085-0.19 0.19-0.19s0.19 0.085 0.19 0.19z"></path>
<path fill="rgb(104, 55, 19)" d="M4.065 11.596c0 0.105-0.085 0.19-0.19 0.19s-0.19-0.085-0.19-0.19c0-0.105 0.085-0.19 0.19-0.19s0.19 0.085 0.19 0.19z"></path>
<path fill="rgb(104, 55, 19)" d="M5.328 11.8c0 0.105-0.085 0.19-0.19 0.19s-0.19-0.085-0.19-0.19c0-0.105 0.085-0.19 0.19-0.19s0.19 0.085 0.19 0.19z"></path>
<path fill="rgb(104, 55, 19)" d="M6.592 12.017c0 0.105-0.085 0.19-0.19 0.19s-0.19-0.085-0.19-0.19c0-0.105 0.085-0.19 0.19-0.19s0.19 0.085 0.19 0.19z"></path>
<path fill="rgb(104, 55, 19)" d="M7.855 12.221c0 0.105-0.085 0.19-0.19 0.19s-0.19-0.085-0.19-0.19c0-0.105 0.085-0.19 0.19-0.19s0.19 0.085 0.19 0.19z"></path>
<path fill="rgb(104, 55, 19)" d="M9.118 12.438c0 0.105-0.085 0.19-0.19 0.19s-0.19-0.085-0.19-0.19c0-0.105 0.085-0.19 0.19-0.19s0.19 0.085 0.19 0.19z"></path>
<path fill="rgb(104, 55, 19)" d="M10.382 12.649c0 0.105-0.085 0.19-0.19 0.19s-0.19-0.085-0.19-0.19c0-0.105 0.085-0.19 0.19-0.19s0.19 0.085 0.19 0.19z"></path>
<path fill="rgb(104, 55, 19)" d="M11.645 12.853c0 0.105-0.085 0.19-0.19 0.19s-0.19-0.085-0.19-0.19c0-0.105 0.085-0.19 0.19-0.19s0.19 0.085 0.19 0.19z"></path>
<path fill="rgb(104, 55, 19)" d="M12.908 13.063c0 0.105-0.085 0.19-0.19 0.19s-0.19-0.085-0.19-0.19c0-0.105 0.085-0.19 0.19-0.19s0.19 0.085 0.19 0.19z"></path>
<path fill="rgb(104, 55, 19)" d="M14.172 13.274c0 0.105-0.085 0.19-0.19 0.19s-0.19-0.085-0.19-0.19c0-0.105 0.085-0.19 0.19-0.19s0.19 0.085 0.19 0.19z"></path>
<path fill="rgb(104, 55, 19)" d="M15.435 13.478c0 0.105-0.085 0.19-0.19 0.19s-0.19-0.085-0.19-0.19c0-0.105 0.085-0.19 0.19-0.19s0.19 0.085 0.19 0.19z"></path>
<path fill="rgb(56, 28, 12)" d="M10.781 10.278c0 0.431-0.35 0.781-0.781 0.781s-0.781-0.35-0.781-0.781c0-0.431 0.35-0.781 0.781-0.781s0.781 0.35 0.781 0.781z"></path>
<path fill="rgb(130, 83, 56)" d="M9.369 10.278c0-0.348 0.283-0.631 0.631-0.631s-0.631 0.979-0.631 0.631z"></path>
<path fill="rgb(56, 28, 12)" d="M10 16.22c-0.091 0-0.165-0.074-0.165-0.165v-5.782c0-0.091 0.074-0.165 0.165-0.165s0.165 0.074 0.165 0.165v5.782c0 0.091-0.074 0.165-0.165 0.165z"></path>
</svg>
