<?xml version="1.0" encoding="utf-8"?>
<!-- Generator: Adobe Illustrator 16.0.0, SVG Export Plug-In . SVG Version: 6.00 Build 0)  -->
<!DOCTYPE svg PUBLIC "-//W3C//DTD SVG 1.1//EN" "http://www.w3.org/Graphics/SVG/1.1/DTD/svg11.dtd">
<svg version="1.1" id="Layer_1" xmlns="http://www.w3.org/2000/svg" xmlns:xlink="http://www.w3.org/1999/xlink" x="0px" y="0px"
	 width="20px" height="20px" viewBox="0 0 20 20" enable-background="new 0 0 20 20" xml:space="preserve">
<g>
	<path fill="#FABC3D" d="M19.689,10c0-5.353-4.338-9.69-9.689-9.69c-5.351,0-9.69,4.338-9.69,9.69c0,5.351,4.338,9.69,9.69,9.69
		S19.69,15.352,19.689,10L19.689,10z"/>
	<path fill="#FFFFFF" d="M0.313,9.74h19.373c-0.002-0.105-0.008-0.211-0.014-0.315H0.327C0.321,9.529,0.316,9.635,0.313,9.74z"/>
	<path fill="#FFFFFF" d="M0.686,7.318h18.627c-0.03-0.106-0.063-0.211-0.097-0.315H0.783C0.749,7.107,0.716,7.213,0.686,7.318
		L0.686,7.318z"/>
	<path fill="#FFFFFF" d="M18.034,4.581H1.965C1.896,4.685,1.828,4.79,1.762,4.896h16.477C18.172,4.79,18.104,4.685,18.034,4.581
		L18.034,4.581z"/>
	<path fill="#FFFFFF" d="M0.552,12.162h18.895c0.024-0.104,0.046-0.21,0.066-0.315H0.486C0.506,11.952,0.528,12.058,0.552,12.162z"
		/>
	<path fill="#FFFFFF" d="M1.46,14.584h17.079c0.056-0.104,0.109-0.21,0.162-0.315H1.298C1.351,14.374,1.405,14.479,1.46,14.584z"/>
	<path fill="#3A3A38" d="M6.1,6.169c0-0.117-0.095-0.211-0.211-0.211c-0.116,0-0.211,0.095-0.211,0.211v5.349
		c-0.302-0.199-0.741-0.325-1.23-0.325c-0.91,0-1.648,0.435-1.648,0.972s0.738,0.972,1.648,0.972c0.878,0,1.596-0.405,1.645-0.916
		c0.004-0.017,0.007-0.034,0.007-0.052L6.1,6.169L6.1,6.169z"/>
	<path fill="#3A3A38" d="M11.65,3.534c0-0.117-0.095-0.211-0.212-0.211c-0.116,0-0.211,0.095-0.211,0.211v5.349
		c-0.302-0.199-0.741-0.325-1.23-0.325c-0.91,0-1.648,0.435-1.648,0.972c0,0.537,0.738,0.972,1.648,0.972
		c0.878,0,1.595-0.405,1.645-0.916c0.004-0.017,0.008-0.034,0.008-0.053V3.534z"/>
	<path fill="#3A3A38" d="M16.174,8.337c0-0.116-0.095-0.211-0.211-0.211c-0.117,0-0.212,0.095-0.212,0.211v5.349
		c-0.302-0.198-0.74-0.325-1.229-0.325c-0.91,0-1.648,0.436-1.648,0.973c0,0.536,0.738,0.972,1.648,0.972
		c0.878,0,1.596-0.405,1.645-0.916c0.005-0.017,0.008-0.034,0.008-0.053V8.337L16.174,8.337z"/>
</g>
</svg>
