<?xml version="1.0" encoding="utf-8"?>
<!-- Generator: Adobe Illustrator 16.0.0, SVG Export Plug-In . SVG Version: 6.00 Build 0)  -->
<!DOCTYPE svg PUBLIC "-//W3C//DTD SVG 1.1//EN" "http://www.w3.org/Graphics/SVG/1.1/DTD/svg11.dtd">
<svg version="1.1" id="Layer_1" xmlns="http://www.w3.org/2000/svg" xmlns:xlink="http://www.w3.org/1999/xlink" x="0px" y="0px"
	 width="20px" height="20px" viewBox="0 0 20 20" enable-background="new 0 0 20 20" xml:space="preserve">
<g>
	<path fill="#ACDDDE" d="M19.69,9.996c0,5.352-4.338,9.689-9.69,9.689s-9.69-4.338-9.69-9.689S4.647,0.307,10,0.307
		S19.69,4.644,19.69,9.996z"/>
	<path fill="#9ACA42" d="M9.999,19.692c4.121,0,7.639-2.574,9.04-6.2c-2.53-1.525-5.819-2.248-9.416-2.248
		c-3.308,0-6.355,0.611-8.791,1.896C2.136,16.952,5.747,19.693,9.999,19.692L9.999,19.692z"/>
	<path fill="#84B340" d="M4.035,8.978c0-1.653,0.997-2.993,2.993-2.993c1.995,0,2.992,1.34,2.992,2.993S8.94,11.97,7.028,11.97
		C5.115,11.97,4.035,10.631,4.035,8.978z"/>
	<path fill="#84B340" d="M6.512,6.707c0-1.767,1.066-3.199,3.199-3.199c2.132,0,3.198,1.433,3.198,3.199s-1.155,3.199-3.198,3.199
		C7.667,9.906,6.512,8.474,6.512,6.707z"/>
	<path fill="#84B340" d="M5.687,9.287c0-1.767,1.343-3.198,4.025-3.198c2.684,0,4.025,1.432,4.025,3.198s-1.453,3.199-4.025,3.199
		S5.687,11.054,5.687,9.287z"/>
	<path fill="#84B340" d="M10.847,8.822c0-1.396,0.843-2.527,2.529-2.527c1.685,0,2.526,1.131,2.526,2.527s-0.912,2.528-2.526,2.528
		C11.761,11.351,10.847,10.219,10.847,8.822z"/>
	<path fill="#49341B" d="M9.849,16.305l0.168-9.508c0-0.192,0.156-0.349,0.349-0.349c0.193,0,0.349,0.156,0.349,0.349l0.167,9.508
		C10.881,16.59,9.849,16.59,9.849,16.305z"/>
	<path fill="#49341B" d="M10.398,12.649c-0.062,0-0.123-0.015-0.182-0.045c-0.195-0.101-0.271-0.339-0.17-0.534
		c0,0,1.706-1.373,1.872-1.937c0.165-0.562,0.377-2.153,0.377-2.153c0.073-0.139,0.243-0.191,0.383-0.121
		c0.139,0.071,0.205,2.149-0.233,2.717s-1.696,1.858-1.696,1.858C10.679,12.571,10.54,12.648,10.398,12.649L10.398,12.649z"/>
	<path fill="#49341B" d="M10.249,12.956c-0.149,0-0.295-0.072-0.384-0.206c0,0-1.393-1.846-1.854-2.366
		c-0.383-0.433-1.848-1.45-1.706-1.543c0.142-0.094,0.258-0.155,0.516-0.104c0,0,1.118,0.62,1.703,1.239
		c0.559,0.59,2.109,2.267,2.109,2.267c0.14,0.212,0.082,0.497-0.13,0.638C10.425,12.931,10.337,12.956,10.249,12.956L10.249,12.956z
		"/>
</g>
</svg>
