<?xml version="1.0" encoding="utf-8"?>
<!-- Generator: Adobe Illustrator 16.0.0, SVG Export Plug-In . SVG Version: 6.00 Build 0)  -->
<!DOCTYPE svg PUBLIC "-//W3C//DTD SVG 1.1//EN" "http://www.w3.org/Graphics/SVG/1.1/DTD/svg11.dtd">
<svg version="1.1" id="Layer_1" xmlns="http://www.w3.org/2000/svg" xmlns:xlink="http://www.w3.org/1999/xlink" x="0px" y="0px"
	 width="20px" height="20px" viewBox="0 0 20 20" enable-background="new 0 0 20 20" xml:space="preserve">
<g>
	<path fill="#344E5D" d="M19.69,9.996c0,5.352-4.338,9.689-9.69,9.689s-9.69-4.338-9.69-9.689S4.647,0.307,10,0.307
		S19.69,4.644,19.69,9.996z"/>
	<path fill="#4D8353" d="M9.999,19.692c4.121,0,7.639-2.574,9.04-6.2c-2.53-1.525-5.819-2.248-9.416-2.248
		c-3.308,0-6.355,0.611-8.791,1.896C2.136,16.952,5.747,19.693,9.999,19.692L9.999,19.692z"/>
	<path fill="#D7DABA" d="M15.152,4.901l0.155,0.478h0.502l-0.406,0.295l0.155,0.478l-0.406-0.295l-0.406,0.295L14.9,5.674
		l-0.405-0.295h0.502L15.152,4.901z"/>
	<path fill="#D7DABA" d="M12.739,3.209l0.108,0.331h0.347l-0.281,0.203l0.107,0.331L12.739,3.87l-0.282,0.204l0.108-0.331
		L12.284,3.54h0.347L12.739,3.209z"/>
	<path fill="#D7DABA" d="M15.209,8.169L15.317,8.5h0.348l-0.282,0.204l0.108,0.331l-0.282-0.204l-0.28,0.204l0.107-0.331L14.755,8.5
		h0.348L15.209,8.169z"/>
	<path fill="#AE8038" d="M6.614,13.173c-0.244,0.244-0.353,0.533-0.242,0.644l0,0c0.11,0.111,0.398,0.002,0.644-0.242l3.149-3.149
		c0.245-0.246,0.354-0.533,0.242-0.645l0,0c-0.111-0.11-0.399-0.002-0.645,0.243L6.614,13.173L6.614,13.173z"/>
	<path fill="#BE9041" d="M6.162,11.515c-0.347,0-0.627,0.126-0.627,0.283l0,0c0,0.156,0.28,0.284,0.626,0.284h4.454
		c0.347,0,0.626-0.126,0.626-0.284l0,0c0-0.157-0.28-0.283-0.626-0.283H6.162L6.162,11.515z"/>
	<path fill="#B58C4F" d="M8.672,9.572c0-0.347-0.126-0.627-0.283-0.627l0,0c-0.157,0-0.283,0.28-0.283,0.626v4.453
		c0,0.347,0.126,0.626,0.283,0.626l0,0c0.157,0,0.283-0.28,0.283-0.626V9.572L8.672,9.572z"/>
	<path fill="#AE7C31" d="M9.763,13.574c0.245,0.244,0.533,0.353,0.645,0.242l0,0c0.111-0.11,0.002-0.399-0.243-0.644l-3.149-3.149
		C6.77,9.778,6.481,9.671,6.371,9.781l0,0c-0.111,0.111-0.002,0.399,0.242,0.645L9.763,13.574L9.763,13.574z"/>
	<path fill="#AE8038" d="M9.648,13.173c-0.245,0.244-0.353,0.533-0.243,0.644l0,0c0.111,0.111,0.398,0.002,0.644-0.242l3.15-3.149
		c0.245-0.246,0.353-0.533,0.242-0.645l0,0c-0.111-0.11-0.399-0.002-0.645,0.243L9.648,13.173L9.648,13.173z"/>
	<path fill="#BE9041" d="M12.798,13.574c0.245,0.244,0.532,0.353,0.645,0.242l0,0c0.111-0.11,0.002-0.399-0.243-0.644l-3.15-3.149
		C9.804,9.778,9.517,9.671,9.405,9.781l0,0c-0.111,0.111-0.002,0.399,0.243,0.645L12.798,13.574L12.798,13.574z"/>
	<path fill="#B58C4F" d="M13.651,12.082c0.346,0,0.626-0.126,0.626-0.284l0,0c0-0.157-0.28-0.283-0.626-0.283H9.196
		c-0.346,0-0.626,0.126-0.626,0.283l0,0c0,0.158,0.281,0.284,0.626,0.284H13.651z"/>
	<path fill="#AE7C31" d="M11.14,14.026c0,0.346,0.127,0.626,0.283,0.626l0,0c0.157,0,0.284-0.281,0.284-0.626V9.572
		c0-0.347-0.127-0.626-0.284-0.626l0,0c-0.156,0-0.283,0.28-0.283,0.626V14.026z"/>
	<path fill="#E17A2D" d="M8.915,7.797c0.339-0.878,0.272-2.206,0.272-2.206s0.898,0.377,1.519,1.41
		c0.584,0.972,0.033,2.418,0.033,2.418c0.429-0.429,0.588-0.858,0.603-1.374c0.483,0.771,0.856,1.652,0.856,2.545
		c0,1.105-1.006,2-2.246,2.002c-1.24-0.002-2.246-0.896-2.246-2.002C7.706,9.515,8.518,8.833,8.915,7.797z"/>
	<path opacity="0.8" fill="#EDE726" d="M9.355,9.678c0.186-0.532,0.15-1.338,0.15-1.338s1.778,1.354,1.651,3.031
		c-0.049,0.668-0.551,1.212-1.232,1.214c-0.682,0-1.233-0.544-1.233-1.214C8.691,10.719,9.136,10.306,9.355,9.678L9.355,9.678z"/>
	<path opacity="0.7" fill="#F44F16" d="M9.565,10.721c0.117-0.337,0.094-0.849,0.094-0.849s1.127,0.858,1.047,1.921
		c-0.031,0.423-0.35,0.769-0.78,0.769c-0.432,0-0.781-0.344-0.781-0.769c0-0.414,0.281-0.676,0.421-1.074V10.721z"/>
</g>
</svg>
