<?xml version="1.0" encoding="utf-8"?>
<!-- Generator: Adobe Illustrator 16.0.0, SVG Export Plug-In . SVG Version: 6.00 Build 0)  -->
<!DOCTYPE svg PUBLIC "-//W3C//DTD SVG 1.1//EN" "http://www.w3.org/Graphics/SVG/1.1/DTD/svg11.dtd">
<svg version="1.1" id="Layer_1" xmlns="http://www.w3.org/2000/svg" xmlns:xlink="http://www.w3.org/1999/xlink" x="0px" y="0px"
	 width="20px" height="20px" viewBox="0 0 20 20" enable-background="new 0 0 20 20" xml:space="preserve">
<g>
	<path fill="#67B8CB" d="M19.69,10c0,5.351-4.338,9.69-9.69,9.69S0.31,15.353,0.31,10c0-5.352,4.338-9.69,9.69-9.69
		S19.69,4.647,19.69,10z"/>
	<path fill="#E8E7E7" d="M5.181,5.414l8.332-1.331L15.351,15.6L7.02,16.931L5.181,5.414z"/>
	<path fill="#FFFFFF" d="M5.78,4.986l8.434,0.215l-0.296,11.658l-8.434-0.215L5.78,4.986z"/>
	<path fill="#4B4A4B" d="M11.882,6.288V4.29c0-0.848-0.465-1.354-1.273-1.389C9.711,2.927,9.224,3.417,9.224,4.283l0.001,0.473
		l0.36-0.066L9.584,4.283c0-0.677,0.325-1.003,1.021-1.021c0.612,0.027,0.917,0.363,0.917,1.028v2.055v4.219
		c0,0.481-0.481,0.637-0.717,0.637c-0.164,0.006-0.323-0.056-0.442-0.17c-0.127-0.119-0.197-0.288-0.196-0.473V6.561l-0.36,0.058
		v3.94c0,0.284,0.109,0.546,0.309,0.733c0.189,0.182,0.445,0.28,0.698,0.269c0.439,0,1.068-0.31,1.068-0.997V6.288z"/>
</g>
</svg>
