<?xml version="1.0" encoding="utf-8"?>
<!-- Generator: Adobe Illustrator 16.0.0, SVG Export Plug-In . SVG Version: 6.00 Build 0)  -->
<!DOCTYPE svg PUBLIC "-//W3C//DTD SVG 1.1//EN" "http://www.w3.org/Graphics/SVG/1.1/DTD/svg11.dtd">
<svg version="1.1" id="Layer_1" xmlns="http://www.w3.org/2000/svg" xmlns:xlink="http://www.w3.org/1999/xlink" x="0px" y="0px"
	 width="20px" height="20px" viewBox="0 0 20 20" enable-background="new 0 0 20 20" xml:space="preserve">
<g>
	<path fill="#4ABC96" d="M19.69,10c0,5.352-4.339,9.69-9.69,9.69S0.31,15.352,0.31,10c0-5.351,4.339-9.69,9.69-9.69
		S19.69,4.648,19.69,10z"/>
	<path fill="#344E5D" d="M12.545,16.885c0,0.674-0.499,1.222-1.114,1.222H8.392c-0.614,0-1.113-0.548-1.113-1.222
		c0,0,0.256-2.649,0.465-3.312c0.208-0.663,0.498-1.222,1.113-1.222h2.203c0.616,0,0.951,0.407,1.114,1.222
		C12.336,14.388,12.545,16.885,12.545,16.885L12.545,16.885z"/>
	<path fill="#FFFFFF" d="M9.214,17.099l0.533-4.219l0.146-0.188l0.079-0.005l0.189,0.192l0.533,4.219l-0.769,0.652L9.214,17.099z"/>
	<path fill="#8DD3D5" d="M9.601,14.042l0.642-0.525l-0.027-0.224l-0.579,0.473L9.601,14.042z"/>
	<path fill="#8DD3D5" d="M9.502,14.817l0.82-0.671l-0.028-0.223l-0.756,0.618L9.502,14.817z"/>
	<path fill="#8DD3D5" d="M9.404,15.592l0.996-0.815l-0.027-0.223l-0.935,0.764L9.404,15.592z"/>
	<path fill="#8DD3D5" d="M9.307,16.367l1.175-0.962l-0.028-0.223l-1.112,0.909L9.307,16.367z"/>
	<path fill="#8DD3D5" d="M9.214,17.099l0.028,0.016l1.319-1.078l-0.028-0.224l-1.29,1.057L9.214,17.099z"/>
	<path fill="#8DD3D5" d="M9.64,17.489l1.001-0.823l-0.028-0.225l-1.118,0.915L9.64,17.489z"/>
	<path fill="#6FC5BC" d="M10.292,12.775c0,0.194-0.155,0.351-0.346,0.351s-0.346-0.157-0.346-0.351c0-0.192,0.155-0.35,0.346-0.35
		S10.292,12.584,10.292,12.775z"/>
	<path fill="#E9C29C" d="M12.127,9.81c0,1.24-1.004,2.244-2.243,2.244S7.641,11.05,7.641,9.81c0-1.238,1.004-2.243,2.243-2.243
		S12.127,8.571,12.127,9.81z"/>
	<path fill="#A46434" d="M12.127,9.81l-1.529-1.376c0,0-0.326,0.54-1.194,0.933C8.564,9.745,7.641,9.81,7.641,9.81
		c0-1.238,1.004-2.243,2.243-2.243S12.127,8.571,12.127,9.81z"/>
	<path fill="#343433" d="M9.519,10.145c0,0.179-0.137,0.324-0.307,0.324s-0.307-0.146-0.307-0.324c0-0.18,0.137-0.325,0.307-0.325
		S9.519,9.965,9.519,10.145z"/>
	<path fill="#343433" d="M10.851,10.145c0,0.179-0.137,0.324-0.307,0.324c-0.169,0-0.307-0.146-0.307-0.324
		c0-0.18,0.138-0.325,0.307-0.325C10.714,9.819,10.851,9.965,10.851,10.145z"/>
	<path fill="#FFFFFF" d="M10.763,10.021c0,0.071-0.056,0.13-0.122,0.13c-0.067,0-0.123-0.058-0.123-0.13
		c0-0.071,0.056-0.13,0.123-0.13C10.707,9.891,10.763,9.948,10.763,10.021z"/>
	<path fill="#FFFFFF" d="M9.427,10.021c0,0.071-0.056,0.13-0.122,0.13c-0.067,0-0.123-0.058-0.123-0.13
		c0-0.071,0.056-0.13,0.123-0.13C9.371,9.891,9.427,9.948,9.427,10.021z"/>
	<path fill="#DFF1ED" d="M14.058,4.649c0,1.446-1.612,2.311-4.023,2.311S6.079,6.096,6.079,4.649c0-1.9,1.544-2.518,3.955-2.518
		S14.058,2.799,14.058,4.649z"/>
	<path fill="#E4F3F0" d="M14.058,4.649l-7.97-0.009c0,1.474,1.562,2.354,4.004,2.354c1.04,0,1.65-0.16,2.404-0.458
		c0.411,0.524-0.06,1.116-0.148,1.219c-0.01,0.011-0.018,0.033-0.01,0.04c0.018,0.018,0.053,0.005,0.076-0.003
		c1.104-0.37,1.157-1.285,1.08-1.829C13.919,5.605,14.058,5.169,14.058,4.649z"/>
	<path fill="#CCE4DE" d="M8.58,4.733c0,0.284-0.23,0.514-0.514,0.514c-0.284,0-0.514-0.229-0.514-0.514
		c0-0.283,0.229-0.513,0.514-0.513C8.35,4.221,8.58,4.45,8.58,4.733z"/>
	<path fill="#CCE4DE" d="M10.463,4.733c0,0.284-0.229,0.514-0.514,0.514c-0.283,0-0.513-0.229-0.513-0.514
		c0-0.283,0.229-0.513,0.513-0.513C10.233,4.221,10.463,4.45,10.463,4.733z"/>
	<path fill="#CCE4DE" d="M12.312,4.733c0,0.284-0.229,0.514-0.514,0.514s-0.514-0.229-0.514-0.514c0-0.283,0.229-0.513,0.514-0.513
		S12.312,4.45,12.312,4.733z"/>
</g>
</svg>
