<?xml version="1.0" encoding="utf-8"?>
<!-- Generator: Adobe Illustrator 16.0.0, SVG Export Plug-In . SVG Version: 6.00 Build 0)  -->
<!DOCTYPE svg PUBLIC "-//W3C//DTD SVG 1.1//EN" "http://www.w3.org/Graphics/SVG/1.1/DTD/svg11.dtd">
<svg version="1.1" id="Layer_1" xmlns="http://www.w3.org/2000/svg" xmlns:xlink="http://www.w3.org/1999/xlink" x="0px" y="0px"
	 width="20px" height="20px" viewBox="0 0 20 20" enable-background="new 0 0 20 20" xml:space="preserve">
<g>
	<path fill="#357180" d="M19.69,10c0,5.351-4.338,9.69-9.69,9.69S0.31,15.353,0.31,10c0-5.352,4.338-9.69,9.69-9.69
		S19.69,4.647,19.69,10z"/>
	<path fill="#202121" d="M15.229,15.67c0,0.911-0.738,1.65-1.65,1.65h-6.88c-0.912,0-1.65-0.739-1.65-1.65V4.937
		c0-0.912,0.738-1.651,1.65-1.651h6.88c0.912,0,1.65,0.739,1.65,1.651V15.67z"/>
	<path fill="#4E4E4E" d="M7.552,15.854c0,0.126-0.102,0.228-0.228,0.228H6.375c-0.126,0-0.229-0.102-0.229-0.228v-0.947
		c0-0.127,0.103-0.229,0.229-0.229h0.949c0.126,0,0.228,0.103,0.228,0.229V15.854z"/>
	<path fill="#4E4E4E" d="M9.188,15.854c0,0.126-0.102,0.228-0.228,0.228H8.012c-0.125,0-0.229-0.102-0.229-0.228v-0.947
		c0-0.127,0.104-0.229,0.229-0.229h0.949c0.126,0,0.228,0.103,0.228,0.229V15.854z"/>
	<path fill="#4E4E4E" d="M10.826,15.854c0,0.126-0.103,0.228-0.228,0.228H9.649c-0.126,0-0.229-0.102-0.229-0.228v-0.947
		c0-0.127,0.103-0.229,0.229-0.229h0.949c0.125,0,0.228,0.103,0.228,0.229V15.854z"/>
	<path fill="#4E4E4E" d="M7.552,14.218c0,0.125-0.102,0.227-0.228,0.227H6.375c-0.126,0-0.229-0.102-0.229-0.227V13.27
		c0-0.126,0.103-0.228,0.229-0.228h0.949c0.126,0,0.228,0.102,0.228,0.228V14.218z"/>
	<path fill="#4E4E4E" d="M9.188,14.218c0,0.125-0.102,0.227-0.228,0.227H8.012c-0.125,0-0.229-0.102-0.229-0.227V13.27
		c0-0.126,0.104-0.228,0.229-0.228h0.949c0.126,0,0.228,0.102,0.228,0.228V14.218z"/>
	<path fill="#4E4E4E" d="M10.826,14.218c0,0.125-0.103,0.227-0.228,0.227H9.649c-0.126,0-0.229-0.102-0.229-0.227V13.27
		c0-0.126,0.103-0.228,0.229-0.228h0.949c0.125,0,0.228,0.102,0.228,0.228V14.218z"/>
	<path fill="#4E4E4E" d="M7.552,12.58c0,0.126-0.102,0.227-0.228,0.227H6.375c-0.126,0-0.229-0.102-0.229-0.227v-0.948
		c0-0.125,0.103-0.228,0.229-0.228h0.949c0.126,0,0.228,0.103,0.228,0.228V12.58z"/>
	<path fill="#4E4E4E" d="M9.188,12.58c0,0.126-0.102,0.227-0.228,0.227H8.012c-0.125,0-0.229-0.102-0.229-0.227v-0.948
		c0-0.125,0.104-0.228,0.229-0.228h0.949c0.126,0,0.228,0.103,0.228,0.228V12.58z"/>
	<path fill="#4E4E4E" d="M10.826,12.58c0,0.126-0.103,0.227-0.228,0.227H9.649c-0.126,0-0.229-0.102-0.229-0.227v-0.948
		c0-0.125,0.103-0.228,0.229-0.228h0.949c0.125,0,0.228,0.103,0.228,0.228V12.58z"/>
	<path fill="#4E4E4E" d="M7.552,10.942c0,0.125-0.102,0.228-0.228,0.228H6.375c-0.126,0-0.229-0.103-0.229-0.228V9.993
		c0-0.125,0.103-0.227,0.229-0.227h0.949c0.126,0,0.228,0.103,0.228,0.227V10.942z"/>
	<path fill="#4E4E4E" d="M14.156,8.466c0,0.125-0.102,0.228-0.228,0.228H6.375c-0.126,0-0.229-0.103-0.229-0.228v-3.7
		c0-0.126,0.103-0.227,0.229-0.227h7.554c0.126,0,0.228,0.102,0.228,0.227V8.466z"/>
	<path fill="#74C59C" d="M13.881,8.122c0,0.117-0.096,0.213-0.213,0.213H6.634c-0.118,0-0.213-0.096-0.213-0.213V5.109
		c0-0.117,0.095-0.213,0.213-0.213h7.034c0.117,0,0.213,0.096,0.213,0.213V8.122z"/>
	<path fill="#4E4E4E" d="M9.188,10.942c0,0.125-0.102,0.228-0.228,0.228H8.012c-0.125,0-0.229-0.103-0.229-0.228V9.993
		c0-0.125,0.104-0.227,0.229-0.227h0.949c0.126,0,0.228,0.103,0.228,0.227V10.942z"/>
	<path fill="#4E4E4E" d="M10.826,10.942c0,0.125-0.103,0.228-0.228,0.228H9.649c-0.126,0-0.229-0.103-0.229-0.228V9.993
		c0-0.125,0.103-0.227,0.229-0.227h0.949c0.125,0,0.228,0.103,0.228,0.227V10.942z"/>
	<path fill="#E79E2D" d="M13.901,14.68h-2.587c-0.126,0-0.228,0.103-0.228,0.228v0.948c0,0.126,0.102,0.227,0.228,0.227h2.587
		c0.126,0,0.227-0.101,0.227-0.227v-0.948C14.128,14.782,14.025,14.68,13.901,14.68L13.901,14.68z"/>
	<path fill="#63BD6E" d="M12.491,14.218c0,0.125-0.102,0.227-0.227,0.227h-0.95c-0.126,0-0.228-0.102-0.228-0.227V13.27
		c0-0.126,0.102-0.228,0.228-0.228h0.95c0.125,0,0.227,0.102,0.227,0.228V14.218z"/>
	<path fill="#63BD6E" d="M14.128,14.218c0,0.125-0.103,0.227-0.227,0.227h-0.949c-0.126,0-0.227-0.102-0.227-0.227V13.27
		c0-0.126,0.101-0.228,0.227-0.228h0.949c0.126,0,0.227,0.102,0.227,0.228V14.218z"/>
	<path fill="#67B8CB" d="M12.491,12.58c0,0.126-0.102,0.227-0.227,0.227h-0.95c-0.126,0-0.228-0.102-0.228-0.227v-0.948
		c0-0.125,0.102-0.228,0.228-0.228h0.95c0.125,0,0.227,0.103,0.227,0.228V12.58z"/>
	<path fill="#67B8CB" d="M14.128,12.58c0,0.126-0.103,0.227-0.227,0.227h-0.949c-0.126,0-0.227-0.102-0.227-0.227v-0.948
		c0-0.125,0.101-0.228,0.227-0.228h0.949c0.126,0,0.227,0.103,0.227,0.228V12.58z"/>
	<path fill="#E84849" d="M12.491,10.942c0,0.125-0.102,0.228-0.227,0.228h-0.95c-0.126,0-0.228-0.103-0.228-0.228V9.993
		c0-0.125,0.102-0.227,0.228-0.227h0.95c0.125,0,0.227,0.103,0.227,0.227V10.942z"/>
	<path fill="#E84849" d="M14.128,10.942c0,0.125-0.103,0.228-0.227,0.228h-0.949c-0.126,0-0.227-0.103-0.227-0.228V9.993
		c0-0.125,0.101-0.227,0.227-0.227h0.949c0.126,0,0.227,0.103,0.227,0.227V10.942z"/>
	<path opacity="0.1" fill="#FFFFFF" d="M6.435,8.122V5.109c0-0.117,0.095-0.213,0.212-0.213h3.074l3.438,3.437H6.646
		C6.529,8.333,6.435,8.238,6.435,8.122L6.435,8.122z"/>
</g>
</svg>
