<?xml version="1.0" encoding="utf-8"?>
<!-- Generator: Adobe Illustrator 16.0.0, SVG Export Plug-In . SVG Version: 6.00 Build 0)  -->
<!DOCTYPE svg PUBLIC "-//W3C//DTD SVG 1.1//EN" "http://www.w3.org/Graphics/SVG/1.1/DTD/svg11.dtd">
<svg version="1.1" id="Layer_1" xmlns="http://www.w3.org/2000/svg" xmlns:xlink="http://www.w3.org/1999/xlink" x="0px" y="0px"
	 width="20px" height="20px" viewBox="0 0 20 20" enable-background="new 0 0 20 20" xml:space="preserve">
<g>
	<path fill="#357180" d="M19.69,10c0,5.352-4.339,9.69-9.69,9.69S0.31,15.352,0.31,10c0-5.351,4.339-9.69,9.69-9.69
		S19.69,4.648,19.69,10z"/>
	<path fill="#DDDCD9" d="M4.941,5.526h10.36c0.349,0,0.634,0.285,0.634,0.633v8.2c0,0.348-0.285,0.632-0.634,0.632H4.941
		c-0.349,0-0.633-0.284-0.633-0.632V6.158C4.309,5.811,4.593,5.525,4.941,5.526L4.941,5.526L4.941,5.526z"/>
	<path fill="#D32027" d="M4.941,5.526h10.36c0.349,0,0.634,0.285,0.634,0.633v2.188H4.308V6.159
		C4.308,5.812,4.592,5.526,4.941,5.526L4.941,5.526L4.941,5.526z"/>
	<path opacity="0.2" d="M13.298,5.526v1.181c0,0.297-0.242,0.538-0.538,0.538h-0.463c-0.295,0-0.538-0.241-0.538-0.538V5.526H13.298
		z M6.946,5.526h1.539v1.181c0,0.297-0.242,0.538-0.538,0.538H7.485c-0.297,0-0.539-0.241-0.539-0.538V5.526z"/>
	<path fill="#FFFFFF" d="M12.297,4.05h0.463c0.149,0,0.27,0.121,0.27,0.271v2.387c0,0.148-0.12,0.271-0.27,0.271h-0.463
		c-0.148,0-0.27-0.122-0.27-0.271V4.32C12.027,4.171,12.148,4.05,12.297,4.05z M7.484,4.05h0.462c0.148,0,0.27,0.121,0.27,0.271
		v2.387c0,0.148-0.121,0.271-0.27,0.271H7.484c-0.149,0-0.271-0.122-0.271-0.271V4.32C7.214,4.171,7.335,4.05,7.484,4.05z"/>
	<path fill="#626463" d="M10.074,13.017H7.183c0.033-0.286,0.134-0.554,0.302-0.806c0.167-0.251,0.482-0.549,0.945-0.891
		c0.283-0.21,0.463-0.369,0.542-0.478C9.05,10.733,9.09,10.63,9.09,10.532c0-0.106-0.039-0.196-0.117-0.271
		c-0.079-0.076-0.176-0.112-0.295-0.112c-0.122,0-0.223,0.039-0.301,0.116c-0.079,0.078-0.131,0.214-0.158,0.41l-0.965-0.077
		c0.037-0.272,0.106-0.483,0.208-0.637s0.243-0.27,0.428-0.35C8.073,9.53,8.327,9.49,8.651,9.49c0.34,0,0.604,0.038,0.792,0.116
		c0.188,0.077,0.338,0.195,0.445,0.355c0.108,0.16,0.162,0.34,0.162,0.539c0,0.211-0.062,0.413-0.185,0.605
		c-0.124,0.191-0.35,0.403-0.676,0.635c-0.194,0.134-0.324,0.227-0.39,0.282c-0.066,0.053-0.143,0.122-0.23,0.209h1.505v0.786
		L10.074,13.017z"/>
	<path fill="#626463" d="M13.276,10.328l-0.959,0.118c-0.024-0.134-0.067-0.229-0.127-0.283c-0.059-0.055-0.132-0.083-0.219-0.083
		c-0.155,0-0.277,0.079-0.364,0.237c-0.063,0.113-0.11,0.355-0.139,0.729c0.114-0.117,0.233-0.203,0.354-0.26
		c0.122-0.056,0.263-0.083,0.421-0.083c0.309,0,0.57,0.111,0.785,0.33c0.213,0.221,0.32,0.501,0.32,0.841
		c0,0.228-0.054,0.438-0.162,0.628c-0.108,0.188-0.258,0.332-0.449,0.429s-0.432,0.146-0.722,0.146c-0.346,0-0.625-0.06-0.834-0.178
		c-0.209-0.116-0.377-0.307-0.504-0.566c-0.124-0.26-0.188-0.604-0.188-1.03c0-0.627,0.134-1.085,0.396-1.376
		c0.264-0.292,0.628-0.437,1.097-0.437c0.276,0,0.494,0.032,0.654,0.095c0.159,0.062,0.293,0.157,0.399,0.281
		C13.141,9.987,13.222,10.142,13.276,10.328L13.276,10.328z M11.502,11.874c0,0.187,0.047,0.335,0.141,0.44
		c0.096,0.105,0.211,0.158,0.348,0.158c0.127,0,0.232-0.047,0.318-0.143c0.086-0.098,0.128-0.24,0.128-0.432
		c0-0.195-0.044-0.344-0.133-0.447c-0.089-0.103-0.199-0.153-0.33-0.153c-0.134,0-0.245,0.05-0.337,0.148
		C11.547,11.544,11.502,11.688,11.502,11.874L11.502,11.874z"/>
</g>
</svg>
