<?xml version="1.0" encoding="utf-8"?>
<!-- Generator: Adobe Illustrator 16.0.0, SVG Export Plug-In . SVG Version: 6.00 Build 0)  -->
<!DOCTYPE svg PUBLIC "-//W3C//DTD SVG 1.1//EN" "http://www.w3.org/Graphics/SVG/1.1/DTD/svg11.dtd">
<svg version="1.1" id="Layer_1" xmlns="http://www.w3.org/2000/svg" xmlns:xlink="http://www.w3.org/1999/xlink" x="0px" y="0px"
	 width="20px" height="20px" viewBox="0 0 20 20" enable-background="new 0 0 20 20" xml:space="preserve">
<g>
	<path fill="#357180" d="M19.69,10c0,5.351-4.338,9.69-9.69,9.69S0.31,15.353,0.31,10c0-5.352,4.338-9.69,9.69-9.69
		S19.69,4.647,19.69,10z"/>
	<path fill="#F6F6E7" d="M14.682,15.37c0,0.659-0.535,1.195-1.193,1.195H6.524c-0.66,0-1.194-0.536-1.194-1.195V5.653
		c0-0.659,0.534-1.194,1.194-1.194h6.964c0.659,0,1.193,0.535,1.193,1.194V15.37z"/>
	<path fill="#B5B6B6" d="M6.755,7.995l4.449-0.005l0.002,0.453l-4.45,0.005L6.755,7.995z"/>
	<path fill="#B5B6B6" d="M6.68,10.647l4.45-0.006l0.001,0.453L6.681,11.1L6.68,10.647z"/>
	<path fill="#B5B6B6" d="M6.635,13.231l4.45-0.005l0.001,0.453l-4.45,0.005L6.635,13.231z"/>
	<path fill="#CDCDCE" d="M13.277,8.447c0.002,0.228-0.182,0.412-0.408,0.413l-0.548,0.003c-0.227,0.001-0.411-0.183-0.413-0.41
		l-0.003-0.547c0-0.227,0.184-0.411,0.41-0.412l0.547-0.004c0.227-0.001,0.412,0.183,0.413,0.41L13.277,8.447z"/>
	<path fill="#CDCDCE" d="M13.267,11.138c0.001,0.229-0.184,0.412-0.408,0.412l-0.548,0.004c-0.228,0-0.411-0.182-0.413-0.409
		l-0.002-0.548c0-0.227,0.182-0.41,0.408-0.412l0.549-0.002c0.227-0.001,0.41,0.183,0.411,0.408L13.267,11.138L13.267,11.138z"/>
	<path fill="#6CC077" d="M11.832,12.942l0.46-0.01l0.238,0.726l0.369-1.246l0.445-0.009l-0.617,1.674l-0.393,0.008l-0.502-1.141
		L11.832,12.942z"/>
	<path fill="#99999A" d="M9.423,3.415c0,0,0.23-0.142,0.603-0.142c0.373,0,0.657,0.142,0.657,0.142s-0.302-0.354-0.675-0.354
		C9.636,3.061,9.423,3.415,9.423,3.415z"/>
	<path fill="#99999A" d="M6.519,4.666C6.516,5.287,7.018,5.508,7.639,5.51l4.8,0.022c0.62,0.003,1.123-0.214,1.127-0.834
		L6.519,4.666L6.519,4.666z"/>
	<path fill="#AAAAAA" d="M12.445,3.764l-1.548-0.007c0-0.002,0-0.004,0-0.007c0.002-0.479-0.386-0.87-0.865-0.872
		C9.553,2.877,9.161,3.264,9.159,3.743c0,0.002,0,0.004,0,0.006L7.646,3.742C7.025,3.74,6.521,3.956,6.519,4.576
		C6.517,5.197,7.016,5.275,7.636,5.279L12.435,5.3c0.62,0.003,1.127-0.072,1.131-0.693c0.003-0.621-0.499-0.842-1.12-0.845V3.764z
		 M9.39,3.744c0.001-0.353,0.289-0.638,0.641-0.636s0.637,0.289,0.635,0.642c0,0.003,0,0.005-0.001,0.007
		c-0.004,0.35-0.29,0.631-0.641,0.629S9.391,4.101,9.389,3.75C9.389,3.748,9.389,3.746,9.39,3.744L9.39,3.744z"/>
</g>
</svg>
