<?xml version="1.0" encoding="utf-8"?>
<!-- Generator: Adobe Illustrator 16.0.0, SVG Export Plug-In . SVG Version: 6.00 Build 0)  -->
<!DOCTYPE svg PUBLIC "-//W3C//DTD SVG 1.1//EN" "http://www.w3.org/Graphics/SVG/1.1/DTD/svg11.dtd">
<svg version="1.1" id="Layer_1" xmlns="http://www.w3.org/2000/svg" xmlns:xlink="http://www.w3.org/1999/xlink" x="0px" y="0px"
	 width="20px" height="20px" viewBox="0 0 20 20" enable-background="new 0 0 20 20" xml:space="preserve">
<g>
	<path fill="#4ABC96" d="M19.69,10c0,5.351-4.338,9.69-9.69,9.69S0.31,15.353,0.31,10c0-5.352,4.338-9.69,9.69-9.69
		S19.69,4.647,19.69,10z"/>
	<path fill="#82725A" d="M10.072,4.191c-0.221,0-0.401,0.179-0.401,0.4v9.149c0,0.222,0.181,0.401,0.401,0.401s0.4-0.18,0.4-0.401
		V4.592C10.473,4.37,10.294,4.191,10.072,4.191z"/>
	<path fill="#82725A" d="M9.908,13.624c-0.123,0.122-0.123,0.32,0,0.442l2.606,2.606c0.122,0.123,0.32,0.123,0.442,0
		c0.123-0.122,0.123-0.32,0-0.442l-2.606-2.606C10.229,13.502,10.03,13.502,9.908,13.624z"/>
	<path fill="#82725A" d="M10.266,13.624c0.123,0.122,0.123,0.32,0,0.442l-2.606,2.606c-0.122,0.123-0.32,0.123-0.442,0
		c-0.123-0.122-0.123-0.32,0-0.442l2.606-2.606C9.945,13.502,10.144,13.502,10.266,13.624z"/>
	<path fill="#F9F29A" d="M15.706,11.765c0,0.83-0.674,0.25-1.502,0.25H6.067c-0.829,0-1.503,0.58-1.503-0.25V5.506
		c0-0.829,0.674-0.376,1.503-0.376h8.137c0.83,0,1.502-0.454,1.502,0.376V11.765z"/>
	<path fill="#80702C" d="M10.829,6.877h4.195v0.266h-4.195V6.877z"/>
	<path fill="#80702C" d="M10.844,7.542h4.195v0.265h-4.195V7.542z"/>
	<path fill="#80702C" d="M10.842,8.246h4.195v0.267h-4.195V8.246z"/>
	<path fill="#80702C" d="M10.842,8.929h2.312v0.266h-2.312V8.929z"/>
	<path fill="#988534" d="M9.232,7.506c-0.025-0.08-0.098-0.134-0.188-0.134l0,0C8.959,7.376,8.885,7.436,8.866,7.52L8.468,9.268
		L7.916,6.611c-0.018-0.086-0.092-0.148-0.187-0.15c-0.085,0-0.16,0.057-0.184,0.139L7.018,8.497L6.496,7.976
		c-0.072-0.072-0.196-0.072-0.269,0L5.409,8.794l0.269,0.269L6.361,8.38l0.617,0.618c0.048,0.047,0.119,0.065,0.184,0.049
		s0.117-0.067,0.135-0.133l0.405-1.457l0.57,2.744c0.02,0.089,0.094,0.151,0.186,0.152h0.001c0.089,0,0.165-0.061,0.186-0.147
		L9.08,8.295l0.302,0.968l0.364-0.113L9.232,7.509V7.506z"/>
	<path fill="#82725A" d="M16.27,4.969c0,0.207-0.235,0.376-0.526,0.376H4.402c-0.291,0-0.527-0.169-0.527-0.376l0,0
		c0-0.207,0.235-0.376,0.527-0.376h11.341C16.034,4.593,16.27,4.762,16.27,4.969L16.27,4.969z"/>
	<path fill="#82725A" d="M16.27,11.926c0,0.208-0.235,0.376-0.526,0.376H4.402c-0.291,0-0.527-0.168-0.527-0.376l0,0
		c0-0.206,0.235-0.376,0.527-0.376h11.341C16.034,11.55,16.27,11.72,16.27,11.926L16.27,11.926z"/>
</g>
</svg>
