<?xml version="1.0" encoding="utf-8"?>
<!-- Generator: Adobe Illustrator 16.0.0, SVG Export Plug-In . SVG Version: 6.00 Build 0)  -->
<!DOCTYPE svg PUBLIC "-//W3C//DTD SVG 1.1//EN" "http://www.w3.org/Graphics/SVG/1.1/DTD/svg11.dtd">
<svg version="1.1" id="Layer_1" xmlns="http://www.w3.org/2000/svg" xmlns:xlink="http://www.w3.org/1999/xlink" x="0px" y="0px"
	 width="20px" height="20px" viewBox="0 0 20 20" enable-background="new 0 0 20 20" xml:space="preserve">
<g>
	<path fill="#B6E2EB" d="M19.69,10c0,5.351-4.338,9.69-9.69,9.69S0.31,15.353,0.31,10c0-5.352,4.338-9.69,9.69-9.69
		S19.69,4.647,19.69,10z"/>
	<path fill="#357180" d="M10.026,13.36l4.189-4.199c0.123-0.123,0.125-0.325,0-0.449c-0.123-0.123-0.323-0.124-0.445-0.001
		l-6.008,6.026c-0.842,0.841-1.647,0.841-2.537,0c-0.728-0.793-0.687-1.59,0.141-2.417l7.79-7.791
		c0.599-0.598,1.391-0.192,1.681,0.098c0.215,0.195,0.336,0.468,0.342,0.759c0.007,0.307-0.116,0.603-0.346,0.832L9,12.052
		c-0.604,0.604-0.867,0.339-1.056,0.15c-0.163-0.163-0.467-0.465,0.06-0.992l3.671-3.659c0,0,0.219-0.225,0.217-0.223
		c0.114-0.124,0.114-0.317-0.007-0.438c-0.12-0.12-0.312-0.122-0.437-0.007c0.001-0.001-3.891,3.879-3.891,3.879
		c-0.805,0.805-0.432,1.516-0.061,1.887c0.717,0.716,1.5,0.301,1.951-0.151l5.834-5.832c0.353-0.354,0.543-0.813,0.532-1.295
		c-0.012-0.462-0.208-0.9-0.537-1.202c-0.544-0.544-1.711-0.942-2.565-0.088l-7.791,7.791c-1.054,1.054-1.106,2.26-0.144,3.308
		c1.145,1.083,2.358,1.078,3.436,0.002l1.816-1.824L10.026,13.36z"/>
</g>
</svg>
