<?xml version="1.0" encoding="utf-8"?>
<!-- Generator: Adobe Illustrator 16.0.0, SVG Export Plug-In . SVG Version: 6.00 Build 0)  -->
<!DOCTYPE svg PUBLIC "-//W3C//DTD SVG 1.1//EN" "http://www.w3.org/Graphics/SVG/1.1/DTD/svg11.dtd">
<svg version="1.1" id="Layer_1" xmlns="http://www.w3.org/2000/svg" xmlns:xlink="http://www.w3.org/1999/xlink" x="0px" y="0px"
	 width="20px" height="20px" viewBox="0 0 20 20" enable-background="new 0 0 20 20" xml:space="preserve">
<g>
	<path fill="#D62127" d="M19.69,10c0,5.352-4.339,9.69-9.69,9.69S0.31,15.352,0.31,10c0-5.351,4.339-9.69,9.69-9.69
		S19.69,4.648,19.69,10z"/>
	<path fill="#7FCDCC" d="M13.963,15.69c0,0.97-0.715,1.756-1.597,1.756h-4.36c-0.883,0-1.598-0.786-1.598-1.756
		c0,0,0.366-3.803,0.666-4.754c0.3-0.95,0.716-1.755,1.599-1.755h3.162c0.882,0,1.364,0.585,1.598,1.755
		c0.232,1.171,0.532,4.754,0.532,4.754H13.963z"/>
	<path fill="#FFFFFF" d="M9.186,15.998L9.95,9.944l0.21-0.269l0.112-0.006l0.273,0.274l0.766,6.054l-1.104,0.937L9.186,15.998z"/>
	<path fill="#8DD3D5" d="M9.74,11.611l0.921-0.754l-0.041-0.319l-0.831,0.679L9.74,11.611z"/>
	<path fill="#8DD3D5" d="M9.599,12.723l1.177-0.961l-0.041-0.32L9.649,12.33L9.599,12.723z"/>
	<path fill="#8DD3D5" d="M9.458,13.836l1.432-1.172l-0.041-0.318l-1.342,1.097L9.458,13.836z"/>
	<path fill="#8DD3D5" d="M9.318,14.948l1.686-1.38l-0.04-0.32l-1.597,1.308L9.318,14.948z"/>
	<path fill="#8DD3D5" d="M9.186,15.998l0.04,0.023l1.894-1.55l-0.041-0.319l-1.85,1.515L9.186,15.998z"/>
	<path fill="#8DD3D5" d="M9.796,16.558l1.437-1.182l-0.04-0.319l-1.606,1.312L9.796,16.558z"/>
	<path fill="#6FC5BC" d="M10.732,9.796c0,0.277-0.223,0.503-0.496,0.503s-0.495-0.226-0.495-0.503c0-0.278,0.222-0.503,0.495-0.503
		S10.732,9.518,10.732,9.796z"/>
	<path fill="#E9C29C" d="M13.366,5.539c0,1.778-1.441,3.22-3.22,3.22s-3.22-1.441-3.22-3.22s1.441-3.22,3.22-3.22
		S13.366,3.761,13.366,5.539z"/>
	<path fill="#A46434" d="M13.366,5.539l-2.195-1.976c0,0-0.467,0.774-1.715,1.339C8.254,5.445,6.926,5.54,6.926,5.54
		c0-1.778,1.441-3.22,3.22-3.22S13.365,3.762,13.366,5.539L13.366,5.539z"/>
	<path fill="#343433" d="M9.623,6.017c0,0.258-0.198,0.466-0.441,0.466S8.74,6.274,8.74,6.017s0.198-0.466,0.441-0.466
		S9.623,5.759,9.623,6.017z"/>
	<path fill="#343433" d="M11.534,6.017c0,0.258-0.198,0.466-0.44,0.466c-0.243,0-0.441-0.208-0.441-0.466s0.198-0.466,0.441-0.466
		C11.336,5.551,11.534,5.759,11.534,6.017z"/>
	<path fill="#FFFFFF" d="M11.407,5.841c0,0.103-0.077,0.187-0.176,0.187c-0.097,0-0.176-0.084-0.176-0.187s0.079-0.187,0.176-0.187
		C11.33,5.654,11.407,5.738,11.407,5.841z"/>
	<path fill="#FFFFFF" d="M9.491,5.841c0,0.103-0.079,0.187-0.176,0.187c-0.098,0-0.177-0.084-0.177-0.187s0.079-0.187,0.177-0.187
		C9.412,5.654,9.491,5.738,9.491,5.841z"/>
</g>
</svg>
