<?xml version="1.0" encoding="utf-8"?>
<!-- Generator: Adobe Illustrator 16.0.0, SVG Export Plug-In . SVG Version: 6.00 Build 0)  -->
<!DOCTYPE svg PUBLIC "-//W3C//DTD SVG 1.1//EN" "http://www.w3.org/Graphics/SVG/1.1/DTD/svg11.dtd">
<svg version="1.1" id="Layer_1" xmlns="http://www.w3.org/2000/svg" xmlns:xlink="http://www.w3.org/1999/xlink" x="0px" y="0px"
	 width="20px" height="20px" viewBox="0 0 20 20" enable-background="new 0 0 20 20" xml:space="preserve">
<g>
	<path fill="#357180" d="M19.69,10c0,5.351-4.338,9.69-9.69,9.69S0.31,15.353,0.31,10c0-5.352,4.338-9.69,9.69-9.69
		S19.69,4.647,19.69,10z"/>
	<path fill="#EBF6F9" d="M15.029,4.744l1.388,8.687L4.41,15.349L3.022,6.661L15.029,4.744z"/>
	<path fill="#DBF0F5" d="M16.085,13.015l-11.38,1.873l-1.29-7.904L14.794,5.11L16.085,13.015z"/>
	<path fill="#6CC077" d="M15.724,11.622l-1.793-1.285c0,0-0.535-0.496-0.939-0.405c-0.366,0.082-0.721,0.614-0.787,0.72
		l-0.602-0.432c0,0-0.627-0.582-1.103-0.476s-0.938,0.87-0.938,0.87L9.43,10.797L8.298,9.985c0,0-0.771-0.715-1.354-0.584
		S5.788,10.47,5.788,10.47l-1.366,1.904l0.393,2.374l11.122-1.83L15.724,11.622L15.724,11.622z"/>
	<path fill="#67B8CB" d="M10.121,7.928c-0.001-0.013,0.007-0.024,0.005-0.038c-0.034-0.203-0.28-0.331-0.55-0.286
		C9.54,7.609,9.511,7.625,9.478,7.636C9.379,7.541,9.219,7.489,9.042,7.519C8.812,7.557,8.651,7.71,8.636,7.88
		C8.422,7.96,8.277,8.132,8.307,8.313c0.029,0.17,0.2,0.287,0.413,0.305c0.096,0.145,0.304,0.227,0.534,0.189
		c0.209-0.034,0.37-0.157,0.432-0.304c0.057,0.01,0.117,0.011,0.181,0c0.239-0.038,0.409-0.217,0.381-0.396
		C10.234,8.034,10.185,7.975,10.121,7.928L10.121,7.928z"/>
	<path fill="#67B8CB" d="M12.483,8.013c-0.003-0.01-0.012-0.016-0.012-0.024c-0.024-0.144,0.112-0.287,0.305-0.318
		c0.024-0.005,0.049-0.001,0.073-0.001c0.046-0.086,0.142-0.157,0.267-0.179c0.162-0.026,0.307,0.04,0.355,0.151
		c0.163,0.005,0.299,0.089,0.319,0.217c0.02,0.121-0.07,0.238-0.209,0.299c-0.03,0.118-0.153,0.223-0.315,0.249
		c-0.148,0.024-0.286-0.021-0.361-0.105c-0.036,0.019-0.075,0.034-0.119,0.041c-0.171,0.028-0.326-0.053-0.347-0.181
		C12.429,8.108,12.449,8.057,12.483,8.013L12.483,8.013z"/>
	<path fill="#020202" d="M11.198,9.625c0-0.143-0.064-0.259-0.143-0.259h-0.595c-0.078,0-0.141,0.115-0.141,0.259
		s0.063,0.259,0.141,0.259h0.595C11.135,9.884,11.198,9.768,11.198,9.625z"/>
	<path fill="#231F20" d="M17.228,10.497c0-0.25-0.203-0.452-0.452-0.452h-6.435c-0.25,0-0.452,0.202-0.452,0.452v3.363
		c0,0.249,0.202,0.452,0.452,0.452h6.435c0.249,0,0.452-0.203,0.452-0.452V10.497z"/>
	<path fill="#231F20" d="M13.049,10.176c0-0.304-0.206-0.55-0.458-0.55h-2.243c-0.254,0-0.458,0.246-0.458,0.55v1.307
		c0,0.304,0.205,0.55,0.458,0.55h2.243c0.252,0,0.458-0.246,0.458-0.55V10.176z"/>
	<path fill="#020202" d="M15.812,12.167c0-1.244-1.009-2.253-2.254-2.253c-1.244,0-2.253,1.009-2.253,2.253
		c0,1.245,1.009,2.255,2.253,2.255C14.803,14.422,15.812,13.412,15.812,12.167z"/>
	<path fill="#231F20" d="M15.696,12.167c0-1.182-0.957-2.138-2.139-2.138c-1.18,0-2.139,0.958-2.139,2.138
		c0,1.182,0.959,2.14,2.139,2.14C14.739,14.307,15.696,13.349,15.696,12.167z"/>
	<path fill="#969595" d="M15.583,12.167c0-1.117-0.907-2.023-2.025-2.023c-1.117,0-2.024,0.906-2.024,2.023
		c0,1.118,0.907,2.025,2.024,2.025C14.676,14.192,15.583,13.285,15.583,12.167z"/>
	<path fill="#231F20" d="M15.491,12.167c0-1.067-0.865-1.933-1.934-1.933c-1.067,0-1.933,0.864-1.933,1.933s0.866,1.934,1.933,1.934
		C14.625,14.101,15.491,13.234,15.491,12.167z"/>
	<path fill="#020202" d="M15.349,12.167c0-0.98-0.796-1.775-1.777-1.775c-0.98,0-1.776,0.795-1.776,1.775
		c0,0.981,0.796,1.777,1.776,1.777C14.553,13.944,15.349,13.148,15.349,12.167z"/>
	<path fill="#231F20" d="M15.259,12.167c0-0.93-0.756-1.686-1.688-1.686s-1.687,0.756-1.687,1.686c0,0.933,0.755,1.687,1.687,1.687
		S15.259,13.1,15.259,12.167z"/>
	<path fill="#5A5B5D" d="M15.166,12.167c0-0.881-0.714-1.596-1.596-1.596s-1.596,0.715-1.596,1.596c0,0.883,0.714,1.597,1.596,1.597
		S15.166,13.051,15.166,12.167z"/>
	<path fill="#231F20" d="M15.095,12.167c0-0.84-0.683-1.523-1.524-1.523c-0.841,0-1.523,0.684-1.523,1.523
		c0,0.843,0.683,1.525,1.523,1.525C14.412,13.692,15.095,13.01,15.095,12.167z"/>
	<path fill="#A5B6B9" d="M14.893,12.167c0-0.729-0.591-1.32-1.322-1.32c-0.73,0-1.321,0.592-1.321,1.32
		c0,0.73,0.592,1.323,1.321,1.323S14.893,12.897,14.893,12.167L14.893,12.167z"/>
	<path fill="#FFFFFF" d="M13.758,11.724c0,0.352-0.284,0.635-0.634,0.635c-0.352,0-0.635-0.283-0.635-0.635
		c0-0.35,0.283-0.634,0.635-0.634C13.474,11.09,13.758,11.374,13.758,11.724z"/>
	<path fill="#67B8CB" d="M10.295,9.884c-0.091,0-0.165,0.074-0.165,0.165v0.134l0.299-0.298L10.295,9.884L10.295,9.884z"/>
	<path fill="#67B8CB" d="M11.573,10.049c0-0.091-0.074-0.165-0.165-0.165h-0.216l-0.946,0.945c0.016,0.005,0.032,0.008,0.05,0.008
		h0.784l0.494-0.494L11.573,10.049L11.573,10.049z"/>
	<path fill="#D6E4F4" d="M10.429,9.884l-0.299,0.298v0.489c0,0.074,0.048,0.137,0.114,0.157l0.945-0.945L10.429,9.884L10.429,9.884z
		"/>
	<path fill="#D6E4F4" d="M11.573,10.673v-0.33l-0.494,0.494h0.329C11.499,10.837,11.573,10.763,11.573,10.673z"/>
</g>
</svg>
