<?xml version="1.0" encoding="utf-8"?>
<!-- Generator: Adobe Illustrator 16.0.0, SVG Export Plug-In . SVG Version: 6.00 Build 0)  -->
<!DOCTYPE svg PUBLIC "-//W3C//DTD SVG 1.1//EN" "http://www.w3.org/Graphics/SVG/1.1/DTD/svg11.dtd">
<svg version="1.1" id="Layer_1" xmlns="http://www.w3.org/2000/svg" xmlns:xlink="http://www.w3.org/1999/xlink" x="0px" y="0px"
	 width="20px" height="20px" viewBox="0 0 20 20" enable-background="new 0 0 20 20" xml:space="preserve">
<g>
	<path fill="#58595A" d="M19.69,10c0,5.351-4.338,9.69-9.69,9.69S0.31,15.353,0.31,10c0-5.352,4.338-9.69,9.69-9.69
		S19.69,4.647,19.69,10z"/>
	<path fill="#F2DE62" d="M14.626,16.104l0.964-0.869l0.644,0.714l-0.964,0.869L14.626,16.104z"/>
	<path fill="#E6E768" d="M15.593,16.074l-0.332,0.755l-5.178,0.827l-0.809-4.953l6.271-1.001l0.694,4.252L15.593,16.074z"/>
	<path fill="#E5E65D" d="M15.663,12.324l-6.271,1.002l-0.117-0.622l6.271-1.001L15.663,12.324z"/>
	<path fill="#988534" d="M10.104,13.66l4.894-0.782l0.049,0.31l-4.894,0.782L10.104,13.66z"/>
	<path fill="#988534" d="M10.244,14.433l4.895-0.781l0.049,0.31l-4.894,0.782L10.244,14.433z"/>
	<path fill="#988534" d="M10.374,15.257l4.895-0.783l0.049,0.311l-4.894,0.781L10.374,15.257z"/>
	<path fill="#988534" d="M10.505,16.052l2.697-0.432l0.049,0.31l-2.697,0.432L10.505,16.052z"/>
	<path fill="#F2DE62" d="M6.781,11.865l1.045-0.772l0.572,0.773L7.354,12.64L6.781,11.865z"/>
	<path fill="#E6E768" d="M7.746,11.929l-0.403,0.719L2.109,12.97L1.784,7.962l6.34-0.39l0.278,4.299L7.746,11.929z"/>
	<path fill="#E5E65D" d="M8.181,8.204l-6.34,0.389L1.784,7.962l6.34-0.39L8.181,8.204z"/>
	<path fill="#988534" d="M2.519,8.993l4.946-0.305l0.019,0.312L2.537,9.306L2.519,8.993z"/>
	<path fill="#988534" d="M2.584,9.776L7.53,9.472l0.02,0.312l-4.946,0.305L2.584,9.776z"/>
	<path fill="#988534" d="M2.634,10.607l4.945-0.305l0.02,0.312L2.652,10.92L2.634,10.607z"/>
	<path fill="#988534" d="M2.684,11.413l2.728-0.168l0.019,0.313l-2.728,0.167L2.684,11.413z"/>
	<path fill="#F2DE62" d="M14.266,7.618l1.128-0.645l0.477,0.835l-1.127,0.645L14.266,7.618z"/>
	<path fill="#E6E768" d="M15.218,7.793L14.733,8.46L9.497,8.167l0.264-5.013l6.342,0.355l-0.226,4.302L15.218,7.793z"/>
	<path fill="#E5E65D" d="M16.085,4.145L9.742,3.788L9.76,3.154l6.342,0.356L16.085,4.145z"/>
	<path fill="#988534" d="M10.367,4.265l4.948,0.277l-0.019,0.312L10.35,4.577L10.367,4.265z"/>
	<path fill="#988534" d="M10.341,5.051l4.948,0.277l-0.018,0.312l-4.948-0.277L10.341,5.051z"/>
	<path fill="#988534" d="M10.293,5.882l4.948,0.277l-0.018,0.312l-4.948-0.276L10.293,5.882z"/>
	<path fill="#988534" d="M10.248,6.688l2.728,0.153l-0.018,0.313L10.23,7.002L10.248,6.688z"/>
</g>
</svg>
