<?xml version="1.0" encoding="utf-8"?>
<!-- Generator: Adobe Illustrator 16.0.0, SVG Export Plug-In . SVG Version: 6.00 Build 0)  -->
<!DOCTYPE svg PUBLIC "-//W3C//DTD SVG 1.1//EN" "http://www.w3.org/Graphics/SVG/1.1/DTD/svg11.dtd">
<svg version="1.1" id="Layer_1" xmlns="http://www.w3.org/2000/svg" xmlns:xlink="http://www.w3.org/1999/xlink" x="0px" y="0px"
	 width="20px" height="20px" viewBox="0 0 20 20" enable-background="new 0 0 20 20" xml:space="preserve">
<g>
	<path fill="#344E5D" d="M19.69,10c0,5.352-4.339,9.69-9.69,9.69S0.31,15.352,0.31,10c0-5.351,4.339-9.69,9.69-9.69
		S19.69,4.648,19.69,10z"/>
	<path fill="#59A29F" d="M11.32,4.918c0,0,0.705-2.033,0.357-2.224c-0.681-0.235-2.085-0.218-2.607,0
		C8.549,2.912,9.465,4.918,9.465,4.918H11.32z"/>
	<path fill="#7FCDCC" d="M10.437,2.519C9.93,2.52,9.335,2.584,9.07,2.694C8.549,2.912,9.465,4.918,9.465,4.918h0.96L10.437,2.519
		L10.437,2.519z"/>
	<path fill="#63AAA5" d="M9.471,4.868L7.677,15.709l2.713,2.253l2.503-2.253L11.319,4.868H9.471L9.471,4.868z"/>
	<path fill="#97D6D5" d="M9.471,4.868L7.677,15.709l2.713,2.253l0.022-13.094H9.471L9.471,4.868z"/>
</g>
</svg>
