<?xml version="1.0" encoding="utf-8"?>
<!-- Generator: Adobe Illustrator 16.0.0, SVG Export Plug-In . SVG Version: 6.00 Build 0)  -->
<!DOCTYPE svg PUBLIC "-//W3C//DTD SVG 1.1//EN" "http://www.w3.org/Graphics/SVG/1.1/DTD/svg11.dtd">
<svg version="1.1" id="Layer_1" xmlns="http://www.w3.org/2000/svg" xmlns:xlink="http://www.w3.org/1999/xlink" x="0px" y="0px"
	 width="20px" height="20px" viewBox="0 0 20 20" enable-background="new 0 0 20 20" xml:space="preserve">
<g>
	<path fill="#EDC92C" d="M19.69,10c0,5.352-4.338,9.69-9.69,9.69c-5.352,0-9.69-4.339-9.69-9.69c0-5.351,4.339-9.69,9.69-9.69
		C15.353,0.31,19.69,4.648,19.69,10z"/>
	<path fill="#36A5DD" d="M9.829,10.933c0,0.521-0.422,0.943-0.942,0.943l-4.95,1.571c-0.521,0-0.942-0.422-0.942-0.943V7.555
		c0-0.521,0.422-0.943,0.942-0.943l4.95,1.571c0.521,0,0.942,0.422,0.942,0.942V10.933L9.829,10.933z"/>
	<path fill="#36A5DD" d="M10.693,10.933c0,0.521,0.423,0.943,0.942,0.943l4.95,1.571c0.521,0,0.943-0.422,0.943-0.943V7.555
		c0-0.521-0.423-0.943-0.943-0.943l-4.95,1.571c-0.52,0-0.942,0.422-0.942,0.942V10.933L10.693,10.933z"/>
	<path fill="#1F92D0" d="M11.442,7.947H9.237c-0.202,0-0.392,0.058-0.552,0.156c0.152,0.824,0.248,2.276-0.159,3.889
		c0.059,0.054,0.122,0.101,0.192,0.141c0.153,0.086,0.33,0.136,0.519,0.136h2.205c0.584,0,1.058-0.474,1.058-1.058V9.006
		C12.5,8.422,12.026,7.948,11.442,7.947L11.442,7.947z"/>
	<path fill="#249BCB" d="M12.7,10.645c-0.002,0.075,0.031,0.133,0.074,0.125l2.001-0.899c0.043-0.007,0.079-0.074,0.081-0.15l0,0
		c0.003-0.076-0.032-0.132-0.075-0.126L12.81,9.311c-0.043,0.008-0.08,0.074-0.082,0.149L12.7,10.645L12.7,10.645z"/>
	<path fill="#249BCB" d="M8.504,10.701c0.003,0.077-0.031,0.134-0.074,0.126L6.429,9.928C6.386,9.921,6.35,9.853,6.348,9.777l0,0
		C6.346,9.701,6.379,9.646,6.422,9.652l1.971-0.284c0.043,0.007,0.08,0.074,0.082,0.149L8.504,10.701L8.504,10.701z"/>
</g>
</svg>
