<?xml version="1.0" encoding="utf-8"?>
<!-- Generator: Adobe Illustrator 16.0.0, SVG Export Plug-In . SVG Version: 6.00 Build 0)  -->
<!DOCTYPE svg PUBLIC "-//W3C//DTD SVG 1.1//EN" "http://www.w3.org/Graphics/SVG/1.1/DTD/svg11.dtd">
<svg version="1.1" id="Layer_1" xmlns="http://www.w3.org/2000/svg" xmlns:xlink="http://www.w3.org/1999/xlink" x="0px" y="0px"
	 width="20px" height="20px" viewBox="0 0 20 20" enable-background="new 0 0 20 20" xml:space="preserve">
<g>
	<path fill="#EDC92C" d="M19.69,10c0,5.352-4.339,9.69-9.69,9.69S0.31,15.352,0.31,10c0-5.351,4.339-9.69,9.69-9.69
		S19.69,4.648,19.69,10z"/>
	<path fill="#7FCDCC" d="M7.117,13.083c0,0.556-0.41,1.006-0.916,1.006H3.7c-0.506,0-0.917-0.45-0.917-1.006
		c0,0,0.21-2.181,0.382-2.727c0.172-0.544,0.41-1.006,0.916-1.006h1.814c0.506,0,0.782,0.335,0.916,1.006
		C6.945,11.029,7.116,13.083,7.117,13.083L7.117,13.083z"/>
	<path fill="#FFFFFF" d="M4.377,13.259l0.439-3.473l0.12-0.154l0.065-0.003l0.156,0.157l0.438,3.473l-0.633,0.537L4.377,13.259z"/>
	<path fill="#8DD3D5" d="M4.696,10.742l0.527-0.433l-0.022-0.183l-0.477,0.39L4.696,10.742z"/>
	<path fill="#8DD3D5" d="M4.615,11.381l0.675-0.553l-0.023-0.183l-0.623,0.508L4.615,11.381z"/>
	<path fill="#8DD3D5" d="M4.535,12.018l0.82-0.671l-0.022-0.183l-0.769,0.629L4.535,12.018z"/>
	<path fill="#8DD3D5" d="M4.454,12.656l0.967-0.793l-0.023-0.182L4.482,12.43L4.454,12.656z"/>
	<path fill="#8DD3D5" d="M4.377,13.259L4.4,13.271l1.085-0.889l-0.022-0.182L4.4,13.068L4.377,13.259z"/>
	<path fill="#8DD3D5" d="M4.728,13.58l0.824-0.678l-0.023-0.184l-0.92,0.753L4.728,13.58z"/>
	<path fill="#6FC5BC" d="M5.265,9.701c0,0.159-0.128,0.288-0.285,0.288c-0.156,0-0.284-0.129-0.284-0.288s0.128-0.288,0.284-0.288
		C5.137,9.413,5.265,9.542,5.265,9.701z"/>
	<path fill="#E9C29C" d="M6.776,7.26c0,1.021-0.827,1.847-1.847,1.847c-1.021,0-1.847-0.826-1.847-1.847
		c0-1.02,0.826-1.847,1.847-1.847C5.949,5.413,6.776,6.24,6.776,7.26z"/>
	<path fill="#904F22" d="M6.776,7.26L5.518,6.126c0,0-0.269,0.445-0.983,0.769C3.845,7.206,3.083,7.26,3.083,7.26
		c0-1.02,0.826-1.847,1.847-1.847C5.949,5.413,6.776,6.24,6.776,7.26z"/>
	<path fill="#343433" d="M4.628,7.534c0,0.147-0.113,0.267-0.254,0.267c-0.14,0-0.253-0.119-0.253-0.267s0.113-0.267,0.253-0.267
		C4.515,7.268,4.628,7.387,4.628,7.534z"/>
	<path fill="#343433" d="M5.725,7.534c0,0.147-0.113,0.267-0.254,0.267c-0.14,0-0.253-0.119-0.253-0.267s0.113-0.267,0.253-0.267
		C5.611,7.268,5.725,7.387,5.725,7.534z"/>
	<path fill="#FFFFFF" d="M5.652,7.433c0,0.059-0.045,0.106-0.102,0.106S5.449,7.491,5.449,7.433s0.045-0.107,0.102-0.107
		S5.652,7.374,5.652,7.433z"/>
	<path fill="#FFFFFF" d="M4.554,7.433c0,0.059-0.045,0.106-0.102,0.106S4.351,7.491,4.351,7.433s0.045-0.107,0.102-0.107
		S4.554,7.374,4.554,7.433z"/>
	<path fill="#7FCDCC" d="M13.038,14.704c0,0.825-0.61,1.496-1.362,1.496h-3.72c-0.753,0-1.362-0.671-1.362-1.496
		c0,0,0.312-3.241,0.567-4.053c0.256-0.811,0.61-1.497,1.362-1.497h2.696c0.752,0,1.163,0.499,1.363,1.497
		C12.782,11.649,13.038,14.704,13.038,14.704z"/>
	<path fill="#FFFFFF" d="M8.963,14.966l0.652-5.163l0.18-0.229l0.096-0.005l0.232,0.233l0.653,5.163l-0.941,0.798L8.963,14.966z"/>
	<path fill="#8DD3D5" d="M9.437,11.225l0.785-0.644l-0.034-0.272l-0.708,0.579L9.437,11.225z"/>
	<path fill="#8DD3D5" d="M9.316,12.174l1.003-0.821l-0.035-0.272l-0.925,0.757L9.316,12.174z"/>
	<path fill="#8DD3D5" d="M9.195,13.122l1.22-0.999l-0.034-0.271l-1.143,0.937L9.195,13.122z"/>
	<path fill="#8DD3D5" d="M9.076,14.07l1.438-1.176l-0.035-0.272l-1.36,1.113L9.076,14.07z"/>
	<path fill="#8DD3D5" d="M8.963,14.966l0.034,0.02l1.614-1.32l-0.034-0.272l-1.579,1.292L8.963,14.966z"/>
	<path fill="#8DD3D5" d="M9.483,15.443l1.226-1.009l-0.034-0.271l-1.369,1.118L9.483,15.443z"/>
	<path fill="#6FC5BC" d="M10.282,9.677c0,0.237-0.189,0.429-0.423,0.429S9.437,9.914,9.437,9.677c0-0.236,0.189-0.428,0.423-0.428
		S10.282,9.44,10.282,9.677z"/>
	<path fill="#E9C29C" d="M12.528,6.048c0,1.517-1.229,2.745-2.745,2.745S7.038,7.563,7.038,6.048c0-1.517,1.229-2.745,2.745-2.745
		S12.528,4.532,12.528,6.048z"/>
	<path fill="#904F22" d="M12.528,6.048l-1.872-1.685c0,0-0.397,0.659-1.462,1.141C8.169,5.967,7.037,6.047,7.037,6.047
		c0-1.517,1.228-2.745,2.745-2.745C11.299,3.302,12.528,4.53,12.528,6.048L12.528,6.048z"/>
	<path fill="#343433" d="M9.336,6.456c0,0.22-0.169,0.397-0.376,0.397S8.584,6.676,8.584,6.456S8.753,6.058,8.96,6.058
		S9.336,6.236,9.336,6.456z"/>
	<path fill="#343433" d="M10.966,6.456c0,0.22-0.169,0.397-0.377,0.397c-0.207,0-0.375-0.178-0.375-0.397s0.168-0.398,0.375-0.398
		C10.797,6.058,10.966,6.236,10.966,6.456z"/>
	<path fill="#FFFFFF" d="M10.857,6.305c0,0.088-0.066,0.159-0.15,0.159c-0.083,0-0.15-0.071-0.15-0.159s0.067-0.159,0.15-0.159
		C10.791,6.146,10.857,6.217,10.857,6.305z"/>
	<path fill="#FFFFFF" d="M9.224,6.305c0,0.088-0.067,0.159-0.15,0.159c-0.084,0-0.151-0.071-0.151-0.159s0.067-0.159,0.151-0.159
		C9.156,6.146,9.224,6.217,9.224,6.305z"/>
	<path fill="#7FCDCC" d="M16.905,13.083c0,0.556-0.41,1.006-0.917,1.006h-2.501c-0.505,0-0.916-0.45-0.916-1.006
		c0,0,0.209-2.181,0.381-2.727c0.172-0.544,0.411-1.006,0.916-1.006h1.814c0.506,0,0.782,0.335,0.916,1.006
		C16.734,11.029,16.905,13.083,16.905,13.083z"/>
	<path fill="#FFFFFF" d="M14.165,13.259l0.438-3.473l0.121-0.154l0.065-0.003l0.155,0.157l0.439,3.473l-0.633,0.537L14.165,13.259z"
		/>
	<path fill="#8DD3D5" d="M14.481,10.742l0.529-0.433l-0.023-0.183l-0.477,0.39L14.481,10.742z"/>
	<path fill="#8DD3D5" d="M14.402,11.381l0.675-0.553l-0.023-0.183l-0.623,0.508L14.402,11.381z"/>
	<path fill="#8DD3D5" d="M14.321,12.018l0.821-0.671l-0.022-0.183l-0.77,0.629L14.321,12.018z"/>
	<path fill="#8DD3D5" d="M14.24,12.656l0.968-0.793l-0.023-0.182L14.27,12.43L14.24,12.656z"/>
	<path fill="#8DD3D5" d="M14.165,13.259l0.022,0.013l1.086-0.889l-0.022-0.182l-1.062,0.867L14.165,13.259z"/>
	<path fill="#8DD3D5" d="M14.515,13.58l0.824-0.678l-0.023-0.184l-0.922,0.753L14.515,13.58z"/>
	<path fill="#6FC5BC" d="M15.052,9.701c0,0.159-0.128,0.288-0.284,0.288c-0.157,0-0.283-0.129-0.283-0.288s0.126-0.288,0.283-0.288
		C14.924,9.413,15.052,9.542,15.052,9.701z"/>
	<path fill="#E9C29C" d="M16.562,7.26c0,1.021-0.826,1.847-1.847,1.847c-1.02,0-1.846-0.827-1.846-1.847s0.826-1.847,1.846-1.847
		C15.736,5.413,16.562,6.241,16.562,7.26z"/>
	<path fill="#904F22" d="M16.562,7.26l-1.258-1.134c0,0-0.269,0.445-0.984,0.769c-0.69,0.312-1.45,0.365-1.45,0.365
		c0-1.02,0.826-1.847,1.846-1.847C15.736,5.413,16.562,6.24,16.562,7.26z"/>
	<path fill="#343433" d="M14.414,7.534c0,0.147-0.112,0.267-0.251,0.267c-0.141,0-0.254-0.119-0.254-0.267s0.113-0.267,0.254-0.267
		C14.302,7.268,14.414,7.387,14.414,7.534z"/>
	<path fill="#343433" d="M15.513,7.534c0,0.147-0.114,0.267-0.254,0.267c-0.139,0-0.251-0.119-0.251-0.267s0.112-0.267,0.251-0.267
		C15.398,7.268,15.513,7.387,15.513,7.534z"/>
	<path fill="#FFFFFF" d="M15.439,7.433c0,0.059-0.045,0.106-0.103,0.106c-0.057,0-0.102-0.048-0.102-0.106s0.045-0.107,0.102-0.107
		C15.395,7.325,15.439,7.374,15.439,7.433z"/>
	<path fill="#FFFFFF" d="M14.339,7.433c0,0.059-0.045,0.106-0.102,0.106c-0.056,0-0.102-0.048-0.102-0.106s0.046-0.107,0.102-0.107
		C14.294,7.325,14.339,7.374,14.339,7.433z"/>
</g>
</svg>
