<?xml version="1.0" encoding="utf-8"?>
<!-- Generator: Adobe Illustrator 16.0.0, SVG Export Plug-In . SVG Version: 6.00 Build 0)  -->
<!DOCTYPE svg PUBLIC "-//W3C//DTD SVG 1.1//EN" "http://www.w3.org/Graphics/SVG/1.1/DTD/svg11.dtd">
<svg version="1.1" id="Layer_1" xmlns="http://www.w3.org/2000/svg" xmlns:xlink="http://www.w3.org/1999/xlink" x="0px" y="0px"
	 width="20px" height="20px" viewBox="0 0 20 20" enable-background="new 0 0 20 20" xml:space="preserve">
<g>
	<path fill="#F2BE3E" d="M19.69,10c0,5.351-4.338,9.69-9.69,9.69S0.31,15.353,0.31,10c0-5.352,4.338-9.69,9.69-9.69
		S19.69,4.647,19.69,10z"/>
	<path fill="#BBBCBB" d="M6.002,7.819l3.929,2.055l3.917-2.055l2.69-1.42H3.312L6.002,7.819z"/>
	<path fill="#E7E7E7" d="M16.538,13.498H3.312v-7.11l6.613,3.561l6.612-3.561L16.538,13.498z"/>
	<path fill="#BBBCBB" d="M16.538,6.401l-0.035-0.066L3.312,13.414v0.085h0.307l12.919-6.863L16.538,6.401z"/>
	<path fill="#BBBCBB" d="M3.312,6.401l0.036-0.066l13.19,7.079v0.085h-0.307L3.312,6.636L3.312,6.401z"/>
	<path fill="#E7E7E7" d="M9.925,10.228L3.312,6.326h13.227L9.925,10.228z"/>
</g>
</svg>
