<?xml version="1.0" encoding="utf-8"?>
<!-- Generated by IcoMoon.io -->
<!DOCTYPE svg PUBLIC "-//W3C//DTD SVG 1.1//EN" "http://www.w3.org/Graphics/SVG/1.1/DTD/svg11.dtd">
<svg version="1.1" xmlns="http://www.w3.org/2000/svg" xmlns:xlink="http://www.w3.org/1999/xlink" width="20" height="20" viewBox="0 0 20 20">
<path fill="rgb(237, 201, 47)" d="M10 0.31c-5.352 0-9.691 4.338-9.691 9.691s4.339 9.69 9.691 9.69c5.352 0 9.69-4.339 9.69-9.69s-4.339-9.691-9.69-9.691z"></path>
<path fill="rgb(130, 114, 90)" d="M16.262 13.591v-4.914l-12.524-0.040v4.953c0 0.849 0.806 0.836 0.806 0.836h10.87c0.901 0 0.849-0.836 0.849-0.836z"></path>
<path fill="rgb(117, 102, 82)" d="M8.929 10.365v0.928c0 0.188 0.152 0.34 0.34 0.34h1.461c0.188 0 0.34-0.152 0.34-0.34v-0.928h-2.142z"></path>
<path fill="rgb(66, 57, 46)" d="M15.4 6.677h-10.843c-0.849 0-0.819 0.836-0.819 0.836v1.738l5.389 1.551c0.187 0.002 1.589 0.003 1.762 0.001l5.373-1.565v-1.725c0-0.875-0.862-0.836-0.862-0.836z"></path>
<path fill="rgb(91, 79, 63)" d="M15.4 6.502h-10.843c-0.849 0-0.819 0.836-0.819 0.836v1.738l5.389 1.551c0.187 0.002 1.589 0.003 1.762 0.001l5.373-1.565v-1.725c0-0.875-0.862-0.836-0.862-0.836z"></path>
<path fill="rgb(63, 63, 62)" d="M11.258 4.83h-2.534c-0.797 0-0.823 0.836-0.823 0.836v0.836h0.823v-0.444c0-0.379 0.418-0.405 0.418-0.405h1.685c0.444 0 0.418 0.457 0.418 0.457l-0.013 0.392h0.836v-0.849c-0-0.862-0.81-0.823-0.81-0.823z"></path>
<path fill="rgb(221, 191, 104)" d="M12.072 6.227h-0.833l-0.159 0.234h1.152z"></path>
<path fill="rgb(204, 173, 72)" d="M12.163 6.357h-1.009l-0.107 0.143h1.217z"></path>
<path fill="rgb(221, 191, 104)" d="M8.725 6.227h-0.833l-0.159 0.234h1.152z"></path>
<path fill="rgb(204, 173, 72)" d="M8.817 6.357h-1.009l-0.107 0.143h1.217z"></path>
<path fill="rgb(204, 173, 72)" d="M10.889 11.163c0 0.156-0.126 0.283-0.283 0.283h-1.212c-0.156 0-0.283-0.126-0.283-0.283v-0.53h1.777v0.53z"></path>
<path fill="rgb(221, 191, 104)" d="M9.111 10.33c0-0.156 0.126-0.283 0.283-0.283h1.212c0.156 0 0.283 0.126 0.283 0.283v0.53h-1.777v-0.53z"></path>
</svg>
