<?xml version="1.0" encoding="utf-8"?>
<!-- Generator: Adobe Illustrator 16.0.0, SVG Export Plug-In . SVG Version: 6.00 Build 0)  -->
<!DOCTYPE svg PUBLIC "-//W3C//DTD SVG 1.1//EN" "http://www.w3.org/Graphics/SVG/1.1/DTD/svg11.dtd">
<svg version="1.1" id="Layer_1" xmlns="http://www.w3.org/2000/svg" xmlns:xlink="http://www.w3.org/1999/xlink" x="0px" y="0px"
	 width="20px" height="20px" viewBox="0 0 20 20" enable-background="new 0 0 20 20" xml:space="preserve">
<g>
	<path fill="#6EC2CB" d="M19.69,10c0,5.351-4.338,9.69-9.69,9.69S0.31,15.353,0.31,10c0-5.352,4.338-9.69,9.69-9.69
		S19.69,4.647,19.69,10z"/>
	<path fill="#E9E4B1" d="M15.274,7.037H4.646c-0.786,0-1.28,0.494-1.28,1.28v5.658c0,0.786,0.494,1.281,1.28,1.281h10.629
		c0.786,0,1.28-0.495,1.28-1.281V8.317C16.555,7.532,16.06,7.037,15.274,7.037z M10.266,8.314c0.001,0,0.003-0.001,0.003-0.001
		c-0.003,0.003-0.008,0.005-0.011,0.007c-0.009,0.007-0.019,0.012-0.026,0.018c-0.016,0.009-0.032,0.019-0.049,0.025
		c-0.009,0.005-0.019,0.009-0.028,0.013c-0.019,0.008-0.037,0.013-0.057,0.018C10.089,8.396,10.08,8.399,10.071,8.4
		c-0.029,0.006-0.059,0.009-0.089,0.009c-0.263,0-0.475-0.212-0.475-0.475S9.72,7.459,9.982,7.459c0.264,0,0.476,0.213,0.476,0.476
		C10.458,8.09,10.382,8.228,10.266,8.314L10.266,8.314z"/>
	<path fill="#FFFFFF" d="M10.098,8.394C10.089,8.396,10.08,8.399,10.071,8.4C10.08,8.399,10.089,8.396,10.098,8.394z"/>
	<path fill="#FFFFFF" d="M10.258,8.32c-0.009,0.007-0.019,0.012-0.026,0.018C10.239,8.332,10.249,8.327,10.258,8.32z"/>
	<path fill="#FFFFFF" d="M10.183,8.364c-0.009,0.005-0.019,0.01-0.028,0.013C10.164,8.373,10.175,8.369,10.183,8.364z"/>
	<path fill="#58595A" d="M9.982,8.409c0.031,0,0.061-0.003,0.089-0.009c0.009-0.001,0.018-0.005,0.026-0.007
		c0.02-0.005,0.038-0.01,0.057-0.018c0.01-0.003,0.02-0.008,0.028-0.013c0.017-0.007,0.033-0.017,0.049-0.025
		c0.008-0.006,0.018-0.011,0.026-0.018c0.003-0.002,0.005-0.005,0.008-0.006C10.247,8.318,9.992,8.371,9.8,8.259
		c-0.207-0.12-0.292-0.324-0.292-0.324C9.508,8.197,9.72,8.409,9.982,8.409z"/>
	<path fill="#FFFFFF" d="M10.071,8.4c-0.029,0.006-0.059,0.009-0.089,0.009C10.014,8.409,10.043,8.406,10.071,8.4z"/>
	<path fill="#FFFFFF" d="M10.269,8.313l-0.003,0.001c-0.003,0.002-0.005,0.004-0.008,0.006C10.262,8.318,10.266,8.316,10.269,8.313z
		"/>
	<path fill="#FFFFFF" d="M10.154,8.376c-0.019,0.008-0.037,0.013-0.057,0.018C10.117,8.389,10.136,8.384,10.154,8.376z"/>
	<path fill="#FFFFFF" d="M10.231,8.338c-0.016,0.009-0.032,0.019-0.049,0.025C10.199,8.355,10.216,8.347,10.231,8.338z"/>
	<path fill="#90B9C0" d="M15.739,14.036c0,0.241-0.195,0.436-0.436,0.436h-3.135c-0.24,0-0.435-0.195-0.435-0.436v-3.882
		c0-0.239,0.194-0.435,0.435-0.435h3.135c0.239,0,0.436,0.195,0.436,0.435V14.036z"/>
	<path fill="#FFFFFF" d="M14.058,13.088v-0.256c0.377-0.164,0.629-0.589,0.674-1.114c0.068-0.029,0.119-0.131,0.119-0.258
		c0-0.146-0.066-0.262-0.149-0.268c-0.115-0.512-0.483-0.775-0.983-0.775s-0.872,0.264-0.988,0.775
		c-0.084,0.006-0.15,0.122-0.15,0.268c0,0.127,0.052,0.227,0.12,0.258c0.046,0.521,0.298,0.946,0.672,1.112v0.259
		c-1.157,0.017-1.376,0.149-1.376,0.996v0.635h3.453v-0.635C15.448,13.234,15.224,13.104,14.058,13.088L14.058,13.088z"/>
	<path fill="#5B4F3F" d="M4.493,9.825h5.988v0.682H4.493V9.825z"/>
	<path fill="#5B4F3F" d="M4.493,10.815h5.988v0.293H4.493V10.815z"/>
	<path fill="#5B4F3F" d="M7.867,11.7h2.615v0.472H7.867V11.7z"/>
	<path fill="#5B4F3F" d="M4.493,11.7h2.615v0.472H4.493V11.7z"/>
	<path fill="#58595A" d="M10.826,7.035c0.062-0.119,0.095-0.255,0.095-0.397c0-0.187-0.377-0.328-0.879-0.328
		s-0.88,0.141-0.88,0.328c0,0.484,0.395,0.879,0.88,0.879c0.046,0,0.092-0.004,0.137-0.01c0,0,0.053,0.018,0.113,0.069
		c0.044,0.038,0.091,0.104,0.091,0.104c-0.107,0.034-0.222,0.052-0.341,0.052c-0.622,0-1.129-0.507-1.129-1.129
		c0-0.352,0.567-0.508,1.129-0.508s1.129,0.156,1.129,0.508c0,0.153-0.031,0.299-0.086,0.432H10.826z"/>
	<path fill="#CE2F2E" d="M10.968,6.284c0,0.121-0.188,0.22-0.422,0.22H9.554c-0.232,0-0.422-0.099-0.422-0.22l0,0
		c0-0.122,0.188-0.22,0.422-0.22h0.992C10.779,6.064,10.968,6.162,10.968,6.284L10.968,6.284z"/>
	<path fill="#AD2728" d="M10.092,4.514c0.127,0.621,0.312,1.255,0.579,1.864H10.7c1.126-2.786,1.105-5.04,1.04-5.91
		c-0.482-0.088-0.979-0.14-1.484-0.153C10.327,0.927,10.471,2.661,10.092,4.514L10.092,4.514z"/>
	<path fill="#CE2F2E" d="M9.483,6.379h0.029C9.78,5.77,9.965,5.136,10.092,4.515c-0.38-1.857-0.235-3.594-0.164-4.203
		C9.424,0.315,8.929,0.357,8.446,0.435C8.38,1.279,8.343,3.557,9.483,6.379z"/>
	<path fill="#CE2F2E" d="M9.513,6.379h1.16c-0.268-0.609-0.453-1.243-0.58-1.864C9.966,5.136,9.781,5.77,9.515,6.379H9.513z"/>
	<path opacity="0.03" d="M4.633,7.037c-0.786,0-1.28,0.494-1.28,1.28v5.658c0,0.786,0.494,1.281,1.28,1.281h8.822l-8.218-8.22H4.633
		z"/>
	<path fill="#D7D7D7" d="M10.258,8.32c0.004-0.003,0.008-0.005,0.011-0.007l-0.003,0.001C10.263,8.316,10.261,8.318,10.258,8.32z"/>
</g>
</svg>
