<?xml version="1.0" encoding="utf-8"?>
<!-- Generator: Adobe Illustrator 16.0.0, SVG Export Plug-In . SVG Version: 6.00 Build 0)  -->
<!DOCTYPE svg PUBLIC "-//W3C//DTD SVG 1.1//EN" "http://www.w3.org/Graphics/SVG/1.1/DTD/svg11.dtd">
<svg version="1.1" id="Layer_1" xmlns="http://www.w3.org/2000/svg" xmlns:xlink="http://www.w3.org/1999/xlink" x="0px" y="0px"
	 width="20px" height="20px" viewBox="0 0 20 20" enable-background="new 0 0 20 20" xml:space="preserve">
<g>
	<path fill="#40BCA3" d="M19.69,10c0,5.351-4.338,9.69-9.69,9.69S0.31,15.353,0.31,10c0-5.352,4.338-9.69,9.69-9.69
		S19.69,4.647,19.69,10z"/>
	<path fill="#E84849" d="M2.599,9.993c0-4.12,3.34-7.459,7.46-7.459s7.459,3.34,7.459,7.459c0,4.12-3.339,7.46-7.459,7.46
		S2.599,14.113,2.599,9.993z"/>
	<path fill="#F6A2A3" d="M16.504,9.993c0,3.561-2.885,6.445-6.445,6.445s-6.445-2.885-6.445-6.445c0-3.559,2.885-6.445,6.445-6.445
		S16.504,6.433,16.504,9.993z"/>
	<path fill="#E9E9EA" d="M15.986,9.993c0,3.198-2.653,5.791-5.927,5.791s-5.927-2.593-5.927-5.791c0-3.197,2.653-5.791,5.927-5.791
		S15.986,6.796,15.986,9.993z"/>
	<path fill="#E9E9EA" d="M15.986,10.386c0,3.198-2.653,5.791-5.928,5.791s-5.928-2.593-5.928-5.791c0-3.197,2.653-5.791,5.928-5.791
		S15.986,7.188,15.986,10.386z"/>
	<path fill="#626463" d="M11.095,9.941c0,0.546-0.442,0.991-0.99,0.991s-0.99-0.444-0.99-0.991s0.442-0.99,0.99-0.99
		S11.095,9.394,11.095,9.941z"/>
	<path fill="#626463" d="M10.199,10.174c-0.069,0.069-0.215,0.038-0.324-0.07l0,0c-0.108-0.108-0.14-0.255-0.07-0.324l2.299-2.3
		c0.071-0.069,0.216-0.038,0.325,0.071l0,0c0.108,0.108,0.141,0.254,0.069,0.324L10.199,10.174L10.199,10.174z"/>
	<path fill="#626463" d="M9.875,10.069c-0.08-0.08-0.08-0.211,0-0.291l0,0c0.081-0.081,0.212-0.081,0.292,0l3.333,3.333
		c0.081,0.08,0.081,0.211,0,0.292l0,0c-0.079,0.08-0.21,0.08-0.292,0L9.875,10.069L9.875,10.069z"/>
	<path fill="#DDDFDF" d="M10.063,4.823c4.729,0.04,5.888,4.437,5.888,4.437c-0.439-2.854-2.913-5.058-5.892-5.058
		c-2.979,0-5.442,2.202-5.883,5.058C4.177,9.26,5.334,4.783,10.063,4.823z"/>
</g>
</svg>
