<?xml version="1.0" encoding="utf-8"?>
<!-- Generator: Adobe Illustrator 16.0.0, SVG Export Plug-In . SVG Version: 6.00 Build 0)  -->
<!DOCTYPE svg PUBLIC "-//W3C//DTD SVG 1.1//EN" "http://www.w3.org/Graphics/SVG/1.1/DTD/svg11.dtd">
<svg version="1.1" id="Layer_1" xmlns="http://www.w3.org/2000/svg" xmlns:xlink="http://www.w3.org/1999/xlink" x="0px" y="0px"
	 width="20px" height="20px" viewBox="0 0 20 20" enable-background="new 0 0 20 20" xml:space="preserve">
<g>
	<path fill="#B3DCE2" d="M19.69,10c0,5.351-4.338,9.69-9.69,9.69S0.31,15.353,0.31,10c0-5.352,4.338-9.69,9.69-9.69
		S19.69,4.647,19.69,10z"/>
	<path fill="#E79E2D" d="M3.038,14.461h11.656v0.692H3.038V14.461z"/>
	<path fill="#F2BE3E" d="M14.694,14.482H3.038l2.074-2.019h11.656L14.694,14.482z"/>
	<path fill="#E79E2D" d="M14.694,14.482l-0.006,0.667l2.075-2.02l0.006-0.666L14.694,14.482z"/>
	<path fill="#F06668" d="M7.226,5.938V5.532H7.123l-2.398,1.21h0.642l1.604-0.805H7.226z"/>
	<path fill="#FFFFFF" d="M8.779,5.938H6.979L5.364,6.745h1.902L8.779,5.938z"/>
	<path fill="#F06668" d="M9.604,5.475L7.281,6.743v7.256l2.322-1.503V5.475z"/>
	<path fill="#F6A2A3" d="M4.702,6.742H7.28v7.257H4.702V6.742z"/>
	<path fill="#F6A2A3" d="M9.61,5.475L9.539,5.479L7.073,6.743l0.206-0.002L9.61,5.475z"/>
	<path fill="#F6A2A3" d="M7.123,5.533L4.702,6.742h0.206l2.315-1.21L7.123,5.533z"/>
	<path fill="#E58E8F" d="M7.182,5.936h0.044V5.532L7.18,5.557L7.182,5.936z"/>
	<path fill="#D88080" d="M7.226,5.532l-2.358,1.21H5l2.178-1.12L7.226,5.532z"/>
	<path fill="#DDDDDC" d="M5.788,6.743H5.661l1.425-0.801h0.147L5.788,6.743z"/>
	<path fill="#DDDDDC" d="M6.297,6.743H6.169l1.428-0.801h0.146L6.297,6.743z"/>
	<path fill="#DDDDDC" d="M6.825,6.743H6.698l1.426-0.801h0.146L6.825,6.743z"/>
	<path fill="#F06668" d="M4.908,7.076h2.167v1.333H4.908V7.076z"/>
	<path fill="#FFFFFF" d="M5.087,7.244h1.811v1H5.087V7.244z"/>
	<path fill="#F06668" d="M6.612,9.8c0,0.368-0.298,0.667-0.667,0.667c-0.368,0-0.666-0.299-0.666-0.667s0.298-0.667,0.666-0.667
		C6.314,9.133,6.612,9.432,6.612,9.8z"/>
	<path fill="#F6A2A3" d="M6.514,9.8c0,0.313-0.254,0.568-0.568,0.568c-0.313,0-0.568-0.255-0.568-0.568
		c0-0.314,0.255-0.568,0.568-0.568C6.26,9.231,6.514,9.485,6.514,9.8z"/>
	<path fill="#F06668" d="M6.612,12.097c0,0.369-0.298,0.668-0.667,0.668c-0.368,0-0.666-0.299-0.666-0.668s0.298-0.667,0.666-0.667
		C6.314,11.43,6.612,11.728,6.612,12.097z"/>
	<path fill="#F6A2A3" d="M6.514,12.097c0,0.313-0.254,0.568-0.568,0.568c-0.313,0-0.568-0.255-0.568-0.568s0.255-0.568,0.568-0.568
		C6.26,11.528,6.514,11.783,6.514,12.097z"/>
	<path fill="#357180" d="M10.485,4.308V3.902h-0.103l-2.397,1.21h0.64l1.605-0.805H10.485z"/>
	<path fill="#FFFFFF" d="M12.04,4.308h-1.801L8.625,5.115h1.902L12.04,4.308z"/>
	<path fill="#357180" d="M12.862,3.844L10.54,5.112v8.737l2.322-1.503V3.844z"/>
	<path fill="#67B8CB" d="M7.962,5.112h2.578v8.737H7.962V5.112z"/>
	<path fill="#67B8CB" d="M12.87,3.844l-0.071,0.005l-2.467,1.264L10.54,5.11L12.87,3.844z"/>
	<path fill="#67B8CB" d="M10.384,3.902l-2.421,1.21h0.206l2.315-1.21H10.384z"/>
	<path fill="#67B7C3" d="M10.442,4.306h0.044V3.902L10.44,3.928L10.442,4.306z"/>
	<path fill="#43A0AA" d="M10.485,3.902l-2.358,1.21H8.26l2.178-1.12L10.485,3.902z"/>
	<path fill="#DDDDDC" d="M9.048,5.113H8.92l1.428-0.801h0.146L9.048,5.113z"/>
	<path fill="#DDDDDC" d="M9.559,5.113H9.431l1.426-0.801h0.147L9.559,5.113z"/>
	<path fill="#DDDDDC" d="M10.086,5.113H9.958l1.426-0.801h0.146L10.086,5.113z"/>
	<path fill="#357180" d="M8.169,5.446h2.167v1.333H8.169V5.446z"/>
	<path fill="#FFFFFF" d="M8.347,5.613h1.811v1H8.347V5.613z"/>
	<path fill="#357180" d="M9.872,8.712c0,0.369-0.299,0.667-0.667,0.667S8.538,9.081,8.538,8.712c0-0.368,0.299-0.667,0.667-0.667
		S9.872,8.344,9.872,8.712z"/>
	<path fill="#357180" d="M9.872,11.528c0,0.369-0.299,0.668-0.667,0.668s-0.667-0.299-0.667-0.668s0.299-0.667,0.667-0.667
		S9.872,11.159,9.872,11.528z"/>
	<path opacity="0.1" d="M15.763,12.468l-1.278,1.298l-2.225,0.076l1.3-1.385L15.763,12.468z"/>
	<path fill="#2F8442" d="M12.69,6.508l-0.06-0.296l-0.073,0.017l-1.57,1.236l0.467-0.095l1.053-0.823L12.69,6.508z"/>
	<path fill="#FFFFFF" d="M13.825,6.278l-1.312,0.267l-1.057,0.827l1.386-0.28L13.825,6.278z"/>
	<path fill="#2F8442" d="M14.356,5.818L12.85,7.086l1.292,6.373l1.471-1.439L14.356,5.818z"/>
	<path fill="#6CC077" d="M12.26,13.841l-1.291-6.373l1.881-0.382l1.292,6.373L12.26,13.841z"/>
	<path fill="#6CC077" d="M14.362,5.817l-0.052,0.015l-1.611,1.286l0.15-0.033L14.362,5.817z"/>
	<path fill="#6CC077" d="M12.558,6.229l-1.589,1.239l0.151-0.031l1.509-1.225L12.558,6.229z"/>
	<path fill="#6CC077" d="M12.659,6.513l0.031-0.006l-0.06-0.294l-0.03,0.026L12.659,6.513z"/>
	<path fill="#48B15A" d="M12.631,6.212l-1.54,1.231l0.097-0.02l1.424-1.138L12.631,6.212z"/>
	<path fill="#DDDDDC" d="M11.763,7.308l-0.095,0.019l0.923-0.794l0.106-0.022L11.763,7.308z"/>
	<path fill="#DDDDDC" d="M12.134,7.232L12.04,7.251l0.923-0.794l0.105-0.021L12.134,7.232z"/>
	<path fill="#DDDDDC" d="M12.519,7.155l-0.094,0.018l0.923-0.794l0.106-0.021L12.519,7.155z"/>
	<path fill="#2F8442" d="M11.17,7.681l1.58-0.321l0.196,0.973l-1.58,0.32L11.17,7.681z"/>
	<path fill="#FFFFFF" d="M11.325,7.775l1.318-0.267l0.148,0.729l-1.32,0.267L11.325,7.775z"/>
	<path fill="#2F8442" d="M12.905,9.91c0,0.273-0.223,0.496-0.497,0.496c-0.273,0-0.495-0.223-0.495-0.496
		c0-0.274,0.222-0.497,0.495-0.497C12.683,9.413,12.905,9.636,12.905,9.91z"/>
	<path fill="#2F8442" d="M13.32,11.964c0,0.274-0.222,0.496-0.496,0.496s-0.495-0.222-0.495-0.496s0.221-0.496,0.495-0.496
		S13.32,11.689,13.32,11.964z"/>
</g>
</svg>
