<?xml version="1.0" encoding="utf-8"?>
<!-- Generator: Adobe Illustrator 16.0.0, SVG Export Plug-In . SVG Version: 6.00 Build 0)  -->
<!DOCTYPE svg PUBLIC "-//W3C//DTD SVG 1.1//EN" "http://www.w3.org/Graphics/SVG/1.1/DTD/svg11.dtd">
<svg version="1.1" id="Layer_1" xmlns="http://www.w3.org/2000/svg" xmlns:xlink="http://www.w3.org/1999/xlink" x="0px" y="0px"
	 width="20px" height="20px" viewBox="0 0 20 20" enable-background="new 0 0 20 20" xml:space="preserve">
<g>
	<path fill="#F37C2A" d="M19.69,10c0,5.352-4.339,9.69-9.69,9.69S0.31,15.352,0.31,10c0-5.351,4.339-9.69,9.69-9.69
		S19.69,4.648,19.69,10z"/>
	<path fill="#DDDCD9" d="M4.67,5.446h10.362c0.348,0,0.633,0.285,0.633,0.633v8.2c0,0.348-0.285,0.632-0.633,0.632H4.67
		c-0.348,0-0.633-0.284-0.633-0.632v-8.2C4.037,5.731,4.322,5.446,4.67,5.446L4.67,5.446z"/>
	<path fill="#626463" d="M6.771,10.244c0,0.121-0.098,0.22-0.22,0.22H4.755c-0.122,0-0.22-0.099-0.22-0.22V9.273
		c0-0.122,0.098-0.221,0.22-0.221h1.796c0.122,0,0.22,0.099,0.22,0.221V10.244z"/>
	<path fill="#626463" d="M9.583,10.244c0,0.121-0.099,0.22-0.22,0.22H7.568c-0.122,0-0.221-0.099-0.221-0.22V9.273
		c0-0.122,0.099-0.221,0.221-0.221h1.795c0.121,0,0.22,0.099,0.22,0.221V10.244z"/>
	<path fill="#626463" d="M12.359,10.244c0,0.121-0.098,0.22-0.22,0.22h-1.795c-0.122,0-0.22-0.099-0.22-0.22V9.273
		c0-0.122,0.098-0.221,0.22-0.221h1.795c0.122,0,0.22,0.099,0.22,0.221V10.244z"/>
	<path fill="#626463" d="M15.173,10.244c0,0.121-0.098,0.22-0.221,0.22h-1.794c-0.122,0-0.221-0.099-0.221-0.22V9.273
		c0-0.122,0.099-0.221,0.221-0.221h1.794c0.123,0,0.221,0.099,0.221,0.221V10.244z"/>
	<path fill="#626463" d="M6.771,12.156c0,0.121-0.098,0.221-0.22,0.221H4.755c-0.122,0-0.22-0.1-0.22-0.221v-0.971
		c0-0.122,0.098-0.22,0.22-0.22h1.796c0.122,0,0.22,0.098,0.22,0.22V12.156z"/>
	<path fill="#626463" d="M9.583,12.156c0,0.121-0.099,0.221-0.22,0.221H7.568c-0.122,0-0.221-0.1-0.221-0.221v-0.971
		c0-0.122,0.099-0.22,0.221-0.22h1.795c0.121,0,0.22,0.098,0.22,0.22V12.156z"/>
	<path fill="#626463" d="M12.359,12.156c0,0.121-0.098,0.221-0.22,0.221h-1.795c-0.122,0-0.22-0.1-0.22-0.221v-0.971
		c0-0.122,0.098-0.22,0.22-0.22h1.795c0.122,0,0.22,0.098,0.22,0.22V12.156z"/>
	<path fill="#626463" d="M15.173,12.156c0,0.121-0.098,0.221-0.221,0.221h-1.794c-0.122,0-0.221-0.1-0.221-0.221v-0.971
		c0-0.122,0.099-0.22,0.221-0.22h1.794c0.123,0,0.221,0.098,0.221,0.22V12.156z"/>
	<path fill="#626463" d="M6.771,14.068c0,0.122-0.098,0.222-0.22,0.222H4.755c-0.122,0-0.22-0.1-0.22-0.222v-0.971
		c0-0.121,0.098-0.22,0.22-0.22h1.796c0.122,0,0.22,0.099,0.22,0.22V14.068z"/>
	<path fill="#626463" d="M9.583,14.068c0,0.122-0.099,0.222-0.22,0.222H7.568c-0.122,0-0.221-0.1-0.221-0.222v-0.971
		c0-0.121,0.099-0.22,0.221-0.22h1.795c0.121,0,0.22,0.099,0.22,0.22V14.068z"/>
	<path fill="#626463" d="M12.359,14.068c0,0.122-0.098,0.222-0.22,0.222h-1.795c-0.122,0-0.22-0.1-0.22-0.222v-0.971
		c0-0.121,0.098-0.22,0.22-0.22h1.795c0.122,0,0.22,0.099,0.22,0.22V14.068z"/>
	<path fill="#626463" d="M15.173,14.068c0,0.122-0.098,0.222-0.221,0.222h-1.794c-0.122,0-0.221-0.1-0.221-0.222v-0.971
		c0-0.121,0.099-0.22,0.221-0.22h1.794c0.123,0,0.221,0.099,0.221,0.22V14.068z"/>
	<path fill="#D32027" d="M4.67,5.446h10.362c0.348,0,0.633,0.285,0.633,0.633v2.188H4.037V6.079C4.037,5.731,4.322,5.446,4.67,5.446
		L4.67,5.446z"/>
	<path opacity="0.1" d="M13.027,5.446v1.181c0,0.297-0.242,0.539-0.539,0.539h-0.461c-0.297,0-0.539-0.242-0.539-0.539V5.446H13.027
		z M6.676,5.446h1.538v1.181c0,0.297-0.242,0.539-0.538,0.539H7.213c-0.296,0-0.538-0.242-0.538-0.539L6.676,5.446L6.676,5.446z"/>
	<path fill="#FFFFFF" d="M12.027,3.971h0.461c0.148,0,0.271,0.121,0.271,0.27v2.387c0,0.149-0.122,0.271-0.271,0.271h-0.461
		c-0.149,0-0.271-0.121-0.271-0.271V4.24C11.756,4.092,11.878,3.971,12.027,3.971z M7.213,3.971h0.463c0.148,0,0.27,0.121,0.27,0.27
		v2.387c0,0.149-0.122,0.271-0.27,0.271H7.213c-0.149,0-0.271-0.121-0.271-0.271V4.24C6.942,4.092,7.063,3.971,7.213,3.971z"/>
</g>
</svg>
