<?xml version="1.0" encoding="utf-8"?>
<!-- Generator: Adobe Illustrator 16.0.0, SVG Export Plug-In . SVG Version: 6.00 Build 0)  -->
<!DOCTYPE svg PUBLIC "-//W3C//DTD SVG 1.1//EN" "http://www.w3.org/Graphics/SVG/1.1/DTD/svg11.dtd">
<svg version="1.1" id="Layer_1" xmlns="http://www.w3.org/2000/svg" xmlns:xlink="http://www.w3.org/1999/xlink" x="0px" y="0px"
	 width="20px" height="20px" viewBox="0 0 20 20" enable-background="new 0 0 20 20" xml:space="preserve">
<g>
	<path fill="#4ABC96" d="M19.69,10c0,5.351-4.338,9.69-9.69,9.69S0.31,15.353,0.31,10c0-5.352,4.338-9.69,9.69-9.69
		S19.69,4.647,19.69,10z"/>
	<path fill="#A3D4AA" d="M14.843,7.456c0,0.247-0.199,0.447-0.447,0.447h-2.795c-0.246,0-0.445-0.2-0.445-0.447v-1.62
		c0-0.247,0.199-0.447,0.445-0.447h2.795c0.248,0,0.447,0.2,0.447,0.447V7.456z"/>
	<path fill="#A3D4AA" d="M16.123,12.66c0,0.804-0.652,1.453-1.454,1.453H5.58c-0.803,0-1.454-0.649-1.454-1.453V7.389
		c0-0.802,0.651-1.453,1.454-1.453h9.089c0.802,0,1.454,0.651,1.454,1.453V12.66z"/>
	<path opacity="0.1" d="M11.356,6.345l0.617-0.617l2.093,2.093l-0.617,0.617L11.356,6.345z"/>
	<path fill="#F6A2A3" d="M12.116,7.684c0,0.247-0.2,0.446-0.448,0.446H8.874c-0.247,0-0.446-0.199-0.446-0.446V6.064
		c0-0.248,0.199-0.447,0.446-0.447h2.794c0.248,0,0.448,0.199,0.448,0.447V7.684z"/>
	<path fill="#F6A2A3" d="M16.123,12.977c0,0.804-0.652,1.454-1.454,1.454H5.58c-0.803,0-1.454-0.65-1.454-1.454V7.706
		c0-0.803,0.651-1.454,1.454-1.454h9.089c0.802,0,1.454,0.651,1.454,1.454V12.977z"/>
	<path opacity="0.1" d="M8.549,6.606l0.618-0.617l2.093,2.093l-0.618,0.617L8.549,6.606z"/>
	<path fill="#F9F29A" d="M9.389,8.016c0,0.247-0.2,0.447-0.447,0.447H6.147C5.9,8.463,5.7,8.263,5.7,8.016v-1.62
		c0-0.247,0.2-0.447,0.447-0.447h2.794c0.247,0,0.447,0.2,0.447,0.447V8.016z"/>
	<path fill="#F9F29A" d="M16.123,14.796H4.126V8.069c0-0.803,0.651-1.454,1.454-1.454h9.089c0.802,0,1.454,0.651,1.454,1.454V14.796
		z"/>
</g>
</svg>
