<?xml version="1.0" encoding="utf-8"?>
<!-- Generator: Adobe Illustrator 16.0.0, SVG Export Plug-In . SVG Version: 6.00 Build 0)  -->
<!DOCTYPE svg PUBLIC "-//W3C//DTD SVG 1.1//EN" "http://www.w3.org/Graphics/SVG/1.1/DTD/svg11.dtd">
<svg version="1.1" id="Layer_1" xmlns="http://www.w3.org/2000/svg" xmlns:xlink="http://www.w3.org/1999/xlink" x="0px" y="0px"
	 width="20px" height="20px" viewBox="0 0 20 20" enable-background="new 0 0 20 20" xml:space="preserve">
<g>
	<path fill="#EDC92C" d="M19.69,10c0,5.352-4.339,9.69-9.69,9.69S0.31,15.352,0.31,10c0-5.351,4.339-9.69,9.69-9.69
		S19.69,4.648,19.69,10z"/>
	<path fill="#E9C29C" d="M15.029,10c0,2.778-2.251,5.03-5.029,5.03c-2.777,0-5.029-2.252-5.029-5.03
		c0-2.777,2.252-5.029,5.029-5.029C12.778,4.971,15.029,7.223,15.029,10z"/>
	<path fill="#A46434" d="M15.029,10L11.6,6.913c0,0-0.729,1.21-2.678,2.091C7.044,9.853,4.971,10,4.971,10
		c0-2.777,2.252-5.029,5.029-5.029C12.778,4.971,15.029,7.223,15.029,10z"/>
	<path fill="#343433" d="M9.181,10.747c0,0.402-0.309,0.728-0.689,0.728c-0.38,0-0.688-0.325-0.688-0.728s0.309-0.729,0.688-0.729
		C8.872,10.019,9.181,10.345,9.181,10.747z"/>
	<path fill="#343433" d="M12.168,10.747c0,0.402-0.309,0.728-0.689,0.728c-0.38,0-0.688-0.325-0.688-0.728s0.309-0.729,0.688-0.729
		C11.859,10.019,12.168,10.345,12.168,10.747z"/>
	<path fill="#FFFFFF" d="M11.969,10.472c0,0.16-0.124,0.291-0.275,0.291s-0.275-0.131-0.275-0.291c0-0.162,0.124-0.292,0.275-0.292
		S11.969,10.31,11.969,10.472z"/>
	<path fill="#FFFFFF" d="M8.976,10.472c0,0.16-0.124,0.291-0.275,0.291s-0.275-0.131-0.275-0.291c0-0.162,0.124-0.292,0.275-0.292
		S8.976,10.31,8.976,10.472z"/>
	<path fill="#357180" d="M5.947,10.206c0,1.081,0.011,1.956-0.742,1.956s-1.363-0.875-1.363-1.956c0-1.08,0.61-1.955,1.363-1.955
		S5.947,9.126,5.947,10.206z"/>
	<path fill="#357180" d="M16.148,10.206c0,1.081-0.611,1.956-1.364,1.956c-0.752,0-0.742-0.875-0.742-1.956
		c0-1.08-0.01-1.955,0.742-1.955C15.537,8.251,16.148,9.126,16.148,10.206z"/>
	<path fill="#357180" d="M10.033,4.601c3.055,0,5.574,2.887,5.945,5.752c0.029-0.241,0.049-0.485,0.049-0.735
		c0-3.212-2.683-6.486-5.994-6.486c-3.311,0-5.994,3.274-5.994,6.486c0,0.25,0.019,0.494,0.05,0.735
		C4.461,7.487,6.979,4.601,10.033,4.601z"/>
	<path fill="#24626C" d="M12.23,15.589c0.12,0.391-0.285,0.761-0.877,0.942c-0.593,0.182-1.149,0.106-1.269-0.283
		c-0.121-0.391,0.24-0.948,0.834-1.13C11.512,14.938,12.111,15.198,12.23,15.589z"/>
	<path fill="#357180" d="M16.511,10.267h-0.034v-0.019c0-0.206-0.168-0.373-0.373-0.373c-0.207,0-0.374,0.168-0.374,0.373v0.509
		c0,0.133,0.069,0.247,0.173,0.313c-0.394,2.309-1.847,3.819-3.644,4.593c-0.003-0.003,0-0.005-0.003-0.009
		c-0.092-0.301-0.648-0.399-1.239-0.217c-0.593,0.183-0.999,0.575-0.906,0.877c0.094,0.301,0.648,0.399,1.242,0.215
		c0.284-0.086,0.521-0.223,0.685-0.372C14.688,15.64,16.51,13.199,16.511,10.267L16.511,10.267z"/>
</g>
</svg>
