<?xml version="1.0" encoding="utf-8"?>
<!-- Generator: Adobe Illustrator 16.0.0, SVG Export Plug-In . SVG Version: 6.00 Build 0)  -->
<!DOCTYPE svg PUBLIC "-//W3C//DTD SVG 1.1//EN" "http://www.w3.org/Graphics/SVG/1.1/DTD/svg11.dtd">
<svg version="1.1" id="Layer_1" xmlns="http://www.w3.org/2000/svg" xmlns:xlink="http://www.w3.org/1999/xlink" x="0px" y="0px"
	 width="20px" height="20px" viewBox="0 0 20 20" enable-background="new 0 0 20 20" xml:space="preserve">
<g>
	<path fill="#4ABC96" d="M19.69,10c0,5.351-4.338,9.69-9.69,9.69S0.31,15.353,0.31,10c0-5.352,4.338-9.69,9.69-9.69
		S19.69,4.647,19.69,10z"/>
	<path fill="#4E4E4E" d="M15.226,13.864c0.188,1.217-0.182,1.72-1.398,1.905l-7.522,1.155L4.312,4.611l7.527-1.156
		c1.217-0.187,1.72,0.183,1.905,1.398L15.226,13.864L15.226,13.864z"/>
	<path fill="#58595A" d="M15.537,13.418c0.188,1.217-0.182,1.72-1.398,1.906l-7.522,1.155L4.625,4.165l7.528-1.156
		c1.216-0.186,1.719,0.183,1.905,1.399L15.537,13.418z"/>
	<path fill="#333535" d="M5.664,5.818C5.685,5.942,5.602,6.061,5.478,6.08C5.354,6.101,5.236,6.019,5.215,5.895
		C5.194,5.771,5.278,5.653,5.401,5.633C5.524,5.611,5.642,5.695,5.664,5.818L5.664,5.818z"/>
	<path fill="#333535" d="M6.021,8.071c0.021,0.124-0.062,0.241-0.187,0.262C5.71,8.354,5.593,8.271,5.572,8.146
		C5.551,8.022,5.635,7.905,5.759,7.885C5.882,7.865,5.999,7.947,6.021,8.071L6.021,8.071z"/>
	<path fill="#333535" d="M6.398,10.434c0.021,0.124-0.062,0.241-0.187,0.262c-0.124,0.021-0.24-0.063-0.263-0.187
		c-0.021-0.124,0.063-0.242,0.187-0.262C6.26,10.227,6.377,10.309,6.398,10.434L6.398,10.434z"/>
	<path fill="#333535" d="M6.785,12.793c0.021,0.124-0.062,0.241-0.187,0.262s-0.24-0.062-0.263-0.187
		c-0.021-0.123,0.062-0.241,0.187-0.262C6.646,12.586,6.764,12.669,6.785,12.793L6.785,12.793z"/>
	<path fill="#333535" d="M7.166,15.193c0,0.125-0.102,0.227-0.227,0.227c-0.126,0-0.228-0.102-0.228-0.227
		c0-0.126,0.102-0.228,0.228-0.228C7.064,14.966,7.166,15.067,7.166,15.193z"/>
	<path fill="#4E4E4E" d="M6.493,6.421l6.302-0.998L13.378,9.1l-6.303,0.997L6.493,6.421z"/>
	<path fill="#FFFFFF" d="M6.859,6.721l5.68-0.9l0.467,2.943L7.325,9.663L6.859,6.721z"/>
	<path fill="#818282" d="M7.397,7.024l4.67-0.746l0.04,0.255L7.438,7.278L7.397,7.024z"/>
	<path fill="#818282" d="M7.516,7.66l4.67-0.745l0.041,0.254l-4.67,0.745L7.516,7.66z"/>
	<path fill="#818282" d="M7.622,8.337l4.67-0.745l0.041,0.254l-4.67,0.745L7.622,8.337z"/>
	<path fill="#818282" d="M10.343,8.836L7.77,9.247L7.728,8.993l2.575-0.412L10.343,8.836z"/>
</g>
</svg>
