<?xml version="1.0" encoding="utf-8"?>
<!-- Generator: Adobe Illustrator 16.0.0, SVG Export Plug-In . SVG Version: 6.00 Build 0)  -->
<!DOCTYPE svg PUBLIC "-//W3C//DTD SVG 1.1//EN" "http://www.w3.org/Graphics/SVG/1.1/DTD/svg11.dtd">
<svg version="1.1" id="Layer_1" xmlns="http://www.w3.org/2000/svg" xmlns:xlink="http://www.w3.org/1999/xlink" x="0px" y="0px"
	 width="20px" height="20px" viewBox="0 0 20 20" enable-background="new 0 0 20 20" xml:space="preserve">
<g>
	<path fill="#F2BE3E" d="M19.69,10c0,5.352-4.339,9.69-9.69,9.69S0.31,15.352,0.31,10S4.648,0.31,10,0.31S19.69,4.648,19.69,10z"/>
	<path fill="#F2EF8F" d="M16.249,14.982L5.561,16.688L4.183,8.247L14.871,6.54L16.249,14.982z"/>
	<path fill="#988534" d="M5.598,9.874l8.34-1.331l0.085,0.527l-8.341,1.332L5.598,9.874z"/>
	<path fill="#988534" d="M5.838,11.193l8.341-1.332l0.085,0.527l-8.342,1.332L5.838,11.193z"/>
	<path fill="#988534" d="M6.059,12.595l8.34-1.332l0.085,0.528l-8.341,1.333L6.059,12.595z"/>
	<path fill="#988534" d="M10.96,13.746l-4.599,0.735l-0.085-0.528l4.599-0.735L10.96,13.746z"/>
	<path fill="#7D8880" d="M9.557,8.59L9.308,7.046h0.523L9.577,8.59H9.557z"/>
	<path fill="#F06668" d="M8.416,3.283l0.09,0.153L9.07,3.952L8.789,6.017L8.896,6.96l0.404,0.229l0.767,0.019l0.563-0.327
		l-0.369-0.594l-0.21-2.25l0.011-0.307l0.503-0.307l0.061-0.156L8.416,3.283z"/>
	<path fill="#E84849" d="M10.497,7.079c-0.188,0.124-0.417,0.205-0.669,0.232L9.744,7.318c-0.01,0.001-0.019,0.003-0.028,0.003
		L9.639,7.323C9.483,7.322,9.335,7.302,9.197,7.262C8.684,7.112,8.312,6.713,8.306,6.239c-0.003-0.266,0.136-0.32,0.397-0.491
		l0.306-1.769C8.761,3.895,8.564,3.612,8.465,3.396c0.338,0.282,0.737,0.35,1.022,0.353c0.009,0.071,0.035,0.274,0.037,0.305
		c0.183,0.001,0.333-0.026,0.438-0.055V3.997l0.051-0.312c0.223-0.057,0.417-0.149,0.554-0.261
		c-0.082,0.186-0.217,0.408-0.389,0.491c0,0,0.22,1.257,0.307,1.782c0.283,0.162,0.518,0.23,0.521,0.505
		c0.006,0.354-0.193,0.669-0.506,0.876L10.497,7.079z M9.965,4.054C9.858,4.082,9.707,4.108,9.523,4.108L9.511,6.531
		C9.59,6.538,9.669,6.54,9.746,6.534c0.165-0.014,0.313-0.062,0.436-0.136L9.965,4.054L9.965,4.054z M10.524,6.91l-0.325-0.457
		C10.072,6.528,9.92,6.576,9.752,6.59C9.671,6.598,9.587,6.593,9.504,6.586l-0.235,0.52c0.126,0.024,0.26,0.038,0.4,0.036
		c0.325-0.006,0.624-0.089,0.855-0.224V6.91L10.524,6.91z M9.648,3.689C9.363,3.71,8.825,3.684,8.416,3.283
		C8.39,3.231,8.373,3.178,8.372,3.122C8.371,3.062,8.388,3.004,8.417,2.946C8.555,2.689,8.992,2.5,9.513,2.491
		c0.521-0.008,0.964,0.173,1.108,0.425c0.032,0.055,0.051,0.113,0.051,0.175c0.002,0.061-0.015,0.12-0.046,0.176
		c-0.003,0.009-0.007,0.021-0.011,0.03c-0.172,0.201-0.562,0.361-0.967,0.391V3.689z"/>
</g>
</svg>
