<?xml version="1.0" encoding="utf-8"?>
<!-- Generator: Adobe Illustrator 16.0.0, SVG Export Plug-In . SVG Version: 6.00 Build 0)  -->
<!DOCTYPE svg PUBLIC "-//W3C//DTD SVG 1.1//EN" "http://www.w3.org/Graphics/SVG/1.1/DTD/svg11.dtd">
<svg version="1.1" id="Layer_1" xmlns="http://www.w3.org/2000/svg" xmlns:xlink="http://www.w3.org/1999/xlink" x="0px" y="0px"
	 width="20px" height="20px" viewBox="0 0 20 20" enable-background="new 0 0 20 20" xml:space="preserve">
<g>
	<path fill="#EDC92C" d="M19.69,10c0,5.351-4.338,9.69-9.69,9.69S0.31,15.353,0.31,10c0-5.352,4.338-9.69,9.69-9.69
		S19.69,4.647,19.69,10z"/>
	<path fill="#4E4E4E" d="M16.801,12.075c0.132,0.858-0.129,1.215-0.986,1.346L5.195,15.05c-0.858,0.132-1.213-0.129-1.345-0.986
		L2.808,7.705C2.675,6.847,2.935,6.493,3.793,6.361l10.62-1.63c0.858-0.132,1.213,0.128,1.345,0.986L16.801,12.075z"/>
	<path fill="#A3D4AA" d="M16.148,12.067c0.064,0.406-0.215,0.789-0.622,0.852l0,0l-0.439-2.818c0.406-0.064,0.789,0.215,0.853,0.623
		L16.148,12.067z"/>
	<path fill="#6CC077" d="M15.758,9.54c0.062,0.408-0.216,0.789-0.624,0.854l0,0l-0.439-2.818c0.408-0.063,0.79,0.216,0.853,0.623
		l0.209,1.343L15.758,9.54z"/>
	<path fill="#F6A2A3" d="M4.468,13.845c0.066,0.408,0.451,0.683,0.858,0.615l0,0l-0.463-2.814c-0.407,0.066-0.683,0.451-0.616,0.859
		L4.468,13.845L4.468,13.845z"/>
	<path fill="#F06668" d="M4.05,11.325c0.066,0.406,0.451,0.682,0.858,0.615l0,0L4.445,9.126C4.038,9.192,3.763,9.577,3.83,9.982
		L4.05,11.325z"/>
	<path fill="#E84849" d="M3.688,8.974C3.756,9.381,4.14,9.656,4.547,9.589l0,0L4.084,6.774C3.677,6.842,3.401,7.226,3.469,7.633
		L3.688,8.974z"/>
	<path fill="#EBF6F9" d="M9.271,6.05l5.076-0.811l1.231,7.711l-5.077,0.811L9.271,6.05z"/>
	<path fill="#EBF6F9" d="M10.335,13.685l-5.048,0.811L4.056,6.784l5.048-0.811L10.335,13.685z"/>
	<path fill="#818282" d="M4.821,7.812l3.161-0.507l0.04,0.25L4.861,8.06L4.821,7.812z"/>
	<path fill="#818282" d="M4.933,8.433l3.16-0.505l0.039,0.249l-3.16,0.505L4.933,8.433z"/>
	<path fill="#818282" d="M5.037,9.094l3.161-0.505l0.04,0.249L5.076,9.344L5.037,9.094z"/>
	<path fill="#818282" d="M5.112,9.735l3.161-0.506l0.04,0.249L5.152,9.984L5.112,9.735z"/>
	<path fill="#818282" d="M5.224,10.356l3.16-0.505l0.04,0.25l-3.161,0.505L5.224,10.356z"/>
	<path fill="#818282" d="M5.327,11.019l3.161-0.506l0.039,0.25l-3.16,0.505L5.327,11.019z"/>
	<path fill="#818282" d="M5.419,11.683l3.161-0.506l0.04,0.248l-3.161,0.507L5.419,11.683z"/>
	<path fill="#818282" d="M5.53,12.306l3.16-0.505l0.04,0.249l-3.161,0.504L5.53,12.306z"/>
	<path fill="#818282" d="M5.634,12.967l3.161-0.505l0.04,0.248l-3.161,0.506L5.634,12.967z"/>
	<path fill="#818282" d="M10.593,7.049l3.162-0.504l0.04,0.248l-3.161,0.505L10.593,7.049z"/>
	<path fill="#818282" d="M10.704,7.672l3.162-0.505l0.039,0.25l-3.161,0.504L10.704,7.672z"/>
	<path fill="#818282" d="M10.81,8.333l3.16-0.505l0.04,0.25l-3.161,0.504L10.81,8.333z"/>
	<path fill="#818282" d="M10.912,8.973l1.743-0.278l0.039,0.249l-1.742,0.278L10.912,8.973z"/>
	<path fill="#2F8442" d="M15.367,7.195l-0.21-1.343c-0.063-0.407-0.444-0.686-0.854-0.623L14.12,5.268l0.46,2.799l0.163-0.023v0.004
		C15.15,7.983,15.431,7.603,15.367,7.195L15.367,7.195z"/>
	<path fill="#4E4E4E" d="M8.661,6.832c0,0.089-0.072,0.16-0.16,0.16s-0.16-0.072-0.16-0.16c0-0.089,0.072-0.16,0.16-0.16
		S8.661,6.744,8.661,6.832z"/>
	<path fill="#4E4E4E" d="M10.222,6.567c0,0.089-0.072,0.16-0.16,0.16s-0.16-0.072-0.16-0.16c0-0.089,0.072-0.16,0.16-0.16
		S10.222,6.479,10.222,6.567z"/>
	<path fill="#4E4E4E" d="M9.663,13.285c0,0.088-0.072,0.16-0.161,0.16c-0.088,0-0.159-0.072-0.159-0.16
		c0-0.09,0.071-0.161,0.159-0.161C9.591,13.124,9.663,13.197,9.663,13.285z"/>
	<path fill="#4E4E4E" d="M11.224,13.021c0,0.089-0.072,0.161-0.16,0.161s-0.16-0.072-0.16-0.161s0.072-0.16,0.16-0.16
		S11.224,12.933,11.224,13.021z"/>
	<path fill="#4E4E4E" d="M9.062,9.478c0,0.089-0.071,0.16-0.16,0.16c-0.088,0-0.16-0.072-0.16-0.16c0-0.089,0.072-0.16,0.16-0.16
		C8.99,9.317,9.062,9.39,9.062,9.478z"/>
	<path fill="#4E4E4E" d="M10.624,9.213c0,0.089-0.074,0.16-0.162,0.16s-0.159-0.072-0.159-0.16c0-0.089,0.071-0.16,0.159-0.16
		S10.624,9.125,10.624,9.213z"/>
	<path fill="#4E4E4E" d="M9.262,10.761c0,0.088-0.072,0.159-0.16,0.159s-0.16-0.071-0.16-0.159c0-0.09,0.072-0.161,0.16-0.161
		S9.262,10.673,9.262,10.761z"/>
	<path fill="#4E4E4E" d="M10.824,10.496c0,0.089-0.073,0.16-0.161,0.16s-0.159-0.071-0.159-0.16s0.071-0.16,0.159-0.16
		S10.824,10.408,10.824,10.496z"/>
	<path fill="#4E4E4E" d="M9.463,11.983c0,0.088-0.072,0.159-0.16,0.159s-0.16-0.071-0.16-0.159c0-0.09,0.072-0.161,0.16-0.161
		S9.463,11.896,9.463,11.983z"/>
	<path fill="#4E4E4E" d="M11.024,11.72c0,0.088-0.072,0.159-0.16,0.159s-0.161-0.071-0.161-0.159c0-0.09,0.073-0.161,0.161-0.161
		S11.024,11.632,11.024,11.72z"/>
	<path fill="#4E4E4E" d="M8.841,8.114c0,0.09-0.072,0.16-0.16,0.16s-0.16-0.072-0.16-0.16c0-0.089,0.072-0.16,0.16-0.16
		S8.841,8.026,8.841,8.114z"/>
	<path fill="#4E4E4E" d="M10.401,7.851c0,0.089-0.072,0.16-0.16,0.16s-0.16-0.072-0.16-0.16c0-0.089,0.072-0.16,0.16-0.16
		S10.401,7.763,10.401,7.851z"/>
</g>
</svg>
