<?xml version="1.0" encoding="utf-8"?>
<!-- Generator: Adobe Illustrator 16.0.0, SVG Export Plug-In . SVG Version: 6.00 Build 0)  -->
<!DOCTYPE svg PUBLIC "-//W3C//DTD SVG 1.1//EN" "http://www.w3.org/Graphics/SVG/1.1/DTD/svg11.dtd">
<svg version="1.1" id="Layer_1" xmlns="http://www.w3.org/2000/svg" xmlns:xlink="http://www.w3.org/1999/xlink" x="0px" y="0px"
	 width="20px" height="20px" viewBox="0 0 20 20" enable-background="new 0 0 20 20" xml:space="preserve">
<g>
	<path fill="#F2BE3E" d="M19.69,10c0,5.351-4.339,9.69-9.69,9.69c-5.353,0-9.69-4.339-9.69-9.69S4.647,0.31,10,0.31
		C15.352,0.31,19.69,4.647,19.69,10z"/>
	<path fill="#7D8880" d="M10.32,16.101l-0.501-3.046h1.015L10.32,16.101z"/>
	<path fill="#F06668" d="M7.933,5.775l0.172,0.297L9.197,7.07l-0.546,3.994l0.21,1.825l0.781,0.441l1.481,0.037l1.087-0.634
		l-0.71-1.148l-0.404-4.351l0.021-0.596l0.971-0.592l0.119-0.303L7.933,5.775z"/>
	<path fill="#E84849" d="M11.959,13.117c-0.364,0.24-0.809,0.396-1.295,0.449L10.5,13.579c-0.019,0.003-0.036,0.005-0.056,0.005
		l-0.149,0.004c-0.298-0.002-0.586-0.041-0.852-0.117c-0.995-0.289-1.712-1.06-1.726-1.977c-0.007-0.515,0.263-0.621,0.769-0.952
		l0.59-3.422C8.597,6.958,8.218,6.409,8.023,5.992c0.655,0.547,1.427,0.677,1.978,0.682c0.019,0.139,0.069,0.532,0.071,0.589
		c0.352,0.002,0.645-0.051,0.846-0.105V7.154l0.098-0.604c0.43-0.11,0.809-0.287,1.072-0.505c-0.157,0.357-0.418,0.79-0.752,0.95
		c0,0,0.423,2.43,0.593,3.447c0.546,0.315,0.999,0.447,1.008,0.977c0.009,0.685-0.376,1.295-0.979,1.696L11.959,13.117z
		 M10.931,7.267c-0.21,0.055-0.502,0.106-0.856,0.105l-0.023,4.687c0.152,0.012,0.306,0.02,0.456,0.006
		c0.318-0.026,0.606-0.118,0.842-0.263l-0.42-4.535H10.931z M12.012,12.791l-0.628-0.884c-0.247,0.145-0.541,0.237-0.866,0.265
		c-0.158,0.013-0.318,0.006-0.479-0.008L9.58,13.169c0.245,0.048,0.504,0.072,0.774,0.068c0.631-0.008,1.207-0.169,1.654-0.43
		L12.012,12.791L12.012,12.791z M10.315,6.561c-0.552,0.041-1.592-0.01-2.383-0.785C7.88,5.677,7.848,5.573,7.848,5.465
		c-0.002-0.117,0.029-0.231,0.087-0.34c0.267-0.495,1.112-0.865,2.121-0.88c1.007-0.014,1.862,0.333,2.142,0.82
		c0.062,0.107,0.097,0.22,0.099,0.338s-0.029,0.231-0.088,0.341c-0.007,0.019-0.015,0.04-0.021,0.06
		C11.854,6.194,11.102,6.503,10.315,6.561z"/>
</g>
</svg>
