<?xml version="1.0" encoding="utf-8"?>
<!-- Generator: Adobe Illustrator 16.0.0, SVG Export Plug-In . SVG Version: 6.00 Build 0)  -->
<!DOCTYPE svg PUBLIC "-//W3C//DTD SVG 1.1//EN" "http://www.w3.org/Graphics/SVG/1.1/DTD/svg11.dtd">
<svg version="1.1" id="Layer_1" xmlns="http://www.w3.org/2000/svg" xmlns:xlink="http://www.w3.org/1999/xlink" x="0px" y="0px"
	 width="20px" height="20px" viewBox="0 0 20 20" enable-background="new 0 0 20 20" xml:space="preserve">
<g>
	<path fill="#4ABC96" d="M19.69,10c0,5.351-4.338,9.69-9.69,9.69S0.31,15.353,0.31,10c0-5.352,4.338-9.69,9.69-9.69
		S19.69,4.647,19.69,10z"/>
	<path fill="#FFFFFF" d="M4.55,4.742l8.768-1.401l1.935,12.12l-8.767,1.4L4.55,4.742z"/>
	<path fill="#F7D98B" d="M13.959,6.32l0.776,0.162l-0.015,0.068l-0.776-0.163L13.959,6.32z"/>
	<path fill="#F7D98B" d="M14.585,5.132L13.959,6.32l0.776,0.162L14.585,5.132z"/>
	<path fill="#626463" d="M14.585,5.125l-0.273,0.519l0.34,0.072L14.585,5.125z"/>
	<path fill="#F2BE3E" d="M12.603,16.672c-0.032,0.163-0.164,0.139-0.327,0.104l-0.186-0.039c-0.162-0.032-0.293-0.064-0.259-0.225
		l0.027-0.129c0.033-0.161,0.806,0,0.772,0.162L12.603,16.672z"/>
	<path fill="#818282" d="M11.967,15.863l0.777,0.162l-0.108,0.519l-0.777-0.163L11.967,15.863z"/>
	<path fill="#A4A5A4" d="M11.967,15.863l0.777,0.162l-0.017,0.078l-0.777-0.162L11.967,15.863z"/>
	<path fill="#A4A5A4" d="M11.929,16.037l0.777,0.163l-0.018,0.079l-0.775-0.162L11.929,16.037z"/>
	<path fill="#A4A5A4" d="M11.896,16.213l0.775,0.163l-0.016,0.08l-0.777-0.163L11.896,16.213z"/>
	<path fill="#E84849" d="M14.558,6.51l-1.983,9.497l0.17,0.035l1.982-9.496l-0.03-0.14L14.558,6.51z"/>
	<path fill="#E84849" d="M14.07,6.408l-1.981,9.496l0.224,0.047l1.983-9.495l-0.09-0.152L14.07,6.408z"/>
	<path fill="#F06668" d="M13.944,6.381l-1.983,9.496l0.128,0.027l1.981-9.497L14.003,6.26L13.944,6.381z"/>
	<path fill="#F06668" d="M14.296,6.456l-1.983,9.495l0.262,0.056l1.983-9.497l-0.105-0.155L14.296,6.456z"/>
	<path fill="#357180" d="M5.491,5.822l7.15-1.144l0.072,0.452l-7.15,1.144L5.491,5.822z"/>
	<path fill="#357180" d="M5.697,6.951l7.15-1.142l0.072,0.452L5.77,7.403L5.697,6.951z"/>
	<path fill="#357180" d="M5.888,8.153l7.15-1.144l0.073,0.453L5.96,8.605L5.888,8.153z"/>
	<path fill="#357180" d="M6.075,9.318l3.942-0.63l0.072,0.452l-3.942,0.63L6.075,9.318z"/>
</g>
</svg>
