<?xml version="1.0" encoding="utf-8"?>
<!-- Generator: Adobe Illustrator 16.0.0, SVG Export Plug-In . SVG Version: 6.00 Build 0)  -->
<!DOCTYPE svg PUBLIC "-//W3C//DTD SVG 1.1//EN" "http://www.w3.org/Graphics/SVG/1.1/DTD/svg11.dtd">
<svg version="1.1" id="Layer_1" xmlns="http://www.w3.org/2000/svg" xmlns:xlink="http://www.w3.org/1999/xlink" x="0px" y="0px"
	 width="20px" height="20px" viewBox="0 0 20 20" enable-background="new 0 0 20 20" xml:space="preserve">
<g>
	<path fill="#B6E2EB" d="M19.69,10c0,5.351-4.338,9.69-9.69,9.69S0.31,15.353,0.31,10c0-5.352,4.338-9.69,9.69-9.69
		S19.69,4.647,19.69,10z"/>
	<path fill="#BFBEBE" d="M11.082,7.564h1.089c0.106,0,0.193-0.087,0.193-0.193V4.942c0-0.107-0.087-0.193-0.193-0.193h-1.089
		c-0.106,0-0.194,0.087-0.194,0.193v2.429C10.888,7.478,10.976,7.564,11.082,7.564z M13.007,4.33H7.374c0,0-0.516,3.744,0.182,3.744
		h5.299C13.552,8.074,13.007,4.33,13.007,4.33L13.007,4.33z"/>
	<path fill="#357180" d="M11.082,7.564h1.089c0.106,0,0.193-0.087,0.193-0.193V4.942c0-0.107-0.087-0.193-0.193-0.193h-1.089
		c-0.106,0-0.194,0.087-0.194,0.193v2.429C10.888,7.478,10.976,7.564,11.082,7.564z M13.898,4.33h-0.891v3.252
		c0,0.268-0.218,0.485-0.486,0.485H7.859c-0.268,0-0.484-0.218-0.484-0.485V4.33H6.043c-0.697,0-1.262,0.565-1.262,1.262v7.905
		c0,0.697,0.564,1.262,1.262,1.262h8.072c0.697,0,1.262-0.564,1.262-1.262V5.808L13.898,4.33L13.898,4.33z"/>
	<path fill="#2F6E77" d="M13.704,10.966L13.704,10.966c0,0-0.028,0-6.491,0c-0.226,0.015-0.317,0.104-0.389,0.213
		c-0.066,0.111-0.086,0.248-0.089,0.299c-0.001,0.012,0,0.016,0,0.016v3.096c0,0.094-0.076,0.17-0.169,0.17
		c-0.094,0-0.171-0.076-0.171-0.17v-3.096c0.001-0.014-0.001-0.201,0.097-0.41c0.091-0.209,0.323-0.445,0.708-0.456h0.007
		c6.471-0.001,6.498-0.001,6.498-0.001v0.001c0.094,0,0.169,0.075,0.169,0.169C13.874,10.891,13.798,10.966,13.704,10.966
		L13.704,10.966z"/>
</g>
</svg>
