<?xml version="1.0" encoding="utf-8"?>
<!-- Generated by IcoMoon.io -->
<!DOCTYPE svg PUBLIC "-//W3C//DTD SVG 1.1//EN" "http://www.w3.org/Graphics/SVG/1.1/DTD/svg11.dtd">
<svg version="1.1" xmlns="http://www.w3.org/2000/svg" xmlns:xlink="http://www.w3.org/1999/xlink" width="20" height="20" viewBox="0 0 20 20">
<path fill="rgb(249, 70, 70)" d="M10 0.309c-5.352 0-9.691 4.338-9.691 9.691s4.339 9.691 9.691 9.691c5.352 0 9.691-4.339 9.691-9.691s-4.339-9.691-9.691-9.691z"></path>
<path fill="rgb(103, 184, 203)" d="M11.474 3.064l-1.504 3.394 2.994-2.325z"></path>
<path fill="rgb(163, 219, 228)" d="M12.024 4.323l-2.053 2.135 2.994-2.325z"></path>
<path fill="rgb(163, 219, 228)" d="M8.472 3.090l-1.501 1.061 2.999 2.307z"></path>
<path fill="rgb(140, 209, 220)" d="M7.954 4.34l-0.982-0.189 2.999 2.307z"></path>
<path fill="rgb(175, 218, 226)" d="M11.834 3.219l-3.739 0.008-1.112 0.929 3.011 0.583 2.969-0.605z"></path>
<path fill="rgb(134, 198, 212)" d="M8.095 3.225v0.369h0.369z"></path>
<path fill="rgb(134, 198, 212)" d="M8.095 3.112v0.114l0.369 0.369h0.114z"></path>
<path fill="rgb(135, 199, 213)" d="M8.095 2.998v0.114l0.483 0.483h0.114z"></path>
<path fill="rgb(136, 200, 214)" d="M8.095 2.885v0.113l0.596 0.596h0.113z"></path>
<path fill="rgb(137, 200, 215)" d="M8.106 2.782l-0.011 0.011v0.092l0.71 0.709h0.114z"></path>
<path fill="rgb(138, 201, 216)" d="M8.206 2.769h-0.088l-0.013 0.013 0.812 0.812h0.114z"></path>
<path fill="rgb(139, 202, 217)" d="M8.32 2.769h-0.114l0.826 0.825h0.114z"></path>
<path fill="rgb(140, 203, 218)" d="M8.433 2.769h-0.113l0.825 0.825h0.114z"></path>
<path fill="rgb(141, 203, 219)" d="M8.547 2.769h-0.114l0.825 0.825h0.113z"></path>
<path fill="rgb(142, 204, 220)" d="M8.66 2.769h-0.113l0.825 0.825h0.114z"></path>
<path fill="rgb(143, 205, 221)" d="M8.774 2.769h-0.114l0.826 0.825h0.114z"></path>
<path fill="rgb(144, 206, 222)" d="M8.887 2.769h-0.114l0.825 0.825h0.113z"></path>
<path fill="rgb(145, 206, 223)" d="M9.001 2.769h-0.113l0.825 0.825h0.114z"></path>
<path fill="rgb(146, 207, 224)" d="M9.114 2.769h-0.114l0.826 0.825h0.114z"></path>
<path fill="rgb(147, 208, 225)" d="M9.228 2.769h-0.114l0.826 0.825h0.113z"></path>
<path fill="rgb(148, 209, 226)" d="M9.341 2.769h-0.114l0.825 0.825h0.114z"></path>
<path fill="rgb(149, 209, 227)" d="M9.455 2.769h-0.114l0.825 0.825h0.114z"></path>
<path fill="rgb(151, 210, 228)" d="M9.568 2.769h-0.113l0.825 0.825h0.113z"></path>
<path fill="rgb(152, 211, 228)" d="M9.682 2.769h-0.114l0.825 0.825h0.114z"></path>
<path fill="rgb(153, 212, 229)" d="M9.796 2.769h-0.114l0.826 0.825h0.113z"></path>
<path fill="rgb(154, 212, 230)" d="M9.909 2.769h-0.114l0.825 0.825h0.113z"></path>
<path fill="rgb(155, 213, 231)" d="M10.023 2.769h-0.114l0.825 0.825h0.114z"></path>
<path fill="rgb(156, 214, 232)" d="M10.136 2.769h-0.113l0.825 0.825h0.113z"></path>
<path fill="rgb(157, 215, 233)" d="M10.25 2.769h-0.114l0.825 0.825h0.114z"></path>
<path fill="rgb(158, 215, 234)" d="M10.363 2.769h-0.114l0.825 0.825h0.114z"></path>
<path fill="rgb(159, 216, 235)" d="M10.477 2.769h-0.113l0.826 0.825h0.113z"></path>
<path fill="rgb(160, 217, 236)" d="M10.59 2.769h-0.114l0.825 0.825h0.114z"></path>
<path fill="rgb(161, 218, 237)" d="M10.704 2.769h-0.114l0.825 0.825h0.113z"></path>
<path fill="rgb(162, 218, 238)" d="M10.817 2.769h-0.113l0.825 0.825h0.114z"></path>
<path fill="rgb(163, 219, 239)" d="M10.931 2.769h-0.114l0.826 0.825h0.113z"></path>
<path fill="rgb(164, 220, 240)" d="M11.044 2.769h-0.114l0.825 0.825h0.078v-0.036z"></path>
<path fill="rgb(165, 221, 241)" d="M11.158 2.769h-0.114l0.79 0.79v-0.114z"></path>
<path fill="rgb(166, 221, 242)" d="M11.271 2.769h-0.114l0.676 0.676v-0.114z"></path>
<path fill="rgb(167, 222, 243)" d="M11.385 2.769h-0.114l0.563 0.563v-0.113z"></path>
<path fill="rgb(167, 222, 243)" d="M11.385 2.769l0.449 0.449v-0.449z"></path>
<path fill="rgb(159, 207, 219)" d="M12.39 4.249l-0.002 0 0.006 0.006z"></path>
<path fill="rgb(159, 207, 219)" d="M7.659 4.286l-0.009 0.015 0.014-0.014z"></path>
<path fill="rgb(170, 221, 226)" d="M8.937 4.531l1.035 1.928v-1.72z"></path>
<path fill="rgb(144, 211, 211)" d="M9.972 4.738v1.72l1.026-1.922z"></path>
<path fill="rgb(134, 198, 212)" d="M6.983 4.155l0.97 0.185 0.141-1.114z"></path>
<path fill="rgb(103, 184, 203)" d="M8.095 3.226l-0.141 1.114 1.071-0.936z"></path>
<path fill="rgb(170, 221, 226)" d="M7.954 4.34l0.981 0.191 0.090-1.127z"></path>
<path fill="rgb(163, 219, 228)" d="M9.024 3.403l-0.090 1.127 1.060-0.936z"></path>
<path fill="rgb(103, 184, 203)" d="M11.834 3.219l0.19 1.104 0.94-0.191z"></path>
<path fill="rgb(134, 198, 212)" d="M11.834 3.219l-0.904 0.179 1.093 0.925z"></path>
<path fill="rgb(144, 211, 211)" d="M10.93 3.398l0.067 1.138 1.026-0.213z"></path>
<path fill="rgb(163, 219, 228)" d="M10.93 3.398l-0.936 0.196 1.003 0.942z"></path>
<path fill="rgb(103, 184, 203)" d="M9.994 3.594l-0.022 1.143 1.026-0.201z"></path>
<path fill="rgb(144, 211, 211)" d="M8.935 4.531l1.037 0.207 0.022-1.143z"></path>
<path fill="rgb(247, 181, 17)" d="M10.006 5.846c-2.962 0-5.363 2.401-5.363 5.363s2.401 5.363 5.363 5.363c2.962 0 5.362-2.401 5.362-5.363s-2.401-5.363-5.362-5.363zM10.006 15.29c-2.254 0-4.081-1.827-4.081-4.080s1.827-4.080 4.081-4.080c2.253 0 4.080 1.827 4.080 4.080s-1.827 4.080-4.080 4.080z"></path>
<path fill="rgb(226, 172, 20)" d="M10.006 6.437c-2.636 0-4.773 2.137-4.773 4.773s2.137 4.773 4.773 4.773c2.635 0 4.772-2.137 4.772-4.773s-2.137-4.773-4.772-4.773zM10.006 15.29c-2.254 0-4.081-1.827-4.081-4.080s1.827-4.080 4.081-4.080c2.253 0 4.080 1.827 4.080 4.080s-1.827 4.080-4.080 4.080z"></path>
<path fill="rgb(247, 181, 17)" d="M11.142 5.921c0-0.17 0.098-0.426 0.098-0.426s-0.441 0.296-1.261 0.296c-0.82 0-1.222-0.268-1.222-0.268s0.117 0.229 0.117 0.398c0 0.17-0.184 0.522-0.184 0.522s0.594-0.202 1.312-0.202c0.718 0 1.304 0.202 1.304 0.202s-0.165-0.353-0.165-0.522z"></path>
</svg>
