<?xml version="1.0" encoding="utf-8"?>
<!-- Generated by IcoMoon.io -->
<!DOCTYPE svg PUBLIC "-//W3C//DTD SVG 1.1//EN" "http://www.w3.org/Graphics/SVG/1.1/DTD/svg11.dtd">
<svg version="1.1" xmlns="http://www.w3.org/2000/svg" xmlns:xlink="http://www.w3.org/1999/xlink" width="20" height="20" viewBox="0 0 20 20">
<path fill="rgb(249, 70, 70)" d="M10 0.309c-5.352 0-9.69 4.338-9.69 9.691s4.339 9.691 9.69 9.691c5.352 0 9.691-4.339 9.691-9.691s-4.339-9.691-9.691-9.691z"></path>
<path fill="rgb(183, 202, 196)" d="M10.091 4.087l-6.251 3.166v0.693l6.335 3.385 6.251-3.385v-0.693z"></path>
<path fill="rgb(225, 225, 225)" d="M10.091 4.444l-6.251 3.167v0.693l6.335 3.385 6.251-3.385v-0.693z"></path>
<path fill="rgb(183, 202, 196)" d="M3.836 8.253l4.323 3.263 2.066 0.2 5.47-1.368 0.721-2.094z"></path>
<path fill="rgb(255, 238, 173)" d="M11.842 3.754h-4.963c-0.227 0-0.411 0.184-0.411 0.411v8.236c0 0.227 0.184 0.411 0.411 0.411h6.162c0.228 0 0.411-0.184 0.411-0.411v-7.071l-1.61-1.576z"></path>
<path fill="rgb(234, 210, 136)" d="M11.842 3.754l-0.008 0.907c0 0.37 0.299 0.669 0.669 0.669h0.949l-1.61-1.577z"></path>
<path fill="rgb(219, 42, 42)" d="M10.964 6.231c-0.381 0-0.735 0.186-0.948 0.497l-0.044 0.056-0.029-0.037c-0.211-0.323-0.565-0.516-0.95-0.516-0.657 0-1.134 0.477-1.134 1.134 0 0.97 1.756 2.399 1.884 2.502 0.061 0.058 0.14 0.090 0.224 0.090s0.163-0.032 0.224-0.090c0.128-0.103 1.908-1.556 1.908-2.502-0-0.657-0.477-1.134-1.134-1.134z"></path>
<path fill="rgb(214, 30, 30)" d="M9.943 6.746c-0.211-0.323-0.565-0.516-0.95-0.516-0.657 0-1.134 0.477-1.134 1.134 0 0.97 1.756 2.399 1.884 2.502 0.061 0.058 0.14 0.090 0.224 0.090l0.006-3.172-0.029-0.037z"></path>
<path fill="rgb(237, 237, 237)" d="M16.416 8.239l-6.241 3.428-6.334-3.416-0.001 5.979c0 0.311 0.253 0.564 0.564 0.564h11.459c0.311 0 0.564-0.252 0.564-0.564l-0.011-5.99z"></path>
<path fill="rgb(229, 229, 229)" d="M16.405 8.282l-6.229 3.407 5.675 3.104c0.312 0 0.565-0.253 0.565-0.565l-0.011-5.946z"></path>
<path fill="rgb(229, 229, 229)" d="M3.836 8.253l-0.001 5.952c0 0.312 0.254 0.565 0.565 0.565l5.824-3.081-6.388-3.436z"></path>
</svg>
