<?xml version="1.0" encoding="utf-8"?>
<!-- Generated by IcoMoon.io -->
<!DOCTYPE svg PUBLIC "-//W3C//DTD SVG 1.1//EN" "http://www.w3.org/Graphics/SVG/1.1/DTD/svg11.dtd">
<svg version="1.1" xmlns="http://www.w3.org/2000/svg" xmlns:xlink="http://www.w3.org/1999/xlink" width="20" height="20" viewBox="0 0 20 20">
<path fill="rgb(255, 237, 172)" d="M10 0.31c-5.352 0-9.691 4.338-9.691 9.691 0 5.351 4.339 9.69 9.691 9.69s9.69-4.339 9.69-9.69c0-5.353-4.339-9.691-9.69-9.691z"></path>
<path fill="rgb(178, 18, 18)" d="M5.853 9.613l-1.608-1.096-1.733 0.007 0.899 1.238-0.89 1.235 1.733-0.006 1.599-1.106c0.075-0.075 0.074-0.197-0.001-0.271z"></path>
<path fill="rgb(193, 22, 22)" d="M6.782 9.653l-1.271-0.865-1.37 0.005 0.711 0.978-0.703 0.977 1.37-0.005 1.265-0.874c0.059-0.059 0.059-0.155-0.001-0.214z"></path>
<path fill="rgb(94, 56, 56)" d="M2.415 9.706l8.271-6.854-0.098-0.118-8.408 6.968 8.431 7.506 0.102-0.114z"></path>
<path fill="rgb(239, 209, 82)" d="M18.095 9.298c-0.516-0.531-1.033-1.062-1.548-1.593-0.271-0.279-0.601-0.298-0.872-0.174-0.288 0.093-0.52 0.335-0.525 0.728-0.004 0.251-0.007 0.501-0.011 0.752l-13.212 0.237c-0.070 0.052-0.131 0.111-0.174 0.181-0.146 0.238-0.070 0.504 0.163 0.683l12.647 0.532c0.184 0.003 0.368 0.005 0.552 0.008-0.003 0.25-0.007 0.499-0.011 0.749-0.010 0.717 0.872 1.1 1.388 0.6 0.531-0.516 1.062-1.032 1.593-1.549 0.32-0.311 0.318-0.836 0.010-1.154z"></path>
<path fill="rgb(226, 172, 20)" d="M18.095 9.298c-0.516-0.531-1.033-1.062-1.548-1.593-0.271-0.279-0.601-0.298-0.872-0.174-0.288 0.093-0.52 0.335-0.525 0.728-0.004 0.251-0.007 0.501-0.011 0.752l-13.212 0.237c-0.070 0.052-0.131 0.111-0.174 0.181-0.047 0.076-0.071 0.155-0.074 0.233l-0.003 0.037 16.65 0.143c-0.007-0.198-0.085-0.395-0.23-0.545z"></path>
<path fill="rgb(178, 18, 18)" d="M13.955 7.543c-0.080-0.2-0.171-0.396-0.285-0.59-0.029-0.049-0.059-0.097-0.091-0.146l-0.052-0.075-0.051-0.067c-0.064-0.083-0.13-0.166-0.199-0.247-0.139-0.162-0.292-0.32-0.464-0.465-0.17-0.145-0.361-0.275-0.551-0.381-0.387-0.213-0.722-0.346-1.018-0.534-0.149-0.093-0.293-0.194-0.433-0.305-0.070-0.056-0.139-0.114-0.206-0.173l-0.102-0.092c-0.032-0.030-0.062-0.058-0.092-0.087-0.118-0.117-0.219-0.241-0.291-0.363-0.081-0.123-0.082-0.25-0.122-0.352-0.037-0.106-0.045-0.227-0.009-0.361 0.018-0.067 0.044-0.136 0.081-0.204 0.033-0.065 0.089-0.14 0.122-0.185l-0.033 0.020c0.090-0.072 0.183-0.138 0.276-0.189 0.092-0.051 0.186-0.083 0.251-0.079 0.032 0.002 0.064 0.012 0.096 0.043 0.031 0.030 0.057 0.079 0.075 0.133 0.036 0.109 0.048 0.237 0.046 0.364 0.055-0.116 0.095-0.241 0.104-0.381 0.004-0.070-0-0.146-0.030-0.224-0.028-0.079-0.092-0.16-0.177-0.205-0.172-0.091-0.341-0.075-0.486-0.058-0.147 0.022-0.282 0.060-0.414 0.104l-0.033 0.020c-0.068 0.040-0.109 0.068-0.159 0.106-0.048 0.036-0.094 0.074-0.138 0.115-0.089 0.082-0.171 0.175-0.242 0.282-0.143 0.211-0.238 0.485-0.245 0.768-0.011 0.288 0.129 0.535 0.245 0.747 0.126 0.213 0.276 0.391 0.434 0.549 0.039 0.040 0.080 0.078 0.12 0.114l0.115 0.104c0.078 0.069 0.159 0.136 0.241 0.202 0.165 0.132 0.34 0.256 0.522 0.368 0.364 0.229 0.756 0.388 1.050 0.553 0.296 0.164 0.537 0.375 0.769 0.645 0.057 0.067 0.113 0.136 0.168 0.208l0.037 0.048 0.032 0.045c0.021 0.032 0.043 0.066 0.063 0.102 0.084 0.142 0.158 0.3 0.223 0.462 0.258 0.653 0.363 1.39 0.366 2.121-0.003 0.731-0.108 1.467-0.366 2.121-0.065 0.162-0.139 0.319-0.223 0.462-0.021 0.035-0.042 0.070-0.063 0.102l-0.032 0.045-0.036 0.047-0.084 0.107-0.085 0.102c-0.231 0.27-0.472 0.481-0.769 0.645-0.294 0.165-0.686 0.324-1.050 0.553-0.367 0.227-0.691 0.491-0.996 0.786-0.163 0.163-0.31 0.337-0.437 0.551-0.115 0.213-0.256 0.46-0.238 0.748 0.007 0.282 0.103 0.554 0.247 0.764 0.071 0.106 0.152 0.199 0.24 0.281 0.091 0.084 0.173 0.148 0.295 0.221l0.032 0.019c0.131 0.044 0.266 0.083 0.412 0.105 0.144 0.018 0.312 0.033 0.482-0.056 0.084-0.045 0.147-0.125 0.175-0.203 0.030-0.078 0.034-0.153 0.031-0.223-0.009-0.14-0.048-0.264-0.102-0.381 0.003 0.127-0.008 0.254-0.043 0.364-0.018 0.054-0.043 0.103-0.075 0.135s-0.064 0.043-0.097 0.045c-0.066 0.005-0.161-0.027-0.254-0.077s-0.187-0.117-0.278-0.188l0.032 0.020c-0.033-0.046-0.090-0.12-0.124-0.186-0.037-0.068-0.065-0.137-0.083-0.205-0.036-0.136-0.027-0.259 0.011-0.366 0.046-0.102 0.046-0.229 0.128-0.351 0.071-0.122 0.176-0.249 0.288-0.361 0.255-0.247 0.539-0.478 0.835-0.66 0.296-0.189 0.631-0.321 1.018-0.534 0.19-0.106 0.381-0.236 0.551-0.382 0.171-0.145 0.324-0.303 0.464-0.465l0.102-0.123 0.096-0.123 0.053-0.069 0.052-0.075c0.033-0.049 0.063-0.097 0.091-0.146 0.114-0.193 0.206-0.39 0.285-0.59 0.314-0.8 0.426-1.635 0.43-2.459-0.004-0.824-0.117-1.659-0.431-2.459z"></path>
<path fill="rgb(178, 18, 18)" d="M10.612 2.372c-0.253 0-0.459 0.206-0.459 0.459s0.206 0.459 0.459 0.459 0.459-0.206 0.459-0.459c0-0.253-0.206-0.459-0.459-0.459z"></path>
<path fill="rgb(226, 172, 20)" d="M10.612 2.601c-0.127 0-0.23 0.103-0.23 0.229s0.103 0.229 0.23 0.229 0.229-0.103 0.229-0.229-0.103-0.229-0.229-0.229z"></path>
<path fill="rgb(178, 18, 18)" d="M10.688 16.691c-0.253 0-0.459 0.206-0.459 0.459s0.206 0.459 0.459 0.459c0.254 0 0.459-0.206 0.459-0.459s-0.206-0.459-0.459-0.459z"></path>
<path fill="rgb(226, 172, 20)" d="M10.688 16.908c-0.126 0-0.229 0.103-0.229 0.23s0.103 0.229 0.229 0.229c0.127 0 0.23-0.103 0.23-0.229s-0.103-0.23-0.23-0.23z"></path>
</svg>
