<?xml version="1.0" encoding="utf-8"?>
<!-- Generated by IcoMoon.io -->
<!DOCTYPE svg PUBLIC "-//W3C//DTD SVG 1.1//EN" "http://www.w3.org/Graphics/SVG/1.1/DTD/svg11.dtd">
<svg version="1.1" xmlns="http://www.w3.org/2000/svg" xmlns:xlink="http://www.w3.org/1999/xlink" width="20" height="20" viewBox="0 0 20 20">
<path fill="rgb(255, 238, 173)" d="M10 0.309c-5.352 0-9.691 4.338-9.691 9.691s4.339 9.691 9.691 9.691c5.352 0 9.691-4.339 9.691-9.691s-4.339-9.691-9.691-9.691z"></path>
<path fill="rgb(81, 128, 142)" d="M13.74 7.519c-1.312-1.312-3.44-1.312-4.753 0s-1.312 3.441 0 4.753c1.312 1.313 3.44 1.313 4.753 0s1.313-3.44 0-4.753zM12.837 11.369c-0.813 0.813-2.132 0.813-2.946 0s-0.813-2.133 0-2.946c0.814-0.814 2.133-0.814 2.946 0s0.814 2.132 0 2.946z"></path>
<path fill="rgb(81, 128, 142)" d="M16.611 8.27c-0.008-0.403-0.040-1.698-0.049-2.101-0.008-0.392 0.046-0.819-0.098-1.188-0.005-0.021-0.013-0.042-0.024-0.064-0.029-0.058-0.101-0.111-0.171-0.127-0.34-0.129-0.716-0.086-1.080-0.093-0.451-0.009-1.79-0.020-2.241-0.029-0.522-0.011-0.54 0.66-0.16 0.883 0.191 0.111 1.383 0.101 1.595 0.122 0.135 0.014 0.272 0.027 0.408 0.040-0.295 0.295-1.032 1.032-1.327 1.327-0.31 0.31-1.124 0.868-0.629 1.362 0.496 0.496 1.057-0.324 1.368-0.634 0.297-0.297 1.036-1.036 1.333-1.333 0.028 0.311 0.082 1.514 0.127 1.822 0.072 0.489 0.678 0.672 0.901 0.241 0.023-0.030 0.038-0.069 0.044-0.114 0.010-0.041 0.010-0.080 0.002-0.114z"></path>
<path fill="rgb(65, 116, 127)" d="M16.269 4.79c-0.34-0.129-0.716-0.086-1.080-0.093-0.451-0.009-1.79-0.020-2.241-0.029-0.522-0.011-0.54 0.66-0.16 0.883 0.191 0.111 1.383 0.101 1.595 0.122 0.135 0.014 0.272 0.027 0.408 0.040-0.295 0.295-1.032 1.032-1.327 1.327-0.039 0.040-0.087 0.083-0.139 0.13-1.313-0.948-3.155-0.834-4.338 0.348-1.311 1.312-1.312 3.436-0.003 4.749l0.903-0.903c-0.81-0.814-0.809-2.13 0.003-2.942s2.129-0.813 2.942-0.004l3.561-3.561c-0.035-0.032-0.080-0.058-0.125-0.068z"></path>
<path fill="rgb(239, 161, 146)" d="M6.461 13.787c-0.116-0.116-0.562-0.573-0.554-0.564 0.002-0.002 0.854-0.844 0.854-0.844s0.48-0.424 0.662-0.832c0.015-0.033-0.56-0.564-0.56-0.564-0.411 0.182-0.841 0.668-0.841 0.668-0.282 0.282-0.849 0.838-0.849 0.838-0.212-0.212-0.411-0.411-0.533-0.533-0.31-0.31-0.644-0.9-1.139-0.406-0.496 0.496 0.1 0.834 0.411 1.144 0.116 0.116 0.523 0.533 0.523 0.533-0.217 0.217-0.062 0.062-0.187 0.187-0.31 0.31-1.12 0.864-0.626 1.358 0.496 0.496 1.054-0.319 1.364-0.63 0.124-0.124-0.033 0.033 0.181-0.181 0.223 0.224 0.436 0.436 0.565 0.565 0.31 0.31 0.644 0.9 1.139 0.406s-0.1-0.834-0.411-1.145z"></path>
<path fill="rgb(239, 161, 146)" d="M11.055 7.332c-1.312-1.313-3.44-1.313-4.753 0s-1.312 3.44 0 4.753c1.313 1.313 3.44 1.313 4.753 0s1.313-3.44 0-4.753zM10.152 11.181c-0.813 0.813-2.132 0.813-2.946 0s-0.814-2.133 0-2.946c0.814-0.813 2.132-0.813 2.946 0s0.813 2.133 0 2.946z"></path>
<path fill="rgb(81, 128, 142)" d="M11.364 11.978c-0.522 0-1.045-0.195-1.448-0.586-0.002-0.002-0.007-0.007-0.009-0.009 0.019 0.019-0.354 0.222-0.619 0.31-0.321 0.106-0.702 0.094-0.702 0.094 0.116 0.171 0.251 0.333 0.402 0.485 0.353 0.353 0.765 0.611 1.205 0.774 0.080 0.030 1.255-1.067 1.172-1.067z"></path>
<path fill="rgb(65, 116, 127)" d="M9.854 11.33c-0.050-0.052-0.094-0.108-0.137-0.164-0.412 0.164-0.844 0.287-1.289 0.365 0.042 0.076 0.087 0.151 0.135 0.224 0.121 0.182 0.261 0.354 0.421 0.514l0.903-0.903c-0.012-0.012-0.023-0.023-0.034-0.035z"></path>
<path fill="rgb(221, 144, 129)" d="M6.302 7.332c-1.191 1.191-1.297 3.051-0.327 4.366-0.293 0.293-0.801 0.791-0.801 0.791-0.212-0.212-0.411-0.411-0.533-0.533-0.31-0.31-0.644-0.9-1.139-0.406-0.496 0.496 0.1 0.834 0.411 1.144 0.116 0.116 0.523 0.533 0.523 0.533-0.217 0.217-0.062 0.062-0.187 0.187-0.307 0.307-1.101 0.852-0.639 1.342l3.587-3.587c-0.804-0.814-0.801-2.125 0.009-2.935s2.121-0.813 2.935-0.010l0.903-0.903c-1.313-1.302-3.433-1.3-4.742 0.010z"></path>
</svg>
