<?xml version="1.0" encoding="utf-8"?>
<!-- Generator: Adobe Illustrator 16.0.0, SVG Export Plug-In . SVG Version: 6.00 Build 0)  -->
<!DOCTYPE svg PUBLIC "-//W3C//DTD SVG 1.1//EN" "http://www.w3.org/Graphics/SVG/1.1/DTD/svg11.dtd">
<svg version="1.1" id="Layer_1" xmlns="http://www.w3.org/2000/svg" xmlns:xlink="http://www.w3.org/1999/xlink" x="0px" y="0px"
	 width="20px" height="20px" viewBox="0 0 20 20" enable-background="new 0 0 20 20" xml:space="preserve">
<g>
	<path fill="#9F77AA" d="M0.31,10c0-5.353,4.338-9.69,9.69-9.69s9.69,4.338,9.69,9.69s-4.338,9.69-9.69,9.69S0.31,15.353,0.31,10z"
		/>
	<path fill="#414141" d="M14.007,8.643h-2.212c-0.243,0-0.339,0.518-0.339,0.722l0.121,3.394l0.008,2.668
		c0,0.034,0.163,0.05,0.165,0.079c0.006,0.157,0.039,0.216,0.185,0.216h0.324c0.142,0,0.211-0.054,0.23-0.207
		c0.004-0.032,0.091-0.072,0.091-0.109c0,0-0.022-2.646-0.022-2.667c0.043-1.377,0.103-2.786,0.176-2.81
		c0.146-0.044,0.226-0.044,0.335,0c0.056,0.021,0.117,1.444,0.163,2.826c0.001,0.022-0.01,2.65-0.01,2.65
		c0,0.034,0.086,0.071,0.091,0.103c0.018,0.156,0.088,0.214,0.23,0.214h0.325c0.151,0,0.181-0.067,0.186-0.236
		c0.001-0.024,0.164-0.032,0.164-0.059l0.008-2.679l0.121-3.383C14.347,9.16,14.251,8.643,14.007,8.643z"/>
	<path fill="#30302F" d="M14.651,9.029l-1.752,0.089l-1.75-0.088c-0.007,0.031-0.01,0.061-0.01,0.085l0.005,0.132l1.748,0.065
		l1.764-0.066l0.005-0.131C14.661,9.09,14.658,9.061,14.651,9.029L14.651,9.029z"/>
	<path fill="#353535" d="M10.928,5.094l0.074,4.179c0,0.146,0.401,0.158,1.387,0.158V4.28C11.396,4.302,10.928,4.306,10.928,5.094
		L10.928,5.094z"/>
	<path fill="#353535" d="M13.441,4.28v5.143c0.985,0,1.343-0.034,1.343-0.151l0.073-4.179C14.857,4.392,14.413,4.306,13.441,4.28
		L13.441,4.28z"/>
	<path fill="#D0E8D0" d="M12.915,4.593c-0.22,0-0.526-0.313-0.526-0.313v4.865l1.053-0.008V4.279
		C13.416,4.255,13.136,4.592,12.915,4.593L12.915,4.593z"/>
	<path fill="#7FCDCC" d="M12.915,4.593c-0.22,0-0.526-0.313-0.526-0.313v0.203c0,0,0.306,0.313,0.526,0.313
		c0.222,0,0.526-0.312,0.526-0.312V4.28C13.416,4.256,13.136,4.593,12.915,4.593z"/>
	<path fill="#59A29F" d="M13.058,4.835c0,0,0.104-0.296,0.052-0.323c-0.099-0.035-0.303-0.031-0.38,0
		c-0.076,0.031,0.059,0.323,0.059,0.323H13.058z"/>
	<path fill="#7FCDCC" d="M12.929,4.485c-0.072,0-0.16,0.01-0.199,0.026c-0.076,0.031,0.059,0.323,0.059,0.323h0.14L12.929,4.485
		L12.929,4.485z"/>
	<path fill="#63AAA5" d="M12.789,4.827l-0.261,2.682l0.395,0.328l0.364-0.328l-0.229-2.682H12.789z"/>
	<path fill="#97D6D5" d="M12.789,4.827l-0.261,2.682l0.395,0.328l0.003-3.01H12.789z"/>
	<path fill="#30302F" d="M14.177,15.612c0,0.112-0.213,0.114-0.475,0.114c-0.261,0-0.475-0.002-0.475-0.114
		c0-0.113,0.212-0.312,0.475-0.312C13.966,15.3,14.177,15.499,14.177,15.612z"/>
	<path fill="#30302F" d="M12.588,15.612c0,0.112-0.212,0.114-0.474,0.114s-0.475-0.002-0.475-0.114c0-0.113,0.213-0.312,0.475-0.312
		S12.588,15.499,12.588,15.612z"/>
	<path fill="#1A1919" d="M11.644,5.4l-0.426,4.335c-0.038,0.153-0.877,0.027-0.877-0.154l0.812-4.969L11.644,5.4z"/>
	<path fill="#353535" d="M10.914,4.946L10.35,9.51c0,0,0.331-0.011,0.781,0.142L11.644,5.4l0.233-0.195l0.161-0.916
		C11.149,4.19,10.996,4.542,10.914,4.946z"/>
	<path fill="#1A1919" d="M14.167,5.4l0.427,4.335c0.038,0.153,0.877,0.027,0.877-0.154l-0.812-4.969L14.167,5.4z"/>
	<path fill="#353535" d="M14.898,4.946l0.563,4.563c0,0-0.332-0.011-0.78,0.142L14.169,5.4l-0.234-0.195l-0.16-0.916
		C14.665,4.19,14.816,4.542,14.898,4.946L14.898,4.946z"/>
	<path fill="#ECE6D5" d="M8.873,8.408c0-0.034-0.001-0.067-0.003-0.102l0.581-2.664c0-0.474-0.295-0.856-0.754-0.856
		c0,0-0.729,0.321-1.005,0.321c-0.275,0-1.004-0.321-1.004-0.321c-0.459,0-0.753,0.384-0.753,0.856l0.58,2.664
		C6.514,8.341,6.513,8.374,6.513,8.408c0,0-2.946,7.204-1.651,7.204h5.667c1.294,0-1.653-7.204-1.653-7.204H8.873z"/>
	<path fill="#DBD3BB" d="M8.78,15.612c0,0.112-0.194,0.114-0.435,0.114c-0.239,0-0.436-0.003-0.436-0.114s0.195-0.309,0.436-0.309
		C8.587,15.304,8.78,15.501,8.78,15.612z"/>
	<path fill="#E4DED0" d="M7.725,8.438H6.498C6.3,8.926,3.61,15.612,4.857,15.612h2.238C8.344,15.612,7.923,8.926,7.725,8.438
		L7.725,8.438z"/>
	<path fill="#E4DED0" d="M7.691,5.107c-0.276,0-1.004-0.321-1.004-0.321c-0.459,0-0.753,0.384-0.753,0.856l0.552,2.535h1.253
		C7.739,8.178,7.97,5.107,7.691,5.107L7.691,5.107z"/>
	<path fill="#DBD3BB" d="M8.873,8.408c0-0.034-0.001-0.067-0.003-0.102l0.028-0.129H6.486l0.028,0.129
		C6.513,8.341,6.512,8.374,6.512,8.408c0,0-0.004,0.011-0.011,0.029h2.386C8.88,8.42,8.875,8.408,8.875,8.408H8.873z"/>
	<path fill="#DBD3BB" d="M7.325,15.612c0,0.112-0.195,0.114-0.435,0.114c-0.24,0-0.435-0.003-0.435-0.114s0.193-0.309,0.435-0.309
		C7.131,15.304,7.325,15.501,7.325,15.612z"/>
</g>
</svg>
