<?xml version="1.0" encoding="utf-8"?>
<!-- Generated by IcoMoon.io -->
<!DOCTYPE svg PUBLIC "-//W3C//DTD SVG 1.1//EN" "http://www.w3.org/Graphics/SVG/1.1/DTD/svg11.dtd">
<svg version="1.1" xmlns="http://www.w3.org/2000/svg" xmlns:xlink="http://www.w3.org/1999/xlink" width="20" height="20" viewBox="0 0 20 20">
<path fill="rgb(249, 70, 70)" d="M10 0.309c-5.352 0-9.691 4.338-9.691 9.691s4.339 9.691 9.691 9.691c5.352 0 9.691-4.339 9.691-9.691s-4.339-9.691-9.691-9.691z"></path>
<path fill="rgb(220, 223, 224)" d="M5.596 5.929c-0.426 1.762-1.862 7.877 0.424 8.429s3.8-5.544 4.226-7.306c0.196-0.81-4.479-1.835-4.65-1.123z"></path>
<path fill="rgb(227, 228, 229)" d="M5.481 14.049l0.22 0.485 0.574 0.139 0.374-0.342z"></path>
<path fill="rgb(223, 224, 224)" d="M5.647 6.011c-0.413 1.711 4.101 2.801 4.514 1.091 0.19-0.786-4.348-1.781-4.514-1.091z"></path>
<path fill="rgb(231, 233, 234)" d="M7.766 6.821c-1.799-0.435-2.119-0.81-2.119-0.81-0.413 1.711-1.827 7.729 0.392 8.266s3.709-5.464 4.122-7.175c0 0-0.597 0.154-2.396-0.281z"></path>
<path fill="rgb(220, 223, 224)" d="M14.32 5.24c-0.172-0.711-4.846 0.314-4.65 1.123 0.426 1.762 1.94 7.858 4.226 7.306s0.85-6.667 0.424-8.429z"></path>
<path fill="rgb(227, 228, 229)" d="M5.695 14.504c0 0-0.144 1.161-0.365 2.076-0.086 0.357-0.297 0.984-0.522 1.618 0.187 0.118 0.376 0.232 0.572 0.337 0.098-0.752 0.209-1.519 0.294-1.872 0.196-0.81 0.623-2.013 0.623-2.013l-0.602-0.146z"></path>
<path fill="rgb(227, 228, 229)" d="M14.585 15.891c-0.221-0.915-0.364-2.075-0.364-2.075l-0.602 0.146c0 0 0.427 1.203 0.623 2.013 0.111 0.46 0.266 1.621 0.379 2.538 0.239-0.131 0.471-0.272 0.698-0.422-0.293-0.801-0.62-1.733-0.733-2.2z"></path>
<path fill="rgb(227, 228, 229)" d="M13.266 13.643l0.374 0.342 0.574-0.139 0.22-0.485z"></path>
<path fill="rgb(223, 224, 224)" d="M14.268 5.322c-0.167-0.69-4.704 0.304-4.514 1.091 0.414 1.711 4.928 0.62 4.514-1.091z"></path>
<path fill="rgb(231, 233, 234)" d="M14.268 5.322c0 0-0.32 0.375-2.119 0.81s-2.396 0.281-2.396 0.281c0.414 1.711 1.903 7.711 4.122 7.175s0.805-6.555 0.392-8.266z"></path>
<path fill="rgb(240, 227, 200)" d="M11.717 7.655c0 0 0 0.001 0 0.001v-0c-0-0-0-0-0-0.001z"></path>
<path fill="rgb(219, 18, 18)" d="M7.412 8.44c-1.365-0.329-1.923-0.914-1.923-0.914-0.315 1.829-0.396 2.203-0.492 3.583-0.087 1.253 0.227 2.698 1.117 2.913 0.887 0.214 1.716-0.788 2.283-1.921 0.594-1.184 0.927-2.425 1.231-3.555 0-0-0.742 0.25-2.217-0.106z"></path>
<path fill="rgb(232, 37, 37)" d="M7.412 8.44c-0.341-0.082-0.632-0.181-0.876-0.282l-1.079 5.367c0.169 0.253 0.387 0.432 0.658 0.498 0.887 0.214 1.716-0.788 2.283-1.921 0.594-1.184 0.927-2.425 1.231-3.555 0-0-0.742 0.25-2.217-0.106z"></path>
<path fill="rgb(249, 70, 70)" d="M7.412 8.44l-1.298 5.583c0.887 0.214 1.716-0.788 2.283-1.921 0.594-1.184 0.927-2.425 1.231-3.555 0-0-0.742 0.25-2.217-0.106z"></path>
<path fill="rgb(237, 41, 41)" d="M7.412 8.44l-1.298 5.583c0.111 0.027 0.221 0.035 0.329 0.026l1.616-5.481c-0.197-0.030-0.413-0.071-0.647-0.127z"></path>
<path fill="rgb(219, 18, 18)" d="M7.575 7.765c-0.848-0.174-2.086-0.239-2.086-0.239s0.558 0.584 1.923 0.914c1.475 0.356 2.217 0.106 2.217 0.106s-1.205-0.607-2.053-0.781z"></path>
<path fill="rgb(224, 23, 23)" d="M6.526 8.154c-0.726-0.302-1.037-0.628-1.037-0.628-0.014 0.079-0.022 0.156-0.040 0.229-0 0.003-0.001 0.006-0.002 0.010-0.044 0.192 0.456 0.459 1.030 0.685l0.058-0.292-0.009-0.004z"></path>
<path fill="rgb(224, 23, 23)" d="M6.535 8.158l-0.058 0.292c0.29 0.114 0.596 0.218 0.864 0.295l0.071-0.306c-0.341-0.082-0.632-0.181-0.876-0.282z"></path>
<path fill="rgb(255, 90, 90)" d="M8.009 8.559c0.016 0.002 0.034 0.006 0.050 0.008l-0.093 0.316c0.73 0.115 1.55 0.106 1.616-0.167 0.014-0.058 0.031-0.114 0.046-0.17 0 0-0.543 0.181-1.619 0.013z"></path>
<path fill="rgb(242, 47, 47)" d="M8.009 8.559c-0.064-0.010-0.129-0.022-0.196-0.034-0.031-0.005-0.061-0.011-0.093-0.017-0.099-0.020-0.201-0.042-0.308-0.067l-0.071 0.306c0.012 0.004 0.025 0.008 0.038 0.011 0.175 0.050 0.378 0.093 0.588 0.126l0.093-0.316c-0.016-0.002-0.034-0.006-0.050-0.008z"></path>
<path fill="rgb(219, 18, 18)" d="M14.957 10.426c-0.097-1.403-0.18-1.783-0.5-3.643 0 0-0.568 0.594-1.955 0.929-1.499 0.362-2.253 0.108-2.253 0.108 0.309 1.149 0.648 2.411 1.251 3.614 0.577 1.152 1.419 2.171 2.321 1.953 0.905-0.219 1.224-1.687 1.135-2.961z"></path>
<path fill="rgb(232, 37, 37)" d="M13.393 7.426c-0.248 0.103-0.544 0.203-0.891 0.286-1.499 0.362-2.253 0.108-2.253 0.108 0.309 1.149 0.648 2.411 1.251 3.614 0.577 1.152 1.419 2.171 2.321 1.953 0.275-0.066 0.496-0.248 0.668-0.506l-1.096-5.455z"></path>
<path fill="rgb(249, 70, 70)" d="M12.502 7.713c-1.499 0.362-2.253 0.108-2.253 0.108 0.309 1.149 0.648 2.411 1.251 3.614 0.577 1.152 1.419 2.171 2.321 1.953l-1.319-5.674z"></path>
<path fill="rgb(237, 41, 41)" d="M12.502 7.713c-0.238 0.058-0.458 0.099-0.658 0.129l1.642 5.571c0.11 0.009 0.222 0.001 0.335-0.026l-1.319-5.674z"></path>
<path fill="rgb(219, 18, 18)" d="M12.336 7.027c-0.862 0.177-2.087 0.794-2.087 0.794s0.754 0.254 2.253-0.108c1.387-0.335 1.955-0.929 1.955-0.929s-1.259 0.067-2.121 0.243z"></path>
<path fill="rgb(224, 23, 23)" d="M14.499 7.027c-0.001-0.003-0.001-0.006-0.002-0.010-0.017-0.074-0.027-0.153-0.040-0.233 0 0-0.317 0.331-1.055 0.638l-0.010 0.004 0.060 0.297c0.583-0.23 1.091-0.502 1.046-0.696z"></path>
<path fill="rgb(239, 41, 41)" d="M13.393 7.426c-0.248 0.103-0.544 0.203-0.891 0.286l0.072 0.311c0.272-0.079 0.584-0.184 0.878-0.3l-0.060-0.297z"></path>
<path fill="rgb(255, 90, 90)" d="M11.844 7.842c0.016-0.002 0.034-0.006 0.051-0.008-1.094 0.171-1.646-0.013-1.646-0.013 0.016 0.057 0.033 0.115 0.047 0.173 0.067 0.277 0.9 0.286 1.643 0.169l-0.095-0.321z"></path>
<path fill="rgb(242, 47, 47)" d="M12.502 7.713c-0.109 0.026-0.212 0.048-0.313 0.068-0.032 0.006-0.063 0.012-0.094 0.018-0.068 0.013-0.135 0.024-0.2 0.035-0.016 0.002-0.035 0.006-0.051 0.008l0.095 0.321c0.213-0.033 0.42-0.077 0.597-0.128 0.013-0.003 0.026-0.008 0.039-0.011l-0.072-0.311z"></path>
</svg>
