<?xml version="1.0" encoding="utf-8"?>
<!-- Generator: Adobe Illustrator 16.0.0, SVG Export Plug-In . SVG Version: 6.00 Build 0)  -->
<!DOCTYPE svg PUBLIC "-//W3C//DTD SVG 1.1//EN" "http://www.w3.org/Graphics/SVG/1.1/DTD/svg11.dtd">
<svg version="1.1" id="Layer_1" xmlns="http://www.w3.org/2000/svg" xmlns:xlink="http://www.w3.org/1999/xlink" x="0px" y="0px"
	 width="20px" height="20px" viewBox="0 0 20 20" enable-background="new 0 0 20 20" xml:space="preserve">
<g>
	<path fill="#65A844" d="M0.31,10c0-5.353,4.338-9.69,9.69-9.69s9.69,4.338,9.69,9.69s-4.338,9.69-9.69,9.69S0.31,15.351,0.31,10z"
		/>
	<path fill="#2F8442" d="M6.46,8.284c0,0,2.225,6.689,3.072,9.935l0.251-0.098c0,0-2.682-8.361-3.069-9.807
		C6.373,7.039,6.46,8.285,6.46,8.284L6.46,8.284z"/>
	<path fill="#2F8442" d="M13.373,8.307c0,0-2.585,6.688-2.864,10.032l0.266,0.048c0,0,0.967-5.243,2.828-9.967
		C14.085,7.192,13.373,8.307,13.373,8.307z"/>
	<path fill="#2F8442" d="M11.267,8.034c0,0-0.201,6.679,0.035,9.665l0.222,0.035c0,0-0.229-8.471-0.039-9.635
		C11.675,6.937,11.266,8.034,11.267,8.034L11.267,8.034z"/>
	<path fill="#2F8442" d="M8.909,7.822c0,0-0.047,6.97,0.197,10.081l0.236-0.01c0,0-0.403-8.791-0.206-10.002
		C9.335,6.681,8.909,7.822,8.909,7.822L8.909,7.822z"/>
	<path fill="#2F8442" d="M7.868,5.951c0,0,0.772,5.022,1.36,7.222l0.284-0.051c0,0-1.454-6.257-1.473-7.151
		C8.021,5.075,7.867,5.951,7.868,5.951L7.868,5.951z"/>
	<path fill="#2F8442" d="M9.984,5.004c0,0-0.516,9.45,0.064,12.754l0.266-0.072c0,0-0.167-11.314-0.079-12.632
		C10.323,3.737,9.984,5.004,9.984,5.004z"/>
	<path fill="#FFFFFF" d="M12.249,17.009H7.947c-0.344,0,0.52-2.258,0.52-2.258L5.53,9.123c0-0.653,0.529-1.182,1.182-1.182h6.747
		c0.654,0,1.182,0.528,1.182,1.182l-2.936,5.579C11.705,14.702,12.54,17.009,12.249,17.009z"/>
	<path fill="#F6A2A3" d="M7.121,5.764c0.038,0.454-0.175,0.931-0.483,0.957C6.329,6.745,6.042,6.31,6.004,5.855
		c-0.037-0.454,0.19-0.755,0.499-0.781C6.812,5.05,7.083,5.31,7.121,5.764z"/>
	<path fill="#E84849" d="M6.994,5.936c0.027,0.332-0.13,0.662-0.355,0.68c-0.226,0.019-0.436-0.28-0.463-0.613
		S6.312,5.427,6.539,5.41C6.766,5.392,6.967,5.602,6.994,5.936z"/>
	<path fill="#F6A2A3" d="M7.884,6.489C7.589,6.836,7.103,7.024,6.865,6.823C6.629,6.624,6.734,6.112,7.029,5.765
		s0.667-0.4,0.904-0.2C8.17,5.765,8.178,6.142,7.884,6.489z"/>
	<path fill="#E84849" d="M7.673,6.521c-0.217,0.255-0.56,0.377-0.733,0.23C6.766,6.604,6.829,6.245,7.046,5.99
		C7.262,5.735,7.55,5.682,7.722,5.828C7.895,5.975,7.889,6.267,7.673,6.521L7.673,6.521z"/>
	<path fill="#F6A2A3" d="M6.544,8.227C6.331,7.822,6.34,7.301,6.614,7.157c0.274-0.146,0.709,0.145,0.921,0.548
		c0.213,0.404,0.12,0.77-0.153,0.913C7.107,8.762,6.755,8.63,6.544,8.227L6.544,8.227z"/>
	<path fill="#E84849" d="M6.592,8.02C6.437,7.724,6.453,7.358,6.653,7.253s0.511,0.088,0.666,0.385
		c0.154,0.296,0.098,0.581-0.104,0.688C7.015,8.431,6.746,8.314,6.592,8.02z"/>
	<path fill="#F6A2A3" d="M5.357,6.693C5.812,6.65,6.291,6.857,6.32,7.166S5.917,7.768,5.463,7.811
		C5.009,7.853,4.705,7.629,4.677,7.322S4.903,6.737,5.357,6.693L5.357,6.693z"/>
	<path fill="#E84849" d="M5.531,6.818C5.863,6.787,6.195,6.94,6.217,7.166c0.022,0.226-0.275,0.438-0.608,0.471
		c-0.333,0.03-0.576-0.131-0.597-0.357C4.99,7.053,5.199,6.85,5.531,6.818L5.531,6.818z"/>
	<path fill="#F6A2A3" d="M6.01,5.781C6.36,6.072,6.554,6.557,6.355,6.796c-0.197,0.238-0.71,0.139-1.062-0.151
		c-0.352-0.291-0.407-0.663-0.21-0.902C5.282,5.504,5.657,5.49,6.01,5.781z"/>
	<path fill="#E84849" d="M6.044,5.991c0.257,0.213,0.383,0.557,0.239,0.73C6.138,6.896,5.777,6.836,5.521,6.624
		C5.263,6.41,5.205,6.124,5.35,5.949S5.786,5.777,6.044,5.991z"/>
	<path fill="#F6A2A3" d="M7.762,7.927c-0.457,0-0.915-0.25-0.915-0.56s0.458-0.561,0.914-0.561c0.456-0.001,0.736,0.25,0.738,0.559
		C8.5,7.674,8.218,7.926,7.762,7.927L7.762,7.927z"/>
	<path fill="#E84849" d="M7.6,7.786c-0.335,0-0.65-0.183-0.65-0.409c0-0.228,0.315-0.412,0.649-0.412
		C7.934,6.964,8.16,7.148,8.16,7.376C8.16,7.603,7.934,7.785,7.6,7.786L7.6,7.786z"/>
	<path fill="#F6A2A3" d="M5.514,7.919C5.65,7.483,6.026,7.121,6.321,7.213s0.399,0.604,0.263,1.04
		C6.448,8.688,6.125,8.882,5.829,8.789C5.533,8.697,5.378,8.354,5.514,7.919z"/>
	<path fill="#E84849" d="M5.696,7.807c0.1-0.319,0.369-0.564,0.586-0.497C6.498,7.378,6.58,7.732,6.48,8.052
		s-0.343,0.48-0.559,0.412C5.705,8.396,5.597,8.125,5.696,7.807z"/>
	<path fill="#F4E028" d="M5.805,7.185c-0.03-0.359,0.274-0.676,0.68-0.71c0.405-0.033,0.758,0.23,0.786,0.59
		C7.3,7.424,6.995,7.74,6.591,7.774C6.186,7.808,5.834,7.544,5.805,7.185z"/>
	<path fill="#E5CE27" d="M6.054,7.163c-0.02-0.236,0.181-0.446,0.448-0.469C6.769,6.673,7,6.847,7.02,7.083
		C7.038,7.32,6.839,7.529,6.571,7.552C6.305,7.573,6.072,7.399,6.054,7.163z"/>
	<path fill="#F6A2A3" d="M14.835,6.149c-0.116,0.441-0.475,0.821-0.774,0.741c-0.3-0.079-0.426-0.585-0.309-1.027
		c0.116-0.441,0.43-0.648,0.729-0.57C14.78,5.372,14.952,5.708,14.835,6.149L14.835,6.149z"/>
	<path fill="#E84849" d="M14.658,6.271c-0.085,0.323-0.342,0.581-0.562,0.522c-0.221-0.058-0.318-0.409-0.232-0.732
		c0.084-0.323,0.32-0.496,0.54-0.438S14.743,5.946,14.658,6.271z"/>
	<path fill="#F6A2A3" d="M15.313,7.087c-0.394,0.229-0.916,0.245-1.072-0.022c-0.156-0.267,0.113-0.715,0.507-0.944
		c0.394-0.229,0.764-0.154,0.919,0.112C15.823,6.5,15.706,6.858,15.313,7.087L15.313,7.087z"/>
	<path fill="#E84849" d="M15.104,7.048c-0.289,0.168-0.653,0.168-0.77-0.027C14.22,6.824,14.4,6.507,14.688,6.339
		c0.289-0.169,0.578-0.123,0.692,0.072S15.392,6.88,15.104,7.048L15.104,7.048z"/>
	<path fill="#F6A2A3" d="M13.47,8.28c-0.066-0.452,0.116-0.94,0.422-0.985s0.621,0.372,0.687,0.824
		c0.065,0.45-0.144,0.765-0.45,0.809s-0.594-0.197-0.66-0.649L13.47,8.28z"/>
	<path fill="#E84849" d="M13.585,8.101c-0.048-0.33,0.089-0.669,0.313-0.701c0.224-0.032,0.45,0.252,0.499,0.583
		s-0.102,0.582-0.325,0.615C13.847,8.63,13.633,8.432,13.585,8.101z"/>
	<path fill="#F6A2A3" d="M12.86,6.44c0.443,0.11,0.826,0.465,0.751,0.766s-0.579,0.433-1.023,0.322
		c-0.442-0.11-0.653-0.423-0.579-0.722C12.083,6.507,12.419,6.331,12.86,6.44L12.86,6.44z"/>
	<path fill="#E84849" d="M12.983,6.615c0.324,0.081,0.586,0.336,0.531,0.556c-0.056,0.22-0.407,0.323-0.73,0.241
		c-0.324-0.08-0.498-0.314-0.443-0.535c0.056-0.221,0.319-0.343,0.645-0.262H12.983z"/>
	<path fill="#F6A2A3" d="M13.78,5.797c0.234,0.391,0.256,0.913-0.01,1.071c-0.267,0.16-0.717-0.104-0.951-0.494
		c-0.236-0.392-0.164-0.762,0.102-0.92C13.187,5.294,13.545,5.406,13.78,5.797L13.78,5.797z"/>
	<path fill="#E84849" d="M13.742,6.007c0.172,0.286,0.177,0.651-0.017,0.768c-0.195,0.116-0.516-0.059-0.688-0.346
		c-0.172-0.286-0.131-0.575,0.063-0.691S13.57,5.721,13.742,6.007z"/>
	<path fill="#F6A2A3" d="M14.718,8.403c-0.431-0.151-0.778-0.54-0.676-0.832s0.618-0.377,1.047-0.226
		c0.432,0.151,0.613,0.48,0.511,0.773C15.497,8.411,15.148,8.555,14.718,8.403L14.718,8.403z"/>
	<path fill="#E84849" d="M14.613,8.218c-0.315-0.11-0.552-0.39-0.477-0.603c0.075-0.214,0.434-0.282,0.749-0.172
		c0.314,0.111,0.468,0.359,0.394,0.573C15.205,8.231,14.929,8.329,14.613,8.218z"/>
	<path fill="#F6A2A3" d="M12.603,7.648c0.273-0.365,0.748-0.582,0.996-0.396c0.246,0.185,0.174,0.702-0.099,1.067
		c-0.272,0.366-0.642,0.441-0.889,0.256C12.362,8.39,12.331,8.014,12.603,7.648z"/>
	<path fill="#E84849" d="M12.812,7.603c0.2-0.268,0.536-0.41,0.718-0.275c0.181,0.136,0.14,0.498-0.06,0.767
		c-0.2,0.267-0.482,0.339-0.665,0.203S12.611,7.869,12.812,7.603L12.812,7.603z"/>
	<path fill="#F4E028" d="M13.118,7.052c0.092-0.349,0.484-0.546,0.877-0.444c0.393,0.104,0.638,0.471,0.546,0.818
		c-0.092,0.349-0.484,0.546-0.877,0.443C13.271,7.768,13.026,7.399,13.118,7.052z"/>
	<path fill="#E5CE27" d="M13.361,7.115c0.062-0.229,0.318-0.36,0.578-0.293c0.26,0.068,0.421,0.31,0.36,0.539
		c-0.061,0.23-0.319,0.36-0.579,0.292C13.461,7.586,13.302,7.344,13.361,7.115z"/>
	<path fill="#F6A2A3" d="M12.133,6.065c-0.039,0.404-0.301,0.791-0.577,0.765c-0.273-0.026-0.459-0.455-0.42-0.859
		c0.039-0.406,0.285-0.635,0.562-0.608C11.972,5.389,12.171,5.661,12.133,6.065L12.133,6.065z"/>
	<path fill="#E84849" d="M11.993,6.196c-0.027,0.297-0.219,0.562-0.419,0.541c-0.2-0.019-0.337-0.314-0.31-0.612
		c0.027-0.297,0.212-0.483,0.412-0.463C11.878,5.682,12.022,5.898,11.993,6.196z"/>
	<path fill="#F6A2A3" d="M12.688,6.822c-0.312,0.26-0.771,0.348-0.946,0.134c-0.175-0.213-0.003-0.646,0.311-0.906
		c0.313-0.258,0.65-0.245,0.826-0.033c0.176,0.213,0.124,0.545-0.188,0.805L12.688,6.822z"/>
	<path fill="#E84849" d="M12.498,6.817c-0.229,0.19-0.552,0.243-0.681,0.087c-0.128-0.156-0.017-0.462,0.215-0.652
		c0.23-0.19,0.49-0.192,0.62-0.035s0.077,0.411-0.152,0.602L12.498,6.817z"/>
	<path fill="#F6A2A3" d="M11.237,8.139c-0.123-0.388-0.033-0.846,0.23-0.929s0.602,0.24,0.723,0.628
		c0.123,0.389-0.015,0.695-0.277,0.778C11.65,8.698,11.359,8.526,11.237,8.139L11.237,8.139z"/>
	<path fill="#E84849" d="M11.312,7.965c-0.09-0.284-0.019-0.604,0.175-0.664s0.435,0.158,0.524,0.443s-0.005,0.527-0.198,0.588
		C11.619,8.393,11.402,8.25,11.312,7.965L11.312,7.965z"/>
	<path fill="#F6A2A3" d="M10.436,6.605c0.407,0.034,0.794,0.291,0.772,0.566c-0.022,0.276-0.449,0.466-0.855,0.432
		C9.946,7.57,9.715,7.326,9.738,7.051C9.761,6.775,10.03,6.573,10.436,6.605L10.436,6.605z"/>
	<path fill="#E84849" d="M10.568,6.742c0.298,0.025,0.564,0.211,0.548,0.414c-0.018,0.201-0.311,0.342-0.609,0.316
		c-0.298-0.024-0.486-0.205-0.47-0.407S10.27,6.717,10.568,6.742L10.568,6.742z"/>
	<path fill="#F6A2A3" d="M11.151,5.904c0.264,0.312,0.357,0.768,0.146,0.947c-0.211,0.179-0.646,0.011-0.91-0.3
		s-0.254-0.647-0.042-0.826C10.556,5.547,10.89,5.594,11.151,5.904z"/>
	<path fill="#E84849" d="M11.149,6.097c0.192,0.227,0.249,0.548,0.096,0.679c-0.154,0.131-0.462,0.022-0.656-0.205
		c-0.192-0.229-0.198-0.488-0.043-0.62C10.7,5.818,10.956,5.869,11.149,6.097z"/>
	<path fill="#F6A2A3" d="M12.355,8.067c-0.401-0.071-0.765-0.363-0.716-0.636c0.047-0.271,0.491-0.421,0.892-0.35
		s0.609,0.337,0.561,0.607C13.042,7.96,12.756,8.139,12.355,8.067L12.355,8.067z"/>
	<path fill="#E84849" d="M12.234,7.92c-0.294-0.053-0.542-0.265-0.507-0.463c0.037-0.199,0.342-0.312,0.636-0.26
		c0.295,0.053,0.465,0.249,0.43,0.449C12.757,7.847,12.529,7.972,12.234,7.92L12.234,7.92z"/>
	<path fill="#F6A2A3" d="M10.381,7.707c0.188-0.361,0.576-0.621,0.821-0.494c0.244,0.127,0.256,0.594,0.067,0.955
		c-0.187,0.361-0.503,0.48-0.747,0.354C10.277,8.395,10.193,8.068,10.381,7.707L10.381,7.707z"/>
	<path fill="#E84849" d="M10.56,7.638c0.138-0.266,0.414-0.438,0.592-0.346c0.18,0.093,0.196,0.418,0.059,0.684
		c-0.139,0.265-0.377,0.368-0.557,0.275C10.473,8.157,10.422,7.902,10.56,7.638z"/>
	<path fill="#F4E028" d="M10.75,7.107c0.031-0.32,0.349-0.552,0.71-0.517c0.361,0.034,0.63,0.321,0.599,0.642
		c-0.03,0.32-0.349,0.551-0.709,0.517C10.987,7.715,10.72,7.427,10.75,7.107z"/>
	<path fill="#E5CE27" d="M10.974,7.127c0.02-0.211,0.229-0.362,0.468-0.341c0.239,0.022,0.415,0.212,0.395,0.423
		c-0.021,0.212-0.229,0.363-0.468,0.342C11.13,7.528,10.954,7.338,10.974,7.127z"/>
	<path fill="#F6A2A3" d="M10.097,6.309c-0.039,0.422-0.312,0.825-0.6,0.797C9.211,7.077,9.019,6.632,9.059,6.209
		s0.297-0.66,0.584-0.634C9.929,5.602,10.137,5.886,10.097,6.309L10.097,6.309z"/>
	<path fill="#E84849" d="M9.953,6.446c-0.03,0.31-0.229,0.585-0.438,0.564c-0.21-0.02-0.354-0.328-0.324-0.637
		c0.029-0.31,0.22-0.504,0.431-0.483C9.832,5.91,9.981,6.136,9.953,6.446z"/>
	<path fill="#F6A2A3" d="M10.677,7.098C10.35,7.368,9.873,7.459,9.69,7.238c-0.184-0.221-0.004-0.675,0.323-0.944
		s0.678-0.257,0.86-0.034C11.057,6.481,11.004,6.828,10.677,7.098z"/>
	<path fill="#E84849" d="M10.479,7.093c-0.24,0.198-0.575,0.253-0.709,0.091S9.752,6.702,9.991,6.505
		c0.24-0.198,0.513-0.201,0.646-0.038C10.771,6.631,10.718,6.896,10.479,7.093L10.479,7.093z"/>
	<path fill="#F6A2A3" d="M9.163,8.47C9.036,8.065,9.129,7.588,9.404,7.502c0.275-0.085,0.626,0.249,0.753,0.653
		c0.128,0.404-0.016,0.724-0.289,0.812C9.594,9.055,9.292,8.874,9.165,8.47H9.163z"/>
	<path fill="#E84849" d="M9.242,8.288C9.148,7.992,9.223,7.66,9.424,7.597c0.201-0.064,0.453,0.164,0.547,0.461
		S9.964,8.607,9.763,8.67C9.562,8.734,9.335,8.584,9.242,8.288z"/>
	<path fill="#F6A2A3" d="M8.328,6.872c0.423,0.034,0.828,0.302,0.804,0.59C9.107,7.747,8.664,7.945,8.241,7.91
		C7.818,7.876,7.577,7.62,7.601,7.334C7.625,7.048,7.904,6.836,8.328,6.872L8.328,6.872z"/>
	<path fill="#E84849" d="M8.468,7.015c0.31,0.025,0.588,0.221,0.57,0.43C9.02,7.653,8.714,7.802,8.403,7.775
		c-0.31-0.026-0.505-0.214-0.488-0.424C7.934,7.141,8.157,6.988,8.468,7.015z"/>
	<path fill="#F6A2A3" d="M9.075,6.143c0.273,0.323,0.372,0.8,0.152,0.984C9.007,7.312,8.555,7.139,8.28,6.815
		c-0.274-0.324-0.266-0.674-0.046-0.86C8.455,5.769,8.801,5.817,9.075,6.143L9.075,6.143z"/>
	<path fill="#E84849" d="M9.072,6.341c0.201,0.237,0.26,0.571,0.099,0.708C9.01,7.185,8.689,7.072,8.488,6.835
		S8.282,6.327,8.443,6.189C8.604,6.053,8.871,6.104,9.072,6.341z"/>
	<path fill="#F6A2A3" d="M10.328,8.395C9.911,8.32,9.533,8.016,9.582,7.732c0.049-0.284,0.511-0.438,0.929-0.364
		c0.417,0.074,0.634,0.35,0.583,0.633C11.043,8.285,10.745,8.47,10.328,8.395L10.328,8.395z"/>
	<path fill="#E84849" d="M10.204,8.241C9.897,8.187,9.639,7.967,9.675,7.76c0.037-0.207,0.356-0.326,0.662-0.271
		c0.307,0.055,0.484,0.26,0.447,0.468C10.747,8.166,10.509,8.297,10.204,8.241L10.204,8.241z"/>
	<path fill="#F6A2A3" d="M8.272,8.02c0.196-0.376,0.599-0.647,0.854-0.514c0.255,0.133,0.266,0.618,0.069,0.995
		c-0.195,0.375-0.522,0.5-0.778,0.368C8.163,8.737,8.076,8.396,8.272,8.02L8.272,8.02z"/>
	<path fill="#E84849" d="M8.457,7.947c0.144-0.276,0.43-0.458,0.617-0.36S9.278,8.023,9.135,8.3
		C8.992,8.576,8.742,8.685,8.556,8.587C8.368,8.489,8.313,8.224,8.457,7.947z"/>
	<path fill="#F4E028" d="M8.656,7.396C8.688,7.062,9.019,6.82,9.396,6.856c0.377,0.035,0.655,0.335,0.624,0.668
		C9.988,7.859,9.657,8.1,9.28,8.064C8.904,8.029,8.625,7.729,8.656,7.396z"/>
	<path fill="#E5CE27" d="M8.888,7.418c0.021-0.221,0.239-0.38,0.487-0.355c0.248,0.023,0.432,0.221,0.411,0.44
		C9.766,7.724,9.548,7.882,9.3,7.858C9.051,7.834,8.867,7.638,8.888,7.418z"/>
	<path fill="#F6A2A3" d="M8.396,4.46C8.424,4.769,8.28,5.094,8.071,5.112C7.863,5.131,7.665,4.836,7.639,4.527
		C7.61,4.219,7.764,4.014,7.973,3.995C8.183,3.978,8.369,4.152,8.396,4.46z"/>
	<path fill="#E84849" d="M8.31,4.578C8.33,4.805,8.225,5.028,8.07,5.042S7.774,4.854,7.754,4.628
		c-0.02-0.227,0.092-0.391,0.245-0.404C8.153,4.21,8.291,4.353,8.31,4.578z"/>
	<path fill="#F6A2A3" d="M8.916,4.95C8.718,5.187,8.387,5.316,8.227,5.182S8.134,4.698,8.333,4.461
		c0.199-0.236,0.452-0.272,0.614-0.138C9.107,4.458,9.115,4.714,8.916,4.95L8.916,4.95z"/>
	<path fill="#E84849" d="M8.773,4.974C8.627,5.147,8.394,5.23,8.275,5.131S8.199,4.788,8.345,4.614
		C8.491,4.44,8.687,4.402,8.803,4.501C8.92,4.6,8.918,4.799,8.772,4.972L8.773,4.974z"/>
	<path fill="#F6A2A3" d="M8.012,6.135C7.866,5.861,7.871,5.507,8.057,5.409c0.186-0.099,0.481,0.095,0.628,0.368
		c0.145,0.274,0.084,0.521-0.102,0.621C8.398,6.498,8.158,6.409,8.012,6.135z"/>
	<path fill="#E84849" d="M8.044,5.993c-0.106-0.199-0.097-0.447,0.039-0.52s0.348,0.058,0.453,0.258
		C8.644,5.933,8.605,6.126,8.47,6.199C8.333,6.271,8.151,6.194,8.044,5.993z"/>
	<path fill="#F6A2A3" d="M7.202,5.1C7.51,5.068,7.836,5.206,7.857,5.417c0.021,0.211-0.271,0.409-0.58,0.439
		C6.97,5.888,6.763,5.737,6.741,5.528C6.721,5.318,6.894,5.13,7.202,5.1z"/>
	<path fill="#E84849" d="M7.32,5.184C7.546,5.16,7.771,5.263,7.786,5.417c0.017,0.154-0.185,0.299-0.41,0.321
		C7.149,5.761,6.984,5.652,6.97,5.499C6.954,5.345,7.095,5.206,7.32,5.184z"/>
	<path fill="#F6A2A3" d="M7.641,4.477C7.88,4.674,8.013,5.001,7.88,5.164C7.747,5.328,7.398,5.262,7.159,5.066
		c-0.24-0.196-0.28-0.449-0.147-0.611C7.146,4.292,7.401,4.282,7.641,4.477z"/>
	<path fill="#E84849" d="M7.665,4.62c0.176,0.144,0.262,0.376,0.164,0.495c-0.097,0.12-0.342,0.081-0.518-0.062
		C7.136,4.908,7.096,4.715,7.193,4.595C7.291,4.476,7.488,4.477,7.665,4.62L7.665,4.62z"/>
	<path fill="#F6A2A3" d="M8.838,5.928C8.527,5.93,8.216,5.762,8.215,5.551s0.309-0.382,0.618-0.384
		c0.311-0.003,0.502,0.167,0.503,0.377C9.337,5.753,9.147,5.926,8.838,5.928z"/>
	<path fill="#E84849" d="M8.729,5.832C8.501,5.835,8.286,5.711,8.285,5.556c-0.001-0.154,0.212-0.28,0.439-0.281
		s0.381,0.123,0.382,0.276C9.107,5.705,8.955,5.83,8.729,5.832L8.729,5.832z"/>
	<path fill="#F6A2A3" d="M7.312,5.93c0.091-0.295,0.345-0.543,0.546-0.481c0.2,0.062,0.272,0.408,0.182,0.705
		C7.949,6.449,7.731,6.582,7.53,6.52C7.33,6.459,7.223,6.227,7.312,5.93z"/>
	<path fill="#E84849" d="M7.436,5.854c0.066-0.217,0.249-0.386,0.396-0.341S8.036,5.799,7.97,6.017
		c-0.065,0.218-0.23,0.327-0.377,0.282C7.444,6.254,7.37,6.071,7.436,5.854L7.436,5.854z"/>
	<path fill="#F4E028" d="M7.507,5.431C7.485,5.187,7.69,4.97,7.965,4.945C8.239,4.922,8.479,5.1,8.501,5.344
		c0.021,0.244-0.185,0.461-0.459,0.484C7.769,5.853,7.527,5.675,7.507,5.431z"/>
	<path fill="#E5CE27" d="M7.675,5.416c-0.014-0.16,0.121-0.304,0.303-0.319c0.181-0.016,0.339,0.102,0.354,0.262
		c0.014,0.16-0.121,0.304-0.302,0.319C7.848,5.693,7.689,5.576,7.675,5.416z"/>
	<path fill="#F6A2A3" d="M10.856,3.085c0,0.456-0.25,0.914-0.56,0.914c-0.309,0-0.561-0.459-0.561-0.914
		c0-0.456,0.251-0.737,0.561-0.737S10.856,2.629,10.856,3.085z"/>
	<path fill="#E84849" d="M10.718,3.247c0,0.334-0.186,0.648-0.411,0.648c-0.227,0-0.41-0.314-0.41-0.648
		c0-0.335,0.184-0.562,0.41-0.562C10.532,2.686,10.718,2.912,10.718,3.247z"/>
	<path fill="#F6A2A3" d="M11.558,3.871c-0.322,0.322-0.823,0.469-1.042,0.25c-0.22-0.219-0.073-0.721,0.249-1.043
		c0.323-0.322,0.699-0.344,0.918-0.124c0.219,0.219,0.196,0.594-0.127,0.917H11.558z"/>
	<path fill="#E84849" d="M11.346,3.886c-0.237,0.236-0.589,0.329-0.751,0.169c-0.159-0.16-0.066-0.513,0.17-0.749
		c0.236-0.237,0.525-0.267,0.687-0.106C11.613,3.361,11.581,3.65,11.346,3.886L11.346,3.886z"/>
	<path fill="#F6A2A3" d="M10.078,5.493c-0.178-0.42-0.125-0.94,0.159-1.061c0.285-0.12,0.695,0.203,0.873,0.623
		s0.057,0.776-0.229,0.896C10.597,6.073,10.256,5.913,10.078,5.493z"/>
	<path fill="#E84849" d="M10.145,5.29c-0.131-0.308-0.085-0.67,0.124-0.759c0.21-0.089,0.502,0.13,0.633,0.438
		s0.05,0.588-0.159,0.677C10.533,5.735,10.275,5.598,10.145,5.29L10.145,5.29z"/>
	<path fill="#F6A2A3" d="M9.021,3.869c0.457-0.006,0.917,0.239,0.922,0.548c0.004,0.309-0.451,0.566-0.906,0.571
		C8.58,4.994,8.297,4.746,8.293,4.438C8.288,4.128,8.566,3.874,9.021,3.869z"/>
	<path fill="#E84849" d="M9.186,4.007C9.52,4.003,9.838,4.183,9.84,4.41c0.002,0.227-0.311,0.414-0.646,0.419
		C8.861,4.833,8.632,4.651,8.63,4.425C8.627,4.197,8.852,4.011,9.186,4.007z"/>
	<path fill="#F6A2A3" d="M9.746,3.012c0.326,0.317,0.479,0.817,0.263,1.039S9.29,4.132,8.963,3.813
		C8.637,3.495,8.61,3.119,8.827,2.897C9.044,2.675,9.42,2.693,9.746,3.012z"/>
	<path fill="#E84849" d="M9.764,3.225c0.24,0.233,0.337,0.585,0.179,0.748C9.784,4.135,9.43,4.046,9.19,3.813
		C8.952,3.581,8.917,3.29,9.076,3.128C9.234,2.965,9.525,2.993,9.764,3.225L9.764,3.225z"/>
	<path fill="#F6A2A3" d="M11.317,5.294c-0.453-0.036-0.891-0.324-0.865-0.632s0.503-0.521,0.956-0.483
		c0.454,0.036,0.714,0.31,0.689,0.617C12.073,5.104,11.772,5.332,11.317,5.294z"/>
	<path fill="#E84849" d="M11.168,5.142c-0.333-0.027-0.632-0.235-0.614-0.462c0.018-0.226,0.348-0.384,0.682-0.356
		c0.332,0.027,0.543,0.229,0.525,0.455C11.741,5.005,11.501,5.169,11.168,5.142L11.168,5.142z"/>
	<path fill="#F6A2A3" d="M9.079,5.103C9.249,4.68,9.653,4.35,9.94,4.465c0.286,0.117,0.347,0.635,0.177,1.058
		c-0.171,0.423-0.509,0.59-0.796,0.473C9.035,5.88,8.908,5.524,9.079,5.103z"/>
	<path fill="#E84849" d="M9.269,5.006c0.126-0.311,0.414-0.534,0.624-0.448c0.211,0.086,0.263,0.446,0.138,0.756
		C9.904,5.623,9.649,5.765,9.438,5.68C9.229,5.595,9.144,5.315,9.269,5.006L9.269,5.006z"/>
	<path fill="#F4E028" d="M10.897,4.395c0,0.36-0.329,0.652-0.735,0.652S9.426,4.755,9.426,4.395s0.33-0.652,0.736-0.652
		S10.897,4.034,10.897,4.395z"/>
	<path fill="#E5CE27" d="M10.648,4.395c0,0.237-0.218,0.43-0.485,0.43c-0.269,0-0.484-0.192-0.484-0.43
		c0-0.238,0.216-0.431,0.484-0.431C10.431,3.964,10.648,4.156,10.648,4.395z"/>
	<path fill="#F6A2A3" d="M12.513,4.406c0.027,0.309-0.115,0.633-0.324,0.651c-0.207,0.019-0.405-0.276-0.434-0.585
		c-0.027-0.309,0.126-0.514,0.336-0.532C12.3,3.923,12.486,4.098,12.513,4.406z"/>
	<path fill="#E84849" d="M12.427,4.524c0.021,0.226-0.086,0.45-0.238,0.463c-0.152,0.014-0.295-0.188-0.315-0.414
		c-0.021-0.226,0.091-0.391,0.245-0.404c0.153-0.014,0.29,0.129,0.311,0.355H12.427z"/>
	<path fill="#F6A2A3" d="M13.034,4.896c-0.199,0.236-0.529,0.366-0.69,0.231c-0.16-0.135-0.091-0.483,0.107-0.72
		c0.199-0.237,0.452-0.273,0.613-0.139C13.227,4.404,13.233,4.66,13.034,4.896L13.034,4.896z"/>
	<path fill="#E84849" d="M12.89,4.92c-0.145,0.174-0.379,0.257-0.496,0.157c-0.119-0.099-0.076-0.343,0.07-0.517
		c0.145-0.174,0.341-0.211,0.458-0.113C13.038,4.546,13.036,4.745,12.89,4.92L12.89,4.92z"/>
	<path fill="#F6A2A3" d="M12.129,6.081c-0.146-0.272-0.142-0.627,0.046-0.726c0.186-0.099,0.481,0.095,0.626,0.369
		c0.146,0.273,0.085,0.521-0.1,0.62c-0.187,0.101-0.426,0.011-0.57-0.264H12.129z"/>
	<path fill="#E84849" d="M12.163,5.94c-0.107-0.201-0.098-0.448,0.039-0.521c0.135-0.072,0.346,0.058,0.453,0.259
		c0.106,0.2,0.068,0.395-0.067,0.467S12.27,6.141,12.163,5.94z"/>
	<path fill="#F6A2A3" d="M11.318,5.045c0.309-0.031,0.635,0.107,0.655,0.317c0.021,0.211-0.271,0.409-0.579,0.44
		s-0.516-0.12-0.536-0.329C10.837,5.264,11.011,5.075,11.318,5.045z"/>
	<path fill="#E84849" d="M11.438,5.129c0.226-0.022,0.451,0.079,0.466,0.233c0.017,0.154-0.184,0.299-0.411,0.321
		c-0.226,0.022-0.392-0.086-0.405-0.239C11.071,5.29,11.212,5.152,11.438,5.129z"/>
	<path fill="#F6A2A3" d="M11.758,4.422c0.239,0.197,0.373,0.524,0.239,0.688c-0.133,0.163-0.481,0.097-0.722-0.099
		C11.036,4.815,10.997,4.562,11.13,4.4S11.518,4.228,11.758,4.422z"/>
	<path fill="#E84849" d="M11.783,4.566c0.176,0.143,0.263,0.375,0.163,0.495c-0.098,0.119-0.342,0.08-0.518-0.063
		c-0.176-0.145-0.215-0.338-0.118-0.457C11.408,4.421,11.606,4.422,11.783,4.566L11.783,4.566z"/>
	<path fill="#F6A2A3" d="M12.956,5.873c-0.311,0.002-0.621-0.166-0.623-0.375c0-0.21,0.309-0.384,0.619-0.385
		c0.31-0.002,0.501,0.168,0.502,0.377S13.267,5.872,12.956,5.873L12.956,5.873z"/>
	<path fill="#E84849" d="M12.846,5.779c-0.227,0.002-0.441-0.122-0.442-0.276c-0.001-0.155,0.213-0.28,0.438-0.281
		c0.227-0.002,0.383,0.122,0.384,0.276c0.001,0.153-0.152,0.278-0.38,0.279V5.779z"/>
	<path fill="#F6A2A3" d="M11.43,5.877c0.092-0.296,0.345-0.544,0.545-0.482c0.202,0.062,0.274,0.409,0.183,0.705
		c-0.09,0.296-0.309,0.429-0.511,0.367C11.445,6.405,11.339,6.173,11.43,5.877L11.43,5.877z"/>
	<path fill="#E84849" d="M11.554,5.8c0.065-0.218,0.247-0.385,0.395-0.34c0.148,0.045,0.205,0.286,0.14,0.503
		c-0.065,0.218-0.231,0.328-0.379,0.283C11.562,6.201,11.487,6.017,11.554,5.8L11.554,5.8z"/>
	<path fill="#F4E028" d="M11.623,5.376c-0.021-0.244,0.185-0.46,0.459-0.484s0.515,0.153,0.536,0.397s-0.185,0.461-0.459,0.484
		C11.885,5.798,11.644,5.62,11.623,5.376z"/>
	<path fill="#E5CE27" d="M11.793,5.361c-0.014-0.16,0.122-0.304,0.303-0.319s0.339,0.102,0.354,0.262s-0.12,0.304-0.303,0.319
		C11.966,5.639,11.808,5.521,11.793,5.361z"/>
	<path fill="#E84849" d="M11.705,14.702l0.096-0.182l-1.977,0.219l-1.479-0.219l0.121,0.23c0,0-0.009,0.023-0.022,0.06l1.481,0.217
		l1.818-0.217C11.72,14.741,11.705,14.702,11.705,14.702z"/>
</g>
</svg>
