<?xml version="1.0" encoding="utf-8"?>
<!-- Generated by IcoMoon.io -->
<!DOCTYPE svg PUBLIC "-//W3C//DTD SVG 1.1//EN" "http://www.w3.org/Graphics/SVG/1.1/DTD/svg11.dtd">
<svg version="1.1" xmlns="http://www.w3.org/2000/svg" xmlns:xlink="http://www.w3.org/1999/xlink" width="20" height="20" viewBox="0 0 20 20">
<path fill="rgb(255, 238, 173)" d="M10 0.309c-5.352 0-9.691 4.338-9.691 9.691s4.339 9.691 9.691 9.691c5.352 0 9.691-4.339 9.691-9.691s-4.339-9.691-9.691-9.691z"></path>
<path fill="rgb(160, 217, 220)" d="M9.724 13.912h0.518v3.42h-0.518v-3.42z"></path>
<path fill="rgb(214, 30, 30)" d="M13.192 3.684c-0.96-0.19-2.229 0.771-3.062 0.771s-1.958-1.032-3.191-0.771c-1.799 0.381-2.513 1.417-2.513 3.152 0 2.6 4.148 6.147 4.148 6.147 0.857 0.643 2.093 0.611 2.898 0 0 0 4.382-3.452 4.382-5.985 0-1.689-1.006-2.987-2.662-3.314z"></path>
<path fill="rgb(191, 33, 38)" d="M10.392 13.549l-0.213-0.213c-0.117-0.117-0.308-0.117-0.425 0l-0.212 0.213c-0.118 0.118-0.118 0.308 0 0.425h0.85c0.117-0.117 0.117-0.307 0-0.425z"></path>
<path fill="rgb(226, 59, 59)" d="M8.566 4.904c-0.778-0.778-2.039-0.778-2.816 0s-0.778 2.039 0 2.816c0.778 0.778 3.594-2.038 2.816-2.816z"></path>
</svg>
