<?xml version="1.0" encoding="utf-8"?>
<!-- Generator: Adobe Illustrator 16.0.0, SVG Export Plug-In . SVG Version: 6.00 Build 0)  -->
<!DOCTYPE svg PUBLIC "-//W3C//DTD SVG 1.1//EN" "http://www.w3.org/Graphics/SVG/1.1/DTD/svg11.dtd">
<svg version="1.1" id="Layer_1" xmlns="http://www.w3.org/2000/svg" xmlns:xlink="http://www.w3.org/1999/xlink" x="0px" y="0px"
	 width="20px" height="20px" viewBox="0 0 20 20" enable-background="new 0 0 20 20" xml:space="preserve">
<g>
	<path fill="#EB9682" d="M19.69,10c0,5.351-4.338,9.69-9.69,9.69S0.31,15.353,0.31,10c0-5.352,4.338-9.69,9.69-9.69
		S19.69,4.647,19.69,10z"/>
	<path fill="#69C8CF" d="M8.221,5.401l3.514-0.639l-0.974,4.396L8.221,5.401z"/>
	<path fill="#13B3CA" d="M12.921,4.341L15.979,2.5l0.646,4.456L12.921,4.341z"/>
	<path fill="#29A5AE" d="M3.034,4.992l3.532,0.519L4.238,9.365L3.034,4.992z"/>
	<path fill="#13B3CA" d="M7.552,11.812l3.726,1.184L8.08,16.751L7.552,11.812z"/>
	<path fill="#29A5AE" d="M12.642,13.197l3.905-0.212l-1.661,4.644L12.642,13.197z"/>
	<path fill="#69C8CF" d="M2.741,8.754l3.152,2.315l-4.231,2.533L2.741,8.754z"/>
	<path fill="#388388" d="M7.29,5.562c2.554,0,5.896-0.594,8.913-3.007c-0.08-0.066-0.161-0.132-0.245-0.195
		c-3.161,2.499-6.682,2.973-9.224,2.886C4.72,5.177,3.026,4.759,2.052,4.459C1.991,4.546,1.931,4.635,1.873,4.724
		C2.852,5.029,4.612,5.478,6.714,5.55C6.901,5.556,7.094,5.561,7.29,5.562L7.29,5.562z"/>
	<path fill="#388388" d="M5.928,10.697C2.766,8.86,0.997,6.565,0.979,6.542L0.934,6.578C0.899,6.669,0.867,6.76,0.836,6.853
		c0.417,0.506,2.139,2.481,4.928,4.104c2.052,1.193,4.987,2.36,8.622,2.36c1.529,0,3.186-0.211,4.947-0.71
		c0.031-0.113,0.062-0.228,0.089-0.342C13.498,14.001,8.818,12.376,5.928,10.697L5.928,10.697z"/>
</g>
</svg>
