<?xml version="1.0" encoding="utf-8"?>
<!-- Generator: Adobe Illustrator 16.0.0, SVG Export Plug-In . SVG Version: 6.00 Build 0)  -->
<!DOCTYPE svg PUBLIC "-//W3C//DTD SVG 1.1//EN" "http://www.w3.org/Graphics/SVG/1.1/DTD/svg11.dtd">
<svg version="1.1" id="Layer_1" xmlns="http://www.w3.org/2000/svg" xmlns:xlink="http://www.w3.org/1999/xlink" x="0px" y="0px"
	 width="20px" height="20px" viewBox="0 0 20 20" enable-background="new 0 0 20 20" xml:space="preserve">
<g>
	<path fill="#357180" d="M19.69,10c0,5.351-4.338,9.69-9.69,9.69S0.31,15.353,0.31,10c0-5.352,4.338-9.69,9.69-9.69
		S19.69,4.647,19.69,10z"/>
	<path fill="#F5DE57" d="M12.995,14.716l0.31,0.627l0.69,0.1l-0.5,0.487l0.118,0.688l-0.618-0.325l-0.617,0.325l0.118-0.688
		l-0.5-0.487l0.69-0.1L12.995,14.716z"/>
	<path fill="#F5DE57" d="M3.892,10.354L4.2,10.981l0.691,0.101l-0.5,0.487l0.117,0.688l-0.617-0.325l-0.617,0.325l0.118-0.688
		l-0.501-0.487l0.691-0.101L3.892,10.354z"/>
	<path fill="#F5DE57" d="M12.805,2.514l0.31,0.625l0.689,0.101l-0.5,0.488l0.119,0.688l-0.618-0.324l-0.618,0.324l0.119-0.688
		l-0.5-0.488l0.689-0.101L12.805,2.514z"/>
	<path fill="#FBF3CE" d="M16.258,6.032L16.17,6.509l0.344,0.342l-0.48,0.064l-0.219,0.432l-0.21-0.437l-0.479-0.074l0.352-0.334
		l-0.078-0.479l0.428,0.229L16.258,6.032z"/>
	<path fill="#F5DE57" d="M9.286,8.919L9.215,9.311l0.282,0.282L9.103,9.646l-0.18,0.354L8.75,9.642L8.356,9.58l0.288-0.275
		L8.58,8.911L8.931,9.1L9.286,8.919z"/>
	<path fill="#F8E69B" d="M11.086,8.258l-0.072,0.392l0.283,0.281l-0.396,0.054l-0.18,0.355L10.55,8.98l-0.395-0.062l0.288-0.274
		L10.38,8.25l0.351,0.188L11.086,8.258z"/>
	<path fill="#FBF3CE" d="M10.677,10.131l-0.071,0.393l0.282,0.28l-0.395,0.053l-0.181,0.355l-0.173-0.359l-0.394-0.062l0.288-0.274
		l-0.063-0.395l0.351,0.189L10.677,10.131z"/>
	<path fill="#FBF3CE" d="M4.858,5.918L4.771,6.395l0.344,0.341l-0.48,0.065L4.416,7.233l-0.21-0.437L3.728,6.723l0.351-0.336
		L4.001,5.908L4.428,6.14L4.858,5.918z"/>
	<path fill="#F5DE57" d="M16.562,11.083l-0.086,0.476l0.344,0.341l-0.48,0.065l-0.219,0.433l-0.21-0.437l-0.479-0.075l0.35-0.334
		l-0.077-0.479l0.427,0.23L16.562,11.083z"/>
	<path fill="#FBF3CE" d="M7.995,15.252l-0.087,0.477l0.344,0.341l-0.48,0.064l-0.219,0.434L7.342,16.13l-0.479-0.074l0.351-0.335
		l-0.077-0.479l0.426,0.231L7.995,15.252z"/>
	<path fill="#F9E478" d="M8.429,8.212c0,0-0.952-1.576-1.88-2.443C5.62,4.901,4.176,4.146,4.176,4.146
		C6.446,4.069,8.349,5.891,8.429,8.212z"/>
	<path fill="#F9E478" d="M8.875,11.636c0,0-1.625,0.867-2.541,1.746s-1.748,2.281-1.748,2.281
		C4.632,13.392,6.552,11.589,8.875,11.636z"/>
	<path fill="#F9E478" d="M7.781,9.888c0,0-1.729-0.632-2.995-0.728S1.92,9.381,1.92,9.381C3.642,7.899,6.266,8.126,7.781,9.888z"/>
	<path fill="#F9E478" d="M11.565,8.227c0,0,0.943-1.581,1.867-2.454s2.363-1.635,2.363-1.635
		C13.525,4.072,11.632,5.903,11.565,8.227z"/>
	<path fill="#F9E478" d="M10.16,7.521c0,0-0.075-1.839,0.22-3.075s1.084-2.663,1.084-2.663C9.527,2.972,8.943,5.541,10.16,7.521
		L10.16,7.521z"/>
	<path fill="#F9E478" d="M11.137,11.653c0,0,1.63,0.857,2.552,1.73c0.92,0.875,1.759,2.273,1.759,2.273
		C15.39,13.386,13.459,11.593,11.137,11.653z"/>
	<path fill="#F9E478" d="M9.981,12.372c0,0,0.277,1.819,0.119,3.08c-0.158,1.26-0.786,2.765-0.786,2.765
		C11.108,16.822,11.408,14.206,9.981,12.372z"/>
	<path fill="#F9E478" d="M12.222,9.898c0,0,1.727-0.642,2.992-0.743c1.268-0.102,2.868,0.205,2.868,0.205
		C16.353,7.888,13.729,8.128,12.222,9.898L12.222,9.898z"/>
	<path fill="#F0C418" d="M9.106,7.621c0,0-0.031-0.878-0.218-1.455C8.702,5.59,8.275,4.939,8.275,4.939
		C9.239,5.435,9.611,6.636,9.106,7.621L9.106,7.621z"/>
	<path fill="#F0C418" d="M7.734,8.959c0,0-0.512-0.714-0.985-1.093C6.276,7.487,5.561,7.183,5.561,7.183
		C6.638,7.062,7.61,7.858,7.734,8.959z"/>
	<path fill="#F0C418" d="M8.356,11.129c0,0-0.867-0.144-1.469-0.076s-1.324,0.358-1.324,0.358C6.24,10.563,7.49,10.438,8.356,11.129
		L8.356,11.129z"/>
	<path fill="#F0C418" d="M9.367,12.356c0,0-0.598,0.644-0.873,1.184c-0.275,0.541-0.432,1.303-0.432,1.303
		C7.729,13.811,8.313,12.697,9.367,12.356L9.367,12.356z"/>
	<path fill="#F0C418" d="M10.912,7.65c0,0,0.007-0.878,0.177-1.46s0.578-1.244,0.578-1.244C10.718,5.468,10.379,6.68,10.912,7.65
		L10.912,7.65z"/>
	<path fill="#F0C418" d="M12.265,8.971c0,0,0.508-0.717,0.978-1.099c0.472-0.381,1.187-0.689,1.187-0.689
		C13.35,7.068,12.382,7.868,12.265,8.971L12.265,8.971z"/>
	<path fill="#F0C418" d="M11.653,11.143c0,0,0.865-0.146,1.469-0.084c0.604,0.064,1.326,0.353,1.326,0.353
		C13.768,10.566,12.515,10.446,11.653,11.143z"/>
	<path fill="#F0C418" d="M10.812,12.253c0,0,0.446,0.757,0.6,1.344c0.154,0.585,0.145,1.363,0.145,1.363
		c0.546-0.937,0.213-2.148-0.744-2.709V12.253z"/>
</g>
</svg>
