<?xml version="1.0" encoding="utf-8"?>
<!-- Generated by IcoMoon.io -->
<!DOCTYPE svg PUBLIC "-//W3C//DTD SVG 1.1//EN" "http://www.w3.org/Graphics/SVG/1.1/DTD/svg11.dtd">
<svg version="1.1" xmlns="http://www.w3.org/2000/svg" xmlns:xlink="http://www.w3.org/1999/xlink" width="20" height="20" viewBox="0 0 20 20">
<path fill="rgb(255, 238, 173)" d="M10 0.309c-5.352 0-9.69 4.338-9.69 9.691s4.339 9.691 9.69 9.691 9.691-4.339 9.691-9.691c0-5.352-4.339-9.691-9.691-9.691z"></path>
<path fill="rgb(160, 217, 220)" d="M9.741 13.999h0.518v3.42h-0.518v-3.42z"></path>
<path fill="rgb(237, 51, 81)" d="M10.275 12.992h-0.55c-0.604 1.056-0.604 1.056-0.604 1.056h1.757c0 0 0 0-0.603-1.056z"></path>
<path fill="rgb(237, 51, 81)" d="M9.993 2.581c0 0-4.6-0.057-4.6 5.053 0 0.625 0.341 3.293 4.089 5.565h1.036c3.748-2.271 4.088-4.94 4.088-5.565 0-5.11-4.613-5.053-4.613-5.053z"></path>
<path fill="rgb(252, 58, 96)" d="M10.45 3.579c-0.755-0.755-2.584-0.039-3.339 0.717s-1.585 2.847-0.829 3.602c0.756 0.755 4.924-3.564 4.169-4.319z"></path>
</svg>
