<?xml version="1.0" encoding="utf-8"?>
<!-- Generator: Adobe Illustrator 16.0.0, SVG Export Plug-In . SVG Version: 6.00 Build 0)  -->
<!DOCTYPE svg PUBLIC "-//W3C//DTD SVG 1.1//EN" "http://www.w3.org/Graphics/SVG/1.1/DTD/svg11.dtd">
<svg version="1.1" id="Layer_1" xmlns="http://www.w3.org/2000/svg" xmlns:xlink="http://www.w3.org/1999/xlink" x="0px" y="0px"
	 width="20px" height="20px" viewBox="0 0 20 20" enable-background="new 0 0 20 20" xml:space="preserve">
<g>
	<path fill="#E84849" d="M19.69,10c0,5.351-4.338,9.69-9.69,9.69S0.31,15.353,0.31,10c0-5.352,4.338-9.69,9.69-9.69
		S19.69,4.647,19.69,10z"/>
	<path fill="#4A86C5" d="M19.229,12.957c0.035-0.111,0.068-0.224,0.1-0.335C19.297,12.735,19.264,12.848,19.229,12.957z"/>
	<path fill="#377CA5" d="M19.329,12.619L19.329,12.619l-0.001,0.002L19.329,12.619z"/>
	<path fill="#187070" d="M9.585,5.083c0,0-1.199,0.646,0.348,1.996C9.933,7.079,7.374,5.773,9.585,5.083z"/>
	<path fill="#29A5AE" d="M8.522,5.392C8.106,6.149,9.743,7.184,9.743,7.184l0.19-0.105C9.749,6.95,8.654,6.163,8.857,5.611
		c0.202-0.547,0.9-0.416,1.112,0.106c0.186,0.461,0.352,1.006,0.344,1.147l0.167-0.093c0,0,0.132-0.647-0.16-1.367
		C10.028,4.685,8.913,4.683,8.522,5.392L8.522,5.392z"/>
	<path fill="#187070" d="M11.384,5.247c0,0,1.063,0.711-0.29,2.252C11.094,7.499,13.341,5.992,11.384,5.247z"/>
	<path fill="#29A5AE" d="M12.324,5.58c0.373,0.848-1.062,2.035-1.062,2.035l-0.169-0.117c0.161-0.146,1.12-1.048,0.937-1.666
		c-0.182-0.613-0.798-0.455-0.979,0.135c-0.159,0.522-0.302,1.137-0.294,1.296l-0.147-0.102c0,0-0.122-0.726,0.13-1.541
		C10.989,4.805,11.974,4.787,12.324,5.58L12.324,5.58z"/>
	<path fill="#187070" d="M10.961,4.252c0,0-1.651-0.008-0.785,2.389C10.176,6.641,8.208,3.69,10.961,4.252z"/>
	<path fill="#29A5AE" d="M9.651,3.958C8.769,4.539,9.912,6.644,9.912,6.644l0.264-0.003C10.053,6.392,9.344,4.88,9.879,4.397
		c0.532-0.479,1.198,0.08,1.122,0.776c-0.068,0.616-0.209,1.309-0.299,1.461l0.232-0.003c0,0,0.514-0.629,0.621-1.591
		C11.662,4.079,10.478,3.414,9.651,3.958L9.651,3.958z"/>
	<path fill="#29A5AE" d="M13.644,7.268c-0.582,0.883-2.687-0.261-2.687-0.261l0.003-0.264c0.248,0.122,1.733,0.807,2.244,0.296
		c0.169-0.17-0.236-1.112-0.777-1.122c-0.619-0.011-1.418,0.2-2.095,1.31l0.004-0.635c0,0,1.261-1.122,2.224-1.229
		C13.521,5.257,14.188,6.441,13.644,7.268z"/>
	<path fill="#187070" d="M10.334,7.227c0,0,0.762-1.45,2.265-1.277c0,0-0.654-0.184-1.051-0.101
		c-0.209,0.043-0.858,0.391-1.211,0.742L10.334,7.227L10.334,7.227z"/>
	<path fill="#29A5AE" d="M7.409,7.545c0.725,0.768,2.6-0.725,2.6-0.725L9.96,6.561C9.736,6.726,8.394,7.655,7.803,7.244
		c-0.197-0.139,0.038-1.137,0.569-1.24C8.98,5.886,9.803,5.955,10.661,6.93l-0.113-0.626c0,0-1.438-0.885-2.404-0.823
		C7.178,5.543,6.729,6.825,7.409,7.545z"/>
	<path fill="#187070" d="M10.661,6.929c0,0-1.003-1.295-2.452-0.863c0,0,0.612-0.296,1.017-0.283
		c0.213,0.006,0.913,0.234,1.322,0.52L10.661,6.929z"/>
	<path fill="#A2D4DE" d="M15.471,8.057H4.941c-0.181,0-0.327,0.147-0.327,0.328v5.898c0,0.182,0.146,0.327,0.327,0.327h10.529
		c0.181,0,0.327-0.146,0.327-0.327V8.384C15.798,8.202,15.651,8.056,15.471,8.057L15.471,8.057z"/>
	<path fill="#99CED5" d="M15.471,8.057h-5.253l0.001,6.554h5.252c0.181,0,0.327-0.146,0.327-0.327V8.385
		C15.798,8.204,15.651,8.057,15.471,8.057z"/>
	<path fill="#7DB6B7" d="M15.829,7.678l-5.635-1.07l-5.611,1.07c-0.193,0-0.35,0.157-0.35,0.35v1.033c0,0.193,0.156,0.35,0.35,0.35
		l5.623-1.071l5.623,1.071c0.194,0,0.35-0.156,0.35-0.35V8.027C16.179,7.834,16.022,7.678,15.829,7.678z"/>
	<path fill="#92C7CB" d="M16.179,8.87c0,0.193,0.012,0.361-0.126,0.35l-5.858-1.075V6.413l5.635,1.073c0.194,0,0.35,0.157,0.35,0.35
		V8.87L16.179,8.87z"/>
	<path fill="#A2D4DE" d="M4.233,7.837c0-0.193,0.156-0.35,0.35-0.35l5.635-1.073v1.731L4.337,9.267
		c-0.104,0-0.104-0.203-0.104-0.396V7.837z"/>
	<path fill="#25999B" d="M14.008,14.662h-1.664V8.743l0.104-0.159l1.677,0.312l-0.117,0.159L14.008,14.662z"/>
	<path fill="#258C8E" d="M12.344,8.743l0.104-0.159l1.677,0.312l-0.117,0.158L12.344,8.743z"/>
	<path fill="#25999B" d="M14.124,7.158l-1.677-0.324v1.75l1.677,0.312V7.158z"/>
	<path fill="#29A5AE" d="M6.334,14.662h1.663V8.753L7.894,8.586L6.219,8.897l0.116,0.167L6.334,14.662z"/>
	<path fill="#28999B" d="M7.997,8.752L7.894,8.584L6.219,8.896l0.116,0.167L7.997,8.752z"/>
	<path fill="#29A5AE" d="M6.218,7.175l1.679-0.319l-0.004,1.73L6.218,8.897V7.175z"/>
</g>
</svg>
