<?xml version="1.0" encoding="utf-8"?>
<!-- Generator: Adobe Illustrator 16.0.0, SVG Export Plug-In . SVG Version: 6.00 Build 0)  -->
<!DOCTYPE svg PUBLIC "-//W3C//DTD SVG 1.1//EN" "http://www.w3.org/Graphics/SVG/1.1/DTD/svg11.dtd">
<svg version="1.1" id="Layer_1" xmlns="http://www.w3.org/2000/svg" xmlns:xlink="http://www.w3.org/1999/xlink" x="0px" y="0px"
	 width="20px" height="20px" viewBox="0 0 20 20" enable-background="new 0 0 20 20" xml:space="preserve">
<g>
	<path fill="#357180" d="M19.69,10c0,5.351-4.338,9.69-9.69,9.69S0.31,15.353,0.31,10c0-5.352,4.338-9.69,9.69-9.69
		S19.69,4.647,19.69,10z"/>
	<path fill="#D0A288" d="M7.45,5.541c-0.237,0-0.429,0.084-0.429,0.32v3.687c0,0.236,0.191,0.428,0.429,0.428
		c0.236,0,0.428-0.191,0.428-0.428V5.861C7.878,5.625,7.687,5.541,7.45,5.541z"/>
	<path fill="#EFD34B" d="M7.225,4.202C7.305,3.971,7.29,3.619,7.29,3.619S8.065,4.21,8.01,4.941C7.988,5.232,7.77,5.47,7.472,5.47
		S6.934,5.233,6.934,4.941C6.934,4.657,7.127,4.477,7.225,4.202L7.225,4.202z"/>
	<path fill="#EA9E42" d="M7.315,4.657c0.052-0.147,0.041-0.37,0.041-0.37s0.491,0.374,0.457,0.838C7.8,5.31,7.66,5.46,7.472,5.46
		S7.131,5.311,7.131,5.125C7.131,4.944,7.255,4.83,7.315,4.657L7.315,4.657z"/>
	<path fill="#D0A288" d="M12.644,5.541c-0.237,0-0.429,0.084-0.429,0.32v3.687c0,0.236,0.191,0.428,0.429,0.428
		c0.236,0,0.428-0.191,0.428-0.428V5.861C13.071,5.625,12.88,5.541,12.644,5.541z"/>
	<path fill="#EFD34B" d="M12.38,4.202c0.082-0.231,0.065-0.583,0.065-0.583s0.775,0.591,0.72,1.322
		c-0.021,0.291-0.24,0.528-0.537,0.528c-0.295,0-0.537-0.236-0.537-0.528C12.091,4.657,12.286,4.477,12.38,4.202z"/>
	<path fill="#EA9E42" d="M12.472,4.657c0.053-0.147,0.041-0.37,0.041-0.37s0.492,0.374,0.457,0.838
		C12.956,5.31,12.817,5.46,12.628,5.46c-0.188,0-0.34-0.149-0.34-0.335C12.288,4.944,12.41,4.83,12.472,4.657L12.472,4.657z"/>
	<path fill="#D0A288" d="M10.102,5.4c-0.236,0-0.429,0.085-0.429,0.321v3.686c0,0.236,0.192,0.428,0.429,0.428
		s0.428-0.191,0.428-0.428V5.722C10.529,5.485,10.338,5.4,10.102,5.4z"/>
	<path fill="#EFD34B" d="M9.868,4.054c0.08-0.232,0.064-0.583,0.064-0.583s0.775,0.591,0.721,1.322
		c-0.021,0.291-0.241,0.529-0.538,0.529c-0.298,0-0.537-0.237-0.537-0.529C9.578,4.508,9.771,4.328,9.868,4.054z"/>
	<path fill="#EA9E42" d="M9.959,4.507c0.051-0.146,0.042-0.369,0.042-0.369s0.491,0.374,0.456,0.838
		c-0.014,0.184-0.152,0.335-0.34,0.335S9.776,5.16,9.776,4.976C9.776,4.795,9.899,4.68,9.959,4.507z"/>
	<path fill="#EEE4B8" d="M5.021,12.495c1.423-1.612,1.724-1.475,3.257,0.01l0.031,0.029l0.022,0.037
		c0.078,0.126,0.363,0.486,0.641,0.486c0.003,0,0.005,0,0.009,0c0.208-0.005,0.445-0.233,0.67-0.641
		c0.08-0.139,0.762-1.421,1.634-1.421c0.01,0,0.021,0,0.029,0c0.463,0.013,0.854,0.494,1.162,1.093l0.015,0.031
		c0.069,0.178,0.294,0.559,0.536,0.588c0.19,0.023,0.447-0.172,0.724-0.551l0.026-0.033l1.535-1.641V8.835c0,0-4.976-2.011-10.616,0
		v3.986C4.814,12.712,4.925,12.604,5.021,12.495L5.021,12.495z"/>
	<path fill="#E4C88F" d="M14.278,12.566c-0.435,0.595-0.887,0.864-1.341,0.805c-0.664-0.086-1.003-0.837-1.065-0.991
		c-0.13-0.247-0.333-0.537-0.578-0.544c-0.384-0.008-0.883,0.609-1.062,0.911c-0.349,0.637-0.768,1.103-1.238,1.113
		c-0.646,0.014-1.094-0.728-1.211-0.903c-0.601-0.577-0.95-0.804-1.2-0.784c-0.268,0.023-0.6,0.336-1.104,0.811
		C5.26,13.188,5,13.433,4.692,13.702v1.797h10.615v-4.035L14.278,12.566L14.278,12.566z"/>
	<path fill="#E7DDB3" d="M5.021,12.495c1.423-1.612,1.724-1.475,3.257,0.01l0.031,0.029l0.022,0.037
		c0.078,0.126,0.363,0.486,0.641,0.486c0.003,0,0.005,0,0.009,0c0.208-0.005,0.445-0.233,0.67-0.641
		c0.037-0.064,0.204-0.375,0.459-0.689c0.014-0.018-0.067-3.785-0.067-3.785C8.448,7.934,6.61,8.152,4.694,8.835v3.986
		C4.813,12.712,4.924,12.604,5.021,12.495L5.021,12.495z"/>
	<path fill="#DCBF8D" d="M10.039,13.071c-0.308,0.465-0.658,0.78-1.045,0.791c-0.646,0.013-1.094-0.729-1.211-0.904
		c-0.601-0.578-0.95-0.803-1.2-0.783c-0.268,0.021-0.6,0.336-1.104,0.809c-0.219,0.206-0.479,0.449-0.786,0.721V15.5l5.34-0.024
		L10.039,13.071L10.039,13.071z"/>
	<path fill="#D5BA8A" d="M4.694,15.461c0,0-0.06,0.634,0.238,0.838c0.212,0.146,2.646,0.226,5.08,0.231
		c2.434,0.005,4.868-0.063,5.083-0.212c0.232-0.162,0.214-0.817,0.214-0.817s-2.073-0.36-5.312-0.36
		C6.759,15.141,4.694,15.462,4.694,15.461L4.694,15.461z"/>
	<path fill="#D2B488" d="M4.694,15.461c0,0-0.06,0.634,0.238,0.838c0.212,0.146,2.667,0.226,5.101,0.231V15.14
		C6.795,15.14,4.693,15.461,4.694,15.461L4.694,15.461z"/>
	<path fill="#DFC191" d="M6.583,11.957c0.251-0.021,0.6,0.206,1.2,0.783c0.117,0.177,0.564,0.917,1.211,0.903
		c0.471-0.011,0.89-0.477,1.238-1.113c0.179-0.303,0.678-0.92,1.063-0.911c0.246,0.008,0.448,0.298,0.577,0.544
		c0.063,0.154,0.401,0.905,1.064,0.991c0.455,0.06,0.907-0.212,1.342-0.804l1.031-1.104v-0.98l-1.534,1.641l-0.027,0.033
		c-0.275,0.379-0.533,0.574-0.726,0.551c-0.24-0.029-0.464-0.409-0.534-0.588l-0.015-0.031c-0.31-0.599-0.7-1.081-1.162-1.093
		c-0.009,0-0.021,0-0.028,0c-0.873,0-1.555,1.283-1.635,1.421c-0.225,0.407-0.462,0.636-0.67,0.641c-0.004,0-0.006,0-0.009,0
		c-0.277,0-0.694-0.553-0.694-0.553c-1.533-1.484-1.834-1.621-3.257-0.01c-0.098,0.11-0.207,0.218-0.327,0.328v0.881
		c0.307-0.271,0.567-0.515,0.786-0.721C5.982,12.292,6.314,11.979,6.583,11.957L6.583,11.957z"/>
	<path fill="#FFFFFA" d="M6.583,12.173c0.251-0.02,0.6,0.207,1.2,0.784c0.117,0.176,0.564,0.917,1.211,0.903
		c0.471-0.011,0.89-0.477,1.238-1.113c0.179-0.303,0.678-0.92,1.063-0.911c0.246,0.007,0.448,0.298,0.577,0.544
		c0.063,0.154,0.401,0.905,1.064,0.991c0.455,0.06,0.907-0.212,1.342-0.805l1.031-1.103v-0.98l-1.534,1.641l-0.027,0.033
		c-0.275,0.379-0.533,0.574-0.726,0.551c-0.24-0.029-0.464-0.41-0.534-0.588l-0.015-0.031c-0.31-0.6-0.7-1.081-1.162-1.093
		c-0.009,0-0.021,0-0.028,0c-0.873,0-1.555,1.282-1.635,1.421c-0.225,0.407-0.462,0.635-0.67,0.641c-0.004,0-0.006,0-0.009,0
		c-0.277,0-0.694-0.553-0.694-0.553c-1.486-1.521-1.834-1.622-3.257-0.01c-0.098,0.11-0.207,0.218-0.327,0.328v0.881
		c0.307-0.27,0.567-0.515,0.786-0.721c0.504-0.475,0.836-0.787,1.104-0.809L6.583,12.173z"/>
	<path fill="#DFC191" d="M15.31,9.337V8.835c0,0-4.976-2.011-10.616,0v0.502c0,0,2.677-0.726,5.189-0.726s5.425,0.726,5.425,0.726
		H15.31z"/>
</g>
</svg>
