<?xml version="1.0" encoding="utf-8"?>
<!-- Generated by IcoMoon.io -->
<!DOCTYPE svg PUBLIC "-//W3C//DTD SVG 1.1//EN" "http://www.w3.org/Graphics/SVG/1.1/DTD/svg11.dtd">
<svg version="1.1" xmlns="http://www.w3.org/2000/svg" xmlns:xlink="http://www.w3.org/1999/xlink" width="20" height="20" viewBox="0 0 20 20">
<path fill="rgb(249, 70, 70)" d="M10 0.309c-5.352 0-9.69 4.338-9.69 9.691s4.339 9.691 9.69 9.691c5.352 0 9.691-4.339 9.691-9.691s-4.339-9.691-9.691-9.691z"></path>
<path fill="rgb(74, 134, 197)" d="M19.229 12.957c0.035-0.111 0.068-0.223 0.099-0.336-0.031 0.113-0.065 0.225-0.099 0.336z"></path>
<path fill="rgb(204, 150, 0)" d="M9.33 4.72c-2.41 0.752 0.379 2.174 0.379 2.174-1.685-1.469-0.379-2.174-0.379-2.174z"></path>
<path fill="rgb(247, 202, 15)" d="M10.129 5.070c-0.318-0.785-1.532-0.787-1.957-0.013-0.454 0.826 1.329 1.952 1.329 1.952l0.207-0.116c-0.201-0.139-1.394-0.996-1.172-1.597 0.22-0.596 0.98-0.453 1.21 0.115 0.203 0.503 0.383 1.096 0.375 1.25l0.182-0.102c0 0 0.143-0.704-0.174-1.49z"></path>
<path fill="rgb(204, 150, 0)" d="M11.289 4.899c0 0 1.159 0.774-0.316 2.452 0 0 2.447-1.64 0.316-2.452z"></path>
<path fill="rgb(247, 202, 15)" d="M12.313 5.262c-0.381-0.865-1.452-0.845-1.726 0.043s-0.141 1.679-0.141 1.679l0.161 0.112c-0.009-0.174 0.145-0.844 0.32-1.412 0.198-0.643 0.868-0.815 1.067-0.146 0.2 0.673-0.845 1.655-1.021 1.814l0.184 0.127c0-0 1.563-1.294 1.156-2.217z"></path>
<path fill="rgb(204, 150, 0)" d="M10.828 3.814c-2.999-0.611-0.855 2.602-0.855 2.602-0.943-2.609 0.855-2.602 0.855-2.602z"></path>
<path fill="rgb(247, 202, 15)" d="M9.401 3.494c-0.961 0.633 0.284 2.926 0.284 2.926l0.287-0.004c-0.133-0.271-0.906-1.917-0.322-2.443 0.579-0.522 1.306 0.087 1.221 0.846-0.075 0.67-0.227 1.425-0.325 1.59l0.252-0.003c0 0 0.561-0.684 0.677-1.732s-1.174-1.772-2.074-1.179z"></path>
<path fill="rgb(247, 202, 15)" d="M12.57 5.025c-1.048 0.117-2.422 1.338-2.422 1.338l-0.004 0.692c0.736-1.208 1.606-1.438 2.28-1.426 0.589 0.010 1.031 1.037 0.846 1.222-0.555 0.555-2.172-0.189-2.443-0.323l-0.004 0.287c0 0 2.293 1.245 2.926 0.284 0.593-0.9-0.131-2.191-1.179-2.074z"></path>
<path fill="rgb(204, 150, 0)" d="M11.466 5.555c-0.226 0.047-0.934 0.425-1.318 0.808l-0.004 0.692c0 0 0.831-1.579 2.467-1.39 0 0-0.712-0.201-1.145-0.111z"></path>
<path fill="rgb(247, 202, 15)" d="M8.008 5.723c0.662-0.129 1.558-0.054 2.494 1.007l-0.124-0.681c0 0-1.566-0.964-2.618-0.896s-1.541 1.465-0.8 2.248c0.79 0.836 2.832-0.789 2.832-0.789l-0.054-0.282c-0.244 0.179-1.706 1.193-2.35 0.743-0.214-0.15 0.042-1.238 0.62-1.35z"></path>
<path fill="rgb(204, 150, 0)" d="M10.378 6.050c-0.444-0.311-1.207-0.559-1.438-0.567-0.442-0.013-1.109 0.308-1.109 0.308 1.578-0.471 2.671 0.94 2.671 0.94l-0.124-0.681z"></path>
<path fill="rgb(255, 223, 220)" d="M15.74 7.96h-11.468c-0.197 0-0.357 0.16-0.357 0.357v6.425c0 0.197 0.16 0.357 0.357 0.357h11.468c0.197 0 0.357-0.16 0.357-0.357v-6.425c0-0.197-0.159-0.357-0.357-0.357z"></path>
<path fill="rgb(255, 234, 233)" d="M15.74 7.96h-5.721l0.001 7.139h5.72c0.197 0 0.357-0.16 0.357-0.357v-6.425c0-0.197-0.159-0.357-0.357-0.357z"></path>
<path fill="rgb(219, 42, 42)" d="M6.079 9.765c-0.181 0.029-0.35 0.144-0.452 0.309l-0.021 0.030-0.014-0.015c-0.1-0.138-0.269-0.202-0.452-0.173-0.313 0.051-0.54 0.314-0.54 0.626 0 0.462 0.836 1.009 0.897 1.048 0.029 0.023 0.066 0.032 0.107 0.025s0.077-0.027 0.106-0.059c0.061-0.059 0.908-0.886 0.908-1.337-0-0.313-0.227-0.504-0.54-0.453z"></path>
<path fill="rgb(214, 30, 30)" d="M5.593 10.088c-0.1-0.138-0.269-0.202-0.452-0.173-0.313 0.051-0.54 0.314-0.54 0.626 0 0.462 0.836 1.009 0.897 1.048 0.029 0.023 0.066 0.032 0.107 0.025l0.003-1.511-0.014-0.015z"></path>
<path fill="rgb(219, 42, 42)" d="M8.6 12.4c-0.181 0.029-0.35 0.144-0.452 0.309l-0.021 0.030-0.014-0.016c-0.1-0.138-0.269-0.203-0.452-0.173-0.313 0.050-0.54 0.314-0.54 0.626 0 0.462 0.836 1.009 0.897 1.048 0.029 0.023 0.066 0.032 0.106 0.025s0.078-0.027 0.107-0.059c0.061-0.059 0.908-0.886 0.908-1.337-0-0.313-0.227-0.504-0.54-0.453z"></path>
<path fill="rgb(214, 30, 30)" d="M8.113 12.723c-0.1-0.138-0.269-0.203-0.452-0.173-0.313 0.050-0.54 0.314-0.54 0.626 0 0.462 0.836 1.009 0.897 1.048 0.029 0.023 0.066 0.032 0.106 0.025l0.003-1.511-0.014-0.016z"></path>
<path fill="rgb(219, 42, 42)" d="M12.18 9.347c-0.183-0.029-0.352 0.035-0.452 0.173l-0.014 0.015-0.021-0.030c-0.101-0.164-0.27-0.28-0.452-0.309-0.313-0.051-0.54 0.14-0.54 0.453 0 0.451 0.848 1.278 0.908 1.337 0.029 0.032 0.067 0.053 0.107 0.059s0.078-0.002 0.106-0.026c0.061-0.039 0.897-0.586 0.897-1.048-0-0.313-0.227-0.576-0.54-0.626z"></path>
<path fill="rgb(214, 30, 30)" d="M12.18 9.347c-0.183-0.029-0.352 0.035-0.452 0.173l-0.014 0.015 0.003 1.511c0.040 0.007 0.078-0.002 0.106-0.026 0.061-0.039 0.897-0.586 0.897-1.048-0-0.313-0.227-0.576-0.54-0.626z"></path>
<path fill="rgb(219, 42, 42)" d="M14.859 12.671c-0.183-0.029-0.352 0.036-0.452 0.173l-0.014 0.015-0.021-0.030c-0.101-0.164-0.27-0.28-0.452-0.309-0.313-0.050-0.54 0.141-0.54 0.453 0 0.451 0.847 1.278 0.908 1.337 0.029 0.032 0.067 0.053 0.106 0.060s0.078-0.003 0.107-0.026c0.061-0.039 0.897-0.586 0.897-1.048-0-0.313-0.227-0.576-0.54-0.626z"></path>
<path fill="rgb(214, 30, 30)" d="M14.859 12.671c-0.183-0.029-0.352 0.036-0.452 0.173l-0.014 0.015 0.003 1.511c0.040 0.006 0.078-0.003 0.107-0.026 0.061-0.039 0.897-0.586 0.897-1.048 0-0.313-0.227-0.576-0.54-0.626z"></path>
<path fill="rgb(242, 204, 204)" d="M16.131 7.547l-6.137-1.166-6.112 1.166c-0.21 0-0.381 0.17-0.381 0.381v1.125c0 0.21 0.171 0.381 0.381 0.381l6.125-1.168 6.125 1.168c0.211 0 0.381-0.171 0.381-0.381v-1.125c-0-0.211-0.171-0.381-0.381-0.381z"></path>
<path fill="rgb(255, 234, 233)" d="M16.512 8.845v-1.125c0-0.211-0.171-0.381-0.381-0.381l-6.137-1.17v1.887l6.38 1.171c0.151 0.012 0.138-0.171 0.138-0.381z"></path>
<path fill="rgb(255, 223, 220)" d="M3.881 7.339c-0.21 0-0.381 0.171-0.381 0.381v1.125c0 0.21 0 0.432 0.113 0.432l6.405-1.221v-1.887l-6.137 1.17z"></path>
</svg>
