<?xml version="1.0" encoding="utf-8"?>
<!-- Generated by IcoMoon.io -->
<!DOCTYPE svg PUBLIC "-//W3C//DTD SVG 1.1//EN" "http://www.w3.org/Graphics/SVG/1.1/DTD/svg11.dtd">
<svg version="1.1" xmlns="http://www.w3.org/2000/svg" xmlns:xlink="http://www.w3.org/1999/xlink" width="20" height="20" viewBox="0 0 20 20">
<path fill="rgb(237, 201, 47)" d="M10 0.309c-5.352 0-9.69 4.338-9.69 9.691s4.339 9.69 9.69 9.69c5.352 0 9.691-4.339 9.691-9.69s-4.339-9.691-9.691-9.691z"></path>
<path fill="rgb(133, 176, 110)" d="M9.344 15.648c0 0.458 0.303 2.811 0.678 2.811s0.678-2.354 0.678-2.811h-1.356z"></path>
<path fill="rgb(133, 176, 110)" d="M10.047 3.179c-0.638 0-1.155 0.617-1.155 1.782s0.517 1.782 1.155 1.782c0.638 0 1.155-0.617 1.155-1.782s-0.517-1.782-1.155-1.782z"></path>
<path fill="rgb(133, 176, 110)" d="M10.047 1.541c-0.829 0-1.501 0.62-1.501 1.789s0.672 1.789 1.501 1.789c0.829 0 1.501-0.619 1.501-1.789s-0.672-1.789-1.501-1.789z"></path>
<path fill="rgb(133, 176, 110)" d="M15.835 6.904c-0.373-0.373-1.096-0.254-1.891 0.541s-0.914 1.518-0.541 1.891c0.373 0.373 1.096 0.254 1.891-0.541s0.914-1.518 0.541-1.891z"></path>
<path fill="rgb(133, 176, 110)" d="M15.294 12.943c-0.795-0.795-1.518-0.914-1.891-0.541s-0.254 1.096 0.541 1.891c0.795 0.795 1.518 0.914 1.891 0.541s0.254-1.096-0.541-1.891z"></path>
<path fill="rgb(133, 176, 110)" d="M6.056 7.445c-0.795-0.795-1.518-0.914-1.891-0.541s-0.254 1.096 0.541 1.891c0.795 0.795 1.518 0.914 1.891 0.541s0.254-1.096-0.541-1.891z"></path>
<path fill="rgb(133, 176, 110)" d="M6.597 12.401c-0.373-0.373-1.096-0.254-1.891 0.541s-0.914 1.518-0.541 1.891c0.373 0.373 1.096 0.254 1.891-0.541s0.914-1.518 0.541-1.891z"></path>
<path fill="rgb(52, 124, 14)" d="M10.047 5.205c-2.911 0-5.272 1.896-5.272 5.472s2.36 5.472 5.272 5.472 5.271-1.895 5.271-5.472c0-3.577-2.36-5.472-5.271-5.472z"></path>
<path fill="rgb(93, 150, 62)" d="M10.047 5.674c-2.662 0-4.82 1.733-4.82 5.003s2.158 5.003 4.82 5.003 4.82-1.733 4.82-5.003c0-3.27-2.158-5.003-4.82-5.003z"></path>
<path fill="rgb(87, 132, 58)" d="M12.673 10.535l-1.255-1.678c-0.021-0.029-0.055-0.045-0.090-0.045h-2.51c-0.036 0-0.069 0.017-0.090 0.045l-1.255 1.678c-0.030 0.040-0.030 0.095 0 0.135l1.255 1.678c0.021 0.029 0.055 0.045 0.090 0.045h2.51c0.036 0 0.069-0.017 0.090-0.045l1.255-1.678c0.030-0.040 0.030-0.095 0-0.135z"></path>
<path fill="rgb(87, 132, 58)" d="M13.308 6.815h-0.297c-0.027 0-0.053 0.017-0.069 0.045l-0.958 1.678c-0.023 0.040-0.023 0.095 0 0.135l0.958 1.678c0.016 0.029 0.042 0.045 0.069 0.045h1.849c-0.061-1.586-0.647-2.788-1.553-3.583z"></path>
<path fill="rgb(87, 132, 58)" d="M8.179 8.483l-0.958-1.678c-0.016-0.029-0.042-0.045-0.069-0.045h-0.299c-0.932 0.784-1.542 1.987-1.617 3.583h1.916c0.027 0 0.053-0.017 0.069-0.045l0.958-1.678c0.023-0.040 0.023-0.095 0-0.135z"></path>
<path fill="rgb(87, 132, 58)" d="M12.673 6.544l-0.241-0.322c-0.703-0.362-1.517-0.547-2.385-0.547-0.834 0-1.619 0.171-2.303 0.505l-0.272 0.364c-0.030 0.040-0.030 0.095 0 0.135l1.255 1.679c0.021 0.028 0.055 0.045 0.090 0.045h2.51c0.036 0 0.069-0.017 0.090-0.045l1.255-1.679c0.030-0.040 0.030-0.095 0-0.135z"></path>
<path fill="rgb(87, 132, 58)" d="M14.833 10.901h-1.916c-0.027 0-0.053 0.017-0.069 0.045l-0.958 1.679c-0.023 0.040-0.023 0.095 0 0.135l0.958 1.678c0.016 0.028 0.042 0.045 0.069 0.045h0.452c0.879-0.803 1.442-2.003 1.492-3.576-0.009-0.004-0.019-0.007-0.029-0.007z"></path>
<path fill="rgb(87, 132, 58)" d="M8.273 12.568l-0.958-1.679c-0.016-0.028-0.042-0.045-0.069-0.045h-1.916c-0.027 0-0.053 0.017-0.069 0.045l-0.028 0.050c0.055 1.521 0.591 2.691 1.43 3.488h0.583c0.027 0 0.053-0.017 0.069-0.045l0.958-1.678c0.023-0.040 0.023-0.095 0-0.135z"></path>
<path fill="rgb(87, 132, 58)" d="M12.403 14.507l-1.125-1.678c-0.019-0.028-0.049-0.045-0.081-0.045h-2.249c-0.032 0-0.062 0.017-0.081 0.045l-1.125 1.678c-0.027 0.040-0.027 0.095 0 0.135l0.495 0.739c0.559 0.198 1.17 0.299 1.81 0.299 0.665 0 1.299-0.108 1.875-0.322l0.48-0.717c0.027-0.040 0.027-0.095-0-0.135z"></path>
</svg>
