<?xml version="1.0" encoding="utf-8"?>
<!-- Generated by IcoMoon.io -->
<!DOCTYPE svg PUBLIC "-//W3C//DTD SVG 1.1//EN" "http://www.w3.org/Graphics/SVG/1.1/DTD/svg11.dtd">
<svg version="1.1" xmlns="http://www.w3.org/2000/svg" xmlns:xlink="http://www.w3.org/1999/xlink" width="20" height="20" viewBox="0 0 20 20">
<path fill="rgb(234, 73, 73)" d="M10 0.309c-5.352 0-9.691 4.338-9.691 9.691s4.339 9.69 9.691 9.69c5.352 0 9.691-4.339 9.691-9.69s-4.339-9.691-9.691-9.691z"></path>
<path fill="rgb(53, 125, 142)" d="M8.789 10.981c0 0 0.529 7.383 1.182 7.383h0.025c0.653 0 1.182-7.383 1.182-7.383h-2.389z"></path>
<path fill="rgb(55, 130, 153)" d="M8.687 12.212c0 0 0.353 4.922 0.788 4.922h0.016c0.435 0 0.788-4.922 0.788-4.922h-1.593z"></path>
<path fill="rgb(55, 130, 153)" d="M9.703 12.212c0 0 0.353 4.922 0.788 4.922h0.016c0.435 0 0.788-4.922 0.788-4.922h-1.593z"></path>
<path fill="rgb(55, 130, 153)" d="M9.168 12.212c0 0 0.353 4.922 0.788 4.922h0.016c0.435 0 0.788-4.922 0.788-4.922h-1.593z"></path>
<path fill="rgb(67, 151, 170)" d="M8.238 10.758c0 0 0.353 4.922 0.788 4.922h0.016c0.436 0 0.789-4.922 0.789-4.922h-1.593z"></path>
<path fill="rgb(67, 151, 170)" d="M9.175 10.758c0 0 0.353 4.922 0.788 4.922h0.016c0.436 0 0.789-4.922 0.789-4.922h-1.593z"></path>
<path fill="rgb(67, 151, 170)" d="M10.132 10.758c0 0 0.353 4.922 0.788 4.922h0.016c0.435 0 0.788-4.922 0.788-4.922h-1.593z"></path>
<path fill="rgb(237, 201, 47)" d="M10.439 6.205h-0.812c-1.009 0-1.878 0.236-1.878 0.877l0.146 3.39c0 0.641 0.765 1.16 1.708 1.16h0.759c0.943 0 1.708-0.519 1.708-1.16l0.146-3.39c0-0.641-0.768-0.877-1.778-0.877z"></path>
<path fill="rgb(237, 201, 47)" d="M11.19 4.937c0-0.631-2.499-0.631-2.499 0l-0.296 1.372c0 0.631 3.092 0.631 3.092 0l-0.296-1.372z"></path>
<path fill="rgb(63, 140, 170)" d="M11.564 6.268c-0.675 0 0 6.463 0 6.463 0.675 0 1.222-1.447 1.222-3.231s-0.547-3.232-1.222-3.232z"></path>
<path fill="rgb(63, 140, 170)" d="M8.367 6.268c-0.675 0-1.222 1.447-1.222 3.232s0.547 3.231 1.222 3.231c0 0 0.675-6.463 0-6.463z"></path>
<path fill="rgb(150, 116, 75)" d="M15.694 12.711l0.602-0.251h-15.671c0.083 0.317 0.182 0.627 0.295 0.931h15.194l0.115-0.12-0.287-0.169 0.33-0.199-0.579-0.193z"></path>
<path fill="rgb(99, 80, 33)" d="M10.628 12.298c-0.025-0.052-0.044-0.095-0.111-0.063-0.019 0.010-0.046 0.030-0.073 0.054-0.067 0.060-0.116 0.195-0.108 0.212 0.005 0.010 0.107-0.042 0.199-0.057 0.031-0.005 0.057-0.012 0.074-0.020 0.067-0.033 0.045-0.074 0.020-0.126z"></path>
<path fill="rgb(99, 80, 33)" d="M10.799 12.292c-0.029-0.022-0.057-0.039-0.077-0.047-0.070-0.027-0.085 0.018-0.106 0.072s-0.040 0.097 0.030 0.124c0.017 0.007 0.045 0.011 0.075 0.014 0.092 0.008 0.199 0.051 0.203 0.040 0.007-0.018-0.053-0.149-0.125-0.203z"></path>
<path fill="rgb(99, 80, 33)" d="M10.508 11.665h0.229v0.794h-0.229v-0.794z"></path>
<path fill="rgb(99, 80, 33)" d="M10.83 12.501c-0.004-0.036-0.010-0.069-0.018-0.089-0.028-0.070-0.071-0.050-0.125-0.029s-0.099 0.037-0.071 0.107c0.007 0.017 0.022 0.040 0.041 0.065 0.057 0.073 0.098 0.18 0.108 0.176 0.018-0.007 0.073-0.14 0.064-0.23z"></path>
<path fill="rgb(99, 80, 33)" d="M10.576 12.378c-0.053-0.024-0.095-0.046-0.126 0.022-0.009 0.020-0.017 0.052-0.023 0.088-0.014 0.089 0.034 0.225 0.051 0.233 0.010 0.004 0.057-0.1 0.118-0.17 0.020-0.023 0.037-0.045 0.045-0.062 0.032-0.068-0.012-0.086-0.065-0.11z"></path>
<path fill="rgb(237, 201, 47)" d="M10.716 11.215h-0.148c-0.184 0-0.332 0.081-0.332 0.182l0.177 0.531c0 0.1 0.084 0.182 0.187 0.182h0.083c0.104 0 0.187-0.081 0.187-0.182l0.177-0.531c0-0.1-0.149-0.182-0.332-0.182z"></path>
<path fill="rgb(99, 80, 33)" d="M9.145 11.661h0.23v0.794h-0.23v-0.794z"></path>
<path fill="rgb(99, 80, 33)" d="M9.267 12.298c-0.025-0.052-0.044-0.095-0.111-0.063-0.019 0.010-0.046 0.030-0.073 0.054-0.067 0.060-0.116 0.195-0.108 0.212 0.005 0.010 0.107-0.042 0.199-0.057 0.030-0.005 0.057-0.012 0.074-0.020 0.067-0.033 0.045-0.074 0.020-0.126z"></path>
<path fill="rgb(99, 80, 33)" d="M9.438 12.292c-0.029-0.022-0.057-0.039-0.077-0.047-0.070-0.027-0.085 0.018-0.106 0.072s-0.040 0.097 0.030 0.124c0.018 0.007 0.045 0.011 0.075 0.014 0.092 0.008 0.199 0.051 0.203 0.040 0.007-0.018-0.053-0.149-0.125-0.203z"></path>
<path fill="rgb(99, 80, 33)" d="M9.458 12.501c-0.004-0.036-0.010-0.069-0.018-0.089-0.028-0.070-0.071-0.050-0.125-0.029s-0.099 0.037-0.071 0.107c0.007 0.017 0.022 0.040 0.041 0.065 0.057 0.073 0.098 0.18 0.108 0.176 0.018-0.007 0.073-0.14 0.064-0.23z"></path>
<path fill="rgb(99, 80, 33)" d="M9.204 12.378c-0.053-0.024-0.095-0.046-0.126 0.022-0.009 0.020-0.017 0.052-0.023 0.088-0.014 0.089 0.034 0.225 0.051 0.233 0.010 0.004 0.057-0.1 0.118-0.17 0.020-0.023 0.037-0.045 0.045-0.062 0.032-0.068-0.012-0.086-0.065-0.11z"></path>
<path fill="rgb(237, 201, 47)" d="M9.354 11.215h-0.148c-0.183 0-0.332 0.081-0.332 0.182l0.177 0.531c0 0.1 0.084 0.182 0.187 0.182h0.083c0.104 0 0.187-0.081 0.187-0.182l0.177-0.531c-0-0.1-0.149-0.182-0.332-0.182z"></path>
<path fill="rgb(132, 119, 65)" d="M11.19 4.89v-0.793c0-0.631-0.491-1.142-1.097-1.142h-0.305c-0.606 0-1.097 0.511-1.097 1.142v0.793c0 0.125 0.045 0.507 0.045 0.507 0.068-0.060 0.229-0.022 0.229-0.022l-0.019 0.348c0.095-0.076 0.229-0.067 0.229-0.067l0.085 0.361c0.055-0.136 0.179-0.198 0.179-0.198l0.188 0.203c0.027-0.112 0.161-0.143 0.161-0.143 0.053 0.024 0.158 0.151 0.158 0.151 0.029-0.103 0.21-0.204 0.21-0.204s0.163 0.075 0.174 0.181l0.089-0.266c0 0 0.194 0.007 0.276 0.106l0.070-0.288c0 0 0.192-0.085 0.309 0.032 0.006 0.006-0.053-0.244-0.053-0.244s0.093-0.041 0.177 0.014c0 0-0.003-0.129-0.005-0.21 0 0 0.024-0.065 0.1-0.024 0.050 0.027-0.105-0.203-0.105-0.234z"></path>
<path fill="rgb(249, 243, 220)" d="M10.093 2.819h-0.305c-0.606 0-1.097 0.511-1.097 1.142v0.518c0 0.631 0.491 1.142 1.097 1.142h0.305c0.606 0 1.097-0.511 1.097-1.142v-0.518c-0-0.631-0.491-1.142-1.097-1.142z"></path>
<path fill="rgb(79, 79, 79)" d="M9.968 4.277c-0.118-0.005-0.604 0.357-0.604 0.491s0.115 0.698 0.592 0.698 0.592-0.566 0.592-0.698-0.468-0.487-0.58-0.491z"></path>
<path fill="rgb(94, 94, 94)" d="M9.956 3.876c-0.368 0-0.537 0.652-0.537 0.821s0.18 0.534 0.266 0.747c0.123 0.302 0.271 0.542 0.271 0.542s0.146-0.236 0.268-0.535c0.088-0.215 0.269-0.582 0.269-0.754s-0.169-0.821-0.537-0.821z"></path>
<path fill="rgb(170, 164, 147)" d="M9.328 3.082h-0.241c-0.242 0.209-0.396 0.525-0.396 0.879v0.518c0 0.045 0.003 0.088 0.008 0.132 0.215-0.071 0.439-0.166 0.528-0.278 0.191-0.242 0.102-1.249 0.102-1.249z"></path>
<path fill="rgb(94, 94, 94)" d="M9.124 3.962c0 0.19-0.051 0.344-0.115 0.344s-0.115-0.154-0.115-0.344c0-0.19 0.051-0.344 0.115-0.344s0.115 0.154 0.115 0.344z"></path>
<path fill="rgb(170, 164, 147)" d="M10.798 3.082h-0.241c0 0-0.089 1.007 0.102 1.249 0.089 0.112 0.313 0.208 0.528 0.278 0.005-0.043 0.008-0.087 0.008-0.132v-0.518c-0-0.354-0.154-0.669-0.397-0.879z"></path>
<path fill="rgb(94, 94, 94)" d="M10.991 3.962c0 0.19-0.051 0.344-0.115 0.344s-0.115-0.154-0.115-0.344c0-0.19 0.051-0.344 0.115-0.344s0.115 0.154 0.115 0.344z"></path>
</svg>
