<?xml version="1.0" encoding="utf-8"?>
<!-- Generated by IcoMoon.io -->
<!DOCTYPE svg PUBLIC "-//W3C//DTD SVG 1.1//EN" "http://www.w3.org/Graphics/SVG/1.1/DTD/svg11.dtd">
<svg version="1.1" xmlns="http://www.w3.org/2000/svg" xmlns:xlink="http://www.w3.org/1999/xlink" width="20" height="20" viewBox="0 0 20 20">
<path fill="rgb(214, 175, 226)" d="M10 0.309c-5.352 0-9.69 4.338-9.69 9.691s4.339 9.69 9.69 9.69c5.352 0 9.691-4.339 9.691-9.69s-4.339-9.691-9.691-9.691z"></path>
<path fill="rgb(255, 255, 255)" d="M14.801 15.432h-9.601c-0.204 0-0.369 0.165-0.369 0.369v0.345c0 0.204 0.165 0.369 0.369 0.369h9.601c0.204 0 0.369-0.165 0.369-0.369v-0.345c0-0.204-0.166-0.369-0.369-0.369z"></path>
<path fill="rgb(255, 255, 255)" d="M14.519 12.835h-9.152c-0.095 0-0.173 0.084-0.173 0.187v0.175c0 0.103 0.077 0.187 0.173 0.187h9.152c0.095 0 0.173-0.084 0.173-0.187v-0.175c0-0.103-0.077-0.187-0.173-0.187z"></path>
<path fill="rgb(255, 255, 255)" d="M14.519 10.199h-9.152c-0.095 0-0.173 0.084-0.173 0.187v0.175c0 0.104 0.077 0.187 0.173 0.187h9.152c0.095 0 0.173-0.084 0.173-0.187v-0.175c0-0.104-0.077-0.187-0.173-0.187z"></path>
<path fill="rgb(255, 255, 255)" d="M14.383 7.562h-8.879c-0.093 0-0.167 0.084-0.167 0.187v0.175c0 0.103 0.075 0.187 0.167 0.187h8.879c0.093 0 0.168-0.084 0.168-0.187v-0.175c0-0.103-0.075-0.187-0.168-0.187z"></path>
<path fill="rgb(255, 255, 255)" d="M9.323 4.516h-0.175c-0.103 0-0.187 0.077-0.187 0.173 0 0-0.742 1.436-0.742 4.378 0 1.304 0 6.564 0 6.564 0 0.095 0.084 0.173 0.187 0.173h0.175c0.104 0 0.187-0.077 0.187-0.173v-6.564c0-2.984 0.742-4.377 0.742-4.377 0-0.095-0.084-0.173-0.187-0.173z"></path>
<path fill="rgb(255, 255, 255)" d="M10.903 4.688c0-0.095-0.084-0.173-0.187-0.173h-0.175c-0.103 0-0.187 0.077-0.187 0.173 0 0 0.742 1.394 0.742 4.378v6.564c0 0.095 0.084 0.173 0.187 0.173h0.175c0.103 0 0.187-0.077 0.187-0.173 0 0 0-5.26 0-6.564-0-2.942-0.742-4.377-0.742-4.377z"></path>
<path fill="rgb(255, 255, 255)" d="M9.955 4.185c-2.532 0-4.584 2.052-4.584 4.584v7.569h9.167v-7.569c0-2.531-2.052-4.584-4.583-4.584zM13.978 15.417h-8.046v-6.644c0-2.222 1.801-4.023 4.023-4.023s4.023 1.801 4.023 4.023v6.644z"></path>
<path fill="rgb(255, 255, 255)" d="M9.95 1.802c-0.589 0-1.066 0.478-1.066 1.066s0.477 1.066 1.066 1.066 1.066-0.477 1.066-1.066c0-0.589-0.477-1.066-1.066-1.066zM9.95 3.509c-0.354 0-0.641-0.287-0.641-0.641s0.287-0.641 0.641-0.641 0.641 0.287 0.641 0.641-0.287 0.641-0.641 0.641z"></path>
<path fill="rgb(211, 211, 211)" d="M10.037 3.245h-0.174c-0.102 0-0.186 0.086-0.186 0.192v1.374c0 0.106 0.083 0.192 0.186 0.192h0.174c0.103 0 0.186-0.086 0.186-0.192v-1.374c0-0.106-0.083-0.192-0.186-0.192z"></path>
</svg>
