<?xml version="1.0" encoding="utf-8"?>
<!-- Generated by IcoMoon.io -->
<!DOCTYPE svg PUBLIC "-//W3C//DTD SVG 1.1//EN" "http://www.w3.org/Graphics/SVG/1.1/DTD/svg11.dtd">
<svg version="1.1" xmlns="http://www.w3.org/2000/svg" xmlns:xlink="http://www.w3.org/1999/xlink" width="20" height="20" viewBox="0 0 20 20">
<path fill="rgb(216, 219, 186)" d="M10 0.309c-5.352 0-9.69 4.338-9.69 9.691 0 5.351 4.339 9.69 9.69 9.69s9.691-4.339 9.691-9.69c0-5.353-4.339-9.691-9.691-9.691z"></path>
<path fill="rgb(206, 143, 32)" d="M10 5.381c-2.747 0-4.975 4.245-4.975 7.462s2.227 4.189 4.975 4.189c2.748 0 4.975-0.972 4.975-4.189s-2.227-7.462-4.975-7.462z"></path>
<path fill="rgb(244, 244, 244)" d="M10 7.517c-1.74 0-3.151 2.688-3.151 4.726s1.411 2.653 3.151 2.653c1.74 0 3.151-0.615 3.151-2.653s-1.41-4.726-3.151-4.726z"></path>
<path fill="rgb(175, 115, 27)" d="M10 4.165c-1.756 0-3.178 0.605-3.178 2.609s1.423 3.56 3.178 3.56c1.755 0 3.178-1.556 3.178-3.56s-1.423-2.609-3.178-2.609z"></path>
<path fill="rgb(234, 226, 214)" d="M9.887 8.56h-0.31c-0.052 0-0.094 0.077-0.094 0.171v0.967c0 0.095 0.042 0.172 0.094 0.172h0.31c0.052 0 0.094-0.077 0.094-0.172v-0.967c0-0.095-0.042-0.171-0.094-0.171z"></path>
<path fill="rgb(234, 226, 214)" d="M10.412 8.56h-0.31c-0.052 0-0.094 0.077-0.094 0.171v0.967c0 0.095 0.042 0.172 0.094 0.172h0.31c0.052 0 0.094-0.077 0.094-0.172v-0.967c0-0.095-0.042-0.171-0.094-0.171z"></path>
<path fill="rgb(191, 128, 27)" d="M10 3.618c-2.015 0-3.648 0.713-3.648 3.072 0 1.014 0.302 1.93 0.806 2.646 0.209-1.87 1.402-2.457 2.842-2.457s2.632 0.587 2.842 2.457c0.504-0.715 0.806-1.631 0.806-2.646 0-2.359-1.634-3.072-3.648-3.072z"></path>
<path fill="rgb(191, 128, 27)" d="M8.609 3.75c-0.242-0.666-1.021-1.376-1.59-1.17s-0.71 1.252-0.468 1.917c0.242 0.665 0.776 0.699 1.344 0.493s0.956-0.575 0.714-1.24z"></path>
<path fill="rgb(191, 128, 27)" d="M13.034 2.581c-0.568-0.207-1.348 0.504-1.59 1.17s0.146 1.034 0.714 1.24c0.568 0.206 1.102 0.173 1.344-0.493s0.1-1.711-0.468-1.917z"></path>
<path fill="rgb(175, 115, 27)" d="M13.702 8.22c-0.158 0.14-0.315 0.285-0.471 0.44-1.608 1.608-2.4 3.424-1.769 4.055 0.547 0.547 1.982 0.024 3.402-1.171-0.185-1.136-0.593-2.309-1.163-3.324z"></path>
<path fill="rgb(175, 115, 27)" d="M6.783 8.66c-0.159-0.159-0.319-0.307-0.48-0.449-0.57 1.013-0.98 2.186-1.165 3.322 1.424 1.202 2.866 1.729 3.415 1.181 0.631-0.631-0.161-2.447-1.769-4.055z"></path>
<path fill="rgb(191, 128, 27)" d="M11.62 4.724c-1.34 0-2.426 1.086-2.426 2.426s1.086 2.426 2.426 2.426c1.34 0 2.425-1.086 2.425-2.426s-1.086-2.426-2.425-2.426z"></path>
<path fill="rgb(191, 128, 27)" d="M8.367 4.724c-1.34 0-2.426 1.086-2.426 2.426s1.086 2.426 2.426 2.426c1.339 0 2.426-1.086 2.426-2.426s-1.086-2.426-2.426-2.426z"></path>
<path fill="rgb(0, 0, 0)" d="M9.049 5.809c0 0.359-0.225 0.65-0.501 0.65s-0.501-0.291-0.501-0.65c0-0.359 0.225-0.65 0.501-0.65s0.501 0.291 0.501 0.65z"></path>
<path fill="rgb(0, 0, 0)" d="M11.634 5.159c-0.277 0-0.501 0.291-0.501 0.65s0.224 0.65 0.501 0.65c0.277 0 0.501-0.291 0.501-0.65s-0.224-0.65-0.501-0.65z"></path>
<path fill="rgb(255, 255, 255)" d="M12.005 5.527c0 0.097-0.079 0.176-0.176 0.176s-0.176-0.079-0.176-0.176c0-0.097 0.079-0.176 0.176-0.176s0.176 0.079 0.176 0.176z"></path>
<path fill="rgb(255, 255, 255)" d="M8.899 5.527c0 0.097-0.079 0.176-0.176 0.176s-0.176-0.079-0.176-0.176c0-0.097 0.079-0.176 0.176-0.176s0.176 0.079 0.176 0.176z"></path>
<path fill="rgb(178, 117, 27)" d="M10.971 7.617c0 0-0.425-0.198-0.991-0.198s-0.953 0.198-0.953 0.198c-0.069 0.080-0.069 0.209 0 0.289l0.848 0.984c0.069 0.080 0.18 0.080 0.249 0l0.848-0.984c0.069-0.080 0.069-0.209 0-0.289z"></path>
<path fill="rgb(175, 115, 27)" d="M7.341 16.188c-0.702 0-1.271 0.277-1.271 0.619s2.543 0.342 2.543 0c0-0.342-0.569-0.619-1.271-0.619z"></path>
<path fill="rgb(175, 115, 27)" d="M12.702 16.188c-0.702 0-1.271 0.277-1.271 0.619s2.543 0.342 2.543 0c0-0.342-0.569-0.619-1.271-0.619z"></path>
</svg>
