<?xml version="1.0" encoding="utf-8"?>
<!-- Generated by IcoMoon.io -->
<!DOCTYPE svg PUBLIC "-//W3C//DTD SVG 1.1//EN" "http://www.w3.org/Graphics/SVG/1.1/DTD/svg11.dtd">
<svg version="1.1" xmlns="http://www.w3.org/2000/svg" xmlns:xlink="http://www.w3.org/1999/xlink" width="20" height="20" viewBox="0 0 20 20">
<path fill="rgb(51, 113, 128)" d="M10 0.309c-5.352 0-9.69 4.338-9.69 9.691s4.339 9.69 9.69 9.69c5.352 0 9.691-4.339 9.691-9.69s-4.339-9.691-9.691-9.691z"></path>
<path fill="rgb(214, 229, 228)" d="M15.676 4.934h-11.289c-0.491 0-0.89 0.398-0.89 0.89s0.399 0.89 0.89 0.89h11.289c0.491 0 0.89-0.398 0.89-0.89s-0.399-0.89-0.89-0.89z"></path>
<path fill="rgb(214, 229, 228)" d="M12.683 16.474h-5.303c-0.231 0-0.418 0.096-0.418 0.214s0.187 0.214 0.418 0.214h5.303c0.231 0 0.418-0.096 0.418-0.214s-0.187-0.214-0.418-0.214z"></path>
<path fill="rgb(214, 229, 228)" d="M15.134 6.678h-10.28c-0.888 1.119-1.42 2.534-1.42 4.074 0 2.542 1.446 4.744 3.56 5.834h6c2.114-1.089 3.56-3.292 3.56-5.834-0-1.54-0.532-2.955-1.42-4.074z"></path>
<path fill="rgb(200, 214, 212)" d="M15.473 8.132c0 0-1.769-0.459-5.403 0s-5.556 0-5.556 0c-0.397 0.81-0.622 1.719-0.622 2.682 0 2.364 1.345 4.412 3.311 5.425h5.58c1.966-1.013 3.311-3.061 3.311-5.425-0-0.963-0.224-1.872-0.622-2.682z"></path>
<path fill="rgb(135, 198, 158)" d="M11.198 12.048c0.88 1.415 0.139 3.277 0.139 3.277l0.493-0.032c1.054-2.706-0.633-3.245-0.633-3.245z"></path>
<path fill="rgb(132, 175, 146)" d="M11.054 13.237c0.621 0.977 0.119 2.274 0.119 2.274l0.342-0.026c0.714-1.885-0.461-2.249-0.461-2.249z"></path>
<path fill="rgb(119, 183, 141)" d="M12.928 13.032c0 0-1.373 0.214-0.883 2.44l0.378 0.085c0 0-0.35-1.533 0.504-2.524z"></path>
<path fill="rgb(96, 96, 96)" d="M12.485 15.539c-0.051-0.25-0.272-0.438-0.537-0.438-0.234 0-0.433 0.148-0.511 0.354-0.033-0.006-0.066-0.010-0.101-0.010-0.043 0-0.084 0.006-0.124 0.016-0.090-0.179-0.274-0.302-0.488-0.302-0.147 0-0.279 0.059-0.378 0.153-0.1-0.138-0.261-0.229-0.444-0.229-0.201 0-0.376 0.11-0.471 0.272-0.015-0.001-0.030-0.004-0.045-0.004-0.149 0-0.284 0.060-0.382 0.156-0.099-0.096-0.233-0.156-0.383-0.156-0.097 0-0.187 0.027-0.266 0.072-0.091-0.068-0.204-0.11-0.327-0.11-0.2 0-0.374 0.108-0.469 0.269-0.003 0-0.006-0.001-0.009-0.001-0.302 0-0.547 0.245-0.548 0.547 0.068 0.038 0.134 0.078 0.203 0.114h5.58c0.009-0.004 0.017-0.010 0.026-0.014 0.019-0.055 0.031-0.113 0.031-0.174 0-0.235-0.148-0.433-0.355-0.512z"></path>
<path fill="rgb(221, 107, 3)" d="M7.962 9.825c-1.553 0-2.264 0.958-2.264 1.263 0 0.283 0.711 1.262 2.264 1.262s3.831-1.049 3.831-1.262c0-0.253-2.279-1.263-3.831-1.263z"></path>
<path fill="rgb(221, 107, 3)" d="M12.751 9.825c0 0-1.518 0.565-1.518 1.263s1.518 1.262 1.518 1.262l-0.582-1.284 0.582-1.241z"></path>
<path fill="rgb(221, 107, 3)" d="M8.142 9.956l1.742 0.653v-1.35c-0.871-0.087-1.742 0.696-1.742 0.696z"></path>
<path fill="rgb(221, 107, 3)" d="M8.142 11.952c0 0 0.871 0.784 1.742 0.696v-1.35l-1.742 0.653z"></path>
<path fill="rgb(25, 25, 25)" d="M7.38 10.391c-0.18 0-0.327 0.146-0.327 0.326s0.147 0.326 0.327 0.326c0.18 0 0.326-0.146 0.326-0.326s-0.146-0.326-0.326-0.326z"></path>
</svg>
