<?xml version="1.0" encoding="utf-8"?>
<!-- Generated by IcoMoon.io -->
<!DOCTYPE svg PUBLIC "-//W3C//DTD SVG 1.1//EN" "http://www.w3.org/Graphics/SVG/1.1/DTD/svg11.dtd">
<svg version="1.1" xmlns="http://www.w3.org/2000/svg" xmlns:xlink="http://www.w3.org/1999/xlink" width="20" height="20" viewBox="0 0 20 20">
<path fill="rgb(74, 188, 150)" d="M10 0.309c-5.352 0-9.69 4.338-9.69 9.691s4.339 9.69 9.69 9.69c5.352 0 9.691-4.339 9.691-9.69s-4.339-9.691-9.691-9.691z"></path>
<path fill="rgb(119, 96, 70)" d="M8.141 11.355c0 0 0.223-0.090 0.551-0.197-0.255-0.373-0.448-0.794-0.56-1.254-0.028-0.114-0.049-0.229-0.066-0.344-0.005-0.015-0.011-0.030-0.016-0.045-0.1 0.033-0.201 0.064-0.305 0.089-0.955 0.232-1.926 0.077-2.744-0.36-0.15 0.325-0.172 0.685 0.002 1.065 0.352 0.767 1.073 2.057 1.073 2.057 0.078 0.514-0.457 1.231-0.704 1.531-0.073 0.088-0.081 0.089-0.088 0.154s0.006 0.137 0.006 0.137l0.442 1.716c0 0 0.019 0.055 0.061 0.090s0.099 0.024 0.099 0.024l1.165-0.045c-0.045-0.68-0.619-0.45-0.619-0.45l-0.114-1.147c1.616-1.503 1.818-3.023 1.818-3.023z"></path>
<path fill="rgb(119, 96, 70)" d="M12.58 15.055l0.5-3.495c0.117-0.111 0.237-0.282 0.352-0.477-0.107-0.023-0.211-0.051-0.314-0.083-0.484 0.126-0.996 0.161-1.514 0.087-0.214 0.202-0.451 0.377-0.703 0.528-0.025 0.093-0.054 0.185-0.086 0.275 0.29 0.068 0.476 0.109 0.476 0.109 0.701 0.803 0.729 2.799 0.728 3.383-0 0.050-0.005 0.181 0.025 0.226 0.029 0.044 0.178 0.063 0.178 0.063l0.799 0.109c0.322-0.508-0.44-0.725-0.44-0.725z"></path>
<path fill="rgb(73, 62, 48)" d="M3.296 10.389c-0.446 0.178-1.122 0.115-1.428 0.421 0 0 0.918 0.319 1.403 0.127s1.058-0.599 1.058-0.599l0.571-1.45c0 0-1.157 1.323-1.603 1.501z"></path>
<path fill="rgb(130, 106, 77)" d="M17.185 6.089c-0.095-0.244-1.436-0.456-1.436-0.456-0.438-0.263-0.117-0.66-0.97-1.069-0.334-0.16-1.006-0.051-1.291 0.168-0.43 0.331-0.705 0.925-0.878 1.615-0.306 1.224-0.395 1.556-0.893 1.766-1.647 0.697-3.045 0.222-4.38 0.159s-3.341 0.561-3.060 2.002c0.161 0.829 0.557 2.252 0.557 2.252-0.045 0.518-0.734 1.089-1.045 1.321-0.092 0.069-0.1 0.068-0.122 0.129s-0.027 0.135-0.027 0.135l0.025 1.772c0 0 0.006 0.058 0.038 0.102s0.091 0.046 0.091 0.046l1.098 0.052c0.117-0.671-0.496-0.583-0.496-0.583l0.204-0.963c1.925-1.079 2.479-2.509 2.479-2.509s1.206-0.18 2.122-0.029c1.237 0.204 3.041 0.292 3.041 0.292 0.825 0.675 1.183 2.639 1.28 3.215 0.008 0.050 0.025 0.179 0.062 0.219 0.036 0.038 0.186 0.033 0.186 0.033l0.806-0.025c0.233-0.554-0.554-0.642-0.554-0.642l-0.088-3.529c0.35-0.467 0.53-1.79 0.556-2.144 0.025-0.357 0.268-0.536 0.587-1.395 0.325-0.875 0.613-0.846 0.613-0.846s0.597-0.025 0.751-0.048c0.598-0.088 0.838-0.799 0.744-1.043z"></path>
<path fill="rgb(73, 62, 48)" d="M17.185 6.089c-0.024-0.061-0.125-0.12-0.264-0.174l-0.159 0.313c0.124 0.124 0.419 0.168 0.419 0.168 0.030-0.124 0.031-0.235 0.004-0.307z"></path>
<path fill="rgb(99, 73, 46)" d="M14.516 6.482c0 0-0.022-0.022-0.066 0.12s0.082 0.777-0.11 0.837c-0.191 0.060-1.024-0.67-1.068-0.812s0.515-0.9 0.756-1.299c0.063-0.105 0.256-0.159 0.263-0.186 0.009-0.041-0.284-0.001-0.29 0.006-0.091 0.103-0.885 1.345-0.853 1.491 0.038 0.17 1.033 1.031 1.257 0.872s0.109-1.028 0.109-1.028z"></path>
<path fill="rgb(99, 73, 46)" d="M11.718 11.214c-0.066-0.237 0.080-0.813 0.087-0.864s-0.022-0.066-0.022-0.066-0.263 0.809-0.226 0.955c0.036 0.146 0.686 1.054 0.686 1.054l0.146 0.127c0 0-0.605-0.97-0.671-1.207z"></path>
<path fill="rgb(73, 62, 48)" d="M14.95 5.33c-0.029 0-0.079 0.093-0.106 0.179-0.037 0.122-0.042 0.238-0.013 0.245 0.086 0.020 0.476-0.040 0.476-0.126-0-0.132-0.328-0.298-0.357-0.298z"></path>
</svg>
