<?xml version="1.0" encoding="utf-8"?>
<!-- Generated by IcoMoon.io -->
<!DOCTYPE svg PUBLIC "-//W3C//DTD SVG 1.1//EN" "http://www.w3.org/Graphics/SVG/1.1/DTD/svg11.dtd">
<svg version="1.1" xmlns="http://www.w3.org/2000/svg" xmlns:xlink="http://www.w3.org/1999/xlink" width="20" height="20" viewBox="0 0 20 20">
<path fill="rgb(163, 213, 224)" d="M10 0.309c-5.352 0-9.69 4.338-9.69 9.691s4.339 9.691 9.69 9.691c5.352 0 9.691-4.339 9.691-9.691s-4.339-9.691-9.691-9.691z"></path>
<path fill="rgb(147, 120, 61)" d="M1.681 14.971c1.693 2.827 4.784 4.72 8.319 4.72s6.626-1.893 8.319-4.72h-16.638z"></path>
<path fill="rgb(224, 148, 47)" d="M10.987 3.884l-0.899-1.167c0 0-0.459-0.408-0.459 0.153 0 0 0.3 1.313 0.223 1.645l1.135-0.631z"></path>
<path fill="rgb(224, 148, 47)" d="M13.626 2.908c0-0.561-0.459-0.153-0.459-0.153l-0.899 1.167 1.135 0.631c-0.076-0.332 0.223-1.645 0.223-1.645z"></path>
<path fill="rgb(231, 158, 47)" d="M13.050 6.365c0 0 0.78-0.856 0.352-1.861 0 0-0.609-0.961-1.714-0.984-0.753-0.016-1.53 0.28-1.785 0.765-0.292 0.555 0 1.224 0.153 1.785 0 0-0.325 0.345-0.576 0.596s-1.609 0.654-2.213 1.459c-0.604 0.804-1.932 2.112-1.927 3.923 0 0 0.082 1.358 0.062 2.249-0.007 0.297 1.167 0.668 1.167 0.668h4.219c0 0 0.614-0.136 0.553-0.352s-0.201-0.251-0.503-0.302h-0.503c0 0 0.41-0.361 0.553-0.855l0.453 0.754c0 0 0.354 0.66 0.453 0.754s0.556 0.109 0.754 0c0.199-0.109 0.293-0.584 0.201-0.754s-0.453-0.251-0.453-0.251l-0.151-3.47c0 0 1.207-1.861 0.905-4.124z"></path>
<path fill="rgb(224, 148, 47)" d="M13.402 4.504c0 0-0.609-0.961-1.714-0.984-0.753-0.016-1.53 0.28-1.785 0.765-0.292 0.555 0 1.224 0.153 1.785 0 0-0.316 0.354-0.576 0.596-1.285 1.195 2.665 3.822 2.665 3.822s1.207-1.861 0.905-4.124c0-0 0.78-0.856 0.352-1.861z"></path>
<path fill="rgb(231, 158, 47)" d="M10.013 15.905c-0.518 0.201-3.903 1.31-3.272-1.444l-1.339-0.164c0 0-0.325 1.388 0.363 2.038s2.066 1.473 4.65-0.33c0-0 0.116-0.301-0.402-0.101z"></path>
<path fill="rgb(224, 156, 75)" d="M11.636 5.418c-0.314 0-0.568 0.244-0.568 0.544s0.254 0.544 0.568 0.544c0.314 0 0.568-0.243 0.568-0.544s-0.254-0.544-0.568-0.544z"></path>
<path fill="rgb(234, 170, 84)" d="M11.145 5.276c-0.314 0-0.568 0.243-0.568 0.544s0.254 0.544 0.568 0.544c0.314 0 0.568-0.244 0.568-0.544s-0.254-0.544-0.568-0.544z"></path>
<path fill="rgb(234, 170, 84)" d="M12.141 5.276c-0.314 0-0.568 0.243-0.568 0.544s0.254 0.544 0.568 0.544c0.314 0 0.568-0.244 0.568-0.544s-0.254-0.544-0.568-0.544z"></path>
<path fill="rgb(209, 129, 75)" d="M11.777 5.283h-0.259c0 0-0.128 0.337-0.128 0.419s0.129 0.204 0.168 0.244c0.031 0.031 0.148 0.031 0.179 0 0.037-0.037 0.168-0.168 0.168-0.244s-0.128-0.419-0.128-0.419z"></path>
<path fill="rgb(221, 134, 69)" d="M11.777 5.283c-0.031-0.026-0.22-0.029-0.259 0s-0.128 0.337-0.128 0.419c0 0.082 0.516 0.076 0.516 0s-0.097-0.394-0.128-0.419z"></path>
<path fill="rgb(211, 118, 17)" d="M10.889 4.624c-0.154-0.010-0.346 0.125-0.367 0.218-0.018 0.1 0.171 0.309 0.324 0.326 0.193 0.022 0.409-0.11 0.409-0.204 0-0.111-0.138-0.327-0.367-0.341z"></path>
<path fill="rgb(145, 84, 18)" d="M10.9 4.652c-0.107-0.004-0.245 0.124-0.263 0.209-0.016 0.090 0.108 0.271 0.214 0.282 0.134 0.013 0.288-0.113 0.292-0.197 0.004-0.1-0.085-0.289-0.243-0.294z"></path>
<path fill="rgb(53, 46, 40)" d="M10.885 4.764c-0.039 0-0.070 0.095-0.070 0.134s0.031 0.108 0.070 0.108 0.070-0.070 0.070-0.108c0-0.039-0.031-0.134-0.070-0.134z"></path>
<path fill="rgb(211, 118, 17)" d="M12.76 4.843c-0.021-0.093-0.213-0.228-0.367-0.218-0.228 0.015-0.367 0.23-0.367 0.341 0 0.093 0.216 0.226 0.409 0.204 0.153-0.018 0.342-0.226 0.324-0.326z"></path>
<path fill="rgb(145, 84, 18)" d="M12.646 4.862c-0.018-0.085-0.156-0.213-0.263-0.209-0.158 0.005-0.247 0.194-0.243 0.294 0.003 0.084 0.158 0.21 0.292 0.197 0.106-0.010 0.23-0.191 0.214-0.282z"></path>
<path fill="rgb(53, 46, 40)" d="M12.398 4.764c-0.039 0-0.070 0.095-0.070 0.134s0.031 0.108 0.070 0.108 0.070-0.070 0.070-0.108c0-0.039-0.031-0.134-0.070-0.134z"></path>
<path fill="rgb(224, 148, 47)" d="M8.424 9.666c0 0 0.893 0.523 1.517 1.658s0.936 2.166 0.936 2.166l0.011-0.034c-0.347-3.178-2.464-3.79-2.464-3.79z"></path>
</svg>
