<?xml version="1.0" encoding="utf-8"?>
<!-- Generated by IcoMoon.io -->
<!DOCTYPE svg PUBLIC "-//W3C//DTD SVG 1.1//EN" "http://www.w3.org/Graphics/SVG/1.1/DTD/svg11.dtd">
<svg version="1.1" xmlns="http://www.w3.org/2000/svg" xmlns:xlink="http://www.w3.org/1999/xlink" width="20" height="20" viewBox="0 0 20 20">
<path fill="rgb(234, 73, 73)" d="M10 0.309c-5.352 0-9.69 4.338-9.69 9.691s4.339 9.69 9.69 9.69c5.352 0 9.691-4.339 9.691-9.69s-4.339-9.691-9.691-9.691z"></path>
<path fill="rgb(221, 185, 179)" d="M18.031 11.58c-0.296-2.046-2.571-3.352-2.667-3.407-0.087-0.049-0.196-0.018-0.245 0.068s-0.769 0.998-0.682 1.047c0.022 0.012 2.605 0.525 2.877 2.397 0.14 0.966-0.035 1.741-0.959 2.697-1.117 1.155-3.36 1.375-4.77 1.375-2.676-0-5.44-1.471-6.622-2.1-0.262-0.14-0.421-0.224-0.512-0.257-0.093-0.034-0.197 0.014-0.23 0.108s0.014 0.196 0.107 0.23c0.068 0.024 0.243 0.118 0.466 0.236 1.211 0.645 4.031 2.145 6.797 2.145 1.49 0 3.964-0.103 5.163-1.343 1.005-1.039 1.435-2.115 1.278-3.197z"></path>
<path fill="rgb(168, 163, 152)" d="M11.11 7.37c-2.607 0.959-4.824-0.61-4.824 0.614 0 0.496-0.846 1.601 0.015 2.052 2.315 1.214 3.161 1.903 4.809 2.023 2.69 0.196 4.944 0.15 4.944-2.457 0-1.948-2.412-3.163-4.944-2.232z"></path>
<path fill="rgb(163, 158, 147)" d="M4.688 4.261c-0.673 0-1.219 0.745-1.219 1.664s0.546 1.664 1.219 1.664c0.673 0 1.219-0.745 1.219-1.664s-0.546-1.664-1.219-1.664z"></path>
<path fill="rgb(204, 178, 172)" d="M5.633 5.925c0 0.712-0.423 1.29-0.945 1.29s-0.945-0.577-0.945-1.29c0-0.712 0.423-1.29 0.945-1.29s0.945 0.577 0.945 1.29z"></path>
<path fill="rgb(163, 158, 147)" d="M7.583 4.261c-0.673 0-1.219 0.745-1.219 1.664s0.546 1.664 1.219 1.664c0.673 0 1.219-0.745 1.219-1.664s-0.546-1.664-1.219-1.664z"></path>
<path fill="rgb(204, 178, 172)" d="M8.49 5.925c0 0.712-0.423 1.29-0.945 1.29s-0.945-0.577-0.945-1.29c0-0.712 0.423-1.29 0.945-1.29s0.945 0.577 0.945 1.29z"></path>
<path fill="rgb(163, 158, 147)" d="M8.313 6.977c0 0-0.752-1.236-1.19-1.553s-1.498-0.346-1.928 0c-0.43 0.346-1.19 1.553-1.19 1.553-0.328 0.327-0.328 1.369 0 1.696 0 0 1.249 1.417 2.128 1.417 0.913 0 2.18-1.417 2.18-1.417 0.328-0.327 0.328-1.369-0-1.696z"></path>
<path fill="rgb(175, 170, 163)" d="M6.136 8.252c-0.665 0-1.204 0.416-1.204 0.928 0 0.042 0.575 0.955 1.201 0.955 0.665 0 1.206-0.902 1.206-0.955 0-0.513-0.539-0.928-1.204-0.928z"></path>
<path fill="rgb(211, 192, 169)" d="M5.724 9.026c0 0.020 0.231 0.54 0.411 0.54 0.194 0 0.412-0.514 0.412-0.54-0-0.248-0.823-0.248-0.823 0z"></path>
<path fill="rgb(86, 85, 83)" d="M7.401 7.339c0 0.24-0.119 0.434-0.267 0.434s-0.267-0.194-0.267-0.434c0-0.24 0.119-0.434 0.267-0.434s0.267 0.194 0.267 0.434z"></path>
<path fill="rgb(86, 85, 83)" d="M5.438 7.339c0 0.24-0.119 0.434-0.267 0.434s-0.267-0.194-0.267-0.434c0-0.24 0.119-0.434 0.267-0.434s0.267 0.194 0.267 0.434z"></path>
<path fill="rgb(71, 70, 69)" d="M5.331 7.339c0 0.185-0.089 0.335-0.198 0.335s-0.198-0.15-0.198-0.335c0-0.185 0.089-0.335 0.198-0.335s0.198 0.15 0.198 0.335z"></path>
<path fill="rgb(211, 192, 169)" d="M6.203 12.202c0 0 0.892 0.217 1.521 0.172l0.12-0.165c0 0-1.348-0.187-1.641-0.007z"></path>
<path fill="rgb(211, 192, 169)" d="M7.821 12.262c0 0-0.966 0.292-1.101 0.405s1.146-0.112 1.236-0.202c0.090-0.090-0.135-0.202-0.135-0.202z"></path>
<path fill="rgb(221, 185, 179)" d="M7.821 12.389c0 0-0.584 0.607-0.539 0.742s0.854-0.697 0.854-0.697l-0.315-0.045z"></path>
<path fill="rgb(211, 192, 169)" d="M7.979 11.865l-0.21 0.389 0.285 0.255 0.479-0.434z"></path>
<path fill="rgb(221, 185, 179)" d="M12.091 12.877c0 0 0.892 0.217 1.521 0.172l0.12-0.165c0 0-1.349-0.187-1.641-0.007z"></path>
<path fill="rgb(221, 185, 179)" d="M13.709 12.936c0 0-0.966 0.292-1.101 0.405s1.146-0.112 1.236-0.202c0.090-0.090-0.135-0.202-0.135-0.202z"></path>
<path fill="rgb(221, 185, 179)" d="M13.709 13.064c0 0-0.584 0.607-0.539 0.742s0.854-0.697 0.854-0.697l-0.315-0.045z"></path>
<path fill="rgb(221, 185, 179)" d="M13.866 12.539l-0.21 0.389 0.285 0.255 0.48-0.435z"></path>
<path fill="rgb(168, 163, 152)" d="M8.458 11.049c0 0-0.682 0.764-0.652 0.921s0.42 0.322 0.674 0.315c0.255-0.007 1.416-0.854 1.416-0.854l-1.438-0.382z"></path>
<path fill="rgb(168, 163, 152)" d="M13.919 11.61c0 0-0.172 0.944-0.067 1.056s0.569 0.172 0.697 0.090c0.127-0.082 0.719-1.326 0.719-1.326l-1.348 0.18z"></path>
</svg>
