<?xml version="1.0" encoding="utf-8"?>
<!-- Generated by IcoMoon.io -->
<!DOCTYPE svg PUBLIC "-//W3C//DTD SVG 1.1//EN" "http://www.w3.org/Graphics/SVG/1.1/DTD/svg11.dtd">
<svg version="1.1" xmlns="http://www.w3.org/2000/svg" xmlns:xlink="http://www.w3.org/1999/xlink" width="20" height="20" viewBox="0 0 20 20">
<path fill="rgb(237, 201, 47)" d="M10 0.309c-5.352 0-9.69 4.338-9.69 9.691s4.339 9.69 9.69 9.69c5.352 0 9.691-4.339 9.691-9.69s-4.339-9.691-9.691-9.691z"></path>
<path fill="rgb(188, 144, 66)" d="M13.6 15.889c-0.202-0.028-0.849 0.391-0.663-0.599 0 0 1.588-3.781 1.402-6.257l-0.062-1.176-2.104-1.919-1.3 1.63c0 0-8.252 0.495-7.097 7.344 0 0 0.825 2.723 3.961 1.32 0 0 3.313-1.306 4.139-1.966 0 0-0.255 1.981 0.818 2.558 0 0 1.148 0.413 1.479-0.082 0-0 0.344-0.727-0.574-0.854z"></path>
<path fill="rgb(188, 144, 66)" d="M6.345 15.723l-0.497 0.918c0 0 1.655 0.041 1.975 0.209 0.55 0.288 2.019 0.078 2.019 0.078 0.405-0.039 0.605-0.264 0.615-0.536 0.038-0.956-4.112-0.669-4.112-0.669z"></path>
<path fill="rgb(188, 144, 66)" d="M4.246 13.529c-0.524-0.299-1.119-0.244-1.328 0.123s0.046 0.906 0.57 1.205c0.524 0.299 1.118 0.244 1.328-0.123s-0.046-0.906-0.57-1.205z"></path>
<path fill="rgb(181, 136, 65)" d="M13.836 4.957c-0.015-0.027-0.906-1.615-0.92-1.641-0.587-1.062-1.243-1.981-1.494-1.73-0.701 0.701 1.213 4.375 1.573 4.31 0.397-0.072 1.217-0.259 0.842-0.939z"></path>
<path fill="rgb(188, 144, 66)" d="M13.071 5.206c-0.019-0.096-0.96-1.524-0.975-1.549-0.65-1.071-1.294-1.963-1.554-1.721-0.726 0.676 1.055 4.415 1.417 4.363 0.399-0.058 1.265-0.333 1.113-1.093z"></path>
<path fill="rgb(188, 144, 66)" d="M14.737 5.158c-0.58-1.174-1.991-0.756-2.514-0.424-0.94 0.597-1.218 1.721-0.455 2.732s2.223 1.938 3.367 1.091c0.706-0.523 0.136-2.318-0.398-3.399z"></path>
<path fill="rgb(168, 125, 61)" d="M15.463 7.681c0 0-0.067 0.005-0.167 0.029-0.12 0.029-0.344 0.201-0.344 0.201s0.081 0.134 0.158 0.215c0.076 0.081 0.225 0.201 0.225 0.201 0.249-0.168 0.129-0.645 0.129-0.645z"></path>
<path fill="rgb(53, 53, 53)" d="M13.296 5.934c-0.184 0-0.333 0.142-0.333 0.316s0.149 0.316 0.333 0.316c0.184 0 0.333-0.141 0.333-0.316s-0.149-0.316-0.333-0.316z"></path>
<path fill="rgb(168, 125, 61)" d="M14.335 8.879c0 0-1.462 0.367-2.188-0.781 0 0 0.321 1.134 2.196 0.903l-0.007-0.122z"></path>
<path fill="rgb(168, 125, 61)" d="M7.071 11.452c0 0 3.615 1.090 1.894 4.265 0 0 2.314-3.213-1.894-4.265z"></path>
</svg>
