<?xml version="1.0" encoding="utf-8"?>
<!-- Generator: Adobe Illustrator 16.0.0, SVG Export Plug-In . SVG Version: 6.00 Build 0)  -->
<!DOCTYPE svg PUBLIC "-//W3C//DTD SVG 1.1//EN" "http://www.w3.org/Graphics/SVG/1.1/DTD/svg11.dtd">
<svg version="1.1" id="Layer_1" xmlns="http://www.w3.org/2000/svg" xmlns:xlink="http://www.w3.org/1999/xlink" x="0px" y="0px"
	 width="20px" height="20px" viewBox="0 0 20 20" enable-background="new 0 0 20 20" xml:space="preserve">
<g>
	<path fill="#344E5D" d="M19.69,10c0,5.351-4.338,9.69-9.69,9.69S0.31,15.353,0.31,10c0-5.352,4.338-9.69,9.69-9.69
		S19.69,4.647,19.69,10z"/>
	<path fill="#9A856A" d="M9.998,16.891c-0.23,0-0.418-0.187-0.418-0.418V3.527c0-0.231,0.188-0.418,0.418-0.418
		c0.229,0,0.417,0.187,0.417,0.418v12.945C10.415,16.704,10.229,16.891,9.998,16.891z"/>
	<path fill="#83725E" d="M9.998,16.891c-0.23,0-0.418-0.187-0.418-0.418V3.527c0-0.231,0.188-0.418,0.418-0.418V16.891z"/>
	<path fill="#B2B2B2" d="M4.953,4.491c0-0.366,0.297-0.662,0.663-0.662h8.766c0.366,0,0.662,0.296,0.662,0.662v1.834H4.952
		L4.953,4.491L4.953,4.491z"/>
	<path fill="#BF5537" d="M15.046,8.923c0,0.366-0.296,0.662-0.662,0.662H5.617c-0.367,0-0.663-0.296-0.663-0.662V5.397h10.092V8.923
		L15.046,8.923z"/>
	<path fill="#B2B2B2" d="M13.491,5.793c0,0.07-0.059,0.128-0.128,0.128h-0.353c-0.07,0-0.128-0.059-0.128-0.128V4.874
		c0-0.07,0.058-0.128,0.128-0.128h0.353c0.071,0,0.128,0.058,0.128,0.128V5.793z"/>
	<path fill="#DBDBDA" d="M6.441,7.19h-0.48v0.308h0.401c0.036,0,0.064,0.009,0.084,0.024C6.465,7.54,6.473,7.562,6.473,7.59
		c0,0.028-0.009,0.051-0.027,0.067c-0.02,0.017-0.047,0.024-0.083,0.024H5.961v0.396c0,0.05-0.012,0.088-0.034,0.111
		C5.903,8.214,5.875,8.227,5.84,8.227S5.773,8.214,5.752,8.189C5.729,8.166,5.719,8.128,5.719,8.078V7.152
		c0-0.034,0.005-0.064,0.015-0.086c0.011-0.022,0.028-0.038,0.05-0.048c0.022-0.01,0.051-0.015,0.085-0.015h0.574
		c0.039,0,0.068,0.008,0.087,0.026c0.02,0.018,0.028,0.04,0.028,0.066c0,0.028-0.009,0.052-0.028,0.068
		C6.511,7.182,6.482,7.191,6.441,7.19L6.441,7.19z"/>
	<path fill="#DBDBDA" d="M7.268,6.981c0.124,0,0.232,0.024,0.321,0.076C7.678,7.108,7.746,7.18,7.792,7.272
		c0.046,0.094,0.069,0.202,0.069,0.329c0,0.092-0.013,0.178-0.038,0.254C7.798,7.931,7.761,7.997,7.71,8.053
		C7.66,8.108,7.599,8.151,7.524,8.181C7.452,8.21,7.368,8.226,7.272,8.226c-0.094,0-0.178-0.016-0.252-0.045
		S6.885,8.107,6.834,8.052c-0.05-0.056-0.087-0.121-0.112-0.199C6.696,7.775,6.684,7.69,6.684,7.601c0-0.092,0.014-0.177,0.04-0.255
		c0.025-0.077,0.064-0.143,0.115-0.196c0.05-0.055,0.111-0.097,0.184-0.124C7.095,6.996,7.177,6.982,7.268,6.981L7.268,6.981z
		 M7.614,7.601c0-0.088-0.015-0.165-0.043-0.229C7.543,7.306,7.502,7.258,7.448,7.225C7.396,7.191,7.336,7.174,7.267,7.174
		c-0.049,0-0.094,0.01-0.136,0.028C7.09,7.219,7.055,7.247,7.025,7.281C6.995,7.315,6.972,7.36,6.954,7.415
		C6.938,7.47,6.93,7.53,6.93,7.6c0,0.067,0.009,0.13,0.024,0.185C6.972,7.84,6.996,7.885,7.028,7.922
		C7.06,7.958,7.095,7.986,7.136,8.003C7.177,8.021,7.222,8.031,7.27,8.031c0.063,0,0.119-0.017,0.172-0.048s0.094-0.079,0.124-0.145
		C7.597,7.774,7.611,7.693,7.611,7.6L7.614,7.601z"/>
	<path fill="#DBDBDA" d="M8.396,7.69H8.312v0.387c0,0.051-0.012,0.088-0.034,0.111C8.256,8.213,8.226,8.225,8.189,8.225
		c-0.038,0-0.068-0.013-0.09-0.038c-0.021-0.024-0.032-0.062-0.032-0.11V7.15c0-0.053,0.012-0.09,0.035-0.113
		c0.024-0.022,0.062-0.035,0.114-0.035h0.396c0.055,0,0.102,0.002,0.141,0.006s0.074,0.015,0.105,0.028
		c0.037,0.016,0.07,0.039,0.099,0.068S9.01,7.168,9.024,7.207c0.015,0.04,0.021,0.081,0.021,0.125c0,0.09-0.025,0.16-0.075,0.214
		C8.92,7.6,8.843,7.639,8.74,7.66c0.043,0.023,0.085,0.057,0.125,0.102s0.074,0.093,0.105,0.144c0.03,0.051,0.055,0.096,0.072,0.137
		s0.026,0.069,0.026,0.085S9.063,8.158,9.055,8.174C9.044,8.189,9.03,8.202,9.013,8.211C8.995,8.219,8.975,8.225,8.952,8.225
		c-0.027,0-0.051-0.007-0.069-0.02C8.864,8.19,8.849,8.175,8.835,8.156C8.821,8.137,8.803,8.107,8.78,8.069L8.683,7.907
		c-0.034-0.06-0.065-0.104-0.094-0.136C8.561,7.739,8.533,7.719,8.505,7.707S8.44,7.69,8.398,7.69H8.396z M8.536,7.185H8.312v0.331
		H8.53c0.059,0,0.107-0.005,0.147-0.015s0.07-0.027,0.091-0.053C8.789,7.425,8.8,7.391,8.8,7.348c0-0.033-0.008-0.062-0.024-0.088
		C8.758,7.235,8.734,7.215,8.704,7.203C8.676,7.191,8.619,7.185,8.536,7.185L8.536,7.185z"/>
	<path fill="#DBDBDA" d="M10.024,7.69H9.938v0.387c0,0.051-0.011,0.088-0.033,0.111C9.884,8.213,9.854,8.225,9.817,8.225
		c-0.038,0-0.069-0.013-0.09-0.038c-0.021-0.024-0.032-0.062-0.032-0.11V7.15c0-0.053,0.012-0.09,0.035-0.113
		c0.024-0.022,0.062-0.035,0.114-0.035h0.396c0.055,0,0.102,0.002,0.141,0.006s0.073,0.015,0.104,0.028
		c0.038,0.016,0.072,0.039,0.101,0.068c0.029,0.029,0.051,0.063,0.066,0.103c0.016,0.04,0.023,0.081,0.023,0.125
		c0,0.09-0.025,0.16-0.077,0.214s-0.127,0.093-0.23,0.114c0.043,0.023,0.085,0.057,0.124,0.102c0.038,0.045,0.074,0.093,0.105,0.144
		s0.056,0.096,0.072,0.137s0.026,0.069,0.026,0.085s-0.005,0.031-0.015,0.047s-0.024,0.028-0.043,0.037
		c-0.016,0.008-0.036,0.014-0.059,0.014c-0.029,0-0.052-0.007-0.07-0.02c-0.019-0.015-0.034-0.03-0.049-0.049
		c-0.013-0.02-0.031-0.049-0.054-0.087l-0.098-0.162c-0.034-0.06-0.066-0.104-0.094-0.136c-0.028-0.032-0.056-0.053-0.084-0.064
		S10.068,7.69,10.024,7.69L10.024,7.69z M10.164,7.185H9.938v0.331h0.219c0.06,0,0.108-0.005,0.148-0.015s0.069-0.027,0.092-0.053
		c0.021-0.023,0.031-0.058,0.031-0.101c0-0.033-0.008-0.062-0.025-0.088c-0.017-0.024-0.04-0.045-0.071-0.057
		C10.305,7.191,10.248,7.185,10.164,7.185z"/>
	<path fill="#DBDBDA" d="M11.699,7.19h-0.548v0.295h0.505c0.036,0,0.065,0.009,0.084,0.025c0.018,0.017,0.026,0.039,0.026,0.065
		c0,0.027-0.009,0.051-0.026,0.067C11.722,7.66,11.694,7.67,11.656,7.67h-0.505v0.342h0.566c0.038,0,0.067,0.01,0.088,0.027
		c0.02,0.018,0.028,0.041,0.028,0.071c0,0.028-0.009,0.052-0.028,0.068c-0.021,0.019-0.05,0.027-0.088,0.027h-0.662
		c-0.053,0-0.091-0.012-0.113-0.036c-0.023-0.024-0.034-0.062-0.034-0.114V7.151c0-0.034,0.005-0.064,0.015-0.086
		c0.012-0.022,0.026-0.038,0.048-0.048c0.022-0.01,0.052-0.015,0.085-0.015h0.644c0.039,0,0.067,0.008,0.087,0.026
		c0.02,0.018,0.027,0.04,0.027,0.066c0,0.028-0.008,0.052-0.027,0.068S11.739,7.19,11.699,7.19z"/>
	<path fill="#DBDBDA" d="M12.345,7.127l0.469,0.709V7.121c0-0.046,0.01-0.082,0.029-0.104c0.02-0.023,0.047-0.034,0.081-0.034
		s0.063,0.011,0.083,0.034c0.02,0.022,0.029,0.059,0.029,0.104v0.946c0,0.105-0.043,0.158-0.131,0.158
		c-0.021,0-0.041-0.004-0.058-0.01s-0.034-0.017-0.05-0.03s-0.029-0.029-0.043-0.048c-0.013-0.019-0.025-0.037-0.04-0.056
		l-0.456-0.7v0.704c0,0.046-0.01,0.081-0.032,0.104c-0.022,0.024-0.048,0.036-0.082,0.036s-0.062-0.012-0.082-0.036
		c-0.021-0.023-0.032-0.059-0.032-0.104V7.159c0-0.04,0.004-0.071,0.014-0.093c0.01-0.025,0.027-0.045,0.051-0.061
		s0.05-0.022,0.078-0.022c0.023,0,0.041,0.004,0.056,0.01s0.029,0.017,0.041,0.028s0.024,0.027,0.036,0.048
		c0.011,0.019,0.025,0.039,0.037,0.059L12.345,7.127z"/>
	<path fill="#DBDBDA" d="M14.085,7.203h-0.266v0.874c0,0.05-0.013,0.088-0.034,0.111c-0.021,0.024-0.052,0.037-0.087,0.037
		s-0.065-0.013-0.088-0.037c-0.022-0.023-0.034-0.062-0.034-0.111V7.203h-0.266c-0.042,0-0.073-0.01-0.093-0.028
		c-0.021-0.017-0.03-0.043-0.03-0.071c0-0.031,0.01-0.056,0.031-0.074c0.021-0.02,0.052-0.027,0.092-0.027h0.774
		c0.041,0,0.073,0.009,0.094,0.028c0.021,0.019,0.031,0.043,0.031,0.073c0,0.028-0.012,0.055-0.032,0.071
		c-0.021,0.019-0.052,0.028-0.095,0.028H14.085z"/>
	<path fill="#B2B2B2" d="M7.208,5.793c0,0.07-0.058,0.128-0.128,0.128H6.728C6.656,5.921,6.6,5.862,6.6,5.793V4.874
		c0-0.07,0.058-0.128,0.128-0.128H7.08c0.071,0,0.128,0.058,0.128,0.128V5.793z"/>
</g>
</svg>
