<?xml version="1.0" encoding="utf-8"?>
<!-- Generator: Adobe Illustrator 16.0.0, SVG Export Plug-In . SVG Version: 6.00 Build 0)  -->
<!DOCTYPE svg PUBLIC "-//W3C//DTD SVG 1.1//EN" "http://www.w3.org/Graphics/SVG/1.1/DTD/svg11.dtd">
<svg version="1.1" id="Layer_1" xmlns="http://www.w3.org/2000/svg" xmlns:xlink="http://www.w3.org/1999/xlink" x="0px" y="0px"
	 width="20px" height="20px" viewBox="0 0 20 20" enable-background="new 0 0 20 20" xml:space="preserve">
<g>
	<path fill="#3CB881" d="M19.69,10c0,5.351-4.338,9.69-9.69,9.69S0.31,15.353,0.31,10c0-5.352,4.338-9.69,9.69-9.69
		S19.69,4.647,19.69,10z"/>
	<path fill="#E4E1D3" d="M15.443,7.719H4.556c-0.122,0-0.222,0.099-0.222,0.221v7.398c0,0.122,0.099,0.221,0.222,0.221h10.888
		c0.122,0,0.221-0.098,0.221-0.221V7.941C15.664,7.819,15.565,7.72,15.443,7.719L15.443,7.719z"/>
	<path fill="#CB774C" d="M16.421,8.076c-0.006-0.066-0.044-0.124-0.096-0.161l-2.771-2.347V3.942c0-0.121-0.1-0.221-0.221-0.221
		h-1.047c-0.123,0-0.221,0.099-0.221,0.221V4.31L9.982,2.547c-0.084-0.071-0.206-0.07-0.289,0.004L3.665,7.923
		C3.656,7.931,3.647,7.937,3.641,7.945C3.59,7.994,3.568,8.064,3.579,8.133v0.522c0,0.122,0.098,0.221,0.221,0.221h12.4
		c0.121,0,0.221-0.099,0.221-0.221V8.117C16.422,8.103,16.422,8.089,16.421,8.076L16.421,8.076z"/>
	<path fill="#575757" d="M12.827,12.399c-0.028-0.001-0.055-0.016-0.067-0.043c-0.276-0.565-0.563-0.863-0.838-0.854
		c-0.409,0.012-0.695,0.672-0.698,0.679c-0.016,0.039-0.061,0.057-0.101,0.04c-0.039-0.018-0.058-0.062-0.04-0.102
		c0.012-0.029,0.328-0.757,0.834-0.77c0.34-0.008,0.669,0.307,0.98,0.939c0.018,0.037,0.002,0.084-0.035,0.102
		C12.853,12.397,12.839,12.399,12.827,12.399z"/>
	<path fill="#418068" d="M12.253,10.989c-0.202-0.203-2.622-0.3-3.038,0.117L5.12,15.2c-0.416,0.417-0.392,0.867,0.025,1.283
		l1.635,1.636c0.419,0.417,0.842,0.417,1.259,0l4.095-4.094C12.55,13.608,12.455,11.192,12.253,10.989L12.253,10.989z
		 M10.854,12.494c-0.161-0.161-0.161-0.425,0-0.587c0.164-0.162,0.426-0.162,0.588,0s0.162,0.424,0,0.587
		C11.28,12.658,11.019,12.657,10.854,12.494z"/>
	<path fill="#24986B" d="M12.153,10.979c-0.164-0.164-2.542-0.285-2.949,0.121l-4.02,4.021c-0.406,0.407-0.407,0.82,0,1.228
		l1.596,1.597c0.408,0.406,0.822,0.406,1.229,0l4.02-4.02c0.408-0.407,0.285-2.786,0.125-2.948V10.979z M10.781,12.433
		c-0.157-0.158-0.157-0.415,0-0.574c0.157-0.158,0.415-0.157,0.573,0c0.158,0.158,0.158,0.415,0,0.574
		C11.196,12.593,10.94,12.591,10.781,12.433L10.781,12.433z"/>
	<path fill="#38A37C" d="M11.198,11.765c0.056,0.019,0.11,0.049,0.155,0.094c0.157,0.158,0.157,0.415,0,0.574
		c-0.157,0.16-0.415,0.158-0.572,0c-0.052-0.051-0.085-0.113-0.103-0.18c-1.861,1.774-4.821,4.771-4.821,4.771l0.923,0.923
		c0.408,0.406,0.822,0.406,1.229,0l4.02-4.02c0.408-0.407,0.285-2.786,0.125-2.948C12.114,10.94,11.743,11.259,11.198,11.765
		L11.198,11.765z"/>
	<path fill="#F3F0ED" d="M11.071,11.575c-0.314,0-0.57,0.256-0.57,0.57c0,0.316,0.256,0.571,0.57,0.571
		c0.315,0,0.57-0.255,0.57-0.571C11.642,11.831,11.386,11.575,11.071,11.575z M11.071,12.55c-0.223,0-0.404-0.181-0.404-0.405
		c0-0.224,0.182-0.404,0.404-0.404c0.225,0,0.406,0.181,0.406,0.404C11.478,12.369,11.296,12.55,11.071,12.55z"/>
	<path fill="#575757" d="M15.746,8.876h-0.082v0.155c0.204,0.376,0.62,1.396,0.186,2.161c-0.052,0.09-0.114,0.174-0.186,0.251
		c-0.661,0.733-2.17,0.948-4.501,0.636c-0.043-0.008-0.08,0.023-0.086,0.065s0.023,0.081,0.065,0.086
		c0.696,0.094,1.323,0.142,1.876,0.142c1.247,0,2.13-0.237,2.646-0.708c0.189-0.173,0.33-0.376,0.421-0.613
		c0.325-0.862-0.154-1.866-0.339-2.173V8.876z"/>
	<path fill="#CAE7DA" d="M6.422,15.497l-0.028-0.03C6.061,15.134,6.075,14.653,6.43,14.3c0.355-0.354,0.825-0.366,1.158-0.033
		l0.029,0.029c0.332,0.332,0.317,0.814-0.032,1.165c-0.354,0.354-0.828,0.368-1.161,0.037L6.422,15.497z M8.28,16.969
		c-0.062-0.062-0.084-0.136-0.087-0.285l-0.245-3.917c0-0.043,0.273-0.187,0.404-0.055c0.052,0.053,0.088,0.141,0.096,0.285
		l0.241,3.922C8.693,16.957,8.407,17.097,8.28,16.969L8.28,16.969z M7.276,14.665L7.222,14.61c-0.168-0.168-0.376-0.164-0.515-0.026
		c-0.144,0.143-0.144,0.339,0.028,0.511l0.055,0.055c0.169,0.167,0.373,0.167,0.515,0.025c0.14-0.139,0.14-0.344-0.028-0.512V14.665
		z M9.062,15.405l-0.029-0.029c-0.332-0.332-0.317-0.814,0.037-1.168c0.351-0.352,0.824-0.366,1.157-0.033l0.029,0.028
		c0.333,0.333,0.317,0.815-0.032,1.166C9.87,15.723,9.396,15.737,9.062,15.405L9.062,15.405z M9.916,14.573l-0.055-0.055
		c-0.167-0.167-0.379-0.167-0.518-0.028c-0.143,0.142-0.139,0.343,0.032,0.515l0.055,0.055c0.164,0.164,0.368,0.164,0.511,0.021
		C10.076,14.945,10.084,14.741,9.916,14.573L9.916,14.573z"/>
</g>
</svg>
