<?xml version="1.0" encoding="utf-8"?>
<!-- Generator: Adobe Illustrator 16.0.0, SVG Export Plug-In . SVG Version: 6.00 Build 0)  -->
<!DOCTYPE svg PUBLIC "-//W3C//DTD SVG 1.1//EN" "http://www.w3.org/Graphics/SVG/1.1/DTD/svg11.dtd">
<svg version="1.1" id="Layer_1" xmlns="http://www.w3.org/2000/svg" xmlns:xlink="http://www.w3.org/1999/xlink" x="0px" y="0px"
	 width="20px" height="20px" viewBox="0 0 20 20" enable-background="new 0 0 20 20" xml:space="preserve">
<g>
	<path fill="#49A0AE" d="M19.69,10c0,5.351-4.338,9.69-9.69,9.69S0.31,15.353,0.31,10c0-5.352,4.338-9.69,9.69-9.69
		S19.69,4.647,19.69,10z"/>
	<path fill="#ABD9DF" d="M15.444,7.719H4.557c-0.121,0-0.222,0.099-0.222,0.221v7.398c0,0.122,0.099,0.221,0.222,0.221h10.888
		c0.121,0,0.221-0.098,0.221-0.221V7.941C15.665,7.819,15.565,7.72,15.444,7.719L15.444,7.719z"/>
	<path fill="#357180" d="M16.421,8.076c-0.006-0.066-0.044-0.124-0.096-0.161l-2.771-2.347V3.942c0-0.121-0.1-0.221-0.221-0.221
		h-1.047c-0.123,0-0.221,0.099-0.221,0.221V4.31L9.982,2.547c-0.083-0.071-0.206-0.07-0.289,0.004L3.665,7.923
		C3.656,7.931,3.647,7.937,3.641,7.945C3.59,7.994,3.568,8.064,3.579,8.133v0.522c0,0.122,0.098,0.221,0.221,0.221h12.4
		c0.121,0,0.221-0.099,0.221-0.221V8.117C16.422,8.103,16.422,8.089,16.421,8.076L16.421,8.076z"/>
	<path fill="#575757" d="M12.827,12.399c-0.028-0.001-0.055-0.016-0.068-0.043c-0.276-0.565-0.562-0.863-0.838-0.854
		c-0.41,0.012-0.695,0.672-0.698,0.679c-0.017,0.039-0.062,0.057-0.101,0.04c-0.039-0.018-0.057-0.062-0.04-0.102
		c0.012-0.029,0.326-0.757,0.834-0.77c0.339-0.008,0.67,0.307,0.979,0.939c0.019,0.037,0.004,0.084-0.035,0.102
		C12.85,12.397,12.838,12.399,12.827,12.399L12.827,12.399z"/>
	<path fill="#C0B8AA" d="M12.255,10.989c-0.203-0.203-2.623-0.3-3.039,0.117L5.121,15.2c-0.416,0.417-0.391,0.867,0.026,1.283
		l1.634,1.636c0.419,0.417,0.842,0.417,1.259,0l4.095-4.094c0.417-0.417,0.322-2.833,0.118-3.036H12.255z M10.854,12.494
		c-0.161-0.161-0.161-0.425,0-0.587c0.164-0.162,0.426-0.162,0.588,0s0.162,0.424,0,0.587C11.28,12.658,11.019,12.657,10.854,12.494
		z"/>
	<path opacity="0.1" d="M12.153,10.979c-0.164-0.164-2.542-0.285-2.949,0.121l-4.02,4.021c-0.406,0.407-0.407,0.82,0,1.228
		l1.596,1.597c0.408,0.406,0.822,0.406,1.229,0l4.02-4.02c0.408-0.407,0.285-2.786,0.125-2.948V10.979z M10.781,12.433
		c-0.157-0.158-0.157-0.415,0-0.574c0.157-0.158,0.415-0.157,0.573,0c0.158,0.158,0.158,0.415,0,0.574
		C11.196,12.593,10.94,12.591,10.781,12.433L10.781,12.433z"/>
	<path opacity="0.1" d="M11.198,11.765c0.056,0.019,0.11,0.049,0.155,0.094c0.157,0.158,0.157,0.415,0,0.574
		c-0.157,0.16-0.415,0.158-0.572,0c-0.052-0.051-0.085-0.113-0.103-0.18c-1.861,1.774-4.821,4.771-4.821,4.771l0.923,0.923
		c0.408,0.406,0.822,0.406,1.229,0l4.02-4.02c0.408-0.407,0.285-2.786,0.125-2.948C12.114,10.94,11.743,11.259,11.198,11.765
		L11.198,11.765z"/>
	<path fill="#F3F0ED" d="M11.071,11.575c-0.314,0-0.57,0.256-0.57,0.57c0,0.316,0.256,0.571,0.57,0.571
		c0.315,0,0.57-0.255,0.57-0.571C11.642,11.831,11.386,11.575,11.071,11.575z M11.071,12.55c-0.223,0-0.404-0.181-0.404-0.405
		c0-0.224,0.182-0.404,0.404-0.404c0.225,0,0.406,0.181,0.406,0.404C11.478,12.369,11.296,12.55,11.071,12.55z"/>
	<path fill="#575757" d="M15.746,8.876h-0.082v0.155c0.204,0.376,0.62,1.396,0.186,2.161c-0.052,0.09-0.114,0.174-0.186,0.251
		c-0.661,0.733-2.17,0.948-4.501,0.636c-0.043-0.008-0.08,0.023-0.086,0.065s0.023,0.081,0.065,0.086
		c0.696,0.094,1.323,0.142,1.876,0.142c1.247,0,2.13-0.237,2.646-0.708c0.189-0.173,0.33-0.376,0.421-0.613
		c0.325-0.862-0.154-1.866-0.339-2.173V8.876z"/>
	<path fill="#74726A" d="M8.664,13.309c0.127,0.126,0.073,0.358,0.054,0.356c-0.23-0.018-0.505,0.072-0.69,0.258
		c-0.188,0.187-0.219,0.386-0.092,0.512c0.146,0.146,0.339,0.03,0.602-0.137c0.314-0.2,0.757-0.436,1.124-0.069
		c0.283,0.281,0.283,0.674,0.006,1.054l0.109,0.109c0.128,0.129,0.14,0.24,0.027,0.352L9.79,15.758
		c-0.117,0.116-0.219,0.1-0.351-0.031l-0.104-0.104c-0.376,0.303-0.724,0.343-0.88,0.186c-0.12-0.121-0.073-0.342-0.051-0.342
		c0.236,0.021,0.55-0.079,0.769-0.298c0.199-0.198,0.23-0.397,0.104-0.523c-0.153-0.153-0.37-0.021-0.622,0.135
		c-0.299,0.193-0.723,0.42-1.093,0.05c-0.269-0.269-0.271-0.653-0.024-1.013l-0.104-0.104c-0.129-0.129-0.143-0.238-0.031-0.351
		l0.018-0.017c0.113-0.115,0.219-0.1,0.351,0.031l0.095,0.094c0.345-0.277,0.655-0.309,0.799-0.165V13.309z"/>
</g>
</svg>
