<?xml version="1.0" encoding="utf-8"?>
<!-- Generator: Adobe Illustrator 16.0.0, SVG Export Plug-In . SVG Version: 6.00 Build 0)  -->
<!DOCTYPE svg PUBLIC "-//W3C//DTD SVG 1.1//EN" "http://www.w3.org/Graphics/SVG/1.1/DTD/svg11.dtd">
<svg version="1.1" id="Layer_1" xmlns="http://www.w3.org/2000/svg" xmlns:xlink="http://www.w3.org/1999/xlink" x="0px" y="0px"
	 width="20px" height="20px" viewBox="0 0 20 20" enable-background="new 0 0 20 20" xml:space="preserve">
<g>
	<path fill="#4ABC96" d="M19.69,10c0,5.351-4.338,9.69-9.69,9.69S0.31,15.353,0.31,10c0-5.352,4.338-9.69,9.69-9.69
		S19.69,4.647,19.69,10z"/>
	<path fill="#E4E1D3" d="M15.443,7.719H4.556c-0.122,0-0.222,0.099-0.222,0.221v7.398c0,0.122,0.099,0.221,0.222,0.221h10.888
		c0.122,0,0.221-0.098,0.221-0.221V7.941C15.664,7.819,15.565,7.72,15.443,7.719L15.443,7.719z"/>
	<path fill="#CB774C" d="M16.421,8.076c-0.006-0.066-0.044-0.124-0.096-0.161l-2.771-2.347V3.942c0-0.121-0.1-0.221-0.221-0.221
		h-1.047c-0.123,0-0.221,0.099-0.221,0.221V4.31L9.982,2.547c-0.084-0.071-0.206-0.07-0.289,0.004L3.665,7.923
		C3.656,7.931,3.647,7.937,3.641,7.945C3.59,7.994,3.568,8.064,3.58,8.133v0.522c0,0.122,0.098,0.221,0.221,0.221h12.4
		c0.121,0,0.221-0.099,0.221-0.221V8.117C16.423,8.103,16.423,8.089,16.421,8.076z"/>
	<path fill="#A07238" d="M6.76,14.549c-0.144,0.144-0.375,0.144-0.517,0l0,0c-0.144-0.144-0.144-0.376,0-0.517l2.677-2.679
		c0.143-0.143,0.374-0.143,0.518,0l0,0c0.144,0.144,0.144,0.374,0,0.518L6.76,14.549z"/>
	<path fill="#D4A160" d="M7.117,14.647c-0.126,0.124-0.444,0.008-0.713-0.262l0,0c-0.27-0.269-0.386-0.588-0.261-0.713l2.844-2.844
		c0.126-0.125,0.444-0.008,0.713,0.261l0,0c0.27,0.268,0.386,0.589,0.261,0.714L7.117,14.647z"/>
	<path fill="#60C3B6" d="M13.799,9.623c0,1.452-1.178,2.63-2.631,2.63s-2.631-1.178-2.631-2.63c0-1.453,1.178-2.631,2.631-2.631
		S13.799,8.17,13.799,9.623z"/>
	<path fill="#83CECA" d="M13.39,9.876c0,1.143-0.926,2.066-2.066,2.066c-1.142,0-2.066-0.924-2.066-2.066
		c0-1.141,0.925-2.065,2.066-2.065C12.464,7.811,13.39,8.735,13.39,9.876z"/>
	<path fill="#A07238" d="M8.856,10.948l-0.374,0.375c0,0,0.342,0.754,1.077,0.87l0.271-0.271v-0.351L8.856,10.948L8.856,10.948z"/>
	<path fill="#EBEDEF" d="M9.129,7.584c-1.127,1.126-1.127,2.952,0,4.077c1.126,1.126,2.952,1.127,4.079,0
		c1.126-1.127,1.126-2.952,0-4.078C12.081,6.457,10.255,6.457,9.129,7.584L9.129,7.584z M12.693,11.147
		c-0.841,0.842-2.208,0.842-3.051,0c-0.843-0.843-0.842-2.208,0-3.051c0.843-0.843,2.208-0.843,3.051,0S13.535,10.305,12.693,11.147
		z"/>
</g>
</svg>
