<?xml version="1.0" encoding="utf-8"?>
<!-- Generator: Adobe Illustrator 16.0.0, SVG Export Plug-In . SVG Version: 6.00 Build 0)  -->
<!DOCTYPE svg PUBLIC "-//W3C//DTD SVG 1.1//EN" "http://www.w3.org/Graphics/SVG/1.1/DTD/svg11.dtd">
<svg version="1.1" id="Layer_1" xmlns="http://www.w3.org/2000/svg" xmlns:xlink="http://www.w3.org/1999/xlink" x="0px" y="0px"
	 width="20px" height="20px" viewBox="0 0 20 20" enable-background="new 0 0 20 20" xml:space="preserve">
<g>
	<path fill="#357180" d="M19.69,10c0,5.351-4.338,9.69-9.69,9.69S0.31,15.353,0.31,10c0-5.352,4.338-9.69,9.69-9.69
		S19.69,4.647,19.69,10z"/>
	<path fill="#9A856A" d="M9.998,16.891c-0.23,0-0.418-0.187-0.418-0.418V3.527c0-0.231,0.188-0.418,0.418-0.418
		c0.229,0,0.417,0.187,0.417,0.418v12.945C10.415,16.704,10.229,16.891,9.998,16.891z"/>
	<path fill="#83725E" d="M9.998,16.891c-0.23,0-0.418-0.187-0.418-0.418V3.527c0-0.231,0.188-0.418,0.418-0.418V16.891z"/>
	<path fill="#B2B2B2" d="M4.953,4.491c0-0.366,0.297-0.662,0.663-0.662h8.768c0.365,0,0.662,0.296,0.662,0.662v1.834H4.952
		L4.953,4.491L4.953,4.491z"/>
	<path fill="#BF5537" d="M15.046,8.923c0,0.366-0.296,0.662-0.662,0.662H5.617c-0.367,0-0.663-0.296-0.663-0.662V5.397h10.092V8.923
		L15.046,8.923z"/>
	<path fill="#DBDBDA" d="M6.448,7.19H5.951v0.318h0.416c0.039,0,0.067,0.008,0.086,0.025c0.019,0.019,0.028,0.041,0.028,0.069
		s-0.01,0.051-0.029,0.069C6.432,7.69,6.404,7.697,6.366,7.697H5.95v0.411c0,0.053-0.011,0.091-0.035,0.116
		C5.892,8.25,5.861,8.262,5.824,8.262c-0.038,0-0.068-0.012-0.092-0.037C5.71,8.199,5.697,8.161,5.697,8.108V7.149
		c0-0.035,0.006-0.066,0.016-0.089C5.724,7.037,5.74,7.021,5.764,7.01c0.022-0.011,0.052-0.016,0.088-0.016h0.595
		c0.04,0,0.069,0.01,0.09,0.027c0.02,0.018,0.029,0.041,0.029,0.07s-0.01,0.054-0.029,0.071C6.516,7.181,6.486,7.19,6.446,7.19
		H6.448z"/>
	<path fill="#DBDBDA" d="M7.302,6.975c0.129,0,0.24,0.025,0.334,0.078c0.093,0.053,0.161,0.128,0.21,0.225
		c0.048,0.097,0.07,0.21,0.07,0.34c0,0.097-0.013,0.185-0.039,0.263S7.812,8.026,7.76,8.084S7.644,8.187,7.567,8.217
		c-0.075,0.031-0.163,0.046-0.26,0.046c-0.098,0-0.186-0.015-0.262-0.047C6.97,8.185,6.904,8.141,6.854,8.083
		C6.802,8.025,6.763,7.957,6.735,7.877C6.71,7.796,6.696,7.709,6.696,7.616c0-0.097,0.014-0.185,0.041-0.264
		c0.029-0.08,0.068-0.147,0.12-0.204C6.909,7.093,6.974,7.05,7.048,7.02S7.208,6.975,7.302,6.975L7.302,6.975z M7.661,7.615
		c0-0.092-0.015-0.171-0.044-0.237C7.588,7.311,7.546,7.26,7.491,7.226S7.375,7.174,7.303,7.174c-0.05,0-0.097,0.01-0.14,0.029
		C7.12,7.222,7.083,7.25,7.052,7.286S6.996,7.368,6.979,7.425C6.961,7.48,6.951,7.544,6.951,7.615S6.96,7.75,6.979,7.807
		s0.043,0.104,0.075,0.143s0.07,0.065,0.112,0.085c0.042,0.019,0.089,0.028,0.139,0.028c0.065,0,0.125-0.017,0.179-0.049
		s0.098-0.081,0.13-0.149S7.661,7.714,7.661,7.615L7.661,7.615z"/>
	<path fill="#DBDBDA" d="M8.472,7.708H8.384v0.4c0,0.054-0.012,0.091-0.035,0.116C8.326,8.25,8.296,8.261,8.258,8.261
		c-0.04,0-0.071-0.012-0.093-0.039C8.143,8.196,8.131,8.158,8.131,8.108V7.149c0-0.055,0.012-0.093,0.037-0.118
		s0.063-0.037,0.118-0.037h0.41c0.057,0,0.104,0.002,0.146,0.008c0.041,0.005,0.076,0.015,0.109,0.029
		c0.039,0.017,0.073,0.04,0.104,0.07c0.03,0.029,0.053,0.065,0.068,0.106c0.014,0.041,0.022,0.084,0.022,0.129
		c0,0.093-0.026,0.168-0.078,0.223C9.015,7.615,8.936,7.654,8.828,7.678c0.045,0.024,0.088,0.059,0.128,0.105
		c0.04,0.048,0.078,0.097,0.108,0.149c0.032,0.053,0.058,0.1,0.075,0.142s0.027,0.07,0.027,0.087c0,0.015-0.006,0.032-0.017,0.048
		c-0.01,0.016-0.024,0.028-0.043,0.039C9.09,8.258,9.069,8.261,9.045,8.261c-0.028,0-0.052-0.006-0.071-0.02
		c-0.019-0.014-0.035-0.03-0.05-0.051C8.91,8.17,8.892,8.141,8.867,8.101L8.767,7.933C8.73,7.87,8.697,7.823,8.669,7.791
		C8.642,7.759,8.611,7.736,8.582,7.726C8.554,7.714,8.516,7.707,8.472,7.708L8.472,7.708z M8.616,7.185H8.384v0.343h0.226
		c0.061,0,0.112-0.006,0.153-0.016c0.04-0.011,0.073-0.028,0.094-0.054c0.022-0.025,0.032-0.06,0.032-0.104
		c0-0.034-0.008-0.064-0.025-0.092C8.845,7.237,8.821,7.217,8.789,7.204C8.761,7.191,8.701,7.186,8.616,7.185L8.616,7.185z"/>
	<path fill="#DBDBDA" d="M10.765,7.867c0,0.076-0.02,0.144-0.059,0.203c-0.037,0.06-0.095,0.106-0.17,0.142
		c-0.075,0.033-0.164,0.05-0.267,0.05c-0.123,0-0.224-0.022-0.305-0.068C9.909,8.16,9.862,8.114,9.827,8.059
		C9.791,8.003,9.773,7.949,9.773,7.896c0-0.03,0.011-0.057,0.031-0.078c0.021-0.022,0.049-0.033,0.082-0.033
		c0.026,0,0.049,0.009,0.067,0.027c0.018,0.017,0.033,0.041,0.047,0.075c0.016,0.039,0.032,0.072,0.051,0.1
		c0.02,0.025,0.044,0.048,0.078,0.065c0.033,0.018,0.077,0.026,0.132,0.026c0.074,0,0.136-0.019,0.182-0.053
		s0.071-0.078,0.071-0.131c0-0.042-0.014-0.075-0.038-0.101c-0.025-0.024-0.059-0.045-0.098-0.059
		c-0.04-0.014-0.094-0.028-0.16-0.044c-0.089-0.021-0.165-0.045-0.224-0.073C9.935,7.59,9.887,7.553,9.851,7.503
		c-0.035-0.048-0.053-0.109-0.053-0.18c0-0.069,0.019-0.13,0.056-0.184c0.036-0.054,0.092-0.094,0.162-0.122s0.154-0.043,0.25-0.043
		c0.076,0,0.143,0.01,0.199,0.028s0.102,0.044,0.14,0.075c0.035,0.031,0.064,0.064,0.08,0.1c0.017,0.034,0.024,0.068,0.024,0.102
		c0,0.029-0.01,0.058-0.03,0.08c-0.021,0.023-0.049,0.036-0.08,0.036c-0.029,0-0.051-0.008-0.066-0.021
		c-0.014-0.016-0.031-0.039-0.048-0.072c-0.023-0.047-0.05-0.084-0.082-0.109c-0.031-0.026-0.082-0.039-0.152-0.039
		c-0.065,0-0.118,0.015-0.157,0.043s-0.06,0.062-0.06,0.103c0,0.025,0.008,0.047,0.02,0.065c0.013,0.018,0.033,0.033,0.057,0.047
		c0.024,0.014,0.048,0.022,0.072,0.03c0.024,0.007,0.065,0.018,0.121,0.032c0.069,0.017,0.134,0.035,0.19,0.055
		c0.057,0.021,0.105,0.044,0.145,0.072c0.041,0.028,0.071,0.063,0.095,0.107C10.755,7.752,10.765,7.806,10.765,7.867L10.765,7.867z"
		/>
	<path fill="#DBDBDA" d="M11.776,8.1l-0.059-0.155H11.21l-0.059,0.159c-0.023,0.062-0.043,0.104-0.061,0.126
		c-0.018,0.022-0.043,0.032-0.081,0.032c-0.03,0-0.059-0.011-0.084-0.034c-0.024-0.022-0.036-0.05-0.036-0.078
		c0-0.018,0.004-0.035,0.008-0.054c0.006-0.019,0.017-0.043,0.028-0.075l0.319-0.81c0.009-0.022,0.02-0.051,0.032-0.084
		c0.013-0.032,0.026-0.059,0.04-0.081c0.016-0.021,0.034-0.039,0.057-0.053c0.023-0.013,0.053-0.02,0.088-0.02
		s0.064,0.007,0.088,0.02c0.022,0.014,0.041,0.031,0.058,0.051c0.014,0.021,0.026,0.044,0.036,0.069
		c0.011,0.023,0.021,0.055,0.037,0.096l0.326,0.804c0.025,0.062,0.039,0.106,0.039,0.134c0,0.028-0.012,0.055-0.036,0.08
		c-0.024,0.024-0.053,0.035-0.087,0.035c-0.02,0-0.037-0.003-0.051-0.01c-0.016-0.008-0.025-0.018-0.036-0.028
		c-0.009-0.013-0.021-0.03-0.03-0.056C11.793,8.143,11.784,8.121,11.776,8.1L11.776,8.1z M11.277,7.754h0.373L11.462,7.24
		L11.277,7.754L11.277,7.754z"/>
	<path fill="#DBDBDA" d="M12.478,7.127v0.907h0.512c0.041,0,0.072,0.009,0.094,0.029c0.022,0.02,0.033,0.045,0.033,0.074
		c0,0.03-0.011,0.056-0.033,0.074C13.062,8.23,13.03,8.24,12.989,8.24H12.38c-0.053,0-0.094-0.013-0.117-0.036
		c-0.024-0.025-0.036-0.064-0.036-0.119V7.126c0-0.051,0.012-0.089,0.035-0.115c0.022-0.025,0.053-0.038,0.091-0.038
		c0.037,0,0.068,0.013,0.092,0.037c0.023,0.025,0.034,0.064,0.034,0.115L12.478,7.127z"/>
	<path fill="#DBDBDA" d="M14.103,7.19h-0.568v0.306h0.523c0.039,0,0.066,0.009,0.086,0.025c0.02,0.019,0.027,0.04,0.027,0.068
		s-0.008,0.052-0.027,0.069s-0.049,0.026-0.087,0.026h-0.523v0.354h0.589c0.038,0,0.068,0.009,0.09,0.027
		c0.021,0.018,0.029,0.043,0.029,0.073c0,0.029-0.009,0.054-0.029,0.072C14.19,8.23,14.16,8.24,14.122,8.24h-0.687
		c-0.054,0-0.095-0.013-0.118-0.036c-0.023-0.025-0.036-0.064-0.036-0.119V7.149c0-0.035,0.006-0.066,0.017-0.089
		c0.01-0.023,0.026-0.04,0.05-0.051s0.053-0.016,0.088-0.016h0.666c0.041,0,0.069,0.01,0.09,0.027s0.029,0.041,0.029,0.07
		s-0.009,0.054-0.029,0.071S14.143,7.189,14.103,7.19L14.103,7.19z"/>
	<path fill="#B2B2B2" d="M13.491,5.793c0,0.07-0.059,0.128-0.128,0.128h-0.353c-0.07,0-0.129-0.059-0.129-0.128V4.874
		c0-0.07,0.059-0.128,0.129-0.128h0.353c0.071,0,0.128,0.058,0.128,0.128V5.793z"/>
	<path fill="#B2B2B2" d="M7.208,5.793c0,0.07-0.058,0.128-0.128,0.128H6.728c-0.071,0-0.129-0.059-0.129-0.128V4.874
		c0-0.07,0.058-0.128,0.129-0.128H7.08c0.071,0,0.128,0.058,0.128,0.128V5.793z"/>
</g>
</svg>
