<?xml version="1.0" encoding="utf-8"?>
<!-- Generator: Adobe Illustrator 16.0.0, SVG Export Plug-In . SVG Version: 6.00 Build 0)  -->
<!DOCTYPE svg PUBLIC "-//W3C//DTD SVG 1.1//EN" "http://www.w3.org/Graphics/SVG/1.1/DTD/svg11.dtd">
<svg version="1.1" id="Layer_1" xmlns="http://www.w3.org/2000/svg" xmlns:xlink="http://www.w3.org/1999/xlink" x="0px" y="0px"
	 width="20px" height="20px" viewBox="0 0 20 20" enable-background="new 0 0 20 20" xml:space="preserve">
<g>
	<path fill="#4ABC96" d="M19.69,10c0,5.351-4.338,9.69-9.69,9.69S0.31,15.353,0.31,10c0-5.352,4.338-9.69,9.69-9.69
		S19.69,4.647,19.69,10z"/>
	<path fill="#6D6868" d="M8.217,15.31H3.131V5.811c0-0.345,0.278-0.623,0.623-0.623h3.841c0.344,0,0.622,0.278,0.622,0.623V15.31z"
		/>
	<path fill="#5F5E5E" d="M3.13,5.811c0-0.345,0.278-0.623,0.623-0.623h3.841c0.344,0,0.622,0.278,0.622,0.623H3.13z"/>
	<path fill="#E1E0E0" d="M4.026,15.087c-0.042,0-0.075-0.034-0.075-0.076v-0.468c0-0.042,0.033-0.076,0.075-0.076h1.081
		c0.042,0,0.075,0.035,0.075,0.076v0.468c0,0.042-0.034,0.076-0.075,0.076H4.026z"/>
	<path fill="#E1E0E0" d="M6.241,15.087c-0.042,0-0.076-0.034-0.076-0.076v-0.468c0-0.042,0.034-0.076,0.076-0.076h1.08
		c0.042,0,0.075,0.035,0.075,0.076v0.468c0,0.042-0.033,0.076-0.075,0.076H6.241z"/>
	<path fill="#E1E0E0" d="M6.241,13.842c-0.042,0-0.076-0.033-0.076-0.076v-0.468c0-0.041,0.034-0.074,0.076-0.074h0.274
		c0.042,0,0.076,0.033,0.076,0.074v0.468c0,0.043-0.035,0.076-0.076,0.076H6.241z"/>
	<path fill="#E1E0E0" d="M7.044,13.842c-0.041,0-0.074-0.033-0.074-0.076v-0.468c0-0.041,0.034-0.074,0.074-0.074H7.32
		c0.041,0,0.075,0.033,0.075,0.074v0.468c0,0.043-0.034,0.076-0.075,0.076H7.044z"/>
	<path fill="#E1E0E0" d="M4.025,13.842c-0.042,0-0.075-0.033-0.075-0.076v-0.468c0-0.041,0.033-0.074,0.075-0.074h0.275
		c0.042,0,0.075,0.033,0.075,0.074v0.468c0,0.043-0.033,0.076-0.075,0.076H4.025z"/>
	<path fill="#E1E0E0" d="M4.83,13.842c-0.042,0-0.075-0.033-0.075-0.076v-0.468c0-0.041,0.034-0.074,0.075-0.074h0.275
		c0.042,0,0.075,0.033,0.075,0.074v0.468c0,0.043-0.033,0.076-0.075,0.076H4.83z"/>
	<path fill="#E1E0E0" d="M6.241,12.231c-0.042,0-0.076-0.033-0.076-0.074v-0.469c0-0.042,0.034-0.075,0.076-0.075h0.274
		c0.042,0,0.076,0.034,0.076,0.075v0.469c0,0.041-0.035,0.074-0.076,0.074H6.241z"/>
	<path fill="#E1E0E0" d="M7.044,12.231c-0.041,0-0.074-0.033-0.074-0.074v-0.469c0-0.042,0.034-0.075,0.074-0.075H7.32
		c0.041,0,0.075,0.034,0.075,0.075v0.469c0,0.041-0.034,0.074-0.075,0.074H7.044z"/>
	<path fill="#E1E0E0" d="M4.025,12.231c-0.042,0-0.075-0.033-0.075-0.074v-0.469c0-0.042,0.033-0.075,0.075-0.075h0.275
		c0.042,0,0.075,0.034,0.075,0.075v0.469c0,0.041-0.033,0.074-0.075,0.074H4.025z"/>
	<path fill="#E1E0E0" d="M4.83,12.231c-0.042,0-0.075-0.033-0.075-0.074v-0.469c0-0.042,0.034-0.075,0.075-0.075h0.275
		c0.042,0,0.075,0.034,0.075,0.075v0.469c0,0.041-0.033,0.074-0.075,0.074H4.83z"/>
	<path fill="#E1E0E0" d="M6.241,10.624c-0.042,0-0.076-0.035-0.076-0.076v-0.469c0-0.042,0.034-0.075,0.076-0.075h0.274
		c0.042,0,0.076,0.035,0.076,0.075v0.469c0,0.041-0.035,0.076-0.076,0.076H6.241z"/>
	<path fill="#E1E0E0" d="M7.044,10.624c-0.041,0-0.074-0.035-0.074-0.076v-0.469c0-0.042,0.034-0.075,0.074-0.075H7.32
		c0.041,0,0.075,0.035,0.075,0.075v0.469c0,0.041-0.034,0.076-0.075,0.076H7.044z"/>
	<path fill="#E1E0E0" d="M4.025,10.624c-0.042,0-0.075-0.035-0.075-0.076v-0.469c0-0.042,0.033-0.075,0.075-0.075h0.275
		c0.042,0,0.075,0.035,0.075,0.075v0.469c0,0.041-0.033,0.076-0.075,0.076H4.025z"/>
	<path fill="#E1E0E0" d="M4.83,10.624c-0.042,0-0.075-0.035-0.075-0.076v-0.469c0-0.042,0.034-0.075,0.075-0.075h0.275
		c0.042,0,0.075,0.035,0.075,0.075v0.469c0,0.041-0.033,0.076-0.075,0.076H4.83z"/>
	<path fill="#E1E0E0" d="M6.241,9.014c-0.042,0-0.076-0.033-0.076-0.075V8.471c0-0.042,0.034-0.076,0.076-0.076h0.274
		c0.042,0,0.076,0.034,0.076,0.076v0.468c0,0.042-0.035,0.075-0.076,0.075H6.241z"/>
	<path fill="#E1E0E0" d="M7.044,9.014c-0.041,0-0.074-0.033-0.074-0.075V8.471c0-0.042,0.034-0.076,0.074-0.076H7.32
		c0.041,0,0.075,0.034,0.075,0.076v0.468c0,0.042-0.034,0.075-0.075,0.075H7.044z"/>
	<path fill="#E1E0E0" d="M4.025,9.014c-0.042,0-0.075-0.033-0.075-0.075V8.471c0-0.042,0.033-0.076,0.075-0.076h0.275
		c0.042,0,0.075,0.034,0.075,0.076v0.468c0,0.042-0.033,0.075-0.075,0.075H4.025z"/>
	<path fill="#E1E0E0" d="M4.83,9.014c-0.042,0-0.075-0.033-0.075-0.075V8.471c0-0.042,0.034-0.076,0.075-0.076h0.275
		c0.042,0,0.075,0.034,0.075,0.076v0.468c0,0.042-0.033,0.075-0.075,0.075H4.83z"/>
	<path fill="#E1E0E0" d="M6.241,7.404c-0.042,0-0.076-0.033-0.076-0.074V6.861c0-0.042,0.034-0.075,0.076-0.075h0.274
		c0.042,0,0.076,0.034,0.076,0.075V7.33c0,0.041-0.035,0.074-0.076,0.074H6.241z"/>
	<path fill="#E1E0E0" d="M7.044,7.404c-0.041,0-0.074-0.033-0.074-0.074V6.861c0-0.042,0.034-0.075,0.074-0.075H7.32
		c0.041,0,0.075,0.034,0.075,0.075V7.33c0,0.041-0.034,0.074-0.075,0.074H7.044z"/>
	<path fill="#E1E0E0" d="M4.025,7.404c-0.042,0-0.075-0.033-0.075-0.074V6.861c0-0.042,0.033-0.075,0.075-0.075h0.275
		c0.042,0,0.075,0.034,0.075,0.075V7.33c0,0.041-0.033,0.074-0.075,0.074H4.025z"/>
	<path fill="#E1E0E0" d="M4.83,7.404c-0.042,0-0.075-0.033-0.075-0.074V6.861c0-0.042,0.034-0.075,0.075-0.075h0.275
		c0.042,0,0.075,0.034,0.075,0.075V7.33c0,0.041-0.033,0.074-0.075,0.074H4.83z"/>
	<path fill="#4D4C4C" d="M5.428,14.526c0-0.033,0.028-0.06,0.061-0.06h0.369c0.034,0,0.06,0.027,0.06,0.06v0.783H5.428V14.526z"/>
	<path fill="#CDCCCB" d="M5.535,14.891c0,0.017-0.014,0.03-0.03,0.03s-0.03-0.014-0.03-0.03s0.014-0.031,0.03-0.031
		S5.535,14.874,5.535,14.891z"/>
	<path fill="#6D6868" d="M16.665,15.31h-5.087V5.811c0-0.345,0.278-0.623,0.624-0.623h3.84c0.345,0,0.623,0.278,0.623,0.623V15.31z"
		/>
	<path fill="#5F5E5E" d="M11.578,5.811c0-0.345,0.278-0.623,0.624-0.623h3.84c0.345,0,0.623,0.278,0.623,0.623H11.578z"/>
	<path fill="#E1E0E0" d="M12.475,15.087c-0.042,0-0.075-0.034-0.075-0.076v-0.468c0-0.042,0.033-0.076,0.075-0.076h1.081
		c0.041,0,0.075,0.035,0.075,0.076v0.468c0,0.042-0.034,0.076-0.075,0.076H12.475z"/>
	<path fill="#E1E0E0" d="M14.688,15.087c-0.041,0-0.075-0.034-0.075-0.076v-0.468c0-0.042,0.034-0.076,0.075-0.076h1.08
		c0.042,0,0.076,0.035,0.076,0.076v0.468c0,0.042-0.034,0.076-0.076,0.076H14.688z"/>
	<path fill="#E1E0E0" d="M14.688,13.842c-0.041,0-0.075-0.033-0.075-0.076v-0.468c0-0.041,0.034-0.074,0.075-0.074h0.275
		c0.042,0,0.076,0.033,0.076,0.074v0.468c0,0.043-0.035,0.076-0.076,0.076H14.688z"/>
	<path fill="#E1E0E0" d="M15.492,13.842c-0.041,0-0.076-0.033-0.076-0.076v-0.468c0-0.041,0.035-0.074,0.076-0.074h0.275
		c0.042,0,0.075,0.033,0.075,0.074v0.468c0,0.043-0.033,0.076-0.075,0.076H15.492z"/>
	<path fill="#E1E0E0" d="M12.474,13.842c-0.042,0-0.075-0.033-0.075-0.076v-0.468c0-0.041,0.033-0.074,0.075-0.074h0.275
		c0.042,0,0.075,0.033,0.075,0.074v0.468c0,0.043-0.034,0.076-0.075,0.076H12.474z"/>
	<path fill="#E1E0E0" d="M13.277,13.842c-0.042,0-0.075-0.033-0.075-0.076v-0.468c0-0.041,0.033-0.074,0.075-0.074h0.276
		c0.041,0,0.074,0.033,0.074,0.074v0.468c0,0.043-0.033,0.076-0.074,0.076H13.277z"/>
	<path fill="#E1E0E0" d="M14.688,12.231c-0.041,0-0.075-0.033-0.075-0.074v-0.469c0-0.042,0.034-0.075,0.075-0.075h0.275
		c0.042,0,0.076,0.034,0.076,0.075v0.469c0,0.041-0.035,0.074-0.076,0.074H14.688z"/>
	<path fill="#E1E0E0" d="M15.492,12.231c-0.041,0-0.076-0.033-0.076-0.074v-0.469c0-0.042,0.035-0.075,0.076-0.075h0.275
		c0.042,0,0.075,0.034,0.075,0.075v0.469c0,0.041-0.033,0.074-0.075,0.074H15.492z"/>
	<path fill="#E1E0E0" d="M12.474,12.231c-0.042,0-0.075-0.033-0.075-0.074v-0.469c0-0.042,0.033-0.075,0.075-0.075h0.275
		c0.042,0,0.075,0.034,0.075,0.075v0.469c0,0.041-0.034,0.074-0.075,0.074H12.474z"/>
	<path fill="#E1E0E0" d="M13.277,12.231c-0.042,0-0.075-0.033-0.075-0.074v-0.469c0-0.042,0.033-0.075,0.075-0.075h0.276
		c0.041,0,0.074,0.034,0.074,0.075v0.469c0,0.041-0.033,0.074-0.074,0.074H13.277z"/>
	<path fill="#E1E0E0" d="M14.688,10.624c-0.041,0-0.075-0.035-0.075-0.076v-0.469c0-0.042,0.034-0.075,0.075-0.075h0.275
		c0.042,0,0.076,0.035,0.076,0.075v0.469c0,0.041-0.035,0.076-0.076,0.076H14.688z"/>
	<path fill="#E1E0E0" d="M15.492,10.624c-0.041,0-0.076-0.035-0.076-0.076v-0.469c0-0.042,0.035-0.075,0.076-0.075h0.275
		c0.042,0,0.075,0.035,0.075,0.075v0.469c0,0.041-0.033,0.076-0.075,0.076H15.492z"/>
	<path fill="#E1E0E0" d="M12.474,10.624c-0.042,0-0.075-0.035-0.075-0.076v-0.469c0-0.042,0.033-0.075,0.075-0.075h0.275
		c0.042,0,0.075,0.035,0.075,0.075v0.469c0,0.041-0.034,0.076-0.075,0.076H12.474z"/>
	<path fill="#E1E0E0" d="M13.277,10.624c-0.042,0-0.075-0.035-0.075-0.076v-0.469c0-0.042,0.033-0.075,0.075-0.075h0.276
		c0.041,0,0.074,0.035,0.074,0.075v0.469c0,0.041-0.033,0.076-0.074,0.076H13.277z"/>
	<path fill="#E1E0E0" d="M14.688,9.014c-0.041,0-0.075-0.033-0.075-0.075V8.471c0-0.042,0.034-0.076,0.075-0.076h0.275
		c0.042,0,0.076,0.034,0.076,0.076v0.468c0,0.042-0.035,0.075-0.076,0.075H14.688z"/>
	<path fill="#E1E0E0" d="M15.492,9.014c-0.041,0-0.076-0.033-0.076-0.075V8.471c0-0.042,0.035-0.076,0.076-0.076h0.275
		c0.042,0,0.075,0.034,0.075,0.076v0.468c0,0.042-0.033,0.075-0.075,0.075H15.492z"/>
	<path fill="#E1E0E0" d="M12.474,9.014c-0.042,0-0.075-0.033-0.075-0.075V8.471c0-0.042,0.033-0.076,0.075-0.076h0.275
		c0.042,0,0.075,0.034,0.075,0.076v0.468c0,0.042-0.034,0.075-0.075,0.075H12.474z"/>
	<path fill="#E1E0E0" d="M13.277,9.014c-0.042,0-0.075-0.033-0.075-0.075V8.471c0-0.042,0.033-0.076,0.075-0.076h0.276
		c0.041,0,0.074,0.034,0.074,0.076v0.468c0,0.042-0.033,0.075-0.074,0.075H13.277z"/>
	<path fill="#E1E0E0" d="M14.688,7.404c-0.041,0-0.075-0.033-0.075-0.074V6.861c0-0.042,0.034-0.075,0.075-0.075h0.275
		c0.042,0,0.076,0.034,0.076,0.075V7.33c0,0.041-0.035,0.074-0.076,0.074H14.688z"/>
	<path fill="#E1E0E0" d="M15.492,7.404c-0.041,0-0.076-0.033-0.076-0.074V6.861c0-0.042,0.035-0.075,0.076-0.075h0.275
		c0.042,0,0.075,0.034,0.075,0.075V7.33c0,0.041-0.033,0.074-0.075,0.074H15.492z"/>
	<path fill="#E1E0E0" d="M12.474,7.404c-0.042,0-0.075-0.033-0.075-0.074V6.861c0-0.042,0.033-0.075,0.075-0.075h0.275
		c0.042,0,0.075,0.034,0.075,0.075V7.33c0,0.041-0.034,0.074-0.075,0.074H12.474z"/>
	<path fill="#E1E0E0" d="M13.277,7.404c-0.042,0-0.075-0.033-0.075-0.074V6.861c0-0.042,0.033-0.075,0.075-0.075h0.276
		c0.041,0,0.074,0.034,0.074,0.075V7.33c0,0.041-0.033,0.074-0.074,0.074H13.277z"/>
	<path fill="#4D4C4C" d="M13.876,14.526c0-0.033,0.027-0.06,0.061-0.06h0.37c0.034,0,0.06,0.027,0.06,0.06v0.783h-0.49V14.526z"/>
	<path fill="#CDCCCB" d="M13.982,14.891c0,0.017-0.013,0.03-0.03,0.03c-0.017,0-0.029-0.014-0.029-0.03s0.013-0.031,0.029-0.031
		C13.97,14.859,13.982,14.874,13.982,14.891z"/>
	<path fill="#868787" d="M13.404,16.814H6.569V4.053c0-0.463,0.375-0.836,0.838-0.836h5.161c0.462,0,0.837,0.374,0.837,0.836
		L13.404,16.814L13.404,16.814z"/>
	<path fill="#787878" d="M6.569,4.053c0-0.463,0.375-0.836,0.838-0.836h5.161c0.462,0,0.837,0.374,0.837,0.836H6.569L6.569,4.053z"
		/>
	<path fill="#E1E0E0" d="M7.774,16.516c-0.057,0-0.102-0.045-0.102-0.102v-0.628c0-0.058,0.046-0.103,0.102-0.103h1.45
		c0.057,0,0.102,0.047,0.102,0.103v0.628c0,0.057-0.046,0.102-0.102,0.102H7.774z"/>
	<path fill="#E1E0E0" d="M10.748,16.516c-0.056,0-0.101-0.045-0.101-0.102v-0.628c0-0.058,0.046-0.103,0.101-0.103H12.2
		c0.055,0,0.101,0.047,0.101,0.103v0.628c0,0.057-0.046,0.102-0.101,0.102H10.748z"/>
	<path fill="#E1E0E0" d="M10.748,14.842c-0.056,0-0.101-0.046-0.101-0.103v-0.628c0-0.056,0.046-0.101,0.101-0.101h0.37
		c0.057,0,0.102,0.046,0.102,0.101v0.628c0,0.058-0.046,0.103-0.102,0.103H10.748z"/>
	<path fill="#E1E0E0" d="M11.83,14.842c-0.058,0-0.103-0.046-0.103-0.103v-0.628c0-0.056,0.047-0.101,0.103-0.101h0.37
		c0.055,0,0.101,0.046,0.101,0.101v0.628c0,0.058-0.046,0.103-0.101,0.103H11.83z"/>
	<path fill="#E1E0E0" d="M7.773,14.842c-0.057,0-0.102-0.046-0.102-0.103v-0.628c0-0.056,0.046-0.101,0.102-0.101h0.369
		c0.057,0,0.102,0.046,0.102,0.101v0.628c0,0.058-0.046,0.103-0.102,0.103H7.773z"/>
	<path fill="#E1E0E0" d="M8.854,14.842c-0.057,0-0.102-0.046-0.102-0.103v-0.628c0-0.056,0.046-0.101,0.102-0.101h0.369
		c0.057,0,0.102,0.046,0.102,0.101v0.628c0,0.058-0.046,0.103-0.102,0.103H8.854z"/>
	<path fill="#E1E0E0" d="M10.748,12.681c-0.056,0-0.101-0.045-0.101-0.103V11.95c0-0.057,0.046-0.102,0.101-0.102h0.37
		c0.057,0,0.102,0.047,0.102,0.102v0.628c0,0.058-0.046,0.103-0.102,0.103H10.748z"/>
	<path fill="#E1E0E0" d="M11.83,12.681c-0.058,0-0.103-0.045-0.103-0.103V11.95c0-0.057,0.047-0.102,0.103-0.102h0.37
		c0.055,0,0.101,0.047,0.101,0.102v0.628c0,0.058-0.046,0.103-0.101,0.103H11.83z"/>
	<path fill="#E1E0E0" d="M7.773,12.681c-0.057,0-0.102-0.045-0.102-0.103V11.95c0-0.057,0.046-0.102,0.102-0.102h0.369
		c0.057,0,0.102,0.047,0.102,0.102v0.628c0,0.058-0.046,0.103-0.102,0.103H7.773z"/>
	<path fill="#E1E0E0" d="M8.854,12.681c-0.057,0-0.102-0.045-0.102-0.103V11.95c0-0.057,0.046-0.102,0.102-0.102h0.369
		c0.057,0,0.102,0.047,0.102,0.102v0.628c0,0.058-0.046,0.103-0.102,0.103H8.854z"/>
	<path fill="#E1E0E0" d="M10.748,10.519c-0.056,0-0.101-0.047-0.101-0.103V9.788c0-0.057,0.046-0.102,0.101-0.102h0.37
		c0.057,0,0.102,0.047,0.102,0.102v0.628c0,0.057-0.046,0.103-0.102,0.103H10.748z"/>
	<path fill="#E1E0E0" d="M11.83,10.519c-0.058,0-0.103-0.047-0.103-0.103V9.788c0-0.057,0.047-0.102,0.103-0.102h0.37
		c0.055,0,0.101,0.047,0.101,0.102v0.628c0,0.057-0.046,0.103-0.101,0.103H11.83z"/>
	<path fill="#E1E0E0" d="M7.773,10.519c-0.057,0-0.102-0.047-0.102-0.103V9.788c0-0.057,0.046-0.102,0.102-0.102h0.369
		c0.057,0,0.102,0.047,0.102,0.102v0.628c0,0.057-0.046,0.103-0.102,0.103H7.773z"/>
	<path fill="#E1E0E0" d="M8.854,10.519c-0.057,0-0.102-0.047-0.102-0.103V9.788c0-0.057,0.046-0.102,0.102-0.102h0.369
		c0.057,0,0.102,0.047,0.102,0.102v0.628c0,0.057-0.046,0.103-0.102,0.103H8.854z"/>
	<path fill="#E1E0E0" d="M10.748,8.356c-0.056,0-0.101-0.047-0.101-0.102V7.627c0-0.057,0.046-0.103,0.101-0.103h0.37
		c0.057,0,0.102,0.046,0.102,0.103v0.628c0,0.057-0.046,0.102-0.102,0.102H10.748z"/>
	<path fill="#E1E0E0" d="M11.83,8.356c-0.058,0-0.103-0.047-0.103-0.102V7.627c0-0.057,0.047-0.103,0.103-0.103h0.37
		c0.055,0,0.101,0.046,0.101,0.103v0.628c0,0.057-0.046,0.102-0.101,0.102H11.83z"/>
	<path fill="#E1E0E0" d="M7.773,8.356c-0.057,0-0.102-0.047-0.102-0.102V7.627c0-0.057,0.046-0.103,0.102-0.103h0.369
		c0.057,0,0.102,0.046,0.102,0.103v0.628c0,0.057-0.046,0.102-0.102,0.102H7.773z"/>
	<path fill="#E1E0E0" d="M8.854,8.356c-0.057,0-0.102-0.047-0.102-0.102V7.627c0-0.057,0.046-0.103,0.102-0.103h0.369
		c0.057,0,0.102,0.046,0.102,0.103v0.628c0,0.057-0.046,0.102-0.102,0.102H8.854z"/>
	<path fill="#E1E0E0" d="M10.748,6.195c-0.056,0-0.101-0.047-0.101-0.103V5.465c0-0.056,0.046-0.102,0.101-0.102h0.37
		c0.057,0,0.102,0.047,0.102,0.102v0.628c0,0.057-0.046,0.103-0.102,0.103H10.748z"/>
	<path fill="#E1E0E0" d="M11.83,6.195c-0.058,0-0.103-0.047-0.103-0.103V5.465c0-0.056,0.047-0.102,0.103-0.102h0.37
		c0.055,0,0.101,0.047,0.101,0.102v0.628c0,0.057-0.046,0.103-0.101,0.103H11.83z"/>
	<path fill="#E1E0E0" d="M7.773,6.195c-0.057,0-0.102-0.047-0.102-0.103V5.465c0-0.056,0.046-0.102,0.102-0.102h0.369
		c0.057,0,0.102,0.047,0.102,0.102v0.628c0,0.057-0.046,0.103-0.102,0.103H7.773z"/>
	<path fill="#E1E0E0" d="M8.854,6.195c-0.057,0-0.102-0.047-0.102-0.103V5.465c0-0.056,0.046-0.102,0.102-0.102h0.369
		c0.057,0,0.102,0.047,0.102,0.102v0.628c0,0.057-0.046,0.103-0.102,0.103H8.854z"/>
	<path fill="#4D4C4C" d="M9.657,15.762c0-0.044,0.036-0.081,0.081-0.081h0.496c0.045,0,0.08,0.036,0.08,0.081v1.053H9.657V15.762z"
		/>
	<path fill="#CDCCCB" d="M9.801,16.252c0,0.021-0.018,0.04-0.041,0.04c-0.022,0-0.041-0.018-0.041-0.04s0.019-0.041,0.041-0.041
		C9.783,16.211,9.801,16.229,9.801,16.252z"/>
</g>
</svg>
