<?xml version="1.0" encoding="utf-8"?>
<!-- Generator: Adobe Illustrator 16.0.0, SVG Export Plug-In . SVG Version: 6.00 Build 0)  -->
<!DOCTYPE svg PUBLIC "-//W3C//DTD SVG 1.1//EN" "http://www.w3.org/Graphics/SVG/1.1/DTD/svg11.dtd">
<svg version="1.1" id="Layer_1" xmlns="http://www.w3.org/2000/svg" xmlns:xlink="http://www.w3.org/1999/xlink" x="0px" y="0px"
	 width="20px" height="20px" viewBox="0 0 20 20" enable-background="new 0 0 20 20" xml:space="preserve">
<g>
	<path fill="#67B8CB" d="M19.69,10c0,5.351-4.338,9.69-9.69,9.69S0.31,15.353,0.31,10c0-5.352,4.338-9.69,9.69-9.69
		S19.69,4.647,19.69,10z"/>
	<path fill="#A2D4DE" d="M6.063,3.18h7.914v13.686H6.063V3.18z"/>
	<path fill="#776850" d="M6.289,3.406h7.464V16.93h0.453V2.955H5.838V16.93H6.29L6.289,3.406z"/>
	<path fill="#6CC077" d="M13.75,16.924L6.3,16.915l0.006-3.314c0,0,2.008-0.48,4.021,0s3.424,0.008,3.424,0.008V16.924z"/>
	<path fill="#776850" d="M11.062,15.143l-4.772,1.766V3.304l4.772,2.247V15.143z"/>
	<path fill="#3D4040" d="M11.454,10.445c0,0.219-0.191,0.397-0.428,0.397c-0.235,0-0.425-0.179-0.425-0.397s0.189-0.396,0.425-0.396
		C11.263,10.049,11.454,10.227,11.454,10.445z"/>
	<path fill="#3D4040" d="M10.359,10.445c0,0.151,0.133,0.274,0.296,0.274s0.297-0.123,0.297-0.274s-0.134-0.273-0.297-0.273
		S10.359,10.294,10.359,10.445z"/>
	<path fill="#958469" d="M10.599,9.506H7.156V4.857l3.442,1.421V9.506z"/>
	<path fill="#A2D4DE" d="M10.384,9.216H7.371V5.149l3.013,1.242V9.216z"/>
	<path fill="#B19353" d="M16.824,16.878H3.176C4.927,18.615,7.338,19.69,10,19.69S15.072,18.615,16.824,16.878L16.824,16.878z"/>
</g>
</svg>
