<?xml version="1.0" encoding="utf-8"?>
<!-- Generator: Adobe Illustrator 16.0.0, SVG Export Plug-In . SVG Version: 6.00 Build 0)  -->
<!DOCTYPE svg PUBLIC "-//W3C//DTD SVG 1.1//EN" "http://www.w3.org/Graphics/SVG/1.1/DTD/svg11.dtd">
<svg version="1.1" id="Layer_1" xmlns="http://www.w3.org/2000/svg" xmlns:xlink="http://www.w3.org/1999/xlink" x="0px" y="0px"
	 width="20px" height="20px" viewBox="0 0 20 20" enable-background="new 0 0 20 20" xml:space="preserve">
<g>
	<path fill="#E79E2D" d="M19.69,10c0,5.351-4.338,9.69-9.69,9.69S0.31,15.353,0.31,10c0-5.352,4.338-9.69,9.69-9.69
		S19.69,4.647,19.69,10z"/>
	<path fill="#868787" d="M16.196,15.643H3.771V5.251c0-0.462,0.375-0.836,0.837-0.836h10.752c0.464,0,0.838,0.375,0.838,0.836
		L16.196,15.643L16.196,15.643z"/>
	<path fill="#E1E0E0" d="M13.776,13.669c-0.056,0-0.102-0.046-0.102-0.102V12.94c0-0.058,0.046-0.103,0.102-0.103h0.37
		c0.057,0,0.102,0.046,0.102,0.103v0.627c0,0.057-0.047,0.102-0.102,0.102H13.776z"/>
	<path fill="#E1E0E0" d="M14.857,13.669c-0.056,0-0.101-0.046-0.101-0.102V12.94c0-0.058,0.046-0.103,0.101-0.103h0.37
		c0.057,0,0.102,0.046,0.102,0.103v0.627c0,0.057-0.046,0.102-0.102,0.102H14.857z"/>
	<path fill="#E1E0E0" d="M13.776,11.507c-0.056,0-0.102-0.045-0.102-0.102v-0.627c0-0.057,0.046-0.102,0.102-0.102h0.37
		c0.057,0,0.102,0.045,0.102,0.102v0.627c0,0.057-0.047,0.102-0.102,0.102H13.776z"/>
	<path fill="#E1E0E0" d="M14.857,11.507c-0.056,0-0.101-0.045-0.101-0.102v-0.627c0-0.057,0.046-0.102,0.101-0.102h0.37
		c0.057,0,0.102,0.045,0.102,0.102v0.627c0,0.057-0.046,0.102-0.102,0.102H14.857z"/>
	<path fill="#E1E0E0" d="M13.776,9.346c-0.056,0-0.102-0.046-0.102-0.102V8.616c0-0.057,0.046-0.102,0.102-0.102h0.37
		c0.057,0,0.102,0.046,0.102,0.102v0.628c0,0.057-0.047,0.102-0.102,0.102H13.776z"/>
	<path fill="#E1E0E0" d="M14.857,9.346c-0.056,0-0.101-0.046-0.101-0.102V8.616c0-0.057,0.046-0.102,0.101-0.102h0.37
		c0.057,0,0.102,0.046,0.102,0.102v0.628c0,0.057-0.046,0.102-0.102,0.102H14.857z"/>
	<path fill="#E1E0E0" d="M13.776,7.183c-0.056,0-0.102-0.046-0.102-0.102V6.453c0-0.057,0.046-0.102,0.102-0.102h0.37
		c0.057,0,0.102,0.045,0.102,0.102v0.628c0,0.057-0.047,0.102-0.102,0.102H13.776z"/>
	<path fill="#E1E0E0" d="M14.857,7.183c-0.056,0-0.101-0.046-0.101-0.102V6.453c0-0.057,0.046-0.102,0.101-0.102h0.37
		c0.057,0,0.102,0.045,0.102,0.102v0.628c0,0.057-0.046,0.102-0.102,0.102H14.857z"/>
	<path fill="#E1E0E0" d="M10.748,7.183c-0.056,0-0.101-0.046-0.101-0.102V6.453c0-0.057,0.046-0.102,0.101-0.102h0.37
		c0.057,0,0.102,0.045,0.102,0.102v0.628c0,0.057-0.046,0.102-0.102,0.102H10.748z"/>
	<path fill="#E1E0E0" d="M11.83,7.183c-0.058,0-0.103-0.046-0.103-0.102V6.453c0-0.057,0.047-0.102,0.103-0.102h0.37
		c0.055,0,0.101,0.045,0.101,0.102v0.628c0,0.057-0.046,0.102-0.101,0.102H11.83z"/>
	<path fill="#E1E0E0" d="M10.748,13.669c-0.056,0-0.101-0.046-0.101-0.102V12.94c0-0.058,0.046-0.103,0.101-0.103h0.37
		c0.057,0,0.102,0.046,0.102,0.103v0.627c0,0.057-0.046,0.102-0.102,0.102H10.748z"/>
	<path fill="#E1E0E0" d="M11.83,13.669c-0.058,0-0.103-0.046-0.103-0.102V12.94c0-0.058,0.047-0.103,0.103-0.103h0.37
		c0.055,0,0.101,0.046,0.101,0.103v0.627c0,0.057-0.046,0.102-0.101,0.102H11.83z"/>
	<path fill="#E1E0E0" d="M10.748,11.507c-0.056,0-0.101-0.045-0.101-0.102v-0.627c0-0.057,0.046-0.102,0.101-0.102h0.37
		c0.057,0,0.102,0.045,0.102,0.102v0.627c0,0.057-0.046,0.102-0.102,0.102H10.748z"/>
	<path fill="#E1E0E0" d="M11.83,11.507c-0.058,0-0.103-0.045-0.103-0.102v-0.627c0-0.057,0.047-0.102,0.103-0.102h0.37
		c0.055,0,0.101,0.045,0.101,0.102v0.627c0,0.057-0.046,0.102-0.101,0.102H11.83z"/>
	<path fill="#E1E0E0" d="M10.748,9.346c-0.056,0-0.101-0.046-0.101-0.102V8.616c0-0.057,0.046-0.102,0.101-0.102h0.37
		c0.057,0,0.102,0.046,0.102,0.102v0.628c0,0.057-0.046,0.102-0.102,0.102H10.748z"/>
	<path fill="#E1E0E0" d="M11.83,9.346c-0.058,0-0.103-0.046-0.103-0.102V8.616c0-0.057,0.047-0.102,0.103-0.102h0.37
		c0.055,0,0.101,0.046,0.101,0.102v0.628c0,0.057-0.046,0.102-0.101,0.102H11.83z"/>
	<path fill="#E1E0E0" d="M7.773,13.669c-0.057,0-0.102-0.046-0.102-0.102V12.94c0-0.058,0.046-0.103,0.102-0.103h0.369
		c0.057,0,0.102,0.046,0.102,0.103v0.627c0,0.057-0.046,0.102-0.102,0.102H7.773z"/>
	<path fill="#E1E0E0" d="M8.854,13.669c-0.057,0-0.102-0.046-0.102-0.102V12.94c0-0.058,0.046-0.103,0.102-0.103h0.369
		c0.057,0,0.102,0.046,0.102,0.103v0.627c0,0.057-0.046,0.102-0.102,0.102H8.854z"/>
	<path fill="#E1E0E0" d="M7.773,11.507c-0.057,0-0.102-0.045-0.102-0.102v-0.627c0-0.057,0.046-0.102,0.102-0.102h0.369
		c0.057,0,0.102,0.045,0.102,0.102v0.627c0,0.057-0.046,0.102-0.102,0.102H7.773z"/>
	<path fill="#E1E0E0" d="M8.854,11.507c-0.057,0-0.102-0.045-0.102-0.102v-0.627c0-0.057,0.046-0.102,0.102-0.102h0.369
		c0.057,0,0.102,0.045,0.102,0.102v0.627c0,0.057-0.046,0.102-0.102,0.102H8.854z"/>
	<path fill="#E1E0E0" d="M7.773,9.346c-0.057,0-0.102-0.046-0.102-0.102V8.616c0-0.057,0.046-0.102,0.102-0.102h0.369
		c0.057,0,0.102,0.046,0.102,0.102v0.628c0,0.057-0.046,0.102-0.102,0.102H7.773z"/>
	<path fill="#E1E0E0" d="M8.854,9.346c-0.057,0-0.102-0.046-0.102-0.102V8.616c0-0.057,0.046-0.102,0.102-0.102h0.369
		c0.057,0,0.102,0.046,0.102,0.102v0.628c0,0.057-0.046,0.102-0.102,0.102H8.854z"/>
	<path fill="#E1E0E0" d="M7.773,7.183c-0.057,0-0.102-0.046-0.102-0.102V6.453c0-0.057,0.046-0.102,0.102-0.102h0.369
		c0.057,0,0.102,0.045,0.102,0.102v0.628c0,0.057-0.046,0.102-0.102,0.102H7.773z"/>
	<path fill="#E1E0E0" d="M8.854,7.183c-0.057,0-0.102-0.046-0.102-0.102V6.453c0-0.057,0.046-0.102,0.102-0.102h0.369
		c0.057,0,0.102,0.045,0.102,0.102v0.628c0,0.057-0.046,0.102-0.102,0.102H8.854z"/>
	<path fill="#E1E0E0" d="M4.801,13.669c-0.057,0-0.102-0.046-0.102-0.102V12.94c0-0.058,0.046-0.103,0.102-0.103H5.17
		c0.057,0,0.102,0.046,0.102,0.103v0.627c0,0.057-0.046,0.102-0.102,0.102H4.801z"/>
	<path fill="#E1E0E0" d="M5.882,13.669c-0.057,0-0.102-0.046-0.102-0.102V12.94c0-0.058,0.046-0.103,0.102-0.103h0.369
		c0.057,0,0.102,0.046,0.102,0.103v0.627c0,0.057-0.046,0.102-0.102,0.102H5.882z"/>
	<path fill="#E1E0E0" d="M4.801,11.507c-0.057,0-0.102-0.045-0.102-0.102v-0.627c0-0.057,0.046-0.102,0.102-0.102H5.17
		c0.057,0,0.102,0.045,0.102,0.102v0.627c0,0.057-0.046,0.102-0.102,0.102H4.801z"/>
	<path fill="#E1E0E0" d="M5.882,11.507c-0.057,0-0.102-0.045-0.102-0.102v-0.627c0-0.057,0.046-0.102,0.102-0.102h0.369
		c0.057,0,0.102,0.045,0.102,0.102v0.627c0,0.057-0.046,0.102-0.102,0.102H5.882z"/>
	<path fill="#E1E0E0" d="M4.801,9.346c-0.057,0-0.102-0.046-0.102-0.102V8.616c0-0.057,0.046-0.102,0.102-0.102H5.17
		c0.057,0,0.102,0.046,0.102,0.102v0.628c0,0.057-0.046,0.102-0.102,0.102H4.801z"/>
	<path fill="#E1E0E0" d="M5.882,9.346C5.825,9.346,5.78,9.3,5.78,9.244V8.616c0-0.057,0.046-0.102,0.102-0.102h0.369
		c0.057,0,0.102,0.046,0.102,0.102v0.628c0,0.057-0.046,0.102-0.102,0.102H5.882z"/>
	<path fill="#E1E0E0" d="M4.801,7.183c-0.057,0-0.102-0.046-0.102-0.102V6.453c0-0.057,0.046-0.102,0.102-0.102H5.17
		c0.057,0,0.102,0.045,0.102,0.102v0.628c0,0.057-0.046,0.102-0.102,0.102H4.801z"/>
	<path fill="#E1E0E0" d="M5.882,7.183c-0.057,0-0.102-0.046-0.102-0.102V6.453c0-0.057,0.046-0.102,0.102-0.102h0.369
		c0.057,0,0.102,0.045,0.102,0.102v0.628c0,0.057-0.046,0.102-0.102,0.102H5.882z"/>
	<path fill="#787878" d="M3.771,5.251c0-0.462,0.375-0.836,0.837-0.836H15.36c0.463,0,0.838,0.375,0.838,0.836H3.771L3.771,5.251z"
		/>
	<path fill="#E1E0E0" d="M7.774,15.343c-0.057,0-0.102-0.046-0.102-0.102v-0.628c0-0.056,0.046-0.101,0.102-0.101h1.45
		c0.057,0,0.102,0.045,0.102,0.101v0.628c0,0.056-0.046,0.102-0.102,0.102H7.774z"/>
	<path fill="#E1E0E0" d="M10.748,15.343c-0.056,0-0.101-0.046-0.101-0.102v-0.628c0-0.056,0.046-0.101,0.101-0.101H12.2
		c0.055,0,0.101,0.045,0.101,0.101v0.628c0,0.056-0.046,0.102-0.101,0.102H10.748z"/>
	<path fill="#4D4C4C" d="M9.657,14.589c0-0.044,0.036-0.081,0.081-0.081h0.496c0.045,0,0.08,0.036,0.08,0.081v1.054H9.657V14.589z"
		/>
	<path fill="#CDCCCB" d="M9.801,15.078c0,0.021-0.018,0.041-0.041,0.041c-0.022,0-0.041-0.018-0.041-0.041
		c0-0.022,0.019-0.04,0.041-0.04C9.783,15.038,9.801,15.055,9.801,15.078z"/>
</g>
</svg>
