<?xml version="1.0" encoding="utf-8"?>
<!-- Generator: Adobe Illustrator 16.0.0, SVG Export Plug-In . SVG Version: 6.00 Build 0)  -->
<!DOCTYPE svg PUBLIC "-//W3C//DTD SVG 1.1//EN" "http://www.w3.org/Graphics/SVG/1.1/DTD/svg11.dtd">
<svg version="1.1" id="Layer_1" xmlns="http://www.w3.org/2000/svg" xmlns:xlink="http://www.w3.org/1999/xlink" x="0px" y="0px"
	 width="20px" height="20px" viewBox="0 0 20 20" enable-background="new 0 0 20 20" xml:space="preserve">
<g>
	<path fill="#1FA85B" d="M19.69,10c0,5.351-4.338,9.69-9.69,9.69S0.31,15.353,0.31,10c0-5.352,4.338-9.69,9.69-9.69
		S19.69,4.647,19.69,10z"/>
	<path fill="#D7B528" d="M10.203,2.174c-2.199,0-3.981,1.783-3.981,3.981c0,2.197,1.782,3.98,3.981,3.98
		c2.198,0,3.981-1.783,3.981-3.98C14.185,3.957,12.401,2.174,10.203,2.174z M10.203,4.759c-0.443,0-0.802-0.359-0.802-0.802
		c0-0.443,0.358-0.803,0.802-0.803s0.802,0.359,0.802,0.803C11.005,4.399,10.646,4.759,10.203,4.759z"/>
	<path fill="#D7B528" d="M8.786,7.443v9.634c0,0.032,0.011,0.062,0.031,0.084l0.743,0.835c0.017,0.02,0.039,0.028,0.062,0.028
		c0.003,0,0.006,0,0.008-0.001c0.026-0.002,0.051-0.02,0.066-0.044l1.084-1.745c0.022-0.034,0.024-0.081,0.008-0.121l-0.484-1.151
		v-0.482l0.362-0.307c0.023-0.02,0.037-0.049,0.039-0.084l0.089-1.349l0.861-0.689c0.026-0.021,0.042-0.058,0.042-0.095V7.469
		L8.786,7.441V7.443z"/>
	<path fill="#E8C638" d="M10.203,2.174l-0.031,0.983c0.01,0,0.021-0.004,0.031-0.004c0.443,0,0.802,0.359,0.802,0.803
		c0,0.442-0.358,0.802-0.802,0.802c-0.028,0-0.055-0.006-0.083-0.009l-0.424,13.23l1.084-1.745c0.021-0.034,0.025-0.081,0.008-0.121
		l-0.484-1.151v-0.482l0.361-0.307c0.024-0.02,0.038-0.049,0.04-0.084l0.089-1.349l0.861-0.689c0.025-0.021,0.042-0.058,0.042-0.095
		V9.842c1.457-0.592,2.484-2.021,2.484-3.688c0-2.198-1.782-3.981-3.981-3.981L10.203,2.174z"/>
	<path fill="#B3932F" d="M9.434,17.854l0.127,0.142c0.017,0.02,0.039,0.028,0.062,0.028c0.003,0,0.006,0,0.008-0.001
		c0.018-0.001,0.032-0.011,0.045-0.021v-7.904c-0.081-0.01-0.161-0.023-0.242-0.039v7.793V17.854z"/>
	<path fill="#B3932F" d="M10.832,12.713l0.243-0.194v-2.481c-0.08,0.019-0.161,0.035-0.243,0.048V12.713z"/>
</g>
</svg>
