<?xml version="1.0" encoding="utf-8"?>
<!-- Generator: Adobe Illustrator 16.0.0, SVG Export Plug-In . SVG Version: 6.00 Build 0)  -->
<!DOCTYPE svg PUBLIC "-//W3C//DTD SVG 1.1//EN" "http://www.w3.org/Graphics/SVG/1.1/DTD/svg11.dtd">
<svg version="1.1" id="Layer_1" xmlns="http://www.w3.org/2000/svg" xmlns:xlink="http://www.w3.org/1999/xlink" x="0px" y="0px"
	 width="20px" height="20px" viewBox="0 0 20 20" enable-background="new 0 0 20 20" xml:space="preserve">
<g>
	<path fill="#4ABC96" d="M19.69,10c0,5.351-4.338,9.69-9.69,9.69S0.31,15.353,0.31,10c0-5.352,4.338-9.69,9.69-9.69
		S19.69,4.647,19.69,10z"/>
	<path fill="#787878" d="M11.772,15.716c-0.17,0-0.335-0.085-0.432-0.238L5.45,6.121L4.151,6.839
		c-0.246,0.136-0.556,0.047-0.692-0.2C3.323,6.392,3.412,6.082,3.658,5.946l1.72-0.949c0.237-0.131,0.533-0.055,0.678,0.174
		l5.874,9.333l3.304-2.079c0.237-0.149,0.553-0.078,0.702,0.161c0.149,0.238,0.078,0.552-0.16,0.701l-3.731,2.351
		C11.959,15.692,11.865,15.717,11.772,15.716L11.772,15.716z"/>
	<path fill="#9A8671" d="M15.756,11.507c0.155,0.245,0.08,0.568-0.165,0.723l-3.207,2.011c-0.246,0.154-0.57,0.08-0.724-0.165
		l-2.011-3.207c-0.154-0.244-0.08-0.57,0.165-0.724l3.207-2.012c0.247-0.153,0.57-0.079,0.724,0.166L15.756,11.507z"/>
	<path fill="#C1AA9A" d="M12.437,10.96l-0.03-0.184l0.187,0.068v-0.166l0.164,0.041l-0.012-0.135l0.145,0.035l-1.222-1.639
		l-0.562,0.354l1.252,1.684L12.437,10.96z"/>
	<path fill="#C1AA9A" d="M12.539,9.289l0.187-0.01l-0.088,0.177l0.163,0.019l-0.057,0.16l0.137,0.002l-0.053,0.141l1.345-0.796
		l-0.352-0.562L12.49,9.206L12.539,9.289z"/>
	<path fill="#A78F7E" d="M11.981,8.361c0.106,0.169,0.055,0.39-0.112,0.495l-2.196,1.377c-0.168,0.105-0.39,0.054-0.495-0.113
		L7.802,7.925c-0.105-0.167-0.055-0.39,0.113-0.494l2.194-1.376c0.169-0.106,0.39-0.055,0.496,0.112L11.981,8.361L11.981,8.361z"/>
	<path fill="#5B5B5B" d="M13.267,14.868c0,0.824-0.67,1.493-1.494,1.493c-0.826,0-1.494-0.669-1.494-1.493
		c0-0.826,0.668-1.495,1.494-1.495C12.597,13.373,13.267,14.042,13.267,14.868z"/>
	<path fill="#6C6C6B" d="M12.304,14.868c0,0.294-0.238,0.532-0.533,0.532c-0.293,0-0.531-0.238-0.531-0.532
		c0-0.295,0.238-0.534,0.531-0.534C12.065,14.334,12.304,14.573,12.304,14.868z"/>
</g>
</svg>
