<?xml version="1.0" encoding="utf-8"?>
<!-- Generator: Adobe Illustrator 16.0.0, SVG Export Plug-In . SVG Version: 6.00 Build 0)  -->
<!DOCTYPE svg PUBLIC "-//W3C//DTD SVG 1.1//EN" "http://www.w3.org/Graphics/SVG/1.1/DTD/svg11.dtd">
<svg version="1.1" id="Layer_1" xmlns="http://www.w3.org/2000/svg" xmlns:xlink="http://www.w3.org/1999/xlink" x="0px" y="0px"
	 width="20px" height="20px" viewBox="0 0 20 20" enable-background="new 0 0 20 20" xml:space="preserve">
<g>
	<path fill="#A2D4DE" d="M19.69,10c0,5.351-4.338,9.69-9.69,9.69S0.31,15.353,0.31,10c0-5.352,4.338-9.69,9.69-9.69
		S19.69,4.647,19.69,10z"/>
	<path fill="#98C8D0" d="M8.928,9.288h-3.18V3.35c0-0.216,0.175-0.39,0.389-0.39h2.401c0.215,0,0.39,0.175,0.39,0.39V9.288z"/>
	<path fill="#8BBEC3" d="M5.748,3.35c0-0.216,0.175-0.39,0.389-0.39h2.401c0.215,0,0.39,0.175,0.39,0.39H5.748z"/>
	<path fill="#E1E0E0" d="M6.309,9.148c-0.025,0-0.047-0.021-0.047-0.047V8.81c0-0.026,0.021-0.047,0.047-0.047h0.676
		c0.025,0,0.047,0.021,0.047,0.047v0.292c0,0.026-0.021,0.047-0.047,0.047H6.309z"/>
	<path fill="#E1E0E0" d="M7.692,9.148c-0.026,0-0.047-0.021-0.047-0.047V8.81c0-0.026,0.021-0.047,0.047-0.047h0.676
		c0.025,0,0.047,0.021,0.047,0.047v0.292c0,0.026-0.021,0.047-0.047,0.047H7.692z"/>
	<path fill="#E1E0E0" d="M7.692,8.37c-0.026,0-0.047-0.021-0.047-0.048V8.031c0-0.027,0.021-0.048,0.047-0.048h0.172
		c0.026,0,0.047,0.021,0.047,0.048v0.291c0,0.026-0.021,0.048-0.047,0.048H7.692z"/>
	<path fill="#E1E0E0" d="M8.195,8.37c-0.026,0-0.048-0.021-0.048-0.048V8.031c0-0.027,0.021-0.048,0.048-0.048h0.173
		c0.025,0,0.047,0.021,0.047,0.048v0.291c0,0.026-0.021,0.048-0.047,0.048H8.195z"/>
	<path fill="#E1E0E0" d="M6.308,8.37c-0.025,0-0.047-0.021-0.047-0.048V8.031c0-0.027,0.021-0.048,0.047-0.048h0.172
		c0.026,0,0.047,0.021,0.047,0.048v0.291c0,0.026-0.021,0.048-0.047,0.048H6.308z"/>
	<path fill="#E1E0E0" d="M6.812,8.37c-0.026,0-0.047-0.021-0.047-0.048V8.031c0-0.027,0.021-0.048,0.047-0.048h0.172
		c0.025,0,0.047,0.021,0.047,0.048v0.291c0,0.026-0.021,0.048-0.047,0.048H6.812z"/>
	<path fill="#E1E0E0" d="M7.692,7.364c-0.026,0-0.047-0.021-0.047-0.048V7.025c0-0.027,0.021-0.048,0.047-0.048h0.172
		c0.026,0,0.047,0.021,0.047,0.048v0.291c0,0.026-0.021,0.048-0.047,0.048H7.692z"/>
	<path fill="#E1E0E0" d="M8.195,7.364c-0.026,0-0.048-0.021-0.048-0.048V7.025c0-0.027,0.021-0.048,0.048-0.048h0.173
		c0.025,0,0.047,0.021,0.047,0.048v0.291c0,0.026-0.021,0.048-0.047,0.048H8.195z"/>
	<path fill="#E1E0E0" d="M6.308,7.364c-0.025,0-0.047-0.021-0.047-0.048V7.025c0-0.027,0.021-0.048,0.047-0.048h0.172
		c0.026,0,0.047,0.021,0.047,0.048v0.291c0,0.026-0.021,0.048-0.047,0.048H6.308z"/>
	<path fill="#E1E0E0" d="M6.812,7.364c-0.026,0-0.047-0.021-0.047-0.048V7.025c0-0.027,0.021-0.048,0.047-0.048h0.172
		c0.025,0,0.047,0.021,0.047,0.048v0.291c0,0.026-0.021,0.048-0.047,0.048H6.812z"/>
	<path fill="#E1E0E0" d="M7.692,6.358c-0.026,0-0.047-0.022-0.047-0.048V6.019c0-0.026,0.021-0.047,0.047-0.047h0.172
		c0.026,0,0.047,0.021,0.047,0.047v0.292c0,0.026-0.021,0.048-0.047,0.048H7.692z"/>
	<path fill="#E1E0E0" d="M8.195,6.358c-0.026,0-0.048-0.022-0.048-0.048V6.019c0-0.026,0.021-0.047,0.048-0.047h0.173
		c0.025,0,0.047,0.021,0.047,0.047v0.292c0,0.026-0.021,0.048-0.047,0.048H8.195z"/>
	<path fill="#E1E0E0" d="M6.308,6.358c-0.025,0-0.047-0.022-0.047-0.048V6.019c0-0.026,0.021-0.047,0.047-0.047h0.172
		c0.026,0,0.047,0.021,0.047,0.047v0.292c0,0.026-0.021,0.048-0.047,0.048H6.308z"/>
	<path fill="#E1E0E0" d="M6.812,6.358c-0.026,0-0.047-0.022-0.047-0.048V6.019c0-0.026,0.021-0.047,0.047-0.047h0.172
		c0.025,0,0.047,0.021,0.047,0.047v0.292c0,0.026-0.021,0.048-0.047,0.048H6.812z"/>
	<path fill="#E1E0E0" d="M7.692,5.353c-0.026,0-0.047-0.021-0.047-0.048V5.013c0-0.026,0.021-0.047,0.047-0.047h0.172
		c0.026,0,0.047,0.021,0.047,0.047v0.292c0,0.026-0.021,0.048-0.047,0.048H7.692z"/>
	<path fill="#E1E0E0" d="M8.195,5.353c-0.026,0-0.048-0.021-0.048-0.048V5.013c0-0.026,0.021-0.047,0.048-0.047h0.173
		c0.025,0,0.047,0.021,0.047,0.047v0.292c0,0.026-0.021,0.048-0.047,0.048H8.195z"/>
	<path fill="#E1E0E0" d="M6.308,5.353c-0.025,0-0.047-0.021-0.047-0.048V5.013c0-0.026,0.021-0.047,0.047-0.047h0.172
		c0.026,0,0.047,0.021,0.047,0.047v0.292c0,0.026-0.021,0.048-0.047,0.048H6.308z"/>
	<path fill="#E1E0E0" d="M6.812,5.353c-0.026,0-0.047-0.021-0.047-0.048V5.013c0-0.026,0.021-0.047,0.047-0.047h0.172
		c0.025,0,0.047,0.021,0.047,0.047v0.292c0,0.026-0.021,0.048-0.047,0.048H6.812z"/>
	<path fill="#E1E0E0" d="M7.692,4.346c-0.026,0-0.047-0.021-0.047-0.047V4.007c0-0.026,0.021-0.048,0.047-0.048h0.172
		c0.026,0,0.047,0.021,0.047,0.048v0.292c0,0.026-0.021,0.047-0.047,0.047H7.692z"/>
	<path fill="#E1E0E0" d="M8.195,4.346c-0.026,0-0.048-0.021-0.048-0.047V4.007c0-0.026,0.021-0.048,0.048-0.048h0.173
		c0.025,0,0.047,0.021,0.047,0.048v0.292c0,0.026-0.021,0.047-0.047,0.047H8.195z"/>
	<path fill="#E1E0E0" d="M6.308,4.346c-0.025,0-0.047-0.021-0.047-0.047V4.007c0-0.026,0.021-0.048,0.047-0.048h0.172
		c0.026,0,0.047,0.021,0.047,0.048v0.292c0,0.026-0.021,0.047-0.047,0.047H6.308z"/>
	<path fill="#E1E0E0" d="M6.812,4.346c-0.026,0-0.047-0.021-0.047-0.047V4.007c0-0.026,0.021-0.048,0.047-0.048h0.172
		c0.025,0,0.047,0.021,0.047,0.048v0.292c0,0.026-0.021,0.047-0.047,0.047H6.812z"/>
	<path fill="#8BBEC3" d="M7.185,8.798c0-0.021,0.018-0.037,0.038-0.037h0.231c0.021,0,0.037,0.017,0.037,0.037v0.49H7.186
		L7.185,8.798L7.185,8.798z"/>
	<path fill="#CDCCCB" d="M7.252,9.025c0,0.011-0.008,0.019-0.019,0.019s-0.02-0.008-0.02-0.019s0.009-0.02,0.02-0.02
		S7.252,9.015,7.252,9.025z"/>
	<path fill="#98C8D0" d="M14.21,9.288h-3.182V3.35c0-0.216,0.176-0.39,0.391-0.39h2.4c0.215,0,0.391,0.175,0.391,0.39V9.288z"/>
	<path fill="#8BBEC3" d="M11.03,3.35c0-0.216,0.174-0.39,0.389-0.39h2.402c0.215,0,0.389,0.175,0.389,0.39H11.03z"/>
	<path fill="#E1E0E0" d="M11.591,9.148c-0.026,0-0.047-0.021-0.047-0.047V8.81c0-0.026,0.021-0.047,0.047-0.047h0.675
		c0.026,0,0.047,0.021,0.047,0.047v0.292c0,0.026-0.021,0.047-0.047,0.047H11.591z"/>
	<path fill="#E1E0E0" d="M12.974,9.148c-0.025,0-0.047-0.021-0.047-0.047V8.81c0-0.026,0.021-0.047,0.047-0.047h0.676
		c0.025,0,0.047,0.021,0.047,0.047v0.292c0,0.026-0.021,0.047-0.047,0.047H12.974z"/>
	<path fill="#E1E0E0" d="M12.974,8.37c-0.025,0-0.047-0.021-0.047-0.048V8.031c0-0.027,0.021-0.048,0.047-0.048h0.172
		c0.025,0,0.047,0.021,0.047,0.048v0.291c0,0.026-0.021,0.048-0.047,0.048H12.974z"/>
	<path fill="#E1E0E0" d="M13.476,8.37c-0.025,0-0.047-0.021-0.047-0.048V8.031c0-0.027,0.022-0.048,0.047-0.048h0.174
		c0.025,0,0.047,0.021,0.047,0.048v0.291c0,0.026-0.021,0.048-0.047,0.048H13.476z"/>
	<path fill="#E1E0E0" d="M11.589,8.37c-0.025,0-0.047-0.021-0.047-0.048V8.031c0-0.027,0.021-0.048,0.047-0.048h0.174
		c0.025,0,0.047,0.021,0.047,0.048v0.291c0,0.026-0.021,0.048-0.047,0.048H11.589z"/>
	<path fill="#E1E0E0" d="M12.093,8.37c-0.025,0-0.047-0.021-0.047-0.048V8.031c0-0.027,0.021-0.048,0.047-0.048h0.172
		c0.025,0,0.047,0.021,0.047,0.048v0.291c0,0.026-0.021,0.048-0.047,0.048H12.093z"/>
	<path fill="#E1E0E0" d="M12.974,7.364c-0.025,0-0.047-0.021-0.047-0.048V7.025c0-0.027,0.021-0.048,0.047-0.048h0.172
		c0.025,0,0.047,0.021,0.047,0.048v0.291c0,0.026-0.021,0.048-0.047,0.048H12.974z"/>
	<path fill="#E1E0E0" d="M13.476,7.364c-0.025,0-0.047-0.021-0.047-0.048V7.025c0-0.027,0.022-0.048,0.047-0.048h0.174
		c0.025,0,0.047,0.021,0.047,0.048v0.291c0,0.026-0.021,0.048-0.047,0.048H13.476z"/>
	<path fill="#E1E0E0" d="M11.589,7.364c-0.025,0-0.047-0.021-0.047-0.048V7.025c0-0.027,0.021-0.048,0.047-0.048h0.174
		c0.025,0,0.047,0.021,0.047,0.048v0.291c0,0.026-0.021,0.048-0.047,0.048H11.589z"/>
	<path fill="#E1E0E0" d="M12.093,7.364c-0.025,0-0.047-0.021-0.047-0.048V7.025c0-0.027,0.021-0.048,0.047-0.048h0.172
		c0.025,0,0.047,0.021,0.047,0.048v0.291c0,0.026-0.021,0.048-0.047,0.048H12.093z"/>
	<path fill="#E1E0E0" d="M12.974,6.358c-0.025,0-0.047-0.022-0.047-0.048V6.019c0-0.026,0.021-0.047,0.047-0.047h0.172
		c0.025,0,0.047,0.021,0.047,0.047v0.292c0,0.026-0.021,0.048-0.047,0.048H12.974z"/>
	<path fill="#E1E0E0" d="M13.476,6.358c-0.025,0-0.047-0.022-0.047-0.048V6.019c0-0.026,0.022-0.047,0.047-0.047h0.174
		c0.025,0,0.047,0.021,0.047,0.047v0.292c0,0.026-0.021,0.048-0.047,0.048H13.476z"/>
	<path fill="#E1E0E0" d="M11.589,6.358c-0.025,0-0.047-0.022-0.047-0.048V6.019c0-0.026,0.021-0.047,0.047-0.047h0.174
		c0.025,0,0.047,0.021,0.047,0.047v0.292c0,0.026-0.021,0.048-0.047,0.048H11.589z"/>
	<path fill="#E1E0E0" d="M12.093,6.358c-0.025,0-0.047-0.022-0.047-0.048V6.019c0-0.026,0.021-0.047,0.047-0.047h0.172
		c0.025,0,0.047,0.021,0.047,0.047v0.292c0,0.026-0.021,0.048-0.047,0.048H12.093z"/>
	<path fill="#E1E0E0" d="M12.974,5.353c-0.025,0-0.047-0.021-0.047-0.048V5.013c0-0.026,0.021-0.047,0.047-0.047h0.172
		c0.025,0,0.047,0.021,0.047,0.047v0.292c0,0.026-0.021,0.048-0.047,0.048H12.974z"/>
	<path fill="#E1E0E0" d="M13.476,5.353c-0.025,0-0.047-0.021-0.047-0.048V5.013c0-0.026,0.022-0.047,0.047-0.047h0.174
		c0.025,0,0.047,0.021,0.047,0.047v0.292c0,0.026-0.021,0.048-0.047,0.048H13.476z"/>
	<path fill="#E1E0E0" d="M11.589,5.353c-0.025,0-0.047-0.021-0.047-0.048V5.013c0-0.026,0.021-0.047,0.047-0.047h0.174
		c0.025,0,0.047,0.021,0.047,0.047v0.292c0,0.026-0.021,0.048-0.047,0.048H11.589z"/>
	<path fill="#E1E0E0" d="M12.093,5.353c-0.025,0-0.047-0.021-0.047-0.048V5.013c0-0.026,0.021-0.047,0.047-0.047h0.172
		c0.025,0,0.047,0.021,0.047,0.047v0.292c0,0.026-0.021,0.048-0.047,0.048H12.093z"/>
	<path fill="#E1E0E0" d="M12.974,4.346c-0.025,0-0.047-0.021-0.047-0.047V4.007c0-0.026,0.021-0.048,0.047-0.048h0.172
		c0.025,0,0.047,0.021,0.047,0.048v0.292c0,0.026-0.021,0.047-0.047,0.047H12.974z"/>
	<path fill="#E1E0E0" d="M13.476,4.346c-0.025,0-0.047-0.021-0.047-0.047V4.007c0-0.026,0.022-0.048,0.047-0.048h0.174
		c0.025,0,0.047,0.021,0.047,0.048v0.292c0,0.026-0.021,0.047-0.047,0.047H13.476z"/>
	<path fill="#E1E0E0" d="M11.589,4.346c-0.025,0-0.047-0.021-0.047-0.047V4.007c0-0.026,0.021-0.048,0.047-0.048h0.174
		c0.025,0,0.047,0.021,0.047,0.048v0.292c0,0.026-0.021,0.047-0.047,0.047H11.589z"/>
	<path fill="#E1E0E0" d="M12.093,4.346c-0.025,0-0.047-0.021-0.047-0.047V4.007c0-0.026,0.021-0.048,0.047-0.048h0.172
		c0.025,0,0.047,0.021,0.047,0.048v0.292c0,0.026-0.021,0.047-0.047,0.047H12.093z"/>
	<path fill="#8BBEC3" d="M12.466,8.798c0-0.021,0.018-0.037,0.039-0.037h0.23c0.021,0,0.037,0.017,0.037,0.037v0.49h-0.305v-0.49
		H12.466z"/>
	<path fill="#CDCCCB" d="M12.533,9.025c0,0.011-0.008,0.019-0.019,0.019c-0.01,0-0.02-0.008-0.02-0.019s0.01-0.02,0.02-0.02
		C12.525,9.006,12.533,9.015,12.533,9.025z"/>
	<path fill="#A6CED1" d="M12.171,10.229H7.898V2.251c0-0.29,0.233-0.523,0.523-0.523h3.226c0.289,0,0.523,0.233,0.523,0.523V10.229z
		"/>
	<path fill="#8BBEC3" d="M7.898,2.251c0-0.29,0.233-0.523,0.523-0.523h3.226c0.289,0,0.523,0.233,0.523,0.523H7.898z"/>
	<path fill="#E1E0E0" d="M8.651,10.042c-0.034,0-0.063-0.028-0.063-0.064V9.585c0-0.034,0.028-0.063,0.063-0.063h0.907
		c0.034,0,0.063,0.028,0.063,0.063v0.393c0,0.035-0.028,0.064-0.063,0.064H8.651z"/>
	<path fill="#E1E0E0" d="M10.511,10.042c-0.034,0-0.064-0.028-0.064-0.064V9.585c0-0.034,0.029-0.063,0.064-0.063h0.908
		c0.035,0,0.063,0.028,0.063,0.063v0.393c0,0.035-0.028,0.064-0.063,0.064H10.511z"/>
	<path fill="#E1E0E0" d="M10.511,8.995c-0.034,0-0.064-0.028-0.064-0.064V8.538c0-0.034,0.029-0.063,0.064-0.063h0.231
		c0.035,0,0.063,0.028,0.063,0.063v0.393c0,0.035-0.027,0.064-0.063,0.064H10.511z"/>
	<path fill="#E1E0E0" d="M11.187,8.995c-0.035,0-0.063-0.028-0.063-0.064V8.538c0-0.034,0.028-0.063,0.063-0.063h0.232
		c0.035,0,0.063,0.028,0.063,0.063v0.393c0,0.035-0.028,0.064-0.063,0.064H11.187z"/>
	<path fill="#E1E0E0" d="M8.65,8.995c-0.034,0-0.063-0.028-0.063-0.064V8.538c0-0.034,0.027-0.063,0.063-0.063h0.231
		c0.034,0,0.064,0.028,0.064,0.063v0.393c0,0.035-0.029,0.064-0.064,0.064H8.65z"/>
	<path fill="#E1E0E0" d="M9.326,8.995c-0.034,0-0.063-0.028-0.063-0.064V8.538c0-0.034,0.028-0.063,0.063-0.063h0.232
		c0.035,0,0.063,0.028,0.063,0.063v0.393c0,0.035-0.028,0.064-0.063,0.064H9.326z"/>
	<path fill="#E1E0E0" d="M10.511,7.644c-0.034,0-0.064-0.028-0.064-0.064V7.187c0-0.034,0.029-0.063,0.064-0.063h0.231
		c0.035,0,0.063,0.028,0.063,0.063v0.393c0,0.036-0.027,0.064-0.063,0.064H10.511z"/>
	<path fill="#E1E0E0" d="M11.187,7.644c-0.035,0-0.063-0.028-0.063-0.064V7.187c0-0.034,0.028-0.063,0.063-0.063h0.232
		c0.035,0,0.063,0.028,0.063,0.063v0.393c0,0.036-0.028,0.064-0.063,0.064H11.187z"/>
	<path fill="#E1E0E0" d="M8.65,7.644c-0.034,0-0.063-0.028-0.063-0.064V7.187c0-0.034,0.027-0.063,0.063-0.063h0.231
		c0.034,0,0.064,0.028,0.064,0.063v0.393c0,0.036-0.029,0.064-0.064,0.064H8.65z"/>
	<path fill="#E1E0E0" d="M9.326,7.644c-0.034,0-0.063-0.028-0.063-0.064V7.187c0-0.034,0.028-0.063,0.063-0.063h0.232
		c0.035,0,0.063,0.028,0.063,0.063v0.393c0,0.036-0.028,0.064-0.063,0.064H9.326z"/>
	<path fill="#E1E0E0" d="M10.511,6.292c-0.034,0-0.064-0.028-0.064-0.063V5.836c0-0.034,0.029-0.064,0.064-0.064h0.231
		c0.035,0,0.063,0.028,0.063,0.064v0.393c0,0.035-0.027,0.063-0.063,0.063H10.511z"/>
	<path fill="#E1E0E0" d="M11.187,6.292c-0.035,0-0.063-0.028-0.063-0.063V5.836c0-0.034,0.028-0.064,0.063-0.064h0.232
		c0.035,0,0.063,0.028,0.063,0.064v0.393c0,0.035-0.028,0.063-0.063,0.063H11.187z"/>
	<path fill="#E1E0E0" d="M8.65,6.292c-0.034,0-0.063-0.028-0.063-0.063V5.836c0-0.034,0.027-0.064,0.063-0.064h0.231
		c0.034,0,0.064,0.028,0.064,0.064v0.393c0,0.035-0.029,0.063-0.064,0.063H8.65z"/>
	<path fill="#E1E0E0" d="M9.326,6.292c-0.034,0-0.063-0.028-0.063-0.063V5.836c0-0.034,0.028-0.064,0.063-0.064h0.232
		c0.035,0,0.063,0.028,0.063,0.064v0.393c0,0.035-0.028,0.063-0.063,0.063H9.326z"/>
	<path fill="#E1E0E0" d="M10.511,4.94c-0.034,0-0.064-0.028-0.064-0.063V4.484c0-0.034,0.029-0.064,0.064-0.064h0.231
		c0.035,0,0.063,0.028,0.063,0.064v0.393c0,0.034-0.027,0.063-0.063,0.063H10.511z"/>
	<path fill="#E1E0E0" d="M11.187,4.94c-0.035,0-0.063-0.028-0.063-0.063V4.484c0-0.034,0.028-0.064,0.063-0.064h0.232
		c0.035,0,0.063,0.028,0.063,0.064v0.393c0,0.034-0.028,0.063-0.063,0.063H11.187z"/>
	<path fill="#E1E0E0" d="M8.65,4.94c-0.034,0-0.063-0.028-0.063-0.063V4.484c0-0.034,0.027-0.064,0.063-0.064h0.231
		c0.034,0,0.064,0.028,0.064,0.064v0.393c0,0.034-0.029,0.063-0.064,0.063H8.65z"/>
	<path fill="#E1E0E0" d="M9.326,4.94c-0.034,0-0.063-0.028-0.063-0.063V4.484c0-0.034,0.028-0.064,0.063-0.064h0.232
		c0.035,0,0.063,0.028,0.063,0.064v0.393c0,0.034-0.028,0.063-0.063,0.063H9.326z"/>
	<path fill="#E1E0E0" d="M10.511,3.589c-0.034,0-0.064-0.027-0.064-0.063V3.133c0-0.034,0.029-0.064,0.064-0.064h0.231
		c0.035,0,0.063,0.029,0.063,0.064v0.393c0,0.034-0.027,0.063-0.063,0.063H10.511z"/>
	<path fill="#E1E0E0" d="M11.187,3.589c-0.035,0-0.063-0.027-0.063-0.063V3.133c0-0.034,0.028-0.064,0.063-0.064h0.232
		c0.035,0,0.063,0.029,0.063,0.064v0.393c0,0.034-0.028,0.063-0.063,0.063H11.187z"/>
	<path fill="#E1E0E0" d="M8.65,3.589c-0.034,0-0.063-0.027-0.063-0.063V3.133c0-0.034,0.027-0.064,0.063-0.064h0.231
		c0.034,0,0.064,0.029,0.064,0.064v0.393c0,0.034-0.029,0.063-0.064,0.063H8.65z"/>
	<path fill="#E1E0E0" d="M9.326,3.589c-0.034,0-0.063-0.027-0.063-0.063V3.133c0-0.034,0.028-0.064,0.063-0.064h0.232
		c0.035,0,0.063,0.029,0.063,0.064v0.393c0,0.034-0.028,0.063-0.063,0.063H9.326z"/>
	<path fill="#8BBEC3" d="M9.828,9.57c0-0.027,0.022-0.05,0.05-0.05h0.311c0.027,0,0.05,0.021,0.05,0.05v0.658H9.827L9.828,9.57
		L9.828,9.57z"/>
	<path fill="#CDCCCB" d="M9.918,9.876c0,0.014-0.012,0.025-0.025,0.025S9.868,9.89,9.868,9.876s0.011-0.025,0.024-0.025
		S9.918,9.862,9.918,9.876z"/>
	<path fill="#FBBF96" d="M12.367,8.972l-1.167-0.8c0,0-0.149-0.18-0.727-0.224C9.563,7.88,7.756,7.464,7.756,7.464
		C6.642,7.794,6.74,8.782,6.74,8.782l2.915,0.559c0,0,1.343-0.105,1.678,0.104c0.812,0.507,1.215-0.33,1.215-0.33l-0.179-0.145
		L12.367,8.972z"/>
	<path fill="#FDD6B2" d="M11.765,8.557l0.778,0.5c0,0-0.176,0.165-0.324,0.144C12.053,9.176,11.704,8.795,11.765,8.557L11.765,8.557
		z"/>
	<path fill="#EDAC80" d="M12.249,9.304l-1.396-0.372L9.535,8.77l0.935-0.049c0,0,0.383-0.026,0.67,0.126
		C11.361,8.966,12.249,9.304,12.249,9.304L12.249,9.304z"/>
	<path fill="#FDD6B2" d="M10.944,8.393c-0.024-0.005-0.039-0.03-0.033-0.055l0.051-0.228c0.006-0.025,0.031-0.041,0.057-0.034l0,0
		c0.024,0.006,0.039,0.031,0.033,0.055l-0.051,0.228C10.996,8.384,10.97,8.399,10.944,8.393L10.944,8.393L10.944,8.393z"/>
	<path fill="#FDD6B2" d="M10.802,8.244c-0.025-0.006-0.041-0.03-0.035-0.056l0.024-0.122c0.005-0.025,0.031-0.04,0.056-0.034l0,0
		c0.025,0.006,0.041,0.031,0.034,0.055L10.856,8.21C10.851,8.234,10.826,8.25,10.802,8.244L10.802,8.244z"/>
	<path fill="#FBBF96" d="M12.521,14.45c0.339-0.211,1.253-1.132,1.042-1.472l0,0c-0.209-0.339-0.656-0.443-0.994-0.232l-2.625,1.601
		c-0.339,0.211-0.507,0.537-0.296,0.875l0,0c0.21,0.34,0.48,0.344,0.938,0.146L12.521,14.45L12.521,14.45z"/>
	<path fill="#EDAC80" d="M11.454,13.587l-1.902,1.356c-0.011-0.337,0.143-0.439,0.336-0.56l2.086-1.367
		C11.925,13.088,11.53,13.536,11.454,13.587L11.454,13.587z"/>
	<path fill="#F1A977" d="M9.434,9.926l0.652-0.552l-0.14-1.099l3.47-1.186l3.303,3.522c0,0-0.888,1.396-1.777,2.22
		c-0.888,0.822-2.46,1.642-2.46,1.642L9.434,9.926L9.434,9.926z"/>
	<path fill="#F1A977" d="M13.271,12.462c0.339-0.211,0.442-0.656,0.232-0.996l0,0c-0.21-0.338-0.656-0.443-0.995-0.23l-3.715,2.304
		c-0.339,0.211-0.444,0.655-0.233,0.995l0,0c0.211,0.338,0.655,0.442,0.994,0.233L13.271,12.462L13.271,12.462z"/>
	<path fill="#EDAC80" d="M10.117,12.897l-1.665,1.268c-0.005-0.284,0.11-0.482,0.304-0.604l1.498-0.967
		C10.205,12.666,10.192,12.845,10.117,12.897z"/>
	<path fill="#F1A977" d="M10.008,11.063c0.291-0.207,1.282-0.766,1.075-1.057l0.191-0.952c-0.207-0.291-2.258,1.132-2.422,1.248
		l-3.72,2.539c-0.417,0.3-0.485,0.703-0.277,0.995l0,0c0.208,0.291,0.612,0.357,0.903,0.149L10.008,11.063z"/>
	<path fill="#F1A977" d="M12.423,14.397c0.315-0.139,0.411-0.601,0.247-0.865l0,0c-0.163-0.265-0.525-0.338-0.812-0.161
		l-3.954,2.392c-0.285,0.176-0.385,0.532-0.222,0.798l0,0c0.163,0.264,0.514,0.309,0.745,0.187l4.012-2.359L12.423,14.397z"/>
	<path fill="#EDAC80" d="M11.556,13.569l-1.853,1.236c-0.219,0.13-1.771,0.977-1.607,0.875l4.015-2.498
		C12.067,13.24,11.619,13.525,11.556,13.569L11.556,13.569z"/>
	<path fill="#F1A977" d="M10.733,12.401c0.381-0.187,0.479-0.76,0.266-1.076l0,0c-0.213-0.319-0.664-0.391-1.007-0.162l-4.759,3.128
		c-0.343,0.229-0.448,0.674-0.235,0.993l0,0c0.213,0.317,0.646,0.356,0.927,0.197l4.83-3.093L10.733,12.401z"/>
	<path fill="#EDAC80" d="M9.627,11.423L7.404,13.03c-0.264,0.169-2.135,1.283-1.938,1.152l4.826-3.262
		c-0.05,0.074-0.588,0.445-0.664,0.5L9.627,11.423z"/>
	<path fill="#F1A977" d="M11.479,13.412c0.36-0.183,0.444-0.729,0.237-1.03l0,0c-0.209-0.299-0.639-0.359-0.961-0.137l-4.486,3.052
		c-0.323,0.224-0.417,0.648-0.209,0.948l0,0c0.207,0.301,0.622,0.33,0.886,0.173l4.554-3.019L11.479,13.412z"/>
	<path fill="#EDAC80" d="M10.41,12.497l-2.093,1.566c-0.248,0.166-2.014,1.255-1.828,1.128l4.546-3.181
		C10.989,12.081,10.482,12.444,10.41,12.497L10.41,12.497z"/>
	<path fill="#FBBF96" d="M7.572,14.45c-0.339-0.211-1.253-1.132-1.043-1.472l0,0c0.211-0.339,0.656-0.443,0.995-0.232l2.624,1.601
		c0.339,0.211,0.507,0.537,0.296,0.875l0,0c-0.21,0.34-0.481,0.344-0.938,0.146L7.572,14.45z"/>
	<path fill="#EDAC80" d="M8.641,13.587l1.901,1.356c0.01-0.337-0.143-0.439-0.336-0.56L8.12,13.017
		C8.169,13.088,8.563,13.536,8.641,13.587L8.641,13.587z"/>
	<path fill="#FBBF96" d="M10.66,9.926l-0.651-0.552l0.14-1.099L6.68,7.09l-3.303,3.522c0,0,0.888,1.396,1.776,2.22
		c0.889,0.822,2.461,1.642,2.461,1.642L10.66,9.926L10.66,9.926z"/>
	<path fill="#FBBF96" d="M6.822,12.462c-0.339-0.211-0.442-0.656-0.231-0.996l0,0c0.21-0.338,0.655-0.443,0.994-0.23l3.716,2.304
		c0.339,0.211,0.443,0.655,0.232,0.995l0,0c-0.21,0.338-0.656,0.442-0.993,0.233L6.822,12.462L6.822,12.462z"/>
	<path fill="#EDAC80" d="M9.977,12.897l1.665,1.268c0.006-0.284-0.109-0.482-0.303-0.604l-1.498-0.967
		C9.89,12.666,9.902,12.845,9.977,12.897L9.977,12.897z"/>
	<path fill="#FBBF96" d="M10.086,11.063c-0.291-0.207-1.281-0.766-1.074-1.057L8.819,9.055c0.207-0.291,2.258,1.132,2.422,1.248
		l3.72,2.54c0.418,0.3,0.485,0.704,0.277,0.995l0,0c-0.207,0.29-0.612,0.357-0.902,0.151l-4.25-2.924V11.063z"/>
	<path fill="#FDD6B2" d="M14.291,13.688l0.26,0.186c0.185,0.131,0.448,0.078,0.59-0.12s0.107-0.464-0.078-0.595l-0.26-0.187
		c0,0-0.135,0.058-0.303,0.297C14.291,13.566,14.312,13.592,14.291,13.688L14.291,13.688z"/>
	<path fill="#FDD6B2" d="M12.306,12.341c-0.021-0.014-0.027-0.043-0.012-0.064l0.475-0.662c0.015-0.021,0.043-0.025,0.064-0.012l0,0
		c0.021,0.015,0.025,0.044,0.01,0.064l-0.474,0.664c-0.015,0.021-0.045,0.024-0.065,0.01l0,0H12.306z"/>
	<path fill="#FDD6B2" d="M12.241,12.034c-0.02-0.012-0.024-0.038-0.011-0.058l0.233-0.328c0.014-0.019,0.041-0.023,0.058-0.009l0,0
		c0.019,0.014,0.024,0.039,0.01,0.058l-0.233,0.327C12.284,12.044,12.258,12.048,12.241,12.034L12.241,12.034L12.241,12.034z"/>
	<path fill="#FBBF96" d="M7.672,14.397c-0.316-0.139-0.412-0.601-0.249-0.865l0,0c0.163-0.265,0.526-0.338,0.811-0.161l3.955,2.392
		c0.286,0.176,0.385,0.532,0.222,0.798l0,0c-0.163,0.264-0.513,0.309-0.745,0.187l-4.012-2.359L7.672,14.397z"/>
	<path fill="#EDAC80" d="M8.538,13.569l1.853,1.236c0.219,0.13,1.771,0.977,1.607,0.875l-4.013-2.498
		C8.026,13.24,8.475,13.525,8.538,13.569L8.538,13.569z"/>
	<path fill="#FDD6B2" d="M11.559,16.498l0.236,0.145c0.168,0.103,0.394,0.041,0.505-0.139c0.11-0.181,0.064-0.409-0.102-0.512
		l-0.237-0.145c0,0-0.114,0.057-0.245,0.273C11.552,16.392,11.571,16.414,11.559,16.498z"/>
	<path fill="#FDD6B2" d="M9.844,15.526c-0.019-0.011-0.025-0.036-0.013-0.056l0.38-0.596c0.012-0.02,0.038-0.024,0.057-0.013l0,0
		c0.019,0.013,0.024,0.038,0.013,0.056l-0.381,0.596C9.887,15.533,9.862,15.54,9.844,15.526L9.844,15.526z"/>
	<path fill="#FDD6B2" d="M9.773,15.265c-0.017-0.01-0.021-0.033-0.012-0.049l0.189-0.296c0.01-0.018,0.031-0.021,0.049-0.011l0,0
		c0.017,0.01,0.021,0.032,0.011,0.049l-0.188,0.294c-0.011,0.018-0.033,0.022-0.05,0.011l0,0V15.265z"/>
	<path fill="#FBBF96" d="M9.361,12.401c-0.382-0.187-0.479-0.76-0.267-1.076l0,0c0.213-0.319,0.664-0.391,1.007-0.162l4.758,3.128
		c0.344,0.229,0.45,0.674,0.236,0.993l0,0c-0.212,0.317-0.646,0.356-0.927,0.197L9.34,12.389L9.361,12.401z"/>
	<path fill="#EDAC80" d="M10.468,11.423l2.223,1.607c0.264,0.169,2.135,1.283,1.938,1.152l-4.826-3.262
		c0.049,0.074,0.588,0.445,0.664,0.5L10.468,11.423z"/>
	<path fill="#FDD6B2" d="M14.051,15.169l0.285,0.189c0.202,0.134,0.483,0.067,0.628-0.146c0.146-0.217,0.099-0.501-0.104-0.637
		l-0.283-0.189c0,0-0.144,0.065-0.315,0.327C14.048,15.038,14.07,15.065,14.051,15.169z"/>
	<path fill="#FDD6B2" d="M11.985,13.893c-0.023-0.016-0.028-0.047-0.015-0.069l0.497-0.718c0.016-0.022,0.047-0.028,0.069-0.012l0,0
		c0.022,0.016,0.028,0.047,0.013,0.069l-0.496,0.719c-0.016,0.023-0.046,0.027-0.068,0.013l0,0V13.893z"/>
	<path fill="#FDD6B2" d="M11.909,13.566c-0.021-0.013-0.025-0.041-0.012-0.062l0.245-0.354c0.015-0.02,0.042-0.025,0.062-0.011l0,0
		c0.021,0.014,0.025,0.042,0.012,0.061l-0.245,0.356C11.958,13.575,11.929,13.58,11.909,13.566L11.909,13.566z"/>
	<path fill="#FBBF96" d="M8.616,13.412c-0.361-0.183-0.445-0.729-0.236-1.03l0,0c0.207-0.299,0.637-0.359,0.961-0.137l4.484,3.052
		c0.323,0.224,0.417,0.648,0.209,0.948l0,0c-0.207,0.301-0.622,0.33-0.886,0.173l-4.554-3.019L8.616,13.412z"/>
	<path fill="#EDAC80" d="M9.684,12.497l2.093,1.566c0.248,0.166,2.015,1.255,1.83,1.128L9.06,12.011
		C9.105,12.081,9.612,12.444,9.684,12.497L9.684,12.497z"/>
	<path fill="#FDD6B2" d="M13.04,16.121l0.268,0.185c0.19,0.131,0.458,0.071,0.6-0.131c0.142-0.204,0.103-0.477-0.088-0.607
		l-0.268-0.187c0,0-0.138,0.061-0.305,0.307c-0.209,0.307-0.188,0.334-0.207,0.432V16.121z"/>
	<path fill="#FDD6B2" d="M11.092,14.872c-0.022-0.015-0.026-0.045-0.012-0.066l0.484-0.676c0.015-0.022,0.045-0.026,0.065-0.01l0,0
		c0.022,0.015,0.027,0.045,0.012,0.065l-0.484,0.677C11.142,14.884,11.112,14.889,11.092,14.872L11.092,14.872z"/>
	<path fill="#FDD6B2" d="M11.024,14.562c-0.019-0.015-0.023-0.041-0.008-0.06l0.237-0.333c0.014-0.02,0.04-0.023,0.059-0.011l0,0
		c0.019,0.013,0.022,0.039,0.011,0.06l-0.239,0.333C11.069,14.57,11.044,14.575,11.024,14.562L11.024,14.562z"/>
	<path fill="#F5B78C" d="M10.478,10.942c-0.162-0.049-0.258-0.201-0.219-0.368c0.022-0.102-0.132-0.15-0.155-0.048
		c-0.058,0.253,0.075,0.496,0.325,0.572c0.101,0.031,0.148-0.123,0.049-0.154l0,0V10.942z"/>
	<path fill="#F5B78C" d="M9.734,12.304c-0.268-0.11-0.389-0.378-0.298-0.65c0.032-0.1-0.127-0.131-0.159-0.033
		c-0.111,0.339,0.056,0.695,0.384,0.829C9.758,12.489,9.831,12.344,9.734,12.304L9.734,12.304z"/>
	<path fill="#F5B78C" d="M8.839,13.227c-0.19-0.076-0.29-0.271-0.229-0.469c0.032-0.098-0.119-0.159-0.15-0.059
		c-0.089,0.279,0.043,0.569,0.319,0.679C8.876,13.416,8.937,13.264,8.839,13.227L8.839,13.227z"/>
	<path fill="#F5B78C" d="M7.892,14.255c-0.14-0.061-0.22-0.205-0.167-0.354c0.034-0.098-0.111-0.17-0.146-0.072
		c-0.079,0.229,0.014,0.473,0.24,0.57C7.914,14.441,7.988,14.296,7.892,14.255L7.892,14.255L7.892,14.255z"/>
	<path fill="#EBF3F6" d="M4.251,11.696L1.058,9.211C0.762,8.979,0.807,8.426,1.159,7.973l2.213-2.845
		c0.352-0.452,0.879-0.632,1.175-0.401l3.192,2.485C8.037,7.443,4.547,11.926,4.251,11.696z"/>
	<path fill="#F1A977" d="M7.727,8.972l1.168-0.8c0,0,0.148-0.18,0.726-0.224c0.91-0.068,2.719-0.484,2.719-0.484
		c1.113,0.33,1.016,1.318,1.016,1.318l-2.916,0.559c0,0-1.342-0.105-1.677,0.104c-0.812,0.507-1.216-0.33-1.216-0.33L7.727,8.972
		L7.727,8.972z"/>
	<path fill="#FDD6B2" d="M8.33,8.557l-0.779,0.5c0,0,0.176,0.165,0.324,0.144C8.04,9.176,8.389,8.795,8.33,8.557L8.33,8.557z"/>
	<path fill="#EDAC80" d="M7.845,9.304l1.397-0.372L10.56,8.77L9.624,8.721c0,0-0.383-0.026-0.67,0.126
		C8.732,8.966,7.846,9.304,7.845,9.304L7.845,9.304z"/>
	<path fill="#FDD6B2" d="M9.148,8.393c0.025-0.005,0.04-0.03,0.035-0.055L9.132,8.11C9.126,8.085,9.101,8.069,9.076,8.076l0,0
		C9.051,8.082,9.037,8.107,9.042,8.131l0.052,0.228C9.1,8.384,9.125,8.399,9.148,8.393L9.148,8.393L9.148,8.393z"/>
	<path fill="#FDD6B2" d="M9.293,8.244c0.025-0.006,0.04-0.03,0.033-0.056L9.303,8.066c-0.005-0.025-0.03-0.04-0.056-0.034l0,0
		c-0.025,0.006-0.04,0.031-0.034,0.055L9.236,8.21C9.243,8.234,9.268,8.25,9.293,8.244L9.293,8.244z"/>
	<path fill="#EBF3F6" d="M16.14,11.696l3.192-2.485c0.297-0.231,0.251-0.785-0.101-1.238l-2.214-2.845
		c-0.352-0.452-0.878-0.632-1.175-0.401L12.65,7.212C12.354,7.442,15.843,11.926,16.14,11.696z"/>
	<path fill="#5399AA" d="M7.429,6.725L3.161,3.136C1.644,4.648,0.626,6.66,0.374,8.905l3.238,2.725
		C3.935,11.88,7.751,6.976,7.429,6.725z"/>
	<path fill="#37848C" d="M16.584,11.526l3.049-2.577c-0.242-2.251-1.256-4.271-2.77-5.789l-4.095,3.463
		C12.445,6.873,16.263,11.777,16.584,11.526L16.584,11.526z"/>
</g>
</svg>
