<?xml version="1.0" encoding="utf-8"?>
<!-- Generator: Adobe Illustrator 16.0.0, SVG Export Plug-In . SVG Version: 6.00 Build 0)  -->
<!DOCTYPE svg PUBLIC "-//W3C//DTD SVG 1.1//EN" "http://www.w3.org/Graphics/SVG/1.1/DTD/svg11.dtd">
<svg version="1.1" id="Layer_1" xmlns="http://www.w3.org/2000/svg" xmlns:xlink="http://www.w3.org/1999/xlink" x="0px" y="0px"
	 width="20px" height="20px" viewBox="0 0 20 20" enable-background="new 0 0 20 20" xml:space="preserve">
<g>
	<path fill="#A2D4DE" d="M19.689,10c0,5.35-4.336,9.69-9.689,9.69c-5.352,0-9.689-4.338-9.689-9.69C0.311,4.649,4.649,0.31,10,0.31
		C15.354,0.31,19.689,4.648,19.689,10z"/>
	<path fill="#6CC077" d="M18.916,6.201l-1.928-1.929c0,0-1.285-1.499-2.361-1.559c-1.076-0.061-2.234,1.432-2.234,1.432
		l-1.771,1.771l-0.286-0.287c0,0-1.046-1.219-1.922-1.269C7.538,4.312,6.597,5.526,6.597,5.526L5.656,6.467
		C5.506,6.299,4.722,5.459,4.049,5.42c-0.746-0.042-1.55,0.995-1.55,0.995L0.429,8.483C0.352,8.978,0.31,9.484,0.31,10
		c0,1.577,0.379,3.063,1.047,4.379h17.286c0.668-1.316,1.047-2.803,1.047-4.379C19.689,8.651,19.412,7.367,18.916,6.201
		L18.916,6.201z"/>
	<path fill="#C2C099" d="M10,19.689c4.646,0,8.527-3.273,9.47-7.637c-1.684-0.342-5.17-0.912-9.655-0.912
		c-4.677,0-7.888,0.621-9.274,0.955C1.499,16.439,5.369,19.689,10,19.689L10,19.689z"/>
	<path fill="#ABD9DF" d="M11.152,8.445H2.969c-0.09,0-0.163,0.072-0.163,0.162v5.453c0,0.09,0.073,0.162,0.163,0.162h8.184V8.445z"
		/>
	<path fill="#B0DFE5" d="M11.141,9.303v4.919h6.07c0.076,0,0.139-0.061,0.139-0.139V9.303H11.141z"/>
	<path fill="#357180" d="M17.65,8.709c-0.006-0.048-0.033-0.091-0.07-0.119l-5.934,0.003c-0.002-0.001-0.002-0.002-0.002-0.002
		L9.6,6.86V5.662C9.6,5.572,9.526,5.5,9.438,5.5H8.666c-0.09,0-0.164,0.072-0.164,0.162v0.271L6.969,4.633
		C6.907,4.581,6.816,4.582,6.755,4.636l-4.443,3.96C2.306,8.601,2.3,8.606,2.294,8.611C2.258,8.648,2.241,8.699,2.25,8.75v0.385
		c0,0.09,0.073,0.164,0.163,0.164h15.076c0.092,0,0.164-0.074,0.164-0.164C17.652,9.135,17.652,8.717,17.65,8.709L17.65,8.709z"/>
	<path fill="#87BCC0" d="M16.76,10.717h-5.004c-0.055,0-0.102,0.045-0.102,0.102v3.4h5.207v-3.4
		C16.861,10.764,16.816,10.717,16.76,10.717z"/>
	<path fill="#4D4C4C" d="M6.231,12.023c0-0.092,0.076-0.168,0.169-0.168h1.036c0.093,0,0.168,0.076,0.168,0.168v2.199H6.232
		L6.231,12.023L6.231,12.023z"/>
	<path fill="#CDCCCB" d="M6.531,13.045c0,0.047-0.038,0.084-0.085,0.084s-0.085-0.037-0.085-0.084s0.038-0.086,0.085-0.086
		S6.531,12.998,6.531,13.045z"/>
	<path fill="#87BCC0" d="M9.877,11.852H8.739c-0.092,0-0.168,0.076-0.168,0.17v1.035c0,0.094,0.076,0.168,0.168,0.168h1.138
		c0.092,0,0.167-0.074,0.167-0.168v-1.035C10.044,11.928,9.969,11.852,9.877,11.852z"/>
	<path fill="#87BCC0" d="M9.877,9.914H8.739c-0.092,0-0.168,0.076-0.168,0.169v1.035c0,0.094,0.076,0.17,0.168,0.17h1.138
		c0.092,0,0.167-0.076,0.167-0.17v-1.035C10.044,9.989,9.969,9.914,9.877,9.914z"/>
	<path fill="#87BCC0" d="M5.134,11.852H3.997c-0.092,0-0.167,0.076-0.167,0.17v1.035c0,0.094,0.075,0.168,0.167,0.168h1.138
		c0.092,0,0.167-0.074,0.167-0.168v-1.035C5.301,11.928,5.226,11.852,5.134,11.852z"/>
	<path fill="#87BCC0" d="M5.134,9.914H3.997c-0.092,0-0.167,0.076-0.167,0.169v1.035c0,0.094,0.075,0.17,0.167,0.17h1.138
		c0.092,0,0.167-0.076,0.167-0.17v-1.035C5.301,9.989,5.226,9.914,5.134,9.914z"/>
	<path fill="#87BCC0" d="M7.506,9.914H6.368c-0.092,0-0.167,0.076-0.167,0.169v1.035c0,0.094,0.075,0.17,0.167,0.17h1.138
		c0.092,0,0.167-0.076,0.167-0.17v-1.035C7.673,9.989,7.598,9.914,7.506,9.914z"/>
</g>
</svg>
