<?xml version="1.0" encoding="utf-8"?>
<!-- Generator: Adobe Illustrator 16.0.0, SVG Export Plug-In . SVG Version: 6.00 Build 0)  -->
<!DOCTYPE svg PUBLIC "-//W3C//DTD SVG 1.1//EN" "http://www.w3.org/Graphics/SVG/1.1/DTD/svg11.dtd">
<svg version="1.1" id="Layer_1" xmlns="http://www.w3.org/2000/svg" xmlns:xlink="http://www.w3.org/1999/xlink" x="0px" y="0px"
	 width="20px" height="20px" viewBox="0 0 20 20" enable-background="new 0 0 20 20" xml:space="preserve">
<g>
	<path fill="#E84849" d="M19.69,10c0,5.351-4.338,9.69-9.69,9.69S0.31,15.353,0.31,10c0-5.352,4.338-9.69,9.69-9.69
		S19.69,4.647,19.69,10z"/>
	<path fill="#B6C2CB" d="M15.132,15.195c0,0.345-0.279,0.623-0.624,0.623H5.462c-0.345,0-0.624-0.278-0.624-0.623V4.357
		c0-0.344,0.279-0.624,0.624-0.624h9.046c0.345,0,0.624,0.28,0.624,0.624V15.195z"/>
	<path fill="#667580" d="M14.843,9.062c0,0.326-0.264,0.59-0.59,0.59H5.716c-0.325,0-0.589-0.264-0.589-0.59V4.765
		c0-0.325,0.264-0.588,0.589-0.588h8.537c0.326,0,0.59,0.263,0.59,0.588V9.062z"/>
	<path fill="#D2D2D2" d="M14.513,8.828c0,0.303-0.247,0.549-0.55,0.549H6.007c-0.302,0-0.548-0.246-0.548-0.549V4.979
		c0-0.303,0.246-0.549,0.548-0.549h7.956c0.303,0,0.55,0.245,0.55,0.549V8.828z"/>
	<path fill="#C0C0C0" d="M12.052,6.147l2.461-1.149c0-0.303-0.247-0.548-0.55-0.548H6.007c-0.302,0-0.548,0.245-0.548,0.548
		l2.46,1.149c0,0.128,0,2.466,0,2.595l-2.46,0.087c0,0.303,0.246,0.549,0.548,0.549h7.956c0.303,0,0.55-0.246,0.55-0.549
		l-2.461-0.086C12.052,8.614,12.052,6.277,12.052,6.147L12.052,6.147z"/>
	<path fill="#A7A8A7" d="M11.778,8.449c0,0.165-0.135,0.3-0.3,0.3H8.557c-0.166,0-0.3-0.135-0.3-0.3V6.345
		c0-0.165,0.134-0.299,0.3-0.299h2.922c0.165,0,0.3,0.135,0.3,0.299V8.449z"/>
	<path fill="#B6B6B7" d="M11.249,8.132c0,0.117-0.094,0.211-0.209,0.211H8.997c-0.116,0-0.21-0.094-0.21-0.211V6.66
		c0-0.115,0.095-0.209,0.21-0.209h2.043c0.115,0,0.209,0.095,0.209,0.209V8.132z"/>
	<path fill="#9C9C9C" d="M10.896,6.905c0,0.057-0.045,0.103-0.103,0.103H9.271c-0.057,0-0.103-0.046-0.103-0.103l0,0
		c0-0.056,0.046-0.103,0.103-0.103h1.522C10.851,6.803,10.896,6.85,10.896,6.905L10.896,6.905z"/>
	<path fill="#9C9C9C" d="M10.896,7.345c0,0.057-0.045,0.103-0.103,0.103H9.271c-0.057,0-0.103-0.046-0.103-0.103l0,0
		c0-0.056,0.046-0.102,0.103-0.102h1.522C10.851,7.243,10.896,7.289,10.896,7.345L10.896,7.345z"/>
	<path fill="#9C9C9C" d="M10.896,7.796c0,0.057-0.045,0.104-0.103,0.104H9.271c-0.057,0-0.103-0.047-0.103-0.104l0,0
		c0-0.057,0.046-0.103,0.103-0.103h1.522C10.851,7.693,10.896,7.739,10.896,7.796L10.896,7.796z"/>
	<path fill="#667580" d="M15.497,15.655c0,0.37-0.3,0.67-0.668,0.67H5.142c-0.369,0-0.668-0.3-0.668-0.67v-0.638
		c0-0.37,0.299-0.669,0.668-0.669h9.688c0.368,0,0.668,0.299,0.668,0.669V15.655z"/>
	<path fill="#838383" d="M14.326,8.138c0,0.103-0.045,0.187-0.1,0.187h-1.869c-0.055,0-0.1-0.083-0.1-0.187l0,0
		c0-0.103,0.044-0.187,0.1-0.187h1.869C14.281,7.951,14.326,8.035,14.326,8.138L14.326,8.138z"/>
	<path fill="#838383" d="M14.227,7.064h-0.935c-0.055,0-0.1,0.044-0.1,0.1c0,0.055,0.044,0.098,0.1,0.098h0.935
		c0.055,0,0.1-0.045,0.1-0.098S14.282,7.064,14.227,7.064z"/>
	<path fill="#838383" d="M14.227,6.376h-0.935c-0.055,0-0.1,0.044-0.1,0.099c0,0.056,0.044,0.1,0.1,0.1h0.935
		c0.055,0,0.1-0.044,0.1-0.1C14.326,6.42,14.282,6.376,14.227,6.376z"/>
	<path fill="#E5E5E5" d="M8.401,12.746l-0.11-0.293H7.346l-0.11,0.299c-0.044,0.116-0.08,0.194-0.111,0.235
		c-0.03,0.039-0.081,0.06-0.15,0.06c-0.059,0-0.111-0.021-0.157-0.063s-0.068-0.094-0.068-0.148c0-0.033,0.006-0.064,0.017-0.099
		c0.01-0.033,0.027-0.08,0.052-0.14l0.594-1.508c0.017-0.043,0.037-0.096,0.061-0.156s0.049-0.11,0.076-0.151
		c0.027-0.04,0.062-0.073,0.105-0.099c0.044-0.024,0.099-0.036,0.163-0.036s0.12,0.012,0.164,0.036
		c0.044,0.025,0.079,0.058,0.105,0.097c0.027,0.038,0.049,0.079,0.068,0.124c0.019,0.046,0.042,0.105,0.07,0.182l0.606,1.497
		c0.048,0.114,0.071,0.196,0.071,0.249c0,0.054-0.021,0.103-0.066,0.147c-0.046,0.045-0.1,0.067-0.163,0.067
		c-0.036,0-0.068-0.008-0.095-0.02c-0.026-0.013-0.048-0.031-0.066-0.054s-0.038-0.058-0.059-0.104
		c-0.02-0.047-0.037-0.088-0.053-0.123L8.401,12.746z M7.471,12.102h0.694l-0.35-0.959L7.471,12.102L7.471,12.102z"/>
	<path fill="#E5E5E5" d="M10.472,11.075H9.959v1.687c0,0.099-0.022,0.169-0.065,0.217S9.795,13.05,9.727,13.05
		c-0.07,0-0.127-0.023-0.171-0.071s-0.065-0.12-0.065-0.217v-1.687H8.977c-0.08,0-0.14-0.019-0.179-0.053
		c-0.039-0.037-0.059-0.082-0.059-0.142c0-0.059,0.02-0.107,0.061-0.142c0.041-0.035,0.1-0.053,0.177-0.053h1.495
		c0.082,0,0.142,0.018,0.182,0.054s0.061,0.083,0.061,0.14c0,0.059-0.021,0.105-0.061,0.141s-0.102,0.053-0.181,0.053L10.472,11.075
		z"/>
	<path fill="#E5E5E5" d="M11.774,12.659l-0.371-1.479v1.603c0,0.089-0.02,0.155-0.059,0.201c-0.04,0.045-0.094,0.066-0.159,0.066
		c-0.063,0-0.114-0.021-0.155-0.066c-0.039-0.043-0.061-0.111-0.061-0.201v-1.838c0-0.1,0.027-0.168,0.08-0.204
		c0.055-0.036,0.124-0.054,0.214-0.054h0.145c0.089,0,0.152,0.009,0.19,0.025c0.039,0.014,0.069,0.045,0.088,0.084
		c0.02,0.041,0.041,0.108,0.065,0.202l0.338,1.271l0.337-1.271c0.023-0.094,0.045-0.161,0.064-0.202
		c0.02-0.039,0.048-0.07,0.088-0.084c0.04-0.017,0.104-0.025,0.191-0.025h0.145c0.091,0,0.162,0.018,0.214,0.054
		c0.053,0.036,0.079,0.104,0.079,0.204v1.838c0,0.089-0.02,0.155-0.06,0.201c-0.039,0.045-0.092,0.066-0.159,0.066
		c-0.062,0-0.112-0.021-0.153-0.066c-0.041-0.046-0.062-0.112-0.062-0.201V11.18l-0.372,1.479c-0.024,0.096-0.044,0.166-0.06,0.211
		s-0.045,0.086-0.085,0.123c-0.041,0.037-0.099,0.057-0.17,0.057c-0.056,0-0.103-0.012-0.14-0.036
		c-0.038-0.024-0.068-0.055-0.09-0.091c-0.021-0.037-0.037-0.078-0.049-0.123c-0.014-0.045-0.024-0.092-0.037-0.14L11.774,12.659z"
		/>
</g>
</svg>
