<?xml version="1.0" encoding="utf-8"?>
<!-- Generator: Adobe Illustrator 16.0.0, SVG Export Plug-In . SVG Version: 6.00 Build 0)  -->
<!DOCTYPE svg PUBLIC "-//W3C//DTD SVG 1.1//EN" "http://www.w3.org/Graphics/SVG/1.1/DTD/svg11.dtd">
<svg version="1.1" id="Layer_1" xmlns="http://www.w3.org/2000/svg" xmlns:xlink="http://www.w3.org/1999/xlink" x="0px" y="0px"
	 width="20px" height="20px" viewBox="0 0 20 20" enable-background="new 0 0 20 20" xml:space="preserve">
<g>
	<path fill="#4ABC96" d="M19.69,10c0,5.351-4.338,9.69-9.69,9.69S0.31,15.353,0.31,10c0-5.352,4.338-9.69,9.69-9.69
		S19.69,4.647,19.69,10z"/>
	<path fill="#E1DEDB" d="M16.428,13.079c0,0.38-0.309,0.688-0.69,0.688H4.356c-0.381,0-0.689-0.309-0.689-0.688V6.642
		c0-0.381,0.309-0.69,0.689-0.69h11.381c0.382,0,0.69,0.31,0.69,0.69V13.079z"/>
	<path fill="#EDEBE7" d="M3.667,9.937V6.642c0-0.381,0.309-0.69,0.689-0.69h11.381c0.382,0,0.69,0.31,0.69,0.69v3.295H3.667z"/>
	<path fill="#5C5853" d="M5.018,12.491c0,0.045-0.035,0.082-0.079,0.082l0,0c-0.043,0-0.079-0.037-0.079-0.082V7.342
		c0-0.045,0.035-0.083,0.079-0.083l0,0c0.043,0,0.079,0.037,0.079,0.083V12.491z"/>
	<path fill="#5C5853" d="M6.108,12.491c0,0.045-0.035,0.082-0.079,0.082l0,0c-0.043,0-0.078-0.037-0.078-0.082V7.342
		c0-0.045,0.035-0.083,0.078-0.083l0,0c0.043,0,0.079,0.037,0.079,0.083V12.491z"/>
	<path fill="#5C5853" d="M7.782,12.491c0,0.045-0.034,0.082-0.078,0.082l0,0c-0.043,0-0.077-0.037-0.077-0.082V7.342
		c0-0.045,0.034-0.083,0.077-0.083l0,0c0.043,0,0.078,0.037,0.078,0.083V12.491z"/>
	<path fill="#5C5853" d="M9.419,12.491c0,0.045-0.034,0.082-0.077,0.082l0,0c-0.043,0-0.078-0.037-0.078-0.082V7.342
		c0-0.045,0.035-0.083,0.078-0.083l0,0c0.043,0,0.077,0.037,0.077,0.083V12.491z"/>
	<path fill="#5C5853" d="M12.886,12.491c0,0.045-0.033,0.082-0.079,0.082l0,0c-0.042,0-0.077-0.037-0.077-0.082V7.342
		c0-0.045,0.035-0.083,0.077-0.083l0,0c0.043,0,0.079,0.037,0.079,0.083V12.491z"/>
	<path fill="#5C5853" d="M13.173,12.491c0,0.045-0.032,0.082-0.073,0.082l0,0c-0.041,0-0.073-0.037-0.073-0.082V7.342
		c0-0.045,0.032-0.083,0.073-0.083l0,0c0.04,0,0.073,0.037,0.073,0.083V12.491z"/>
	<path fill="#5C5853" d="M15.237,12.491c0,0.045-0.032,0.082-0.073,0.082l0,0c-0.04,0-0.073-0.037-0.073-0.082V7.342
		c0-0.045,0.033-0.083,0.073-0.083l0,0c0.039,0,0.073,0.037,0.073,0.083V12.491z"/>
	<path fill="#5C5853" d="M9.528,7.259c-0.03,0-0.054,0.037-0.054,0.083v5.149c0,0.045,0.024,0.082,0.054,0.082
		c0.03,0,0.055-0.037,0.055-0.082V7.342C9.583,7.297,9.56,7.259,9.528,7.259z"/>
	<path fill="#5C5853" d="M10.933,7.259c-0.031,0-0.056,0.037-0.056,0.083v5.149c0,0.045,0.024,0.082,0.056,0.082
		c0.028,0,0.053-0.037,0.053-0.082V7.342C10.985,7.297,10.962,7.259,10.933,7.259z"/>
	<path fill="#5C5853" d="M14.347,7.259c-0.03,0-0.056,0.037-0.056,0.083v5.149c0,0.045,0.026,0.082,0.056,0.082
		c0.028,0,0.054-0.037,0.054-0.082V7.342C14.4,7.297,14.377,7.259,14.347,7.259z"/>
	<path fill="#5C5853" d="M13.762,7.259c-0.03,0-0.054,0.037-0.054,0.083v5.149c0,0.045,0.023,0.082,0.054,0.082
		c0.031,0,0.056-0.037,0.056-0.082V7.342C13.817,7.297,13.793,7.259,13.762,7.259z"/>
	<path fill="#5C5853" d="M11.97,7.259c-0.029,0-0.054,0.037-0.054,0.083v5.149c0,0.045,0.024,0.082,0.054,0.082
		c0.031,0,0.055-0.037,0.055-0.082V7.342C12.024,7.297,12.001,7.259,11.97,7.259z"/>
	<path fill="#5C5853" d="M10.062,7.259c-0.03,0-0.055,0.037-0.055,0.083v5.149c0,0.045,0.025,0.082,0.055,0.082
		s0.055-0.037,0.055-0.082V7.342C10.116,7.297,10.091,7.259,10.062,7.259z"/>
	<path fill="#5C5853" d="M7.102,7.259c-0.03,0-0.055,0.037-0.055,0.083v5.149c0,0.045,0.024,0.082,0.055,0.082
		c0.029,0,0.055-0.037,0.055-0.082V7.342C7.156,7.297,7.131,7.259,7.102,7.259z"/>
	<path fill="#5C5853" d="M5.815,7.259c-0.03,0-0.054,0.037-0.054,0.083v5.149c0,0.045,0.024,0.082,0.054,0.082
		c0.03,0,0.055-0.037,0.055-0.082V7.342C5.87,7.297,5.847,7.259,5.815,7.259z"/>
	<path fill="#5C5853" d="M8.854,7.259c-0.03,0-0.055,0.037-0.055,0.083v5.149c0,0.045,0.024,0.082,0.055,0.082
		s0.055-0.037,0.055-0.082V7.342C8.908,7.297,8.884,7.259,8.854,7.259z"/>
	<path fill="#5C5853" d="M5.363,12.491c0,0.045-0.041,0.082-0.093,0.082l0,0c-0.052,0-0.092-0.037-0.092-0.082V7.342
		c0-0.045,0.04-0.083,0.092-0.083l0,0c0.052,0,0.093,0.037,0.093,0.083V12.491z"/>
	<path fill="#5C5853" d="M6.502,12.491c0,0.045-0.055,0.082-0.122,0.082l0,0c-0.067,0-0.122-0.037-0.122-0.082V7.342
		c0-0.045,0.055-0.083,0.122-0.083l0,0c0.067,0,0.122,0.037,0.122,0.083V12.491z"/>
	<path fill="#5C5853" d="M8.449,12.491c0,0.045-0.055,0.082-0.121,0.082l0,0c-0.067,0-0.121-0.037-0.121-0.082V7.342
		c0-0.045,0.054-0.083,0.121-0.083l0,0c0.066,0,0.121,0.037,0.121,0.083V12.491z"/>
	<path fill="#5C5853" d="M10.826,12.491c0,0.045-0.056,0.082-0.122,0.082l0,0c-0.066,0-0.121-0.037-0.121-0.082V7.342
		c0-0.045,0.055-0.083,0.121-0.083l0,0c0.066,0,0.122,0.037,0.122,0.083V12.491z"/>
	<path fill="#5C5853" d="M14.938,12.491c0,0.045-0.082,0.082-0.182,0.082l0,0c-0.101,0-0.183-0.037-0.183-0.082V7.342
		c0-0.045,0.082-0.083,0.183-0.083l0,0c0.1,0,0.182,0.037,0.182,0.083V12.491z"/>
	<path fill="#5C5853" d="M11.783,12.491c0,0.045-0.082,0.082-0.183,0.082l0,0c-0.1,0-0.182-0.037-0.182-0.082V7.342
		c0-0.045,0.082-0.083,0.182-0.083l0,0c0.101,0,0.183,0.037,0.183,0.083V12.491z"/>
	<path fill="#45423F" d="M4.861,12.491c0,0.045,0.034,0.082,0.078,0.082s0.079-0.037,0.079-0.082V9.937H4.862L4.861,12.491
		L4.861,12.491z"/>
	<path fill="#45423F" d="M5.951,12.491c0,0.045,0.035,0.082,0.078,0.082s0.079-0.037,0.079-0.082V9.937H5.951V12.491z"/>
	<path fill="#45423F" d="M7.627,12.491c0,0.045,0.034,0.082,0.077,0.082s0.078-0.037,0.078-0.082V9.937H7.627V12.491z"/>
	<path fill="#45423F" d="M9.263,12.491c0,0.045,0.035,0.082,0.078,0.082s0.077-0.037,0.077-0.082V9.937H9.262L9.263,12.491
		L9.263,12.491z"/>
	<path fill="#45423F" d="M12.729,12.491c0,0.045,0.035,0.082,0.077,0.082c0.043,0,0.079-0.037,0.079-0.082V9.937h-0.156V12.491z"/>
	<path fill="#45423F" d="M13.028,12.491c0,0.045,0.031,0.082,0.072,0.082s0.073-0.037,0.073-0.082V9.937h-0.146V12.491z"/>
	<path fill="#45423F" d="M15.092,12.491c0,0.045,0.032,0.082,0.072,0.082c0.041,0,0.074-0.037,0.074-0.082V9.937h-0.146V12.491z"/>
	<path fill="#45423F" d="M9.475,12.491c0,0.045,0.024,0.082,0.054,0.082c0.03,0,0.055-0.037,0.055-0.082V9.937H9.474L9.475,12.491
		L9.475,12.491z"/>
	<path fill="#45423F" d="M10.877,12.491c0,0.045,0.024,0.082,0.056,0.082c0.028,0,0.053-0.037,0.053-0.082V9.937h-0.109
		L10.877,12.491L10.877,12.491z"/>
	<path fill="#45423F" d="M14.291,12.491c0,0.045,0.026,0.082,0.056,0.082c0.028,0,0.054-0.037,0.054-0.082V9.937h-0.109V12.491
		L14.291,12.491z"/>
	<path fill="#45423F" d="M13.708,12.491c0,0.045,0.023,0.082,0.054,0.082c0.031,0,0.056-0.037,0.056-0.082V9.937h-0.11
		L13.708,12.491L13.708,12.491z"/>
	<path fill="#45423F" d="M11.916,12.491c0,0.045,0.024,0.082,0.054,0.082c0.031,0,0.055-0.037,0.055-0.082V9.937h-0.109
		L11.916,12.491L11.916,12.491z"/>
	<path fill="#45423F" d="M10.006,12.491c0,0.045,0.025,0.082,0.055,0.082s0.055-0.037,0.055-0.082V9.937h-0.11L10.006,12.491
		L10.006,12.491z"/>
	<path fill="#45423F" d="M7.047,12.491c0,0.045,0.024,0.082,0.055,0.082c0.029,0,0.055-0.037,0.055-0.082V9.937h-0.11L7.047,12.491
		L7.047,12.491z"/>
	<path fill="#45423F" d="M5.762,12.491c0,0.045,0.024,0.082,0.054,0.082c0.03,0,0.055-0.037,0.055-0.082V9.937H5.761L5.762,12.491
		L5.762,12.491z"/>
	<path fill="#45423F" d="M8.799,12.491c0,0.045,0.024,0.082,0.055,0.082s0.055-0.037,0.055-0.082V9.937h-0.11L8.799,12.491
		L8.799,12.491z"/>
	<path fill="#45423F" d="M5.179,12.491c0,0.045,0.04,0.082,0.092,0.082s0.093-0.037,0.093-0.082V9.937H5.179V12.491z"/>
	<path fill="#45423F" d="M6.258,12.491c0,0.045,0.055,0.082,0.122,0.082s0.122-0.037,0.122-0.082V9.937H6.258V12.491z"/>
	<path fill="#45423F" d="M8.207,12.491c0,0.045,0.054,0.082,0.121,0.082c0.066,0,0.121-0.037,0.121-0.082V9.937H8.207V12.491z"/>
	<path fill="#45423F" d="M10.583,12.491c0,0.045,0.055,0.082,0.121,0.082s0.122-0.037,0.122-0.082V9.937h-0.243V12.491z"/>
	<path fill="#45423F" d="M14.573,12.491c0,0.045,0.082,0.082,0.183,0.082c0.1,0,0.182-0.037,0.182-0.082V9.937h-0.364V12.491z"/>
	<path fill="#45423F" d="M11.419,12.491c0,0.045,0.082,0.082,0.182,0.082c0.101,0,0.183-0.037,0.183-0.082V9.937h-0.364V12.491z"/>
</g>
</svg>
