<?xml version="1.0" encoding="utf-8"?>
<!-- Generator: Adobe Illustrator 16.0.0, SVG Export Plug-In . SVG Version: 6.00 Build 0)  -->
<!DOCTYPE svg PUBLIC "-//W3C//DTD SVG 1.1//EN" "http://www.w3.org/Graphics/SVG/1.1/DTD/svg11.dtd">
<svg version="1.1" id="Layer_1" xmlns="http://www.w3.org/2000/svg" xmlns:xlink="http://www.w3.org/1999/xlink" x="0px" y="0px"
	 width="20px" height="20px" viewBox="0 0 20 20" enable-background="new 0 0 20 20" xml:space="preserve">
<g>
	<path fill="#49A0AE" d="M19.69,10c0,5.351-4.338,9.69-9.69,9.69S0.31,15.353,0.31,10c0-5.352,4.338-9.69,9.69-9.69
		S19.69,4.647,19.69,10z"/>
	<path fill="#972627" d="M9.41,4.806c0,0-1.199,0.647,0.348,1.996C9.758,6.802,7.199,5.497,9.41,4.806z"/>
	<path fill="#E34F50" d="M8.348,5.115C7.932,5.873,9.568,6.907,9.568,6.907l0.19-0.105C9.574,6.675,8.479,5.887,8.683,5.335
		c0.202-0.547,0.9-0.416,1.112,0.106c0.186,0.461,0.352,1.006,0.344,1.148l0.167-0.094c0,0,0.132-0.646-0.16-1.368
		C9.854,4.407,8.738,4.406,8.348,5.115L8.348,5.115z"/>
	<path fill="#972627" d="M11.21,4.97c0,0,1.063,0.711-0.29,2.252C10.92,7.222,13.167,5.717,11.21,4.97z"/>
	<path fill="#E34F50" d="M12.15,5.303c0.374,0.849-1.062,2.035-1.062,2.035L10.92,7.221c0.162-0.146,1.121-1.048,0.937-1.666
		c-0.182-0.613-0.798-0.455-0.979,0.134c-0.159,0.521-0.302,1.137-0.294,1.298l-0.147-0.103c0,0-0.122-0.726,0.13-1.541
		C10.815,4.527,11.801,4.509,12.15,5.303z"/>
	<path fill="#972627" d="M10.787,3.975c0,0-1.651-0.008-0.785,2.389C10.002,6.363,8.034,3.413,10.787,3.975z"/>
	<path fill="#E34F50" d="M9.477,3.68C8.594,4.262,9.737,6.366,9.737,6.366l0.264-0.003C9.878,6.114,9.169,4.603,9.704,4.12
		c0.532-0.479,1.199,0.08,1.122,0.776c-0.067,0.615-0.209,1.309-0.299,1.461l0.231-0.004c0,0,0.515-0.628,0.621-1.59
		c0.107-0.962-1.077-1.627-1.903-1.082V3.68z"/>
	<path fill="#E34F50" d="M13.47,6.99c-0.582,0.882-2.687-0.261-2.687-0.261l0.003-0.264c0.249,0.123,1.733,0.806,2.244,0.297
		c0.169-0.17-0.236-1.113-0.777-1.123c-0.619-0.01-1.418,0.2-2.094,1.31l0.003-0.635c0,0,1.261-1.121,2.224-1.229
		C13.348,4.979,14.014,6.164,13.47,6.99z"/>
	<path fill="#972627" d="M10.159,6.949c0,0,0.762-1.449,2.264-1.276c0,0-0.654-0.185-1.051-0.102
		c-0.209,0.042-0.857,0.39-1.21,0.741L10.159,6.949L10.159,6.949z"/>
	<path fill="#E34F50" d="M7.235,7.268c0.725,0.768,2.6-0.724,2.6-0.724l-0.049-0.26C9.562,6.448,8.22,7.38,7.629,6.966
		C7.432,6.828,7.667,5.83,8.198,5.727c0.608-0.118,1.431-0.049,2.289,0.926l-0.114-0.626c0,0-1.437-0.885-2.403-0.823
		C7.004,5.266,6.555,6.549,7.235,7.268L7.235,7.268z"/>
	<path fill="#972627" d="M10.486,6.652c0,0-1.003-1.295-2.452-0.864c0,0,0.612-0.295,1.017-0.282
		c0.213,0.006,0.913,0.234,1.321,0.521L10.486,6.652z"/>
	<path fill="#DFDFDF" d="M15.297,7.779H4.768c-0.181,0-0.327,0.146-0.327,0.328v5.899c0,0.182,0.146,0.327,0.327,0.327h10.529
		c0.181,0,0.327-0.146,0.327-0.327V8.107C15.624,7.926,15.478,7.779,15.297,7.779z"/>
	<path fill="#CDCCCB" d="M15.297,7.779h-5.253l0.001,6.555h5.252c0.181,0,0.327-0.146,0.327-0.327V8.107
		C15.624,7.926,15.478,7.779,15.297,7.779z"/>
	<path fill="#B4B4B5" d="M15.655,7.4l-5.635-1.069L4.409,7.4c-0.192,0-0.35,0.157-0.35,0.35v1.033c0,0.192,0.157,0.35,0.35,0.35
		l5.623-1.073l5.623,1.073c0.194,0,0.35-0.157,0.35-0.35V7.75C16.005,7.557,15.849,7.4,15.655,7.4z"/>
	<path fill="#CECBCB" d="M16.005,8.593c0,0.193,0.012,0.361-0.126,0.35l-5.858-1.075V6.135l5.635,1.075
		c0.194,0,0.35,0.157,0.35,0.35V8.593z"/>
	<path fill="#E9E9EA" d="M4.06,7.56c0-0.193,0.157-0.35,0.35-0.35l5.635-1.075v1.732L4.163,8.988c-0.104,0-0.104-0.203-0.104-0.396
		V7.56L4.06,7.56z"/>
	<path fill="#D32033" d="M13.833,14.386h-1.664V8.467l0.104-0.16l1.676,0.312l-0.116,0.159L13.833,14.386z"/>
	<path fill="#D22027" d="M12.17,8.467l0.104-0.16l1.677,0.312l-0.117,0.158L12.17,8.467z"/>
	<path fill="#E03740" d="M13.95,6.88l-1.677-0.323v1.75l1.677,0.312V6.88z"/>
	<path fill="#E34F50" d="M6.159,14.386h1.663v-5.91L7.719,8.308L6.044,8.62l0.115,0.167V14.386z"/>
	<path fill="#D51F31" d="M7.822,8.476L7.719,8.308L6.044,8.62l0.115,0.167L7.822,8.476z"/>
	<path fill="#E34F50" d="M6.043,6.898l1.679-0.32L7.718,8.308L6.043,8.62V6.898z"/>
</g>
</svg>
