<?xml version="1.0" encoding="utf-8"?>
<!-- Generator: Adobe Illustrator 16.0.0, SVG Export Plug-In . SVG Version: 6.00 Build 0)  -->
<!DOCTYPE svg PUBLIC "-//W3C//DTD SVG 1.1//EN" "http://www.w3.org/Graphics/SVG/1.1/DTD/svg11.dtd">
<svg version="1.1" id="Layer_1" xmlns="http://www.w3.org/2000/svg" xmlns:xlink="http://www.w3.org/1999/xlink" x="0px" y="0px"
	 width="20px" height="20px" viewBox="0 0 20 20" enable-background="new 0 0 20 20" xml:space="preserve">
<g>
	<path fill="#49A0AE" d="M19.69,10c0,5.351-4.338,9.69-9.69,9.69S0.31,15.353,0.31,10c0-5.352,4.338-9.69,9.69-9.69
		S19.69,4.647,19.69,10z"/>
	<path fill="#D1974F" d="M15.825,6.744L10.624,5.7c-0.027,0-0.206,0-0.274,0c-0.079,0-0.277,0-0.308,0L4.861,6.744
		c-0.2,0-0.361,0.178-0.361,0.396v6.597c0,0.219,0.161,0.397,0.361,0.397h10.964c0.199,0,0.36-0.179,0.36-0.397V7.141
		C16.186,6.922,16.023,6.744,15.825,6.744L15.825,6.744z"/>
	<path fill="#AE7B3E" d="M10.402,13.92c0,0.219,0.179,0.208,0.397,0.208l5.025,0.02c0.199,0,0.36-0.178,0.36-0.396V7.153
		c0-0.219-0.162-0.396-0.36-0.396l-5.201-1.044c-0.219,0-0.222,0.179-0.222,0.397V13.92L10.402,13.92z"/>
	<path fill="#867257" d="M12.744,8.863c0,0.077,0.062,0.073,0.139,0.073l1.104,0.03c0.071,0,0.129-0.062,0.129-0.14V6.406
		l-1.371-0.291V8.863z"/>
	<path fill="#C1914F" d="M10.282,13.946c0,0.182-0.178,0.207-0.396,0.207l-5.024-0.007c-0.2,0-0.361-0.178-0.361-0.396V7.152
		c0-0.219,0.161-0.396,0.361-0.396l5.181-1.044c0.219,0,0.24,0.179,0.24,0.397V13.946L10.282,13.946z"/>
	<path fill="#867257" d="M7.97,8.863c0,0.077-0.062,0.073-0.139,0.073l-1.104,0.03c-0.07,0-0.128-0.062-0.128-0.14V6.406L7.97,6.115
		V8.863z"/>
</g>
</svg>
