<?xml version="1.0" encoding="utf-8"?>
<!-- Generator: Adobe Illustrator 16.0.0, SVG Export Plug-In . SVG Version: 6.00 Build 0)  -->
<!DOCTYPE svg PUBLIC "-//W3C//DTD SVG 1.1//EN" "http://www.w3.org/Graphics/SVG/1.1/DTD/svg11.dtd">
<svg version="1.1" id="Layer_1" xmlns="http://www.w3.org/2000/svg" xmlns:xlink="http://www.w3.org/1999/xlink" x="0px" y="0px"
	 width="20px" height="20px" viewBox="0 0 20 20" enable-background="new 0 0 20 20" xml:space="preserve">
<g>
	<path fill="#FFCE00" d="M19.69,10c0,5.351-4.338,9.69-9.69,9.69S0.31,15.353,0.31,10c0-5.352,4.338-9.69,9.69-9.69
		S19.69,4.647,19.69,10z"/>
	<path fill="#B6B3A1" d="M6.096,8.015c-0.181,0.14-0.472,0.14-0.65,0l0,0c-0.18-0.139-0.18-0.365,0-0.504l4.322-3.354
		c0.18-0.139,0.471-0.139,0.649,0l0,0c0.18,0.14,0.18,0.366,0,0.505L6.096,8.015z"/>
	<path fill="#B6B3A1" d="M14.739,7.51c0.179,0.139,0.179,0.365,0,0.504l0,0c-0.18,0.14-0.472,0.14-0.652,0L9.766,4.66
		c-0.181-0.14-0.181-0.365,0-0.505l0,0c0.18-0.139,0.471-0.139,0.649,0l4.322,3.354H14.739z"/>
	<path fill="#F3EED5" d="M17.136,11.744c0,0.804-0.652,1.455-1.456,1.455H4.516c-0.805,0-1.456-0.651-1.456-1.455V8.813
		c0-0.804,0.652-1.456,1.456-1.456H15.68c0.806,0,1.456,0.652,1.456,1.456V11.744z"/>
	<path fill="#898579" d="M10.914,4.606c0,0.437-0.354,0.791-0.791,0.791c-0.437,0-0.79-0.354-0.79-0.791s0.354-0.79,0.79-0.79
		C10.561,3.816,10.914,4.17,10.914,4.606z"/>
	<path fill="#A03D3D" d="M16.562,11.415c0,0.744-0.603,1.345-1.345,1.345H4.902c-0.743,0-1.345-0.601-1.345-1.345V9.196
		c0-0.743,0.602-1.345,1.345-1.345h10.315c0.742,0,1.345,0.602,1.345,1.345V11.415z"/>
	<path fill="#F3EED5" d="M6.201,10.632c0,0.065-0.016,0.137-0.048,0.213C6.12,10.921,6.069,10.997,6,11.069
		c-0.07,0.073-0.158,0.133-0.267,0.18c-0.107,0.045-0.232,0.068-0.377,0.068c-0.109,0-0.208-0.01-0.298-0.029
		c-0.089-0.021-0.169-0.053-0.243-0.096c-0.071-0.045-0.139-0.103-0.2-0.174c-0.055-0.064-0.101-0.138-0.14-0.217
		c-0.038-0.082-0.066-0.168-0.087-0.258C4.37,10.452,4.36,10.355,4.36,10.253c0-0.166,0.024-0.315,0.072-0.447
		C4.481,9.674,4.55,9.562,4.64,9.469C4.73,9.376,4.836,9.305,4.957,9.256c0.121-0.05,0.25-0.074,0.388-0.074
		c0.167,0,0.316,0.034,0.446,0.1c0.13,0.066,0.23,0.15,0.299,0.247c0.069,0.098,0.104,0.19,0.104,0.277
		c0,0.049-0.018,0.091-0.051,0.127C6.11,9.97,6.069,9.988,6.021,9.988c-0.054,0-0.094-0.013-0.121-0.037
		C5.873,9.926,5.844,9.882,5.812,9.82c-0.055-0.104-0.118-0.18-0.192-0.229C5.545,9.54,5.455,9.516,5.347,9.516
		c-0.172,0-0.309,0.065-0.41,0.195s-0.153,0.315-0.153,0.556c0,0.16,0.023,0.295,0.067,0.4s0.109,0.186,0.191,0.238
		c0.083,0.053,0.18,0.078,0.29,0.078c0.121,0,0.222-0.028,0.305-0.088c0.083-0.061,0.146-0.147,0.188-0.264
		c0.018-0.055,0.039-0.099,0.066-0.133c0.025-0.034,0.067-0.051,0.126-0.051c0.051,0,0.093,0.018,0.128,0.052
		s0.054,0.077,0.054,0.13L6.201,10.632z"/>
	<path fill="#F3EED5" d="M6.986,9.438v1.503h0.848c0.067,0,0.119,0.017,0.155,0.049c0.035,0.033,0.054,0.074,0.054,0.123
		c0,0.051-0.018,0.092-0.053,0.125c-0.036,0.03-0.088,0.047-0.156,0.047h-1.01c-0.091,0-0.156-0.021-0.196-0.062
		c-0.039-0.041-0.06-0.106-0.06-0.196V9.438c0-0.085,0.02-0.147,0.058-0.189c0.039-0.042,0.088-0.063,0.149-0.063
		c0.063,0,0.114,0.021,0.153,0.062C6.967,9.289,6.987,9.352,6.986,9.438L6.986,9.438z"/>
	<path fill="#F3EED5" d="M9.082,9.185c0.214,0,0.397,0.044,0.55,0.13c0.153,0.085,0.271,0.21,0.349,0.37
		c0.079,0.16,0.119,0.348,0.119,0.563c0,0.16-0.022,0.304-0.065,0.435s-0.107,0.243-0.194,0.34c-0.086,0.096-0.192,0.17-0.318,0.221
		s-0.271,0.074-0.433,0.074c-0.161,0-0.306-0.025-0.434-0.076c-0.128-0.053-0.232-0.127-0.318-0.221
		c-0.085-0.096-0.15-0.209-0.194-0.342c-0.044-0.135-0.065-0.278-0.065-0.433c0-0.159,0.022-0.305,0.067-0.437
		c0.045-0.133,0.112-0.245,0.198-0.338s0.191-0.164,0.314-0.214C8.781,9.207,8.923,9.184,9.082,9.185L9.082,9.185z M9.676,10.246
		c0-0.151-0.023-0.283-0.072-0.393c-0.05-0.11-0.119-0.195-0.21-0.251c-0.09-0.058-0.194-0.085-0.312-0.085
		c-0.084,0-0.162,0.016-0.231,0.047C8.78,9.596,8.719,9.642,8.667,9.701c-0.051,0.06-0.091,0.138-0.121,0.23
		s-0.044,0.198-0.044,0.315s0.015,0.223,0.044,0.318c0.029,0.095,0.071,0.174,0.125,0.236c0.055,0.062,0.116,0.108,0.187,0.139
		c0.07,0.033,0.146,0.047,0.23,0.047c0.106,0,0.205-0.027,0.296-0.079c0.09-0.054,0.16-0.138,0.213-0.249
		C9.65,10.548,9.676,10.41,9.676,10.246L9.676,10.246z"/>
	<path fill="#F3EED5" d="M12.026,10.663c0,0.125-0.033,0.236-0.098,0.337c-0.063,0.099-0.158,0.178-0.282,0.232
		c-0.124,0.058-0.271,0.084-0.44,0.084c-0.203,0-0.372-0.039-0.504-0.114c-0.094-0.055-0.17-0.131-0.229-0.223
		s-0.088-0.183-0.088-0.271c0-0.05,0.018-0.094,0.054-0.131c0.036-0.036,0.08-0.054,0.134-0.054c0.044,0,0.082,0.014,0.111,0.042
		c0.031,0.028,0.058,0.069,0.08,0.126c0.025,0.066,0.054,0.119,0.084,0.164c0.03,0.043,0.073,0.08,0.129,0.109
		c0.055,0.029,0.129,0.043,0.219,0.043c0.122,0,0.223-0.027,0.301-0.087c0.077-0.058,0.116-0.13,0.116-0.216
		c0-0.068-0.021-0.123-0.063-0.166c-0.041-0.044-0.096-0.077-0.161-0.1s-0.156-0.046-0.266-0.072
		c-0.147-0.034-0.272-0.075-0.373-0.121c-0.1-0.047-0.179-0.11-0.237-0.19s-0.088-0.181-0.088-0.299
		c0-0.112,0.031-0.215,0.094-0.303s0.152-0.155,0.269-0.204C10.904,9.204,11.043,9.18,11.2,9.18c0.127,0,0.236,0.016,0.329,0.048
		c0.093,0.031,0.17,0.073,0.231,0.124c0.06,0.053,0.104,0.106,0.133,0.165c0.028,0.057,0.043,0.112,0.043,0.167
		c0,0.05-0.019,0.095-0.055,0.134c-0.035,0.04-0.078,0.06-0.132,0.06c-0.048,0-0.085-0.011-0.108-0.035
		c-0.024-0.024-0.053-0.062-0.081-0.117c-0.037-0.078-0.082-0.14-0.136-0.183c-0.051-0.043-0.137-0.065-0.252-0.065
		c-0.107,0-0.195,0.023-0.261,0.071c-0.065,0.047-0.101,0.104-0.101,0.17c0,0.042,0.013,0.077,0.035,0.107
		c0.021,0.03,0.053,0.055,0.092,0.077s0.08,0.039,0.118,0.052c0.04,0.012,0.106,0.03,0.201,0.053
		c0.116,0.027,0.222,0.058,0.315,0.09c0.094,0.033,0.175,0.074,0.24,0.12c0.066,0.047,0.118,0.106,0.155,0.178
		s0.056,0.159,0.056,0.264L12.026,10.663z"/>
	<path fill="#F3EED5" d="M13.739,9.542h-0.941v0.507h0.867c0.064,0,0.111,0.014,0.144,0.043c0.031,0.029,0.048,0.065,0.048,0.113
		c0,0.047-0.017,0.085-0.048,0.115c-0.03,0.029-0.077,0.044-0.143,0.044h-0.867v0.588h0.974c0.066,0,0.115,0.014,0.149,0.046
		c0.032,0.03,0.05,0.071,0.05,0.12s-0.018,0.088-0.05,0.121c-0.034,0.03-0.083,0.045-0.149,0.045h-1.135
		c-0.092,0-0.156-0.02-0.197-0.061s-0.061-0.105-0.061-0.195V9.478c0-0.06,0.01-0.109,0.027-0.146
		c0.018-0.038,0.046-0.066,0.084-0.084s0.086-0.026,0.146-0.026h1.103c0.066,0,0.116,0.015,0.148,0.044
		c0.033,0.029,0.048,0.068,0.048,0.116c0,0.049-0.015,0.088-0.048,0.117C13.856,9.527,13.807,9.542,13.739,9.542L13.739,9.542z"/>
	<path fill="#F3EED5" d="M14.562,9.22h0.544c0.141,0,0.264,0.014,0.363,0.04c0.101,0.026,0.193,0.075,0.277,0.147
		c0.214,0.184,0.322,0.463,0.322,0.839c0,0.123-0.011,0.236-0.033,0.339c-0.021,0.103-0.054,0.195-0.099,0.276
		s-0.103,0.157-0.174,0.221c-0.056,0.05-0.116,0.09-0.182,0.118c-0.065,0.029-0.136,0.051-0.211,0.063
		c-0.075,0.012-0.161,0.019-0.256,0.019H14.57c-0.075,0-0.133-0.012-0.172-0.035c-0.038-0.022-0.064-0.055-0.075-0.096
		c-0.012-0.043-0.018-0.098-0.018-0.164V9.476c0-0.09,0.02-0.155,0.061-0.196S14.472,9.219,14.562,9.22L14.562,9.22z M14.723,9.551
		v1.401h0.317c0.069,0,0.124-0.003,0.163-0.008c0.04-0.004,0.08-0.012,0.123-0.027c0.042-0.016,0.078-0.036,0.11-0.064
		c0.14-0.117,0.208-0.322,0.208-0.61c0-0.203-0.029-0.355-0.092-0.457c-0.062-0.102-0.137-0.165-0.227-0.193
		c-0.09-0.027-0.198-0.042-0.327-0.042h-0.274L14.723,9.551z"/>
</g>
</svg>
