<?xml version="1.0" encoding="utf-8"?>
<!-- Generator: Adobe Illustrator 16.0.0, SVG Export Plug-In . SVG Version: 6.00 Build 0)  -->
<!DOCTYPE svg PUBLIC "-//W3C//DTD SVG 1.1//EN" "http://www.w3.org/Graphics/SVG/1.1/DTD/svg11.dtd">
<svg version="1.1" id="Layer_1" xmlns="http://www.w3.org/2000/svg" xmlns:xlink="http://www.w3.org/1999/xlink" x="0px" y="0px"
	 width="20px" height="20px" viewBox="0 0 20 20" enable-background="new 0 0 20 20" xml:space="preserve">
<g>
	<path fill="#357180" d="M19.69,10c0,5.351-4.338,9.69-9.69,9.69S0.31,15.353,0.31,10c0-5.352,4.338-9.69,9.69-9.69
		S19.69,4.647,19.69,10z"/>
	<path fill="#EDC92C" d="M16.033,12.145c0,0.48-0.391,0.871-0.871,0.871H5.146c-0.48,0-0.87-0.391-0.87-0.871v-3.92
		c0-0.48,0.39-0.871,0.87-0.871h10.017c0.48,0,0.871,0.391,0.871,0.871V12.145z"/>
	<path fill="#EDC92C" d="M5.135,12.968c-0.482,0-0.871-0.391-0.871-0.871V6.048c0-0.481,0.391-0.871,0.871-0.871h2.685
		c0.481,0,0.871,0.39,0.871,0.871v6.049c0,0.48-0.391,0.871-0.871,0.871H5.135z"/>
	<path fill="#EDC92C" d="M12.517,9.326c0,0.134-0.107,0.242-0.241,0.242l0,0c-0.134,0-0.241-0.108-0.241-0.242V5.504
		c0-0.134,0.107-0.242,0.241-0.242l0,0c0.134,0,0.241,0.109,0.241,0.242V9.326z"/>
	<path fill="#EDC92C" d="M11.247,6.29c-0.34,0-0.617-0.276-0.617-0.617V5.141c0-0.341,0.277-0.617,0.617-0.617h1.903
		c0.342,0,0.617,0.276,0.617,0.617v0.532c0,0.341-0.275,0.617-0.617,0.617H11.247z"/>
	<path fill="#5ABE8F" d="M11.284,6.134c-0.28,0-0.448-0.229-0.448-0.509V5.188c0-0.28,0.168-0.509,0.448-0.509h1.899
		c0.28,0,0.411,0.229,0.411,0.509v0.438c0,0.28-0.131,0.509-0.411,0.509H11.284z"/>
	<path fill="#239563" d="M13.081,5.107c0,0.031-0.026,0.057-0.058,0.057h-1.665c-0.031,0-0.057-0.025-0.057-0.057l0,0
		c0-0.032,0.025-0.058,0.057-0.058h1.665C13.055,5.05,13.081,5.075,13.081,5.107L13.081,5.107z"/>
	<path fill="#239563" d="M13.081,5.489c0,0.031-0.026,0.058-0.058,0.058h-1.665c-0.031,0-0.057-0.026-0.057-0.058l0,0
		c0-0.031,0.025-0.058,0.057-0.058h1.665C13.055,5.432,13.081,5.458,13.081,5.489L13.081,5.489z"/>
	<path fill="#CDAB2D" d="M16.736,13.554c0,0.537-0.436,0.975-0.975,0.975H4.546c-0.538,0-0.976-0.437-0.976-0.975v-0.76
		c0-0.539,0.437-0.977,0.976-0.977h11.216c0.539,0,0.975,0.438,0.975,0.977V13.554z"/>
	<path fill="#E9C11E" d="M16.736,13.735c0,0.538-0.436,0.976-0.975,0.976H4.546c-0.538,0-0.976-0.437-0.976-0.976v-0.76
		c0-0.537,0.437-0.975,0.976-0.975h11.216c0.539,0,0.975,0.437,0.975,0.975V13.735z"/>
	<path fill="#CDAB2D" d="M4.965,7.487c-0.101,0-0.182-0.08-0.182-0.182l0,0c0-0.1,0.082-0.182,0.182-0.182h2.867
		c0.101,0,0.182,0.082,0.182,0.182l0,0c0,0.102-0.081,0.182-0.182,0.182H4.965z"/>
	<path fill="#DDDACA" d="M5.884,6.468c0,0-0.225-0.465-0.327-0.505C5.527,5.99,5.501,6.019,5.484,6.052
		c-0.327,0.652,0.023,1.07,0.023,1.07h1.779c0,0-0.236-0.46,0.017-0.932L5.884,6.468L5.884,6.468z"/>
	<path fill="#F6F2E4" d="M7.3,5.96C7.07,5.814,5.842,5.715,5.558,5.963C5.66,6.004,5.885,6.468,5.885,6.468h1.778
		C7.663,6.468,7.53,6.104,7.3,5.96z"/>
	<path fill="#C0BFBC" d="M7.394,6.234C7.429,6.271,7.436,6.298,7.41,6.298H6.068c-0.026,0-0.075-0.027-0.109-0.063l0,0
		C5.925,6.2,5.917,6.17,5.943,6.17h1.343C7.311,6.17,7.359,6.199,7.394,6.234L7.394,6.234z"/>
	<path fill="#5ABE8F" d="M11.411,8.59c0,0.102-0.082,0.186-0.186,0.186h-0.588c-0.102,0-0.185-0.083-0.185-0.186V8.001
		c0-0.102,0.083-0.185,0.185-0.185h0.588c0.104,0,0.186,0.083,0.186,0.185V8.59z"/>
	<path fill="#5ABE8F" d="M12.774,8.59c0,0.102-0.082,0.186-0.184,0.186h-0.588c-0.104,0-0.186-0.083-0.186-0.186V8.001
		c0-0.102,0.082-0.185,0.186-0.185h0.588c0.102,0,0.184,0.083,0.184,0.185V8.59z"/>
	<path fill="#5ABE8F" d="M14.152,8.59c0,0.102-0.082,0.186-0.185,0.186H13.38c-0.103,0-0.186-0.083-0.186-0.186V8.001
		c0-0.102,0.083-0.185,0.186-0.185h0.588c0.103,0,0.185,0.083,0.185,0.185V8.59z"/>
	<path fill="#5ABE8F" d="M11.411,9.857c0,0.103-0.082,0.186-0.186,0.186h-0.588c-0.102,0-0.185-0.083-0.185-0.186V9.269
		c0-0.102,0.083-0.185,0.185-0.185h0.588c0.104,0,0.186,0.084,0.186,0.185V9.857z"/>
	<path fill="#5ABE8F" d="M12.774,9.857c0,0.103-0.082,0.186-0.184,0.186h-0.588c-0.104,0-0.186-0.083-0.186-0.186V9.269
		c0-0.102,0.082-0.185,0.186-0.185h0.588c0.102,0,0.184,0.084,0.184,0.185V9.857z"/>
	<path fill="#5ABE8F" d="M14.152,9.857c0,0.103-0.082,0.186-0.185,0.186H13.38c-0.103,0-0.186-0.083-0.186-0.186V9.269
		c0-0.102,0.083-0.185,0.186-0.185h0.588c0.103,0,0.185,0.084,0.185,0.185V9.857z"/>
	<path fill="#5ABE8F" d="M11.411,11.184c0,0.103-0.082,0.187-0.186,0.187h-0.588c-0.102,0-0.185-0.084-0.185-0.187v-0.589
		c0-0.102,0.083-0.185,0.185-0.185h0.588c0.104,0,0.186,0.083,0.186,0.185V11.184z"/>
	<path fill="#5ABE8F" d="M12.774,11.184c0,0.103-0.082,0.187-0.184,0.187h-0.588c-0.104,0-0.186-0.084-0.186-0.187v-0.589
		c0-0.102,0.082-0.185,0.186-0.185h0.588c0.102,0,0.184,0.083,0.184,0.185V11.184z"/>
	<path fill="#5ABE8F" d="M14.152,11.184c0,0.103-0.082,0.187-0.185,0.187H13.38c-0.103,0-0.186-0.084-0.186-0.187v-0.589
		c0-0.102,0.083-0.185,0.186-0.185h0.588c0.103,0,0.185,0.083,0.185,0.185V11.184z"/>
	<path fill="#CDAB2D" d="M10.585,13.416c0,0.24-0.195,0.436-0.437,0.436c-0.24,0-0.436-0.195-0.436-0.436
		c0-0.241,0.195-0.436,0.436-0.436C10.39,12.98,10.585,13.175,10.585,13.416z"/>
	<path fill="#AD9030" d="M10.227,13.416c0,0.15-0.035,0.272-0.079,0.272s-0.08-0.122-0.08-0.272c0-0.151,0.036-0.272,0.08-0.272
		S10.227,13.265,10.227,13.416z"/>
</g>
</svg>
