<?xml version="1.0" encoding="utf-8"?>
<!-- Generator: Adobe Illustrator 16.0.0, SVG Export Plug-In . SVG Version: 6.00 Build 0)  -->
<!DOCTYPE svg PUBLIC "-//W3C//DTD SVG 1.1//EN" "http://www.w3.org/Graphics/SVG/1.1/DTD/svg11.dtd">
<svg version="1.1" id="Layer_1" xmlns="http://www.w3.org/2000/svg" xmlns:xlink="http://www.w3.org/1999/xlink" x="0px" y="0px"
	 width="20px" height="20px" viewBox="0 0 20 20" enable-background="new 0 0 20 20" xml:space="preserve">
<g>
	<path fill="#E84849" d="M19.69,10c0,5.351-4.338,9.69-9.69,9.69S0.31,15.353,0.31,10c0-5.352,4.338-9.69,9.69-9.69
		S19.69,4.647,19.69,10z"/>
	<path fill="#E8E4AA" d="M5.711,7.336h8.792v6.732H5.711V7.336z"/>
	<path fill="#BDB36D" d="M13.032,13.791h-2.406v-3.426c0-0.321,0.264-0.582,0.59-0.582h1.228c0.325,0,0.589,0.261,0.589,0.582
		V13.791z"/>
	<path fill="#CCC375" d="M12.838,13.762h-2.017v-3.306c0-0.269,0.222-0.487,0.493-0.487h1.029c0.273,0,0.494,0.219,0.494,0.487
		V13.762z"/>
	<path fill="#CCC375" d="M8.57,9.783H7.302c-0.336,0-0.609,0.267-0.609,0.596v0.663c0,0.33,0.272,0.596,0.609,0.596h1.268
		c0.337,0,0.609-0.268,0.609-0.596v-0.663C9.179,10.05,8.907,9.783,8.57,9.783z"/>
	<path fill="#A09592" d="M10.116,4.541c-0.025,0-0.05,0-0.074,0c0.022,0.085,0.036,0.173,0.036,0.263
		C10.078,4.713,10.092,4.626,10.116,4.541L10.116,4.541z"/>
	<path fill="#A09592" d="M7.458,4.541c-0.025,0-0.049,0-0.073,0c0.023,0.085,0.037,0.173,0.037,0.263
		C7.422,4.713,7.435,4.626,7.458,4.541z"/>
	<path fill="#A09592" d="M12.772,4.541c-0.024,0-0.047,0-0.073,0c0.022,0.085,0.036,0.173,0.036,0.263
		C12.735,4.713,12.749,4.626,12.772,4.541L12.772,4.541z"/>
	<path fill="#C74A39" d="M7.385,4.541c-0.363,0-0.671,0-0.893,0c-1.334,0-1.728,3.043-1.728,3.043v0.392
		c0,0.63,0.595,1.141,1.328,1.141c0.393,0,0.743-0.146,0.987-0.379c0.212-0.202,0.342-0.469,0.342-0.762V4.804
		C7.422,4.713,7.408,4.626,7.385,4.541z"/>
	<path fill="#D5C7C3" d="M10.042,4.541c-0.929,0-1.859,0-2.584,0C7.435,4.626,7.422,4.714,7.422,4.804v3.172
		c0,0.293,0.13,0.56,0.341,0.762C8.007,8.97,8.357,9.116,8.75,9.116S9.493,8.97,9.737,8.737c0.211-0.202,0.341-0.469,0.341-0.762
		V4.804C10.078,4.713,10.064,4.626,10.042,4.541z"/>
	<path fill="#C74A39" d="M12.699,4.541c-0.706,0-1.641,0-2.583,0c-0.023,0.085-0.037,0.173-0.037,0.263v3.172
		c0,0.293,0.13,0.56,0.342,0.762c0.243,0.232,0.596,0.379,0.987,0.379c0.393,0,0.742-0.146,0.987-0.379
		c0.211-0.202,0.342-0.469,0.342-0.762V4.804c0-0.091-0.014-0.178-0.036-0.263H12.699z"/>
	<path fill="#D5C7C3" d="M15.394,7.157c-0.24-0.838-0.867-2.616-1.877-2.616c-0.19,0-0.445,0-0.744,0
		c-0.022,0.085-0.036,0.173-0.036,0.263v3.172c0,0.293,0.13,0.56,0.341,0.762c0.244,0.232,0.595,0.379,0.987,0.379
		c0.692,0,1.26-0.454,1.323-1.034C15.46,7.931,15.467,7.414,15.394,7.157L15.394,7.157z"/>
	<path fill="#DCD99D" d="M15.926,14.339c0,0.331-0.269,0.599-0.599,0.599H5.007c-0.331,0-0.599-0.268-0.599-0.599l0,0
		c0-0.331,0.268-0.599,0.599-0.599h10.32C15.657,13.74,15.927,14.008,15.926,14.339L15.926,14.339L15.926,14.339z"/>
</g>
</svg>
