<?xml version="1.0" encoding="utf-8"?>
<!-- Generator: Adobe Illustrator 16.0.0, SVG Export Plug-In . SVG Version: 6.00 Build 0)  -->
<!DOCTYPE svg PUBLIC "-//W3C//DTD SVG 1.1//EN" "http://www.w3.org/Graphics/SVG/1.1/DTD/svg11.dtd">
<svg version="1.1" id="Layer_1" xmlns="http://www.w3.org/2000/svg" xmlns:xlink="http://www.w3.org/1999/xlink" x="0px" y="0px"
	 width="20px" height="20px" viewBox="0 0 20 20" enable-background="new 0 0 20 20" xml:space="preserve">
<g>
	<path fill="#EB9682" d="M19.69,10c0,5.351-4.338,9.69-9.69,9.69S0.31,15.353,0.31,10c0-5.352,4.338-9.69,9.69-9.69
		S19.69,4.647,19.69,10z"/>
	<path fill="#255860" d="M16.076,4.949c0,0.841-0.354,1.521-1.711,1.521s-2.74-1.014-2.74-1.521c0-0.595,1.384-1.522,2.74-1.522
		S16.076,4.108,16.076,4.949z"/>
	<path fill="#1C4C51" d="M16.076,4.949c0,0.841-0.354,1.521-1.711,1.521s-2.74-1.014-2.74-1.521c0-0.595,4.449-0.841,4.449,0H16.076
		z"/>
	<path fill="#A2D1C9" d="M15.066,11.935c0,2.562-2.494,4.637-5.571,4.637c-3.076,0-5.571-2.076-5.571-4.637
		c0-2.562,2.495-4.638,5.571-4.638C12.572,7.297,15.066,9.374,15.066,11.935z"/>
	<path fill="#B2B2B2" d="M10.502,6.467V5.008c0-0.481-0.391-1.363-0.872-1.363H9.23c-0.481,0-0.872,0.882-0.872,1.363v1.459
		c-0.515,0.26-0.869,0.792-0.869,1.409v4.277c0,0.87,0.707,1.578,1.579,1.578h0.723c0.872,0,1.579-0.708,1.579-1.578V7.876
		C11.37,7.259,11.017,6.727,10.502,6.467L10.502,6.467z"/>
	<path fill="#C3C3C3" d="M9.408,3.645H9.23c-0.481,0-0.872,0.882-0.872,1.363v1.459c-0.515,0.26-0.869,0.792-0.869,1.409v4.277
		c0,0.87,0.707,1.578,1.579,1.578h0.34V3.645L9.408,3.645z"/>
	<path fill="#B2B2B2" d="M11.756,4.558H7.757c-0.216,0-0.392,0.175-0.392,0.392c0,0.216,0.175,0.391,0.392,0.391h3.999
		c0.216,0,0.233-0.175,0.233-0.391C11.989,4.732,11.973,4.558,11.756,4.558z"/>
	<path fill="#CAE8E4" d="M14.857,11.935c0,2.465-2.4,4.463-5.362,4.463s-5.362-1.998-5.362-4.463c0-2.466,2.4-4.464,5.362-4.464
		S14.857,9.469,14.857,11.935z"/>
	<path fill="#BAE2DD" d="M9.495,16.397c-2.961,0-5.362-1.998-5.362-4.463c0-2.466,2.4-4.464,5.362-4.464S12.457,16.397,9.495,16.397
		z"/>
	<path fill="#6BA297" d="M14.536,11.938c0,2.316-2.258,4.195-5.04,4.195s-5.039-1.877-5.039-4.195H14.536L14.536,11.938z"/>
	<path fill="#CAE8E4" d="M5.66,11.272c-0.469-0.469,0.046-1.767,0.515-2.234c0.469-0.469,1.604-0.914,2.071-0.445
		S6.129,11.742,5.66,11.272z"/>
	<path fill="#C3C3C3" d="M7.757,4.558c-0.132,0-0.248,0.066-0.318,0.166C7.491,4.777,7.526,4.85,7.526,4.933
		c0,0.088-0.04,0.166-0.102,0.221C7.492,5.266,7.616,5.34,7.757,5.34h1.651V4.558H7.757z"/>
	<path fill="#888888" d="M7.526,4.933c0-0.082-0.035-0.155-0.088-0.209C7.415,4.758,7.396,4.795,7.384,4.835
		c0.031,0.021,0.052,0.059,0.052,0.101c0,0.044-0.023,0.083-0.059,0.104c0.009,0.041,0.025,0.078,0.048,0.113
		C7.486,5.099,7.526,5.021,7.526,4.933z"/>
</g>
</svg>
