<?xml version="1.0" encoding="utf-8"?>
<!-- Generator: Adobe Illustrator 16.0.0, SVG Export Plug-In . SVG Version: 6.00 Build 0)  -->
<!DOCTYPE svg PUBLIC "-//W3C//DTD SVG 1.1//EN" "http://www.w3.org/Graphics/SVG/1.1/DTD/svg11.dtd">
<svg version="1.1" id="Layer_1" xmlns="http://www.w3.org/2000/svg" xmlns:xlink="http://www.w3.org/1999/xlink" x="0px" y="0px"
	 width="20px" height="20px" viewBox="0 0 20 20" enable-background="new 0 0 20 20" xml:space="preserve">
<g>
	<path fill="#E84849" d="M19.69,10c0,5.351-4.338,9.69-9.69,9.69S0.31,15.353,0.31,10c0-5.352,4.338-9.69,9.69-9.69
		S19.69,4.647,19.69,10z"/>
	<path fill="#EDC92C" d="M16.639,10.812c-0.309-0.159-3.298-1.887-5.87-3.38c0.184-0.788,1.329-0.699,1.329-1.979
		c0-0.88-0.597-1.473-1.589-1.473c-1.069,0-1.604,0.74-1.604,1.324c0,0.617,0.667,0.593,0.675,0.576
		c0.057-0.469,0.323-0.945,0.914-0.945c0.416,0,0.655,0.229,0.655,0.6c0,0.696-1.188,0.495-1.224,1.852
		c-2.588,1.501-5.639,3.266-5.95,3.427c-0.566,0.293-1.061,0.971-0.909,1.597c0.107,0.442,0.555,0.97,2.072,0.97h10.339
		c1.517,0,1.963-0.527,2.071-0.97c0.153-0.627-0.343-1.304-0.909-1.597L16.639,10.812z M16.779,12.222
		c-0.041,0.168-0.406,0.364-1.302,0.364H5.139c-0.897,0-1.263-0.196-1.304-0.364c-0.047-0.193,0.212-0.559,0.504-0.709
		c0.422-0.219,5.001-2.875,5.97-3.437c0.969,0.562,5.547,3.218,5.97,3.435c0.293,0.151,0.551,0.516,0.503,0.71L16.779,12.222z"/>
</g>
</svg>
