<?xml version="1.0" encoding="utf-8"?>
<!-- Generator: Adobe Illustrator 16.0.0, SVG Export Plug-In . SVG Version: 6.00 Build 0)  -->
<!DOCTYPE svg PUBLIC "-//W3C//DTD SVG 1.1//EN" "http://www.w3.org/Graphics/SVG/1.1/DTD/svg11.dtd">
<svg version="1.1" id="Layer_1" xmlns="http://www.w3.org/2000/svg" xmlns:xlink="http://www.w3.org/1999/xlink" x="0px" y="0px"
	 width="20px" height="20px" viewBox="0 0 20 20" enable-background="new 0 0 20 20" xml:space="preserve">
<g>
	<path fill="#357180" d="M19.69,10c0,5.351-4.338,9.69-9.69,9.69S0.31,15.353,0.31,10c0-5.352,4.338-9.69,9.69-9.69
		S19.69,4.647,19.69,10z"/>
	<path fill="#E84849" d="M15.891,11.885c0,0.507-1.062,0.918-1.568,0.918L11.11,12.79V7.932c0-0.507,0.486-0.918,0.993-0.918h2.219
		c0.507,0,0.918,0.411,0.918,0.918L15.891,11.885z"/>
	<path fill="#9DDAEC" d="M14.857,9.6l-3.066-0.011V8.046c0-0.394,0.149-0.499,0.542-0.499h1.797c0.395,0,0.498,0.155,0.529,0.499
		L14.857,9.6z"/>
	<path fill="#D5D6D5" d="M11.224,12.803H4.576c-0.639,0-1.155-0.517-1.155-1.155V6.945c0-0.639,0.517-0.85,1.155-0.85h5.491
		c0.639,0,1.156,0.211,1.156,0.85V12.803z"/>
	<path fill="#CECBCB" d="M11.224,12.803H4.576c-0.639,0-1.155-0.517-1.155-1.155V7.229c0-0.638,7.803-0.638,7.803,0V12.803z"/>
	<path fill="#E84849" d="M16.579,12.124c0,0.376-0.305,0.679-0.681,0.679h-3.23c-0.376,0-0.681-0.305-0.681-0.679v-1.82
		c0-0.376,0.305-0.68,0.681-0.68h3.23c0.376,0,0.681,0.305,0.681,0.68V12.124z"/>
	<path fill="#CECBCB" d="M17.191,12.674c0,0.198-0.16,0.36-0.358,0.36H3.475c-0.198,0-0.359-0.16-0.359-0.36v-0.452
		c0-0.197,0.16-0.359,0.359-0.359h13.358c0.198,0,0.359,0.162,0.359,0.359L17.191,12.674L17.191,12.674z"/>
	<path fill="#E84849" d="M15.51,12.674c0,0.198-0.161,0.36-0.359,0.36H3.473c-0.197,0-0.358-0.16-0.358-0.36v-0.526
		c0-0.197,0.16-0.358,0.358-0.358H15.15c0.198,0,0.359,0.159,0.359,0.358V12.674z"/>
	<path fill="#202121" d="M15.394,13.485c0,0.832-0.675,1.505-1.507,1.505s-1.507-0.673-1.507-1.505c0-0.833,0.675-1.506,1.507-1.506
		S15.394,12.652,15.394,13.485z"/>
	<path fill="#5E5F5E" d="M14.782,13.485c0,0.494-0.4,0.896-0.896,0.896s-0.896-0.402-0.896-0.896c0-0.496,0.4-0.897,0.896-0.897
		S14.782,12.989,14.782,13.485z"/>
	<path fill="#A19F9F" d="M14.222,13.485c0,0.185-0.149,0.334-0.335,0.334s-0.335-0.149-0.335-0.334c0-0.186,0.149-0.336,0.335-0.336
		S14.222,13.3,14.222,13.485z"/>
	<path fill="#202121" d="M8.201,13.485c0,0.832-0.674,1.505-1.507,1.505c-0.832,0-1.506-0.673-1.506-1.505
		c0-0.833,0.674-1.506,1.506-1.506C7.527,11.979,8.201,12.652,8.201,13.485z"/>
	<path fill="#5E5F5E" d="M7.592,13.485c0,0.493-0.401,0.896-0.897,0.896c-0.494,0-0.896-0.402-0.896-0.896
		c0-0.496,0.401-0.897,0.896-0.897C7.19,12.588,7.592,12.989,7.592,13.485z"/>
	<path fill="#A19F9F" d="M7.03,13.485c0,0.185-0.15,0.334-0.336,0.334c-0.185,0-0.334-0.149-0.334-0.334
		c0-0.186,0.149-0.336,0.334-0.336C6.88,13.149,7.03,13.3,7.03,13.485z"/>
	<path fill="#E13B3B" d="M13.864,12.407c0.518,0,1.139,0.305,1.408,0.752h0.844c-0.281-1.03-1.183-1.785-2.252-1.785
		c-1.07,0-1.973,0.755-2.253,1.785h0.844C12.726,12.712,13.347,12.407,13.864,12.407z"/>
	<path fill="#E13B3B" d="M6.724,12.407c0.519,0,1.093,0.305,1.353,0.752h0.899c-0.281-1.03-1.183-1.785-2.252-1.785
		c-1.07,0-1.973,0.755-2.253,1.785h0.9C5.631,12.712,6.205,12.407,6.724,12.407z"/>
</g>
</svg>
