<?xml version="1.0" encoding="utf-8"?>
<!-- Generator: Adobe Illustrator 16.0.0, SVG Export Plug-In . SVG Version: 6.00 Build 0)  -->
<!DOCTYPE svg PUBLIC "-//W3C//DTD SVG 1.1//EN" "http://www.w3.org/Graphics/SVG/1.1/DTD/svg11.dtd">
<svg version="1.1" id="Layer_1" xmlns="http://www.w3.org/2000/svg" xmlns:xlink="http://www.w3.org/1999/xlink" x="0px" y="0px"
	 width="20px" height="20px" viewBox="0 0 20 20" enable-background="new 0 0 20 20" xml:space="preserve">
<g>
	<path fill="#EB9682" d="M19.69,10c0,5.351-4.338,9.69-9.69,9.69S0.31,15.353,0.31,10c0-5.352,4.338-9.69,9.69-9.69
		S19.69,4.647,19.69,10z"/>
	<path fill="#CBBD7D" d="M17.614,9.963c0,0.321-0.228,0.581-0.509,0.581h-2.63c-0.28,0-0.508-0.26-0.508-0.581l0,0
		c0-0.321,0.227-0.581,0.508-0.581h2.63C17.387,9.382,17.614,9.643,17.614,9.963L17.614,9.963z"/>
	<path fill="#C84027" d="M16.481,9.851c0-0.421-2.406-3.03-3.271-3.03H4.72c-0.865,0-1.306,0.493-1.306,1.357v3.393
		c0,0.864,0.44,1.305,1.306,1.305h8.49C14.075,12.875,16.481,10.271,16.481,9.851L16.481,9.851z M13.47,9.962
		c0-0.336,0.272-0.609,0.609-0.609s0.609,0.272,0.609,0.609c0,0.336-0.272,0.609-0.609,0.609S13.47,10.299,13.47,9.962z"/>
	<path fill="#DD5231" d="M16.387,9.734c0-0.337-2.34-2.929-3.185-2.929H4.865c-0.844,0-1.273,0.43-1.273,1.272v3.312
		c0,0.843,0.431,1.273,1.273,1.273h8.337C14.046,12.663,16.387,10.069,16.387,9.734z M13.456,9.82c0-0.329,0.267-0.596,0.595-0.596
		s0.595,0.267,0.595,0.596c0,0.327-0.267,0.594-0.595,0.594S13.456,10.148,13.456,9.82z"/>
	<path fill="#CC4028" d="M14.583,9.56c0.039,0.078,0.062,0.166,0.062,0.261c0,0.327-0.267,0.594-0.595,0.594
		s-0.595-0.266-0.595-0.594c0-0.107,0.031-0.206,0.08-0.292c-3.771-0.09-9.945-0.052-9.945-0.052v1.914
		c0,0.843,0.431,1.273,1.273,1.273h8.338c0.843,0,3.183-2.593,3.183-2.929C16.385,9.655,15.673,9.599,14.583,9.56z"/>
	<path fill="#FFF5F4" d="M6.54,10.164c0,0.122-0.031,0.232-0.094,0.331c-0.063,0.098-0.156,0.174-0.278,0.229
		c-0.122,0.057-0.266,0.084-0.433,0.084c-0.2,0-0.365-0.039-0.496-0.113c-0.092-0.055-0.167-0.128-0.226-0.218
		c-0.059-0.091-0.086-0.18-0.086-0.267c0-0.049,0.018-0.092,0.053-0.127c0.034-0.036,0.078-0.054,0.132-0.054
		c0.044,0,0.08,0.014,0.11,0.042c0.029,0.028,0.056,0.068,0.076,0.123c0.026,0.064,0.054,0.118,0.083,0.162
		c0.031,0.044,0.073,0.08,0.127,0.106c0.055,0.029,0.126,0.043,0.215,0.043c0.122,0,0.221-0.028,0.298-0.085
		c0.076-0.057,0.113-0.128,0.113-0.213c0-0.067-0.02-0.122-0.062-0.164S5.979,9.97,5.914,9.947C5.85,9.926,5.763,9.902,5.653,9.876
		C5.507,9.843,5.386,9.802,5.287,9.757S5.111,9.649,5.054,9.57C4.996,9.492,4.967,9.394,4.967,9.276c0-0.11,0.03-0.212,0.091-0.297
		c0.061-0.086,0.149-0.153,0.266-0.2c0.114-0.047,0.251-0.07,0.405-0.07c0.125,0,0.232,0.016,0.324,0.047
		c0.091,0.031,0.166,0.071,0.226,0.123C6.338,8.93,6.382,8.984,6.41,9.04c0.028,0.055,0.042,0.11,0.042,0.164
		c0,0.049-0.018,0.094-0.051,0.132c-0.034,0.039-0.079,0.059-0.13,0.059c-0.048,0-0.083-0.011-0.107-0.035
		C6.141,9.335,6.113,9.298,6.085,9.243c-0.037-0.076-0.082-0.137-0.134-0.18C5.9,9.021,5.816,9,5.703,9
		C5.597,9,5.511,9.023,5.446,9.07C5.381,9.117,5.348,9.174,5.348,9.237c0,0.041,0.012,0.075,0.033,0.106
		c0.022,0.03,0.053,0.054,0.091,0.076C5.511,9.44,5.551,9.457,5.591,9.469s0.105,0.029,0.196,0.054
		C5.901,9.549,6.005,9.578,6.099,9.61c0.093,0.032,0.172,0.071,0.236,0.118c0.064,0.046,0.116,0.104,0.151,0.175
		C6.522,9.975,6.541,10.061,6.54,10.164L6.54,10.164z"/>
	<path fill="#FFF5F4" d="M8.187,10.544l-0.098-0.256H7.265l-0.098,0.26c-0.038,0.103-0.07,0.17-0.097,0.207
		c-0.028,0.034-0.072,0.053-0.132,0.053c-0.052,0-0.098-0.02-0.138-0.058c-0.039-0.036-0.06-0.079-0.06-0.126
		c0-0.029,0.005-0.058,0.014-0.086c0.009-0.03,0.023-0.071,0.046-0.124l0.52-1.317c0.015-0.038,0.032-0.084,0.054-0.138
		c0.02-0.053,0.043-0.097,0.066-0.132s0.055-0.063,0.092-0.086C7.57,8.72,7.618,8.709,7.675,8.709c0.058,0,0.104,0.011,0.144,0.032
		c0.039,0.022,0.069,0.05,0.092,0.084c0.023,0.035,0.043,0.07,0.06,0.11c0.018,0.039,0.037,0.092,0.062,0.156l0.529,1.31
		c0.042,0.1,0.062,0.172,0.062,0.218c0,0.048-0.02,0.09-0.059,0.13s-0.087,0.059-0.142,0.059c-0.033,0-0.061-0.004-0.083-0.018
		c-0.023-0.012-0.042-0.027-0.059-0.047s-0.032-0.05-0.051-0.091C8.214,10.611,8.198,10.574,8.187,10.544L8.187,10.544z
		 M7.374,9.979h0.605L7.674,9.143L7.374,9.979z"/>
	<path fill="#FFF5F4" d="M9.331,8.958v1.478h0.833c0.066,0,0.117,0.016,0.153,0.048c0.035,0.033,0.053,0.072,0.053,0.122
		s-0.018,0.09-0.052,0.12c-0.035,0.033-0.086,0.048-0.154,0.048H9.172c-0.09,0-0.154-0.019-0.194-0.06
		c-0.039-0.039-0.059-0.104-0.059-0.192V8.958c0-0.083,0.019-0.146,0.056-0.186C9.013,8.731,9.061,8.71,9.123,8.71
		c0.062,0,0.111,0.021,0.149,0.062C9.31,8.813,9.33,8.875,9.331,8.958L9.331,8.958z"/>
	<path fill="#FFF5F4" d="M11.977,9.061h-0.926V9.56h0.853c0.062,0,0.109,0.013,0.141,0.042c0.029,0.027,0.047,0.064,0.047,0.11
		s-0.016,0.084-0.046,0.113c-0.031,0.029-0.078,0.044-0.142,0.044h-0.853v0.576h0.958c0.064,0,0.113,0.016,0.146,0.045
		c0.033,0.03,0.049,0.071,0.049,0.12c0,0.048-0.016,0.087-0.049,0.117c-0.033,0.031-0.082,0.045-0.146,0.045h-1.117
		c-0.088,0-0.153-0.021-0.192-0.059c-0.039-0.041-0.06-0.104-0.06-0.193V8.995c0-0.06,0.01-0.107,0.025-0.145
		c0.018-0.038,0.047-0.065,0.082-0.082c0.037-0.017,0.085-0.025,0.145-0.025h1.085c0.065,0,0.114,0.015,0.146,0.044
		c0.031,0.03,0.048,0.067,0.048,0.114c0,0.049-0.015,0.086-0.048,0.116C12.09,9.048,12.041,9.062,11.977,9.061L11.977,9.061z"/>
	<path fill="#DFD48A" d="M17.614,10.083c0,0.281-0.229,0.51-0.51,0.51h-2.644c-0.281,0-0.509-0.229-0.509-0.51l0,0
		c0-0.282,0.229-0.511,0.509-0.511h2.643C17.385,9.572,17.614,9.801,17.614,10.083L17.614,10.083z"/>
</g>
</svg>
