<?xml version="1.0" encoding="utf-8"?>
<!-- Generator: Adobe Illustrator 16.0.0, SVG Export Plug-In . SVG Version: 6.00 Build 0)  -->
<!DOCTYPE svg PUBLIC "-//W3C//DTD SVG 1.1//EN" "http://www.w3.org/Graphics/SVG/1.1/DTD/svg11.dtd">
<svg version="1.1" id="Layer_1" xmlns="http://www.w3.org/2000/svg" xmlns:xlink="http://www.w3.org/1999/xlink" x="0px" y="0px"
	 width="20px" height="20px" viewBox="0 0 20 20" enable-background="new 0 0 20 20" xml:space="preserve">
<g>
	<path fill="#49A0AE" d="M19.69,10c0,5.351-4.338,9.69-9.69,9.69S0.31,15.353,0.31,10c0-5.352,4.338-9.69,9.69-9.69
		S19.69,4.647,19.69,10z"/>
	<path fill="#565453" d="M13.032,9.799c-0.844,0.281-3.007,3.651-4.343,3.879c-1.251,0.215-4.707,0.587-5.714-1.077
		c0,0-0.305-0.564,0.656-0.892l2.65-0.866c0,0,0.703,0.912,2.038,0.256c0,0,2.556-1.898,3.33-2.93
		C11.65,8.169,13.877,9.518,13.032,9.799L13.032,9.799z"/>
	<path fill="#D73D3D" d="M7.794,10.371c0,0,0.762-0.092,1.723-0.889c0.961-0.796,2.859-2.509,5.72-4.899l-1.724,3.991l-6.464,3.423
		l-0.767-1.273C6.282,10.724,7.086,10.544,7.794,10.371z"/>
	<path fill="#565453" d="M14.083,13.386h0.408v0.223h-0.408V13.386z"/>
	<path fill="#E84849" d="M15.236,4.583c0,0,2.086,1.898,0.094,5.04c0,0-0.656,0.915-0.726,1.642l-0.109,2.17l-0.41-0.002
		l-0.137-2.496c0,0-0.095-1.383-0.938-1.102c-0.845,0.282-2.984,3.5-4.319,3.727c-1.251,0.215-4.707,0.587-5.714-1.077
		c0,0-0.305-0.563,0.656-0.892l2.65-0.867c0,0,0.8,1.084,2.038,0.258c2.381-1.587,5.04-4.13,5.824-5.068
		C14.146,5.915,14.7,5.284,15.236,4.583L15.236,4.583z"/>
</g>
</svg>
