<?xml version="1.0" encoding="utf-8"?>
<!-- Generator: Adobe Illustrator 16.0.0, SVG Export Plug-In . SVG Version: 6.00 Build 0)  -->
<!DOCTYPE svg PUBLIC "-//W3C//DTD SVG 1.1//EN" "http://www.w3.org/Graphics/SVG/1.1/DTD/svg11.dtd">
<svg version="1.1" id="Layer_1" xmlns="http://www.w3.org/2000/svg" xmlns:xlink="http://www.w3.org/1999/xlink" x="0px" y="0px"
	 width="20px" height="20px" viewBox="0 0 20 20" enable-background="new 0 0 20 20" xml:space="preserve">
<g>
	<path fill="#FFCE00" d="M19.69,10c0,5.351-4.338,9.69-9.69,9.69S0.31,15.353,0.31,10c0-5.352,4.338-9.69,9.69-9.69
		S19.69,4.647,19.69,10z"/>
	<path fill="#525252" d="M15.624,13.58c0,0.657-0.153,0.645-0.842,0.645H5.488c-0.688,0-1.248-0.532-1.248-1.19V7.445
		c0-0.657,0.559-1.19,1.248-1.19h9.227c0.688,0,0.909,0.236,0.909,0.894V13.58z"/>
	<path fill="#444545" d="M15.381,13.382c0,0.658-0.188,0.646-0.849,0.646H5.677c-0.659,0-1.194-0.533-1.194-1.19V7.752
		c0-0.657,0.535-1.19,1.194-1.19h8.934c0.659,0,0.771,0.302,0.771,0.959V13.382z"/>
	<path fill="#63BD6E" d="M7.104,6.134l7.837,1.046l-0.451,3.392L6.652,9.525L7.104,6.134z"/>
	<path fill="#117F4A" d="M14.377,10.397l-7.57-1.009l0.41-3.082l7.572,1.01L14.377,10.397L14.377,10.397z M14.711,7.387L7.272,6.396
		L6.884,9.318l7.438,0.991L14.711,7.387z"/>
	<path fill="#117F4A" d="M12.146,8.352c0,0.746-0.603,1.35-1.35,1.35c-0.745,0-1.349-0.604-1.349-1.35
		c0-0.745,0.604-1.349,1.349-1.349C11.544,7.003,12.146,7.606,12.146,8.352z"/>
	<path fill="#63BD6E" d="M10.613,9.466l0.029-0.22c-0.091-0.025-0.161-0.06-0.213-0.104c-0.051-0.044-0.094-0.106-0.124-0.19
		c-0.031-0.084-0.043-0.185-0.035-0.3l0.188-0.016c-0.002,0.118,0.012,0.208,0.041,0.271c0.042,0.085,0.097,0.136,0.169,0.154
		l0.092-0.699c-0.073-0.025-0.146-0.071-0.217-0.136c-0.055-0.046-0.091-0.105-0.113-0.18c-0.021-0.072-0.027-0.153-0.016-0.242
		c0.021-0.157,0.084-0.277,0.189-0.361c0.07-0.057,0.168-0.085,0.291-0.083l0.014-0.104l0.107,0.015l-0.015,0.105
		c0.104,0.026,0.183,0.075,0.237,0.145c0.07,0.091,0.104,0.208,0.102,0.349l-0.193,0.008c0.002-0.088-0.013-0.157-0.041-0.207
		c-0.029-0.051-0.071-0.087-0.129-0.11l-0.084,0.635c0.088,0.038,0.146,0.068,0.174,0.089c0.053,0.037,0.094,0.08,0.125,0.129
		c0.028,0.048,0.049,0.103,0.061,0.164s0.013,0.126,0.005,0.195c-0.021,0.152-0.078,0.274-0.172,0.365
		c-0.095,0.092-0.206,0.131-0.335,0.121l-0.029,0.222L10.613,9.466L10.613,9.466z M10.871,7.542
		c-0.074,0.004-0.133,0.031-0.182,0.081c-0.05,0.051-0.078,0.113-0.087,0.189c-0.01,0.074-0.001,0.14,0.027,0.195
		c0.027,0.056,0.082,0.104,0.16,0.145L10.871,7.542L10.871,7.542z M10.776,9.075c0.072-0.001,0.136-0.029,0.19-0.088
		c0.056-0.059,0.088-0.133,0.101-0.226c0.012-0.08,0.004-0.147-0.022-0.199s-0.086-0.104-0.179-0.156L10.776,9.075z"/>
	<path fill="#63BD6E" d="M5.622,7.686l7.199-3.27l1.414,3.115l-7.199,3.271L5.622,7.686z"/>
	<path fill="#117F4A" d="M14.05,7.444l-6.956,3.158L5.809,7.771l6.956-3.157L14.05,7.444L14.05,7.444z M12.736,4.716L5.903,7.817
		l1.219,2.685L13.954,7.4L12.736,4.716z"/>
	<path fill="#117F4A" d="M11.28,7.607c0,0.745-0.605,1.35-1.351,1.35s-1.35-0.604-1.35-1.35s0.604-1.35,1.35-1.35
		S11.28,6.862,11.28,7.607z"/>
	<path fill="#63BD6E" d="M10.363,8.649l-0.093-0.202c-0.09,0.026-0.168,0.034-0.235,0.025c-0.066-0.01-0.136-0.041-0.207-0.096
		S9.694,8.244,9.64,8.142l0.151-0.112c0.062,0.101,0.121,0.17,0.178,0.207c0.079,0.05,0.153,0.064,0.224,0.041L9.9,7.636
		c-0.075,0.015-0.161,0.015-0.257,0c-0.07-0.011-0.133-0.042-0.19-0.093S9.349,7.427,9.312,7.346
		C9.247,7.202,9.236,7.066,9.279,6.94c0.03-0.086,0.099-0.161,0.203-0.226L9.438,6.618l0.1-0.045L9.582,6.67
		C9.685,6.639,9.778,6.638,9.86,6.668c0.106,0.04,0.198,0.12,0.271,0.242L9.972,7.02C9.926,6.945,9.877,6.895,9.826,6.865
		C9.774,6.837,9.72,6.829,9.658,6.841l0.265,0.583c0.096-0.014,0.161-0.02,0.196-0.017c0.064,0.004,0.122,0.018,0.173,0.044
		c0.05,0.025,0.097,0.061,0.139,0.106c0.043,0.046,0.078,0.101,0.107,0.163c0.063,0.141,0.079,0.274,0.047,0.401
		c-0.033,0.127-0.104,0.22-0.22,0.279l0.093,0.204l-0.1,0.045L10.363,8.649z M9.562,6.883C9.501,6.924,9.465,6.98,9.45,7.048
		C9.436,7.116,9.443,7.185,9.476,7.254c0.031,0.069,0.073,0.12,0.127,0.152c0.053,0.032,0.124,0.045,0.212,0.037L9.562,6.883
		L9.562,6.883z M10.294,8.232c0.061-0.038,0.1-0.098,0.115-0.176s0.004-0.16-0.035-0.245c-0.033-0.074-0.073-0.126-0.124-0.157
		c-0.051-0.029-0.129-0.043-0.235-0.037L10.294,8.232z"/>
	<path fill="#616161" d="M15.104,14.126c0,0.658-0.261,0.845-0.918,0.845H4.91c-0.657,0-0.67-0.062-0.67-0.72V7.513
		c0,0,0.007-0.161,0.016-0.262c0.018-0.226,0.184-0.449,0.184-0.449s0.1,0.413,0.38,0.529c0.44,0.181,0.781,0.165,0.781,0.165h8.586
		c0.657,0,0.918,0.086,0.918,0.743V14.126L15.104,14.126z"/>
	<path fill="#717171" d="M5.026,7.947L5.026,7.947H4.414c-0.085,0-0.152-0.068-0.152-0.153s0.067-0.152,0.152-0.152l0,0h0.612
		c0.085,0,0.153,0.067,0.153,0.152S5.111,7.947,5.026,7.947z"/>
	<path fill="#717171" d="M13.963,14.786h-0.302c-0.085,0-0.152-0.068-0.152-0.153c0-0.084,0.067-0.153,0.152-0.153h0.302
		c0.511,0,0.595-0.045,0.64-0.207c0.021-0.082,0.104-0.131,0.187-0.107c0.083,0.022,0.13,0.104,0.107,0.187
		C14.78,14.787,14.384,14.787,13.963,14.786L13.963,14.786z M12.429,14.786h-1.232c-0.086,0-0.153-0.068-0.153-0.153
		c0-0.084,0.067-0.153,0.153-0.153h1.232c0.084,0,0.152,0.069,0.152,0.153C12.581,14.718,12.513,14.786,12.429,14.786z
		 M9.963,14.786H8.731c-0.085,0-0.153-0.068-0.153-0.153c0-0.084,0.068-0.153,0.153-0.153h1.231c0.085,0,0.153,0.069,0.153,0.153
		C10.116,14.718,10.048,14.786,9.963,14.786z M7.498,14.786H6.266c-0.085,0-0.152-0.068-0.152-0.153
		c0-0.084,0.067-0.153,0.152-0.153h1.232c0.085,0,0.152,0.069,0.152,0.153C7.65,14.718,7.583,14.786,7.498,14.786z M14.782,13.234
		c-0.086,0-0.153-0.067-0.153-0.153v-1.232c0-0.084,0.067-0.152,0.153-0.152c0.084,0,0.152,0.068,0.152,0.152v1.232
		C14.935,13.167,14.866,13.234,14.782,13.234z M14.782,10.769c-0.086,0-0.153-0.067-0.153-0.152V9.385
		c0-0.085,0.067-0.153,0.153-0.153c0.084,0,0.152,0.068,0.152,0.153v1.231C14.935,10.701,14.866,10.769,14.782,10.769z
		 M14.735,8.308c-0.065,0-0.127-0.042-0.146-0.106c-0.044-0.137-0.117-0.251-0.592-0.251h-0.342c-0.085,0-0.153-0.068-0.153-0.153
		c0-0.084,0.068-0.152,0.153-0.152l0,0h0.342c0.382,0,0.754,0.057,0.884,0.465c0.026,0.08-0.019,0.166-0.099,0.191
		C14.768,8.306,14.751,8.308,14.735,8.308L14.735,8.308z M12.423,7.95L12.423,7.95l-1.234-0.001c-0.084,0-0.152-0.068-0.152-0.153
		c0-0.084,0.068-0.152,0.152-0.152l0,0l1.234,0.001c0.084,0,0.152,0.068,0.152,0.152C12.575,7.882,12.507,7.95,12.423,7.95z
		 M9.957,7.949L9.957,7.949L8.724,7.948c-0.085,0-0.153-0.068-0.153-0.153s0.068-0.152,0.153-0.152l0,0l1.233,0.001
		c0.085,0,0.152,0.069,0.152,0.152C10.109,7.88,10.042,7.949,9.957,7.949z M7.491,7.948L7.491,7.948H6.258
		c-0.084,0-0.152-0.069-0.152-0.153c0-0.083,0.068-0.152,0.152-0.152l0,0h1.233c0.085,0,0.153,0.067,0.153,0.152
		S7.576,7.948,7.491,7.948z"/>
	<path fill="#717171" d="M5.026,14.786H4.414c-0.085,0-0.152-0.068-0.152-0.153c0-0.084,0.067-0.153,0.152-0.153h0.612
		c0.085,0,0.153,0.069,0.153,0.153C5.18,14.718,5.111,14.786,5.026,14.786z"/>
	<path fill="#616161" d="M14.517,13.836c0,0.558-0.196,0.599-0.768,0.599H4.256V7.976l9.522,0.004c0.572,0,0.736,0.158,0.736,0.715
		v5.142H14.517z"/>
	<path fill="#727172" d="M15.645,11.488h-2.976c-0.192,0-0.551-0.345-0.551-1.04c0-0.696,0.358-1.021,0.551-1.021h2.976
		C15.743,9.428,15.732,11.489,15.645,11.488L15.645,11.488z"/>
	<path fill="#575656" d="M15.645,11.654h-2.976c-0.192,0-0.551-0.345-0.551-1.041s0.358-1.021,0.551-1.021h2.976
		C15.743,9.592,15.732,11.654,15.645,11.654z"/>
	<path fill="#D6CB78" d="M13.443,10.63c0,0.25-0.174,0.454-0.389,0.454s-0.389-0.204-0.389-0.454c0-0.252,0.174-0.455,0.389-0.455
		S13.443,10.378,13.443,10.63z"/>
	<path fill="#ECE17E" d="M13.366,10.63c0,0.201-0.14,0.366-0.312,0.366s-0.313-0.165-0.313-0.366c0-0.203,0.141-0.367,0.313-0.367
		S13.366,10.427,13.366,10.63z"/>
</g>
</svg>
