<?xml version="1.0" encoding="utf-8"?>
<!-- Generator: Adobe Illustrator 16.0.0, SVG Export Plug-In . SVG Version: 6.00 Build 0)  -->
<!DOCTYPE svg PUBLIC "-//W3C//DTD SVG 1.1//EN" "http://www.w3.org/Graphics/SVG/1.1/DTD/svg11.dtd">
<svg version="1.1" id="Layer_1" xmlns="http://www.w3.org/2000/svg" xmlns:xlink="http://www.w3.org/1999/xlink" x="0px" y="0px"
	 width="20px" height="20px" viewBox="0 0 20 20" enable-background="new 0 0 20 20" xml:space="preserve">
<g>
	<path fill="#F37C2A" d="M19.69,10c0,5.351-4.338,9.69-9.69,9.69S0.31,15.353,0.31,10c0-5.352,4.338-9.69,9.69-9.69
		S19.69,4.647,19.69,10z"/>
	<path fill="#D0D1D1" d="M5.962,6.865c0-0.786,0.637-1.422,1.423-1.422h5.616c0.786,0,1.424,0.637,1.424,1.422V8.25h0.505
		c0-0.014,0.002-0.026,0.002-0.04V6.566c0-0.88-0.714-1.593-1.593-1.593H7.048c-0.881,0-1.593,0.712-1.593,1.593V8.21
		c0,0.014,0.001,0.027,0.002,0.04h0.505V6.865z"/>
	<path fill="#A33B3B" d="M12.694,5.349c0,0.166-0.135,0.302-0.301,0.302H7.997c-0.166,0-0.302-0.136-0.302-0.302V5.026
		c0-0.167,0.136-0.302,0.302-0.302h4.396c0.166,0,0.301,0.135,0.301,0.302V5.349z"/>
	<path fill="#D5D6D5" d="M16.59,8.988c0.057-0.101,0.094-0.214,0.094-0.339c0-0.373-0.303-0.675-0.675-0.675H4.378
		c-0.372,0-0.675,0.302-0.675,0.675c0,0.112,0.029,0.215,0.078,0.307l1.542,5.622c0.007,0.028,0.019,0.054,0.03,0.079
		c0.066,0.202,0.254,0.349,0.478,0.349h8.725c0.249,0,0.455-0.181,0.496-0.419c0.001-0.003,0.002-0.006,0.003-0.009L16.59,8.988
		L16.59,8.988z M14.165,13.993h-1.381l0.327-2.124h1.637L14.165,13.993z M10.669,13.993v-2.124h1.498l-0.327,2.124H10.669z
		 M8.562,13.993l-0.326-2.124h1.499v2.124H8.562L8.562,13.993z M6.211,13.993l-0.582-2.124h1.662l0.326,2.124H6.211L6.211,13.993z
		 M6.9,9.324l0.288,1.87H5.444l-0.513-1.87H6.9L6.9,9.324z M15.446,9.324l-0.513,1.87h-1.718l0.288-1.87H15.446L15.446,9.324z
		 M12.271,11.194h-1.602v-1.87h1.889L12.271,11.194z M9.735,11.194H8.132l-0.287-1.87h1.89L9.735,11.194L9.735,11.194z"/>
	<path opacity="0.1" d="M5.962,7.976V6.866c0-0.786,0.637-1.422,1.423-1.422h0.328c0.039,0.119,0.151,0.207,0.284,0.207h2.227V4.726
		H7.997c-0.148,0-0.271,0.108-0.296,0.25H7.048c-0.881,0-1.593,0.712-1.593,1.593v1.409H4.377c-0.372,0-0.675,0.303-0.675,0.675
		c0,0.112,0.029,0.215,0.078,0.307l1.542,5.622c0.007,0.027,0.018,0.054,0.03,0.079c0.066,0.202,0.254,0.349,0.478,0.349h4.392
		V7.978H5.96L5.962,7.976z M5.443,11.194l-0.513-1.87H6.9l0.288,1.87H5.443L5.443,11.194z M6.211,13.993l-0.582-2.124h1.662
		l0.326,2.124H6.211L6.211,13.993z M9.735,13.993H8.563l-0.326-2.124h1.499L9.735,13.993L9.735,13.993z M8.132,11.194l-0.287-1.87
		h1.89v1.87H8.132L8.132,11.194z"/>
</g>
</svg>
