<?xml version="1.0" encoding="utf-8"?>
<!-- Generator: Adobe Illustrator 16.0.0, SVG Export Plug-In . SVG Version: 6.00 Build 0)  -->
<!DOCTYPE svg PUBLIC "-//W3C//DTD SVG 1.1//EN" "http://www.w3.org/Graphics/SVG/1.1/DTD/svg11.dtd">
<svg version="1.1" id="Layer_1" xmlns="http://www.w3.org/2000/svg" xmlns:xlink="http://www.w3.org/1999/xlink" x="0px" y="0px"
	 width="20px" height="20px" viewBox="0 0 20 20" enable-background="new 0 0 20 20" xml:space="preserve">
<g>
	<path fill="#E84849" d="M19.69,10c0,5.351-4.338,9.69-9.69,9.69S0.31,15.353,0.31,10c0-5.352,4.338-9.69,9.69-9.69
		S19.69,4.647,19.69,10z"/>
	<path fill="#B8D4D8" d="M14.42,6.895L6.979,6.293c-0.322,0-0.684,0.246-0.583,0.549l1.202,4.214
		c0.136,0.381,0.449,0.385,0.772,0.385h5.614c0.322,0,0.581-0.246,0.581-0.549l0.438-3.374C15.003,7.214,14.823,6.928,14.42,6.895z
		 M13.757,10.469c0,0.239-0.205,0.435-0.461,0.435h-4.44c-0.254,0-0.504-0.004-0.611-0.304l-0.95-3.334
		C7.214,7.026,7.5,6.831,7.756,6.831l5.888,0.475c0.318,0.028,0.46,0.254,0.46,0.494L13.757,10.469L13.757,10.469z"/>
	<path fill="#4B4A4B" d="M13.407,13.934c0,0.525-0.427,0.953-0.952,0.953c-0.527,0-0.952-0.427-0.952-0.953
		c0-0.525,0.425-0.953,0.952-0.953C12.98,12.98,13.407,13.407,13.407,13.934z"/>
	<path fill="#4B4A4B" d="M7.751,12.983c-0.526,0-0.952,0.425-0.952,0.951s0.426,0.953,0.952,0.953s0.953-0.427,0.953-0.953
		S8.277,12.983,7.751,12.983z"/>
	<path fill="#6DABB5" d="M5.723,6.273c0,0.213-0.185,0.386-0.41,0.386H3.85c-0.227,0-0.41-0.173-0.41-0.386l0,0
		c0-0.214,0.184-0.387,0.41-0.387h1.463C5.538,5.887,5.723,6.06,5.723,6.273L5.723,6.273z"/>
	<path fill="#6DABB5" d="M14.214,12.321c0,0.214-0.185,0.387-0.411,0.387H7.061c-0.227,0-0.411-0.173-0.411-0.387l0,0
		c0-0.214,0.184-0.385,0.411-0.385h6.742C14.029,11.937,14.214,12.107,14.214,12.321L14.214,12.321z"/>
	<path fill="#6DABB5" d="M7.418,12.067l-1.742-5.88C5.616,5.981,5.39,5.86,5.171,5.917s-0.348,0.27-0.287,0.476l1.742,5.879
		c0.06,0.206,0.285,0.327,0.504,0.27C7.349,12.485,7.478,12.272,7.418,12.067z"/>
	<path fill="#B8D4D8" d="M14.72,8.405c-0.006,0.115-0.231,0.197-0.504,0.184L7.417,8.252C7.146,8.238,6.93,8.134,6.937,8.02l0,0
		c0.006-0.115,0.231-0.197,0.503-0.184l6.8,0.337C14.513,8.187,14.727,8.291,14.72,8.405L14.72,8.405z"/>
	<path fill="#B8D4D8" d="M14.425,9.683c-0.005,0.115-0.2,0.203-0.44,0.196L8,9.729C7.761,9.724,7.57,9.626,7.573,9.511l0,0
		c0.003-0.115,0.2-0.203,0.438-0.196l5.985,0.149C14.236,9.471,14.427,9.567,14.425,9.683L14.425,9.683z"/>
	<path fill="#5C5C5C" d="M6.962,14.171c-0.177-0.176,0.019-0.667,0.195-0.845c0.177-0.177,0.605-0.346,0.782-0.167
		C8.117,13.337,7.139,14.349,6.962,14.171z"/>
	<path fill="#5C5C5C" d="M11.634,14.171c-0.178-0.176,0.018-0.667,0.194-0.845c0.177-0.177,0.605-0.346,0.784-0.167
		C12.789,13.337,11.812,14.349,11.634,14.171z"/>
</g>
</svg>
