<?xml version="1.0" encoding="utf-8"?>
<!-- Generator: Adobe Illustrator 16.0.0, SVG Export Plug-In . SVG Version: 6.00 Build 0)  -->
<!DOCTYPE svg PUBLIC "-//W3C//DTD SVG 1.1//EN" "http://www.w3.org/Graphics/SVG/1.1/DTD/svg11.dtd">
<svg version="1.1" id="Layer_1" xmlns="http://www.w3.org/2000/svg" xmlns:xlink="http://www.w3.org/1999/xlink" x="0px" y="0px"
	 width="20px" height="20px" viewBox="0 0 20 20" enable-background="new 0 0 20 20" xml:space="preserve">
<g>
	<path fill="#D1AFD2" d="M19.69,10c0,5.351-4.338,9.69-9.69,9.69S0.31,15.353,0.31,10c0-5.352,4.338-9.69,9.69-9.69
		S19.69,4.647,19.69,10z"/>
	<path fill="#CBBD7D" d="M10.132,2.212c0.377,0,0.682,0.267,0.682,0.597v3.315c0,0.33-0.305,0.598-0.682,0.598l0,0
		c-0.378,0-0.684-0.268-0.684-0.598V2.809C9.448,2.479,9.754,2.212,10.132,2.212L10.132,2.212z"/>
	<path fill="#B9972F" d="M10.041,3.713c-0.496,0-3.562,2.831-3.562,3.847v7.515c0,1.017,0.58,1.533,1.597,1.533h3.987
		c1.017,0,1.534-0.517,1.534-1.533V7.56C13.597,6.544,10.534,3.713,10.041,3.713L10.041,3.713z M10.172,7.253
		c-0.396,0-0.717-0.32-0.717-0.716S9.776,5.82,10.172,5.82s0.716,0.321,0.716,0.717S10.567,7.253,10.172,7.253z"/>
	<path fill="#DEBA24" d="M9.903,3.826c-0.396,0-3.443,2.751-3.443,3.741v7.338c0,0.99,0.504,1.496,1.496,1.496h3.895
		c0.991,0,1.496-0.506,1.496-1.496V7.567C13.347,6.576,10.298,3.826,9.903,3.826z M10.003,7.269c-0.386,0-0.699-0.313-0.699-0.698
		s0.312-0.699,0.699-0.699s0.698,0.313,0.698,0.699C10.701,6.955,10.39,7.269,10.003,7.269z"/>
	<path fill="#D7B029" d="M6.461,14.905c0,0.99,0.504,1.496,1.496,1.496h3.894c0.992,0,1.497-0.506,1.497-1.496V7.567L6.461,14.905z
		 M10.003,7.269c-0.386,0-0.699-0.313-0.699-0.698s0.312-0.699,0.699-0.699s0.698,0.313,0.698,0.699
		C10.701,6.955,10.39,7.269,10.003,7.269z"/>
	<path fill="#FFFFFF" d="M7.762,9.398c0-0.522,0.393-0.946,0.877-0.946h2.888c0.484,0,0.877,0.424,0.877,0.946v5.283
		c0,0.521-0.393,0.946-0.877,0.946H8.639c-0.483,0-0.877-0.425-0.877-0.946V9.398z"/>
	<path fill="#C6C5C5" d="M8.591,9.02c-0.154,0-0.278,0.125-0.278,0.279v5.433c0,0.152,0.124,0.276,0.278,0.276
		c0.153,0,0.277-0.124,0.277-0.276V9.299C8.868,9.145,8.743,9.02,8.591,9.02z"/>
	<path fill="#C6C5C5" d="M9.789,9.02c-0.153,0-0.278,0.125-0.278,0.279v5.433c0,0.152,0.125,0.276,0.278,0.276
		c0.154,0,0.277-0.124,0.277-0.276V9.299C10.066,9.145,9.942,9.02,9.789,9.02z"/>
	<path fill="#C6C5C5" d="M10.985,9.02c-0.153,0-0.277,0.125-0.277,0.279v5.433c0,0.152,0.125,0.276,0.277,0.276
		c0.153,0,0.278-0.124,0.278-0.276V9.299C11.264,9.145,11.139,9.02,10.985,9.02z"/>
	<path fill="#DFD48A" d="M10.271,2.212c0.332,0,0.6,0.268,0.6,0.599v3.331c0,0.33-0.268,0.599-0.6,0.599l0,0
		c-0.33,0-0.599-0.269-0.599-0.599V2.811C9.673,2.479,9.941,2.212,10.271,2.212L10.271,2.212z"/>
</g>
</svg>
