<?xml version="1.0" encoding="utf-8"?>
<!-- Generator: Adobe Illustrator 16.0.0, SVG Export Plug-In . SVG Version: 6.00 Build 0)  -->
<!DOCTYPE svg PUBLIC "-//W3C//DTD SVG 1.1//EN" "http://www.w3.org/Graphics/SVG/1.1/DTD/svg11.dtd">
<svg version="1.1" id="Layer_1" xmlns="http://www.w3.org/2000/svg" xmlns:xlink="http://www.w3.org/1999/xlink" x="0px" y="0px"
	 width="20px" height="20px" viewBox="0 0 20 20" enable-background="new 0 0 20 20" xml:space="preserve">
<g>
	<path fill="#FFCE00" d="M19.69,10c0,5.351-4.338,9.69-9.69,9.69S0.31,15.353,0.31,10c0-5.352,4.338-9.69,9.69-9.69
		S19.69,4.647,19.69,10z"/>
	<path fill="#1B7A9A" d="M12.378,2.31c0.277,0,0.5,0.225,0.5,0.5v7.598c0,0.275-0.225,0.5-0.5,0.5H7.819
		c-0.275,0-0.499-0.225-0.499-0.5V2.81c0-0.276,0.224-0.5,0.499-0.5H12.378z"/>
	<path fill="#2992AD" d="M8.925,4.671c0,0,0.134,0.647,0.011,0.879c0,0-0.201,0.154-0.029,0.589c0,0,0.459,0.762,0.917,0.771
		c0,0,0.907,0.213,1.032-0.589c0,0-0.278-0.84,0.047-0.946c0,0,0.401-0.028,0.487-0.105c0,0,0.184-0.126,0.295-0.116
		c0,0,0.373,0.087,0.658-0.028c0,0,0.25-0.078,0.325-0.068c0,0-0.211-0.733-0.897-0.966c0,0-0.479-0.136-0.603-0.145
		c0,0-0.553-0.193-0.725-0.241c0,0-0.516-0.174-0.449,0.115c0,0-0.19,0.203-0.334,0.348C9.517,4.313,8.973,4.593,8.925,4.671
		L8.925,4.671z"/>
	<path fill="#2992AD" d="M9.722,3.945L9.022,4.706c0,0-0.144-0.162-0.225-0.108C8.718,4.651,8.824,4.77,8.824,4.869
		s0.081,0.236,0.009,0.29C8.762,5.214,8.78,5.25,8.824,5.305C8.869,5.359,8.94,5.458,8.896,5.468C8.852,5.477,8.87,5.64,8.824,5.649
		C8.78,5.658,8.654,5.621,8.681,5.703s0.116,0.199,0.161,0.218c0.045,0.018,0.18,0.082,0.18,0.145c0,0.063,0.036,0.227-0.018,0.254
		S8.771,6.401,8.718,6.347C8.664,6.292,8.72,6.026,8.654,6.038s-0.21,0.044-0.23,0.004c-0.02-0.04-0.253-0.148-0.28-0.222
		c-0.026-0.072,0.072-0.263,0.01-0.289c0,0-0.188-0.01-0.216,0.025S7.83,5.621,7.839,5.685c0.01,0.063,0.072,0.091,0.099,0.045
		c0.027-0.045,0.135-0.081,0.135-0.054c0,0.026,0.018,0.271-0.045,0.28c-0.062,0.01-0.215-0.027-0.269-0.108
		C7.705,5.768,7.714,5.594,7.74,5.54c0.026-0.055-0.027-0.117-0.071-0.136C7.624,5.386,7.475,5.661,7.475,5.743
		c0,0,0.159-2.147,2.355-2.517c0,0-0.754,0.23-0.799,0.384c0,0,0.054,0.082,0.045,0.135C9.067,3.799,8.897,4.071,8.941,4.09
		c0.045,0.019,0.197-0.128,0.215-0.281s0.036-0.163,0.116-0.173C9.354,3.627,9.479,3.6,9.56,3.618
		c0.079,0.018,0.322,0.126,0.161,0.325L9.722,3.945z"/>
	<path fill="#2992AD" d="M7.869,6.642c0,0,0.052,0.084,0.124,0.126S8.127,6.81,8.127,6.81s0.031-0.054,0.031-0.107
		S8.107,6.506,8.035,6.506S7.869,6.642,7.869,6.642z"/>
	<path fill="#2992AD" d="M7.25,6.767c0,0,0.3,0.25,0.329,0.375c0.03,0.126,0.135,0.334,0.177,0.387
		c0.04,0.053-0.031,0.229-0.113,0.125C7.561,7.551,7.375,7.269,7.354,7.331C7.333,7.393,7.529,7.675,7.611,7.789
		c0.083,0.114,0.207,0.208,0.29,0.261C7.983,8.102,8.2,8.091,8.242,8.207C8.284,8.321,8.489,8.822,8.635,8.99
		C8.779,9.156,8.886,9.336,9.03,9.409S8.8,9.373,8.662,9.308c0,0-0.791-0.443-1.285-1.456c0,0-0.197-0.771-0.125-1.084L7.25,6.767z"
		/>
	<path fill="#2992AD" d="M10.882,9.687c0,0-0.557,0.104-0.609-0.011c-0.052-0.114-0.062-0.149,0.042-0.25s0.278-0.239,0.372-0.292
		c0.094-0.052,0.207-0.239,0.278-0.239c0.072,0,0.249,0.042,0.329,0c0.084-0.042,0.095-0.105,0.135-0.198
		c0.041-0.093,0.104-0.271,0.195-0.376c0.094-0.104,0.207-0.25,0.33-0.219c0.125,0.03,0.311,0.094,0.383,0.073
		c0.071-0.02,0.195-0.094,0.247-0.01s0.041,0.146,0.135,0.136c0.093-0.01,0.382-0.115,0.433-0.146
		C13.151,8.154,12.599,9.454,10.882,9.687L10.882,9.687z"/>
	<path fill="#2992AD" d="M9.736,9.544c-0.072-0.021-0.434-0.072-0.434-0.01c0.452,0.122,0.445,0.118,0.784,0.167L9.736,9.544z"/>
	<path fill="#AAAAAA" d="M11.347,8.592c0.127,0,0.229,0.061,0.229,0.138v1.387c0,0.075-0.104,0.137-0.229,0.137l0,0
		c-0.128,0-0.23-0.061-0.23-0.137V8.729C11.116,8.653,11.22,8.593,11.347,8.592L11.347,8.592L11.347,8.592z"/>
	<path fill="#AAAAAA" d="M11.347,6.691c0.127,0,0.229,0.062,0.229,0.138v1.387c0,0.076-0.104,0.136-0.229,0.136l0,0
		c-0.128,0-0.23-0.06-0.23-0.136V6.829C11.116,6.754,11.22,6.691,11.347,6.691L11.347,6.691z"/>
	<path fill="#AAAAAA" d="M11.347,4.806c0.127,0,0.229,0.061,0.229,0.137V6.33c0,0.075-0.104,0.137-0.229,0.137l0,0
		c-0.128,0-0.23-0.062-0.23-0.137V4.942C11.116,4.867,11.22,4.807,11.347,4.806L11.347,4.806L11.347,4.806z"/>
	<path fill="#AAAAAA" d="M11.347,2.935c0.127,0,0.23,0.062,0.23,0.138v1.391c0,0.076-0.104,0.138-0.23,0.138l0,0
		c-0.128,0-0.232-0.061-0.232-0.138V3.072C11.114,2.997,11.219,2.935,11.347,2.935L11.347,2.935z"/>
	<path fill="#BBBCBB" d="M8.984,8.637h0.172v1.48H8.984V8.637z"/>
	<path fill="#BBBCBB" d="M8.678,8.637h0.145v1.48H8.678V8.637z"/>
	<path fill="#CDCDCE" d="M9.105,9.565c0.093,0,0.167-0.08,0.167-0.179c0-0.1-0.074-0.18-0.167-0.18H8.515v0.358H9.105z"/>
	<path fill="#BBBCBB" d="M8.316,9.544v0.369c0,0.112,0.085,0.204,0.19,0.204h0.009V9.565H8.394C8.365,9.565,8.341,9.557,8.316,9.544
		L8.316,9.544z"/>
	<path fill="#BBBCBB" d="M8.506,8.637c-0.104,0-0.19,0.092-0.19,0.203v0.389c0.023-0.013,0.049-0.021,0.076-0.021h0.122v-0.57H8.506
		L8.506,8.637z"/>
	<path fill="#CDCDCE" d="M8.316,9.229v0.315C8.34,9.557,8.365,9.565,8.393,9.565h0.122V9.207H8.393
		C8.364,9.207,8.34,9.216,8.316,9.229z"/>
	<path fill="#BBBCBB" d="M9.337,10.117c0.104,0,0.189-0.092,0.189-0.204V8.84c0-0.111-0.085-0.203-0.189-0.203h-0.02v1.48H9.337z"/>
	<path fill="#CDCDCE" d="M8.516,8.637h0.162v1.48H8.516V8.637z"/>
	<path fill="#CDCDCE" d="M8.822,8.637h0.162v1.48H8.822V8.637z"/>
	<path fill="#CDCDCE" d="M9.156,8.637h0.162v1.48H9.156V8.637z"/>
	<path fill="#CDCDCE" d="M7.833,4.084c0,0.271,0.104,0.517,0.271,0.702C7.955,4.962,7.865,5.188,7.865,5.438
		c0,0.558,0.452,1.012,1.011,1.012c0.56,0,1.012-0.452,1.012-1.012c0-0.249-0.09-0.476-0.238-0.651
		C9.817,4.601,9.92,4.354,9.92,4.084c0-0.575-0.467-1.042-1.042-1.042c-0.576,0-1.043,0.467-1.043,1.042H7.833z M9.568,3.393
		C9.745,3.57,9.855,3.814,9.855,4.084c0,0.251-0.095,0.48-0.25,0.653c-0.035-0.035-0.071-0.068-0.11-0.1v0.206
		c-0.03,0.024-0.063,0.048-0.098,0.068V4.571C9.362,4.549,9.324,4.53,9.285,4.513v0.461C9.254,4.987,9.221,5,9.188,5.011V4.475
		C9.15,4.463,9.114,4.453,9.075,4.445v0.596C9.043,5.049,9.012,5.053,8.978,5.057V4.432C8.943,4.429,8.91,4.427,8.875,4.427
		c-0.003,0-0.006,0-0.009,0v0.636C8.833,5.062,8.801,5.061,8.769,5.057V4.432C8.731,4.437,8.693,4.442,8.656,4.45v0.587
		C8.624,5.029,8.592,5.021,8.561,5.01V4.476C8.521,4.488,8.483,4.504,8.447,4.521v0.443C8.414,4.947,8.382,4.93,8.351,4.909V4.572
		C8.312,4.596,8.274,4.624,8.238,4.651v0.174c-0.02-0.016-0.037-0.032-0.055-0.05C8.007,4.597,7.896,4.354,7.896,4.083
		c0-0.27,0.11-0.515,0.287-0.691c0.178-0.177,0.422-0.286,0.691-0.286C9.146,3.105,9.391,3.215,9.568,3.393L9.568,3.393z
		 M9.639,3.039c-0.021,0.02-0.029,0.045-0.029,0.073c0,0.03,0.011,0.054,0.029,0.075c0.02,0.02,0.045,0.03,0.074,0.03
		s0.054-0.011,0.073-0.03s0.029-0.045,0.029-0.075c0-0.027-0.01-0.053-0.029-0.073c-0.02-0.021-0.044-0.031-0.073-0.031
		C9.683,3.008,9.657,3.019,9.639,3.039z M9.773,3.052C9.79,3.068,9.799,3.089,9.799,3.112c0,0.024-0.009,0.045-0.025,0.062
		S9.736,3.199,9.713,3.199c-0.026,0-0.047-0.008-0.063-0.025C9.632,3.155,9.624,3.136,9.624,3.112c0-0.022,0.008-0.044,0.025-0.061
		c0.017-0.017,0.037-0.024,0.063-0.024C9.737,3.027,9.757,3.035,9.773,3.052z M9.684,3.064c-0.021,0-0.031,0.015-0.031,0.044v0.043
		h0.12V3.134H9.721V3.115l0.052-0.029V3.064L9.717,3.096C9.717,3.075,9.707,3.064,9.684,3.064z M9.702,3.115v0.02H9.668V3.109
		c0-0.017,0.005-0.025,0.016-0.025C9.696,3.084,9.702,3.094,9.702,3.115z"/>
	<path fill="#AAA79B" d="M13.592,16.624c0,0.557-1.263,1.247-3.52,1.247s-3.518-0.692-3.518-1.247V7.562
		c0-0.555,0.45-1.005,1.005-1.005h5.026c0.557,0,1.006,0.45,1.006,1.005V16.624z"/>
	<path fill="#B2B0A6" d="M10.072,17.871c-2.257,0-3.518-0.692-3.518-1.247V7.562c0-0.555,0.45-1.005,1.005-1.005h2.513V17.871z"/>
	<path fill="#CDE7D5" d="M13.006,9.821c0,0.462-0.375,0.502-0.839,0.502H7.979c-0.463,0-0.839-0.04-0.839-0.502V7.996
		c0-0.463,0.376-0.579,0.839-0.579h4.188c0.462,0,0.839,0.117,0.839,0.579V9.821z"/>
	<path fill="#C3D5C7" d="M13.006,9.821c0,0.462-0.375,0.502-0.839,0.502H7.979c-0.463,0-0.839-0.04-0.839-0.502l5.865-1.825
		L13.006,9.821L13.006,9.821z"/>
	<path fill="#86847D" d="M8.825,12.443c0,0.108-0.088,0.198-0.198,0.198H7.425c-0.109,0-0.198-0.09-0.198-0.198v-1.049
		c0-0.11,0.088-0.198,0.198-0.198h1.202c0.11,0,0.198,0.09,0.198,0.198V12.443z"/>
	<path fill="#86847D" d="M13.036,12.443c0,0.108-0.088,0.198-0.198,0.198h-1.202c-0.109,0-0.198-0.09-0.198-0.198v-1.049
		c0-0.11,0.088-0.198,0.198-0.198h1.202c0.108,0,0.198,0.09,0.198,0.198V12.443z"/>
	<path fill="#86847D" d="M10.935,12.443c0,0.108-0.088,0.198-0.198,0.198H9.533c-0.109,0-0.198-0.09-0.198-0.198v-1.049
		c0-0.11,0.088-0.198,0.198-0.198h1.203c0.108,0,0.198,0.09,0.198,0.198V12.443z"/>
	<path fill="#86847D" d="M8.825,14.332c0,0.11-0.088,0.198-0.198,0.198H7.425c-0.109,0-0.198-0.088-0.198-0.198v-1.049
		c0-0.108,0.088-0.197,0.198-0.197h1.202c0.11,0,0.198,0.088,0.198,0.197V14.332z"/>
	<path fill="#86847D" d="M13.036,14.332c0,0.11-0.088,0.198-0.198,0.198h-1.202c-0.109,0-0.198-0.088-0.198-0.198v-1.049
		c0-0.108,0.088-0.197,0.198-0.197h1.202c0.108,0,0.198,0.088,0.198,0.197V14.332z"/>
	<path fill="#86847D" d="M10.935,14.332c0,0.11-0.088,0.198-0.198,0.198H9.533c-0.109,0-0.198-0.088-0.198-0.198v-1.049
		c0-0.108,0.088-0.197,0.198-0.197h1.203c0.108,0,0.198,0.088,0.198,0.197V14.332z"/>
	<path fill="#86847D" d="M8.825,16.213c0,0.109-0.088,0.198-0.198,0.198H7.425c-0.109,0-0.198-0.088-0.198-0.198v-1.049
		c0-0.109,0.088-0.197,0.198-0.197h1.202c0.11,0,0.198,0.088,0.198,0.197V16.213z"/>
	<path fill="#86847D" d="M13.036,16.213c0,0.109-0.088,0.198-0.198,0.198h-1.202c-0.109,0-0.198-0.088-0.198-0.198v-1.049
		c0-0.109,0.088-0.197,0.198-0.197h1.202c0.108,0,0.198,0.088,0.198,0.197V16.213z"/>
	<path fill="#86847D" d="M10.935,16.213c0,0.109-0.088,0.198-0.198,0.198H9.533c-0.109,0-0.198-0.088-0.198-0.198v-1.049
		c0-0.109,0.088-0.197,0.198-0.197h1.203c0.108,0,0.198,0.088,0.198,0.197V16.213z"/>
	<path fill="#DDDCD6" d="M8.768,12.366c0,0.109-0.088,0.198-0.198,0.198H7.367c-0.109,0-0.198-0.089-0.198-0.198v-1.049
		c0-0.109,0.088-0.197,0.198-0.197h1.202c0.11,0,0.198,0.088,0.198,0.197V12.366z"/>
	<path fill="#DDDCD6" d="M12.979,12.366c0,0.109-0.089,0.198-0.198,0.198h-1.203c-0.109,0-0.197-0.089-0.197-0.198v-1.049
		c0-0.109,0.088-0.197,0.197-0.197h1.203c0.108,0,0.198,0.088,0.198,0.197V12.366z"/>
	<path fill="#DDDCD6" d="M10.876,12.366c0,0.109-0.088,0.198-0.197,0.198H9.476c-0.109,0-0.198-0.089-0.198-0.198v-1.049
		c0-0.109,0.088-0.197,0.198-0.197h1.203c0.108,0,0.197,0.088,0.197,0.197V12.366z"/>
	<path fill="#DDDCD6" d="M8.768,14.257c0,0.109-0.088,0.197-0.198,0.197H7.367c-0.109,0-0.198-0.088-0.198-0.197v-1.049
		c0-0.109,0.088-0.198,0.198-0.198h1.202c0.11,0,0.198,0.088,0.198,0.198V14.257z"/>
	<path fill="#DDDCD6" d="M12.979,14.257c0,0.109-0.089,0.197-0.198,0.197h-1.203c-0.109,0-0.197-0.088-0.197-0.197v-1.049
		c0-0.109,0.088-0.198,0.197-0.198h1.203c0.108,0,0.198,0.088,0.198,0.198V14.257z"/>
	<path fill="#DDDCD6" d="M10.876,14.257c0,0.109-0.088,0.197-0.197,0.197H9.476c-0.109,0-0.198-0.088-0.198-0.197v-1.049
		c0-0.109,0.088-0.198,0.198-0.198h1.203c0.108,0,0.197,0.088,0.197,0.198V14.257z"/>
	<path fill="#DDDCD6" d="M8.768,16.138c0,0.108-0.088,0.197-0.198,0.197H7.367c-0.109,0-0.198-0.088-0.198-0.197v-1.049
		c0-0.11,0.088-0.198,0.198-0.198h1.202c0.11,0,0.198,0.088,0.198,0.198V16.138z"/>
	<path fill="#DDDCD6" d="M12.979,16.138c0,0.108-0.089,0.197-0.198,0.197h-1.203c-0.109,0-0.197-0.088-0.197-0.197v-1.049
		c0-0.11,0.088-0.198,0.197-0.198h1.203c0.108,0,0.198,0.088,0.198,0.198V16.138z"/>
	<path fill="#DDDCD6" d="M10.876,16.138c0,0.108-0.088,0.197-0.197,0.197H9.476c-0.109,0-0.198-0.088-0.198-0.197v-1.049
		c0-0.11,0.088-0.198,0.198-0.198h1.203c0.108,0,0.197,0.088,0.197,0.198V16.138z"/>
</g>
</svg>
