<?xml version="1.0" encoding="utf-8"?>
<!-- Generator: Adobe Illustrator 16.0.0, SVG Export Plug-In . SVG Version: 6.00 Build 0)  -->
<!DOCTYPE svg PUBLIC "-//W3C//DTD SVG 1.1//EN" "http://www.w3.org/Graphics/SVG/1.1/DTD/svg11.dtd">
<svg version="1.1" id="Layer_1" xmlns="http://www.w3.org/2000/svg" xmlns:xlink="http://www.w3.org/1999/xlink" x="0px" y="0px"
	 width="20px" height="20px" viewBox="0 0 20 20" enable-background="new 0 0 20 20" xml:space="preserve">
<g>
	<path fill="#357180" d="M19.69,10c0,5.351-4.338,9.69-9.69,9.69S0.31,15.353,0.31,10c0-5.352,4.338-9.69,9.69-9.69
		S19.69,4.647,19.69,10z"/>
	<path fill="#A48A47" d="M10.206,15.84l-5.873-2.481V6.947l5.873,2.482V15.84z"/>
	<path fill="#93793D" d="M16.062,13.358l-5.872,2.481V9.429l5.872-2.481V13.358z"/>
	<path fill="#786547" d="M16.057,6.947l-5.872-2.568L4.312,6.947l5.872,2.482L16.057,6.947z"/>
	<path fill="#B19353" d="M16.057,6.947l-5.872-2.569L4.312,6.946l5.878,2.482L16.057,6.947z"/>
	<path fill="#B29C76" d="M14.187,10.127L14.07,10.55l-0.163-0.272l-0.18,0.38l-0.078-0.294l-0.266,0.423l-0.174-0.271l-0.176,0.407
		l-0.104-0.279l-0.182,0.358l-0.151-0.219l-0.258,0.412l-0.129-0.252V8.58l1.957-0.823L14.187,10.127z"/>
	<path fill="#B9A57C" d="M8.472,5.12L6.495,5.938l5.715,2.644l1.955-0.823L8.472,5.12z"/>
	<path fill="#B29C76" d="M6.208,12.247l0.115,0.422l0.164-0.271l0.18,0.379l0.078-0.293l0.265,0.422l0.176-0.271l0.176,0.406
		l0.104-0.278l0.182,0.358l0.15-0.219l0.258,0.412l0.129-0.252V8.579L6.208,7.763V12.247z"/>
	<path fill="#B9A57C" d="M11.923,5.15l1.976,0.816L8.185,8.58L6.208,7.764L11.923,5.15z"/>
</g>
</svg>
