<?xml version="1.0" encoding="utf-8"?>
<!-- Generator: Adobe Illustrator 16.0.0, SVG Export Plug-In . SVG Version: 6.00 Build 0)  -->
<!DOCTYPE svg PUBLIC "-//W3C//DTD SVG 1.1//EN" "http://www.w3.org/Graphics/SVG/1.1/DTD/svg11.dtd">
<svg version="1.1" id="Layer_1" xmlns="http://www.w3.org/2000/svg" xmlns:xlink="http://www.w3.org/1999/xlink" x="0px" y="0px"
	 width="20px" height="20px" viewBox="0 0 20 20" enable-background="new 0 0 20 20" xml:space="preserve">
<g>
	<path fill="#65A844" d="M19.69,10c0,5.351-4.338,9.69-9.69,9.69S0.31,15.353,0.31,10c0-5.352,4.338-9.69,9.69-9.69
		S19.69,4.647,19.69,10z"/>
	<path fill="#B6B3A1" d="M6.01,8.015c-0.181,0.14-0.472,0.14-0.65,0l0,0c-0.18-0.139-0.18-0.365,0-0.504l4.322-3.354
		c0.18-0.139,0.471-0.139,0.649,0l0,0c0.181,0.14,0.181,0.366,0,0.505L6.01,8.015z"/>
	<path fill="#B6B3A1" d="M14.653,7.511c0.181,0.139,0.181,0.365,0,0.504l0,0c-0.18,0.14-0.471,0.14-0.649,0L9.682,4.661
		c-0.181-0.139-0.181-0.365,0-0.505l0,0c0.179-0.139,0.471-0.139,0.649,0L14.653,7.511L14.653,7.511z"/>
	<path fill="#F3EED5" d="M17.05,11.744c0,0.804-0.652,1.455-1.456,1.455H4.43c-0.804,0-1.456-0.651-1.456-1.455V8.813
		c0-0.804,0.652-1.456,1.456-1.456h11.164c0.806,0,1.456,0.652,1.456,1.456V11.744z"/>
	<path fill="#3B6DA2" d="M16.516,11.415c0,0.744-0.603,1.345-1.345,1.345H4.855c-0.743,0-1.346-0.603-1.346-1.345V9.196
		c0-0.743,0.603-1.345,1.346-1.345h10.315c0.742,0,1.345,0.602,1.345,1.345V11.415z"/>
	<path fill="#F3EED5" d="M6.253,8.864c0.272,0,0.507,0.055,0.702,0.165C7.151,9.14,7.299,9.298,7.399,9.5
		C7.5,9.703,7.551,9.943,7.551,10.219c0,0.203-0.028,0.389-0.083,0.554c-0.056,0.166-0.137,0.311-0.247,0.432
		c-0.109,0.123-0.245,0.217-0.405,0.28s-0.344,0.097-0.551,0.097c-0.205,0-0.39-0.033-0.552-0.099s-0.298-0.159-0.407-0.28
		c-0.108-0.12-0.19-0.266-0.245-0.436c-0.056-0.17-0.084-0.354-0.084-0.551c0-0.202,0.029-0.388,0.087-0.557
		c0.057-0.168,0.142-0.312,0.252-0.43c0.109-0.118,0.243-0.21,0.402-0.271c0.157-0.062,0.337-0.094,0.537-0.094H6.253z M7.01,10.217
		c0-0.193-0.031-0.359-0.093-0.501s-0.15-0.248-0.267-0.32C6.536,9.323,6.403,9.287,6.254,9.287c-0.106,0-0.205,0.02-0.295,0.06
		S5.792,9.445,5.726,9.521C5.66,9.598,5.609,9.695,5.572,9.814c-0.038,0.119-0.058,0.252-0.058,0.401s0.02,0.284,0.058,0.404
		c0.037,0.121,0.091,0.223,0.158,0.301c0.068,0.08,0.148,0.141,0.237,0.178c0.089,0.039,0.187,0.061,0.293,0.061
		c0.136,0,0.262-0.035,0.376-0.104s0.205-0.174,0.271-0.315c0.067-0.144,0.102-0.317,0.102-0.525V10.217z"/>
	<path fill="#F3EED5" d="M9.025,10.515H8.537v0.744c0,0.107-0.024,0.187-0.075,0.242c-0.05,0.053-0.113,0.081-0.19,0.081
		c-0.08,0-0.145-0.026-0.193-0.081s-0.074-0.133-0.074-0.239V9.234c0-0.117,0.028-0.2,0.081-0.251
		c0.054-0.051,0.14-0.075,0.257-0.075h0.684c0.202,0,0.356,0.016,0.466,0.047c0.107,0.029,0.201,0.08,0.278,0.148
		c0.077,0.069,0.139,0.154,0.178,0.255c0.04,0.1,0.061,0.213,0.061,0.339c0,0.268-0.082,0.471-0.247,0.609
		C9.597,10.444,9.351,10.515,9.025,10.515L9.025,10.515z M8.896,9.309H8.537v0.803h0.359c0.125,0,0.23-0.014,0.315-0.039
		c0.085-0.026,0.148-0.069,0.192-0.129s0.066-0.139,0.066-0.234c0-0.116-0.035-0.211-0.104-0.284
		C9.291,9.348,9.134,9.309,8.896,9.309L8.896,9.309z"/>
	<path fill="#F3EED5" d="M12.187,9.32h-1.199v0.646h1.104c0.081,0,0.142,0.019,0.182,0.055c0.04,0.037,0.06,0.085,0.06,0.145
		s-0.02,0.109-0.06,0.146c-0.04,0.038-0.101,0.057-0.183,0.057h-1.105v0.748h1.241c0.084,0,0.147,0.02,0.19,0.059
		s0.063,0.091,0.063,0.154c0,0.062-0.021,0.113-0.063,0.152s-0.106,0.058-0.19,0.058H10.78c-0.117,0-0.199-0.026-0.251-0.077
		c-0.051-0.051-0.076-0.133-0.076-0.248V9.236c0-0.076,0.012-0.139,0.034-0.188c0.023-0.048,0.059-0.083,0.107-0.105
		c0.048-0.021,0.109-0.033,0.186-0.033h1.405c0.085,0,0.147,0.019,0.19,0.057c0.041,0.037,0.062,0.087,0.062,0.147
		c0,0.062-0.021,0.111-0.062,0.149S12.271,9.32,12.187,9.32L12.187,9.32z"/>
	<path fill="#F3EED5" d="M13.599,9.184l1.023,1.55V9.169c0-0.102,0.021-0.178,0.066-0.229c0.043-0.051,0.102-0.076,0.176-0.076
		c0.077,0,0.137,0.024,0.182,0.076c0.043,0.052,0.065,0.127,0.065,0.229v2.068c0,0.229-0.095,0.345-0.286,0.345
		c-0.049,0-0.092-0.007-0.129-0.02c-0.038-0.015-0.074-0.036-0.108-0.065c-0.032-0.031-0.065-0.065-0.093-0.105
		c-0.028-0.04-0.058-0.081-0.086-0.123L13.41,9.737v1.54c0,0.101-0.022,0.177-0.069,0.228s-0.107,0.076-0.18,0.076
		c-0.075,0-0.135-0.025-0.181-0.078c-0.045-0.053-0.068-0.127-0.068-0.228V9.248c0-0.086,0.01-0.154,0.028-0.203
		c0.023-0.053,0.061-0.097,0.113-0.132c0.052-0.034,0.109-0.051,0.171-0.051c0.048,0,0.089,0.007,0.122,0.022
		s0.063,0.037,0.09,0.063c0.027,0.025,0.053,0.061,0.078,0.102c0.026,0.042,0.055,0.086,0.084,0.131V9.184z"/>
	<path fill="#898579" d="M10.828,4.606c0,0.437-0.354,0.791-0.791,0.791c-0.436,0-0.79-0.354-0.79-0.791s0.354-0.79,0.79-0.79
		C10.474,3.816,10.828,4.17,10.828,4.606z"/>
</g>
</svg>
