<?xml version="1.0" encoding="utf-8"?>
<!-- Generator: Adobe Illustrator 16.0.0, SVG Export Plug-In . SVG Version: 6.00 Build 0)  -->
<!DOCTYPE svg PUBLIC "-//W3C//DTD SVG 1.1//EN" "http://www.w3.org/Graphics/SVG/1.1/DTD/svg11.dtd">
<svg version="1.1" id="Layer_1" xmlns="http://www.w3.org/2000/svg" xmlns:xlink="http://www.w3.org/1999/xlink" x="0px" y="0px"
	 width="20px" height="20px" viewBox="0 0 20 20" enable-background="new 0 0 20 20" xml:space="preserve">
<g>
	<path fill="#6EC2CB" d="M19.69,10c0,5.351-4.338,9.69-9.69,9.69S0.31,15.353,0.31,10c0-5.352,4.338-9.69,9.69-9.69
		S19.69,4.647,19.69,10z"/>
	<path fill="#E7E7E7" d="M10.148,4.122c0.753,0,1.36,0.395,1.802,0.848c0.788,0.81,0.765,2.03,0.764,2.082
		c-0.002,0.083-0.074,0.147-0.154,0.147c-0.082-0.003-0.147-0.072-0.145-0.156c0-0.011,0.019-1.147-0.682-1.864
		c-0.383-0.393-0.918-0.757-1.585-0.757c-2.309,0-2.359,2.526-2.36,2.627c-0.002,0.083-0.069,0.146-0.151,0.15
		c-0.083-0.002-0.15-0.07-0.149-0.152C7.487,7.019,7.546,4.122,10.148,4.122z"/>
	<path fill="#E2C448" d="M4.21,5.538c0-0.097,11.539-0.097,11.539,0l0.053,0.995L4.163,6.456L4.21,5.538L4.21,5.538z"/>
	<path fill="#D2B63D" d="M4.21,5.538c0-0.097,11.539-0.097,11.539,0l-0.901,0.565l1.104,0.402L4.042,6.473l1.101-0.391L4.21,5.538
		L4.21,5.538z"/>
	<path fill="#C4A830" d="M14.848,6.104l1.104,0.402h-1.104V6.104z"/>
	<path fill="#C4A830" d="M5.146,6.071L4.042,6.473h1.104V6.071z"/>
	<path fill="#E2C448" d="M15.949,12.172l0.005-5.666c0-0.101-11.911-0.133-11.911-0.033l-0.007,5.75l-0.144,2.903
		c0,0.101,0.077,0.322,0.171,0.322h11.854c0.095,0,0.172-0.221,0.172-0.322L15.949,12.172L15.949,12.172z"/>
	<path fill="#C4A830" d="M8.025,7.476c0,0.214-0.174,0.388-0.387,0.388c-0.214,0-0.388-0.174-0.388-0.388s0.174-0.388,0.388-0.388
		C7.852,7.088,8.025,7.262,8.025,7.476z"/>
	<path fill="#C4A830" d="M12.952,7.476c0,0.214-0.174,0.388-0.388,0.388c-0.213,0-0.387-0.174-0.387-0.388s0.174-0.388,0.387-0.388
		C12.778,7.088,12.952,7.262,12.952,7.476z"/>
	<path fill="#F4F4EE" d="M10.148,4.731c0.753,0,1.36,0.23,1.802,0.684c0.788,0.809,0.765,2.03,0.764,2.082
		c-0.002,0.082-0.074,0.146-0.154,0.146c-0.082-0.002-0.147-0.071-0.145-0.155c0-0.012,0.019-1.148-0.682-1.864
		c-0.383-0.393-0.918-0.593-1.585-0.593c-2.309,0-2.359,2.362-2.36,2.463C7.786,7.577,7.719,7.641,7.637,7.644
		c-0.083-0.001-0.15-0.069-0.149-0.152C7.487,7.465,7.546,4.731,10.148,4.731z"/>
</g>
</svg>
