<?xml version="1.0" encoding="utf-8"?>
<!-- Generator: Adobe Illustrator 16.0.0, SVG Export Plug-In . SVG Version: 6.00 Build 0)  -->
<!DOCTYPE svg PUBLIC "-//W3C//DTD SVG 1.1//EN" "http://www.w3.org/Graphics/SVG/1.1/DTD/svg11.dtd">
<svg version="1.1" id="Layer_1" xmlns="http://www.w3.org/2000/svg" xmlns:xlink="http://www.w3.org/1999/xlink" x="0px" y="0px"
	 width="20px" height="20px" viewBox="0 0 20 20" enable-background="new 0 0 20 20" xml:space="preserve">
<g>
	<path fill="#344E5D" d="M19.69,10c0,5.351-4.338,9.69-9.69,9.69S0.31,15.353,0.31,10c0-5.352,4.338-9.69,9.69-9.69
		S19.69,4.647,19.69,10z"/>
	<path fill="#EAE744" d="M10.236,3.034c-0.674,0-1.222,0.548-1.222,1.222c0,0.675,0.547,1.222,1.222,1.222s1.222-0.546,1.222-1.222
		C11.458,3.581,10.911,3.034,10.236,3.034z M10.254,5.119c-0.41,0-0.743-0.332-0.743-0.743c0-0.41,0.333-0.743,0.743-0.743
		s0.744,0.333,0.744,0.743C10.998,4.787,10.664,5.119,10.254,5.119z"/>
	<path fill="#E3A93F" d="M5.155,13.922c0,0,2.062,1.373,5.081,1.373s5.181-1.373,5.181-1.373s-2.761-0.968-5.181-0.968
		C7.817,12.954,5.155,13.922,5.155,13.922z"/>
	<path fill="#ECB050" d="M5.155,13.922c0,0,2.062,1.373,5.081,1.373v-2.343c-2.419,0-5.081,0.968-5.081,0.968V13.922z"/>
	<path fill="#DDD555" d="M11.318,13.749c0,0.623-0.505,1.128-1.128,1.128s-1.129-0.506-1.129-1.128c0-0.625,0.506-1.129,1.129-1.129
		S11.318,13.126,11.318,13.749z"/>
	<path fill="#EAE744" d="M10.247,4.71c-3.74,0-3.292,3.412-3.932,5.936c-0.025,0.098-0.621,0.463-0.929,1.123
		c-0.309,0.66-0.254,2.154-0.231,2.154c0.094,0,3.191-0.737,5.081-0.737s5.181,0.785,5.181,0.785s0.005-1.681-0.298-2.22
		c-0.305-0.537-0.878-0.947-0.905-1.053c-0.652-2.542-0.228-5.986-3.967-5.986V4.71z"/>
	<path fill="#F1E85F" d="M10.247,4.71c-3.74,0-3.292,3.412-3.932,5.936c-0.025,0.098-0.621,0.463-0.929,1.123
		c-0.309,0.66-0.254,2.154-0.231,2.154c0.094,0,3.191-0.737,5.081-0.737l0.011-8.474V4.71z"/>
</g>
</svg>
