<?xml version="1.0" encoding="utf-8"?>
<!-- Generator: Adobe Illustrator 16.0.0, SVG Export Plug-In . SVG Version: 6.00 Build 0)  -->
<!DOCTYPE svg PUBLIC "-//W3C//DTD SVG 1.1//EN" "http://www.w3.org/Graphics/SVG/1.1/DTD/svg11.dtd">
<svg version="1.1" id="Layer_1" xmlns="http://www.w3.org/2000/svg" xmlns:xlink="http://www.w3.org/1999/xlink" x="0px" y="0px"
	 width="20px" height="20px" viewBox="0 0 20 20" enable-background="new 0 0 20 20" xml:space="preserve">
<g>
	<path fill="#EDC92C" d="M19.69,10c0,5.352-4.339,9.69-9.69,9.69S0.31,15.352,0.31,10c0-5.351,4.339-9.69,9.69-9.69
		S19.69,4.648,19.69,10z"/>
	<path fill="#202121" d="M13.083,15.188c0,0.818-0.417,1.234-1.233,1.234H7.648c-0.818,0-1.234-0.416-1.234-1.234V5.058
		c0-0.819,0.417-1.235,1.234-1.235h4.201c0.817,0,1.233,0.417,1.233,1.235V15.188z"/>
	<path fill="#121212" d="M10.261,15.558c0,0.274-0.221,0.495-0.495,0.495c-0.272,0-0.493-0.221-0.493-0.495
		c0-0.272,0.221-0.494,0.493-0.494C10.04,15.063,10.261,15.285,10.261,15.558z"/>
	<path fill="#202121" d="M9.84,15.754H9.694c-0.033,0-0.064-0.012-0.087-0.035c-0.023-0.023-0.036-0.055-0.036-0.087v-0.146
		c0-0.067,0.055-0.123,0.123-0.123H9.84c0.033,0,0.063,0.013,0.087,0.035c0.022,0.023,0.035,0.055,0.035,0.088v0.146
		C9.962,15.699,9.906,15.755,9.84,15.754L9.84,15.754z M9.841,15.439H9.694c-0.025,0-0.047,0.021-0.047,0.045v0.146
		c0,0.013,0.006,0.023,0.014,0.033c0.009,0.01,0.021,0.014,0.033,0.014H9.84c0.025,0,0.046-0.021,0.046-0.047v-0.146
		c0-0.013-0.006-0.023-0.014-0.032C9.863,15.444,9.852,15.439,9.841,15.439z"/>
	<path d="M10.531,4.749c0,0.08-0.065,0.144-0.144,0.144H9.11c-0.079,0-0.144-0.064-0.144-0.144l0,0c0-0.079,0.065-0.143,0.144-0.143
		h1.277C10.467,4.606,10.531,4.671,10.531,4.749L10.531,4.749z"/>
	<path fill="#67B8CB" d="M6.722,5.397h6.022v9.203H6.722V5.397z"/>
	<path fill="#357180" d="M15.13,5.471c-2.142,0-3.876,1.322-3.876,2.951c0,0.542,0.195,1.047,0.53,1.483l-0.518,1.739l2.16-0.577
		c0.515,0.193,1.092,0.306,1.706,0.306c2.142,0,3.876-1.322,3.876-2.951s-1.734-2.95-3.876-2.95L15.13,5.471z"/>
	<path fill="#67B8CB" d="M14.068,8.434c0,0.261-0.21,0.473-0.473,0.473c-0.26,0-0.472-0.212-0.472-0.473s0.212-0.472,0.472-0.472
		C13.858,7.962,14.068,8.173,14.068,8.434z"/>
	<path fill="#67B8CB" d="M15.615,8.434c0,0.261-0.212,0.473-0.473,0.473S14.67,8.694,14.67,8.434s0.212-0.472,0.473-0.472
		S15.615,8.173,15.615,8.434z"/>
	<path fill="#67B8CB" d="M17.159,8.434c0,0.261-0.211,0.473-0.472,0.473c-0.262,0-0.473-0.212-0.473-0.473s0.211-0.472,0.473-0.472
		C16.948,7.962,17.159,8.173,17.159,8.434z"/>
</g>
</svg>
