<?xml version="1.0" encoding="utf-8"?>
<!-- Generator: Adobe Illustrator 16.0.0, SVG Export Plug-In . SVG Version: 6.00 Build 0)  -->
<!DOCTYPE svg PUBLIC "-//W3C//DTD SVG 1.1//EN" "http://www.w3.org/Graphics/SVG/1.1/DTD/svg11.dtd">
<svg version="1.1" id="Layer_1" xmlns="http://www.w3.org/2000/svg" xmlns:xlink="http://www.w3.org/1999/xlink" x="0px" y="0px"
	 width="20px" height="20px" viewBox="0 0 20 20" enable-background="new 0 0 20 20" xml:space="preserve">
<g>
	<path fill="#F28400" d="M19.69,10c0,5.351-4.338,9.69-9.69,9.69S0.31,15.353,0.31,10c0-5.352,4.338-9.69,9.69-9.69
		S19.69,4.647,19.69,10z"/>
	<path fill="#F9C645" d="M16.485,10.049c0,3.57-2.894,6.463-6.462,6.463c-3.567,0-6.461-2.894-6.461-6.463s2.894-6.462,6.461-6.462
		C13.592,3.587,16.485,6.48,16.485,10.049z"/>
	<path fill="#DC494A" d="M13.339,10.049c0,1.831-1.484,3.315-3.315,3.315c-1.83,0-3.314-1.484-3.314-3.315s1.484-3.315,3.314-3.315
		C11.854,6.733,13.339,8.218,13.339,10.049z"/>
	<path fill="#E5E5E5" d="M14.255,13.986L9.78,9.727v6.135l1.375-1.081l1.022,2.437l1.296-0.545l-1.019-2.428L14.255,13.986z"/>
</g>
</svg>
