<?xml version="1.0" encoding="utf-8"?>
<!-- Generator: Adobe Illustrator 16.0.0, SVG Export Plug-In . SVG Version: 6.00 Build 0)  -->
<!DOCTYPE svg PUBLIC "-//W3C//DTD SVG 1.1//EN" "http://www.w3.org/Graphics/SVG/1.1/DTD/svg11.dtd">
<svg version="1.1" id="Layer_1" xmlns="http://www.w3.org/2000/svg" xmlns:xlink="http://www.w3.org/1999/xlink" x="0px" y="0px"
	 width="20px" height="20px" viewBox="0 0 20 20" enable-background="new 0 0 20 20" xml:space="preserve">
<g>
	<path fill="#49A0AE" d="M19.69,10c0,5.352-4.338,9.69-9.69,9.69c-5.352,0-9.69-4.339-9.69-9.69c0-5.351,4.339-9.69,9.69-9.69
		C15.353,0.31,19.69,4.648,19.69,10z"/>
	<path fill="#C12C2B" d="M13.277,9.694h3.792c-0.181-3.623-3.084-6.527-6.707-6.708v3.793C11.895,6.945,13.111,8.162,13.277,9.694z"
		/>
	<path fill="#C12C2B" d="M9.513,6.796v-3.8c-3.561,0.243-6.399,3.12-6.577,6.699h3.794c0.161-1.488,1.314-2.679,2.785-2.898
		L9.513,6.796z"/>
	<path fill="#C12C2B" d="M6.745,10.542H2.943c0.241,3.517,3.052,6.327,6.568,6.567v-3.8C8.085,13.097,6.956,11.969,6.745,10.542
		L6.745,10.542z"/>
	<path fill="#C12C2B" d="M10.362,13.326v3.794c3.577-0.18,6.454-3.017,6.698-6.578H13.26C13.041,12.013,11.851,13.167,10.362,13.326
		L10.362,13.326z"/>
	<path fill="#CC3432" d="M10.002,13.347c-1.818,0-3.293-1.475-3.293-3.293c0-1.818,1.476-3.292,3.293-3.292
		c1.818,0,3.294,1.475,3.294,3.292C13.296,11.872,11.82,13.347,10.002,13.347z M10.002,4.346c-3.151,0-5.707,2.555-5.707,5.707
		c0,3.152,2.555,5.708,5.707,5.708s5.707-2.556,5.707-5.708C15.709,6.902,13.154,4.346,10.002,4.346z"/>
	<path fill="#D84141" d="M10.002,6.107c-2.179,0-3.945,1.767-3.945,3.945s1.767,3.945,3.945,3.945s3.946-1.767,3.946-3.945
		C13.948,7.873,12.181,6.107,10.002,6.107z M10.002,13.347c-1.818,0-3.293-1.475-3.293-3.293c0-1.818,1.476-3.292,3.293-3.292
		c1.818,0,3.294,1.475,3.294,3.292C13.296,11.872,11.82,13.347,10.002,13.347z"/>
	<path fill="#FFFFFF" d="M10.002,13.332c-0.166,0-0.329-0.012-0.489-0.036v3.813c0.163,0.012,0.325,0.02,0.489,0.02
		c0.12,0,0.24-0.004,0.36-0.01v-3.808C10.243,13.324,10.123,13.332,10.002,13.332L10.002,13.332z"/>
	<path fill="#FFFFFF" d="M10.002,6.774c0.121,0,0.241,0.007,0.36,0.02V2.986c-0.119-0.006-0.24-0.01-0.36-0.01
		c-0.164,0-0.327,0.007-0.489,0.019v3.816C9.673,6.787,9.836,6.774,10.002,6.774z"/>
	<path fill="#FFFFFF" d="M6.72,10.053c0-0.121,0.008-0.241,0.02-0.359H2.936C2.93,9.812,2.927,9.933,2.927,10.053
		c0,0.165,0.007,0.328,0.019,0.489h3.812C6.732,10.384,6.72,10.22,6.72,10.053z"/>
	<path fill="#FFFFFF" d="M17.069,9.694h-3.808c0.014,0.118,0.02,0.238,0.02,0.359c0,0.167-0.013,0.331-0.036,0.489h3.814
		c0.013-0.161,0.019-0.324,0.019-0.489C17.078,9.933,17.076,9.813,17.069,9.694L17.069,9.694z"/>
</g>
</svg>
