<?xml version="1.0" encoding="utf-8"?>
<!-- Generated by IcoMoon.io -->
<!DOCTYPE svg PUBLIC "-//W3C//DTD SVG 1.1//EN" "http://www.w3.org/Graphics/SVG/1.1/DTD/svg11.dtd">
<svg version="1.1" xmlns="http://www.w3.org/2000/svg" xmlns:xlink="http://www.w3.org/1999/xlink" width="20" height="20" viewBox="0 0 20 20">
<path fill="rgb(50, 190, 166)" d="M0.309 10c0-5.352 4.339-9.691 9.69-9.691s9.691 4.338 9.691 9.691c0 5.352-4.339 9.69-9.691 9.69s-9.69-4.339-9.69-9.69z"></path>
<path fill="rgb(255, 255, 255)" d="M15.292 8.378h-3.69v-3.669c0-0.155-0.126-0.281-0.281-0.281h-2.661c-0.155 0-0.281 0.126-0.281 0.281v3.669h-3.669c-0.155 0-0.281 0.126-0.281 0.281v2.703c0 0.155 0.126 0.281 0.281 0.281h3.669v3.649c0 0.155 0.126 0.281 0.281 0.281h2.661c0.155 0 0.281-0.126 0.281-0.281v-3.649h3.69c0.155 0 0.281-0.126 0.281-0.281v-2.703c0-0.155-0.126-0.281-0.281-0.281z"></path>
</svg>
