<?xml version="1.0" encoding="utf-8"?>
<!-- Generator: Adobe Illustrator 16.0.0, SVG Export Plug-In . SVG Version: 6.00 Build 0)  -->
<!DOCTYPE svg PUBLIC "-//W3C//DTD SVG 1.1//EN" "http://www.w3.org/Graphics/SVG/1.1/DTD/svg11.dtd">
<svg version="1.1" id="Layer_1" xmlns="http://www.w3.org/2000/svg" xmlns:xlink="http://www.w3.org/1999/xlink" x="0px" y="0px"
	 width="20px" height="20px" viewBox="0 0 20 20" enable-background="new 0 0 20 20" xml:space="preserve">
<g>
	<path fill="#4ABC96" d="M19.69,10c0,5.352-4.339,9.69-9.69,9.69S0.31,15.352,0.31,10c0-5.351,4.339-9.69,9.69-9.69
		S19.69,4.648,19.69,10z"/>
	<path fill="#357180" d="M10.33,16.767c-0.211-0.098-0.34-0.166-0.34-0.315c0-0.134,0.065-0.198,0.198-0.198
		c0.14,0,0.208,0.066,0.252,0.244l0.017,0.065h0.239l-0.048-0.547l-0.074-0.005c-0.051-0.003-0.101-0.013-0.151-0.023
		c-0.07-0.013-0.142-0.028-0.217-0.028c-0.375,0-0.647,0.233-0.647,0.552c0,0.397,0.289,0.53,0.521,0.639
		c0.189,0.088,0.298,0.144,0.298,0.268c0,0.057,0,0.231-0.258,0.231c-0.095,0-0.24-0.05-0.269-0.106
		c-0.021-0.043-0.06-0.137-0.078-0.282L9.76,17.155l-0.239,0.08l0.032,0.514l0.033,0.023c0.141,0.101,0.377,0.146,0.55,0.146
		c0.396,0,0.672-0.252,0.672-0.614C10.808,16.991,10.544,16.867,10.33,16.767L10.33,16.767z"/>
	<path fill="#357180" d="M3.643,9.384l0.224,0.039l-0.266,0.849L3.333,9.423l0.215-0.039V9.138H2.711v0.245l0.213,0.039
		C2.908,9.475,2.886,9.535,2.862,9.603L2.648,10.27L2.407,9.422l0.21-0.039V9.138H1.781v0.243l0.206,0.047l0.461,1.627h0.258
		L3.072,9.97l0.346,1.085h0.256l0.522-1.628L4.379,9.38V9.139H3.646v0.246L3.643,9.384z"/>
	<path fill="#357180" d="M10.464,2.561l0.225,0.043v0.896l-1.03-1.183H9.058v0.244l0.216,0.043v1.303L9.058,3.94v0.248h0.802V3.939
		L9.618,3.905V2.932c0.172,0.193,0.413,0.468,0.628,0.712s0.401,0.457,0.472,0.534l0.025,0.028h0.29V2.604l0.217-0.043V2.316h-0.787
		L10.464,2.561L10.464,2.561z"/>
	<path fill="#357180" d="M17.329,10.423l-0.094,0.25h-0.51v-0.48L17,10.197l0.045,0.191h0.244l-0.012-0.098
		c-0.018-0.132-0.018-0.347,0-0.469l0.013-0.1h-0.245l-0.043,0.182h-0.275V9.466h0.367l0.068,0.224h0.237l-0.052-0.553h-1.286v0.245
		l0.231,0.043v1.304l-0.231,0.043v0.237h1.387l0.147-0.587L17.329,10.423L17.329,10.423z"/>
	<path fill="#357180" d="M10.364,7.286l0.456-0.002l-0.457-1.887c-0.006-0.029-0.013-0.057-0.02-0.083l-0.001-0.004
		c-0.041-0.129-0.124-0.223-0.293-0.223c-0.211,0-0.289,0.146-0.316,0.325l-0.51,1.878L10.364,7.286L10.364,7.286z"/>
	<path fill="#B0DFE3" d="M10.049,5.089c-0.211,0-0.289,0.146-0.316,0.325l-0.51,1.878l0.819-0.008L10.049,5.089L10.049,5.089z"/>
	<path fill="#357180" d="M12.75,10.376l0.002,0.455l1.888-0.456c0.028-0.006,0.055-0.012,0.082-0.021l0.003-0.001
		c0.129-0.04,0.224-0.123,0.224-0.292c0-0.212-0.147-0.289-0.326-0.316l-1.878-0.51l0.002,0.505L12.75,10.376L12.75,10.376z"/>
	<path fill="#B0DFE3" d="M14.948,10.061c0-0.212-0.146-0.289-0.325-0.316l-1.878-0.51l0.008,0.819L14.948,10.061L14.948,10.061z"/>
	<path fill="#357180" d="M9.703,12.78l-0.455,0.004l0.456,1.886c0.006,0.029,0.013,0.058,0.02,0.083l0.002,0.004
		c0.04,0.129,0.123,0.224,0.292,0.224c0.211,0,0.289-0.146,0.316-0.327l0.511-1.878l-1.143,0.007L9.703,12.78z"/>
	<path fill="#B0DFE3" d="M10.019,14.978c0.212,0,0.289-0.146,0.316-0.326l0.51-1.878l-0.819,0.01L10.019,14.978L10.019,14.978z"/>
	<path fill="#357180" d="M7.283,9.742L7.28,9.286L5.395,9.743c-0.029,0.005-0.057,0.012-0.083,0.02L5.309,9.764
		C5.18,9.805,5.087,9.888,5.087,10.057c0,0.211,0.146,0.29,0.325,0.316l1.878,0.51l-0.003-0.505L7.283,9.742L7.283,9.742z"/>
	<path fill="#B0DFE3" d="M5.086,10.058c0,0.211,0.145,0.29,0.325,0.316l1.878,0.51l-0.01-0.82L5.086,10.058L5.086,10.058z"/>
	<path fill="#357180" d="M10.025,7.158c-1.595,0-2.887,1.294-2.887,2.888c0,1.595,1.292,2.888,2.887,2.888s2.889-1.293,2.889-2.888
		C12.914,8.452,11.621,7.158,10.025,7.158z M10.025,12.555c-1.385,0-2.509-1.124-2.509-2.51s1.124-2.51,2.509-2.51
		c1.386,0,2.51,1.124,2.51,2.51S11.411,12.555,10.025,12.555z"/>
</g>
</svg>
