<?xml version="1.0" encoding="utf-8"?>
<!-- Generator: Adobe Illustrator 16.0.0, SVG Export Plug-In . SVG Version: 6.00 Build 0)  -->
<!DOCTYPE svg PUBLIC "-//W3C//DTD SVG 1.1//EN" "http://www.w3.org/Graphics/SVG/1.1/DTD/svg11.dtd">
<svg version="1.1" id="Layer_1" xmlns="http://www.w3.org/2000/svg" xmlns:xlink="http://www.w3.org/1999/xlink" x="0px" y="0px"
	 width="20px" height="20px" viewBox="0 0 20 20" enable-background="new 0 0 20 20" xml:space="preserve">
<g>
	<path fill="#1FA85B" d="M19.69,10c0,5.352-4.338,9.689-9.69,9.689c-5.352,0-9.69-4.338-9.69-9.689c0-5.351,4.339-9.69,9.69-9.69
		C15.353,0.31,19.69,4.648,19.69,10z"/>
	<path fill="#81C78B" d="M15.353,12.137c-0.749-0.719-1.508-1.174-2.416-0.502c-0.914,0.676-1.012,1.428-1.012,1.428
		s0.086,1.438-3.382-1.682C5.422,7.912,6.86,7.998,6.86,7.998s0.752-0.096,1.427-1.011C8.96,6.079,8.485,5.34,7.785,4.569
		c-2.242-2.462-3.6,0.336-3.6,0.336c-1.587,2.671,1.058,5.844,3.099,7.735c1.892,2.041,5.064,4.682,7.732,3.096
		C15.017,15.736,17.85,14.541,15.353,12.137L15.353,12.137z"/>
	<path fill="#404040" d="M5.427,3.669C5.425,3.67,5.424,3.671,5.422,3.672c0.02-0.008,0.041-0.016,0.061-0.023
		C5.464,3.655,5.444,3.662,5.427,3.669L5.427,3.669z"/>
	<path fill="#63BD71" d="M12.468,4.778c0.597,0,1.195,0,1.792,0c0.324,0,0.596,0.271,0.596,0.596c0,0.596,0,1.192,0,1.788
		c0,0.769-1.191,0.77-1.191,0c0-0.596,0-1.192,0-1.788c0.199,0.198,0.396,0.396,0.596,0.596c-0.597,0-1.195,0-1.792,0
		C11.698,5.97,11.698,4.778,12.468,4.778L12.468,4.778z"/>
	<path fill="#63BD71" d="M11.435,6.506c0.424,0,0.848,0,1.271,0c0.231,0,0.424,0.192,0.424,0.422c0,0.422,0,0.845,0,1.267
		c0,0.544-0.845,0.544-0.845,0c0-0.423,0-0.845,0-1.268c0.141,0.142,0.281,0.282,0.422,0.423c-0.422,0-0.846,0-1.271,0
		c-0.545,0-0.545-0.846,0-0.846l0,0L11.435,6.506z"/>
	<path fill="#63BD71" d="M10.453,7.841c0.334,0,0.67,0,1.004,0c0.183,0,0.334,0.152,0.334,0.334c0,0.334,0,0.668,0,1.001
		c0,0.431-0.667,0.431-0.667,0c0-0.334,0-0.668,0-1.002c0.11,0.111,0.223,0.224,0.333,0.334c-0.333,0-0.668,0-1.003,0
		C10.023,8.509,10.022,7.84,10.453,7.841L10.453,7.841L10.453,7.841z"/>
	<path fill="#63BD71" d="M9.688,8.914c0.258,0,0.516,0,0.773,0c0.141,0,0.257,0.118,0.257,0.258c0,0.258,0,0.515,0,0.772
		c0,0.333-0.514,0.333-0.514,0c0-0.257,0-0.515,0-0.772c0.086,0.086,0.172,0.172,0.258,0.258c-0.258,0-0.516,0-0.773,0
		c-0.331,0-0.331-0.514,0-0.514l0,0L9.688,8.914z"/>
</g>
</svg>
