<?xml version="1.0" encoding="utf-8"?>
<!-- Generator: Adobe Illustrator 16.0.0, SVG Export Plug-In . SVG Version: 6.00 Build 0)  -->
<!DOCTYPE svg PUBLIC "-//W3C//DTD SVG 1.1//EN" "http://www.w3.org/Graphics/SVG/1.1/DTD/svg11.dtd">
<svg version="1.1" id="Layer_1" xmlns="http://www.w3.org/2000/svg" xmlns:xlink="http://www.w3.org/1999/xlink" x="0px" y="0px"
	 width="20px" height="20px" viewBox="0 0 20 20" enable-background="new 0 0 20 20" xml:space="preserve">
<g>
	<path fill="#FFC50B" d="M19.69,10c0,5.351-4.338,9.69-9.69,9.69S0.31,15.353,0.31,10c0-5.352,4.338-9.69,9.69-9.69
		S19.69,4.647,19.69,10z"/>
	<path fill="#D62127" d="M13.212,4.886c-1.178,0-2.271,0.573-2.93,1.536l-0.136,0.173l-0.091-0.115
		C9.405,5.48,8.308,4.887,7.118,4.887c-2.031,0-3.505,1.474-3.505,3.504c0,2.999,5.428,7.418,5.823,7.736
		c0.188,0.179,0.432,0.276,0.691,0.276c0.259,0,0.504-0.098,0.69-0.278c0.397-0.319,5.898-4.809,5.898-7.734
		C16.717,6.36,15.243,4.887,13.212,4.886L13.212,4.886z"/>
</g>
</svg>
