<?xml version="1.0" encoding="utf-8"?>
<!-- Generator: Adobe Illustrator 16.0.0, SVG Export Plug-In . SVG Version: 6.00 Build 0)  -->
<!DOCTYPE svg PUBLIC "-//W3C//DTD SVG 1.1//EN" "http://www.w3.org/Graphics/SVG/1.1/DTD/svg11.dtd">
<svg version="1.1" id="Layer_1" xmlns="http://www.w3.org/2000/svg" xmlns:xlink="http://www.w3.org/1999/xlink" x="0px" y="0px"
	 width="20px" height="20px" viewBox="0 0 20 20" enable-background="new 0 0 20 20" xml:space="preserve">
<g>
	<path fill="#32BEA6" d="M0.31,10c0-5.353,4.339-9.691,9.69-9.691c5.351,0,9.69,4.338,9.69,9.691c0,5.352-4.338,9.691-9.69,9.691
		S0.31,15.352,0.31,10z"/>
	<path fill="#F7F7F7" d="M15.967,6.934c-0.098-0.19-0.573-0.625-1.377-0.23c-0.803,0.395-0.415,1.264-0.415,1.264
		c0.299,0.614,0.469,1.304,0.469,2.033c0,2.563-2.078,4.642-4.643,4.642s-4.642-2.078-4.642-4.642c0-2.399,1.82-4.373,4.155-4.616
		v1.203c0,0-0.003,0.072,0.071,0.117c0.074,0.045,0.148,0,0.148,0l3.852-2.269c0,0,0.086-0.045,0.086-0.134
		c0-0.073-0.086-0.125-0.086-0.125L9.748,1.921c0,0-0.088-0.063-0.165-0.032C9.506,1.92,9.515,2.025,9.515,2.025v1.289
		c-3.476,0.25-6.22,3.147-6.22,6.688c0,3.705,3.003,6.707,6.707,6.707s6.707-3.002,6.707-6.707
		C16.709,8.897,16.44,7.854,15.967,6.934L15.967,6.934z"/>
</g>
</svg>
