<?xml version="1.0" encoding="utf-8"?>
<!-- Generated by IcoMoon.io -->
<!DOCTYPE svg PUBLIC "-//W3C//DTD SVG 1.1//EN" "http://www.w3.org/Graphics/SVG/1.1/DTD/svg11.dtd">
<svg version="1.1" xmlns="http://www.w3.org/2000/svg" xmlns:xlink="http://www.w3.org/1999/xlink" width="20" height="20" viewBox="0 0 20 20">
<path fill="rgb(72, 161, 175)" d="M10 0.31c-5.352 0-9.691 4.338-9.691 9.691s4.339 9.69 9.691 9.69c5.352 0 9.69-4.339 9.69-9.69s-4.339-9.691-9.69-9.691z"></path>
<path fill="rgb(221, 221, 221)" d="M15.089 13.742l-6.866-6.84c0 0 0.476-1.415-0.271-2.162s-1.878-0.6-1.878-0.6l-0.388 0.388 0.953 0.953 0.245 0.844-0.597 0.597-0.95-0.239-0.903-0.903-0.28 0.281c0 0-0.207 1.071 0.6 1.878s2.056 0.248 2.056 0.248l6.923 6.913c0.229 0.229 0.817 0.247 1.23-0.166s0.37-0.946 0.126-1.19z"></path>
<path fill="rgb(232, 232, 232)" d="M14.823 14.351c0 0.265-0.215 0.48-0.48 0.48s-0.48-0.215-0.48-0.48c0-0.265 0.215-0.48 0.48-0.48s0.48 0.215 0.48 0.48z"></path>
<path fill="rgb(206, 206, 206)" d="M14.588 14.351c0 0.136-0.11 0.245-0.245 0.245s-0.245-0.11-0.245-0.245c0-0.136 0.11-0.245 0.245-0.245s0.245 0.11 0.245 0.245z"></path>
<path fill="rgb(232, 232, 232)" d="M13.47 12.682l-4.704-4.704c-0.22-0.22-0.576-0.22-0.796 0s-0.22 0.576 0 0.796l4.704 4.704c0.22 0.22 0.576 0.22 0.796 0s0.22-0.576 0-0.796z"></path>
<path fill="rgb(204, 204, 204)" d="M15.128 4.75l-0.478-0.478c-0.127-0.127-0.257-0.202-0.333-0.127-0.744 0.744-0.614 1.131-0.614 1.131-0.007 0.007-0.013 0.014-0.018 0.022-0.008 0.005-0.015 0.011-0.022 0.018l-6.231 6.231c-0.057 0.057-0.057 0.149 0 0.206l0.214 0.214c0.057 0.057 0.149 0.057 0.206-0l6.231-6.231c0.007-0.007 0.012-0.014 0.018-0.022 0.008-0.005 0.015-0.011 0.022-0.018 0 0 0.414 0.103 1.131-0.614 0.077-0.077 0-0.206-0.127-0.332z"></path>
<path fill="rgb(226, 226, 226)" d="M14.899 4.521l-0.249-0.249c-0.127-0.127-0.257-0.202-0.333-0.127-0.744 0.744-0.614 1.131-0.614 1.131-0.007 0.007-0.013 0.014-0.018 0.022-0.008 0.005-0.015 0.011-0.022 0.018l-6.231 6.231c-0.057 0.057-0.057 0.149 0 0.206l0.106 0.105c0 0 7.487-7.211 7.36-7.337z"></path>
<path fill="rgb(190, 225, 229)" d="M8.85 11.313l-0.763-0.763c-0.202-0.202-0.532-0.2-0.737 0.005l-3.098 3.098c-0.205 0.205-0.207 0.535-0.005 0.737l0.763 0.763c0.202 0.202 0.532 0.2 0.737-0.005l3.097-3.098c0.205-0.205 0.207-0.535 0.005-0.737z"></path>
<path fill="rgb(151, 191, 191)" d="M7.556 11.414l-0.164-0.164c-0.142-0.142-2.799 2.516-2.657 2.657l0.164 0.164c0.142 0.142 2.799-2.516 2.657-2.657z"></path>
<path fill="rgb(169, 209, 211)" d="M7.556 11.414l-0.164-0.164-2.657 2.657 0.164 0.164c0.142 0.142 2.799-2.516 2.657-2.657z"></path>
<path fill="rgb(151, 191, 191)" d="M8.125 11.983l-0.164-0.164c-0.142-0.142-2.799 2.516-2.657 2.657l0.164 0.164c0.142 0.142 2.799-2.516 2.657-2.657z"></path>
<path fill="rgb(169, 209, 211)" d="M8.127 11.986l-0.164-0.164-2.658 2.657 0.164 0.164c0.142 0.142 2.799-2.516 2.657-2.657z"></path>
</svg>
