<?xml version="1.0" encoding="utf-8"?>
<!-- Generator: Adobe Illustrator 16.0.0, SVG Export Plug-In . SVG Version: 6.00 Build 0)  -->
<!DOCTYPE svg PUBLIC "-//W3C//DTD SVG 1.1//EN" "http://www.w3.org/Graphics/SVG/1.1/DTD/svg11.dtd">
<svg version="1.1" id="Layer_1" xmlns="http://www.w3.org/2000/svg" xmlns:xlink="http://www.w3.org/1999/xlink" x="0px" y="0px"
	 width="20px" height="20px" viewBox="0 0 20 20" enable-background="new 0 0 20 20" xml:space="preserve">
<g>
	<path fill="#9F77AA" d="M19.69,10c0,5.351-4.338,9.69-9.69,9.69c-5.352,0-9.69-4.339-9.69-9.69S4.648,0.31,10,0.31
		C15.353,0.31,19.69,4.647,19.69,10z"/>
	<path fill="#828282" d="M9.216,16.482l-0.142,0.312c0,0.38,0.426,0.843,1.167,0.843s1.239-0.462,1.239-0.843l-0.141-0.312H9.216
		L9.216,16.482z"/>
	<path fill="#C0C0C0" d="M8.765,15.854l-0.201,0.402c0,0.49,0.605,1.088,1.662,1.088c1.056,0,1.768-0.598,1.768-1.088l-0.202-0.402
		H8.765z"/>
	<path fill="#939292" d="M8.6,15.311l-0.223,0.445c0,0.545,0.672,1.208,1.844,1.208c1.171,0,1.958-0.663,1.958-1.208l-0.223-0.445
		H8.6L8.6,15.311z"/>
	<path fill="#C0C0C0" d="M8.541,14.82l-0.23,0.461c0,0.562,0.696,1.25,1.907,1.25c1.212,0,2.028-0.688,2.028-1.25l-0.229-0.461
		H8.541z"/>
	<path fill="#A19F9F" d="M8.541,14.36l-0.23,0.46c0,0.563,0.696,1.249,1.907,1.249c1.212,0,2.028-0.686,2.028-1.249l-0.229-0.46
		H8.541z"/>
	<path fill="#C0C0C0" d="M11.193,13.109H9.364c-0.582,0-1.054,0.456-1.054,1.02v0.231c0,0.562,0.696,1.248,1.907,1.248
		c1.212,0,2.028-0.687,2.028-1.248v-0.231C12.246,13.565,11.774,13.109,11.193,13.109z"/>
	<path fill="#F4E028" d="M12.103,13.817c0-2.182,3.138-2.582,3.138-6.115c0-2.762-2.237-4.999-5-5c-2.762,0.001-4.999,2.237-4.999,5
		c0,3.422,3.204,3.893,3.204,6.119c0,1.435,3.655,1.47,3.655-0.004H12.103z"/>
	<path fill="#F6E568" d="M6.107,8.072C5.365,7.33,6.18,5.276,6.922,4.535s2.538-1.446,3.279-0.704
		C10.943,4.573,6.85,8.814,6.107,8.072z"/>
	<path fill="#F3E375" d="M11.595,11.062c-0.063-0.149-0.206-0.097-0.206-0.097c-0.401,0.127-0.808,1.201-1.054,1.975
		c-0.245-0.773-0.652-1.848-1.053-1.975c0,0-0.142-0.051-0.206,0.097c-0.06,0.139,0.054,0.224,0.098,0.25
		c0.246,0.152,0.598,0.974,0.908,2.032c0.031,0.106,0.063,1.451,0.095,1.561c0,0,0.088,0.007,0.158,0.007
		c0.089,0,0.169-0.009,0.169-0.009c0.031-0.112,0.058-1.456,0.09-1.564c0.31-1.056,0.661-1.875,0.904-2.026
		c0.043-0.027,0.159-0.111,0.099-0.25H11.595z"/>
</g>
</svg>
