<?xml version="1.0" encoding="utf-8"?>
<!-- Generator: Adobe Illustrator 16.0.0, SVG Export Plug-In . SVG Version: 6.00 Build 0)  -->
<!DOCTYPE svg PUBLIC "-//W3C//DTD SVG 1.1//EN" "http://www.w3.org/Graphics/SVG/1.1/DTD/svg11.dtd">
<svg version="1.1" id="Layer_1" xmlns="http://www.w3.org/2000/svg" xmlns:xlink="http://www.w3.org/1999/xlink" x="0px" y="0px"
	 width="20px" height="20px" viewBox="0 0 20 20" enable-background="new 0 0 20 20" xml:space="preserve">
<g>
	<path fill="#E84849" d="M19.69,10c0,5.351-4.338,9.69-9.69,9.69S0.31,15.353,0.31,10c0-5.352,4.338-9.69,9.69-9.69
		S19.69,4.647,19.69,10z"/>
	<path fill="#EDC92C" d="M17.046,13.964L10.397,3.249c-0.077-0.124-0.214-0.201-0.361-0.201S9.753,3.125,9.675,3.249L3.009,13.993
		c-0.081,0.131-0.085,0.296-0.01,0.432c0.075,0.133,0.217,0.216,0.37,0.216h13.335c0.235,0,0.425-0.189,0.425-0.425
		C17.129,14.122,17.099,14.034,17.046,13.964L17.046,13.964z"/>
	<path d="M9.544,10.21L9.406,8.147C9.38,7.746,9.367,7.457,9.367,7.282c0-0.239,0.063-0.424,0.188-0.558
		c0.125-0.134,0.29-0.2,0.493-0.2c0.247,0,0.412,0.086,0.496,0.256c0.082,0.171,0.125,0.419,0.125,0.738
		c0,0.189-0.012,0.383-0.031,0.577l-0.186,2.123c-0.02,0.252-0.062,0.446-0.13,0.583c-0.067,0.135-0.176,0.201-0.327,0.201
		c-0.155,0-0.264-0.064-0.323-0.195s-0.104-0.33-0.13-0.598H9.544z M10.022,13.044c-0.175,0-0.328-0.057-0.458-0.169
		c-0.13-0.113-0.196-0.272-0.196-0.476c0-0.178,0.063-0.33,0.188-0.455c0.125-0.124,0.277-0.187,0.459-0.187
		c0.181,0,0.335,0.062,0.463,0.187c0.128,0.127,0.191,0.277,0.191,0.455c0,0.201-0.064,0.358-0.193,0.473
		C10.347,12.987,10.195,13.044,10.022,13.044z"/>
</g>
</svg>
