<?xml version="1.0" encoding="utf-8"?>
<!-- Generated by IcoMoon.io -->
<!DOCTYPE svg PUBLIC "-//W3C//DTD SVG 1.1//EN" "http://www.w3.org/Graphics/SVG/1.1/DTD/svg11.dtd">
<svg version="1.1" xmlns="http://www.w3.org/2000/svg" xmlns:xlink="http://www.w3.org/1999/xlink" width="20" height="20" viewBox="0 0 20 20">
<path fill="rgb(224, 79, 95)" d="M19.691 10c0-5.352-4.339-9.691-9.69-9.691s-9.691 4.338-9.691 9.691c0 5.352 4.339 9.69 9.691 9.69s9.69-4.339 9.69-9.69z"></path>
<path fill="rgb(255, 255, 255)" d="M16.098 13.513c0 0.293-0.237 0.53-0.53 0.53h-11.136c-0.293 0-0.53-0.237-0.53-0.53v-7.027c0-0.293 0.237-0.53 0.53-0.53h11.136c0.293 0 0.53 0.237 0.53 0.53v7.027z"></path>
<path fill="rgb(224, 79, 95)" d="M13.415 9.65l-4.81-2.953c-0.131-0.081-0.304-0.084-0.438-0.009-0.137 0.077-0.222 0.222-0.222 0.378v5.883c0 0.156 0.085 0.301 0.221 0.378 0.065 0.036 0.138 0.056 0.212 0.056 0.080 0 0.158-0.022 0.226-0.063l4.81-2.93c0.128-0.078 0.208-0.22 0.208-0.369s-0.079-0.292-0.207-0.37z"></path>
</svg>
