<?xml version="1.0" encoding="utf-8"?>
<!-- Generator: Adobe Illustrator 16.0.0, SVG Export Plug-In . SVG Version: 6.00 Build 0)  -->
<!DOCTYPE svg PUBLIC "-//W3C//DTD SVG 1.1//EN" "http://www.w3.org/Graphics/SVG/1.1/DTD/svg11.dtd">
<svg version="1.1" id="Layer_1" xmlns="http://www.w3.org/2000/svg" xmlns:xlink="http://www.w3.org/1999/xlink" x="0px" y="0px"
	 width="20px" height="20px" viewBox="0 0 20 20" enable-background="new 0 0 20 20" xml:space="preserve">
<g>
	<path fill="#A2D4DE" d="M19.69,10c0,5.352-4.339,9.69-9.69,9.69S0.31,15.352,0.31,10c0-5.351,4.339-9.69,9.69-9.69
		S19.69,4.648,19.69,10z"/>
	<path fill="#5B4F3F" d="M6.025,9.337l-1.478,0.831l1.478,0.829c0.204,0.116,0.307,0.321,0.307,0.619
		c0,0.19-0.044,0.354-0.132,0.497s-0.198,0.215-0.328,0.215c-0.061,0-0.121-0.018-0.182-0.052l-2.615-1.471
		c-0.252-0.142-0.378-0.354-0.378-0.638c0-0.284,0.126-0.498,0.378-0.64L5.69,8.058c0.062-0.033,0.121-0.05,0.182-0.05
		c0.13,0,0.239,0.071,0.328,0.212c0.089,0.142,0.132,0.309,0.132,0.498C6.332,9.016,6.229,9.222,6.025,9.337z"/>
	<path fill="#5B4F3F" d="M13.675,8.717c0-0.189,0.044-0.355,0.132-0.498c0.088-0.142,0.198-0.212,0.328-0.212
		c0.061,0,0.122,0.017,0.182,0.05l2.616,1.471c0.252,0.143,0.376,0.355,0.376,0.639c0,0.284-0.124,0.497-0.376,0.64l-2.616,1.47
		c-0.062,0.034-0.121,0.051-0.182,0.051c-0.13,0-0.24-0.072-0.328-0.213c-0.088-0.144-0.132-0.309-0.132-0.498
		c0-0.299,0.102-0.505,0.307-0.619l1.478-0.83l-1.478-0.83C13.778,9.221,13.675,9.015,13.675,8.717z"/>
	<path fill="#5B4F3F" d="M10.675,13.103c-0.133,0.289-0.475,0.414-0.763,0.283l0,0c-0.289-0.133-0.415-0.475-0.283-0.764l2.63-5.723
		c0.132-0.289,0.472-0.414,0.762-0.282l0,0c0.289,0.133,0.416,0.475,0.283,0.762L10.675,13.103L10.675,13.103z"/>
</g>
</svg>
