<?xml version="1.0" encoding="utf-8"?>
<!-- Generated by IcoMoon.io -->
<!DOCTYPE svg PUBLIC "-//W3C//DTD SVG 1.1//EN" "http://www.w3.org/Graphics/SVG/1.1/DTD/svg11.dtd">
<svg version="1.1" xmlns="http://www.w3.org/2000/svg" xmlns:xlink="http://www.w3.org/1999/xlink" width="20" height="20" viewBox="0 0 20 20">
<path fill="rgb(224, 79, 95)" d="M19.691 10c0-5.352-4.339-9.691-9.69-9.691s-9.691 4.338-9.691 9.691c0 5.352 4.339 9.69 9.691 9.69s9.69-4.339 9.69-9.69z"></path>
<path fill="rgb(255, 255, 255)" d="M10.443 5.345c-0.133-0.072-0.295-0.066-0.422 0.017l-3.716 2.414h-1.374c-0.228 0-0.413 0.185-0.413 0.413v3.622c0 0.228 0.185 0.413 0.413 0.413h1.374l3.716 2.414c0.068 0.044 0.147 0.067 0.225 0.067 0.068 0 0.136-0.017 0.197-0.050 0.133-0.072 0.216-0.212 0.216-0.363v-8.583c-0-0.152-0.083-0.291-0.216-0.363z"></path>
<path fill="rgb(255, 255, 255)" d="M14.192 10l1.187-1.187c0.137-0.137 0.137-0.36 0-0.497s-0.36-0.137-0.497 0l-1.187 1.187-1.187-1.187c-0.137-0.137-0.36-0.137-0.497 0s-0.137 0.36 0 0.497l1.187 1.187-1.187 1.187c-0.137 0.137-0.137 0.36 0 0.497 0.069 0.069 0.159 0.103 0.249 0.103s0.18-0.034 0.249-0.103l1.187-1.187 1.187 1.187c0.069 0.069 0.159 0.103 0.249 0.103s0.18-0.034 0.249-0.103c0.137-0.137 0.137-0.36 0-0.497l-1.187-1.187z"></path>
</svg>
