<?xml version="1.0" encoding="utf-8"?>
<!-- Generated by IcoMoon.io -->
<!DOCTYPE svg PUBLIC "-//W3C//DTD SVG 1.1//EN" "http://www.w3.org/Graphics/SVG/1.1/DTD/svg11.dtd">
<svg version="1.1" xmlns="http://www.w3.org/2000/svg" xmlns:xlink="http://www.w3.org/1999/xlink" width="20" height="20" viewBox="0 0 20 20">
<path fill="rgb(229, 170, 23)" d="M19.766 10c0-5.352-4.339-9.691-9.69-9.691s-9.691 4.338-9.691 9.691c0 5.352 4.339 9.69 9.691 9.69s9.69-4.339 9.69-9.69z"></path>
<path fill="rgb(255, 255, 255)" d="M10.061 5.202c-0.133-0.072-0.295-0.066-0.422 0.017l-3.716 2.414h-1.374c-0.228 0-0.413 0.185-0.413 0.413v3.622c0 0.228 0.185 0.413 0.413 0.413h1.374l3.716 2.414c0.068 0.044 0.147 0.067 0.225 0.067 0.068 0 0.136-0.017 0.197-0.050 0.133-0.072 0.216-0.212 0.216-0.363v-8.583c-0-0.152-0.083-0.291-0.216-0.363z"></path>
<path fill="rgb(255, 255, 255)" d="M11.427 12.781c0.035 0 0.070-0.006 0.105-0.020 0.947-0.368 1.583-1.504 1.583-2.827 0-1.17-0.516-2.228-1.314-2.696-0.138-0.081-0.316-0.035-0.397 0.104s-0.035 0.316 0.104 0.397c0.624 0.366 1.027 1.228 1.027 2.196 0 1.069-0.499 2.009-1.213 2.286-0.149 0.058-0.223 0.226-0.165 0.375 0.045 0.115 0.154 0.185 0.27 0.185z"></path>
<path fill="rgb(255, 255, 255)" d="M12.184 13.99c0.035 0 0.070-0.006 0.105-0.020 1.33-0.516 2.259-2.187 2.259-4.062 0-1.687-0.738-3.209-1.879-3.878-0.138-0.081-0.316-0.035-0.397 0.104s-0.035 0.316 0.104 0.397c0.967 0.567 1.593 1.893 1.593 3.378 0 1.642-0.777 3.090-1.889 3.522-0.149 0.058-0.223 0.226-0.165 0.375 0.045 0.115 0.154 0.185 0.27 0.185z"></path>
<path fill="rgb(255, 255, 255)" d="M12.964 15.142c-0.117 0-0.228-0.071-0.273-0.187-0.059-0.151 0.016-0.321 0.167-0.379 1.514-0.588 2.572-2.516 2.572-4.688 0-1.958-0.844-3.718-2.15-4.484-0.14-0.082-0.186-0.261-0.105-0.401s0.261-0.186 0.401-0.105c1.482 0.868 2.44 2.827 2.44 4.989 0 2.409-1.211 4.561-2.946 5.234-0.035 0.014-0.071 0.020-0.106 0.020z"></path>
</svg>
