<?xml version="1.0" encoding="utf-8"?>
<!-- Generated by IcoMoon.io -->
<!DOCTYPE svg PUBLIC "-//W3C//DTD SVG 1.1//EN" "http://www.w3.org/Graphics/SVG/1.1/DTD/svg11.dtd">
<svg version="1.1" xmlns="http://www.w3.org/2000/svg" xmlns:xlink="http://www.w3.org/1999/xlink" width="20" height="20" viewBox="0 0 20 20">
<path fill="rgb(72, 161, 175)" d="M0.309 10c0-5.352 4.339-9.691 9.69-9.691s9.691 4.338 9.691 9.691c0 5.352-4.339 9.69-9.691 9.69s-9.69-4.339-9.69-9.69z"></path>
<path fill="rgb(255, 255, 255)" d="M3.279 10c0-3.712 3.009-6.722 6.721-6.722s6.722 3.009 6.722 6.722c0 3.712-3.009 6.721-6.722 6.721s-6.721-3.009-6.721-6.721z"></path>
<path fill="rgb(72, 161, 175)" d="M4.019 10c0-3.304 2.678-5.981 5.981-5.981s5.981 2.678 5.981 5.981c0 3.303-2.678 5.981-5.981 5.981s-5.981-2.678-5.981-5.981z"></path>
<path fill="rgb(255, 255, 255)" d="M10 10.922c-0.509 0-0.922-0.413-0.922-0.922s0.413-0.922 0.922-0.922c0.509 0 0.922 0.413 0.922 0.922s-0.413 0.922-0.922 0.922z"></path>
<path fill="rgb(255, 255, 255)" d="M10 10.301h-3.446c-0.166 0-0.301-0.135-0.301-0.301s0.135-0.301 0.301-0.301h3.446c0.166 0 0.301 0.135 0.301 0.301s-0.135 0.301-0.301 0.301z"></path>
<path fill="rgb(255, 255, 255)" d="M10 10.301c-0.077 0-0.154-0.029-0.213-0.088-0.117-0.117-0.117-0.308 0-0.425l2.436-2.436c0.117-0.117 0.308-0.117 0.425 0s0.117 0.308 0 0.425l-2.436 2.436c-0.059 0.059-0.136 0.088-0.213 0.088z"></path>
<path fill="rgb(255, 255, 255)" d="M10.389 4.998c0 0.215-0.174 0.389-0.389 0.389s-0.389-0.174-0.389-0.389c0-0.215 0.174-0.389 0.389-0.389s0.389 0.174 0.389 0.389z"></path>
<path fill="rgb(255, 255, 255)" d="M10.389 15.002c0 0.215-0.174 0.389-0.389 0.389s-0.389-0.174-0.389-0.389c0-0.215 0.174-0.389 0.389-0.389s0.389 0.174 0.389 0.389z"></path>
<path fill="rgb(255, 255, 255)" d="M15.391 10c0 0.215-0.174 0.389-0.389 0.389s-0.389-0.174-0.389-0.389c0-0.215 0.174-0.389 0.389-0.389s0.389 0.174 0.389 0.389z"></path>
<path fill="rgb(255, 255, 255)" d="M5.387 10c0 0.215-0.174 0.389-0.389 0.389s-0.389-0.174-0.389-0.389c0-0.215 0.174-0.389 0.389-0.389s0.389 0.174 0.389 0.389z"></path>
<path fill="rgb(255, 255, 255)" d="M13.926 6.463c0 0.215-0.174 0.389-0.389 0.389s-0.389-0.174-0.389-0.389c0-0.215 0.174-0.389 0.389-0.389s0.389 0.174 0.389 0.389z"></path>
<path fill="rgb(255, 255, 255)" d="M6.852 13.537c0 0.215-0.174 0.389-0.389 0.389s-0.389-0.174-0.389-0.389c0-0.215 0.174-0.389 0.389-0.389s0.389 0.174 0.389 0.389z"></path>
<path fill="rgb(255, 255, 255)" d="M13.926 13.537c0 0.215-0.174 0.389-0.389 0.389s-0.389-0.174-0.389-0.389c0-0.215 0.174-0.389 0.389-0.389s0.389 0.174 0.389 0.389z"></path>
<path fill="rgb(255, 255, 255)" d="M6.852 6.463c0 0.215-0.174 0.389-0.389 0.389s-0.389-0.174-0.389-0.389c0-0.215 0.174-0.389 0.389-0.389s0.389 0.174 0.389 0.389z"></path>
</svg>
