<?xml version="1.0" encoding="utf-8"?>
<!-- Generator: Adobe Illustrator 16.0.0, SVG Export Plug-In . SVG Version: 6.00 Build 0)  -->
<!DOCTYPE svg PUBLIC "-//W3C//DTD SVG 1.1//EN" "http://www.w3.org/Graphics/SVG/1.1/DTD/svg11.dtd">
<svg version="1.1" id="Layer_1" xmlns="http://www.w3.org/2000/svg" xmlns:xlink="http://www.w3.org/1999/xlink" x="0px" y="0px"
	 width="20px" height="20px" viewBox="0 0 20 20" enable-background="new 0 0 20 20" xml:space="preserve">
<g>
	<path fill="#EDC92C" d="M19.69,10c0,5.352-4.339,9.69-9.69,9.69S0.31,15.352,0.31,10c0-5.351,4.339-9.69,9.69-9.69
		S19.69,4.648,19.69,10z"/>
	<path fill="#E84849" d="M9.477,2.871c-0.35,0-0.632,0.166-0.632,0.516v7.793c0,0.349,0.282,0.515,0.632,0.515
		c0.736,0,3.915-3.716,3.915-4.371C13.392,6.669,9.809,2.872,9.477,2.871L9.477,2.871z"/>
	<path fill="#B03738" d="M16.646,12.876c0.34,0,0.615,0.276,0.615,0.617v0.563c0,0.341-0.276,0.615-0.615,0.615H3.639
		c-0.34,0-0.615-0.274-0.615-0.615v-0.563c0-0.341,0.276-0.617,0.615-0.617H16.646z"/>
	<path fill="#E84849" d="M14.398,13.798c0,0.752-0.61,1.361-1.362,1.361c-0.751,0-1.36-0.609-1.36-1.361s0.609-1.361,1.36-1.361
		C13.788,12.437,14.398,13.046,14.398,13.798z"/>
	<path fill="#FFFFFF" d="M13.036,15.388c-0.878,0-1.591-0.714-1.591-1.59c0-0.877,0.715-1.593,1.591-1.593
		c0.877,0,1.591,0.715,1.591,1.593C14.627,14.675,13.913,15.388,13.036,15.388z M13.036,12.664c-0.624,0-1.132,0.509-1.132,1.133
		s0.508,1.132,1.132,1.132s1.133-0.508,1.133-1.132S13.66,12.664,13.036,12.664z"/>
</g>
</svg>
