<?xml version="1.0" encoding="utf-8"?>
<!-- Generated by IcoMoon.io -->
<!DOCTYPE svg PUBLIC "-//W3C//DTD SVG 1.1//EN" "http://www.w3.org/Graphics/SVG/1.1/DTD/svg11.dtd">
<svg version="1.1" xmlns="http://www.w3.org/2000/svg" xmlns:xlink="http://www.w3.org/1999/xlink" width="20" height="20" viewBox="0 0 20 20">
<path fill="rgb(51, 113, 128)" d="M19.691 10c0-5.352-4.339-9.691-9.69-9.691s-9.691 4.338-9.691 9.691c0 5.352 4.339 9.69 9.691 9.69s9.69-4.339 9.69-9.69z"></path>
<path fill="rgb(181, 227, 234)" d="M8.436 14.678c-0.172 0-0.329-0.103-0.396-0.264l-1.978-4.718-1.196 1.765c-0.075 0.11-0.197 0.18-0.33 0.188s-0.262-0.046-0.35-0.147l-0.926-1.063h-1.443c-0.237 0-0.43-0.192-0.43-0.43s0.192-0.43 0.43-0.43h1.639c0.124 0 0.242 0.054 0.324 0.147l0.688 0.79 1.328-1.96c0.088-0.131 0.241-0.202 0.398-0.186s0.293 0.116 0.354 0.261l1.795 4.281 1.905-7.269c0.047-0.178 0.202-0.307 0.386-0.32s0.355 0.093 0.426 0.263l1.912 4.577 1.287-2.72c0.066-0.14 0.203-0.234 0.357-0.245s0.303 0.062 0.389 0.191l1.454 2.19h1.724c0.237 0 0.43 0.192 0.43 0.43s-0.192 0.43-0.43 0.43h-1.955c-0.144 0-0.278-0.072-0.358-0.192l-1.161-1.748-1.374 2.905c-0.073 0.153-0.227 0.249-0.398 0.246-0.17-0.004-0.321-0.107-0.387-0.264l-1.794-4.295-1.904 7.266c-0.047 0.178-0.202 0.307-0.385 0.32-0.010 0.001-0.020 0.001-0.030 0.001z"></path>
</svg>
