<?xml version="1.0" encoding="utf-8"?>
<!-- Generated by IcoMoon.io -->
<!DOCTYPE svg PUBLIC "-//W3C//DTD SVG 1.1//EN" "http://www.w3.org/Graphics/SVG/1.1/DTD/svg11.dtd">
<svg version="1.1" xmlns="http://www.w3.org/2000/svg" xmlns:xlink="http://www.w3.org/1999/xlink" width="20" height="20" viewBox="0 0 20 20">
<path fill="rgb(50, 190, 166)" d="M19.691 10c0-5.352-4.339-9.691-9.69-9.691s-9.691 4.338-9.691 9.691c0 5.352 4.339 9.69 9.691 9.69s9.69-4.339 9.69-9.69z"></path>
<path fill="rgb(255, 255, 255)" d="M14.794 9.499l-6.834-4.196c-0.187-0.115-0.432-0.12-0.623-0.013-0.194 0.109-0.315 0.315-0.315 0.538v8.359c0 0.222 0.12 0.428 0.314 0.537 0.092 0.052 0.196 0.079 0.302 0.079 0.113 0 0.224-0.031 0.321-0.090l6.834-4.163c0.182-0.111 0.295-0.312 0.296-0.525s-0.112-0.415-0.294-0.526z"></path>
</svg>
