<?xml version="1.0" encoding="utf-8"?>
<!-- Generator: Adobe Illustrator 16.0.0, SVG Export Plug-In . SVG Version: 6.00 Build 0)  -->
<!DOCTYPE svg PUBLIC "-//W3C//DTD SVG 1.1//EN" "http://www.w3.org/Graphics/SVG/1.1/DTD/svg11.dtd">
<svg version="1.1" id="Layer_1" xmlns="http://www.w3.org/2000/svg" xmlns:xlink="http://www.w3.org/1999/xlink" x="0px" y="0px"
	 width="20px" height="20px" viewBox="0 0 20 20" enable-background="new 0 0 20 20" xml:space="preserve">
<g>
	<path fill="#344E5D" d="M19.69,10c0,5.352-4.339,9.69-9.69,9.69S0.31,15.352,0.31,10c0-5.351,4.339-9.69,9.69-9.69
		S19.69,4.648,19.69,10z"/>
	<path fill="#DEBA24" d="M14.006,14.522c0,0.559-0.45,1.009-1.007,1.009H7.028c-0.557,0-1.007-0.452-1.007-1.009l-1.257-3.274
		c0-0.556,0.451-1.008,1.008-1.008h8.482c0.557,0,1.007,0.452,1.007,1.008L14.006,14.522z"/>
	<path fill="#DEBA24" d="M8.077,13.584c0.245,0.448,0.082,1.009-0.366,1.254l0,0c-0.446,0.245-1.008,0.082-1.253-0.366L3.302,8.576
		C3.057,8.129,3.22,7.568,3.668,7.322l0,0c0.446-0.245,1.008-0.081,1.253,0.366L8.077,13.584z"/>
	<path fill="#DEBA24" d="M11.951,13.584c-0.245,0.448-0.081,1.009,0.365,1.254l0,0c0.447,0.245,1.009,0.082,1.254-0.366l3.155-5.896
		c0.246-0.447,0.082-1.008-0.365-1.254l0,0c-0.446-0.245-1.009-0.081-1.254,0.366L11.951,13.584z"/>
	<path fill="#DEBA24" d="M11.044,13.581c0.002,0.51-0.41,0.926-0.919,0.928l0,0c-0.511,0.002-0.927-0.409-0.929-0.92l0.039-6.688
		c-0.002-0.51,0.409-0.926,0.919-0.928l0,0c0.511-0.002,0.927,0.409,0.929,0.92L11.044,13.581z"/>
	<path fill="#DEBA24" d="M4.499,7.302c0,0,2.826,1.75,4.954-0.994l-0.154,4.045l-2.967,0.337L4.499,7.302z"/>
	<path fill="#DEBA24" d="M15.585,7.274c0,0-2.52,1.89-4.648-0.854l-0.111,4.002l2.968,0.336l1.79-3.484H15.585z"/>
	<path fill="#DEBA24" d="M4.653,7.218c0,0.704-0.57,1.273-1.273,1.273c-0.704,0-1.274-0.569-1.274-1.273s0.57-1.273,1.274-1.273
		C4.083,5.944,4.653,6.514,4.653,7.218z"/>
	<path fill="#DEBA24" d="M11.386,5.806c0,0.703-0.569,1.273-1.274,1.273c-0.703,0-1.273-0.57-1.273-1.273
		c0-0.704,0.57-1.274,1.273-1.274C10.816,4.531,11.386,5.102,11.386,5.806z"/>
	<path fill="#DEBA24" d="M17.894,7.189c0,0.704-0.569,1.274-1.274,1.274c-0.703,0-1.271-0.57-1.271-1.274
		c0-0.703,0.568-1.273,1.271-1.273C17.324,5.916,17.894,6.486,17.894,7.189z"/>
	<path fill="#B8972F" d="M14.006,14.522c0,0.559-0.45,1.009-1.007,1.009H7.028c-0.557,0-1.007-0.452-1.007-1.009
		c0,0,2.321-0.43,3.985-0.43S14.006,14.522,14.006,14.522z"/>
</g>
</svg>
