<?xml version="1.0" encoding="utf-8"?>
<!-- Generator: Adobe Illustrator 16.0.0, SVG Export Plug-In . SVG Version: 6.00 Build 0)  -->
<!DOCTYPE svg PUBLIC "-//W3C//DTD SVG 1.1//EN" "http://www.w3.org/Graphics/SVG/1.1/DTD/svg11.dtd">
<svg version="1.1" id="Layer_1" xmlns="http://www.w3.org/2000/svg" xmlns:xlink="http://www.w3.org/1999/xlink" x="0px" y="0px"
	 width="20px" height="20px" viewBox="0 0 20 20" enable-background="new 0 0 20 20" xml:space="preserve">
<g>
	<path fill="#4ABC96" d="M19.69,10c0,5.352-4.339,9.69-9.69,9.69S0.31,15.352,0.31,10c0-5.351,4.339-9.69,9.69-9.69
		S19.69,4.648,19.69,10z"/>
	<path fill="#037F7C" d="M11.278,9.015C9.55,7.286,8.394,7.798,5.901,10.291s-3.006,3.648-1.276,5.377
		c1.729,1.729,2.884,1.217,5.378-1.276s3.005-3.649,1.277-5.378L11.278,9.015z M5.632,14.663c-1.206-1.206-0.633-1.795,1.105-3.534
		c1.738-1.738,2.328-2.312,3.533-1.106c1.205,1.206,0.632,1.796-1.105,3.535C7.428,15.296,6.837,15.869,5.632,14.663z"/>
	<path fill="#F4E028" d="M8.066,9.875c0.131,0.451,0.444,0.905,0.944,1.405c1.729,1.729,2.886,1.217,5.379-1.276
		c2.494-2.492,3.005-3.648,1.276-5.377c-1.729-1.728-2.884-1.216-5.378,1.276C9.353,6.839,8.653,7.648,8.29,8.307
		c0,0,0.191-0.102,0.412-0.183c0.133-0.048,0.284-0.081,0.384-0.101c0.389-0.074,0.785,0.045,0.785,0.045
		c0.295-0.362,0.731-0.808,1.254-1.329c1.739-1.738,2.328-2.312,3.534-1.105c1.205,1.205,0.632,1.795-1.106,3.533
		c-1.738,1.739-2.328,2.312-3.534,1.105c-0.31-0.31-0.503-0.579-0.588-0.838C9.43,9.429,9.256,9.365,9.032,9.38
		C8.894,9.388,8.629,9.47,8.429,9.606C8.226,9.743,8.065,9.869,8.066,9.875L8.066,9.875z"/>
</g>
</svg>
