<?xml version="1.0" encoding="utf-8"?>
<!-- Generated by IcoMoon.io -->
<!DOCTYPE svg PUBLIC "-//W3C//DTD SVG 1.1//EN" "http://www.w3.org/Graphics/SVG/1.1/DTD/svg11.dtd">
<svg version="1.1" xmlns="http://www.w3.org/2000/svg" xmlns:xlink="http://www.w3.org/1999/xlink" width="20" height="20" viewBox="0 0 20 20">
<path fill="rgb(51, 113, 128)" d="M19.691 10c0-5.352-4.339-9.691-9.69-9.691s-9.691 4.338-9.691 9.691c0 5.352 4.339 9.69 9.691 9.69s9.69-4.339 9.69-9.69z"></path>
<path fill="rgb(181, 227, 234)" d="M14.758 4.497h-1.348c-0.124 0-0.225 0.101-0.225 0.225v10.558c0 0.124 0.101 0.225 0.225 0.225h1.348c0.124 0 0.225-0.101 0.225-0.225v-10.558c0-0.124-0.1-0.225-0.225-0.225z"></path>
<path fill="rgb(72, 161, 175)" d="M15.611 9.348v-1.348c0-0.124-0.101-0.225-0.225-0.225h-2.604c-0.124 0-0.225 0.101-0.225 0.225v1.348c0 0.124 0.101 0.225 0.225 0.225h2.604c0.124 0 0.225-0.101 0.225-0.225z"></path>
<path fill="rgb(233, 252, 255)" d="M15.387 9.744h-2.604c-0.218 0-0.396-0.177-0.396-0.396v-1.348c0-0.218 0.178-0.396 0.396-0.396h2.604c0.218 0 0.396 0.178 0.396 0.396v1.348c0 0.218-0.177 0.396-0.396 0.396zM12.782 7.947c-0.030 0-0.054 0.024-0.054 0.054v1.348c0 0.030 0.024 0.053 0.054 0.053h2.604c0.030 0 0.054-0.024 0.054-0.053v-1.348c0-0.030-0.024-0.054-0.054-0.054h-2.604z"></path>
<path fill="rgb(181, 227, 234)" d="M10.782 4.497h-1.348c-0.124 0-0.225 0.101-0.225 0.225v10.558c0 0.124 0.101 0.225 0.225 0.225h1.348c0.124 0 0.225-0.101 0.225-0.225v-10.558c0-0.124-0.1-0.225-0.225-0.225z"></path>
<path fill="rgb(72, 161, 175)" d="M11.635 13.325v-1.348c0-0.124-0.101-0.225-0.225-0.225h-2.604c-0.124 0-0.225 0.101-0.225 0.225v1.348c0 0.124 0.101 0.225 0.225 0.225h2.604c0.124 0 0.225-0.101 0.225-0.225z"></path>
<path fill="rgb(233, 252, 255)" d="M11.41 13.72h-2.604c-0.218 0-0.396-0.177-0.396-0.396v-1.348c0-0.218 0.178-0.396 0.396-0.396h2.604c0.218 0 0.396 0.178 0.396 0.396v1.348c0 0.218-0.177 0.396-0.396 0.396zM8.806 11.924c-0.030 0-0.054 0.024-0.054 0.054v1.348c0 0.030 0.024 0.053 0.054 0.053h2.604c0.030 0 0.054-0.024 0.054-0.053v-1.348c0-0.030-0.024-0.054-0.054-0.054h-2.604z"></path>
<path fill="rgb(181, 227, 234)" d="M6.805 4.497h-1.348c-0.124 0-0.225 0.101-0.225 0.225v10.558c0 0.124 0.101 0.225 0.225 0.225h1.348c0.124 0 0.225-0.101 0.225-0.225v-10.558c0-0.124-0.101-0.225-0.225-0.225z"></path>
<path fill="rgb(72, 161, 175)" d="M7.658 6.697v-1.348c0-0.124-0.101-0.225-0.225-0.225h-2.604c-0.124 0-0.225 0.101-0.225 0.225v1.348c0 0.124 0.101 0.225 0.225 0.225h2.604c0.124 0 0.225-0.101 0.225-0.225z"></path>
<path fill="rgb(233, 252, 255)" d="M7.433 7.093h-2.604c-0.218 0-0.396-0.178-0.396-0.396v-1.348c0-0.218 0.177-0.396 0.396-0.396h2.604c0.218 0 0.396 0.177 0.396 0.396v1.348c0 0.218-0.178 0.396-0.396 0.396zM4.829 5.296c-0.030 0-0.054 0.024-0.054 0.054v1.348c0 0.030 0.024 0.053 0.054 0.053h2.604c0.030 0 0.054-0.024 0.054-0.053v-1.348c0-0.030-0.024-0.054-0.054-0.054h-2.604z"></path>
</svg>
