<?xml version="1.0" encoding="utf-8"?>
<!-- Generator: Adobe Illustrator 16.0.0, SVG Export Plug-In . SVG Version: 6.00 Build 0)  -->
<!DOCTYPE svg PUBLIC "-//W3C//DTD SVG 1.1//EN" "http://www.w3.org/Graphics/SVG/1.1/DTD/svg11.dtd">
<svg version="1.1" id="Layer_1" xmlns="http://www.w3.org/2000/svg" xmlns:xlink="http://www.w3.org/1999/xlink" x="0px" y="0px"
	 width="20px" height="20px" viewBox="0 0 20 20" enable-background="new 0 0 20 20" xml:space="preserve">
<g>
	<path fill="#A2D4DE" d="M19.69,10c0,5.352-4.339,9.69-9.69,9.69S0.31,15.352,0.31,10c0-5.351,4.339-9.69,9.69-9.69
		S19.69,4.648,19.69,10z"/>
	<path fill="#6CC077" d="M16.852,3.148c3.783,3.783,3.783,9.92,0,13.703s-9.92,3.783-13.702,0L16.852,3.148L16.852,3.148z"/>
	<path fill="#FFFFFF" d="M18.55,5.438c-0.075-0.138-0.15-0.275-0.232-0.409C9.348,8.523,5.385,16.942,4.837,18.197
		c0.132,0.084,0.267,0.163,0.403,0.241C5.653,17.475,9.536,8.917,18.55,5.438L18.55,5.438z"/>
	<path fill="#CC3432" d="M10.028,3.594c-2.36,0-4.271,1.913-4.271,4.271c0,3.106,4.031,7.261,4.394,7.261
		c0.363,0,4.149-4.52,4.149-7.261C14.3,5.507,12.388,3.594,10.028,3.594L10.028,3.594z M10.007,9.293
		c-0.926,0-1.675-0.73-1.675-1.631s0.749-1.631,1.675-1.631s1.677,0.73,1.677,1.631S10.933,9.293,10.007,9.293z"/>
	<path fill="#BA2E2D" d="M10.149,15.203c-0.377,0-4.47-4.199-4.47-7.338c0-2.397,1.95-4.348,4.349-4.348
		c2.397,0,4.347,1.95,4.347,4.348C14.375,10.591,10.566,15.203,10.149,15.203z M10.028,3.671c-2.314,0-4.195,1.882-4.195,4.194
		c0,3.119,3.963,7.109,4.316,7.184c0.363-0.093,4.073-4.466,4.073-7.184C14.223,5.553,12.342,3.671,10.028,3.671L10.028,3.671z
		 M10.007,9.369c-0.967,0-1.752-0.766-1.752-1.707s0.786-1.708,1.752-1.708c0.967,0,1.752,0.766,1.752,1.708
		C11.759,8.604,10.974,9.369,10.007,9.369z M10.007,6.108c-0.882,0-1.599,0.697-1.599,1.554s0.717,1.554,1.599,1.554
		c0.883,0,1.6-0.697,1.6-1.554S10.89,6.108,10.007,6.108z"/>
</g>
</svg>
