<?xml version="1.0" encoding="utf-8"?>
<!-- Generator: Adobe Illustrator 16.0.0, SVG Export Plug-In . SVG Version: 6.00 Build 0)  -->
<!DOCTYPE svg PUBLIC "-//W3C//DTD SVG 1.1//EN" "http://www.w3.org/Graphics/SVG/1.1/DTD/svg11.dtd">
<svg version="1.1" id="Layer_1" xmlns="http://www.w3.org/2000/svg" xmlns:xlink="http://www.w3.org/1999/xlink" x="0px" y="0px"
	 width="20px" height="20px" viewBox="0 0 20 20" enable-background="new 0 0 20 20" xml:space="preserve">
<g>
	<path fill="#4ABC96" d="M19.69,10c0,5.352-4.339,9.69-9.69,9.69S0.31,15.352,0.31,10c0-5.351,4.339-9.69,9.69-9.69
		S19.69,4.648,19.69,10z"/>
	<path fill="#A07238" d="M5.273,16.011c-0.227,0.227-0.596,0.227-0.821,0l0,0c-0.228-0.228-0.228-0.596,0-0.822l4.256-4.256
		c0.228-0.227,0.596-0.227,0.822,0l0,0c0.228,0.228,0.228,0.596,0,0.822L5.273,16.011L5.273,16.011z"/>
	<path fill="#D4A160" d="M5.843,16.167c-0.199,0.198-0.706,0.013-1.133-0.414l0,0c-0.428-0.427-0.612-0.936-0.414-1.133l4.521-4.522
		c0.199-0.198,0.707-0.013,1.133,0.415l0,0c0.428,0.426,0.613,0.934,0.414,1.132l-4.521,4.521V16.167z"/>
	<path fill="#A07238" d="M8.606,10.287l-0.595,0.595c0,0,0.543,1.198,1.71,1.384l0.432-0.432v-0.559L8.606,10.287L8.606,10.287z"/>
	<path fill="#60C3B6" d="M16.462,8.181c0,2.309-1.872,4.181-4.181,4.181c-2.31,0-4.182-1.872-4.182-4.181
		c0-2.31,1.872-4.182,4.182-4.182C14.59,3.999,16.462,5.871,16.462,8.181z"/>
	<path fill="#83CECA" d="M15.812,8.583c0,1.813-1.47,3.284-3.284,3.284s-3.285-1.471-3.285-3.284c0-1.814,1.471-3.285,3.285-3.285
		S15.812,6.769,15.812,8.583z"/>
	<path fill="#EBEDEF" d="M9.04,4.938c-1.79,1.79-1.79,4.692,0,6.483c1.79,1.79,4.693,1.79,6.483,0c1.79-1.791,1.79-4.693,0-6.483
		C13.733,3.149,10.83,3.149,9.04,4.938z M14.706,10.604c-1.339,1.339-3.51,1.339-4.849,0s-1.339-3.51,0-4.849s3.51-1.339,4.849,0
		S16.045,9.266,14.706,10.604z"/>
	<path fill="#357180" d="M12.682,8.527c0,0,0,0-0.002,0c0,0.007,0.002,0.015,0.002,0.022c0,0.258-0.211,0.469-0.469,0.469
		c-0.206,0-0.379-0.133-0.441-0.317c-0.268,0.063-0.532,0.132-0.736,0.186l-0.183,0.047c-0.221,0.057-0.42,0.112-0.604,0.175
		c0.042,0.07,0.068,0.152,0.068,0.24c0,0.259-0.211,0.469-0.47,0.469c-0.191,0-0.354-0.115-0.429-0.279
		C9.351,9.591,9.283,9.652,9.218,9.716c0.16,0.32,0.371,0.621,0.639,0.889c1.338,1.339,3.51,1.339,4.849,0
		c1.021-1.022,1.262-2.529,0.722-3.781c-0.12,0.105-0.242,0.234-0.373,0.375c-0.027,0.029-0.057,0.059-0.084,0.089
		c0.029,0.062,0.049,0.131,0.049,0.205c0,0.259-0.209,0.47-0.469,0.47c-0.086,0-0.166-0.025-0.235-0.065L12.682,8.527z"/>
	<path fill="#FDF2F7" d="M10.317,9.349c0,0.259-0.211,0.469-0.47,0.469s-0.469-0.21-0.469-0.469s0.21-0.47,0.469-0.47
		S10.317,9.09,10.317,9.349z"/>
	<path fill="#FDF2F7" d="M12.684,8.55c0,0.258-0.211,0.469-0.469,0.469c-0.259,0-0.47-0.211-0.47-0.469
		c0-0.259,0.211-0.47,0.47-0.47C12.473,8.08,12.684,8.291,12.684,8.55z"/>
	<path fill="#FDF2F7" d="M15.019,7.491c0,0.259-0.21,0.47-0.469,0.47c-0.258,0-0.469-0.211-0.469-0.47s0.211-0.469,0.469-0.469
		C14.809,7.022,15.019,7.232,15.019,7.491z"/>
	<path fill="#FDF7FA" d="M10.859,8.955l0.182-0.046c0.467-0.12,1.246-0.322,1.645-0.358c1.233-0.114,1.872-0.791,2.385-1.336
		c0.132-0.141,0.251-0.268,0.367-0.37c-0.019-0.045-0.041-0.088-0.062-0.132c-0.133,0.113-0.265,0.254-0.408,0.405
		c-0.496,0.528-1.116,1.185-2.296,1.293c-0.41,0.037-1.197,0.241-1.668,0.363l-0.18,0.046c-0.719,0.184-1.213,0.356-1.66,0.78
		c0.021,0.045,0.04,0.09,0.062,0.134C9.66,9.308,10.137,9.142,10.859,8.955L10.859,8.955z"/>
</g>
</svg>
