<?xml version="1.0" encoding="utf-8"?>
<!-- Generated by IcoMoon.io -->
<!DOCTYPE svg PUBLIC "-//W3C//DTD SVG 1.1//EN" "http://www.w3.org/Graphics/SVG/1.1/DTD/svg11.dtd">
<svg version="1.1" xmlns="http://www.w3.org/2000/svg" xmlns:xlink="http://www.w3.org/1999/xlink" width="20" height="20" viewBox="0 0 20 20">
<path fill="rgb(50, 190, 166)" d="M19.691 10c0-5.352-4.339-9.691-9.69-9.691s-9.691 4.338-9.691 9.691c0 5.352 4.339 9.69 9.691 9.69s9.69-4.339 9.69-9.69z"></path>
<path fill="rgb(255, 255, 255)" d="M15.336 6.753c-0.228-0.588-0.693-0.495-1.197-0.396-0.301 0.063-1.639 0.454-3.756 2.687-0.879 0.926-1.458 1.665-1.84 2.228-0.233-0.286-0.5-0.592-0.781-0.873-0.862-0.862-1.824-1.454-1.865-1.479-0.404-0.247-0.93-0.12-1.178 0.284s-0.121 0.931 0.282 1.179c0.008 0.005 0.834 0.516 1.548 1.229 0.728 0.728 1.387 1.712 1.393 1.721 0.161 0.241 0.43 0.382 0.714 0.382 0.049 0 0.098-0.004 0.147-0.013 0.335-0.058 0.603-0.308 0.685-0.638 0.002-0.008 0.342-0.947 2.138-2.841 1.446-1.526 2.411-2.010 2.745-2.145 0.003-0.001 0.006-0.001 0.010-0.002-0.002 0 0.011-0.005 0.031-0.014 0.057-0.022 0.088-0.030 0.090-0.030-0.016 0.004-0.025 0.005-0.025 0.005l-0.001-0.003c0.155-0.067 0.444-0.192 0.451-0.195 0.436-0.179 0.578-0.648 0.407-1.087z"></path>
</svg>
