<?xml version="1.0" encoding="utf-8"?>
<!-- Generated by IcoMoon.io -->
<!DOCTYPE svg PUBLIC "-//W3C//DTD SVG 1.1//EN" "http://www.w3.org/Graphics/SVG/1.1/DTD/svg11.dtd">
<svg version="1.1" xmlns="http://www.w3.org/2000/svg" xmlns:xlink="http://www.w3.org/1999/xlink" width="20" height="20" viewBox="0 0 20 20">
<path fill="rgb(235, 151, 131)" d="M19.691 10c0-5.352-4.339-9.691-9.69-9.691s-9.691 4.338-9.691 9.691c0 5.352 4.339 9.69 9.691 9.69s9.69-4.339 9.69-9.69z"></path>
<path fill="rgb(214, 50, 50)" d="M14.891 6.36c-0.764-1.024-1.852-1.798-3.063-2.179-0.030-0.009-0.062-0.004-0.087 0.014s-0.040 0.048-0.040 0.079l0.006 1.572c0 0.042 0.020 0.080 0.052 0.1 1.24 0.76 2.598 1.836 2.598 4.033 0 2.403-1.955 4.358-4.358 4.358s-4.358-1.955-4.358-4.358c0-2.294 1.375-3.307 2.641-4.059 0.033-0.019 0.053-0.058 0.053-0.101l0.006-1.559c0-0.031-0.015-0.060-0.040-0.079s-0.057-0.024-0.087-0.015c-1.222 0.374-2.321 1.147-3.094 2.175-0.799 1.063-1.222 2.328-1.222 3.659 0 3.363 2.736 6.099 6.1 6.099s6.099-2.736 6.099-6.099c0-1.322-0.418-2.581-1.208-3.64z"></path>
<path fill="rgb(214, 50, 50)" d="M10.147 2.927h-0.295c-0.46 0-0.835 0.375-0.835 0.835v7.078c0 0.46 0.375 0.835 0.835 0.835h0.295c0.46 0 0.835-0.375 0.835-0.835v-7.078c0-0.46-0.375-0.835-0.835-0.835z"></path>
</svg>
