<?xml version="1.0" encoding="utf-8"?>
<!-- Generated by IcoMoon.io -->
<!DOCTYPE svg PUBLIC "-//W3C//DTD SVG 1.1//EN" "http://www.w3.org/Graphics/SVG/1.1/DTD/svg11.dtd">
<svg version="1.1" xmlns="http://www.w3.org/2000/svg" xmlns:xlink="http://www.w3.org/1999/xlink" width="20" height="20" viewBox="0 0 20 20">
<path fill="rgb(51, 113, 128)" d="M0.309 10c0-5.352 4.339-9.691 9.69-9.691s9.691 4.338 9.691 9.691c0 5.352-4.339 9.69-9.691 9.69s-9.69-4.339-9.69-9.69z"></path>
<path fill="rgb(181, 227, 234)" d="M15.403 5.323c-0.035-0.034-0.084-0.052-0.133-0.048l-8.301 0.533c-0.087 0.007-0.156 0.078-0.159 0.165l-0.247 5.714c-0.225-0.080-0.462-0.12-0.706-0.12-0.118 0-0.24 0.009-0.359 0.027-0.524 0.071-0.96 0.28-1.295 0.623-0.348 0.355-0.49 0.757-0.422 1.194 0.067 0.434 0.318 0.78 0.745 1.031 0.32 0.188 0.675 0.283 1.055 0.283 0.11 0 0.225-0.008 0.342-0.024 0.466-0.071 0.861-0.247 1.175-0.525 0.321-0.285 0.506-0.624 0.551-1.008 0.001-0.007 0.001-0.013 0.001-0.020v-0.054c0.014-0.206 0.25-5.122 0.25-5.122l6.432-0.518-0.232 4.244c-0.247-0.098-0.51-0.148-0.783-0.148-0.113 0-0.23 0.009-0.346 0.025-0.525 0.071-0.958 0.285-1.287 0.635-0.339 0.361-0.48 0.764-0.42 1.198 0.060 0.436 0.308 0.781 0.737 1.025 0.318 0.181 0.674 0.273 1.057 0.273 0.115 0 0.234-0.008 0.357-0.025 0.467-0.071 0.866-0.255 1.186-0.547 0.33-0.3 0.505-0.649 0.52-1.037 0.014-0.217 0.124-2.719 0.336-7.645 0.002-0.049-0.017-0.097-0.052-0.131z"></path>
</svg>
