<?xml version="1.0" encoding="utf-8"?>
<!-- Generated by IcoMoon.io -->
<!DOCTYPE svg PUBLIC "-//W3C//DTD SVG 1.1//EN" "http://www.w3.org/Graphics/SVG/1.1/DTD/svg11.dtd">
<svg version="1.1" xmlns="http://www.w3.org/2000/svg" xmlns:xlink="http://www.w3.org/1999/xlink" width="20" height="20" viewBox="0 0 20 20">
<path fill="rgb(51, 113, 128)" d="M19.691 10c0-5.352-4.339-9.691-9.69-9.691s-9.691 4.338-9.691 9.691c0 5.352 4.339 9.69 9.691 9.69s9.69-4.339 9.69-9.69z"></path>
<path fill="rgb(181, 227, 234)" d="M12.157 9.652c0 1.191-0.966 2.157-2.157 2.157v0c-1.191 0-2.157-0.966-2.157-2.157v-3.236c0-1.191 0.966-2.157 2.157-2.157v0c1.192 0 2.157 0.966 2.157 2.157v3.236z"></path>
<path fill="rgb(51, 113, 128)" d="M11.451 7.733h-2.902v-1.237c0-0.801 0.65-1.451 1.451-1.451v0c0.802 0 1.451 0.65 1.451 1.451v1.237z"></path>
<path fill="rgb(181, 227, 234)" d="M13.475 8.056c-0.252 0-0.457 0.204-0.457 0.457v1.218c0 1.664-1.354 3.018-3.018 3.018s-3.018-1.354-3.018-3.018v-1.218c0-0.252-0.204-0.457-0.457-0.457s-0.457 0.204-0.457 0.457v1.218c0 2.013 1.521 3.677 3.475 3.904v1.194h-1.060c-0.252 0-0.456 0.204-0.456 0.457s0.204 0.457 0.456 0.457h3.033c0.252 0 0.456-0.204 0.456-0.457s-0.204-0.457-0.456-0.457h-1.060v-1.194c1.953-0.227 3.475-1.891 3.475-3.904v-1.218c0-0.252-0.204-0.456-0.457-0.456z"></path>
</svg>
