<?xml version="1.0" encoding="utf-8"?>
<!-- Generator: Adobe Illustrator 16.0.0, SVG Export Plug-In . SVG Version: 6.00 Build 0)  -->
<!DOCTYPE svg PUBLIC "-//W3C//DTD SVG 1.1//EN" "http://www.w3.org/Graphics/SVG/1.1/DTD/svg11.dtd">
<svg version="1.1" id="Layer_1" xmlns="http://www.w3.org/2000/svg" xmlns:xlink="http://www.w3.org/1999/xlink" x="0px" y="0px"
	 width="20px" height="20px" viewBox="0 0 20 20" enable-background="new 0 0 20 20" xml:space="preserve">
<g>
	<path fill="#A2D4DE" d="M19.689,10c0,5.352-4.338,9.689-9.689,9.689S0.31,15.352,0.31,10S4.648,0.311,10,0.311
		S19.689,4.648,19.689,10z"/>
	<path fill="#FFFFFF" d="M13.707,7.887c0-1.784-1.445-3.231-3.231-3.231c-1.153,0-2.165,0.604-2.737,1.515
		C7.38,5.987,6.976,5.885,6.546,5.885c-1.319,0-2.412,0.965-2.613,2.227c-0.18-0.06-0.373-0.095-0.573-0.095
		c-0.993,0-1.798,0.806-1.798,1.798c0,0.95,0.74,1.729,1.675,1.792c0.106,0.034,0.218,0.053,0.335,0.053h8.982
		c0.615,0,1.115-0.516,1.115-1.15v-2.13C13.695,8.218,13.707,8.054,13.707,7.887L13.707,7.887z"/>
	<path fill="#A2D4DE" d="M16.809,10.646c-0.174,0-0.34,0.03-0.494,0.083c-0.174-1.09-1.115-1.922-2.254-1.922
		c-0.371,0-0.721,0.089-1.031,0.246c-0.492-0.785-1.365-1.306-2.359-1.306c-1.278,0-2.353,0.86-2.682,2.035
		c-0.939,0.179-1.651,1.003-1.651,1.995c0,1.121,0.91,2.031,2.033,2.031c0.125,0,0.247-0.012,0.367-0.033
		c0.046,0.007,0.092,0.011,0.142,0.011h7.747c0.1,0,0.197-0.015,0.289-0.045c0.807-0.054,1.443-0.725,1.443-1.546
		C18.357,11.34,17.664,10.646,16.809,10.646z"/>
	<path fill="#FFFFFF" d="M16.73,11.005c-0.166,0-0.328,0.028-0.479,0.079c-0.168-1.057-1.082-1.864-2.186-1.864
		c-0.359,0-0.699,0.087-1,0.238c-0.477-0.76-1.324-1.268-2.289-1.268c-1.241,0-2.285,0.837-2.603,1.975
		c-0.913,0.174-1.602,0.974-1.602,1.938c0,1.089,0.883,1.972,1.972,1.972c0.122,0,0.239-0.014,0.355-0.033
		c0.045,0.006,0.091,0.012,0.137,0.012h7.516c0.098,0,0.193-0.017,0.281-0.046c0.783-0.053,1.402-0.703,1.402-1.498
		C18.236,11.678,17.561,11.004,16.73,11.005L16.73,11.005z"/>
</g>
</svg>
