<?xml version="1.0" encoding="utf-8"?>
<!-- Generated by IcoMoon.io -->
<!DOCTYPE svg PUBLIC "-//W3C//DTD SVG 1.1//EN" "http://www.w3.org/Graphics/SVG/1.1/DTD/svg11.dtd">
<svg version="1.1" xmlns="http://www.w3.org/2000/svg" xmlns:xlink="http://www.w3.org/1999/xlink" width="20" height="20" viewBox="0 0 20 20">
<path fill="rgb(224, 79, 95)" d="M0.309 10c0-5.352 4.339-9.691 9.69-9.691s9.691 4.338 9.691 9.691c0 5.352-4.339 9.69-9.691 9.69s-9.69-4.339-9.69-9.69z"></path>
<path fill="rgb(255, 255, 255)" d="M14.923 6.37c-1.359-1.359-3.563-1.359-4.923 0h-0.001c-1.359-1.359-3.563-1.359-4.923 0s-1.163 3.392 0 4.923c1.232 1.621 3.482 4.295 4.923 4.295h0.001c1.441 0 3.691-2.674 4.923-4.295 1.163-1.53 1.359-3.563 0-4.923z"></path>
</svg>
