<?xml version="1.0" encoding="utf-8"?>
<!-- Generated by IcoMoon.io -->
<!DOCTYPE svg PUBLIC "-//W3C//DTD SVG 1.1//EN" "http://www.w3.org/Graphics/SVG/1.1/DTD/svg11.dtd">
<svg version="1.1" xmlns="http://www.w3.org/2000/svg" xmlns:xlink="http://www.w3.org/1999/xlink" width="20" height="20" viewBox="0 0 20 20">
<path fill="rgb(37, 183, 211)" d="M0.309 10c0-5.352 4.339-9.691 9.69-9.691s9.691 4.338 9.691 9.691c0 5.352-4.339 9.69-9.691 9.69s-9.69-4.339-9.69-9.69z"></path>
<path fill="rgb(255, 255, 255)" d="M8.133 10.035c0 1.161-0.941 2.102-2.102 2.102s-2.102-0.941-2.102-2.102c0-1.161 0.941-2.102 2.102-2.102s2.102 0.941 2.102 2.102z"></path>
<path fill="rgb(255, 255, 255)" d="M14.55 6.298c0 1.161-0.941 2.102-2.102 2.102s-2.102-0.941-2.102-2.102c0-1.161 0.941-2.102 2.102-2.102s2.102 0.941 2.102 2.102z"></path>
<path fill="rgb(255, 255, 255)" d="M14.55 13.702c0 1.161-0.941 2.102-2.102 2.102s-2.102-0.941-2.102-2.102c0-1.161 0.941-2.102 2.102-2.102s2.102 0.941 2.102 2.102z"></path>
<path fill="rgb(255, 255, 255)" d="M12.163 5.739l0.569 0.977-6.416 3.736-0.569-0.977 6.416-3.736z"></path>
<path fill="rgb(255, 255, 255)" d="M6.317 9.476l6.416 3.736-0.569 0.977-6.416-3.736 0.569-0.977z"></path>
</svg>
