<?xml version="1.0" encoding="utf-8"?>
<!-- Generated by IcoMoon.io -->
<!DOCTYPE svg PUBLIC "-//W3C//DTD SVG 1.1//EN" "http://www.w3.org/Graphics/SVG/1.1/DTD/svg11.dtd">
<svg version="1.1" xmlns="http://www.w3.org/2000/svg" xmlns:xlink="http://www.w3.org/1999/xlink" width="20" height="20" viewBox="0 0 20 20">
<path fill="rgb(224, 79, 95)" d="M0.309 10c0-5.352 4.339-9.691 9.69-9.691s9.691 4.338 9.691 9.691c0 5.352-4.339 9.69-9.691 9.69s-9.69-4.339-9.69-9.69z"></path>
<path fill="rgb(255, 255, 255)" d="M5.685 11.231c0-2.383 1.932-4.315 4.315-4.315s4.315 1.932 4.315 4.315c0 2.383-1.932 4.315-4.315 4.315s-4.315-1.932-4.315-4.315z"></path>
<path fill="rgb(255, 255, 255)" d="M12.504 5.051l-0.337 0.363h0.227c0.109 0 0.198-0.089 0.198-0.198 0-0.069-0.035-0.129-0.088-0.165z"></path>
<path fill="rgb(255, 255, 255)" d="M12.394 5.017h-0.241l-0.368 0.396h0.382l0.337-0.363c-0.031-0.021-0.069-0.034-0.11-0.034z"></path>
<path fill="rgb(255, 255, 255)" d="M9.862 6.241c-0.109 0-0.198-0.089-0.198-0.198v-0.051c-0.001-0.399-0.001-0.776 0.244-1.021 0.153-0.153 0.376-0.227 0.681-0.227h1.805c0.109 0 0.198 0.089 0.198 0.198s-0.089 0.198-0.198 0.198h-1.805c-0.195 0-0.326 0.036-0.4 0.111-0.129 0.129-0.129 0.413-0.128 0.741v0.051c-0 0.109-0.089 0.198-0.198 0.198z"></path>
<path fill="rgb(255, 255, 255)" d="M11.205 7.205c0 0.359-2.598 0.359-2.598 0v-0.751c0-0.359 0.291-0.65 0.649-0.65h1.299c0.359 0 0.649 0.291 0.649 0.65v0.751z"></path>
<path fill="rgb(255, 255, 255)" d="M12.99 4.332l-0.177 0.521 0.329 0.441-0.55-0.007-0.318 0.449-0.163-0.525-0.526-0.164 0.449-0.318-0.007-0.55 0.441 0.329z"></path>
</svg>
