<?xml version="1.0" encoding="utf-8"?>
<!-- Generated by IcoMoon.io -->
<!DOCTYPE svg PUBLIC "-//W3C//DTD SVG 1.1//EN" "http://www.w3.org/Graphics/SVG/1.1/DTD/svg11.dtd">
<svg version="1.1" xmlns="http://www.w3.org/2000/svg" xmlns:xlink="http://www.w3.org/1999/xlink" width="20" height="20" viewBox="0 0 20 20">
<path fill="rgb(50, 190, 166)" d="M0.309 10c0-5.352 4.339-9.691 9.69-9.691s9.691 4.338 9.691 9.691c0 5.352-4.339 9.69-9.691 9.69s-9.69-4.339-9.69-9.69z"></path>
<path fill="rgb(255, 255, 255)" d="M17.038 7.034c-0.404 0.001-0.808 0.002-1.213 0.003-0.909-2.038-2.693-3.511-4.947-3.864-2.511-0.393-4.915 0.773-6.348 2.825-0.637 0.911 0.859 1.764 1.491 0.861 1.966-2.814 6.162-2.56 7.887 0.183-0.373 0.001-0.747 0.002-1.12 0.003-0.104 0-0.179 0.047-0.225 0.112-0.075 0.080-0.104 0.198-0.025 0.32 0.711 1.104 1.422 2.207 2.133 3.31 0.12 0.185 0.377 0.184 0.496-0.002 0.706-1.107 1.411-2.214 2.117-3.321 0.117-0.183-0.037-0.431-0.246-0.43z"></path>
<path fill="rgb(255, 255, 255)" d="M13.995 13.092c-1.95 2.793-6.098 2.564-7.847-0.119 0.358-0.001 0.716-0.002 1.074-0.003 0.104-0 0.178-0.046 0.224-0.112 0.075-0.080 0.104-0.198 0.025-0.32-0.711-1.103-1.422-2.207-2.133-3.31-0.119-0.186-0.377-0.184-0.496 0.002-0.706 1.107-1.411 2.214-2.117 3.321-0.117 0.183 0.037 0.431 0.246 0.43 0.417-0.001 0.833-0.002 1.25-0.003 0.918 2.005 2.687 3.45 4.917 3.8 2.511 0.393 4.915-0.773 6.348-2.825 0.636-0.911-0.86-1.764-1.491-0.861z"></path>
</svg>
