<?xml version="1.0" encoding="utf-8"?>
<!-- Generated by IcoMoon.io -->
<!DOCTYPE svg PUBLIC "-//W3C//DTD SVG 1.1//EN" "http://www.w3.org/Graphics/SVG/1.1/DTD/svg11.dtd">
<svg version="1.1" xmlns="http://www.w3.org/2000/svg" xmlns:xlink="http://www.w3.org/1999/xlink" width="20" height="20" viewBox="0 0 20 20">
<path fill="rgb(37, 183, 211)" d="M19.691 10c0-5.352-4.339-9.691-9.69-9.691s-9.691 4.338-9.691 9.691c0 5.352 4.339 9.69 9.691 9.69s9.69-4.339 9.69-9.69z"></path>
<path fill="rgb(145, 197, 206)" d="M11.295 6.152c-0.898-1.419-1.295-2.844-1.295-2.844h-0.001c0 0-0.396 1.425-1.295 2.844-1.103 2.221-2.867 3.392-2.867 6.187 0 2.404 1.757 4.353 4.161 4.353h0.001c2.404 0 4.161-1.949 4.161-4.353 0-2.794-1.764-3.966-2.867-6.187z"></path>
<path fill="rgb(185, 228, 234)" d="M11.295 6.152c-0.898-1.419-1.295-2.844-1.295-2.844s-2.405 13.384-0.001 13.384h0.001c2.404 0 4.161-1.949 4.161-4.353 0-2.794-1.764-3.966-2.867-6.187z"></path>
<path fill="rgb(242, 247, 247)" d="M10.238 15.981h0.001c1.882 0 3.257-1.525 3.257-3.407 0-2.187-5.139 3.407-3.258 3.407z"></path>
</svg>
