<?xml version="1.0" encoding="utf-8"?>
<!-- Generator: Adobe Illustrator 16.0.0, SVG Export Plug-In . SVG Version: 6.00 Build 0)  -->
<!DOCTYPE svg PUBLIC "-//W3C//DTD SVG 1.1//EN" "http://www.w3.org/Graphics/SVG/1.1/DTD/svg11.dtd">
<svg version="1.1" id="Layer_1" xmlns="http://www.w3.org/2000/svg" xmlns:xlink="http://www.w3.org/1999/xlink" x="0px" y="0px"
	 width="20px" height="20px" viewBox="0 0 20 20" enable-background="new 0 0 20 20" xml:space="preserve">
<g>
	<path fill="#4ABC96" d="M19.69,10c0,5.352-4.339,9.69-9.69,9.69S0.31,15.352,0.31,10c0-5.351,4.339-9.69,9.69-9.69
		S19.69,4.648,19.69,10z"/>
	<path fill="#202121" d="M13.087,15.493c0,0.819-0.417,1.234-1.235,1.234H7.65c-0.818,0-1.235-0.417-1.235-1.234V5.363
		c0-0.819,0.417-1.235,1.235-1.235h4.201c0.818,0,1.235,0.417,1.235,1.235V15.493z"/>
	<path fill="#121212" d="M10.263,15.864c0,0.272-0.221,0.493-0.494,0.493s-0.494-0.221-0.494-0.493c0-0.273,0.221-0.494,0.494-0.494
		S10.263,15.591,10.263,15.864z"/>
	<path fill="#202121" d="M9.842,16.061H9.696c-0.032,0-0.064-0.014-0.087-0.036c-0.023-0.022-0.036-0.055-0.036-0.088v-0.146
		c0-0.067,0.055-0.123,0.123-0.123h0.146c0.033,0,0.063,0.013,0.087,0.035c0.023,0.023,0.035,0.056,0.035,0.088v0.146
		C9.964,16.004,9.909,16.061,9.842,16.061z M9.843,15.744H9.696c-0.025,0-0.046,0.021-0.046,0.047v0.146
		c0,0.012,0.004,0.024,0.014,0.033c0.009,0.01,0.02,0.014,0.032,0.014h0.146c0.025,0,0.046-0.021,0.046-0.047v-0.146
		c0-0.012-0.004-0.024-0.014-0.032C9.865,15.75,9.854,15.744,9.843,15.744z"/>
	<path d="M10.533,5.055c0,0.08-0.065,0.145-0.144,0.145H9.112c-0.079,0-0.144-0.065-0.144-0.145l0,0
		c0-0.079,0.064-0.143,0.144-0.143h1.277C10.469,4.912,10.533,4.977,10.533,5.055L10.533,5.055z"/>
	<path fill="#67B8CB" d="M6.725,5.703h6.021v9.204H6.725V5.703z"/>
	<path fill="#BBBCBB" d="M10.294,9.042l2.995,1.015l2.023-2.423l1.387-1.671l-8.46,2.375L10.294,9.042z"/>
	<path fill="#E7E7E7" d="M18.367,11.902l-8.46,2.375L8.238,8.328l5.065,1.792l3.394-4.165L18.367,11.902z"/>
	<path fill="#BBBCBB" d="M16.701,5.963l-0.154-0.017l-6.69,8.143l0.053,0.188l0.428-0.121l6.485-7.766L16.701,5.963z"/>
	<path fill="#BBBCBB" d="M8.24,8.337l0.122-0.095l9.951,3.474l0.053,0.187l-0.429,0.121l-9.578-3.26L8.24,8.337z"/>
	<path fill="#E7E7E7" d="M13.369,10.353L8.224,8.273l8.459-2.374L13.369,10.353z"/>
</g>
</svg>
