<?xml version="1.0" encoding="utf-8"?>
<!-- Generated by IcoMoon.io -->
<!DOCTYPE svg PUBLIC "-//W3C//DTD SVG 1.1//EN" "http://www.w3.org/Graphics/SVG/1.1/DTD/svg11.dtd">
<svg version="1.1" xmlns="http://www.w3.org/2000/svg" xmlns:xlink="http://www.w3.org/1999/xlink" width="20" height="20" viewBox="0 0 20 20">
<path fill="rgb(224, 79, 95)" d="M0.309 10c0-5.352 4.339-9.691 9.69-9.691s9.691 4.338 9.691 9.691c0 5.352-4.339 9.69-9.691 9.69s-9.69-4.339-9.69-9.69z"></path>
<path fill="rgb(255, 255, 255)" d="M15.943 8.076l-5.863-2.926c-0.050-0.023-0.107-0.023-0.157-0l-5.866 2.926c-0.065 0.030-0.106 0.095-0.106 0.167v1.156c0 0.063 0.032 0.122 0.085 0.156s0.12 0.038 0.177 0.011l5.788-2.889 5.784 2.889c0.025 0.012 0.052 0.018 0.078 0.018 0.034 0 0.069-0.010 0.099-0.029 0.053-0.034 0.086-0.092 0.086-0.156v-1.156c0-0.071-0.041-0.136-0.106-0.167z"></path>
<path fill="rgb(255, 255, 255)" d="M14.864 9.602l-4.862-2.422-4.865 2.422v4.493h2.696v-3.446h1.855v3.446h5.176z"></path>
<path fill="rgb(234, 73, 73)" d="M10.299 10.649h1.25v1.25h-1.25v-1.25z"></path>
</svg>
