<?xml version="1.0" encoding="utf-8"?>
<!-- Generator: Adobe Illustrator 16.0.0, SVG Export Plug-In . SVG Version: 6.00 Build 0)  -->
<!DOCTYPE svg PUBLIC "-//W3C//DTD SVG 1.1//EN" "http://www.w3.org/Graphics/SVG/1.1/DTD/svg11.dtd">
<svg version="1.1" id="Layer_1" xmlns="http://www.w3.org/2000/svg" xmlns:xlink="http://www.w3.org/1999/xlink" x="0px" y="0px"
	 width="20px" height="20px" viewBox="0 0 20 20" enable-background="new 0 0 20 20" xml:space="preserve">
<g>
	<path fill="#5B4F3F" d="M19.69,10c0,5.352-4.338,9.69-9.69,9.69c-5.352,0-9.69-4.339-9.69-9.69c0-5.351,4.339-9.69,9.69-9.69
		C15.353,0.31,19.69,4.648,19.69,10z"/>
	<path fill="#8F8376" d="M8.84,7.038c0,0.16-0.134,0.29-0.298,0.29l0,0c-0.164,0-0.296-0.13-0.296-0.29l0.003-2.894
		c0-0.161,0.133-0.291,0.297-0.291l0,0c0.165,0,0.297,0.13,0.297,0.291L8.84,7.038z"/>
	<path fill="#8F8376" d="M8.91,11.504c0,0.159-0.133,0.289-0.297,0.289l0,0c-0.164,0-0.297-0.13-0.297-0.289l0.003-2.896
		c0-0.16,0.134-0.29,0.297-0.29l0,0c0.164,0,0.296,0.13,0.296,0.29L8.91,11.504L8.91,11.504z"/>
	<path fill="#8F8376" d="M15.367,11.504c0,0.159-0.133,0.289-0.297,0.289l0,0c-0.164,0-0.297-0.13-0.297-0.289l0.004-2.896
		c0-0.16,0.133-0.29,0.297-0.29l0,0c0.165,0,0.298,0.13,0.297,0.29L15.367,11.504L15.367,11.504z"/>
	<path fill="#8F8376" d="M5.575,11.504c0,0.159-0.133,0.289-0.297,0.289l0,0c-0.163,0-0.297-0.13-0.297-0.289l0.004-2.896
		c0-0.16,0.133-0.29,0.297-0.29l0,0c0.164,0,0.297,0.13,0.297,0.29L5.575,11.504L5.575,11.504z"/>
	<path fill="#8F8376" d="M5.75,3.848H4.963c-0.474,0-0.929,0.375-0.929,0.837v1.814c0,0.462,0.455,0.836,0.929,0.836H5.75
		c0.474,0,0.929-0.374,0.929-0.836V4.685C6.679,4.222,6.223,3.848,5.75,3.848z M6.131,6.188c0,0.304-0.237,0.551-0.531,0.551H5.113
		c-0.294,0-0.531-0.246-0.531-0.551V4.997c0-0.304,0.237-0.552,0.531-0.552H5.6c0.294,0,0.531,0.247,0.531,0.552V6.188z"/>
	<path fill="#8F8376" d="M5.75,12.709H4.963c-0.474,0-0.929,0.376-0.929,0.837v1.814c0,0.461,0.455,0.837,0.929,0.837H5.75
		c0.474,0,0.929-0.376,0.929-0.837v-1.814C6.679,13.085,6.223,12.709,5.75,12.709z M6.131,15.051c0,0.303-0.237,0.55-0.531,0.55
		H5.113c-0.294,0-0.531-0.247-0.531-0.55v-1.192c0-0.303,0.237-0.55,0.531-0.55H5.6c0.294,0,0.531,0.247,0.531,0.55V15.051z"/>
	<path fill="#8F8376" d="M9.037,12.709H8.252c-0.474,0-0.93,0.376-0.93,0.837v1.814c0,0.461,0.456,0.837,0.93,0.837h0.785
		c0.475,0,0.929-0.376,0.929-0.837v-1.814C9.966,13.085,9.511,12.709,9.037,12.709z M9.418,15.051c0,0.303-0.237,0.55-0.53,0.55H8.4
		c-0.293,0-0.531-0.247-0.531-0.55v-1.192c0-0.303,0.238-0.55,0.531-0.55h0.487c0.293,0,0.53,0.247,0.53,0.55V15.051z"/>
	<path fill="#8F8376" d="M12.135,3.848h-0.787c-0.474,0-0.929,0.375-0.929,0.837v1.814c0,0.462,0.455,0.836,0.929,0.836h0.787
		c0.474,0,0.929-0.374,0.929-0.836V4.685C13.063,4.222,12.608,3.848,12.135,3.848z M12.515,6.188c0,0.304-0.237,0.551-0.529,0.551
		h-0.487c-0.294,0-0.531-0.246-0.531-0.551V4.997c0-0.304,0.237-0.552,0.531-0.552h0.487c0.292,0,0.529,0.247,0.529,0.552V6.188z"/>
	<path fill="#8F8376" d="M12.135,8.313h-0.787c-0.474,0-0.929,0.375-0.929,0.837v1.814c0,0.463,0.455,0.837,0.929,0.837h0.787
		c0.474,0,0.929-0.374,0.929-0.837V9.15C13.063,8.688,12.608,8.313,12.135,8.313z M12.515,10.653c0,0.304-0.237,0.552-0.529,0.552
		h-0.487c-0.294,0-0.531-0.247-0.531-0.552V9.461c0-0.304,0.237-0.55,0.531-0.55h0.487c0.292,0,0.529,0.246,0.529,0.55V10.653z"/>
	<path fill="#8F8376" d="M15.422,3.848h-0.786c-0.474,0-0.929,0.375-0.929,0.837v1.814c0,0.462,0.455,0.836,0.929,0.836h0.786
		c0.474,0,0.929-0.374,0.929-0.836V4.685C16.351,4.222,15.896,3.848,15.422,3.848z M15.804,6.188c0,0.304-0.238,0.551-0.531,0.551
		h-0.486c-0.294,0-0.532-0.246-0.532-0.551V4.997c0-0.304,0.238-0.552,0.532-0.552h0.486c0.293,0,0.531,0.247,0.531,0.552V6.188z"/>
	<path fill="#8F8376" d="M12.056,15.877c0,0.159-0.133,0.29-0.298,0.29l0,0c-0.163,0-0.296-0.131-0.296-0.29l0.004-2.895
		c0-0.159,0.133-0.29,0.297-0.29l0,0c0.164,0,0.296,0.131,0.296,0.29L12.056,15.877z"/>
	<path fill="#8F8376" d="M15.392,15.877c0,0.159-0.134,0.29-0.299,0.29l0,0c-0.163,0-0.296-0.131-0.296-0.29l0.003-2.895
		c0-0.159,0.133-0.29,0.298-0.29l0,0c0.165,0,0.298,0.131,0.296,0.29L15.392,15.877z"/>
</g>
</svg>
