<?xml version="1.0" encoding="utf-8"?>
<!-- Generated by IcoMoon.io -->
<!DOCTYPE svg PUBLIC "-//W3C//DTD SVG 1.1//EN" "http://www.w3.org/Graphics/SVG/1.1/DTD/svg11.dtd">
<svg version="1.1" xmlns="http://www.w3.org/2000/svg" xmlns:xlink="http://www.w3.org/1999/xlink" width="20" height="20" viewBox="0 0 20 20">
<path fill="rgb(37, 183, 211)" d="M19.691 10c0-5.352-4.339-9.691-9.69-9.691s-9.691 4.338-9.691 9.691c0 5.352 4.339 9.69 9.691 9.69s9.69-4.339 9.69-9.69z"></path>
<path fill="rgb(255, 255, 255)" d="M12.624 14.355c-0.054-0.079-0.158-0.108-0.245-0.066-0.96 0.455-2.050 0.935-2.264 0.977-0.005-0.005-0.014-0.014-0.025-0.029-0.029-0.039-0.043-0.091-0.043-0.157 0-0.543 0.41-2.196 1.218-4.911 0.682-2.281 0.761-2.754 0.761-2.911 0-0.242-0.093-0.447-0.268-0.592-0.167-0.137-0.4-0.207-0.692-0.207-0.487 0-1.051 0.185-1.724 0.565-0.653 0.368-1.381 0.993-2.164 1.855-0.061 0.068-0.068 0.169-0.015 0.243s0.149 0.103 0.234 0.069c0.275-0.112 1.656-0.678 1.858-0.805 0.165-0.103 0.308-0.156 0.424-0.156 0.004 0 0.008 0 0.011 0 0.001 0.008 0.003 0.020 0.003 0.036 0 0.119-0.024 0.26-0.073 0.418-1.177 3.814-1.749 6.152-1.749 7.148 0 0.351 0.098 0.634 0.29 0.841 0.196 0.211 0.461 0.317 0.787 0.317 0.347 0 0.77-0.145 1.292-0.444 0.505-0.289 1.277-0.924 2.358-1.942 0.070-0.066 0.082-0.173 0.028-0.252z"></path>
<path fill="rgb(255, 255, 255)" d="M12.586 3.304c-0.192-0.197-0.439-0.297-0.732-0.297-0.365 0-0.683 0.144-0.944 0.429-0.258 0.28-0.388 0.623-0.388 1.020 0 0.314 0.096 0.574 0.286 0.773 0.192 0.202 0.435 0.304 0.722 0.304 0.35 0 0.666-0.152 0.939-0.453 0.269-0.295 0.405-0.642 0.405-1.031 0-0.299-0.097-0.55-0.288-0.746z"></path>
</svg>
