<?xml version="1.0" encoding="utf-8"?>
<!-- Generated by IcoMoon.io -->
<!DOCTYPE svg PUBLIC "-//W3C//DTD SVG 1.1//EN" "http://www.w3.org/Graphics/SVG/1.1/DTD/svg11.dtd">
<svg version="1.1" xmlns="http://www.w3.org/2000/svg" xmlns:xlink="http://www.w3.org/1999/xlink" width="20" height="20" viewBox="0 0 20 20">
<path fill="rgb(72, 161, 175)" d="M0.309 10c0-5.352 4.339-9.691 9.69-9.691s9.691 4.338 9.691 9.691c0 5.352-4.339 9.69-9.691 9.69s-9.69-4.339-9.69-9.69z"></path>
<path fill="rgb(245, 245, 245)" d="M13.391 4.637h-6.788l-3.791 3.832 7.195 8.33 7.18-8.33z"></path>
<path fill="rgb(72, 161, 175)" d="M16.489 8.462l-6.482 7.521-6.496-7.521 3.32-3.267h6.333z"></path>
<path fill="rgb(255, 255, 255)" d="M9.743 16.076l-2.949-7.706-0.003-0.032-0.237-3.112 0.553-0.062 0.234 3.081 2.931 7.645z"></path>
<path fill="rgb(255, 255, 255)" d="M10.246 16.076l-0.529-0.186 2.93-7.639 0.235-3.087 0.553 0.062-0.241 3.15-0.009 0.030z"></path>
<path fill="rgb(255, 255, 255)" d="M12.664 8.642l-2.888-3.547 0.447-0.36 2.888 3.547z"></path>
<path fill="rgb(255, 255, 255)" d="M7.336 8.642l-0.447-0.36 2.888-3.547 0.447 0.36z"></path>
<path fill="rgb(255, 255, 255)" d="M3.511 8.16h12.992v0.605h-12.992v-0.605z"></path>
</svg>
