<?xml version="1.0" encoding="utf-8"?>
<!-- Generator: Adobe Illustrator 16.0.0, SVG Export Plug-In . SVG Version: 6.00 Build 0)  -->
<!DOCTYPE svg PUBLIC "-//W3C//DTD SVG 1.1//EN" "http://www.w3.org/Graphics/SVG/1.1/DTD/svg11.dtd">
<svg version="1.1" id="Layer_1" xmlns="http://www.w3.org/2000/svg" xmlns:xlink="http://www.w3.org/1999/xlink" x="0px" y="0px"
	 width="20px" height="20px" viewBox="0 0 20 20" enable-background="new 0 0 20 20" xml:space="preserve">
<g>
	<path fill="#EDC92C" d="M19.69,10c0,5.352-4.338,9.69-9.69,9.69c-5.352,0-9.69-4.339-9.69-9.69c0-5.351,4.339-9.69,9.69-9.69
		C15.353,0.31,19.69,4.648,19.69,10z"/>
	<path fill="#F4DD90" d="M15.557,12.486c-0.751-0.721-1.509-1.175-2.418-0.502c-0.914,0.676-1.01,1.426-1.01,1.426
		s0.086,1.438-3.383-1.68C5.625,8.26,7.064,8.346,7.064,8.346S7.816,8.25,8.491,7.335c0.673-0.908,0.198-1.647-0.502-2.417
		c-2.242-2.462-3.6,0.336-3.6,0.336c-1.587,2.671,1.057,5.845,3.098,7.734c1.89,2.041,5.064,4.684,7.732,3.098
		c0,0,2.833-1.197,0.335-3.601L15.557,12.486z"/>
	<path fill="#404040" d="M5.63,4.018C5.628,4.019,5.627,4.02,5.626,4.021c0.02-0.008,0.041-0.016,0.061-0.023
		C5.668,4.005,5.649,4.012,5.63,4.018L5.63,4.018z"/>
</g>
</svg>
