<?xml version="1.0" encoding="utf-8"?>
<!-- Generator: Adobe Illustrator 16.0.0, SVG Export Plug-In . SVG Version: 6.00 Build 0)  -->
<!DOCTYPE svg PUBLIC "-//W3C//DTD SVG 1.1//EN" "http://www.w3.org/Graphics/SVG/1.1/DTD/svg11.dtd">
<svg version="1.1" id="Layer_1" xmlns="http://www.w3.org/2000/svg" xmlns:xlink="http://www.w3.org/1999/xlink" x="0px" y="0px"
	 width="20px" height="20px" viewBox="0 0 20 20" enable-background="new 0 0 20 20" xml:space="preserve">
<g>
	<path fill="#49A0AE" d="M19.69,10c0,5.352-4.338,9.69-9.69,9.69c-5.352,0-9.69-4.339-9.69-9.69c0-5.351,4.339-9.69,9.69-9.69
		C15.353,0.31,19.69,4.648,19.69,10z"/>
	<path fill="#A2D4DE" d="M15.189,12.274c-0.749-0.72-1.509-1.175-2.417-0.503c-0.914,0.677-1.01,1.428-1.01,1.428
		s0.086,1.438-3.383-1.681c-3.121-3.47-1.682-3.385-1.682-3.385s0.75-0.096,1.427-1.01c0.673-0.908,0.198-1.647-0.503-2.418
		c-2.241-2.462-3.6,0.337-3.6,0.337c-1.587,2.67,1.058,5.845,3.098,7.735c1.893,2.039,5.064,4.682,7.733,3.095
		C14.854,15.873,17.687,14.678,15.189,12.274L15.189,12.274z"/>
	<path fill="#404040" d="M5.264,3.806C5.262,3.807,5.261,3.808,5.26,3.809c0.02-0.008,0.041-0.016,0.061-0.022
		C5.302,3.792,5.282,3.799,5.264,3.806L5.264,3.806z"/>
	<path fill="#7DCDCC" d="M12.64,10.215L12.64,10.215c-0.142,0-0.258-0.117-0.258-0.259c0-0.829-0.231-1.467-0.688-1.896
		c-0.728-0.685-1.808-0.627-1.818-0.626c-0.144,0.008-0.266-0.1-0.274-0.242C9.593,7.05,9.7,6.927,9.844,6.917
		c0.053-0.004,1.309-0.076,2.203,0.762c0.566,0.531,0.854,1.298,0.854,2.277c0,0.144-0.116,0.26-0.26,0.26L12.64,10.215z"/>
	<path fill="#7DCDCC" d="M11.64,10.223L11.64,10.223c-0.107,0-0.195-0.087-0.195-0.194c0-0.546-0.152-0.965-0.45-1.247
		C10.517,8.333,9.806,8.369,9.799,8.37C9.69,8.379,9.6,8.296,9.592,8.188C9.585,8.08,9.667,7.989,9.773,7.981
		c0.035-0.002,0.881-0.051,1.483,0.514c0.383,0.357,0.576,0.873,0.576,1.532C11.833,10.135,11.746,10.222,11.64,10.223L11.64,10.223
		z"/>
	<path fill="#7DCDCC" d="M13.881,10.317L13.881,10.317c-0.18,0-0.324-0.145-0.324-0.324c0-1.228-0.344-2.173-1.024-2.81
		C11.446,6.166,9.86,6.258,9.845,6.259C9.665,6.267,9.512,6.135,9.5,5.957s0.124-0.333,0.302-0.345
		c0.076-0.004,1.885-0.108,3.173,1.098c0.815,0.765,1.23,1.868,1.23,3.282c0,0.18-0.146,0.323-0.324,0.323V10.317z"/>
	<path fill="#7DCDCC" d="M15.293,10.7L15.293,10.7c-0.215,0-0.389-0.174-0.389-0.389c0-1.772-0.499-3.14-1.485-4.063
		c-1.57-1.473-3.866-1.339-3.89-1.338C9.313,4.925,9.131,4.762,9.117,4.547s0.147-0.398,0.362-0.412
		c0.106-0.008,2.657-0.154,4.472,1.547c1.149,1.075,1.731,2.634,1.731,4.63c0,0.215-0.174,0.389-0.388,0.389H15.293z"/>
</g>
</svg>
