<?xml version="1.0" encoding="utf-8"?>
<!-- Generated by IcoMoon.io -->
<!DOCTYPE svg PUBLIC "-//W3C//DTD SVG 1.1//EN" "http://www.w3.org/Graphics/SVG/1.1/DTD/svg11.dtd">
<svg version="1.1" xmlns="http://www.w3.org/2000/svg" xmlns:xlink="http://www.w3.org/1999/xlink" width="20" height="20" viewBox="0 0 20 20">
<path fill="rgb(224, 79, 95)" d="M19.691 10c0-5.352-4.339-9.691-9.69-9.691s-9.691 4.338-9.691 9.691c0 5.352 4.339 9.69 9.691 9.69s9.69-4.339 9.69-9.69z"></path>
<path fill="rgb(255, 255, 255)" d="M11.131 10l2.833-3.289c0.309-0.359 0.269-0.9-0.090-1.209s-0.9-0.269-1.209 0.090l-2.665 3.094-2.665-3.094c-0.309-0.359-0.85-0.399-1.209-0.090s-0.399 0.85-0.090 1.209l2.833 3.289-2.833 3.289c-0.309 0.359-0.269 0.9 0.090 1.209 0.162 0.139 0.361 0.208 0.559 0.208 0.241 0 0.48-0.101 0.65-0.298l2.665-3.094 2.665 3.094c0.169 0.197 0.409 0.298 0.65 0.298 0.198 0 0.397-0.068 0.559-0.208 0.359-0.309 0.399-0.85 0.090-1.209l-2.833-3.289z"></path>
</svg>
