<?xml version="1.0" encoding="utf-8"?>
<!-- Generated by IcoMoon.io -->
<!DOCTYPE svg PUBLIC "-//W3C//DTD SVG 1.1//EN" "http://www.w3.org/Graphics/SVG/1.1/DTD/svg11.dtd">
<svg version="1.1" xmlns="http://www.w3.org/2000/svg" xmlns:xlink="http://www.w3.org/1999/xlink" width="20" height="20" viewBox="0 0 20 20">
<path fill="rgb(50, 190, 166)" d="M19.691 10c0-5.352-4.339-9.691-9.69-9.691s-9.691 4.338-9.691 9.691c0 5.352 4.339 9.69 9.691 9.69s9.69-4.339 9.69-9.69z"></path>
<path fill="rgb(255, 255, 255)" d="M16.26 10.755v-1.51l-1.429-0.449c-0.121-0.485-0.314-0.941-0.565-1.358l0.694-1.331-1.068-1.068-1.335 0.696c-0.415-0.249-0.869-0.439-1.351-0.559l-0.452-1.437h-1.51l-0.452 1.437c-0.482 0.12-0.936 0.31-1.351 0.559l-1.335-0.696-1.068 1.068 0.694 1.331c-0.252 0.417-0.444 0.873-0.565 1.358l-1.429 0.449v1.51l1.423 0.447c0.12 0.489 0.312 0.95 0.565 1.37l-0.689 1.32 1.068 1.068 1.316-0.687c0.422 0.256 0.885 0.45 1.377 0.572l0.444 1.414h1.51l0.445-1.414c0.492-0.122 0.955-0.316 1.377-0.572l1.316 0.687 1.068-1.068-0.689-1.32c0.253-0.42 0.445-0.881 0.565-1.37l1.423-0.447zM10 13.313c-1.824 0-3.303-1.479-3.303-3.303s1.479-3.303 3.303-3.303c1.824 0 3.303 1.479 3.303 3.303s-1.479 3.303-3.303 3.303z"></path>
</svg>
