<?xml version="1.0" encoding="utf-8"?>
<!-- Generated by IcoMoon.io -->
<!DOCTYPE svg PUBLIC "-//W3C//DTD SVG 1.1//EN" "http://www.w3.org/Graphics/SVG/1.1/DTD/svg11.dtd">
<svg version="1.1" xmlns="http://www.w3.org/2000/svg" xmlns:xlink="http://www.w3.org/1999/xlink" width="20" height="20" viewBox="0 0 20 20">
<path fill="rgb(51, 113, 128)" d="M19.691 10c0-5.352-4.339-9.691-9.69-9.691s-9.691 4.338-9.691 9.691c0 5.352 4.339 9.69 9.691 9.69s9.69-4.339 9.69-9.69z"></path>
<path fill="rgb(223, 242, 244)" d="M3.177 11.418c0 0.129-0.105 0.234-0.234 0.234h-0.417c-0.129 0-0.234-0.105-0.234-0.234v-0.859c0-0.129 0.105-0.234 0.234-0.234h0.417c0.129 0 0.234 0.105 0.234 0.234v0.859z"></path>
<path fill="rgb(181, 227, 234)" d="M4.388 11.418c0 0.129-0.105 0.234-0.234 0.234h-0.417c-0.129 0-0.234-0.105-0.234-0.234v-3.281c0-0.129 0.105-0.234 0.234-0.234h0.417c0.129 0 0.234 0.105 0.234 0.234v3.281z"></path>
<path fill="rgb(181, 227, 234)" d="M5.599 11.418c0 0.129-0.105 0.234-0.234 0.234h-0.417c-0.129 0-0.234-0.105-0.234-0.234v-2.070c0-0.129 0.105-0.234 0.234-0.234h0.417c0.129 0 0.234 0.105 0.234 0.234v2.070z"></path>
<path fill="rgb(181, 227, 234)" d="M6.81 11.418c0 0.129-0.105 0.234-0.234 0.234h-0.417c-0.129 0-0.234-0.105-0.234-0.234v-2.676c0-0.129 0.105-0.234 0.234-0.234h0.417c0.129 0 0.234 0.105 0.234 0.234v2.676z"></path>
<path fill="rgb(163, 213, 224)" d="M8.021 11.418c0 0.129-0.105 0.234-0.234 0.234h-0.417c-0.129 0-0.234-0.105-0.234-0.234v-4.492c0-0.129 0.105-0.234 0.234-0.234h0.417c0.129 0 0.234 0.105 0.234 0.234v4.492z"></path>
<path fill="rgb(163, 213, 224)" d="M9.232 11.418c0 0.129-0.105 0.234-0.234 0.234h-0.417c-0.129 0-0.234-0.105-0.234-0.234v-3.887c0-0.129 0.105-0.234 0.234-0.234h0.417c0.129 0 0.234 0.105 0.234 0.234v3.887z"></path>
<path fill="rgb(142, 197, 206)" d="M10.443 11.418c0 0.129-0.105 0.234-0.234 0.234h-0.417c-0.129 0-0.234-0.105-0.234-0.234v-6.914c0-0.129 0.105-0.234 0.234-0.234h0.417c0.129 0 0.234 0.105 0.234 0.234v6.914z"></path>
<path fill="rgb(163, 213, 224)" d="M11.654 11.418c0 0.129-0.105 0.234-0.234 0.234h-0.417c-0.129 0-0.234-0.105-0.234-0.234v-5.098c0-0.129 0.105-0.234 0.234-0.234h0.417c0.129 0 0.234 0.105 0.234 0.234v5.098z"></path>
<path fill="rgb(163, 213, 224)" d="M12.865 11.418c0 0.129-0.105 0.234-0.234 0.234h-0.417c-0.129 0-0.234-0.105-0.234-0.234v-3.887c0-0.129 0.105-0.234 0.234-0.234h0.417c0.129 0 0.234 0.105 0.234 0.234v3.887z"></path>
<path fill="rgb(181, 227, 234)" d="M14.076 11.418c0 0.129-0.105 0.234-0.234 0.234h-0.417c-0.129 0-0.234-0.105-0.234-0.234v-2.070c0-0.129 0.105-0.234 0.234-0.234h0.417c0.129 0 0.234 0.105 0.234 0.234v2.070z"></path>
<path fill="rgb(181, 227, 234)" d="M15.286 11.418c0 0.129-0.105 0.234-0.234 0.234h-0.417c-0.129 0-0.234-0.105-0.234-0.234v-3.281c0-0.129 0.105-0.234 0.234-0.234h0.417c0.129 0 0.234 0.105 0.234 0.234v3.281z"></path>
<path fill="rgb(223, 242, 244)" d="M16.497 11.418c0 0.129-0.105 0.234-0.234 0.234h-0.417c-0.129 0-0.234-0.105-0.234-0.234v-0.859c0-0.129 0.105-0.234 0.234-0.234h0.417c0.129 0 0.234 0.105 0.234 0.234v0.859z"></path>
<path fill="rgb(223, 242, 244)" d="M17.708 11.418c0 0.129-0.105 0.234-0.234 0.234h-0.417c-0.129 0-0.234-0.105-0.234-0.234v-0.254c0-0.129 0.105-0.234 0.234-0.234h0.417c0.129 0 0.234 0.105 0.234 0.234v0.254z"></path>
</svg>
