<?xml version="1.0" encoding="utf-8"?>
<!-- Generator: Adobe Illustrator 16.0.0, SVG Export Plug-In . SVG Version: 6.00 Build 0)  -->
<!DOCTYPE svg PUBLIC "-//W3C//DTD SVG 1.1//EN" "http://www.w3.org/Graphics/SVG/1.1/DTD/svg11.dtd">
<svg version="1.1" id="Layer_1" xmlns="http://www.w3.org/2000/svg" xmlns:xlink="http://www.w3.org/1999/xlink" x="0px" y="0px"
	 width="20px" height="20px" viewBox="0 0 20 20" enable-background="new 0 0 20 20" xml:space="preserve">
<g>
	<path fill="#A2D4DE" d="M19.69,10c0,5.352-4.339,9.69-9.69,9.69S0.31,15.352,0.31,10c0-5.351,4.339-9.69,9.69-9.69
		S19.69,4.648,19.69,10z"/>
	<path fill="#E35656" d="M12.375,9.209c0,0.143-0.114,0.259-0.258,0.259l0,0c-0.144,0-0.26-0.116-0.26-0.259V6.396
		c0-0.143,0.116-0.259,0.26-0.259l0,0c0.143,0,0.258,0.115,0.258,0.259V9.209z"/>
	<path fill="#CC3432" d="M15.354,14.453c0,0.278-0.226,0.503-0.503,0.503H5.158c-0.278,0-0.504-0.225-0.504-0.503v-0.714
		c0-0.278,0.309-0.628,0.587-0.628h9.525c0.278,0,0.587,0.35,0.587,0.628V14.453z"/>
	<path fill="#E17F7F" d="M10.562,9.614c0,0.181-0.198,0.319-0.453,0.319c-0.254,0-0.452-0.138-0.452-0.319
		c0-0.18,0.198-0.312,0.452-0.312C10.363,9.302,10.562,9.434,10.562,9.614z"/>
	<path fill="#E17F7F" d="M9.501,10.086c0,0.18-0.197,0.319-0.452,0.319s-0.452-0.14-0.452-0.319c0-0.181,0.197-0.312,0.452-0.312
		S9.501,9.905,9.501,10.086z"/>
	<path fill="#E17F7F" d="M11.63,10.086c0,0.18-0.197,0.319-0.451,0.319c-0.255,0-0.452-0.14-0.452-0.319
		c0-0.181,0.197-0.312,0.452-0.312C11.433,9.773,11.63,9.905,11.63,10.086z"/>
	<path fill="#E17F7F" d="M9.501,11.766c0,0.18-0.197,0.317-0.452,0.317s-0.452-0.138-0.452-0.317c0-0.183,0.197-0.313,0.452-0.313
		S9.501,11.585,9.501,11.766z"/>
	<path fill="#E17F7F" d="M11.63,11.766c0,0.18-0.197,0.317-0.451,0.317c-0.255,0-0.452-0.138-0.452-0.317
		c0-0.183,0.197-0.313,0.452-0.313C11.433,11.452,11.63,11.585,11.63,11.766z"/>
	<path fill="#E17F7F" d="M10.562,12.256c0,0.182-0.198,0.32-0.453,0.32c-0.254,0-0.452-0.138-0.452-0.32
		c0-0.18,0.198-0.311,0.452-0.311C10.363,11.945,10.562,12.076,10.562,12.256z"/>
	<path fill="#E17F7F" d="M11.945,10.937c0,0.181-0.197,0.319-0.452,0.319c-0.254,0-0.452-0.139-0.452-0.319
		c0-0.18,0.198-0.312,0.452-0.312C11.749,10.624,11.945,10.757,11.945,10.937z"/>
	<path fill="#E17F7F" d="M9.166,10.937c0,0.181-0.197,0.319-0.452,0.319s-0.453-0.139-0.453-0.319c0-0.18,0.198-0.312,0.453-0.312
		C8.97,10.624,9.166,10.757,9.166,10.937z"/>
	<path fill="#E35656" d="M8.235,9.209c0,0.143-0.116,0.259-0.259,0.259l0,0c-0.143,0-0.259-0.116-0.259-0.259V6.396
		c0-0.143,0.116-0.259,0.259-0.259l0,0c0.143,0,0.259,0.115,0.259,0.259V9.209z"/>
	<path fill="#D84544" d="M12.753,8.705c0,0-1.001-0.206-2.689-0.206c-1.688,0-2.806,0.206-2.806,0.206
		c-2.518,2.308-2.602,5.3-2.602,5.3c0,0.619,0.225,0.701,0.504,0.701h9.692c0.277,0,0.504-0.082,0.504-0.701
		c0,0-0.084-3.16-2.602-5.3H12.753z"/>
	<path fill="#EEA7A7" d="M12.207,10.919c0,1.039-0.916,1.84-2.099,1.84c-1.181,0-2.098-0.801-2.098-1.84
		c0-1.04,0.917-1.799,2.098-1.799C11.291,9.12,12.207,9.878,12.207,10.919z"/>
	<path fill="#CC3432" d="M10.487,9.584c0,0.117-0.165,0.207-0.379,0.207s-0.379-0.09-0.379-0.207s0.165-0.203,0.379-0.203
		S10.487,9.467,10.487,9.584z"/>
	<path fill="#CC3432" d="M9.428,10.056c0,0.117-0.165,0.207-0.379,0.207s-0.379-0.09-0.379-0.207c0-0.118,0.165-0.203,0.379-0.203
		S9.428,9.938,9.428,10.056z"/>
	<path fill="#CC3432" d="M11.557,10.056c0,0.117-0.165,0.207-0.378,0.207c-0.214,0-0.379-0.09-0.379-0.207
		c0-0.118,0.165-0.203,0.379-0.203C11.392,9.853,11.557,9.938,11.557,10.056z"/>
	<path fill="#CC3432" d="M9.428,11.734c0,0.117-0.165,0.207-0.379,0.207s-0.379-0.09-0.379-0.207s0.165-0.203,0.379-0.203
		S9.428,11.617,9.428,11.734z"/>
	<path fill="#CC3432" d="M11.557,11.734c0,0.117-0.165,0.207-0.378,0.207c-0.214,0-0.379-0.09-0.379-0.207s0.165-0.203,0.379-0.203
		C11.392,11.531,11.557,11.617,11.557,11.734z"/>
	<path fill="#CC3432" d="M10.487,12.228c0,0.118-0.165,0.208-0.379,0.208s-0.379-0.09-0.379-0.208c0-0.116,0.165-0.202,0.379-0.202
		S10.487,12.111,10.487,12.228z"/>
	<path fill="#CC3432" d="M11.873,10.906c0,0.116-0.166,0.207-0.38,0.207c-0.213,0-0.378-0.091-0.378-0.207
		c0-0.117,0.165-0.203,0.378-0.203C11.707,10.703,11.873,10.789,11.873,10.906z"/>
	<path fill="#CC3432" d="M9.093,10.906c0,0.116-0.165,0.207-0.379,0.207s-0.379-0.091-0.379-0.207c0-0.117,0.165-0.203,0.379-0.203
		S9.093,10.789,9.093,10.906z"/>
	<path fill="#CC3432" d="M4.467,10.499c0.806-0.016,1.472-0.184,1.602-1.049C6.199,8.577,5.84,8.113,5.84,8.113
		s0.604-0.741,4.216-0.933c3.613,0.191,4.217,0.933,4.217,0.933s-0.359,0.465-0.229,1.337c0.129,0.865,0.795,1.012,1.602,1.049
		c2.578,0.122,1.788-2.157,1.788-2.157c-0.593-2.334-5.16-2.855-7.315-2.773c-2.155-0.082-6.847,0.439-7.44,2.773
		C2.678,8.342,1.78,10.553,4.467,10.499z"/>
	<path fill="#BA2E2D" d="M14.044,9.45c0.129,0.865,0.795,1.012,1.602,1.049c1.342,0.063,1.771-0.523,1.876-1.102
		c0,0-0.848,0.514-1.616,0.514S14.044,9.451,14.044,9.45L14.044,9.45z"/>
	<path fill="#BA2E2D" d="M6.069,9.448c-0.131,0.876-0.805,1.024-1.62,1.062c-1.359,0.064-1.794-0.53-1.898-1.115
		c0,0,0.858,0.519,1.636,0.519C4.963,9.913,6.068,9.447,6.069,9.448L6.069,9.448z"/>
</g>
</svg>
