<?xml version="1.0" encoding="utf-8"?>
<!-- Generated by IcoMoon.io -->
<!DOCTYPE svg PUBLIC "-//W3C//DTD SVG 1.1//EN" "http://www.w3.org/Graphics/SVG/1.1/DTD/svg11.dtd">
<svg version="1.1" xmlns="http://www.w3.org/2000/svg" xmlns:xlink="http://www.w3.org/1999/xlink" width="20" height="20" viewBox="0 0 20 20">
<path fill="rgb(37, 183, 211)" d="M0.309 10c0-5.352 4.339-9.691 9.69-9.691s9.691 4.338 9.691 9.691c0 5.352-4.339 9.69-9.691 9.69s-9.69-4.339-9.69-9.69z"></path>
<path fill="rgb(255, 255, 255)" d="M15.718 6.22l-1.938-1.938c-0.419-0.419-1.098-0.419-1.517 0l-2.993 2.993c-0.419 0.419-0.419 1.098-0 1.517l1.938 1.938c0.419 0.419 1.098 0.419 1.517-0l2.993-2.993c0.419-0.419 0.419-1.098 0-1.517zM12.52 9.506c-0.246 0.246-0.644 0.246-0.89 0l-1.136-1.136c-0.246-0.246-0.246-0.644 0-0.89l1.973-1.973c0.246-0.246 0.644-0.246 0.889 0l1.136 1.136c0.246 0.246 0.246 0.644 0 0.889l-1.973 1.973z"></path>
<path fill="rgb(255, 255, 255)" d="M10.731 11.207l-1.938-1.938c-0.419-0.419-1.098-0.419-1.517 0l-2.993 2.993c-0.419 0.419-0.419 1.098 0 1.517l1.938 1.938c0.419 0.419 1.098 0.419 1.517 0l2.993-2.993c0.419-0.419 0.419-1.098-0-1.517zM7.533 14.493c-0.246 0.246-0.644 0.246-0.889 0l-1.136-1.136c-0.246-0.246-0.246-0.644 0-0.889l1.973-1.973c0.246-0.246 0.644-0.246 0.889 0l1.136 1.136c0.246 0.246 0.246 0.644 0 0.889l-1.973 1.973z"></path>
<path fill="rgb(72, 161, 175)" d="M12.298 7.797l-0.095-0.095c-0.302-0.302-0.795-0.302-1.097 0l-3.404 3.404c-0.302 0.302-0.302 0.795 0 1.097l0.095 0.095c0.302 0.302 0.795 0.302 1.097 0l3.404-3.404c0.302-0.302 0.302-0.795 0-1.097z"></path>
<path fill="rgb(255, 255, 255)" d="M8.723 12.128c-0.209 0.209-0.548 0.209-0.757 0l-0.095-0.095c-0.209-0.209-0.209-0.548 0-0.757l3.404-3.404c0.209-0.209 0.548-0.209 0.757 0l0.095 0.095c0.209 0.209 0.209 0.548 0 0.756l-3.404 3.404z"></path>
</svg>
