<?xml version="1.0" encoding="utf-8"?>
<!-- Generator: Adobe Illustrator 16.0.0, SVG Export Plug-In . SVG Version: 6.00 Build 0)  -->
<!DOCTYPE svg PUBLIC "-//W3C//DTD SVG 1.1//EN" "http://www.w3.org/Graphics/SVG/1.1/DTD/svg11.dtd">
<svg version="1.1" id="Layer_1" xmlns="http://www.w3.org/2000/svg" xmlns:xlink="http://www.w3.org/1999/xlink" x="0px" y="0px"
	 width="20px" height="20px" viewBox="0 0 20 20" enable-background="new 0 0 20 20" xml:space="preserve">
<g>
	<path fill="#4ABC96" d="M19.69,10c0,5.351-4.338,9.69-9.69,9.69S0.31,15.353,0.31,10c0-5.352,4.338-9.69,9.69-9.69
		S19.69,4.647,19.69,10z"/>
	<path fill="#A07238" d="M4.968,15.816c-0.217,0.217-0.569,0.217-0.786,0l0,0c-0.218-0.217-0.218-0.568,0-0.785l4.067-4.067
		c0.217-0.217,0.568-0.217,0.786,0l0,0c0.216,0.217,0.216,0.568,0,0.785L4.968,15.816L4.968,15.816z"/>
	<path fill="#D4A160" d="M5.511,15.967c-0.19,0.189-0.675,0.013-1.082-0.396l0,0c-0.408-0.409-0.585-0.894-0.396-1.083l4.318-4.318
		c0.191-0.19,0.676-0.014,1.084,0.396l0,0c0.408,0.408,0.585,0.893,0.395,1.083L5.511,15.967L5.511,15.967z"/>
	<path fill="#60C3B6" d="M11.663,12.331c-2.206,0-3.994-1.787-3.994-3.994s1.788-3.995,3.994-3.995c2.207,0,3.994,1.788,3.994,3.995
		S13.87,12.331,11.663,12.331z"/>
	<path fill="#83CECA" d="M15.038,8.722c0,1.733-1.405,3.139-3.139,3.139c-1.734,0-3.139-1.405-3.139-3.139s1.404-3.138,3.139-3.138
		C13.633,5.584,15.038,6.988,15.038,8.722z"/>
	<path fill="#A07238" d="M8.152,10.35l-0.568,0.567c0,0,0.519,1.146,1.635,1.321l0.412-0.41v-0.534L8.152,10.35L8.152,10.35z"/>
	<path fill="#EBEDEF" d="M8.566,5.24c-1.71,1.71-1.71,4.483,0,6.193c1.711,1.709,4.483,1.71,6.193,0
		c1.711-1.711,1.711-4.484,0-6.194C13.05,3.528,10.277,3.528,8.566,5.24L8.566,5.24z M13.979,10.652
		c-1.277,1.279-3.352,1.279-4.632,0c-1.279-1.279-1.279-3.354,0-4.632c1.28-1.279,3.354-1.279,4.632,0
		C15.259,7.299,15.259,9.373,13.979,10.652z"/>
</g>
</svg>
