<?xml version="1.0" encoding="utf-8"?>
<!-- Generated by IcoMoon.io -->
<!DOCTYPE svg PUBLIC "-//W3C//DTD SVG 1.1//EN" "http://www.w3.org/Graphics/SVG/1.1/DTD/svg11.dtd">
<svg version="1.1" xmlns="http://www.w3.org/2000/svg" xmlns:xlink="http://www.w3.org/1999/xlink" width="20" height="20" viewBox="0 0 20 20">
<path fill="rgb(216, 219, 186)" d="M10 0.31c-5.352 0-9.691 4.338-9.691 9.691s4.339 9.69 9.691 9.69c5.352 0 9.69-4.339 9.69-9.69s-4.339-9.691-9.69-9.691z"></path>
<path fill="rgb(135, 136, 120)" d="M13.089 12.869v-1.095l-1.036-0.326c-0.088-0.352-0.228-0.683-0.41-0.985l0.504-0.965-0.774-0.774-0.968 0.505c-0.301-0.181-0.63-0.318-0.98-0.405l-0.328-1.042h-1.095l-0.328 1.042c-0.35 0.087-0.679 0.225-0.98 0.405l-0.968-0.505-0.774 0.774 0.504 0.965c-0.183 0.302-0.322 0.633-0.41 0.985l-1.036 0.326v1.095l1.032 0.325c0.087 0.355 0.227 0.689 0.41 0.994l-0.5 0.957 0.774 0.774 0.955-0.498c0.306 0.185 0.642 0.327 0.999 0.415l0.322 1.026h1.095l0.322-1.026c0.357-0.088 0.693-0.229 0.999-0.415l0.955 0.498 0.774-0.774-0.5-0.957c0.183-0.305 0.323-0.639 0.41-0.994l1.032-0.325zM8.548 14.725c-1.323 0-2.396-1.073-2.396-2.396s1.073-2.396 2.396-2.396c1.323 0 2.396 1.073 2.396 2.396s-1.073 2.396-2.396 2.396z"></path>
<path fill="rgb(198, 156, 40)" d="M12.998 5.519c-0.001-0.238-0.039-0.47-0.108-0.691l0.471-0.536-0.373-0.614-0.695 0.171c-0.164-0.162-0.352-0.301-0.561-0.411l-0.046-0.715-0.698-0.17-0.371 0.613c-0.236 0.001-0.467 0.037-0.687 0.106l-0.538-0.472-0.614 0.373 0.171 0.693c-0.163 0.164-0.304 0.353-0.414 0.563l-0.711 0.046-0.17 0.697 0.607 0.367c0 0.24 0.037 0.474 0.106 0.697l-0.467 0.532 0.373 0.614 0.685-0.169c0.166 0.166 0.358 0.308 0.572 0.42l0.046 0.704 0.697 0.17 0.365-0.603c0.241-0.001 0.477-0.038 0.701-0.109l0.53 0.466 0.614-0.373-0.169-0.687c0.164-0.166 0.305-0.357 0.416-0.569l0.708-0.046 0.17-0.697-0.609-0.369zM12.155 5.907c-0.206 0.843-1.056 1.359-1.899 1.153s-1.359-1.056-1.153-1.899 1.056-1.359 1.899-1.153 1.359 1.056 1.153 1.899z"></path>
<path fill="rgb(112, 61, 26)" d="M16.203 8.798c-0.019-0.182-0.065-0.363-0.139-0.536l0.332-0.464-0.344-0.456-0.537 0.191c-0.146-0.118-0.307-0.212-0.477-0.281l-0.093-0.562-0.566-0.080-0.244 0.513c-0.183 0.019-0.365 0.065-0.539 0.138l-0.461-0.33-0.456 0.344 0.189 0.532c-0.121 0.148-0.216 0.311-0.286 0.483l-0.556 0.092-0.080 0.566 0.507 0.241c0.019 0.186 0.066 0.37 0.141 0.546l-0.326 0.456 0.344 0.456 0.529-0.188c0.149 0.121 0.313 0.217 0.486 0.286l0.092 0.554 0.566 0.080 0.242-0.509c0.184-0.019 0.368-0.066 0.543-0.141l0.459 0.328 0.456-0.344-0.19-0.534c0.119-0.147 0.213-0.309 0.282-0.48l0.56-0.093 0.080-0.566-0.514-0.245zM15.081 9.996c-0.551 0.415-1.335 0.305-1.75-0.246s-0.305-1.335 0.246-1.75c0.551-0.415 1.335-0.305 1.75 0.246s0.305 1.335-0.246 1.75z"></path>
</svg>
