<?xml version="1.0" encoding="utf-8"?>
<!-- Generated by IcoMoon.io -->
<!DOCTYPE svg PUBLIC "-//W3C//DTD SVG 1.1//EN" "http://www.w3.org/Graphics/SVG/1.1/DTD/svg11.dtd">
<svg version="1.1" xmlns="http://www.w3.org/2000/svg" xmlns:xlink="http://www.w3.org/1999/xlink" width="20" height="20" viewBox="0 0 20 20">
<path fill="rgb(229, 170, 23)" d="M0.309 10c0-5.352 4.339-9.691 9.69-9.691s9.691 4.338 9.691 9.691c0 5.352-4.339 9.69-9.691 9.69s-9.69-4.339-9.69-9.69z"></path>
<path fill="rgb(255, 255, 255)" d="M10.447 3.789v0.721c0.476 0.049 0.885 0.147 1.225 0.294s0.638 0.369 0.891 0.668c0.2 0.227 0.355 0.461 0.464 0.701s0.164 0.461 0.164 0.661c0 0.223-0.081 0.415-0.244 0.577s-0.359 0.244-0.591 0.244c-0.436 0-0.719-0.236-0.848-0.708-0.147-0.556-0.501-0.926-1.061-1.108v2.777c0.552 0.151 0.991 0.289 1.318 0.414s0.62 0.305 0.878 0.541c0.276 0.245 0.488 0.537 0.638 0.878s0.224 0.713 0.224 1.118c0 0.507-0.119 0.982-0.357 1.425s-0.589 0.804-1.051 1.085c-0.463 0.28-1.013 0.447-1.649 0.501v1.662c0 0.263-0.026 0.454-0.077 0.574s-0.164 0.18-0.337 0.18c-0.16 0-0.273-0.049-0.337-0.147s-0.097-0.249-0.097-0.454v-1.802c-0.521-0.058-0.976-0.18-1.365-0.367s-0.714-0.419-0.975-0.698c-0.26-0.278-0.453-0.567-0.577-0.868s-0.187-0.595-0.187-0.885c0-0.214 0.083-0.406 0.25-0.577s0.375-0.257 0.624-0.257c0.2 0 0.369 0.047 0.507 0.14s0.234 0.225 0.287 0.394c0.12 0.365 0.225 0.644 0.314 0.838s0.224 0.371 0.404 0.531c0.18 0.16 0.419 0.283 0.718 0.367v-3.104c-0.596-0.165-1.095-0.348-1.495-0.551s-0.725-0.491-0.975-0.865c-0.249-0.374-0.374-0.854-0.374-1.442 0-0.765 0.244-1.393 0.731-1.883s1.192-0.774 2.113-0.854v-0.708c0-0.374 0.14-0.561 0.421-0.561 0.285 0 0.427 0.182 0.427 0.547zM9.599 8.368v-2.557c-0.374 0.111-0.665 0.258-0.875 0.441s-0.314 0.458-0.314 0.828c0 0.352 0.098 0.618 0.294 0.798s0.494 0.344 0.895 0.491zM10.447 10.351v2.924c0.449-0.089 0.797-0.269 1.041-0.541s0.367-0.587 0.367-0.948c0-0.387-0.119-0.686-0.357-0.898s-0.589-0.391-1.051-0.537z"></path>
</svg>
