<?xml version="1.0" encoding="utf-8"?>
<!-- Generated by IcoMoon.io -->
<!DOCTYPE svg PUBLIC "-//W3C//DTD SVG 1.1//EN" "http://www.w3.org/Graphics/SVG/1.1/DTD/svg11.dtd">
<svg version="1.1" xmlns="http://www.w3.org/2000/svg" xmlns:xlink="http://www.w3.org/1999/xlink" width="20" height="20" viewBox="0 0 20 20">
<path fill="rgb(224, 79, 95)" d="M19.691 10c0-5.352-4.339-9.691-9.69-9.691s-9.691 4.338-9.691 9.691c0 5.352 4.339 9.69 9.691 9.69s9.69-4.339 9.69-9.69z"></path>
<path fill="rgb(255, 255, 255)" d="M15.645 9.141h-8.809c-0.216 0-0.391 0.175-0.391 0.391v0.938c0 0.216 0.175 0.391 0.391 0.391h8.809c0.216 0 0.391-0.175 0.391-0.391v-0.938c0-0.216-0.175-0.391-0.391-0.391z"></path>
<path fill="rgb(255, 255, 255)" d="M5.293 9.141h-0.938c-0.216 0-0.391 0.175-0.391 0.391v0.938c0 0.216 0.175 0.391 0.391 0.391h0.938c0.216 0 0.391-0.175 0.391-0.391v-0.938c0-0.216-0.175-0.391-0.391-0.391z"></path>
<path fill="rgb(255, 255, 255)" d="M15.645 6.445h-8.809c-0.216 0-0.391 0.175-0.391 0.391v0.938c0 0.216 0.175 0.391 0.391 0.391h8.809c0.216 0 0.391-0.175 0.391-0.391v-0.938c0-0.216-0.175-0.391-0.391-0.391z"></path>
<path fill="rgb(255, 255, 255)" d="M5.293 6.445h-0.938c-0.216 0-0.391 0.175-0.391 0.391v0.938c0 0.216 0.175 0.391 0.391 0.391h0.938c0.216 0 0.391-0.175 0.391-0.391v-0.938c0-0.216-0.175-0.391-0.391-0.391z"></path>
<path fill="rgb(255, 255, 255)" d="M15.645 11.836h-8.809c-0.216 0-0.391 0.175-0.391 0.391v0.938c0 0.216 0.175 0.391 0.391 0.391h8.809c0.216 0 0.391-0.175 0.391-0.391v-0.938c0-0.216-0.175-0.391-0.391-0.391z"></path>
<path fill="rgb(255, 255, 255)" d="M5.293 11.836h-0.938c-0.216 0-0.391 0.175-0.391 0.391v0.938c0 0.216 0.175 0.391 0.391 0.391h0.938c0.216 0 0.391-0.175 0.391-0.391v-0.938c0-0.216-0.175-0.391-0.391-0.391z"></path>
</svg>
