<?xml version="1.0" encoding="utf-8"?>
<!-- Generated by IcoMoon.io -->
<!DOCTYPE svg PUBLIC "-//W3C//DTD SVG 1.1//EN" "http://www.w3.org/Graphics/SVG/1.1/DTD/svg11.dtd">
<svg version="1.1" xmlns="http://www.w3.org/2000/svg" xmlns:xlink="http://www.w3.org/1999/xlink" width="20" height="20" viewBox="0 0 20 20">
<path fill="rgb(250, 188, 61)" d="M19.691 10c0-5.352-4.339-9.691-9.69-9.691s-9.691 4.338-9.691 9.691c0 5.352 4.339 9.69 9.691 9.69s9.69-4.339 9.69-9.69z"></path>
<path fill="rgb(255, 255, 255)" d="M11.92 13.31c0 1.060-0.86 1.92-1.92 1.92s-1.92-0.86-1.92-1.92c0-1.060 0.86-1.92 1.92-1.92s1.92 0.86 1.92 1.92z"></path>
<path fill="rgb(255, 255, 255)" d="M7.033 11.604c0.793-0.91 1.846-1.411 2.967-1.411s2.174 0.501 2.967 1.411c0 0 0 0 0 0l0.624-0.716c-0-0-0-0-0-0-0.959-1.101-2.234-1.708-3.591-1.708s-2.632 0.607-3.591 1.708c-0 0-0 0-0 0l0.624 0.717c0-0 0-0 0-0z"></path>
<path fill="rgb(255, 255, 255)" d="M5.722 10.013c1.143-1.312 2.662-2.035 4.278-2.035s3.135 0.723 4.278 2.035c0 0 0 0 0 0l0.624-0.716c-0-0-0-0-0-0-1.309-1.504-3.050-2.332-4.902-2.332s-3.593 0.828-4.902 2.332c-0 0-0 0-0 0l0.624 0.716c0-0 0-0 0-0z"></path>
<path fill="rgb(255, 255, 255)" d="M4.423 8.437c1.49-1.711 3.47-2.653 5.577-2.653s4.087 0.942 5.577 2.653c0 0 0 0 0 0l0.624-0.717c-0-0-0-0-0-0-1.656-1.902-3.859-2.95-6.201-2.95s-4.544 1.048-6.201 2.95c-0 0-0 0-0 0l0.624 0.716c-0 0 0-0 0-0z"></path>
<path fill="rgb(255, 255, 255)" d="M10 15.011h0v0h-0v-0z"></path>
</svg>
