<?xml version="1.0" encoding="utf-8"?>
<!-- Generated by IcoMoon.io -->
<!DOCTYPE svg PUBLIC "-//W3C//DTD SVG 1.1//EN" "http://www.w3.org/Graphics/SVG/1.1/DTD/svg11.dtd">
<svg version="1.1" xmlns="http://www.w3.org/2000/svg" xmlns:xlink="http://www.w3.org/1999/xlink" width="20" height="20" viewBox="0 0 20 20">
<path fill="rgb(51, 77, 92)" d="M10 0.31c-5.352 0-9.691 4.338-9.691 9.691s4.339 9.69 9.691 9.69c5.352 0 9.69-4.339 9.69-9.69s-4.339-9.691-9.69-9.691z"></path>
<path fill="rgb(219, 187, 0)" d="M5.393 8.078l-0.696-0.025-0.219-0.64-0.219 0.64-0.696 0.025 0.561 0.391-0.211 0.684 0.565-0.427 0.565 0.427-0.211-0.684z"></path>
<path fill="rgb(219, 187, 0)" d="M4.701 8.235l0.12-0.455-0.379 0.279-0.411-0.254 0.164 0.446-0.384 0.313 0.49-0.018 0.163 0.463 0.15-0.472 0.475-0.012z"></path>
<path fill="rgb(219, 187, 0)" d="M14.255 3.024l-0.696-0.025-0.219-0.64-0.219 0.64-0.696 0.025 0.561 0.391-0.211 0.684 0.565-0.427 0.565 0.427-0.211-0.684z"></path>
<path fill="rgb(219, 187, 0)" d="M13.563 3.181l0.12-0.455-0.379 0.279-0.411-0.254 0.164 0.446-0.384 0.313 0.49-0.018 0.163 0.463 0.15-0.472 0.475-0.012z"></path>
<path fill="rgb(219, 187, 0)" d="M17.067 9.060l-0.696-0.025-0.219-0.64-0.219 0.64-0.696 0.025 0.561 0.391-0.211 0.684 0.565-0.427 0.565 0.427-0.211-0.684z"></path>
<path fill="rgb(219, 187, 0)" d="M16.375 9.217l0.12-0.455-0.379 0.279-0.411-0.254 0.164 0.446-0.384 0.313 0.49-0.018 0.163 0.463 0.15-0.472 0.475-0.012z"></path>
<path fill="rgb(234, 99, 7)" d="M15.284 12.606c-0.232-0.56-0.828-1.429-1.805-2.185-0.747-0.578-1.962-1.268-3.503-1.268-1.524 0-2.724 0.65-3.463 1.195-0.99 0.731-1.589 1.584-1.819 2.139-0.173 0.417-0.176 0.738-0.009 0.904 0.135 0.135 0.296 0.198 0.506 0.198 0.254 0 0.557-0.090 0.976-0.214 0.785-0.232 1.971-0.583 3.809-0.583 1.896 0 3.138 0.337 3.959 0.559 0.417 0.113 0.718 0.195 0.956 0.195h0c0.184 0 0.319-0.049 0.425-0.155 0.136-0.136 0.125-0.407-0.032-0.786z"></path>
<path fill="rgb(223, 234, 220)" d="M11.491 5.045c-0.581-1.589-1.218-2.597-1.491-2.597s-0.908 1-1.489 2.583c-0.613 1.672-1.166 3.996-1.166 6.48 0 1.58 0.242 2.208 0.242 2.208s1.011 0.539 2.454 0.539 2.372-0.539 2.372-0.539 0.238-0.641 0.238-2.228c0-2.462-0.549-4.776-1.16-6.447z"></path>
<path fill="rgb(206, 88, 0)" d="M10.003 2.448c-0.341 0-0.954 0.959-1.492 2.583 0.419 0.093 0.942 0.169 1.536 0.169 0.562 0 1.050-0.068 1.442-0.154-0.537-1.625-1.146-2.598-1.486-2.598z"></path>
<path fill="rgb(234, 99, 7)" d="M10.003 2.448c-0.326 0-0.899 0.874-1.418 2.366 0.406 0.085 0.903 0.153 1.462 0.153 0.527 0 0.989-0.060 1.368-0.139-0.518-1.493-1.087-2.38-1.412-2.38z"></path>
<path fill="rgb(219, 187, 0)" d="M11.198 7.493c0 0.662-0.537 1.198-1.198 1.198s-1.198-0.537-1.198-1.198c0-0.662 0.537-1.198 1.198-1.198s1.198 0.537 1.198 1.198z"></path>
<path fill="rgb(255, 219, 41)" d="M10.996 7.493c0 0.55-0.446 0.996-0.996 0.996s-0.996-0.446-0.996-0.996c0-0.55 0.446-0.996 0.996-0.996s0.996 0.446 0.996 0.996z"></path>
<path fill="rgb(255, 227, 110)" d="M10.58 6.856c-0.336-0.336-0.881-0.336-1.217 0s-0.336 0.881 0 1.217 1.553-0.881 1.217-1.217z"></path>
<path fill="rgb(225, 122, 45)" d="M10.036 14.69c-0.64 0-1.28 0.013-1.28 0.328 0 0.631 1.272 3.188 1.272 3.188s1.293-2.574 1.293-3.188c0-0.316-0.643-0.329-1.285-0.328z"></path>
<path fill="rgb(244, 224, 40)" d="M10.039 14.839c-0.455 0-0.911-0.033-0.911 0.191 0 0.448 0.904 2.264 0.904 2.264s0.918-1.828 0.918-2.264c-0-0.224-0.456-0.191-0.911-0.191z"></path>
<path fill="rgb(255, 255, 255)" d="M10.039 15.029c-0.274 0-0.547-0.078-0.547 0.057 0 0.269 0.543 1.36 0.543 1.36s0.552-1.098 0.552-1.36c0-0.135-0.274-0.057-0.547-0.057z"></path>
</svg>
