<?xml version="1.0" encoding="utf-8"?>
<!-- Generated by IcoMoon.io -->
<!DOCTYPE svg PUBLIC "-//W3C//DTD SVG 1.1//EN" "http://www.w3.org/Graphics/SVG/1.1/DTD/svg11.dtd">
<svg version="1.1" xmlns="http://www.w3.org/2000/svg" xmlns:xlink="http://www.w3.org/1999/xlink" width="20" height="20" viewBox="0 0 20 20">
<path fill="rgb(51, 77, 92)" d="M10 0.31c-5.352 0-9.691 4.338-9.691 9.691s4.339 9.69 9.691 9.69c5.352 0 9.69-4.339 9.69-9.69s-4.339-9.691-9.69-9.691z"></path>
<path fill="rgb(226, 161, 32)" d="M14.531 10c0 2.503-2.029 4.531-4.531 4.531s-4.531-2.029-4.531-4.531c0-2.503 2.029-4.531 4.531-4.531s4.531 2.029 4.531 4.531z"></path>
<path fill="rgb(234, 179, 42)" d="M13.57 7.21c-1.047 0.003-2.241 0.221-3.691-0.329-0.964-0.365-2.021-0.411-2.756-0.381-0.253 0.208-0.484 0.444-0.687 0.702 0.895 0.054 2.064 0.211 2.799 0.675 0.797 0.503 3.425 0.316 4.854 0.169-0.143-0.298-0.317-0.578-0.519-0.836z"></path>
<path fill="rgb(234, 179, 42)" d="M12.891 13.015c-1.176-0.064-2.503 0.407-4.23-0.159-0.82-0.269-1.695-0.311-2.389-0.28 0.254 0.367 0.56 0.694 0.908 0.971 0.324 0.080 0.627 0.188 0.882 0.333 0.707 0.403 2.754 0.229 4.215 0.038 0.391-0.228 0.745-0.513 1.050-0.843-0.119-0.029-0.262-0.051-0.437-0.060z"></path>
<path fill="rgb(234, 179, 42)" d="M14.529 9.872c-1.115-0.203-2.65-0.392-4.104-0.27-1.921 0.161-3.484-0.169-4.879-0.44-0.051 0.272-0.078 0.552-0.078 0.838 0 0.037 0.001 0.074 0.001 0.111 2.145 0.455 4.768 0.91 5.781 0.669 0.884-0.21 2.099-0.195 3.23-0.104 0.033-0.221 0.050-0.447 0.050-0.676 0-0.043-0.001-0.086-0.002-0.128z"></path>
<path fill="rgb(168, 132, 59)" d="M14.043 7.952c0.203 0.399 0.348 0.832 0.425 1.289 0.74 0.217 1.182 0.49 1.182 0.786 0 0.297-0.445 0.571-1.191 0.789-0.271 0.079-0.582 0.151-0.927 0.214-0.967 0.176-2.195 0.282-3.531 0.282s-2.564-0.106-3.531-0.282c-0.344-0.063-0.655-0.135-0.927-0.214-0.746-0.218-1.191-0.491-1.191-0.789 0-0.296 0.441-0.569 1.182-0.786 0.077-0.456 0.222-0.89 0.425-1.289-2.642 0.395-4.435 1.164-4.435 2.048s1.793 1.653 4.435 2.048c1.202 0.179 2.579 0.281 4.043 0.281s2.841-0.102 4.043-0.281c2.642-0.395 4.435-1.164 4.435-2.048s-1.793-1.653-4.435-2.048z"></path>
<path fill="rgb(188, 147, 75)" d="M14.234 8.279c0.041 0.107 0.078 0.216 0.111 0.327 1.315 0.326 2.141 0.798 2.141 1.323 0 0.676-1.445 1.19-3.466 1.492-0.919 0.137-1.973 0.215-3.093 0.215s-2.174-0.078-3.093-0.215c-2.021-0.302-3.319-0.816-3.319-1.492 0-0.525 0.827-0.997 2.141-1.323 0.033-0.111 0.070-0.22 0.111-0.327-1.859 0.364-3.536 0.961-3.536 1.636 0 0.762 2.009 1.559 4.285 1.899 1.036 0.155 2.223 0.243 3.484 0.243s2.449-0.088 3.484-0.243c2.276-0.34 4.285-1.137 4.285-1.899 0-0.675-1.676-1.272-3.536-1.636z"></path>
<path fill="rgb(234, 179, 42)" d="M14.383 8.849c-0.906 0.093-5 0.413-8.408-0.931-0.044 0.085-0.085 0.171-0.124 0.259 0.906 0.329 4.056 1.31 8.598 0.963-0.019-0.098-0.041-0.195-0.066-0.291z"></path>
<path fill="rgb(234, 179, 42)" d="M12.603 6.291c-1.156-0.046-2.629-0.189-4.114-0.563-0.126 0.045-0.249 0.094-0.37 0.149 1.191 0.311 2.834 0.618 4.84 0.692-0.114-0.098-0.233-0.191-0.357-0.278z"></path>
</svg>
