<?xml version="1.0" encoding="utf-8"?>
<!-- Generated by IcoMoon.io -->
<!DOCTYPE svg PUBLIC "-//W3C//DTD SVG 1.1//EN" "http://www.w3.org/Graphics/SVG/1.1/DTD/svg11.dtd">
<svg version="1.1" xmlns="http://www.w3.org/2000/svg" xmlns:xlink="http://www.w3.org/1999/xlink" width="20" height="20" viewBox="0 0 20 20">
<path fill="rgb(51, 77, 92)" d="M10 0.31c-5.352 0-9.691 4.338-9.691 9.691s4.339 9.69 9.691 9.69c5.352 0 9.69-4.339 9.69-9.69s-4.339-9.691-9.69-9.691z"></path>
<path fill="rgb(242, 201, 0)" d="M12.902 3.465c0.395 0.887 0.614 1.869 0.614 2.902 0 3.948-3.201 7.149-7.149 7.149-1.033 0-2.015-0.22-2.902-0.614 1.113 2.502 3.62 4.247 6.535 4.247 3.948 0 7.149-3.201 7.149-7.149 0-2.915-1.745-5.422-4.247-6.535z"></path>
<path fill="rgb(219, 187, 0)" d="M6.367 13.516c-1.033 0-2.015-0.22-2.902-0.614 1.113 2.502 3.62 4.247 6.535 4.247 3.948 0 7.149-3.201 7.149-7.149 0 0-6.834 3.516-10.782 3.516z"></path>
<path fill="rgb(219, 187, 0)" d="M9.553 7.679l-1.052-0.037-0.331-0.968-0.331 0.968-1.052 0.037 0.848 0.592-0.32 1.034 0.855-0.645 0.855 0.645-0.32-1.034z"></path>
<path fill="rgb(242, 201, 0)" d="M8.506 7.917l0.181-0.688-0.573 0.422-0.622-0.384 0.248 0.674-0.581 0.473 0.742-0.028 0.247 0.7 0.226-0.715 0.718-0.018z"></path>
<path fill="rgb(219, 187, 0)" d="M4.275 9.282l-0.757-0.027-0.238-0.696-0.238 0.696-0.757 0.027 0.61 0.426-0.23 0.744 0.615-0.464 0.615 0.464-0.23-0.744z"></path>
<path fill="rgb(242, 201, 0)" d="M3.521 9.453l0.13-0.495-0.412 0.303-0.448-0.276 0.178 0.485-0.418 0.341 0.534-0.020 0.178 0.504 0.163-0.514 0.517-0.013z"></path>
<path fill="rgb(219, 187, 0)" d="M11.194 2.989l-0.909-0.032-0.286-0.836-0.286 0.836-0.909 0.032 0.732 0.511-0.276 0.893 0.738-0.558 0.738 0.558-0.276-0.893z"></path>
<path fill="rgb(242, 201, 0)" d="M10.289 3.194l0.157-0.594-0.495 0.364-0.537-0.332 0.214 0.582-0.502 0.409 0.641-0.024 0.213 0.604 0.196-0.617 0.62-0.015z"></path>
</svg>
