<?xml version="1.0" encoding="utf-8"?>
<!-- Generator: Adobe Illustrator 16.0.0, SVG Export Plug-In . SVG Version: 6.00 Build 0)  -->
<!DOCTYPE svg PUBLIC "-//W3C//DTD SVG 1.1//EN" "http://www.w3.org/Graphics/SVG/1.1/DTD/svg11.dtd">
<svg version="1.1" id="Layer_1" xmlns="http://www.w3.org/2000/svg" xmlns:xlink="http://www.w3.org/1999/xlink" x="0px" y="0px"
	 width="20px" height="20px" viewBox="0 0 20 20" enable-background="new 0 0 20 20" xml:space="preserve">
<g>
	<path fill="#48843E" d="M19.69,10c0,5.352-4.339,9.69-9.69,9.69S0.31,15.352,0.31,10c0-5.351,4.339-9.69,9.69-9.69
		S19.69,4.648,19.69,10z"/>
	<path fill="#DB9A28" d="M14.138,6.463C13.139,5.296,11.656,4.556,10,4.556c-3.007,0-5.444,2.438-5.444,5.444
		c0,1.704,0.783,3.225,2.01,4.223c0.937,0.763,2.132,1.222,3.435,1.222c3.007,0,5.444-2.438,5.444-5.444
		C15.444,8.648,14.95,7.415,14.138,6.463z"/>
	<path fill="#E3AA24" d="M12.516,12.551c1.711-1.708,2.269-4.095,1.629-6.088c-0.998-1.167-2.481-1.907-4.138-1.907
		C7,4.556,4.563,6.993,4.563,10c0,1.704,0.783,3.225,2.01,4.223C8.535,14.793,10.849,14.22,12.516,12.551z"/>
	<path fill="#FFFFFF" d="M10.679,9.852c-0.846,1.517-2.538,2.184-3.78,1.491c-1.242-0.693-1.562-2.484-0.716-4
		c0.846-1.517,2.538-2.184,3.78-1.49S11.526,8.337,10.679,9.852z"/>
	<path fill="#3A3A39" d="M9.925,8.163L8.683,7.47L8.342,7.916c0.074,0.03,0.134,0.062,0.213,0.106
		C8.86,8.193,9.138,8.437,9.27,8.721c0.152,0.296,0.154,0.641-0.052,1.009c-0.328,0.588-1.132,0.82-1.993,0.339
		c-0.39-0.217-0.667-0.486-0.793-0.677l0.447-0.477C6.979,9.06,7.222,9.31,7.513,9.472c0.311,0.173,0.723,0.212,0.909-0.123
		c0.181-0.325,0.031-0.671-0.61-1.027C7.635,8.221,7.505,8.163,7.366,8.11l1.132-1.541l1.765,0.985L9.925,8.163L9.925,8.163z"/>
</g>
</svg>
