<?xml version="1.0" encoding="utf-8"?>
<!-- Generator: Adobe Illustrator 16.0.0, SVG Export Plug-In . SVG Version: 6.00 Build 0)  -->
<!DOCTYPE svg PUBLIC "-//W3C//DTD SVG 1.1//EN" "http://www.w3.org/Graphics/SVG/1.1/DTD/svg11.dtd">
<svg version="1.1" id="Layer_1" xmlns="http://www.w3.org/2000/svg" xmlns:xlink="http://www.w3.org/1999/xlink" x="0px" y="0px"
	 width="20px" height="20px" viewBox="0 0 20 20" enable-background="new 0 0 20 20" xml:space="preserve">
<g>
	<path fill="#F2B800" d="M19.69,10c0,5.352-4.338,9.69-9.69,9.69c-5.352,0-9.69-4.339-9.69-9.69c0-5.351,4.339-9.69,9.69-9.69
		C15.353,0.31,19.69,4.648,19.69,10z"/>
	<path fill="#6B7177" d="M17.467,9.413H2.783c-0.409,0-0.741,0.332-0.741,0.741c0,0.41,0.332,0.741,0.741,0.741h14.684
		c0.41,0,0.741-0.331,0.741-0.741C18.208,9.745,17.877,9.413,17.467,9.413z"/>
	<path fill="#646A6E" d="M2.041,10.154c0,0.41,0.332,0.741,0.741,0.741h14.684c0.409,0,0.741-0.331,0.741-0.741H2.041L2.041,10.154z
		"/>
	<path fill="#414548" d="M16.96,7.671c-0.319,0-0.577,0.096-0.577,0.414v4.263c0,0.317,0.258,0.413,0.577,0.413
		c0.318,0,0.575-0.097,0.575-0.413V8.085C17.535,7.767,17.278,7.671,16.96,7.671z"/>
	<path fill="#313335" d="M16.96,7.671c-0.319,0-0.577,0.096-0.577,0.414v4.263c0,0.317,0.258,0.413,0.577,0.413V7.671z"/>
	<path fill="#414548" d="M3.355,7.671c0.318,0,0.576,0.096,0.576,0.414v4.263c0,0.317-0.258,0.413-0.576,0.413
		s-0.576-0.097-0.576-0.413V8.085C2.779,7.767,3.037,7.671,3.355,7.671z"/>
	<path fill="#313335" d="M3.355,7.671v5.09c-0.318,0-0.576-0.097-0.576-0.413V8.085C2.779,7.767,3.037,7.671,3.355,7.671z"/>
	<path fill="#393C3F" d="M15.646,6.939c-0.41,0-0.742,0.123-0.742,0.533v5.487c0,0.409,0.332,0.533,0.742,0.533
		c0.409,0,0.741-0.124,0.741-0.533V7.473C16.388,7.062,16.056,6.939,15.646,6.939z"/>
	<path fill="#303335" d="M15.646,6.939c-0.41,0-0.742,0.123-0.742,0.533v5.487c0,0.409,0.332,0.533,0.742,0.533V6.939z"/>
	<path fill="#393C3F" d="M4.669,6.939c0.409,0,0.741,0.123,0.741,0.533v5.487c0,0.409-0.332,0.533-0.741,0.533
		s-0.741-0.124-0.741-0.533V7.473C3.928,7.062,4.26,6.939,4.669,6.939z"/>
	<path fill="#303335" d="M4.669,6.939v6.554c-0.409,0-0.741-0.124-0.741-0.533V7.473C3.928,7.062,4.26,6.939,4.669,6.939z"/>
</g>
</svg>
