<?xml version="1.0" encoding="utf-8"?>
<!-- Generator: Adobe Illustrator 16.0.0, SVG Export Plug-In . SVG Version: 6.00 Build 0)  -->
<!DOCTYPE svg PUBLIC "-//W3C//DTD SVG 1.1//EN" "http://www.w3.org/Graphics/SVG/1.1/DTD/svg11.dtd">
<svg version="1.1" id="Layer_1" xmlns="http://www.w3.org/2000/svg" xmlns:xlink="http://www.w3.org/1999/xlink" x="0px" y="0px"
	 width="20px" height="20px" viewBox="0 0 20 20" enable-background="new 0 0 20 20" xml:space="preserve">
<g>
	<path fill="#65A844" d="M19.69,10c0,5.352-4.339,9.69-9.69,9.69S0.31,15.352,0.31,10c0-5.351,4.339-9.69,9.69-9.69
		S19.69,4.648,19.69,10z"/>
	<path fill="#E0E0E0" d="M14.92,5.667c-1.224-1.43-3.039-2.337-5.068-2.337c-3.683,0-6.667,2.985-6.667,6.668
		c0,2.088,0.96,3.95,2.461,5.173c1.148,0.935,2.611,1.496,4.207,1.496c3.684,0,6.669-2.985,6.669-6.668
		C16.521,8.345,15.918,6.833,14.92,5.667L14.92,5.667z"/>
	<path fill="#FFFFFF" d="M12.925,13.124c2.094-2.095,2.778-5.018,1.995-7.457c-1.224-1.43-3.039-2.337-5.068-2.337
		c-3.683,0-6.667,2.985-6.667,6.668c0,2.088,0.96,3.95,2.461,5.173C8.05,15.869,10.883,15.167,12.925,13.124L12.925,13.124z"/>
	<path fill="#3A3A39" d="M6.215,6.646c0,0,0.894-1.388,2.115-1.718c0,0,1.081-0.07,2.28,0.895c0,0-0.446,2.234-0.588,2.423
		c0,0-2.608,0.611-2.75,0.683C7.272,8.929,6.45,7.775,6.215,6.646z"/>
	<path fill="#3A3A39" d="M13.126,4.199v1.295c0,0,1.48,1.105,1.809,2.094l1.176,0.094C16.11,7.682,15.429,5.446,13.126,4.199z"/>
	<path fill="#3A3A39" d="M11.997,10.363l2.396-0.306c0,0,0.565,0.987,0.565,2.424c0,0-1.058,1.435-1.975,1.788l-1.927-1.154
		L11.997,10.363z"/>
	<path fill="#3A3A39" d="M6.332,11.562c0,0,1.058,1.482,1.856,2.117l-0.682,1.622c0,0-1.434-0.163-2.139-0.752
		c0,0-0.823-0.988-0.823-2.423L6.332,11.562z"/>
	<path fill="#3A3A39" d="M3.135,9.822h0.401c0,0,0.116-1.624,0.846-2.636V6.128c0,0-1.058,1.247-1.245,3.694H3.135z"/>
	<path fill="#3A3A39" d="M9.463,16.658l0.02-0.154c0,0,2.139-0.283,2.868-0.706l0.294,0.258
		C12.645,16.056,11.325,16.77,9.463,16.658z"/>
	<path fill="#3A3A39" d="M7.625,3.682l0.658,0.023l0.601-0.31C8.884,3.396,8.213,3.471,7.625,3.682z"/>
	<path fill="#3A3A39" d="M10.548,5.882l-0.013-0.069c0.078-0.016,1.936-0.384,2.661-0.362l-0.002,0.07
		C12.478,5.497,10.568,5.877,10.548,5.882z"/>
	<path fill="#3A3A39" d="M14.411,10.112l-0.053-0.046c0.457-0.525,0.555-2.482,0.555-2.502l0.07,0.004
		C14.979,7.649,14.883,9.568,14.411,10.112L14.411,10.112z"/>
	<path fill="#3A3A39" d="M15.993,12.604l-1.072-0.089l0.005-0.069l1.101,0.078L15.993,12.604z"/>
	<path fill="#3A3A39" d="M10.021,8.178l2.047,2.224l-0.054,0.049L9.97,8.227L10.021,8.178z"/>
	<path fill="#3A3A39" d="M12.357,15.884l-0.052-0.047c0.204-0.228,0.667-1.615,0.671-1.629l0.067,0.022
		C13.025,14.287,12.572,15.646,12.357,15.884z"/>
	<path fill="#3A3A39" d="M8.097,13.742l-0.01-0.069c0.025-0.003,2.504-0.343,2.985-0.597l0.034,0.063
		C10.612,13.398,8.199,13.729,8.097,13.742L8.097,13.742z"/>
	<path fill="#3A3A39" d="M6.354,11.643l-0.067-0.019c0.027-0.096,0.66-2.379,0.967-2.757l0.055,0.044
		C7.01,9.278,6.359,11.619,6.354,11.643L6.354,11.643z"/>
	<path fill="#3A3A39" d="M9.528,16.564c-1.172-0.305-2.07-1.271-2.08-1.28l0.053-0.049c0.01,0.01,0.894,0.961,2.045,1.261
		L9.528,16.564L9.528,16.564z"/>
	<path fill="#3A3A39" d="M4.549,12.172c-1.125-1.104-1.095-2.388-1.094-2.4l0.07,0.002c-0.002,0.013-0.029,1.266,1.073,2.348
		L4.549,12.172z"/>
	<path fill="#3A3A39" d="M4.34,7.252L4.298,7.194c0.009-0.006,0.843-0.626,2.041-0.579L6.336,6.685
		C5.164,6.637,4.349,7.245,4.34,7.252z"/>
	<path fill="#3A3A39" d="M8.321,3.648l0.052,1.314l-0.07,0.003L8.251,3.651L8.321,3.648z"/>
	<path fill="#3A3A39" d="M5.39,14.484l0.047,0.052l-0.255,0.229l-0.047-0.053L5.39,14.484z"/>
	<path fill="#3A3A39" d="M9.463,16.654v0.004c1.862,0.11,3.182-0.603,3.182-0.603l-0.002-0.001c-0.849,0.391-1.794,0.613-2.79,0.613
		c-0.13,0-0.26-0.006-0.388-0.014H9.463z"/>
	<path fill="#3A3A39" d="M8.321,3.648l0.001,0.037l0.562-0.29c0,0-0.671,0.075-1.259,0.286l0.628,0.022L8.251,3.651L8.321,3.648z"/>
	<path fill="#3A3A39" d="M10.548,5.882c0.002,0,0.021-0.005,0.053-0.011c0.006-0.03,0.009-0.048,0.009-0.048
		c-0.009-0.008-0.019-0.014-0.026-0.021c-0.025,0.006-0.043,0.009-0.049,0.01L10.548,5.882L10.548,5.882z"/>
	<path fill="#3A3A39" d="M13.16,5.52c0.011,0,0.022,0,0.034,0.001l0.002-0.07c-0.021-0.001-0.046-0.001-0.07-0.001v0.044
		C13.126,5.493,13.14,5.505,13.16,5.52z"/>
	<path fill="#3A3A39" d="M14.983,7.591c0-0.011,0.001-0.019,0.001-0.021l-0.058-0.004c0.002,0.008,0.006,0.014,0.008,0.021
		L14.983,7.591z"/>
	<path fill="#3A3A39" d="M14.411,10.112c0.002-0.003,0.005-0.006,0.008-0.009c-0.016-0.03-0.025-0.046-0.025-0.046l-0.031,0.004
		c-0.001,0.002-0.003,0.004-0.004,0.005L14.411,10.112z"/>
	<path fill="#3A3A39" d="M15.991,12.604h0.002l0.032-0.08h-0.002C16.013,12.551,16.002,12.577,15.991,12.604L15.991,12.604z"/>
	<path fill="#3A3A39" d="M10.045,8.204l-0.024-0.027L9.969,8.226l0.023,0.026c0.019-0.004,0.029-0.007,0.029-0.007
		C10.028,8.235,10.036,8.22,10.045,8.204L10.045,8.204z"/>
	<path fill="#3A3A39" d="M12.066,10.401l-0.039-0.042l-0.03,0.005l-0.017,0.049l0.034,0.037L12.066,10.401z"/>
	<path fill="#3A3A39" d="M11.072,13.076c0,0,0,0-0.002,0l-0.014,0.039l0.043,0.025c0.002-0.001,0.003-0.002,0.005-0.002
		L11.072,13.076z"/>
	<path fill="#3A3A39" d="M8.167,13.662c-0.048,0.007-0.078,0.01-0.08,0.011l0.01,0.069c0.009-0.001,0.033-0.005,0.071-0.009
		l0.021-0.054C8.183,13.674,8.174,13.668,8.167,13.662z"/>
	<path fill="#3A3A39" d="M7.307,8.916c0.001-0.001,0.001-0.003,0.002-0.004L7.254,8.868C7.25,8.873,7.246,8.879,7.242,8.885
		c0.019,0.026,0.03,0.044,0.03,0.044C7.278,8.926,7.29,8.921,7.307,8.916z"/>
	<path fill="#3A3A39" d="M6.3,11.573c-0.007,0.026-0.012,0.045-0.014,0.051l0.067,0.019c0,0,0.005-0.015,0.011-0.036
		c-0.019-0.026-0.031-0.044-0.031-0.044L6.3,11.573z"/>
	<path fill="#3A3A39" d="M7.525,15.262c-0.014-0.015-0.024-0.025-0.025-0.026l-0.053,0.049c0.001,0.001,0.005,0.005,0.013,0.014
		c0.028,0.002,0.046,0.007,0.046,0.007l0.018-0.043H7.525z"/>
	<path fill="#3A3A39" d="M4.599,12.121c-0.002-0.002-0.004-0.006-0.008-0.008l-0.046,0.016c0,0.013,0.001,0.027,0.001,0.039
		c0.001,0.002,0.002,0.004,0.002,0.005L4.599,12.121L4.599,12.121z"/>
	<path fill="#3A3A39" d="M3.526,9.773l-0.07-0.002c0,0.001,0,0.021,0,0.051h0.07C3.525,9.794,3.525,9.774,3.526,9.773z"/>
	<path fill="#3A3A39" d="M6.224,6.684c0.038,0,0.074-0.001,0.112,0.001l0.003-0.069c-0.034-0.001-0.067,0-0.102,0
		C6.224,6.634,6.215,6.647,6.215,6.647C6.218,6.66,6.221,6.673,6.224,6.684L6.224,6.684z"/>
	<path fill="#3A3A39" d="M4.339,7.249c0.015-0.021,0.028-0.042,0.043-0.062V7.14C4.329,7.173,4.3,7.194,4.298,7.196L4.339,7.249
		L4.339,7.249z"/>
	<path fill="#3A3A39" d="M8.373,4.963L8.372,4.928c-0.026,0-0.042,0.001-0.042,0.001C8.321,4.931,8.312,4.935,8.302,4.938
		l0.001,0.028L8.373,4.963z"/>
	<path fill="#3A3A39" d="M8.322,3.686L8.321,3.648l-0.07,0.003l0.002,0.053l0.03,0.001L8.322,3.686z"/>
	<path fill="#3A3A39" d="M5.389,14.484l-0.042,0.036c0.013,0.019,0.022,0.029,0.022,0.029c0.009,0.008,0.02,0.014,0.027,0.021
		l0.039-0.035L5.389,14.484z"/>
	<path fill="#2A2B2A" d="M16.105,7.681c-0.275-0.742-0.681-1.423-1.186-2.014c0.2,0.624,0.303,1.279,0.312,1.943L16.105,7.681z"/>
	<path fill="#2A2B2A" d="M14.632,10.603c-0.385,0.907-0.952,1.769-1.706,2.521c-0.24,0.239-0.49,0.458-0.749,0.661l0.785,0.47
		c-0.079,0.233-0.448,1.305-0.636,1.558c-0.678,0.374-2.438,0.635-2.783,0.685c-0.832-0.218-1.523-0.774-1.846-1.07
		c-0.033,0.002-0.066,0.004-0.1,0.004c0.295,0.277,1.007,0.876,1.88,1.119l-0.013,0.104c0.128,0.008,0.257,0.014,0.388,0.014
		c0.998,0,1.942-0.221,2.79-0.613l-0.248-0.218c0.217-0.318,0.601-1.459,0.646-1.59c0.82-0.353,1.73-1.517,1.892-1.729l1.062,0.086
		c0.011-0.026,0.021-0.054,0.032-0.079l-1.066-0.076c-0.005-0.778-0.175-1.422-0.326-1.845L14.632,10.603z"/>
</g>
</svg>
