<?xml version="1.0" encoding="utf-8"?>
<!-- Generator: Adobe Illustrator 16.0.0, SVG Export Plug-In . SVG Version: 6.00 Build 0)  -->
<!DOCTYPE svg PUBLIC "-//W3C//DTD SVG 1.1//EN" "http://www.w3.org/Graphics/SVG/1.1/DTD/svg11.dtd">
<svg version="1.1" id="Layer_1" xmlns="http://www.w3.org/2000/svg" xmlns:xlink="http://www.w3.org/1999/xlink" x="0px" y="0px"
	 width="20px" height="20px" viewBox="0 0 20 20" enable-background="new 0 0 20 20" xml:space="preserve">
<g>
	<path fill="#D7DABA" d="M19.69,10c0,5.352-4.339,9.69-9.69,9.69S0.31,15.352,0.31,10c0-5.351,4.339-9.69,9.69-9.69
		S19.69,4.648,19.69,10z"/>
	<path fill="#A44A24" d="M0.311,10h19.38c0,5.352-4.339,9.69-9.69,9.69S0.311,15.352,0.311,10z"/>
	<path fill="#F37C2A" d="M8.927,7.366h1.869v1.062H8.927V7.366z"/>
	<path fill="#3A3A39" d="M7.323,4.177h5.075v4.052H7.323V4.177z"/>
	<path fill="#FFFFFF" d="M7.73,4.501h4.262v3.403H7.73V4.501z"/>
	<path fill="#FFFFFF" d="M9.929,14.49c-1.117,0-2.023,0.299-2.023,0.667s0.906,0.667,2.023,0.667s2.023-0.299,2.023-0.667
		S11.046,14.49,9.929,14.49z M9.929,15.458c-1.02,0-1.846-0.192-1.846-0.428s0.826-0.428,1.846-0.428
		c1.019,0,1.845,0.192,1.845,0.428C11.773,15.268,10.947,15.458,9.929,15.458z"/>
	<path fill="#EFEFEF" d="M9.14,8.462l0.429,6.04l-0.132,0.011L9.008,8.471L9.14,8.462z"/>
	<path fill="#EFEFEF" d="M10.784,8.46l0.132,0.01l-0.423,6.043l-0.132-0.011L10.784,8.46z"/>
	<path fill="#EFEFEF" d="M12.187,8.728l0.131,0.022l-1.037,5.94l-0.131-0.023L12.187,8.728z"/>
	<path fill="#EFEFEF" d="M7.856,8.678l0.872,5.99l-0.131,0.019l-0.873-5.99L7.856,8.678z"/>
	<path fill="#EFEFEF" d="M12.778,9.78c-0.013-0.006-1.274-0.543-2.885-0.543c-1.608,0-2.836,0.536-2.847,0.543L6.992,9.658
		c0.013-0.005,1.264-0.554,2.901-0.554c1.639,0,2.923,0.548,2.937,0.553L12.778,9.78L12.778,9.78z"/>
	<path fill="#EFEFEF" d="M12.68,10.746c-0.014-0.006-1.231-0.524-2.785-0.524c-1.555,0-2.738,0.519-2.75,0.524l-0.053-0.122
		c0.011-0.005,1.221-0.535,2.803-0.535c1.583,0,2.826,0.529,2.836,0.535l-0.051,0.12V10.746z"/>
	<path fill="#EFEFEF" d="M12.506,11.91c-0.013-0.006-1.153-0.49-2.61-0.49c-1.456,0-2.565,0.484-2.577,0.489l-0.053-0.121
		c0.011-0.005,1.146-0.501,2.63-0.501c1.485,0,2.651,0.496,2.663,0.501L12.506,11.91L12.506,11.91z"/>
	<path fill="#EFEFEF" d="M12.233,12.938c-0.01-0.005-1.032-0.439-2.337-0.439c-1.303,0-2.298,0.435-2.308,0.439l-0.055-0.123
		c0.011-0.004,1.029-0.45,2.361-0.45c1.333,0,2.379,0.446,2.39,0.45L12.233,12.938L12.233,12.938z"/>
	<path fill="#EFEFEF" d="M12.099,13.938c-0.009-0.004-0.972-0.413-2.2-0.413s-2.164,0.409-2.174,0.413l-0.054-0.12
		c0.01-0.004,0.972-0.426,2.228-0.426c1.255,0,2.243,0.419,2.254,0.426L12.099,13.938L12.099,13.938z"/>
	<path fill="#EFEFEF" d="M8.083,15.03c0-0.236,0.826-0.428,1.846-0.428c1.019,0,1.845,0.192,1.845,0.428
		c0,0.015-0.002,0.027-0.008,0.041h0.167c-0.128-0.327-0.976-0.581-2.005-0.581s-1.877,0.254-2.005,0.581H8.09
		c-0.005-0.014-0.009-0.026-0.009-0.041H8.083z"/>
	<path fill="#FFFFFF" d="M6.936,9.509l1.154,5.588l-0.174,0.036L6.762,9.544L6.936,9.509z"/>
	<path fill="#FFFFFF" d="M12.911,9.509l0.174,0.035l-1.149,5.589l-0.174-0.035L12.911,9.509z"/>
	<path fill="#FFFFFF" d="M9.896,10.005h0.134v5.733H9.896V10.005z"/>
	<path fill="#FFFFFF" d="M11.391,10.009l0.132,0.012l-0.491,5.507L10.9,15.515L11.391,10.009z"/>
	<path fill="#FFFFFF" d="M8.496,10.01l0.496,5.507L8.86,15.527l-0.496-5.506L8.496,10.01z"/>
	<path fill="#FFFFFF" d="M9.929,11.248c-1.637,0-2.923-0.548-2.936-0.553l0.052-0.121c0.013,0.005,1.274,0.543,2.884,0.543
		s2.837-0.536,2.847-0.543l0.055,0.121C12.816,10.7,11.565,11.248,9.929,11.248L9.929,11.248z"/>
	<path fill="#FFFFFF" d="M9.928,12.146c-1.485,0-2.652-0.496-2.663-0.502l0.052-0.12c0.012,0.005,1.154,0.49,2.611,0.49
		s2.566-0.485,2.578-0.489l0.053,0.121C12.549,11.651,11.413,12.147,9.928,12.146L9.928,12.146z"/>
	<path fill="#FFFFFF" d="M9.927,13.135c-1.41,0-2.517-0.472-2.527-0.476l0.053-0.122c0.011,0.005,1.094,0.466,2.475,0.466
		c1.382,0,2.433-0.46,2.444-0.466l0.053,0.122C12.414,12.663,11.336,13.136,9.927,13.135L9.927,13.135z"/>
	<path fill="#FFFFFF" d="M9.925,14.034c-1.257,0-2.244-0.421-2.255-0.426l0.053-0.121c0.01,0.005,0.973,0.414,2.202,0.414
		c1.229,0,2.165-0.409,2.174-0.414l0.056,0.121C12.144,13.613,11.183,14.034,9.925,14.034L9.925,14.034z"/>
	<path fill="#FFFFFF" d="M9.925,14.87c-1.2,0-2.144-0.4-2.152-0.404l0.052-0.121c0.01,0.004,0.929,0.395,2.101,0.395
		s2.065-0.391,2.074-0.395l0.054,0.121c-0.038,0.016-0.928,0.407-2.128,0.407V14.87z"/>
	<path fill="#F37C2A" d="M9.929,8.362c-1.777,0-3.218,0.476-3.218,1.062c0,0.585,1.44,1.061,3.218,1.061
		c1.776,0,3.218-0.475,3.218-1.061C13.146,8.837,11.706,8.362,9.929,8.362z M9.929,9.902c-1.622,0-2.935-0.305-2.935-0.68
		s1.313-0.681,2.935-0.681c1.62,0,2.936,0.305,2.936,0.681S11.549,9.902,9.929,9.902z"/>
</g>
</svg>
