<?xml version="1.0" encoding="utf-8"?>
<!-- Generator: Adobe Illustrator 16.0.0, SVG Export Plug-In . SVG Version: 6.00 Build 0)  -->
<!DOCTYPE svg PUBLIC "-//W3C//DTD SVG 1.1//EN" "http://www.w3.org/Graphics/SVG/1.1/DTD/svg11.dtd">
<svg version="1.1" id="Layer_1" xmlns="http://www.w3.org/2000/svg" xmlns:xlink="http://www.w3.org/1999/xlink" x="0px" y="0px"
	 width="20px" height="20px" viewBox="0 0 20 20" enable-background="new 0 0 20 20" xml:space="preserve">
<g>
	<path fill="#A2D4DE" d="M19.69,10c0,5.352-4.339,9.69-9.69,9.69S0.31,15.352,0.31,10c0-5.351,4.339-9.69,9.69-9.69
		S19.69,4.648,19.69,10z"/>
	<path fill="#65A844" d="M0.311,10h19.38c0,5.352-4.339,9.689-9.69,9.689S0.311,15.352,0.311,10z"/>
	<path fill="#FFFFFF" d="M4.741,6.481h10.248c0.678,0,1.229,0.551,1.229,1.229v6.927h0.674V7.129c0-0.754-0.611-1.364-1.365-1.364
		H4.15c-0.754,0-1.366,0.611-1.366,1.364v7.509h0.727V7.711C3.511,7.032,4.062,6.481,4.741,6.481L4.741,6.481z"/>
	<path fill="#FFFFFF" d="M6.727,11.268h6.415l3.106,3.319h0.423l-3.191-3.772H6.357l-3.322,3.722h0.454L6.727,11.268z"/>
	<path fill="#FFFFFF" d="M3.891,6.464l2.601,4.418l-0.132,0.077L3.759,6.542L3.891,6.464z"/>
	<path fill="#FFFFFF" d="M16.073,6.543l-2.6,4.417l-0.133-0.077l2.601-4.418L16.073,6.543z"/>
	<path fill="#FFFFFF" d="M9.772,6.198h0.153v4.818H9.772V6.198z"/>
	<path fill="#FFFFFF" d="M11.009,6.197l0.153,0.007l-0.217,4.814l-0.153-0.007L11.009,6.197z"/>
	<path fill="#FFFFFF" d="M12.092,6.198l0.152,0.011l-0.352,4.808l-0.154-0.013L12.092,6.198z"/>
	<path fill="#FFFFFF" d="M13.911,6.272l0.147,0.043l-1.35,4.626l-0.146-0.043L13.911,6.272z"/>
	<path fill="#FFFFFF" d="M9.046,11.012l-0.153,0.007L8.676,6.204l0.153-0.007L9.046,11.012z"/>
	<path fill="#FFFFFF" d="M8.101,11.006l-0.152,0.011L7.595,6.21l0.153-0.011L8.101,11.006z"/>
	<path fill="#FFFFFF" d="M7.278,10.898l-0.146,0.043L5.78,6.316l0.146-0.043L7.278,10.898z"/>
	<path fill="#FFFFFF" d="M4.322,7.287h11.226V7.44H4.322V7.287z"/>
	<path fill="#FFFFFF" d="M4.876,8.225h10.117v0.153H4.876V8.225z"/>
	<path fill="#FFFFFF" d="M5.374,9.104h9.122v0.152H5.374V9.104z"/>
	<path fill="#FFFFFF" d="M5.902,9.927h8.064v0.152H5.902V9.927z"/>
	<path fill="#FFFFFF" d="M13.979,9.955l2.524,2.945L16.389,13l-2.524-2.946L13.979,9.955z"/>
	<path fill="#FFFFFF" d="M14.513,9.147l2.027,2.18l-0.112,0.104l-2.026-2.18L14.513,9.147z"/>
	<path fill="#FFFFFF" d="M15.045,8.168l1.492,1.357l-0.104,0.113l-1.491-1.357L15.045,8.168L15.045,8.168z"/>
	<path fill="#FFFFFF" d="M15.492,7.3l0.88,0.555l-0.082,0.13L15.41,7.43L15.492,7.3z"/>
	<path fill="#FFFFFF" d="M16.459,7.4l0.129,0.082l-2.62,4.131l-0.129-0.082L16.459,7.4z"/>
	<path fill="#FFFFFF" d="M16.65,8.587l0.129,0.082l-2.333,3.71l-0.13-0.082L16.65,8.587z"/>
	<path fill="#FFFFFF" d="M16.456,10.479l0.13,0.082l-1.548,2.469l-0.129-0.082L16.456,10.479z"/>
	<path fill="#FFFFFF" d="M16.554,11.968l0.128,0.085l-1.051,1.586l-0.128-0.083L16.554,11.968z"/>
	<path fill="#FFFFFF" d="M5.985,10.053l-2.524,2.946l-0.116-0.101l2.524-2.944L5.985,10.053z"/>
	<path fill="#FFFFFF" d="M5.449,9.253l-2.026,2.18l-0.112-0.105l2.026-2.179L5.449,9.253z"/>
	<path fill="#FFFFFF" d="M4.91,8.281L3.418,9.639L3.315,9.525l1.491-1.357L4.91,8.281z"/>
	<path fill="#FFFFFF" d="M4.439,7.429L3.56,7.983l-0.082-0.13l0.88-0.555L4.439,7.429z"/>
	<path fill="#FFFFFF" d="M6.011,11.532l-0.13,0.082L3.265,7.479l0.131-0.081L6.011,11.532z"/>
	<path fill="#FFFFFF" d="M5.536,12.295l-0.13,0.082L3.068,8.669l0.13-0.082L5.536,12.295z"/>
	<path fill="#FFFFFF" d="M4.942,12.945l-0.13,0.082l-1.55-2.466l0.13-0.082L4.942,12.945z"/>
	<path fill="#FFFFFF" d="M4.349,13.558l-0.128,0.084l-1.052-1.587l0.128-0.085L4.349,13.558z"/>
</g>
</svg>
