<?xml version="1.0" encoding="utf-8"?>
<!-- Generator: Adobe Illustrator 16.0.0, SVG Export Plug-In . SVG Version: 6.00 Build 0)  -->
<!DOCTYPE svg PUBLIC "-//W3C//DTD SVG 1.1//EN" "http://www.w3.org/Graphics/SVG/1.1/DTD/svg11.dtd">
<svg version="1.1" id="Layer_1" xmlns="http://www.w3.org/2000/svg" xmlns:xlink="http://www.w3.org/1999/xlink" x="0px" y="0px"
	 width="20px" height="20px" viewBox="0 0 20 20" enable-background="new 0 0 20 20" xml:space="preserve">
<g>
	<path fill="#C6B298" d="M19.69,10c0,5.352-4.339,9.69-9.69,9.69S0.31,15.352,0.31,10c0-5.351,4.339-9.69,9.69-9.69
		S19.69,4.648,19.69,10z"/>
	<path fill="#EA6A25" d="M15.067,5.668C13.844,4.238,12.029,3.331,10,3.331c-3.683,0-6.668,2.985-6.668,6.668
		c0,2.088,0.96,3.949,2.462,5.172c1.147,0.936,2.61,1.497,4.207,1.497c3.684,0,6.668-2.986,6.668-6.668
		C16.669,8.346,16.065,6.834,15.067,5.668L15.067,5.668z"/>
	<path fill="#F37C2A" d="M13.074,13.126c2.093-2.095,2.778-5.017,1.993-7.457C13.844,4.239,12.029,3.332,10,3.332
		c-3.683,0-6.668,2.985-6.668,6.668c0,2.088,0.96,3.95,2.462,5.173C8.197,15.871,11.031,15.169,13.074,13.126z"/>
	<path fill="#3A3A39" d="M16.646,10.525c0.008-0.101,0.012-0.201,0.016-0.303c-0.385-0.283-1.002-0.546-1.725-0.783
		c0.077-0.666,0.068-1.268,0.002-1.804l1.177-0.294c-0.032-0.077-0.067-0.155-0.104-0.23l-1.107,0.277
		c-0.164-1.006-0.523-1.771-0.869-2.303c-0.229-0.353-0.466-0.632-0.675-0.848c-0.246-0.144-0.502-0.273-0.766-0.386l-0.024,0.039
		c0.006,0.004,0.673,0.428,1.264,1.339c0.328,0.512,0.674,1.245,0.827,2.212c-1.672,0.236-4.604-2.396-4.633-2.422
		C9.18,4.227,8.271,3.877,7.725,3.727C7.589,3.776,7.454,3.831,7.323,3.89c0.373,0.07,1.512,0.354,2.538,1.314
		c0.119,0.107,2.788,2.503,4.586,2.503c0.086,0,0.169-0.007,0.249-0.019c0.062,0.499,0.069,1.057,0.003,1.674
		C12.36,8.633,9.123,8.165,8.926,8.136C5.508,7.73,4.037,8.348,3.445,8.785C3.423,8.91,3.402,9.037,3.387,9.165
		C3.688,8.841,4.92,7.911,8.893,8.383c0.049,0.007,3.432,0.496,5.777,1.227l0,0L14.669,9.62c0,0.01-0.042,0.744-0.318,1.744
		c-0.802-0.356-1.755-0.071-1.866-0.037c-0.367,0.073-3.691,1.312-4.073,1.456l-0.008,0.003c-1.641,0.73-3.67,0.741-4.062,0.736
		c0.053,0.084,0.107,0.168,0.163,0.25c0.645-0.002,2.457-0.076,3.996-0.758c1.51-0.565,3.827-1.413,4.03-1.442l0.021-0.005
		c0.013-0.004,0.974-0.313,1.729,0.038c-0.1,0.334-0.226,0.689-0.385,1.057c-0.601,1.387-1.797,3.164-4.104,3.996
		c0.069,0.002,0.139,0.004,0.209,0.004c0.159,0,0.317-0.006,0.475-0.018c2.002-0.933,3.082-2.577,3.648-3.884
		c0.155-0.356,0.278-0.702,0.378-1.026c0.041,0.029,0.081,0.058,0.119,0.093c0.06,0.067,0.814,0.953,0.757,2.112
		c0.086-0.118,0.168-0.237,0.245-0.359c-0.088-1.109-0.788-1.888-0.823-1.925l-0.008-0.009c-0.069-0.062-0.143-0.114-0.216-0.161
		c0.257-0.907,0.322-1.605,0.335-1.799C15.688,9.942,16.325,10.225,16.646,10.525z"/>
</g>
</svg>
