<?xml version="1.0" encoding="utf-8"?>
<!-- Generator: Adobe Illustrator 16.0.0, SVG Export Plug-In . SVG Version: 6.00 Build 0)  -->
<!DOCTYPE svg PUBLIC "-//W3C//DTD SVG 1.1//EN" "http://www.w3.org/Graphics/SVG/1.1/DTD/svg11.dtd">
<svg version="1.1" id="Layer_1" xmlns="http://www.w3.org/2000/svg" xmlns:xlink="http://www.w3.org/1999/xlink" x="0px" y="0px"
	 width="20px" height="20px" viewBox="0 0 20 20" enable-background="new 0 0 20 20" xml:space="preserve">
<g>
	<path fill="#65A844" d="M19.69,10c0,5.352-4.339,9.69-9.69,9.69S0.31,15.352,0.31,10c0-5.351,4.339-9.69,9.69-9.69
		S19.69,4.648,19.69,10z"/>
	<path fill="#E8E7E7" d="M10,4.568C7,4.568,4.568,7,4.568,10c0,2.555,1.765,4.696,4.142,5.275c0.413,0.101,0.845,0.155,1.29,0.155
		c0.429,0,0.845-0.051,1.246-0.144c2.399-0.563,4.185-2.715,4.185-5.286C15.431,7.001,13,4.569,10,4.568L10,4.568z"/>
	<path fill="#E4E4E4" d="M8.225,15.163c-0.061-0.021-0.119-0.043-0.18-0.065C8.104,15.12,8.164,15.143,8.225,15.163z"/>
	<path fill="#E4E4E4" d="M15.429,10.224c-0.002,0.066-0.007,0.131-0.011,0.195C15.423,10.354,15.427,10.289,15.429,10.224z"/>
	<path fill="#E4E4E4" d="M15.216,8.462c0.012,0.038,0.023,0.077,0.033,0.116c0.06,0.219,0.103,0.441,0.135,0.669
		c-0.051-0.364-0.137-0.718-0.254-1.056c0.003,0.008,0.005,0.016,0.009,0.023c0.026,0.081,0.053,0.163,0.077,0.245V8.462z"/>
	<path fill="#E4E4E4" d="M14.656,12.818c-0.028,0.048-0.058,0.093-0.089,0.14C14.599,12.911,14.628,12.866,14.656,12.818z"/>
	<path fill="#E4E4E4" d="M6.578,14.24c-0.002-0.001-0.005-0.001-0.009-0.002l0,0l0,0c0.226,0.185,0.467,0.351,0.719,0.497
		c-0.005-0.004-0.01-0.006-0.015-0.008C7.028,14.583,6.797,14.421,6.578,14.24L6.578,14.24z"/>
	<path fill="#E4E4E4" d="M15.135,11.791c-0.015,0.045-0.031,0.09-0.047,0.134C15.104,11.88,15.12,11.836,15.135,11.791z"/>
	<path fill="#E4E4E4" d="M14.415,6.815c-0.082-0.114-0.168-0.228-0.261-0.336c0.065,0.078,0.13,0.158,0.192,0.24
		C14.37,6.751,14.392,6.783,14.415,6.815z"/>
	<path fill="#E4E4E4" d="M7.516,14.858c0.088,0.047,0.178,0.09,0.269,0.131c-0.019-0.009-0.038-0.019-0.058-0.026
		C7.654,14.929,7.584,14.895,7.516,14.858z"/>
	<path fill="#E4E4E4" d="M13.124,14.47c-0.2,0.141-0.41,0.27-0.628,0.384C12.715,14.739,12.924,14.61,13.124,14.47z"/>
	<path fill="#E4E4E4" d="M8.008,15.083c-0.061-0.024-0.122-0.049-0.182-0.074C7.886,15.034,7.947,15.059,8.008,15.083z"/>
	<path fill="#E4E4E4" d="M15.425,9.666c0.006,0.11,0.011,0.222,0.011,0.334C15.436,9.888,15.431,9.775,15.425,9.666z"/>
	<path fill="#E4E4E4" d="M10.334,15.452c-0.111,0.008-0.223,0.012-0.334,0.012C10.111,15.464,10.224,15.46,10.334,15.452z"/>
	<path fill="#E4E4E4" d="M14.144,6.465C14.14,6.46,14.135,6.456,14.13,6.45v0.001C14.135,6.457,14.14,6.461,14.144,6.465z"/>
	<path fill="#E4E4E4" d="M10.709,15.416c-0.124,0.015-0.247,0.028-0.373,0.036C10.462,15.445,10.585,15.434,10.709,15.416z"/>
	<path fill="#E4E4E4" d="M15.393,9.316c0.01,0.087,0.02,0.175,0.025,0.263C15.412,9.491,15.403,9.403,15.393,9.316z"/>
	<path fill="#E4E4E4" d="M14.98,7.81c0.049,0.112,0.095,0.228,0.136,0.344C15.075,8.037,15.028,7.923,14.98,7.81z"/>
	<path fill="#E4E4E4" d="M14.522,13.031c-0.034,0.052-0.07,0.102-0.106,0.15C14.452,13.132,14.488,13.081,14.522,13.031z"/>
	<path fill="#E4E4E4" d="M9.565,15.444c-0.454-0.036-0.891-0.128-1.306-0.269c0.482,0.163,0.992,0.26,1.523,0.281
		c-0.058-0.003-0.115-0.007-0.172-0.01C9.596,15.446,9.581,15.445,9.565,15.444z"/>
	<path fill="#E4E4E4" d="M14.38,13.235c-0.041,0.054-0.082,0.107-0.125,0.161C14.298,13.343,14.339,13.289,14.38,13.235z"/>
	<path fill="#E4E4E4" d="M13.47,14.206c-0.095,0.077-0.192,0.153-0.292,0.225C13.277,14.359,13.375,14.283,13.47,14.206z"/>
	<path fill="#E4E4E4" d="M13.733,13.97c-0.061,0.056-0.121,0.111-0.183,0.164C13.612,14.081,13.673,14.024,13.733,13.97z"/>
	<path fill="#E4E4E4" d="M14.07,13.617c-0.051,0.058-0.103,0.116-0.157,0.171C13.968,13.733,14.02,13.675,14.07,13.617z"/>
	<path fill="#E4E4E4" d="M15.329,11.082c-0.007,0.031-0.014,0.06-0.021,0.09C15.315,11.142,15.322,11.113,15.329,11.082z"/>
	<path fill="#E4E4E4" d="M14.782,12.598c-0.023,0.045-0.049,0.088-0.074,0.133c0.134-0.232,0.251-0.477,0.35-0.728
		c-0.075,0.192-0.16,0.378-0.256,0.559c-0.006,0.011-0.012,0.023-0.02,0.034V12.598z"/>
	<path fill="#E4E4E4" d="M15.416,10.452c-0.007,0.084-0.016,0.167-0.025,0.248c0.011-0.088,0.019-0.176,0.026-0.266
		C15.416,10.44,15.416,10.445,15.416,10.452L15.416,10.452z"/>
	<path fill="#E4E4E4" d="M15.38,10.777c-0.002,0.019-0.004,0.037-0.007,0.056C15.376,10.814,15.377,10.796,15.38,10.777z"/>
	<path fill="#E4E4E4" d="M13.905,13.798c-0.056,0.058-0.112,0.113-0.17,0.17C13.794,13.911,13.85,13.855,13.905,13.798z"/>
	<path fill="#E4E4E4" d="M14.229,13.431c-0.046,0.057-0.094,0.113-0.143,0.17C14.136,13.544,14.184,13.488,14.229,13.431z"/>
	<path fill="#E4E4E4" d="M14.813,7.463c0.055,0.104,0.106,0.211,0.153,0.318C14.918,7.674,14.868,7.568,14.813,7.463z"/>
	<path fill="#E4E4E4" d="M15.208,11.562c-0.012,0.041-0.024,0.082-0.037,0.123C15.185,11.645,15.197,11.604,15.208,11.562z"/>
	<path fill="#E4E4E4" d="M12.014,15.075c-0.287,0.114-0.584,0.206-0.893,0.272c-0.123,0.025-0.248,0.047-0.373,0.062
		c0.6-0.082,1.169-0.265,1.69-0.527c-0.11,0.056-0.224,0.11-0.34,0.157C12.07,15.053,12.043,15.062,12.014,15.075L12.014,15.075z"/>
	<path fill="#E4E4E4" d="M7.512,14.856c-0.069-0.035-0.138-0.074-0.204-0.112C7.374,14.782,7.442,14.821,7.512,14.856z"/>
	<path fill="#E4E4E4" d="M14.416,6.816c0.146,0.203,0.276,0.416,0.395,0.639C14.694,7.233,14.562,7.02,14.416,6.816z"/>
	<path fill="#E4E4E4" d="M15.273,11.325c-0.01,0.038-0.019,0.075-0.029,0.112C15.253,11.4,15.264,11.362,15.273,11.325z"/>
	<path fill="#FFFFFF" d="M4.598,10.6c0.002,0.02,0.004,0.039,0.006,0.059c-0.001-0.008-0.001-0.016-0.002-0.024
		C4.601,10.622,4.599,10.61,4.598,10.6z"/>
	<path fill="#FFFFFF" d="M4.572,10.301c0.001,0.009,0.001,0.019,0.001,0.027c0-0.005,0-0.01,0-0.016
		C4.573,10.308,4.572,10.305,4.572,10.301z"/>
	<path fill="#FFFFFF" d="M4.579,10.379c0.001,0.007,0.001,0.013,0.002,0.019c0-0.002,0-0.004,0-0.006
		C4.581,10.388,4.58,10.384,4.579,10.379L4.579,10.379z"/>
	<path fill="#FFFFFF" d="M4.638,10.894c0.005,0.029,0.009,0.06,0.016,0.088c-0.001-0.006-0.002-0.014-0.003-0.021
		C4.646,10.938,4.642,10.915,4.638,10.894z"/>
	<path fill="#FFFFFF" d="M12.287,5.043c0.01,0.005,0.021,0.009,0.03,0.015C12.308,5.052,12.297,5.048,12.287,5.043z"/>
	<path fill="#FFFFFF" d="M4.608,10.688c0.001,0.007,0.002,0.015,0.003,0.021c0-0.002-0.001-0.005-0.001-0.007
		C4.609,10.697,4.609,10.693,4.608,10.688z"/>
	<path fill="#FFFFFF" d="M4.857,11.77c0.009,0.024,0.017,0.051,0.026,0.075c-0.003-0.005-0.004-0.01-0.006-0.016
		c-0.007-0.021-0.013-0.041-0.02-0.062L4.857,11.77z"/>
	<path fill="#FFFFFF" d="M10.294,4.544c0.031,0.002,0.062,0.005,0.094,0.008C10.355,4.549,10.325,4.546,10.294,4.544z"/>
	<path fill="#FFFFFF" d="M10.587,4.568c0.035,0.004,0.07,0.01,0.106,0.014C10.657,4.578,10.622,4.572,10.587,4.568z"/>
	<path fill="#FFFFFF" d="M4.656,10.997c0,0.003,0.001,0.006,0.002,0.01c0-0.001,0-0.003,0-0.004
		C4.658,11.001,4.657,10.999,4.656,10.997L4.656,10.997z"/>
	<path fill="#FFFFFF" d="M11.44,4.731c0.032,0.009,0.063,0.018,0.095,0.027C11.504,4.749,11.471,4.74,11.44,4.731z"/>
	<path fill="#FFFFFF" d="M11.999,4.919c0.022,0.009,0.044,0.017,0.065,0.026C12.043,4.936,12.021,4.928,11.999,4.919z"/>
	<path fill="#FFFFFF" d="M11.158,4.661c0.034,0.008,0.069,0.016,0.104,0.024C11.228,4.677,11.192,4.669,11.158,4.661z"/>
	<path fill="#FFFFFF" d="M5.939,13.631c-0.01-0.011-0.02-0.022-0.028-0.032C5.92,13.608,5.93,13.62,5.939,13.631z"/>
	<path fill="#FFFFFF" d="M5.757,13.413c-0.014-0.017-0.026-0.034-0.038-0.05C5.73,13.379,5.744,13.396,5.757,13.413z"/>
	<path fill="#FFFFFF" d="M5.585,13.185c-0.014-0.018-0.027-0.038-0.04-0.057C5.558,13.147,5.571,13.167,5.585,13.185z"/>
	<path fill="#FFFFFF" d="M4.719,11.293c-0.008-0.035-0.017-0.071-0.024-0.108C4.702,11.222,4.711,11.258,4.719,11.293z"/>
	<path fill="#FFFFFF" d="M11.773,4.835c0.01,0.003,0.02,0.008,0.031,0.011c-0.029-0.01-0.057-0.019-0.084-0.028
		c0.016,0.006,0.033,0.012,0.051,0.018C11.771,4.835,11.771,4.836,11.773,4.835L11.773,4.835z"/>
	<path fill="#FFFFFF" d="M14.13,6.45L14.13,6.45L14.13,6.45z"/>
	<path fill="#FFFFFF" d="M5.423,12.945c-0.013-0.021-0.025-0.038-0.036-0.059C5.398,12.907,5.411,12.925,5.423,12.945z"/>
	<path fill="#FFFFFF" d="M4.794,11.573c-0.009-0.033-0.019-0.065-0.028-0.099C4.775,11.508,4.784,11.54,4.794,11.573z"/>
	<path fill="#FFFFFF" d="M5.109,12.388c0-0.003-0.001-0.003-0.001-0.005C5.108,12.385,5.109,12.385,5.109,12.388z"/>
	<path fill="#FFFFFF" d="M10.959,4.623c0.008,0.001,0.017,0.003,0.022,0.004c-0.034-0.006-0.07-0.014-0.107-0.02
		c0.02,0.003,0.04,0.007,0.061,0.01C10.943,4.618,10.951,4.621,10.959,4.623L10.959,4.623z"/>
	<path fill="#FFFFFF" d="M5.268,12.688c-0.009-0.017-0.019-0.032-0.028-0.049C5.249,12.655,5.259,12.671,5.268,12.688z"/>
	<path fill="#FFFFFF" d="M4.985,12.111c-0.002-0.006-0.004-0.01-0.007-0.015C4.98,12.102,4.983,12.107,4.985,12.111z"/>
	<path fill="#FFFFFF" d="M13.521,5.838c0,0.001,0.002,0.002,0.004,0.003C13.523,5.84,13.522,5.839,13.521,5.838z"/>
	<path fill="#FFFFFF" d="M13.731,6.028c0.002,0.003,0.004,0.005,0.008,0.008C13.735,6.033,13.733,6.031,13.731,6.028z"/>
	<path fill="#FFFFFF" d="M13.935,6.232c0.002,0.002,0.004,0.005,0.007,0.007C13.938,6.237,13.937,6.234,13.935,6.232z"/>
	<path fill="#FFFFFF" d="M13.87,6.168c-0.043-0.044-0.086-0.089-0.131-0.132c-0.004-0.003-0.006-0.005-0.008-0.008
		c-0.035-0.034-0.072-0.065-0.107-0.097C13.709,6.008,13.792,6.088,13.87,6.168L13.87,6.168z"/>
	<path fill="#FFFFFF" d="M13.563,5.877c-0.015-0.011-0.026-0.023-0.04-0.035c-0.001-0.001-0.003-0.002-0.005-0.003
		c-0.084-0.072-0.17-0.141-0.26-0.207C13.363,5.71,13.465,5.792,13.563,5.877L13.563,5.877z"/>
	<path fill="#FFFFFF" d="M12.353,5.075C12.34,5.07,12.33,5.063,12.317,5.058c-0.01-0.006-0.021-0.01-0.03-0.015
		c-0.027-0.013-0.056-0.024-0.082-0.036C12.254,5.029,12.305,5.051,12.353,5.075z"/>
	<path fill="#FFFFFF" d="M6.654,5.694c-0.101,0.078-0.197,0.16-0.292,0.245c0.011-0.01,0.021-0.019,0.031-0.027
		C6.479,5.837,6.565,5.765,6.654,5.694z"/>
	<path fill="#FFFFFF" d="M4.564,10c0,0.102,0.003,0.201,0.008,0.302c0,0.004,0.001,0.008,0.001,0.012
		C4.567,10.211,4.564,10.105,4.564,10z"/>
	<path fill="#FFFFFF" d="M4.641,9.088C4.688,8.805,4.757,8.53,4.845,8.264C4.729,8.614,4.646,8.979,4.602,9.355
		c0.009-0.075,0.02-0.149,0.03-0.224C4.634,9.117,4.638,9.103,4.641,9.088L4.641,9.088z"/>
	<path fill="#FFFFFF" d="M5.686,13.32c0.011,0.014,0.021,0.028,0.033,0.043c0.012,0.016,0.025,0.033,0.038,0.05
		c0.002,0.002,0.004,0.005,0.006,0.007C5.736,13.388,5.711,13.354,5.686,13.32z"/>
	<path fill="#FFFFFF" d="M4.878,11.833c0-0.001-0.001-0.002-0.001-0.003c0.002,0.005,0.003,0.011,0.006,0.018
		c0.03,0.083,0.062,0.167,0.096,0.25c0.002,0.005,0.005,0.01,0.007,0.016c0.038,0.092,0.079,0.182,0.122,0.271l0.001,0.003
		c0.042,0.085,0.085,0.169,0.13,0.251c0.01,0.018,0.02,0.033,0.028,0.049c0,0.003,0.001,0.003,0.001,0.003
		C5.114,12.418,4.983,12.133,4.878,11.833L4.878,11.833z"/>
	<path fill="#FFFFFF" d="M5.508,13.072c0.013,0.019,0.023,0.037,0.037,0.056c0.013,0.02,0.026,0.039,0.04,0.057
		c0.004,0.005,0.007,0.009,0.01,0.013C5.565,13.156,5.536,13.115,5.508,13.072z"/>
	<path fill="#FFFFFF" d="M4.61,10.703c0,0.002,0.001,0.005,0.001,0.007c0.007,0.062,0.016,0.123,0.026,0.184
		c0.003,0.021,0.008,0.045,0.012,0.066C4.634,10.876,4.621,10.789,4.61,10.703L4.61,10.703z"/>
	<path fill="#FFFFFF" d="M5.278,12.705c0.034,0.061,0.07,0.122,0.106,0.182c0.013,0.021,0.025,0.038,0.037,0.059
		c0.002,0.002,0.004,0.005,0.005,0.009C5.375,12.872,5.325,12.789,5.278,12.705L5.278,12.705z"/>
	<path fill="#FFFFFF" d="M11.557,4.765c-0.008-0.002-0.015-0.004-0.021-0.006c-0.031-0.01-0.064-0.019-0.095-0.027
		c-0.015-0.004-0.029-0.007-0.043-0.012C11.45,4.735,11.504,4.749,11.557,4.765z"/>
	<path fill="#FFFFFF" d="M10.704,4.584c-0.004,0-0.008-0.001-0.011-0.002c-0.036-0.004-0.071-0.01-0.106-0.014
		c-0.02-0.002-0.039-0.003-0.057-0.004C10.587,4.569,10.646,4.576,10.704,4.584z"/>
	<path fill="#FFFFFF" d="M4.657,11.003c0,0.001,0,0.003,0,0.004c0.012,0.059,0.023,0.119,0.036,0.178
		c0.008,0.037,0.016,0.073,0.024,0.108c0,0.002,0.001,0.002,0.001,0.004C4.696,11.198,4.675,11.102,4.657,11.003L4.657,11.003z"/>
	<path fill="#FFFFFF" d="M11.771,4.834c-0.018-0.006-0.035-0.011-0.051-0.018c-0.031-0.011-0.062-0.019-0.093-0.029
		C11.676,4.802,11.725,4.817,11.771,4.834L11.771,4.834z"/>
	<path fill="#FFFFFF" d="M10.933,4.618c-0.02-0.003-0.039-0.007-0.06-0.01c-0.032-0.006-0.065-0.01-0.097-0.014
		C10.828,4.602,10.881,4.61,10.933,4.618z"/>
	<path fill="#FFFFFF" d="M11.319,4.7c-0.019-0.005-0.037-0.01-0.058-0.015c-0.034-0.009-0.069-0.017-0.104-0.024
		c-0.059-0.012-0.117-0.023-0.177-0.034c-0.008-0.001-0.016-0.003-0.023-0.004C11.08,4.645,11.201,4.671,11.319,4.7z"/>
	<path fill="#FFFFFF" d="M12.087,4.955c-0.009-0.003-0.015-0.007-0.022-0.01c-0.021-0.01-0.043-0.018-0.065-0.026
		c-0.025-0.009-0.05-0.018-0.074-0.027C11.98,4.913,12.033,4.933,12.087,4.955z"/>
	<path fill="#FFFFFF" d="M12.512,5.154c0.121,0.064,0.239,0.133,0.354,0.204C12.751,5.287,12.633,5.219,12.512,5.154z"/>
	<path fill="#FFFFFF" d="M4.58,10.392c0,0.002,0,0.004,0,0.006c0.005,0.067,0.009,0.136,0.018,0.202
		c0.001,0.011,0.003,0.022,0.004,0.034C4.592,10.553,4.586,10.473,4.58,10.392z"/>
	<path fill="#FFFFFF" d="M4.744,11.389c0.008,0.029,0.015,0.058,0.021,0.086c0.01,0.033,0.019,0.065,0.028,0.099
		c0.014,0.047,0.03,0.093,0.046,0.139C4.804,11.605,4.772,11.497,4.744,11.389z"/>
	<path fill="#FFFFFF" d="M10.461,4.558c-0.024-0.002-0.049-0.004-0.072-0.006c-0.032-0.003-0.062-0.006-0.094-0.008
		c-0.062-0.003-0.124-0.004-0.187-0.005C10.227,4.541,10.345,4.547,10.461,4.558L10.461,4.558z"/>
	<path fill="#FFFFFF" d="M4.571,9.729C4.575,9.645,4.582,9.562,4.589,9.48C4.582,9.563,4.574,9.646,4.571,9.729z"/>
	<path fill="#FFFFFF" d="M12.909,5.388c0.103,0.065,0.204,0.135,0.303,0.207C13.113,5.522,13.012,5.452,12.909,5.388z"/>
	<path fill="#FFFFFF" d="M9.061,4.618c0.079-0.013,0.16-0.026,0.241-0.036C9.222,4.592,9.142,4.605,9.061,4.618z"/>
	<path fill="#FFFFFF" d="M8.766,4.679C8.845,4.661,8.923,4.645,9.003,4.63C8.923,4.645,8.845,4.661,8.766,4.679z"/>
	<path fill="#FFFFFF" d="M8.469,4.758c0.082-0.024,0.163-0.046,0.246-0.065C8.632,4.713,8.551,4.735,8.469,4.758z"/>
	<path fill="#FFFFFF" d="M9.355,4.575c0.086-0.009,0.172-0.018,0.259-0.023C9.527,4.558,9.441,4.566,9.355,4.575z"/>
	<path fill="#FFFFFF" d="M7.613,5.09c0.262-0.129,0.536-0.238,0.82-0.322C8.15,4.854,7.876,4.961,7.613,5.09z"/>
	<path fill="#FFFFFF" d="M6.571,14.237c0.003,0.001,0.005,0.001,0.008,0.002C6.563,14.227,6.546,14.214,6.53,14.2
		C6.544,14.212,6.557,14.226,6.571,14.237L6.571,14.237z"/>
	<path fill="#FFFFFF" d="M9.653,4.548c0.099-0.006,0.197-0.01,0.299-0.011C9.851,4.538,9.753,4.542,9.653,4.548z"/>
	<path fill="#FFFFFF" d="M4.848,8.258c0.089-0.265,0.197-0.521,0.324-0.767C5.045,7.736,4.937,7.993,4.848,8.258z"/>
	<path fill="#FFFFFF" d="M6.169,13.874c-0.1-0.1-0.197-0.205-0.289-0.314c0.011,0.013,0.021,0.025,0.031,0.036
		c0.009,0.013,0.019,0.023,0.028,0.034C6.014,13.714,6.09,13.795,6.169,13.874L6.169,13.874z"/>
	<path fill="#FFFFFF" d="M4.59,9.46c0.003-0.034,0.009-0.067,0.012-0.101C4.598,9.393,4.593,9.426,4.59,9.46z"/>
	<path fill="#FFFFFF" d="M5.213,7.41c0.068-0.129,0.144-0.253,0.223-0.376C5.356,7.157,5.281,7.281,5.213,7.41z"/>
	<path fill="#FFFFFF" d="M5.741,6.606c0.086-0.107,0.175-0.214,0.267-0.315C5.915,6.393,5.826,6.498,5.741,6.606z"/>
	<path fill="#FFFFFF" d="M13.979,6.283c0.053,0.055,0.102,0.11,0.15,0.168V6.45V6.449C14.081,6.393,14.03,6.337,13.979,6.283z"/>
	<path fill="#FFFFFF" d="M5.461,6.994c0.076-0.116,0.156-0.229,0.241-0.339C5.617,6.766,5.537,6.879,5.461,6.994z"/>
	<path fill="#FFFFFF" d="M6.044,6.254C6.143,6.15,6.243,6.048,6.349,5.951C6.243,6.048,6.142,6.15,6.044,6.254z"/>
	<path fill="#FFFFFF" d="M6.669,5.683c0.274-0.214,0.57-0.402,0.883-0.562C7.239,5.28,6.943,5.468,6.669,5.683z"/>
	<path fill="#FFFFFF" d="M6.197,13.901c0.097,0.094,0.197,0.186,0.302,0.273C6.395,14.087,6.294,13.995,6.197,13.901z"/>
	<path fill="#FFFFFF" d="M6.569,14.237L6.569,14.237z"/>
	<path fill="#FFFFFF" d="M4.638,10.894c-0.01-0.061-0.02-0.122-0.026-0.184C4.618,10.771,4.628,10.833,4.638,10.894z"/>
	<path fill="#FFFFFF" d="M11.926,4.892C11.949,4.901,11.975,4.91,12,4.919c-0.062-0.025-0.127-0.049-0.191-0.072
		c0.012,0.003,0.022,0.008,0.033,0.012C11.871,4.869,11.898,4.88,11.926,4.892z"/>
	<path fill="#FFFFFF" d="M5.463,13.008c0.025,0.04,0.053,0.08,0.08,0.12c-0.013-0.019-0.023-0.037-0.036-0.056
		C5.492,13.051,5.477,13.029,5.463,13.008L5.463,13.008z"/>
	<path fill="#FFFFFF" d="M12.205,5.007c0.026,0.013,0.055,0.023,0.082,0.036c-0.074-0.035-0.148-0.067-0.223-0.099
		c0.008,0.003,0.014,0.007,0.022,0.01C12.125,4.971,12.164,4.988,12.205,5.007L12.205,5.007z"/>
	<path fill="#FFFFFF" d="M10.294,4.544c-0.074-0.004-0.148-0.005-0.225-0.006c0.014,0,0.025,0.001,0.038,0.001
		C10.17,4.54,10.232,4.541,10.294,4.544z"/>
	<path fill="#FFFFFF" d="M5.864,13.543c-0.024-0.028-0.051-0.06-0.075-0.09C5.814,13.483,5.84,13.515,5.864,13.543z"/>
	<path fill="#FFFFFF" d="M10.714,4.585c-0.007-0.001-0.014-0.002-0.021-0.003c0.003,0,0.007,0.001,0.011,0.002
		C10.707,4.585,10.712,4.585,10.714,4.585z"/>
	<path fill="#FFFFFF" d="M10.53,4.564c0.018,0.002,0.037,0.003,0.057,0.004c-0.066-0.008-0.133-0.012-0.198-0.017
		c0.023,0.002,0.048,0.004,0.072,0.006C10.483,4.56,10.507,4.561,10.53,4.564z"/>
	<path fill="#FFFFFF" d="M10.874,4.607c-0.046-0.008-0.092-0.015-0.137-0.021c0.014,0.002,0.025,0.004,0.04,0.006
		C10.81,4.599,10.843,4.602,10.874,4.607z"/>
	<path fill="#FFFFFF" d="M4.572,10.301c-0.005-0.1-0.008-0.2-0.008-0.302C4.564,10.101,4.567,10.2,4.572,10.301z"/>
	<path fill="#FFFFFF" d="M14.13,6.449c-0.062-0.07-0.122-0.14-0.186-0.207c0.012,0.013,0.024,0.027,0.035,0.04
		C14.03,6.336,14.081,6.392,14.13,6.449L14.13,6.449z"/>
	<path fill="#FFFFFF" d="M11.628,4.788c0.03,0.01,0.062,0.019,0.093,0.029c-0.062-0.02-0.123-0.039-0.185-0.058
		c0.008,0.002,0.015,0.004,0.021,0.006C11.581,4.773,11.604,4.781,11.628,4.788L11.628,4.788z"/>
	<path fill="#FFFFFF" d="M5.585,13.185c0.012,0.017,0.022,0.031,0.033,0.048c-0.008-0.012-0.016-0.022-0.023-0.035
		C5.592,13.193,5.589,13.189,5.585,13.185z"/>
	<path fill="#FFFFFF" d="M11.397,4.72c0.014,0.003,0.028,0.008,0.043,0.012c-0.06-0.016-0.119-0.031-0.179-0.046
		c0.019,0.004,0.039,0.01,0.058,0.015C11.346,4.706,11.37,4.713,11.397,4.72L11.397,4.72z"/>
	<path fill="#FFFFFF" d="M5.757,13.413c0.01,0.014,0.019,0.024,0.028,0.037c-0.009-0.01-0.015-0.02-0.022-0.03
		C5.761,13.418,5.758,13.416,5.757,13.413L5.757,13.413z"/>
	<path fill="#FFFFFF" d="M5.621,13.235c0.031,0.043,0.064,0.086,0.098,0.128c-0.011-0.014-0.021-0.029-0.033-0.043
		c-0.021-0.029-0.044-0.057-0.066-0.085H5.621z"/>
	<path fill="#FFFFFF" d="M4.694,11.185c-0.013-0.06-0.025-0.119-0.036-0.178C4.67,11.065,4.682,11.126,4.694,11.185z"/>
	<path fill="#FFFFFF" d="M4.598,10.6c-0.008-0.067-0.013-0.135-0.018-0.202C4.584,10.465,4.589,10.533,4.598,10.6z"/>
	<path fill="#FFFFFF" d="M5.107,12.383c-0.043-0.088-0.084-0.18-0.122-0.271C5.023,12.203,5.064,12.295,5.107,12.383z"/>
	<path fill="#FFFFFF" d="M10.981,4.627c0.061,0.011,0.119,0.022,0.179,0.034C11.101,4.649,11.042,4.638,10.981,4.627z"/>
	<path fill="#FFFFFF" d="M4.729,11.342c-0.003-0.015-0.007-0.027-0.01-0.041c0-0.001-0.001-0.003-0.001-0.004
		c0-0.002-0.001-0.002-0.001-0.004c0.015,0.062,0.03,0.12,0.047,0.182c-0.007-0.028-0.015-0.057-0.021-0.086
		C4.739,11.373,4.733,11.357,4.729,11.342z"/>
	<path fill="#FFFFFF" d="M4.979,12.097c-0.034-0.083-0.065-0.167-0.096-0.252C4.914,11.93,4.946,12.014,4.979,12.097z"/>
	<path fill="#FFFFFF" d="M5.864,13.544c0.017,0.018,0.031,0.036,0.047,0.055C5.9,13.585,5.891,13.572,5.88,13.562
		C5.874,13.556,5.869,13.551,5.864,13.544L5.864,13.544z"/>
	<path fill="#FFFFFF" d="M5.239,12.639c-0.045-0.084-0.089-0.168-0.13-0.251C5.151,12.471,5.194,12.555,5.239,12.639z"/>
	<path fill="#FFFFFF" d="M5.268,12.688c0.001,0,0.001,0.003,0.002,0.003l0,0L5.268,12.688L5.268,12.688z"/>
	<path fill="#FFFFFF" d="M6.499,14.175c-0.104-0.088-0.205-0.18-0.302-0.273c-0.01-0.011-0.02-0.019-0.028-0.027
		c-0.079-0.079-0.155-0.159-0.229-0.243c0.193,0.219,0.405,0.423,0.63,0.607l0,0c-0.015-0.011-0.026-0.024-0.041-0.034
		c-0.011-0.01-0.021-0.019-0.03-0.027L6.499,14.175z"/>
	<path fill="#FFFFFF" d="M5.271,12.695c0.037,0.064,0.074,0.128,0.113,0.19c-0.036-0.06-0.072-0.12-0.106-0.182
		C5.276,12.701,5.273,12.698,5.271,12.695z"/>
	<path fill="#FFFFFF" d="M13.905,6.201c-0.055-0.056-0.109-0.111-0.166-0.165c0.045,0.043,0.088,0.088,0.131,0.132
		C13.882,6.18,13.894,6.189,13.905,6.201z"/>
	<path fill="#FFFFFF" d="M5.423,12.945c0.003,0.005,0.006,0.011,0.01,0.016c-0.001-0.002-0.004-0.004-0.005-0.007
		C5.427,12.95,5.424,12.947,5.423,12.945z"/>
	<path fill="#FFFFFF" d="M4.794,11.573c0.017,0.053,0.034,0.106,0.051,0.157c-0.002-0.006-0.003-0.012-0.005-0.019
		C4.824,11.666,4.808,11.62,4.794,11.573z"/>
	<path fill="#FFFFFF" d="M13.731,6.028c-0.047-0.045-0.097-0.089-0.146-0.132c0.013,0.011,0.024,0.023,0.037,0.035
		c0.035,0.032,0.071,0.063,0.106,0.097H13.731z"/>
	<path fill="#FFFFFF" d="M12.866,5.358c0.015,0.01,0.028,0.02,0.043,0.029c0.103,0.065,0.204,0.135,0.303,0.207
		c0.015,0.012,0.032,0.022,0.047,0.035c0.088,0.067,0.176,0.136,0.26,0.208c-0.312-0.268-0.654-0.499-1.021-0.69
		c0.005,0.002,0.009,0.005,0.013,0.009C12.633,5.22,12.75,5.288,12.866,5.358L12.866,5.358z"/>
	<path fill="#FFFFFF" d="M12.391,5.092c-0.024-0.011-0.049-0.023-0.073-0.034c0.013,0.005,0.022,0.011,0.035,0.018
		C12.363,5.082,12.377,5.087,12.391,5.092L12.391,5.092z"/>
	<path fill="#FFFFFF" d="M13.586,5.896c-0.021-0.02-0.042-0.037-0.062-0.055c0.014,0.012,0.025,0.024,0.04,0.035
		C13.57,5.884,13.579,5.891,13.586,5.896z"/>
	<path fill="#FFFFFF" d="M6.644,13.113c-0.327,0-0.614,0.172-0.779,0.43c0.006,0.006,0.01,0.013,0.016,0.017
		c0.093,0.108,0.189,0.215,0.289,0.314c0.009,0.01,0.019,0.018,0.028,0.027c0.097,0.094,0.197,0.186,0.302,0.273
		c0.009,0.01,0.02,0.019,0.03,0.026c0.016,0.015,0.033,0.026,0.049,0.039c0.298,0.086,0.604,0.147,0.913,0.181
		c0.05-0.115,0.079-0.242,0.079-0.375c0-0.515-0.415-0.931-0.927-0.931V13.113z"/>
	<path fill="#FFFFFF" d="M5.864,13.544L5.864,13.544L5.864,13.544z"/>
	<path fill="#FFFFFF" d="M6.499,14.175c0.009,0.01,0.02,0.019,0.03,0.026C6.519,14.193,6.509,14.185,6.499,14.175z"/>
	<path fill="#FFFFFF" d="M5.864,13.543C5.864,13.543,5.864,13.544,5.864,13.543L5.864,13.543c0.005,0.006,0.009,0.013,0.014,0.017
		C5.873,13.556,5.869,13.549,5.864,13.543L5.864,13.543z"/>
	<path fill="#FFFFFF" d="M6.197,13.901c-0.01-0.011-0.02-0.019-0.028-0.027C6.178,13.884,6.188,13.892,6.197,13.901z"/>
	<path fill="#FFFFFF" d="M9.667,8.164c0,0.514-0.415,0.931-0.927,0.931c-0.511,0-0.925-0.417-0.925-0.931
		c0-0.515,0.414-0.932,0.925-0.932C9.252,7.232,9.667,7.649,9.667,8.164z"/>
	<path fill="#FFFFFF" d="M4.878,11.833c0.106,0.299,0.237,0.585,0.391,0.857c0.003,0.006,0.007,0.01,0.009,0.015
		c0.048,0.084,0.098,0.168,0.149,0.249c0.001,0.002,0.004,0.004,0.005,0.007c0.023-0.083,0.037-0.17,0.037-0.26
		C5.469,12.306,5.224,11.969,4.878,11.833L4.878,11.833z"/>
	<path fill="#FFFFFF" d="M5.433,12.96L5.433,12.96z"/>
	<path fill="#FFFFFF" d="M5.271,12.695C5.271,12.694,5.27,12.692,5.27,12.69C5.271,12.692,5.271,12.694,5.271,12.695z"/>
	<path fill="#FFFFFF" d="M5.433,12.96c-0.001-0.002-0.004-0.004-0.005-0.008C5.429,12.954,5.432,12.958,5.433,12.96L5.433,12.96
		L5.433,12.96z"/>
	<path fill="#FFFFFF" d="M5.269,12.69L5.269,12.69c0.001,0.002,0.002,0.004,0.002,0.005c0.002,0.003,0.005,0.006,0.007,0.009
		C5.273,12.699,5.271,12.695,5.269,12.69z"/>
	<path fill="#FFFFFF" d="M8.005,14.451c0.454,0.007,0.913-0.041,1.368-0.143c-0.164-0.149-0.381-0.241-0.619-0.241
		C8.445,14.067,8.174,14.218,8.005,14.451L8.005,14.451z"/>
	<path fill="#FFFFFF" d="M9.678,10.378c0,0.514-0.414,0.932-0.925,0.932c-0.512,0-0.927-0.418-0.927-0.932
		c0-0.515,0.415-0.931,0.927-0.931C9.264,9.447,9.678,9.863,9.678,10.378z"/>
	<path fill="#FFFFFF" d="M9.678,12.712c0,0.514-0.414,0.932-0.925,0.932c-0.512,0-0.927-0.418-0.927-0.932
		c0-0.515,0.415-0.932,0.927-0.932C9.264,11.78,9.678,12.197,9.678,12.712z"/>
	<path fill="#FFFFFF" d="M7.56,9.497c0,0.514-0.415,0.932-0.926,0.932c-0.512,0-0.926-0.418-0.926-0.932
		c0-0.515,0.414-0.932,0.926-0.932C7.145,8.565,7.56,8.982,7.56,9.497z"/>
	<path fill="#FFFFFF" d="M7.571,11.711c0,0.515-0.415,0.932-0.927,0.932c-0.511,0-0.925-0.417-0.925-0.932s0.414-0.931,0.925-0.931
		C7.156,10.78,7.571,11.196,7.571,11.711z"/>
	<path fill="#FFFFFF" d="M12.099,5.911c0,0.514,0.415,0.931,0.927,0.931c0.409,0,0.757-0.268,0.88-0.64
		C13.894,6.19,13.883,6.18,13.87,6.168c-0.078-0.081-0.161-0.16-0.246-0.236c-0.02-0.018-0.04-0.036-0.061-0.055
		c-0.099-0.086-0.199-0.168-0.305-0.247c-0.015-0.013-0.032-0.022-0.047-0.035c-0.099-0.072-0.2-0.143-0.303-0.207
		c-0.015-0.01-0.028-0.02-0.043-0.029c-0.115-0.071-0.233-0.14-0.354-0.204c-0.006-0.002-0.01-0.005-0.016-0.007
		C12.256,5.315,12.099,5.595,12.099,5.911z"/>
	<path fill="#FFFFFF" d="M13.586,5.896L13.586,5.896L13.586,5.896z"/>
	<path fill="#FFFFFF" d="M12.497,5.147L12.497,5.147L12.497,5.147z"/>
	<path fill="#FFFFFF" d="M13.905,6.201L13.905,6.201z"/>
	<path fill="#FFFFFF" d="M12.496,5.147c0.006,0.003,0.01,0.005,0.016,0.007c-0.006-0.002-0.01-0.005-0.014-0.008L12.496,5.147
		C12.497,5.146,12.496,5.146,12.496,5.147z"/>
	<path fill="#FFFFFF" d="M13.624,5.932c-0.013-0.012-0.023-0.024-0.037-0.035l0,0c-0.007-0.006-0.016-0.013-0.023-0.02
		C13.584,5.896,13.604,5.913,13.624,5.932z"/>
	<path fill="#FFFFFF" d="M12.866,5.358c0.015,0.01,0.028,0.02,0.043,0.029C12.895,5.378,12.881,5.368,12.866,5.358z"/>
	<path fill="#FFFFFF" d="M13.905,6.202L13.905,6.202L13.905,6.202c-0.012-0.013-0.022-0.022-0.035-0.034
		C13.882,6.18,13.893,6.19,13.905,6.202z"/>
	<path fill="#FFFFFF" d="M13.212,5.595c0.015,0.012,0.032,0.022,0.047,0.035C13.244,5.617,13.227,5.607,13.212,5.595z"/>
	<path fill="#FFFFFF" d="M4.65,10.96c0.001,0.008,0.002,0.016,0.003,0.021c0.001,0.007,0.002,0.011,0.003,0.016
		c0,0.002,0.001,0.004,0.001,0.006C4.655,10.988,4.652,10.976,4.65,10.96z"/>
	<path fill="#FFFFFF" d="M4.573,10.313c0,0.006,0,0.011,0,0.017c0.001,0.017,0.003,0.033,0.005,0.049
		c0,0.005,0.001,0.009,0.001,0.013C4.576,10.365,4.574,10.341,4.573,10.313L4.573,10.313z"/>
	<path fill="#FFFFFF" d="M4.602,10.634c0.001,0.009,0.001,0.017,0.002,0.024c0.002,0.011,0.004,0.021,0.005,0.03
		c0.001,0.005,0.001,0.009,0.002,0.015C4.607,10.679,4.604,10.656,4.602,10.634z"/>
	<path fill="#FFFFFF" d="M4.58,10.392c0.006,0.081,0.012,0.163,0.021,0.242c0.004,0.022,0.007,0.045,0.009,0.069
		c0.012,0.087,0.023,0.173,0.04,0.257c0.002,0.016,0.005,0.028,0.007,0.043c0.018,0.099,0.039,0.198,0.062,0.294
		c0,0.001,0.001,0.003,0.001,0.004c0.421-0.087,0.738-0.462,0.738-0.911c0-0.495-0.384-0.897-0.869-0.929
		C4.589,9.468,4.589,9.474,4.589,9.48C4.582,9.563,4.574,9.646,4.571,9.729C4.567,9.818,4.564,9.909,4.564,10
		c0,0.105,0.003,0.211,0.009,0.313C4.574,10.341,4.578,10.365,4.58,10.392L4.58,10.392z"/>
	<path fill="#FFFFFF" d="M4.579,10.379c-0.001-0.017-0.004-0.033-0.005-0.049C4.575,10.347,4.578,10.363,4.579,10.379z"/>
	<path fill="#FFFFFF" d="M4.564,10c0-0.091,0.002-0.182,0.007-0.271C4.567,9.818,4.564,9.909,4.564,10z"/>
	<path fill="#FFFFFF" d="M4.59,9.461C4.589,9.468,4.589,9.474,4.589,9.48C4.59,9.474,4.59,9.468,4.59,9.461L4.59,9.461z"/>
	<path fill="#FFFFFF" d="M4.656,10.997c-0.001-0.005-0.002-0.009-0.003-0.016C4.654,10.986,4.655,10.992,4.656,10.997z"/>
	<path fill="#FFFFFF" d="M4.608,10.688c-0.001-0.01-0.003-0.02-0.005-0.03C4.605,10.669,4.607,10.679,4.608,10.688z"/>
	<path fill="#FFFFFF" d="M4.72,11.297c0,0.001,0,0.003,0.001,0.004l0,0C4.721,11.3,4.72,11.298,4.72,11.297z"/>
	<path fill="#FFFFFF" d="M14.319,7.245c0.001,0.072,0.011,0.142,0.027,0.208C14.339,7.385,14.329,7.314,14.319,7.245z"/>
	<path fill="#FFFFFF" d="M11.771,4.834l0.002,0.001L11.771,4.834z"/>
	<path fill="#FFFFFF" d="M10.933,4.618c0.009,0.001,0.018,0.004,0.025,0.005C10.95,4.622,10.941,4.619,10.933,4.618z"/>
	<path fill="#FFFFFF" d="M11.628,4.788c-0.024-0.007-0.048-0.016-0.071-0.022c-0.053-0.016-0.106-0.029-0.159-0.045
		c-0.024-0.007-0.052-0.014-0.077-0.02c-0.117-0.029-0.238-0.057-0.361-0.077c-0.008-0.001-0.016-0.003-0.024-0.005
		c-0.053-0.009-0.105-0.017-0.157-0.023c-0.024-0.004-0.049-0.008-0.073-0.011c-0.058-0.007-0.115-0.015-0.174-0.02
		c-0.023-0.002-0.047-0.005-0.069-0.007c-0.116-0.01-0.234-0.016-0.354-0.019c-0.013,0-0.025-0.001-0.039-0.001
		C9.986,4.678,9.938,4.841,9.938,5.015c0,0.514,0.415,0.931,0.927,0.931c0.511,0,0.926-0.417,0.926-0.931
		c0-0.061-0.006-0.122-0.019-0.18c0,0,0,0-0.002-0.001c-0.047-0.017-0.094-0.031-0.144-0.046H11.628z"/>
	<path fill="#FFFFFF" d="M10.714,4.585c0.008,0.001,0.015,0.002,0.022,0.003C10.729,4.587,10.722,4.586,10.714,4.585z"/>
	<path fill="#FFFFFF" d="M10.071,4.538h-0.002H10.071z"/>
	<path fill="#FFFFFF" d="M11.319,4.7c0.026,0.006,0.051,0.013,0.077,0.02C11.37,4.713,11.345,4.706,11.319,4.7z"/>
	<path fill="#FFFFFF" d="M11.557,4.765c0.023,0.008,0.047,0.016,0.071,0.022C11.604,4.78,11.58,4.771,11.557,4.765z"/>
	<path fill="#FFFFFF" d="M10.068,4.538c0.014,0,0.026,0.001,0.039,0.001C10.095,4.539,10.083,4.538,10.068,4.538L10.068,4.538
		L10.068,4.538z"/>
	<path fill="#FFFFFF" d="M10.776,4.593c-0.014-0.002-0.026-0.004-0.04-0.006c-0.008-0.001-0.015-0.002-0.022-0.003
		c-0.002,0-0.007-0.001-0.01-0.001C10.729,4.586,10.752,4.59,10.776,4.593L10.776,4.593z"/>
	<path fill="#FFFFFF" d="M10.461,4.558c0.022,0.002,0.046,0.003,0.069,0.007C10.507,4.562,10.483,4.56,10.461,4.558z"/>
	<path fill="#FFFFFF" d="M5.459,8.164c0-0.265-0.11-0.503-0.287-0.673c0,0,0,0,0,0.001C5.045,7.737,4.937,7.994,4.848,8.259
		C4.847,8.261,4.847,8.263,4.846,8.265C4.758,8.531,4.688,8.806,4.642,9.089C5.103,9.034,5.46,8.642,5.459,8.164L5.459,8.164z"/>
	<path fill="#FFFFFF" d="M5.172,7.49L5.172,7.49z"/>
	<path fill="#FFFFFF" d="M4.846,8.264C4.847,8.262,4.847,8.26,4.848,8.258C4.847,8.26,4.847,8.262,4.846,8.264z"/>
	<path fill="#FFFFFF" d="M6.633,5.945c0.476,0,0.865-0.36,0.919-0.823l0,0C7.239,5.281,6.943,5.47,6.669,5.684
		C6.664,5.688,6.66,5.69,6.654,5.695c-0.089,0.07-0.176,0.143-0.261,0.218C6.47,5.935,6.55,5.945,6.633,5.945z"/>
	<path fill="#FFFFFF" d="M6.654,5.694C6.66,5.69,6.664,5.687,6.669,5.683C6.664,5.687,6.66,5.689,6.654,5.694z"/>
	<path fill="#FFFFFF" d="M7.552,5.121L7.552,5.121z"/>
	<path fill="#FFFFFF" d="M7.56,7.244c0,0.514-0.415,0.931-0.926,0.931c-0.512,0-0.926-0.417-0.926-0.931
		c0-0.515,0.414-0.931,0.926-0.931C7.145,6.313,7.56,6.729,7.56,7.244z"/>
	<path fill="#FFFFFF" d="M13.025,9.458c-0.512,0-0.927,0.417-0.927,0.932s0.415,0.931,0.927,0.931c0.212,0,0.407-0.072,0.564-0.194
		c0.14-0.246,0.258-0.5,0.36-0.757C13.939,9.865,13.53,9.458,13.025,9.458L13.025,9.458z"/>
	<path fill="#FFFFFF" d="M13.153,11.802c-0.042-0.007-0.085-0.01-0.128-0.01c-0.512,0-0.927,0.417-0.927,0.931
		c0,0.067,0.007,0.133,0.021,0.195c0.133-0.113,0.262-0.232,0.387-0.356C12.745,12.32,12.961,12.066,13.153,11.802L13.153,11.802z"
		/>
	<path fill="#FFFFFF" d="M11.791,7.244c0,0.514-0.414,0.931-0.926,0.931S9.938,7.758,9.938,7.244c0-0.515,0.415-0.931,0.927-0.931
		S11.791,6.729,11.791,7.244z"/>
	<path fill="#FFFFFF" d="M13.963,8.152c0,0.515-0.414,0.931-0.925,0.931c-0.512,0-0.927-0.416-0.927-0.931s0.415-0.931,0.927-0.931
		C13.549,7.222,13.963,7.638,13.963,8.152z"/>
	<path fill="#FFFFFF" d="M11.802,11.723c0,0.515-0.414,0.932-0.925,0.932c-0.512,0-0.927-0.417-0.927-0.932
		c0-0.514,0.415-0.931,0.927-0.931C11.388,10.792,11.802,11.209,11.802,11.723z"/>
	<path fill="#FFFFFF" d="M11.802,9.485c0,0.515-0.414,0.932-0.925,0.932c-0.512,0-0.927-0.417-0.927-0.932
		c0-0.514,0.415-0.931,0.927-0.931C11.388,8.555,11.802,8.972,11.802,9.485z"/>
	<path fill="#FFFFFF" d="M10.876,13.113c-0.512,0-0.927,0.417-0.927,0.931c0,0.035,0.003,0.069,0.007,0.104
		c0.541-0.179,1.068-0.437,1.563-0.772C11.354,13.214,11.126,13.113,10.876,13.113L10.876,13.113z"/>
	<path fill="#FFFFFF" d="M9.667,5.911c0,0.514-0.415,0.931-0.927,0.931c-0.511,0-0.925-0.417-0.925-0.931
		c0-0.515,0.414-0.932,0.925-0.932C9.252,4.979,9.667,5.396,9.667,5.911z"/>
	<path fill="#FFFFFF" d="M14.317,9.031c0.066-0.427,0.086-0.854,0.059-1.275c-0.101-0.155-0.158-0.342-0.158-0.542
		c0-0.099,0.016-0.194,0.041-0.284c-0.034-0.161-0.077-0.321-0.129-0.479c-0.049-0.058-0.098-0.113-0.15-0.168
		c-0.012-0.014-0.023-0.028-0.035-0.041c-0.146,0.377-0.508,0.645-0.935,0.645c-0.553,0-1-0.45-1-1.005
		c0-0.319,0.148-0.604,0.38-0.788c-0.013-0.006-0.025-0.012-0.037-0.019c-0.048-0.023-0.099-0.046-0.147-0.068
		c-0.041-0.018-0.08-0.035-0.118-0.052c-0.054-0.022-0.106-0.043-0.162-0.063C11.896,4.881,11.87,4.87,11.841,4.86
		c0.007,0.041,0.009,0.082,0.009,0.125c0,0.555-0.448,1.005-1.001,1.005c-0.551,0-1-0.45-1-1.005c0-0.16,0.039-0.312,0.105-0.446
		c-0.001,0-0.001,0-0.002,0C9.851,4.54,9.752,4.544,9.653,4.55C9.64,4.552,9.627,4.553,9.613,4.554
		C9.526,4.56,9.44,4.568,9.354,4.578C9.337,4.58,9.319,4.582,9.301,4.585C9.221,4.596,9.14,4.608,9.06,4.622
		c-0.02,0.003-0.038,0.006-0.057,0.01c-0.08,0.015-0.158,0.031-0.237,0.05C8.749,4.686,8.731,4.688,8.714,4.693
		C8.631,4.713,8.55,4.735,8.468,4.759c-0.012,0.003-0.023,0.006-0.035,0.01c-0.283,0.086-0.558,0.193-0.82,0.322c0,0,0,0-0.002,0
		C7.558,5.596,7.134,5.989,6.616,5.989c-0.094,0-0.184-0.014-0.27-0.038l0,0C6.241,6.048,6.14,6.15,6.042,6.254
		C6.03,6.267,6.018,6.28,6.006,6.292C5.913,6.394,5.824,6.499,5.739,6.607C5.727,6.623,5.713,6.64,5.7,6.656
		c-0.085,0.11-0.165,0.223-0.241,0.339C5.45,7.009,5.441,7.022,5.434,7.034C5.354,7.157,5.279,7.281,5.21,7.41l0,0
		C5.398,7.594,5.516,7.85,5.516,8.133c0,0.517-0.386,0.941-0.885,0.999c-0.012,0.074-0.021,0.149-0.03,0.224
		c0,0.001,0,0.001,0,0.003c0.514,0.043,0.915,0.474,0.915,1c0,0.482-0.337,0.883-0.786,0.983c0.004,0.016,0.009,0.031,0.013,0.047
		c0.028,0.108,0.06,0.217,0.095,0.323c0.003,0.007,0.005,0.015,0.007,0.021c0.392,0.137,0.672,0.51,0.672,0.949
		c0,0.113-0.02,0.223-0.054,0.324c0.015,0.021,0.029,0.045,0.044,0.066c0.028,0.043,0.057,0.084,0.087,0.125
		s0.061,0.082,0.092,0.123c0.025,0.033,0.051,0.067,0.077,0.1c0.008,0.011,0.018,0.021,0.025,0.031
		c0.181-0.268,0.484-0.443,0.83-0.443c0.553,0,1,0.45,1,1.006c0,0.147-0.032,0.284-0.088,0.411c0.115,0.01,0.231,0.019,0.348,0.023
		c0.177-0.283,0.489-0.475,0.848-0.475c0.286,0,0.544,0.123,0.728,0.316c0.137-0.033,0.273-0.072,0.409-0.115
		c-0.009-0.053-0.015-0.106-0.015-0.161c0-0.556,0.448-1.006,1-1.006c0.291,0,0.552,0.126,0.734,0.324
		c0.161-0.11,0.317-0.229,0.47-0.357c-0.027-0.094-0.044-0.191-0.044-0.295c0-0.555,0.448-1.004,1-1.004
		c0.074,0,0.147,0.008,0.217,0.023c0.112-0.159,0.217-0.322,0.313-0.49c-0.153,0.099-0.336,0.154-0.53,0.154
		c-0.553,0-1-0.45-1-1.006c0-0.555,0.448-1.005,1-1.005c0.51,0,0.93,0.385,0.992,0.88c0.086-0.233,0.16-0.471,0.217-0.709
		c0-0.02-0.002-0.039-0.002-0.058c0-0.156,0.037-0.304,0.1-0.436L14.317,9.031z M6.618,12.699c-0.553,0-1.001-0.451-1.001-1.006
		s0.449-1.005,1.001-1.005s1,0.45,1,1.005S7.17,12.699,6.618,12.699z M6.618,10.473c-0.553,0-1.001-0.451-1.001-1.006
		c0-0.556,0.449-1.005,1.001-1.005s1,0.449,1,1.005C7.618,10.021,7.17,10.473,6.618,10.473z M6.618,8.219
		c-0.553,0-1.001-0.45-1.001-1.005s0.449-1.006,1.001-1.006s1,0.451,1,1.006S7.17,8.219,6.618,8.219z M8.726,13.687
		c-0.553,0-1.001-0.45-1.001-1.005c0-0.557,0.448-1.006,1.001-1.006s1,0.449,1,1.006C9.726,13.236,9.277,13.687,8.726,13.687z
		 M8.726,11.364c-0.553,0-1.001-0.45-1.001-1.006c0-0.555,0.448-1.005,1.001-1.005s1,0.45,1,1.005
		C9.726,10.914,9.277,11.364,8.726,11.364z M8.726,9.139c-0.553,0-1.001-0.45-1.001-1.006c0-0.555,0.448-1.005,1.001-1.005
		s1,0.45,1,1.005C9.726,8.688,9.277,9.139,8.726,9.139z M8.726,6.886c-0.553,0-1.001-0.45-1.001-1.005
		c0-0.556,0.448-1.006,1.001-1.006s1,0.45,1,1.006C9.726,6.436,9.277,6.886,8.726,6.886z M10.849,12.699c-0.553,0-1-0.451-1-1.006
		s0.449-1.005,1-1.005c0.553,0,1.001,0.45,1.001,1.005S11.401,12.699,10.849,12.699z M10.849,10.473c-0.553,0-1-0.451-1-1.006
		c0-0.556,0.449-1.005,1-1.005c0.553,0,1.001,0.449,1.001,1.005C11.85,10.021,11.401,10.473,10.849,10.473z M10.849,8.219
		c-0.553,0-1-0.45-1-1.005s0.449-1.006,1-1.006c0.553,0,1.001,0.451,1.001,1.006S11.401,8.219,10.849,8.219z M13.01,9.139
		c-0.553,0-1-0.45-1-1.006c0-0.555,0.449-1.005,1-1.005c0.552,0,1.001,0.45,1.001,1.005C14.011,8.688,13.562,9.139,13.01,9.139z"/>
	<path fill="#FFFFFF" d="M5.621,13.235c-0.002-0.001-0.003-0.002-0.003-0.003C5.619,13.233,5.621,13.234,5.621,13.235z"/>
	<path fill="#FFFFFF" d="M9.614,4.552c0.014-0.002,0.026-0.003,0.04-0.004C9.641,4.549,9.628,4.55,9.614,4.552z"/>
	<path fill="#FFFFFF" d="M13.944,6.242L13.944,6.242L13.944,6.242z"/>
	<path fill="#FFFFFF" d="M4.603,9.355v0.003V9.355z"/>
	<path fill="#FFFFFF" d="M6.349,5.951L6.349,5.951z"/>
	<path fill="#FFFFFF" d="M5.213,7.41L5.213,7.41z"/>
	<path fill="#FFFFFF" d="M7.613,5.09L7.613,5.09L7.613,5.09z"/>
	<path fill="#FFFFFF" d="M5.463,13.008L5.463,13.008z"/>
	<path fill="#FFFFFF" d="M12.391,5.092L12.391,5.092z"/>
	<path fill="#FFFFFF" d="M5.436,7.034c0.008-0.013,0.017-0.026,0.025-0.039C5.452,7.009,5.443,7.022,5.436,7.034z"/>
	<path fill="#FFFFFF" d="M9.954,4.537L9.954,4.537z"/>
	<path fill="#FFFFFF" d="M5.702,6.655c0.013-0.017,0.025-0.032,0.039-0.049C5.729,6.622,5.715,6.639,5.702,6.655z"/>
	<path fill="#FFFFFF" d="M8.715,4.69c0.017-0.004,0.034-0.008,0.053-0.012C8.749,4.684,8.732,4.687,8.715,4.69z"/>
	<path fill="#FFFFFF" d="M8.434,4.768c0.012-0.004,0.023-0.007,0.035-0.01C8.457,4.761,8.445,4.764,8.434,4.768z"/>
	<path fill="#FFFFFF" d="M5.785,13.45c0.001,0.001,0.002,0.002,0.002,0.003l0,0C5.786,13.452,5.785,13.451,5.785,13.45z"/>
	<path fill="#FFFFFF" d="M6.008,6.292C6.021,6.28,6.032,6.267,6.044,6.254C6.032,6.267,6.021,6.28,6.008,6.292z"/>
	<path fill="#FFFFFF" d="M9.004,4.629c0.019-0.003,0.037-0.007,0.057-0.011C9.041,4.622,9.022,4.625,9.004,4.629z"/>
	<path fill="#FFFFFF" d="M4.845,11.73v0.002V11.73z"/>
	<path fill="#FFFFFF" d="M9.302,4.583C9.32,4.581,9.338,4.579,9.355,4.575C9.338,4.578,9.32,4.58,9.302,4.583z"/>
	<path fill="#FFFFFF" d="M5.595,13.197c0.008,0.013,0.016,0.023,0.023,0.035c0.001,0.001,0.003,0.002,0.003,0.003
		c0.021,0.028,0.044,0.056,0.065,0.085C5.655,13.279,5.625,13.238,5.595,13.197z"/>
	<path fill="#FFFFFF" d="M5.789,13.452c-0.008-0.011-0.018-0.021-0.025-0.032c0.007,0.011,0.014,0.021,0.022,0.03
		C5.787,13.451,5.788,13.452,5.789,13.452L5.789,13.452z"/>
	<path fill="#FFFFFF" d="M4.846,11.732c-0.002-0.006-0.004-0.014-0.006-0.021c0.002,0.007,0.003,0.013,0.005,0.019
		C4.845,11.73,4.845,11.73,4.846,11.732C4.845,11.732,4.845,11.732,4.846,11.732z"/>
	<path fill="#FFFFFF" d="M5.464,13.006c0,0.001,0,0.001-0.001,0.002s0,0,0,0c0.015,0.021,0.03,0.043,0.045,0.064
		C5.493,13.051,5.479,13.029,5.464,13.006z"/>
	<path fill="#FFFFFF" d="M4.744,11.389c-0.004-0.016-0.008-0.031-0.013-0.047H4.73C4.735,11.357,4.74,11.373,4.744,11.389z"/>
	<path fill="#FFFFFF" d="M12.205,5.007c-0.041-0.018-0.08-0.035-0.118-0.052C12.125,4.972,12.164,4.989,12.205,5.007z"/>
	<path fill="#FFFFFF" d="M12.39,5.093L12.39,5.093L12.39,5.093c-0.013-0.007-0.025-0.012-0.037-0.018
		C12.364,5.082,12.377,5.088,12.39,5.093L12.39,5.093z"/>
	<path fill="#FFFFFF" d="M13.944,6.241c0.012,0.013,0.023,0.027,0.035,0.041C13.968,6.269,13.956,6.254,13.944,6.241L13.944,6.241
		L13.944,6.241z"/>
	<path fill="#FFFFFF" d="M11.841,4.859c0.029,0.011,0.056,0.021,0.084,0.031c-0.028-0.011-0.055-0.022-0.084-0.033V4.859
		L11.841,4.859z"/>
	<path fill="#CDCDCE" d="M8.726,7.128c-0.553,0-1.001,0.45-1.001,1.005c0,0.556,0.448,1.006,1.001,1.006s1-0.45,1-1.006
		C9.726,7.578,9.277,7.128,8.726,7.128z M8.74,9.095c-0.511,0-0.925-0.417-0.925-0.931c0-0.515,0.414-0.932,0.925-0.932
		c0.512,0,0.927,0.417,0.927,0.932C9.667,8.678,9.252,9.095,8.74,9.095z"/>
	<path fill="#CDCDCE" d="M8.726,4.875c-0.553,0-1.001,0.45-1.001,1.006c0,0.555,0.448,1.005,1.001,1.005s1-0.45,1-1.005
		C9.726,5.325,9.277,4.875,8.726,4.875z M8.74,6.842c-0.511,0-0.925-0.417-0.925-0.931c0-0.515,0.414-0.932,0.925-0.932
		c0.512,0,0.927,0.417,0.927,0.932C9.667,6.425,9.252,6.842,8.74,6.842z"/>
	<path fill="#CDCDCE" d="M8.726,9.354c-0.553,0-1.001,0.45-1.001,1.005c0,0.556,0.448,1.006,1.001,1.006s1-0.45,1-1.006
		C9.726,9.804,9.277,9.354,8.726,9.354z M8.753,11.31c-0.512,0-0.927-0.418-0.927-0.932c0-0.515,0.415-0.931,0.927-0.931
		s0.925,0.416,0.925,0.931C9.678,10.892,9.264,11.31,8.753,11.31z"/>
	<path fill="#CDCDCE" d="M8.726,11.676c-0.553,0-1.001,0.449-1.001,1.006c0,0.555,0.448,1.005,1.001,1.005s1-0.45,1-1.005
		C9.726,12.125,9.277,11.676,8.726,11.676z M8.753,13.644c-0.512,0-0.927-0.418-0.927-0.932c0-0.515,0.415-0.932,0.927-0.932
		s0.925,0.417,0.925,0.932C9.678,13.226,9.264,13.644,8.753,13.644z"/>
	<path fill="#CDCDCE" d="M5.459,8.164c0,0.477-0.357,0.87-0.818,0.924C4.639,9.103,4.635,9.117,4.633,9.132
		c0.498-0.058,0.886-0.483,0.886-0.999c0-0.283-0.118-0.539-0.306-0.723C5.197,7.438,5.185,7.464,5.172,7.49
		C5.349,7.66,5.459,7.899,5.459,8.164L5.459,8.164z"/>
	<path fill="#CDCDCE" d="M5.213,7.41L5.213,7.41C5.197,7.438,5.185,7.464,5.172,7.49l0,0C5.185,7.464,5.197,7.438,5.213,7.41z"/>
	<path fill="#CDCDCE" d="M5.459,10.39c0,0.449-0.317,0.824-0.738,0.911c0.004,0.014,0.008,0.026,0.011,0.039
		c0.449-0.099,0.787-0.5,0.787-0.982c0-0.526-0.402-0.958-0.916-1.001v0.002C4.599,9.392,4.595,9.425,4.591,9.459V9.46
		C5.075,9.491,5.46,9.894,5.459,10.39L5.459,10.39z"/>
	<path fill="#CDCDCE" d="M4.603,9.358L4.603,9.358z"/>
	<path fill="#CDCDCE" d="M4.59,9.46L4.59,9.46L4.59,9.46z"/>
	<path fill="#CDCDCE" d="M4.72,11.301c0.003,0.014,0.007,0.026,0.01,0.041H4.73C4.728,11.327,4.723,11.315,4.72,11.301L4.72,11.301
		L4.72,11.301z"/>
	<path fill="#CDCDCE" d="M4.857,11.768v0.002c0.007,0.02,0.014,0.041,0.02,0.061C4.87,11.809,4.864,11.789,4.857,11.768
		L4.857,11.768z"/>
	<path fill="#CDCDCE" d="M4.877,11.83c0,0.001,0.001,0.002,0.001,0.003C5.224,11.968,5.47,12.306,5.47,12.7
		c0,0.09-0.014,0.177-0.037,0.26c0.01,0.016,0.021,0.03,0.03,0.046c0.034-0.102,0.055-0.212,0.055-0.324
		c0-0.439-0.282-0.812-0.673-0.949c0.004,0.012,0.007,0.023,0.012,0.035C4.864,11.788,4.87,11.809,4.877,11.83z"/>
	<path fill="#CDCDCE" d="M4.845,11.73L4.845,11.73c0.004,0.014,0.009,0.025,0.013,0.039v-0.002
		C4.854,11.756,4.849,11.744,4.845,11.73z"/>
	<path fill="#CDCDCE" d="M5.433,12.961L5.433,12.961c0.01,0.016,0.02,0.032,0.03,0.047l0,0C5.452,12.993,5.442,12.977,5.433,12.961z
		"/>
	<path fill="#CDCDCE" d="M5.433,12.961c0.01,0.016,0.02,0.032,0.03,0.047c0-0.001,0-0.001,0.001-0.002
		C5.453,12.99,5.442,12.976,5.433,12.961L5.433,12.961L5.433,12.961z"/>
	<path fill="#CDCDCE" d="M4.857,11.768c-0.004-0.012-0.008-0.023-0.012-0.035c0,0,0,0-0.001,0c0.004,0.012,0.009,0.023,0.013,0.037
		V11.768z"/>
	<path fill="#CDCDCE" d="M7.784,14.989c0.014,0.006,0.029,0.013,0.042,0.019l0,0C7.812,15.002,7.798,14.995,7.784,14.989z"/>
	<path fill="#CDCDCE" d="M9.678,14.999c0,0.161-0.041,0.313-0.112,0.446c0.015,0.001,0.03,0.002,0.046,0.003
		c0.073-0.14,0.115-0.299,0.115-0.468c0-0.268-0.104-0.509-0.272-0.688c-0.027,0.006-0.055,0.01-0.081,0.017
		C9.561,14.479,9.679,14.725,9.678,14.999L9.678,14.999z"/>
	<path fill="#CDCDCE" d="M7.826,14.999c0-0.205,0.067-0.395,0.179-0.548c-0.042-0.001-0.084-0.001-0.126-0.003
		c-0.094,0.15-0.148,0.324-0.151,0.515c0.019,0.009,0.038,0.018,0.058,0.026c0.015,0.006,0.029,0.013,0.042,0.019
		c0-0.004,0-0.006,0-0.011L7.826,14.999z"/>
	<path fill="#CDCDCE" d="M8.726,13.975c-0.358,0-0.672,0.19-0.848,0.475c0.042,0.002,0.084,0.002,0.125,0.003
		c0.169-0.232,0.44-0.384,0.748-0.384c0.239,0,0.456,0.093,0.62,0.242c0.027-0.007,0.054-0.013,0.081-0.019
		C9.27,14.098,9.011,13.975,8.726,13.975L8.726,13.975z"/>
	<path fill="#CDCDCE" d="M13.01,7.128c-0.553,0-1,0.45-1,1.005c0,0.556,0.449,1.006,1,1.006c0.552,0,1.001-0.45,1.001-1.006
		C14.011,7.578,13.562,7.128,13.01,7.128z M13.036,9.083c-0.511,0-0.925-0.416-0.925-0.931s0.414-0.931,0.925-0.931
		s0.926,0.416,0.926,0.931S13.547,9.083,13.036,9.083z"/>
	<path fill="#CDCDCE" d="M13.941,6.24L13.941,6.24c-0.003-0.003-0.005-0.006-0.007-0.008l-0.001-0.001
		C13.936,6.234,13.938,6.237,13.941,6.24L13.941,6.24z"/>
	<path fill="#CDCDCE" d="M13.934,6.231c-0.009-0.011-0.021-0.021-0.028-0.029c-0.123,0.371-0.471,0.64-0.88,0.64
		c-0.512,0-0.927-0.417-0.927-0.931c0-0.316,0.157-0.596,0.397-0.764c-0.035-0.019-0.072-0.037-0.106-0.055
		c-0.231,0.185-0.38,0.469-0.38,0.788c0,0.555,0.449,1.005,1,1.005c0.427,0,0.789-0.268,0.935-0.645
		c-0.003,0-0.003-0.001-0.003-0.002C13.939,6.236,13.937,6.233,13.934,6.231L13.934,6.231z"/>
	<path fill="#CDCDCE" d="M13.944,6.241L13.944,6.241c-0.003-0.001-0.003-0.002-0.003-0.002V6.24
		C13.941,6.24,13.944,6.241,13.944,6.241L13.944,6.241z"/>
	<path fill="#CDCDCE" d="M12.497,5.146L12.497,5.146c-0.036-0.019-0.071-0.037-0.106-0.055l0,0
		C12.426,5.109,12.461,5.129,12.497,5.146z"/>
	<path fill="#CDCDCE" d="M13.934,6.231L13.934,6.231c-0.008-0.01-0.019-0.021-0.028-0.03l0,0
		C13.913,6.211,13.925,6.222,13.934,6.231z"/>
	<path fill="#CDCDCE" d="M13.941,6.24l0.003,0.002L13.941,6.24z"/>
	<path fill="#CDCDCE" d="M13.905,6.201L13.905,6.201c0.008,0.01,0.02,0.021,0.028,0.03C13.925,6.221,13.915,6.21,13.905,6.201z"/>
	<path fill="#CDCDCE" d="M12.497,5.146c-0.036-0.019-0.071-0.037-0.106-0.055L12.39,5.093C12.424,5.11,12.461,5.129,12.497,5.146
		C12.496,5.147,12.496,5.147,12.497,5.146z"/>
	<path fill="#CDCDCE" d="M13.952,10.39c0,0.3-0.142,0.565-0.362,0.736c-0.016,0.027-0.032,0.057-0.05,0.085
		c0.283-0.178,0.471-0.493,0.471-0.853c0-0.043-0.003-0.084-0.01-0.125c-0.017,0.045-0.032,0.091-0.051,0.136
		C13.95,10.376,13.952,10.384,13.952,10.39z"/>
	<path fill="#CDCDCE" d="M13.01,9.354c-0.553,0-1,0.45-1,1.005c0,0.556,0.449,1.006,1,1.006c0.195,0,0.376-0.056,0.53-0.153
		c0.018-0.028,0.034-0.058,0.05-0.085c-0.155,0.122-0.352,0.194-0.564,0.194c-0.512,0-0.927-0.416-0.927-0.931
		s0.415-0.932,0.927-0.932c0.504,0,0.913,0.405,0.925,0.911c0.018-0.045,0.034-0.09,0.051-0.136
		C13.938,9.738,13.519,9.354,13.01,9.354L13.01,9.354z"/>
	<path fill="#CDCDCE" d="M13.952,12.723c0,0.515-0.415,0.932-0.927,0.932c-0.445,0-0.816-0.315-0.906-0.737
		c-0.021,0.019-0.043,0.04-0.065,0.058c0.125,0.411,0.505,0.712,0.957,0.712c0.553,0,1.001-0.45,1.001-1.005
		c0-0.48-0.336-0.883-0.784-0.981c-0.024,0.034-0.048,0.067-0.073,0.102C13.604,11.863,13.952,12.252,13.952,12.723L13.952,12.723z"
		/>
	<path fill="#CDCDCE" d="M12.01,12.682c0,0.103,0.016,0.2,0.044,0.294c0.022-0.019,0.044-0.038,0.065-0.058
		c-0.014-0.062-0.021-0.128-0.021-0.195c0-0.514,0.415-0.931,0.927-0.931c0.043,0,0.086,0.004,0.128,0.01
		c0.025-0.034,0.05-0.069,0.073-0.102c-0.07-0.017-0.142-0.024-0.217-0.024C12.457,11.676,12.01,12.125,12.01,12.682z"/>
	<path fill="#CDCDCE" d="M13.47,14.206L13.47,14.206c0.027-0.023,0.055-0.047,0.081-0.071l0,0
		C13.523,14.159,13.497,14.183,13.47,14.206z"/>
	<path fill="#CDCDCE" d="M12.099,15.021c0-0.513,0.415-0.931,0.927-0.931c0.16,0,0.313,0.041,0.444,0.115
		c0.027-0.023,0.055-0.047,0.081-0.071c-0.156-0.101-0.341-0.16-0.541-0.16c-0.553,0-1,0.45-1,1.006
		c0,0.031,0.002,0.062,0.004,0.095c0.029-0.013,0.059-0.022,0.086-0.035C12.1,15.034,12.099,15.028,12.099,15.021z"/>
	<path fill="#CDCDCE" d="M10.849,8.462c-0.553,0-1,0.449-1,1.005c0,0.555,0.449,1.006,1,1.006c0.553,0,1.001-0.451,1.001-1.006
		C11.85,8.911,11.401,8.462,10.849,8.462z M10.876,10.417c-0.512,0-0.927-0.417-0.927-0.932c0-0.514,0.415-0.931,0.927-0.931
		c0.511,0,0.926,0.417,0.926,0.931C11.802,10,11.387,10.417,10.876,10.417z"/>
	<path fill="#CDCDCE" d="M10.849,6.208c-0.553,0-1,0.451-1,1.006s0.449,1.005,1,1.005c0.553,0,1.001-0.45,1.001-1.005
		S11.401,6.208,10.849,6.208z M10.864,8.175c-0.512,0-0.927-0.417-0.927-0.931c0-0.515,0.415-0.931,0.927-0.931
		c0.511,0,0.926,0.416,0.926,0.931C11.79,7.758,11.375,8.175,10.864,8.175z"/>
	<path fill="#CDCDCE" d="M11.773,4.835c0.011,0.003,0.02,0.007,0.031,0.011l0,0C11.793,4.843,11.784,4.84,11.773,4.835L11.773,4.835
		z"/>
	<path fill="#CDCDCE" d="M9.849,4.984c0,0.555,0.449,1.005,1,1.005c0.553,0,1.001-0.45,1.001-1.005c0-0.042-0.002-0.084-0.009-0.125
		c-0.012-0.004-0.024-0.01-0.036-0.015c-0.011-0.003-0.021-0.008-0.031-0.011c0.012,0.058,0.018,0.118,0.018,0.18
		c0,0.514-0.414,0.931-0.926,0.931S9.938,5.527,9.938,5.014c0-0.174,0.049-0.337,0.131-0.476c-0.022,0-0.046-0.002-0.068-0.002
		c-0.016,0-0.03,0.001-0.046,0.001C9.889,4.672,9.85,4.823,9.849,4.984L9.849,4.984z"/>
	<path fill="#CDCDCE" d="M11.809,4.847c-0.002,0-0.004-0.001-0.004-0.001l0,0C11.805,4.847,11.807,4.847,11.809,4.847z"/>
	<path fill="#CDCDCE" d="M10.068,4.538c-0.022,0-0.046-0.002-0.068-0.002C10.022,4.536,10.046,4.537,10.068,4.538L10.068,4.538z"/>
	<path fill="#CDCDCE" d="M10,4.536c-0.016,0-0.03,0.001-0.046,0.001l0,0C9.97,4.537,9.984,4.536,10,4.536z"/>
	<path fill="#CDCDCE" d="M11.841,4.859L11.841,4.859c-0.011-0.005-0.022-0.009-0.032-0.013c-0.002-0.001-0.004-0.001-0.004-0.001
		C11.816,4.85,11.829,4.855,11.841,4.859L11.841,4.859z"/>
	<path fill="#CDCDCE" d="M10.068,4.538c-0.022,0-0.046-0.002-0.068-0.002C10.022,4.536,10.046,4.538,10.068,4.538L10.068,4.538z"/>
	<path fill="#CDCDCE" d="M10.849,10.688c-0.553,0-1,0.45-1,1.005c0,0.556,0.449,1.006,1,1.006c0.553,0,1.001-0.45,1.001-1.006
		C11.85,11.138,11.401,10.688,10.849,10.688z M10.876,12.654c-0.512,0-0.927-0.417-0.927-0.932c0-0.514,0.415-0.931,0.927-0.931
		c0.511,0,0.926,0.417,0.926,0.931C11.802,12.237,11.387,12.654,10.876,12.654z"/>
	<path fill="#CDCDCE" d="M11.802,14.044c0,0.516-0.415,0.932-0.926,0.932c-0.478,0-0.87-0.362-0.921-0.828
		c-0.03,0.012-0.062,0.02-0.093,0.029c0.077,0.477,0.489,0.843,0.986,0.843c0.553,0,1.001-0.449,1.001-1.005
		c0-0.264-0.102-0.502-0.267-0.683c-0.021,0.015-0.043,0.029-0.063,0.043C11.693,13.545,11.802,13.782,11.802,14.044L11.802,14.044z
		"/>
	<path fill="#CDCDCE" d="M10.849,13.009c-0.553,0-1,0.45-1,1.006c0,0.055,0.006,0.109,0.015,0.162
		c0.03-0.01,0.062-0.018,0.093-0.029c-0.003-0.034-0.007-0.068-0.007-0.104c0-0.514,0.415-0.931,0.927-0.931
		c0.25,0,0.477,0.101,0.644,0.264c0.021-0.015,0.043-0.028,0.063-0.043C11.4,13.135,11.14,13.009,10.849,13.009z"/>
	<path fill="#CDCDCE" d="M15.417,10.436c0-0.004,0.001-0.01,0.001-0.015l0,0C15.418,10.426,15.417,10.431,15.417,10.436z"/>
	<path fill="#CDCDCE" d="M15.232,10.439c-0.511,0-0.927-0.417-0.927-0.931c0-0.515,0.416-0.932,0.927-0.932
		c0.005,0,0.011,0.001,0.016,0.001c-0.011-0.039-0.021-0.078-0.034-0.116c-0.395,0.001-0.736,0.232-0.897,0.569
		c-0.024,0.164-0.058,0.33-0.097,0.493c0.029,0.528,0.465,0.948,0.999,0.948c0.066,0,0.133-0.008,0.197-0.021
		c0-0.006,0.001-0.012,0.001-0.017c0-0.004,0.001-0.01,0.001-0.015C15.358,10.434,15.296,10.439,15.232,10.439z"/>
	<path fill="#CDCDCE" d="M14.218,9.467c0,0.02,0.002,0.038,0.002,0.058c0.041-0.163,0.072-0.329,0.098-0.493
		C14.255,9.163,14.218,9.311,14.218,9.467z"/>
	<path fill="#CDCDCE" d="M15.128,8.191c-0.004-0.014-0.008-0.025-0.012-0.037l0,0C15.12,8.167,15.124,8.18,15.128,8.191z"/>
	<path fill="#CDCDCE" d="M14.416,6.816L14.416,6.816z"/>
	<path fill="#CDCDCE" d="M14.347,7.453c0.013,0.102,0.021,0.201,0.029,0.303c0.164,0.257,0.441,0.434,0.761,0.459
		c-0.002-0.008-0.004-0.016-0.009-0.023c-0.004-0.014-0.008-0.025-0.012-0.037C14.739,8.102,14.437,7.82,14.347,7.453L14.347,7.453z
		"/>
	<path fill="#CDCDCE" d="M14.259,6.93c0.023,0.104,0.043,0.21,0.061,0.315c0-0.004-0.001-0.009-0.001-0.014
		c0-0.149,0.036-0.29,0.098-0.416c0,0,0,0-0.001-0.001c-0.023-0.032-0.045-0.064-0.068-0.096C14.311,6.784,14.28,6.854,14.259,6.93
		L14.259,6.93z"/>
	<path fill="#CDCDCE" d="M14.376,7.756c-0.007-0.102-0.016-0.201-0.029-0.303c-0.017-0.066-0.026-0.136-0.027-0.208
		c-0.018-0.105-0.037-0.212-0.061-0.315c-0.025,0.09-0.041,0.186-0.041,0.284C14.218,7.414,14.276,7.601,14.376,7.756z"/>
	<path fill="#CDCDCE" d="M15.38,10.777c0.004-0.025,0.006-0.049,0.011-0.074l0,0C15.386,10.729,15.384,10.752,15.38,10.777z"/>
	<path fill="#CDCDCE" d="M15.373,10.833L15.373,10.833z"/>
	<path fill="#CDCDCE" d="M15.219,10.688c-0.554,0-1.001,0.45-1.001,1.005c0,0.398,0.231,0.742,0.564,0.905
		c0.008-0.012,0.014-0.024,0.02-0.036c-0.274-0.161-0.461-0.461-0.461-0.805c0-0.513,0.415-0.931,0.927-0.931
		c0.034,0,0.071,0.002,0.105,0.007l0,0c0.003-0.019,0.005-0.037,0.007-0.056c0.004-0.025,0.006-0.049,0.011-0.074
		C15.334,10.693,15.276,10.688,15.219,10.688z"/>
	<path fill="#CDCDCE" d="M10.335,15.452L10.335,15.452z"/>
	<path fill="#CDCDCE" d="M10.749,15.41c-0.014,0.003-0.027,0.004-0.04,0.006C10.722,15.415,10.735,15.413,10.749,15.41z"/>
	<path fill="#CDCDCE" d="M10.849,15.309c-0.188,0-0.364,0.053-0.514,0.144h0.001c0.126-0.007,0.249-0.019,0.373-0.036
		c0.013-0.002,0.026-0.003,0.04-0.006c0.125-0.018,0.25-0.038,0.372-0.062C11.035,15.322,10.943,15.309,10.849,15.309z"/>
	<path fill="#CDCDCE" d="M6.618,8.462c-0.553,0-1.001,0.449-1.001,1.005c0,0.555,0.449,1.006,1.001,1.006s1-0.451,1-1.006
		C7.618,8.911,7.17,8.462,6.618,8.462z M6.633,10.429c-0.512,0-0.926-0.418-0.926-0.932c0-0.515,0.414-0.932,0.926-0.932
		c0.511,0,0.926,0.417,0.926,0.932C7.559,10.011,7.144,10.429,6.633,10.429z"/>
	<path fill="#CDCDCE" d="M6.618,6.208c-0.553,0-1.001,0.451-1.001,1.006s0.449,1.005,1.001,1.005s1-0.45,1-1.005
		S7.17,6.208,6.618,6.208z M6.633,8.175c-0.512,0-0.926-0.417-0.926-0.931c0-0.515,0.414-0.931,0.926-0.931
		c0.511,0,0.926,0.416,0.926,0.931C7.559,7.758,7.144,8.175,6.633,8.175z"/>
	<path fill="#CDCDCE" d="M6.618,5.989c0.517,0,0.941-0.394,0.995-0.898C7.593,5.1,7.573,5.111,7.552,5.122
		C7.498,5.585,7.108,5.945,6.633,5.945c-0.083,0-0.163-0.011-0.239-0.032C6.383,5.923,6.373,5.932,6.362,5.94
		C6.358,5.944,6.354,5.947,6.349,5.951C6.435,5.976,6.524,5.989,6.618,5.989z"/>
	<path fill="#CDCDCE" d="M7.613,5.091L7.613,5.091C7.593,5.1,7.573,5.111,7.552,5.122l0,0C7.572,5.111,7.592,5.102,7.613,5.091z"/>
	<path fill="#CDCDCE" d="M6.362,5.94C6.358,5.944,6.354,5.947,6.349,5.951l0,0C6.353,5.947,6.357,5.944,6.362,5.94z"/>
	<path fill="#CDCDCE" d="M6.618,10.688c-0.553,0-1.001,0.45-1.001,1.005c0,0.556,0.449,1.006,1.001,1.006s1-0.45,1-1.006
		C7.618,11.138,7.17,10.688,6.618,10.688z M6.644,12.643c-0.511,0-0.925-0.417-0.925-0.932s0.414-0.931,0.925-0.931
		c0.512,0,0.927,0.416,0.927,0.931S7.155,12.643,6.644,12.643z"/>
	<path fill="#CDCDCE" d="M7.289,14.735c0.006,0.002,0.011,0.006,0.016,0.009l0,0C7.3,14.741,7.295,14.737,7.289,14.735z"/>
	<path fill="#CDCDCE" d="M7.531,14.425c-0.014,0-0.026-0.002-0.039-0.004c-0.051,0.115-0.126,0.219-0.218,0.305
		c0.005,0.004,0.01,0.006,0.015,0.008c0.006,0.002,0.011,0.006,0.016,0.011C7.4,14.653,7.477,14.544,7.531,14.425L7.531,14.425z"/>
	<path fill="#CDCDCE" d="M6.618,13.009c-0.345,0-0.649,0.176-0.83,0.443c0.025,0.03,0.051,0.061,0.076,0.091
		c0.165-0.258,0.452-0.43,0.779-0.43c0.512,0,0.927,0.417,0.927,0.931c0,0.135-0.029,0.262-0.079,0.377
		c0.013,0,0.026,0.002,0.039,0.004c0.055-0.125,0.088-0.264,0.088-0.41C7.618,13.459,7.17,13.009,6.618,13.009z"/>
	<path fill="#CDCDCE" d="M5.864,13.543L5.864,13.543z"/>
	<path fill="#CDCDCE" d="M5.788,13.453L5.788,13.453z"/>
	<path fill="#CDCDCE" d="M5.864,13.543c-0.025-0.03-0.051-0.061-0.076-0.091l-0.001,0.001c0,0,0,0,0,0.001
		c0.025,0.03,0.051,0.061,0.075,0.09l0,0C5.862,13.544,5.862,13.543,5.864,13.543L5.864,13.543z"/>
	<path fill="#EED22F" d="M10.967,15.91l-0.996,0.122L9.036,15.91l0.406,0.744l0.171,3.025c0.129,0.005,0.258,0.01,0.387,0.01
		c0.123,0,0.246-0.005,0.369-0.01l0.189-3.031L10.967,15.91z"/>
	<path fill="#E6C41F" d="M10.967,15.91c0.177,0,0.322-0.194,0.322-0.437c0-0.047-0.009-0.092-0.019-0.137
		c-0.4,0.094-0.817,0.146-1.246,0.146c-0.444,0-0.876-0.056-1.29-0.156c-0.013,0.046-0.02,0.095-0.02,0.147
		c0,0.241,0.144,0.437,0.321,0.437l0.935,0.121L10.967,15.91L10.967,15.91z"/>
</g>
</svg>
