<?xml version="1.0" encoding="utf-8"?>
<!-- Generator: Adobe Illustrator 16.0.0, SVG Export Plug-In . SVG Version: 6.00 Build 0)  -->
<!DOCTYPE svg PUBLIC "-//W3C//DTD SVG 1.1//EN" "http://www.w3.org/Graphics/SVG/1.1/DTD/svg11.dtd">
<svg version="1.1" id="Layer_1" xmlns="http://www.w3.org/2000/svg" xmlns:xlink="http://www.w3.org/1999/xlink" x="0px" y="0px"
	 width="20px" height="20px" viewBox="0 0 20 20" enable-background="new 0 0 20 20" xml:space="preserve">
<g>
	<path fill="#A44A24" d="M19.69,10c0,5.352-4.339,9.69-9.69,9.69S0.31,15.352,0.31,10c0-5.351,4.339-9.69,9.69-9.69
		S19.69,4.648,19.69,10z"/>
	<path fill="#CCCD2B" d="M14.138,6.463C13.139,5.296,11.656,4.556,10,4.556c-3.007,0-5.444,2.438-5.444,5.444
		c0,1.704,0.783,3.225,2.01,4.223c0.938,0.763,2.132,1.222,3.435,1.222c3.007,0,5.444-2.438,5.444-5.444
		C15.444,8.649,14.952,7.415,14.138,6.463z"/>
	<path fill="#D3DE32" d="M12.51,12.551c1.708-1.708,2.269-4.095,1.628-6.088C13.139,5.296,11.656,4.556,10,4.556
		c-3.007,0-5.444,2.438-5.444,5.444c0,1.704,0.783,3.225,2.01,4.223C8.527,14.793,10.841,14.22,12.51,12.551z"/>
	<path fill="#BDBF31" d="M13.78,12.445c-0.751-0.085-2.71-0.617-2.71-0.617c-0.315-0.073-0.585-0.169-0.791-0.389
		c0.215,0.281,0.524,0.489,0.895,0.574c0,0,1.959,0.535,2.71,0.619c0.16,0.017,0.488,0.002,0.905-0.033
		c0.024-0.045,0.047-0.09,0.069-0.135C14.362,12.51,13.962,12.467,13.78,12.445z"/>
	<path fill="#BDBF31" d="M14.719,8.659c-0.589-0.034-2.75-0.627-2.75-0.627c-1.184-0.271-2.401,0.556-2.673,1.74L9.273,9.874
		c-0.165,0.722,0.048,1.44,0.506,1.955c-0.387-0.504-0.556-1.168-0.404-1.833l0.023-0.103c0.271-1.183,1.454-1.927,2.637-1.656
		c0,0,2.161,0.594,2.752,0.627c0.09,0.005,0.271-0.004,0.513-0.023c-0.01-0.042-0.041-0.146-0.052-0.188
		C14.971,8.678,14.817,8.667,14.719,8.659L14.719,8.659z"/>
	<path fill="#FFFFFF" d="M13.743,13.152c-0.899-0.097-2.812-0.643-2.812-0.643c-0.463-0.105-0.857-0.352-1.151-0.682
		c0.301,0.392,0.735,0.686,1.254,0.805c0,0,1.912,0.544,2.812,0.642c0.116,0.013,0.29,0.013,0.504,0.003
		c0.033-0.043,0.064-0.088,0.097-0.132C14.141,13.164,13.893,13.169,13.743,13.152L13.743,13.152z"/>
	<path fill="#FFFFFF" d="M14.647,9.384c-0.736-0.052-2.854-0.651-2.854-0.651C10.95,8.54,10.107,9.069,9.915,9.913l-0.023,0.102
		c-0.12,0.527,0.042,1.056,0.388,1.425c-0.274-0.358-0.393-0.831-0.284-1.304l0.022-0.102c0.193-0.843,1.035-1.372,1.879-1.18
		c0,0,2.117,0.6,2.854,0.65c0.125,0.009,0.358-0.002,0.658-0.025c-0.004-0.043-0.01-0.085-0.016-0.128
		C15.052,9.38,14.784,9.394,14.647,9.384z"/>
	<path fill="#FFFFFF" d="M13.884,12.633c-0.75-0.086-2.71-0.619-2.71-0.619c-0.37-0.085-0.68-0.293-0.895-0.574
		c-0.346-0.367-0.508-0.896-0.388-1.425l0.023-0.102c0.192-0.844,1.035-1.373,1.878-1.181c0,0,2.118,0.6,2.854,0.651
		c0.137,0.01,0.403-0.004,0.745-0.032C15.37,9.178,15.339,9.008,15.3,8.84c-0.242,0.02-0.423,0.028-0.513,0.023
		c-0.59-0.034-2.752-0.627-2.752-0.627C10.853,7.966,9.669,8.71,9.398,9.893L9.375,9.995c-0.151,0.665,0.018,1.33,0.404,1.833
		c0.294,0.33,0.688,0.576,1.151,0.682c0,0,1.914,0.545,2.812,0.643c0.149,0.017,0.397,0.012,0.703-0.008
		c0.125-0.175,0.24-0.355,0.343-0.545C14.373,12.635,14.044,12.651,13.884,12.633z"/>
</g>
</svg>
