<?xml version="1.0" encoding="utf-8"?>
<!-- Generator: Adobe Illustrator 16.0.0, SVG Export Plug-In . SVG Version: 6.00 Build 0)  -->
<!DOCTYPE svg PUBLIC "-//W3C//DTD SVG 1.1//EN" "http://www.w3.org/Graphics/SVG/1.1/DTD/svg11.dtd">
<svg version="1.1" id="Layer_1" xmlns="http://www.w3.org/2000/svg" xmlns:xlink="http://www.w3.org/1999/xlink" x="0px" y="0px"
	 width="20px" height="20px" viewBox="0 0 20 20" enable-background="new 0 0 20 20" xml:space="preserve">
<g>
	<path fill="#65A844" d="M19.69,10c0,5.352-4.338,9.69-9.69,9.69c-5.352,0-9.69-4.339-9.69-9.69c0-5.351,4.339-9.69,9.69-9.69
		C15.353,0.31,19.69,4.648,19.69,10z"/>
	<path fill="#E9DEC3" d="M14.139,6.463c-0.999-1.167-2.481-1.907-4.138-1.907c-3.007,0-5.444,2.438-5.444,5.444
		c0,1.704,0.783,3.225,2.01,4.223c0.937,0.763,2.133,1.222,3.435,1.222c3.007,0,5.444-2.438,5.444-5.444
		C15.445,8.649,14.953,7.415,14.139,6.463z"/>
	<path fill="#F6EDDC" d="M12.518,12.551c1.71-1.708,2.269-4.095,1.628-6.088c-0.998-1.167-2.481-1.907-4.138-1.907
		c-3.007,0-5.443,2.438-5.443,5.444c0,1.704,0.783,3.225,2.01,4.223C8.535,14.793,10.85,14.22,12.518,12.551z"/>
	<path fill="#8E7D5C" d="M14.546,7.006c-0.048-0.074-0.098-0.146-0.148-0.215c-0.904,0.353-2.717,0.967-4.381,0.967
		c-1.6,0-3.44-0.568-4.441-0.926c-0.051,0.07-0.1,0.143-0.148,0.218c1.002,0.36,2.919,0.963,4.589,0.963
		C11.754,8.013,13.645,7.36,14.546,7.006L14.546,7.006z"/>
	<path fill="#3A3A39" d="M12.836,6.944c0,0.122-0.098,0.221-0.22,0.221s-0.22-0.099-0.22-0.221c0-0.121,0.098-0.22,0.22-0.22
		S12.836,6.823,12.836,6.944z"/>
	<path fill="#3A3A39" d="M12.836,7.97c0,0.122-0.098,0.22-0.22,0.22s-0.22-0.098-0.22-0.22c0-0.121,0.098-0.22,0.22-0.22
		S12.836,7.849,12.836,7.97z"/>
	<path fill="#DC3735" d="M12.64,8.073c-0.023,0-0.047-0.007-0.068-0.021c-0.061-0.039-0.077-0.117-0.038-0.177
		c0.042-0.065,0.149-0.262,0.149-0.399c0-0.142-0.113-0.377-0.153-0.448c-0.035-0.062-0.012-0.14,0.049-0.174
		c0.062-0.034,0.14-0.013,0.174,0.049c0.019,0.035,0.187,0.341,0.187,0.573c0,0.236-0.17,0.508-0.19,0.538
		c-0.024,0.038-0.065,0.06-0.106,0.06H12.64z"/>
	<path fill="#3A3A39" d="M7.515,7.003c0,0.121-0.099,0.22-0.22,0.22c-0.122,0-0.221-0.099-0.221-0.22
		c0-0.122,0.099-0.221,0.221-0.221C7.416,6.782,7.515,6.881,7.515,7.003z"/>
	<path fill="#3A3A39" d="M7.515,8.027c0,0.122-0.099,0.221-0.22,0.221c-0.122,0-0.221-0.099-0.221-0.221
		c0-0.121,0.099-0.22,0.221-0.22C7.416,7.808,7.515,7.906,7.515,8.027z"/>
	<path fill="#DC3735" d="M7.318,8.13c-0.023,0-0.048-0.006-0.069-0.021C7.189,8.07,7.173,7.992,7.212,7.933
		C7.254,7.867,7.361,7.67,7.361,7.533c0-0.142-0.114-0.377-0.154-0.448c-0.034-0.062-0.013-0.14,0.05-0.174
		c0.062-0.034,0.14-0.013,0.174,0.05c0.019,0.034,0.187,0.34,0.187,0.572c0,0.237-0.171,0.508-0.19,0.539
		C7.401,8.109,7.36,8.13,7.318,8.13z"/>
	<path fill="#3A3A39" d="M14.082,6.621c0,0.121-0.1,0.22-0.221,0.22s-0.219-0.099-0.219-0.22s0.098-0.22,0.219-0.22
		S14.082,6.5,14.082,6.621z"/>
	<path fill="#3A3A39" d="M14.082,7.646c0,0.121-0.1,0.22-0.221,0.22s-0.219-0.099-0.219-0.22s0.098-0.22,0.219-0.22
		S14.082,7.525,14.082,7.646z"/>
	<path fill="#DC3735" d="M13.887,7.749c-0.023,0-0.048-0.006-0.068-0.021c-0.061-0.039-0.078-0.118-0.039-0.178
		c0.043-0.064,0.15-0.262,0.15-0.398c0-0.141-0.113-0.378-0.154-0.448c-0.035-0.062-0.013-0.14,0.049-0.174
		c0.062-0.035,0.141-0.013,0.174,0.049c0.02,0.035,0.188,0.341,0.188,0.573c0,0.236-0.171,0.508-0.191,0.538
		C13.97,7.729,13.929,7.749,13.887,7.749z"/>
	<path fill="#3A3A39" d="M6.272,6.658c0,0.121-0.099,0.22-0.22,0.22c-0.122,0-0.221-0.099-0.221-0.22
		c0-0.122,0.099-0.221,0.221-0.221C6.174,6.438,6.272,6.536,6.272,6.658z"/>
	<path fill="#3A3A39" d="M6.272,7.684c0,0.053-0.021,0.102-0.052,0.141C6.18,7.872,6.12,7.903,6.053,7.903
		c-0.122,0-0.221-0.099-0.221-0.22c0-0.122,0.099-0.221,0.221-0.221C6.174,7.463,6.272,7.562,6.272,7.684z"/>
	<path fill="#DC3735" d="M6.077,7.785c-0.023,0-0.048-0.006-0.069-0.021c-0.06-0.038-0.076-0.117-0.037-0.177
		C6.013,7.522,6.12,7.325,6.12,7.188c0-0.14-0.114-0.377-0.153-0.448c-0.035-0.062-0.014-0.14,0.049-0.174
		c0.062-0.034,0.14-0.013,0.174,0.05c0.019,0.034,0.187,0.34,0.187,0.572c0,0.237-0.171,0.508-0.19,0.539
		C6.16,7.765,6.119,7.785,6.077,7.785z"/>
	<path fill="#3A3A39" d="M10.08,7.317c0,0.122-0.099,0.22-0.22,0.22s-0.22-0.098-0.22-0.22c0-0.121,0.099-0.22,0.22-0.22
		S10.08,7.196,10.08,7.317z"/>
	<path fill="#3A3A39" d="M10.08,8.343c0,0.122-0.099,0.22-0.22,0.22s-0.22-0.098-0.22-0.22s0.099-0.22,0.22-0.22
		S10.08,8.221,10.08,8.343z"/>
	<path fill="#DC3735" d="M9.886,8.445c-0.024,0-0.049-0.006-0.069-0.021C9.757,8.386,9.74,8.307,9.779,8.248
		C9.82,8.183,9.929,7.986,9.929,7.849c0-0.142-0.114-0.377-0.154-0.449C9.74,7.338,9.762,7.26,9.824,7.226
		C9.886,7.19,9.963,7.213,9.998,7.274c0.019,0.035,0.186,0.342,0.186,0.573c0,0.236-0.17,0.508-0.19,0.537
		C9.968,8.423,9.928,8.443,9.886,8.443V8.445z"/>
	<path fill="#3A3A39" d="M11.552,7.241c0,0.121-0.099,0.22-0.219,0.22c-0.123,0-0.222-0.099-0.222-0.22
		c0-0.122,0.099-0.22,0.222-0.22C11.453,7.021,11.552,7.119,11.552,7.241z"/>
	<path fill="#3A3A39" d="M11.552,8.267c0,0.121-0.099,0.22-0.219,0.22c-0.123,0-0.222-0.099-0.222-0.22
		c0-0.122,0.099-0.221,0.222-0.221C11.453,8.046,11.552,8.145,11.552,8.267z"/>
	<path fill="#DC3735" d="M11.357,8.369c-0.024,0-0.048-0.007-0.069-0.021c-0.06-0.039-0.076-0.117-0.037-0.177
		C11.292,8.106,11.4,7.909,11.4,7.772c0-0.141-0.114-0.377-0.153-0.449c-0.035-0.062-0.014-0.139,0.049-0.174
		c0.062-0.034,0.139-0.012,0.174,0.05c0.019,0.034,0.187,0.341,0.187,0.573c0,0.236-0.171,0.508-0.19,0.538
		C11.44,8.348,11.399,8.369,11.357,8.369L11.357,8.369z"/>
	<path fill="#3A3A39" d="M8.646,7.241c0,0.121-0.099,0.22-0.22,0.22c-0.122,0-0.22-0.099-0.22-0.22c0-0.122,0.098-0.22,0.22-0.22
		C8.547,7.021,8.646,7.119,8.646,7.241z"/>
	<path fill="#3A3A39" d="M8.646,8.267c0,0.121-0.099,0.22-0.22,0.22c-0.122,0-0.22-0.099-0.22-0.22c0-0.122,0.098-0.221,0.22-0.221
		C8.547,8.046,8.646,8.145,8.646,8.267z"/>
	<path fill="#DC3735" d="M8.451,8.369c-0.023,0-0.049-0.007-0.069-0.021C8.322,8.309,8.306,8.23,8.344,8.171
		c0.042-0.064,0.15-0.262,0.15-0.398c0-0.141-0.114-0.377-0.154-0.449C8.305,7.262,8.327,7.185,8.389,7.149
		c0.062-0.034,0.14-0.012,0.174,0.05c0.02,0.034,0.187,0.341,0.187,0.573c0,0.236-0.172,0.508-0.19,0.538
		C8.534,8.348,8.494,8.369,8.451,8.369L8.451,8.369z"/>
	<path fill="#8E7D5C" d="M9.798,11.938c-1.663,0-3.465,0.596-4.406,0.959c0.047,0.073,0.095,0.146,0.146,0.217
		c0.938-0.356,2.669-0.922,4.262-0.922c1.699,0,3.674,0.643,4.617,0.991c0.053-0.071,0.102-0.143,0.148-0.217
		C13.628,12.617,11.572,11.938,9.798,11.938z"/>
	<path fill="#3A3A39" d="M7.514,12.967c0,0.122-0.099,0.221-0.221,0.221c-0.121,0-0.22-0.099-0.22-0.221
		c0-0.121,0.099-0.22,0.22-0.22C7.415,12.747,7.514,12.846,7.514,12.967z"/>
	<path fill="#3A3A39" d="M7.514,11.941c0,0.12-0.099,0.219-0.221,0.219c-0.121,0-0.22-0.099-0.22-0.219
		c0-0.123,0.099-0.221,0.22-0.221C7.415,11.721,7.514,11.818,7.514,11.941z"/>
	<path fill="#DC3735" d="M7.27,11.838c0.023,0,0.048,0.006,0.069,0.021c0.06,0.039,0.076,0.116,0.037,0.176
		c-0.042,0.065-0.149,0.262-0.149,0.4c0,0.141,0.114,0.377,0.153,0.447c0.035,0.062,0.013,0.14-0.049,0.175
		c-0.062,0.034-0.14,0.013-0.174-0.05c-0.019-0.034-0.187-0.341-0.187-0.572c0-0.236,0.171-0.509,0.19-0.539
		C7.186,11.859,7.227,11.838,7.27,11.838L7.27,11.838z"/>
	<path fill="#3A3A39" d="M12.886,12.986c0,0.121-0.099,0.219-0.221,0.219c-0.121,0-0.22-0.098-0.22-0.219
		c0-0.122,0.099-0.221,0.22-0.221C12.787,12.766,12.886,12.864,12.886,12.986z"/>
	<path fill="#3A3A39" d="M12.886,11.961c0,0.121-0.099,0.22-0.221,0.22c-0.121,0-0.22-0.099-0.22-0.22c0-0.122,0.099-0.22,0.22-0.22
		C12.787,11.741,12.886,11.839,12.886,11.961z"/>
	<path fill="#DC3735" d="M12.642,11.857c0.023,0,0.047,0.006,0.068,0.021c0.061,0.039,0.077,0.117,0.038,0.177
		c-0.042,0.065-0.149,0.262-0.149,0.399c0,0.141,0.114,0.377,0.153,0.447c0.035,0.062,0.013,0.14-0.049,0.174
		c-0.062,0.035-0.139,0.014-0.174-0.049c-0.019-0.034-0.187-0.34-0.187-0.572c0-0.236,0.17-0.508,0.19-0.538
		C12.558,11.879,12.599,11.857,12.642,11.857z"/>
	<path fill="#3A3A39" d="M6.307,13.328c0,0.122-0.099,0.221-0.22,0.221c-0.122,0-0.22-0.099-0.22-0.221
		c0-0.121,0.098-0.22,0.22-0.22C6.208,13.108,6.307,13.207,6.307,13.328z"/>
	<path fill="#3A3A39" d="M6.307,12.304c0,0.12-0.099,0.22-0.22,0.22c-0.122,0-0.22-0.1-0.22-0.22c0-0.122,0.098-0.221,0.22-0.221
		C6.208,12.083,6.307,12.182,6.307,12.304z"/>
	<path fill="#DC3735" d="M6.062,12.201c0.024,0,0.049,0.006,0.069,0.021c0.06,0.039,0.075,0.116,0.037,0.177
		c-0.042,0.064-0.149,0.262-0.149,0.398c0,0.141,0.114,0.378,0.154,0.449c0.034,0.062,0.013,0.14-0.05,0.174
		c-0.062,0.034-0.139,0.013-0.174-0.05c-0.019-0.034-0.186-0.341-0.186-0.573c0-0.235,0.172-0.508,0.189-0.537
		C5.979,12.222,6.021,12.201,6.062,12.201L6.062,12.201z"/>
	<path fill="#3A3A39" d="M14.154,13.353c0,0.121-0.098,0.22-0.22,0.22c-0.12,0-0.22-0.099-0.22-0.22s0.1-0.22,0.22-0.22
		C14.057,13.133,14.154,13.231,14.154,13.353z"/>
	<path fill="#3A3A39" d="M13.715,12.328c0-0.055,0.02-0.104,0.052-0.143c0.04-0.048,0.101-0.078,0.168-0.078
		c0.122,0,0.22,0.098,0.22,0.221c0,0.12-0.098,0.219-0.22,0.219C13.814,12.547,13.715,12.448,13.715,12.328z"/>
	<path fill="#DC3735" d="M13.91,12.224c0.023,0,0.047,0.006,0.068,0.021c0.061,0.039,0.076,0.117,0.038,0.178
		c-0.042,0.064-0.149,0.262-0.149,0.399c0,0.14,0.113,0.376,0.153,0.447c0.035,0.062,0.013,0.14-0.049,0.174
		c-0.062,0.035-0.14,0.013-0.174-0.049c-0.019-0.035-0.187-0.341-0.187-0.572c0-0.237,0.172-0.509,0.19-0.538
		c0.024-0.039,0.065-0.06,0.106-0.06H13.91z"/>
	<path fill="#3A3A39" d="M10.173,12.633c0,0.12-0.099,0.219-0.22,0.219c-0.122,0-0.221-0.099-0.221-0.219
		c0-0.123,0.099-0.221,0.221-0.221C10.074,12.412,10.173,12.51,10.173,12.633z"/>
	<path fill="#3A3A39" d="M10.173,11.606c0,0.122-0.099,0.221-0.22,0.221c-0.122,0-0.221-0.099-0.221-0.221
		c0-0.121,0.099-0.22,0.221-0.22C10.074,11.387,10.173,11.485,10.173,11.606z"/>
	<path fill="#DC3735" d="M9.929,11.504c0.023,0,0.048,0.006,0.069,0.021c0.06,0.038,0.075,0.117,0.037,0.177
		c-0.042,0.065-0.149,0.262-0.149,0.398c0,0.142,0.114,0.378,0.154,0.45c0.034,0.062,0.012,0.14-0.05,0.174s-0.14,0.013-0.174-0.049
		c-0.019-0.035-0.187-0.342-0.187-0.574c0-0.236,0.172-0.508,0.19-0.537c0.024-0.037,0.066-0.059,0.107-0.059L9.929,11.504z"/>
	<path fill="#3A3A39" d="M8.835,12.652c0,0.121-0.099,0.22-0.22,0.22s-0.221-0.099-0.221-0.22c0-0.122,0.1-0.22,0.221-0.22
		S8.835,12.53,8.835,12.652z"/>
	<path fill="#3A3A39" d="M8.835,11.626c0,0.122-0.099,0.222-0.22,0.222s-0.221-0.1-0.221-0.222c0-0.12,0.1-0.22,0.221-0.22
		S8.835,11.506,8.835,11.626z"/>
	<path fill="#DC3735" d="M8.591,11.522c0.024,0,0.049,0.007,0.069,0.021c0.06,0.038,0.076,0.117,0.037,0.177
		c-0.041,0.065-0.149,0.262-0.149,0.398c0,0.142,0.114,0.378,0.154,0.449c0.034,0.062,0.013,0.139-0.05,0.174
		c-0.062,0.033-0.139,0.013-0.174-0.05c-0.019-0.034-0.186-0.341-0.186-0.573c0-0.236,0.172-0.507,0.19-0.538
		C8.508,11.544,8.55,11.522,8.591,11.522L8.591,11.522z"/>
	<path fill="#3A3A39" d="M11.543,12.665c0,0.122-0.099,0.221-0.221,0.221c-0.12,0-0.22-0.099-0.22-0.221c0-0.12,0.1-0.22,0.22-0.22
		C11.444,12.445,11.543,12.545,11.543,12.665z"/>
	<path fill="#3A3A39" d="M11.543,11.641c0,0.121-0.099,0.219-0.221,0.219c-0.12,0-0.22-0.098-0.22-0.219
		c0-0.122,0.1-0.221,0.22-0.221C11.444,11.42,11.543,11.519,11.543,11.641z"/>
	<path fill="#DC3735" d="M11.299,11.537c0.023,0,0.048,0.007,0.068,0.021c0.06,0.039,0.076,0.117,0.038,0.177
		c-0.042,0.064-0.149,0.262-0.149,0.399c0,0.14,0.113,0.377,0.154,0.448c0.034,0.062,0.013,0.14-0.05,0.174
		c-0.062,0.034-0.139,0.013-0.174-0.05C11.168,12.673,11,12.366,11,12.135c0-0.236,0.172-0.509,0.19-0.539
		C11.215,11.559,11.256,11.537,11.299,11.537L11.299,11.537z"/>
</g>
</svg>
