<?xml version="1.0" encoding="utf-8"?>
<!-- Generator: Adobe Illustrator 16.0.0, SVG Export Plug-In . SVG Version: 6.00 Build 0)  -->
<!DOCTYPE svg PUBLIC "-//W3C//DTD SVG 1.1//EN" "http://www.w3.org/Graphics/SVG/1.1/DTD/svg11.dtd">
<svg version="1.1" id="Layer_1" xmlns="http://www.w3.org/2000/svg" xmlns:xlink="http://www.w3.org/1999/xlink" x="0px" y="0px"
	 width="20px" height="20px" viewBox="0 0 20 20" enable-background="new 0 0 20 20" xml:space="preserve">
<g>
	<path fill="#357180" d="M19.69,10c0,5.352-4.338,9.69-9.69,9.69c-5.352,0-9.69-4.339-9.69-9.69c0-5.351,4.339-9.69,9.69-9.69
		C15.353,0.31,19.69,4.648,19.69,10z"/>
	<path fill="#DAD2B1" d="M15.011,5.719c-1.209-1.413-3.004-2.31-5.01-2.31C6.36,3.409,3.41,6.36,3.41,10
		c0,2.064,0.948,3.905,2.433,5.113c1.134,0.923,2.582,1.479,4.159,1.479c3.641,0,6.592-2.95,6.592-6.591
		C16.594,8.366,15.997,6.871,15.011,5.719L15.011,5.719z"/>
	<path fill="#EAE1BC" d="M13.041,13.089c2.069-2.07,2.747-4.959,1.971-7.371c-1.209-1.413-3.004-2.31-5.01-2.31
		c-3.641,0-6.591,2.951-6.591,6.591c0,2.062,0.949,3.904,2.433,5.113C8.22,15.803,11.021,15.107,13.041,13.089L13.041,13.089z"/>
	<path fill="#D0C69E" d="M14.833,14.481c-0.908,0.803-1.824,1.349-2.061,1.483c-0.339-0.503-0.717-1.221-1.062-1.943
		c3.146-1.963,4.128-4.829,4.437-6.408c-0.052-0.132-0.106-0.261-0.166-0.389c-0.217,1.42-1.063,4.511-4.369,6.586
		c-0.532-1.129-0.975-2.219-1.07-2.457c1.027-0.877,3.246-5.372,3.731-6.374c-0.062-0.051-0.124-0.101-0.187-0.149
		c-0.098,0.204-0.303,0.62-0.568,1.147c-1.596-1.778-4.414-2.118-5.76-2.176c-0.182,0.065-0.359,0.14-0.534,0.222
		c0.886,0.001,4.424,0.14,6.182,2.177c-0.389,0.765-0.884,1.712-1.379,2.585c-1.892-1.712-7.077-1.688-7.95-1.671
		C4.038,7.191,4.003,7.271,3.969,7.349c0.109-0.004,6.033-0.157,7.938,1.641c-0.606,1.056-1.199,1.963-1.572,2.233
		C4.547,10.943,3.52,9.78,3.511,9.769L3.419,9.673c-0.017,0.175-0.008,0.271-0.008,0.32c0.128,0.11,0.425,0.318,1.046,0.547
		c-0.217,1.125-0.06,2.489,0.023,3.056c0.053,0.082,0.107,0.164,0.164,0.243l0.105-0.02c-0.003-0.02-0.327-1.82-0.073-3.202
		c0.58,0.192,1.393,0.394,2.529,0.556c0.234,3.096,1.429,4.726,2.05,5.375c0.121,0.015,0.244,0.024,0.367,0.032
		c-0.465-0.428-1.914-2.019-2.181-5.375c0.801,0.106,1.755,0.194,2.888,0.249c0.188,0.47,1.318,3.254,2.237,4.619
		C13.432,15.708,14.203,15.161,14.833,14.481z"/>
</g>
</svg>
