<?xml version="1.0" encoding="utf-8"?>
<!-- Generator: Adobe Illustrator 16.0.0, SVG Export Plug-In . SVG Version: 6.00 Build 0)  -->
<!DOCTYPE svg PUBLIC "-//W3C//DTD SVG 1.1//EN" "http://www.w3.org/Graphics/SVG/1.1/DTD/svg11.dtd">
<svg version="1.1" id="Layer_1" xmlns="http://www.w3.org/2000/svg" xmlns:xlink="http://www.w3.org/1999/xlink" x="0px" y="0px"
	 width="20px" height="20px" viewBox="0 0 20 20" enable-background="new 0 0 20 20" xml:space="preserve">
<g>
	<path fill="#A2D4DE" d="M19.689,10c0,5.352-4.338,9.689-9.689,9.689S0.311,15.352,0.311,10c0-5.351,4.338-9.689,9.689-9.689
		S19.689,4.649,19.689,10z"/>
	<path fill="#65A844" d="M0.311,10h19.376c0,5.352-4.338,9.689-9.688,9.689C4.648,19.689,0.31,15.352,0.311,10L0.311,10z"/>
	<path fill="#51554C" d="M13.932,10.797l3.74-6.713c-0.219-0.284-0.455-0.555-0.703-0.813l-3.91,7.021L13.932,10.797L13.932,10.797z
		"/>
	<path fill="#51554C" d="M13.119,13.201c0,1.182-2.164,2.492-4.835,2.492c-1.666,0-4.835-0.868-4.835-2.899
		c0-0.691,2.165-1.381,4.835-1.381C10.955,11.413,13.119,12.019,13.119,13.201L13.119,13.201z"/>
	<path fill="#51554C" d="M13.078,13.446l1.002-2.737l-1.055-0.515l-1.273,1.733L13.078,13.446z"/>
	<path fill="#737373" d="M12.818,13.251c0,1.069-2.016,2.256-4.5,2.256c-1.551,0-4.5-0.784-4.5-2.624c0-0.623,2.015-1.249,4.5-1.249
		C10.803,11.634,12.818,12.183,12.818,13.251L12.818,13.251z"/>
	<path fill="#909090" d="M11.469,13.294c0,0.095-0.078,0.171-0.172,0.171H5.253c-0.094,0-0.171-0.076-0.171-0.171l0,0
		c0-0.095,0.077-0.172,0.171-0.172h6.043C11.391,13.122,11.469,13.199,11.469,13.294L11.469,13.294z"/>
	<path fill="#909090" d="M10.934,13.981H5.636c-0.095,0-0.172,0.077-0.172,0.172c0,0.094,0.077,0.172,0.172,0.172h5.298
		c0.094,0,0.17-0.078,0.17-0.172C11.104,14.059,11.027,13.981,10.934,13.981z"/>
	<path fill="#909090" d="M10.531,12.262H5.923c-0.095,0-0.172,0.076-0.172,0.17c0,0.096,0.077,0.172,0.172,0.172h4.608
		c0.096,0,0.172-0.076,0.172-0.172C10.703,12.338,10.627,12.262,10.531,12.262z"/>
	<path fill="#737373" d="M12.779,13.414l0.934-2.547l-0.648-0.36l-1.297,1.718L12.779,13.414z"/>
</g>
</svg>
