<?xml version="1.0" encoding="utf-8"?>
<!-- Generator: Adobe Illustrator 16.0.0, SVG Export Plug-In . SVG Version: 6.00 Build 0)  -->
<!DOCTYPE svg PUBLIC "-//W3C//DTD SVG 1.1//EN" "http://www.w3.org/Graphics/SVG/1.1/DTD/svg11.dtd">
<svg version="1.1" id="Layer_1" xmlns="http://www.w3.org/2000/svg" xmlns:xlink="http://www.w3.org/1999/xlink" x="0px" y="0px"
	 width="20px" height="20px" viewBox="0 0 20 20" enable-background="new 0 0 20 20" xml:space="preserve">
<g>
	<path fill="#A2D4DE" d="M19.69,10c0,5.352-4.339,9.69-9.69,9.69S0.31,15.352,0.31,10c0-5.351,4.339-9.69,9.69-9.69
		S19.69,4.648,19.69,10z"/>
	<path fill="#A2D4DE" d="M0.31,10h19.38c0,5.352-4.338,9.689-9.69,9.689S0.31,15.352,0.31,10z"/>
	<path fill="#EFEFEF" d="M11.082,8.609c0.061-0.057,0.123-0.114,0.185-0.173c0.03,0.027,0.059,0.053,0.089,0.078
		c-0.001-0.028-0.002-0.058-0.003-0.086c-0.015-0.011-0.027-0.023-0.04-0.035c0.011-0.01,0.023-0.021,0.033-0.031
		c-0.002-0.025-0.003-0.054-0.006-0.079c-0.025,0.022-0.051,0.046-0.075,0.07c-0.062-0.055-0.125-0.11-0.19-0.168
		c0.062-0.058,0.124-0.113,0.186-0.172c0.017,0.016,0.033,0.029,0.05,0.043c-0.005-0.024-0.009-0.05-0.015-0.076
		c0-0.008-0.002-0.016-0.004-0.024c-0.002-0.017-0.004-0.032-0.009-0.049c-0.008,0.007-0.016,0.015-0.023,0.021
		c-0.069-0.062-0.14-0.124-0.213-0.189c0.053-0.048,0.105-0.096,0.159-0.145c-0.007-0.021-0.015-0.045-0.021-0.066
		c-0.062,0.056-0.123,0.111-0.186,0.168c-0.062-0.055-0.125-0.112-0.187-0.169c0.069-0.064,0.139-0.128,0.21-0.192
		c0.048,0.044,0.095,0.087,0.142,0.129c-0.013-0.041-0.025-0.081-0.04-0.121c-0.018-0.018-0.036-0.032-0.054-0.05
		c0.008-0.008,0.018-0.017,0.026-0.024c-0.009-0.021-0.016-0.042-0.024-0.064c-0.017,0.015-0.033,0.03-0.05,0.046
		c-0.062-0.056-0.124-0.112-0.187-0.17c0.044-0.04,0.089-0.08,0.133-0.119c-0.01-0.021-0.018-0.04-0.027-0.061
		C10.89,6.945,10.84,6.99,10.79,7.037c-0.07-0.064-0.139-0.128-0.209-0.194c0.062-0.056,0.125-0.113,0.188-0.168
		c0.038,0.035,0.075,0.07,0.113,0.105c-0.023-0.047-0.048-0.094-0.073-0.141c-0.006-0.009-0.01-0.02-0.016-0.029
		c-0.005-0.01-0.01-0.019-0.016-0.027c-0.002,0.003-0.005,0.005-0.007,0.007c-0.062-0.057-0.123-0.115-0.185-0.173
		c0.02-0.018,0.041-0.036,0.061-0.055c-0.012-0.018-0.023-0.035-0.035-0.054c-0.023,0.021-0.048,0.043-0.072,0.064
		c-0.061-0.058-0.121-0.115-0.184-0.174c0.038-0.034,0.075-0.067,0.112-0.1c-0.013-0.018-0.024-0.034-0.036-0.052
		c-0.041,0.036-0.082,0.071-0.122,0.107c-0.068-0.065-0.135-0.131-0.204-0.197c0.051-0.045,0.102-0.09,0.152-0.134
		c-0.014-0.016-0.027-0.033-0.041-0.049c-0.053,0.047-0.105,0.093-0.157,0.14c-0.06-0.059-0.119-0.117-0.181-0.176
		c0.058-0.052,0.116-0.102,0.173-0.152c-0.014-0.016-0.028-0.031-0.042-0.047C9.953,5.592,9.895,5.644,9.836,5.695
		c-0.06-0.059-0.119-0.118-0.179-0.178c0.059-0.053,0.118-0.105,0.178-0.158C9.82,5.346,9.805,5.331,9.79,5.315
		C9.73,5.368,9.672,5.421,9.612,5.472c-0.066-0.065-0.133-0.133-0.2-0.201C9.468,5.222,9.523,5.173,9.58,5.122
		c-0.016-0.014-0.033-0.027-0.048-0.04C9.478,5.13,9.422,5.178,9.367,5.226c-0.059-0.06-0.117-0.119-0.176-0.18
		C9.238,5.004,9.285,4.962,9.332,4.92C9.316,4.908,9.298,4.894,9.281,4.881c-0.045,0.04-0.09,0.08-0.135,0.12
		C9.088,4.941,9.03,4.88,8.972,4.819C9.005,4.79,9.038,4.76,9.072,4.73C9.054,4.718,9.036,4.706,9.018,4.695
		c-0.03,0.025-0.06,0.053-0.09,0.079c-0.065-0.068-0.13-0.136-0.195-0.205c0.012-0.011,0.023-0.021,0.036-0.031
		c-0.02-0.012-0.039-0.022-0.057-0.034C8.704,4.511,8.696,4.517,8.69,4.523c-0.02-0.021-0.04-0.042-0.06-0.064
		C8.58,4.431,8.527,4.404,8.476,4.377C8.472,4.375,8.468,4.373,8.464,4.371C8.447,4.364,8.431,4.355,8.415,4.348
		C8.356,4.399,8.299,4.451,8.241,4.503C8.185,4.441,8.128,4.38,8.07,4.318c0.031-0.029,0.062-0.056,0.094-0.084
		c-0.022-0.01-0.043-0.018-0.065-0.026C8.076,4.229,8.052,4.25,8.029,4.271c-0.041-0.045-0.082-0.09-0.123-0.136
		C7.869,4.122,7.833,4.109,7.797,4.1C7.793,4.099,7.79,4.098,7.785,4.096C7.766,4.09,7.747,4.083,7.728,4.077
		C7.665,4.134,7.603,4.19,7.54,4.246C7.485,4.184,7.43,4.121,7.374,4.059c0.021-0.02,0.042-0.039,0.063-0.058
		C7.411,3.995,7.387,3.989,7.362,3.983c-0.009,0.01-0.02,0.019-0.029,0.028C7.321,3.998,7.311,3.984,7.3,3.973
		C7.267,3.966,7.233,3.96,7.201,3.954c0.028,0.033,0.058,0.066,0.086,0.101C7.226,4.11,7.163,4.168,7.103,4.225
		c-0.055-0.063-0.109-0.126-0.165-0.19C6.973,4.001,7.01,3.968,7.047,3.933C7.019,3.93,6.99,3.927,6.964,3.923
		C6.941,3.943,6.919,3.965,6.896,3.985C6.876,3.962,6.854,3.937,6.834,3.912C6.806,3.91,6.777,3.91,6.748,3.909
		c0.034,0.04,0.067,0.08,0.103,0.119C6.79,4.087,6.728,4.145,6.667,4.2C6.605,4.128,6.544,4.058,6.482,3.983
		C6.51,3.959,6.537,3.933,6.564,3.907C6.533,3.908,6.501,3.909,6.469,3.91C6.46,3.919,6.451,3.928,6.442,3.937
		C6.436,3.93,6.429,3.922,6.423,3.914C6.396,3.916,6.371,3.917,6.346,3.919C6.362,3.938,6.38,3.96,6.396,3.979
		C6.328,4.045,6.26,4.11,6.193,4.176C6.138,4.11,6.085,4.046,6.03,3.98c0.007-0.006,0.014-0.013,0.021-0.02
		c-0.01,0.002-0.021,0.003-0.032,0.007C5.995,3.972,5.974,3.978,5.95,3.982C5.944,3.983,5.939,3.984,5.934,3.986
		C5.876,4.041,5.819,4.096,5.765,4.15C5.739,4.12,5.714,4.089,5.688,4.059C5.668,4.065,5.646,4.072,5.626,4.081
		c0.03,0.038,0.062,0.075,0.094,0.113C5.658,4.253,5.599,4.312,5.54,4.37C5.489,4.309,5.439,4.246,5.39,4.186
		C5.375,4.192,5.361,4.199,5.348,4.207C5.343,4.209,5.337,4.212,5.332,4.214c-0.074,0.04-0.146,0.085-0.215,0.134
		C5.109,4.354,5.103,4.362,5.095,4.369C5.094,4.368,5.093,4.366,5.092,4.365C5.075,4.377,5.058,4.39,5.041,4.401
		c0.003,0.005,0.007,0.009,0.01,0.013c-0.06,0.06-0.118,0.12-0.177,0.179C4.867,4.584,4.858,4.574,4.851,4.565
		C4.836,4.579,4.822,4.591,4.808,4.606C4.807,4.607,4.806,4.608,4.805,4.609c0.009,0.01,0.018,0.02,0.025,0.03
		C4.771,4.7,4.712,4.76,4.654,4.819C4.649,4.812,4.643,4.806,4.638,4.799c-0.014,0.017-0.027,0.033-0.04,0.05
		C4.602,4.854,4.606,4.859,4.61,4.865C4.582,4.894,4.554,4.923,4.525,4.952C4.494,5,4.463,5.047,4.437,5.097
		C4.425,5.117,4.415,5.138,4.405,5.158C4.4,5.166,4.396,5.174,4.393,5.182c0.005-0.006,0.012-0.011,0.017-0.018
		c0.053,0.065,0.106,0.132,0.16,0.197C4.511,5.423,4.452,5.483,4.396,5.545C4.36,5.502,4.324,5.457,4.288,5.413
		C4.28,5.437,4.272,5.46,4.264,5.482c0.029,0.036,0.059,0.072,0.088,0.108C4.294,5.651,4.237,5.712,4.181,5.772
		c0,0.001-0.001,0.003-0.001,0.004c-0.005,0.026-0.012,0.053-0.017,0.08C4.16,5.868,4.158,5.88,4.156,5.892
		c0.007-0.007,0.013-0.014,0.02-0.02c0.054,0.065,0.107,0.13,0.162,0.195c-0.065,0.069-0.13,0.14-0.192,0.209
		c-0.01-0.012-0.02-0.023-0.03-0.034c-0.001,0.022-0.003,0.047-0.004,0.07c0,0.007,0,0.015,0,0.021
		C4.11,6.358,4.11,6.382,4.11,6.406c0.011-0.012,0.022-0.023,0.033-0.035c0.06,0.073,0.122,0.145,0.185,0.218
		C4.271,6.651,4.214,6.714,4.157,6.776C4.146,6.764,4.136,6.75,4.124,6.737C4.126,6.761,4.127,6.783,4.13,6.806
		c0.001,0.014,0.004,0.027,0.005,0.041c0.001,0.013,0.003,0.027,0.005,0.04C4.146,6.882,4.15,6.876,4.155,6.87
		c0.056,0.064,0.111,0.128,0.167,0.191C4.279,7.11,4.236,7.156,4.194,7.203c0.005,0.025,0.012,0.051,0.017,0.075
		c0.051-0.055,0.101-0.11,0.152-0.168C4.418,7.173,4.476,7.236,4.53,7.3C4.473,7.363,4.416,7.427,4.362,7.488
		C4.316,7.436,4.27,7.385,4.224,7.332c0.012,0.045,0.022,0.091,0.037,0.137C4.28,7.49,4.3,7.513,4.319,7.534
		C4.31,7.546,4.3,7.557,4.289,7.566c0.008,0.023,0.016,0.048,0.022,0.07c0.017-0.019,0.032-0.036,0.05-0.056
		c0.063,0.071,0.127,0.142,0.19,0.212C4.508,7.842,4.465,7.891,4.423,7.938C4.431,7.959,4.439,7.98,4.449,8.002
		c0.047-0.053,0.095-0.107,0.144-0.163c0.059,0.063,0.114,0.125,0.172,0.187C4.7,8.098,4.638,8.169,4.575,8.238
		C4.562,8.224,4.549,8.21,4.536,8.195c0.009,0.019,0.019,0.037,0.028,0.057s0.02,0.041,0.03,0.061C4.61,8.342,4.625,8.372,4.641,8.4
		c0.036,0.039,0.073,0.077,0.108,0.116C4.74,8.527,4.731,8.538,4.722,8.549c0.011,0.018,0.023,0.037,0.035,0.056
		c0.012-0.014,0.024-0.027,0.036-0.042C4.859,8.632,4.924,8.7,4.989,8.769C4.964,8.797,4.938,8.824,4.915,8.853
		C4.928,8.87,4.938,8.889,4.952,8.906c0.026-0.03,0.053-0.062,0.081-0.092C5.092,8.875,5.15,8.936,5.209,8.995
		c-0.035,0.041-0.07,0.08-0.104,0.119c0.013,0.018,0.026,0.035,0.038,0.052c0.036-0.041,0.073-0.083,0.109-0.125
		c0.06,0.062,0.118,0.121,0.177,0.181C5.388,9.27,5.346,9.317,5.305,9.364C5.318,9.38,5.333,9.396,5.347,9.411
		c0.041-0.047,0.084-0.095,0.127-0.145C5.54,9.334,5.607,9.402,5.673,9.468C5.628,9.519,5.583,9.57,5.54,9.62
		c0.015,0.014,0.029,0.03,0.044,0.045c0.044-0.051,0.088-0.102,0.135-0.153c0.059,0.06,0.119,0.118,0.179,0.177
		c-0.045,0.051-0.089,0.101-0.131,0.15c0.016,0.014,0.031,0.028,0.047,0.042c0.042-0.049,0.086-0.098,0.13-0.148
		c0.061,0.06,0.121,0.118,0.18,0.177C6.083,9.955,6.044,10,6.005,10.045c0.017,0.014,0.032,0.027,0.049,0.04
		c0.037-0.043,0.076-0.088,0.115-0.132c0.069,0.065,0.137,0.132,0.205,0.196c-0.032,0.035-0.063,0.072-0.093,0.107
		c0.016,0.012,0.034,0.023,0.051,0.036c0.029-0.033,0.059-0.067,0.088-0.101c0.061,0.059,0.123,0.116,0.182,0.174
		c-0.02,0.023-0.039,0.046-0.059,0.068c0.018,0.011,0.035,0.021,0.054,0.033c0.018-0.02,0.035-0.038,0.052-0.059
		c0.062,0.059,0.122,0.115,0.184,0.172c-0.005,0.006-0.01,0.01-0.015,0.017c0.02,0.01,0.038,0.021,0.058,0.03
		c0.001,0,0.002-0.002,0.003-0.002c0.005,0.004,0.009,0.008,0.015,0.013c0.067,0.036,0.134,0.069,0.201,0.101
		c-0.058-0.054-0.115-0.107-0.174-0.161c0.061-0.069,0.123-0.141,0.188-0.213c0.069,0.065,0.139,0.13,0.207,0.193
		c-0.061,0.067-0.121,0.135-0.178,0.2c0.02,0.011,0.04,0.02,0.06,0.027c0.053-0.06,0.109-0.122,0.164-0.185
		c0.063,0.057,0.125,0.114,0.186,0.17c-0.035,0.038-0.07,0.077-0.104,0.116c0.021,0.008,0.042,0.017,0.063,0.023
		c0.028-0.032,0.058-0.064,0.087-0.099c0.063,0.058,0.126,0.114,0.187,0.169c-0.004,0.005-0.009,0.011-0.014,0.016
		c0.015,0.004,0.029,0.009,0.044,0.012c0.009,0.002,0.016,0.004,0.024,0.006c0.036,0.01,0.073,0.021,0.111,0.029
		c-0.025-0.021-0.051-0.045-0.077-0.068c0.056-0.062,0.111-0.123,0.169-0.187c0.072,0.063,0.143,0.127,0.212,0.188
		c-0.034,0.036-0.067,0.074-0.101,0.11c0.023,0.006,0.048,0.009,0.072,0.013c0.025-0.026,0.05-0.055,0.075-0.082
		c0.043,0.037,0.085,0.075,0.127,0.111c0.034,0.005,0.067,0.008,0.102,0.011c0.003,0,0.004,0,0.006,0.001
		c0.025,0.002,0.05,0.004,0.073,0.006c0.046-0.05,0.092-0.102,0.141-0.153c0.062,0.055,0.123,0.107,0.184,0.159
		c0.004,0,0.008,0,0.011,0c0.027,0,0.054-0.002,0.08-0.004c0.003,0,0.006,0,0.011,0c0.062-0.067,0.123-0.135,0.187-0.202
		c0.062,0.054,0.124,0.106,0.183,0.157c0.024-0.005,0.049-0.01,0.072-0.016c0.002,0,0.004-0.001,0.007-0.002
		c0.034-0.007,0.068-0.015,0.104-0.023c0.037-0.041,0.075-0.082,0.113-0.12c0.024,0.021,0.05,0.043,0.075,0.063
		c0.022-0.009,0.045-0.017,0.068-0.025c-0.033-0.027-0.066-0.056-0.1-0.086c0.057-0.06,0.114-0.12,0.174-0.182
		c0.062,0.054,0.123,0.105,0.181,0.154c0.014-0.006,0.026-0.013,0.04-0.021c0.006-0.002,0.014-0.007,0.021-0.01
		c0.066-0.035,0.129-0.076,0.192-0.119c0.016-0.017,0.031-0.032,0.047-0.049c0.003,0.004,0.007,0.006,0.01,0.008
		c0.018-0.012,0.035-0.025,0.052-0.038c-0.005-0.005-0.012-0.009-0.018-0.015c0.059-0.06,0.116-0.12,0.176-0.181
		c0.012,0.01,0.021,0.02,0.033,0.029c0.005-0.006,0.011-0.01,0.017-0.016c0.009-0.009,0.02-0.02,0.028-0.028
		c-0.012-0.01-0.021-0.02-0.034-0.028c0.06-0.059,0.118-0.119,0.178-0.179c0.007,0.005,0.013,0.012,0.019,0.017
		c0.014-0.017,0.026-0.033,0.039-0.051c-0.004-0.004-0.009-0.008-0.013-0.011c0.023-0.023,0.046-0.046,0.068-0.069
		c0.034-0.052,0.067-0.105,0.097-0.16c0.01-0.016,0.018-0.033,0.026-0.049c0.002-0.003,0.004-0.006,0.004-0.008
		c-0.061-0.052-0.124-0.105-0.19-0.162c0.06-0.059,0.119-0.118,0.18-0.178c0.041,0.035,0.08,0.069,0.119,0.102
		c0.008-0.021,0.016-0.042,0.022-0.063c-0.031-0.027-0.063-0.054-0.097-0.082c0.056-0.054,0.113-0.108,0.17-0.163
		c0-0.006,0.002-0.013,0.004-0.019c0.005-0.023,0.011-0.046,0.016-0.069c0.002-0.008,0.003-0.016,0.005-0.023
		c-0.005,0.005-0.01,0.009-0.016,0.015c-0.069-0.06-0.142-0.122-0.215-0.187c0.067-0.065,0.135-0.131,0.204-0.196
		c0.024,0.021,0.047,0.041,0.07,0.062c0.002-0.026,0.003-0.053,0.006-0.079c-0.01-0.009-0.021-0.018-0.031-0.026
		c0.013-0.01,0.023-0.021,0.034-0.031C11.356,8.76,11.357,8.73,11.358,8.7c-0.028,0.026-0.057,0.053-0.084,0.079
		c-0.062-0.054-0.125-0.109-0.19-0.166L11.082,8.609z M11.218,8.395c-0.062,0.059-0.123,0.116-0.185,0.173
		c-0.062-0.054-0.124-0.109-0.188-0.167c0.061-0.058,0.122-0.115,0.185-0.173C11.094,8.285,11.156,8.341,11.218,8.395z M6.116,7.022
		C6.059,6.962,6.001,6.899,5.944,6.838C6.01,6.77,6.074,6.702,6.141,6.633c0.058,0.062,0.114,0.123,0.173,0.184
		C6.247,6.886,6.181,6.954,6.116,7.022z M6.355,6.863c0.064,0.068,0.13,0.138,0.195,0.206C6.485,7.139,6.419,7.206,6.355,7.274
		C6.29,7.206,6.226,7.138,6.159,7.068C6.224,7,6.289,6.932,6.355,6.863z M9.112,7.794C9.175,7.853,9.235,7.91,9.296,7.967
		c-0.06,0.06-0.12,0.118-0.179,0.177C9.057,8.087,8.995,8.029,8.934,7.97C8.993,7.911,9.053,7.852,9.112,7.794L9.112,7.794z
		 M8.888,7.929C8.826,7.871,8.766,7.814,8.705,7.754c0.06-0.059,0.118-0.118,0.18-0.177c0.061,0.059,0.121,0.117,0.182,0.174
		C9.006,7.811,8.946,7.869,8.888,7.929L8.888,7.929z M7.496,7.496c-0.065-0.066-0.133-0.134-0.199-0.2
		c0.059-0.061,0.117-0.119,0.177-0.181c0.066,0.068,0.133,0.135,0.2,0.201C7.614,7.377,7.556,7.438,7.496,7.496z M7.718,7.361
		c0.06,0.06,0.119,0.12,0.179,0.178C7.837,7.601,7.778,7.66,7.72,7.72C7.66,7.661,7.602,7.602,7.54,7.541
		C7.6,7.482,7.658,7.422,7.718,7.361z M7.941,7.583c0.061,0.061,0.121,0.119,0.181,0.178c-0.06,0.061-0.119,0.12-0.177,0.18
		C7.885,7.882,7.824,7.823,7.765,7.765C7.823,7.705,7.882,7.645,7.941,7.583L7.941,7.583z M7.986,7.538
		c0.065-0.066,0.133-0.134,0.199-0.2c0.062,0.06,0.12,0.117,0.181,0.177c-0.067,0.066-0.135,0.134-0.2,0.201
		C8.106,7.657,8.046,7.599,7.986,7.538L7.986,7.538z M8.411,7.558c0.067,0.066,0.136,0.132,0.204,0.196
		c-0.066,0.067-0.135,0.135-0.2,0.201C8.347,7.891,8.28,7.824,8.211,7.758C8.276,7.691,8.344,7.624,8.411,7.558z M8.66,7.799
		c0.062,0.06,0.122,0.117,0.183,0.175c-0.067,0.067-0.135,0.135-0.2,0.201C8.582,8.118,8.521,8.06,8.46,8.001
		C8.526,7.935,8.594,7.867,8.66,7.799L8.66,7.799z M8.659,7.711C8.593,7.646,8.522,7.58,8.455,7.515
		c0.06-0.06,0.119-0.118,0.179-0.177C8.702,7.404,8.771,7.47,8.838,7.534C8.778,7.594,8.718,7.652,8.659,7.711z M8.411,7.47
		C8.351,7.41,8.292,7.353,8.23,7.293c0.061-0.06,0.118-0.117,0.18-0.178c0.061,0.061,0.12,0.118,0.18,0.177
		C8.53,7.353,8.47,7.41,8.411,7.47z M8.186,7.248C8.126,7.189,8.066,7.13,8.007,7.07c0.06-0.06,0.119-0.118,0.179-0.177
		c0.061,0.06,0.119,0.118,0.18,0.178C8.304,7.131,8.245,7.189,8.186,7.248L8.186,7.248z M8.141,7.293
		C8.074,7.36,8.007,7.428,7.94,7.494c-0.06-0.059-0.118-0.118-0.179-0.178c0.065-0.067,0.133-0.134,0.2-0.201
		C8.021,7.176,8.081,7.234,8.141,7.293z M7.718,7.271c-0.066-0.066-0.134-0.134-0.2-0.201c0.065-0.066,0.133-0.134,0.2-0.201
		c0.066,0.068,0.133,0.136,0.2,0.201C7.85,7.138,7.783,7.204,7.718,7.271L7.718,7.271z M7.474,7.025
		c-0.059-0.06-0.117-0.121-0.176-0.181c0.065-0.066,0.133-0.134,0.199-0.201c0.06,0.062,0.118,0.121,0.177,0.181
		C7.606,6.892,7.539,6.958,7.474,7.025z M7.43,7.07C7.37,7.13,7.312,7.19,7.253,7.25c-0.06-0.06-0.117-0.119-0.177-0.18
		c0.06-0.06,0.117-0.119,0.178-0.18C7.312,6.951,7.371,7.011,7.43,7.07L7.43,7.07z M7.209,7.296
		C7.148,7.356,7.092,7.417,7.032,7.477c-0.059-0.06-0.117-0.119-0.176-0.18c0.058-0.061,0.116-0.12,0.176-0.182
		C7.092,7.177,7.149,7.235,7.209,7.296z M7.032,7.024C6.974,6.964,6.915,6.903,6.857,6.842c0.06-0.06,0.117-0.119,0.177-0.18
		c0.06,0.061,0.118,0.121,0.176,0.182C7.149,6.904,7.092,6.965,7.032,7.024z M6.988,7.069C6.929,7.13,6.87,7.19,6.812,7.25
		C6.754,7.189,6.696,7.13,6.638,7.068c0.058-0.06,0.116-0.121,0.176-0.182C6.872,6.947,6.931,7.009,6.988,7.069z M6.594,7.023
		c-0.064-0.068-0.13-0.138-0.194-0.207c0.058-0.06,0.115-0.12,0.176-0.181C6.64,6.705,6.705,6.773,6.77,6.842
		C6.711,6.902,6.652,6.964,6.594,7.023z M6.594,7.114c0.059,0.062,0.117,0.121,0.175,0.183C6.703,7.365,6.637,7.434,6.573,7.502
		c-0.06-0.06-0.117-0.12-0.175-0.183C6.463,7.252,6.528,7.184,6.594,7.114z M6.812,7.342c0.059,0.061,0.117,0.12,0.176,0.181
		C6.923,7.591,6.856,7.66,6.793,7.729C6.734,7.668,6.676,7.607,6.617,7.548C6.681,7.479,6.747,7.411,6.812,7.342L6.812,7.342z
		 M7.033,7.566c0.067,0.067,0.134,0.136,0.2,0.201C7.168,7.837,7.103,7.905,7.038,7.973c-0.067-0.066-0.134-0.134-0.2-0.2
		C6.902,7.704,6.968,7.636,7.033,7.566z M7.077,7.521c0.059-0.061,0.116-0.12,0.177-0.181c0.066,0.067,0.133,0.135,0.199,0.2
		C7.396,7.603,7.335,7.662,7.277,7.723C7.212,7.656,7.145,7.59,7.077,7.521z M7.496,7.585c0.061,0.061,0.12,0.12,0.18,0.179
		C7.617,7.824,7.559,7.885,7.5,7.945c-0.06-0.06-0.12-0.119-0.18-0.179C7.378,7.707,7.438,7.646,7.496,7.585L7.496,7.585z
		 M7.721,7.808c0.061,0.06,0.12,0.118,0.181,0.176C7.841,8.044,7.782,8.105,7.725,8.165c-0.06-0.059-0.119-0.118-0.18-0.177
		C7.603,7.928,7.661,7.867,7.721,7.808L7.721,7.808z M7.946,8.029C8.014,8.095,8.082,8.161,8.15,8.226
		C8.092,8.286,8.033,8.347,7.976,8.407C7.907,8.342,7.839,8.275,7.771,8.21C7.828,8.15,7.887,8.089,7.946,8.029L7.946,8.029z
		 M7.99,7.983c0.059-0.06,0.117-0.119,0.177-0.18C8.235,7.87,8.303,7.936,8.371,8c-0.06,0.06-0.118,0.121-0.177,0.181
		C8.127,8.116,8.059,8.05,7.99,7.983z M8.416,8.044c0.061,0.059,0.122,0.118,0.183,0.174c-0.06,0.062-0.119,0.121-0.177,0.181
		C8.36,8.341,8.3,8.282,8.239,8.224C8.298,8.164,8.356,8.104,8.416,8.044L8.416,8.044z M8.645,8.262
		c0.062,0.06,0.123,0.117,0.183,0.173C8.769,8.496,8.71,8.556,8.65,8.615C8.59,8.559,8.529,8.501,8.468,8.442
		C8.526,8.383,8.585,8.323,8.645,8.262z M8.688,8.217C8.755,8.15,8.821,8.083,8.89,8.016c0.062,0.06,0.123,0.116,0.184,0.173
		C9.006,8.256,8.938,8.323,8.872,8.39C8.812,8.334,8.75,8.275,8.688,8.217z M9.118,8.232c0.07,0.066,0.139,0.13,0.208,0.194
		C9.259,8.494,9.192,8.561,9.125,8.628C9.057,8.563,8.988,8.5,8.918,8.434C8.983,8.367,9.051,8.3,9.118,8.232z M9.163,8.188
		c0.06-0.059,0.119-0.118,0.179-0.177c0.07,0.066,0.14,0.13,0.208,0.194C9.49,8.264,9.43,8.323,9.37,8.382
		C9.302,8.317,9.233,8.254,9.163,8.188L9.163,8.188z M9.157,7.75c0.061-0.059,0.12-0.117,0.182-0.176
		C9.401,7.633,9.461,7.69,9.522,7.748c-0.062,0.059-0.12,0.117-0.181,0.176C9.281,7.866,9.221,7.809,9.157,7.75L9.157,7.75z
		 M9.111,7.707C9.051,7.649,8.99,7.592,8.93,7.532c0.06-0.059,0.119-0.117,0.18-0.176C9.17,7.415,9.232,7.474,9.293,7.531
		C9.232,7.59,9.171,7.648,9.111,7.707z M8.885,7.489C8.816,7.425,8.749,7.358,8.681,7.292c0.059-0.059,0.12-0.116,0.181-0.176
		C8.93,7.184,8.997,7.248,9.065,7.313C9.005,7.372,8.945,7.431,8.885,7.489z M8.635,7.248c-0.06-0.059-0.119-0.117-0.18-0.176
		c0.06-0.059,0.12-0.117,0.18-0.176c0.061,0.06,0.121,0.118,0.181,0.176C8.755,7.131,8.694,7.189,8.635,7.248L8.635,7.248z
		 M8.41,7.027C8.35,6.969,8.291,6.909,8.23,6.85c0.061-0.059,0.12-0.118,0.182-0.176c0.06,0.06,0.119,0.118,0.179,0.178
		C8.53,6.91,8.471,6.969,8.41,7.027L8.41,7.027z M8.187,6.805C8.12,6.737,8.054,6.67,7.987,6.604c0.059-0.059,0.12-0.117,0.18-0.177
		c0.067,0.068,0.133,0.136,0.2,0.202C8.306,6.687,8.246,6.746,8.187,6.805z M8.142,6.85c-0.061,0.06-0.119,0.118-0.179,0.177
		C7.896,6.96,7.83,6.893,7.763,6.825c0.06-0.06,0.119-0.118,0.179-0.177C8.009,6.717,8.075,6.783,8.142,6.85z M7.719,6.78
		C7.66,6.721,7.602,6.661,7.543,6.6c0.06-0.058,0.118-0.118,0.179-0.177C7.78,6.483,7.839,6.544,7.897,6.604
		C7.837,6.663,7.777,6.722,7.719,6.78z M7.497,6.554c-0.058-0.061-0.115-0.12-0.175-0.182c0.061-0.059,0.12-0.119,0.181-0.177
		c0.059,0.06,0.116,0.121,0.175,0.182C7.618,6.437,7.559,6.495,7.497,6.554L7.497,6.554z M7.453,6.599
		C7.387,6.666,7.319,6.733,7.254,6.8c-0.06-0.061-0.116-0.12-0.175-0.182c0.065-0.067,0.133-0.135,0.2-0.201
		C7.339,6.478,7.396,6.538,7.453,6.599L7.453,6.599z M7.034,6.573C6.97,6.505,6.904,6.436,6.84,6.367
		c0.066-0.068,0.133-0.135,0.2-0.202c0.064,0.069,0.13,0.139,0.194,0.207C7.168,6.438,7.101,6.506,7.034,6.573z M6.99,6.617
		c-0.06,0.061-0.118,0.12-0.177,0.18c-0.064-0.068-0.13-0.136-0.194-0.206c0.059-0.06,0.117-0.12,0.177-0.18
		C6.86,6.479,6.926,6.549,6.99,6.617z M6.576,6.546C6.519,6.485,6.461,6.423,6.403,6.361c0.059-0.06,0.117-0.119,0.177-0.181
		c0.058,0.062,0.115,0.124,0.172,0.185C6.692,6.426,6.634,6.486,6.576,6.546L6.576,6.546z M6.531,6.591
		c-0.06,0.061-0.117,0.121-0.176,0.181C6.297,6.711,6.24,6.649,6.184,6.588c0.058-0.062,0.115-0.121,0.176-0.182
		C6.417,6.468,6.475,6.53,6.531,6.591z M6.142,6.54C6.085,6.479,6.027,6.417,5.971,6.354c0.058-0.06,0.116-0.12,0.176-0.181
		c0.057,0.063,0.114,0.124,0.171,0.187C6.259,6.42,6.2,6.48,6.142,6.54z M6.098,6.586C6.031,6.654,5.965,6.723,5.901,6.791
		C5.844,6.729,5.787,6.667,5.73,6.604c0.065-0.068,0.13-0.137,0.197-0.205C5.984,6.462,6.042,6.523,6.098,6.586L6.098,6.586z
		 M6.072,7.067C6.014,7.129,5.956,7.189,5.898,7.25C5.841,7.189,5.783,7.128,5.727,7.066C5.783,7.006,5.842,6.944,5.9,6.883
		C5.958,6.944,6.016,7.007,6.072,7.067z M6.116,7.113c0.064,0.069,0.13,0.139,0.194,0.206C6.252,7.382,6.195,7.442,6.137,7.503
		c-0.064-0.068-0.13-0.138-0.194-0.206C6,7.235,6.058,7.176,6.116,7.113L6.116,7.113z M6.354,7.365
		c0.06,0.062,0.117,0.122,0.176,0.183C6.47,7.609,6.413,7.67,6.356,7.731C6.297,7.671,6.239,7.61,6.181,7.549
		C6.238,7.488,6.296,7.428,6.354,7.365z M6.574,7.592c0.059,0.061,0.118,0.12,0.176,0.181C6.691,7.834,6.634,7.895,6.577,7.955
		c-0.059-0.06-0.117-0.12-0.176-0.18C6.458,7.714,6.516,7.653,6.574,7.592z M6.794,7.818c0.066,0.067,0.133,0.135,0.2,0.201
		C6.936,8.081,6.878,8.142,6.821,8.203c-0.067-0.066-0.134-0.135-0.2-0.202C6.678,7.94,6.736,7.88,6.794,7.818z M7.039,8.063
		c0.06,0.06,0.119,0.119,0.179,0.178C7.159,8.303,7.102,8.364,7.045,8.425c-0.06-0.059-0.119-0.118-0.179-0.178
		C6.923,8.186,6.981,8.125,7.039,8.063L7.039,8.063z M7.082,8.019c0.064-0.068,0.13-0.137,0.195-0.205
		c0.061,0.059,0.12,0.119,0.18,0.178C7.391,8.06,7.324,8.128,7.261,8.196C7.201,8.138,7.142,8.079,7.082,8.019z M7.502,8.035
		c0.061,0.06,0.12,0.118,0.18,0.177C7.616,8.281,7.55,8.349,7.486,8.418c-0.06-0.06-0.12-0.118-0.18-0.178
		C7.371,8.172,7.436,8.104,7.502,8.035z M7.728,8.255c0.067,0.067,0.136,0.132,0.203,0.197C7.865,8.521,7.799,8.589,7.735,8.657
		C7.667,8.593,7.601,8.526,7.531,8.46C7.596,8.392,7.661,8.324,7.728,8.255z M7.977,8.496C8.037,8.555,8.099,8.613,8.159,8.67
		C8.093,8.738,8.027,8.807,7.963,8.875C7.902,8.817,7.841,8.76,7.78,8.701C7.846,8.633,7.91,8.564,7.977,8.496z M8.02,8.451
		C8.077,8.391,8.136,8.33,8.195,8.27c0.061,0.059,0.122,0.117,0.183,0.175C8.317,8.506,8.26,8.565,8.202,8.626
		C8.141,8.567,8.08,8.511,8.02,8.451L8.02,8.451z M8.424,8.486c0.062,0.059,0.123,0.116,0.183,0.173
		c-0.06,0.061-0.117,0.12-0.176,0.182C8.37,8.783,8.309,8.727,8.248,8.668C8.305,8.607,8.364,8.547,8.424,8.486z M8.652,8.703
		c0.071,0.066,0.14,0.13,0.209,0.193c-0.06,0.062-0.117,0.121-0.176,0.182C8.617,9.016,8.549,8.95,8.478,8.886
		C8.535,8.825,8.595,8.765,8.652,8.703L8.652,8.703z M8.696,8.658c0.06-0.06,0.118-0.119,0.178-0.181
		c0.07,0.066,0.14,0.13,0.207,0.194c-0.06,0.061-0.118,0.12-0.176,0.18C8.837,8.788,8.768,8.725,8.696,8.658z M9.128,8.715
		c0.063,0.058,0.125,0.114,0.187,0.171c-0.061,0.06-0.119,0.12-0.178,0.18C9.076,9.01,9.014,8.952,8.951,8.895
		C9.01,8.835,9.068,8.775,9.128,8.715z M9.172,8.67c0.066-0.067,0.134-0.135,0.201-0.201C9.437,8.526,9.498,8.584,9.559,8.64
		c-0.066,0.066-0.134,0.134-0.2,0.201C9.296,8.783,9.234,8.728,9.172,8.67z M9.417,8.425c0.061-0.059,0.12-0.119,0.181-0.177
		C9.66,8.305,9.722,8.361,9.784,8.419c-0.062,0.059-0.12,0.118-0.181,0.177C9.543,8.54,9.481,8.481,9.417,8.425L9.417,8.425z
		 M9.642,8.203c0.06-0.06,0.12-0.118,0.182-0.177c0.062,0.058,0.124,0.115,0.186,0.171C9.948,8.256,9.888,8.314,9.828,8.373
		C9.766,8.316,9.704,8.26,9.642,8.203z M9.596,8.16C9.527,8.097,9.457,8.032,9.387,7.966c0.061-0.059,0.12-0.117,0.182-0.176
		c0.07,0.066,0.14,0.13,0.208,0.193C9.716,8.042,9.655,8.101,9.596,8.16z M9.384,7.53c0.068-0.066,0.137-0.131,0.205-0.197
		c0.062,0.059,0.123,0.116,0.184,0.173C9.704,7.572,9.635,7.637,9.568,7.703C9.507,7.646,9.446,7.589,9.384,7.53z M9.338,7.487
		C9.277,7.43,9.216,7.372,9.155,7.313c0.067-0.066,0.137-0.131,0.206-0.197c0.061,0.06,0.122,0.117,0.182,0.174
		C9.474,7.356,9.406,7.421,9.338,7.487z M9.109,7.27C9.041,7.204,8.974,7.139,8.905,7.072C8.974,7.007,9.041,6.941,9.11,6.876
		c0.068,0.066,0.137,0.132,0.205,0.196C9.245,7.138,9.178,7.203,9.109,7.27L9.109,7.27z M8.86,7.028
		c-0.06-0.059-0.12-0.117-0.18-0.177c0.067-0.066,0.136-0.131,0.205-0.197c0.06,0.06,0.12,0.118,0.18,0.177
		C8.996,6.896,8.929,6.962,8.86,7.028L8.86,7.028z M8.635,6.808C8.575,6.749,8.517,6.688,8.456,6.63
		C8.522,6.563,8.593,6.499,8.66,6.433c0.06,0.06,0.119,0.119,0.18,0.178C8.771,6.677,8.702,6.741,8.635,6.808L8.635,6.808z
		 M8.412,6.585c-0.067-0.067-0.133-0.135-0.2-0.202c0.067-0.065,0.136-0.131,0.204-0.196c0.067,0.067,0.134,0.135,0.2,0.201
		C8.547,6.454,8.479,6.519,8.412,6.585z M8.168,6.338c-0.059-0.06-0.117-0.12-0.176-0.18C8.06,6.093,8.128,6.027,8.197,5.962
		c0.059,0.062,0.117,0.12,0.176,0.181C8.304,6.208,8.236,6.273,8.168,6.338L8.168,6.338z M8.123,6.382
		C8.062,6.441,8.002,6.5,7.941,6.558c-0.059-0.059-0.117-0.119-0.176-0.18c0.06-0.059,0.12-0.117,0.181-0.176
		C8.006,6.263,8.064,6.324,8.123,6.382L8.123,6.382z M7.723,6.333c-0.059-0.06-0.116-0.121-0.175-0.181
		c0.06-0.06,0.12-0.118,0.181-0.177c0.059,0.061,0.117,0.122,0.175,0.183C7.842,6.217,7.782,6.275,7.723,6.333L7.723,6.333z
		 M7.504,6.106C7.439,6.037,7.374,5.969,7.31,5.899c0.059-0.059,0.119-0.117,0.18-0.176c0.065,0.068,0.13,0.137,0.195,0.205
		C7.623,5.987,7.563,6.046,7.504,6.104V6.106z M7.459,6.15c-0.06,0.059-0.119,0.118-0.18,0.177C7.215,6.259,7.149,6.189,7.085,6.12
		c0.06-0.059,0.119-0.118,0.18-0.177C7.329,6.013,7.395,6.081,7.459,6.15z M7.042,6.075C6.984,6.015,6.927,5.952,6.87,5.892
		c0.06-0.06,0.119-0.119,0.18-0.178c0.057,0.062,0.115,0.124,0.172,0.185C7.16,5.958,7.101,6.017,7.042,6.075z M6.997,6.119
		C6.93,6.187,6.863,6.253,6.797,6.32C6.739,6.26,6.682,6.198,6.625,6.136c0.066-0.066,0.133-0.134,0.2-0.2
		C6.883,5.997,6.939,6.059,6.997,6.119z M6.581,6.09c-0.057-0.062-0.114-0.123-0.17-0.187C6.477,5.837,6.544,5.77,6.61,5.702
		c0.057,0.063,0.113,0.125,0.171,0.187C6.713,5.956,6.647,6.023,6.581,6.09L6.581,6.09z M6.537,6.134
		c-0.06,0.061-0.118,0.12-0.177,0.181C6.304,6.252,6.246,6.19,6.189,6.128c0.059-0.06,0.117-0.12,0.178-0.181
		C6.423,6.01,6.48,6.072,6.537,6.134z M6.147,6.081c-0.064-0.069-0.126-0.14-0.19-0.211c0.059-0.06,0.117-0.119,0.177-0.181
		C6.198,5.762,6.261,5.831,6.325,5.9C6.265,5.961,6.206,6.021,6.147,6.081L6.147,6.081z M6.104,6.126
		c-0.06,0.062-0.118,0.121-0.176,0.182c-0.064-0.069-0.127-0.141-0.19-0.211c0.058-0.062,0.116-0.121,0.176-0.182
		C5.976,5.986,6.039,6.057,6.104,6.126z M5.884,6.353C5.817,6.422,5.752,6.49,5.687,6.558c-0.063-0.069-0.127-0.14-0.19-0.211
		c0.065-0.068,0.13-0.137,0.196-0.205C5.755,6.212,5.818,6.283,5.884,6.353L5.884,6.353z M5.455,6.299
		C5.398,6.237,5.344,6.174,5.288,6.11c0.064-0.068,0.13-0.137,0.196-0.206C5.54,5.969,5.597,6.031,5.652,6.094
		C5.586,6.163,5.521,6.231,5.455,6.299z M5.644,6.604C5.585,6.666,5.527,6.727,5.47,6.788c-0.063-0.07-0.127-0.141-0.19-0.212
		c0.057-0.062,0.115-0.121,0.174-0.184C5.516,6.464,5.58,6.534,5.644,6.604z M5.687,6.65c0.057,0.062,0.114,0.124,0.171,0.187
		C5.799,6.898,5.741,6.96,5.684,7.02C5.626,6.958,5.569,6.896,5.513,6.834C5.569,6.772,5.628,6.712,5.687,6.65z M5.855,7.298
		C5.797,7.359,5.739,7.421,5.684,7.482C5.626,7.421,5.568,7.359,5.511,7.298c0.057-0.062,0.114-0.122,0.173-0.185
		C5.741,7.176,5.799,7.236,5.855,7.298z M5.899,7.343c0.064,0.068,0.13,0.139,0.196,0.206C6.036,7.61,5.98,7.673,5.924,7.733
		c-0.065-0.068-0.13-0.138-0.196-0.206C5.784,7.466,5.842,7.404,5.899,7.343z M6.138,7.595c0.06,0.062,0.117,0.122,0.176,0.182
		C6.254,7.838,6.198,7.9,6.142,7.961C6.082,7.9,6.025,7.84,5.967,7.778C6.023,7.718,6.08,7.656,6.138,7.595L6.138,7.595z
		 M6.357,7.821c0.059,0.061,0.117,0.12,0.177,0.18C6.476,8.063,6.419,8.125,6.361,8.186c-0.059-0.06-0.117-0.119-0.176-0.18
		C6.242,7.945,6.299,7.883,6.357,7.821z M6.578,8.046c0.066,0.068,0.134,0.136,0.2,0.202C6.72,8.309,6.663,8.371,6.606,8.432
		c-0.067-0.066-0.133-0.133-0.2-0.201C6.463,8.17,6.521,8.108,6.578,8.046z M6.822,8.293c0.06,0.059,0.119,0.118,0.179,0.178
		C6.942,8.532,6.886,8.595,6.83,8.654C6.77,8.597,6.71,8.538,6.65,8.477C6.707,8.416,6.765,8.354,6.822,8.293z M7.047,8.515
		c0.059,0.06,0.12,0.118,0.18,0.176C7.168,8.753,7.111,8.814,7.055,8.875c-0.06-0.059-0.12-0.117-0.18-0.176
		C6.931,8.639,6.988,8.576,7.047,8.515z M7.09,8.469c0.056-0.061,0.113-0.123,0.172-0.184c0.061,0.06,0.121,0.118,0.181,0.177
		C7.384,8.522,7.325,8.584,7.27,8.645C7.21,8.586,7.148,8.527,7.09,8.469z M7.487,8.507c0.068,0.066,0.136,0.132,0.204,0.196
		C7.633,8.765,7.575,8.825,7.519,8.887C7.451,8.821,7.384,8.756,7.314,8.689C7.371,8.629,7.43,8.567,7.487,8.507z M7.736,8.746
		C7.797,8.805,7.858,8.862,7.919,8.92C7.86,8.981,7.804,9.042,7.746,9.104C7.686,9.046,7.624,8.988,7.563,8.93
		C7.62,8.868,7.678,8.807,7.736,8.746z M7.965,8.964C8.026,9.022,8.087,9.08,8.148,9.137C8.089,9.198,8.032,9.259,7.974,9.32
		C7.913,9.264,7.853,9.206,7.791,9.147C7.848,9.086,7.905,9.025,7.965,8.964L7.965,8.964z M8.009,8.918
		c0.065-0.068,0.13-0.137,0.196-0.205c0.062,0.059,0.122,0.116,0.183,0.173C8.322,8.954,8.257,9.022,8.192,9.091
		C8.131,9.034,8.07,8.977,8.009,8.918z M8.434,8.93c0.07,0.065,0.14,0.13,0.208,0.192C8.575,9.191,8.511,9.259,8.445,9.327
		C8.378,9.264,8.308,9.199,8.237,9.135C8.302,9.066,8.367,8.998,8.434,8.93L8.434,8.93z M8.688,9.165
		C8.75,9.223,8.812,9.279,8.874,9.336C8.808,9.404,8.742,9.473,8.678,9.54C8.617,9.484,8.555,9.427,8.492,9.369
		C8.558,9.301,8.622,9.233,8.688,9.165L8.688,9.165z M8.731,9.12c0.058-0.06,0.116-0.121,0.176-0.182
		c0.063,0.058,0.125,0.114,0.186,0.171C9.033,9.17,8.975,9.23,8.917,9.291C8.855,9.235,8.794,9.178,8.731,9.12z M9.139,9.152
		c0.062,0.058,0.126,0.114,0.188,0.17c-0.06,0.061-0.118,0.12-0.176,0.181C9.089,9.448,9.026,9.392,8.963,9.334
		C9.021,9.274,9.079,9.213,9.139,9.152z M9.183,9.107C9.241,9.048,9.3,8.988,9.36,8.928c0.062,0.058,0.124,0.113,0.187,0.169
		c-0.06,0.06-0.118,0.121-0.177,0.181C9.309,9.222,9.247,9.165,9.183,9.107z M9.405,8.883c0.065-0.067,0.133-0.134,0.199-0.201
		C9.668,8.738,9.73,8.796,9.792,8.851C9.726,8.918,9.658,8.985,9.591,9.052C9.529,8.996,9.468,8.939,9.405,8.883L9.405,8.883z
		 M9.839,8.894C9.911,8.959,9.98,9.021,10.05,9.083C9.982,9.15,9.916,9.218,9.849,9.284C9.78,9.223,9.709,9.16,9.637,9.095
		C9.703,9.027,9.771,8.961,9.839,8.894L9.839,8.894z M9.649,8.638c0.06-0.06,0.119-0.119,0.18-0.178
		c0.063,0.058,0.126,0.114,0.188,0.17c-0.061,0.06-0.121,0.118-0.181,0.177C9.774,8.751,9.713,8.694,9.649,8.638z M9.874,8.416
		c0.06-0.059,0.121-0.117,0.182-0.176c0.062,0.058,0.125,0.114,0.187,0.17c-0.061,0.059-0.121,0.117-0.181,0.176
		C10,8.53,9.937,8.474,9.874,8.416z M9.868,7.982c0.066-0.066,0.136-0.131,0.205-0.197c0.062,0.058,0.124,0.115,0.187,0.171
		c-0.069,0.066-0.138,0.131-0.206,0.196C9.993,8.097,9.931,8.039,9.868,7.982L9.868,7.982z M9.822,7.94
		C9.753,7.878,9.684,7.813,9.613,7.747C9.682,7.681,9.749,7.616,9.818,7.55c0.07,0.066,0.14,0.13,0.209,0.194
		C9.958,7.81,9.89,7.875,9.822,7.94z M9.634,7.29c0.062-0.058,0.122-0.116,0.184-0.174c0.062,0.06,0.122,0.116,0.184,0.173
		C9.938,7.347,9.878,7.404,9.817,7.463C9.757,7.406,9.696,7.348,9.634,7.29z M9.588,7.247C9.527,7.189,9.467,7.133,9.406,7.073
		c0.061-0.058,0.121-0.115,0.183-0.174c0.062,0.059,0.123,0.117,0.184,0.175C9.711,7.133,9.65,7.189,9.588,7.247L9.588,7.247z
		 M9.36,7.029C9.292,6.965,9.224,6.898,9.155,6.833c0.061-0.059,0.122-0.115,0.184-0.174c0.068,0.066,0.136,0.132,0.204,0.196
		C9.481,6.913,9.42,6.971,9.36,7.029z M9.11,6.788c-0.06-0.06-0.119-0.118-0.18-0.178c0.061-0.058,0.122-0.115,0.183-0.174
		c0.062,0.06,0.121,0.118,0.181,0.178C9.232,6.671,9.171,6.729,9.11,6.788z M8.887,6.567C8.826,6.509,8.769,6.449,8.707,6.39
		c0.062-0.058,0.122-0.115,0.184-0.174c0.06,0.06,0.119,0.119,0.179,0.178C9.008,6.451,8.947,6.509,8.887,6.567z M8.662,6.345
		C8.596,6.277,8.529,6.211,8.463,6.144c0.06-0.058,0.121-0.115,0.183-0.173c0.067,0.067,0.133,0.136,0.2,0.201
		C8.783,6.229,8.724,6.287,8.662,6.345z M8.419,6.099c-0.06-0.061-0.118-0.12-0.177-0.181C8.303,5.86,8.364,5.803,8.426,5.744
		c0.059,0.062,0.117,0.12,0.176,0.181C8.54,5.983,8.479,6.039,8.419,6.099z M8.198,5.873C8.14,5.813,8.081,5.753,8.023,5.69
		c0.061-0.057,0.121-0.115,0.184-0.172C8.265,5.579,8.324,5.64,8.382,5.699C8.319,5.757,8.259,5.814,8.198,5.873z M8.153,5.916
		C8.084,5.982,8.016,6.047,7.949,6.113c-0.059-0.06-0.116-0.121-0.175-0.183C7.842,5.866,7.91,5.8,7.979,5.733
		C8.037,5.795,8.095,5.855,8.153,5.916L8.153,5.916z M7.73,5.886C7.665,5.817,7.601,5.748,7.535,5.68
		c0.068-0.065,0.136-0.131,0.204-0.196c0.065,0.069,0.13,0.138,0.195,0.205C7.865,5.754,7.797,5.819,7.73,5.886L7.73,5.886z
		 M7.491,5.635C7.435,5.573,7.376,5.512,7.319,5.45c0.067-0.066,0.136-0.131,0.204-0.196c0.058,0.062,0.114,0.124,0.172,0.185
		C7.626,5.505,7.559,5.569,7.491,5.635L7.491,5.635z M7.446,5.678c-0.061,0.059-0.121,0.117-0.18,0.176
		C7.209,5.792,7.15,5.73,7.095,5.669c0.06-0.059,0.119-0.117,0.18-0.176C7.332,5.555,7.389,5.616,7.446,5.678z M7.052,5.623
		C6.995,5.562,6.938,5.499,6.881,5.437c0.06-0.059,0.12-0.117,0.18-0.176c0.057,0.062,0.115,0.124,0.171,0.186
		C7.171,5.506,7.111,5.564,7.052,5.623z M7.007,5.667c-0.062,0.059-0.121,0.118-0.18,0.177C6.771,5.782,6.713,5.721,6.656,5.657
		C6.717,5.599,6.776,5.54,6.837,5.48C6.894,5.543,6.95,5.605,7.007,5.667L7.007,5.667z M6.614,5.611
		C6.55,5.541,6.487,5.471,6.423,5.399c0.06-0.059,0.12-0.118,0.181-0.177c0.062,0.07,0.126,0.142,0.189,0.211
		C6.731,5.492,6.673,5.552,6.614,5.611L6.614,5.611z M6.569,5.656C6.503,5.724,6.436,5.79,6.37,5.857
		c-0.064-0.07-0.128-0.14-0.191-0.212c0.066-0.066,0.134-0.134,0.2-0.201C6.442,5.515,6.506,5.586,6.569,5.656z M6.137,5.599
		C6.081,5.536,6.025,5.474,5.97,5.409c0.065-0.066,0.133-0.134,0.2-0.201c0.057,0.062,0.112,0.127,0.168,0.189
		C6.271,5.465,6.204,5.531,6.137,5.599z M6.092,5.643c-0.06,0.061-0.118,0.121-0.177,0.181C5.859,5.761,5.803,5.697,5.747,5.634
		c0.06-0.061,0.117-0.12,0.178-0.18C5.98,5.518,6.035,5.581,6.092,5.643L6.092,5.643z M5.871,5.868
		C5.812,5.929,5.754,5.989,5.695,6.049C5.64,5.986,5.583,5.924,5.527,5.859c0.058-0.06,0.116-0.12,0.176-0.181
		C5.759,5.742,5.814,5.806,5.871,5.868z M5.486,5.812C5.432,5.75,5.376,5.686,5.32,5.621C5.379,5.562,5.438,5.5,5.496,5.439
		c0.055,0.064,0.11,0.128,0.165,0.192C5.603,5.692,5.545,5.753,5.486,5.812L5.486,5.812z M5.442,5.857
		C5.376,5.927,5.311,5.994,5.246,6.063C5.19,6,5.135,5.937,5.079,5.871c0.065-0.068,0.13-0.136,0.197-0.205
		C5.332,5.729,5.388,5.794,5.442,5.857z M5.411,6.346C5.353,6.407,5.295,6.468,5.237,6.529C5.182,6.466,5.126,6.403,5.07,6.339
		c0.058-0.061,0.114-0.121,0.174-0.183C5.3,6.22,5.354,6.283,5.411,6.346z M5.427,6.834C5.368,6.896,5.311,6.957,5.254,7.018
		c-0.063-0.07-0.127-0.14-0.19-0.211C5.12,6.746,5.178,6.684,5.236,6.622C5.3,6.693,5.363,6.764,5.427,6.834z M5.47,6.88
		c0.057,0.062,0.114,0.125,0.171,0.187C5.582,7.128,5.524,7.189,5.468,7.25C5.411,7.188,5.354,7.127,5.297,7.063
		C5.354,7.004,5.411,6.941,5.47,6.88z M5.641,7.528c-0.065,0.07-0.13,0.14-0.192,0.209C5.391,7.677,5.333,7.615,5.275,7.553
		c0.062-0.068,0.127-0.138,0.192-0.209C5.525,7.405,5.583,7.468,5.641,7.528z M5.684,7.574C5.748,7.644,5.813,7.712,5.88,7.78
		c-0.066,0.07-0.13,0.141-0.193,0.21C5.621,7.922,5.556,7.853,5.491,7.783C5.554,7.714,5.618,7.646,5.684,7.574z M5.923,7.825
		c0.059,0.061,0.116,0.122,0.176,0.183c-0.065,0.07-0.13,0.141-0.193,0.209C5.848,8.156,5.788,8.097,5.73,8.035
		C5.794,7.966,5.858,7.896,5.923,7.825L5.923,7.825z M6.143,8.053c0.059,0.061,0.117,0.12,0.177,0.18
		c-0.066,0.07-0.13,0.141-0.193,0.21c-0.058-0.06-0.116-0.12-0.177-0.181C6.013,8.193,6.076,8.124,6.143,8.053z M6.363,8.278
		c0.067,0.067,0.133,0.135,0.2,0.2c-0.064,0.071-0.13,0.141-0.192,0.21C6.304,8.621,6.238,8.556,6.17,8.487
		C6.233,8.419,6.297,8.349,6.363,8.278z M6.607,8.523c0.06,0.061,0.119,0.119,0.18,0.178c-0.065,0.07-0.131,0.141-0.193,0.208
		c-0.06-0.059-0.118-0.118-0.179-0.177C6.478,8.663,6.542,8.595,6.607,8.523z M6.832,8.745c0.061,0.06,0.12,0.118,0.18,0.177
		c-0.065,0.07-0.13,0.141-0.192,0.209c-0.06-0.059-0.12-0.117-0.181-0.177C6.702,8.886,6.766,8.816,6.832,8.745L6.832,8.745z
		 M7.057,8.966c0.068,0.067,0.136,0.133,0.204,0.197c-0.064,0.07-0.13,0.141-0.191,0.208C7.003,9.307,6.935,9.24,6.865,9.175
		C6.928,9.105,6.992,9.036,7.057,8.966L7.057,8.966z M7.099,8.92c0.057-0.061,0.114-0.122,0.172-0.185
		c0.068,0.067,0.136,0.132,0.204,0.197C7.416,8.994,7.359,9.057,7.303,9.117C7.235,9.052,7.168,8.987,7.099,8.92z M7.521,8.976
		c0.061,0.059,0.123,0.116,0.183,0.174C7.645,9.211,7.588,9.273,7.531,9.334C7.471,9.276,7.409,9.219,7.349,9.16
		C7.405,9.1,7.463,9.037,7.521,8.976z M7.749,9.193C7.811,9.252,7.871,9.31,7.933,9.366C7.874,9.428,7.817,9.49,7.761,9.55
		C7.7,9.494,7.638,9.437,7.577,9.378C7.634,9.317,7.691,9.255,7.749,9.193z M7.979,9.409c0.07,0.065,0.14,0.13,0.207,0.192
		C8.127,9.664,8.07,9.726,8.014,9.786C7.946,9.723,7.877,9.658,7.807,9.593C7.863,9.533,7.921,9.471,7.979,9.409z M8.021,9.363
		C8.078,9.302,8.137,9.241,8.194,9.18c0.069,0.065,0.14,0.13,0.208,0.192C8.344,9.435,8.286,9.495,8.229,9.556
		C8.162,9.492,8.092,9.428,8.021,9.363L8.021,9.363z M8.447,9.415c0.063,0.058,0.125,0.114,0.186,0.171
		C8.574,9.647,8.517,9.709,8.46,9.77C8.399,9.714,8.337,9.656,8.273,9.599C8.332,9.538,8.389,9.478,8.447,9.415L8.447,9.415z
		 M8.681,9.628c0.062,0.058,0.125,0.114,0.187,0.17C8.809,9.859,8.751,9.92,8.694,9.98C8.633,9.926,8.571,9.869,8.508,9.812
		C8.563,9.751,8.622,9.689,8.681,9.628z M8.725,9.583c0.064-0.068,0.13-0.136,0.195-0.204c0.062,0.058,0.126,0.114,0.187,0.169
		C9.04,9.617,8.976,9.686,8.91,9.753C8.849,9.697,8.787,9.641,8.725,9.583z M9.153,9.59c0.072,0.065,0.143,0.128,0.212,0.19
		C9.299,9.848,9.234,9.917,9.169,9.984c-0.068-0.062-0.14-0.125-0.211-0.189C9.022,9.727,9.088,9.658,9.153,9.59z M9.197,9.544
		c0.059-0.06,0.117-0.12,0.176-0.181c0.073,0.064,0.143,0.128,0.212,0.189c-0.059,0.061-0.117,0.12-0.176,0.181
		C9.34,9.672,9.269,9.609,9.197,9.544z M9.417,9.319c0.06-0.061,0.118-0.12,0.177-0.181c0.073,0.065,0.144,0.128,0.212,0.189
		c-0.06,0.06-0.118,0.12-0.177,0.179C9.56,9.446,9.49,9.383,9.417,9.319L9.417,9.319z M9.852,9.37
		c0.065,0.058,0.128,0.113,0.19,0.168c-0.061,0.06-0.119,0.119-0.177,0.179C9.803,9.663,9.74,9.607,9.675,9.549
		C9.733,9.49,9.792,9.43,9.852,9.37z M9.896,9.326c0.066-0.067,0.134-0.134,0.2-0.201c0.065,0.058,0.128,0.113,0.19,0.168
		c-0.068,0.067-0.135,0.134-0.201,0.2C10.023,9.438,9.961,9.383,9.896,9.326L9.896,9.326z M9.884,8.85
		c0.06-0.059,0.119-0.118,0.18-0.177c0.072,0.064,0.143,0.128,0.212,0.189c-0.061,0.06-0.121,0.118-0.181,0.177
		C10.025,8.978,9.956,8.915,9.884,8.85z M10.108,8.628c0.061-0.059,0.12-0.117,0.182-0.176c0.072,0.064,0.143,0.128,0.212,0.189
		C10.44,8.7,10.38,8.759,10.32,8.817C10.251,8.756,10.18,8.692,10.108,8.628z M10.101,8.196c0.068-0.066,0.137-0.131,0.205-0.197
		c0.062,0.058,0.126,0.114,0.188,0.17c-0.069,0.066-0.138,0.131-0.205,0.196C10.226,8.309,10.164,8.253,10.101,8.196L10.101,8.196z
		 M10.118,7.743c0.061-0.058,0.121-0.117,0.184-0.174c0.062,0.058,0.124,0.115,0.186,0.17c-0.062,0.058-0.122,0.115-0.183,0.174
		C10.242,7.857,10.181,7.8,10.118,7.743z M10.072,7.7c-0.069-0.064-0.139-0.128-0.209-0.194c0.062-0.058,0.122-0.115,0.184-0.173
		c0.07,0.066,0.14,0.13,0.209,0.194C10.194,7.584,10.133,7.643,10.072,7.7L10.072,7.7z M9.863,7.073
		c0.062-0.058,0.123-0.115,0.186-0.172c0.062,0.06,0.123,0.116,0.184,0.174c-0.062,0.059-0.124,0.114-0.186,0.172
		C9.986,7.19,9.926,7.133,9.863,7.073L9.863,7.073z M9.817,7.03C9.757,6.973,9.696,6.915,9.635,6.855
		C9.696,6.798,9.758,6.74,9.82,6.684c0.062,0.059,0.123,0.117,0.183,0.175C9.941,6.915,9.879,6.973,9.817,7.03L9.817,7.03z
		 M9.59,6.812C9.522,6.748,9.454,6.682,9.386,6.615c0.062-0.059,0.123-0.114,0.186-0.172C9.64,6.51,9.708,6.575,9.775,6.64
		C9.714,6.697,9.652,6.754,9.59,6.812L9.59,6.812z M9.34,6.572c-0.06-0.06-0.12-0.117-0.18-0.178
		C9.221,6.337,9.282,6.28,9.344,6.223C9.405,6.283,9.465,6.341,9.524,6.4C9.462,6.458,9.401,6.514,9.34,6.572z M9.116,6.351
		c-0.06-0.059-0.12-0.118-0.18-0.178C8.997,6.115,9.06,6.058,9.122,6.001c0.06,0.06,0.119,0.118,0.179,0.178
		C9.239,6.237,9.178,6.293,9.116,6.351z M8.892,6.129c-0.066-0.067-0.133-0.134-0.2-0.201C8.753,5.87,8.814,5.812,8.876,5.756
		c0.067,0.068,0.134,0.136,0.2,0.201C9.015,6.015,8.952,6.071,8.892,6.129L8.892,6.129z M8.647,5.882
		C8.589,5.821,8.53,5.763,8.472,5.701c0.061-0.058,0.123-0.114,0.185-0.172C8.715,5.591,8.773,5.65,8.832,5.71
		C8.771,5.768,8.708,5.824,8.647,5.882z M8.428,5.656c-0.059-0.06-0.116-0.12-0.175-0.181c0.061-0.058,0.123-0.114,0.184-0.172
		c0.06,0.061,0.118,0.121,0.176,0.181C8.551,5.541,8.488,5.599,8.428,5.656z M8.209,5.429c-0.065-0.067-0.13-0.136-0.195-0.205
		c0.062-0.057,0.123-0.114,0.186-0.172c0.064,0.069,0.13,0.138,0.194,0.206C8.333,5.314,8.271,5.372,8.209,5.429L8.209,5.429z
		 M8.163,5.474C8.101,5.53,8.04,5.589,7.979,5.646C7.914,5.578,7.85,5.51,7.784,5.44c0.062-0.058,0.122-0.115,0.184-0.173
		C8.033,5.337,8.098,5.405,8.163,5.474L8.163,5.474z M7.741,5.395C7.685,5.334,7.626,5.271,7.57,5.21
		c0.061-0.058,0.121-0.115,0.183-0.172c0.058,0.061,0.114,0.123,0.172,0.184C7.863,5.279,7.803,5.337,7.741,5.395z M7.527,5.164
		C7.471,5.103,7.412,5.041,7.356,4.978C7.417,4.92,7.478,4.862,7.539,4.805C7.596,4.867,7.652,4.929,7.71,4.99
		C7.648,5.048,7.588,5.105,7.527,5.164L7.527,5.164z M7.482,5.207c-0.07,0.064-0.138,0.131-0.205,0.195
		C7.222,5.341,7.163,5.279,7.106,5.217C7.176,5.15,7.243,5.086,7.312,5.021C7.368,5.083,7.426,5.146,7.482,5.207L7.482,5.207z
		 M7.063,5.171C7,5.1,6.938,5.03,6.875,4.96c0.067-0.065,0.136-0.131,0.204-0.196c0.062,0.07,0.126,0.141,0.189,0.211
		C7.199,5.041,7.131,5.105,7.063,5.171z M7.019,5.215c-0.061,0.058-0.12,0.117-0.181,0.176C6.774,5.32,6.711,5.25,6.648,5.18
		c0.06-0.059,0.119-0.117,0.18-0.176C6.892,5.075,6.955,5.146,7.019,5.215L7.019,5.215z M6.606,5.133
		C6.55,5.07,6.494,5.007,6.438,4.943c0.061-0.059,0.12-0.117,0.182-0.176C6.676,4.83,6.73,4.894,6.788,4.957
		C6.727,5.016,6.667,5.074,6.606,5.133L6.606,5.133z M6.562,5.177c-0.061,0.06-0.12,0.118-0.18,0.177
		c-0.055-0.062-0.11-0.127-0.167-0.189c0.06-0.059,0.119-0.118,0.18-0.177C6.45,5.05,6.506,5.114,6.562,5.177L6.562,5.177z
		 M6.173,5.117C6.117,5.054,6.062,4.99,6.007,4.927c0.061-0.059,0.119-0.119,0.181-0.178C6.242,4.813,6.297,4.877,6.353,4.94
		C6.292,4.999,6.232,5.058,6.173,5.117L6.173,5.117z M6.129,5.161C6.061,5.228,5.994,5.295,5.928,5.362
		c-0.056-0.064-0.111-0.128-0.165-0.19c0.065-0.067,0.133-0.133,0.2-0.201C6.019,5.034,6.073,5.098,6.129,5.161z M5.884,5.406
		c-0.06,0.06-0.118,0.12-0.177,0.179C5.651,5.522,5.596,5.459,5.541,5.394c0.059-0.06,0.117-0.12,0.178-0.179
		C5.772,5.278,5.828,5.343,5.884,5.406L5.884,5.406z M5.499,5.347C5.438,5.273,5.376,5.202,5.314,5.13
		c0.06-0.06,0.118-0.12,0.178-0.179c0.061,0.071,0.122,0.144,0.185,0.216C5.616,5.227,5.558,5.288,5.499,5.347z M5.455,5.393
		c-0.06,0.061-0.118,0.121-0.176,0.181C5.218,5.502,5.156,5.429,5.095,5.356c0.059-0.06,0.118-0.12,0.176-0.181
		C5.333,5.248,5.394,5.321,5.455,5.393z M5.235,5.618C5.17,5.688,5.104,5.756,5.039,5.824C4.977,5.752,4.915,5.68,4.854,5.606
		C4.919,5.538,4.985,5.47,5.051,5.4C5.113,5.475,5.174,5.547,5.235,5.618L5.235,5.618z M5.202,6.109
		C5.143,6.17,5.086,6.231,5.028,6.292C4.973,6.229,4.917,6.165,4.861,6.101c0.058-0.062,0.115-0.121,0.174-0.184
		C5.091,5.981,5.146,6.045,5.202,6.109z M4.985,6.337C4.927,6.399,4.869,6.461,4.812,6.521C4.757,6.458,4.701,6.394,4.646,6.33
		C4.702,6.27,4.76,6.207,4.818,6.146C4.874,6.209,4.93,6.273,4.985,6.337z M5.027,6.385c0.056,0.063,0.111,0.127,0.167,0.19
		C5.136,6.637,5.078,6.698,5.021,6.76C4.966,6.696,4.91,6.634,4.854,6.569C4.911,6.509,4.968,6.447,5.027,6.385z M5.213,7.065
		c-0.065,0.07-0.13,0.14-0.193,0.209c-0.063-0.07-0.128-0.14-0.19-0.212c0.062-0.068,0.128-0.138,0.192-0.209
		C5.085,6.924,5.148,6.995,5.213,7.065z M5.254,7.111c0.057,0.062,0.114,0.124,0.171,0.187c-0.065,0.069-0.13,0.141-0.192,0.209
		C5.176,7.445,5.118,7.384,5.062,7.32C5.125,7.252,5.189,7.183,5.254,7.111z M5.406,7.784C5.349,7.848,5.292,7.91,5.235,7.972
		C5.178,7.911,5.12,7.85,5.062,7.788c0.056-0.062,0.112-0.124,0.17-0.188C5.29,7.662,5.348,7.724,5.406,7.784L5.406,7.784z
		 M5.449,7.83C5.514,7.899,5.58,7.968,5.645,8.036C5.587,8.099,5.53,8.162,5.476,8.224C5.41,8.155,5.346,8.086,5.279,8.017
		C5.335,7.955,5.393,7.894,5.449,7.83z M5.688,8.081c0.059,0.061,0.118,0.122,0.175,0.182C5.806,8.326,5.748,8.389,5.693,8.451
		C5.635,8.391,5.575,8.33,5.519,8.269C5.573,8.208,5.63,8.145,5.688,8.081z M5.906,8.308c0.059,0.062,0.119,0.121,0.177,0.181
		C6.026,8.552,5.97,8.614,5.914,8.676c-0.059-0.06-0.117-0.119-0.177-0.18C5.792,8.434,5.85,8.371,5.906,8.308z M6.128,8.533
		c0.067,0.068,0.134,0.136,0.2,0.201C6.271,8.798,6.213,8.86,6.158,8.921c-0.066-0.065-0.133-0.133-0.2-0.201
		C6.014,8.658,6.07,8.597,6.128,8.533L6.128,8.533z M6.373,8.779c0.06,0.061,0.119,0.119,0.179,0.177
		C6.494,9.02,6.438,9.082,6.382,9.144c-0.059-0.06-0.118-0.118-0.179-0.178C6.259,8.904,6.315,8.843,6.373,8.779z M6.597,9
		c0.062,0.061,0.121,0.119,0.181,0.178C6.72,9.24,6.663,9.302,6.607,9.364c-0.06-0.058-0.119-0.117-0.181-0.176
		C6.482,9.127,6.539,9.064,6.597,9z M6.822,9.222c0.068,0.066,0.136,0.132,0.204,0.196c-0.058,0.063-0.114,0.126-0.17,0.187
		C6.79,9.54,6.722,9.474,6.652,9.408C6.708,9.346,6.765,9.284,6.822,9.222L6.822,9.222z M7.071,9.461
		c0.062,0.06,0.122,0.117,0.183,0.174C7.196,9.698,7.14,9.761,7.084,9.822C7.023,9.764,6.963,9.707,6.901,9.647
		C6.957,9.586,7.014,9.524,7.071,9.461z M7.113,9.415c0.063-0.069,0.128-0.138,0.193-0.208c0.06,0.059,0.122,0.116,0.182,0.174
		c-0.065,0.07-0.13,0.141-0.191,0.208C7.235,9.532,7.176,9.474,7.113,9.415z M7.534,9.424C7.596,9.482,7.657,9.54,7.718,9.597
		c-0.065,0.07-0.129,0.141-0.191,0.208C7.465,9.748,7.404,9.69,7.343,9.632C7.405,9.564,7.47,9.494,7.534,9.424L7.534,9.424z
		 M7.764,9.64c0.07,0.065,0.14,0.13,0.207,0.192c-0.064,0.07-0.129,0.141-0.191,0.209C7.711,9.978,7.643,9.913,7.572,9.848
		C7.635,9.78,7.7,9.71,7.764,9.64L7.764,9.64z M8.017,9.875c0.063,0.058,0.125,0.114,0.187,0.17c-0.065,0.07-0.129,0.14-0.192,0.208
		c-0.061-0.056-0.124-0.113-0.186-0.17C7.889,10.015,7.952,9.944,8.017,9.875L8.017,9.875z M8.06,9.829
		c0.058-0.061,0.114-0.122,0.172-0.185c0.063,0.058,0.125,0.114,0.187,0.171C8.359,9.877,8.302,9.938,8.246,10
		C8.185,9.944,8.123,9.887,8.06,9.829z M8.465,9.857c0.062,0.058,0.124,0.114,0.186,0.17c-0.057,0.062-0.115,0.123-0.172,0.185
		c-0.061-0.057-0.123-0.111-0.186-0.169C8.349,9.981,8.407,9.92,8.465,9.857L8.465,9.857z M8.697,10.068
		c0.073,0.065,0.144,0.128,0.212,0.19c-0.059,0.062-0.115,0.123-0.172,0.183c-0.068-0.062-0.139-0.124-0.211-0.188
		C8.583,10.192,8.641,10.131,8.697,10.068z M8.74,10.022C8.798,9.962,8.855,9.901,8.913,9.84c0.073,0.064,0.144,0.127,0.212,0.189
		c-0.059,0.062-0.116,0.122-0.173,0.184C8.884,10.15,8.813,10.088,8.74,10.022z M9.172,10.071c0.064,0.057,0.127,0.112,0.189,0.167
		c-0.06,0.062-0.117,0.123-0.174,0.183c-0.062-0.055-0.125-0.11-0.19-0.168C9.056,10.192,9.112,10.132,9.172,10.071L9.172,10.071z
		 M9.216,10.025c0.065-0.067,0.13-0.135,0.196-0.203c0.065,0.056,0.127,0.112,0.188,0.167c-0.065,0.068-0.131,0.137-0.195,0.204
		C9.343,10.139,9.28,10.084,9.216,10.025L9.216,10.025z M9.456,9.775c0.058-0.06,0.116-0.12,0.176-0.18
		C9.696,9.652,9.76,9.709,9.82,9.763c-0.06,0.062-0.117,0.121-0.176,0.182C9.583,9.89,9.521,9.834,9.456,9.775L9.456,9.775z
		 M9.869,9.804c0.064,0.057,0.128,0.112,0.189,0.167c-0.06,0.061-0.117,0.12-0.176,0.18c-0.062-0.054-0.125-0.108-0.191-0.166
		C9.749,9.925,9.808,9.863,9.869,9.804L9.869,9.804z M9.912,9.759c0.059-0.06,0.117-0.119,0.177-0.179
		c0.064,0.056,0.128,0.111,0.19,0.166c-0.06,0.06-0.118,0.12-0.177,0.18C10.041,9.872,9.977,9.816,9.912,9.759z M10.134,9.535
		c0.066-0.067,0.133-0.133,0.201-0.201c0.064,0.058,0.129,0.113,0.19,0.166c-0.068,0.067-0.134,0.134-0.201,0.201
		C10.263,9.646,10.198,9.592,10.134,9.535z M10.142,9.081c0.061-0.059,0.12-0.118,0.18-0.177c0.065,0.058,0.128,0.113,0.189,0.168
		c-0.061,0.059-0.12,0.118-0.18,0.177C10.269,9.194,10.206,9.139,10.142,9.081L10.142,9.081z M10.367,8.86
		c0.061-0.059,0.12-0.117,0.181-0.176c0.064,0.056,0.129,0.113,0.19,0.167c-0.062,0.059-0.121,0.118-0.181,0.176
		C10.495,8.974,10.433,8.918,10.367,8.86z M10.334,8.409c0.067-0.066,0.137-0.131,0.206-0.196c0.071,0.065,0.142,0.128,0.211,0.189
		c-0.069,0.066-0.138,0.131-0.205,0.197C10.477,8.538,10.405,8.475,10.334,8.409L10.334,8.409z M10.585,8.169
		c0.062-0.058,0.123-0.115,0.185-0.174c0.071,0.064,0.142,0.128,0.212,0.189C10.92,8.242,10.857,8.3,10.797,8.358
		C10.729,8.297,10.656,8.234,10.585,8.169z M10.538,8.126c-0.062-0.056-0.125-0.112-0.188-0.17c0.061-0.057,0.123-0.115,0.184-0.174
		c0.063,0.058,0.126,0.114,0.188,0.17C10.66,8.01,10.6,8.067,10.538,8.126z M10.348,7.527c0.062-0.058,0.124-0.116,0.186-0.172
		c0.062,0.057,0.124,0.115,0.187,0.171c-0.062,0.057-0.124,0.114-0.186,0.171C10.474,7.642,10.41,7.584,10.348,7.527z M10.302,7.484
		c-0.069-0.064-0.139-0.128-0.209-0.194c0.061-0.058,0.124-0.113,0.186-0.172c0.07,0.066,0.141,0.13,0.208,0.194
		C10.425,7.37,10.363,7.427,10.302,7.484z M10.095,6.858c0.069-0.063,0.14-0.128,0.21-0.191c0.062,0.059,0.123,0.116,0.184,0.173
		c-0.069,0.063-0.14,0.128-0.209,0.191C10.219,6.975,10.157,6.918,10.095,6.858z M10.049,6.815C9.988,6.758,9.928,6.701,9.866,6.642
		c0.068-0.063,0.139-0.128,0.209-0.191c0.062,0.059,0.122,0.116,0.184,0.174C10.188,6.688,10.118,6.752,10.049,6.815z M9.82,6.598
		C9.753,6.533,9.686,6.467,9.616,6.401c0.069-0.064,0.14-0.128,0.21-0.192c0.067,0.067,0.136,0.132,0.204,0.197
		C9.96,6.47,9.89,6.534,9.82,6.598z M9.571,6.357c-0.06-0.06-0.12-0.117-0.18-0.177C9.46,6.117,9.53,6.054,9.601,5.989
		c0.061,0.06,0.12,0.119,0.181,0.176C9.711,6.229,9.641,6.293,9.571,6.357z M9.346,6.136c-0.06-0.059-0.119-0.118-0.179-0.178
		c0.069-0.063,0.14-0.128,0.209-0.191c0.061,0.06,0.12,0.118,0.18,0.178C9.485,6.008,9.415,6.072,9.346,6.136z M9.123,5.914
		c-0.066-0.066-0.133-0.133-0.2-0.201c0.069-0.063,0.14-0.128,0.21-0.191C9.199,5.59,9.266,5.656,9.332,5.723
		C9.263,5.786,9.192,5.851,9.123,5.914z M8.879,5.668C8.82,5.608,8.762,5.549,8.703,5.487c0.069-0.063,0.14-0.128,0.209-0.191
		c0.06,0.061,0.118,0.121,0.177,0.181C9.019,5.54,8.948,5.604,8.879,5.668z M8.658,5.441C8.6,5.382,8.542,5.321,8.483,5.261
		c0.069-0.064,0.139-0.128,0.209-0.192C8.751,5.13,8.809,5.19,8.867,5.25C8.798,5.313,8.728,5.378,8.658,5.441z M8.44,5.216
		C8.376,5.147,8.311,5.078,8.246,5.01c0.068-0.063,0.139-0.127,0.209-0.191c0.064,0.069,0.13,0.138,0.194,0.205
		C8.58,5.088,8.51,5.151,8.44,5.216z M8.202,4.964C8.144,4.903,8.086,4.842,8.03,4.78c0.068-0.064,0.139-0.128,0.209-0.192
		C8.297,4.65,8.354,4.712,8.411,4.772C8.341,4.836,8.271,4.9,8.202,4.964z M8.155,5.006C8.094,5.062,8.032,5.12,7.971,5.178
		C7.913,5.117,7.856,5.055,7.799,4.994c0.062-0.059,0.124-0.115,0.186-0.172C8.042,4.884,8.099,4.944,8.155,5.006L8.155,5.006z
		 M7.756,4.947C7.7,4.886,7.643,4.824,7.585,4.762c0.062-0.057,0.123-0.113,0.186-0.171c0.056,0.062,0.112,0.124,0.17,0.186
		C7.879,4.833,7.817,4.891,7.756,4.947L7.756,4.947z M7.544,4.715c-0.064-0.07-0.127-0.141-0.189-0.211
		c0.061-0.056,0.122-0.113,0.184-0.171c0.063,0.071,0.127,0.141,0.19,0.211C7.666,4.602,7.604,4.658,7.544,4.715L7.544,4.715z
		 M7.497,4.759c-0.06,0.058-0.122,0.115-0.183,0.173c-0.062-0.07-0.127-0.141-0.189-0.211c0.061-0.058,0.121-0.114,0.184-0.173
		C7.371,4.618,7.435,4.688,7.497,4.759z M7.083,4.673C7.027,4.61,6.972,4.547,6.917,4.484C6.978,4.427,7.038,4.369,7.1,4.312
		c0.056,0.063,0.111,0.127,0.168,0.189C7.205,4.559,7.145,4.616,7.083,4.673L7.083,4.673z M7.037,4.717
		C6.968,4.782,6.899,4.848,6.833,4.913C6.777,4.85,6.722,4.787,6.665,4.723c0.066-0.065,0.136-0.131,0.204-0.195
		C6.925,4.59,6.98,4.654,7.037,4.717L7.037,4.717z M6.624,4.676c-0.056-0.063-0.111-0.127-0.165-0.19
		C6.526,4.42,6.595,4.354,6.663,4.289C6.718,4.354,6.772,4.416,6.828,4.48C6.76,4.545,6.691,4.611,6.624,4.676z M6.578,4.72
		c-0.061,0.06-0.12,0.117-0.18,0.176C6.342,4.833,6.287,4.77,6.232,4.705c0.06-0.059,0.12-0.117,0.182-0.175
		C6.468,4.595,6.523,4.658,6.578,4.72L6.578,4.72z M6.19,4.657C6.129,4.585,6.067,4.513,6.006,4.44
		c0.061-0.059,0.12-0.116,0.182-0.175C6.248,4.338,6.31,4.41,6.372,4.482C6.311,4.541,6.25,4.6,6.19,4.657z M6.146,4.701
		C6.085,4.76,6.025,4.819,5.967,4.878C5.904,4.806,5.843,4.733,5.782,4.661c0.06-0.059,0.119-0.117,0.18-0.177
		C6.023,4.557,6.085,4.629,6.146,4.701L6.146,4.701z M5.921,4.922c-0.067,0.067-0.134,0.134-0.199,0.2
		C5.659,5.05,5.598,4.978,5.537,4.905c0.065-0.067,0.133-0.133,0.201-0.2C5.799,4.778,5.86,4.85,5.923,4.922H5.921z M5.496,4.857
		c-0.055-0.065-0.107-0.13-0.162-0.195c0.065-0.066,0.133-0.133,0.201-0.2c0.054,0.065,0.107,0.13,0.162,0.195
		C5.629,4.725,5.563,4.791,5.496,4.857z M5.451,4.902c-0.06,0.06-0.118,0.119-0.178,0.18C5.22,5.017,5.165,4.952,5.111,4.887
		c0.06-0.06,0.117-0.119,0.178-0.18C5.344,4.772,5.396,4.837,5.451,4.902z M5.229,5.127c-0.059,0.06-0.116,0.121-0.176,0.181
		C5,5.243,4.945,5.178,4.892,5.113c0.06-0.061,0.116-0.121,0.176-0.181C5.122,4.998,5.176,5.062,5.229,5.127L5.229,5.127z
		 M5.01,5.353C4.944,5.422,4.878,5.489,4.813,5.557c-0.055-0.064-0.109-0.13-0.162-0.194c0.064-0.068,0.131-0.137,0.196-0.204
		C4.901,5.223,4.956,5.288,5.01,5.353z M4.996,5.869c-0.06,0.062-0.118,0.122-0.174,0.184C4.76,5.98,4.698,5.907,4.638,5.834
		c0.057-0.061,0.115-0.121,0.174-0.183C4.873,5.724,4.934,5.797,4.996,5.869L4.996,5.869z M4.778,6.099
		C4.719,6.16,4.661,6.222,4.605,6.283C4.543,6.21,4.481,6.138,4.42,6.065c0.058-0.062,0.115-0.123,0.173-0.185
		C4.655,5.952,4.716,6.026,4.778,6.099z M4.77,6.568c-0.066,0.07-0.13,0.141-0.193,0.21C4.521,6.714,4.466,6.65,4.41,6.587
		c0.062-0.069,0.128-0.139,0.192-0.21C4.658,6.441,4.714,6.505,4.77,6.568z M4.812,6.617c0.056,0.063,0.111,0.127,0.167,0.189
		c-0.065,0.07-0.13,0.14-0.192,0.209C4.729,6.953,4.674,6.891,4.618,6.826C4.682,6.757,4.746,6.688,4.812,6.617z M4.977,7.32
		c-0.058,0.063-0.114,0.126-0.17,0.188c-0.063-0.069-0.128-0.141-0.19-0.211c0.056-0.062,0.112-0.124,0.17-0.188
		C4.85,7.18,4.913,7.25,4.977,7.32z M5.019,7.366C5.075,7.43,5.133,7.491,5.189,7.553C5.132,7.616,5.075,7.679,5.02,7.74
		C4.963,7.679,4.905,7.617,4.849,7.555C4.904,7.492,4.961,7.431,5.019,7.366L5.019,7.366z M5.192,8.019
		C5.136,8.082,5.079,8.145,5.023,8.207C4.966,8.146,4.909,8.084,4.851,8.022C4.906,7.961,4.963,7.897,5.02,7.834
		C5.077,7.896,5.135,7.957,5.192,8.019z M5.236,8.064c0.065,0.068,0.13,0.138,0.196,0.206C5.375,8.334,5.318,8.397,5.264,8.459
		C5.199,8.391,5.133,8.322,5.067,8.253C5.122,8.191,5.179,8.128,5.236,8.064z M5.477,8.315c0.059,0.062,0.117,0.121,0.175,0.182
		C5.594,8.561,5.537,8.624,5.482,8.686C5.424,8.625,5.366,8.563,5.308,8.503C5.363,8.441,5.419,8.379,5.477,8.315L5.477,8.315z
		 M5.695,8.542c0.059,0.061,0.118,0.12,0.177,0.18C5.814,8.785,5.758,8.849,5.703,8.91c-0.059-0.06-0.117-0.119-0.177-0.18
		C5.582,8.669,5.639,8.605,5.695,8.542z M5.916,8.768c0.067,0.067,0.134,0.135,0.2,0.201C6.059,9.032,6.002,9.095,5.947,9.156
		c-0.065-0.065-0.133-0.133-0.2-0.201C5.802,8.894,5.858,8.831,5.916,8.768z M6.16,9.014c0.06,0.06,0.12,0.118,0.179,0.177
		C6.282,9.254,6.226,9.317,6.17,9.379C6.111,9.32,6.051,9.262,5.991,9.201C6.046,9.14,6.103,9.077,6.16,9.014z M6.384,9.234
		c0.062,0.06,0.121,0.118,0.181,0.176C6.508,9.474,6.451,9.537,6.396,9.599c-0.06-0.059-0.12-0.117-0.18-0.176
		C6.271,9.361,6.328,9.298,6.384,9.234z M6.609,9.455c0.068,0.067,0.137,0.132,0.204,0.197C6.756,9.715,6.701,9.777,6.645,9.84
		C6.578,9.774,6.51,9.709,6.441,9.643C6.495,9.581,6.552,9.518,6.609,9.455z M6.859,9.695c0.062,0.059,0.123,0.116,0.183,0.174
		c-0.058,0.062-0.113,0.126-0.168,0.188C6.812,9.999,6.752,9.941,6.691,9.883C6.746,9.82,6.802,9.758,6.859,9.695z M7.088,9.912
		c0.062,0.059,0.123,0.115,0.184,0.173c-0.058,0.062-0.113,0.126-0.169,0.187c-0.061-0.056-0.121-0.113-0.183-0.171
		C6.975,10.039,7.03,9.976,7.088,9.912L7.088,9.912z M7.13,9.866C7.186,9.804,7.242,9.742,7.3,9.679
		c0.062,0.06,0.122,0.117,0.184,0.173c-0.058,0.063-0.115,0.125-0.17,0.188C7.253,9.981,7.191,9.925,7.13,9.866z M7.529,9.894
		c0.07,0.066,0.139,0.13,0.207,0.193c-0.058,0.062-0.114,0.125-0.17,0.186c-0.068-0.062-0.137-0.127-0.207-0.192
		C7.415,10.02,7.472,9.957,7.529,9.894z M7.782,10.13c0.063,0.058,0.125,0.114,0.186,0.171c-0.058,0.062-0.114,0.124-0.17,0.186
		c-0.061-0.055-0.123-0.111-0.185-0.169C7.668,10.257,7.725,10.193,7.782,10.13L7.782,10.13z M8.015,10.343
		c0.063,0.057,0.126,0.112,0.188,0.168c-0.059,0.063-0.115,0.125-0.17,0.187c-0.062-0.055-0.124-0.112-0.187-0.169
		C7.902,10.467,7.958,10.405,8.015,10.343L8.015,10.343z M8.058,10.296c0.063-0.068,0.127-0.138,0.192-0.208
		c0.062,0.058,0.126,0.114,0.186,0.169c-0.064,0.069-0.129,0.139-0.19,0.208C8.183,10.409,8.121,10.354,8.058,10.296z M8.483,10.3
		c0.072,0.064,0.143,0.128,0.211,0.188c-0.064,0.071-0.129,0.141-0.191,0.209c-0.069-0.062-0.141-0.125-0.211-0.188
		C8.354,10.438,8.419,10.369,8.483,10.3z M8.742,10.53c0.064,0.057,0.126,0.112,0.188,0.166c-0.065,0.071-0.129,0.14-0.192,0.208
		c-0.062-0.056-0.124-0.11-0.188-0.167c0.062-0.068,0.126-0.138,0.191-0.209V10.53z M8.785,10.483
		c0.057-0.061,0.114-0.121,0.171-0.183c0.064,0.057,0.127,0.112,0.189,0.167c-0.06,0.062-0.115,0.123-0.172,0.184
		C8.911,10.598,8.849,10.542,8.785,10.483z M9.192,10.509c0.064,0.057,0.128,0.112,0.189,0.166
		c-0.059,0.062-0.115,0.122-0.172,0.183c-0.062-0.054-0.125-0.108-0.19-0.165C9.076,10.632,9.134,10.57,9.192,10.509L9.192,10.509z
		 M9.235,10.463c0.057-0.062,0.115-0.121,0.173-0.184c0.064,0.058,0.129,0.112,0.19,0.166c-0.059,0.062-0.116,0.123-0.174,0.183
		C9.363,10.575,9.299,10.52,9.235,10.463L9.235,10.463z M9.452,10.234c0.064-0.068,0.13-0.137,0.195-0.204
		c0.065,0.058,0.129,0.111,0.191,0.166c-0.066,0.068-0.132,0.137-0.196,0.204C9.581,10.347,9.517,10.292,9.452,10.234L9.452,10.234z
		 M9.886,10.237c0.074,0.064,0.146,0.126,0.216,0.186c-0.066,0.067-0.132,0.137-0.197,0.205c-0.069-0.061-0.141-0.122-0.215-0.187
		C9.755,10.375,9.819,10.306,9.886,10.237z M9.931,10.192c0.058-0.06,0.116-0.12,0.176-0.18c0.074,0.064,0.146,0.126,0.216,0.185
		c-0.06,0.062-0.117,0.121-0.176,0.181C10.077,10.318,10.005,10.257,9.931,10.192L9.931,10.192z M10.149,9.967
		c0.059-0.06,0.117-0.119,0.177-0.179c0.074,0.064,0.147,0.127,0.216,0.187c-0.06,0.06-0.118,0.119-0.177,0.179
		c-0.069-0.06-0.142-0.121-0.215-0.185L10.149,9.967z M10.371,9.743c0.066-0.067,0.134-0.133,0.202-0.2
		c0.074,0.065,0.146,0.127,0.216,0.187c-0.069,0.067-0.136,0.134-0.202,0.2C10.519,9.87,10.445,9.808,10.371,9.743L10.371,9.743z
		 M10.379,9.289c0.06-0.058,0.119-0.118,0.181-0.177c0.064,0.057,0.129,0.113,0.19,0.167c-0.061,0.06-0.12,0.118-0.181,0.177
		C10.508,9.403,10.443,9.346,10.379,9.289z M10.604,9.068c0.06-0.059,0.121-0.117,0.181-0.176c0.064,0.058,0.129,0.113,0.191,0.167
		c-0.062,0.059-0.123,0.117-0.182,0.176C10.732,9.182,10.669,9.126,10.604,9.068z M10.593,8.641C10.662,8.575,10.73,8.51,10.8,8.444
		c0.064,0.058,0.127,0.113,0.188,0.168c-0.068,0.064-0.138,0.131-0.205,0.195C10.722,8.754,10.658,8.697,10.593,8.641z M11.213,7.97
		c-0.062,0.058-0.124,0.114-0.186,0.172c-0.069-0.062-0.14-0.125-0.213-0.189C10.877,7.895,10.938,7.838,11,7.78
		C11.072,7.846,11.143,7.908,11.213,7.97z M10.954,7.737c-0.062,0.057-0.124,0.114-0.185,0.172c-0.062-0.056-0.124-0.112-0.188-0.17
		c0.062-0.058,0.124-0.114,0.187-0.171C10.83,7.625,10.892,7.682,10.954,7.737z M10.976,7.29c-0.069,0.064-0.14,0.128-0.208,0.192
		c-0.062-0.057-0.124-0.114-0.187-0.171c0.069-0.064,0.139-0.128,0.21-0.192c0.062,0.059,0.124,0.115,0.187,0.171H10.976z
		 M10.743,7.076c-0.07,0.064-0.14,0.128-0.21,0.192c-0.069-0.064-0.139-0.128-0.209-0.194c0.069-0.063,0.14-0.128,0.211-0.191
		C10.605,6.949,10.675,7.013,10.743,7.076z M10.725,6.63c-0.062,0.056-0.125,0.111-0.188,0.168
		c-0.061-0.057-0.123-0.115-0.184-0.174c0.062-0.057,0.125-0.112,0.189-0.168c0.062,0.058,0.123,0.116,0.185,0.173L10.725,6.63z
		 M10.494,6.413c-0.062,0.056-0.126,0.111-0.188,0.168c-0.061-0.058-0.122-0.115-0.184-0.174c0.062-0.057,0.126-0.113,0.188-0.168
		C10.373,6.297,10.434,6.355,10.494,6.413L10.494,6.413z M10.266,6.195c-0.062,0.056-0.126,0.111-0.188,0.168
		c-0.067-0.065-0.136-0.13-0.204-0.197c0.062-0.056,0.125-0.112,0.188-0.168C10.13,6.065,10.197,6.13,10.266,6.195L10.266,6.195z
		 M10.016,5.954C9.953,6.011,9.89,6.066,9.827,6.122C9.767,6.064,9.708,6.005,9.646,5.946c0.062-0.056,0.126-0.113,0.188-0.169
		C9.896,5.838,9.956,5.896,10.016,5.954z M9.79,5.732C9.728,5.789,9.665,5.845,9.602,5.901c-0.06-0.059-0.119-0.118-0.179-0.178
		c0.062-0.057,0.124-0.112,0.188-0.169C9.671,5.614,9.73,5.673,9.79,5.732z M9.567,5.511C9.504,5.567,9.441,5.623,9.379,5.68
		c-0.066-0.066-0.134-0.133-0.2-0.201C9.24,5.422,9.304,5.366,9.366,5.31C9.434,5.378,9.5,5.443,9.567,5.511L9.567,5.511z
		 M9.323,5.265C9.261,5.321,9.197,5.377,9.136,5.434c-0.059-0.06-0.117-0.12-0.176-0.181c0.062-0.057,0.124-0.112,0.188-0.168
		C9.207,5.146,9.266,5.205,9.323,5.265L9.323,5.265z M9.103,5.04C9.039,5.096,8.977,5.151,8.915,5.208
		c-0.059-0.06-0.116-0.12-0.176-0.181c0.062-0.057,0.125-0.113,0.188-0.169C8.986,4.919,9.045,4.979,9.103,5.04z M8.885,4.813
		C8.821,4.87,8.759,4.925,8.696,4.981c-0.064-0.067-0.13-0.136-0.194-0.205C8.564,4.72,8.627,4.665,8.689,4.608
		C8.755,4.677,8.819,4.745,8.885,4.813z M8.474,4.377C8.531,4.439,8.588,4.5,8.646,4.562C8.583,4.617,8.52,4.674,8.458,4.73
		C8.4,4.67,8.343,4.608,8.286,4.547c0.062-0.056,0.125-0.111,0.188-0.168V4.377z M8.196,4.542C8.126,4.606,8.056,4.67,7.987,4.733
		C7.93,4.672,7.872,4.61,7.816,4.548c0.068-0.063,0.139-0.128,0.209-0.19C8.082,4.419,8.139,4.481,8.196,4.542L8.196,4.542z
		 M7.794,4.101c0.063,0.069,0.127,0.14,0.189,0.21c-0.07,0.062-0.14,0.128-0.209,0.19C7.711,4.433,7.647,4.362,7.584,4.29
		C7.653,4.227,7.724,4.163,7.794,4.101z M7.329,4.099C7.385,4.16,7.44,4.224,7.495,4.286C7.434,4.343,7.372,4.4,7.312,4.458
		C7.256,4.396,7.2,4.332,7.144,4.269C7.204,4.212,7.267,4.154,7.329,4.099L7.329,4.099z M6.892,4.073
		C6.945,4.138,7.001,4.2,7.057,4.265C6.995,4.322,6.935,4.38,6.874,4.438c-0.057-0.064-0.11-0.127-0.166-0.191
		C6.769,4.189,6.83,4.132,6.892,4.073L6.892,4.073z M6.438,4.025C6.499,4.099,6.561,4.17,6.622,4.242
		C6.553,4.308,6.485,4.373,6.418,4.438C6.356,4.366,6.294,4.294,6.233,4.222C6.3,4.156,6.37,4.091,6.438,4.025z M5.985,4.022
		c0.053,0.065,0.107,0.13,0.162,0.195C6.087,4.276,6.026,4.333,5.967,4.393c-0.055-0.065-0.108-0.13-0.161-0.195
		C5.864,4.139,5.926,4.081,5.985,4.022L5.985,4.022z M5.759,4.241c0.054,0.065,0.108,0.13,0.162,0.195
		C5.86,4.495,5.801,4.555,5.742,4.613C5.688,4.548,5.635,4.483,5.58,4.418C5.64,4.36,5.699,4.301,5.761,4.242L5.759,4.241z
		 M5.335,4.218c0.054,0.065,0.106,0.131,0.16,0.196c-0.068,0.067-0.136,0.134-0.201,0.2C5.24,4.548,5.187,4.483,5.134,4.417
		C5.2,4.351,5.267,4.284,5.335,4.218z M5.09,4.461c0.053,0.066,0.106,0.132,0.16,0.197c-0.06,0.06-0.118,0.12-0.177,0.179
		C5.02,4.772,4.966,4.706,4.913,4.641C4.972,4.581,5.03,4.522,5.09,4.461z M4.868,4.686c0.053,0.066,0.106,0.131,0.16,0.197
		c-0.061,0.061-0.118,0.12-0.177,0.18C4.799,4.997,4.745,4.932,4.692,4.866C4.75,4.806,4.808,4.746,4.868,4.686z M4.45,5.116
		c0.064-0.068,0.131-0.137,0.196-0.204C4.7,4.978,4.754,5.043,4.807,5.108C4.741,5.177,4.675,5.246,4.61,5.312
		C4.557,5.247,4.503,5.182,4.45,5.116z M4.607,5.408c0.054,0.065,0.107,0.13,0.162,0.194C4.711,5.664,4.652,5.726,4.596,5.786
		c-0.055-0.064-0.109-0.13-0.162-0.194C4.49,5.53,4.548,5.47,4.607,5.408z M4.217,5.821C4.273,5.762,4.33,5.699,4.39,5.638
		c0.054,0.064,0.107,0.13,0.162,0.194C4.493,5.895,4.436,5.956,4.379,6.017C4.324,5.951,4.27,5.887,4.217,5.821z M4.184,6.321
		c0.062-0.069,0.128-0.138,0.193-0.209C4.439,6.186,4.5,6.258,4.563,6.33C4.497,6.4,4.434,6.47,4.37,6.539
		C4.309,6.467,4.246,6.395,4.186,6.321H4.184z M4.196,6.82C4.252,6.758,4.31,6.696,4.367,6.633c0.056,0.063,0.111,0.128,0.167,0.191
		C4.477,6.887,4.419,6.95,4.363,7.012C4.308,6.949,4.252,6.885,4.196,6.82L4.196,6.82z M4.405,7.059
		c0.055-0.062,0.112-0.123,0.17-0.188c0.056,0.063,0.112,0.127,0.168,0.189C4.686,7.124,4.629,7.187,4.572,7.248
		C4.516,7.186,4.46,7.123,4.405,7.059L4.405,7.059z M4.404,7.531C4.459,7.47,4.516,7.406,4.573,7.343
		C4.638,7.414,4.7,7.484,4.764,7.555C4.706,7.618,4.65,7.681,4.596,7.743C4.531,7.673,4.468,7.603,4.404,7.531z M4.638,7.789
		c0.056-0.062,0.11-0.125,0.168-0.188C4.862,7.662,4.92,7.725,4.977,7.787C4.919,7.851,4.862,7.913,4.808,7.976
		C4.75,7.913,4.694,7.852,4.638,7.789z M4.619,8.282c0.062-0.069,0.125-0.141,0.189-0.213c0.059,0.062,0.115,0.124,0.173,0.185
		C4.917,8.326,4.854,8.397,4.793,8.467C4.736,8.405,4.678,8.344,4.621,8.282H4.619z M4.836,8.513
		c0.062-0.069,0.125-0.141,0.188-0.214c0.066,0.069,0.132,0.138,0.196,0.207C5.156,8.577,5.093,8.648,5.031,8.718
		C4.966,8.649,4.901,8.581,4.836,8.513L4.836,8.513z M5.076,8.764C5.137,8.694,5.2,8.624,5.265,8.552
		c0.059,0.061,0.117,0.121,0.175,0.181C5.375,8.805,5.312,8.876,5.251,8.945C5.192,8.886,5.135,8.824,5.076,8.764z M5.295,8.99
		C5.355,8.921,5.42,8.85,5.483,8.777c0.06,0.061,0.118,0.121,0.177,0.181C5.596,9.03,5.532,9.102,5.472,9.17
		C5.413,9.11,5.354,9.051,5.295,8.99z M5.516,9.215c0.062-0.068,0.125-0.14,0.188-0.212c0.067,0.067,0.135,0.135,0.2,0.201
		C5.84,9.276,5.776,9.348,5.716,9.416C5.649,9.351,5.583,9.282,5.516,9.215z M5.762,9.46c0.06-0.068,0.123-0.14,0.188-0.212
		c0.061,0.06,0.12,0.118,0.18,0.177C6.064,9.497,6.001,9.568,5.94,9.637C5.881,9.579,5.82,9.521,5.762,9.46z M5.985,9.683
		C6.046,9.613,6.109,9.542,6.174,9.47c0.061,0.06,0.12,0.118,0.18,0.176C6.29,9.718,6.227,9.789,6.165,9.858
		C6.106,9.801,6.045,9.742,5.985,9.683z M6.21,9.902c0.062-0.069,0.124-0.141,0.189-0.213c0.067,0.066,0.136,0.133,0.204,0.197
		C6.538,9.959,6.476,10.03,6.415,10.1C6.348,10.034,6.28,9.97,6.21,9.902z M6.461,10.142c0.061-0.068,0.124-0.14,0.188-0.212
		c0.062,0.059,0.122,0.116,0.183,0.174c-0.065,0.072-0.128,0.144-0.189,0.212C6.582,10.259,6.522,10.201,6.461,10.142z
		 M6.872,10.531c-0.061-0.057-0.121-0.114-0.184-0.173c0.062-0.068,0.124-0.14,0.189-0.212c0.062,0.059,0.123,0.115,0.183,0.173
		C6.996,10.392,6.933,10.463,6.872,10.531z M7.148,10.314c0.055-0.062,0.111-0.124,0.169-0.187c0.07,0.064,0.14,0.13,0.209,0.192
		c-0.058,0.064-0.114,0.125-0.169,0.188C7.289,10.444,7.221,10.38,7.148,10.314L7.148,10.314z M7.402,10.55
		c0.056-0.062,0.111-0.124,0.169-0.187c0.062,0.058,0.124,0.114,0.185,0.17c-0.057,0.062-0.112,0.125-0.168,0.187
		C7.527,10.665,7.465,10.608,7.402,10.55z M7.821,10.933c-0.061-0.056-0.124-0.111-0.188-0.17c0.056-0.062,0.111-0.122,0.169-0.187
		c0.062,0.058,0.124,0.113,0.187,0.168C7.931,10.808,7.876,10.87,7.821,10.933L7.821,10.933z M8.079,10.739
		c0.055-0.061,0.112-0.123,0.17-0.187c0.072,0.065,0.142,0.129,0.21,0.188c-0.058,0.062-0.114,0.125-0.169,0.186
		C8.22,10.865,8.15,10.802,8.079,10.739L8.079,10.739z M8.526,11.138c-0.062-0.055-0.125-0.11-0.188-0.167
		c0.055-0.062,0.111-0.124,0.17-0.187c0.063,0.057,0.127,0.111,0.188,0.167C8.639,11.014,8.582,11.076,8.526,11.138L8.526,11.138z
		 M8.976,11.113c-0.062-0.055-0.125-0.11-0.189-0.166c0.062-0.068,0.126-0.14,0.191-0.209c0.064,0.057,0.128,0.112,0.189,0.166
		C9.103,10.974,9.038,11.043,8.976,11.113z M9.473,11.085c-0.068-0.061-0.141-0.12-0.215-0.185c0.058-0.062,0.114-0.122,0.172-0.185
		c0.074,0.065,0.146,0.127,0.215,0.187C9.587,10.964,9.529,11.024,9.473,11.085z M9.688,10.855c-0.068-0.06-0.142-0.121-0.215-0.185
		c0.057-0.062,0.114-0.123,0.173-0.184c0.074,0.065,0.146,0.126,0.216,0.186C9.804,10.734,9.746,10.796,9.688,10.855z
		 M10.146,10.833c-0.062-0.053-0.126-0.106-0.192-0.164c0.064-0.066,0.13-0.135,0.196-0.204c0.067,0.057,0.131,0.111,0.193,0.163
		C10.276,10.696,10.211,10.765,10.146,10.833L10.146,10.833z M10.386,10.583c-0.062-0.052-0.126-0.106-0.193-0.163
		c0.059-0.061,0.116-0.12,0.176-0.181c0.067,0.057,0.131,0.112,0.193,0.163C10.503,10.464,10.443,10.523,10.386,10.583z
		 M10.606,10.357c-0.062-0.052-0.126-0.106-0.193-0.164c0.06-0.06,0.118-0.118,0.178-0.179c0.066,0.058,0.131,0.112,0.192,0.164
		C10.725,10.238,10.665,10.299,10.606,10.357z M11.029,9.934c-0.069,0.067-0.136,0.134-0.202,0.2
		c-0.062-0.052-0.127-0.106-0.193-0.164c0.066-0.067,0.134-0.134,0.202-0.2C10.902,9.827,10.967,9.882,11.029,9.934z M10.833,9.684
		c-0.07-0.06-0.142-0.122-0.216-0.186c0.06-0.059,0.119-0.118,0.18-0.177c0.074,0.064,0.146,0.127,0.216,0.186
		C10.952,9.566,10.892,9.626,10.833,9.684L10.833,9.684z M11.239,9.287c-0.061,0.059-0.122,0.118-0.182,0.176
		c-0.069-0.059-0.142-0.121-0.215-0.186c0.06-0.059,0.12-0.117,0.18-0.176C11.098,9.166,11.169,9.229,11.239,9.287z M11.021,9.017
		c-0.062-0.055-0.125-0.109-0.19-0.167c0.068-0.066,0.137-0.131,0.206-0.196c0.064,0.059,0.128,0.112,0.19,0.167
		C11.158,8.886,11.089,8.951,11.021,9.017z"/>
	<path fill="#EFEFEF" d="M6.511,3.525C6.51,3.526,6.51,3.526,6.509,3.527c0.001,0,0.002,0,0.004,0
		C6.513,3.526,6.512,3.526,6.511,3.525L6.511,3.525z"/>
	<path fill="#584F4B" d="M11.723,8.43c0-0.005-0.002-0.009-0.002-0.015c0-0.01-0.002-0.019-0.002-0.027
		c-0.003-0.021-0.003-0.041-0.006-0.061c0-0.001,0-0.001,0-0.001c0-0.002-0.001-0.004-0.001-0.005
		c-0.009-0.084-0.021-0.168-0.036-0.253c0-0.002,0-0.004,0-0.006c-0.005-0.022-0.01-0.044-0.014-0.066
		c-0.006-0.037-0.015-0.073-0.021-0.11V7.885c-0.004-0.021-0.011-0.042-0.016-0.063c-0.011-0.05-0.025-0.102-0.038-0.152
		c-0.004-0.009-0.006-0.02-0.009-0.03c0,0,0-0.001-0.001-0.002c-0.033-0.118-0.069-0.236-0.112-0.355
		c0-0.001-0.002-0.002-0.002-0.004c0-0.003-0.002-0.006-0.002-0.009c-0.029-0.079-0.06-0.156-0.093-0.235
		c-0.002-0.002-0.002-0.004-0.002-0.005V7.027c-0.009-0.02-0.018-0.04-0.026-0.06l0,0V6.967c-0.034-0.078-0.069-0.155-0.108-0.231
		c-0.001-0.001-0.001-0.004-0.002-0.006c-0.008-0.017-0.018-0.034-0.026-0.051c-0.026-0.05-0.052-0.101-0.079-0.149
		c-0.018-0.031-0.034-0.063-0.052-0.094c-0.002-0.004-0.005-0.008-0.007-0.012c0-0.001,0-0.002-0.002-0.003
		c0-0.001-0.002-0.002-0.002-0.003c-0.006-0.011-0.012-0.021-0.019-0.032c-0.053-0.09-0.108-0.178-0.166-0.266
		c-0.006-0.008-0.012-0.018-0.018-0.026c0-0.001,0-0.001,0-0.002c-0.117-0.173-0.243-0.342-0.382-0.508
		c-0.005-0.006-0.011-0.013-0.016-0.019c-0.001-0.001-0.001-0.001-0.002-0.002c-0.053-0.063-0.107-0.125-0.162-0.186l-0.002-0.001
		c0,0-0.001-0.001-0.001-0.002c-0.063-0.07-0.13-0.14-0.197-0.208c-0.165-0.165-0.336-0.318-0.513-0.46
		C9.584,4.706,9.583,4.705,9.582,4.705s0,0,0,0c-0.177-0.142-0.36-0.271-0.545-0.388C9.035,4.316,9.032,4.313,9.03,4.312
		C9.011,4.3,8.992,4.289,8.974,4.277C8.972,4.276,8.97,4.275,8.969,4.274C8.917,4.242,8.865,4.212,8.813,4.182
		C8.812,4.181,8.812,4.181,8.81,4.18C8.79,4.168,8.77,4.157,8.749,4.146C8.641,4.085,8.53,4.028,8.42,3.978
		C8.405,3.972,8.393,3.966,8.38,3.96c0,0,0,0-0.001,0c-0.096-0.043-0.19-0.085-0.285-0.121c-0.001,0-0.002-0.002-0.004-0.002
		c-0.001,0-0.001,0-0.001-0.001C8.08,3.833,8.069,3.829,8.06,3.824c-0.001,0-0.001,0-0.002-0.001
		C8.055,3.822,8.051,3.821,8.047,3.82C8.011,3.807,7.974,3.793,7.938,3.78c-0.001,0-0.003-0.001-0.004-0.001l0,0
		C7.849,3.75,7.765,3.723,7.68,3.698H7.679c-0.003-0.002-0.006-0.003-0.01-0.003C7.606,3.678,7.545,3.661,7.482,3.646
		c-0.001,0-0.001,0-0.003,0C7.447,3.639,7.416,3.632,7.385,3.625c-0.002,0-0.005-0.001-0.007-0.001
		C7.356,3.618,7.333,3.613,7.312,3.608c-0.001,0-0.001,0-0.002,0C7.25,3.598,7.192,3.587,7.135,3.577
		C7.087,3.57,7.041,3.563,6.994,3.559C6.979,3.557,6.965,3.555,6.949,3.552c-0.002,0-0.003,0-0.004,0
		C6.925,3.55,6.903,3.548,6.883,3.546C6.877,3.545,6.871,3.545,6.865,3.544c-0.004,0-0.008,0-0.011-0.001c0,0,0,0-0.001,0
		C6.738,3.532,6.625,3.527,6.512,3.527H6.511c-0.015,0-0.028,0-0.043,0.001c-0.016,0-0.031,0-0.047,0.001c-0.001,0-0.003,0-0.004,0
		s0,0,0,0C6.32,3.532,6.224,3.539,6.13,3.549c-0.001,0-0.002,0-0.004,0C6.102,3.552,6.077,3.555,6.053,3.558
		c-0.004,0-0.008,0.001-0.012,0.001c-0.01,0.001-0.02,0.002-0.03,0.004c0,0,0,0-0.001,0C5.972,3.568,5.936,3.575,5.897,3.583H5.896
		C5.623,3.634,5.363,3.721,5.125,3.845c-0.002,0-0.003,0.001-0.003,0.001C5.108,3.853,5.096,3.859,5.083,3.866
		C4.994,3.915,4.909,3.968,4.827,4.025l0,0C4.826,4.026,4.825,4.026,4.824,4.027c-0.083,0.06-0.164,0.124-0.24,0.193L4.583,4.222
		C4.567,4.236,4.552,4.25,4.537,4.265C4.525,4.276,4.514,4.285,4.502,4.297c-0.048,0.048-0.093,0.099-0.137,0.15
		C4.364,4.448,4.364,4.448,4.363,4.449C4.35,4.466,4.336,4.482,4.322,4.499L4.321,4.5c-0.14,0.174-0.253,0.364-0.343,0.566
		C3.974,5.079,3.968,5.093,3.962,5.105v0.001c-0.084,0.199-0.145,0.409-0.183,0.63v0.001C3.776,5.755,3.773,5.771,3.77,5.789
		C3.769,5.797,3.767,5.806,3.766,5.812l0,0c0,0,0,0.001,0,0.002C3.762,5.84,3.76,5.866,3.757,5.893c0,0.002-0.001,0.005-0.001,0.007
		V5.9C3.725,6.157,3.723,6.424,3.752,6.697c0,0.001,0,0.002,0,0.005c0,0,0,0.002,0,0.003C3.755,6.73,3.758,6.757,3.761,6.783v0.001
		c0,0.004,0.001,0.007,0.001,0.009c0.005,0.039,0.01,0.076,0.016,0.115v0.001C3.789,6.986,3.805,7.063,3.82,7.143l0,0
		c0.005,0.025,0.012,0.05,0.017,0.075V7.22C3.857,7.31,3.88,7.4,3.907,7.49c0,0.001,0,0.001,0.001,0.002
		c0.002,0.006,0.004,0.013,0.007,0.02C3.922,7.534,3.93,7.559,3.937,7.581c0.006,0.021,0.013,0.04,0.019,0.061v0.001
		c0.03,0.092,0.064,0.183,0.102,0.275c0,0.001,0.001,0.002,0.001,0.003s0.001,0.001,0.001,0.002c0.037,0.096,0.078,0.19,0.123,0.285
		v0.001c0,0,0.001,0.001,0.001,0.002C4.192,8.23,4.2,8.25,4.21,8.27c0,0,0,0.001,0.001,0.001c0.011,0.021,0.022,0.043,0.032,0.064
		c0,0.001,0,0.001,0.001,0.002c0.03,0.06,0.062,0.119,0.094,0.179c0.006,0.012,0.013,0.023,0.019,0.035
		C4.36,8.557,4.364,8.562,4.367,8.57c0,0.001,0.001,0.002,0.001,0.002c0.042,0.074,0.085,0.147,0.13,0.22
		C4.499,8.794,4.5,8.796,4.501,8.798S4.502,8.8,4.502,8.8c0.011,0.017,0.021,0.032,0.032,0.049C4.535,8.85,4.535,8.852,4.536,8.853
		c0.001,0.002,0.002,0.004,0.003,0.005c0.051,0.079,0.104,0.158,0.16,0.236L4.7,9.095c0.013,0.018,0.025,0.036,0.038,0.053
		C4.739,9.148,4.74,9.149,4.741,9.15c0.061,0.084,0.125,0.168,0.191,0.251c0,0,0,0.001,0.001,0.001s0.001,0.001,0.001,0.001
		c0.052,0.063,0.106,0.126,0.16,0.188c0.001,0.001,0.002,0.002,0.003,0.004C5.111,9.61,5.125,9.625,5.138,9.64
		c0.063,0.07,0.128,0.14,0.195,0.207C5.334,9.848,5.335,9.849,5.336,9.85c0.013,0.013,0.022,0.025,0.036,0.037
		C5.375,9.89,5.377,9.892,5.38,9.895c0.007,0.007,0.014,0.013,0.02,0.02c0.053,0.051,0.106,0.103,0.158,0.151
		c0.001,0.001,0.002,0.002,0.004,0.003c0.016,0.015,0.031,0.028,0.047,0.042c0.001,0.001,0.002,0.001,0.003,0.002
		c0.061,0.056,0.121,0.108,0.184,0.159c0.001,0.002,0.003,0.003,0.004,0.004c0.016,0.014,0.032,0.027,0.049,0.039
		c0.001,0.001,0.001,0.001,0.002,0.003c0.07,0.059,0.143,0.115,0.217,0.169c0.001,0.001,0.003,0.002,0.004,0.003
		c0.017,0.014,0.034,0.025,0.051,0.037l0.001,0.001c0.067,0.049,0.136,0.097,0.204,0.142c0.001,0,0.002,0.002,0.003,0.002
		c0.018,0.011,0.035,0.022,0.053,0.034c0,0,0.001,0,0.001,0.001c0.069,0.045,0.139,0.087,0.209,0.129
		c0.002,0.001,0.005,0.003,0.007,0.005c0.001,0.001,0.002,0.001,0.003,0.003c0.103,0.06,0.205,0.113,0.308,0.166
		c0,0,0.001,0,0.001,0.001c0.014,0.007,0.026,0.013,0.039,0.02c0.006,0.004,0.013,0.007,0.019,0.01c0,0,0,0,0.001,0
		c0.086,0.042,0.173,0.082,0.26,0.119c0.014,0.004,0.026,0.01,0.04,0.016c0.001,0.001,0.003,0.001,0.004,0.002
		c0.082,0.033,0.163,0.065,0.245,0.095c0.001,0,0.001,0,0.001,0.001c0.003,0.001,0.008,0.002,0.011,0.003
		c0.081,0.029,0.164,0.058,0.247,0.081h0.001c0.025,0.007,0.05,0.013,0.075,0.02c0.028,0.008,0.057,0.016,0.085,0.023
		c0.004,0.001,0.008,0.002,0.012,0.003l0,0c0.093,0.022,0.185,0.043,0.277,0.06c0.001,0,0.003,0.002,0.005,0.002
		c0.024,0.004,0.049,0.008,0.073,0.012c0.002,0,0.004,0.001,0.008,0.001c0.013,0.002,0.025,0.006,0.037,0.007h0.001
		c0.016,0.002,0.03,0.004,0.044,0.006c0.163,0.023,0.322,0.037,0.48,0.04c0.003,0,0.006,0,0.01,0c0.001,0,0.001,0,0.002,0
		c0.031,0.001,0.062,0,0.093,0c0.001,0,0.001,0,0.001,0c0.027,0,0.055,0,0.082-0.001c0.001,0,0.002,0,0.003,0
		c0.196-0.007,0.388-0.028,0.571-0.066l0,0c0.049-0.012,0.097-0.021,0.145-0.035c0,0,0,0,0.001,0
		c0.021-0.006,0.043-0.013,0.064-0.019c0.002-0.001,0.005-0.001,0.008-0.002h0.001c0.089-0.026,0.177-0.056,0.263-0.09
		c0.001,0,0.001,0,0.002-0.001c0.003-0.002,0.008-0.003,0.012-0.005c0.021-0.009,0.043-0.019,0.064-0.029
		c0.024-0.01,0.05-0.021,0.073-0.032l0,0c0.058-0.026,0.115-0.058,0.17-0.088c0,0,0.001-0.002,0.002-0.002
		c0.02-0.011,0.038-0.022,0.057-0.034l0,0c0.169-0.104,0.325-0.224,0.468-0.365c0.004-0.004,0.008-0.009,0.012-0.013
		c0.015-0.015,0.028-0.03,0.043-0.047c0-0.001,0-0.001,0.002-0.002c0.056-0.059,0.107-0.12,0.157-0.184
		c0.001-0.003,0.003-0.004,0.004-0.006s0.001-0.001,0.001-0.002c0.012-0.017,0.022-0.031,0.034-0.048
		c0.001-0.001,0.001-0.001,0.001-0.002s0,0,0,0c0.055-0.076,0.107-0.153,0.153-0.235c0-0.001,0.002-0.001,0.002-0.002
		s0-0.001,0-0.001c0.01-0.017,0.018-0.035,0.026-0.052c0.001-0.002,0.002-0.003,0.003-0.005l0,0
		c0.034-0.063,0.064-0.127,0.093-0.191c0.007-0.015,0.013-0.028,0.019-0.042V9.927c0.007-0.018,0.015-0.036,0.021-0.055
		c0.001-0.002,0.002-0.004,0.002-0.006c0-0.001,0-0.003,0.002-0.004c0.039-0.103,0.073-0.208,0.101-0.317c0-0.001,0-0.003,0-0.004
		c0.002-0.004,0.002-0.008,0.004-0.013c0.012-0.045,0.021-0.09,0.031-0.136c0-0.001,0-0.001,0-0.002
		c0.008-0.035,0.012-0.069,0.019-0.105c0-0.004,0.002-0.008,0.003-0.013c0.002-0.017,0.005-0.032,0.007-0.047V9.224
		c0.003-0.025,0.006-0.051,0.009-0.075c0-0.001,0-0.002,0-0.003c0.014-0.107,0.02-0.215,0.022-0.325c0-0.002,0-0.004,0-0.007
		c0-0.021,0.001-0.039,0.001-0.059V8.753c0-0.108-0.006-0.218-0.014-0.328V8.43z M4.434,5.095C4.46,5.046,4.491,4.999,4.521,4.952
		c0.022-0.036,0.048-0.071,0.073-0.105c0.011-0.014,0.021-0.027,0.032-0.041C4.63,4.802,4.634,4.798,4.638,4.792
		c0.05-0.062,0.103-0.123,0.16-0.181c0.003-0.003,0.005-0.005,0.008-0.009c0.016-0.015,0.03-0.028,0.045-0.042
		c0.06-0.056,0.12-0.108,0.184-0.156c0.027-0.021,0.056-0.04,0.083-0.061c0.067-0.047,0.139-0.09,0.21-0.13
		c0.006-0.003,0.012-0.006,0.019-0.01h0.001C5.359,4.197,5.375,4.19,5.389,4.183c0.076-0.038,0.156-0.073,0.237-0.104
		c0.015-0.006,0.028-0.011,0.043-0.016c0.007-0.002,0.013-0.005,0.02-0.007c0.08-0.029,0.162-0.052,0.245-0.072
		c0.001,0,0.002,0,0.003-0.001C5.941,3.981,5.945,3.98,5.95,3.979c0.017-0.004,0.032-0.007,0.048-0.011
		c0.007-0.003,0.015-0.004,0.022-0.006C6.029,3.961,6.039,3.96,6.049,3.958c0.001,0,0.001,0,0.002,0
		c0.097-0.02,0.195-0.033,0.295-0.042c0.014-0.001,0.027-0.002,0.04-0.004C6.415,3.91,6.442,3.908,6.47,3.907
		c0.029-0.001,0.057-0.002,0.085-0.003c0.007,0,0.012,0,0.019,0c0.058-0.001,0.114,0,0.174,0.002
		c0.029,0.001,0.059,0.001,0.088,0.003s0.058,0.005,0.087,0.008C6.937,3.918,6.951,3.919,6.966,3.92
		c0.026,0.002,0.052,0.006,0.078,0.009c0.005,0,0.01,0.001,0.014,0.002C7.104,3.937,7.15,3.942,7.198,3.95
		c0.038,0.007,0.078,0.014,0.118,0.021c0.015,0.003,0.028,0.005,0.043,0.008c0.027,0.005,0.055,0.012,0.082,0.018
		C7.537,4.02,7.633,4.045,7.73,4.072c0.017,0.006,0.033,0.011,0.049,0.017c0.003,0.001,0.006,0.002,0.01,0.003
		c0.003,0.001,0.006,0.002,0.009,0.003C7.834,4.106,7.87,4.117,7.906,4.131c0.001,0,0.003,0.001,0.004,0.002
		c0.062,0.021,0.126,0.046,0.188,0.07c0.023,0.01,0.045,0.019,0.068,0.029c0.084,0.034,0.167,0.072,0.249,0.111
		c0.021,0.01,0.041,0.021,0.061,0.031C8.528,4.4,8.578,4.428,8.63,4.456c0.029,0.016,0.059,0.031,0.087,0.048
		c0.018,0.01,0.034,0.021,0.053,0.031c0.001,0,0.001,0.001,0.002,0.001c0.083,0.049,0.165,0.1,0.247,0.154
		C9.021,4.693,9.025,4.696,9.03,4.698c0.015,0.009,0.03,0.02,0.045,0.029c0.07,0.048,0.14,0.099,0.208,0.15
		c0.011,0.009,0.021,0.016,0.032,0.024c0.006,0.006,0.013,0.011,0.02,0.016c0.067,0.053,0.133,0.104,0.198,0.16
		c0.015,0.014,0.032,0.027,0.048,0.041C9.652,5.181,9.722,5.246,9.79,5.312c0.015,0.015,0.03,0.029,0.045,0.044
		C9.847,5.367,9.858,5.378,9.87,5.39c0.048,0.048,0.095,0.097,0.141,0.146c0.015,0.016,0.029,0.031,0.042,0.047
		c0.057,0.062,0.112,0.126,0.165,0.189c0.014,0.016,0.027,0.033,0.041,0.048c0.06,0.074,0.118,0.149,0.174,0.225
		c0.012,0.017,0.023,0.034,0.036,0.052c0.05,0.068,0.098,0.14,0.143,0.209c0.013,0.019,0.024,0.035,0.035,0.054
		c0.046,0.073,0.089,0.146,0.13,0.22c0.005,0.01,0.01,0.019,0.016,0.027c0.005,0.009,0.01,0.02,0.016,0.029
		c0.025,0.047,0.05,0.093,0.073,0.141c0.02,0.039,0.04,0.079,0.058,0.12c0.011,0.019,0.019,0.039,0.027,0.059
		c0,0.001,0.001,0.001,0.001,0.002c0.036,0.082,0.072,0.163,0.104,0.245c0.008,0.021,0.016,0.042,0.024,0.064
		c0.01,0.024,0.019,0.049,0.026,0.074c0.016,0.041,0.028,0.081,0.041,0.121c0.008,0.021,0.014,0.043,0.021,0.064
		s0.014,0.045,0.021,0.066c0.029,0.104,0.055,0.21,0.077,0.313c0.002,0.017,0.007,0.033,0.009,0.049
		c0.002,0.009,0.004,0.016,0.004,0.023c0.004,0.024,0.01,0.052,0.015,0.076c0.012,0.075,0.022,0.151,0.03,0.227
		c0.002,0.025,0.004,0.054,0.006,0.079c0.002,0.022,0.004,0.045,0.005,0.067c0.003,0.029,0.003,0.058,0.004,0.086
		c0.002,0.061,0.002,0.123,0.001,0.182c-0.001,0.03-0.001,0.06-0.004,0.088c0,0.008-0.001,0.016-0.001,0.022
		c-0.001,0.013-0.001,0.024-0.002,0.037c-0.002,0.025-0.003,0.052-0.005,0.078c-0.01,0.104-0.025,0.206-0.045,0.306
		c-0.002,0.009-0.004,0.016-0.006,0.024c-0.004,0.023-0.011,0.046-0.016,0.069c-0.001,0.005-0.002,0.009-0.003,0.015
		c-0.001,0.002-0.001,0.003-0.001,0.005c-0.021,0.083-0.044,0.163-0.073,0.243c-0.004,0.011-0.008,0.021-0.012,0.033
		s-0.007,0.021-0.012,0.031c-0.031,0.082-0.066,0.161-0.107,0.239c0,0.002-0.002,0.005-0.004,0.007
		c-0.008,0.018-0.017,0.034-0.025,0.05c-0.03,0.055-0.062,0.108-0.097,0.16c-0.018,0.027-0.037,0.055-0.056,0.079
		c-0.014,0.019-0.026,0.035-0.039,0.052c-0.051,0.066-0.105,0.129-0.163,0.189c-0.011,0.01-0.019,0.02-0.029,0.029
		c-0.005,0.005-0.012,0.01-0.016,0.015c-0.062,0.06-0.125,0.115-0.193,0.168c-0.016,0.014-0.034,0.026-0.051,0.039
		c-0.019,0.014-0.039,0.026-0.058,0.041c-0.062,0.043-0.125,0.082-0.191,0.118c-0.008,0.003-0.014,0.007-0.021,0.011
		c-0.015,0.006-0.028,0.013-0.04,0.021c-0.083,0.042-0.168,0.08-0.256,0.112c-0.022,0.009-0.045,0.018-0.068,0.025
		c-0.062,0.021-0.124,0.04-0.188,0.057c-0.007,0.002-0.016,0.004-0.023,0.006c-0.026,0.007-0.054,0.013-0.081,0.019
		c-0.002,0.001-0.005,0.001-0.007,0.002c-0.022,0.006-0.048,0.01-0.071,0.015c-0.062,0.013-0.121,0.021-0.183,0.028H9.207
		c-0.062,0.008-0.124,0.014-0.187,0.017c-0.003,0-0.007,0-0.011,0.002c-0.026,0-0.052,0.002-0.079,0.004c-0.003,0-0.008,0-0.012,0
		c-0.106,0.002-0.215,0-0.323-0.007c-0.024-0.002-0.05-0.004-0.074-0.006c-0.002,0-0.003,0-0.005-0.001
		c-0.035-0.003-0.068-0.007-0.103-0.011c-0.067-0.008-0.134-0.019-0.201-0.029c-0.021-0.004-0.043-0.008-0.064-0.012
		c-0.003,0-0.006-0.001-0.008-0.001c-0.066-0.013-0.135-0.027-0.203-0.044c-0.036-0.01-0.074-0.021-0.111-0.029
		c-0.008-0.002-0.016-0.004-0.023-0.006c-0.015-0.005-0.029-0.008-0.045-0.012c-0.085-0.025-0.171-0.056-0.258-0.086
		c-0.01-0.004-0.019-0.008-0.028-0.01c-0.013-0.005-0.025-0.009-0.037-0.015c-0.081-0.031-0.164-0.065-0.246-0.102
		c-0.001,0-0.001,0-0.001,0c-0.02-0.009-0.039-0.018-0.059-0.027c-0.015-0.006-0.029-0.013-0.044-0.02
		c-0.067-0.032-0.134-0.064-0.201-0.102c-0.006-0.002-0.012-0.006-0.018-0.008c-0.019-0.012-0.038-0.021-0.057-0.033
		c-0.074-0.04-0.147-0.083-0.221-0.128c-0.018-0.012-0.036-0.022-0.055-0.033c0,0-0.001,0-0.001-0.001
		c-0.07-0.045-0.141-0.093-0.209-0.141c-0.019-0.013-0.036-0.025-0.053-0.038c-0.075-0.055-0.151-0.111-0.226-0.17
		c-0.016-0.014-0.032-0.028-0.048-0.04C5.935,9.989,5.871,9.935,5.809,9.879C5.798,9.87,5.787,9.86,5.776,9.851
		C5.771,9.846,5.766,9.842,5.761,9.835c-0.06-0.054-0.118-0.108-0.175-0.166C5.567,9.65,5.55,9.631,5.531,9.612
		c-0.064-0.067-0.129-0.136-0.19-0.205C5.327,9.392,5.312,9.375,5.3,9.36C5.244,9.295,5.19,9.229,5.138,9.163
		c-0.007-0.009-0.013-0.018-0.02-0.026S5.105,9.12,5.098,9.111C5.046,9.043,4.996,8.975,4.946,8.904
		c0-0.001-0.001-0.001-0.001-0.002C4.933,8.885,4.921,8.867,4.909,8.85C4.854,8.769,4.801,8.686,4.751,8.602
		C4.749,8.599,4.747,8.596,4.745,8.593C4.736,8.576,4.727,8.561,4.717,8.545C4.69,8.5,4.667,8.455,4.642,8.41
		C4.64,8.405,4.636,8.4,4.634,8.396C4.619,8.369,4.606,8.342,4.591,8.314C4.57,8.273,4.549,8.232,4.529,8.192
		C4.499,8.128,4.471,8.064,4.443,8C4.435,7.979,4.426,7.957,4.417,7.936c-0.041-0.1-0.078-0.199-0.11-0.3
		C4.298,7.609,4.289,7.583,4.282,7.559c-0.009-0.03-0.019-0.062-0.028-0.093C4.24,7.42,4.228,7.374,4.217,7.328
		C4.212,7.311,4.209,7.293,4.204,7.275c-0.003-0.015-0.007-0.03-0.01-0.046c-0.002-0.01-0.005-0.021-0.007-0.03
		C4.164,7.094,4.146,6.988,4.133,6.885C4.13,6.861,4.126,6.839,4.123,6.815C4.122,6.812,4.122,6.808,4.121,6.804
		C4.12,6.789,4.119,6.774,4.117,6.761C4.116,6.752,4.116,6.742,4.115,6.734C4.106,6.623,4.102,6.513,4.103,6.405
		c0-0.032,0-0.065,0.001-0.097c0.001-0.02,0.002-0.039,0.003-0.061c0-0.004,0-0.008,0.001-0.011C4.11,6.18,4.115,6.122,4.122,6.067
		c0-0.003,0.001-0.007,0.001-0.009c0.007-0.056,0.015-0.11,0.024-0.164c0.002-0.014,0.005-0.028,0.007-0.042
		C4.159,5.828,4.164,5.805,4.17,5.78c0-0.004,0.001-0.006,0.002-0.009c0.022-0.099,0.05-0.193,0.082-0.288
		C4.263,5.46,4.271,5.436,4.28,5.411c0.03-0.078,0.064-0.155,0.103-0.23c0.011-0.02,0.021-0.04,0.031-0.06
		c0.004-0.007,0.009-0.016,0.013-0.024L4.434,5.095z"/>
	<path fill="#584F4B" d="M12.698,12.667c0.086,0.046,0.118,0.151,0.073,0.237l0,0c-0.045,0.086-0.152,0.119-0.238,0.074
		l-1.393-1.016l-1.525-0.55c-0.086-0.047-0.118-0.152-0.073-0.238l0,0c0.045-0.086,0.152-0.118,0.238-0.073l1.59,0.586l1.328,0.981
		V12.667z"/>
	<path fill="#584F4B" d="M12.839,12.485c0.046,0.086,0.151,0.119,0.237,0.073l0,0c0.086-0.047,0.119-0.152,0.074-0.238l-1.016-1.393
		l-0.55-1.524c-0.047-0.086-0.152-0.119-0.238-0.074l0,0c-0.086,0.045-0.118,0.152-0.073,0.238l0.586,1.591L12.839,12.485
		L12.839,12.485z"/>
	<path fill="#45413F" d="M16.262,15.188c0.129,0.129,0.129,0.338,0,0.467l-0.413,0.413c-0.129,0.129-0.338,0.129-0.467,0
		l-3.737-3.737c-0.129-0.129-0.037-0.246,0.092-0.374l0.414-0.414c0.128-0.129,0.245-0.221,0.374-0.093L16.262,15.188z"/>
</g>
</svg>
