<?xml version="1.0" encoding="utf-8"?>
<!-- Generator: Adobe Illustrator 16.0.0, SVG Export Plug-In . SVG Version: 6.00 Build 0)  -->
<!DOCTYPE svg PUBLIC "-//W3C//DTD SVG 1.1//EN" "http://www.w3.org/Graphics/SVG/1.1/DTD/svg11.dtd">
<svg version="1.1" id="Layer_1" xmlns="http://www.w3.org/2000/svg" xmlns:xlink="http://www.w3.org/1999/xlink" x="0px" y="0px"
	 width="20px" height="20px" viewBox="0 0 20 20" enable-background="new 0 0 20 20" xml:space="preserve">
<g>
	<path fill="#65A844" d="M19.69,10c0,5.352-4.338,9.69-9.69,9.69c-5.352,0-9.69-4.339-9.69-9.69c0-5.351,4.339-9.69,9.69-9.69
		C15.353,0.31,19.69,4.648,19.69,10z"/>
	<path fill="#AB4925" d="M13.54,6.54c2.945,2.946,2.426,8.244,1.835,8.835c-0.592,0.59-5.889,1.111-8.835-1.835
		c-2.946-2.947-2.607-8.062-1.835-8.835C5.479,3.933,10.595,3.594,13.54,6.54z"/>
	<path fill="#F1EFF1" d="M15.704,11.239c0,0-0.363,0.126-1.44,0.95c-1.076,0.823-3.448,3.462-3.448,3.462
		c0.438,0.082,0.872,0.136,1.285,0.167c0,0,2.024-2.062,2.599-2.519c0.576-0.458,1.118-0.831,1.118-0.831
		C15.804,12.076,15.767,11.663,15.704,11.239L15.704,11.239z"/>
	<path fill="#F1EFF1" d="M8.727,4.25c0,0-1.521,0.298-2.226,0.823C5.797,5.601,4.21,8.416,4.21,8.416
		c0.048,0.365,0.117,0.74,0.21,1.118c0,0,2.241-3.514,2.902-3.997s2.546-1.028,2.546-1.028C9.484,4.398,9.102,4.312,8.727,4.25
		L8.727,4.25z"/>
	<path fill="#923E1F" d="M15.215,15.539c-0.812,0-4.136-1.188-6.811-3.863C5.558,8.829,4.156,5.071,4.615,4.613
		C4.679,4.549,4.783,4.52,4.935,4.52c1.025,0,4.156,1.297,6.744,3.883c2.859,2.86,4.167,6.686,3.788,7.062
		C15.416,15.515,15.336,15.538,15.215,15.539L15.215,15.539z M4.934,4.776c-0.108,0-0.139,0.021-0.14,0.021
		c-0.208,0.287,0.791,3.696,3.792,6.696c2.624,2.624,5.846,3.789,6.629,3.789c0.032,0,0.054-0.003,0.065-0.005
		c0.098-0.403-0.899-3.806-3.786-6.692C8.818,5.91,5.718,4.778,4.934,4.778V4.776z"/>
	<path fill="#D8D8D7" d="M13.996,11.625c-0.092,0-0.207-0.06-0.299-0.156c-0.02-0.021-1.598-1.907-2.134-2.464
		c-0.535-0.558-2.342-2.228-2.359-2.244C9.138,6.691,9.092,6.616,9.07,6.544c-0.024-0.087-0.012-0.16,0.037-0.207
		C9.195,6.252,9.383,6.305,9.522,6.45c0.014,0.013,1.705,1.562,2.369,2.253c0.662,0.691,2.116,2.444,2.13,2.463
		c0.061,0.062,0.105,0.138,0.128,0.211c0.024,0.086,0.013,0.158-0.038,0.204C14.082,11.61,14.041,11.624,13.996,11.625
		L13.996,11.625z M9.226,6.422c-0.01,0-0.021,0.001-0.028,0.007C9.187,6.441,9.186,6.471,9.195,6.507
		c0.016,0.052,0.051,0.11,0.101,0.161c0.016,0.015,1.824,1.688,2.362,2.247c0.538,0.559,2.121,2.449,2.137,2.468
		c0.074,0.078,0.156,0.114,0.201,0.114c0.01,0,0.021-0.002,0.028-0.008c0.013-0.012,0.013-0.042,0.002-0.078
		c-0.014-0.051-0.051-0.11-0.099-0.161c-0.018-0.021-1.468-1.771-2.129-2.459C11.14,8.103,9.451,6.557,9.435,6.542
		C9.354,6.458,9.273,6.422,9.226,6.422L9.226,6.422z"/>
	<path fill="#EAEAE9" d="M10.299,6.438c0.014,0.028,0.021,0.062,0.02,0.096c-0.009,0.095-0.092,0.164-0.186,0.156
		C10.03,6.682,9.728,6.678,9.565,6.764C9.397,6.853,9.19,7.138,9.131,7.229C9.079,7.31,8.973,7.332,8.893,7.28
		C8.813,7.229,8.79,7.124,8.842,7.043C8.869,6.999,9.128,6.606,9.404,6.46c0.28-0.149,0.711-0.118,0.759-0.113
		C10.223,6.352,10.272,6.388,10.299,6.438L10.299,6.438z"/>
	<path fill="#EAEAE9" d="M10.92,7.108c0.016,0.028,0.022,0.061,0.021,0.095c-0.009,0.095-0.093,0.164-0.187,0.156
		c-0.103-0.008-0.405-0.013-0.568,0.073C10.019,7.521,9.81,7.807,9.752,7.899C9.7,7.979,9.593,8.001,9.514,7.95
		S9.411,7.793,9.462,7.712c0.029-0.044,0.287-0.437,0.562-0.583c0.281-0.149,0.712-0.117,0.76-0.113
		c0.06,0.006,0.11,0.041,0.137,0.091L10.92,7.108z"/>
	<path fill="#EAEAE9" d="M11.826,7.906c0.015,0.028,0.022,0.061,0.019,0.095c-0.007,0.095-0.091,0.165-0.185,0.156
		c-0.103-0.008-0.405-0.013-0.567,0.073c-0.168,0.089-0.376,0.374-0.436,0.466C10.606,8.776,10.5,8.8,10.42,8.748
		c-0.081-0.052-0.104-0.157-0.052-0.237c0.028-0.044,0.287-0.437,0.563-0.584c0.28-0.149,0.71-0.116,0.757-0.112
		C11.75,7.819,11.799,7.854,11.826,7.906L11.826,7.906z"/>
	<path fill="#EAEAE9" d="M13.12,9.292c0.019,0.026,0.03,0.058,0.031,0.092c0.003,0.095-0.071,0.174-0.166,0.176
		c-0.104,0.004-0.405,0.033-0.557,0.138c-0.156,0.107-0.331,0.413-0.379,0.512c-0.042,0.085-0.146,0.119-0.23,0.078
		c-0.086-0.042-0.119-0.146-0.077-0.23c0.022-0.048,0.235-0.467,0.492-0.644c0.264-0.18,0.694-0.197,0.742-0.198
		c0.061-0.001,0.114,0.028,0.146,0.074L13.12,9.292z"/>
	<path fill="#EAEAE9" d="M12.5,8.537c0.018,0.026,0.029,0.059,0.03,0.092c0.002,0.096-0.072,0.174-0.167,0.176
		c-0.102,0.003-0.403,0.033-0.556,0.138c-0.156,0.107-0.331,0.413-0.379,0.512c-0.042,0.085-0.146,0.119-0.231,0.078
		c-0.083-0.042-0.12-0.146-0.077-0.231c0.023-0.047,0.236-0.466,0.494-0.643c0.263-0.181,0.692-0.196,0.741-0.198
		c0.062-0.001,0.114,0.028,0.146,0.074L12.5,8.537z"/>
	<path fill="#EAEAE9" d="M13.71,9.937c0.021,0.025,0.032,0.057,0.035,0.091c0.008,0.094-0.062,0.177-0.157,0.186
		c-0.103,0.008-0.402,0.055-0.547,0.167c-0.15,0.115-0.31,0.433-0.353,0.532c-0.036,0.087-0.137,0.128-0.225,0.09
		c-0.086-0.037-0.127-0.138-0.09-0.226c0.021-0.048,0.21-0.478,0.457-0.67c0.251-0.193,0.681-0.234,0.729-0.237
		c0.06-0.006,0.115,0.021,0.149,0.065V9.937z"/>
	<path fill="#EAEAE9" d="M14.385,10.707c0.02,0.026,0.03,0.056,0.032,0.091c0.007,0.096-0.067,0.176-0.161,0.182
		c-0.103,0.007-0.403,0.045-0.552,0.152c-0.152,0.112-0.317,0.423-0.364,0.523c-0.039,0.086-0.143,0.123-0.228,0.085
		c-0.086-0.039-0.125-0.143-0.084-0.229c0.021-0.047,0.221-0.472,0.474-0.656c0.257-0.187,0.688-0.215,0.735-0.22
		C14.297,10.634,14.352,10.662,14.385,10.707z"/>
</g>
</svg>
