<?xml version="1.0" encoding="utf-8"?>
<!-- Generator: Adobe Illustrator 16.0.0, SVG Export Plug-In . SVG Version: 6.00 Build 0)  -->
<!DOCTYPE svg PUBLIC "-//W3C//DTD SVG 1.1//EN" "http://www.w3.org/Graphics/SVG/1.1/DTD/svg11.dtd">
<svg version="1.1" id="Layer_1" xmlns="http://www.w3.org/2000/svg" xmlns:xlink="http://www.w3.org/1999/xlink" x="0px" y="0px"
	 width="20px" height="20px" viewBox="0 0 20 20" enable-background="new 0 0 20 20" xml:space="preserve">
<g>
	<path fill="#4ABC96" d="M19.69,10c0,5.351-4.338,9.69-9.69,9.69S0.31,15.353,0.31,10c0-5.352,4.338-9.69,9.69-9.69
		S19.69,4.647,19.69,10z"/>
	<path d="M12.02,16.951c0,0.124-0.1,0.097-0.224,0.097H8.243c-0.123,0-0.224,0.027-0.224-0.097v-0.152l0.521-0.785l-0.009-1.422
		c0-0.122,0.1-0.224,0.224-0.224h2.528c0.124,0,0.225,0.102,0.225,0.224l-0.008,1.426l0.521,0.781v0.152H12.02z"/>
	<path d="M12.02,16.799c0,0.124-0.1,0.096-0.224,0.096H8.243c-0.123,0-0.224,0.028-0.224-0.096l0.521-0.914l-0.009-1.422
		c0-0.122,0.1-0.224,0.224-0.224h2.528c0.124,0,0.225,0.1,0.225,0.224l-0.008,1.427l0.521,0.909H12.02z"/>
	<path d="M17.061,14.079c0,0.465-0.376,0.841-0.841,0.841h-12.4c-0.465,0-0.841-0.376-0.841-0.841V5.776
		c0-0.464,0.376-0.84,0.841-0.84h12.4c0.464,0,0.841,0.376,0.841,0.84V14.079z"/>
	<path fill="#1E1E1E" d="M3.583,5.502H16.43v7.001H3.583V5.502z"/>
	<path fill="#CCCBCF" d="M13.868,12.478H6.169l0.696-0.498h6.306L13.868,12.478z"/>
	<path fill="#98979B" d="M7.396,12.243c0,0.057-0.092,0.103-0.204,0.103c-0.113,0-0.204-0.046-0.204-0.103s0.091-0.103,0.204-0.103
		C7.305,12.141,7.396,12.187,7.396,12.243z"/>
	<path fill="#F6A2A3" d="M7.444,11.961c0,0.139-0.112,0.252-0.252,0.252S6.94,12.1,6.94,11.961c0-0.14,0.112-0.253,0.252-0.253
		S7.444,11.821,7.444,11.961z"/>
	<path fill="#98979B" d="M8.84,12.243c0,0.057-0.092,0.103-0.204,0.103S8.432,12.3,8.432,12.243s0.092-0.103,0.204-0.103
		S8.84,12.187,8.84,12.243z"/>
	<path fill="#F5E554" d="M8.888,11.961c0,0.139-0.112,0.252-0.252,0.252S8.384,12.1,8.384,11.961c0-0.14,0.112-0.253,0.252-0.253
		S8.888,11.821,8.888,11.961z"/>
	<path fill="#98979B" d="M10.283,12.243c0,0.057-0.092,0.103-0.204,0.103S9.875,12.3,9.875,12.243s0.092-0.103,0.204-0.103
		S10.283,12.187,10.283,12.243z"/>
	<path fill="#B5DBAF" d="M10.331,11.961c0,0.139-0.112,0.252-0.252,0.252c-0.139,0-0.252-0.113-0.252-0.252
		c0-0.14,0.113-0.253,0.252-0.253C10.219,11.708,10.331,11.821,10.331,11.961z"/>
	<path fill="#98979B" d="M11.728,12.243c0,0.057-0.092,0.103-0.204,0.103s-0.205-0.046-0.205-0.103s0.093-0.103,0.205-0.103
		S11.728,12.187,11.728,12.243z"/>
	<path fill="#6CC077" d="M11.774,11.961c0,0.139-0.112,0.252-0.251,0.252c-0.14,0-0.253-0.113-0.253-0.252
		c0-0.14,0.113-0.253,0.253-0.253C11.662,11.708,11.774,11.821,11.774,11.961z"/>
	<path fill="#98979B" d="M13.171,12.243c0,0.057-0.092,0.103-0.204,0.103s-0.205-0.046-0.205-0.103s0.093-0.103,0.205-0.103
		S13.171,12.187,13.171,12.243z"/>
	<path fill="#67B8CB" d="M13.219,11.961c0,0.139-0.113,0.252-0.252,0.252c-0.14,0-0.253-0.113-0.253-0.252
		c0-0.14,0.113-0.253,0.253-0.253C13.105,11.708,13.219,11.821,13.219,11.961z"/>
	<path fill="#98979B" d="M8.119,12.243c0,0.057-0.092,0.103-0.205,0.103c-0.112,0-0.204-0.046-0.204-0.103s0.092-0.103,0.204-0.103
		C8.027,12.141,8.119,12.187,8.119,12.243z"/>
	<path fill="#67B8CB" d="M8.212,11.925l-0.298,0.298l-0.297-0.298l0.297-0.298L8.212,11.925z"/>
	<path fill="#98979B" d="M9.562,12.243c0,0.057-0.091,0.103-0.204,0.103S9.154,12.3,9.154,12.243s0.091-0.103,0.204-0.103
		S9.562,12.187,9.562,12.243z"/>
	<path fill="#6CC077" d="M9.655,11.925l-0.297,0.298l-0.298-0.298l0.298-0.298L9.655,11.925z"/>
	<path fill="#98979B" d="M11.005,12.243c0,0.057-0.091,0.103-0.203,0.103c-0.114,0-0.205-0.046-0.205-0.103s0.091-0.103,0.205-0.103
		C10.914,12.141,11.005,12.187,11.005,12.243z"/>
	<path fill="#F6A2A3" d="M11.099,11.925l-0.297,0.298l-0.297-0.298l0.297-0.298L11.099,11.925z"/>
	<path fill="#98979B" d="M12.448,12.243c0,0.057-0.091,0.103-0.203,0.103c-0.113,0-0.205-0.046-0.205-0.103s0.092-0.103,0.205-0.103
		C12.357,12.141,12.448,12.187,12.448,12.243z"/>
	<path fill="#F5E554" d="M12.543,11.925l-0.298,0.298l-0.297-0.298l0.297-0.298L12.543,11.925z"/>
	<path fill="#08090B" d="M10.259,13.45c0.013,0.071-0.021,0.13-0.059,0.17c-0.03,0.034-0.073,0.06-0.134,0.058
		C10.056,13.554,10.154,13.466,10.259,13.45C10.259,13.45,10.259,13.45,10.259,13.45z"/>
	<path fill="#08090B" d="M10.44,13.784c-0.065,0.046-0.112,0.106-0.104,0.211c0.006,0.088,0.063,0.147,0.132,0.178
		c-0.016,0.047-0.034,0.088-0.058,0.125c-0.03,0.049-0.074,0.12-0.139,0.135c-0.074,0.016-0.12-0.043-0.2-0.037
		c-0.062,0.005-0.117,0.056-0.181,0.035c-0.029-0.011-0.062-0.043-0.081-0.067c-0.063-0.076-0.122-0.192-0.138-0.306
		c-0.013-0.098,0-0.182,0.039-0.247c0.041-0.066,0.117-0.131,0.219-0.118c0.025,0.002,0.05,0.012,0.073,0.021
		c0.02,0.008,0.046,0.022,0.07,0.022c0.023,0,0.053-0.017,0.075-0.024c0.026-0.01,0.055-0.021,0.082-0.022
		C10.334,13.68,10.396,13.729,10.44,13.784z"/>
	<path fill="#08090B" d="M3.583,12.503V5.502h10.104l0.395-0.564H3.818c-0.465,0-0.841,0.376-0.841,0.84v7.294h5.419l0.396-0.568
		H3.583L3.583,12.503z"/>
	<path d="M17.061,5.777c0-0.464-0.376-0.84-0.841-0.84h-2.139l-0.395,0.564h2.745v7.001H8.795l-0.396,0.568h8.662L17.061,5.777
		L17.061,5.777z"/>
</g>
</svg>
