<?xml version="1.0" encoding="utf-8"?>
<!-- Generator: Adobe Illustrator 16.0.0, SVG Export Plug-In . SVG Version: 6.00 Build 0)  -->
<!DOCTYPE svg PUBLIC "-//W3C//DTD SVG 1.1//EN" "http://www.w3.org/Graphics/SVG/1.1/DTD/svg11.dtd">
<svg version="1.1" id="Layer_1" xmlns="http://www.w3.org/2000/svg" xmlns:xlink="http://www.w3.org/1999/xlink" x="0px" y="0px"
	 width="20px" height="20px" viewBox="0 0 20 20" enable-background="new 0 0 20 20" xml:space="preserve">
<g>
	<path fill="#EDBF00" d="M19.69,10c0,5.351-4.338,9.69-9.69,9.69S0.31,15.353,0.31,10c0-5.352,4.338-9.69,9.69-9.69
		S19.69,4.647,19.69,10z"/>
	<path fill="#F3F4F5" d="M10.874,7.424c-0.02-0.371-0.126-0.866-0.494-1.276C9.953,5.673,9.299,5.431,8.436,5.431v0.92
		c0.551,0,0.945,0.128,1.176,0.381C9.8,6.939,9.864,7.208,9.879,7.424H9.193l1.173,1.643l1.173-1.643H10.874z"/>
	<path fill="#202121" d="M16.451,9.686c0.597,0,0.898,0.304,0.898,0.899v3.059c0,0.596-0.302,0.899-0.898,0.899H9.075
		c-0.597,0-0.899-0.304-0.899-0.899v-3.059c0-0.596,0.304-0.899,0.899-0.899H16.451z"/>
	<path fill="#121212" d="M17.082,12.102c0,0.199-0.161,0.36-0.36,0.36s-0.36-0.161-0.36-0.36c0-0.198,0.161-0.359,0.36-0.359
		S17.082,11.903,17.082,12.102z"/>
	<path d="M8.851,11.546c0.058,0,0.104,0.047,0.104,0.104v0.929c0,0.059-0.047,0.105-0.104,0.105l0,0
		c-0.058,0-0.105-0.047-0.105-0.105V11.65C8.745,11.593,8.793,11.546,8.851,11.546L8.851,11.546z"/>
	<path fill="#67B8CB" d="M9.323,9.933h6.702v4.386H9.323V9.933z"/>
	<path fill="#202121" d="M7.506,13.688c0,0.595-0.304,0.898-0.9,0.898H3.547c-0.596,0-0.898-0.304-0.898-0.898V6.312
		c0-0.595,0.304-0.898,0.898-0.898h3.059c0.597,0,0.9,0.304,0.9,0.898V13.688z"/>
	<path fill="#121212" d="M5.45,13.958c0,0.198-0.161,0.36-0.359,0.36c-0.199,0-0.36-0.162-0.36-0.36c0-0.199,0.161-0.359,0.36-0.359
		C5.289,13.599,5.45,13.759,5.45,13.958z"/>
	<path d="M5.646,6.087c0,0.058-0.047,0.104-0.104,0.104h-0.93c-0.059,0-0.105-0.047-0.105-0.104l0,0
		c0-0.058,0.047-0.104,0.105-0.104h0.93C5.599,5.982,5.646,6.029,5.646,6.087L5.646,6.087z"/>
	<path fill="#67B8CB" d="M2.873,6.559h4.385v6.702H2.873V6.559z"/>
</g>
</svg>
