<?xml version="1.0" encoding="utf-8"?>
<!-- Generated by IcoMoon.io -->
<!DOCTYPE svg PUBLIC "-//W3C//DTD SVG 1.1//EN" "http://www.w3.org/Graphics/SVG/1.1/DTD/svg11.dtd">
<svg version="1.1" xmlns="http://www.w3.org/2000/svg" xmlns:xlink="http://www.w3.org/1999/xlink" width="20" height="20" viewBox="0 0 20 20">
<path fill="rgb(224, 79, 95)" d="M19.691 10c0-5.352-4.339-9.691-9.69-9.691s-9.691 4.338-9.691 9.691c0 5.352 4.339 9.69 9.691 9.69s9.69-4.339 9.69-9.69z"></path>
<path fill="rgb(58, 58, 56)" d="M16.068 14.541c0 0.533-0.432 0.964-0.964 0.964h-10.207c-0.533 0-0.964-0.432-0.964-0.964v-2.532h12.136v2.532z"></path>
<path fill="rgb(234, 228, 218)" d="M15.104 4.495h-10.207c-0.533 0-0.964 0.432-0.964 0.964v4.302h12.136v-4.302c0-0.533-0.432-0.964-0.964-0.964z"></path>
<path fill="rgb(244, 239, 234)" d="M3.932 9.759h12.136v1.768h-12.136v-1.768z"></path>
<path fill="rgb(216, 206, 188)" d="M3.932 11.527h12.136v0.482h-12.136v-0.482z"></path>
<path fill="rgb(97, 88, 107)" d="M12.733 5.017h2.692v2.491h-2.692v-2.491z"></path>
<path fill="rgb(68, 64, 73)" d="M15.164 6.263c0 0.599-0.486 1.085-1.085 1.085s-1.085-0.486-1.085-1.085c0-0.599 0.486-1.085 1.085-1.085s1.085 0.486 1.085 1.085z"></path>
<path fill="rgb(47, 46, 48)" d="M14.708 6.263c0 0.348-0.282 0.63-0.63 0.63s-0.63-0.282-0.63-0.63c0-0.348 0.282-0.63 0.63-0.63s0.63 0.282 0.63 0.63z"></path>
<path fill="rgb(108, 107, 109)" d="M13.757 5.941c0.154-0.154 0.402-0.154 0.556 0s-0.402 0.71-0.556 0.556c-0.154-0.154-0.154-0.402 0-0.556z"></path>
<path fill="rgb(55, 47, 71)" d="M7.321 7.256c0 0.118-0.095 0.213-0.213 0.213h-2.361c-0.118 0-0.213-0.095-0.213-0.213v-0.78c0-0.118 0.095-0.213 0.213-0.213h2.361c0.117 0 0.213 0.095 0.213 0.213v0.78z"></path>
<path fill="rgb(216, 206, 188)" d="M10.435 11.527h0.002v0.482h-0.002v-0.482z"></path>
<path fill="rgb(249, 178, 246)" d="M9.255 12.009h0.298v0h-0.298v-0z"></path>
<path fill="rgb(244, 144, 244)" d="M9.256 11.527h0.298v0.482h-0.298v-0.482z"></path>
<path fill="rgb(234, 73, 73)" d="M9.553 12.009h0.293v0h-0.293v-0z"></path>
<path fill="rgb(226, 48, 48)" d="M9.554 11.527h0.293v0.482h-0.293v-0.482z"></path>
<path fill="rgb(242, 122, 42)" d="M9.848 12.009h0.293v0h-0.293v-0z"></path>
<path fill="rgb(244, 99, 17)" d="M9.848 11.527h0.293v0.482h-0.293v-0.482z"></path>
<path fill="rgb(242, 122, 42)" d="M9.846 12.009h0.002v0h-0.002v-0z"></path>
<path fill="rgb(249, 222, 58)" d="M10.141 12.009h0.295v0h-0.295v-0z"></path>
<path fill="rgb(247, 209, 22)" d="M10.141 11.527h0.295v0.482h-0.295v-0.482z"></path>
<path fill="rgb(249, 178, 246)" d="M9.256 9.761h0.298v1.766h-0.298v-1.766z"></path>
<path fill="rgb(244, 144, 244)" d="M9.256 8.794h0.298v0.966h-0.298v-0.966z"></path>
<path fill="rgb(234, 73, 73)" d="M9.554 9.761h0.293v1.766h-0.293v-1.766z"></path>
<path fill="rgb(226, 48, 48)" d="M9.554 8.794h0.293v0.966h-0.293v-0.966z"></path>
<path fill="rgb(242, 122, 42)" d="M9.848 9.761h0.293v1.766h-0.293v-1.766z"></path>
<path fill="rgb(244, 99, 17)" d="M9.848 8.794h0.293v0.966h-0.293v-0.966z"></path>
<path fill="rgb(249, 222, 58)" d="M10.141 9.761h0.295v1.766h-0.295v-1.766z"></path>
<path fill="rgb(247, 209, 22)" d="M10.141 8.794h0.295v0.966h-0.295v-0.966z"></path>
<path fill="rgb(74, 188, 150)" d="M10.437 9.761h0.295v1.766h-0.295v-1.766z"></path>
<path fill="rgb(68, 173, 135)" d="M10.437 8.794h0.295v0.966h-0.295v-0.966z"></path>
<path fill="rgb(74, 188, 150)" d="M10.437 12.009h0.295v0h-0.295v-0z"></path>
<path fill="rgb(68, 173, 135)" d="M10.437 11.527h0.295v0.482h-0.295v-0.482z"></path>
<path fill="rgb(216, 206, 188)" d="M12.224 6.973c0 1.228-0.996 2.224-2.224 2.224s-2.224-0.996-2.224-2.224c0-1.228 0.996-2.224 2.224-2.224s2.224 0.996 2.224 2.224z"></path>
<path fill="rgb(232, 232, 232)" d="M12.143 7.187c0 1.184-0.96 2.143-2.143 2.143s-2.143-0.96-2.143-2.143c0-1.184 0.96-2.143 2.143-2.143s2.143 0.96 2.143 2.143z"></path>
<path fill="rgb(31, 28, 55)" d="M12.009 7.187c0 1.11-0.9 2.009-2.009 2.009s-2.009-0.9-2.009-2.009c0-1.11 0.9-2.009 2.009-2.009s2.009 0.9 2.009 2.009z"></path>
<path fill="rgb(64, 60, 85)" d="M10.964 6.986c0 0.533-0.432 0.964-0.964 0.964s-0.964-0.432-0.964-0.964c0-0.533 0.432-0.964 0.964-0.964s0.964 0.432 0.964 0.964z"></path>
<path fill="rgb(102, 100, 119)" d="M9.467 6.453c0.319-0.319 0.837-0.319 1.156 0s-0.837 1.475-1.156 1.156c-0.319-0.319-0.319-0.836 0-1.156z"></path>
<path fill="rgb(252, 250, 238)" d="M6.839 8.714c0 0.503-0.408 0.911-0.911 0.911s-0.911-0.408-0.911-0.911c0-0.503 0.408-0.911 0.911-0.911s0.911 0.408 0.911 0.911z"></path>
<path fill="rgb(234, 73, 73)" d="M6.651 8.714c0 0.399-0.324 0.723-0.723 0.723s-0.723-0.324-0.723-0.723c0-0.399 0.324-0.723 0.723-0.723s0.723 0.324 0.723 0.723z"></path>
<path fill="rgb(62, 61, 63)" d="M14.229 8.714c0 0.399-0.324 0.723-0.723 0.723s-0.723-0.324-0.723-0.723c0-0.399 0.324-0.723 0.723-0.723s0.723 0.324 0.723 0.723z"></path>
<path fill="rgb(81, 81, 81)" d="M12.783 8.714c0-0.4 0.324-0.723 0.723-0.723s0.723 0.324 0.723 0.723h-1.447z"></path>
<path fill="rgb(47, 46, 48)" d="M13.995 8.714c0 0.27-0.219 0.489-0.489 0.489s-0.489-0.219-0.489-0.489c0-0.27 0.219-0.489 0.489-0.489s0.489 0.219 0.489 0.489z"></path>
<path fill="rgb(35, 35, 34)" d="M4.709 13.938h10.582v0.563h-10.582v-0.563z"></path>
</svg>
