<?xml version="1.0" encoding="utf-8"?>
<!-- Generator: Adobe Illustrator 16.0.0, SVG Export Plug-In . SVG Version: 6.00 Build 0)  -->
<!DOCTYPE svg PUBLIC "-//W3C//DTD SVG 1.1//EN" "http://www.w3.org/Graphics/SVG/1.1/DTD/svg11.dtd">
<svg version="1.1" id="Layer_1" xmlns="http://www.w3.org/2000/svg" xmlns:xlink="http://www.w3.org/1999/xlink" x="0px" y="0px"
	 width="20px" height="20px" viewBox="0 0 20 20" enable-background="new 0 0 20 20" xml:space="preserve">
<g>
	<path fill="#D7DABA" d="M19.69,10c0,5.351-4.338,9.69-9.69,9.69S0.31,15.353,0.31,10c0-5.352,4.338-9.69,9.69-9.69
		S19.69,4.647,19.69,10z"/>
	<path fill="#202121" d="M13.625,15.329c0,0.891-0.454,1.343-1.344,1.343H7.717c-0.89,0-1.343-0.452-1.343-1.343V4.319
		c0-0.891,0.453-1.344,1.343-1.344h4.564c0.89,0,1.344,0.453,1.344,1.344V15.329z"/>
	<path fill="#121212" d="M10.558,15.732c0,0.296-0.242,0.537-0.538,0.537s-0.537-0.241-0.537-0.537s0.241-0.537,0.537-0.537
		S10.558,15.437,10.558,15.732z"/>
	<path d="M10.851,3.983c0,0.087-0.07,0.157-0.157,0.157H9.306c-0.087,0-0.157-0.07-0.157-0.157l0,0c0-0.087,0.07-0.155,0.157-0.155
		h1.388C10.779,3.828,10.851,3.897,10.851,3.983L10.851,3.983z"/>
	<path d="M6.71,4.688h6.545v10.004H6.71V4.688z"/>
	<path fill="#6CC077" d="M8.22,14.19c0,0.146-0.119,0.266-0.266,0.266H7.178c-0.146,0-0.267-0.12-0.267-0.266v-0.777
		c0-0.146,0.12-0.266,0.267-0.266h0.776c0.146,0,0.266,0.12,0.266,0.266V14.19z"/>
	<path fill="#D3D4E3" d="M9.832,14.19c0,0.146-0.119,0.266-0.266,0.266H8.789c-0.146,0-0.266-0.12-0.266-0.266v-0.777
		c0-0.146,0.12-0.266,0.266-0.266h0.777c0.146,0,0.266,0.12,0.266,0.266V14.19z"/>
	<path fill="#D3D4E3" d="M11.443,14.19c0,0.146-0.118,0.266-0.266,0.266H10.4c-0.146,0-0.266-0.12-0.266-0.266v-0.777
		c0-0.146,0.119-0.266,0.266-0.266h0.777c0.147,0,0.266,0.12,0.266,0.266V14.19z"/>
	<path fill="#D3D4E3" d="M13.055,14.19c0,0.146-0.119,0.266-0.266,0.266h-0.777c-0.146,0-0.266-0.12-0.266-0.266v-0.777
		c0-0.146,0.119-0.266,0.266-0.266h0.777c0.146,0,0.266,0.12,0.266,0.266V14.19z"/>
	<path fill="#6CC077" d="M8.22,6.671c0,0.146-0.119,0.267-0.266,0.267H7.178c-0.146,0-0.267-0.12-0.267-0.267V5.895
		c0-0.146,0.12-0.266,0.267-0.266h0.776c0.146,0,0.266,0.119,0.266,0.266V6.671z"/>
	<path fill="#F5E554" d="M9.832,6.671c0,0.146-0.119,0.267-0.266,0.267H8.789c-0.146,0-0.266-0.12-0.266-0.267V5.895
		c0-0.146,0.12-0.266,0.266-0.266h0.777c0.146,0,0.266,0.119,0.266,0.266V6.671z"/>
	<path fill="#B5DBAF" d="M11.443,6.671c0,0.146-0.118,0.267-0.266,0.267H10.4c-0.146,0-0.266-0.12-0.266-0.267V5.895
		c0-0.146,0.119-0.266,0.266-0.266h0.777c0.147,0,0.266,0.119,0.266,0.266V6.671z"/>
	<path fill="#F6A2A3" d="M13.055,6.671c0,0.146-0.119,0.267-0.266,0.267h-0.777c-0.146,0-0.266-0.12-0.266-0.267V5.895
		c0-0.146,0.119-0.266,0.266-0.266h0.777c0.146,0,0.266,0.119,0.266,0.266V6.671z"/>
	<path fill="#B5DBAF" d="M8.22,8.282c0,0.146-0.119,0.266-0.266,0.266H7.178c-0.146,0-0.267-0.119-0.267-0.266V7.506
		c0-0.147,0.12-0.267,0.267-0.267h0.776c0.146,0,0.266,0.119,0.266,0.267V8.282z"/>
	<path fill="#F6A2A3" d="M9.832,8.282c0,0.146-0.119,0.266-0.266,0.266H8.789c-0.146,0-0.266-0.119-0.266-0.266V7.506
		c0-0.147,0.12-0.267,0.266-0.267h0.777c0.146,0,0.266,0.119,0.266,0.267V8.282z"/>
	<path fill="#67B8CB" d="M11.443,8.282c0,0.146-0.118,0.266-0.266,0.266H10.4c-0.146,0-0.266-0.119-0.266-0.266V7.506
		c0-0.147,0.119-0.267,0.266-0.267h0.777c0.147,0,0.266,0.119,0.266,0.267V8.282z"/>
	<path fill="#F5E554" d="M13.055,8.282c0,0.146-0.119,0.266-0.266,0.266h-0.777c-0.146,0-0.266-0.119-0.266-0.266V7.506
		c0-0.147,0.119-0.267,0.266-0.267h0.777c0.146,0,0.266,0.119,0.266,0.267V8.282z"/>
	<path fill="#67B8CB" d="M8.22,9.894c0,0.147-0.119,0.267-0.266,0.267H7.178c-0.146,0-0.267-0.119-0.267-0.267V9.117
		c0-0.146,0.12-0.266,0.267-0.266h0.776c0.146,0,0.266,0.119,0.266,0.266V9.894z"/>
	<path fill="#F5E554" d="M9.832,9.894c0,0.147-0.119,0.267-0.266,0.267H8.789c-0.146,0-0.266-0.119-0.266-0.267V9.117
		c0-0.146,0.12-0.266,0.266-0.266h0.777c0.146,0,0.266,0.119,0.266,0.266V9.894z"/>
	<path fill="#6CC077" d="M11.443,9.894c0,0.147-0.118,0.267-0.266,0.267H10.4c-0.146,0-0.266-0.119-0.266-0.267V9.117
		c0-0.146,0.119-0.266,0.266-0.266h0.777c0.147,0,0.266,0.119,0.266,0.266V9.894z"/>
	<path d="M6.71,4.688h6.543v0.549H6.71V4.688z"/>
	<path fill="#FFFFFF" d="M12.415,4.945c0,0.078-0.063,0.141-0.142,0.141c-0.077,0-0.14-0.062-0.14-0.141
		c0-0.077,0.062-0.14,0.14-0.14C12.352,4.806,12.415,4.868,12.415,4.945z"/>
	<path fill="#FFFFFF" d="M7.185,4.945c0,0.078-0.062,0.14-0.139,0.14s-0.14-0.062-0.14-0.14s0.063-0.139,0.14-0.139
		S7.185,4.869,7.185,4.945z"/>
	<path fill="#FFFFFF" d="M13.052,4.945c0,0.078-0.062,0.14-0.14,0.14c-0.076,0-0.14-0.062-0.14-0.14s0.063-0.139,0.14-0.139
		C12.989,4.807,13.052,4.869,13.052,4.945z"/>
</g>
</svg>
