<?xml version="1.0" encoding="utf-8"?>
<!-- Generator: Adobe Illustrator 16.0.0, SVG Export Plug-In . SVG Version: 6.00 Build 0)  -->
<!DOCTYPE svg PUBLIC "-//W3C//DTD SVG 1.1//EN" "http://www.w3.org/Graphics/SVG/1.1/DTD/svg11.dtd">
<svg version="1.1" id="Layer_1" xmlns="http://www.w3.org/2000/svg" xmlns:xlink="http://www.w3.org/1999/xlink" x="0px" y="0px"
	 width="20px" height="20px" viewBox="0 0 20 20" enable-background="new 0 0 20 20" xml:space="preserve">
<g>
	<path fill="#4ABC96" d="M0.31,10c0-5.353,4.338-9.69,9.69-9.69s9.69,4.338,9.69,9.69c0,5.351-4.338,9.69-9.69,9.69
		S0.31,15.353,0.31,10z"/>
	<path fill="#5E7564" d="M15.505,15.281c0,0.889-0.721,1.61-1.61,1.61H6.107c-0.891,0-1.611-0.722-1.611-1.61V4.719
		c0-0.89,0.721-1.611,1.611-1.611h7.787c0.89,0,1.61,0.722,1.61,1.611V15.281z"/>
	<path fill="#48584B" d="M14.699,14.072c0,0.891-0.722,1.611-1.611,1.611h-0.671c-0.89,0-1.611-0.721-1.611-1.611V6.062
		c0-0.89,0.722-1.61,1.611-1.61h0.671c0.89,0,1.611,0.721,1.611,1.61V14.072z"/>
	<path fill="#2F3A32" d="M14.502,13.944c0,0.861-0.698,1.56-1.56,1.56h-0.381c-0.861,0-1.56-0.698-1.56-1.56V6.189
		c0-0.861,0.698-1.56,1.56-1.56h0.381c0.861,0,1.56,0.698,1.56,1.56V13.944z"/>
	<path fill="#1E261F" d="M14.368,13.944c0,0.861-0.564,1.56-1.426,1.56h-0.381c-0.861,0-1.426-0.698-1.426-1.56
		c0,0,0.341-2.669,0.341-3.854S11.136,6.19,11.136,6.19c0-0.861,0.564-1.56,1.426-1.56h0.381c0.861,0,1.426,0.698,1.426,1.56
		c0,0-0.341,2.804-0.341,3.877c0,1.074,0.341,3.879,0.341,3.879V13.944z"/>
	<path fill="#28302A" d="M11.458,10.683c0.012-0.221,0.02-0.422,0.02-0.593c0-1.186-0.341-3.899-0.341-3.899
		c0-0.861,0.564-1.56,1.426-1.56h0.382c0.86,0,1.425,0.698,1.425,1.56c0,0-0.202,1.661-0.294,2.915L11.458,10.683z"/>
	<path fill="#48584B" d="M9.916,5.101c0-0.349-0.283-0.63-0.63-0.63H6.081c-0.349,0-0.63,0.282-0.63,0.63V7.31
		c0,0.349,0.282,0.63,0.63,0.63h3.205c0.349,0,0.63-0.282,0.63-0.63V5.101z"/>
	<path fill="#67B8CB" d="M5.838,4.799h3.658v2.806H5.838V4.799z"/>
	<path fill="#4D8A97" d="M6.156,5.604h2.992v0.378H6.156V5.604z"/>
	<path fill="#4D8A97" d="M6.156,6.41h2.992v0.378H6.156V6.41z"/>
	<path fill="#48584B" d="M9.899,9.432c0-0.349-0.283-0.631-0.631-0.631H6.065c-0.349,0-0.631,0.283-0.631,0.631v3.888
		c0,0.349,0.283,0.631,0.631,0.631h3.203c0.348,0,0.631-0.283,0.631-0.631V9.432z"/>
	<path fill="#232C25" d="M9.614,9.361c0-0.091-0.073-0.165-0.164-0.165H8.613c-0.091,0-0.164,0.074-0.164,0.165v0.576
		c0,0.092,0.073,0.165,0.164,0.165H9.45c0.091,0,0.164-0.073,0.164-0.165V9.361z"/>
	<path fill="#232C25" d="M6.919,9.361c0-0.091-0.073-0.165-0.164-0.165H5.918c-0.091,0-0.164,0.074-0.164,0.165v0.576
		c0,0.092,0.073,0.165,0.164,0.165h0.837c0.091,0,0.164-0.073,0.164-0.165V9.361z"/>
	<path fill="#232C25" d="M8.271,9.361c0-0.091-0.073-0.165-0.164-0.165H7.271c-0.091,0-0.164,0.074-0.164,0.165v0.576
		c0,0.092,0.073,0.165,0.164,0.165h0.837c0.091,0,0.164-0.073,0.164-0.165V9.361z"/>
	<path fill="#232C25" d="M9.614,10.517c0-0.092-0.073-0.165-0.164-0.165H8.613c-0.091,0-0.164,0.073-0.164,0.165v0.576
		c0,0.091,0.073,0.165,0.164,0.165H9.45c0.091,0,0.164-0.074,0.164-0.165V10.517z"/>
	<path fill="#232C25" d="M6.919,10.517c0-0.092-0.073-0.165-0.164-0.165H5.918c-0.091,0-0.164,0.073-0.164,0.165v0.576
		c0,0.091,0.073,0.165,0.164,0.165h0.837c0.091,0,0.164-0.074,0.164-0.165V10.517z"/>
	<path fill="#232C25" d="M8.271,10.517c0-0.092-0.073-0.165-0.164-0.165H7.271c-0.091,0-0.164,0.073-0.164,0.165v0.576
		c0,0.091,0.073,0.165,0.164,0.165h0.837c0.091,0,0.164-0.074,0.164-0.165V10.517z"/>
	<path fill="#232C25" d="M9.614,11.67c0-0.091-0.073-0.163-0.164-0.163H8.613c-0.091,0-0.164,0.072-0.164,0.163v0.577
		c0,0.092,0.073,0.165,0.164,0.165H9.45c0.091,0,0.164-0.073,0.164-0.165V11.67z"/>
	<path fill="#232C25" d="M6.919,11.67c0-0.091-0.073-0.163-0.164-0.163H5.918c-0.091,0-0.164,0.072-0.164,0.163v0.577
		c0,0.092,0.073,0.165,0.164,0.165h0.837c0.091,0,0.164-0.073,0.164-0.165V11.67z"/>
	<path fill="#232C25" d="M8.271,11.67c0-0.091-0.073-0.163-0.164-0.163H7.271c-0.091,0-0.164,0.072-0.164,0.163v0.577
		c0,0.092,0.073,0.165,0.164,0.165h0.837c0.091,0,0.164-0.073,0.164-0.165V11.67z"/>
	<path fill="#232C25" d="M9.614,12.778c0-0.09-0.073-0.163-0.164-0.163H8.613c-0.091,0-0.164,0.073-0.164,0.163v0.578
		c0,0.091,0.073,0.164,0.164,0.164H9.45c0.091,0,0.164-0.073,0.164-0.164V12.778z"/>
	<path fill="#232C25" d="M6.919,12.778c0-0.09-0.073-0.163-0.164-0.163H5.918c-0.091,0-0.164,0.073-0.164,0.163v0.578
		c0,0.091,0.073,0.164,0.164,0.164h0.837c0.091,0,0.164-0.073,0.164-0.164V12.778z"/>
	<path fill="#232C25" d="M8.271,12.778c0-0.09-0.073-0.163-0.164-0.163H7.271c-0.091,0-0.164,0.073-0.164,0.163v0.578
		c0,0.091,0.073,0.164,0.164,0.164h0.837c0.091,0,0.164-0.073,0.164-0.164V12.778z"/>
</g>
</svg>
