<?xml version="1.0" encoding="utf-8"?>
<!-- Generated by IcoMoon.io -->
<!DOCTYPE svg PUBLIC "-//W3C//DTD SVG 1.1//EN" "http://www.w3.org/Graphics/SVG/1.1/DTD/svg11.dtd">
<svg version="1.1" xmlns="http://www.w3.org/2000/svg" xmlns:xlink="http://www.w3.org/1999/xlink" width="20" height="20" viewBox="0 0 20 20">
<path fill="rgb(51, 77, 92)" d="M19.691 10c0-5.352-4.339-9.691-9.69-9.691s-9.691 4.338-9.691 9.691c0 5.352 4.339 9.69 9.691 9.69s9.69-4.339 9.69-9.69z"></path>
<path fill="rgb(203, 203, 201)" d="M13.042 16.829c0-0.959-1.368-1.737-3.055-1.737s-3.055 0.778-3.055 1.737h6.11z"></path>
<path fill="rgb(203, 203, 201)" d="M12.090 10.354h0v-4.487h-4.208v4.487h0.001c-0 0.012-0.001 0.024-0.001 0.036 0 1.162 0.942 2.104 2.104 2.104s2.104-0.942 2.104-2.104c0-0.012-0.001-0.024-0.001-0.036z"></path>
<path fill="rgb(221, 221, 221)" d="M9.987 5.867h-2.104v4.487h0.001c-0 0.012-0.001 0.024-0.001 0.036 0 1.162 0.942 2.104 2.104 2.104v-6.627z"></path>
<path fill="rgb(203, 203, 201)" d="M9.417 13.621h1.139v1.606h-1.139v-1.606z"></path>
<path fill="rgb(112, 112, 112)" d="M12.091 5.275c0-1.162-0.942-2.104-2.104-2.104s-2.104 0.942-2.104 2.104v0 0 2.288h4.208v-2.267c0-0.007 0.001-0.014 0.001-0.021z"></path>
<path fill="rgb(132, 132, 132)" d="M9.987 3.171c-1.162 0-2.104 0.942-2.104 2.104v0 0 2.288h2.104v-4.393z"></path>
<path fill="rgb(203, 203, 201)" d="M6.879 7.528h6.228v0.509h-6.228v-0.509z"></path>
<path fill="rgb(221, 221, 219)" d="M12.12 7.252h-4.253c-0.054 0-0.098 0.044-0.098 0.098v0.838c0 0.054 0.044 0.098 0.098 0.098h4.253c0.054 0 0.098-0.044 0.098-0.098v-0.838c0-0.054-0.044-0.098-0.098-0.098z"></path>
<path fill="rgb(221, 221, 219)" d="M12.12 9.049h-4.253c-0.054 0-0.098 0.044-0.098 0.098v0.838c0 0.054 0.044 0.098 0.098 0.098h4.253c0.054 0 0.098-0.044 0.098-0.098v-0.838c0-0.054-0.044-0.098-0.098-0.098z"></path>
<path fill="rgb(234, 234, 234)" d="M7.769 7.35v0.838c0 0.054 0.044 0.098 0.098 0.098h2.12v-1.033h-2.12c-0.054 0-0.098 0.044-0.098 0.098z"></path>
<path fill="rgb(234, 234, 234)" d="M7.769 9.147v0.838c0 0.054 0.044 0.098 0.098 0.098h2.12v-1.033h-2.12c-0.054 0-0.098 0.044-0.098 0.098z"></path>
<path fill="rgb(91, 91, 91)" d="M13.383 7.376h-0.175c-0.052 0-0.093 0.042-0.093 0.093v0.627c0 0.051 0.042 0.093 0.093 0.093h0.175c0.052 0 0.093-0.042 0.093-0.093v-0.627c0-0.051-0.042-0.093-0.093-0.093z"></path>
<path fill="rgb(91, 91, 91)" d="M6.791 7.376h-0.175c-0.052 0-0.093 0.042-0.093 0.093v0.627c0 0.051 0.042 0.093 0.093 0.093h0.175c0.052 0 0.093-0.042 0.093-0.093v-0.627c0-0.051-0.042-0.093-0.093-0.093z"></path>
<path fill="rgb(181, 181, 181)" d="M9.206 6.738c0 0.114-0.093 0.207-0.207 0.207s-0.207-0.093-0.207-0.207c0-0.114 0.093-0.207 0.207-0.207s0.207 0.093 0.207 0.207z"></path>
<path fill="rgb(181, 181, 181)" d="M8.551 6.738c0 0.114-0.093 0.207-0.207 0.207s-0.207-0.093-0.207-0.207c0-0.114 0.093-0.207 0.207-0.207s0.207 0.093 0.207 0.207z"></path>
<path fill="rgb(181, 181, 181)" d="M9.863 6.738c0 0.114-0.093 0.207-0.207 0.207s-0.207-0.093-0.207-0.207c0-0.114 0.093-0.207 0.207-0.207s0.207 0.093 0.207 0.207z"></path>
<path fill="rgb(153, 153, 152)" d="M10.52 6.738c0 0.114-0.093 0.207-0.207 0.207s-0.207-0.093-0.207-0.207c0-0.114 0.093-0.207 0.207-0.207s0.207 0.093 0.207 0.207z"></path>
<path fill="rgb(153, 153, 152)" d="M11.176 6.738c0 0.114-0.093 0.207-0.207 0.207s-0.207-0.093-0.207-0.207c0-0.114 0.093-0.207 0.207-0.207s0.207 0.093 0.207 0.207z"></path>
<path fill="rgb(153, 153, 152)" d="M11.833 6.738c0 0.114-0.092 0.207-0.207 0.207s-0.207-0.092-0.207-0.207c0-0.114 0.093-0.207 0.207-0.207s0.207 0.093 0.207 0.207z"></path>
<path fill="rgb(181, 181, 181)" d="M9.206 6.149c0 0.114-0.093 0.207-0.207 0.207s-0.207-0.093-0.207-0.207c0-0.114 0.093-0.207 0.207-0.207s0.207 0.093 0.207 0.207z"></path>
<path fill="rgb(181, 181, 181)" d="M8.551 6.149c0 0.114-0.093 0.207-0.207 0.207s-0.207-0.093-0.207-0.207c0-0.114 0.093-0.207 0.207-0.207s0.207 0.093 0.207 0.207z"></path>
<path fill="rgb(181, 181, 181)" d="M9.863 6.149c0 0.114-0.093 0.207-0.207 0.207s-0.207-0.093-0.207-0.207c0-0.114 0.093-0.207 0.207-0.207s0.207 0.093 0.207 0.207z"></path>
<path fill="rgb(153, 153, 152)" d="M10.52 6.149c0 0.114-0.093 0.207-0.207 0.207s-0.207-0.093-0.207-0.207c0-0.114 0.093-0.207 0.207-0.207s0.207 0.093 0.207 0.207z"></path>
<path fill="rgb(153, 153, 152)" d="M11.176 6.149c0 0.114-0.093 0.207-0.207 0.207s-0.207-0.093-0.207-0.207c0-0.114 0.093-0.207 0.207-0.207s0.207 0.093 0.207 0.207z"></path>
<path fill="rgb(153, 153, 152)" d="M11.833 6.149c0 0.114-0.092 0.207-0.207 0.207s-0.207-0.092-0.207-0.207c0-0.114 0.093-0.207 0.207-0.207s0.207 0.092 0.207 0.207z"></path>
<path fill="rgb(181, 181, 181)" d="M9.206 5.558c0 0.114-0.093 0.207-0.207 0.207s-0.207-0.093-0.207-0.207c0-0.114 0.093-0.207 0.207-0.207s0.207 0.093 0.207 0.207z"></path>
<path fill="rgb(181, 181, 181)" d="M8.551 5.558c0 0.114-0.093 0.207-0.207 0.207s-0.207-0.093-0.207-0.207c0-0.114 0.093-0.207 0.207-0.207s0.207 0.093 0.207 0.207z"></path>
<path fill="rgb(181, 181, 181)" d="M9.863 5.558c0 0.114-0.093 0.207-0.207 0.207s-0.207-0.093-0.207-0.207c0-0.114 0.093-0.207 0.207-0.207s0.207 0.093 0.207 0.207z"></path>
<path fill="rgb(153, 153, 152)" d="M10.52 5.558c0 0.114-0.093 0.207-0.207 0.207s-0.207-0.093-0.207-0.207c0-0.114 0.093-0.207 0.207-0.207s0.207 0.093 0.207 0.207z"></path>
<path fill="rgb(153, 153, 152)" d="M11.176 5.558c0 0.114-0.093 0.207-0.207 0.207s-0.207-0.093-0.207-0.207c0-0.114 0.093-0.207 0.207-0.207s0.207 0.093 0.207 0.207z"></path>
<path fill="rgb(153, 153, 152)" d="M11.833 5.558c0 0.114-0.092 0.207-0.207 0.207s-0.207-0.092-0.207-0.207c0-0.114 0.093-0.207 0.207-0.207s0.207 0.093 0.207 0.207z"></path>
<path fill="rgb(181, 181, 181)" d="M9.206 4.968c0 0.114-0.093 0.207-0.207 0.207s-0.207-0.093-0.207-0.207c0-0.114 0.093-0.207 0.207-0.207s0.207 0.093 0.207 0.207z"></path>
<path fill="rgb(181, 181, 181)" d="M8.551 4.968c0 0.114-0.093 0.207-0.207 0.207s-0.207-0.093-0.207-0.207c0-0.114 0.093-0.207 0.207-0.207s0.207 0.093 0.207 0.207z"></path>
<path fill="rgb(181, 181, 181)" d="M9.863 4.968c0 0.114-0.093 0.207-0.207 0.207s-0.207-0.093-0.207-0.207c0-0.114 0.093-0.207 0.207-0.207s0.207 0.093 0.207 0.207z"></path>
<path fill="rgb(153, 153, 152)" d="M10.52 4.968c0 0.114-0.093 0.207-0.207 0.207s-0.207-0.093-0.207-0.207c0-0.114 0.093-0.207 0.207-0.207s0.207 0.093 0.207 0.207z"></path>
<path fill="rgb(153, 153, 152)" d="M11.176 4.968c0 0.114-0.093 0.207-0.207 0.207s-0.207-0.093-0.207-0.207c0-0.114 0.093-0.207 0.207-0.207s0.207 0.093 0.207 0.207z"></path>
<path fill="rgb(153, 153, 152)" d="M11.833 4.968c0 0.114-0.092 0.207-0.207 0.207s-0.207-0.093-0.207-0.207c0-0.114 0.093-0.207 0.207-0.207s0.207 0.092 0.207 0.207z"></path>
<path fill="rgb(181, 181, 181)" d="M9.206 4.377c0 0.114-0.093 0.207-0.207 0.207s-0.207-0.093-0.207-0.207c0-0.114 0.093-0.207 0.207-0.207s0.207 0.093 0.207 0.207z"></path>
<path fill="rgb(181, 181, 181)" d="M9.863 4.377c0 0.114-0.093 0.207-0.207 0.207s-0.207-0.093-0.207-0.207c0-0.114 0.093-0.207 0.207-0.207s0.207 0.093 0.207 0.207z"></path>
<path fill="rgb(153, 153, 152)" d="M10.52 4.377c0 0.114-0.093 0.207-0.207 0.207s-0.207-0.093-0.207-0.207c0-0.114 0.093-0.207 0.207-0.207s0.207 0.093 0.207 0.207z"></path>
<path fill="rgb(153, 153, 152)" d="M11.176 4.377c0 0.114-0.093 0.207-0.207 0.207s-0.207-0.093-0.207-0.207c0-0.114 0.093-0.207 0.207-0.207s0.207 0.093 0.207 0.207z"></path>
<path fill="rgb(181, 181, 181)" d="M9.863 3.787c0 0.114-0.093 0.207-0.207 0.207s-0.207-0.093-0.207-0.207c0-0.114 0.093-0.207 0.207-0.207s0.207 0.093 0.207 0.207z"></path>
<path fill="rgb(153, 153, 152)" d="M10.52 3.787c0 0.114-0.093 0.207-0.207 0.207s-0.207-0.093-0.207-0.207c0-0.114 0.093-0.207 0.207-0.207s0.207 0.093 0.207 0.207z"></path>
</svg>
