<?xml version="1.0" encoding="utf-8"?>
<!-- Generated by IcoMoon.io -->
<!DOCTYPE svg PUBLIC "-//W3C//DTD SVG 1.1//EN" "http://www.w3.org/Graphics/SVG/1.1/DTD/svg11.dtd">
<svg version="1.1" xmlns="http://www.w3.org/2000/svg" xmlns:xlink="http://www.w3.org/1999/xlink" width="20" height="20" viewBox="0 0 20 20">
<path fill="rgb(37, 183, 211)" d="M19.691 10c0-5.352-4.339-9.691-9.69-9.691s-9.691 4.338-9.691 9.691c0 5.352 4.339 9.69 9.691 9.69s9.69-4.339 9.69-9.69z"></path>
<path fill="rgb(1, 1, 1)" d="M5.749 5.915c0-0.257-0.114-0.465-0.255-0.465h-1.071c-0.141 0-0.255 0.208-0.255 0.465s0.115 0.465 0.255 0.465h1.071c0.141 0 0.255-0.208 0.255-0.465z"></path>
<path fill="rgb(32, 33, 33)" d="M16.607 7.484c0-0.45-0.364-0.815-0.814-0.815h-11.587c-0.45 0-0.814 0.365-0.814 0.815v6.058c0 0.45 0.364 0.814 0.814 0.814h11.587c0.45 0 0.814-0.364 0.814-0.814v-6.058z"></path>
<path fill="rgb(32, 33, 33)" d="M9.081 6.907c0-0.546-0.369-0.99-0.824-0.99h-4.040c-0.455 0-0.824 0.444-0.824 0.99v2.352c0 0.547 0.369 0.99 0.824 0.99h4.040c0.455 0 0.824-0.443 0.824-0.99v-2.352z"></path>
<path fill="rgb(1, 1, 1)" d="M14.058 10.493c0-2.241-1.817-4.058-4.058-4.058s-4.058 1.817-4.058 4.058c0 2.241 1.817 4.058 4.058 4.058s4.058-1.817 4.058-4.058z"></path>
<path fill="rgb(35, 31, 32)" d="M13.852 10.493c0-2.127-1.724-3.852-3.852-3.852s-3.852 1.725-3.852 3.852c0 2.127 1.725 3.851 3.852 3.851s3.852-1.725 3.852-3.851z"></path>
<path fill="rgb(151, 151, 151)" d="M13.645 10.493c0-2.013-1.632-3.645-3.645-3.645s-3.645 1.632-3.645 3.645c0 2.013 1.632 3.645 3.645 3.645s3.645-1.632 3.645-3.645z"></path>
<path fill="rgb(35, 31, 32)" d="M13.481 10.493c0-1.923-1.559-3.481-3.481-3.481s-3.481 1.558-3.481 3.481c0 1.922 1.559 3.481 3.481 3.481s3.481-1.559 3.481-3.481z"></path>
<path fill="rgb(1, 1, 1)" d="M13.223 10.492c0-1.767-1.432-3.199-3.199-3.199s-3.199 1.432-3.199 3.199c0 1.767 1.432 3.2 3.199 3.2s3.199-1.433 3.199-3.2z"></path>
<path fill="rgb(35, 31, 32)" d="M13.060 10.492c0-1.677-1.359-3.036-3.037-3.036s-3.037 1.359-3.037 3.036c0 1.678 1.36 3.037 3.037 3.037s3.037-1.359 3.037-3.037z"></path>
<path fill="rgb(89, 90, 92)" d="M12.897 10.492c0-1.587-1.287-2.874-2.874-2.874s-2.874 1.287-2.874 2.874c0 1.588 1.287 2.874 2.874 2.874s2.874-1.287 2.874-2.874z"></path>
<path fill="rgb(35, 31, 32)" d="M12.768 10.492c0-1.515-1.229-2.744-2.745-2.744s-2.744 1.229-2.744 2.744c0 1.516 1.229 2.745 2.744 2.745s2.745-1.229 2.745-2.745z"></path>
<path fill="rgb(165, 182, 185)" d="M12.403 10.492c0-1.314-1.066-2.38-2.38-2.38s-2.38 1.066-2.38 2.38c0 1.315 1.066 2.38 2.38 2.38s2.38-1.066 2.38-2.38z"></path>
<path fill="rgb(255, 255, 255)" d="M10.36 9.693c0 0.631-0.511 1.142-1.142 1.142s-1.142-0.511-1.142-1.142c0-0.631 0.511-1.142 1.142-1.142s1.142 0.511 1.142 1.142z"></path>
<path fill="rgb(102, 185, 204)" d="M4.124 6.38c-0.165 0-0.298 0.134-0.298 0.298v0.24l0.538-0.538h-0.24z"></path>
<path fill="rgb(102, 185, 204)" d="M6.425 6.677c0-0.164-0.133-0.298-0.298-0.298h-0.391l-1.702 1.702c0.028 0.009 0.058 0.015 0.090 0.015h1.412l0.889-0.889v-0.53z"></path>
<path fill="rgb(215, 228, 244)" d="M4.365 6.38l-0.538 0.538v0.881c0 0.133 0.088 0.244 0.208 0.283l1.702-1.702h-1.372z"></path>
<path fill="rgb(215, 228, 244)" d="M6.425 7.799v-0.591l-0.889 0.889h0.591c0.165-0 0.298-0.134 0.298-0.298z"></path>
</svg>
