<?xml version="1.0" encoding="utf-8"?>
<!-- Generator: Adobe Illustrator 16.0.0, SVG Export Plug-In . SVG Version: 6.00 Build 0)  -->
<!DOCTYPE svg PUBLIC "-//W3C//DTD SVG 1.1//EN" "http://www.w3.org/Graphics/SVG/1.1/DTD/svg11.dtd">
<svg version="1.1" id="Layer_1" xmlns="http://www.w3.org/2000/svg" xmlns:xlink="http://www.w3.org/1999/xlink" x="0px" y="0px"
	 width="20px" height="20px" viewBox="0 0 20 20" enable-background="new 0 0 20 20" xml:space="preserve">
<g>
	<path fill="#344E5D" d="M19.69,10c0,5.351-4.338,9.69-9.69,9.69S0.31,15.353,0.31,10c0-5.352,4.338-9.69,9.69-9.69
		S19.69,4.647,19.69,10z"/>
	<path fill="#EDC92C" d="M13.106,10.685v-0.619h-0.413v0.619c0,1.48-1.226,2.681-2.706,2.681H9.986c-1.481,0-2.682-1.2-2.682-2.681
		v-0.619h-0.41v0.619c0,1.559,1.155,2.834,2.654,3.051v1.146H7.901c-0.356,0-0.644,0.288-0.644,0.644
		c0,0.356,0.288,0.644,0.644,0.644H12.1c0.355,0,0.644-0.288,0.644-0.644c0-0.354-0.288-0.644-0.644-0.644h-1.726v-1.142
		c1.525-0.192,2.735-1.479,2.735-3.057L13.106,10.685z"/>
	<path fill="#EDC92C" d="M9.986,3.832c-1.254,0-2.27,1.017-2.27,2.27v3.552h4.564V6.102C12.281,4.849,11.241,3.832,9.986,3.832z
		 M10.828,4.666c0.114,0,0.207,0.093,0.207,0.208c0,0.114-0.093,0.207-0.207,0.207S10.62,4.987,10.62,4.874
		C10.62,4.76,10.714,4.666,10.828,4.666z M10,4.666c0.113,0,0.207,0.093,0.207,0.208c0,0.114-0.092,0.207-0.207,0.207
		S9.792,4.987,9.792,4.874C9.792,4.76,9.884,4.666,10,4.666z M9.171,4.666c0.114,0,0.207,0.093,0.207,0.208
		c0,0.114-0.093,0.207-0.207,0.207S8.963,4.987,8.963,4.874C8.963,4.76,9.057,4.666,9.171,4.666z M8.343,9.224
		c-0.115,0-0.208-0.092-0.208-0.207S8.228,8.81,8.343,8.81S8.55,8.903,8.55,9.017C8.55,9.132,8.458,9.224,8.343,9.224z M8.343,8.395
		c-0.115,0-0.208-0.092-0.208-0.207c0-0.114,0.093-0.207,0.208-0.207S8.55,8.073,8.55,8.188S8.458,8.395,8.343,8.395z M8.343,7.565
		c-0.115,0-0.208-0.093-0.208-0.207c0-0.113,0.093-0.207,0.208-0.207S8.55,7.244,8.55,7.358S8.458,7.565,8.343,7.565z M8.343,6.737
		c-0.115,0-0.208-0.092-0.208-0.207c0-0.114,0.093-0.207,0.208-0.207S8.55,6.417,8.55,6.53C8.55,6.646,8.458,6.737,8.343,6.737z
		 M8.757,5.908c-0.114,0-0.207-0.092-0.207-0.206c0-0.115,0.093-0.208,0.207-0.208s0.207,0.094,0.207,0.208
		C8.964,5.815,8.871,5.908,8.757,5.908z M9.171,9.224c-0.114,0-0.208-0.092-0.208-0.207S9.057,8.81,9.171,8.81
		s0.207,0.094,0.207,0.207C9.378,9.132,9.285,9.224,9.171,9.224z M9.171,8.395c-0.114,0-0.208-0.092-0.208-0.207
		c0-0.114,0.094-0.207,0.208-0.207s0.207,0.093,0.207,0.207S9.285,8.395,9.171,8.395z M9.171,7.565
		c-0.114,0-0.208-0.093-0.208-0.207c0-0.113,0.094-0.207,0.208-0.207s0.207,0.093,0.207,0.207S9.285,7.565,9.171,7.565z
		 M9.171,6.737c-0.114,0-0.208-0.092-0.208-0.207c0-0.114,0.094-0.207,0.208-0.207S9.378,6.417,9.378,6.53
		C9.378,6.646,9.285,6.737,9.171,6.737z M9.585,5.908c-0.113,0-0.207-0.092-0.207-0.206c0-0.115,0.093-0.208,0.207-0.208
		s0.207,0.094,0.207,0.208C9.792,5.815,9.699,5.908,9.585,5.908z M10,9.224c-0.115,0-0.208-0.092-0.208-0.207S9.884,8.81,10,8.81
		c0.113,0,0.207,0.094,0.207,0.207C10.207,9.131,10.115,9.224,10,9.224z M10,8.395c-0.115,0-0.208-0.092-0.208-0.207
		C9.792,8.073,9.884,7.98,10,7.98c0.113,0,0.207,0.093,0.207,0.207C10.207,8.303,10.115,8.395,10,8.395z M10,7.565
		c-0.115,0-0.208-0.093-0.208-0.207c0-0.113,0.092-0.207,0.208-0.207c0.113,0,0.207,0.093,0.207,0.207
		C10.207,7.474,10.115,7.565,10,7.565z M10,6.737c-0.115,0-0.208-0.092-0.208-0.207c0-0.114,0.092-0.207,0.208-0.207
		c0.113,0,0.207,0.094,0.207,0.207C10.207,6.645,10.115,6.737,10,6.737z M10.414,5.908c-0.113,0-0.207-0.092-0.207-0.206
		c0-0.115,0.094-0.208,0.207-0.208c0.114,0,0.207,0.094,0.207,0.208S10.529,5.908,10.414,5.908z M10.828,9.224
		c-0.114,0-0.208-0.092-0.208-0.207s0.094-0.207,0.208-0.207s0.207,0.094,0.207,0.207C11.035,9.131,10.942,9.224,10.828,9.224z
		 M10.828,8.395c-0.114,0-0.208-0.092-0.208-0.207c0-0.114,0.094-0.207,0.208-0.207s0.207,0.093,0.207,0.207
		C11.035,8.303,10.942,8.395,10.828,8.395z M10.828,7.565c-0.114,0-0.208-0.093-0.208-0.207c0-0.113,0.094-0.207,0.208-0.207
		s0.207,0.093,0.207,0.207C11.035,7.474,10.942,7.565,10.828,7.565z M10.828,6.737c-0.114,0-0.208-0.092-0.208-0.207
		c0-0.114,0.094-0.207,0.208-0.207s0.207,0.094,0.207,0.207C11.035,6.645,10.942,6.737,10.828,6.737z M11.243,5.908
		c-0.114,0-0.208-0.092-0.208-0.206c0-0.115,0.093-0.208,0.208-0.208c0.114,0,0.206,0.094,0.206,0.208S11.356,5.908,11.243,5.908z
		 M11.657,9.224c-0.113,0-0.208-0.092-0.208-0.207s0.095-0.207,0.208-0.207s0.207,0.094,0.207,0.207
		C11.864,9.131,11.771,9.224,11.657,9.224z M11.657,8.395c-0.113,0-0.208-0.092-0.208-0.207c0-0.114,0.095-0.207,0.208-0.207
		s0.207,0.093,0.207,0.207C11.864,8.303,11.771,8.395,11.657,8.395z M11.657,7.565c-0.113,0-0.208-0.093-0.208-0.207
		c0-0.113,0.095-0.207,0.208-0.207s0.207,0.093,0.207,0.207C11.864,7.474,11.771,7.565,11.657,7.565z M11.657,6.737
		c-0.113,0-0.208-0.092-0.208-0.207c0-0.114,0.095-0.207,0.208-0.207s0.207,0.094,0.207,0.207
		C11.864,6.645,11.771,6.737,11.657,6.737z"/>
	<path fill="#EDC92C" d="M9.986,12.927c1.255,0,2.295-1.017,2.295-2.27v-0.593H7.717v0.593C7.717,11.91,8.732,12.927,9.986,12.927z"
		/>
</g>
</svg>
