<?xml version="1.0" encoding="utf-8"?>
<!-- Generated by IcoMoon.io -->
<!DOCTYPE svg PUBLIC "-//W3C//DTD SVG 1.1//EN" "http://www.w3.org/Graphics/SVG/1.1/DTD/svg11.dtd">
<svg version="1.1" xmlns="http://www.w3.org/2000/svg" xmlns:xlink="http://www.w3.org/1999/xlink" width="20" height="20" viewBox="0 0 20 20">
<path fill="rgb(234, 73, 73)" d="M19.691 10c0-5.352-4.339-9.691-9.69-9.691s-9.691 4.338-9.691 9.691c0 5.352 4.339 9.69 9.691 9.69s9.69-4.339 9.69-9.69z"></path>
<path fill="rgb(58, 58, 56)" d="M17.124 13.597c0 0.099-0.081 0.18-0.18 0.18h-13.889c-0.099 0-0.18-0.081-0.18-0.18v-8.192c0-0.099 0.080-0.18 0.18-0.18h13.889c0.099 0 0.18 0.081 0.18 0.18v8.192z"></path>
<path fill="rgb(5, 145, 168)" d="M16.473 13.039c0 0.089-0.072 0.161-0.161 0.161h-12.621c-0.089 0-0.161-0.072-0.161-0.161v-7.051c0-0.089 0.072-0.161 0.161-0.161h12.621c0.089 0 0.161 0.072 0.161 0.161v7.051z"></path>
<path fill="rgb(9, 159, 175)" d="M3.577 13.153c-0.029-0.029-0.047-0.069-0.047-0.114v-7.051c0-0.089 0.072-0.161 0.161-0.161h12.621c0.044 0 0.085 0.018 0.114 0.047l-12.849 7.278z"></path>
<path fill="rgb(58, 58, 56)" d="M9.238 13.681h1.523v1.251h-1.523v-1.251z"></path>
<path fill="rgb(58, 58, 56)" d="M13.291 14.568h-6.581c-0.063 0-0.114 0.051-0.114 0.114v0.291c0 0.063 0.051 0.114 0.114 0.114h6.581c0.063 0 0.114-0.051 0.114-0.114v-0.291c-0-0.063-0.051-0.114-0.114-0.114z"></path>
</svg>
