<?xml version="1.0" encoding="utf-8"?>
<!-- Generated by IcoMoon.io -->
<!DOCTYPE svg PUBLIC "-//W3C//DTD SVG 1.1//EN" "http://www.w3.org/Graphics/SVG/1.1/DTD/svg11.dtd">
<svg version="1.1" xmlns="http://www.w3.org/2000/svg" xmlns:xlink="http://www.w3.org/1999/xlink" width="20" height="20" viewBox="0 0 20 20">
<path fill="rgb(109, 180, 191)" d="M10 0.31c-5.352 0-9.691 4.338-9.691 9.691s4.339 9.69 9.691 9.69c5.352 0 9.69-4.339 9.69-9.69s-4.339-9.691-9.69-9.691z"></path>
<path fill="rgb(38, 58, 69)" d="M13.664 8.675c0-0.349-0.653-1.059-1.002-1.059h-5.636c-0.349-0-0.689 0.397-0.689 0.746v10.611c1.13 0.462 2.367 0.717 3.664 0.717s2.533-0.255 3.664-0.717l-0-10.299z"></path>
<path fill="rgb(152, 154, 154)" d="M12.633 4.433v8.499c0 0.288-0.233 0.521-0.521 0.521l-4.65 0c-0.030 0-0.058-0.004-0.086-0.009 0.041 0.247 0.254 0.436 0.513 0.436l4.65-0c0.288 0 0.521-0.233 0.521-0.521l0-9.044-0.427 0.118z"></path>
<path fill="rgb(201, 201, 200)" d="M7.367 13.359v-7.473l-0.427 0.118-0 6.928c0 0.259 0.189 0.472 0.436 0.513-0.005-0.028-0.009-0.056-0.009-0.086z"></path>
<path fill="rgb(201, 201, 200)" d="M7.367 5.887v7.472c0 0.030 0.004 0.058 0.009 0.086 0.028 0.005 0.057 0.009 0.086 0.009l4.65-0c0.288 0 0.521-0.233 0.521-0.521v-8.499l-5.266 1.453z"></path>
<path fill="rgba(255, 255, 255, 0.20000000298023224)" d="M12.268 3.091h-0.039c0.231 0.054 0.404 0.26 0.404 0.507v0.835l0.427-0.118v-0.29c-0-0.288-0.504-0.934-0.792-0.934z"></path>
<path fill="rgb(201, 201, 200)" d="M12.111 3.077l-4.65 0c-0.288 0-0.521 0.234-0.521 0.522v2.406l0.427-0.118v-1.861c0-0.288-0.037-0.934 0.251-0.934l4.61 0c-0.038-0.009-0.077-0.015-0.117-0.015z"></path>
<path fill="rgb(201, 201, 200)" d="M12.229 3.091l-4.61-0c-0.288 0-0.251 0.646-0.251 0.934v1.861l5.266-1.453v-0.835c0-0.247-0.173-0.453-0.404-0.507z"></path>
<path fill="rgba(255, 255, 255, 0.20000000298023224)" d="M12.229 3.091c-0.038-0.009-0.077-0.015-0.117-0.015l-4.65 0c-0.288 0-0.521 0.234-0.521 0.522v2.406l5.693-1.571v-0.835c-0-0.247-0.173-0.453-0.404-0.507z"></path>
<path fill="rgb(52, 78, 93)" d="M12.605 7.616h-5.637c-0.349-0-0.632 0.283-0.632 0.632v10.693c0 0.011 0.001 0.022 0.002 0.033 0.682 0.279 1.402 0.482 2.151 0.599 0.492 0.077 0.997 0.117 1.511 0.117s1.019-0.040 1.511-0.118c0.582-0.091 1.147-0.234 1.689-0.424 0.023-0.065 0.036-0.135 0.036-0.208v-10.693c0-0.349-0.283-0.632-0.632-0.632z"></path>
<path fill="rgb(152, 152, 151)" d="M11.875 5.935l-0.917 0c-0.085-0-0.153 0.068-0.153 0.153l-0.001 0.63c0 0.084 0.069 0.153 0.153 0.153l0.917-0c0.085 0 0.153-0.068 0.153-0.153l0-0.63c0-0.084-0.069-0.153-0.153-0.153z"></path>
<path fill="rgb(128, 127, 127)" d="M12.002 6.12l-0.808 0c-0.074 0-0.135 0.059-0.135 0.131l0 0.54c-0 0.031 0.013 0.058 0.031 0.081l0.784-0c0.085 0 0.153-0.068 0.153-0.153l0-0.594c-0.009-0.002-0.017-0.005-0.026-0.005z"></path>
<path fill="rgb(152, 152, 151)" d="M8.614 5.933l-0.917 0c-0.084-0-0.153 0.068-0.153 0.153l0 0.63c0 0.084 0.068 0.153 0.153 0.153l0.917-0c0.084 0 0.153-0.068 0.153-0.153l0-0.63c0-0.085-0.068-0.153-0.153-0.153z"></path>
<path fill="rgb(128, 127, 127)" d="M8.741 6.118l-0.808 0c-0.074 0-0.135 0.059-0.135 0.131l0 0.539c-0 0.031 0.013 0.059 0.031 0.081l0.784-0c0.084 0 0.153-0.068 0.153-0.153l0-0.593c-0.009-0.002-0.017-0.005-0.026-0.005z"></path>
<path fill="rgb(38, 58, 69)" d="M10.771 11.202l0 1.285 0.511-0 0 0.824-1.391 1.213-0-3.727 0.841-0-1.034-1.198-1.027 1.198 0.817-0 0.001 4.792-1.249-1.248-0-0.696c0.361-0.056 0.637-0.367 0.637-0.744 0-0.416-0.337-0.753-0.753-0.753s-0.753 0.337-0.753 0.753c-0 0.345 0.232 0.635 0.548 0.724v0.782c0 0.042 0.017 0.083 0.047 0.113l1.523 1.523-0 0.441c-0.41 0.098-0.715 0.466-0.716 0.906 0 0.515 0.417 0.932 0.932 0.932s0.932-0.417 0.932-0.932c0-0.451-0.32-0.827-0.746-0.913l0-0.478 0.003-0.003-0.003-0.003-0-1.041 1.656-1.445c0.035-0.030 0.055-0.074 0.055-0.121l0-0.896 0.453-0v-1.285l-1.285-0z"></path>
</svg>
