<?xml version="1.0" encoding="utf-8"?>
<!-- Generated by IcoMoon.io -->
<!DOCTYPE svg PUBLIC "-//W3C//DTD SVG 1.1//EN" "http://www.w3.org/Graphics/SVG/1.1/DTD/svg11.dtd">
<svg version="1.1" xmlns="http://www.w3.org/2000/svg" xmlns:xlink="http://www.w3.org/1999/xlink" width="20" height="20" viewBox="0 0 20 20">
<path fill="rgb(51, 77, 92)" d="M19.691 10c0-5.352-4.339-9.691-9.69-9.691s-9.691 4.338-9.691 9.691c0 5.352 4.339 9.69 9.691 9.69s9.69-4.339 9.69-9.69z"></path>
<path fill="rgb(146, 146, 147)" d="M4.45 6.583c-0.014 1.449 0.12 2.626 1.189 2.637s2.689-1.163 2.703-2.612c0.014-1.45-1.553-2.626-2.651-2.637s-1.227 1.163-1.241 2.613z"></path>
<path fill="rgb(255, 255, 255)" d="M5.028 9.030c0 0 0.169-1.106 0.169-2.517s-0.161-2.342-0.161-2.342c0.167-0.131 0.381-0.203 0.655-0.2 0.965 0.010 2.292 0.92 2.59 2.124 0.014 0.042 0.026 0.090 0.036 0.145 0.065 0.352 0.144 0.95 0.148 1.24 0.013 1.16-0 3.933-0 3.933l-1.266 0.008v-2.067c-0.011-0.168-0.074-0.569-0.424-0.464-0.388 0.213-0.791 0.334-1.136 0.33-0.252-0.003-0.452-0.070-0.61-0.19z"></path>
<path fill="rgb(255, 255, 255)" d="M5.080 6.506c0-0.441-0.014-0.838-0.033-1.181-0.027-0.479-0.065-0.851-0.092-1.083 0.064-0.064 0.081-0.072 0.081-0.072s0.061 0.353 0.108 0.952c0.029 0.375 0.053 0.847 0.053 1.391 0 1.398-0.165 2.495-0.169 2.516-0.029-0.022-0.058-0.046-0.084-0.072 0.049-0.437 0.135-1.359 0.135-2.451z"></path>
<path fill="rgb(226, 226, 226)" d="M7.635 13.647v5.773c0.128 0.018 0.256 0.034 0.385 0.050v-5.823h-0.385z"></path>
<path fill="rgb(205, 210, 214)" d="M7.199 11.212h1.266v2.826h-1.266v-2.826z"></path>
<path fill="rgb(255, 255, 255)" d="M11.915 8.803c0 3.599 0 2.609 0 2.609l1.265 0.008 0-2.617-1.266 0z"></path>
<path fill="rgb(205, 210, 214)" d="M15.202 6.628c0 1.467-1.189 2.656-2.656 2.656s-2.656-1.189-2.656-2.656c0-1.467 1.189-2.656 2.656-2.656s2.656 1.189 2.656 2.656z"></path>
<path fill="rgb(255, 255, 255)" d="M15.046 6.628c0 1.381-1.119 2.5-2.5 2.5s-2.5-1.119-2.5-2.5c0-1.381 1.119-2.5 2.5-2.5s2.5 1.119 2.5 2.5z"></path>
<path fill="rgb(146, 146, 147)" d="M14.812 6.628c0 1.251-1.014 2.266-2.266 2.266s-2.266-1.014-2.266-2.266c0-1.251 1.014-2.266 2.266-2.266s2.266 1.014 2.266 2.266z"></path>
<path fill="rgb(118, 118, 119)" d="M13.627 6.628c0 0.597-0.484 1.081-1.081 1.081s-1.081-0.484-1.081-1.081c0-0.597 0.484-1.081 1.081-1.081s1.081 0.484 1.081 1.081z"></path>
<path fill="rgb(118, 118, 119)" d="M14.633 5.745c0 0-0.524-0.080-0.524 0.857s0.541 0.866 0.541 0.866c0.104-0.26 0.162-0.543 0.162-0.84 0-0.313-0.064-0.612-0.179-0.884z"></path>
<path fill="rgb(118, 118, 119)" d="M10.459 5.745c0 0 0.524-0.080 0.524 0.857s-0.541 0.866-0.541 0.866c-0.104-0.26-0.162-0.543-0.162-0.84 0-0.313 0.064-0.612 0.179-0.884z"></path>
<path fill="rgb(118, 118, 119)" d="M11.665 4.539c0 0-0.080 0.524 0.857 0.524s0.866-0.541 0.866-0.541c-0.26-0.104-0.543-0.162-0.84-0.162-0.313 0-0.612 0.064-0.884 0.179z"></path>
<path fill="rgb(118, 118, 119)" d="M11.655 8.723c0 0-0.080-0.524 0.857-0.524s0.866 0.541 0.866 0.541c-0.26 0.104-0.543 0.162-0.84 0.162-0.313 0-0.612-0.064-0.884-0.179z"></path>
<path fill="rgb(226, 226, 226)" d="M12.36 13.647v5.733c0.129-0.019 0.257-0.039 0.385-0.060v-5.673h-0.385z"></path>
<path fill="rgb(205, 210, 214)" d="M11.915 11.212h1.265v2.826h-1.265v-2.826z"></path>
</svg>
