<?xml version="1.0" encoding="utf-8"?>
<!-- Generator: Adobe Illustrator 16.0.0, SVG Export Plug-In . SVG Version: 6.00 Build 0)  -->
<!DOCTYPE svg PUBLIC "-//W3C//DTD SVG 1.1//EN" "http://www.w3.org/Graphics/SVG/1.1/DTD/svg11.dtd">
<svg version="1.1" id="Layer_1" xmlns="http://www.w3.org/2000/svg" xmlns:xlink="http://www.w3.org/1999/xlink" x="0px" y="0px"
	 width="20px" height="20px" viewBox="0 0 20 20" enable-background="new 0 0 20 20" xml:space="preserve">
<g>
	<path fill="#357180" d="M19.69,10c0,5.351-4.338,9.69-9.69,9.69S0.31,15.353,0.31,10c0-5.352,4.338-9.69,9.69-9.69
		S19.69,4.647,19.69,10z"/>
	<path fill="#F3F4F5" d="M13.625,15.505c0,0.891-0.454,1.343-1.344,1.343H7.717c-0.89,0-1.343-0.452-1.343-1.343V4.495
		c0-0.89,0.453-1.344,1.343-1.344h4.564c0.89,0,1.344,0.454,1.344,1.344V15.505z"/>
	<path fill="#E4E4E4" d="M10.561,15.908c0,0.296-0.241,0.537-0.538,0.537c-0.296,0-0.537-0.241-0.537-0.537s0.241-0.537,0.537-0.537
		C10.319,15.371,10.561,15.612,10.561,15.908z"/>
	<path fill="#B8B9BA" d="M10.851,4.159c0,0.087-0.069,0.157-0.156,0.157H9.307c-0.087,0-0.157-0.07-0.157-0.157l0,0
		c0-0.087,0.07-0.155,0.157-0.155h1.388C10.78,4.004,10.851,4.073,10.851,4.159L10.851,4.159z"/>
	<path d="M6.71,4.864h6.545v10.004H6.71V4.864z"/>
	<path fill="#6CC077" d="M8.221,14.366c0,0.146-0.119,0.266-0.266,0.266H7.179c-0.147,0-0.267-0.119-0.267-0.266V13.59
		c0-0.146,0.12-0.267,0.267-0.267h0.776c0.146,0,0.266,0.12,0.266,0.267V14.366z"/>
	<path fill="#D3D4E3" d="M9.832,14.366c0,0.146-0.119,0.266-0.266,0.266H8.789c-0.146,0-0.266-0.119-0.266-0.266V13.59
		c0-0.146,0.12-0.267,0.266-0.267h0.777c0.146,0,0.266,0.12,0.266,0.267V14.366z"/>
	<path fill="#D3D4E3" d="M11.443,14.366c0,0.146-0.118,0.266-0.266,0.266H10.4c-0.147,0-0.266-0.119-0.266-0.266V13.59
		c0-0.146,0.119-0.267,0.266-0.267h0.777c0.147,0,0.266,0.12,0.266,0.267V14.366z"/>
	<path fill="#D3D4E3" d="M13.055,14.366c0,0.146-0.119,0.266-0.266,0.266h-0.777c-0.147,0-0.266-0.119-0.266-0.266V13.59
		c0-0.146,0.119-0.267,0.266-0.267h0.777c0.146,0,0.266,0.12,0.266,0.267V14.366z"/>
	<path fill="#6CC077" d="M8.221,6.847c0,0.146-0.119,0.267-0.266,0.267H7.179c-0.147,0-0.267-0.12-0.267-0.267V6.07
		c0-0.146,0.12-0.266,0.267-0.266h0.776c0.146,0,0.266,0.119,0.266,0.266V6.847z"/>
	<path fill="#F5E554" d="M9.832,6.847c0,0.146-0.119,0.267-0.266,0.267H8.789c-0.146,0-0.266-0.12-0.266-0.267V6.07
		c0-0.146,0.12-0.266,0.266-0.266h0.777c0.146,0,0.266,0.119,0.266,0.266V6.847z"/>
	<path fill="#B5DBAF" d="M11.443,6.847c0,0.146-0.118,0.267-0.266,0.267H10.4c-0.147,0-0.266-0.12-0.266-0.267V6.07
		c0-0.146,0.119-0.266,0.266-0.266h0.777c0.147,0,0.266,0.119,0.266,0.266V6.847z"/>
	<path fill="#F6A2A3" d="M13.055,6.847c0,0.146-0.119,0.267-0.266,0.267h-0.777c-0.147,0-0.266-0.12-0.266-0.267V6.07
		c0-0.146,0.119-0.266,0.266-0.266h0.777c0.146,0,0.266,0.119,0.266,0.266V6.847z"/>
	<path fill="#B5DBAF" d="M8.221,8.458c0,0.146-0.119,0.266-0.266,0.266H7.179c-0.147,0-0.267-0.119-0.267-0.266V7.682
		c0-0.147,0.12-0.267,0.267-0.267h0.776c0.146,0,0.266,0.119,0.266,0.267V8.458z"/>
	<path fill="#F6A2A3" d="M9.832,8.458c0,0.146-0.119,0.266-0.266,0.266H8.789c-0.146,0-0.266-0.119-0.266-0.266V7.682
		c0-0.147,0.12-0.267,0.266-0.267h0.777c0.146,0,0.266,0.119,0.266,0.267V8.458z"/>
	<path fill="#67B8CB" d="M11.443,8.458c0,0.146-0.118,0.266-0.266,0.266H10.4c-0.147,0-0.266-0.119-0.266-0.266V7.682
		c0-0.147,0.119-0.267,0.266-0.267h0.777c0.147,0,0.266,0.119,0.266,0.267V8.458z"/>
	<path fill="#F5E554" d="M13.055,8.458c0,0.146-0.119,0.266-0.266,0.266h-0.777c-0.147,0-0.266-0.119-0.266-0.266V7.682
		c0-0.147,0.119-0.267,0.266-0.267h0.777c0.146,0,0.266,0.119,0.266,0.267V8.458z"/>
	<path fill="#67B8CB" d="M8.221,10.069c0,0.147-0.119,0.267-0.266,0.267H7.179c-0.147,0-0.267-0.119-0.267-0.267V9.293
		c0-0.146,0.12-0.266,0.267-0.266h0.776c0.146,0,0.266,0.119,0.266,0.266V10.069z"/>
	<path fill="#F5E554" d="M9.832,10.069c0,0.147-0.119,0.267-0.266,0.267H8.789c-0.146,0-0.266-0.119-0.266-0.267V9.293
		c0-0.146,0.12-0.266,0.266-0.266h0.777c0.146,0,0.266,0.119,0.266,0.266V10.069z"/>
	<path fill="#6CC077" d="M11.443,10.069c0,0.147-0.118,0.267-0.266,0.267H10.4c-0.147,0-0.266-0.119-0.266-0.267V9.293
		c0-0.146,0.119-0.266,0.266-0.266h0.777c0.147,0,0.266,0.119,0.266,0.266V10.069z"/>
	<path d="M6.71,4.864h6.543v0.549H6.71V4.864z"/>
	<path fill="#FFFFFF" d="M12.415,5.121c0,0.078-0.063,0.14-0.141,0.14c-0.076,0-0.139-0.062-0.139-0.14s0.062-0.139,0.139-0.139
		C12.352,4.982,12.415,5.045,12.415,5.121z"/>
	<path fill="#FFFFFF" d="M7.186,5.121c0,0.078-0.062,0.141-0.14,0.141c-0.078,0-0.141-0.062-0.141-0.141
		c0-0.077,0.062-0.14,0.141-0.14C7.123,4.981,7.186,5.044,7.186,5.121z"/>
	<path fill="#FFFFFF" d="M13.052,5.121c0,0.078-0.062,0.141-0.141,0.141c-0.077,0-0.141-0.062-0.141-0.141
		c0-0.077,0.063-0.14,0.141-0.14C12.989,4.981,13.052,5.044,13.052,5.121z"/>
</g>
</svg>
