<?xml version="1.0" encoding="utf-8"?>
<!-- Generator: Adobe Illustrator 16.0.0, SVG Export Plug-In . SVG Version: 6.00 Build 0)  -->
<!DOCTYPE svg PUBLIC "-//W3C//DTD SVG 1.1//EN" "http://www.w3.org/Graphics/SVG/1.1/DTD/svg11.dtd">
<svg version="1.1" id="Layer_1" xmlns="http://www.w3.org/2000/svg" xmlns:xlink="http://www.w3.org/1999/xlink" x="0px" y="0px"
	 width="20px" height="20px" viewBox="0 0 20 20" enable-background="new 0 0 20 20" xml:space="preserve">
<g>
	<path fill="#D1AFD2" d="M19.69,10c0,5.352-4.339,9.69-9.69,9.69S0.31,15.352,0.31,10c0-5.351,4.339-9.69,9.69-9.69
		S19.69,4.648,19.69,10z"/>
	<path fill="#597C7C" d="M6.348,16.955c-0.215,0.215-0.562,0.215-0.776,0L3.308,14.69c-0.214-0.215-0.214-0.561,0-0.775L4.723,12.5
		c0.215-0.215,0.562-0.215,0.776,0l2.264,2.265c0.215,0.214,0.215,0.562,0,0.775l-1.415,1.417V16.955z"/>
	<path fill="#597C7C" d="M7.807,15.496c-0.214,0.214-0.562,0.214-0.776,0l-2.263-2.264c-0.215-0.215-0.215-0.562,0-0.775
		l3.725-7.374l6.689,6.688L7.807,15.496L7.807,15.496z"/>
	<path fill="#597C7C" d="M12.721,11.779c-1.119-1.119-2.934-1.119-4.053,0c-1.12,1.119-1.119,2.934,0,4.053
		c1.119,1.121,2.934,1.121,4.053,0C13.841,14.713,13.841,12.898,12.721,11.779z M9.479,15.021c-0.672-0.671-0.672-1.76,0-2.432
		c0.671-0.671,1.761-0.671,2.432,0c0.672,0.672,0.672,1.761,0,2.432C11.239,15.693,10.15,15.693,9.479,15.021z"/>
	<path fill="#78A4A4" d="M12.482,6.161c-0.211,0-0.383-0.171-0.383-0.382V2.467c0-0.212,0.172-0.383,0.383-0.383
		c0.21,0,0.382,0.171,0.382,0.383v3.312C12.864,5.99,12.692,6.161,12.482,6.161z"/>
	<path fill="#78A4A4" d="M13.185,7.049c-0.148-0.15-0.148-0.393,0-0.541l2.343-2.343c0.15-0.149,0.393-0.149,0.541,0
		s0.15,0.392,0,0.54l-2.344,2.344C13.576,7.197,13.334,7.197,13.185,7.049L13.185,7.049z"/>
	<path fill="#78A4A4" d="M13.999,7.678c0-0.21,0.17-0.382,0.383-0.382h3.312c0.212,0,0.383,0.172,0.383,0.382
		c0,0.211-0.171,0.382-0.383,0.382h-3.312C14.169,8.06,13.999,7.89,13.999,7.678z"/>
	<path fill="#78A4A4" d="M8.085,5.132c0.359-0.36,0.942-0.36,1.303,0l5.645,5.645c0.36,0.36,0.36,0.944,0,1.302
		c-0.359,0.36-0.943,0.36-1.303,0L8.085,6.435C7.727,6.075,7.725,5.492,8.085,5.132z"/>
	<path fill="#3D5353" d="M6.348,16.955c-0.215,0.215-0.562,0.215-0.776,0L3.308,14.69c-0.214-0.215-0.214-0.561,0-0.775L4.723,12.5
		c0.215-0.215,3.255,2.826,3.04,3.039L6.348,16.955z"/>
</g>
</svg>
