<?xml version="1.0" encoding="utf-8"?>
<!-- Generated by IcoMoon.io -->
<!DOCTYPE svg PUBLIC "-//W3C//DTD SVG 1.1//EN" "http://www.w3.org/Graphics/SVG/1.1/DTD/svg11.dtd">
<svg version="1.1" xmlns="http://www.w3.org/2000/svg" xmlns:xlink="http://www.w3.org/1999/xlink" width="20" height="20" viewBox="0 0 20 20">
<path fill="rgb(234, 73, 73)" d="M19.691 10c0-5.352-4.339-9.691-9.69-9.691s-9.691 4.338-9.691 9.691c0 5.352 4.339 9.69 9.691 9.69s9.69-4.339 9.69-9.69z"></path>
<path fill="rgb(91, 79, 63)" d="M5.839 16.148h8.322c0.206 0 0.373-0.167 0.373-0.373v-11.552c0-0.206-0.167-0.373-0.373-0.373h-8.322c-0.206 0-0.373 0.167-0.373 0.373v11.552c0 0.206 0.167 0.373 0.373 0.373z"></path>
<path fill="rgb(58, 50, 40)" d="M12.952 12.383c0-1.63-1.321-2.952-2.951-2.952s-2.952 1.321-2.952 2.952c0 1.63 1.322 2.951 2.952 2.951s2.951-1.321 2.951-2.951z"></path>
<path fill="rgb(135, 127, 116)" d="M11.977 12.383c0 1.092-0.885 1.977-1.977 1.977s-1.977-0.885-1.977-1.977c0-1.092 0.885-1.977 1.977-1.977s1.977 0.885 1.977 1.977z"></path>
<path fill="rgb(165, 164, 164)" d="M10 12.383l0-1.977c-1.092 0-1.977 0.885-1.977 1.977h1.977z"></path>
<path fill="rgb(58, 50, 40)" d="M10.577 12.383c0 0.319-0.258 0.577-0.577 0.577s-0.577-0.258-0.577-0.577c0-0.319 0.258-0.577 0.577-0.577s0.577 0.258 0.577 0.577z"></path>
<path fill="rgb(58, 50, 40)" d="M11.897 6.621c0 1.048-0.849 1.897-1.897 1.897s-1.897-0.849-1.897-1.897c0-1.048 0.849-1.897 1.897-1.897s1.897 0.849 1.897 1.897z"></path>
<path fill="rgb(135, 127, 116)" d="M11.074 6.621c0 0.593-0.481 1.074-1.074 1.074s-1.074-0.481-1.074-1.074c0-0.593 0.481-1.074 1.074-1.074s1.074 0.481 1.074 1.074z"></path>
<path fill="rgb(165, 164, 164)" d="M11.074 6.621h-1.074v1.074c0.593 0 1.074-0.481 1.074-1.074z"></path>
<path fill="rgb(58, 50, 40)" d="M10.382 6.621c0 0.211-0.171 0.382-0.382 0.382s-0.382-0.171-0.382-0.382c0-0.211 0.171-0.382 0.382-0.382s0.382 0.171 0.382 0.382z"></path>
</svg>
