<?xml version="1.0" encoding="utf-8"?>
<!-- Generator: Adobe Illustrator 16.0.0, SVG Export Plug-In . SVG Version: 6.00 Build 0)  -->
<!DOCTYPE svg PUBLIC "-//W3C//DTD SVG 1.1//EN" "http://www.w3.org/Graphics/SVG/1.1/DTD/svg11.dtd">
<svg version="1.1" id="Layer_1" xmlns="http://www.w3.org/2000/svg" xmlns:xlink="http://www.w3.org/1999/xlink" x="0px" y="0px"
	 width="20px" height="20px" viewBox="0 0 20 20" enable-background="new 0 0 20 20" xml:space="preserve">
<g>
	<path fill="#FABC3D" d="M19.69,10c0-5.352-4.339-9.69-9.69-9.69S0.31,4.648,0.31,10s4.339,9.689,9.69,9.689S19.69,15.352,19.69,10z
		"/>
	<path fill="#774518" d="M16.548,15.049c0,0.209-0.17,0.379-0.38,0.379H3.832c-0.21,0-0.38-0.17-0.38-0.379V7.265
		c0-0.209,0.17-0.379,0.38-0.379h12.336c0.21,0,0.38,0.17,0.38,0.379V15.049z"/>
	<path fill="#60320D" d="M14.451,11.493h1.755v3.202h-1.755V11.493z"/>
	<path fill="#774518" d="M15.974,11.881H14.68c-0.062,0-0.114-0.052-0.114-0.115c0-0.062,0.052-0.113,0.114-0.113h1.294
		c0.063,0,0.114,0.051,0.114,0.113C16.088,11.829,16.037,11.881,15.974,11.881z"/>
	<path fill="#774518" d="M15.974,12.264H14.68c-0.062,0-0.114-0.051-0.114-0.114s0.052-0.114,0.114-0.114h1.294
		c0.063,0,0.114,0.051,0.114,0.114S16.037,12.264,15.974,12.264z"/>
	<path fill="#774518" d="M15.974,12.642H14.68c-0.062,0-0.114-0.052-0.114-0.114c0-0.063,0.052-0.114,0.114-0.114h1.294
		c0.063,0,0.114,0.051,0.114,0.114C16.088,12.59,16.037,12.642,15.974,12.642z"/>
	<path fill="#774518" d="M15.974,13.025H14.68c-0.062,0-0.114-0.051-0.114-0.115c0-0.062,0.052-0.113,0.114-0.113h1.294
		c0.063,0,0.114,0.051,0.114,0.113C16.088,12.975,16.037,13.025,15.974,13.025z"/>
	<path fill="#774518" d="M15.974,13.392H14.68c-0.062,0-0.114-0.052-0.114-0.114c0-0.063,0.052-0.115,0.114-0.115h1.294
		c0.063,0,0.114,0.052,0.114,0.115C16.088,13.34,16.037,13.392,15.974,13.392z"/>
	<path fill="#774518" d="M15.974,13.775H14.68c-0.062,0-0.114-0.053-0.114-0.115s0.052-0.115,0.114-0.115h1.294
		c0.063,0,0.114,0.053,0.114,0.115S16.037,13.775,15.974,13.775z"/>
	<path fill="#774518" d="M15.974,14.152H14.68c-0.062,0-0.114-0.051-0.114-0.115c0-0.062,0.052-0.113,0.114-0.113h1.294
		c0.063,0,0.114,0.051,0.114,0.113C16.088,14.102,16.037,14.152,15.974,14.152z"/>
	<path fill="#774518" d="M15.974,14.535H14.68c-0.062,0-0.114-0.051-0.114-0.113s0.052-0.115,0.114-0.115h1.294
		c0.063,0,0.114,0.053,0.114,0.115S16.037,14.535,15.974,14.535z"/>
	<path fill="#262625" d="M4.392,8.169c0-0.303,0.246-0.549,0.55-0.549h8.698c0.304,0,0.549,0.246,0.549,0.549v5.975
		c0,0.303-0.245,0.549-0.549,0.549H4.941c-0.304,0-0.55-0.246-0.55-0.549V8.169z"/>
	<path fill="#3A3A38" d="M4.7,8.421c0-0.278,0.225-0.503,0.503-0.503h8.149c0.278,0,0.503,0.225,0.503,0.503v5.472
		c0,0.277-0.225,0.502-0.503,0.502H5.203c-0.278,0-0.503-0.225-0.503-0.502V8.421z"/>
	<path opacity="0.1" fill="#D8D8D7" d="M4.927,8.391c0-0.173,0.141-0.313,0.314-0.313h1.26C5.965,8.351,5.27,8.546,4.927,10.172
		V8.391L4.927,8.391z"/>
	<path fill="#B79251" d="M16.076,8.447c0,0.405-0.327,0.732-0.732,0.732c-0.404,0-0.732-0.328-0.732-0.732
		c0-0.405,0.328-0.732,0.732-0.732C15.749,7.714,16.076,8.042,16.076,8.447z"/>
	<path fill="#3A3A38" d="M15.832,8.447c0,0.27-0.219,0.488-0.488,0.488s-0.488-0.219-0.488-0.488s0.219-0.488,0.488-0.488
		S15.832,8.177,15.832,8.447z"/>
	<path fill="#B79251" d="M15.605,8.538l-0.353-0.352c-0.023-0.023-0.06-0.023-0.083,0l-0.087,0.087
		c-0.012,0.011-0.018,0.026-0.018,0.042s0.006,0.031,0.018,0.042l0.352,0.353c0.012,0.011,0.027,0.017,0.042,0.017
		s0.03-0.006,0.042-0.017l0.087-0.087c0.011-0.011,0.017-0.026,0.017-0.042C15.622,8.563,15.616,8.548,15.605,8.538L15.605,8.538z"
		/>
	<path fill="#B79251" d="M16.076,10.286c0,0.405-0.327,0.732-0.732,0.732c-0.404,0-0.732-0.328-0.732-0.732
		c0-0.404,0.328-0.732,0.732-0.732C15.749,9.553,16.076,9.881,16.076,10.286z"/>
	<path fill="#3A3A38" d="M15.832,10.286c0,0.269-0.219,0.489-0.488,0.489s-0.488-0.22-0.488-0.489c0-0.27,0.219-0.488,0.488-0.488
		S15.832,10.016,15.832,10.286z"/>
	<path fill="#B79251" d="M15.253,10.547l0.353-0.352c0.022-0.023,0.022-0.06,0-0.083l-0.087-0.087
		c-0.012-0.011-0.026-0.017-0.042-0.017s-0.03,0.006-0.042,0.017l-0.352,0.353c-0.012,0.011-0.018,0.026-0.018,0.042
		c0,0.015,0.006,0.03,0.018,0.042l0.087,0.087c0.011,0.011,0.025,0.018,0.041,0.018S15.242,10.558,15.253,10.547L15.253,10.547z"/>
	<path fill="#3A3A38" d="M12.416,3.363c-0.036-0.027-0.087-0.02-0.113,0.016l-2.376,3.13l-2.392-3.13
		C7.508,3.343,7.457,3.336,7.422,3.363C7.386,3.39,7.379,3.44,7.406,3.476l2.42,3.279c0.022,0.03,0.057,0.046,0.091,0.046
		C9.92,6.801,9.923,6.8,9.926,6.8c0.004,0,0.007,0.001,0.01,0.001c0.034,0,0.068-0.016,0.091-0.046l2.405-3.279
		C12.458,3.44,12.451,3.39,12.416,3.363z"/>
	<path fill="#3A3A38" d="M12.583,3.38c0,0.119-0.096,0.215-0.215,0.215c-0.118,0-0.215-0.097-0.215-0.215s0.097-0.215,0.215-0.215
		C12.487,3.165,12.583,3.262,12.583,3.38z"/>
	<path fill="#3A3A38" d="M7.647,3.38c0,0.119-0.096,0.215-0.215,0.215S7.218,3.499,7.218,3.38s0.096-0.215,0.215-0.215
		S7.647,3.262,7.647,3.38z"/>
	<path fill="#774518" d="M11.018,6.97c0,0.259-0.456,0.47-1.018,0.47c-0.562,0-1.018-0.21-1.018-0.47
		c0-0.259,0.455-0.469,1.018-0.469C10.562,6.501,11.018,6.711,11.018,6.97z"/>
</g>
</svg>
