<?xml version="1.0" encoding="utf-8"?>
<!-- Generator: Adobe Illustrator 16.0.0, SVG Export Plug-In . SVG Version: 6.00 Build 0)  -->
<!DOCTYPE svg PUBLIC "-//W3C//DTD SVG 1.1//EN" "http://www.w3.org/Graphics/SVG/1.1/DTD/svg11.dtd">
<svg version="1.1" id="Layer_1" xmlns="http://www.w3.org/2000/svg" xmlns:xlink="http://www.w3.org/1999/xlink" x="0px" y="0px"
	 width="20px" height="20px" viewBox="0 0 20 20" enable-background="new 0 0 20 20" xml:space="preserve">
<g>
	<path fill="#D7DABA" d="M19.69,10c0,5.351-4.338,9.69-9.69,9.69S0.31,15.353,0.31,10c0-5.352,4.338-9.69,9.69-9.69
		S19.69,4.647,19.69,10z"/>
	<path fill="#202121" d="M15.169,15.956c0,0.538-0.303,0.842-0.843,0.842H5.673c-0.54,0-0.843-0.303-0.843-0.842V4.046
		c0-0.539,0.302-0.843,0.843-0.843h8.653c0.54,0,0.843,0.304,0.843,0.843V15.956z"/>
	<path fill="#121212" d="M10.103,3.784c0,0.049-0.04,0.09-0.09,0.09c-0.051,0-0.091-0.04-0.091-0.09s0.04-0.09,0.091-0.09
		C10.062,3.694,10.103,3.733,10.103,3.784z"/>
	<path d="M5.613,4.344h8.772v11.278H5.613V4.344z"/>
	<path d="M5.613,14.146h8.772v1.477H5.613V14.146z"/>
	<path fill="#6CC077" d="M7.703,6.565c0,0.117-0.095,0.211-0.212,0.211H6.874c-0.117,0-0.212-0.094-0.212-0.211V5.947
		c0-0.117,0.095-0.211,0.212-0.211h0.617c0.117,0,0.212,0.094,0.212,0.211V6.565z"/>
	<path fill="#F5E554" d="M9.573,6.565c0,0.117-0.094,0.211-0.211,0.211H8.744c-0.117,0-0.211-0.094-0.211-0.211V5.947
		c0-0.117,0.094-0.211,0.211-0.211h0.618c0.117,0,0.211,0.094,0.211,0.211V6.565z"/>
	<path fill="#B5DBAF" d="M11.443,6.565c0,0.117-0.095,0.211-0.212,0.211h-0.617c-0.117,0-0.212-0.094-0.212-0.211V5.947
		c0-0.117,0.096-0.211,0.212-0.211h0.617c0.118,0,0.212,0.094,0.212,0.211V6.565z"/>
	<path fill="#F6A2A3" d="M13.313,6.565c0,0.117-0.095,0.211-0.212,0.211h-0.617c-0.118,0-0.212-0.094-0.212-0.211V5.947
		c0-0.117,0.094-0.211,0.212-0.211h0.617c0.117,0,0.212,0.094,0.212,0.211V6.565z"/>
	<path fill="#6CC077" d="M7.703,15.158c0,0.116-0.095,0.212-0.212,0.212H6.874c-0.117,0-0.212-0.096-0.212-0.212v-0.617
		c0-0.116,0.095-0.212,0.212-0.212h0.617c0.117,0,0.212,0.096,0.212,0.212V15.158z"/>
	<path fill="#F5E554" d="M9.573,15.158c0,0.116-0.094,0.212-0.211,0.212H8.744c-0.117,0-0.211-0.096-0.211-0.212v-0.617
		c0-0.116,0.094-0.212,0.211-0.212h0.618c0.117,0,0.211,0.096,0.211,0.212V15.158z"/>
	<path fill="#B5DBAF" d="M11.443,15.158c0,0.116-0.095,0.212-0.212,0.212h-0.617c-0.117,0-0.212-0.096-0.212-0.212v-0.617
		c0-0.116,0.096-0.212,0.212-0.212h0.617c0.118,0,0.212,0.096,0.212,0.212V15.158z"/>
	<path fill="#F6A2A3" d="M13.313,15.158c0,0.116-0.095,0.212-0.212,0.212h-0.617c-0.118,0-0.212-0.096-0.212-0.212v-0.617
		c0-0.116,0.094-0.212,0.212-0.212h0.617c0.117,0,0.212,0.096,0.212,0.212V15.158z"/>
	<path fill="#B5DBAF" d="M7.703,8.445c0,0.117-0.095,0.211-0.212,0.211H6.874c-0.117,0-0.212-0.094-0.212-0.211V7.827
		c0-0.117,0.095-0.211,0.212-0.211h0.617c0.117,0,0.212,0.094,0.212,0.211V8.445z"/>
	<path fill="#F6A2A3" d="M9.573,8.445c0,0.117-0.094,0.211-0.211,0.211H8.744c-0.117,0-0.211-0.094-0.211-0.211V7.827
		c0-0.117,0.094-0.211,0.211-0.211h0.618c0.117,0,0.211,0.094,0.211,0.211V8.445z"/>
	<path fill="#67B8CB" d="M11.443,8.445c0,0.117-0.095,0.211-0.212,0.211h-0.617c-0.117,0-0.212-0.094-0.212-0.211V7.827
		c0-0.117,0.096-0.211,0.212-0.211h0.617c0.118,0,0.212,0.094,0.212,0.211V8.445z"/>
	<path fill="#F5E554" d="M13.313,8.445c0,0.117-0.095,0.211-0.212,0.211h-0.617c-0.118,0-0.212-0.094-0.212-0.211V7.827
		c0-0.117,0.094-0.211,0.212-0.211h0.617c0.117,0,0.212,0.094,0.212,0.211V8.445z"/>
	<path fill="#67B8CB" d="M7.703,10.325c0,0.116-0.095,0.213-0.212,0.213H6.874c-0.117,0-0.212-0.097-0.212-0.213V9.708
		c0-0.117,0.095-0.212,0.212-0.212h0.617c0.117,0,0.212,0.095,0.212,0.212V10.325z"/>
	<path fill="#F5E554" d="M9.573,10.325c0,0.116-0.094,0.213-0.211,0.213H8.744c-0.117,0-0.211-0.097-0.211-0.213V9.708
		c0-0.117,0.094-0.212,0.211-0.212h0.618c0.117,0,0.211,0.095,0.211,0.212V10.325z"/>
	<path fill="#6CC077" d="M11.443,10.325c0,0.116-0.095,0.213-0.212,0.213h-0.617c-0.117,0-0.212-0.097-0.212-0.213V9.708
		c0-0.117,0.096-0.212,0.212-0.212h0.617c0.118,0,0.212,0.095,0.212,0.212V10.325z"/>
	<path fill="#B5DBAF" d="M13.313,10.325c0,0.116-0.095,0.213-0.212,0.213h-0.617c-0.118,0-0.212-0.097-0.212-0.213V9.708
		c0-0.117,0.094-0.212,0.212-0.212h0.617c0.117,0,0.212,0.095,0.212,0.212V10.325z"/>
	<path fill="#F6A2A3" d="M7.703,12.204c0,0.117-0.095,0.213-0.212,0.213H6.874c-0.117,0-0.212-0.096-0.212-0.213v-0.617
		c0-0.117,0.095-0.211,0.212-0.211h0.617c0.117,0,0.212,0.094,0.212,0.211V12.204z"/>
	<path fill="#B5DBAF" d="M9.573,12.204c0,0.117-0.094,0.213-0.211,0.213H8.744c-0.117,0-0.211-0.096-0.211-0.213v-0.617
		c0-0.117,0.094-0.211,0.211-0.211h0.618c0.117,0,0.211,0.094,0.211,0.211V12.204z"/>
	<path fill="#F5E554" d="M11.443,12.204c0,0.117-0.095,0.213-0.212,0.213h-0.617c-0.117,0-0.212-0.096-0.212-0.213v-0.617
		c0-0.117,0.096-0.211,0.212-0.211h0.617c0.118,0,0.212,0.094,0.212,0.211V12.204z"/>
	<path fill="#67B8CB" d="M13.313,12.204c0,0.117-0.095,0.213-0.212,0.213h-0.617c-0.118,0-0.212-0.096-0.212-0.213v-0.617
		c0-0.117,0.094-0.211,0.212-0.211h0.617c0.117,0,0.212,0.094,0.212,0.211V12.204z"/>
	<path d="M5.621,4.359h8.735v0.549H5.621V4.359z"/>
	<path fill="#FFFFFF" d="M13.563,4.616c0,0.077-0.063,0.141-0.141,0.141c-0.078,0-0.141-0.063-0.141-0.141s0.062-0.141,0.141-0.141
		C13.5,4.476,13.563,4.539,13.563,4.616z"/>
	<path fill="#FFFFFF" d="M6.098,4.616c0,0.077-0.063,0.141-0.141,0.141S5.816,4.693,5.816,4.616S5.88,4.476,5.957,4.476
		S6.098,4.539,6.098,4.616z"/>
	<path fill="#FFFFFF" d="M14.201,4.616c0,0.077-0.062,0.141-0.14,0.141s-0.14-0.063-0.14-0.141s0.062-0.141,0.14-0.141
		S14.201,4.539,14.201,4.616z"/>
	<path fill="#121212" d="M10.326,16.22c0,0.174-0.14,0.313-0.312,0.313S9.7,16.394,9.7,16.22c0-0.172,0.141-0.313,0.313-0.313
		S10.326,16.048,10.326,16.22L10.326,16.22z"/>
</g>
</svg>
