<?xml version="1.0" encoding="utf-8"?>
<!-- Generated by IcoMoon.io -->
<!DOCTYPE svg PUBLIC "-//W3C//DTD SVG 1.1//EN" "http://www.w3.org/Graphics/SVG/1.1/DTD/svg11.dtd">
<svg version="1.1" xmlns="http://www.w3.org/2000/svg" xmlns:xlink="http://www.w3.org/1999/xlink" width="20" height="20" viewBox="0 0 20 20">
<path fill="rgb(74, 188, 150)" d="M19.691 10c0-5.352-4.339-9.691-9.69-9.691s-9.691 4.338-9.691 9.691c0 5.352 4.339 9.69 9.691 9.69s9.69-4.339 9.69-9.69z"></path>
<path fill="rgb(86, 86, 84)" d="M5.873 5.999c0 0.131-0.087 0.237-0.194 0.237h-1.432c-0.107 0-0.194-0.106-0.194-0.237v0c0-0.131 0.087-0.236 0.194-0.236h1.432c0.107 0 0.194 0.106 0.194 0.236v0z"></path>
<path fill="rgb(86, 86, 84)" d="M15.745 5.999c0 0.131-0.087 0.237-0.194 0.237h-1.432c-0.107 0-0.194-0.106-0.194-0.237v0c0-0.131 0.087-0.236 0.194-0.236h1.432c0.107 0 0.194 0.106 0.194 0.236v0z"></path>
<path fill="rgb(86, 86, 84)" d="M8.468 5.917c0 0.085-0.057 0.155-0.127 0.155h-0.935c-0.070 0-0.127-0.069-0.127-0.155v0c0-0.085 0.057-0.154 0.127-0.154h0.935c0.070 0 0.127 0.069 0.127 0.154v0z"></path>
<path fill="rgb(58, 58, 56)" d="M16.371 6.334c0-0.242-0.196-0.438-0.438-0.438h-8.847l-0.267 0.314h-2.752c-0.242 0-0.438 0.196-0.438 0.438v1.649h12.742v-1.963z"></path>
<path fill="rgb(58, 58, 56)" d="M16.371 13.901h-12.742v0.333c0 0.242 0.196 0.438 0.438 0.438h11.866c0.242 0 0.438-0.196 0.438-0.438v-0.333z"></path>
<path fill="rgb(231, 158, 47)" d="M3.629 8.297h12.742v5.603h-12.742v-5.603z"></path>
<path fill="rgb(58, 58, 56)" d="M12.816 11.184c0 1.554-1.26 2.814-2.814 2.814s-2.814-1.26-2.814-2.814c0-1.554 1.26-2.814 2.814-2.814s2.814 1.26 2.814 2.814z"></path>
<path fill="rgb(91, 91, 91)" d="M8.013 9.194c1.099-1.099 2.88-1.099 3.979 0l-3.979 3.979c-1.099-1.099-1.099-2.88 0-3.979z"></path>
<path fill="rgb(248, 248, 248)" d="M12.258 11.184c0 1.246-1.010 2.256-2.256 2.256s-2.256-1.010-2.256-2.256c0-1.246 1.010-2.256 2.256-2.256s2.256 1.010 2.256 2.256z"></path>
<path fill="rgb(255, 255, 255)" d="M8.407 12.779c-0.881-0.881-0.881-2.309 0-3.19s2.309-0.881 3.19 0l-3.19 3.19z"></path>
<path fill="rgb(58, 58, 56)" d="M11.676 11.184c0 0.924-0.749 1.674-1.674 1.674s-1.674-0.749-1.674-1.674c0-0.924 0.749-1.674 1.674-1.674s1.674 0.749 1.674 1.674z"></path>
<path fill="rgb(81, 81, 81)" d="M8.819 12.367c-0.654-0.654-0.654-1.713 0-2.367s1.713-0.654 2.367 0l-2.367 2.367z"></path>
<path fill="rgb(33, 33, 33)" d="M11.337 11.184c0 0.737-0.597 1.334-1.334 1.334s-1.334-0.597-1.334-1.334c0-0.737 0.597-1.334 1.334-1.334s1.334 0.597 1.334 1.334z"></path>
<path fill="rgb(51, 51, 51)" d="M9.059 12.127c-0.521-0.521-0.521-1.366 0-1.887s1.366-0.521 1.887 0l-1.887 1.887z"></path>
<path fill="rgb(22, 46, 48)" d="M11.070 11.184c0 0.589-0.478 1.067-1.067 1.067s-1.067-0.478-1.067-1.067c0-0.589 0.478-1.067 1.067-1.067s1.067 0.478 1.067 1.067z"></path>
<path fill="rgb(34, 67, 68)" d="M9.248 11.939c-0.417-0.417-0.417-1.093 0-1.509s1.093-0.417 1.509 0l-1.509 1.509z"></path>
<path fill="rgb(76, 40, 68)" d="M10.852 11.184c0 0.469-0.38 0.849-0.849 0.849s-0.849-0.38-0.849-0.849c0-0.469 0.38-0.849 0.849-0.849s0.849 0.38 0.849 0.849z"></path>
<path fill="rgb(99, 57, 91)" d="M9.402 11.784c-0.332-0.332-0.332-0.869 0-1.201s0.869-0.332 1.201 0l-1.201 1.201z"></path>
<path fill="rgb(248, 248, 248)" d="M10.56 11.184c0 0.308-0.25 0.558-0.558 0.558s-0.558-0.25-0.558-0.558c0-0.308 0.25-0.558 0.558-0.558s0.558 0.25 0.558 0.558z"></path>
<path fill="rgb(231, 158, 47)" d="M8.688 5.328h2.581v2.581h-2.581v-2.581z"></path>
<path fill="rgb(81, 81, 81)" d="M9.135 5.776h1.686v1.686h-1.686v-1.686z"></path>
<path fill="rgb(114, 114, 114)" d="M9.135 5.776h1.686l-1.686 1.686z"></path>
<path fill="rgb(248, 248, 248)" d="M13.914 6.332h1.868v1.055h-1.868v-1.055z"></path>
<path fill="rgb(237, 235, 237)" d="M13.914 6.86h1.868v0.527h-1.868v-0.527z"></path>
</svg>
