<?xml version="1.0" encoding="utf-8"?>
<!-- Generated by IcoMoon.io -->
<!DOCTYPE svg PUBLIC "-//W3C//DTD SVG 1.1//EN" "http://www.w3.org/Graphics/SVG/1.1/DTD/svg11.dtd">
<svg version="1.1" xmlns="http://www.w3.org/2000/svg" xmlns:xlink="http://www.w3.org/1999/xlink" width="20" height="20" viewBox="0 0 20 20">
<path fill="rgb(109, 180, 191)" d="M10 0.31c-5.352 0-9.691 4.338-9.691 9.691s4.339 9.69 9.691 9.69c5.352 0 9.69-4.339 9.69-9.69s-4.339-9.691-9.69-9.691z"></path>
<path fill="rgb(185, 201, 181)" d="M12.612 2.88c0 0-1.091-0.25-2.753-0.25s-2.47 0.25-2.47 0.25c-0.285 0-0.516 0.231-0.516 0.516h6.255c-0-0.285-0.231-0.516-0.516-0.516z"></path>
<path fill="rgb(195, 215, 190)" d="M12.612 2.88h-5.224c-0.285 0-0.516 0.231-0.516 0.516v15.778c0.981 0.334 2.033 0.516 3.128 0.516s2.146-0.182 3.128-0.516v-15.778c0-0.285-0.231-0.516-0.516-0.516z"></path>
<path fill="rgb(222, 229, 220)" d="M12.204 15.873c0 0-0.92-0.211-2.323-0.211s-2.084 0.211-2.084 0.211c-0.24 0-0.435 0.195-0.435 0.435v3.018c0.839 0.237 1.724 0.364 2.639 0.364s1.8-0.127 2.639-0.364v-3.018c0-0.24-0.195-0.435-0.435-0.435z"></path>
<path fill="rgb(94, 94, 94)" d="M8.745 7.207c0 0.291-0.236 0.527-0.527 0.527s-0.527-0.236-0.527-0.527c0-0.291 0.236-0.527 0.527-0.527s0.527 0.236 0.527 0.527z"></path>
<path fill="rgb(94, 94, 94)" d="M10.562 7.207c0 0.291-0.236 0.527-0.527 0.527s-0.527-0.236-0.527-0.527c0-0.291 0.236-0.527 0.527-0.527s0.527 0.236 0.527 0.527z"></path>
<path fill="rgb(94, 94, 94)" d="M12.378 7.207c0 0.291-0.236 0.527-0.527 0.527s-0.527-0.236-0.527-0.527c0-0.291 0.236-0.527 0.527-0.527s0.527 0.236 0.527 0.527z"></path>
<path fill="rgb(94, 94, 94)" d="M8.745 5.586c0 0.291-0.236 0.527-0.527 0.527s-0.527-0.236-0.527-0.527c0-0.291 0.236-0.527 0.527-0.527s0.527 0.236 0.527 0.527z"></path>
<path fill="rgb(94, 94, 94)" d="M10.562 5.586c0 0.291-0.236 0.527-0.527 0.527s-0.527-0.236-0.527-0.527c0-0.291 0.236-0.527 0.527-0.527s0.527 0.236 0.527 0.527z"></path>
<path fill="rgb(94, 94, 94)" d="M12.378 5.586c0 0.291-0.236 0.527-0.527 0.527s-0.527-0.236-0.527-0.527c0-0.291 0.236-0.527 0.527-0.527s0.527 0.236 0.527 0.527z"></path>
<path fill="rgb(94, 94, 94)" d="M8.745 8.848c0 0.291-0.236 0.527-0.527 0.527s-0.527-0.236-0.527-0.527c0-0.291 0.236-0.527 0.527-0.527s0.527 0.236 0.527 0.527z"></path>
<path fill="rgb(94, 94, 94)" d="M10.562 8.848c0 0.291-0.236 0.527-0.527 0.527s-0.527-0.236-0.527-0.527c0-0.291 0.236-0.527 0.527-0.527s0.527 0.236 0.527 0.527z"></path>
<path fill="rgb(94, 94, 94)" d="M12.378 8.848c0 0.291-0.236 0.527-0.527 0.527s-0.527-0.236-0.527-0.527c0-0.291 0.236-0.527 0.527-0.527s0.527 0.236 0.527 0.527z"></path>
<path fill="rgb(94, 94, 94)" d="M8.745 10.488c0 0.291-0.236 0.527-0.527 0.527s-0.527-0.236-0.527-0.527c0-0.291 0.236-0.527 0.527-0.527s0.527 0.236 0.527 0.527z"></path>
<path fill="rgb(132, 132, 132)" d="M8.413 11.924c0 0.2-0.162 0.361-0.361 0.361s-0.361-0.162-0.361-0.361c0-0.2 0.162-0.361 0.361-0.361s0.361 0.162 0.361 0.361z"></path>
<path fill="rgb(132, 132, 132)" d="M8.413 14.951c0 0.2-0.162 0.361-0.361 0.361s-0.361-0.162-0.361-0.361c0-0.2 0.162-0.361 0.361-0.361s0.361 0.162 0.361 0.361z"></path>
<path fill="rgb(132, 132, 132)" d="M12.362 11.924c0 0.2-0.162 0.361-0.361 0.361s-0.361-0.162-0.361-0.361c0-0.2 0.162-0.361 0.361-0.361s0.361 0.162 0.361 0.361z"></path>
<path fill="rgb(132, 132, 132)" d="M12.362 14.951c0 0.2-0.162 0.361-0.361 0.361s-0.361-0.162-0.361-0.361c0-0.2 0.162-0.361 0.361-0.361s0.361 0.162 0.361 0.361z"></path>
<path fill="rgb(94, 94, 94)" d="M10.562 10.488c0 0.291-0.236 0.527-0.527 0.527s-0.527-0.236-0.527-0.527c0-0.291 0.236-0.527 0.527-0.527s0.527 0.236 0.527 0.527z"></path>
<path fill="rgb(94, 94, 94)" d="M12.378 10.488c0 0.291-0.236 0.527-0.527 0.527s-0.527-0.236-0.527-0.527c0-0.291 0.236-0.527 0.527-0.527s0.527 0.236 0.527 0.527z"></path>
<path fill="rgb(204, 34, 0)" d="M8.687 3.867c0 0.28-0.227 0.508-0.508 0.508s-0.508-0.227-0.508-0.508c0-0.28 0.227-0.508 0.508-0.508s0.508 0.227 0.508 0.508z"></path>
<path fill="rgb(94, 94, 94)" d="M8.745 16.699c0 0.141-0.236 0.255-0.527 0.255s-0.527-0.114-0.527-0.255c0-0.141 0.236-0.255 0.527-0.255s0.527 0.114 0.527 0.255z"></path>
<path fill="rgb(94, 94, 94)" d="M10.562 16.699c0 0.141-0.236 0.255-0.527 0.255s-0.527-0.114-0.527-0.255c0-0.141 0.236-0.255 0.527-0.255s0.527 0.114 0.527 0.255z"></path>
<path fill="rgb(94, 94, 94)" d="M12.378 16.699c0 0.141-0.236 0.255-0.527 0.255s-0.527-0.114-0.527-0.255c0-0.141 0.236-0.255 0.527-0.255s0.527 0.114 0.527 0.255z"></path>
<path fill="rgb(94, 94, 94)" d="M8.745 17.701c0 0.141-0.236 0.255-0.527 0.255s-0.527-0.114-0.527-0.255c0-0.141 0.236-0.255 0.527-0.255s0.527 0.114 0.527 0.255z"></path>
<path fill="rgb(94, 94, 94)" d="M10.562 17.701c0 0.141-0.236 0.255-0.527 0.255s-0.527-0.114-0.527-0.255c0-0.141 0.236-0.255 0.527-0.255s0.527 0.114 0.527 0.255z"></path>
<path fill="rgb(94, 94, 94)" d="M12.378 17.701c0 0.141-0.236 0.255-0.527 0.255s-0.527-0.114-0.527-0.255c0-0.141 0.236-0.255 0.527-0.255s0.527 0.114 0.527 0.255z"></path>
<path fill="rgb(94, 94, 94)" d="M8.745 18.702c0 0.141-0.236 0.255-0.527 0.255s-0.527-0.114-0.527-0.255c0-0.141 0.236-0.255 0.527-0.255s0.527 0.114 0.527 0.255z"></path>
<path fill="rgb(94, 94, 94)" d="M10.562 18.702c0 0.141-0.236 0.255-0.527 0.255s-0.527-0.114-0.527-0.255c0-0.141 0.236-0.255 0.527-0.255s0.527 0.114 0.527 0.255z"></path>
<path fill="rgb(94, 94, 94)" d="M12.378 18.702c0 0.141-0.236 0.255-0.527 0.255s-0.527-0.114-0.527-0.255c0-0.141 0.236-0.255 0.527-0.255s0.527 0.114 0.527 0.255z"></path>
<path fill="rgb(94, 94, 94)" d="M9.761 13.337l-0.836-0.836c-0.016-0.016-0.038-0.024-0.061-0.023s-0.043 0.013-0.057 0.031c-0.385 0.52-0.385 1.246 0 1.765 0.014 0.018 0.034 0.030 0.057 0.031 0.002 0 0.004 0 0.006 0 0.021 0 0.041-0.008 0.055-0.023l0.836-0.836c0.031-0.030 0.031-0.080 0-0.11z"></path>
<path fill="rgb(94, 94, 94)" d="M10.883 12.198c-0.257-0.19-0.562-0.291-0.883-0.291s-0.626 0.101-0.883 0.291c-0.018 0.014-0.030 0.034-0.031 0.057s0.007 0.045 0.023 0.061l0.836 0.836c0.015 0.015 0.035 0.023 0.055 0.023s0.040-0.008 0.055-0.023l0.836-0.836c0.016-0.016 0.024-0.038 0.023-0.061s-0.013-0.043-0.031-0.057z"></path>
<path fill="rgb(94, 94, 94)" d="M10.891 14.467l-0.836-0.836c-0.029-0.029-0.081-0.029-0.11 0l-0.836 0.836c-0.016 0.016-0.024 0.038-0.023 0.061s0.013 0.043 0.031 0.057c0.257 0.19 0.562 0.291 0.883 0.291 0 0 0 0 0 0 0.321 0 0.626-0.101 0.883-0.291 0.018-0.014 0.030-0.034 0.031-0.057s-0.007-0.045-0.023-0.061z"></path>
<path fill="rgb(94, 94, 94)" d="M11.194 12.509c-0.014-0.018-0.034-0.030-0.057-0.031s-0.045 0.007-0.061 0.023l-0.836 0.836c-0.015 0.015-0.023 0.035-0.023 0.055s0.008 0.041 0.023 0.055l0.836 0.836c0.015 0.015 0.035 0.023 0.055 0.023 0.002 0 0.004-0 0.006-0 0.023-0.002 0.043-0.013 0.057-0.031 0.385-0.52 0.385-1.246 0-1.765z"></path>
</svg>
