<?xml version="1.0" encoding="utf-8"?>
<!-- Generator: Adobe Illustrator 16.0.0, SVG Export Plug-In . SVG Version: 6.00 Build 0)  -->
<!DOCTYPE svg PUBLIC "-//W3C//DTD SVG 1.1//EN" "http://www.w3.org/Graphics/SVG/1.1/DTD/svg11.dtd">
<svg version="1.1" id="Layer_1" xmlns="http://www.w3.org/2000/svg" xmlns:xlink="http://www.w3.org/1999/xlink" x="0px" y="0px"
	 width="20px" height="20px" viewBox="0 0 20 20" enable-background="new 0 0 20 20" xml:space="preserve">
<g>
	<path fill="#4ABC96" d="M19.69,10c0,5.351-4.338,9.69-9.69,9.69S0.31,15.353,0.31,10c0-5.352,4.338-9.69,9.69-9.69
		S19.69,4.647,19.69,10z"/>
	<path fill="#263A45" d="M7.471,17.267c-0.226,0.226-0.593,0.226-0.818,0l-3.649-3.649c-0.226-0.227-0.3-1.071-0.073-1.298
		l6.922-6.922c0.227-0.227,0.704-0.263,0.93-0.037l3.649,3.648c0.226,0.226,0.188,1.108-0.037,1.334L7.471,17.267z"/>
	<path fill="#989A9A" d="M10.97,12.432c-0.186,0.187-0.488,0.187-0.675,0l-3.011-3.01C7.266,9.403,7.25,9.382,7.234,9.36
		c-0.133,0.186-0.117,0.446,0.05,0.614l3.011,3.011c0.187,0.186,0.489,0.186,0.675,0l5.854-5.856L16.473,6.93L10.97,12.432z"/>
	<path fill="#C9C9C8" d="M12.122,4.462l-0.354-0.199L7.284,8.747c-0.167,0.167-0.183,0.428-0.05,0.614
		c0.015-0.021,0.031-0.042,0.05-0.061L12.122,4.462L12.122,4.462z"/>
	<path fill="#C9C9C8" d="M10.295,12.432c0.187,0.187,0.489,0.187,0.675,0l5.503-5.502l-4.351-2.469L7.286,9.299
		c-0.02,0.019-0.035,0.039-0.051,0.061C7.25,9.38,7.267,9.401,7.286,9.421L10.295,12.432L10.295,12.432z"/>
	<path fill="#989A9A" d="M17.104,5.825L17.08,5.8c0.114,0.185,0.092,0.431-0.067,0.589l-0.542,0.542l0.354,0.199l0.188-0.188
		C17.199,6.756,17.291,6.012,17.104,5.825z"/>
	<path fill="#C9C9C8" d="M13.326,3.258c0.187-0.187,0.581-0.629,0.768-0.442L17.078,5.8c-0.019-0.03-0.041-0.06-0.066-0.085
		l-3.011-3.01c-0.186-0.187-0.488-0.187-0.676,0l-1.557,1.558l0.352,0.199L13.326,3.258L13.326,3.258z"/>
	<path fill="#C9C9C8" d="M13.326,3.258l-1.204,1.204l4.349,2.469l0.542-0.542c0.159-0.159,0.182-0.404,0.067-0.589l-2.985-2.984
		c-0.186-0.187-0.58,0.257-0.767,0.442H13.326z"/>
	<path fill="#344E5D" d="M7.471,16.713c-0.226,0.227-0.593,0.227-0.818,0l-3.649-3.649c-0.226-0.226-0.226-0.592,0-0.818
		l6.923-6.922c0.226-0.227,0.593-0.227,0.818,0l3.649,3.648c0.226,0.227,0.226,0.593,0,0.818L7.471,16.713L7.471,16.713z"/>
	<path fill="#989897" d="M14.601,8.017c-0.055,0.055-0.144,0.055-0.197,0l-0.595-0.593c-0.054-0.055-0.054-0.144,0-0.198
		l0.409-0.408c0.055-0.054,0.144-0.054,0.197,0l0.594,0.594c0.055,0.055,0.055,0.144,0,0.197L14.601,8.017z"/>
	<path fill="#807F7F" d="M14.449,7.091c-0.049-0.049-0.126-0.05-0.172-0.003l-0.349,0.351c-0.02,0.02-0.03,0.046-0.032,0.072
		l0.508,0.506c0.054,0.055,0.143,0.055,0.198,0l0.384-0.384c-0.005-0.006-0.008-0.014-0.014-0.02L14.449,7.091L14.449,7.091z"/>
	<path fill="#989897" d="M12.49,5.904c-0.054,0.055-0.144,0.055-0.198,0l-0.593-0.593c-0.056-0.055-0.056-0.144,0-0.198l0.408-0.408
		c0.054-0.055,0.144-0.055,0.198,0l0.594,0.594c0.053,0.055,0.053,0.144,0,0.198L12.49,5.904z"/>
	<path fill="#807F7F" d="M12.339,4.979c-0.049-0.048-0.126-0.049-0.172-0.002l-0.35,0.35c-0.02,0.02-0.028,0.046-0.031,0.072
		l0.508,0.506c0.054,0.055,0.144,0.055,0.197,0l0.385-0.384c-0.005-0.007-0.008-0.014-0.014-0.02L12.339,4.979z"/>
	<path fill="#263A45" d="M6.793,14.023c0.292-0.292,0.328-0.742,0.109-1.073l0.31-0.311h0.004v-0.004l0.675-0.674l2.008,0.137
		c0.042,0.003,0.083-0.012,0.112-0.042l0.58-0.579l0.295,0.293l0.832-0.832l-0.832-0.833l-0.833,0.833l0.331,0.33l-0.533,0.535
		l-1.685-0.117l2.412-2.412l0.545,0.544l0.105-1.444l-1.44,0.111l0.53,0.528l-3.103,3.103v-1.617l0.45-0.451
		c0.271,0.198,0.65,0.176,0.895-0.069c0.269-0.269,0.269-0.705,0-0.975c-0.269-0.269-0.705-0.269-0.975,0
		C7.361,9.228,7.325,9.565,7.472,9.828l-0.507,0.507c-0.026,0.027-0.043,0.064-0.043,0.104v1.971l-0.285,0.285
		c-0.329-0.202-0.766-0.161-1.05,0.123c-0.334,0.333-0.334,0.873,0,1.208c0.332,0.334,0.873,0.332,1.205,0L6.793,14.023z"/>
</g>
</svg>
