<?xml version="1.0" encoding="utf-8"?>
<!-- Generator: Adobe Illustrator 16.0.0, SVG Export Plug-In . SVG Version: 6.00 Build 0)  -->
<!DOCTYPE svg PUBLIC "-//W3C//DTD SVG 1.1//EN" "http://www.w3.org/Graphics/SVG/1.1/DTD/svg11.dtd">
<svg version="1.1" id="Layer_1" xmlns="http://www.w3.org/2000/svg" xmlns:xlink="http://www.w3.org/1999/xlink" x="0px" y="0px"
	 width="20px" height="20px" viewBox="0 0 20 20" enable-background="new 0 0 20 20" xml:space="preserve">
<g>
	<path fill="#25B7D3" d="M19.69,10c0-5.352-4.339-9.69-9.69-9.69S0.31,4.648,0.31,10c0,5.352,4.338,9.69,9.69,9.69
		S19.69,15.352,19.69,10z"/>
	<path fill="#CECECC" d="M13.999,15.412c0,0.636-0.514,1.15-1.149,1.15h-5.7C6.515,16.562,6,16.048,6,15.412V4.587
		c0-0.635,0.515-1.15,1.149-1.15h5.7c0.636,0,1.149,0.515,1.149,1.15V15.412z"/>
	<path fill="#C2C2BA" d="M7.15,16.562h5.701c0.635,0,1.149-0.515,1.149-1.15V4.587c0-0.299-0.115-0.57-0.302-0.775L6.001,9.648
		v5.764C6.001,16.048,6.516,16.562,7.15,16.562L7.15,16.562z"/>
	<path fill="#3A3A38" d="M6.679,4.14h6.642v4.981H6.679V4.14z"/>
	<path fill="#4F4F4E" d="M6.679,4.14h6.642L6.679,9.122V4.14z"/>
	<path fill="#E8E6E3" d="M12.395,12.826c0,1.323-1.072,2.395-2.395,2.395c-1.323,0-2.395-1.071-2.395-2.395S8.677,10.431,10,10.431
		C11.322,10.431,12.395,11.503,12.395,12.826z"/>
	<path fill="#C2C2BA" d="M10.862,12.826c0,0.477-0.386,0.862-0.862,0.862s-0.862-0.386-0.862-0.862S9.524,11.964,10,11.964
		S10.862,12.35,10.862,12.826z"/>
	<path fill="#A8A8A5" d="M7.941,12.817l0.322-0.198c0.009-0.005,0.02-0.005,0.029,0s0.015,0.015,0.015,0.025v0.394
		c0,0.011-0.005,0.021-0.015,0.025c-0.004,0.003-0.009,0.004-0.014,0.004c-0.005,0-0.011-0.002-0.015-0.005l-0.322-0.196
		c-0.009-0.005-0.014-0.015-0.014-0.024S7.932,12.822,7.941,12.817L7.941,12.817z"/>
	<path fill="#A8A8A5" d="M8.36,12.817l0.322-0.198c0.009-0.005,0.02-0.005,0.029,0c0.009,0.005,0.015,0.015,0.015,0.025v0.394
		c0,0.011-0.006,0.021-0.015,0.025c-0.004,0.003-0.009,0.004-0.015,0.004s-0.01-0.002-0.015-0.005L8.36,12.866
		c-0.008-0.005-0.014-0.015-0.014-0.024S8.352,12.822,8.36,12.817L8.36,12.817z"/>
	<path fill="#A8A8A5" d="M12.032,12.865l-0.322,0.198c-0.009,0.005-0.021,0.005-0.029,0s-0.015-0.015-0.015-0.024v-0.395
		c0-0.01,0.006-0.021,0.015-0.025c0.005-0.002,0.009-0.003,0.014-0.003c0.006,0,0.011,0.001,0.016,0.004l0.321,0.196
		c0.009,0.005,0.014,0.015,0.014,0.024S12.04,12.86,12.032,12.865L12.032,12.865z"/>
	<path fill="#A8A8A5" d="M11.612,12.865l-0.322,0.198c-0.009,0.005-0.02,0.005-0.029,0c-0.009-0.005-0.015-0.015-0.015-0.024v-0.395
		c0-0.01,0.006-0.021,0.015-0.025c0.005-0.002,0.01-0.003,0.015-0.003s0.011,0.001,0.015,0.004l0.322,0.196
		c0.008,0.005,0.014,0.015,0.014,0.024S11.62,12.86,11.612,12.865L11.612,12.865z"/>
	<path fill="#A8A8A5" d="M9.997,14.445l-0.293-0.181c-0.008-0.005-0.019-0.005-0.027,0c-0.009,0.004-0.014,0.013-0.014,0.022v0.358
		c0,0.01,0.005,0.019,0.014,0.023c0.004,0.002,0.008,0.004,0.013,0.004c0.005,0,0.01-0.002,0.014-0.004l0.293-0.179
		c0.008-0.005,0.013-0.014,0.013-0.022C10.009,14.458,10.004,14.45,9.997,14.445L9.997,14.445z"/>
	<path fill="#A8A8A5" d="M10.252,14.253h-0.101c-0.009,0-0.017,0.008-0.017,0.017v0.393c0,0.009,0.008,0.018,0.017,0.018h0.101
		c0.009,0,0.017-0.009,0.017-0.018V14.27C10.269,14.261,10.262,14.253,10.252,14.253z"/>
	<path fill="#A8A8A5" d="M10.437,14.253h-0.101c-0.009,0-0.017,0.008-0.017,0.017v0.393c0,0.009,0.007,0.018,0.017,0.018h0.101
		c0.009,0,0.017-0.009,0.017-0.018V14.27C10.454,14.261,10.446,14.253,10.437,14.253z"/>
	<path fill="#A8A8A5" d="M9.5,11.32l-0.05-0.2v0.217c0,0.013-0.003,0.021-0.008,0.027c-0.005,0.007-0.013,0.01-0.021,0.01
		c-0.009,0-0.016-0.003-0.021-0.01c-0.005-0.006-0.008-0.015-0.008-0.027v-0.249c0-0.013,0.003-0.022,0.011-0.027
		c0.007-0.005,0.017-0.007,0.029-0.007h0.02c0.012,0,0.021,0,0.026,0.003c0.005,0.002,0.009,0.006,0.012,0.012
		c0.002,0.005,0.005,0.015,0.009,0.026l0.045,0.173l0.046-0.173c0.003-0.012,0.006-0.021,0.009-0.026
		c0.002-0.006,0.006-0.01,0.012-0.012c0.005-0.003,0.014-0.003,0.026-0.003h0.02c0.012,0,0.021,0.002,0.029,0.007
		s0.011,0.015,0.011,0.027v0.249c0,0.013-0.003,0.021-0.008,0.027c-0.005,0.007-0.012,0.01-0.021,0.01
		c-0.009,0-0.015-0.003-0.021-0.01c-0.006-0.006-0.008-0.015-0.008-0.027V11.12l-0.05,0.2c-0.003,0.014-0.006,0.023-0.008,0.029
		c-0.002,0.006-0.006,0.012-0.012,0.017c-0.005,0.005-0.013,0.008-0.023,0.008c-0.007,0-0.014-0.002-0.019-0.006
		c-0.005-0.003-0.009-0.007-0.012-0.012s-0.005-0.011-0.007-0.017C9.503,11.334,9.501,11.327,9.5,11.32L9.5,11.32z"/>
	<path fill="#A8A8A5" d="M9.968,11.103H9.824v0.077h0.132c0.01,0,0.018,0.003,0.022,0.007c0.005,0.004,0.007,0.01,0.007,0.017
		c0,0.008-0.002,0.014-0.007,0.019c-0.005,0.004-0.012,0.006-0.022,0.006H9.824v0.09h0.148c0.01,0,0.017,0.003,0.022,0.007
		c0.005,0.005,0.008,0.011,0.008,0.019S10,11.356,9.995,11.361c-0.005,0.005-0.012,0.007-0.022,0.007H9.799
		c-0.014,0-0.024-0.004-0.03-0.009c-0.006-0.006-0.009-0.017-0.009-0.03v-0.236c0-0.01,0.001-0.017,0.004-0.022
		c0.003-0.007,0.007-0.01,0.013-0.014c0.006-0.002,0.013-0.004,0.022-0.004h0.168c0.01,0,0.018,0.003,0.022,0.008
		c0.005,0.004,0.008,0.01,0.008,0.018c0,0.007-0.002,0.013-0.008,0.018C9.985,11.1,9.978,11.103,9.968,11.103L9.968,11.103z"/>
	<path fill="#A8A8A5" d="M10.137,11.086l0.123,0.186v-0.187c0-0.012,0.002-0.021,0.008-0.028c0.005-0.006,0.012-0.008,0.021-0.008
		c0.009,0,0.016,0.003,0.021,0.008c0.005,0.007,0.008,0.017,0.008,0.028v0.247c0,0.028-0.012,0.042-0.034,0.042
		c-0.006,0-0.011-0.001-0.016-0.003c-0.005-0.002-0.009-0.004-0.013-0.008c-0.004-0.003-0.008-0.008-0.011-0.012
		c-0.003-0.005-0.007-0.01-0.01-0.015l-0.12-0.184v0.184c0,0.013-0.003,0.021-0.008,0.027c-0.006,0.006-0.013,0.01-0.022,0.01
		s-0.016-0.004-0.021-0.01s-0.008-0.016-0.008-0.027v-0.242c0-0.011,0.001-0.019,0.003-0.024c0.002-0.007,0.007-0.013,0.014-0.017
		c0.006-0.003,0.013-0.006,0.021-0.006c0.006,0,0.011,0.001,0.015,0.003s0.008,0.005,0.011,0.008
		c0.002,0.003,0.006,0.007,0.009,0.012C10.129,11.075,10.132,11.081,10.137,11.086L10.137,11.086z"/>
	<path fill="#A8A8A5" d="M10.389,11.237v-0.15c0-0.013,0.002-0.022,0.009-0.029c0.006-0.007,0.013-0.01,0.022-0.01
		c0.01,0,0.018,0.003,0.023,0.01s0.009,0.017,0.009,0.029v0.154c0,0.018,0.002,0.032,0.006,0.044
		c0.004,0.013,0.011,0.021,0.021,0.027c0.01,0.007,0.024,0.01,0.042,0.01c0.024,0,0.042-0.007,0.053-0.02
		c0.01-0.014,0.016-0.033,0.016-0.061v-0.156c0-0.013,0.003-0.022,0.009-0.029c0.006-0.006,0.014-0.01,0.023-0.01
		c0.009,0,0.017,0.004,0.023,0.01c0.006,0.007,0.009,0.017,0.009,0.029v0.151c0,0.024-0.003,0.046-0.008,0.062
		c-0.005,0.017-0.014,0.031-0.027,0.043c-0.012,0.012-0.024,0.02-0.039,0.023c-0.016,0.005-0.033,0.008-0.054,0.008
		c-0.024,0-0.045-0.003-0.062-0.009c-0.017-0.005-0.031-0.013-0.043-0.024c-0.011-0.011-0.019-0.024-0.024-0.042
		C10.392,11.281,10.389,11.261,10.389,11.237L10.389,11.237z"/>
</g>
</svg>
