<?xml version="1.0" encoding="utf-8"?>
<!-- Generated by IcoMoon.io -->
<!DOCTYPE svg PUBLIC "-//W3C//DTD SVG 1.1//EN" "http://www.w3.org/Graphics/SVG/1.1/DTD/svg11.dtd">
<svg version="1.1" xmlns="http://www.w3.org/2000/svg" xmlns:xlink="http://www.w3.org/1999/xlink" width="20" height="20" viewBox="0 0 20 20">
<path fill="rgb(50, 190, 166)" d="M0.309 10c0-5.352 4.339-9.691 9.691-9.691s9.69 4.338 9.69 9.691c0 5.352-4.339 9.691-9.69 9.691s-9.691-4.339-9.691-9.691z"></path>
<path fill="rgb(58, 58, 56)" d="M16.093 5.897h-12.187c-0.098 0-0.177 0.079-0.177 0.177v7.573c0 0.098 0.079 0.177 0.177 0.177h12.187c0.098 0 0.177-0.079 0.177-0.177v-7.573c0-0.098-0.079-0.177-0.177-0.177z"></path>
<path fill="rgb(109, 109, 106)" d="M10.132 6.134c0 0.073-0.059 0.132-0.132 0.132s-0.132-0.059-0.132-0.132c0-0.073 0.059-0.132 0.132-0.132s0.132 0.059 0.132 0.132z"></path>
<path fill="rgb(109, 109, 106)" d="M4.088 6.374h11.825v6.829h-11.825v-6.829z"></path>
<path fill="rgb(86, 86, 84)" d="M15.912 6.374h-11.825v6.829z"></path>
<path fill="rgb(221, 221, 221)" d="M2.812 13.653v0.408c0 0.096 0.078 0.174 0.174 0.174h14.028c0.096 0 0.174-0.078 0.174-0.174v-0.408h-14.376z"></path>
<path fill="rgb(191, 191, 190)" d="M9.029 13.957h1.942c0.055 0 0.101-0.045 0.101-0.101v-0.204h-2.144v0.204c0 0.055 0.045 0.101 0.101 0.101z"></path>
</svg>
