<?xml version="1.0" encoding="utf-8"?>
<!-- Generator: Adobe Illustrator 16.0.0, SVG Export Plug-In . SVG Version: 6.00 Build 0)  -->
<!DOCTYPE svg PUBLIC "-//W3C//DTD SVG 1.1//EN" "http://www.w3.org/Graphics/SVG/1.1/DTD/svg11.dtd">
<svg version="1.1" id="Layer_1" xmlns="http://www.w3.org/2000/svg" xmlns:xlink="http://www.w3.org/1999/xlink" x="0px" y="0px"
	 width="20px" height="20px" viewBox="0 0 20 20" enable-background="new 0 0 20 20" xml:space="preserve">
<g>
	<path fill="#3CB881" d="M19.69,10c0,5.351-4.338,9.69-9.69,9.69S0.31,15.353,0.31,10c0-5.352,4.338-9.69,9.69-9.69
		S19.69,4.647,19.69,10z"/>
	<path fill="#CCE9E9" d="M13.697,10.677c0,0.359-0.292,0.652-0.652,0.652h-6.09c-0.359,0-0.651-0.293-0.651-0.652V8.012
		c0-0.36,0.292-0.652,0.651-0.652h6.09c0.36,0,0.652,0.292,0.652,0.652V10.677z"/>
	<path fill="#CCE9E9" d="M15.951,13.238c0,0.581-0.47,1.051-1.051,1.051H5.097c-0.58,0-1.051-0.47-1.051-1.051V8.95
		c0-0.58,0.47-1.051,1.051-1.051H14.9c0.581,0,1.051,0.47,1.051,1.051V13.238z"/>
	<path fill="#7BCCC7" d="M13.982,10.963H6.018l0.876-2.246h6.214L13.982,10.963z"/>
	<path fill="#6EBCB5" d="M13.982,10.963H6.018L6.894,9.68h6.214L13.982,10.963z"/>
	<path fill="#C2DFDD" d="M15.951,13.238c0,0.581-0.47,1.051-1.051,1.051H5.097c-0.58,0-1.051-0.47-1.051-1.051V8.95
		c2.845,2.538,9.19,2.713,11.905,0V13.238L15.951,13.238z"/>
	<path fill="#CDE9E6" d="M4.048,8.95v0.438c2.846,2.538,9.19,2.713,11.906,0V8.95C13.24,11.663,6.894,11.488,4.048,8.95z"/>
	<path fill="#B2D0CC" d="M14.902,14.289H5.098c-0.58,0-1.051-0.47-1.051-1.049v0.438c0,0.579,0.47,1.049,1.051,1.049h9.805
		c0.579,0,1.052-0.47,1.052-1.049V13.24C15.954,13.819,15.483,14.289,14.902,14.289z"/>
	<path fill="#626463" d="M13.337,13.011c0,0.319-0.26,0.579-0.579,0.579H7.297c-0.32,0-0.58-0.26-0.58-0.579v-0.592
		c0-0.321,0.26-0.58,0.58-0.58h5.461c0.319,0,0.579,0.26,0.579,0.58V13.011z"/>
	<path fill="#E7E7E7" d="M14.377,15.866H5.681l1.519-3.298h5.747L14.377,15.866z"/>
	<path fill="#DFDFDF" d="M12.656,4.135H7.287L7.024,9.679h6.01L12.656,4.135z"/>
	<path fill="#E7E7E7" d="M12.626,4.339L7.55,4.281L7.122,9.624l5.865,0.107L12.626,4.339z"/>
	<path fill="#EDEEEF" d="M12.538,4.573L7.462,4.456L7.024,9.68l6.076,0.1L12.538,4.573z"/>
	<path fill="#67B4AD" d="M14.261,8.964c0,0.17-0.137,0.308-0.307,0.308s-0.307-0.138-0.307-0.308c0-0.169,0.137-0.307,0.307-0.307
		S14.261,8.795,14.261,8.964z"/>
	<path fill="#67B4AD" d="M15.194,8.964c0,0.17-0.138,0.308-0.307,0.308c-0.17,0-0.307-0.138-0.307-0.308
		c0-0.169,0.137-0.307,0.307-0.307C15.057,8.657,15.194,8.795,15.194,8.964z"/>
	<path fill="#5CA39B" d="M13.355,8.743c0,0.065-0.054,0.119-0.119,0.119H6.82c-0.064,0-0.118-0.054-0.118-0.119l0,0
		c0-0.064,0.054-0.118,0.118-0.118h6.417C13.302,8.625,13.356,8.678,13.355,8.743L13.355,8.743L13.355,8.743z"/>
	<path fill="#C5E2E5" d="M13.394,15.248H9.327l0.181-1.662h3.267L13.394,15.248z"/>
	<path fill="#6CC077" d="M13.245,15.025l-0.446-0.435c0,0-0.157-0.158-0.304-0.152c-0.132,0.006-0.285,0.135-0.314,0.162
		l-0.185-0.146c0,0-0.185-0.188-0.356-0.179c-0.172,0.008-0.376,0.195-0.376,0.195l-0.056,0.043l-0.348-0.272
		c0,0-0.227-0.229-0.438-0.22c-0.211,0.01-0.463,0.24-0.463,0.24l-0.542,0.378L9.33,15.25l4.022-0.002L13.245,15.025L13.245,15.025z
		"/>
	<path fill="#67B8CB" d="M11.636,13.976c0-0.003,0.002-0.005,0.002-0.008c0-0.045-0.062-0.082-0.139-0.082
		c-0.01,0-0.019,0.002-0.029,0.003c-0.022-0.024-0.064-0.041-0.113-0.041c-0.064,0-0.115,0.027-0.128,0.063
		c-0.062,0.011-0.11,0.043-0.11,0.082s0.043,0.069,0.101,0.082c0.021,0.033,0.073,0.059,0.138,0.059
		c0.059,0,0.109-0.021,0.132-0.051c0.017,0.004,0.032,0.007,0.049,0.007c0.069,0,0.123-0.032,0.123-0.072
		c0-0.016-0.01-0.031-0.026-0.043L11.636,13.976z"/>
	<path fill="#67B8CB" d="M12.279,14.077c0-0.002-0.002-0.005-0.002-0.007c0-0.03,0.044-0.057,0.099-0.057
		c0.008,0,0.014,0.001,0.021,0.002c0.016-0.017,0.046-0.029,0.08-0.029c0.046,0,0.083,0.021,0.092,0.046
		c0.045,0.008,0.077,0.029,0.077,0.059c0,0.026-0.028,0.05-0.07,0.058c-0.014,0.024-0.053,0.042-0.099,0.042
		c-0.042,0-0.077-0.015-0.095-0.036c-0.01,0.004-0.021,0.004-0.034,0.004c-0.048,0-0.086-0.022-0.086-0.051
		C12.262,14.097,12.269,14.085,12.279,14.077z"/>
	<path d="M6.863,13.247l0.336-0.679h5.747l0.341,0.679H6.863z"/>
	<path fill="#447A74" d="M9.026,15.227H6.779l0.613-1.63h1.843L9.026,15.227z"/>
</g>
</svg>
