<?xml version="1.0" encoding="utf-8"?>
<!-- Generator: Adobe Illustrator 16.0.0, SVG Export Plug-In . SVG Version: 6.00 Build 0)  -->
<!DOCTYPE svg PUBLIC "-//W3C//DTD SVG 1.1//EN" "http://www.w3.org/Graphics/SVG/1.1/DTD/svg11.dtd">
<svg version="1.1" id="Layer_1" xmlns="http://www.w3.org/2000/svg" xmlns:xlink="http://www.w3.org/1999/xlink" x="0px" y="0px"
	 width="20px" height="20px" viewBox="0 0 20 20" enable-background="new 0 0 20 20" xml:space="preserve">
<g>
	<path fill="#4ABC96" d="M19.69,10c0,5.351-4.338,9.69-9.69,9.69S0.31,15.353,0.31,10c0-5.352,4.338-9.69,9.69-9.69
		S19.69,4.647,19.69,10z"/>
	<path d="M11.901,16.136c0,0.125-0.101,0.096-0.223,0.096H8.124C8,16.231,7.9,16.261,7.9,16.136v-0.152l0.522-0.785l-0.01-1.422
		c0-0.123,0.1-0.223,0.224-0.223h2.528c0.123,0,0.225,0.1,0.225,0.223l-0.01,1.427l0.521,0.78V16.136z"/>
	<path d="M11.901,15.983c0,0.124-0.101,0.095-0.223,0.095H8.124C8,16.078,7.9,16.107,7.9,15.983l0.522-0.914l-0.01-1.422
		c0-0.123,0.1-0.223,0.224-0.223h2.528c0.123,0,0.225,0.099,0.225,0.223l-0.01,1.427l0.523,0.909H11.901z"/>
	<path fill="#08090B" d="M16.942,13.265c0,0.465-0.377,0.841-0.841,0.841h-12.4c-0.465,0-0.841-0.376-0.841-0.841V4.963
		c0-0.464,0.376-0.841,0.841-0.841h12.4c0.464,0,0.841,0.377,0.841,0.841V13.265z"/>
	<path fill="#343433" d="M3.466,4.674h12.848v0.044H3.466V4.674z"/>
	<path fill="#08090B" d="M13.568,4.687l0.395-0.565H3.701c-0.465,0-0.841,0.377-0.841,0.841v7.291h0.604V4.687H13.568L13.568,4.687z
		"/>
	<path d="M16.312,4.687v7.566h0.631V4.962c0-0.464-0.377-0.841-0.841-0.841h-2.139l-0.395,0.565h2.745H16.312z"/>
	<path fill="#676767" d="M13.568,4.687H3.466v8.812h12.848V4.687H13.568z"/>
</g>
</svg>
