<?xml version="1.0" encoding="utf-8"?>
<!-- Generator: Adobe Illustrator 16.0.0, SVG Export Plug-In . SVG Version: 6.00 Build 0)  -->
<!DOCTYPE svg PUBLIC "-//W3C//DTD SVG 1.1//EN" "http://www.w3.org/Graphics/SVG/1.1/DTD/svg11.dtd">
<svg version="1.1" id="Layer_1" xmlns="http://www.w3.org/2000/svg" xmlns:xlink="http://www.w3.org/1999/xlink" x="0px" y="0px"
	 width="20px" height="20px" viewBox="0 0 20 20" enable-background="new 0 0 20 20" xml:space="preserve">
<g>
	<path fill="#EDBF00" d="M19.69,10c0,5.351-4.338,9.69-9.69,9.69S0.31,15.353,0.31,10c0-5.352,4.338-9.69,9.69-9.69
		S19.69,4.647,19.69,10z"/>
	<path fill="#505251" d="M10.015,6.277c2.983,0,5.405,3.52,5.448,7.225h0.735c-0.043-4.208-2.794-8.138-6.184-8.138
		s-6.141,3.93-6.183,8.138h0.735C4.61,9.798,7.032,6.277,10.015,6.277z"/>
	<path fill="#E84849" d="M10.015,5.364c3.191,0,5.816,3.484,6.147,7.402h0.036c-0.043-4.207-1.449-8.388-6.127-8.388
		c-4.522,0-6.197,4.181-6.24,8.388h0.036C4.198,8.849,6.822,5.364,10.015,5.364L10.015,5.364z"/>
	<path fill="#E84849" d="M7.096,12.661c0.296,1.418,0.456,2.241-0.812,2.816c-1.239,0.562-2.445-0.609-2.742-2.027
		c-0.296-1.418,0.36-2.787,1.67-3.108C6.521,10.021,6.8,11.243,7.096,12.661z"/>
	<path fill="#404040" d="M7.096,12.661c0.296,1.418,0.46,2.239-0.311,2.693c-0.753,0.442-1.889-4.937-1.072-5.136
		C6.529,10.019,6.8,11.241,7.096,12.661L7.096,12.661z"/>
	<path fill="#30302F" d="M6.943,12.672c0.198,0.952,0.309,1.503-0.209,1.808c-0.505,0.297-1.267-3.312-0.719-3.445
		C6.562,10.899,6.744,11.722,6.943,12.672z"/>
	<path fill="#E84849" d="M12.905,12.661c-0.297,1.418-0.456,2.241,0.812,2.816c1.237,0.562,2.445-0.609,2.742-2.027
		c0.296-1.418-0.36-2.787-1.67-3.108C13.479,10.021,13.202,11.243,12.905,12.661L12.905,12.661z"/>
	<path fill="#404040" d="M12.905,12.661c-0.297,1.418-0.46,2.239,0.311,2.693c0.753,0.442,1.889-4.937,1.071-5.136
		C13.472,10.019,13.202,11.241,12.905,12.661L12.905,12.661z"/>
	<path fill="#30302F" d="M13.034,12.672c-0.198,0.952-0.309,1.503,0.208,1.808c0.506,0.297,1.268-3.312,0.72-3.445
		C13.414,10.899,13.233,11.722,13.034,12.672z"/>
</g>
</svg>
