<?xml version="1.0" encoding="utf-8"?>
<!-- Generator: Adobe Illustrator 16.0.0, SVG Export Plug-In . SVG Version: 6.00 Build 0)  -->
<!DOCTYPE svg PUBLIC "-//W3C//DTD SVG 1.1//EN" "http://www.w3.org/Graphics/SVG/1.1/DTD/svg11.dtd">
<svg version="1.1" id="Layer_1" xmlns="http://www.w3.org/2000/svg" xmlns:xlink="http://www.w3.org/1999/xlink" x="0px" y="0px"
	 width="20px" height="20px" viewBox="0 0 20 20" enable-background="new 0 0 20 20" xml:space="preserve">
<g>
	<path fill="#EDC92C" d="M19.69,10c0,5.351-4.338,9.69-9.69,9.69S0.31,15.353,0.31,10c0-5.352,4.338-9.69,9.69-9.69
		S19.69,4.647,19.69,10z"/>
	<path fill="#E84849" d="M10,0.31c-5.353,0-9.69,4.338-9.69,9.69c0,4.448,2.998,8.193,7.082,9.332
		c1.503-0.475,2.806-1.345,2.779-3.19c-0.02-1.277-0.052-4.709-0.052-4.744l0.306-0.003c0,0.034,0.031,3.465,0.052,4.741
		c0.027,1.836-1.151,2.789-2.555,3.328C8.592,19.611,9.286,19.69,10,19.69c5.351,0,9.69-4.338,9.69-9.69S15.353,0.31,10,0.31z"/>
	<path fill="#357180" d="M10.477,16.138c-0.02-1.275-0.052-4.708-0.052-4.742l-0.306,0.003c0,0.035,0.032,3.468,0.052,4.744
		c0.026,1.846-1.276,2.717-2.779,3.19c0.175,0.049,0.353,0.093,0.53,0.132C9.325,18.925,10.504,17.974,10.477,16.138z"/>
	<path fill="#A2D4DE" d="M13.944,7.571c0,3.381-0.536,7.65-3.723,7.65s-3.724-4.27-3.724-7.65c0-3.38,1.667-2.907,3.724-2.907
		S13.944,4.191,13.944,7.571z"/>
	<path fill="#67B8CB" d="M13.944,7.725H6.498c0-3.381,1.667-4.438,3.724-4.438S13.944,4.344,13.944,7.725z"/>
	<path fill="#357180" d="M10.171,3.286h0.102v0.753h-0.102V3.286z"/>
	<path fill="#357180" d="M10.834,5.933c0,1.172-0.075,2.122-0.6,2.122c-0.65,0-0.599-0.95-0.599-2.122
		c0-1.173-0.013-1.971,0.599-1.971C10.783,3.962,10.834,4.76,10.834,5.933z"/>
	<path fill="#1A3940" d="M10.655,5.971c0,0.473-0.038,0.856-0.421,0.856c-0.446,0-0.421-0.384-0.421-0.856s-0.025-0.856,0.421-0.856
		C10.643,5.114,10.655,5.498,10.655,5.971z"/>
</g>
</svg>
