<?xml version="1.0" encoding="utf-8"?>
<!-- Generator: Adobe Illustrator 16.0.0, SVG Export Plug-In . SVG Version: 6.00 Build 0)  -->
<!DOCTYPE svg PUBLIC "-//W3C//DTD SVG 1.1//EN" "http://www.w3.org/Graphics/SVG/1.1/DTD/svg11.dtd">
<svg version="1.1" id="Layer_1" xmlns="http://www.w3.org/2000/svg" xmlns:xlink="http://www.w3.org/1999/xlink" x="0px" y="0px"
	 width="20px" height="20px" viewBox="0 0 20 20" enable-background="new 0 0 20 20" xml:space="preserve">
<g>
	<path fill="#A2D4DE" d="M19.689,10c0,5.351-4.34,9.689-9.69,9.689c-5.352,0-9.689-4.339-9.689-9.689S4.648,0.311,10,0.311
		C15.35,0.311,19.689,4.648,19.689,10z"/>
	<path fill="#B1B1B2" d="M0.366,11.035c0.135,1.262,0.511,2.451,1.082,3.522c1.631,3.054,4.848,5.132,8.551,5.132
		s6.92-2.078,8.551-5.132c0.566-1.061,0.939-2.238,1.076-3.485L0.366,11.035z"/>
	<path fill="#6CC077" d="M19.68,9.602c-0.023-0.551-0.092-1.09-0.203-1.614c-0.104-0.498-0.248-0.979-0.426-1.445l-1.957-1.958
		c0,0-1.27-1.479-2.33-1.54c-1.062-0.061-2.203,1.413-2.203,1.413l-1.746,1.747l-0.283-0.283c0,0-1.032-1.203-1.896-1.252
		C7.771,4.622,6.842,5.82,6.842,5.82L5.914,6.749C5.766,6.583,4.992,5.754,4.328,5.717c-0.736-0.042-1.529,0.98-1.529,0.98
		L1.543,7.953L0.531,7.95C0.506,8.067,0.484,8.186,0.463,8.304c-0.048,0.277-0.086,0.557-0.111,0.84
		c-0.024,0.282-0.04,0.565-0.04,0.854c0,0.35,0.02,0.694,0.056,1.034l19.261,0.036c0.039-0.352,0.061-0.708,0.061-1.07
		c0-0.133-0.004-0.265-0.008-0.397H19.68z"/>
	<path fill="#FFFFFF" d="M16.844,14.86l-1.549,0.008l-0.002-0.414l1.549-0.008L16.844,14.86z M13.748,14.874l-1.547,0.01
		l-0.002-0.414l1.547-0.01L13.748,14.874L13.748,14.874z M10.652,14.892l-1.547,0.01l-0.002-0.415l1.547-0.009L10.652,14.892z
		 M7.558,14.909L6.01,14.917l-0.002-0.415l1.548-0.008l0.002,0.413V14.909z M4.462,14.925l-1.548,0.008l-0.002-0.414l1.548-0.008
		L4.462,14.925z"/>
	<path fill="#357180" d="M15.236,11.115l-9.017,0.18c1.572-1.941,3.127-2.433,4.599-2.463C12.383,8.801,14.096,9.319,15.236,11.115z
		"/>
	<path fill="#A2DADB" d="M10.588,11.18l-3.633,0.072c1.23-1.519,2.446-1.903,3.598-1.926l0.035,1.852V11.18z"/>
	<path fill="#A2DADB" d="M11.025,11.17l3.635-0.072c-1.289-1.468-2.52-1.803-3.672-1.78l0.035,1.853H11.025z"/>
	<path fill="#357180" d="M14.971,13.902c0,0-11.449,0.229-11.846,0.237c-0.276,0.006-0.31-0.546-0.31-0.546
		c-0.05-2.485,3.727-2.33,3.727-2.33l8.682-0.174c0,0,0.656,0.377,1.355,0.48c0.52,0.074,0.701,0.515,0.711,0.998
		C17.305,13.194,16.92,13.553,14.971,13.902z"/>
	<path fill="#818282" d="M9.542,13.805c-3.847,0.008-6.698-0.01-6.698-0.01s-0.003,0.043-0.014,0.165
		c-0.013,0.151,0.064,0.254,0.176,0.252l11.952-0.238l0.018-0.277C13.803,13.675,13.389,13.798,9.542,13.805L9.542,13.805z"/>
	<path fill="#202121" d="M6.774,13.692c0,0.781-0.634,1.415-1.415,1.415c-0.781,0-1.415-0.634-1.415-1.415s0.634-1.415,1.415-1.415
		C6.14,12.277,6.774,12.911,6.774,13.692z"/>
	<path fill="#202121" d="M15.055,13.527c0,0.781-0.635,1.415-1.416,1.415s-1.414-0.634-1.414-1.415s0.633-1.414,1.414-1.414
		S15.055,12.746,15.055,13.527z"/>
	<path fill="#818282" d="M6.049,13.692c0,0.382-0.309,0.691-0.69,0.691c-0.381,0-0.69-0.31-0.69-0.691
		c0-0.381,0.309-0.689,0.69-0.689C5.74,13.003,6.049,13.312,6.049,13.692z"/>
	<path fill="#818282" d="M14.328,13.527c0,0.382-0.309,0.69-0.689,0.69s-0.689-0.309-0.689-0.69s0.309-0.69,0.689-0.69
		S14.328,13.146,14.328,13.527z"/>
</g>
</svg>
