<?xml version="1.0" encoding="utf-8"?>
<!-- Generated by IcoMoon.io -->
<!DOCTYPE svg PUBLIC "-//W3C//DTD SVG 1.1//EN" "http://www.w3.org/Graphics/SVG/1.1/DTD/svg11.dtd">
<svg version="1.1" xmlns="http://www.w3.org/2000/svg" xmlns:xlink="http://www.w3.org/1999/xlink" width="20" height="20" viewBox="0 0 20 20">
<path fill="rgb(108, 191, 119)" d="M19.691 10c0-5.352-4.339-9.691-9.69-9.691s-9.691 4.338-9.691 9.691c0 5.352 4.339 9.69 9.691 9.69s9.69-4.339 9.69-9.69z"></path>
<path fill="rgb(156, 156, 156)" d="M13.153 12.612c0 0.031-0.025 0.056-0.056 0.056l-2.313-0.62c-0.031 0-0.056-0.025-0.056-0.056l0.028-0.090c0-0.031 0.025-0.053 0.055-0.053h2.285c0.031 0 0.056 0.021 0.056 0.051v0.712z"></path>
<path fill="rgb(12, 25, 28)" d="M15.81 12.255c0 0.876-0.71 1.585-1.585 1.585s-1.585-0.71-1.585-1.585c0-0.876 0.71-1.585 1.585-1.585s1.585 0.71 1.585 1.585z"></path>
<path fill="rgb(235, 235, 235)" d="M15.141 12.251c0 0.501-0.406 0.907-0.907 0.907s-0.907-0.406-0.907-0.907c0-0.501 0.406-0.907 0.907-0.907s0.907 0.406 0.907 0.907z"></path>
<path fill="rgb(204, 204, 204)" d="M14.38 12.253c0 0.031-0.025 0.055-0.056 0.055h-0.119c-0.031 0-0.056-0.025-0.056-0.055v-0.119c0-0.031 0.025-0.055 0.056-0.055h0.119c0.031 0 0.056 0.025 0.056 0.055v0.119z"></path>
<path fill="rgb(204, 204, 204)" d="M14.295 12.974c-0.043 0-0.080-0.033-0.083-0.077-0.004-0.046 0.031-0.086 0.077-0.089 0.027-0.002 0.055-0.006 0.082-0.012 0.045-0.010 0.089 0.018 0.1 0.063s-0.018 0.089-0.063 0.1c-0.035 0.008-0.071 0.013-0.106 0.016-0.002 0-0.004 0-0.006 0zM13.852 12.838c-0.018 0-0.036-0.006-0.052-0.018-0.028-0.022-0.055-0.047-0.079-0.073-0.031-0.034-0.029-0.086 0.004-0.118s0.086-0.029 0.118 0.004c0.019 0.020 0.039 0.039 0.061 0.056 0.036 0.029 0.042 0.081 0.013 0.117-0.016 0.021-0.041 0.031-0.065 0.031zM14.773 12.698c-0.016 0-0.033-0.005-0.047-0.015-0.038-0.026-0.048-0.078-0.022-0.116 0.015-0.023 0.029-0.047 0.041-0.071 0.020-0.041 0.070-0.059 0.111-0.039s0.059 0.070 0.039 0.111c-0.015 0.032-0.034 0.063-0.054 0.093-0.016 0.024-0.042 0.036-0.069 0.036zM13.613 12.342c-0.046 0-0.077-0.037-0.077-0.083v-0.001c0-0.036-0.001-0.072 0.004-0.107 0.007-0.045 0.047-0.077 0.093-0.070s0.073 0.049 0.066 0.095c-0.004 0.027-0.010 0.055-0.010 0.082v0.001c0 0.046-0.031 0.083-0.077 0.083zM14.854 12.153c-0.035 0-0.068-0.023-0.079-0.059-0.008-0.026-0.018-0.052-0.030-0.077-0.020-0.041-0.003-0.091 0.039-0.111s0.091-0.003 0.111 0.039c0.016 0.032 0.029 0.066 0.039 0.1 0.014 0.044-0.011 0.091-0.055 0.104-0.008 0.003-0.017 0.004-0.025 0.004zM13.851 11.844c-0.024 0-0.049-0.011-0.065-0.031-0.029-0.036-0.023-0.088 0.013-0.117 0.028-0.022 0.058-0.043 0.089-0.061 0.040-0.023 0.091-0.009 0.114 0.030s0.009 0.091-0.030 0.114c-0.024 0.014-0.047 0.029-0.068 0.047-0.015 0.012-0.034 0.018-0.052 0.018zM14.479 11.749c-0.010 0-0.020-0.002-0.030-0.006-0.026-0.010-0.052-0.018-0.079-0.024-0.045-0.010-0.073-0.055-0.063-0.1s0.055-0.073 0.1-0.063c0.035 0.008 0.069 0.019 0.103 0.032 0.043 0.017 0.064 0.065 0.047 0.108-0.013 0.033-0.044 0.053-0.078 0.053z"></path>
<path fill="rgb(12, 25, 28)" d="M7.503 12.255c0 0.876-0.71 1.585-1.585 1.585s-1.585-0.71-1.585-1.585c0-0.876 0.71-1.585 1.585-1.585s1.585 0.71 1.585 1.585z"></path>
<path fill="rgb(235, 235, 235)" d="M8.211 11.667c0 0-0.43-1.169-1.017-1.706s-1.304-0.338-1.591-0.275c-0.286 0.063-0.851 0.289-1.23 0.954 0 0-0.176 0.212 0.194 0.212h1.702l0.897 0.92h0.888c0-0 0.136 0.057 0.156-0.105z"></path>
<path fill="rgb(235, 235, 235)" d="M5.015 12.251c0-0.501 0.406-0.907 0.907-0.907s0.907 0.406 0.907 0.907c0 0.501-0.406 0.907-0.907 0.907s-0.907-0.406-0.907-0.907z"></path>
<path fill="rgb(214, 214, 214)" d="M8.211 11.667c0 0-0.43-1.169-1.017-1.706-0.221-0.201 0.001-0.11-0.226-0.151 0.214 0.207 0.909 1.118 1.047 1.962h0.040c0-0 0.136 0.057 0.156-0.105z"></path>
<path fill="rgba(255, 255, 255, 0.800000011920929)" d="M6.543 9.655c0 0 0.397 0.153 0.306 0.082-0.499-0.235-1.014-0.098-1.246-0.047-0.286 0.063-0.851 0.302-1.23 0.967 0 0-0.12 0.16 0.048 0.21 0.6-1.382 2.122-1.213 2.122-1.213z"></path>
<path fill="rgb(241, 189, 62)" d="M7.962 6.291c0 0.31-0.215 0.562-0.481 0.562s-0.481-0.252-0.481-0.562c0-0.31 0.215-0.562 0.481-0.562s0.481 0.252 0.481 0.562z"></path>
<path fill="rgb(214, 214, 214)" d="M8.089 10.777c0 0 0.392-0.247 0.558-0.436s0.069-0.472 0.069-0.472l-0.3-1.124c0 0-0.137-0.52-0.554-0.433 0 0-0.308 0.567-0.252 1.24s0.478 1.225 0.478 1.225z"></path>
<path fill="rgb(235, 235, 235)" d="M8.086 8.375l0.633-1.443c0 0 0.205 0.020 0.224 0s0-0.592 0-0.592l-0.65-0.317c0 0 0.069-0.231-0.205-0.308h-0.686v1.143l0.651-0.046-0.048 0.213-0.497 1.25 0.577 0.101z"></path>
<path fill="rgb(234, 235, 237)" d="M14.781 8.768c0 0 1.166 0.756 1.952 2.246 0 0 0.296 0.637-0.768 0.619l-0.407-0.139-3.238-0.032c0 0 0.019 0.234 0.278 0.541h-3.441c0 0-0.629-0.007-1.267-1.228s0.481-0.195 0.481-0.195 0.148 0.656 0.851 0.656h1.24c0 0 1.406 0.113 0.934-1.497 0 0-0.148-0.52-0.999-0.917l0.019-0.144 4.366 0.092z"></path>
<path fill="rgba(0, 0, 0, 0.1599999964237213)" d="M15.484 11.178c0 0.838-0.725 1.517-1.619 1.517s-1.619-0.679-1.619-1.517c0-0.838 0.725-1.517 1.619-1.517s1.619 0.679 1.619 1.517z"></path>
<path fill="rgb(161, 211, 221)" d="M15.484 11.113c0 0.838-0.725 1.517-1.619 1.517s-1.619-0.679-1.619-1.517c0-0.838 0.725-1.517 1.619-1.517s1.619 0.679 1.619 1.517z"></path>
<path fill="rgb(255, 255, 255)" d="M12.039 11.681c0 0-0.247 0.031-0.302-0.813s0.574-1.289 0.574-1.289 1.073-0.777 2.535-0.001c1.462 0.777 1.449 2.071 1.449 2.071z"></path>
<path fill="rgba(0, 0, 0, 0.15000000596046448)" d="M15.53 10.622v0.46h0.675c0 0 0.029-0.23-0.235-0.46h-0.441z"></path>
<path fill="rgb(230, 157, 45)" d="M15.53 10.622v0.46h0.712c0 0 0.029-0.23-0.235-0.46h-0.477z"></path>
<path fill="rgb(235, 235, 235)" d="M7.472 5.729v0c0.003-0 0.006-0 0.009-0h-0.009z"></path>
<path fill="rgb(219, 150, 43)" d="M7.403 6.853v-0.224l-0.369 0.009c0.086 0.129 0.216 0.212 0.369 0.215z"></path>
<path fill="rgb(224, 224, 224)" d="M7.837 6.619l-0.434 0.010v0.229l0.642-0.046 0.063-0.2z"></path>
<path fill="rgb(224, 224, 224)" d="M8.719 6.932c0 0 0.205 0.020 0.224 0s0-0.592 0-0.592l-0.102-0.077 0.003 0.526h-0.131l-0.719 1.541 0.092 0.031 0.633-1.429z"></path>
<path fill="rgb(156, 156, 156)" d="M8.388 6.532c0 0.068-0.055 0.123-0.123 0.123s-0.123-0.055-0.123-0.123c0-0.068 0.055-0.123 0.123-0.123s0.123 0.055 0.123 0.123z"></path>
<path fill="rgb(156, 156, 156)" d="M8.206 6.639l0.397 0.208 0.111-0.218-0.39-0.204z"></path>
<path fill="rgb(204, 204, 204)" d="M8.777 6.735c0 0.068-0.055 0.123-0.123 0.123s-0.123-0.055-0.123-0.123c0-0.068 0.055-0.123 0.123-0.123s0.123 0.055 0.123 0.123z"></path>
<path fill="rgb(201, 201, 201)" d="M8.717 9.869l-0.3-1.124c0 0-0.137-0.52-0.554-0.433 0 0-0.017 0.030-0.041 0.085l0.321 0.211 0.485 1.753c0.007-0.007 0.013-0.014 0.019-0.021 0.167-0.19 0.069-0.472 0.069-0.472z"></path>
<path fill="rgb(235, 235, 235)" d="M9.156 12.020c0 0-2.258-1.906-1.065-4.191l-0.069-0.805c0 0-0.687 1.811-1.537 2.070-0.013 0.004-0.078 0.064-0.078 0.064v0.484c0 0 0.507 0.056 0.887 0.453s0.779 1.277 0.779 1.277 0.668 0.672 1.084 0.647z"></path>
<path fill="rgb(214, 214, 214)" d="M11.453 10.631c0.025-0.101 0.047-0.217 0.031-0.352v0c0 0.132-0.011 0.249-0.031 0.352z"></path>
<path fill="rgb(214, 214, 214)" d="M11.481 10.168c0.004 0.038 0.007 0.075 0.009 0.111 0-0.039-0.003-0.076-0.009-0.111z"></path>
<path fill="rgb(214, 214, 214)" d="M9.323 11.517c1.095 0.126 1.967-0.015 2.136-0.904-0.175 0.695-0.999 0.622-0.999 0.622h-1.24c-0.703 0-0.851-0.652-0.851-0.652s0.131 0.102 0 0c0.046 0.311 0.007 0.825 0.953 0.934z"></path>
<path fill="rgb(204, 204, 204)" d="M14.806 8.764l0.099 0.093-4.399 0.027-0.11-0.054 0.043-0.39 3.99-0.065z"></path>
<path fill="rgb(12, 25, 28)" d="M15.072 8.676c0 0.031-0.025 0.029-0.056 0.029h-4.746c-0.031 0-0.107 0.029-0.107-0.002v-0.86c0-0.031 0.051-0.055 0.082-0.055l4.361-0.028c0.031 0 0.062 0.011 0.062 0.042l0.404 0.875z"></path>
<path fill="rgb(224, 224, 224)" d="M15.188 9.124l0.809 0.724-0.17 0.117-0.638-0.842z"></path>
<path fill="rgb(230, 157, 45)" d="M15.97 9.846l0.25-0.038v-0.414h-0.126l-0.315-0.307h-0.601z"></path>
<path fill="rgb(255, 255, 255)" d="M7.444 8.213c-0.251 0.401-0.607 0.774-0.959 0.881-0.013 0.004-0.078 0.064-0.078 0.064v0.484c0 0 0.507 0.056 0.887 0.453 0.061 0.064 0.141 0.14 0.2 0.223-0.289-0.891-0.17-1.651-0.050-2.105z"></path>
<path fill="rgb(65, 65, 65)" d="M14.417 7.862l0.244-0.116c-0.010-0.013-0.026-0.004-0.044-0.004l-4.349 0.037c-0.017 0-0.033-0.024-0.043-0.012l0.432 0.095h3.76z"></path>
<path fill="rgb(204, 204, 204)" d="M6.023 12.253c0 0.031-0.025 0.055-0.056 0.055h-0.119c-0.031 0-0.056-0.025-0.056-0.055v-0.119c0-0.031 0.025-0.055 0.056-0.055h0.119c0.031 0 0.056 0.025 0.056 0.055v0.119z"></path>
<path fill="rgb(204, 204, 204)" d="M5.97 12.974c-0.043 0-0.080-0.033-0.083-0.077-0.004-0.046 0.031-0.086 0.077-0.089 0.027-0.002 0.055-0.006 0.082-0.012 0.045-0.010 0.089 0.018 0.1 0.063s-0.018 0.089-0.063 0.1c-0.035 0.008-0.070 0.013-0.106 0.016-0.002 0-0.004 0-0.006 0zM5.526 12.838c-0.018 0-0.037-0.006-0.052-0.018-0.028-0.022-0.055-0.047-0.079-0.073-0.031-0.034-0.030-0.086 0.004-0.118s0.086-0.029 0.118 0.004c0.019 0.020 0.039 0.039 0.061 0.056 0.036 0.029 0.042 0.081 0.013 0.117-0.016 0.021-0.041 0.031-0.065 0.031zM6.447 12.698c-0.016 0-0.032-0.005-0.047-0.015-0.038-0.026-0.048-0.078-0.022-0.116 0.015-0.023 0.029-0.047 0.041-0.071 0.020-0.041 0.070-0.059 0.111-0.039s0.059 0.070 0.039 0.111c-0.015 0.032-0.034 0.063-0.054 0.093-0.016 0.024-0.042 0.036-0.069 0.036zM5.257 12.342c-0.046 0-0.077-0.037-0.077-0.083v-0.001c0-0.036 0.014-0.072 0.019-0.107 0.007-0.045 0.055-0.077 0.1-0.070s0.062 0.049 0.055 0.095c-0.004 0.027-0.021 0.055-0.021 0.082v0.001c0 0.046-0.031 0.083-0.077 0.083zM6.528 12.153c-0.036 0-0.068-0.023-0.079-0.059-0.008-0.026-0.018-0.052-0.030-0.077-0.020-0.041-0.003-0.091 0.039-0.111s0.091-0.003 0.111 0.039c0.016 0.032 0.029 0.066 0.039 0.1 0.014 0.044-0.011 0.091-0.055 0.104-0.008 0.003-0.016 0.004-0.025 0.004zM5.525 11.844c-0.024 0-0.049-0.011-0.065-0.031-0.029-0.036-0.023-0.088 0.013-0.117 0.028-0.022 0.058-0.043 0.089-0.061 0.040-0.023 0.091-0.009 0.114 0.030s0.009 0.091-0.030 0.114c-0.024 0.014-0.047 0.029-0.068 0.047-0.015 0.012-0.034 0.018-0.052 0.018zM6.153 11.749c-0.010 0-0.020-0.002-0.030-0.006-0.026-0.010-0.052-0.018-0.079-0.024-0.045-0.010-0.073-0.055-0.063-0.1s0.055-0.073 0.1-0.063c0.035 0.008 0.069 0.019 0.103 0.032 0.043 0.017 0.064 0.065 0.047 0.108-0.013 0.033-0.044 0.053-0.078 0.053z"></path>
<path fill="rgb(219, 150, 43)" d="M16.22 9.809v-0.261h-0.539l0.289 0.292z"></path>
<path fill="rgb(219, 150, 43)" d="M16.242 11.082c0 0 0.004 0-0.004-0.077h-0.708v0.077h0.712z"></path>
<path fill="rgb(149, 195, 204)" d="M15.386 11.637l-3.014 0.015c0 0 0.019 0.043 0.063 0.12h2.865l0.087-0.135z"></path>
</svg>
