<?xml version="1.0" encoding="utf-8"?>
<!-- Generator: Adobe Illustrator 16.0.0, SVG Export Plug-In . SVG Version: 6.00 Build 0)  -->
<!DOCTYPE svg PUBLIC "-//W3C//DTD SVG 1.1//EN" "http://www.w3.org/Graphics/SVG/1.1/DTD/svg11.dtd">
<svg version="1.1" id="Layer_1" xmlns="http://www.w3.org/2000/svg" xmlns:xlink="http://www.w3.org/1999/xlink" x="0px" y="0px"
	 width="20px" height="20px" viewBox="0 0 20 20" enable-background="new 0 0 20 20" xml:space="preserve">
<g>
	<path fill="#344E5D" d="M19.69,10c0,5.352-4.339,9.69-9.69,9.69S0.31,15.352,0.31,10c0-5.351,4.339-9.69,9.69-9.69
		S19.69,4.648,19.69,10z"/>
	<path fill="#5AABB9" d="M7.21,7.253c0,0.261-0.212,0.474-0.474,0.474H5.421c-0.261,0-0.473-0.212-0.473-0.474l0,0
		c0-0.261,0.212-0.473,0.473-0.473h1.315C6.997,6.78,7.21,6.992,7.21,7.253L7.21,7.253z"/>
	<path fill="#5AABB9" d="M12.883,7.253c0,0.261-0.211,0.474-0.473,0.474h-1.315c-0.261,0-0.474-0.212-0.474-0.474l0,0
		c0-0.261,0.212-0.473,0.474-0.473h1.315C12.671,6.78,12.883,6.992,12.883,7.253L12.883,7.253z"/>
	<path fill="#67B8CB" d="M17.448,12.166c0,0.25-0.317,0.59-0.569,0.59h-14.1c-0.25,0-0.453-0.203-0.453-0.453V7.479
		c0-0.25,0.203-0.453,0.453-0.453h14.1c0.25,0,0.453,0.203,0.453,0.453c0,0,0.342,2.023,0.342,3.854
		C17.592,12.033,17.448,12.166,17.448,12.166L17.448,12.166z"/>
	<path fill="#357180" d="M17.489,12.111c0,0.25-0.202,0.646-0.452,0.646H2.779c-0.25,0-0.453-0.204-0.453-0.453h14.916l0.247-0.19
		V12.111z"/>
	<path fill="#202121" d="M8.319,12.719c0,0.445-0.362,0.809-0.809,0.809c-0.448,0-0.81-0.363-0.81-0.809
		c0-0.448,0.361-0.811,0.81-0.811C7.957,11.908,8.319,12.271,8.319,12.719z"/>
	<path fill="#5E5F5E" d="M7.882,12.719c0,0.204-0.166,0.371-0.371,0.371c-0.206,0-0.372-0.167-0.372-0.371
		c0-0.207,0.166-0.372,0.372-0.372C7.716,12.347,7.882,12.512,7.882,12.719z"/>
	<path fill="#202121" d="M4.694,12.719c0,0.445-0.363,0.809-0.81,0.809c-0.448,0-0.81-0.363-0.81-0.809
		c0-0.448,0.361-0.811,0.81-0.811C4.331,11.908,4.694,12.271,4.694,12.719z"/>
	<path fill="#5E5F5E" d="M4.256,12.719c0,0.204-0.166,0.371-0.371,0.371c-0.206,0-0.372-0.167-0.372-0.371
		c0-0.207,0.166-0.372,0.372-0.372C4.09,12.347,4.256,12.512,4.256,12.719z"/>
	<path fill="#202121" d="M13.51,12.719c0,0.445-0.362,0.809-0.81,0.809c-0.448,0-0.811-0.363-0.811-0.809
		c0-0.448,0.362-0.811,0.811-0.811C13.147,11.908,13.51,12.271,13.51,12.719z"/>
	<path fill="#5E5F5E" d="M13.072,12.719c0,0.204-0.168,0.371-0.372,0.371c-0.206,0-0.372-0.167-0.372-0.371
		c0-0.207,0.166-0.372,0.372-0.372C12.904,12.347,13.072,12.512,13.072,12.719z"/>
	<path fill="#357180" d="M16.865,12.756h-3.169V8.918c0-0.277,0.211-0.503,0.469-0.503h2.231c0.258,0,0.469,0.226,0.469,0.503
		V12.756z"/>
	<path fill="#CDEAEA" d="M16.74,12.563h-2.919V9.127c0-0.248,0.192-0.45,0.432-0.45h2.056c0.238,0,0.432,0.201,0.432,0.45V12.563z"
		/>
	<path fill="#357180" d="M15.199,8.42h0.085v4.336h-0.085V8.42z"/>
	<path fill="#CDEAEA" d="M10.107,8.647c0-0.153,0.125-0.278,0.279-0.278h2.052c0.153,0,0.278,0.125,0.278,0.278V10.7
		c0,0.155-0.125,0.279-0.278,0.279h-2.052c-0.154,0-0.279-0.124-0.279-0.279V8.647z"/>
	<path fill="#357180" d="M12.439,11.021h-2.052c-0.177,0-0.321-0.143-0.321-0.32V8.647c0-0.176,0.145-0.32,0.321-0.32h2.052
		c0.177,0,0.32,0.144,0.32,0.32V10.7C12.76,10.878,12.616,11.021,12.439,11.021z M10.388,8.41c-0.131,0-0.238,0.106-0.238,0.237
		V10.7c0,0.131,0.107,0.238,0.238,0.238h2.052c0.131,0,0.238-0.107,0.238-0.238V8.647c0-0.131-0.107-0.237-0.238-0.237H10.388z"/>
	<path fill="#CDEAEA" d="M6.626,8.647c0-0.153,0.125-0.278,0.278-0.278h2.054c0.153,0,0.278,0.125,0.278,0.278V10.7
		c0,0.155-0.125,0.279-0.278,0.279H6.904c-0.153,0-0.278-0.124-0.278-0.279V8.647z"/>
	<path fill="#357180" d="M8.959,11.021H6.906c-0.177,0-0.32-0.143-0.32-0.32V8.647c0-0.176,0.143-0.32,0.32-0.32h2.053
		c0.177,0,0.32,0.144,0.32,0.32V10.7C9.279,10.878,9.136,11.021,8.959,11.021z M6.906,8.41c-0.132,0-0.238,0.106-0.238,0.237V10.7
		c0,0.131,0.106,0.238,0.238,0.238h2.053c0.131,0,0.237-0.107,0.237-0.238V8.647c0-0.131-0.106-0.237-0.237-0.237H6.906z"/>
	<path fill="#CDEAEA" d="M3.145,8.647c0-0.153,0.125-0.278,0.279-0.278h2.053c0.153,0,0.278,0.125,0.278,0.278V10.7
		c0,0.155-0.125,0.279-0.278,0.279H3.424c-0.154,0-0.279-0.124-0.279-0.279V8.647z"/>
	<path fill="#357180" d="M5.478,11.021H3.425c-0.177,0-0.32-0.143-0.32-0.32V8.647c0-0.176,0.144-0.32,0.32-0.32h2.053
		c0.177,0,0.32,0.144,0.32,0.32V10.7C5.798,10.878,5.654,11.021,5.478,11.021L5.478,11.021z M3.425,8.41
		c-0.131,0-0.238,0.106-0.238,0.237V10.7c0,0.131,0.107,0.238,0.238,0.238h2.053c0.131,0,0.237-0.107,0.237-0.238V8.647
		c0-0.131-0.106-0.237-0.237-0.237H3.425z"/>
	<path fill="#357180" d="M17.663,11.056c0,0.029-0.224,0.024-0.383-0.164c-0.088-0.103-0.056-2.172-0.019-3.074
		c0.011-0.247,0.07-0.339,0.07-0.339S17.663,9.705,17.663,11.056L17.663,11.056z"/>
	<path fill="#CDEAEA" d="M17.667,10.837c0,0.027-0.178,0.003-0.291-0.172c-0.112-0.176-0.045-3.269-0.045-3.269
		S17.667,9.574,17.667,10.837z"/>
</g>
</svg>
