<?xml version="1.0" encoding="utf-8"?>
<!-- Generated by IcoMoon.io -->
<!DOCTYPE svg PUBLIC "-//W3C//DTD SVG 1.1//EN" "http://www.w3.org/Graphics/SVG/1.1/DTD/svg11.dtd">
<svg version="1.1" xmlns="http://www.w3.org/2000/svg" xmlns:xlink="http://www.w3.org/1999/xlink" width="20" height="20" viewBox="0 0 20 20">
<path fill="rgb(0, 143, 155)" d="M19.691 10c0-5.352-4.339-9.691-9.69-9.691s-9.691 4.338-9.691 9.691c0 5.352 4.339 9.69 9.691 9.69s9.69-4.339 9.69-9.69z"></path>
<path fill="rgb(32, 33, 33)" d="M12.864 11.355c0-1.251 1.014-2.264 2.264-2.264s2.264 1.014 2.264 2.264c0 1.251-1.014 2.264-2.264 2.264s-2.264-1.014-2.264-2.264z"></path>
<path fill="rgb(235, 235, 235)" d="M13.402 11.355c0-0.954 0.773-1.727 1.727-1.727s1.727 0.773 1.727 1.727c0 0.954-0.773 1.727-1.727 1.727s-1.727-0.773-1.727-1.727z"></path>
<path fill="rgb(255, 255, 255)" d="M16.391 11.306c0 0.664-0.538 1.203-1.203 1.203s-1.203-0.538-1.203-1.203c0-0.664 0.538-1.203 1.203-1.203s1.203 0.538 1.203 1.203z"></path>
<path fill="rgb(61, 64, 64)" d="M15.062 8.778c0 0 1.042 0.302 1.201 0.539 0 0-1.267 0.499-0.849 1.923l-0.225 0.065-0.916-2.474 0.789-0.053z"></path>
<path fill="rgba(32, 33, 33, 0.30000001192092896)" d="M16.004 9.462c0.213-0.226 0.26-0.144 0.26-0.144-0.159-0.237-1.201-0.539-1.201-0.539l-0.789 0.053 0.157 0.399c0.487-0.153 1.267 0.033 1.573 0.231z"></path>
<path fill="rgb(32, 33, 33)" d="M3.081 11.355c0-1.251 1.014-2.264 2.264-2.264s2.264 1.014 2.264 2.264c0 1.251-1.014 2.264-2.264 2.264s-2.264-1.014-2.264-2.264z"></path>
<path fill="rgb(235, 235, 235)" d="M3.619 11.355c0-0.954 0.773-1.727 1.727-1.727s1.727 0.773 1.727 1.727c0 0.954-0.773 1.727-1.727 1.727s-1.727-0.773-1.727-1.727z"></path>
<path fill="rgb(255, 255, 255)" d="M6.641 11.306c0 0.664-0.538 1.203-1.203 1.203s-1.203-0.538-1.203-1.203c0-0.664 0.538-1.203 1.203-1.203s1.203 0.538 1.203 1.203z"></path>
<path fill="rgb(209, 209, 209)" d="M8.044 12.283l0.169-0.428-2.455-0.748-0.911 0.080-0.030 0.050 0.055 0.368z"></path>
<path fill="rgb(61, 64, 64)" d="M7.679 10.195l-0.316 0.649-0.211 1.288 0.83 0.213 0.113 0.301 1.977-1.795-0.299-1.299-1.227 0.080h-0.1z"></path>
<path fill="rgb(61, 64, 64)" d="M13.218 6.947c0 0-0.053 0.935-0.053 0.989s0.237 0.631 0.237 0.631l2.012-0.472-0.504-1.148-1.166-0.179-0.526 0.179z"></path>
<path fill="rgb(61, 64, 64)" d="M13.218 6.941c0 0-0.053 0.936-0.053 0.989s0.237 0.631 0.237 0.631l2.012-0.472-0.504-1.148-1.166-0.179-0.526 0.179z"></path>
<path fill="rgb(214, 214, 214)" d="M8.935 7.35c-0.309 0.309-0.381 0.477-0.381 0.477-0.053 0.124-0.033 0.315 0.043 0.426l1.031 1.477c0.077 0.11 0.229 0.136 0.338 0.057l0.955-0.695c0.109-0.079 0.17-0.251 0.137-0.381l-0.336-1.303c-0.034-0.13-0.128-0.247-0.21-0.26s-0.152-0.040-0.156-0.062c-0.004-0.021-0.117-0.040-0.251-0.040 0 0-0.859-0.005-1.169 0.305z"></path>
<path fill="rgb(204, 204, 204)" d="M4.098 7.179c0 0-0.049 0.017 0.014 0.050s2.594 1.082 2.893 1.188c0 0 0.776 0.181 1.486 1.374l0.52 0.799c0 0 0.139-0.009 0.25-0.19s0.133-0.159 0.133-0.159l0.442-0.33-1.185-1.66c0 0-0.173-0.365-0.524-0.431 0 0-1.533-0.478-1.626-0.338 0 0-0.352-0.133-0.59-1.015 0 0-0.073-0.146-0.259-0.093-0-0-0.943 0.212-1.553 0.806z"></path>
<path fill="rgba(235, 235, 235, 0.699999988079071)" d="M10.66 7.17l-0.299-0.046-0.057-0.054c0 0-1.060-0.030-1.37 0.28s-0.478 0.702-0.478 0.702l0.156 0.134c0.481-0.3 1.502-0.61 1.96-0.777l0.087-0.239z"></path>
<path fill="rgb(61, 64, 64)" d="M7.559 12.24c0 0 0.287-1.812 0.256-1.908 0 0-0.384-1.175-1.688-1.563 0 0 0.572 0.789 0.616 0.951s-0.194 0.391-0.353 0.511l-1.35 1.396z"></path>
<path fill="rgb(61, 64, 64)" d="M5.040 11.627l1.35-1.396c0.159-0.119 0.398-0.348 0.353-0.511s-0.616-0.951-0.616-0.951c1.304 0.388 1.688 1.563 1.688 1.563 0.031 0.096-0.256 1.908-0.256 1.908z"></path>
<path fill="rgb(156, 156, 156)" d="M14.001 7.499c0 0.133-0.106 0.24-0.236 0.24s-0.236-0.108-0.236-0.24c0-0.133 0.106-0.24 0.236-0.24s0.236 0.108 0.236 0.24z"></path>
<path fill="rgb(234, 235, 237)" d="M13.907 7.499c0 0.080-0.063 0.144-0.142 0.144s-0.142-0.065-0.142-0.144c0-0.080 0.063-0.144 0.142-0.144s0.142 0.065 0.142 0.144z"></path>
<path fill="rgb(235, 235, 235)" d="M13.626 7.471l-0.046 0.44 0.279 0.024 0.048-0.42z"></path>
<path fill="rgb(246, 146, 30)" d="M11.155 8.922c0.047-0.033 0.176-0.123 0.287-0.199l1.041-0.718c0.111-0.076 0.232-0.164 0.269-0.195s0.087-0.284 0.114-0.416c0 0 0.004-0.019-0.308-0.092s-1.86-0.244-1.86-0.244c-0.134-0.015-0.236-0.005-0.228 0.022s0.049 0.154 0.089 0.282l0.437 1.387c0.040 0.128 0.112 0.206 0.159 0.173z"></path>
<path fill="rgb(32, 33, 33)" d="M13.192 7.409l-3.827 2.627c0 0-0.133 0.429-0.512 0.399l0.035 0.219 0.134 0.030 0.060 0.423-0.139 0.045 0.055 0.244h0.093l0.073 0.32 0.301-0.32 0.022-0.473 0.854-0.59 3.061-1.765-0.237-0.612 0.027-0.547z"></path>
<path fill="rgba(32, 33, 33, 0.4000000059604645)" d="M8.080 11.011c0 0.313-0.254 0.567-0.567 0.567s-0.567-0.254-0.567-0.567c0-0.313 0.254-0.567 0.567-0.567s0.567 0.254 0.567 0.567z"></path>
<path fill="rgb(224, 224, 224)" d="M13.864 7.897c0 0.080-0.063 0.144-0.142 0.144s-0.142-0.065-0.142-0.144c0-0.080 0.063-0.144 0.142-0.144s0.142 0.065 0.142 0.144z"></path>
<path fill="rgb(250, 175, 64)" d="M12.558 7.302c-0.312-0.073-2.103-0.27-2.103-0.27l0.119 0.377 2.184 0.004c-0.039-0.046-0.101-0.088-0.2-0.111z"></path>
<path fill="rgba(32, 33, 33, 0.5)" d="M8.876 11.011c0 0.165-0.134 0.298-0.298 0.298s-0.298-0.134-0.298-0.298c0-0.165 0.134-0.298 0.298-0.298s0.298 0.134 0.298 0.298z"></path>
<path fill="rgb(201, 201, 201)" d="M8.578 12.106l-4.709-1.775c0 0-0.299-0.551 0.385-0.763 0 0 2.807 1.632 4.26 2.11l0.106-0.166c0 0 0.338-0.192 0.411-0.099s0.268 0.022 0.268 0.022z"></path>
<path fill="rgba(32, 33, 33, 0.20000000298023224)" d="M14.91 6.941l-1.166-0.179-0.526 0.179c0 0-0.002 0.041-0.006 0.107 0.3 0.009 1.696 0.107 1.825 1.129l0.377-0.089-0.504-1.148z"></path>
<path fill="rgb(235, 235, 235)" d="M15.148 6.506c0 0-1.449-1.35-1.553-1.355s-0.617 0.527-0.617 0.527 1.724 1.352 2.17 0.828z"></path>
<path fill="rgb(204, 204, 204)" d="M12.995 5.66l-0.426 0.406-0.048-0.014-0.269 0.259c0 0-0.156 0.12 0.017 0.282l0.455 0.408c0 0 0.053 0.056 0.192 0.017l0.375-0.113 0.102-1.078-0.397-0.166z"></path>
<path fill="rgb(224, 224, 224)" d="M12.614 6.025c0 0-0.197 0.155-0.164 0.314 0 0 0.372 0.4 0.694 0.593 0 0 0.028 0.037 0.347-0.066s0.432-0.021 0.723 0.072 0.526 0.241 0.526 0.241 0.581 0.358 0.53 0.918c0 0-2.561 0.666-4.845 1.163l-1.239 0.906c0 0-0.085 0.060 0 0.164 0 0 0.448 0.567 0.493 0.741 0 0-1.395 1.358-2.068 1.824 0 0 0.819 0.111 2.272-0.192l2.806 0.085c0 0 0.196 0.010 0.163-0.232s-0.282-0.697 0.010-0.975c0 0 0.514-1.748 3.586-3.036 0 0 0.1-0.206-0.046-0.571 0 0-1.042-1.29-1.254-1.47 0 0-0.090 0.080-0.372-0.056s-1.619-0.869-1.619-0.869l-0.332 0.299c-0-0-0.113 0.013-0.212 0.146z"></path>
<path fill="rgb(235, 235, 235)" d="M12.45 6.339c0 0 0.372 0.4 0.694 0.593 0 0 0.028 0.037 0.347-0.066 0.121-0.039 0.222-0.059 0.341-0.042l-1.367-0.609c-0.016 0.039-0.024 0.082-0.015 0.125z"></path>
<path fill="rgb(235, 235, 235)" d="M15.767 8.186c0 0-0.857-1.040-0.918-0.927 0.165 0.135 0.458 0.434 0.421 0.838 0 0-1.623 0.422-3.437 0.845 1.038-0.098 3.934-0.756 3.934-0.756z"></path>
<path fill="rgb(209, 209, 209)" d="M9.186 10.166c0 0-0.085 0.060 0 0.164 0 0 0.448 0.567 0.493 0.741 0 0-1.395 1.358-2.068 1.824 0 0 0.819 0.111 2.272-0.192l2.806 0.085c0 0 0.196 0.010 0.163-0.232s-0.282-0.697 0.010-0.975c0 0 0.088-0.3 0.41-0.743l-3.419-1.16-0.667 0.488z"></path>
<path fill="rgb(224, 224, 224)" d="M9.883 12.704l2.806 0.085c0 0 0.196 0.010 0.163-0.232-0.029-0.214-0.228-0.595-0.070-0.873l-3.137-0.579c-0.216 0.209-1.423 1.368-2.034 1.792 0 0 0.819 0.111 2.272-0.192z"></path>
<path fill="rgb(214, 214, 214)" d="M6.946 7.644l-0.038-0.148c-0.214-0.042-0.379-0.058-0.408-0.015 0 0-0.352-0.133-0.59-1.015 0 0-0.073-0.146-0.259-0.093 0 0-0.321 0.072-0.709 0.25 0.754 1.016 2.004 1.020 2.004 1.020z"></path>
<path fill="rgba(0, 0, 0, 0.20000000298023224)" d="M8.41 7.987c0 0 0.338 0.498-0.050 0.637 0 0-1.672-0.737-1.812-0.846 0 0-0.328-0.418 0.418-0.229 0.8 0.082 1.42 0.356 1.443 0.438z"></path>
<path fill="rgb(61, 64, 64)" d="M8.41 7.824c0 0 0.338 0.498-0.050 0.637 0 0-1.672-0.737-1.812-0.846 0 0-0.328-0.418 0.418-0.229 0.8 0.082 1.42 0.356 1.443 0.438z"></path>
<path fill="rgb(156, 156, 156)" d="M4.254 9.568c-0.576 0.179-0.454 0.599-0.402 0.726l0.404-0.725c-0.001-0.001-0.002-0.001-0.002-0.001z"></path>
<path fill="rgba(234, 235, 237, 0.4000000059604645)" d="M8.76 11.954l-4.459-2.11-0.222 0.388 4.534 1.835z"></path>
<path fill="rgba(32, 33, 33, 0.4000000059604645)" d="M6.127 8.769c0 0 0.529 0.731 0.609 0.93 0.289 0.1 0.788 0.299 1.049 0.555-0.112-0.269-0.557-1.157-1.658-1.485z"></path>
<path fill="rgba(32, 33, 33, 0.4000000059604645)" d="M7.756 10.246h0.153l0.615-0.406-0.103-0.163-0.696 0.469z"></path>
<path fill="rgb(32, 33, 33)" d="M8.067 12.542v0z"></path>
<path fill="rgb(61, 64, 64)" d="M8.315 12.33l-0.248 0.212-0.084-0.194z"></path>
<path fill="rgba(32, 33, 33, 0.4000000059604645)" d="M8.315 12.33l-3.058-0.927-0.217 0.225 2.943 0.721 0.084 0.194z"></path>
</svg>
