<?xml version="1.0" encoding="utf-8"?>
<!-- Generated by IcoMoon.io -->
<!DOCTYPE svg PUBLIC "-//W3C//DTD SVG 1.1//EN" "http://www.w3.org/Graphics/SVG/1.1/DTD/svg11.dtd">
<svg version="1.1" xmlns="http://www.w3.org/2000/svg" xmlns:xlink="http://www.w3.org/1999/xlink" width="20" height="20" viewBox="0 0 20 20">
<path fill="rgb(51, 77, 92)" d="M19.691 10c0-5.352-4.339-9.691-9.69-9.691s-9.691 4.338-9.691 9.691c0 5.352 4.339 9.69 9.691 9.69s9.69-4.339 9.69-9.69z"></path>
<path fill="rgb(246, 139, 31)" d="M12.737 11.509c0 0.060-0.036 0.097-0.108 0.097h-0.13c-0.072 0-0.145-0.037-0.145-0.097v-0.625c0-0.060 0.073-0.122 0.145-0.122h0.13c0.072 0 0.108 0.062 0.108 0.122v0.625z"></path>
<path fill="rgb(250, 169, 95)" d="M12.737 10.884c0-0.060-0.036-0.122-0.108-0.122h-0.13c-0.072 0-0.145 0.062-0.145 0.122v0.338h0.383v-0.338z"></path>
<path fill="rgb(159, 213, 221)" d="M10.246 13.215c-0.12 0-0.241 0-0.361 0-0.3 0-0.599 0-0.899 0-0.386 0-0.773 0-1.159 0-0.381 0-0.762 0-1.143 0-0.284 0-0.567 0-0.851 0-0.102 0-0.206 0.016-0.308 0.009-0.057-0.004-0.114-0.005-0.171-0.012-0.010-0.001-0.047-0.004-0.006 0.002-0.010-0.001-0.021-0.002-0.031-0.003-0.024-0.004-0.048-0.007-0.072-0.011-0.051-0.009-0.103-0.018-0.154-0.029-0.113-0.025-0.225-0.056-0.334-0.096-0.013-0.005-0.027-0.010-0.040-0.015-0.007-0.003-0.013-0.005-0.020-0.008-0.023-0.010 0.023 0.010-0-0-0.028-0.012-0.056-0.025-0.084-0.039-0.052-0.026-0.102-0.056-0.149-0.089-0.006-0.004-0.011-0.008-0.017-0.012-0.025-0.018 0.010 0.008-0.005-0.004s-0.028-0.023-0.041-0.035c-0.025-0.022-0.048-0.046-0.069-0.071-0.039-0.045-0.114-0.040-0.154 0-0.044 0.044-0.039 0.109 0 0.154 0.16 0.186 0.399 0.293 0.629 0.366 0.198 0.063 0.404 0.095 0.609 0.117 0.106 0.011 0.209 0.007 0.316 0.007 0.256 0 0.513 0 0.769 0 0.37 0 0.741 0 1.111 0 0.392 0 0.785 0 1.177 0 0.322 0 0.644 0 0.966 0 0.159 0 0.319 0 0.478 0 0.004 0 0.009 0 0.013 0 0.059 0 0.109-0.056 0.109-0.115s-0.049-0.115-0.109-0.115v0z"></path>
<path fill="rgb(33, 73, 82)" d="M9.781 12.449l-0.529 1.61h0.422l0.441-1.61z"></path>
<path fill="rgb(33, 73, 82)" d="M6.758 12.679l-0.513 1.457h0.43l0.572-1.457z"></path>
<path fill="rgb(159, 213, 221)" d="M10.060 13.915c-0.131 0-0.263 0-0.394 0.001-0.326 0.001-0.652 0.001-0.978 0.002-0.418 0.001-0.836 0.001-1.254 0.002-0.407 0.001-0.815 0.001-1.222 0.002-0.294 0.001-0.589 0.001-0.883 0.001-0.108 0-0.216 0.003-0.324-0.001-0.078-0.003-0.155-0.009-0.232-0.018-0.024-0.003-0.049-0.006-0.073-0.009-0.010-0.001-0.036-0.005 0.011 0.001-0.007-0.001-0.013-0.002-0.020-0.003-0.016-0.002-0.031-0.005-0.047-0.007-0.059-0.009-0.118-0.020-0.176-0.032-0.126-0.027-0.25-0.062-0.369-0.108-0.010-0.004-0.061-0.025-0.018-0.007-0.014-0.006-0.029-0.012-0.043-0.019-0.031-0.014-0.061-0.029-0.090-0.045-0.056-0.030-0.109-0.064-0.16-0.103 0.036 0.027 0-0-0.007-0.007-0.010-0.008-0.019-0.016-0.028-0.024-0.018-0.016-0.036-0.034-0.053-0.052-0.051-0.054-0.141-0.051-0.192 0-0.054 0.054-0.051 0.138 0 0.192 0.188 0.2 0.452 0.316 0.712 0.391 0.222 0.064 0.453 0.098 0.682 0.115 0.118 0.009 0.236 0.008 0.354 0.008 0.272-0 0.544-0.001 0.816-0.001 0.398-0.001 0.797-0.001 1.195-0.002 0.422-0.001 0.845-0.001 1.267-0.002 0.344-0.001 0.687 0.012 1.031 0.011 0.162-0 0.325 0.012 0.487 0.012 0.002 0 0.005 0 0.007 0 0.074 0 0.136-0.074 0.136-0.148s-0.062-0.149-0.136-0.149v0z"></path>
<path fill="rgb(255, 255, 255)" d="M16.284 9.892l0.642 1.33h0.413c0 0-0.231-1.039-0.231-1.278v-0.445c0 0 0.46-1.574 0.612-2.11h-0.549l-0.885 2.076-4.536-0.274 0.181-0.583c0 0 0.080-0.263-0.098-0.263l-3.603-0.005c0 0-0.17-0.034-0.17 0.198v0.335c0 0-2.839-0.036-3.743 1.471s0.541 2.429 2.415 2.429c0 0 4.189 0.35 5.664-1.182 0 0 0.188-0.171 0.090-0.79 0 0 1.089-0.778 1.471-0.778l2.326-0.131z"></path>
<path fill="rgb(255, 255, 255)" d="M11.93 8.581c0 0 0.080-0.237-0.098-0.237l-3.603-0.004c0 0-0.17-0.033-0.17 0.199v0z"></path>
<path fill="rgb(218, 240, 245)" d="M11.607 10.435c0 0 0.954 1.355 0 0s-3.566-1.241-3.566-1.241-2.353-0.030-3.102 1.22c-0.75 1.249 1.013 2.241 2.567 2.241l-0.877 0.116c0 0-1.47-0.048-2.194-0.694-0.443-0.395-0.616-1.068 0.023-1.932 0 0 0.842-1.283 3.604-1.27 0 0 2.766 0.101 3.638 1.212z"></path>
<path fill="rgb(159, 213, 221)" d="M8.521 7.159h0.383v1.15h-0.383v-1.15z"></path>
<path fill="rgb(201, 227, 228)" d="M8.295 8.079c0-0.054 0.073-0.077 0.163-0.077h0.445c0.090 0 0.163 0.023 0.163 0.077s-0.073 0.077-0.163 0.077h-0.445c-0.090 0-0.163-0.023-0.163-0.077z"></path>
<path fill="rgb(201, 227, 228)" d="M8.295 7.695c0-0.060 0.073-0.077 0.163-0.077h0.445c0.090 0 0.163 0.017 0.163 0.077s-0.073 0.077-0.163 0.077h-0.445c-0.090-0-0.163-0.017-0.163-0.077z"></path>
<path fill="rgb(214, 209, 206)" d="M9.441 7.405c0 0 0.307-0.326 0-0.326-0.153 0-0.153 0.326 0 0.326 0 0-0.153 0 0 0z"></path>
<path fill="rgb(255, 255, 255)" d="M7.738 7.079c-0.777-0.033-1.555-0.056-2.333-0.068-0.427-0.007-0.855-0.010-1.282 0.001-0.152 0.004-0.305 0.010-0.456 0.024-0.112 0.010-0.223 0.021-0.326 0.066-0.082 0.035-0.099 0.154-0.058 0.223 0.049 0.084 0.142 0.094 0.223 0.059-0.068 0.029-0.006 0.004 0.015-0 0.026-0.006 0.053-0.010 0.079-0.014 0.029-0.004-0.045 0.006-0.014 0.002 0.008-0.001 0.015-0.002 0.023-0.003 0.017-0.002 0.033-0.004 0.050-0.005 0.041-0.004 0.082-0.007 0.124-0.010 0.211-0.014 0.424-0.018 0.636-0.020 0.55-0.006 1.101 0.004 1.651 0.018 0.557 0.014 1.114 0.031 1.671 0.055 0.21 0.009 0.209-0.317 0-0.326v0z"></path>
<path fill="rgb(255, 255, 255)" d="M9.435 7.449c0.782-0.022 1.565-0.035 2.347-0.036 0.406-0 0.811 0.002 1.217 0.018 0.146 0.006 0.293 0.013 0.439 0.028 0.026 0.003 0.051 0.005 0.076 0.009 0.021 0.003-0.045-0.007 0.002 0 0.011 0.002 0.022 0.004 0.034 0.006 0.019 0.003 0.038 0.007 0.056 0.012s0.072 0.027 0.005-0.002c0.082 0.035 0.174 0.025 0.223-0.059 0.041-0.070 0.023-0.188-0.059-0.223-0.127-0.055-0.268-0.064-0.404-0.075-0.207-0.018-0.415-0.024-0.623-0.030-0.548-0.014-1.098-0.011-1.646-0.006-0.556 0.006-1.112 0.016-1.667 0.031-0.21 0.006-0.21 0.332 0 0.326v0z"></path>
<path fill="rgb(159, 213, 221)" d="M8.444 7.245c0-0.090-0.073-0.163-0.163-0.163h-0.441c-0.090 0-0.163 0.073-0.163 0.163v0.057c0 0.090 0.073 0.163 0.163 0.163h0.441c0.090 0 0.163-0.073 0.163-0.163v-0.057z"></path>
<path fill="rgb(159, 213, 221)" d="M9.671 7.245c0-0.090-0.073-0.163-0.163-0.163h-0.441c-0.090 0-0.163 0.073-0.163 0.163v0.057c0 0.090 0.073 0.163 0.163 0.163h0.441c0.090 0 0.163-0.073 0.163-0.163v-0.057z"></path>
<path fill="rgb(218, 240, 245)" d="M4.388 12.036c0.567 0.537 1.311 0.711 2.344 0.738 0 0 2.655 0.222 4.482-0.461-3.163 0.495-4.968 0.495-6.826-0.277z"></path>
<path fill="rgb(168, 222, 243)" d="M11.749 9.185l4.536 0.28 0.885-2.076h0.549c-0.152 0.537-0.612 2.11-0.612 2.11v0.445c0 0.239 0.231 1.278 0.231 1.278h-0.413l-0.642-1.33-2.326 0.131c-0.383 0-1.472 0.775-1.472 0.775 0.098 0.619-0.090 0.792-0.090 0.792s-0.852 0.969-3.045 1.133c0 0 2.582-0.967 2.399-3.538z"></path>
<path fill="rgb(255, 255, 255)" d="M16.366 9.531l0.042-0.046 0.893-2.097h-0.131l-0.885 2.076-4.536-0.274 0.006 0.11z"></path>
<path fill="rgb(161, 211, 221)" d="M7.719 11.192c-0.023 0.079-0.038 0.127-0.038 0.127-0.098 0.418 0.217 0.403 0.217 0.403l0.933-0.069c0.378-0.025 0.436-0.361 0.436-0.361s0.044-0.231 0.068-0.511c-0.365 0.257-0.875 0.417-1.44 0.417-0.060-0-0.119-0.002-0.177-0.006z"></path>
<path fill="rgb(161, 211, 221)" d="M5.946 10.148c-0.056 0.051-0.114 0.108-0.173 0.173 0 0-0.841 1.019 0.039 1.492 0 0 0.547 0.299 1.078-0.581 0 0 0.046-0.070 0.108-0.179-0.521-0.179-0.912-0.508-1.053-0.905z"></path>
<path fill="rgb(149, 195, 204)" d="M9.343 10.253c-0.038-0.44-0.364-0.411-0.364-0.411h-0.766c-0.056 0-0.096 0.098-0.096 0.098-0.068 0.14-0.306 0.937-0.399 1.251 0.058 0.004 0.118 0.006 0.177 0.006 0.565 0 1.075-0.16 1.44-0.418 0.015-0.171 0.022-0.36 0.008-0.526z"></path>
<path fill="rgb(149, 195, 204)" d="M7.183 9.889c0 0-0.518-0.392-1.237 0.259 0.14 0.397 0.532 0.726 1.053 0.905 0.177-0.313 0.481-0.946 0.184-1.163z"></path>
<path fill="rgb(168, 222, 243)" d="M4.455 10.128c-0.076 0.102-0.14 0.226-0.193 0.323l0.572 0.158c0.027-0.070 0.061-0.14 0.104-0.212 0.2-0.333 0.513-0.559 0.866-0.735l-0.147-0.372c-0.88 0.37-1.202 0.838-1.202 0.838z"></path>
<path fill="rgb(168, 222, 243)" d="M6.090 9.135l0.149 0.347c0.664-0.227 1.356-0.275 1.652-0.285l-0.070-0.32c-0.703 0.016-1.274 0.118-1.731 0.258z"></path>
<path fill="rgb(235, 235, 235)" d="M3.282 7.317c0.049 0.084 0.142 0.097 0.223 0.062-0.068 0.029-0.006 0.006 0.015 0.002 0.024-0.006 0.049-0.009 0.074-0.012-0.003 0-0.006 0.001-0.009 0.002-0.030 0.004 0.044-0.006 0.014-0.002-0.002 0-0.004 0.001-0.005 0.001 0.005-0.001 0.010-0.001 0.014-0.002 0.017-0.002 0.033-0.004 0.050-0.005 0.041-0.004 0.082-0.007 0.124-0.010 0.211-0.014 0.424-0.018 0.636-0.020 0.55-0.006 1.101 0.004 1.651 0.018 0.557 0.014 1.114 0.024 1.671 0.048 0.105 0.004 0.157-0.009 0.157-0.163h-4.635c0.001 0 0.008 0.060 0.021 0.082z"></path>
<path fill="rgb(235, 235, 235)" d="M3.584 7.37c0.003-0 0.006-0.001 0.009-0.001 0.002-0 0.004-0.001 0.005-0.001 0.029-0.004-0.045 0.006-0.014 0.002z"></path>
<path fill="rgb(235, 235, 235)" d="M9.435 7.441c0.782-0.022 1.565-0.031 2.347-0.032 0.406-0 0.811 0.004 1.217 0.020 0.146 0.006 0.293 0.014 0.439 0.029 0.024 0.002 0.048 0.006 0.072 0.009-0.033-0.005 0.024 0.003 0.005 0.001-0.002-0-0.003-0-0.005-0 0.002 0 0.004 0.001 0.006 0.001 0.011 0.002 0.022 0.004 0.034 0.006 0.019 0.003 0.038 0.007 0.056 0.012s0.072 0.027 0.005-0.002c0.082 0.035 0.174 0.018 0.223-0.066 0.029-0.049 0.028-0.106-0.004-0.182h-4.549c-0.020 0.153 0.031 0.209 0.153 0.206z"></path>
<path fill="rgb(235, 235, 235)" d="M13.51 7.467c0.002 0 0.003 0 0.005 0.001 0.019 0.002-0.038-0.006-0.005-0.001z"></path>
<path fill="rgb(159, 213, 221)" d="M8.367 7.159h0.613v0.23h-0.613v-0.23z"></path>
<path fill="rgb(147, 196, 204)" d="M7.677 7.283c0 0.090 0.063 0.183 0.153 0.183h0.457c0.090 0 0.157-0.092 0.157-0.183v-0.048h-0.767v0.048z"></path>
<path fill="rgb(147, 196, 204)" d="M8.904 7.283c0 0.090 0.093 0.183 0.183 0.183h0.457c0.090 0 0.204-0.092 0.204-0.183v-0.048h-0.843v0.048z"></path>
<path fill="rgba(168, 222, 243, 0.4000000059604645)" d="M17.107 9.944v-0.445c0 0 0.46-1.574 0.612-2.11h-0.549l-0.885 2.076-4.536-0.274c0.166 2.325-1.93 3.336-2.332 3.509 3.494-0.527 2.874-1.795 2.874-1.795 0.234-0.538 1.003-0.86 1.525-0.992 0.349-0.088 2.632-0.13 2.632-0.13l0.713 1.439h0.178c0-0-0.231-1.039-0.231-1.278z"></path>
<path fill="rgba(106, 186, 232, 0.4000000059604645)" d="M12.486 10.802c0 0 1.089-0.772 1.472-0.772l2.326-0.137 0.642 1.33h0.161l-0.758-1.505-2.523 0.147-1.307 0.906z"></path>
</svg>
