<?xml version="1.0" encoding="utf-8"?>
<!-- Generated by IcoMoon.io -->
<!DOCTYPE svg PUBLIC "-//W3C//DTD SVG 1.1//EN" "http://www.w3.org/Graphics/SVG/1.1/DTD/svg11.dtd">
<svg version="1.1" xmlns="http://www.w3.org/2000/svg" xmlns:xlink="http://www.w3.org/1999/xlink" width="20" height="20" viewBox="0 0 20 20">
<path fill="rgb(193, 225, 230)" d="M19.691 10c0-5.352-4.339-9.691-9.69-9.691s-9.691 4.338-9.691 9.691c0 5.352 4.339 9.69 9.691 9.69s9.69-4.339 9.69-9.69z"></path>
<path fill="rgb(255, 255, 255)" d="M9.945 7.529c0 0 0.022-0.047 0.048-0.102s-0.009-0.102-0.077-0.102h-0.238c-0.069 0-0.107-0.035-0.084-0.077s0.097-0.077 0.166-0.077h0.894c0.069 0 0.082 0.035 0.029 0.077s-0.152 0.077-0.221 0.077h-0.196c-0.069 0-0.136 0.047-0.149 0.102s-0.024 0.101-0.024 0.101z"></path>
<path fill="rgb(255, 255, 255)" d="M15.729 7.816c-0.014-0.089-0.098-0.185-0.188-0.185h-6.461c-0.090 0-0.22 0.069-0.29 0.126l-1.778 1.441c-0.070 0.056-0.054 0.12 0.036 0.12h8.743c0.090 0 0.152-0.091 0.138-0.179l-0.2-1.323z"></path>
<path fill="rgb(235, 235, 235)" d="M16.366 8.935c-0.015-0.088-0.102-0.154-0.191-0.154h-10.143c-0.090 0-0.184 0.063-0.209 0.15l-0.484 1.631c-0.025 0.086 0.028 0.136 0.117 0.136h11.063c0.090 0 0.15-0.052 0.135-0.14l-0.289-1.623z"></path>
<path fill="rgb(0, 132, 200)" d="M2.58 9.983l4.472 0.342c0.069 0.005 0.181 0.011 0.25 0.012l7.722 0.142c0.069 0.001 0.181-0.011 0.25-0.011h2.952c0.069 0 0.153 0.062 0.186 0.122l-0.931 1.844c-0.028 0.063-0.107 0.104-0.176 0.104h-11.887c-0.069 0-0.176-0.007-0.238-0.037 0-0-1.229-0.563-2.6-2.519z"></path>
<path fill="rgb(0, 116, 159)" d="M5.418 12.538h11.887c0.069 0 0.148-0.048 0.176-0.111l0.1-0.195h-12.823c0.265 0.153 0.423 0.256 0.423 0.256 0.062 0.029 0.17 0.050 0.238 0.050z"></path>
<path fill="rgb(209, 209, 209)" d="M6.161 9.395h9.819l-0.049-0.23h-9.678z"></path>
<path fill="rgb(209, 209, 209)" d="M6.161 9.932h9.869l-0.049-0.23h-9.728z"></path>
<path fill="rgb(0, 132, 200)" d="M15.346 7.632h-1.164l0.351-0.767h0.759z"></path>
<path fill="rgb(255, 255, 255)" d="M14.301 7.402h1.027l-0.017-0.23h-0.903z"></path>
<path fill="rgb(0, 132, 200)" d="M13.945 7.632h-1.164l0.35-0.767h0.759z"></path>
<path fill="rgb(255, 255, 255)" d="M12.9 7.402h1.027l-0.017-0.23h-0.903z"></path>
<path fill="rgba(0, 0, 0, 0.09000000357627869)" d="M15.097 8.398c0 0.023-0.026 0.001-0.048 0.001h-0.464c-0.022 0-0.025 0.023-0.025-0.001v-0.31c0-0.023 0.003-0.073 0.025-0.073h0.464c0.022 0 0.048 0.049 0.048 0.073v0.31z"></path>
<path fill="rgb(224, 224, 224)" d="M15.097 8.348c0 0.023-0.026 0.050-0.048 0.050h-0.464c-0.022 0-0.025-0.027-0.025-0.050v-0.31c0-0.023 0.003-0.1 0.025-0.1h0.464c0.022 0 0.048 0.077 0.048 0.1v0.31z"></path>
<path fill="rgb(235, 235, 235)" d="M15.097 8.021c0-0.022-0.024-0.083-0.047-0.083h-0.444c-0.011 0-0.022 0.026-0.029 0.034 0.165 0.099 0.413 0.316 0.505 0.396 0.007-0.007 0.015-0.007 0.015-0.018v-0.328z"></path>
<path fill="rgba(0, 0, 0, 0.09000000357627869)" d="M11.417 8.398c0 0.023-0.042 0.001-0.064 0.001h-0.461c-0.022 0-0.012 0.023-0.012-0.001v-0.31c0-0.023-0.011-0.073 0.012-0.073h0.461c0.022 0 0.064 0.049 0.064 0.073v0.31z"></path>
<path fill="rgb(224, 224, 224)" d="M11.417 8.348c0 0.023-0.042 0.050-0.064 0.050h-0.461c-0.022 0-0.012-0.027-0.012-0.050v-0.31c0-0.023-0.011-0.1 0.012-0.1h0.461c0.022 0 0.064 0.077 0.064 0.1v0.31z"></path>
<path fill="rgb(235, 235, 235)" d="M11.417 8.021c0-0.022-0.049-0.083-0.071-0.083h-0.444c-0.011 0-0.022 0.026-0.029 0.034 0.165 0.099 0.425 0.316 0.517 0.396 0.007-0.007 0.027-0.007 0.027-0.018v-0.328z"></path>
<path fill="rgba(0, 0, 0, 0.09000000357627869)" d="M10.19 8.398c0 0.023 0.003 0.001-0.018 0.001h-0.464c-0.021 0-0.054 0.023-0.054-0.001v-0.31c0-0.023 0.033-0.073 0.054-0.073h0.464c0.021 0 0.018 0.049 0.018 0.073v0.31z"></path>
<path fill="rgb(224, 224, 224)" d="M10.19 8.348c0 0.023 0.003 0.050-0.018 0.050h-0.464c-0.021 0-0.054-0.027-0.054-0.050v-0.31c0-0.023 0.033-0.1 0.054-0.1h0.464c0.021 0 0.018 0.077 0.018 0.1v0.31z"></path>
<path fill="rgb(235, 235, 235)" d="M10.19 8.021c0-0.022-0.011-0.083-0.033-0.083h-0.444c-0.011 0-0.022 0.026-0.029 0.034 0.165 0.099 0.406 0.316 0.498 0.396 0.007-0.007 0.008-0.007 0.008-0.018v-0.328z"></path>
<path fill="rgba(0, 0, 0, 0.09000000357627869)" d="M13.87 8.398c0 0.023 0.016 0.001-0.007 0.001h-0.457c-0.023 0-0.073 0.023-0.073-0.001v-0.31c0-0.023 0.049-0.073 0.073-0.073h0.457c0.023 0 0.007 0.049 0.007 0.073v0.31z"></path>
<path fill="rgb(224, 224, 224)" d="M13.87 8.348c0 0.023 0.016 0.050-0.007 0.050h-0.457c-0.023 0-0.073-0.027-0.073-0.050v-0.31c0-0.023 0.049-0.1 0.073-0.1h0.457c0.023 0 0.007 0.077 0.007 0.1v0.31z"></path>
<path fill="rgb(235, 235, 235)" d="M13.87 8.021c0-0.022 0-0.083-0.022-0.083h-0.444c-0.011 0-0.022 0.026-0.029 0.034 0.165 0.099 0.4 0.316 0.493 0.396 0.007-0.007 0.002-0.007 0.002-0.018v-0.328z"></path>
<path fill="rgba(0, 0, 0, 0.09000000357627869)" d="M12.72 8.398c0 0.023-0.012 0.001-0.029 0.001h-0.477c-0.018 0-0.030 0.023-0.030-0.001v-0.31c0-0.023 0.012-0.073 0.030-0.073h0.477c0.018 0 0.029 0.049 0.029 0.073v0.31z"></path>
<path fill="rgb(224, 224, 224)" d="M12.72 8.348c0 0.023-0.012 0.050-0.029 0.050h-0.477c-0.018 0-0.030-0.027-0.030-0.050v-0.31c0-0.023 0.012-0.1 0.030-0.1h0.477c0.018 0 0.029 0.077 0.029 0.1v0.31z"></path>
<path fill="rgb(235, 235, 235)" d="M12.643 8.021c0-0.022 0.030-0.083 0.008-0.083h-0.444c-0.012 0-0.022 0.026-0.029 0.034 0.165 0.099 0.385 0.316 0.478 0.396 0.007-0.007-0.012-0.007-0.012-0.018v-0.328z"></path>
<path fill="rgba(0, 0, 0, 0.03600000062584874)" d="M15.583 11.096c0-0.129 0.105-0.234 0.234-0.234s0.234 0.105 0.234 0.234c0 0.129-0.105 0.234-0.234 0.234s-0.234-0.105-0.234-0.234z"></path>
<path fill="rgba(255, 255, 255, 0.30000001192092896)" d="M16.034 11.080c0 0.129-0.105 0.234-0.234 0.234s-0.234-0.105-0.234-0.234c0-0.129 0.105-0.234 0.234-0.234s0.234 0.105 0.234 0.234z"></path>
<path fill="rgba(0, 0, 0, 0.03600000062584874)" d="M12.963 11.096c0-0.129 0.105-0.234 0.234-0.234s0.234 0.105 0.234 0.234c0 0.129-0.105 0.234-0.234 0.234s-0.234-0.105-0.234-0.234z"></path>
<path fill="rgba(255, 255, 255, 0.30000001192092896)" d="M13.414 11.080c0 0.129-0.105 0.234-0.234 0.234s-0.234-0.105-0.234-0.234c0-0.129 0.105-0.234 0.234-0.234s0.234 0.105 0.234 0.234z"></path>
<path fill="rgba(0, 0, 0, 0.03600000062584874)" d="M14.273 11.096c0-0.129 0.105-0.234 0.234-0.234s0.234 0.105 0.234 0.234c0 0.129-0.105 0.234-0.234 0.234s-0.234-0.105-0.234-0.234z"></path>
<path fill="rgba(255, 255, 255, 0.30000001192092896)" d="M14.724 11.080c0 0.129-0.105 0.234-0.234 0.234s-0.234-0.105-0.234-0.234c0-0.129 0.105-0.234 0.234-0.234s0.234 0.105 0.234 0.234z"></path>
<path fill="rgba(0, 0, 0, 0.03600000062584874)" d="M11.652 11.096c0-0.129 0.105-0.234 0.234-0.234s0.234 0.105 0.234 0.234c0 0.129-0.105 0.234-0.234 0.234s-0.234-0.105-0.234-0.234z"></path>
<path fill="rgba(255, 255, 255, 0.30000001192092896)" d="M11.636 11.080c0-0.129 0.105-0.234 0.234-0.234s0.234 0.105 0.234 0.234-0.105 0.234-0.234 0.234c-0.129 0-0.234-0.105-0.234-0.234z"></path>
<path fill="rgb(235, 235, 235)" d="M10.988 7.632l-0.192-0.153h-1.418l-0.259 0.153z"></path>
</svg>
