<?xml version="1.0" encoding="utf-8"?>
<!-- Generator: Adobe Illustrator 16.0.0, SVG Export Plug-In . SVG Version: 6.00 Build 0)  -->
<!DOCTYPE svg PUBLIC "-//W3C//DTD SVG 1.1//EN" "http://www.w3.org/Graphics/SVG/1.1/DTD/svg11.dtd">
<svg version="1.1" id="Layer_1" xmlns="http://www.w3.org/2000/svg" xmlns:xlink="http://www.w3.org/1999/xlink" x="0px" y="0px"
	 width="20px" height="20px" viewBox="0 0 20 20" enable-background="new 0 0 20 20" xml:space="preserve">
<g>
	<g>
		<g>
			<g>
				<g>
					<circle fill="#4ABC96" cx="10" cy="10" r="9.69"/>
				</g>
			</g>
		</g>
	</g>
	<g>
		<g>
			<path fill="#5E5F5E" d="M4.833,13.271c0,0.58-0.47,1.051-1.051,1.051l0,0c-0.581,0-1.051-0.471-1.051-1.051v-2.33
				c0-0.58,0.47-1.05,1.051-1.05l0,0c0.581,0,1.051,0.471,1.051,1.05V13.271z"/>
			<path fill="#5E5F5E" d="M17.443,13.271c0,0.58-0.471,1.051-1.051,1.051l0,0c-0.58,0-1.051-0.471-1.051-1.051v-2.33
				c0-0.58,0.471-1.05,1.051-1.05l0,0c0.58,0,1.051,0.471,1.051,1.05V13.271z"/>
			<path fill="#D32027" d="M16.051,7.545c-0.666-1.767-1.393-4.11-2.555-4.11c0,0-2.076-0.17-3.322-0.17
				c-1.174,0-3.323,0.17-3.323,0.17c-1.248,0-1.947,2.356-2.587,4.124c-0.968,0.418-1.874,1.594-1.646,2.503
				c0.227,0.91,1.221,3.75,2.727,3.75H15c1.506,0,2.672-3.068,2.729-3.75S17.035,7.956,16.051,7.545z"/>
			<path fill="#C82127" d="M7.426,4.078c0,0,1.776-0.151,2.746-0.151c1.031,0,2.744,0.151,2.744,0.151
				c0.977,0,2.068,2.102,2.674,3.666c0.291,0.749-0.482,3.717-1.656,3.717H6.411c-1.173,0-1.956-2.97-1.677-3.721
				C5.316,6.176,6.383,4.078,7.426,4.078z"/>
			<path fill="#A81E22" d="M6.411,11.461c-1.173,0-1.956-2.97-1.677-3.721c0,0,0.287,1.414,0.648,2.151
				C5.856,10.857,6.411,11.461,6.411,11.461z"/>
			<path fill="#A81E22" d="M13.918,11.461c1.172,0,1.955-2.97,1.676-3.721c0,0-0.285,1.414-0.648,2.151
				C14.473,10.857,13.918,11.461,13.918,11.461z"/>
			<path fill="#C82127" d="M5.174,10.971c0,0.424-0.883,0.482-1.307,0.482c-0.423,0-0.767-0.344-0.767-0.768
				c0-0.422,0.343-0.766,0.767-0.766C4.291,9.919,5.174,10.547,5.174,10.971z"/>
			<path fill="#FFFFFF" d="M4.975,10.916c0,0.342-0.713,0.391-1.056,0.391c-0.342,0-0.62-0.277-0.62-0.621
				c0-0.341,0.277-0.619,0.62-0.619C4.262,10.067,4.975,10.574,4.975,10.916z"/>
			<path fill="#A81E22" d="M14.131,12.646c0,0.422-0.344,0.764-0.766,0.764H6.98c-0.422,0-0.765-0.342-0.765-0.764l0,0
				c0-0.424,0.343-0.766,0.765-0.766h6.385C13.787,11.881,14.131,12.223,14.131,12.646L14.131,12.646z"/>
			<path fill="#C82127" d="M15.199,10.971c0,0.424,0.883,0.482,1.307,0.482s0.768-0.344,0.768-0.768
				c0-0.422-0.344-0.766-0.768-0.766S15.199,10.547,15.199,10.971z"/>
			<path fill="#FFFFFF" d="M15.354,10.928c0,0.361,0.752,0.412,1.113,0.412s0.652-0.293,0.652-0.654c0-0.36-0.291-0.653-0.652-0.653
				S15.354,10.568,15.354,10.928z"/>
			<circle fill="#F9F298" cx="4.057" cy="10.705" r="0.53"/>
			<circle fill="#F9F298" cx="16.327" cy="10.705" r="0.53"/>
		</g>
		<path opacity="0.8" fill="#B1D4D7" d="M7.042,3.989c0,0,2.025-0.139,3.132-0.139c1.175,0,3.13,0.139,3.13,0.139
			c1.111,0,1.424,1.703,1.996,3.148c0.273,0.692-10.542,0.69-10.278-0.004C5.575,5.688,5.853,3.989,7.042,3.989z"/>
		<path fill="#D3E0E1" d="M7.042,3.989c0,0,2.025-0.139,3.132-0.139c0.478,0,1.085,0.023,1.636,0.05L8.94,7.642
			C6.772,7.595,4.912,7.426,5.023,7.133C5.575,5.688,5.853,3.989,7.042,3.989z"/>
		<g>
			<g>
				<path fill="#8D191C" d="M12.814,12.389h-5.36c-0.058,0-0.104-0.047-0.104-0.104s0.046-0.104,0.104-0.104h5.36
					c0.057,0,0.104,0.047,0.104,0.104S12.871,12.389,12.814,12.389z"/>
			</g>
			<g>
				<path fill="#8D191C" d="M12.814,12.748h-5.36c-0.058,0-0.104-0.045-0.104-0.102s0.046-0.104,0.104-0.104h5.36
					c0.057,0,0.104,0.047,0.104,0.104S12.871,12.748,12.814,12.748z"/>
			</g>
			<g>
				<path fill="#8D191C" d="M12.814,13.109h-5.36c-0.058,0-0.104-0.045-0.104-0.104c0-0.057,0.046-0.102,0.104-0.102h5.36
					c0.057,0,0.104,0.045,0.104,0.102C12.918,13.064,12.871,13.109,12.814,13.109z"/>
			</g>
		</g>
		<g>
			<g>
				<g>
					<path fill="#F1E7A4" d="M11.219,10.486c-0.426,0.075-0.756,0.426-0.756,0.426V10.91c-0.001,0.002-0.002,0.002-0.003,0.004
						c-0.119,0.066-0.259,0.043-0.312-0.053c-0.053-0.096,0-0.227,0.119-0.293C10.678,10.337,11.219,10.486,11.219,10.486z"/>
				</g>
				<g>
					<path fill="#F1E7A4" d="M11.047,10.697c-0.352,0.025-0.648,0.283-0.648,0.283l0,0c-0.001,0-0.002,0-0.003,0
						c-0.102,0.045-0.213,0.016-0.248-0.066s0.018-0.184,0.119-0.229C10.619,10.533,11.047,10.697,11.047,10.697z"/>
				</g>
				<g>
					<path fill="#F1E7A4" d="M10.834,10.846c-0.262-0.012-0.504,0.152-0.504,0.152h-0.001c0,0-0.001,0-0.002,0
						c-0.079,0.023-0.159-0.008-0.178-0.072c-0.019-0.062,0.03-0.133,0.109-0.158C10.533,10.686,10.834,10.846,10.834,10.846z"/>
				</g>
			</g>
			<g>
				<g>
					<path fill="#F1E7A4" d="M9.057,10.486c0.425,0.075,0.756,0.426,0.756,0.426V10.91c0.001,0.002,0.002,0.002,0.004,0.004
						c0.118,0.066,0.258,0.043,0.312-0.053s0-0.227-0.118-0.293C9.599,10.337,9.057,10.486,9.057,10.486z"/>
				</g>
				<g>
					<path fill="#F1E7A4" d="M9.228,10.697c0.352,0.025,0.648,0.283,0.648,0.283l0,0c0.001,0,0.002,0,0.003,0
						c0.102,0.045,0.213,0.016,0.248-0.066c0.036-0.082-0.018-0.184-0.119-0.229C9.656,10.533,9.228,10.697,9.228,10.697z"/>
				</g>
				<g>
					<path fill="#F1E7A4" d="M9.441,10.846c0.263-0.012,0.505,0.152,0.505,0.152h0.001c0,0,0.001,0,0.002,0
						c0.079,0.023,0.159-0.008,0.178-0.072c0.02-0.062-0.029-0.133-0.108-0.158C9.743,10.686,9.441,10.846,9.441,10.846z"/>
				</g>
			</g>
			<circle fill="#A69C60" cx="10.114" cy="10.791" r="0.315"/>
			<circle fill="#FAF3D1" cx="10.114" cy="10.791" r="0.149"/>
		</g>
	</g>
</g>
</svg>
