<?xml version="1.0" encoding="utf-8"?>
<!-- Generated by IcoMoon.io -->
<!DOCTYPE svg PUBLIC "-//W3C//DTD SVG 1.1//EN" "http://www.w3.org/Graphics/SVG/1.1/DTD/svg11.dtd">
<svg version="1.1" xmlns="http://www.w3.org/2000/svg" xmlns:xlink="http://www.w3.org/1999/xlink" width="20" height="20" viewBox="0 0 20 20">
<path fill="rgb(202, 230, 202)" d="M19.691 10c0-5.352-4.339-9.691-9.691-9.691s-9.691 4.338-9.691 9.691c0 5.352 4.339 9.69 9.691 9.69s9.691-4.339 9.691-9.69z"></path>
<path fill="rgb(26, 57, 64)" d="M5.808 13.795c0 0 0.283 1.918-0.674 1.883s-0.629-2.796-0.629-2.796 1.385 0.004 1.303 0.913z"></path>
<path fill="rgb(26, 57, 64)" d="M14.363 13.799c0 0-0.283 1.918 0.674 1.883s0.629-2.796 0.629-2.796-1.386 0.004-1.303 0.913z"></path>
<path fill="rgb(64, 186, 141)" d="M15.855 9.868c-0.274-0.509-1.23-0.613-1.23-0.613l-0.010-0.378c0.065-0.248-0.209-0.718-0.209-0.718s0.278-1.95-0.434-2.779c-0.712-0.83-3.096-0.988-3.706-1.003v-0.002c0 0-0.058-0-0.114 0.001-0.056-0.001-0.114-0.001-0.114-0.001v0.002c-0.609 0.015-2.927 0.136-3.75 1.003s-0.474 2.779-0.474 2.779-0.276 0.47-0.211 0.718l-0.011 0.378c0 0-0.956 0.104-1.23 0.613s-0.366 2.192 0.143 3.014c0 0 0.411 0.634 1.303 0.913 0.842 0.263 3.365 0.517 4.3 0.478 0.935 0.038 3.458-0.216 4.3-0.478 0.892-0.278 1.303-0.913 1.303-0.913 0.509-0.822 0.418-2.505 0.144-3.014z"></path>
<path fill="rgba(154, 212, 185, 0.3100000023841858)" d="M10.15 12.89l-0.053 0.001c0.018 0 0.036-0 0.053-0.001z"></path>
<path fill="rgba(154, 212, 185, 0.3100000023841858)" d="M12.451 4.66c-2.478-0.657-4.669-0.004-4.669-0.004s-1.637 0.693-1.52 3.342c0 0 1.579 0.822 2.179 2.897 0 0 0.649 1.93 1.762 1.991 1.081-0.118 1.709-1.986 1.709-1.986 0.6-2.075 2.179-2.897 2.179-2.897 0.117-2.649-1.64-3.342-1.64-3.342z"></path>
<path fill="rgb(154, 212, 185)" d="M10.258 13.484c-0.018 0-0.036-0-0.054-0.002-0.018 0.002-0.036 0.003-0.053 0.004l0.107-0.003z"></path>
<path fill="rgb(154, 212, 185)" d="M10.258 12.887c-0.018 0-0.036-0-0.054-0.001-0.018 0.002-0.036 0.003-0.053 0.004l0.107-0.003z"></path>
<path fill="rgb(154, 212, 185)" d="M13.992 8.060c0.063-0.039 0.1-0.058 0.1-0.058 0.117-2.649-1.64-3.342-1.64-3.342-2.478-0.657-4.669-0.004-4.669-0.004s-1.637 0.693-1.52 3.342c0 0 0.036 0.019 0.1 0.058 0.848-1.929 6.782-1.926 7.63 0.004z"></path>
<path fill="rgb(154, 212, 185)" d="M8.442 10.894c0 0 0.649 1.93 1.762 1.991 1.081-0.118 1.709-1.986 1.709-1.986 0.509-1.761 1.724-2.619 2.079-2.839-0.848-1.93-6.782-1.933-7.63-0.004 0.356 0.22 1.57 1.078 2.079 2.839z"></path>
<path fill="rgba(255, 255, 255, 0.3100000023841858)" d="M13.562 7.584c0 0-1.363 0.71-1.882 2.502 0 0-0.542 1.613-1.476 1.715-0.961-0.053-1.522-1.719-1.522-1.719-0.518-1.792-1.882-2.501-1.882-2.501s5.202-1.041 6.761 0.004z"></path>
<path fill="rgba(0, 0, 0, 0.05000000074505806)" d="M13.562 7.584l-0.501 0.355c0 0-1.109-0.294-2.823-0.294s-3.088 0.172-3.088 0.172c-0.19-0.14-0.349-0.236-0.349-0.236s5.202-1.041 6.761 0.004z"></path>
<path fill="rgba(0, 0, 0, 0.10000000149011612)" d="M7.077 10.629c0 0.535-0.433 0.968-0.968 0.968s-0.968-0.433-0.968-0.968c0-0.535 0.433-0.968 0.968-0.968s0.968 0.433 0.968 0.968z"></path>
<path fill="rgb(235, 235, 235)" d="M10.016 10.194c0-0.123 0.099-0.222 0.222-0.222s0.222 0.099 0.222 0.222c0 0.122-0.099 0.222-0.222 0.222s-0.222-0.099-0.222-0.222z"></path>
<path fill="rgb(214, 214, 214)" d="M12.4 13.452c0-0.012-0.030-0.053-0.044-0.053h-4.177c-0.014 0 0.032 0.041 0.032 0.053v1.010c0 0.012-0.046 0.003-0.032 0.003h4.177c0.015 0 0.044 0.009 0.044-0.003v-1.010z"></path>
<path fill="rgb(235, 235, 235)" d="M12.247 13.569c0-0.011-0.076-0.018-0.089-0.018h-3.793c-0.013 0-0.003 0.007-0.003 0.018v0.765c0 0.011-0.010-0.021 0.003-0.021h3.793c0.013 0 0.089 0.032 0.089 0.021v-0.765z"></path>
<path fill="rgb(235, 235, 235)" d="M13.599 6.353c0 0-0.274-0.561-0.848-0.757s-2.601-0.261-2.601-0.261-2.026 0.065-2.6 0.261c-0.574 0.196-0.848 0.757-0.848 0.757s-0.55 1.209 0.333 1.301c0 0 2.587-0.191 3.115-0.198 0.528 0.007 3.116 0.198 3.116 0.198 0.883-0.091 0.333-1.301 0.333-1.301z"></path>
<path fill="rgb(235, 235, 235)" d="M13.286 7.652l-0.065-0.001c0.029 0.002 0.045 0.003 0.045 0.003 0.007-0.001 0.013-0.002 0.020-0.002z"></path>
<path fill="rgb(224, 224, 224)" d="M10.425 5.347l-1.068 0.027c-0.181 0.011-0.379 0.009-0.577 0.025l-1.831 2.21h0.271c0.6 0 2.489-0.163 2.931-0.169 0.060 0.001 0.147 0.012 0.254 0.017l1.612-1.998c-0.551-0.064-1.223-0.096-1.592-0.112z"></path>
<path fill="rgb(224, 224, 224)" d="M13.599 6.353c0 0-0.005-0.010-0.014-0.027l-1.030 1.276c0.319 0.023 0.568 0.041 0.666 0.048l0.065 0.001c0.855-0.107 0.313-1.298 0.313-1.298z"></path>
<path fill="rgba(0, 0, 0, 0.10000000149011612)" d="M4.362 9.868c-0.274 0.509-0.365 2.192 0.143 3.014 0 0 0.411 0.634 1.303 0.913 0.033 0.010 0.069 0.021 0.107 0.031-1.268-1.021-1.554-3.958-1.554-3.958z"></path>
<path fill="rgba(0, 0, 0, 0.10000000149011612)" d="M15.866 9.868c0.274 0.509 0.365 2.192-0.143 3.014 0 0-0.411 0.634-1.303 0.913-0.033 0.010-0.069 0.021-0.108 0.031 1.268-1.021 1.554-3.958 1.554-3.958z"></path>
<path fill="rgba(0, 0, 0, 0.10000000149011612)" d="M11.913 10.899c0 0-0.628 1.869-1.709 1.986 0.018 0.001 0.036 0.001 0.054 0.001l-0.107 0.003c0.018-0.001 0.036-0.003 0.053-0.004-1.113-0.061-1.762-1.991-1.762-1.991-0.525-1.896-2.134-2.89-2.179-2.897 0 0 1.579 1.42 2.179 3.494 0 0 0.649 1.93 1.762 1.991 1.081-0.118 1.709-1.986 1.709-1.986 0.6-2.075 2.179-3.494 2.179-3.494 0.009-0.194 0.073 0.166 0 0-0.356 0.22-1.67 1.136-2.179 2.897z"></path>
<path fill="rgba(0, 0, 0, 0.10000000149011612)" d="M5.597 8.721c0 0 0.463 0.603 0.66 0.738 0 0-0.596-0.303-0.665-0.205l0.005-0.534z"></path>
<path fill="rgba(0, 0, 0, 0.10000000149011612)" d="M14.602 8.735c0 0-0.463 0.603-0.66 0.738 0 0 0.613-0.317 0.682-0.219l-0.023-0.519z"></path>
<path fill="rgb(214, 214, 214)" d="M6.926 10.629c0 0.452-0.366 0.818-0.818 0.818s-0.818-0.366-0.818-0.818c0-0.452 0.366-0.818 0.818-0.818s0.818 0.366 0.818 0.818z"></path>
<path fill="rgb(255, 255, 255)" d="M6.673 10.65c0 0.313-0.254 0.568-0.568 0.568s-0.568-0.254-0.568-0.568c0-0.313 0.254-0.568 0.568-0.568s0.568 0.254 0.568 0.568z"></path>
<path fill="rgba(0, 0, 0, 0.10000000149011612)" d="M15.296 10.629c0 0.535-0.433 0.968-0.968 0.968s-0.968-0.433-0.968-0.968c0-0.535 0.433-0.968 0.968-0.968s0.968 0.433 0.968 0.968z"></path>
<path fill="rgb(214, 214, 214)" d="M15.146 10.629c0 0.452-0.366 0.818-0.818 0.818s-0.818-0.366-0.818-0.818c0-0.452 0.366-0.818 0.818-0.818s0.818 0.366 0.818 0.818z"></path>
<path fill="rgb(255, 255, 255)" d="M14.892 10.65c0 0.313-0.254 0.568-0.568 0.568s-0.568-0.254-0.568-0.568c0-0.313 0.254-0.568 0.568-0.568s0.568 0.254 0.568 0.568z"></path>
<path fill="rgb(204, 204, 204)" d="M10.859 6.518l1.407 1.098-1.143-1.255z"></path>
<path fill="rgb(204, 204, 204)" d="M7.569 6.518l1.407 1.098-1.143-1.255z"></path>
</svg>
