<?xml version="1.0" encoding="utf-8"?>
<!-- Generated by IcoMoon.io -->
<!DOCTYPE svg PUBLIC "-//W3C//DTD SVG 1.1//EN" "http://www.w3.org/Graphics/SVG/1.1/DTD/svg11.dtd">
<svg version="1.1" xmlns="http://www.w3.org/2000/svg" xmlns:xlink="http://www.w3.org/1999/xlink" width="20" height="20" viewBox="0 0 20 20">
<path fill="rgb(213, 236, 225)" d="M19.691 10c0-5.352-4.339-9.691-9.69-9.691s-9.691 4.338-9.691 9.691c0 5.352 4.339 9.69 9.691 9.69s9.69-4.339 9.69-9.69z"></path>
<path fill="rgb(99, 176, 110)" d="M10.351 5.894l0.284-0.002v-0.092h0.623c0 0 0.1 0.432-0.879 0.358l-0.028-0.263z"></path>
<path fill="rgb(243, 223, 40)" d="M11.258 5.799c0 0-0.008-0.19-0.293-0.19s-0.304 0.19-0.304 0.19h0.597z"></path>
<path fill="rgb(37, 101, 51)" d="M11.213 6.001l-0.844 0.005 0.014 0.167c0.538 0.041 0.749-0.066 0.83-0.171z"></path>
<path fill="rgb(108, 191, 119)" d="M15.265 11.013h0.218c0 0-0.043-0.307 0.090-0.307h1.221c0 0 0.127-0.029 0.127 0.111v0.693c0 0 0.022 0.036-0.098 0.095l-0.698 0.329h-0.432c0 0-0.2 0.025-0.27-0.123l-0.414-0.75-0.040-0.2h0.315c-0 0 0.113 0.077-0.019 0.153z"></path>
<path fill="rgb(99, 176, 110)" d="M16.933 10.831c0-0.14-0.139-0.125-0.139-0.125h-1.221c-0.118 0-0.096 0.268-0.096 0.268l1.456-0.142z"></path>
<path fill="rgb(108, 191, 119)" d="M4.557 9.401c0 0-0.273-0.136-0.338-0.122 0 0-0.113 0.164-0.195 0.083s0.010-0.289 0.535-0.656c0 0-0.056-0.084 0.098-0.186 0 0-0.037-0.186 0.112-0.307s0.6-0.114 0.767-0.037h0.404l0.139-0.514c0 0-0.051 0.158 0 0s0.121-1.272 0.121-1.272l0.051-0.429c0 0 0.014-0.196 0.232-0.196l3.518 0.069c0 0 0.403-0.024 0.403 0.167v2.287c0 0 1.964-0.046 3.219 0.187s1.897 0.545 1.901 0.775h-0.042l-0.257 1.73-1.213 1.041-2.35 0.219h-3.473l-0.855-2.102-1.376-0.618-1.218 0.049-0.184-0.167z"></path>
<path fill="rgb(99, 176, 110)" d="M5.882 6.216l0.369 0.020 0.038-0.306c0 0-0.086-0.009-0.137 0.046 0 0-0.059-0.091-0.271-0.091l0 0.331z"></path>
<path fill="rgb(102, 180, 112)" d="M14.391 8.976c0 0-1.762-0.301-3.985-0.195v-0.186c-0 0 3.775 0.003 3.985 0.381z"></path>
<path fill="rgb(162, 211, 169)" d="M14.075 9.899c0 0-0.028-0.704 0.576-0.709s0.864 0.057 0.864 0.057-0.072 1.282-0.217 1.604l-1.246-0.015c0 0 0.027-0.866 0.023-0.937z"></path>
<path fill="rgb(87, 145, 98)" d="M14.217 9.91c0 0-0.025-0.637 0.521-0.642s0.781 0.052 0.781 0.052-0.065 1.16-0.197 1.451l-1.127-0.014c0 0 0.025-0.783 0.021-0.847z"></path>
<path fill="rgb(162, 211, 169)" d="M13.401 9.019c0 0 0.238-0 0.227 0.227l-0.227 1.5c0 0-0.809-0.188-0.805-0.606s0.184-0.936 0.184-0.936 0.053-0.184 0.245-0.184c0.191 0 0.376 0 0.376 0z"></path>
<path fill="rgb(87, 145, 98)" d="M13.341 9.173c0 0 0.189 0.012 0.18 0.192l-0.18 1.197c0 0-0.642-0.146-0.639-0.478s0.146-0.754 0.146-0.754 0.042-0.157 0.194-0.157c0.152 0 0.298 0 0.298 0z"></path>
<path fill="rgb(243, 223, 40)" d="M5.882 5.885l0 0.331c0 0-0.102-0.044-0.102-0.166s0.102-0.166 0.102-0.166z"></path>
<path fill="rgb(162, 211, 169)" d="M12.775 9.363l0.801 0.073-0.008 0.088-0.801-0.073 0.008-0.088z"></path>
<path fill="rgb(162, 211, 169)" d="M12.677 9.968l0.801 0.073-0.008 0.088-0.801-0.073 0.008-0.088z"></path>
<path fill="rgb(162, 211, 169)" d="M12.677 9.656l0.801 0.073-0.008 0.088-0.801-0.073 0.008-0.088z"></path>
<path fill="rgb(37, 101, 51)" d="M6.111 7.662c0-0.001 0.001-0.003 0.001-0.004 0 0-0.001 0.002-0.001 0.004z"></path>
<path fill="rgb(130, 199, 139)" d="M8.524 11.101c0-1.389-1.031-2.694-2.42-2.694-0.672 0-1.378 0.442-1.829 0.871 0.451-0.429 1.062-0.693 1.734-0.693 1.389 0 2.515 1.126 2.515 2.515z"></path>
<path fill="rgb(75, 102, 81)" d="M6.009 8.586c-0.672 0-1.283 0.264-1.734 0.693 0.090 0.010 0.315 0.122 0.315 0.122l0.184 0.171 1.218-0.046 1.376 0.611 0.855 2.102h0.015c0.183-0.307 0.286-0.731 0.286-1.152-0-1.389-1.126-2.501-2.515-2.501z"></path>
<path fill="rgb(99, 176, 110)" d="M15.279 11.243h0.569v0.383h-0.393c0 0-0.161-0.383-0.177-0.383z"></path>
<path fill="rgb(162, 211, 169)" d="M15.619 11.243h0.23v0.383h-0.23v-0.383z"></path>
<path fill="rgb(99, 176, 110)" d="M7.559 11.039l0.664 1.201h3.473l1.082-0.066-0.182-1.045z"></path>
<path fill="rgb(156, 156, 156)" d="M11.626 12.258c0-1.086 0.88-1.966 1.966-1.966s1.966 0.88 1.966 1.966c0 1.086-0.88 1.966-1.966 1.966s-1.966-0.88-1.966-1.966z"></path>
<path fill="rgb(145, 145, 145)" d="M15.061 12.258c0 0.811-0.658 1.469-1.469 1.469s-1.469-0.658-1.469-1.469c0-0.811 0.658-1.469 1.469-1.469s1.469 0.658 1.469 1.469z"></path>
<path fill="rgb(243, 223, 40)" d="M14.652 12.258c0 0.585-0.474 1.060-1.060 1.060s-1.060-0.474-1.060-1.060c0-0.585 0.474-1.060 1.060-1.060s1.060 0.474 1.060 1.060z"></path>
<path fill="rgb(137, 138, 138)" d="M13.71 14.229l-0.015-0.272c0.095-0.005 0.19-0.019 0.282-0.040l0.061 0.266c-0.107 0.024-0.217 0.040-0.328 0.046zM13.162 14.184c-0.108-0.024-0.214-0.058-0.316-0.1l0.104-0.252c0.088 0.036 0.179 0.065 0.272 0.086l-0.060 0.266zM14.552 13.986l-0.132-0.238c0.083-0.046 0.163-0.099 0.237-0.159l0.17 0.213c-0.086 0.069-0.178 0.131-0.275 0.184zM12.372 13.804c-0.086-0.069-0.167-0.145-0.241-0.227l0.203-0.182c0.063 0.071 0.133 0.137 0.208 0.196l-0.17 0.213zM15.204 13.401l-0.222-0.158c0.055-0.078 0.104-0.16 0.145-0.246l0.246 0.118c-0.048 0.099-0.104 0.195-0.168 0.285zM11.825 13.12c-0.048-0.099-0.088-0.203-0.119-0.309l0.262-0.076c0.026 0.091 0.061 0.181 0.102 0.266l-0.246 0.119zM15.538 12.579l-0.269-0.051c0.016-0.093 0.023-0.212 0.023-0.289v0h0.273c0 0-0.008 0.232-0.026 0.34zM11.632 12.267v-0.003c0-0.111 0.008-0.221 0.026-0.33l0.287 0.045c-0.016 0.093-0.006 0.189-0.006 0.284v0.003l-0.307 0.001zM15.227 11.793c-0.026-0.091-0.061-0.181-0.102-0.266l0.246-0.119c0.048 0.099 0.088 0.203 0.118 0.309l-0.262 0.076zM12.069 11.528l-0.246-0.119c0.048-0.099 0.105-0.195 0.168-0.285l0.222 0.158c-0.055 0.077-0.104 0.16-0.145 0.246zM14.861 11.133c-0.063-0.071-0.133-0.137-0.207-0.196l0.17-0.213c0.086 0.069 0.167 0.145 0.24 0.227l-0.203 0.182zM12.54 10.938l-0.17-0.213c0.086-0.069 0.179-0.131 0.275-0.184l0.132 0.239c-0.083 0.046-0.163 0.099-0.237 0.159zM14.246 10.696c-0.088-0.036-0.179-0.065-0.272-0.086l0.060-0.266c0.108 0.024 0.214 0.058 0.316 0.1l-0.104 0.252zM13.219 10.61l-0.061-0.266c0.107-0.024 0.217-0.040 0.328-0.046l0.015 0.272c-0.095 0.005-0.19 0.019-0.282 0.040z"></path>
<path fill="rgb(156, 156, 156)" d="M8.581 11.668c0 1.474-1.195 2.668-2.668 2.668s-2.668-1.195-2.668-2.668c0-1.474 1.195-2.668 2.668-2.668s2.668 1.195 2.668 2.668z"></path>
<path fill="rgb(145, 145, 145)" d="M7.911 11.668c0 1.104-0.895 1.999-1.999 1.999s-1.999-0.895-1.999-1.999c0-1.104 0.895-1.999 1.999-1.999s1.999 0.895 1.999 1.999z"></path>
<path fill="rgb(137, 138, 138)" d="M6.066 14.347l-0.021-0.371c0.129-0.007 0.259-0.026 0.385-0.054l0.083 0.362c-0.146 0.033-0.296 0.055-0.447 0.063zM5.319 14.286c-0.147-0.033-0.291-0.079-0.43-0.136l0.142-0.344c0.12 0.049 0.244 0.089 0.37 0.117l-0.082 0.363zM7.214 14.016l-0.181-0.325c0.113-0.063 0.222-0.136 0.323-0.217l0.232 0.29c-0.117 0.094-0.243 0.178-0.375 0.251zM4.242 13.768c-0.117-0.094-0.228-0.198-0.328-0.309l0.277-0.248c0.086 0.096 0.182 0.186 0.283 0.267l-0.232 0.291zM8.103 13.219l-0.303-0.215c0.075-0.106 0.141-0.218 0.197-0.335l0.335 0.161c-0.065 0.135-0.142 0.266-0.229 0.389zM3.496 12.836c-0.066-0.135-0.12-0.277-0.162-0.421l0.357-0.103c0.036 0.124 0.083 0.246 0.139 0.363l-0.335 0.162zM8.559 12.094l-0.367-0.072c0.021-0.126 0.032-0.243 0.032-0.396v0h0.372c-0 0-0.012 0.321-0.036 0.468zM3.275 11.672v-0.004c0-0.151-0.011-0.302 0.014-0.449l0.346 0.062c-0.021 0.127-0.053 0.257-0.053 0.387v0.004l-0.307 0.001zM8.134 11.026c-0.036-0.124-0.083-0.246-0.139-0.363l0.335-0.162c0.065 0.135 0.12 0.277 0.161 0.422l-0.357 0.103zM3.829 10.664l-0.335-0.162c0.065-0.135 0.142-0.266 0.23-0.389l0.303 0.215c-0.075 0.106-0.142 0.218-0.198 0.335zM7.636 10.126c-0.086-0.096-0.181-0.186-0.283-0.267l0.232-0.291c0.117 0.094 0.228 0.198 0.328 0.31l-0.277 0.248zM4.471 9.86l-0.232-0.291c0.117-0.094 0.243-0.178 0.375-0.251l0.18 0.325c-0.113 0.063-0.222 0.135-0.323 0.216zM6.796 9.53c-0.12-0.049-0.244-0.089-0.37-0.118l0.082-0.363c0.147 0.033 0.291 0.079 0.43 0.137l-0.142 0.344zM5.397 9.413l-0.083-0.363c0.146-0.033 0.296-0.054 0.447-0.063l0.021 0.371c-0.13 0.007-0.259 0.025-0.385 0.054z"></path>
<path fill="rgb(243, 223, 40)" d="M7.522 11.668c0 0.889-0.72 1.609-1.609 1.609s-1.609-0.72-1.609-1.609c0-0.889 0.72-1.609 1.609-1.609s1.609 0.72 1.609 1.609z"></path>
<path fill="rgb(244, 228, 84)" d="M5.545 8.176h-0.009c-0.167-0.077-0.619-0.083-0.768 0.038s-0.113 0.309-0.113 0.309v0.003c0.23 0.118 0.775-0.35 0.89-0.35z"></path>
<path fill="rgb(162, 211, 169)" d="M6.067 7.696c-0.001 0.002-0.001 0.004-0.002 0.006 0.001-0.002 0.001-0.004 0.002-0.006z"></path>
<path fill="rgb(162, 211, 169)" d="M6.065 7.701c-0.002 0.008-0.005 0.014-0.006 0.019 0.001-0.004 0.003-0.010 0.006-0.019z"></path>
<path fill="rgb(162, 211, 169)" d="M6.059 7.72c-0 0.001-0.001 0.002-0.001 0.002 0-0.001 0-0.002 0.001-0.002z"></path>
<path fill="rgb(162, 211, 169)" d="M6.069 7.69c-0.001 0.002-0.001 0.004-0.002 0.006 0.001-0.002 0.001-0.004 0.002-0.006z"></path>
<path fill="rgb(162, 211, 169)" d="M6.076 7.667c-0.001 0.004-0.003 0.009-0.005 0.014 0.001-0.004 0.003-0.009 0.005-0.014z"></path>
<path fill="rgb(162, 211, 169)" d="M6.072 7.681c-0.001 0.003-0.002 0.006-0.003 0.008 0.001-0.003 0.002-0.006 0.003-0.008z"></path>
<path fill="rgb(162, 211, 169)" d="M6.079 7.657c-0.001 0.002-0.001 0.003-0.002 0.004 0.001-0.002 0.001-0.004 0.002-0.004z"></path>
<path fill="rgb(162, 211, 169)" d="M6.080 7.656c0 0-0 0-0 0.001s0-0.001 0-0.001z"></path>
<path fill="rgb(162, 211, 169)" d="M6.077 7.663c-0 0.001-0.001 0.002-0.001 0.004 0-0.001 0.001-0.003 0.001-0.004z"></path>
<path fill="rgb(162, 211, 169)" d="M6.058 7.723c-0.001 0.004-0.002 0.005 0 0v0z"></path>
<path fill="rgb(162, 211, 169)" d="M6.078 7.661c-0 0.001-0 0.001-0.001 0.002 0-0.001 0-0.002 0.001-0.002z"></path>
<path fill="rgba(162, 211, 169, 0.5)" d="M6.282 5.88c0.022-0.058 0.062-0.116 0.202-0.116l3.519 0.070c0 0 0.404-0.023 0.404 0.167 0 0-0.232-0.116-1.925-0.116s-2.201-0.005-2.201-0.005z"></path>
<path fill="rgb(162, 211, 169)" d="M13.624 8.475c-1.255-0.232-3.219-0.187-3.219-0.187v0.12c0 0 1.291-0.051 2.536 0.082 1.103 0.118 2.099 0.377 2.549 0.76h0.035c-0.005-0.23-0.646-0.542-1.901-0.775z"></path>
<path fill="rgb(99, 176, 110)" d="M10.671 8.375l-0.124 0.183 0.124 0.037 0.059-0.177z"></path>
<path fill="rgb(99, 176, 110)" d="M10.796 8.103c0 0-0.183 0.024-0.183 0.203s0.195 0.177 0.195 0.177h0.056v-0.381l-0.069 0.001z"></path>
<path fill="rgb(244, 228, 84)" d="M10.865 8.102c0 0 0.108 0.044 0.108 0.182s-0.108 0.162-0.108 0.162v-0.344z"></path>
<path fill="rgb(101, 182, 112)" d="M10.405 9.077v1.077l2.21 0.104c0 0-0.063-0.195 0.059-0.657s0.165-0.495 0.165-0.495l-2.434-0.029z"></path>
<path fill="rgb(255, 255, 255)" d="M5.98 12.879c-0.073 0-0.135-0.056-0.14-0.13-0.006-0.078 0.052-0.145 0.13-0.151 0.046-0.004 0.093-0.011 0.138-0.021 0.076-0.017 0.151 0.030 0.169 0.106s-0.030 0.151-0.106 0.169c-0.059 0.013-0.119 0.023-0.18 0.027-0.004 0-0.007 0-0.011 0z"></path>
<path fill="rgb(255, 255, 255)" d="M5.229 12.649c-0.031 0-0.062-0.010-0.088-0.031-0.047-0.038-0.092-0.079-0.133-0.123-0.053-0.057-0.050-0.146 0.007-0.199s0.146-0.050 0.199 0.007c0.032 0.034 0.066 0.066 0.103 0.095 0.061 0.049 0.071 0.137 0.023 0.198-0.028 0.035-0.069 0.053-0.11 0.053z"></path>
<path fill="rgb(255, 255, 255)" d="M6.787 12.411c-0.027 0-0.055-0.008-0.079-0.024-0.064-0.044-0.081-0.132-0.037-0.196 0.026-0.038 0.050-0.079 0.070-0.121 0.034-0.070 0.118-0.1 0.188-0.066s0.1 0.118 0.066 0.188c-0.026 0.054-0.057 0.107-0.091 0.157-0.027 0.040-0.072 0.062-0.117 0.062z"></path>
<path fill="rgb(255, 255, 255)" d="M4.821 11.809c-0.078 0-0.139-0.063-0.139-0.141v-0.002c0-0.061 0.004-0.122 0.013-0.181 0.011-0.077 0.083-0.13 0.16-0.119s0.128 0.083 0.117 0.16c-0.007 0.046-0.012 0.093-0.012 0.139v0.002c0 0.078-0.061 0.141-0.139 0.141z"></path>
<path fill="rgb(255, 255, 255)" d="M6.926 11.488c-0.060 0-0.116-0.039-0.135-0.099-0.014-0.044-0.031-0.088-0.051-0.13-0.034-0.070-0.005-0.154 0.065-0.188s0.154-0.005 0.188 0.065c0.026 0.054 0.049 0.111 0.067 0.169 0.023 0.074-0.019 0.153-0.093 0.176-0.014 0.004-0.028 0.006-0.042 0.006z"></path>
<path fill="rgb(255, 255, 255)" d="M5.227 10.966c-0.041 0-0.082-0.018-0.11-0.053-0.049-0.061-0.039-0.149 0.022-0.198 0.047-0.038 0.098-0.072 0.15-0.103 0.067-0.039 0.154-0.016 0.193 0.051s0.016 0.154-0.051 0.193c-0.040 0.023-0.079 0.050-0.115 0.079-0.026 0.021-0.057 0.031-0.088 0.031z"></path>
<path fill="rgb(255, 255, 255)" d="M6.29 10.805c-0.017 0-0.035-0.003-0.051-0.010-0.043-0.017-0.088-0.031-0.133-0.041-0.076-0.017-0.124-0.093-0.106-0.169s0.093-0.124 0.169-0.106c0.059 0.013 0.118 0.031 0.174 0.053 0.073 0.028 0.108 0.11 0.080 0.183-0.022 0.056-0.075 0.090-0.131 0.090z"></path>
<path fill="rgb(255, 255, 255)" d="M13.646 13.093c-0.050 0-0.093-0.039-0.097-0.090-0.004-0.054 0.036-0.1 0.090-0.104 0.032-0.002 0.064-0.007 0.095-0.014 0.052-0.012 0.105 0.021 0.116 0.073s-0.021 0.104-0.073 0.116c-0.041 0.009-0.082 0.016-0.124 0.019-0.003 0-0.005 0-0.007 0z"></path>
<path fill="rgb(255, 255, 255)" d="M13.128 12.934c-0.021 0-0.043-0.007-0.061-0.021-0.033-0.026-0.064-0.055-0.092-0.085-0.037-0.039-0.034-0.101 0.005-0.137s0.101-0.034 0.137 0.005c0.022 0.024 0.046 0.045 0.071 0.065 0.042 0.033 0.049 0.095 0.016 0.137-0.019 0.024-0.048 0.037-0.076 0.037z"></path>
<path fill="rgb(255, 255, 255)" d="M14.203 12.771c-0.019 0-0.038-0.005-0.055-0.017-0.044-0.030-0.056-0.091-0.026-0.135 0.018-0.027 0.034-0.055 0.048-0.083 0.023-0.048 0.081-0.069 0.13-0.046s0.069 0.081 0.046 0.13c-0.018 0.038-0.039 0.074-0.063 0.109-0.019 0.028-0.049 0.043-0.080 0.043z"></path>
<path fill="rgb(255, 255, 255)" d="M12.846 12.355c-0.054 0-0.090-0.043-0.090-0.097v-0.001c0-0.042 0-0.084 0.006-0.125 0.008-0.053 0.056-0.090 0.109-0.082s0.085 0.057 0.077 0.111c-0.005 0.032-0.012 0.064-0.012 0.096v0.001c0 0.054-0.036 0.097-0.090 0.097z"></path>
<path fill="rgb(255, 255, 255)" d="M14.298 12.134c-0.041 0-0.080-0.027-0.093-0.069-0.009-0.031-0.021-0.061-0.035-0.090-0.023-0.048-0.003-0.106 0.045-0.13s0.107-0.003 0.13 0.045c0.018 0.038 0.034 0.077 0.046 0.117 0.016 0.051-0.013 0.106-0.064 0.122-0.010 0.003-0.019 0.004-0.029 0.004z"></path>
<path fill="rgb(255, 255, 255)" d="M13.127 11.773c-0.029 0-0.057-0.013-0.076-0.037-0.033-0.042-0.027-0.103 0.015-0.137 0.033-0.026 0.068-0.050 0.103-0.071 0.046-0.027 0.106-0.011 0.133 0.035s0.011 0.106-0.035 0.133c-0.028 0.016-0.054 0.034-0.080 0.054-0.018 0.014-0.039 0.021-0.061 0.021z"></path>
<path fill="rgb(255, 255, 255)" d="M13.86 11.662c-0.012 0-0.024-0.002-0.036-0.007-0.030-0.012-0.061-0.021-0.092-0.028-0.052-0.012-0.085-0.064-0.073-0.116s0.064-0.085 0.116-0.073c0.041 0.009 0.081 0.022 0.12 0.037 0.050 0.020 0.075 0.076 0.055 0.126-0.015 0.038-0.052 0.062-0.091 0.062z"></path>
<path fill="rgb(255, 255, 255)" d="M6.102 11.695c0 0.095-0.077 0.171-0.171 0.171s-0.171-0.077-0.171-0.171c0-0.095 0.077-0.171 0.171-0.171s0.171 0.077 0.171 0.171z"></path>
<path fill="rgb(255, 255, 255)" d="M13.708 12.272c0 0.058-0.047 0.106-0.106 0.106s-0.106-0.047-0.106-0.106c0-0.058 0.047-0.106 0.106-0.106s0.106 0.047 0.106 0.106z"></path>
<path fill="rgb(92, 163, 102)" d="M10.405 8.506v0.283h0.249c0 0 0.040-0.133-0.003-0.242 0-0-0.092-0.058-0.246-0.041z"></path>
<path fill="rgb(75, 137, 97)" d="M6.956 6.029c-0.117 0-0.182-0.005-0.319 0.092-0.086 0.061-0.131 0.171-0.143 0.301l-0.135 1.631c-0 0-0.007-0.010-0.007-0.010l-0.009 0.034v0l0.003 0.060c0.010 0.001 0.999 0.075 1.397 0.249 0.178 0.078 0.414 0.352 0.643 0.747 0.214 0.368 0.385 0.78 0.445 1.073l0.009 0.040h1.183v-4.217h-3.066z"></path>
<path fill="rgb(161, 211, 221)" d="M9.869 10.169h-0.953c-0.067-0.301-0.231-0.695-0.435-1.050-0.128-0.209-0.271-0.404-0.414-0.568-0.077-0.078-0.182-0.168-0.315-0.24-0.264-0.115-0.611-0.178-0.88-0.212-0.234-0.027-0.419-0.038-0.419-0.038l0.001-0.009c-0 0-0.001-0-0.001-0l0.020-0.243 0.11-1.359c0.005-0.055 0.018-0.101 0.036-0.14 0.002-0.004 0.004-0.008 0.006-0.012 0.004-0.008 0.008-0.015 0.012-0.022 0-0.001 0.001-0.001 0.001-0.002 0.091-0.152 0.265-0.167 0.312-0.168v-0h0.005c0.004-0 0.008 0 0.008 0h2.908v4.063z"></path>
<path fill="rgb(110, 156, 165)" d="M7.102 7.814c-0.081-0.427-0.432-0.788-0.556-0.904l-0.073 0.899-0.020 0.243c0 0 0 0 0.001 0l-0.001 0.009c0 0 0.185 0.011 0.419 0.038 0.269 0.034 0.617 0.098 0.88 0.212 0.133 0.073 0.239 0.163 0.315 0.24 0.067 0.076 0.133 0.158 0.197 0.246 0 0 0.022-0.189-0.021-0.27-0.289-0.556-1.142-0.713-1.142-0.713z"></path>
<path fill="rgb(107, 149, 158)" d="M9.869 10.169l-0.343-0.404h-0.736c0.055 0.144 0.099 0.282 0.126 0.404h0.952z"></path>
<path fill="rgb(122, 175, 187)" d="M9.868 7.474l-0.343 1.071c0 0-0.078 0.199-0.078 0.557s0.078 0.664 0.078 0.664l0.343 0.4v-2.692z"></path>
<path fill="rgb(139, 191, 202)" d="M9.868 7.474l-0.343 1.071-0.462-0.537 0.313-0.941z"></path>
<path fill="rgb(120, 164, 174)" d="M9.365 8c-0.135 0.188-0.376 0.246-0.539 0.129v0c-0.163-0.117-0.185-0.364-0.050-0.552l0.267-0.371c0.135-0.188 0.376-0.246 0.539-0.129v0c0.162 0.117 0.185 0.364 0.050 0.552l-0.267 0.371z"></path>
<path fill="rgb(107, 154, 165)" d="M9.365 8c-0.135 0.188-0.376 0.246-0.539 0.129v0l0.755-1.052c0.162 0.117 0.185 0.364 0.050 0.552l-0.267 0.371z"></path>
</svg>
