<?xml version="1.0" encoding="utf-8"?>
<!-- Generator: Adobe Illustrator 16.0.0, SVG Export Plug-In . SVG Version: 6.00 Build 0)  -->
<!DOCTYPE svg PUBLIC "-//W3C//DTD SVG 1.1//EN" "http://www.w3.org/Graphics/SVG/1.1/DTD/svg11.dtd">
<svg version="1.1" id="Layer_1" xmlns="http://www.w3.org/2000/svg" xmlns:xlink="http://www.w3.org/1999/xlink" x="0px" y="0px"
	 width="20px" height="20px" viewBox="0 0 20 20" enable-background="new 0 0 20 20" xml:space="preserve">
<g>
	<path fill="#65A844" d="M19.689,10c0,5.352-4.338,9.689-9.689,9.689S0.31,15.352,0.31,10c0-5.351,4.338-9.689,9.69-9.689
		S19.689,4.648,19.689,10z"/>
	<path fill="#5E5F5E" d="M18.646,12.422c0,0.069-0.057,0.127-0.127,0.127l-9.285,2.886c-0.07,0-0.128-0.056-0.128-0.126v-0.298
		c0-0.07,0.057-0.128,0.128-0.128l9.285-2.887c0.07,0,0.127,0.057,0.127,0.127V12.422z"/>
	<path fill="#5E5F5E" d="M17.664,12.422c0,0.069-0.057,0.127-0.129,0.127l-9.284,2.886c-0.07,0-0.128-0.056-0.128-0.126v-0.298
		c0-0.07,0.057-0.128,0.128-0.128l9.284-2.887c0.07,0,0.129,0.057,0.129,0.127V12.422z"/>
	<path fill="#5E5F5E" d="M9.275,15.314c0,0.069-0.058,0.127-0.128,0.127H8.26c-0.07,0-0.127-0.056-0.127-0.127v-0.298
		c0-0.07,0.056-0.128,0.127-0.128h0.887c0.07,0,0.128,0.058,0.128,0.128V15.314z"/>
	<path fill="#5E5F5E" d="M13.703,12.422c0,0.069-0.057,0.127-0.127,0.127l-9.285,2.886c-0.071,0-0.128-0.056-0.128-0.126v-0.298
		c0-0.07,0.057-0.128,0.128-0.128l9.285-2.887c0.07,0,0.127,0.057,0.127,0.127V12.422z"/>
	<path fill="#5E5F5E" d="M12.721,12.422c0,0.069-0.059,0.127-0.129,0.127l-9.284,2.886c-0.07,0-0.127-0.056-0.127-0.126v-0.298
		c0-0.07,0.056-0.128,0.127-0.128l9.284-2.887c0.07,0,0.129,0.057,0.129,0.127V12.422z"/>
	<path fill="#5E5F5E" d="M4.332,15.314c0,0.069-0.057,0.127-0.127,0.127H3.317c-0.07,0-0.128-0.056-0.128-0.127v-0.298
		c0-0.07,0.058-0.128,0.128-0.128h0.887c0.07,0,0.127,0.058,0.127,0.128V15.314z"/>
	<path fill="#E8BE1E" d="M12.596,7.191c-1.805-0.925-2.341-1.925-3.155-2.468C9.18,4.55,8.686,4.56,8.686,4.56l0.968,10.18
		l8.849-2.428c0.1-0.054,0.17-0.157,0.17-0.28V9.966c0,0-1.471-0.414-6.078-2.774H12.596z"/>
	<path fill="#DBB327" d="M9.886,13.539c-0.176,0.452-0.232,1.2-0.232,1.2l8.849-2.428c0.1-0.054,0.17-0.157,0.17-0.28v-0.129
		C18.672,11.902,10.697,11.448,9.886,13.539L9.886,13.539z"/>
	<path fill="#ECC31B" d="M10.429,13.384c0,0.77-0.497,1.393-1.108,1.393H3.408c-0.613,0-1.108-0.624-1.108-1.393
		c0,0,0-4.761,0-5.612s1.172-3.213,1.669-3.213h4.792c0.497,0,1.669,2.515,1.669,3.251C10.43,8.545,10.43,13.384,10.429,13.384
		L10.429,13.384z"/>
	<path fill="#DBB327" d="M10.093,8.447c0,0.706-0.456,1.278-1.017,1.278H3.651c-0.563,0-1.017-0.572-1.017-1.278
		c0,0,0,0.319,0-0.462S3.71,5.162,4.166,5.162h4.397c0.456,0,1.531,2.182,1.531,2.857S10.094,8.447,10.093,8.447L10.093,8.447z"/>
	<path fill="#5E5F5E" d="M8.802,12.184c0,0.32-0.26,0.58-0.58,0.58s-0.58-0.26-0.58-0.58s0.26-0.58,0.58-0.58
		S8.802,11.863,8.802,12.184z"/>
	<path fill="#5E5F5E" d="M4.854,12.184c0,0.32-0.26,0.58-0.58,0.58c-0.321,0-0.581-0.26-0.581-0.58s0.26-0.58,0.581-0.58
		C4.594,11.604,4.854,11.863,4.854,12.184z"/>
	<path fill="#DBB327" d="M11.57,7.491c0,0,2.729,1.849,5.824,2.506l0.021,0.948c0,0-3.041,0.039-5.846-0.734V7.491L11.57,7.491z"/>
	<path fill="#C8D4D6" d="M11.666,7.796c0,0,2.678,1.674,5.652,2.305v0.744c0,0-2.938-0.026-5.633-0.771L11.666,7.796L11.666,7.796z"
		/>
	<path fill="#C8D4D6" d="M9.808,8.37c0,0.653-0.421,1.182-0.939,1.182h-5.01c-0.52,0-0.939-0.528-0.939-1.182c0,0,0,0.296,0-0.426
		s0.993-2.606,1.414-2.606h4.062c0.421,0,1.414,2.015,1.414,2.639C9.808,8.602,9.808,8.371,9.808,8.37L9.808,8.37z"/>
	<path fill="#D3E0E1" d="M4.854,9.552H3.858c-0.52,0-0.939-0.528-0.939-1.182c0,0,0,0.296,0-0.426s0.993-2.606,1.413-2.606h2.902
		L4.854,9.552z"/>
</g>
</svg>
