<?xml version="1.0" encoding="utf-8"?>
<!-- Generated by IcoMoon.io -->
<!DOCTYPE svg PUBLIC "-//W3C//DTD SVG 1.1//EN" "http://www.w3.org/Graphics/SVG/1.1/DTD/svg11.dtd">
<svg version="1.1" xmlns="http://www.w3.org/2000/svg" xmlns:xlink="http://www.w3.org/1999/xlink" width="20" height="20" viewBox="0 0 20 20">
<path fill="rgb(255, 220, 136)" d="M19.691 10c0-5.352-4.339-9.691-9.69-9.691s-9.691 4.338-9.691 9.691c0 5.352 4.339 9.69 9.691 9.69s9.69-4.339 9.69-9.69z"></path>
<path fill="rgb(204, 204, 204)" d="M16.529 12.177l0.177 0.099c0 0 0.305-0.038 0.328-0.038 0 0 0.038 0.078 0.099 0.078h0.162c0 0 0.127-0.026 0.127-0.081v-0.351l-0.407-0.22-0.095 0.021-0.571-0.259v-0.107h-0.568l0.244 0.307 0.504 0.551z"></path>
<path fill="rgba(137, 138, 138, 0.30000001192092896)" d="M16.367 11.803l0.332-0.032 0.347 0.194 0.376-0.071v-0.011l-0.407-0.22-0.095 0.021-0.571-0.259v-0.107h-0.112l-0.406 0.059z"></path>
<path fill="rgb(224, 96, 98)" d="M6.963 7.639h-2.612c0 0-0.791-0.054-0.883 0.553l0.148 0.301-0.417 1.891-0.078 0.035-0.051 1.023 0.090 0.038v0.212c0 0-0.153 0.081-0.153 0.212v0.851c0 0 0.011 0.174 0.17 0.174h1.553l0.152-0.076 2.023-0.004 0.056 0.081h4.646l0.078-0.076 4.809-0.028c0 0 0.054 0.012 0.054-0.062s0.033-0.928 0.033-0.928 0.028-0.133-0.148-0.203l-0.494-0.221-0.006-0.092-8.32 0.064-0.146-0.173-0.079-3.55-0.424-0.020z"></path>
<path fill="rgba(143, 45, 46, 0.30000001192092896)" d="M3.008 12.776v-0.020c0 0 0.011 0.174 0.17 0.174h1.553l0.152-0.076 2.023-0.004 0.056 0.081h4.646l0.063-0.067v0.013-0.1h-8.663z"></path>
<path fill="rgba(32, 33, 33, 0.20000000298023224)" d="M16.548 12.769c0-0.074 0.033-0.931 0.033-0.931s0.028-0.134-0.148-0.205l-0.494-0.221-0.013-0.093-4.254 0.032v1.524l4.816-0.039c0 0 0.061 0.006 0.061-0.068z"></path>
<path fill="rgba(143, 45, 46, 0.20000000298023224)" d="M11.672 11.467v0.289l-8.751 0.262c0 0-0.042-0.259 0.198-0.325l4.14-0.202 4.413-0.024z"></path>
<path fill="rgba(143, 45, 46, 0.8999999761581421)" d="M5.877 11.357c-0.646 0-1.17 0.501-1.17 1.147 0 0.158 0.032 0.348 0.089 0.425h2.163c0.057-0.077 0.089-0.266 0.089-0.425-0-0.646-0.524-1.147-1.17-1.147z"></path>
<path fill="rgba(143, 45, 46, 0.20000000298023224)" d="M4.641 11.549h-0.92c-0.039 0-0.055-0.008-0.078-0.032-0.038-0.038-0.021-0.084-0.021-0.087v-0.004l0.151-1.581 2.149-0.353v1.416c0 0.156-0.233 0.181-0.235 0.182l-0.382 0.038c-0.091 0.007-0.128 0.035-0.128 0.035l-0.004 0.001-0.414 0.335c-0.054 0.050-0.115 0.049-0.118 0.049h-0zM3.625 11.428c0 0.005 0.002 0.058 0.027 0.083 0.016 0.016 0.039 0.039 0.068 0.039h0.919c0.004 0 0.050-0.019 0.093-0.058l0.001-0.008 0.413-0.343c0.007-0.006 0.045-0.038 0.144-0.047l0.374-0.039c0.006-0.001 0.182-0.023 0.182-0.149v-1.369l-2.074 0.341-0.145 1.55z"></path>
<path fill="rgb(143, 45, 46)" d="M6.663 8.483h-3.054l-0.308 1.423c0 0 2.481-0.338 2.952-0.434s0.409-0.989 0.409-0.989z"></path>
<path fill="rgb(255, 255, 255)" d="M5.818 9.501l-0.928 0.129-0.109 0.016 0.166-1.087h0.861z"></path>
<path fill="rgb(255, 255, 255)" d="M3.712 9.775l0.265-1.216 0.879-0.001-0.167 1.089z"></path>
<path fill="rgb(255, 255, 255)" d="M3.599 8.559h0.205c0 0 0.061-0.011 0.065 0.027l-0.242 1.018c0 0-0.029 0.193-0.187 0.228l-0.131 0.031 0.289-1.303z"></path>
<path fill="rgb(143, 45, 46)" d="M5.692 10.246h-0.353c0 0-0.067 0.005-0.097 0.092l-0.090 0.258c0 0-0.046 0.104 0.037 0.104l0.53 0.007c0 0 0.049 0.004 0.049-0.050v-0.41h-0.076z"></path>
<path fill="rgba(0, 0, 0, 0.30000001192092896)" d="M5.595 10.692l0.132 0.011c0 0 0.041 0.008 0.041-0.047v-0.41h-0.153z"></path>
<path fill="rgb(61, 64, 64)" d="M6.844 12.527c0 0.521-0.422 0.943-0.943 0.943s-0.943-0.422-0.943-0.943c0-0.521 0.422-0.943 0.943-0.943s0.943 0.422 0.943 0.943z"></path>
<path fill="rgb(61, 64, 64)" d="M14.171 12.527c0 0.521-0.422 0.943-0.943 0.943s-0.943-0.422-0.943-0.943c0-0.521 0.422-0.943 0.943-0.943s0.943 0.422 0.943 0.943z"></path>
<path fill="rgba(255, 255, 255, 0.10000000149011612)" d="M13.228 13.299c-0.206 0-0.4-0.080-0.546-0.226s-0.226-0.339-0.226-0.545c0-0.206 0.080-0.4 0.226-0.546s0.339-0.226 0.546-0.226c0.206 0 0.4 0.080 0.545 0.226s0.226 0.339 0.226 0.546c0 0.206-0.080 0.4-0.226 0.545s-0.339 0.226-0.545 0.226zM13.228 11.805c-0.398 0-0.722 0.324-0.722 0.722s0.324 0.722 0.722 0.722c0.398 0 0.722-0.324 0.722-0.722s-0.324-0.722-0.722-0.722z"></path>
<path fill="rgb(61, 64, 64)" d="M16.298 12.527c0 0.521-0.422 0.943-0.943 0.943s-0.943-0.422-0.943-0.943c0-0.521 0.422-0.943 0.943-0.943s0.943 0.422 0.943 0.943z"></path>
<path fill="rgb(224, 96, 98)" d="M6.892 7.793h-2.182c0 0-0.219-0.106-0.289-0.141 0 0 0.049-0.159 0.226-0.173 0 0 0.68-1.424 2.678-1.424l0.13 0.129v1.61h-0.563z"></path>
<path fill="rgb(235, 235, 235)" d="M6.318 12.528c0 0.23-0.186 0.416-0.416 0.416s-0.416-0.186-0.416-0.416c0-0.23 0.186-0.416 0.416-0.416s0.416 0.186 0.416 0.416z"></path>
<path fill="rgb(204, 204, 204)" d="M5.938 12.525c0 0.014-0.010 0.026-0.024 0.026h-0.031c-0.014 0-0.026-0.012-0.026-0.026v-0.029c0-0.014 0.012-0.026 0.026-0.026h0.031c0.014 0 0.024 0.012 0.024 0.026v0.029z"></path>
<path fill="rgb(204, 204, 204)" d="M5.924 12.861c-0.020 0-0.037-0.015-0.038-0.035s0.014-0.039 0.035-0.041c0.013-0.001 0.025-0.003 0.037-0.006 0.021-0.005 0.041 0.008 0.046 0.029s-0.008 0.041-0.029 0.046c-0.016 0.004-0.032 0.006-0.049 0.007-0.001 0-0.002 0-0.003 0zM5.72 12.798c-0.008 0-0.017-0.003-0.024-0.008-0.013-0.010-0.025-0.022-0.036-0.034-0.014-0.015-0.014-0.040 0.002-0.054s0.040-0.014 0.054 0.002c0.009 0.009 0.018 0.018 0.028 0.026 0.017 0.013 0.019 0.037 0.006 0.054-0.008 0.010-0.019 0.014-0.030 0.014zM6.143 12.734c-0.007 0-0.015-0.002-0.021-0.007-0.017-0.012-0.022-0.036-0.010-0.053 0.007-0.010 0.014-0.021 0.019-0.033 0.009-0.019 0.032-0.027 0.051-0.018s0.027 0.032 0.018 0.051c-0.007 0.015-0.015 0.029-0.025 0.043-0.007 0.011-0.019 0.017-0.032 0.017zM5.597 12.57c-0.021 0-0.049-0.017-0.049-0.038v-0.001c0-0.016 0.013-0.033 0.016-0.049 0.003-0.021 0.029-0.035 0.050-0.032s0.037 0.023 0.034 0.043c-0.002 0.012-0.001 0.025-0.001 0.038v0.001c0 0.021-0.028 0.038-0.049 0.038zM6.181 12.483c-0.016 0-0.031-0.011-0.036-0.027-0.004-0.012-0.008-0.024-0.014-0.035-0.009-0.019-0.001-0.042 0.018-0.051s0.042-0.001 0.051 0.018c0.007 0.015 0.013 0.030 0.018 0.046 0.006 0.020-0.005 0.042-0.025 0.048-0.004 0.001-0.008 0.002-0.011 0.002zM5.72 12.341c-0.011 0-0.022-0.005-0.030-0.014-0.013-0.016-0.011-0.041 0.006-0.054 0.013-0.010 0.027-0.020 0.041-0.028 0.018-0.011 0.042-0.004 0.052 0.014s0.004 0.042-0.014 0.052c-0.011 0.006-0.021 0.013-0.031 0.021-0.007 0.006-0.015 0.008-0.024 0.008zM6.008 12.298c-0.005 0-0.009-0.001-0.014-0.003-0.012-0.005-0.024-0.008-0.036-0.011-0.021-0.005-0.034-0.025-0.029-0.046s0.025-0.034 0.046-0.029c0.016 0.004 0.032 0.009 0.047 0.015 0.020 0.008 0.029 0.030 0.022 0.050-0.006 0.015-0.020 0.024-0.036 0.024z"></path>
<path fill="rgb(235, 235, 235)" d="M13.645 12.528c0 0.23-0.186 0.416-0.416 0.416s-0.416-0.186-0.416-0.416c0-0.23 0.186-0.416 0.416-0.416s0.416 0.186 0.416 0.416z"></path>
<path fill="rgb(204, 204, 204)" d="M13.262 12.525c0 0.014-0.012 0.026-0.027 0.026h-0.028c-0.015 0-0.027-0.012-0.027-0.026v-0.029c0-0.014 0.012-0.026 0.027-0.026h0.028c0.015 0 0.027 0.012 0.027 0.026v0.029z"></path>
<path fill="rgb(204, 204, 204)" d="M13.251 12.861c-0.020 0-0.037-0.015-0.038-0.035s0.014-0.039 0.035-0.041c0.013-0.001 0.025-0.003 0.037-0.006 0.021-0.005 0.041 0.008 0.046 0.029s-0.008 0.041-0.029 0.046c-0.016 0.004-0.032 0.006-0.049 0.007-0.001 0-0.002 0-0.003 0zM13.047 12.798c-0.008 0-0.017-0.003-0.024-0.008-0.013-0.010-0.025-0.022-0.036-0.034-0.014-0.015-0.013-0.040 0.002-0.054s0.040-0.014 0.054 0.002c0.009 0.009 0.018 0.018 0.028 0.026 0.017 0.013 0.019 0.037 0.006 0.054-0.008 0.010-0.019 0.014-0.030 0.014zM13.47 12.734c-0.007 0-0.015-0.002-0.021-0.007-0.017-0.012-0.022-0.036-0.010-0.053 0.007-0.010 0.013-0.021 0.019-0.033 0.009-0.019 0.032-0.027 0.051-0.018s0.027 0.032 0.018 0.051c-0.007 0.015-0.015 0.029-0.025 0.043-0.008 0.011-0.019 0.017-0.032 0.017zM12.937 12.57c-0.021 0-0.049-0.017-0.049-0.038v-0.001c0-0.016 0.006-0.033 0.009-0.049 0.003-0.021 0.025-0.035 0.046-0.032s0.043 0.023 0.039 0.043c-0.002 0.012 0.004 0.025 0.004 0.038v0.001c0 0.021-0.028 0.038-0.049 0.038zM13.507 12.483c-0.016 0-0.031-0.011-0.036-0.027-0.004-0.012-0.008-0.024-0.014-0.035-0.009-0.019-0.001-0.042 0.018-0.051s0.042-0.001 0.051 0.018c0.007 0.015 0.013 0.030 0.018 0.046 0.006 0.020-0.005 0.042-0.025 0.048-0.004 0.001-0.008 0.002-0.011 0.002zM13.046 12.341c-0.011 0-0.022-0.005-0.030-0.014-0.013-0.016-0.011-0.041 0.006-0.054 0.013-0.010 0.027-0.020 0.041-0.028 0.018-0.011 0.042-0.004 0.052 0.014s0.004 0.042-0.014 0.052c-0.011 0.006-0.021 0.013-0.031 0.021-0.007 0.006-0.015 0.008-0.024 0.008zM13.335 12.298c-0.005 0-0.009-0.001-0.014-0.003-0.012-0.005-0.024-0.008-0.036-0.011-0.021-0.005-0.034-0.025-0.029-0.046s0.025-0.034 0.046-0.029c0.016 0.004 0.032 0.009 0.047 0.015 0.020 0.008 0.029 0.030 0.022 0.050-0.006 0.015-0.020 0.024-0.036 0.024z"></path>
<path fill="rgb(235, 235, 235)" d="M15.772 12.528c0 0.23-0.186 0.416-0.416 0.416s-0.416-0.186-0.416-0.416c0-0.23 0.186-0.416 0.416-0.416s0.416 0.186 0.416 0.416z"></path>
<path fill="rgb(204, 204, 204)" d="M15.398 12.525c0 0.014-0.019 0.026-0.033 0.026h-0.031c-0.014 0-0.034-0.012-0.034-0.026v-0.029c0-0.014 0.020-0.026 0.034-0.026h0.031c0.014 0 0.033 0.012 0.033 0.026v0.029z"></path>
<path fill="rgb(204, 204, 204)" d="M15.377 12.861c-0.020 0-0.037-0.015-0.038-0.035s0.014-0.039 0.035-0.041c0.013-0.001 0.025-0.003 0.037-0.006 0.021-0.005 0.041 0.008 0.046 0.029s-0.008 0.041-0.029 0.046c-0.016 0.004-0.032 0.006-0.049 0.007-0.001 0-0.002 0-0.003 0zM15.174 12.798c-0.008 0-0.017-0.003-0.024-0.008-0.013-0.010-0.025-0.022-0.036-0.034-0.014-0.015-0.013-0.040 0.002-0.054s0.040-0.014 0.054 0.002c0.009 0.009 0.018 0.018 0.028 0.026 0.016 0.013 0.019 0.037 0.006 0.054-0.008 0.010-0.019 0.014-0.030 0.014zM15.597 12.734c-0.007 0-0.015-0.002-0.022-0.007-0.017-0.012-0.022-0.036-0.010-0.053 0.007-0.010 0.013-0.021 0.019-0.033 0.009-0.019 0.032-0.027 0.051-0.018s0.027 0.032 0.018 0.051c-0.007 0.015-0.015 0.029-0.025 0.043-0.007 0.011-0.019 0.017-0.032 0.017zM15.056 12.57c-0.021 0-0.049-0.017-0.049-0.038v-0.001c0-0.016 0.010-0.033 0.013-0.049 0.003-0.021 0.027-0.035 0.048-0.032s0.039 0.023 0.036 0.043c-0.002 0.012 0.001 0.025 0.001 0.038v0.001c0 0.021-0.028 0.038-0.049 0.038zM15.634 12.483c-0.016 0-0.031-0.011-0.037-0.027-0.004-0.012-0.008-0.024-0.014-0.035-0.009-0.019-0.001-0.042 0.018-0.051s0.042-0.001 0.051 0.018c0.007 0.015 0.013 0.030 0.018 0.046 0.006 0.020-0.005 0.042-0.025 0.048-0.004 0.001-0.008 0.002-0.011 0.002zM15.173 12.341c-0.011 0-0.022-0.005-0.030-0.014-0.013-0.016-0.011-0.041 0.006-0.054 0.013-0.010 0.027-0.020 0.041-0.028 0.018-0.011 0.042-0.004 0.052 0.014s0.004 0.042-0.014 0.052c-0.011 0.006-0.021 0.013-0.031 0.021-0.007 0.006-0.016 0.008-0.024 0.008zM15.462 12.298c-0.005 0-0.009-0.001-0.014-0.003-0.012-0.005-0.024-0.008-0.036-0.011-0.021-0.005-0.033-0.025-0.029-0.046s0.025-0.034 0.046-0.029c0.016 0.004 0.032 0.009 0.047 0.015 0.020 0.008 0.029 0.030 0.022 0.050-0.006 0.015-0.020 0.024-0.036 0.024z"></path>
<path fill="rgba(255, 255, 255, 0.10000000149011612)" d="M15.35 13.299c-0.206 0-0.4-0.080-0.546-0.226s-0.226-0.339-0.226-0.545c0-0.206 0.080-0.4 0.226-0.546s0.339-0.226 0.546-0.226c0.206 0 0.4 0.080 0.546 0.226s0.226 0.339 0.226 0.546c0 0.206-0.080 0.4-0.226 0.545s-0.339 0.226-0.546 0.226zM15.35 11.805c-0.398 0-0.722 0.324-0.722 0.722s0.324 0.722 0.722 0.722 0.722-0.324 0.722-0.722c0-0.398-0.324-0.722-0.722-0.722z"></path>
<path fill="rgba(255, 255, 255, 0.10000000149011612)" d="M5.9 13.299c-0.206 0-0.4-0.080-0.546-0.226s-0.226-0.339-0.226-0.545c0-0.206 0.080-0.4 0.226-0.546s0.339-0.226 0.546-0.226 0.4 0.080 0.545 0.226c0.146 0.146 0.226 0.339 0.226 0.546s-0.080 0.4-0.226 0.545c-0.146 0.146-0.339 0.226-0.545 0.226zM5.9 11.805c-0.398 0-0.722 0.324-0.722 0.722s0.324 0.722 0.722 0.722c0.398 0 0.722-0.324 0.722-0.722s-0.324-0.722-0.722-0.722z"></path>
<path fill="rgb(143, 45, 46)" d="M16.332 11.392l0.361-0.456h-9.232l-0.193 0.503z"></path>
<path fill="rgb(143, 45, 46)" d="M7.726 6.225l-0.417-0.17-0.041 5.435 0.571-0.004z"></path>
<path fill="rgb(234, 235, 237)" d="M17.345 11.145c0 0.012-0.009 0.021-0.021 0.021h-9.771c-0.012 0-0.021-0.009-0.021-0.021v-5.094c0-0.012 0.009-0.021 0.021-0.021h9.771c0.012 0 0.021 0.009 0.021 0.021v5.094z"></path>
<path fill="rgb(255, 255, 255)" d="M17.115 10.985c0 0.011-0.037-0.049-0.048-0.049h-9.209c-0.011 0-0.020 0.060-0.020 0.049v-4.705c0-0.011 0.009-0.021 0.020-0.021h9.209c0.011 0 0.048 0.010 0.048 0.021v4.705z"></path>
<path fill="rgb(235, 235, 235)" d="M17.067 10.936c0.011 0 0.048 0.060 0.048 0.049v-4.705c0-0.011-0.037-0.021-0.048-0.021h-0.25l-1.026 4.677h1.277z"></path>
<path fill="rgb(235, 235, 235)" d="M10.405 6.259l-1.038 4.677h3.886l1.069-4.677z"></path>
<path fill="rgb(245, 161, 162)" d="M3.238 10.435l-0.045-0.052-0.074 0.035-0.050 1.024 0.092 0.039v-0.009h0.077z"></path>
<path fill="rgba(234, 235, 237, 0.30000001192092896)" d="M4.421 7.655l0.008-0.016h-0.078c0 0-0.791-0.054-0.883 0.553l0.053 0.107 3.773-0.315 0.001-0.192h-2.585l-0.289-0.138z"></path>
<path fill="rgb(143, 45, 46)" d="M4.577 8.025c0 0 0.208-0.061 0.226 0.071 0.018 0.133-0.122 0.141-0.122 0.141l-1.213 0.164c0 0-0.197-0.002-0.227 0.208l-0.232 1.143c0 0-0.009 0.064-0.048 0.064 0 0-0.082 0.034-0.261-0.131 0 0-0.113-0.085-0.038-0.713s0.395-0.708 0.395-0.708l1.518-0.239z"></path>
<path fill="rgba(245, 161, 162, 0.6000000238418579)" d="M4.801 8.087c-0.025-0.121-0.225-0.063-0.225-0.063l-1.518 0.239c0 0-0.203 0.051-0.324 0.39l0.337-0.283 1.73-0.282z"></path>
<path fill="rgb(245, 161, 162)" d="M2.843 9.789c0.081 0.042 0.119 0.026 0.119 0.026 0.039 0 0.048-0.064 0.048-0.064l0.232-1.143c0.002-0.015 0.005-0.029 0.009-0.042l-0.142-0.146-0.265 1.368z"></path>
<path fill="rgba(245, 161, 162, 0.5)" d="M4.647 7.481c1.166-0.994 2.189-1.323 2.637-1.426-1.978 0.012-2.637 1.426-2.637 1.426z"></path>
</svg>
