<?xml version="1.0" encoding="utf-8"?>
<!-- Generator: Adobe Illustrator 16.0.0, SVG Export Plug-In . SVG Version: 6.00 Build 0)  -->
<!DOCTYPE svg PUBLIC "-//W3C//DTD SVG 1.1//EN" "http://www.w3.org/Graphics/SVG/1.1/DTD/svg11.dtd">
<svg version="1.1" id="Layer_1" xmlns="http://www.w3.org/2000/svg" xmlns:xlink="http://www.w3.org/1999/xlink" x="0px" y="0px"
	 width="20px" height="20px" viewBox="0 0 20 20" enable-background="new 0 0 20 20" xml:space="preserve">
<g>
	<path fill="#4ABC96" d="M19.69,10c0,5.351-4.338,9.69-9.69,9.69S0.31,15.353,0.31,10c0-5.352,4.338-9.69,9.69-9.69
		S19.69,4.647,19.69,10z"/>
	<path fill="#DFBA24" d="M1.638,5.104C0.911,6.342,0.453,7.756,0.34,9.266h5.072c0.085,0,0.152,0.068,0.152,0.153
		S5.497,9.571,5.412,9.571H0.32C0.313,9.713,0.31,9.855,0.31,9.999c0,0.074,0.004,0.148,0.005,0.222h5.098
		c0.085,0,0.152,0.067,0.152,0.152s-0.067,0.153-0.152,0.153H0.324c0.012,0.208,0.03,0.412,0.055,0.616h5.033
		c0.085,0,0.152,0.068,0.152,0.153c0,0.084-0.067,0.152-0.152,0.152H0.418c0.06,0.404,0.146,0.797,0.256,1.183h5.758l0.3,0.728
		h5.543c0.402,0,0.913-0.543,0.913-0.946c0,0,0.372-0.368,0.505-1.489c0-2.932-0.69-6.021-0.69-6.021l-0.078,0.2H1.638V5.104z"/>
	<path fill="#DFBA24" d="M17.777,11.804c0,0.873-0.707,1.58-1.58,1.58h-2.456c-0.873,0-1.58-0.707-1.58-1.58v-1.759
		c0-0.873,0.439-1.559,1.312-1.559l2.725,0.615c0.878,0.264,1.581,0.483,1.581,1.581v1.121H17.777z"/>
	<path fill="#DFBA24" d="M12.802,14.021H7.004l-0.835-0.615l0.484-1.668h6.148V14.021z"/>
	<path fill="#343433" d="M17.689,12.327c0,0.4-0.323,1.032-0.724,1.032h-1.374c-0.401,0-0.728-0.325-0.728-0.729h2.43L17.689,12.327
		z"/>
	<path fill="#D7AE29" d="M16.968,12.599l-0.716,0.049l-3.087,1.373h-0.648l-0.09-0.201c-0.337-1.255,0.406-2.545,1.66-2.881
		C15.34,10.602,16.631,11.345,16.968,12.599L16.968,12.599z"/>
	<path fill="#202121" d="M16.342,13.298c0,0.936-0.757,1.692-1.692,1.692c-0.935,0-1.692-0.757-1.692-1.692
		c0-0.935,0.758-1.691,1.692-1.691C15.585,11.606,16.342,12.363,16.342,13.298z"/>
	<path fill="#5E5F5E" d="M15.426,13.298c0,0.43-0.348,0.779-0.776,0.779c-0.432,0-0.778-0.348-0.778-0.779
		c0-0.429,0.347-0.777,0.778-0.777C15.078,12.521,15.426,12.868,15.426,13.298z"/>
	<path fill="#343433" d="M12.251,13.359H7.177V7.21c0-0.444,0.336-0.805,0.749-0.805h3.575c0.414,0,0.75,0.36,0.75,0.805V13.359
		L12.251,13.359z"/>
	<path fill="#B1D4D7" d="M12.054,13.359H7.375v-5.67c0-0.41,0.309-0.742,0.691-0.742h3.296c0.383,0,0.692,0.332,0.692,0.742
		L12.054,13.359L12.054,13.359z"/>
	<path fill="#343433" d="M9.583,6.62h0.136v6.738H9.583V6.62z"/>
	<path fill="#B1D4D7" d="M1.854,6.776c0-0.247,0.2-0.446,0.447-0.446h2.795c0.247,0,0.447,0.199,0.447,0.446v1.227
		c0,0.248-0.2,0.447-0.447,0.447H2.302c-0.247,0-0.447-0.199-0.447-0.447V6.776z"/>
	<path fill="#D3E8E9" d="M1.942,7.191h3.524v0.306H1.942V7.191z"/>
	<path fill="#343433" d="M13.532,8.476c0,0.047-0.358,0.038-0.614-0.262c-0.144-0.166-0.088-1.322-0.029-2.768
		c0.017-0.396,0.112-0.541,0.112-0.541S13.531,6.314,13.532,8.476L13.532,8.476z"/>
	<path fill="#B1D4D7" d="M13.538,8.124c0,0.044-0.285,0.005-0.467-0.274S13,4.771,13,4.771S13.538,6.103,13.538,8.124z"/>
	<path fill="#343433" d="M7.004,14.021l-0.272-0.661H6.104C6.16,13.416,7.004,14.021,7.004,14.021z"/>
	<path fill="#343433" d="M6.732,13.359l-0.3-0.729H0.675c0.069,0.247,0.146,0.491,0.233,0.729H6.732z"/>
	<path fill="#343433" d="M5.565,10.375c0-0.084-0.067-0.152-0.152-0.152H0.315c0.003,0.103,0.005,0.204,0.01,0.306h5.088
		C5.498,10.528,5.565,10.46,5.565,10.375z"/>
	<path fill="#343433" d="M5.565,9.42c0-0.085-0.067-0.153-0.152-0.153H0.341c-0.007,0.102-0.016,0.204-0.02,0.306h5.092
		C5.498,9.572,5.565,9.505,5.565,9.42z"/>
	<path fill="#343433" d="M5.565,11.298c0-0.084-0.067-0.153-0.152-0.153H0.38c0.011,0.103,0.023,0.206,0.039,0.306h4.994
		C5.498,11.45,5.565,11.382,5.565,11.298z"/>
	<path fill="#F6DA66" d="M12.924,5.104l0.078-0.201c0-0.401-0.325-0.727-0.728-0.727H2.254C2.03,4.473,1.825,4.782,1.638,5.103
		h11.286V5.104z"/>
</g>
</svg>
