<?xml version="1.0" encoding="utf-8"?>
<!-- Generated by IcoMoon.io -->
<!DOCTYPE svg PUBLIC "-//W3C//DTD SVG 1.1//EN" "http://www.w3.org/Graphics/SVG/1.1/DTD/svg11.dtd">
<svg version="1.1" xmlns="http://www.w3.org/2000/svg" xmlns:xlink="http://www.w3.org/1999/xlink" width="20" height="20" viewBox="0 0 20 20">
<path fill="rgb(153, 214, 206)" d="M19.691 10c0-5.352-4.339-9.691-9.69-9.691s-9.691 4.338-9.691 9.691c0 5.352 4.339 9.69 9.691 9.69s9.69-4.339 9.69-9.69z"></path>
<path fill="rgb(0, 107, 122)" d="M3.25 11.539c0-1.509 1.224-2.733 2.733-2.733s2.733 1.224 2.733 2.733c0 1.509-1.224 2.733-2.733 2.733s-2.733-1.224-2.733-2.733z"></path>
<path fill="rgb(0, 107, 122)" d="M11.678 11.539c0-1.509 1.224-2.733 2.733-2.733s2.733 1.224 2.733 2.733c0 1.509-1.224 2.733-2.733 2.733s-2.733-1.224-2.733-2.733z"></path>
<path fill="rgb(38, 34, 97)" d="M8.461 11.539c0 1.369-1.11 2.479-2.479 2.479s-2.479-1.11-2.479-2.479c0-1.369 1.11-2.479 2.479-2.479s2.479 1.11 2.479 2.479z"></path>
<path fill="rgb(38, 34, 97)" d="M16.926 11.539c0 1.369-1.11 2.479-2.479 2.479s-2.479-1.11-2.479-2.479c0-1.369 1.11-2.479 2.479-2.479s2.479 1.11 2.479 2.479z"></path>
<path fill="rgb(255, 255, 255)" d="M12.074 11.539c0-1.291 1.046-2.337 2.337-2.337s2.337 1.046 2.337 2.337c0 1.291-1.046 2.337-2.337 2.337s-2.337-1.046-2.337-2.337z"></path>
<path fill="rgb(214, 209, 206)" d="M14.322 13.78l0.081-2.069-0.020 2.071z"></path>
<path fill="rgb(214, 209, 206)" d="M14.487 9.35l-0.081 2.069 0.020-2.071z"></path>
<path fill="rgb(214, 209, 206)" d="M16.619 11.648l-2.069-0.081 2.071 0.020z"></path>
<path fill="rgb(214, 209, 206)" d="M12.19 11.482l2.069 0.081-2.071-0.020z"></path>
<path fill="rgb(214, 209, 206)" d="M15.912 13.189l-1.406-1.52 1.45 1.479z"></path>
<path fill="rgb(214, 209, 206)" d="M12.897 9.94l1.406 1.52-1.45-1.478z"></path>
<path fill="rgb(214, 209, 206)" d="M16.029 10.058l-1.52 1.406 1.479-1.45z"></path>
<path fill="rgb(214, 209, 206)" d="M12.78 13.072l1.521-1.406-1.479 1.45z"></path>
<path fill="rgb(255, 255, 255)" d="M3.645 11.539c0-1.291 1.046-2.337 2.337-2.337s2.337 1.046 2.337 2.337c0 1.291-1.046 2.337-2.337 2.337s-2.337-1.046-2.337-2.337z"></path>
<path fill="rgb(214, 209, 206)" d="M5.893 13.78l0.081-2.069-0.020 2.071z"></path>
<path fill="rgb(214, 209, 206)" d="M6.059 9.35l-0.081 2.069 0.020-2.071z"></path>
<path fill="rgb(214, 209, 206)" d="M8.19 11.648l-2.069-0.081 2.071 0.020z"></path>
<path fill="rgb(214, 209, 206)" d="M3.761 11.482l2.069 0.081-2.071-0.020z"></path>
<path fill="rgb(214, 209, 206)" d="M7.483 13.189l-1.406-1.52 1.45 1.479z"></path>
<path fill="rgb(214, 209, 206)" d="M4.468 9.94l1.406 1.52-1.45-1.478z"></path>
<path fill="rgb(214, 209, 206)" d="M7.6 10.058l-1.521 1.406 1.479-1.45z"></path>
<path fill="rgb(214, 209, 206)" d="M4.351 13.072l1.52-1.406-1.478 1.45z"></path>
<path fill="rgb(0, 77, 128)" d="M12.598 8.35c-0.415 0.307-2.859 3.572-2.859 3.572l-0.25-0.16c0.537-0.927 2.907-3.771 2.917-3.829s0-0.098 0-0.098c-0.748-0.227-3.626 0.832-3.714 0.9s-0.051 0.101-0.051 0.101l0.832 2.916-0.206 0.091-0.785-2.834c-0.054-0.176-0.152-0.108-0.152-0.108-0.237 0.142-2.239 2.090-2.239 2.090s-0.089 0.293-0.062 0.381c0.024 0.077 0.13 0.064 0.135 0.060 0.142 0.025 3.093 0.452 3.093 0.452l-0.068 0.21-3.24-0.476-0.118-0.080c0 0 0.066-0.391 0.066-0.54s2.467-2.341 2.467-2.341l-0.072-0.262 0.23-0.004 0.059 0.151c1.076-0.677 3.763-1.113 3.763-1.113 0.022-0.029-0.017-0.113-0.017-0.113l0.342-0.103c0.079 0.076 0.039 0.173 0.039 0.173l1.828 4.113c0 0 0.061 0.115-0.059 0.171 0 0-0.102 0.051-0.157-0.052l-0.475-0.831-0.656-1.202z"></path>
<path fill="rgb(0, 77, 128)" d="M6.158 11.43c-0.001 0 0.001 0 0.005 0.001 0.001-0.001-0.001-0.001-0.005-0.001z"></path>
<path fill="rgb(0, 116, 159)" d="M8.589 8.386l-0.35 0.010c0 0 0.020 0.063-0.036 0.063s-0.070-0.084-0.037-0.117c0.033-0.033 0.249-0.151 0.35-0.112s0.167 0.123 0.073 0.156z"></path>
<path fill="rgb(0, 116, 159)" d="M8.281 8.278l-0.373-1.265c0 0-0.042-0.106-0.14-0.106 0 0-0.074-0.098 0.031-0.098h0.348c0 0 0.125 0.047-0.027 0.104 0 0-0.041 0.012-0.013 0.083l0.358 1.254-0.184 0.029z"></path>
<path fill="rgb(0, 84, 150)" d="M6.911 6.708c0 0 0.023 0.151 0.857 0.273 0 0 1.054-0.247 1.189-0.103l-0.311-0.095-1.735-0.075z"></path>
<path fill="rgb(0, 116, 159)" d="M9.031 6.913c0 0-0.027 0.005-0.219-0.059 0 0-0.282-0.048-0.943 0 0 0-0.694 0.083-0.958-0.147 0 0-0.014-0.063 0.78 0 0 0 1.479-0.065 1.339 0.205z"></path>
<path fill="rgb(38, 34, 97)" d="M6.257 11.496c0 0.143-0.116 0.259-0.259 0.259s-0.259-0.116-0.259-0.259c0-0.143 0.116-0.259 0.259-0.259s0.259 0.116 0.259 0.259z"></path>
<path fill="rgb(38, 34, 97)" d="M14.63 11.538c0 0.121-0.098 0.22-0.22 0.22s-0.22-0.098-0.22-0.22c0-0.121 0.098-0.22 0.22-0.22s0.22 0.098 0.22 0.22z"></path>
<path fill="rgb(191, 226, 209)" d="M9.424 12.728c-0.366 0-0.663-0.298-0.663-0.664s0.298-0.664 0.663-0.664c0.366 0 0.664 0.298 0.664 0.664s-0.298 0.664-0.664 0.664zM9.424 11.516c-0.302 0-0.549 0.246-0.549 0.549s0.246 0.549 0.549 0.549c0.303 0 0.549-0.246 0.549-0.549s-0.246-0.549-0.549-0.549z"></path>
<path fill="rgb(207, 234, 230)" d="M10.323 11.46l0.058-0.187 0.701 0.216-0.058 0.187-0.701-0.216z"></path>
<path fill="rgb(141, 196, 189)" d="M11.192 11.465l-0.11 0.024-0.059 0.192 0.113-0.035z"></path>
<path fill="rgb(141, 196, 189)" d="M10.489 11.236l0.709 0.231-0.12 0.021-0.695-0.214z"></path>
<path fill="rgb(141, 196, 189)" d="M10.637 11.458l0.211 0.089-1.177 0.551h-0.359z"></path>
<path fill="rgb(121, 168, 162)" d="M10.883 11.53l-0.035-0.023-1.206 0.552 0.020 0.021z"></path>
<path fill="rgb(191, 226, 209)" d="M9.327 12.787v0c-0.007 0-0.011-0-0.011-0l-0.005-0-0.005-0.001-3.388-0.919c-0.273-0.003-0.361-0.239-0.361-0.364v-0.002c0-0.364 0.342-0.383 0.41-0.383 0.003 0 0.007 0 0.009 0 0.013-0.003 0.036-0.011 0.091-0.011 0.527 0 3.265 0.223 3.358 0.223 0.002 0 0.004 0 0.007 0 0.072 0 0.708 0.026 0.708 0.728 0 0.29-0.13 0.509-0.376 0.628-0.187 0.090-0.382 0.1-0.438 0.1zM9.323 12.711c0.001 0-0.009 0-0.009 0v-0.010c0 0 0.233-0.002 0.409-0.087 0.219-0.106 0.333-0.29 0.333-0.551s-0.094-0.447-0.282-0.552c-0.15-0.084-0.311-0.088-0.342-0.088-0.004 0-0.006 0-0.007 0l-0.002 0-0.002-0c-0.028-0.002-2.823-0.229-3.353-0.229-0.051 0-0.067 0.002-0.071 0.003l-0.007 0.003-0.010-0.001c-0.001-0-0.005-0-0.011-0-0.077 0-0.327 0.025-0.328 0.303 0.001 0.019 0.020 0.288 0.284 0.288h0.005l0.005 0.001 3.388 0.919z"></path>
<path fill="rgb(191, 226, 209)" d="M9.285 12.781c-0.007 0-0.011-0-0.011-0l-0.007-0-0.075-0.020 0.030-0.11 0.061 0.016c0.014 0 0.055-0 0.11-0.007l0.014 0.113c-0.058 0.007-0.102 0.008-0.123 0.008zM9.442 12.768l-0.018-0.113c0.063-0.010 0.123-0.025 0.178-0.045l0.040 0.107c-0.062 0.023-0.129 0.040-0.2 0.051zM9.161 12.752l-0.189-0.051 0.030-0.11 0.189 0.051-0.030 0.11zM9.675 12.704l-0.044-0.105c0.058-0.024 0.11-0.055 0.154-0.090l0.071 0.089c-0.052 0.042-0.114 0.078-0.182 0.106zM8.941 12.692l-0.189-0.051 0.030-0.11 0.189 0.051-0.030 0.11zM8.721 12.632l-0.189-0.051 0.030-0.11 0.189 0.051-0.030 0.11zM9.884 12.574l-0.076-0.085c0.044-0.040 0.080-0.086 0.107-0.137l0.101 0.053c-0.033 0.064-0.078 0.12-0.132 0.169zM8.501 12.573l-0.189-0.051 0.030-0.11 0.189 0.051-0.030 0.11zM8.281 12.513l-0.189-0.051 0.030-0.11 0.189 0.051-0.030 0.11zM8.061 12.453l-0.189-0.051 0.030-0.11 0.189 0.051-0.030 0.11zM7.841 12.394l-0.189-0.051 0.030-0.11 0.189 0.051-0.030 0.11zM10.031 12.373l-0.104-0.047c0.023-0.051 0.039-0.109 0.046-0.171l0.113 0.014c-0.009 0.074-0.028 0.142-0.056 0.204zM7.621 12.334l-0.189-0.051 0.030-0.11 0.189 0.051-0.030 0.11zM7.401 12.274l-0.189-0.051 0.030-0.11 0.189 0.051-0.030 0.11zM7.181 12.215l-0.189-0.051 0.030-0.11 0.189 0.051-0.030 0.11zM6.961 12.155l-0.189-0.051 0.030-0.11 0.189 0.051-0.030 0.11zM10.090 12.134l-0.114-0.009c0.002-0.021 0.003-0.042 0.003-0.064 0-0.041-0.003-0.081-0.008-0.118l0.113-0.015c0.006 0.042 0.009 0.087 0.009 0.134 0 0.025-0.001 0.049-0.003 0.073zM6.741 12.095l-0.189-0.051 0.030-0.11 0.189 0.051-0.030 0.11zM6.521 12.036l-0.189-0.051 0.030-0.11 0.189 0.051-0.030 0.11zM6.301 11.976l-0.189-0.051 0.030-0.11 0.189 0.051-0.030 0.11zM6.081 11.916l-0.11-0.030c-0.027-0-0.053-0.003-0.077-0.008l0.023-0.103c0.019 0.004 0.040 0.015 0.062 0.015 0 0 0 0 0 0h0.008l0.124 0.024-0.030 0.101zM9.967 11.913c-0.011-0.062-0.029-0.119-0.055-0.169l0.102-0.052c0.031 0.060 0.053 0.128 0.066 0.201l-0.112 0.020zM5.857 11.869c-0.077-0.024-0.138-0.071-0.182-0.141l0.096-0.061c0.029 0.046 0.070 0.077 0.12 0.093l-0.034 0.109zM9.898 11.719c-0.030-0.050-0.068-0.094-0.114-0.131l0.071-0.089c0.057 0.045 0.104 0.1 0.141 0.162l-0.098 0.058zM5.67 11.695c-0.045-0.088-0.036-0.175-0.036-0.179v-0.002c0-0.013-0.013-0.025-0.012-0.038l0.107 0.008c-0.001 0.009-0.004 0.019-0.004 0.028 0.001 0.008 0.011 0.070 0.042 0.131l-0.097 0.052zM9.761 11.57c-0.046-0.033-0.1-0.059-0.159-0.079l0.035-0.109c0.070 0.023 0.134 0.055 0.19 0.094l-0.066 0.093zM9.573 11.483c-0.082-0.023-0.153-0.026-0.179-0.027l0.002-0.114c0.038 0.001 0.116 0.005 0.208 0.031l-0.031 0.11zM5.725 11.457l-0.113-0.017c0.013-0.083 0.047-0.152 0.102-0.204l0.079 0.083c-0.036 0.035-0.059 0.081-0.068 0.139zM9.375 11.456c0 0-0.072-0.006-0.196-0.016l0.009-0.114c0.124 0.010 0.196 0.016 0.196 0.016l-0.009 0.114zM9.146 11.438l-0.195-0.015 0.009-0.114 0.195 0.016-0.009 0.114zM8.918 11.42l-0.195-0.015 0.009-0.114 0.195 0.015-0.009 0.114zM8.69 11.402c-0.062-0.005-0.128-0.010-0.195-0.015l0.009-0.114c0.068 0.005 0.133 0.010 0.195 0.015l-0.009 0.114zM8.462 11.384l-0.195-0.015 0.009-0.114 0.195 0.015-0.009 0.114zM8.235 11.367l-0.195-0.015 0.009-0.114 0.195 0.015-0.009 0.114zM8.007 11.35c-0.065-0.005-0.13-0.010-0.195-0.014l0.008-0.114c0.066 0.005 0.131 0.010 0.195 0.014l-0.009 0.114zM7.779 11.333c-0.065-0.005-0.13-0.009-0.195-0.014l0.008-0.114c0.065 0.005 0.13 0.009 0.196 0.014l-0.008 0.114zM7.551 11.316c-0.066-0.005-0.131-0.009-0.195-0.014l0.008-0.114c0.065 0.004 0.13 0.009 0.195 0.014l-0.008 0.114zM5.813 11.301l-0.069-0.091c0.070-0.053 0.151-0.073 0.208-0.080l0.015 0.113c-0.043 0.006-0.104 0.021-0.154 0.058zM7.323 11.3c-0.066-0.005-0.131-0.009-0.195-0.013l0.008-0.114c0.064 0.004 0.129 0.009 0.196 0.013l-0.008 0.114zM7.096 11.285c-0.067-0.004-0.132-0.009-0.195-0.013l0.007-0.114c0.063 0.004 0.129 0.008 0.196 0.013l-0.008 0.114zM6.868 11.27c-0.068-0.004-0.133-0.008-0.195-0.012l0.007-0.114c0.062 0.004 0.128 0.008 0.196 0.012l-0.007 0.114zM6.64 11.256c-0.070-0.004-0.135-0.008-0.195-0.011l0.006-0.114c0.061 0.003 0.126 0.007 0.196 0.011l-0.007 0.114zM6.412 11.244c-0.076-0.004-0.141-0.006-0.195-0.008l0.004-0.114c0.054 0.002 0.12 0.004 0.197 0.008l-0.006 0.114zM6.046 11.24l-0.014-0.001c-0.001-0-0.016-0.001-0.036 0.001l-0.008-0.126c0.012-0.001 0.023-0.013 0.034-0.013 0.003 0 0.005 0 0.007 0 0.016 0 0.041 0.007 0.090 0.007 0.020 0 0.043 0.006 0.070 0.007l-0.003 0.117c-0.025-0.001-0.048 0.001-0.067 0.001-0.043 0-0.059 0.002-0.064 0.003l-0.009 0.005z"></path>
<path fill="rgb(191, 226, 209)" d="M9.013 12.037c0-0.224 0.182-0.406 0.406-0.406s0.406 0.182 0.406 0.406c0 0.224-0.182 0.406-0.406 0.406s-0.406-0.182-0.406-0.406z"></path>
<path fill="rgb(153, 214, 206)" d="M9.283 12.036l0.211 0.068-1.177 0.53h-0.359z"></path>
<path fill="rgb(141, 196, 189)" d="M9.529 12.15l-0.035-0.023-1.206 0.552 0.021 0.021z"></path>
<path fill="rgb(207, 234, 230)" d="M7.551 12.635h0.69v0.23h-0.69v-0.23z"></path>
<path fill="rgb(141, 196, 189)" d="M8.317 12.611l-0.077 0.056v0.201l0.077-0.067z"></path>
<path fill="rgb(153, 214, 206)" d="M7.63 12.583l0.745 0.004-0.109 0.048h-0.727z"></path>
<path fill="rgb(0, 107, 148)" d="M12.953 6.732l0.134 0.281 0.274 0.030-0.272-0.36z"></path>
<path fill="rgb(6, 138, 178)" d="M13.364 7.043c-0.005 0.045-0.075 0.075-0.156 0.066s-0.143-0.053-0.138-0.098c0.005-0.045 0.075-0.075 0.156-0.066s0.143 0.053 0.138 0.098z"></path>
<path fill="rgb(0, 116, 159)" d="M12.668 7.213l-0.063-0.134 0.902-0.443-0.318-0.149-0.584 0.286c0 0-0.329-0.082-0.353 0.176 0 0 0.21 0.13 0.078 0.366l0.337-0.102z"></path>
<path fill="rgb(0, 107, 148)" d="M13.507 6.636l-0.225-0.364h-0.38l0.426 0.451z"></path>
<path fill="rgb(6, 138, 178)" d="M13.296 6.271c0 0.063-0.088 0.113-0.197 0.113s-0.197-0.051-0.197-0.113c0-0.063 0.088-0.113 0.197-0.113s0.197 0.051 0.197 0.113z"></path>
</svg>
