<?xml version="1.0" encoding="utf-8"?>
<!-- Generated by IcoMoon.io -->
<!DOCTYPE svg PUBLIC "-//W3C//DTD SVG 1.1//EN" "http://www.w3.org/Graphics/SVG/1.1/DTD/svg11.dtd">
<svg version="1.1" xmlns="http://www.w3.org/2000/svg" xmlns:xlink="http://www.w3.org/1999/xlink" width="20" height="20" viewBox="0 0 20 20">
<path fill="rgb(131, 192, 198)" d="M19.691 10c0-5.352-4.339-9.691-9.69-9.691s-9.691 4.338-9.691 9.691c0 5.352 4.339 9.69 9.691 9.69s9.69-4.339 9.69-9.69z"></path>
<path fill="rgb(242, 218, 142)" d="M17.391 9.591l-2.74 1.684-1.733-0.067-0.015-0.052-0.417-0.005 1.795 1.37 1.976-0.034 1.681-2.714z"></path>
<path fill="rgb(248, 241, 153)" d="M14.651 11.275l2.74-1.684-0.154-0.051-2.632 1.637-1.703-0.020 0.015 0.052z"></path>
<path fill="rgb(235, 235, 235)" d="M16.793 12.39c0 0-10.736-4.12-13.362-4.298 0 0-0.726 0.017-1.053 0.243 0 0-0.622 0.004-0.69 0.186s0.381 0.618 0.878 0.947c0 0 2.563 0.949 3.566 1.296s5.601 1.701 5.601 1.701 2.933 0.483 4.708 0.348c0 0 0.246-0.027 0.352-0.423z"></path>
<path fill="rgb(168, 222, 243)" d="M4.616 8.809c0.003-0.010-0.002-0.021-0.012-0.025l-0.24-0.080c-0.010-0.003-0.021 0.002-0.024 0.012l-0.080 0.24c-0.003 0.010 0.002 0.021 0.012 0.025l0.24 0.080c0.010 0.003 0.021-0.002 0.025-0.012l0.080-0.24z"></path>
<path fill="rgb(168, 222, 243)" d="M4.985 8.932c0.003-0.010-0.002-0.021-0.012-0.025l-0.24-0.080c-0.010-0.003-0.021 0.002-0.024 0.012l-0.080 0.24c-0.003 0.010 0.002 0.021 0.012 0.025l0.24 0.080c0.010 0.003 0.021-0.002 0.025-0.012l0.080-0.24z"></path>
<path fill="rgb(168, 222, 243)" d="M5.385 9.065c0.003-0.010-0.002-0.021-0.012-0.025l-0.24-0.080c-0.010-0.003-0.021 0.002-0.024 0.012l-0.080 0.24c-0.003 0.010 0.002 0.021 0.012 0.025l0.24 0.080c0.010 0.003 0.021-0.002 0.025-0.012l0.080-0.24z"></path>
<path fill="rgb(168, 222, 243)" d="M5.785 9.198c0.003-0.010-0.002-0.021-0.012-0.025l-0.24-0.080c-0.010-0.003-0.021 0.002-0.025 0.012l-0.080 0.24c-0.003 0.010 0.002 0.021 0.012 0.025l0.24 0.080c0.010 0.003 0.021-0.002 0.024-0.012l0.080-0.24z"></path>
<path fill="rgb(168, 222, 243)" d="M6.169 9.326c0.003-0.010-0.002-0.021-0.012-0.025l-0.24-0.080c-0.010-0.003-0.021 0.002-0.025 0.012l-0.080 0.24c-0.003 0.010 0.002 0.021 0.012 0.025l0.24 0.080c0.010 0.003 0.021-0.002 0.025-0.012l0.080-0.24z"></path>
<path fill="rgb(168, 222, 243)" d="M6.569 9.459c0.003-0.010 0.003-0.020-0.006-0.023l-0.245-0.081c-0.010-0.003-0.022 0.002-0.026 0.012l-0.081 0.243c-0.003 0.010 0.005 0.018 0.014 0.021l0.245 0.082c0.010 0.003 0.014-0.001 0.018-0.011l0.081-0.243z"></path>
<path fill="rgb(168, 222, 243)" d="M6.969 9.592c0.003-0.010-0.002-0.021-0.012-0.025l-0.24-0.080c-0.010-0.003-0.021 0.002-0.025 0.012l-0.080 0.24c-0.003 0.010 0.002 0.021 0.012 0.024l0.24 0.080c0.010 0.003 0.021-0.002 0.024-0.012l0.080-0.24z"></path>
<path fill="rgb(168, 222, 243)" d="M7.353 9.72c0.003-0.010-0.002-0.021-0.012-0.025l-0.24-0.080c-0.010-0.003-0.021 0.002-0.025 0.012l-0.080 0.24c-0.003 0.010 0.002 0.021 0.012 0.025l0.24 0.080c0.010 0.003 0.021-0.002 0.025-0.012l0.080-0.24z"></path>
<path fill="rgb(168, 222, 243)" d="M8.153 9.986c0.003-0.010-0.002-0.021-0.012-0.025l-0.24-0.080c-0.010-0.003-0.021 0.002-0.024 0.012l-0.080 0.24c-0.003 0.010 0.002 0.021 0.012 0.025l0.24 0.080c0.010 0.003 0.021-0.002 0.025-0.012l0.080-0.24z"></path>
<path fill="rgb(168, 222, 243)" d="M8.553 10.119c0.003-0.010-0.002-0.021-0.012-0.025l-0.24-0.080c-0.010-0.003-0.021 0.002-0.025 0.012l-0.080 0.24c-0.003 0.010 0.002 0.021 0.012 0.024l0.24 0.080c0.010 0.003 0.021-0.002 0.025-0.012l0.080-0.24z"></path>
<path fill="rgb(168, 222, 243)" d="M8.952 10.252c0.003-0.010-0.002-0.021-0.012-0.025l-0.24-0.080c-0.010-0.003-0.021 0.002-0.025 0.012l-0.080 0.24c-0.003 0.010 0.002 0.021 0.012 0.025l0.24 0.080c0.010 0.003 0.021-0.002 0.025-0.012l0.080-0.24z"></path>
<path fill="rgb(168, 222, 243)" d="M9.352 10.386c0.003-0.010-0.002-0.021-0.012-0.025l-0.24-0.080c-0.010-0.003-0.021 0.002-0.024 0.012l-0.080 0.24c-0.003 0.010 0.002 0.021 0.012 0.025l0.24 0.080c0.010 0.003 0.021-0.002 0.024-0.012l0.080-0.24z"></path>
<path fill="rgb(168, 222, 243)" d="M9.752 10.519c0.003-0.010-0.002-0.021-0.012-0.024l-0.24-0.080c-0.010-0.003-0.021 0.002-0.025 0.012l-0.080 0.24c-0.003 0.010 0.002 0.021 0.012 0.025l0.24 0.080c0.010 0.003 0.021-0.002 0.025-0.012l0.080-0.24z"></path>
<path fill="rgb(168, 222, 243)" d="M11.351 11.051c0.003-0.010-0.002-0.021-0.012-0.025l-0.24-0.080c-0.010-0.003-0.021 0.002-0.025 0.012l-0.080 0.24c-0.003 0.010 0.002 0.021 0.012 0.024l0.24 0.080c0.010 0.003 0.021-0.002 0.024-0.012l0.080-0.24z"></path>
<path fill="rgb(168, 222, 243)" d="M11.751 11.184c0.003-0.010-0.002-0.021-0.012-0.024l-0.24-0.080c-0.010-0.003-0.021 0.002-0.024 0.012l-0.080 0.24c-0.003 0.010 0.002 0.021 0.012 0.025l0.24 0.080c0.010 0.003 0.021-0.002 0.025-0.012l0.080-0.24z"></path>
<path fill="rgb(168, 222, 243)" d="M12.151 11.317c0.003-0.010-0.002-0.021-0.012-0.025l-0.24-0.080c-0.010-0.003-0.021 0.002-0.024 0.012l-0.080 0.24c-0.003 0.010 0.002 0.021 0.012 0.025l0.24 0.080c0.010 0.003 0.021-0.002 0.025-0.012l0.080-0.24z"></path>
<path fill="rgb(168, 222, 243)" d="M12.535 11.445c0.003-0.010-0.002-0.021-0.012-0.025l-0.24-0.080c-0.010-0.003-0.021 0.002-0.024 0.012l-0.080 0.24c-0.003 0.010 0.002 0.021 0.012 0.025l0.24 0.080c0.010 0.003 0.021-0.002 0.025-0.012l0.080-0.24z"></path>
<path fill="rgb(168, 222, 243)" d="M12.935 11.578c0.003-0.010-0.002-0.021-0.012-0.024l-0.24-0.080c-0.010-0.003-0.021 0.002-0.025 0.012l-0.080 0.24c-0.003 0.010 0.002 0.021 0.012 0.025l0.24 0.080c0.010 0.003 0.021-0.002 0.025-0.012l0.080-0.24z"></path>
<path fill="rgb(168, 222, 243)" d="M10.152 10.652c0.003-0.010-0.002-0.021-0.012-0.025l-0.24-0.080c-0.010-0.003-0.021 0.002-0.025 0.012l-0.080 0.24c-0.003 0.010 0.002 0.021 0.012 0.025l0.24 0.080c0.010 0.003 0.021-0.002 0.024-0.012l0.080-0.24z"></path>
<path fill="rgb(168, 222, 243)" d="M10.552 10.785c0.003-0.010-0.002-0.021-0.012-0.025l-0.24-0.080c-0.010-0.003-0.021 0.002-0.025 0.012l-0.080 0.24c-0.003 0.010 0.002 0.021 0.012 0.025l0.24 0.080c0.010 0.003 0.021-0.002 0.024-0.012l0.080-0.24z"></path>
<path fill="rgb(168, 222, 243)" d="M10.951 10.918c0.003-0.010-0.002-0.021-0.012-0.025l-0.24-0.080c-0.010-0.003-0.021 0.002-0.025 0.012l-0.080 0.24c-0.003 0.010 0.002 0.021 0.012 0.025l0.24 0.080c0.010 0.003 0.021-0.002 0.024-0.012l0.080-0.24z"></path>
<path fill="rgb(214, 214, 214)" d="M2.672 9.325c-0.277-0.092-0.812-0.682-0.976-0.82-0.003 0.005-0.006 0.011-0.008 0.017-0.068 0.182 0.381 0.618 0.878 0.947 0 0 2.563 0.949 3.566 1.296s5.601 1.701 5.601 1.701 1.657 0.273 3.234 0.351l-3.23-0.444-9.065-3.048z"></path>
<path fill="rgb(201, 201, 201)" d="M7.257 10.884l3.018 0.492 0.298 0.099-0.983 0.185z"></path>
<path fill="rgba(255, 255, 255, 0.699999988079071)" d="M13.699 11.238c-3.384-1.233-8.554-3.029-10.268-3.145 0 0-0.696 0.017-1.033 0.229v0c1.494-0.576 7.407 1.622 11.251 3.018 1.473 0.535 2.642 0.952 3.143 1.051z"></path>
<path fill="rgb(137, 138, 138)" d="M2.528 8.258c0 0-0.055 0.024-0.081 0.038s-0.070 0.042-0.070 0.042 0.041 0.026 0.092 0.055l0.15-0.1-0.092-0.036z"></path>
<path fill="rgb(98, 100, 99)" d="M2.891 8.399l-0.185-0.072-0.066 0.152c0.076 0.022 0.221 0.007 0.221 0.007l0.029-0.088z"></path>
<path fill="rgb(128, 129, 129)" d="M2.62 8.294l-0.15 0.1c0.057 0.033 0.127 0.071 0.166 0.084 0.002 0.001 0.004 0.001 0.006 0.002l0.065-0.152-0.087-0.034z"></path>
<path fill="rgb(166, 168, 171)" d="M6.608 10.756c0.061-0.184 0.164-0.316 0.23-0.294s0.069 0.189 0.008 0.373c-0.061 0.184-0.164 0.316-0.23 0.294s-0.069-0.189-0.008-0.373z"></path>
<path fill="rgb(166, 168, 171)" d="M6.615 11.128l1.049 0.26 0.162-0.456-0.99-0.469z"></path>
<path fill="rgb(146, 148, 151)" d="M7.644 11.15c0.061-0.184 0.119-0.241 0.185-0.219s0.084 0.055 0.023 0.239c-0.061 0.184-0.119 0.241-0.185 0.219s-0.084-0.055-0.023-0.239z"></path>
<path fill="rgba(0, 173, 238, 0.10000000149011612)" d="M4.536 9.049l0.080-0.24c0.003-0.010-0.002-0.021-0.012-0.025l-0.24-0.080c-0.006-0.002-0.011-0.001-0.016 0.002 0.046 0.068 0.12 0.192 0.175 0.355 0.006-0.002 0.011-0.006 0.013-0.012z"></path>
<path fill="rgba(0, 173, 238, 0.10000000149011612)" d="M4.909 9.178l0.080-0.24c0.003-0.010-0.002-0.021-0.012-0.025l-0.24-0.080c-0.006-0.002-0.011-0.001-0.016 0.002 0.045 0.067 0.12 0.192 0.175 0.355 0.006-0.002 0.011-0.006 0.013-0.012z"></path>
<path fill="rgba(0, 173, 238, 0.10000000149011612)" d="M5.298 9.308l0.080-0.24c0.003-0.010-0.002-0.021-0.012-0.025l-0.24-0.080c-0.006-0.002-0.011-0.001-0.016 0.002 0.045 0.068 0.12 0.192 0.175 0.355 0.006-0.002 0.011-0.006 0.013-0.012z"></path>
<path fill="rgba(0, 173, 238, 0.10000000149011612)" d="M6.092 9.567l0.080-0.24c0.003-0.010-0.002-0.021-0.012-0.025l-0.24-0.080c-0.006-0.002-0.011-0.001-0.016 0.002 0.045 0.068 0.12 0.192 0.175 0.355 0.006-0.002 0.011-0.006 0.013-0.012z"></path>
<path fill="rgba(0, 173, 238, 0.10000000149011612)" d="M6.497 9.697l0.080-0.24c0.003-0.010-0.002-0.021-0.012-0.025l-0.24-0.080c-0.006-0.002-0.011-0.001-0.016 0.002 0.045 0.068 0.12 0.192 0.175 0.355 0.006-0.002 0.011-0.006 0.013-0.012z"></path>
<path fill="rgba(0, 173, 238, 0.10000000149011612)" d="M6.886 9.827l0.080-0.24c0.003-0.010-0.002-0.021-0.012-0.025l-0.24-0.080c-0.006-0.002-0.011-0.001-0.016 0.002 0.046 0.068 0.12 0.192 0.175 0.355 0.006-0.002 0.011-0.006 0.013-0.012z"></path>
<path fill="rgba(0, 173, 238, 0.10000000149011612)" d="M7.275 9.956l0.080-0.24c0.003-0.010-0.002-0.021-0.012-0.025l-0.24-0.080c-0.006-0.002-0.011-0.001-0.016 0.002 0.045 0.068 0.12 0.192 0.175 0.355 0.006-0.002 0.011-0.006 0.013-0.012z"></path>
<path fill="rgba(0, 173, 238, 0.10000000149011612)" d="M8.069 10.232l0.080-0.24c0.003-0.010-0.002-0.021-0.012-0.025l-0.24-0.080c-0.006-0.002-0.011-0.001-0.016 0.002 0.045 0.067 0.12 0.192 0.175 0.355 0.006-0.002 0.011-0.006 0.013-0.012z"></path>
<path fill="rgba(0, 173, 238, 0.10000000149011612)" d="M8.474 10.362l0.080-0.24c0.003-0.010-0.002-0.021-0.012-0.024l-0.24-0.080c-0.006-0.002-0.011-0.001-0.016 0.002 0.045 0.068 0.12 0.192 0.175 0.355 0.006-0.002 0.011-0.006 0.013-0.012z"></path>
<path fill="rgba(0, 173, 238, 0.10000000149011612)" d="M8.88 10.491l0.080-0.24c0.003-0.010-0.002-0.021-0.012-0.025l-0.24-0.080c-0.006-0.002-0.011-0.001-0.016 0.002 0.045 0.068 0.12 0.192 0.175 0.355 0.006-0.002 0.011-0.006 0.013-0.012z"></path>
<path fill="rgba(0, 173, 238, 0.10000000149011612)" d="M9.269 10.621l0.080-0.24c0.003-0.010-0.002-0.021-0.012-0.025l-0.24-0.080c-0.006-0.002-0.011-0.001-0.016 0.002 0.045 0.068 0.12 0.192 0.175 0.355 0.006-0.002 0.011-0.006 0.013-0.012z"></path>
<path fill="rgba(0, 173, 238, 0.10000000149011612)" d="M9.674 10.767l0.080-0.24c0.003-0.010-0.002-0.021-0.012-0.025l-0.24-0.080c-0.006-0.002-0.011-0.001-0.016 0.002 0.045 0.067 0.12 0.192 0.175 0.355 0.006-0.002 0.011-0.006 0.013-0.012z"></path>
<path fill="rgba(0, 173, 238, 0.10000000149011612)" d="M10.079 10.896l0.080-0.24c0.003-0.010-0.002-0.021-0.012-0.025l-0.24-0.080c-0.006-0.002-0.011-0.001-0.016 0.002 0.046 0.067 0.12 0.192 0.175 0.355 0.006-0.002 0.011-0.006 0.013-0.012z"></path>
<path fill="rgba(0, 173, 238, 0.10000000149011612)" d="M10.468 11.026l0.080-0.24c0.003-0.010-0.002-0.021-0.012-0.025l-0.24-0.080c-0.006-0.002-0.011-0.001-0.016 0.002 0.045 0.068 0.12 0.192 0.175 0.355 0.006-0.002 0.011-0.006 0.013-0.012z"></path>
<path fill="rgba(0, 173, 238, 0.10000000149011612)" d="M10.873 11.156l0.080-0.24c0.003-0.010-0.002-0.021-0.012-0.024l-0.24-0.080c-0.006-0.002-0.011-0.001-0.016 0.002 0.045 0.067 0.12 0.192 0.175 0.355 0.006-0.002 0.011-0.006 0.013-0.012z"></path>
<path fill="rgba(0, 173, 238, 0.10000000149011612)" d="M11.278 11.285l0.080-0.24c0.003-0.010-0.002-0.021-0.012-0.025l-0.24-0.080c-0.006-0.002-0.011-0.001-0.016 0.002 0.045 0.068 0.12 0.192 0.175 0.355 0.006-0.002 0.011-0.006 0.013-0.012z"></path>
<path fill="rgba(0, 173, 238, 0.10000000149011612)" d="M11.667 11.431l0.080-0.24c0.003-0.010-0.002-0.021-0.012-0.025l-0.24-0.080c-0.006-0.002-0.011-0.001-0.016 0.002 0.045 0.068 0.12 0.192 0.175 0.355 0.006-0.002 0.011-0.006 0.013-0.012z"></path>
<path fill="rgba(0, 173, 238, 0.10000000149011612)" d="M12.072 11.561l0.080-0.24c0.003-0.010-0.002-0.021-0.012-0.025l-0.24-0.080c-0.006-0.002-0.011-0.001-0.016 0.002 0.046 0.067 0.12 0.192 0.175 0.355 0.006-0.002 0.011-0.006 0.013-0.012z"></path>
<path fill="rgba(0, 173, 238, 0.10000000149011612)" d="M12.461 11.691l0.080-0.24c0.003-0.010-0.002-0.021-0.012-0.025l-0.24-0.080c-0.006-0.002-0.011-0.001-0.016 0.002 0.045 0.068 0.12 0.192 0.175 0.355 0.006-0.002 0.011-0.006 0.013-0.012z"></path>
<path fill="rgba(0, 173, 238, 0.10000000149011612)" d="M12.85 11.82l0.080-0.24c0.003-0.010-0.002-0.021-0.012-0.025l-0.24-0.080c-0.006-0.002-0.011-0.001-0.016 0.002 0.045 0.067 0.12 0.192 0.175 0.355 0.006-0.002 0.011-0.006 0.013-0.012z"></path>
<path fill="rgb(224, 202, 132)" d="M17.838 9.74l-1.64 2.55 0.223-0.070 1.516-2.447z"></path>
<path fill="rgb(224, 224, 224)" d="M15.243 12.087l1.216 0.405 1.121-0.191-0.485-0.162z"></path>
<path fill="rgb(204, 204, 204)" d="M3.522 8.586l0.311 0.091-0.192 0.653-0.311-0.091 0.192-0.653z"></path>
<path fill="rgb(214, 214, 214)" d="M3.538 8.586l0.311 0.091-0.192 0.653-0.311-0.091 0.192-0.653z"></path>
<path fill="rgb(204, 204, 204)" d="M13.295 11.649l0.311 0.091-0.192 0.653-0.311-0.091 0.192-0.653z"></path>
<path fill="rgb(214, 214, 214)" d="M13.327 11.649l0.311 0.091-0.192 0.653-0.311-0.091 0.192-0.653z"></path>
<path fill="rgba(255, 255, 255, 0.800000011920929)" d="M10.276 11.376l-2.387-0.385 2.332 0.432 0.247 0.073 0.106-0.021z"></path>
</svg>
