<?xml version="1.0" encoding="utf-8"?>
<!-- Generated by IcoMoon.io -->
<!DOCTYPE svg PUBLIC "-//W3C//DTD SVG 1.1//EN" "http://www.w3.org/Graphics/SVG/1.1/DTD/svg11.dtd">
<svg version="1.1" xmlns="http://www.w3.org/2000/svg" xmlns:xlink="http://www.w3.org/1999/xlink" width="20" height="20" viewBox="0 0 20 20">
<path fill="rgb(214, 209, 206)" d="M19.691 10c0-5.352-4.339-9.691-9.69-9.691s-9.691 4.338-9.691 9.691c0 5.352 4.339 9.69 9.691 9.69s9.69-4.339 9.69-9.69z"></path>
<path fill="rgb(32, 33, 33)" d="M3.336 11.221c0 0-0.216 3.395 0.425 3.395h1.064c0 0 0.782 0.138 0.475-3.169v-0.305l-1.964 0.078z"></path>
<path fill="rgb(32, 33, 33)" d="M5.362 11.82l-0.855 0.244 0.336 2.541c0.106-0.002 0.669-0.133 0.519-2.785z"></path>
<path fill="rgb(32, 33, 33)" d="M16.735 11.221c0 0 0.255 3.395-0.386 3.395h-1.064c0 0-0.784 0.138-0.554-3.169v-0.305l2.004 0.078z"></path>
<path fill="rgb(32, 33, 33)" d="M14.839 13.773l-0.075-0.383h-9.424l-0.111 0.383z"></path>
<path fill="rgb(61, 64, 64)" d="M14.731 13.389v-0.42l-4.582-0.351-4.848 0.351v0.42z"></path>
<path fill="rgb(255, 221, 21)" d="M16.738 9.904c-0.141-0.985-0.858-1.526-0.858-1.526-0.227-0.424-1.522-2.36-1.522-2.36-0.362-0.479-0.774-0.648-0.774-0.648-0.388-0.051-3.441-0.082-3.519-0.083v0c0 0 0.001 0 0 0s0 0 0 0v0c-0.077 0.001-3.127 0.032-3.515 0.083 0 0-0.409 0.169-0.771 0.648 0 0-1.295 1.936-1.522 2.36 0 0-0.716 0.541-0.858 1.526s0.103 2.825 0.103 2.825 0.012 0.051 0.035 0.145c0.012 0.048 0.023 0.13 0.042 0.195 0 0-0.098 0.32 0.31 0.32s0.734 0 0.734 0 0.060-0.307 1.238-0.307h8.413c1.178 0 1.238 0.307 1.238 0.307s0.325 0 0.734 0c0.408 0 0.31-0.32 0.31-0.32 0.023-0.072 0.034-0.113 0.046-0.161 0.023-0.094 0.032-0.175 0.032-0.175s0.244-1.845 0.103-2.83z"></path>
<path fill="rgb(237, 201, 20)" d="M4.386 9.174c-0.284 0.003-0.517 0.238-0.517 0.522l0.191 2.367c0 0.284 0.233 0.516 0.517 0.516 0 0 3.747 0.295 5.533 0.295s5.389-0.233 5.389-0.233c0.284 0 0.517-0.232 0.517-0.516l0.207-2.567c0-0.284-0.233-0.514-0.517-0.511l-11.32 0.126z"></path>
<path fill="rgb(234, 235, 237)" d="M8.061 10.706h3.987v0.767h-3.987v-0.767z"></path>
<path fill="rgb(255, 255, 255)" d="M8.061 10.706h3.987v0.46h-3.987v-0.46z"></path>
<path fill="rgb(32, 33, 33)" d="M13.705 11.708c0-0.017-0.014-0.031-0.031-0.031l-7.239-0.036c-0.017 0-0.031 0.014-0.031 0.031l0.269 0.93c0 0.017 0.014 0.031 0.031 0.031l3.407 0.101 3.32-0.142c0.017 0 0.031-0.014 0.031-0.031l0.243-0.853z"></path>
<path fill="rgb(61, 64, 64)" d="M4.753 7.557l-0.186 0.3c0 0-0.827-0.072-1.24-0.3s1.426 0 1.426 0z"></path>
<path fill="rgb(255, 221, 21)" d="M4.619 7.557c0 0-0.103-0.537-0.279-0.723 0 0-0.62-0.072-0.878 0.269s-0.183 0.421-0.183 0.421l1.341 0.034z"></path>
<path fill="rgb(61, 64, 64)" d="M15.295 7.407l0.186 0.3c0 0 0.827-0.072 1.24-0.3s-1.426 0-1.426 0z"></path>
<path fill="rgb(255, 221, 21)" d="M15.429 7.407c0 0 0.103-0.537 0.279-0.723 0 0 0.62-0.072 0.878 0.269s0.183 0.421 0.183 0.421l-1.34 0.034z"></path>
<path fill="rgb(252, 222, 79)" d="M5.026 7.727l1.046 1.167c0 0 0.679 1.192 7.899 0l1.098-1.167c0 0-9.432-0.869-10.044 0z"></path>
<path fill="rgb(156, 156, 156)" d="M13.884 5.729l-0.474-0.373-3.356-0.103v0.035l-0.038-0.036-0.038 0.036v-0.035l-3.324 0.105-0.454 0.371c0 0-1.182 1.604-1.174 1.987h10.044c0.008-0.383-1.185-1.987-1.185-1.987z"></path>
<path fill="rgb(255, 255, 255)" d="M13.652 5.778c0 0-2.706-0.257-3.605-0.211-0.899-0.046-3.655 0.211-3.655 0.211s-1.064 1.388-1.002 1.853l4.68 0.008 4.653-0.008c0.062-0.465-1.071-1.853-1.071-1.853z"></path>
<path fill="rgba(255, 255, 255, 0.5)" d="M11.050 5.583l-1.382 2.041 0.355 0.015h0.046l2.138-0.012 1.215-1.863c-0.457-0.041-1.512-0.14-2.372-0.181z"></path>
<path fill="rgba(255, 255, 255, 0.5)" d="M6.392 5.778c0 0-1.064 1.372-1.002 1.837l0.392-0.001 1.254-1.893c-0.385 0.032-0.644 0.056-0.644 0.056z"></path>
<path fill="rgba(235, 235, 235, 0.5)" d="M13.652 5.778c0 0-0.085-0.008-0.23-0.021l-1.215 1.855 2.516 0.004c0.062-0.465-1.071-1.837-1.071-1.837z"></path>
<path fill="rgba(235, 235, 235, 0.5)" d="M10.047 5.567c-0.624-0.032-2.141 0.082-3.012 0.155l-1.254 1.893 3.887-0.006 1.382-2.026c-0.405-0.020-0.766-0.029-1.003-0.016z"></path>
<path fill="rgb(234, 235, 237)" d="M4.257 8.378c0 0-0.030 0.508 1.815 0.516 0 0 0.79 0.907 0.845 1.325 0 0-1.534-0.139-1.93-0.178 0 0-2.009-0.234-0.73-1.663z"></path>
<path fill="rgb(234, 235, 237)" d="M15.796 8.378c0 0 0.030 0.508-1.815 0.516 0 0-0.79 0.907-0.845 1.325 0 0 1.534-0.139 1.93-0.178 0 0 2.009-0.234 0.73-1.663z"></path>
<path fill="rgb(209, 209, 209)" d="M10.022 8.987l-3.95-0.092c0 0 1.157 1.571 1.63 1.571 0.408 0 1.892 0.036 2.276 0.046v0.002c0 0 0.007-0 0.038-0.001 0.032 0.001 0.038 0.001 0.038 0.001v-0.002c0.383-0.010 1.873-0.046 2.282-0.046 0.473 0 1.632-1.571 1.632-1.571l-3.946 0.092z"></path>
<path fill="rgb(61, 64, 64)" d="M10.111 9.167l-3.426-0.055c0 0 0.846 1.185 1.28 1.185 0.375 0 1.705 0.033 2.088 0.043v0.002c0 0 0.009-0 0.038-0.001 0.029 0.001 0.038 0.001 0.038 0.001v-0.002c0.383-0.009 1.718-0.043 2.093-0.043 0.434 0 1.309-1.206 1.309-1.206l-3.422 0.075z"></path>
<path fill="rgba(0, 0, 0, 0.11999999731779099)" d="M5.795 12.105c0 0.194-0.157 0.351-0.351 0.351s-0.351-0.157-0.351-0.351c0-0.194 0.157-0.351 0.351-0.351s0.351 0.157 0.351 0.351z"></path>
<path fill="rgb(255, 255, 255)" d="M5.778 12.089c0 0.194-0.157 0.351-0.351 0.351s-0.351-0.157-0.351-0.351c0-0.194 0.157-0.351 0.351-0.351s0.351 0.157 0.351 0.351z"></path>
<path fill="rgba(0, 0, 0, 0.11999999731779099)" d="M15.138 8.911l0.489 0.899-2.304 0.261 0.685-1.071z"></path>
<path fill="rgb(255, 255, 255)" d="M15.121 8.894l0.489 0.899-2.304 0.261 0.685-1.071z"></path>
<path fill="rgb(98, 100, 99)" d="M13.419 5.39l0.465 0.409h-7.674l0.466-0.408c0 0 1.644-0.089 3.371-0.106 1.297-0.012 2.641 0.031 3.372 0.105z"></path>
<path fill="rgb(255, 221, 21)" d="M11.52 5.416h-2.899l0.062-0.69h2.754z"></path>
<path fill="rgb(0, 0, 0)" d="M9.305 4.93h-0.123v-0.086h0.349v0.086h-0.124v0.368h-0.102v-0.368z"></path>
<path fill="rgb(0, 0, 0)" d="M9.779 5.181l-0.032 0.117h-0.106l0.138-0.454h0.135l0.142 0.454h-0.111l-0.035-0.117h-0.13zM9.894 5.105l-0.028-0.096c-0.008-0.027-0.016-0.061-0.023-0.088h-0.001c-0.007 0.027-0.013 0.061-0.021 0.088l-0.027 0.096h0.1z"></path>
<path fill="rgb(0, 0, 0)" d="M10.473 5.298l-0.041-0.082c-0.017-0.032-0.028-0.055-0.040-0.082h-0.001c-0.009 0.026-0.021 0.050-0.036 0.082l-0.037 0.082h-0.117l0.131-0.23-0.127-0.224h0.118l0.040 0.083c0.013 0.028 0.024 0.050 0.034 0.076h0.001c0.011-0.029 0.020-0.049 0.031-0.076l0.038-0.083h0.117l-0.128 0.222 0.135 0.233h-0.119z"></path>
<path fill="rgb(0, 0, 0)" d="M10.885 4.844v0.454h-0.102v-0.454h0.102z"></path>
<path fill="rgb(234, 235, 237)" d="M10.111 9.161l-3.426-0.046c0 0 0.048 0.134 0.209 0.288h6.413c0.172-0.23 0.229-0.308 0.229-0.308l-3.425 0.067z"></path>
<path fill="rgb(234, 235, 237)" d="M7.406 9.956l5.383 0.001c0.124-0.112 0.203-0.171 0.315-0.324h-6.008c0.111 0.153 0.187 0.211 0.31 0.324z"></path>
<path fill="rgb(234, 235, 237)" d="M7.966 10.309c0.375 0 1.705 0.016 2.088 0.025v0.002c0 0 0.009-0 0.038-0.001 0.029 0.001 0.038 0.001 0.038 0.001v-0.002c0.383-0.009 1.718-0.025 2.093-0.025 0.098 0 0.224-0.063 0.352-0.14h-4.957c0.127 0.077 0.247 0.14 0.346 0.14z"></path>
<path fill="rgb(252, 222, 79)" d="M3.451 7.107c-0.258 0.341-0.183 0.421-0.183 0.421l0.059 0.002c0.397-0.137 0.756-0.467 0.969-0.694-0.133-0.009-0.622-0.022-0.845 0.272z"></path>
<path fill="rgb(252, 222, 79)" d="M16.601 6.942c0.258 0.341 0.183 0.421 0.183 0.421l-0.059 0.002c-0.397-0.137-0.756-0.467-0.969-0.694 0.133-0.009 0.622-0.022 0.845 0.272z"></path>
<path fill="rgb(61, 64, 64)" d="M13.674 11.677l-7.239-0.036c-0.017 0-0.031 0.048-0.031 0.065l0.122 0.457h7.069l0.11-0.42c0-0.017-0.014-0.065-0.031-0.065z"></path>
<path fill="rgba(0, 0, 0, 0.10000000149011612)" d="M8.061 11.473h3.987v0.077h-3.987v-0.077z"></path>
<path fill="rgb(241, 189, 62)" d="M4.115 11.602c0 0-0.104 0.455 0.35 0.77l-0.008 0v-0.771c-0.153-0.002-0.342 0.001-0.342 0.001z"></path>
<path fill="rgb(234, 235, 237)" d="M5.947 12.367c0 0-0.028-0.579-0.431-0.682-0.245-0.063-0.675-0.080-1.058-0.083v0.771l1.25 0.16c0 0 0.266 0.036 0.24-0.165z"></path>
<path fill="rgb(241, 189, 62)" d="M15.931 11.586c0 0 0.097 0.455-0.358 0.77l0.001 0v-0.771c0.23-0.002 0.357 0.001 0.357 0.001z"></path>
<path fill="rgb(234, 235, 237)" d="M14.115 12.351c0 0 0.013-0.579 0.416-0.682 0.245-0.063 0.737-0.080 1.043-0.083v0.771l-1.234 0.16c0 0-0.251 0.036-0.225-0.165z"></path>
<path fill="rgb(241, 189, 62)" d="M15.796 8.378c0 0 0.014 0.248-0.606 0.4l0.556 1.063c0.433-0.214 0.787-0.64 0.050-1.464z"></path>
<path fill="rgba(0, 0, 0, 0.11999999731779099)" d="M4.947 8.911l-0.489 0.899 2.304 0.261-0.685-1.071z"></path>
<path fill="rgb(255, 255, 255)" d="M4.931 8.894l-0.489 0.899 2.304 0.261-0.685-1.071z"></path>
<path fill="rgb(241, 189, 62)" d="M4.257 8.378c0 0-0.014 0.248 0.606 0.4l-0.556 1.063c-0.433-0.214-0.787-0.64-0.050-1.464z"></path>
</svg>
