<?xml version="1.0" encoding="utf-8"?>
<!-- Generator: Adobe Illustrator 16.0.0, SVG Export Plug-In . SVG Version: 6.00 Build 0)  -->
<!DOCTYPE svg PUBLIC "-//W3C//DTD SVG 1.1//EN" "http://www.w3.org/Graphics/SVG/1.1/DTD/svg11.dtd">
<svg version="1.1" id="Layer_1" xmlns="http://www.w3.org/2000/svg" xmlns:xlink="http://www.w3.org/1999/xlink" x="0px" y="0px"
	 width="20px" height="20px" viewBox="0 0 20 20" enable-background="new 0 0 20 20" xml:space="preserve">
<g>
	<path fill="#65A844" d="M19.69,10c0,5.352-4.339,9.69-9.69,9.69S0.31,15.352,0.31,10c0-5.351,4.339-9.69,9.69-9.69
		S19.69,4.648,19.69,10z"/>
	<path fill="#D32027" d="M17.564,13.606c0,0.364-0.462,0.857-0.826,0.857H3.29c-0.364,0-0.659-0.295-0.659-0.66V6.792
		c0-0.365,0.295-0.66,0.659-0.66h13.448c0.364,0,0.658,0.295,0.658,0.66c0,0,0.497,2.942,0.497,5.604
		C17.774,13.412,17.564,13.606,17.564,13.606z"/>
	<path fill="#357180" d="M17.624,13.526c0,0.364-0.293,0.938-0.656,0.938H3.29c-0.364,0-0.659-0.295-0.659-0.66h14.635l0.36-0.277
		H17.624z"/>
	<path fill="#202121" d="M6.233,14.409c0,0.562-0.456,1.018-1.018,1.018c-0.562,0-1.019-0.455-1.019-1.018s0.456-1.018,1.019-1.018
		C5.777,13.392,6.233,13.847,6.233,14.409z"/>
	<path fill="#5E5F5E" d="M5.683,14.409c0,0.259-0.209,0.468-0.467,0.468s-0.468-0.21-0.468-0.468c0-0.259,0.21-0.468,0.468-0.468
		S5.683,14.151,5.683,14.409z"/>
	<path fill="#D7C6CB" d="M5.282,8.8H3.536c-0.261,0-0.472-0.212-0.472-0.472V7.071c0-0.26,0.211-0.472,0.472-0.472h1.746V8.8z"/>
	<path fill="#D7C6CB" d="M11.054,6.6h2.137v2.2h-2.137V6.6z"/>
	<path fill="#D7C6CB" d="M8.432,6.6h2.137v2.2H8.432V6.6z"/>
	<path fill="#D7C6CB" d="M5.791,6.6h2.138v2.2H5.791V6.6z"/>
	<path fill="#D7C6CB" d="M5.282,11.988H3.536c-0.261,0-0.472-0.21-0.472-0.471v-0.634c0-0.26,0.211-0.472,0.472-0.472h1.746V11.988z
		"/>
	<path fill="#D7C6CB" d="M11.076,10.412h1.747c0.26,0,0.473,0.212,0.473,0.472v0.634c0,0.26-0.211,0.471-0.473,0.471h-1.747V10.412z
		"/>
	<path fill="#D7C6CB" d="M5.791,10.412h2.138v1.576H5.791V10.412z"/>
	<path fill="#D7C6CB" d="M8.432,10.412h2.137v1.576H8.432V10.412z"/>
	<path fill="#D7C6CB" d="M16.814,8.328c0,0.26-0.211,0.472-0.471,0.472H13.68V6.6h2.664c0.26,0,0.471,0.211,0.471,0.472V8.328z"/>
	<path fill="#202121" d="M13.273,14.409c0,0.562-0.457,1.018-1.018,1.018c-0.562,0-1.017-0.456-1.017-1.018
		c0-0.562,0.455-1.017,1.017-1.017C12.816,13.393,13.273,13.848,13.273,14.409z"/>
	<path fill="#5E5F5E" d="M12.723,14.409c0,0.258-0.209,0.468-0.467,0.468c-0.257,0-0.467-0.21-0.467-0.468s0.21-0.468,0.467-0.468
		C12.514,13.941,12.723,14.151,12.723,14.409z"/>
	<path fill="#D7C6CB" d="M16.814,14.464h-2.969v-3.599c0-0.26,0.196-0.472,0.438-0.472h2.092c0.241,0,0.438,0.212,0.438,0.472
		V14.464z"/>
	<path fill="#D32027" d="M15.253,10.397h0.08v4.066h-0.08V10.397z"/>
	<path fill="#D7C6CB" d="M17.884,11.673c0,0.04-0.258,0.007-0.423-0.249c-0.164-0.254-0.064-4.753-0.064-4.753
		S17.884,9.84,17.884,11.673z"/>
</g>
</svg>
