<?xml version="1.0" encoding="utf-8"?>
<!-- Generated by IcoMoon.io -->
<!DOCTYPE svg PUBLIC "-//W3C//DTD SVG 1.1//EN" "http://www.w3.org/Graphics/SVG/1.1/DTD/svg11.dtd">
<svg version="1.1" xmlns="http://www.w3.org/2000/svg" xmlns:xlink="http://www.w3.org/1999/xlink" width="20" height="20" viewBox="0 0 20 20">
<path fill="rgb(218, 240, 245)" d="M19.691 10c0-5.352-4.339-9.691-9.69-9.691s-9.691 4.338-9.691 9.691c0 5.352 4.339 9.69 9.691 9.69s9.69-4.339 9.69-9.69z"></path>
<path fill="rgb(143, 45, 46)" d="M9.027 13.24c-1.803-0.859-3.403-4.666-3.403-4.666-1.225-3.811 0.72-4.584 0.72-4.584h7.512c0 0 1.945 0.773 0.72 4.584 0 0-1.599 3.803-3.403 4.662l-2.147 0.004z"></path>
<path fill="rgb(175, 55, 56)" d="M8.13 2.941c0 0-3.126-0.090-1.876 5.205 0 0 0.663 2.513 2.986 4.813h1.722c2.322-2.3 2.986-4.813 2.986-4.813 1.25-5.295-1.868-5.217-1.868-5.217l-3.981 0.006z"></path>
<path fill="rgb(207, 64, 65)" d="M9.482 12.883c0 0-3.113-4.494-2.437-7.71s2.4-2.54 2.4-2.54l1.332 0.002c0 0 1.702-0.678 2.379 2.537s-2.437 7.711-2.437 7.711h-1.237z"></path>
<path fill="rgb(255, 255, 255)" d="M10.108 2.349c-0.148-0.006-1.666 0.034-1.375 4.101 0.306 4.27 1.433 6.422 1.433 6.422v0.051c0 0 1.054-2.203 1.36-6.473 0.304-4.238-1.394-4.104-1.419-4.102z"></path>
<path fill="rgb(255, 255, 255)" d="M11.591 13.382h-0.002c-0.020-0.307-0.656-0.474-1.44-0.474-0.796 0-1.442 0.236-1.442 0.515 0 0.053 0.023 0.065 0.066 0.113l0.419 0.919h1.939l0.391-0.913c0.044-0.048 0.068-0.078 0.068-0.132 0-0.003-0.001-0.014-0.001-0.017l0.001-0.011z"></path>
<path fill="rgb(214, 214, 214)" d="M11.131 14.555c0 0.19-0.44 0.345-0.982 0.345s-0.982-0.154-0.982-0.345c0-0.19 0.44-0.345 0.982-0.345s0.982 0.154 0.982 0.345z"></path>
<path fill="rgb(214, 214, 214)" d="M9.249 14.551l0.359 1.582-0.048 0.011-0.359-1.582 0.048-0.011z"></path>
<path fill="rgb(214, 214, 214)" d="M11.062 14.553l0.048 0.011-0.369 1.582-0.048-0.011 0.369-1.582z"></path>
<path fill="rgb(214, 214, 214)" d="M10.205 14.378h0.077v1.38h-0.077v-1.38z"></path>
<path fill="rgb(148, 131, 105)" d="M9.515 15.758h1.38v0.46h-1.38v-0.46z"></path>
<path fill="rgb(148, 131, 105)" d="M10.828 15.738c0 0.132-0.304 0.238-0.679 0.238s-0.679-0.107-0.679-0.238c0-0.132 0.304-0.238 0.679-0.238s0.679 0.107 0.679 0.238z"></path>
<path fill="rgb(119, 104, 80)" d="M10.828 16.211c0 0.132-0.304 0.238-0.679 0.238s-0.679-0.107-0.679-0.238c0-0.132 0.304-0.238 0.679-0.238s0.679 0.107 0.679 0.238z"></path>
<path fill="rgb(239, 186, 116)" d="M10.418 15.12c0-0.311-0.261-0.631-0.261-0.631s-0.261 0.325-0.261 0.631c0 0.208 0.117 0.377 0.261 0.377s0.261-0.169 0.261-0.377z"></path>
<path fill="rgb(209, 106, 99)" d="M10.336 15.239c0-0.214-0.18-0.418-0.18-0.418s-0.18 0.208-0.18 0.418c-0 0.144 0.081 0.26 0.18 0.26s0.18-0.116 0.18-0.26z"></path>
<path fill="rgba(225, 244, 253, 0.10000000149011612)" d="M13.857 4.028h-0.027c-0.628-1.15-1.75-1.15-1.75-1.15h-0.004c-0.636-0.537-1.263-0.292-1.296-0.28-0.337-0.317-0.66-0.267-0.671-0.266-0.061-0.002-0.356 0.010-0.661 0.316h-0.002c0 0-0.651-0.307-1.31 0.23h-0.037l0.032 0.022c0 0-1.125-0.022-1.755 1.128h-0.029c0 0-1.303 0.5-1.105 2.77 1.706-0.394 3.67-0.5 4.876 0.567 1.406 1.244 3.24 1.164 4.57 0.858 0.991-3.497-0.83-4.195-0.83-4.195z"></path>
</svg>
