<?xml version="1.0" encoding="utf-8"?>
<!-- Generator: Adobe Illustrator 16.0.0, SVG Export Plug-In . SVG Version: 6.00 Build 0)  -->
<!DOCTYPE svg PUBLIC "-//W3C//DTD SVG 1.1//EN" "http://www.w3.org/Graphics/SVG/1.1/DTD/svg11.dtd">
<svg version="1.1" id="Layer_1" xmlns="http://www.w3.org/2000/svg" xmlns:xlink="http://www.w3.org/1999/xlink" x="0px" y="0px"
	 width="20px" height="20px" viewBox="0 0 20 20" enable-background="new 0 0 20 20" xml:space="preserve">
<g>
	<g>
		<g>
			<g>
				<g>
					<circle fill="#4ABC96" cx="10" cy="10" r="9.69"/>
				</g>
			</g>
		</g>
	</g>
	<g>
		<path fill="#357180" d="M16.439,13.727c0,0.517-0.264,0.728-0.78,0.728H9.6V5.326h6.06c0.517,0,0.78,0.237,0.78,0.754V13.727z"/>
		<path fill="#FFFFFF" d="M10.315,14.104h5.084c0.477,0,0.592-0.057,0.592-0.533V6.288c0-0.477-0.115-0.61-0.592-0.61h-5.084V14.104
			z"/>
		<path fill="#357180" d="M3.723,6.061c0-0.517,0.263-0.728,0.78-0.728h5.565v9.128H4.503c-0.518,0-0.78-0.237-0.78-0.754V6.061z"/>
		<g>
			<defs>
				<path id="SVGID_1_" d="M15.473,9.408c0,0.147-0.119,0.267-0.266,0.267h-1.92c-0.146,0-0.266-0.119-0.266-0.267V7.031
					c0-0.147,0.119-0.267,0.266-0.267h1.92c0.146,0,0.266,0.119,0.266,0.267V9.408z"/>
			</defs>
			<clipPath id="SVGID_2_">
				<use xlink:href="#SVGID_1_"  overflow="visible"/>
			</clipPath>
			<path clip-path="url(#SVGID_2_)" fill="#90B9C0" d="M15.473,9.408c0,0.147-0.119,0.267-0.266,0.267h-1.92
				c-0.146,0-0.266-0.119-0.266-0.267V7.031c0-0.147,0.119-0.267,0.266-0.267h1.92c0.146,0,0.266,0.119,0.266,0.267V9.408z"/>
			<path clip-path="url(#SVGID_2_)" fill="#FFFFFF" d="M14.443,8.827V8.67c0.231-0.1,0.385-0.361,0.413-0.682
				C14.898,7.97,14.93,7.907,14.93,7.83c0-0.089-0.041-0.16-0.092-0.165c-0.07-0.312-0.295-0.474-0.602-0.474
				s-0.534,0.161-0.606,0.474c-0.05,0.005-0.091,0.076-0.091,0.165c0,0.077,0.031,0.14,0.073,0.158
				c0.027,0.318,0.183,0.579,0.412,0.68v0.159c-0.709,0.011-0.844,0.092-0.844,0.61v0.389h2.115V9.438
				C15.296,8.917,15.157,8.837,14.443,8.827z"/>
		</g>
		<path fill="#78A4A4" d="M15.483,10.606c0,0.101-0.081,0.182-0.182,0.182h-4.479c-0.101,0-0.183-0.081-0.183-0.182
			s0.082-0.182,0.183-0.182h4.479C15.402,10.425,15.483,10.506,15.483,10.606"/>
		<path fill="#78A4A4" d="M15.483,11.369c0,0.101-0.081,0.182-0.182,0.182h-4.479c-0.101,0-0.183-0.081-0.183-0.182
			s0.082-0.182,0.183-0.182h4.479C15.402,11.188,15.483,11.269,15.483,11.369"/>
		<path fill="#78A4A4" d="M15.483,12.176c0,0.101-0.081,0.182-0.182,0.182h-4.479c-0.101,0-0.183-0.081-0.183-0.182
			s0.082-0.182,0.183-0.182h4.479C15.402,11.994,15.483,12.075,15.483,12.176"/>
		<rect x="10.079" y="5.333" fill="#1C5A64" width="0.08" height="9.128"/>
		<path opacity="0.15" fill="#FFFFFF" d="M6.921,5.333h3.147v9.128H6.921C6.404,14.461,6.404,5.333,6.921,5.333z"/>
		<g>
			<path fill="#DAC425" d="M7.387,7.544C7.298,7.285,7.166,7.047,6.999,6.837C6.822,7.052,6.684,7.298,6.592,7.565
				c0.111,0.02,0.226,0.03,0.343,0.03C7.09,7.596,7.241,7.577,7.387,7.544z"/>
			<path fill="#DAC425" d="M7.209,6.656c-0.014-0.002-0.026-0.004-0.04-0.005c-0.03,0.029-0.061,0.061-0.09,0.092
				c0.185,0.228,0.33,0.487,0.426,0.771C7.59,7.488,7.673,7.458,7.753,7.423C7.626,7.131,7.439,6.87,7.209,6.656z"/>
			<path fill="#DAC425" d="M6.92,6.743C6.891,6.71,6.86,6.678,6.829,6.646c-0.03,0.002-0.062,0.006-0.091,0.01
				C6.5,6.877,6.309,7.146,6.182,7.45c0.094,0.037,0.19,0.068,0.29,0.092C6.571,7.247,6.725,6.977,6.92,6.743z"/>
			<path fill="#DAC425" d="M7.532,6.734C7.494,6.722,7.456,6.709,7.417,6.699C7.6,6.896,7.75,7.123,7.858,7.372
				c0.054-0.027,0.106-0.057,0.157-0.089C7.889,7.072,7.725,6.887,7.532,6.734z"/>
			<path fill="#DAC425" d="M5.537,8.091C5.566,7.83,5.642,7.584,5.756,7.359C5.719,7.335,5.682,7.31,5.646,7.283
				C5.509,7.458,5.404,7.66,5.344,7.881C5.403,7.955,5.468,8.025,5.537,8.091z"/>
			<path fill="#DAC425" d="M6.53,6.698C6.491,6.709,6.452,6.721,6.414,6.734c-0.202,0.16-0.373,0.358-0.503,0.584
				c0.053,0.03,0.107,0.06,0.163,0.085C6.185,7.142,6.339,6.903,6.53,6.698z"/>
			<path fill="#DAC425" d="M7.882,6.904c0.086,0.098,0.163,0.202,0.23,0.313c0.027-0.02,0.054-0.039,0.079-0.06
				C8.099,7.062,7.995,6.977,7.882,6.904z"/>
			<path fill="#DAC425" d="M7.422,7.655C7.266,7.692,7.103,7.712,6.935,7.712c-0.129,0-0.256-0.012-0.379-0.033
				C6.496,7.886,6.464,8.104,6.464,8.33c0,0.09,0.005,0.179,0.016,0.267C6.626,8.63,6.778,8.648,6.935,8.648
				c0.196,0,0.386-0.028,0.565-0.081c0.01-0.084,0.015-0.17,0.015-0.257C7.515,8.083,7.482,7.864,7.422,7.655z"/>
			<path fill="#DAC425" d="M8.072,7.385C8.018,7.42,7.961,7.451,7.903,7.48c0.098,0.259,0.152,0.537,0.155,0.828
				c0.083-0.056,0.163-0.117,0.237-0.185C8.269,7.859,8.191,7.61,8.072,7.385z"/>
			<path fill="#DAC425" d="M6.685,9.583c-0.12-0.015-0.236-0.038-0.349-0.07c0.11,0.182,0.246,0.347,0.402,0.491
				c0.018,0.002,0.036,0.005,0.055,0.007c0.038-0.037,0.075-0.074,0.11-0.114C6.822,9.798,6.749,9.693,6.685,9.583z"/>
			<path fill="#DAC425" d="M7.295,9.566C7.227,9.684,7.149,9.794,7.063,9.897c0.033,0.038,0.068,0.075,0.105,0.111
				c0.014-0.002,0.026-0.004,0.04-0.006c0.164-0.151,0.306-0.327,0.419-0.521C7.521,9.519,7.409,9.548,7.295,9.566z"/>
			<path fill="#DAC425" d="M6.497,8.721c0.045,0.269,0.136,0.521,0.264,0.752C6.817,9.478,6.876,9.48,6.935,9.48
				c0.095,0,0.189-0.007,0.281-0.02c0.131-0.234,0.223-0.493,0.268-0.767C7.308,8.74,7.124,8.766,6.935,8.766
				C6.784,8.766,6.638,8.75,6.497,8.721z"/>
			<path fill="#DAC425" d="M6.065,6.904C5.938,6.985,5.823,7.082,5.722,7.193c0.029,0.021,0.06,0.043,0.09,0.063
				C5.885,7.131,5.97,7.013,6.065,6.904z"/>
			<path fill="#DAC425" d="M5.888,8.33c0-0.287,0.051-0.562,0.144-0.817C5.971,7.485,5.912,7.454,5.855,7.421
				c-0.117,0.233-0.19,0.493-0.209,0.767c0.076,0.062,0.157,0.12,0.242,0.171C5.889,8.349,5.888,8.34,5.888,8.33z"/>
			<path fill="#DAC425" d="M6.065,9.755c-0.142-0.159-0.26-0.34-0.349-0.536C5.604,9.141,5.499,9.053,5.403,8.956
				C5.535,9.287,5.769,9.566,6.065,9.755z"/>
			<path fill="#DAC425" d="M6.17,9.457c-0.09-0.035-0.178-0.074-0.262-0.12c0.13,0.227,0.303,0.427,0.506,0.588
				C6.452,9.938,6.491,9.95,6.53,9.961C6.389,9.81,6.268,9.641,6.17,9.457z"/>
			<path fill="#DAC425" d="M8.65,8.537C8.659,8.469,8.663,8.4,8.663,8.33c0-0.131-0.015-0.259-0.043-0.381
				C8.558,8.027,8.489,8.102,8.417,8.171C8.421,8.224,8.423,8.276,8.423,8.33c0,0.202-0.028,0.397-0.081,0.583
				C8.459,8.801,8.562,8.674,8.65,8.537z"/>
			<path fill="#DAC425" d="M8.076,9.269C7.987,9.324,7.895,9.374,7.798,9.416c-0.102,0.199-0.23,0.383-0.381,0.545
				C7.456,9.95,7.494,9.938,7.532,9.925C7.756,9.747,7.942,9.524,8.076,9.269z"/>
			<path fill="#DAC425" d="M8.593,8.816C8.495,8.933,8.386,9.039,8.267,9.134C8.174,9.363,8.043,9.572,7.882,9.755
				C8.219,9.54,8.475,9.208,8.593,8.816z"/>
			<path fill="#DAC425" d="M8.306,8.33c0-0.02,0-0.039-0.001-0.059C8.226,8.337,8.143,8.396,8.056,8.449
				c-0.014,0.282-0.077,0.552-0.181,0.8C7.979,9.194,8.077,9.132,8.17,9.062C8.258,8.834,8.306,8.588,8.306,8.33z"/>
			<path fill="#DAC425" d="M6.369,8.689c-0.122-0.033-0.24-0.077-0.353-0.13c0.028,0.286,0.111,0.558,0.236,0.804
				C6.369,9.404,6.49,9.436,6.614,9.455C6.493,9.219,6.409,8.962,6.369,8.689z"/>
			<path fill="#DAC425" d="M5.634,9.01c-0.071-0.214-0.11-0.442-0.11-0.68c0-0.031,0.001-0.062,0.002-0.092
				C5.449,8.172,5.378,8.101,5.312,8.023c-0.019,0.1-0.028,0.202-0.028,0.307c0,0.121,0.013,0.238,0.037,0.353
				C5.412,8.803,5.518,8.913,5.634,9.01z"/>
			<path fill="#DAC425" d="M8.27,7.246C8.237,7.271,8.204,7.296,8.171,7.32C8.285,7.535,8.365,7.771,8.4,8.022
				c0.065-0.067,0.125-0.14,0.181-0.216C8.514,7.6,8.407,7.409,8.27,7.246z"/>
			<path fill="#DAC425" d="M7.612,8.655C7.573,8.932,7.489,9.194,7.367,9.434c0.119-0.025,0.235-0.062,0.346-0.108
				c0.12-0.247,0.197-0.52,0.221-0.807C7.831,8.572,7.723,8.618,7.612,8.655z"/>
			<path fill="#DAC425" d="M7.94,8.381c0-0.017,0.001-0.034,0.001-0.051c0-0.281-0.051-0.55-0.145-0.799
				C7.714,7.567,7.628,7.599,7.54,7.625c0.062,0.218,0.097,0.447,0.097,0.686c0,0.073-0.004,0.145-0.011,0.217
				C7.735,8.487,7.841,8.438,7.94,8.381z"/>
			<path fill="#DAC425" d="M6.935,9.598c-0.034,0-0.067-0.001-0.101-0.003C6.88,9.667,6.93,9.736,6.983,9.804
				C7.039,9.734,7.091,9.662,7.14,9.588C7.072,9.594,7.004,9.598,6.935,9.598z"/>
			<path fill="#DAC425" d="M5.895,8.497c-0.089-0.05-0.174-0.104-0.254-0.165c0,0.287,0.061,0.561,0.169,0.809
				c0.09,0.06,0.185,0.111,0.283,0.156C5.982,9.05,5.914,8.779,5.895,8.497z"/>
			<path fill="#DAC425" d="M6.343,8.33c0-0.234,0.033-0.461,0.095-0.677C6.335,7.63,6.235,7.598,6.139,7.56
				C6.053,7.8,6.005,8.06,6.005,8.33c0,0.031,0.001,0.062,0.002,0.094c0.11,0.057,0.227,0.104,0.348,0.14
				C6.347,8.486,6.343,8.409,6.343,8.33z"/>
		</g>
		<path fill="#78A4A4" d="M12.727,6.965c0,0.101-0.081,0.183-0.182,0.183h-1.723c-0.101,0-0.182-0.082-0.182-0.183
			c0-0.1,0.081-0.182,0.182-0.182h1.723C12.646,6.783,12.727,6.865,12.727,6.965"/>
		<path fill="#78A4A4" d="M12.727,7.729c0,0.101-0.081,0.182-0.182,0.182h-1.723c-0.101,0-0.182-0.081-0.182-0.182
			s0.081-0.182,0.182-0.182h1.723C12.646,7.547,12.727,7.628,12.727,7.729"/>
		<path fill="#78A4A4" d="M12.727,8.535c0,0.1-0.081,0.182-0.182,0.182h-1.723c-0.101,0-0.182-0.082-0.182-0.182
			c0-0.101,0.081-0.183,0.182-0.183h1.723C12.646,8.353,12.727,8.435,12.727,8.535"/>
	</g>
	<g>
		<g>
			<path fill="#786E57" d="M13.722,12.502c0.067,0.153-0.003,0.332-0.156,0.398l-8.562,3.736c-0.153,0.067-0.331-0.003-0.398-0.156
				l-1.679-3.848c-0.067-0.152,0.003-0.331,0.156-0.397l8.562-3.737c0.153-0.066,0.331,0.003,0.398,0.156L13.722,12.502z"/>
		</g>
		<g>
			<path fill="#EDDAAB" d="M13.631,12.457c0.067,0.152-0.003,0.331-0.156,0.397l-8.562,3.737c-0.153,0.066-0.331-0.004-0.398-0.156
				l-1.679-3.848c-0.067-0.153,0.003-0.332,0.156-0.398l8.562-3.737c0.153-0.066,0.331,0.004,0.398,0.156L13.631,12.457z"/>
		</g>
		<g>
			<path fill="#786E57" d="M7.104,12.15c-0.252-0.212-0.603,0.149-0.685,0.248c0,0-0.021,0.026-0.059,0.074
				c-0.469-0.084-1.445-0.237-1.695-0.107c-0.049,0.025-0.177,0.165-0.13,0.181c0.372,0.127,1.052,0.351,1.409,0.469
				c-0.364,0.478-0.832,1.107-1.01,1.407c-0.216-0.034-0.517-0.071-0.605-0.024c-0.021,0.011-0.076,0.07-0.056,0.077
				c0.149,0.051,0.414,0.139,0.574,0.19c-0.008,0.048-0.006,0.104,0.038,0.126c0.04,0.02,0.091,0.017,0.131,0.009
				c0.079,0.146,0.218,0.402,0.297,0.545c0.011,0.02,0.06-0.046,0.067-0.068c0.029-0.096-0.061-0.388-0.133-0.595
				c0.27-0.229,0.821-0.804,1.233-1.242c0.171,0.316,0.534,0.989,0.733,1.349c0.024,0.043,0.139-0.106,0.155-0.159
				c0.086-0.278-0.261-1.267-0.421-1.692c0.031-0.034,0.049-0.054,0.049-0.054C7.081,12.784,7.356,12.361,7.104,12.15z"/>
		</g>
		<g>
			<path fill="#D8BF8A" d="M9.662,10.437c0.047,0.108-0.003,0.234-0.111,0.282l-1.108,0.483C8.334,11.25,8.207,11.2,8.16,11.092l0,0
				c-0.048-0.109,0.002-0.235,0.11-0.283l1.109-0.483C9.488,10.278,9.614,10.327,9.662,10.437L9.662,10.437z"/>
		</g>
		<g>
			<path fill="#D8BF8A" d="M11.521,9.624c0.048,0.109-0.002,0.235-0.11,0.283l-1.108,0.483c-0.108,0.048-0.235-0.002-0.282-0.11l0,0
				c-0.048-0.108,0.002-0.235,0.11-0.283l1.108-0.483C11.347,9.467,11.474,9.516,11.521,9.624L11.521,9.624z"/>
		</g>
		<g>
			<path fill="#D8BF8A" d="M10.736,12.897c0.047,0.108-0.003,0.234-0.111,0.282l-1.108,0.483c-0.108,0.048-0.234-0.002-0.282-0.11
				l0,0c-0.048-0.109,0.002-0.235,0.11-0.283l1.108-0.483C10.562,12.739,10.688,12.788,10.736,12.897L10.736,12.897z"/>
		</g>
		<g>
			<path fill="#D8BF8A" d="M12.595,12.086c0.048,0.108-0.002,0.234-0.11,0.282l-1.108,0.483c-0.108,0.048-0.235-0.002-0.282-0.11
				l0,0c-0.048-0.108,0.002-0.235,0.11-0.282l1.108-0.484C12.421,11.928,12.548,11.978,12.595,12.086L12.595,12.086z"/>
		</g>
		<g>
			<g>
				<path fill="#D8BF8A" d="M8.819,12.017l2.949-1.287c0.108-0.048,0.158-0.174,0.111-0.282c-0.048-0.108-0.174-0.158-0.282-0.111
					l-2.95,1.287c-0.108,0.048-0.158,0.174-0.11,0.283C8.584,12.015,8.711,12.064,8.819,12.017z"/>
			</g>
			<g>
				<path fill="#D8BF8A" d="M11.946,11.135l-2.95,1.287c-0.108,0.048-0.158,0.174-0.11,0.282c0.047,0.109,0.174,0.158,0.282,0.111
					l2.949-1.287c0.109-0.048,0.158-0.175,0.111-0.283C12.181,11.137,12.055,11.087,11.946,11.135z"/>
			</g>
		</g>
	</g>
	<g>
		<g>
			<path fill="#258B90" d="M15.9,8.526l-0.039-0.09c0.297-0.131,0.457-0.327,0.457-0.451c0-0.136-0.19-0.248-0.264-0.281l0.039-0.09
				c0.013,0.006,0.323,0.144,0.323,0.37C16.417,8.156,16.246,8.375,15.9,8.526z"/>
		</g>
		<g>
			<path fill="#31A3A8" d="M15.587,7.551c0,0-0.789,1.269-0.677,1.583l0.83,2.325c0.112,0.314,0.349,0.41,0.663,0.298l1.233-0.44
				c0.314-0.112,0.417-0.329,0.305-0.644l-0.83-2.325C16.999,8.033,15.587,7.551,15.587,7.551z M16.019,8.631
				c-0.123,0.044-0.257-0.02-0.301-0.142c-0.044-0.123,0.02-0.257,0.143-0.301c0.122-0.044,0.257,0.021,0.3,0.143
				C16.204,8.453,16.141,8.588,16.019,8.631z"/>
		</g>
		<g>
			<path fill="#4EA5AE" d="M15.557,7.601c0,0-0.761,1.231-0.651,1.538l0.81,2.269c0.11,0.308,0.322,0.408,0.629,0.298l1.204-0.43
				c0.307-0.109,0.407-0.321,0.298-0.629l-0.811-2.269C16.926,8.071,15.557,7.601,15.557,7.601z M15.968,8.654
				c-0.119,0.043-0.25-0.02-0.293-0.139s0.02-0.251,0.139-0.293c0.12-0.043,0.251,0.02,0.294,0.139
				C16.149,8.48,16.087,8.612,15.968,8.654z"/>
		</g>
		<g>
			<path fill="#258B90" d="M15.9,8.526c-0.005,0.002-0.011,0.003-0.017,0.003c-0.027,0-0.049-0.022-0.049-0.05
				c0-0.036,0.008-0.91,0.649-1.415c0.444-0.351,1.08-0.43,1.889-0.234c0.026,0.006,0.043,0.032,0.036,0.059
				c-0.006,0.027-0.032,0.043-0.06,0.036c-0.777-0.187-1.385-0.113-1.805,0.217c-0.604,0.476-0.611,1.33-0.611,1.338
				C15.934,8.501,15.92,8.52,15.9,8.526z"/>
		</g>
		<path fill="#FFFFFF" d="M15.441,9.471c-0.058-0.162,0.017-0.336,0.167-0.39l0.893-0.318c0.15-0.054,0.318,0.034,0.376,0.195
			l0.583,1.634c0.059,0.162-0.017,0.336-0.166,0.39L16.4,11.301c-0.149,0.054-0.317-0.034-0.376-0.196L15.441,9.471z"/>
		<path fill="#94D6E2" d="M15.656,9.262c-0.048,0.018-0.072,0.069-0.056,0.117l0.6,1.681c0.018,0.047,0.069,0.072,0.117,0.055
			c0.048-0.017,0.072-0.069,0.056-0.116l-0.601-1.681C15.756,9.27,15.703,9.245,15.656,9.262z"/>
		<path fill="#94D6E2" d="M16.026,9.13c-0.048,0.017-0.072,0.069-0.056,0.116l0.601,1.681c0.017,0.048,0.069,0.072,0.116,0.056
			c0.048-0.018,0.073-0.069,0.056-0.117l-0.6-1.681C16.126,9.138,16.074,9.112,16.026,9.13z"/>
		<path fill="#94D6E2" d="M16.396,8.997c-0.047,0.018-0.071,0.069-0.055,0.117l0.6,1.681c0.018,0.047,0.069,0.072,0.117,0.055
			c0.047-0.017,0.072-0.069,0.055-0.116l-0.6-1.681C16.497,9.005,16.444,8.98,16.396,8.997z"/>
	</g>
</g>
</svg>
