<?xml version="1.0" encoding="utf-8"?>
<!-- Generator: Adobe Illustrator 16.0.0, SVG Export Plug-In . SVG Version: 6.00 Build 0)  -->
<!DOCTYPE svg PUBLIC "-//W3C//DTD SVG 1.1//EN" "http://www.w3.org/Graphics/SVG/1.1/DTD/svg11.dtd">
<svg version="1.1" id="Layer_1" xmlns="http://www.w3.org/2000/svg" xmlns:xlink="http://www.w3.org/1999/xlink" x="0px" y="0px"
	 width="20px" height="20px" viewBox="0 0 20 20" enable-background="new 0 0 20 20" xml:space="preserve">
<g>
	<path fill="#F3EA83" d="M19.69,10c0,5.352-4.339,9.69-9.69,9.69S0.31,15.352,0.31,10c0-5.351,4.339-9.69,9.69-9.69
		S19.69,4.648,19.69,10z"/>
	<path fill="#626463" d="M7.859,17.972c0,0.191-0.156,0.348-0.348,0.348l0,0c-0.192,0-0.349-0.156-0.349-0.348v-0.858
		c0-0.191,0.156-0.348,0.349-0.348l0,0c0.191,0,0.348,0.154,0.348,0.348V17.972z"/>
	<path fill="#626463" d="M12.191,17.972c0,0.191-0.156,0.348-0.348,0.348l0,0c-0.19,0-0.347-0.156-0.347-0.348v-0.858
		c0-0.191,0.156-0.348,0.347-0.348l0,0c0.191,0,0.348,0.154,0.348,0.348V17.972z"/>
	<path fill="#626463" d="M13.913,10.224v0.308c0.203,0.087,0.346,0.287,0.346,0.521v0.801c0,0.233-0.143,0.434-0.346,0.521v0.307
		c0.399,0,0.722-0.323,0.722-0.72v-1.017C14.635,10.546,14.312,10.224,13.913,10.224z"/>
	<path fill="#626463" d="M8.518,2.591c0-0.274,0.222-0.496,0.497-0.496h1.262c0.273,0,0.497,0.222,0.497,0.496v2.938h0.325V2.321
		c0-0.353-0.286-0.64-0.641-0.64H8.833c-0.354,0-0.64,0.286-0.64,0.64v3.208h0.325L8.518,2.591L8.518,2.591z"/>
	<path fill="#626463" d="M11.252,2.005c0,0.178-0.113,0.322-0.255,0.322H8.28c-0.142,0-0.256-0.145-0.256-0.322l0,0
		c0-0.179,0.114-0.323,0.256-0.323h2.717C11.139,1.682,11.252,1.826,11.252,2.005L11.252,2.005z"/>
	<path fill="#67B8CB" d="M13.991,16.892c0,0.514-0.417,0.93-0.931,0.93H6.294c-0.513,0-0.93-0.416-0.93-0.93V6.446
		c0-0.513,0.416-0.931,0.93-0.931h6.767c0.513,0,0.931,0.416,0.931,0.931V16.892z"/>
	<path fill="#40ABB6" d="M13.148,16.092c0,0.412-0.336,0.747-0.748,0.747H6.956c-0.412,0-0.748-0.335-0.748-0.747v-4.494
		c0-0.413,0.336-0.749,0.748-0.749H12.4c0.414,0,0.748,0.336,0.748,0.749V16.092z"/>
	<path fill="#58B4C3" d="M13.148,16.544c0,0.413-0.336,0.748-0.748,0.748H6.956c-0.412,0-0.748-0.335-0.748-0.748l0.113-4.494
		c0-0.413,0.335-0.748,0.748-0.748h5.193c0.413,0,0.747,0.335,0.747,0.748L13.148,16.544L13.148,16.544z"/>
	<path fill="#40ABB6" d="M11.949,12.098h-4.57c-0.057,0-0.104,0.102-0.104,0.227c0,0.124,0.046,0.227,0.104,0.227h4.57
		c0.058,0,0.104-0.103,0.104-0.227C12.054,12.199,12.008,12.098,11.949,12.098z"/>
	<path fill="#28868C" d="M11.949,12.272h-4.57c-0.057,0-0.104,0.022-0.104,0.052c0,0.028,0.046,0.051,0.104,0.051h4.57
		c0.058,0,0.104-0.022,0.104-0.051C12.054,12.295,12.008,12.272,11.949,12.272z"/>
	<path fill="#258B90" d="M12.023,12.461c0-0.002,0-0.002,0-0.004c0-0.072-0.039-0.131-0.086-0.131c-0.05,0-0.086,0.059-0.086,0.131
		c0,0.002,0,0.002,0,0.004c-0.016,0.019-0.025,0.041-0.025,0.067c0,0.062,0.049,0.11,0.109,0.11s0.11-0.049,0.11-0.11
		c0-0.026-0.011-0.049-0.024-0.067H12.023z"/>
	<path fill="#40ABB6" d="M13.148,9.248c0,0.412-0.336,0.748-0.748,0.748H6.956c-0.412,0-0.748-0.336-0.748-0.748V7.155
		c0-0.413,0.336-0.748,0.748-0.748H12.4c0.414,0,0.748,0.335,0.748,0.748V9.248z"/>
	<path fill="#58B4C3" d="M13.148,9.248c0,0.412-0.336,0.748-0.748,0.748H6.956c-0.412,0-0.748-0.336-0.748-0.748L6.321,7.53
		c0-0.413,0.335-0.748,0.748-0.748h5.193c0.413,0,0.747,0.335,0.747,0.748L13.148,9.248L13.148,9.248z"/>
	<path fill="#40ABB6" d="M11.949,7.159h-4.57c-0.057,0-0.104,0.101-0.104,0.227s0.046,0.227,0.104,0.227h4.57
		c0.058,0,0.104-0.102,0.104-0.227S12.008,7.159,11.949,7.159z"/>
	<path fill="#28868C" d="M11.949,7.333h-4.57c-0.057,0-0.104,0.023-0.104,0.052c0,0.027,0.046,0.051,0.104,0.051h4.57
		c0.058,0,0.104-0.023,0.104-0.051C12.054,7.356,12.008,7.333,11.949,7.333z"/>
	<path fill="#258B90" d="M12.023,7.521c0-0.001,0-0.002,0-0.003c0-0.072-0.039-0.131-0.086-0.131c-0.05,0-0.086,0.059-0.086,0.131
		c0,0.001,0,0.002,0,0.003c-0.016,0.019-0.025,0.042-0.025,0.068c0,0.061,0.049,0.11,0.109,0.11s0.11-0.05,0.11-0.11
		c0-0.026-0.011-0.05-0.024-0.068H12.023z"/>
	<path fill="#258B90" d="M6.331,6.696L6.303,6.63C6.521,6.533,6.64,6.389,6.64,6.296c0-0.099-0.14-0.182-0.194-0.206l0.029-0.065
		C6.483,6.028,6.712,6.13,6.712,6.296C6.712,6.423,6.587,6.585,6.331,6.696L6.331,6.696z"/>
	<path fill="#31A3A8" d="M6.101,5.979c0,0-0.581,0.935-0.499,1.166l0.611,1.714c0.083,0.231,0.257,0.303,0.49,0.22l0.909-0.324
		c0.23-0.083,0.308-0.243,0.225-0.475L7.226,6.565C7.143,6.334,6.102,5.979,6.101,5.979L6.101,5.979z M6.418,6.773
		C6.328,6.807,6.229,6.76,6.196,6.669C6.163,6.579,6.21,6.479,6.3,6.447c0.091-0.032,0.19,0.015,0.222,0.104
		S6.507,6.741,6.418,6.773L6.418,6.773z"/>
	<path fill="#4EA5AE" d="M6.077,6.015c0,0-0.562,0.907-0.479,1.133l0.598,1.672c0.08,0.227,0.236,0.301,0.463,0.22l0.887-0.317
		c0.227-0.08,0.301-0.236,0.219-0.463L7.167,6.588C7.086,6.361,6.077,6.015,6.077,6.015z M6.381,6.791
		C6.293,6.822,6.197,6.776,6.165,6.688C6.134,6.6,6.18,6.504,6.269,6.472c0.088-0.03,0.184,0.016,0.215,0.104
		S6.469,6.76,6.381,6.791z"/>
	<path fill="#258B90" d="M6.331,6.696C6.328,6.697,6.324,6.698,6.319,6.698c-0.021,0-0.036-0.016-0.036-0.036
		c0-0.027,0.006-0.672,0.479-1.044C7.09,5.359,7.558,5.303,8.153,5.445C8.173,5.45,8.185,5.47,8.181,5.489
		C8.176,5.51,8.156,5.521,8.137,5.516c-0.573-0.138-1.021-0.083-1.33,0.16c-0.445,0.35-0.45,0.979-0.45,0.985
		C6.356,6.677,6.346,6.69,6.331,6.696L6.331,6.696z"/>
	<path fill="#FFFFFF" d="M5.992,7.393C5.95,7.273,6.005,7.145,6.115,7.105L6.772,6.87c0.11-0.039,0.235,0.025,0.277,0.145
		l0.429,1.204c0.043,0.12-0.013,0.249-0.122,0.288L6.698,8.74C6.589,8.78,6.464,8.716,6.421,8.597L5.992,7.393L5.992,7.393z"/>
	<path fill="#94D6E2" d="M6.151,7.239C6.116,7.252,6.098,7.29,6.11,7.324l0.441,1.238c0.013,0.035,0.052,0.054,0.086,0.041
		c0.035-0.013,0.054-0.051,0.041-0.086L6.237,7.278C6.224,7.244,6.186,7.226,6.151,7.237V7.239z"/>
	<path fill="#94D6E2" d="M6.424,7.142C6.39,7.154,6.371,7.192,6.383,7.228l0.442,1.238C6.838,8.5,6.877,8.519,6.911,8.507
		c0.034-0.013,0.054-0.051,0.041-0.086L6.51,7.183C6.498,7.147,6.459,7.129,6.424,7.142z"/>
	<path fill="#94D6E2" d="M6.696,7.044C6.662,7.057,6.643,7.096,6.655,7.13l0.442,1.238C7.11,8.402,7.148,8.422,7.184,8.409
		c0.034-0.013,0.053-0.052,0.041-0.086L6.782,7.085C6.77,7.051,6.73,7.031,6.696,7.044z"/>
</g>
</svg>
