<?xml version="1.0" encoding="utf-8"?>
<!-- Generator: Adobe Illustrator 16.0.0, SVG Export Plug-In . SVG Version: 6.00 Build 0)  -->
<!DOCTYPE svg PUBLIC "-//W3C//DTD SVG 1.1//EN" "http://www.w3.org/Graphics/SVG/1.1/DTD/svg11.dtd">
<svg version="1.1" id="Layer_1" xmlns="http://www.w3.org/2000/svg" xmlns:xlink="http://www.w3.org/1999/xlink" x="0px" y="0px"
	 width="20px" height="20px" viewBox="0 0 20 20" enable-background="new 0 0 20 20" xml:space="preserve">
<g>
	<path fill="#4ABC96" d="M19.69,10c0,5.352-4.339,9.69-9.69,9.69S0.31,15.352,0.31,10c0-5.351,4.339-9.69,9.69-9.69
		S19.69,4.648,19.69,10z"/>
	<path fill="#AF1F24" d="M17.586,13.103c0,0.609-0.588,1.104-1.312,1.104H5.334c-0.725,0-1.312-0.495-1.312-1.104l0.984-5.146
		c0-0.542,0.49-0.982,1.094-0.982h9.116c0.604,0,0.942,0.403,1.093,0.982L17.586,13.103z"/>
	<path fill="#D71F2E" d="M17.474,13.07c0.029,0.925-2.298,2.271-3.012,2.271l-9.036-1.195c-0.713,0-1.291-0.481-1.291-1.075
		L3.729,8.903c0-0.528,1.855-1.809,2.449-1.809h8.965c0.594,0,0.926,0.44,1.076,0.957L17.474,13.07L17.474,13.07z"/>
	<path fill="#AF1F24" d="M15.752,14.266c0,0.595-0.579,1.075-1.292,1.075H3.703c-0.712,0-1.292-0.48-1.292-1.075l1.256-5.149
		c0-0.529,0.481-0.959,1.075-0.959h8.965c0.593,0,1.075,0.429,1.075,0.959L15.752,14.266L15.752,14.266z"/>
	<path fill="#E61D36" d="M15.566,14.189c0,0.572-0.562,1.037-1.254,1.037H3.854c-0.692,0-1.254-0.465-1.254-1.037l1.232-4.969
		c0-0.51,0.468-0.924,1.046-0.924h8.716c0.577,0,1.046,0.414,1.046,0.924L15.566,14.189z"/>
	<path fill="#D71F2E" d="M12.9,13.608c0,0.4-0.623,0.752-1.105,0.752H5.021c-0.482,0-0.874-0.324-0.874-0.724l0.859-3.469
		c0.126-0.28,0.8-0.645,1.201-0.645h5.6c0.402,0,0.729,0.289,0.729,0.645L12.9,13.608z"/>
	<path fill="#E61D36" d="M12.347,13.596c0,0.354-0.346,0.643-0.772,0.643H5.142c-0.426,0-0.771-0.288-0.771-0.643l0.759-3.082
		c0-0.317,0.288-0.574,0.643-0.574h5.359c0.355,0,0.643,0.257,0.643,0.574L12.347,13.596L12.347,13.596z"/>
	<path fill="#AF1F24" d="M12.418,7.027l0.843,0.007c-3.002-5.319-5.469-0.049-5.469-0.049l0.821,0.008
		C9.15,6.117,10.646,4.264,12.418,7.027z"/>
	<path fill="#AF1F24" d="M11.463,8.213l0.842,0.007C9.302,2.901,6.836,8.171,6.836,8.171l0.821,0.007
		C8.194,7.303,9.689,5.449,11.463,8.213z"/>
	<path fill="#D98727" d="M13.944,7.916l0.026-0.062c-0.203-0.089-0.312-0.224-0.312-0.309c0-0.093,0.13-0.17,0.181-0.191
		l-0.028-0.062c-0.009,0.005-0.221,0.099-0.221,0.254C13.59,7.663,13.707,7.813,13.944,7.916z"/>
	<path fill="#BFC131" d="M13.115,7.795l-0.566,1.59c-0.078,0.215-0.007,0.363,0.208,0.44l0.844,0.302
		c0.215,0.076,0.376,0.01,0.453-0.205l0.567-1.588c0.075-0.215-0.462-1.084-0.462-1.084S13.192,7.58,13.115,7.795L13.115,7.795z
		 M13.766,7.783c0.03-0.083,0.122-0.126,0.206-0.097s0.127,0.121,0.097,0.205s-0.12,0.127-0.204,0.098
		C13.78,7.959,13.735,7.867,13.766,7.783z"/>
	<path fill="#D5DA24" d="M13.169,7.815l-0.555,1.551c-0.075,0.211-0.006,0.354,0.202,0.43l0.825,0.294
		c0.208,0.075,0.354,0.006,0.428-0.203l0.555-1.551c0.075-0.21-0.445-1.052-0.445-1.052S13.242,7.605,13.169,7.815z M13.802,7.805
		c0.029-0.082,0.12-0.125,0.201-0.096c0.082,0.029,0.125,0.119,0.096,0.201c-0.03,0.082-0.12,0.124-0.202,0.096
		C13.815,7.978,13.774,7.886,13.802,7.805z"/>
	<path fill="#D98727" d="M13.944,7.916c0.002,0.002,0.006,0.003,0.01,0.003c0.02,0,0.035-0.015,0.035-0.034
		c0-0.024-0.007-0.623-0.445-0.967c-0.305-0.239-0.739-0.294-1.292-0.161c-0.018,0.005-0.028,0.022-0.024,0.041
		s0.022,0.029,0.041,0.025c0.532-0.128,0.947-0.077,1.235,0.147c0.412,0.325,0.419,0.909,0.419,0.915
		c0,0.016,0.008,0.027,0.021,0.032V7.916z"/>
	<path fill="#FFFFFF" d="M14.257,8.562c0.041-0.11-0.01-0.229-0.113-0.266l-0.61-0.218c-0.103-0.037-0.218,0.023-0.257,0.134
		L12.877,9.33c-0.04,0.111,0.012,0.23,0.113,0.267l0.612,0.218c0.102,0.036,0.217-0.023,0.256-0.135L14.257,8.562z"/>
	<path fill="#E4E433" d="M14.11,8.421c0.033,0.011,0.051,0.047,0.038,0.079l-0.411,1.149c-0.01,0.032-0.047,0.049-0.079,0.037
		s-0.05-0.047-0.037-0.079l0.411-1.149C14.042,8.426,14.079,8.409,14.11,8.421z"/>
	<path fill="#E4E433" d="M13.858,8.33c0.031,0.012,0.049,0.048,0.036,0.08l-0.41,1.148c-0.011,0.032-0.047,0.05-0.079,0.038
		s-0.05-0.048-0.038-0.08l0.411-1.148C13.789,8.336,13.825,8.318,13.858,8.33z"/>
	<path fill="#E4E433" d="M13.604,8.239c0.032,0.012,0.049,0.047,0.037,0.079l-0.41,1.149c-0.012,0.032-0.048,0.049-0.08,0.037
		c-0.032-0.011-0.049-0.047-0.038-0.079l0.41-1.149c0.012-0.031,0.047-0.049,0.079-0.037H13.604z"/>
</g>
</svg>
