<?xml version="1.0" encoding="utf-8"?>
<!-- Generator: Adobe Illustrator 16.0.0, SVG Export Plug-In . SVG Version: 6.00 Build 0)  -->
<!DOCTYPE svg PUBLIC "-//W3C//DTD SVG 1.1//EN" "http://www.w3.org/Graphics/SVG/1.1/DTD/svg11.dtd">
<svg version="1.1" id="Layer_1" xmlns="http://www.w3.org/2000/svg" xmlns:xlink="http://www.w3.org/1999/xlink" x="0px" y="0px"
	 width="20px" height="20px" viewBox="0 0 20 20" enable-background="new 0 0 20 20" xml:space="preserve">
<g>
	<path fill="#FFD113" d="M19.69,10c0,5.352-4.339,9.69-9.69,9.69S0.31,15.352,0.31,10c0-5.351,4.339-9.69,9.69-9.69
		S19.69,4.648,19.69,10z"/>
	<path fill="#E1F0E6" d="M8.545,3.81c0,0-0.894,0.354-0.493,3.292L7.299,7.643L5.229,7.101C5.229,7.101,6.053,4.491,8.545,3.81
		L8.545,3.81z"/>
	<path fill="#FCB315" d="M5.229,7.102l2.188,0.541L7.44,8.724c0,0-1.693,1.974-1.812,3.056C5.629,11.779,4.288,9.945,5.229,7.102
		L5.229,7.102z"/>
	<path fill="#E1F0E6" d="M7.518,8.575L8.569,8.96c0,0,0.775,4.186,2.232,5.125c0,0-3.832,0.54-5.173-2.305
		C5.629,11.78,5.965,10.221,7.518,8.575L7.518,8.575z"/>
	<path fill="#E84849" d="M8.474,8.936c0,0,0.848,4.114,2.328,5.149c0,0,3.293,0.634,4.726-4.021L9.133,8.253L8.474,8.936
		L8.474,8.936z"/>
	<path fill="#E1F0E6" d="M9.134,8.254l6.371,1.928c0,0,0.776-2.68-1.904-5.479c0,0-3.127-0.117-4.726,2.586L9.134,8.254L9.134,8.254
		z"/>
	<path fill="#357180" d="M8.052,7.102c0,0-0.518-2.562,0.399-3.245c0,0,2.75-0.799,5.219,0.941c0,0-2.209-0.354-4.796,2.492
		L8.052,7.102L8.052,7.102z"/>
	<path fill="#FFFFFF" d="M9.369,8.046c0,0.593-0.466,1.071-1.04,1.071s-1.04-0.479-1.04-1.071s0.466-1.07,1.04-1.07
		S9.369,7.455,9.369,8.046z"/>
	<path opacity="0.3" d="M13.821,16.828c0,0.725-1.524,1.312-3.406,1.312c-1.881,0-3.405-0.587-3.405-1.312
		c0-0.723,1.524-1.31,3.405-1.31C12.297,15.519,13.821,16.105,13.821,16.828z"/>
</g>
</svg>
