<?xml version="1.0" encoding="utf-8"?>
<!-- Generator: Adobe Illustrator 16.0.0, SVG Export Plug-In . SVG Version: 6.00 Build 0)  -->
<!DOCTYPE svg PUBLIC "-//W3C//DTD SVG 1.1//EN" "http://www.w3.org/Graphics/SVG/1.1/DTD/svg11.dtd">
<svg version="1.1" id="Layer_1" xmlns="http://www.w3.org/2000/svg" xmlns:xlink="http://www.w3.org/1999/xlink" x="0px" y="0px"
	 width="20px" height="20px" viewBox="0 0 20 20" enable-background="new 0 0 20 20" xml:space="preserve">
<g>
	<path fill="#49A0AE" d="M19.69,10c0,5.352-4.339,9.69-9.69,9.69S0.31,15.352,0.31,10c0-5.351,4.339-9.69,9.69-9.69
		S19.69,4.648,19.69,10z"/>
	<path fill="#D3E4E8" d="M15.889,5.735v-0.38L14.631,4.1h-0.388c-0.108,0.245-0.354,0.418-0.641,0.418
		c-0.288,0-0.534-0.171-0.643-0.418h-0.252c-0.108,0.245-0.354,0.418-0.64,0.418c-0.287,0-0.534-0.171-0.643-0.418H11.16
		c-0.108,0.245-0.354,0.418-0.641,0.418S9.986,4.347,9.877,4.1H9.621C9.512,4.345,9.266,4.518,8.979,4.518S8.445,4.347,8.337,4.1
		H8.112C8.003,4.345,7.757,4.518,7.472,4.518c-0.286,0-0.533-0.171-0.641-0.418H6.565C6.457,4.345,6.21,4.518,5.924,4.518
		c-0.287,0-0.533-0.171-0.643-0.418H4.903L3.646,5.355v0.388c0.246,0.109,0.419,0.355,0.419,0.642c0,0.288-0.172,0.534-0.419,0.642
		v0.251C3.893,7.387,4.065,7.633,4.065,7.92S3.893,8.453,3.646,8.562v0.265c0.246,0.109,0.419,0.355,0.419,0.643
		s-0.173,0.533-0.419,0.641v0.257c0.246,0.109,0.419,0.355,0.419,0.643c0,0.286-0.173,0.533-0.419,0.642v0.225
		c0.246,0.109,0.419,0.354,0.419,0.641c0,0.288-0.173,0.534-0.419,0.643v0.264c0.246,0.109,0.419,0.356,0.419,0.643
		s-0.173,0.534-0.419,0.642v0.379l1.257,1.257h0.388c0.108-0.246,0.354-0.42,0.641-0.42s0.533,0.172,0.643,0.42h0.251
		c0.109-0.246,0.355-0.42,0.643-0.42c0.286,0,0.532,0.172,0.641,0.42h0.265c0.108-0.246,0.355-0.42,0.643-0.42
		c0.286,0,0.532,0.172,0.641,0.42h0.257c0.108-0.246,0.354-0.42,0.642-0.42c0.288,0,0.533,0.172,0.642,0.42h0.226
		c0.108-0.246,0.354-0.42,0.643-0.42c0.286,0,0.531,0.172,0.64,0.42h0.265c0.11-0.246,0.355-0.42,0.643-0.42s0.533,0.172,0.642,0.42
		h0.378l1.258-1.257v-0.389c-0.247-0.108-0.419-0.354-0.419-0.64s0.172-0.533,0.419-0.643v-0.252
		c-0.247-0.108-0.419-0.354-0.419-0.64s0.172-0.534,0.419-0.643v-0.265c-0.247-0.109-0.419-0.355-0.419-0.642
		c0-0.288,0.172-0.534,0.419-0.643v-0.256C15.642,9.966,15.47,9.72,15.47,9.434c0-0.287,0.172-0.533,0.419-0.643V8.566
		c-0.247-0.108-0.419-0.354-0.419-0.642s0.172-0.533,0.419-0.641V7.019C15.642,6.91,15.47,6.664,15.47,6.377
		S15.642,5.844,15.889,5.735L15.889,5.735z"/>
	<path fill="#357180" d="M5.416,5.608h8.706v8.967H5.416V5.608z"/>
	<path fill="#E84849" d="M12.295,17.509c0,0.665-0.49,1.205-1.099,1.205H8.199c-0.606,0-1.099-0.54-1.099-1.205
		c0,0,0.252-2.614,0.458-3.269c0.206-0.653,0.492-1.207,1.099-1.207h2.174c0.607,0,0.938,0.403,1.099,1.207
		C12.091,15.045,12.295,17.509,12.295,17.509z"/>
	<path fill="#FFFFFF" d="M11.48,17.487c0,0.658-0.338,1.191-0.754,1.191H8.67c-0.416,0-0.755-0.533-0.755-1.191
		c0,0,0.173-2.58,0.314-3.227c0.142-0.645,0.337-1.19,0.754-1.19h1.492c0.416,0,0.644,0.397,0.753,1.19
		C11.338,15.057,11.48,17.487,11.48,17.487z"/>
	<path fill="#626463" d="M11.055,17.436c0,0.652-0.257,1.183-0.574,1.183H8.915c-0.316,0-0.574-0.53-0.574-1.183
		c0,0,0.131-2.562,0.239-3.203c0.107-0.641,0.256-1.183,0.573-1.183h1.136c0.317,0,0.49,0.395,0.574,1.183
		C10.947,15.02,11.055,17.436,11.055,17.436z"/>
	<path fill="#D7C9CA" d="M10.849,17.436c0,0.652-0.217,1.183-0.486,1.183H9.033c-0.27,0-0.487-0.53-0.487-1.183
		c0,0,0.112-2.562,0.203-3.203c0.092-0.641,0.218-1.183,0.487-1.183H10.2c0.269,0,0.416,0.395,0.487,1.183
		C10.759,15.02,10.849,17.436,10.849,17.436z"/>
	<path fill="#E9C29C" d="M11.602,10.937c0,1.016-0.821,1.837-1.837,1.837c-1.015,0-1.837-0.821-1.837-1.837
		c0-1.015,0.822-1.836,1.837-1.836C10.78,9.101,11.602,9.922,11.602,10.937z"/>
	<path fill="#A46434" d="M11.602,10.937L10.35,9.81c0,0-0.267,0.442-0.979,0.765c-0.686,0.31-1.443,0.362-1.443,0.362
		c0-1.015,0.822-1.836,1.837-1.836c1.016,0,1.839,0.821,1.839,1.836H11.602z"/>
	<path fill="#343433" d="M9.466,11.211c0,0.146-0.113,0.266-0.252,0.266c-0.138,0-0.251-0.119-0.251-0.266
		c0-0.147,0.113-0.266,0.251-0.266C9.353,10.945,9.466,11.063,9.466,11.211z"/>
	<path fill="#343433" d="M10.558,11.211c0,0.146-0.114,0.266-0.252,0.266s-0.252-0.119-0.252-0.266c0-0.147,0.114-0.266,0.252-0.266
		S10.558,11.063,10.558,11.211z"/>
	<path fill="#FFFFFF" d="M10.483,11.108c0,0.06-0.045,0.107-0.1,0.107c-0.057,0-0.102-0.048-0.102-0.107
		c0-0.058,0.045-0.106,0.102-0.106C10.438,11.002,10.483,11.051,10.483,11.108z"/>
	<path fill="#FFFFFF" d="M9.391,11.108c0,0.06-0.046,0.107-0.102,0.107c-0.055,0-0.1-0.048-0.1-0.107c0-0.058,0.045-0.106,0.1-0.106
		C9.345,11.002,9.391,11.051,9.391,11.108z"/>
	<path fill="#DEBA24" d="M11.74,10.067c0,0.22-0.178,0.396-0.396,0.396c0,0-0.545-0.141-1.573-0.141s-1.559,0.141-1.559,0.141
		c-0.218,0-0.395-0.178-0.395-0.396L7.758,8.785c0-0.22,0.178-0.396,0.396-0.396h3.324c0.219,0,0.396,0.177,0.396,0.396
		L11.74,10.067z"/>
	<path fill="#DEBA24" d="M9.057,9.7c0.096,0.175,0.032,0.395-0.145,0.491l0,0c-0.175,0.097-0.395,0.032-0.49-0.144L7.185,7.737
		C7.088,7.562,7.152,7.343,7.328,7.246l0,0c0.175-0.097,0.395-0.032,0.491,0.143L9.057,9.7z"/>
	<path fill="#DEBA24" d="M10.575,9.7c-0.097,0.175-0.033,0.395,0.143,0.491l0,0c0.176,0.097,0.397,0.032,0.491-0.144l1.237-2.311
		c0.097-0.176,0.033-0.395-0.143-0.491l0,0c-0.175-0.097-0.396-0.032-0.493,0.143L10.575,9.7L10.575,9.7z"/>
	<path fill="#DEBA24" d="M10.22,9.698c0.001,0.2-0.16,0.362-0.36,0.363l0,0c-0.2,0.001-0.362-0.16-0.363-0.36l0.015-2.62
		c-0.001-0.2,0.16-0.362,0.36-0.363l0,0c0.2-0.001,0.363,0.16,0.364,0.359L10.22,9.698L10.22,9.698z"/>
	<path fill="#DEBA24" d="M7.653,7.237c0,0,1.108,0.687,1.942-0.389L9.535,8.433L8.372,8.564L7.653,7.237z"/>
	<path fill="#DEBA24" d="M11.999,7.227c0,0-0.988,0.74-1.822-0.335L10.133,8.46l1.162,0.131l0.702-1.365L11.999,7.227z"/>
	<path fill="#DEBA24" d="M7.714,7.205c0,0.276-0.223,0.5-0.499,0.5s-0.499-0.223-0.499-0.5c0-0.275,0.223-0.499,0.499-0.499
		S7.714,6.929,7.714,7.205z"/>
	<path fill="#DEBA24" d="M10.353,6.65c0,0.275-0.223,0.499-0.498,0.499s-0.5-0.224-0.5-0.499s0.224-0.499,0.5-0.499
		S10.353,6.375,10.353,6.65z"/>
	<path fill="#DEBA24" d="M12.902,7.193c0,0.276-0.223,0.5-0.499,0.5s-0.499-0.223-0.499-0.5c0-0.274,0.223-0.499,0.499-0.499
		S12.902,6.918,12.902,7.193z"/>
	<path d="M10.003,9.412c0,0.041-0.054,0.074-0.119,0.074l0,0c-0.067,0-0.121-0.033-0.121-0.074V8.006
		c0-0.041,0.054-0.075,0.121-0.075l0,0c0.065,0,0.119,0.034,0.119,0.075V9.412z"/>
	<path d="M10.763,9.591c-0.021,0.035-0.086,0.033-0.143-0.005l0,0c-0.057-0.038-0.085-0.095-0.062-0.13l0.622-0.948
		c0.022-0.035,0.086-0.033,0.143,0.005l0,0c0.058,0.037,0.086,0.094,0.063,0.129l-0.622,0.949H10.763z"/>
	<path d="M8.912,9.591c0.022,0.035,0.086,0.033,0.145-0.005l0,0c0.056-0.038,0.085-0.095,0.062-0.13L8.496,8.508
		C8.474,8.473,8.409,8.475,8.352,8.513l0,0C8.296,8.55,8.268,8.606,8.291,8.642L8.912,9.591z"/>
	<path d="M6.812,7.32C6.725,7.232,6.821,6.989,6.909,6.902s0.3-0.171,0.388-0.083S6.899,7.408,6.812,7.32z"/>
	<path d="M9.449,6.75C9.361,6.662,9.457,6.419,9.545,6.332s0.3-0.172,0.388-0.084S9.537,6.837,9.449,6.75z"/>
	<path d="M12.004,7.279c-0.088-0.088,0.008-0.33,0.096-0.418c0.088-0.087,0.3-0.17,0.388-0.083
		C12.575,6.866,12.092,7.367,12.004,7.279z"/>
	<path fill="#B8972F" d="M11.74,10.067c0,0.22-0.178,0.396-0.396,0.396c0,0-0.817-0.141-1.573-0.141s-1.559,0.141-1.559,0.141
		c-0.218,0-0.395-0.178-0.395-0.396c0,0,0.872-0.146,1.961-0.146C10.867,9.922,11.74,10.067,11.74,10.067z"/>
	<path fill="#FFFFFF" d="M12.887,11.914h-0.194v-0.735c0.073,0.008,0.143,0.032,0.208,0.071c0.066,0.041,0.154,0.118,0.264,0.236
		c0.089,0.094,0.147,0.152,0.179,0.174c0.043,0.029,0.086,0.043,0.129,0.043c0.047,0,0.084-0.013,0.108-0.038
		c0.024-0.024,0.037-0.06,0.037-0.104c0-0.044-0.013-0.078-0.039-0.104c-0.027-0.026-0.07-0.04-0.131-0.045l0.021-0.21
		c0.115,0.013,0.198,0.051,0.248,0.117s0.076,0.148,0.076,0.246c0,0.108-0.03,0.192-0.089,0.254
		c-0.058,0.062-0.131,0.093-0.217,0.093c-0.049,0-0.097-0.009-0.14-0.026c-0.045-0.018-0.092-0.046-0.142-0.083
		c-0.032-0.026-0.079-0.071-0.14-0.138s-0.101-0.107-0.122-0.126c-0.021-0.018-0.039-0.032-0.058-0.043L12.887,11.914L12.887,11.914
		z"/>
	<path fill="#FFFFFF" d="M12.974,12.059l0.021,0.21c-0.048,0.006-0.084,0.024-0.112,0.053c-0.027,0.03-0.041,0.063-0.041,0.103
		c0,0.043,0.018,0.08,0.053,0.11c0.036,0.031,0.09,0.046,0.161,0.046c0.068,0,0.117-0.015,0.151-0.045
		c0.035-0.029,0.052-0.068,0.052-0.117c0-0.061-0.026-0.113-0.08-0.162l0.024-0.17l0.569,0.107v0.555h-0.196v-0.396l-0.187-0.033
		c0.023,0.048,0.035,0.095,0.035,0.144c0,0.094-0.033,0.172-0.102,0.237s-0.156,0.097-0.264,0.097c-0.091,0-0.171-0.025-0.243-0.078
		c-0.096-0.071-0.144-0.17-0.144-0.297c0-0.101,0.027-0.182,0.082-0.246c0.054-0.064,0.126-0.102,0.218-0.115L12.974,12.059z"/>
	<path fill="#FFFFFF" d="M13.094,14.079l-0.068,0.215c-0.118-0.033-0.209-0.088-0.266-0.166c-0.058-0.075-0.087-0.174-0.087-0.29
		c0-0.146,0.05-0.266,0.148-0.358c0.099-0.094,0.236-0.141,0.407-0.141c0.183,0,0.324,0.047,0.425,0.142
		c0.101,0.094,0.15,0.218,0.15,0.37c0,0.134-0.04,0.244-0.117,0.327c-0.048,0.05-0.115,0.087-0.203,0.112l-0.053-0.22
		c0.057-0.012,0.103-0.038,0.135-0.079c0.033-0.041,0.049-0.093,0.049-0.15c0-0.082-0.029-0.146-0.088-0.197
		c-0.059-0.052-0.153-0.076-0.282-0.076c-0.139,0-0.238,0.024-0.297,0.074c-0.059,0.049-0.088,0.114-0.088,0.195
		c0,0.058,0.019,0.109,0.056,0.152s0.096,0.071,0.176,0.09H13.094z"/>
</g>
</svg>
