<?xml version="1.0" encoding="utf-8"?>
<!-- Generator: Adobe Illustrator 16.0.0, SVG Export Plug-In . SVG Version: 6.00 Build 0)  -->
<!DOCTYPE svg PUBLIC "-//W3C//DTD SVG 1.1//EN" "http://www.w3.org/Graphics/SVG/1.1/DTD/svg11.dtd">
<svg version="1.1" id="Layer_1" xmlns="http://www.w3.org/2000/svg" xmlns:xlink="http://www.w3.org/1999/xlink" x="0px" y="0px"
	 width="20px" height="20px" viewBox="0 0 20 20" enable-background="new 0 0 20 20" xml:space="preserve">
<g>
	<path fill="#F3EA83" d="M19.689,10c0,5.352-4.338,9.689-9.689,9.689S0.31,15.352,0.31,10S4.648,0.311,10,0.311
		S19.689,4.648,19.689,10z"/>
	<path fill="#786E57" d="M17.701,13.117c0,0.229-0.188,0.417-0.418,0.417H2.695c-0.229,0-0.417-0.187-0.417-0.417V7.332
		c0-0.23,0.188-0.417,0.417-0.417h14.588c0.23,0,0.418,0.186,0.418,0.417V13.117z"/>
	<path fill="#EDDAAB" d="M15.898,13.009c0,0.229-0.188,0.417-0.418,0.417H2.606c-0.229,0-0.417-0.186-0.417-0.417V7.224
		c0-0.231,0.188-0.417,0.417-0.417H15.48c0.23,0,0.418,0.186,0.418,0.417V13.009z"/>
	<path fill="#E3E1DC" d="M17.564,13.009c0,0.229-0.188,0.417-0.418,0.417h-1.777V6.807h1.777c0.23,0,0.418,0.186,0.418,0.417V13.009
		z"/>
	<path fill="#786E57" d="M7.822,9.023C7.619,8.616,6.978,8.88,6.819,8.959c0,0-0.041,0.022-0.114,0.062
		C6.16,8.657,5.01,7.925,4.623,7.951C4.547,7.957,4.31,8.062,4.359,8.108C4.758,8.474,5.493,9.131,5.88,9.476
		c-0.723,0.403-1.663,0.94-2.051,1.222c-0.254-0.162-0.614-0.374-0.751-0.365c-0.033,0.002-0.135,0.048-0.113,0.067
		c0.161,0.146,0.447,0.404,0.62,0.558c-0.035,0.056-0.063,0.128-0.021,0.179c0.04,0.048,0.105,0.072,0.161,0.084
		c0.019,0.229,0.053,0.628,0.074,0.853c0.003,0.03,0.101-0.025,0.122-0.05c0.09-0.105,0.137-0.523,0.16-0.824
		c0.466-0.141,1.48-0.562,2.243-0.889c0.042,0.492,0.129,1.543,0.183,2.107c0.007,0.067,0.234-0.059,0.284-0.117
		c0.263-0.304,0.368-1.742,0.403-2.369c0.058-0.026,0.09-0.041,0.09-0.041C7.443,9.812,8.024,9.431,7.822,9.023L7.822,9.023z"/>
	<path fill="#D8BF8A" d="M11.996,8.269c0,0.164-0.131,0.296-0.293,0.296h-1.667c-0.164,0-0.296-0.132-0.296-0.296l0,0
		c0-0.163,0.132-0.295,0.296-0.295h1.667C11.865,7.974,11.996,8.105,11.996,8.269L11.996,8.269z"/>
	<path fill="#D8BF8A" d="M14.793,8.269c0,0.164-0.133,0.296-0.295,0.296h-1.666c-0.164,0-0.297-0.132-0.297-0.296l0,0
		c0-0.163,0.133-0.295,0.297-0.295h1.666C14.66,7.974,14.793,8.105,14.793,8.269L14.793,8.269z"/>
	<path fill="#D8BF8A" d="M11.996,11.97c0,0.163-0.131,0.295-0.293,0.295h-1.667c-0.164,0-0.296-0.132-0.296-0.295l0,0
		c0-0.164,0.132-0.296,0.296-0.296h1.667C11.865,11.674,11.996,11.806,11.996,11.97L11.996,11.97z"/>
	<path fill="#D8BF8A" d="M14.793,11.97c0,0.163-0.133,0.295-0.295,0.295h-1.666c-0.164,0-0.297-0.132-0.297-0.295l0,0
		c0-0.164,0.133-0.296,0.297-0.296h1.666C14.66,11.674,14.793,11.806,14.793,11.97L14.793,11.97z"/>
	<path fill="#D8BF8A" d="M10.062,9.802h4.436c0.162,0,0.295-0.132,0.295-0.296c0-0.163-0.133-0.295-0.295-0.295h-4.436
		c-0.163,0-0.296,0.132-0.296,0.295C9.767,9.67,9.899,9.802,10.062,9.802z"/>
	<path fill="#D8BF8A" d="M14.498,10.41h-4.436c-0.163,0-0.296,0.132-0.296,0.295c0,0.164,0.133,0.296,0.296,0.296h4.436
		c0.162,0,0.295-0.132,0.295-0.296C14.793,10.542,14.66,10.41,14.498,10.41z"/>
	<path fill="#786E57" d="M17.566,8.135h-1.004c-0.129,0-0.232-0.104-0.232-0.233l0,0c0-0.129,0.104-0.232,0.232-0.232h1.004V8.135z"
		/>
	<path fill="#786E57" d="M17.566,9.021h-1.004c-0.129,0-0.232-0.104-0.232-0.233l0,0c0-0.129,0.104-0.233,0.232-0.233h1.004V9.021z"
		/>
	<path fill="#786E57" d="M17.566,9.963h-1.004c-0.129,0-0.232-0.104-0.232-0.232l0,0c0-0.13,0.104-0.233,0.232-0.233h1.004V9.963z"
		/>
	<path fill="#D9C390" d="M15.295,6.807h0.152v6.619h-0.152V6.807z"/>
	<path fill="#786E57" d="M17.146,11.244c0.125,0,0.227,0.104,0.227,0.23v1.288c0,0.126-0.102,0.229-0.227,0.229l0,0
		c-0.127,0-0.23-0.103-0.23-0.229v-1.288C16.916,11.349,17.02,11.244,17.146,11.244L17.146,11.244z"/>
</g>
</svg>
