<?xml version="1.0" encoding="utf-8"?>
<!-- Generator: Adobe Illustrator 16.0.0, SVG Export Plug-In . SVG Version: 6.00 Build 0)  -->
<!DOCTYPE svg PUBLIC "-//W3C//DTD SVG 1.1//EN" "http://www.w3.org/Graphics/SVG/1.1/DTD/svg11.dtd">
<svg version="1.1" id="Layer_1" xmlns="http://www.w3.org/2000/svg" xmlns:xlink="http://www.w3.org/1999/xlink" x="0px" y="0px"
	 width="20px" height="20px" viewBox="0 0 20 20" enable-background="new 0 0 20 20" xml:space="preserve">
<g>
	<path fill="#344E5D" d="M0.31,10c0-5.352,4.338-9.69,9.689-9.69c5.35,0,9.69,4.338,9.69,9.69c0,5.351-4.338,9.689-9.69,9.689
		S0.31,15.352,0.31,10z"/>
	<path fill="#E4AEA7" d="M9.402,6.302c0-1.523-0.45-2.78-1.986-2.78c-2.452,0-3.357,2.698-3.357,4.222
		c0,0.127,0.009,0.247,0.026,0.36L4.062,8.111l0.35,3.067l0.379,3.672h0.001c0.021,1.086,0.815,1.752,2.033,1.779
		c1.081-0.027,1.844-0.693,1.866-1.779c0,0,0.154-2.93,0.154-4.084c0-0.813,0.354-2.702,0.473-3.743
		C9.372,6.778,9.402,6.536,9.402,6.302z"/>
	<path fill="#CB7462" d="M8.865,8.855c0,0-0.605,1.586-0.238,2.124c0,0,0.184-0.583,0.444-1.273L8.865,8.855z"/>
	<path fill="#D88375" d="M7.202,5.842c0,0,0.76,1.024,1.042,1.541c0.471,0.862,0.804,2.38,0.804,2.38s0.196-0.464,0.176-0.978
		C9.209,8.372,9.047,7.764,8.691,7.068C8.335,6.373,7.208,4.97,7.208,4.97L7.201,5.844L7.202,5.842z"/>
	<path fill="#CB7462" d="M4.502,8.912c0,0,0.548,1.529,0.18,2.066c0,0-0.184-0.583-0.445-1.273L4.502,8.912L4.502,8.912z"/>
	<path fill="#D88375" d="M7.202,5.842c0,0-0.867,0.529-1.564,1.349C4.726,8.265,4.261,9.763,4.261,9.763S3.932,9.276,4.085,8.785
		c0.066-0.208,0.527-1.241,1.106-1.909C6.058,5.875,7.209,4.97,7.209,4.97L7.202,5.844V5.842z"/>
	<path fill="#EDC92C" d="M7.889,5.607c0,0.372-0.302,0.672-0.672,0.672S6.544,5.978,6.544,5.607c0-0.372,0.301-0.673,0.672-0.673
		S7.889,5.236,7.889,5.607z"/>
	<path fill="#D62127" d="M7.566,4.941c0,0.205-0.165,0.371-0.371,0.371c-0.205,0-0.371-0.166-0.371-0.371
		c0-0.204,0.166-0.371,0.371-0.371C7.401,4.571,7.566,4.736,7.566,4.941z"/>
	<path fill="#D62127" d="M8.155,5.26c0,0.204-0.165,0.371-0.371,0.371c-0.205,0-0.371-0.166-0.371-0.371
		c0-0.205,0.166-0.371,0.371-0.371C7.99,4.889,8.155,5.055,8.155,5.26z"/>
	<path fill="#D62127" d="M6.996,5.298c0,0.205-0.166,0.372-0.371,0.372c-0.205,0-0.371-0.166-0.371-0.372
		c0-0.204,0.166-0.37,0.371-0.37C6.83,4.928,6.996,5.093,6.996,5.298z"/>
	<path fill="#D62127" d="M7.029,5.985c0,0.204-0.166,0.371-0.371,0.371c-0.206,0-0.371-0.166-0.371-0.371
		c0-0.204,0.165-0.371,0.371-0.371C6.863,5.614,7.029,5.78,7.029,5.985z"/>
	<path fill="#D62127" d="M7.627,6.282c0,0.204-0.165,0.371-0.371,0.371c-0.205,0-0.371-0.166-0.371-0.371
		c0-0.205,0.166-0.371,0.371-0.371C7.462,5.912,7.627,6.077,7.627,6.282z"/>
	<path fill="#D62127" d="M8.177,5.925c0,0.205-0.165,0.371-0.371,0.371c-0.205,0-0.371-0.166-0.371-0.371
		c0-0.204,0.166-0.371,0.371-0.371C8.012,5.554,8.177,5.72,8.177,5.925z"/>
	<path fill="#EDC92C" d="M7.691,5.607c0,0.263-0.213,0.475-0.476,0.475S6.74,5.87,6.74,5.607c0-0.263,0.212-0.476,0.475-0.476
		S7.691,5.344,7.691,5.607z"/>
	<path fill="#E4AEA7" d="M10.596,6.302c0-1.523,0.449-2.78,1.986-2.78c2.451,0,3.355,2.698,3.355,4.222
		c0,0.127-0.008,0.247-0.025,0.36l0.023,0.007l-0.35,3.067l-0.379,3.672h-0.002c-0.021,1.086-0.814,1.752-2.033,1.779
		c-1.08-0.027-1.844-0.693-1.865-1.779c0,0-0.154-2.93-0.154-4.084c0-0.813-0.354-2.702-0.473-3.743
		C10.625,6.778,10.596,6.536,10.596,6.302L10.596,6.302z"/>
	<path fill="#CB7462" d="M11.133,8.855c0,0,0.605,1.586,0.238,2.124c0,0-0.186-0.583-0.445-1.273L11.133,8.855z"/>
	<path fill="#D88375" d="M12.797,5.842c0,0-0.762,1.024-1.043,1.541c-0.471,0.862-0.805,2.38-0.805,2.38s-0.193-0.464-0.176-0.978
		c0.016-0.414,0.178-1.021,0.533-1.717c0.355-0.695,1.482-2.098,1.482-2.098l0.008,0.874V5.842z"/>
	<path fill="#CB7462" d="M15.496,8.912c0,0-0.549,1.529-0.182,2.066c0,0,0.184-0.583,0.445-1.273L15.496,8.912z"/>
	<path fill="#D88375" d="M12.797,5.842c0,0,0.865,0.529,1.562,1.349c0.912,1.073,1.377,2.571,1.377,2.571s0.33-0.487,0.176-0.978
		c-0.064-0.208-0.525-1.241-1.104-1.909c-0.869-1.001-2.02-1.906-2.02-1.906l0.008,0.874V5.842z"/>
	<path fill="#EDC92C" d="M13.455,5.607c0,0.372-0.301,0.673-0.672,0.673c-0.373,0-0.674-0.302-0.674-0.673
		c0-0.372,0.301-0.674,0.674-0.674C13.154,4.933,13.455,5.235,13.455,5.607z"/>
	<path fill="#D62127" d="M13.172,4.941c0,0.205-0.166,0.371-0.371,0.371s-0.369-0.166-0.369-0.371c0-0.204,0.164-0.371,0.369-0.371
		S13.172,4.736,13.172,4.941z"/>
	<path fill="#D62127" d="M12.584,5.26c0,0.204-0.166,0.371-0.369,0.371c-0.207,0-0.373-0.166-0.373-0.371
		c0-0.205,0.166-0.371,0.373-0.371C12.418,4.889,12.584,5.055,12.584,5.26z"/>
	<path fill="#D62127" d="M13.744,5.298c0,0.205-0.166,0.372-0.371,0.372s-0.371-0.166-0.371-0.372c0-0.204,0.166-0.37,0.371-0.37
		S13.744,5.093,13.744,5.298z"/>
	<path fill="#D62127" d="M13.711,5.985c0,0.204-0.166,0.371-0.371,0.371s-0.371-0.166-0.371-0.371c0-0.204,0.166-0.371,0.371-0.371
		S13.711,5.78,13.711,5.985z"/>
	<path fill="#D62127" d="M13.111,6.282c0,0.204-0.164,0.371-0.369,0.371s-0.371-0.166-0.371-0.371c0-0.205,0.166-0.371,0.371-0.371
		S13.111,6.077,13.111,6.282z"/>
	<path fill="#D62127" d="M12.562,5.925c0,0.205-0.166,0.371-0.371,0.371S11.82,6.13,11.82,5.925c0-0.204,0.166-0.371,0.371-0.371
		S12.562,5.72,12.562,5.925z"/>
	<path fill="#EDC92C" d="M13.258,5.607c0,0.263-0.213,0.475-0.475,0.475c-0.264,0-0.477-0.212-0.477-0.475
		c0-0.263,0.213-0.476,0.477-0.476C13.045,5.131,13.258,5.344,13.258,5.607z"/>
</g>
</svg>
