<?xml version="1.0" encoding="utf-8"?>
<!-- Generator: Adobe Illustrator 16.0.0, SVG Export Plug-In . SVG Version: 6.00 Build 0)  -->
<!DOCTYPE svg PUBLIC "-//W3C//DTD SVG 1.1//EN" "http://www.w3.org/Graphics/SVG/1.1/DTD/svg11.dtd">
<svg version="1.1" id="Layer_1" xmlns="http://www.w3.org/2000/svg" xmlns:xlink="http://www.w3.org/1999/xlink" x="0px" y="0px"
	 width="20px" height="20px" viewBox="0 0 20 20" enable-background="new 0 0 20 20" xml:space="preserve">
<path fill="#78A4A4" d="M12.661,10c0,0.11-0.09,0.2-0.2,0.2H7.538c-0.11,0-0.199-0.09-0.199-0.2S7.428,9.8,7.538,9.8h4.923
	C12.571,9.8,12.661,9.889,12.661,10"/>
<path fill="#78A4A4" d="M12.661,10c0,0.11-0.09,0.2-0.2,0.2H7.538c-0.11,0-0.199-0.09-0.199-0.2s0.089-0.2,0.199-0.2h4.923
	C12.571,9.8,12.661,9.89,12.661,10"/>
<path fill="#78A4A4" d="M12.661,10c0,0.11-0.09,0.2-0.2,0.2H7.538c-0.11,0-0.199-0.09-0.199-0.2S7.428,9.8,7.538,9.8h4.923
	C12.571,9.8,12.661,9.889,12.661,10"/>
<g>
	<g>
		<g>
			<g>
				<g>
					<g>
						<circle fill="#F3EA83" cx="10" cy="10" r="9.69"/>
					</g>
				</g>
			</g>
		</g>
	</g>
	<path fill="#357180" d="M17.216,14.475c0,0.568-0.289,0.801-0.857,0.801H9.699V5.244h6.659c0.568,0,0.857,0.261,0.857,0.829V14.475
		z"/>
	<path fill="#FFFFFF" d="M10.485,14.889h5.587c0.524,0,0.651-0.061,0.651-0.586V6.301c0-0.524-0.127-0.671-0.651-0.671h-5.587
		V14.889z"/>
	<path fill="#357180" d="M3.24,6.051c0-0.568,0.29-0.8,0.857-0.8h6.116v10.03H4.098c-0.567,0-0.857-0.26-0.857-0.828V6.051z"/>
	<g>
		<defs>
			<path id="SVGID_1_" d="M16.154,9.729c0,0.162-0.131,0.292-0.293,0.292h-2.109c-0.161,0-0.293-0.131-0.293-0.292V7.117
				c0-0.162,0.132-0.292,0.293-0.292h2.109c0.162,0,0.293,0.131,0.293,0.292V9.729z"/>
		</defs>
		<clipPath id="SVGID_2_">
			<use xlink:href="#SVGID_1_"  overflow="visible"/>
		</clipPath>
		<path clip-path="url(#SVGID_2_)" fill="#90B9C0" d="M16.154,9.729c0,0.162-0.131,0.292-0.293,0.292h-2.109
			c-0.161,0-0.293-0.131-0.293-0.292V7.117c0-0.162,0.132-0.292,0.293-0.292h2.109c0.162,0,0.293,0.131,0.293,0.292V9.729z"/>
		<path clip-path="url(#SVGID_2_)" fill="#FFFFFF" d="M15.022,9.091V8.918c0.254-0.109,0.423-0.396,0.454-0.75
			c0.045-0.02,0.08-0.088,0.08-0.173c0-0.098-0.045-0.176-0.101-0.181c-0.077-0.344-0.324-0.521-0.661-0.521
			s-0.587,0.177-0.666,0.521c-0.056,0.004-0.101,0.083-0.101,0.181c0,0.085,0.034,0.153,0.08,0.173
			c0.031,0.351,0.201,0.637,0.453,0.748v0.175c-0.779,0.011-0.927,0.101-0.927,0.67v0.427h2.324V9.762
			C15.959,9.189,15.808,9.102,15.022,9.091z"/>
	</g>
	<rect x="10.227" y="5.251" fill="#1C5A64" width="0.087" height="10.03"/>
	<path opacity="0.15" fill="#FFFFFF" d="M6.756,5.251h3.458v10.03H6.756C6.188,15.281,6.188,5.251,6.756,5.251z"/>
	<g>
		<path fill="#DAC425" d="M7.268,7.681C7.17,7.396,7.025,7.134,6.841,6.904C6.647,7.14,6.495,7.411,6.394,7.705
			c0.123,0.021,0.248,0.032,0.377,0.032C6.941,7.737,7.107,7.717,7.268,7.681z"/>
		<path fill="#DAC425" d="M7.072,6.706C7.058,6.703,7.043,6.701,7.028,6.7C6.994,6.733,6.962,6.767,6.93,6.801
			c0.203,0.25,0.362,0.535,0.468,0.846c0.094-0.028,0.185-0.061,0.273-0.1C7.53,7.227,7.325,6.94,7.072,6.706z"/>
		<path fill="#DAC425" d="M6.755,6.801c-0.032-0.037-0.065-0.072-0.1-0.106C6.621,6.697,6.588,6.701,6.555,6.706
			C6.293,6.948,6.083,7.245,5.943,7.578c0.103,0.042,0.209,0.075,0.319,0.101C6.372,7.354,6.54,7.058,6.755,6.801z"/>
		<path fill="#DAC425" d="M7.428,6.792c-0.042-0.015-0.084-0.028-0.127-0.04c0.201,0.216,0.366,0.466,0.485,0.74
			c0.06-0.03,0.116-0.063,0.173-0.098C7.819,7.163,7.639,6.958,7.428,6.792z"/>
		<path fill="#DAC425" d="M5.235,8.282c0.031-0.286,0.114-0.557,0.24-0.804c-0.041-0.027-0.081-0.055-0.12-0.083
			C5.204,7.586,5.089,7.809,5.022,8.051C5.088,8.133,5.159,8.21,5.235,8.282z"/>
		<path fill="#DAC425" d="M6.326,6.752C6.283,6.764,6.241,6.777,6.199,6.791C5.977,6.968,5.788,7.186,5.646,7.433
			c0.059,0.034,0.118,0.065,0.18,0.094C5.946,7.239,6.116,6.977,6.326,6.752z"/>
		<path fill="#DAC425" d="M7.812,6.979C7.906,7.085,7.991,7.2,8.065,7.322C8.095,7.301,8.124,7.28,8.152,7.257
			C8.05,7.151,7.936,7.058,7.812,6.979z"/>
		<path fill="#DAC425" d="M7.307,7.804c-0.173,0.04-0.352,0.062-0.536,0.062c-0.142,0-0.28-0.013-0.416-0.037
			C6.289,8.056,6.254,8.296,6.254,8.544c0,0.099,0.006,0.197,0.017,0.293c0.161,0.037,0.328,0.057,0.5,0.057
			c0.216,0,0.425-0.031,0.622-0.088c0.011-0.093,0.016-0.188,0.016-0.283C7.408,8.273,7.372,8.032,7.307,7.804z"/>
		<path fill="#DAC425" d="M8.021,7.506C7.961,7.544,7.899,7.579,7.835,7.611c0.108,0.284,0.168,0.59,0.171,0.91
			C8.098,8.46,8.185,8.393,8.267,8.319C8.237,8.028,8.152,7.754,8.021,7.506z"/>
		<path fill="#DAC425" d="M6.496,9.921C6.364,9.906,6.236,9.88,6.112,9.844c0.122,0.201,0.271,0.381,0.442,0.54
			c0.02,0.003,0.04,0.006,0.061,0.008c0.042-0.04,0.082-0.081,0.121-0.124C6.647,10.158,6.567,10.042,6.496,9.921z"/>
		<path fill="#DAC425" d="M7.166,9.904c-0.075,0.128-0.159,0.25-0.254,0.363c0.037,0.042,0.076,0.083,0.116,0.122
			c0.015-0.002,0.029-0.004,0.044-0.006c0.181-0.167,0.336-0.359,0.461-0.573C7.415,9.851,7.292,9.883,7.166,9.904z"/>
		<path fill="#DAC425" d="M6.29,8.974C6.339,9.269,6.438,9.548,6.579,9.8c0.063,0.005,0.127,0.009,0.191,0.009
			c0.104,0,0.208-0.008,0.31-0.022C7.223,9.53,7.324,9.246,7.374,8.945C7.181,8.996,6.979,9.023,6.771,9.023
			C6.605,9.023,6.445,9.006,6.29,8.974z"/>
		<path fill="#DAC425" d="M5.815,6.978c-0.14,0.089-0.267,0.196-0.377,0.318C5.471,7.32,5.503,7.343,5.537,7.365
			C5.617,7.227,5.71,7.097,5.815,6.978z"/>
		<path fill="#DAC425" d="M5.62,8.544c0-0.315,0.056-0.617,0.158-0.897C5.712,7.616,5.647,7.583,5.585,7.546
			c-0.129,0.257-0.209,0.542-0.23,0.842C5.438,8.457,5.528,8.52,5.621,8.576C5.621,8.565,5.62,8.555,5.62,8.544z"/>
		<path fill="#DAC425" d="M5.815,10.111C5.66,9.936,5.53,9.737,5.432,9.521C5.309,9.436,5.193,9.339,5.088,9.232
			C5.233,9.596,5.489,9.903,5.815,10.111z"/>
		<path fill="#DAC425" d="M5.931,9.783c-0.1-0.038-0.195-0.082-0.287-0.132c0.143,0.25,0.332,0.468,0.556,0.646
			c0.042,0.015,0.084,0.028,0.127,0.04C6.172,10.17,6.038,9.985,5.931,9.783z"/>
		<path fill="#DAC425" d="M8.656,8.772c0.01-0.075,0.015-0.15,0.015-0.228c0-0.144-0.017-0.284-0.048-0.418
			C8.554,8.212,8.479,8.294,8.399,8.37c0.004,0.058,0.007,0.116,0.007,0.174c0,0.222-0.031,0.437-0.089,0.641
			C8.446,9.062,8.561,8.923,8.656,8.772z"/>
		<path fill="#DAC425" d="M8.024,9.576C7.928,9.637,7.825,9.692,7.719,9.738c-0.111,0.219-0.252,0.42-0.418,0.599
			c0.043-0.012,0.085-0.025,0.127-0.04C7.674,10.102,7.878,9.857,8.024,9.576z"/>
		<path fill="#DAC425" d="M8.593,9.079C8.486,9.208,8.366,9.324,8.235,9.428C8.133,9.68,7.989,9.911,7.812,10.111
			C8.183,9.874,8.463,9.509,8.593,9.079z"/>
		<path fill="#DAC425" d="M8.278,8.544c0-0.021-0.002-0.042-0.002-0.064C8.19,8.552,8.099,8.617,8.003,8.676
			c-0.015,0.31-0.084,0.606-0.198,0.879c0.114-0.06,0.222-0.129,0.323-0.207C8.225,9.099,8.278,8.828,8.278,8.544z"/>
		<path fill="#DAC425" d="M6.149,8.94C6.016,8.903,5.886,8.855,5.762,8.797C5.793,9.112,5.884,9.41,6.021,9.68
			c0.128,0.045,0.261,0.08,0.397,0.102C6.286,9.522,6.193,9.239,6.149,8.94z"/>
		<path fill="#DAC425" d="M5.342,9.292C5.264,9.057,5.22,8.806,5.22,8.544c0-0.034,0.002-0.067,0.003-0.101
			C5.139,8.371,5.06,8.292,4.986,8.208c-0.02,0.109-0.03,0.221-0.03,0.336c0,0.133,0.014,0.263,0.04,0.388
			C5.099,9.064,5.214,9.185,5.342,9.292z"/>
		<path fill="#DAC425" d="M8.238,7.353C8.203,7.381,8.167,7.409,8.129,7.435c0.126,0.237,0.214,0.497,0.253,0.772
			C8.453,8.132,8.52,8.054,8.58,7.97C8.506,7.742,8.389,7.533,8.238,7.353z"/>
		<path fill="#DAC425" d="M7.515,8.902C7.473,9.206,7.38,9.494,7.246,9.758c0.132-0.029,0.258-0.069,0.38-0.119
			c0.133-0.272,0.217-0.571,0.242-0.887C7.756,8.812,7.638,8.862,7.515,8.902z"/>
		<path fill="#DAC425" d="M7.876,8.601c0.001-0.019,0.002-0.038,0.002-0.057c0-0.309-0.057-0.604-0.159-0.877
			C7.627,7.707,7.532,7.741,7.436,7.77c0.068,0.239,0.106,0.492,0.106,0.753c0,0.081-0.004,0.16-0.011,0.238
			C7.651,8.718,7.767,8.664,7.876,8.601z"/>
		<path fill="#DAC425" d="M6.771,9.938c-0.037,0-0.074-0.001-0.11-0.003c0.051,0.08,0.105,0.156,0.164,0.229
			c0.062-0.075,0.118-0.155,0.172-0.237C6.922,9.934,6.847,9.938,6.771,9.938z"/>
		<path fill="#DAC425" d="M5.628,8.728C5.53,8.674,5.438,8.613,5.349,8.547C5.35,8.862,5.415,9.163,5.534,9.435
			C5.633,9.5,5.736,9.559,5.846,9.608C5.725,9.335,5.649,9.039,5.628,8.728z"/>
		<path fill="#DAC425" d="M6.121,8.544c0-0.257,0.036-0.507,0.104-0.743C6.111,7.775,6.002,7.74,5.896,7.698
			c-0.095,0.265-0.147,0.55-0.147,0.847c0,0.035,0.001,0.069,0.003,0.104C5.873,8.71,6,8.762,6.133,8.802
			C6.125,8.717,6.121,8.631,6.121,8.544z"/>
	</g>
	<path fill="#78A4A4" d="M13.136,7.045c0,0.11-0.089,0.2-0.199,0.2h-1.894c-0.11,0-0.2-0.09-0.2-0.2s0.09-0.2,0.2-0.2h1.894
		C13.047,6.845,13.136,6.935,13.136,7.045"/>
	<path fill="#78A4A4" d="M13.136,7.884c0,0.11-0.089,0.2-0.199,0.2h-1.894c-0.11,0-0.2-0.089-0.2-0.2s0.09-0.2,0.2-0.2h1.894
		C13.047,7.684,13.136,7.773,13.136,7.884"/>
	<path fill="#78A4A4" d="M13.136,8.77c0,0.11-0.089,0.199-0.199,0.199h-1.894c-0.11,0-0.2-0.089-0.2-0.199c0-0.111,0.09-0.2,0.2-0.2
		h1.894C13.047,8.57,13.136,8.659,13.136,8.77"/>
</g>
</svg>
