<?xml version="1.0" encoding="utf-8"?>
<!-- Generator: Adobe Illustrator 16.0.0, SVG Export Plug-In . SVG Version: 6.00 Build 0)  -->
<!DOCTYPE svg PUBLIC "-//W3C//DTD SVG 1.1//EN" "http://www.w3.org/Graphics/SVG/1.1/DTD/svg11.dtd">
<svg version="1.1" id="Layer_1" xmlns="http://www.w3.org/2000/svg" xmlns:xlink="http://www.w3.org/1999/xlink" x="0px" y="0px"
	 width="20px" height="20px" viewBox="0 0 20 20" enable-background="new 0 0 20 20" xml:space="preserve">
<g>
	<path fill="#344E5D" d="M19.69,10c0,5.352-4.339,9.69-9.69,9.69S0.31,15.352,0.31,10c0-5.351,4.339-9.69,9.69-9.69
		S19.69,4.648,19.69,10z"/>
	<path fill="#67B8CB" d="M10.701,9.132h5.434c0.389,0,0.701-1.035,0.701-1.035s-0.312-1.035-0.701-1.035h-5.434
		C10.313,7.062,10.313,9.133,10.701,9.132L10.701,9.132z"/>
	<path fill="#E5E5E5" d="M14.733,7.878h-2.941c-0.172,0-0.311,0.095-0.311,0.214c0,0.118,0.139,0.213,0.311,0.213h2.941
		c0.172,0,0.312-0.096,0.312-0.213C15.045,7.974,14.905,7.878,14.733,7.878L14.733,7.878z"/>
	<path fill="#E5E5E5" d="M15.936,7.878h-0.312c-0.172,0-0.311,0.095-0.311,0.214c0,0.118,0.139,0.213,0.311,0.213h0.312
		c0.172,0,0.311-0.096,0.311-0.213C16.246,7.974,16.107,7.878,15.936,7.878z"/>
	<path fill="#67B8CB" d="M10.134,4.879H4.7c-0.388,0-0.702,1.035-0.702,1.035S4.312,6.949,4.7,6.949h5.434
		C10.521,6.949,10.521,4.878,10.134,4.879L10.134,4.879z"/>
	<path fill="#E5E5E5" d="M6.103,6.134h2.942c0.171,0,0.311-0.096,0.311-0.214s-0.14-0.215-0.311-0.215H6.103
		c-0.172,0-0.312,0.097-0.312,0.215S5.931,6.134,6.103,6.134z"/>
	<path fill="#E5E5E5" d="M4.9,6.134h0.312c0.171,0,0.311-0.096,0.311-0.214s-0.14-0.215-0.311-0.215H4.9
		c-0.172,0-0.312,0.097-0.312,0.215S4.729,6.134,4.9,6.134z"/>
	<path fill="#67B8CB" d="M10.134,9.569H4.7c-0.388,0-0.702,1.035-0.702,1.035s0.314,1.034,0.702,1.034h5.434
		C10.521,11.639,10.521,9.568,10.134,9.569L10.134,9.569z"/>
	<path fill="#E5E5E5" d="M6.103,10.823h2.942c0.171,0,0.311-0.097,0.311-0.215c0-0.119-0.14-0.214-0.311-0.214H6.103
		c-0.172,0-0.312,0.096-0.312,0.214S5.931,10.823,6.103,10.823z"/>
	<path fill="#E5E5E5" d="M4.9,10.823h0.312c0.171,0,0.311-0.097,0.311-0.215c0-0.119-0.14-0.214-0.311-0.214H4.9
		c-0.172,0-0.312,0.096-0.312,0.214S4.729,10.823,4.9,10.823z"/>
	<path fill="#9D5D26" d="M12.773,17.413c0,0.458-1.058,0.831-2.36,0.831s-2.359-0.373-2.359-0.831s1.057-0.83,2.359-0.83
		S12.773,16.955,12.773,17.413z"/>
	<path fill="#AE722D" d="M12.596,17.258c0,0.344-0.978,0.622-2.183,0.622c-1.204,0-2.182-0.278-2.182-0.622
		c0-0.346,0.978-0.624,2.182-0.624C11.618,16.634,12.596,16.912,12.596,17.258z"/>
	<path fill="#AE722D" d="M11.136,16.979c0,0.72-1.403,0.72-1.403,0V3.756c0-0.72,0.314-1.304,0.702-1.304l0,0
		c0.388,0,0.702,0.584,0.702,1.304L11.136,16.979L11.136,16.979z"/>
	<path fill="#BB813C" d="M11.136,16.979c0,0.533-0.771,0.671-1.17,0.415c-0.139-0.09-0.221-13.939,0.468-14.941l0,0
		c0.388,0,0.702,0.584,0.702,1.304V16.979L11.136,16.979z"/>
</g>
</svg>
