<?xml version="1.0" encoding="utf-8"?>
<!-- Generator: Adobe Illustrator 16.0.0, SVG Export Plug-In . SVG Version: 6.00 Build 0)  -->
<!DOCTYPE svg PUBLIC "-//W3C//DTD SVG 1.1//EN" "http://www.w3.org/Graphics/SVG/1.1/DTD/svg11.dtd">
<svg version="1.1" id="Layer_1" xmlns="http://www.w3.org/2000/svg" xmlns:xlink="http://www.w3.org/1999/xlink" x="0px" y="0px"
	 width="20px" height="20px" viewBox="0 0 20 20" enable-background="new 0 0 20 20" xml:space="preserve">
<g>
	<path fill="#344E5D" d="M19.69,10c0,5.352-4.339,9.69-9.69,9.69S0.31,15.352,0.31,10c0-5.351,4.338-9.69,9.69-9.69
		S19.69,4.648,19.69,10z"/>
	<path fill="#905C25" d="M9.629,8.231c0,0-0.402,7.902-0.738,8.371l1.207,0.671l0.872-0.536c0,0,0.47-6.36-0.804-8.639L9.629,8.231z
		"/>
	<path fill="#A46828" d="M9.629,8.231c0,0-0.402,7.902-0.738,8.371l1.207,0.671c0,0,0.558-6.25,0.067-9.175L9.629,8.231z"/>
	<path fill="#68B147" d="M10.166,7.226c0,0,2.234-2.145,5.675-1.207C15.841,6.019,13.025,1.684,10.166,7.226z"/>
	<path fill="#86C06D" d="M10.166,7.226c0,0,2.234-2.145,5.675-1.207C15.841,6.019,12.892,3.115,10.166,7.226z"/>
	<path fill="#68B147" d="M10.031,7.405c0,0,1.387-1.475,1.387-3.217c0,0-1.565-1.029-2.012,0.357
		C9.406,4.544,9.406,5.975,10.031,7.405z"/>
	<path fill="#86C06D" d="M10.031,7.405c0,0,0.903-3.535,0.398-3.58c-0.406-0.036-0.826,0.103-1.023,0.72
		C9.406,4.544,9.406,5.975,10.031,7.405z"/>
	<path fill="#68B147" d="M5.719,5.304c0,0,3.217,0.313,4.334,2.413C10.053,7.717,9.115,2.086,5.719,5.304z"/>
	<path fill="#86C06D" d="M5.719,5.304c0,0,3.217,0.313,4.334,2.413C10.053,7.717,8.713,3.472,5.719,5.304z"/>
	<path fill="#F1E042" d="M10.88,7.583c0.215,0.308,0.043,0.505-0.183,0.661C10.473,8.4,10.28,8.458,10.065,8.15
		C9.85,7.842,9.695,7.286,9.92,7.129C10.146,6.973,10.665,7.275,10.88,7.583z"/>
	<path fill="#FCEE35" d="M9.794,8.142c-0.24,0.302-0.502,0.265-0.723,0.089C8.85,8.055,8.755,7.809,8.995,7.507
		s0.819-0.469,0.945-0.37C10.01,7.193,10.035,7.84,9.794,8.142z"/>
	<path fill="#FCEF57" d="M10.602,8.119c0,0.481-0.286,0.648-0.637,0.648c-0.352,0-0.637-0.167-0.637-0.648
		c0-0.481,0.436-1.094,0.637-1.094C10.077,7.025,10.602,7.638,10.602,8.119z"/>
	<path fill="#68B147" d="M9.651,7.427c0,0,2.681-1.207,5.362,0.804C15.014,8.231,13.137,3.539,9.651,7.427z"/>
	<path fill="#86C06D" d="M9.651,7.427c0,0,2.681-1.207,5.362,0.804C15.014,8.231,12.823,4.655,9.651,7.427z"/>
	<path fill="#68B147" d="M13.332,10.857c0,0-2.353-3.692-3.887-3.497C9.445,7.361,13.529,5.335,13.332,10.857z"/>
	<path fill="#86C06D" d="M13.332,10.857c0,0-2.353-3.692-3.887-3.497C9.445,7.361,12.059,6.12,13.332,10.857z"/>
	<path fill="#68B147" d="M10.255,7.314c0,0-4.558-1.654-7.017,1.118C3.238,8.432,4.579,2.847,10.255,7.314z"/>
	<path fill="#86C06D" d="M10.255,7.314c0,0-4.558-1.654-7.017,1.118C3.238,8.432,4.713,4.321,10.255,7.314z"/>
	<path fill="#68B147" d="M10.611,7.025c0,0-4.246,1.251-4.335,4.737C6.276,11.762,1.898,8.365,10.611,7.025z"/>
	<path fill="#86C06D" d="M10.611,7.025c0,0-4.246,1.251-4.335,4.737C6.276,11.762,3.193,8.544,10.611,7.025z"/>
</g>
</svg>
