<?xml version="1.0" encoding="utf-8"?>
<!-- Generator: Adobe Illustrator 16.0.0, SVG Export Plug-In . SVG Version: 6.00 Build 0)  -->
<!DOCTYPE svg PUBLIC "-//W3C//DTD SVG 1.1//EN" "http://www.w3.org/Graphics/SVG/1.1/DTD/svg11.dtd">
<svg version="1.1" id="Layer_1" xmlns="http://www.w3.org/2000/svg" xmlns:xlink="http://www.w3.org/1999/xlink" x="0px" y="0px"
	 width="20px" height="20px" viewBox="0 0 20 20" enable-background="new 0 0 20 20" xml:space="preserve">
<g>
	<path fill="#ECD9A9" d="M19.69,10c0,5.352-4.339,9.69-9.69,9.69S0.31,15.352,0.31,10c0-5.351,4.339-9.69,9.69-9.69
		S19.69,4.648,19.69,10z"/>
	<path fill="#C82127" d="M10.021,12.338H9.998c-1.444,0.01-3.037-0.143-4.483-0.642v0.718c0,0,4.223,1.382,4.223,4.711
		c0,0,0.122,0.053,0.288,0.053c0.167,0,0.257-0.053,0.257-0.053c0-3.329,4.223-4.711,4.223-4.711v-0.718
		C13.06,12.197,11.467,12.349,10.021,12.338z"/>
	<path fill="#C82127" d="M6.616,6.475c0,0,2.377,0.392,3.124,2.406c0.257,0.691-0.154,2.203-2.894,1.652
		C6.847,10.533,4.465,9.957,6.616,6.475z"/>
	<path fill="#C82127" d="M6.616,6.475l1.734-2.869l0.187,0.026L7.103,6.68L6.616,6.475z"/>
	<path fill="#C82127" d="M13.772,6.475c0,0-2.378,0.392-3.125,2.406c-0.257,0.691,0.154,2.203,2.894,1.652
		C13.541,10.533,15.922,9.957,13.772,6.475z"/>
	<path fill="#C82127" d="M13.772,6.475l-1.737-2.869l-0.184,0.026l1.433,3.048L13.772,6.475z"/>
	<path fill="#C82127" d="M11.046,9.432c0,0.22-0.178,0.397-0.396,0.397H9.625c-0.219,0-0.396-0.178-0.396-0.397l0,0
		c0-0.219,0.178-0.396,0.396-0.396h1.024C10.868,9.035,11.046,9.213,11.046,9.432L11.046,9.432z"/>
</g>
</svg>
