<?xml version="1.0" encoding="utf-8"?>
<!-- Generator: Adobe Illustrator 16.0.0, SVG Export Plug-In . SVG Version: 6.00 Build 0)  -->
<!DOCTYPE svg PUBLIC "-//W3C//DTD SVG 1.1//EN" "http://www.w3.org/Graphics/SVG/1.1/DTD/svg11.dtd">
<svg version="1.1" id="Layer_1" xmlns="http://www.w3.org/2000/svg" xmlns:xlink="http://www.w3.org/1999/xlink" x="0px" y="0px"
	 width="20px" height="20px" viewBox="0 0 20 20" enable-background="new 0 0 20 20" xml:space="preserve">
<g>
	<path fill="#4ABC96" d="M19.69,10c0,5.352-4.339,9.69-9.69,9.69S0.31,15.352,0.31,10c0-5.351,4.339-9.69,9.69-9.69
		S19.69,4.648,19.69,10z"/>
	<path fill="#EF5E8F" d="M12.142,3.243l-0.607-0.271L9.703,2.17C9.689,2.166,9.676,2.16,9.661,2.156
		C9.583,2.135,9.5,2.122,9.413,2.122c-0.464,0-0.841,0.349-0.841,0.78c0,0.076,0.013,0.15,0.034,0.221l1.153,7.535l0.409-0.062
		L9.024,3.123c-0.083-0.571,0.477-0.557,0.759-0.47l0.468,0.202l1.113,0.493l0.002-0.003l0.606,0.271
		c0.094,0.041,0.204-0.01,0.25-0.113s0.008-0.221-0.083-0.261H12.142z"/>
	<path fill="#CFE6E9" d="M9.525,11.115h0.708v6.591H9.525V11.115z"/>
	<path fill="#CFE6E9" d="M12.401,17.663c0,0.097-1.108,0.176-2.479,0.176c-1.368,0-2.478-0.079-2.478-0.176
		c0-0.099,1.109-0.179,2.478-0.179C11.293,17.484,12.401,17.564,12.401,17.663z"/>
	<path fill="#CFE6E9" d="M10.216,11.424H9.543c-0.063,0-3.822-3.961-3.822-4.69c0-0.502,0.476-0.561,1.062-0.561h6.194
		c0.587,0,1.062,0,1.062,0.561C14.038,7.475,10.279,11.424,10.216,11.424z"/>
	<path fill="#F4E028" d="M13.577,5.021c0.83,0.437,1.156,1.454,0.743,2.29l0.276,0.144c0.491-0.987,0.106-2.192-0.876-2.708
		c-0.98-0.515-2.192-0.149-2.726,0.817l0.275,0.145C11.725,4.893,12.747,4.584,13.577,5.021L13.577,5.021z"/>
	<path fill="#F9F29A" d="M13.577,5.021c-0.831-0.436-1.853-0.127-2.308,0.688l0.87,0.468l0.221-0.003l0.268,0.007l0.362,0.432
		l1.33,0.699C14.733,6.474,14.407,5.456,13.577,5.021z"/>
	<path fill="#F4E028" d="M12.891,6.371c-0.008,0-0.014-0.002-0.02-0.006c-0.021-0.012-0.031-0.037-0.02-0.06l0.433-0.822
		c0.012-0.021,0.039-0.03,0.061-0.019c0.021,0.012,0.03,0.039,0.019,0.06l-0.433,0.822C12.922,6.361,12.907,6.371,12.891,6.371z"/>
	<path fill="#F4E028" d="M13.128,6.641c-0.02,0-0.037-0.012-0.043-0.031c-0.006-0.022,0.006-0.048,0.03-0.056l0.886-0.276
		c0.024-0.007,0.049,0.007,0.057,0.029c0.007,0.023-0.006,0.049-0.03,0.056l-0.887,0.276C13.137,6.64,13.132,6.641,13.128,6.641z"/>
	<path fill="#F4E028" d="M12.453,6.176l-0.237-0.765c-0.009-0.022,0.005-0.048,0.028-0.056c0.024-0.007,0.049,0.007,0.055,0.029
		l0.248,0.794L12.453,6.176L12.453,6.176z"/>
</g>
</svg>
