<?xml version="1.0" encoding="utf-8"?>
<!-- Generator: Adobe Illustrator 16.0.0, SVG Export Plug-In . SVG Version: 6.00 Build 0)  -->
<!DOCTYPE svg PUBLIC "-//W3C//DTD SVG 1.1//EN" "http://www.w3.org/Graphics/SVG/1.1/DTD/svg11.dtd">
<svg version="1.1" id="Layer_1" xmlns="http://www.w3.org/2000/svg" xmlns:xlink="http://www.w3.org/1999/xlink" x="0px" y="0px"
	 width="20px" height="20px" viewBox="0 0 20 20" enable-background="new 0 0 20 20" xml:space="preserve">
<g>
	<path fill="#49A0AE" d="M19.69,10c0,5.352-4.339,9.69-9.69,9.69S0.31,15.352,0.31,10c0-5.351,4.339-9.69,9.69-9.69
		S19.69,4.648,19.69,10z"/>
	<path fill="#E5E5E4" d="M14.095,10.962l-1.745,2.135l0.962-0.004c-0.192,1.319-1.31,2.381-2.735,2.598l-0.028-7.073l1.273-0.005
		c0.277-0.002,0.493-0.251,0.491-0.567c-0.001-0.314-0.218-0.562-0.496-0.561L10.544,7.49l-0.006-1.439
		c0.718-0.266,1.211-0.954,1.209-1.731c-0.003-1.017-0.845-1.84-1.874-1.833C8.846,2.489,8.011,3.318,8.016,4.334
		C8.02,5.147,8.567,5.852,9.338,6.083l0.005,1.412L8.195,7.501C7.918,7.502,7.702,7.75,7.704,8.066
		c0.001,0.317,0.218,0.564,0.495,0.562l1.146-0.003l0.029,7.041c-1.361-0.258-2.401-1.277-2.596-2.543l0.898-0.005l-1.645-2.121
		l-1.745,2.136l1.03-0.004c0.337,2.086,2.027,3.685,4.167,3.928c0.106,0.21,0.288,0.337,0.496,0.337c0.203,0,0.38-0.124,0.487-0.326
		c2.194-0.191,3.974-1.842,4.304-3.978l0.966-0.004l-1.646-2.122L14.095,10.962z M9.879,3.739c0.333-0.001,0.603,0.26,0.605,0.584
		c0,0.173-0.081,0.332-0.216,0.438c-0.209-0.18-0.525-0.159-0.715,0.039C9.387,4.7,9.281,4.525,9.281,4.327
		C9.28,4.006,9.548,3.742,9.879,3.739L9.879,3.739z"/>
</g>
</svg>
