<?xml version="1.0" encoding="utf-8"?>
<!-- Generator: Adobe Illustrator 16.0.0, SVG Export Plug-In . SVG Version: 6.00 Build 0)  -->
<!DOCTYPE svg PUBLIC "-//W3C//DTD SVG 1.1//EN" "http://www.w3.org/Graphics/SVG/1.1/DTD/svg11.dtd">
<svg version="1.1" id="Layer_1" xmlns="http://www.w3.org/2000/svg" xmlns:xlink="http://www.w3.org/1999/xlink" x="0px" y="0px"
	 width="20px" height="20px" viewBox="0 0 20 20" enable-background="new 0 0 20 20" xml:space="preserve">
<g>
	<path fill="#A2D4DE" d="M19.69,10c0,5.352-4.339,9.69-9.69,9.69S0.31,15.352,0.31,10c0-5.351,4.339-9.69,9.69-9.69
		S19.69,4.648,19.69,10z"/>
	<path fill="#70BFC8" d="M17.051,10c0,4.034-3.271,7.305-7.305,7.305S2.44,14.034,2.44,10c0-4.035,3.271-7.306,7.306-7.306
		S17.051,5.965,17.051,10z"/>
	<path fill="#43B665" d="M13.528,6.795c0,0-1.563,0.323-2.124,0.022c0,0-0.373-0.484-1.424-0.068c0,0-1.843,1.108-1.867,2.216
		c0,0-0.513,2.193,1.423,2.494c0,0,2.031-0.67,2.288,0.114c0,0,0.07,0.97,0.256,1.177c0,0,0.305,0.446,0.28,0.715
		c0,0-0.209,0.901,0.069,1.594c0,0,0.188,0.6,0.164,0.784c0,0,1.773-0.508,2.334-2.17c0,0,0.326-1.154,0.35-1.454
		c0,0,0.467-1.339,0.583-1.755c0,0,0.42-1.246-0.28-1.085c0,0-0.488-0.462-0.839-0.808c-0.35-0.346-1.026-1.662-1.215-1.777
		L13.528,6.795z"/>
	<path fill="#43B665" d="M15.092,8.526l-1.96-1.801c0,0,0.419-0.369,0.279-0.577c-0.141-0.207-0.443,0.069-0.699,0.069
		c-0.257,0-0.607,0.207-0.747,0.023c-0.141-0.185-0.234-0.139-0.373-0.023c-0.141,0.115-0.397,0.301-0.42,0.185
		c-0.023-0.116-0.443-0.069-0.467-0.185s0.07-0.438-0.141-0.369c-0.209,0.068-0.513,0.3-0.56,0.415
		c-0.046,0.115-0.21,0.462-0.373,0.462S9.049,6.817,8.979,6.68s-0.21-0.601-0.07-0.738c0.14-0.139,0.825,0.007,0.794-0.161
		c-0.031-0.169-0.113-0.541-0.01-0.595c0.104-0.053,0.383-0.653,0.57-0.723c0.187-0.068,0.676,0.186,0.747,0.023
		c0,0,0.023-0.484-0.071-0.554c-0.093-0.069-0.163-0.277-0.326-0.255c-0.163,0.023-0.233,0.186-0.116,0.255s0.21,0.347,0.141,0.347
		c-0.071,0-0.701,0.046-0.724-0.115C9.89,4.003,9.982,3.609,10.192,3.472c0.21-0.139,0.653-0.115,0.794-0.046
		s0.305-0.069,0.35-0.185c0.047-0.115-0.663-0.502-0.873-0.502c0,0,5.53,0.413,6.479,6.067c0,0-0.589-1.941-0.985-2.057
		c0,0-0.209,0.138-0.35,0.115c-0.141-0.023-0.84-0.462-0.887-0.347c-0.048,0.115,0.326,0.508,0.723,0.554s0.42,0.093,0.444,0.301
		c0.022,0.207,0.093,0.531,0.047,0.738c-0.047,0.207-0.327,0.831-0.841,0.416L15.092,8.526z"/>
	<path fill="#43B665" d="M9.305,4.417c0,0-0.188,0.115-0.28,0.277C8.931,4.855,8.931,4.995,8.931,4.995S9.05,5.063,9.169,5.063
		s0.439-0.115,0.439-0.277S9.305,4.416,9.305,4.417L9.305,4.417z"/>
	<path fill="#43B665" d="M9.023,3.032c0,0-0.561,0.669-0.84,0.737C7.903,3.84,7.437,4.07,7.319,4.163
		C7.203,4.255,6.806,4.094,7.04,3.909c0.233-0.185,0.862-0.6,0.724-0.646C7.623,3.217,6.993,3.656,6.736,3.841
		c-0.257,0.184-0.468,0.46-0.584,0.646c-0.117,0.185-0.093,0.67-0.35,0.762s-1.377,0.554-1.75,0.877S3.277,6.687,3.113,7.011
		C2.948,7.334,3.196,6.494,3.34,6.186c0,0,0.992-1.769,3.257-2.876C6.597,3.31,8.324,2.871,9.023,3.032L9.023,3.032z"/>
	<path fill="#43B665" d="M2.489,11.158c0,0-0.233-1.246,0.022-1.362c0.257-0.117,0.335-0.14,0.561,0.092
		c0.227,0.232,0.536,0.623,0.653,0.83c0.117,0.208,0.538,0.463,0.538,0.624c0,0.162-0.094,0.555,0,0.738
		c0.093,0.185,0.233,0.209,0.442,0.301s0.606,0.23,0.84,0.438c0.233,0.209,0.561,0.463,0.49,0.739
		c-0.069,0.277-0.209,0.693-0.163,0.854c0.047,0.162,0.21,0.439,0.022,0.555c-0.187,0.114-0.326,0.092-0.303,0.301
		c0.022,0.206,0.257,0.853,0.327,0.969C5.92,16.236,3.011,14.997,2.489,11.158z"/>
	<path fill="#43B665" d="M2.809,8.593c0.046-0.162,0.163-0.97,0.022-0.97C2.558,8.634,2.567,8.62,2.459,9.378L2.809,8.593z"/>
	<path fill="#357180" d="M3.336,6.478c-0.066,0-0.133-0.036-0.165-0.102c-0.214-0.42-0.294-0.708-0.298-0.721
		c-0.026-0.1,0.031-0.201,0.13-0.229s0.201,0.032,0.229,0.13l0,0c0.001,0.003,0.075,0.269,0.271,0.65
		c0.047,0.091,0.01,0.204-0.081,0.251C3.394,6.471,3.364,6.478,3.336,6.478z"/>
	<path fill="#357180" d="M9.657,9.658c-0.099,0-0.182-0.077-0.186-0.177C9.467,9.379,9.545,9.292,9.647,9.286
		c0.469-0.022,0.962-0.079,1.47-0.166c0.1-0.017,0.196,0.05,0.214,0.151c0.017,0.1-0.051,0.196-0.15,0.214
		c-0.521,0.091-1.031,0.147-1.515,0.172C9.663,9.657,9.66,9.657,9.657,9.658L9.657,9.658z M8.158,9.616
		c-0.007,0-0.014,0-0.021-0.001c-0.528-0.059-1.034-0.166-1.504-0.32c-0.097-0.032-0.15-0.138-0.118-0.234
		c0.032-0.098,0.138-0.151,0.235-0.118C7.195,9.088,7.677,9.19,8.178,9.247C8.28,9.258,8.354,9.35,8.343,9.452
		C8.332,9.547,8.251,9.617,8.158,9.616L8.158,9.616z M5.337,8.669c-0.035,0-0.068-0.01-0.1-0.029C4.8,8.361,4.4,8.027,4.053,7.646
		C3.983,7.571,3.988,7.452,4.063,7.384C4.14,7.314,4.257,7.319,4.327,7.396c0.325,0.356,0.7,0.67,1.108,0.93
		c0.088,0.055,0.112,0.17,0.059,0.257C5.458,8.638,5.398,8.668,5.337,8.669L5.337,8.669z"/>
	<path fill="#357180" d="M12.616,9.16c-0.082,0-0.156-0.055-0.18-0.138c-0.026-0.1,0.032-0.201,0.131-0.229
		c0.231-0.062,0.469-0.132,0.707-0.207c0.098-0.031,0.201,0.023,0.231,0.121c0.031,0.098-0.022,0.202-0.12,0.233
		c-0.244,0.076-0.486,0.147-0.721,0.211c-0.016,0.004-0.032,0.006-0.049,0.006V9.16z"/>
	<path fill="#ECCB19" d="M17.939,6.383c-0.199-0.396-0.823-0.14-0.979-0.062c0,0-0.041,0.021-0.112,0.061
		c-0.532-0.354-1.65-1.068-2.029-1.042c-0.073,0.006-0.306,0.107-0.256,0.152c0.389,0.356,1.104,0.997,1.483,1.333
		c-0.706,0.394-1.621,0.917-2.001,1.19c-0.246-0.157-0.597-0.365-0.732-0.355c-0.03,0.002-0.131,0.046-0.109,0.064
		c0.158,0.144,0.437,0.395,0.604,0.544c-0.034,0.055-0.062,0.124-0.021,0.175c0.039,0.046,0.104,0.07,0.157,0.081
		c0.02,0.223,0.052,0.613,0.072,0.831c0.003,0.028,0.097-0.024,0.118-0.048c0.089-0.103,0.134-0.511,0.156-0.805
		c0.454-0.136,1.442-0.548,2.187-0.866c0.041,0.481,0.127,1.506,0.178,2.055c0.006,0.066,0.229-0.058,0.276-0.112
		c0.258-0.296,0.36-1.699,0.393-2.31c0.057-0.025,0.088-0.039,0.088-0.039c0.155-0.077,0.723-0.449,0.523-0.847H17.939z"/>
</g>
</svg>
