<?xml version="1.0" encoding="utf-8"?>
<!-- Generator: Adobe Illustrator 16.0.0, SVG Export Plug-In . SVG Version: 6.00 Build 0)  -->
<!DOCTYPE svg PUBLIC "-//W3C//DTD SVG 1.1//EN" "http://www.w3.org/Graphics/SVG/1.1/DTD/svg11.dtd">
<svg version="1.1" id="Layer_1" xmlns="http://www.w3.org/2000/svg" xmlns:xlink="http://www.w3.org/1999/xlink" x="0px" y="0px"
	 width="20px" height="20px" viewBox="0 0 20 20" enable-background="new 0 0 20 20" xml:space="preserve">
<g>
	<path fill="#F3EA83" d="M19.69,10c0,5.352-4.339,9.69-9.69,9.69S0.31,15.352,0.31,10c0-5.351,4.339-9.69,9.69-9.69
		S19.69,4.648,19.69,10z"/>
	<path fill="#F9AB60" d="M8.692,5.215l-1.576,9.979l-0.383,0.007L8.314,5.175L8.692,5.215z"/>
	<path fill="#A6D0EE" d="M8.746,2.58c2.96,0.308,4.897,3.863,4.897,3.863c-0.837-0.611-2.461-0.779-3.34-0.347
		c0,0-0.851-0.425-1.882-0.531C7.39,5.459,6.6,5.713,6.6,5.713C5.913,5.117,4.338,4.906,3.304,5.37
		C3.304,5.37,5.788,2.273,8.746,2.58L8.746,2.58z"/>
	<path fill="#B1D8F2" d="M8.765,2.582c3.046,0.317,5.027,4.097,5.027,4.097c-0.859-0.647-2.531-0.821-3.438-0.355
		c0,0-0.874-0.45-1.935-0.559C7.357,5.655,6.543,5.928,6.543,5.928C5.838,5.296,4.217,5.077,3.151,5.575
		C3.151,5.575,5.72,2.268,8.765,2.582L8.765,2.582z"/>
	<path fill="#D1E8F8" d="M8.746,2.58c0.994,0,1.558,3.517,1.558,3.517S9.453,5.672,8.422,5.565C7.39,5.459,6.6,5.713,6.6,5.713
		S7.753,2.58,8.746,2.58L8.746,2.58z"/>
	<path fill="#4B4A4B" d="M8.986,2.645C8.977,2.73,8.86,2.789,8.727,2.775S8.489,2.68,8.499,2.594s0.126-0.145,0.26-0.131
		S8.995,2.559,8.986,2.645z"/>
	<path fill="#B17B48" d="M8.713,15.355c0,0.245-0.2,0.209-0.446,0.209H5.651c-0.246,0-0.446,0.036-0.446-0.209v-0.238
		c0-0.247,0.2-0.446,0.446-0.446h2.615c0.246,0,0.446,0.199,0.446,0.446V15.355z"/>
	<path fill="#996B39" d="M12.289,14.83c-0.056,0-0.104-0.036-0.121-0.091l-0.664-2.319c-0.02-0.065,0.018-0.135,0.086-0.153
		c0.066-0.019,0.135,0.019,0.153,0.086l0.666,2.318c0.019,0.066-0.019,0.135-0.086,0.154C12.312,14.827,12.299,14.83,12.289,14.83
		L12.289,14.83z"/>
	<path fill="#E3B071" d="M8.718,16.85c-0.023,0-0.047-0.006-0.068-0.021c-0.057-0.037-0.073-0.114-0.035-0.172l5.037-7.666
		c0.037-0.058,0.114-0.073,0.172-0.036c0.059,0.038,0.073,0.115,0.037,0.173l-5.038,7.666C8.799,16.83,8.759,16.85,8.718,16.85
		L8.718,16.85z"/>
	<path fill="#996B39" d="M15.774,15.771c-0.053,0-0.101-0.034-0.118-0.087l-2.05-6.553c-0.021-0.066,0.017-0.137,0.082-0.156
		c0.066-0.021,0.135,0.016,0.156,0.082l2.05,6.553c0.021,0.066-0.016,0.137-0.082,0.156c-0.012,0.004-0.025,0.006-0.036,0.006
		L15.774,15.771z"/>
	<path fill="#996B39" d="M16.077,15.86c-0.01,0-0.021-0.002-0.03-0.005l-3.873-1.003c-0.068-0.018-0.107-0.085-0.09-0.151
		c0.018-0.068,0.084-0.106,0.152-0.091l3.873,1.005c0.066,0.018,0.107,0.084,0.089,0.151C16.184,15.824,16.133,15.86,16.077,15.86z"
		/>
	<path fill="#AA7243" d="M15.774,15.771c-0.009,0-0.017-0.001-0.026-0.003l-3.653-0.817c-0.067-0.015-0.108-0.082-0.094-0.148
		c0.014-0.066,0.081-0.109,0.147-0.094l3.654,0.815c0.066,0.016,0.109,0.081,0.094,0.149C15.884,15.729,15.832,15.77,15.774,15.771
		L15.774,15.771z"/>
	<path fill="#B17B48" d="M12.647,17.659c-0.011,0-0.021,0-0.032-0.005l-3.873-1.002c-0.067-0.019-0.107-0.086-0.09-0.152
		c0.019-0.066,0.085-0.107,0.152-0.089l3.873,1.003c0.067,0.018,0.107,0.085,0.09,0.152C12.752,17.622,12.702,17.659,12.647,17.659z
		"/>
	<path fill="#B17B48" d="M12.345,15.01c-0.011,0-0.021-0.001-0.031-0.004l-3.598-0.9c-0.067-0.017-0.107-0.084-0.09-0.151
		c0.017-0.066,0.084-0.106,0.15-0.09l3.599,0.9c0.066,0.016,0.106,0.083,0.09,0.151C12.45,14.972,12.399,15.01,12.345,15.01z"/>
	<path fill="#D1E8F8" d="M13.568,9.267c-1.062,4.493-3.113,4.879-4.139,4.761l-0.614-0.153l-0.062,0.25l3.23,0.809l0.152-0.228
		l2.116,0.491c2.366-0.633,2.843-5.515,2.843-5.515L13.568,9.267z"/>
	<path fill="#A6D0EE" d="M11.479,14.795l0.506,0.138l0.151-0.228l2.117,0.491c2.366-0.633,2.843-5.515,2.843-5.515l-0.781-0.083
		C16.21,15.854,11.478,14.795,11.479,14.795L11.479,14.795z"/>
	<path fill="#A6D0EE" d="M13.568,9.267c-1.062,4.493-3.113,4.879-4.139,4.761l-0.614-0.153l-0.062,0.25l0.774,0.187
		c0,0,3.435,0.908,4.732-4.961L13.568,9.267z"/>
	<path fill="#E3B071" d="M12.482,17.929c-0.021,0-0.042-0.004-0.062-0.017c-0.06-0.034-0.08-0.109-0.045-0.17l4.704-8.219
		c0.034-0.061,0.11-0.081,0.17-0.046c0.06,0.034,0.08,0.109,0.046,0.169l-4.705,8.22C12.567,17.907,12.525,17.929,12.482,17.929z"/>
	<path fill="#A6D0EE" d="M14.973,9.439l0.706,0.076c0,0-0.263,5.343-4.719,5.148l-0.637-0.151
		C10.323,14.513,14.496,14.567,14.973,9.439L14.973,9.439z"/>
</g>
</svg>
