<?xml version="1.0" encoding="utf-8"?>
<!-- Generator: Adobe Illustrator 16.0.0, SVG Export Plug-In . SVG Version: 6.00 Build 0)  -->
<!DOCTYPE svg PUBLIC "-//W3C//DTD SVG 1.1//EN" "http://www.w3.org/Graphics/SVG/1.1/DTD/svg11.dtd">
<svg version="1.1" id="Layer_1" xmlns="http://www.w3.org/2000/svg" xmlns:xlink="http://www.w3.org/1999/xlink" x="0px" y="0px"
	 width="20px" height="20px" viewBox="0 0 20 20" enable-background="new 0 0 20 20" xml:space="preserve">
<g>
	<path fill="#49A0AE" d="M19.69,10c0,5.352-4.339,9.69-9.69,9.69S0.31,15.352,0.31,10c0-5.351,4.339-9.69,9.69-9.69
		S19.69,4.648,19.69,10z"/>
	<path fill="#786E57" d="M17.728,12.977c0,0.23-0.187,0.417-0.417,0.417H2.723c-0.23,0-0.417-0.187-0.417-0.417V7.19
		c0-0.229,0.187-0.417,0.417-0.417h14.588c0.23,0,0.417,0.188,0.417,0.417V12.977z"/>
	<path fill="#B1D4D7" d="M15.925,12.87c0,0.23-0.187,0.417-0.417,0.417H2.634c-0.23,0-0.417-0.187-0.417-0.417V7.084
		c0-0.23,0.187-0.417,0.417-0.417h12.874c0.23,0,0.417,0.187,0.417,0.417V12.87z"/>
	<path fill="#E3E1DC" d="M17.591,12.87c0,0.23-0.186,0.417-0.417,0.417h-1.775v-6.62h1.775c0.231,0,0.417,0.187,0.417,0.417V12.87z"
		/>
	<path fill="#9CC4C6" d="M12.025,8.128c0,0.164-0.133,0.296-0.297,0.296h-1.666c-0.163,0-0.296-0.132-0.296-0.296l0,0
		c0-0.163,0.133-0.295,0.296-0.295h1.668C11.895,7.833,12.025,7.965,12.025,8.128L12.025,8.128L12.025,8.128z"/>
	<path fill="#9CC4C6" d="M14.819,8.128c0,0.164-0.133,0.296-0.297,0.296h-1.665c-0.163,0-0.296-0.132-0.296-0.296l0,0
		c0-0.163,0.131-0.295,0.296-0.295h1.665C14.687,7.833,14.819,7.965,14.819,8.128L14.819,8.128L14.819,8.128z"/>
	<path fill="#9CC4C6" d="M12.025,11.83c0,0.162-0.133,0.295-0.297,0.295h-1.666c-0.163,0-0.296-0.133-0.296-0.295l0,0
		c0-0.164,0.133-0.296,0.296-0.296h1.668C11.895,11.534,12.025,11.667,12.025,11.83L12.025,11.83L12.025,11.83z"/>
	<path fill="#9CC4C6" d="M14.819,11.83c0,0.162-0.133,0.295-0.297,0.295h-1.665c-0.163,0-0.296-0.133-0.296-0.295l0,0
		c0-0.164,0.131-0.296,0.296-0.296h1.665C14.687,11.534,14.819,11.667,14.819,11.83L14.819,11.83L14.819,11.83z"/>
	<path fill="#9CC4C6" d="M10.089,9.66h4.436c0.164,0,0.297-0.132,0.297-0.295c0-0.164-0.133-0.296-0.297-0.296h-4.436
		c-0.163,0-0.295,0.132-0.295,0.296C9.794,9.528,9.927,9.66,10.089,9.66z"/>
	<path fill="#9CC4C6" d="M14.524,10.27h-4.436c-0.163,0-0.295,0.132-0.295,0.296c0,0.163,0.132,0.297,0.295,0.297h4.436
		c0.164,0,0.297-0.134,0.297-0.297C14.821,10.401,14.688,10.27,14.524,10.27z"/>
	<path fill="#786E57" d="M8.436,12.276c0,0-0.437-0.439-1.243-0.456l0.683-2.427L6.893,9.276V7.92H6.114V7.493
		c0-0.04-0.033-0.073-0.073-0.073H5.787c-0.041,0-0.073,0.032-0.073,0.073V7.92h-0.81v1.358L3.946,9.393L3.984,9.53l0.645,2.294
		c-0.439-0.016-0.933,0.092-1.404,0.456h2.829c0,0-0.003-0.002-0.006-0.005L8.436,12.276L8.436,12.276z"/>
	<path fill="#B1D4D7" d="M5.081,8.096h1.637v0.479H5.081V8.096z"/>
	<path fill="#B1D4D7" d="M7.049,10.277l-0.093,0.121l0.054-0.002c-0.009,0.074-0.068,0.136-0.146,0.149l-0.016-0.392l0.071-0.003
		c0.016-0.001,0.025-0.015,0.025-0.032s-0.014-0.03-0.027-0.029l-0.07,0.003l-0.004-0.079c0.04-0.016,0.066-0.055,0.064-0.099
		C6.904,9.858,6.856,9.814,6.8,9.817C6.744,9.82,6.698,9.867,6.701,9.923c0.001,0.046,0.033,0.083,0.076,0.095l0.003,0.078
		L6.718,10.1c-0.016,0-0.027,0.015-0.026,0.032s0.013,0.031,0.028,0.03l0.062-0.002l0.016,0.39c-0.075-0.01-0.135-0.065-0.148-0.136
		l0.05-0.002l-0.095-0.113L6.512,10.42l0.057-0.002c0.023,0.115,0.119,0.2,0.239,0.21c0.006,0.011,0.017,0.018,0.028,0.018
		s0.021-0.007,0.025-0.02c0.122-0.015,0.218-0.109,0.231-0.229l0.053-0.002L7.05,10.281L7.049,10.277z M6.8,9.886
		c0.02-0.001,0.034,0.014,0.035,0.031c0,0.01-0.004,0.019-0.012,0.025c-0.012-0.01-0.029-0.009-0.04,0.003
		c-0.01-0.006-0.016-0.015-0.016-0.026C6.767,9.901,6.781,9.887,6.8,9.886z"/>
	<path fill="#786E57" d="M17.594,7.994H16.59c-0.129,0-0.232-0.104-0.232-0.232l0,0c0-0.129,0.104-0.232,0.232-0.232h1.004V7.994
		L17.594,7.994z"/>
	<path fill="#786E57" d="M17.594,8.881H16.59c-0.129,0-0.232-0.104-0.232-0.232l0,0c0-0.129,0.104-0.232,0.232-0.232h1.004v0.467
		V8.881z"/>
	<path fill="#786E57" d="M17.594,9.822H16.59c-0.129,0-0.232-0.105-0.232-0.233l0,0c0-0.129,0.104-0.232,0.232-0.232h1.004V9.822
		L17.594,9.822z"/>
	<path fill="#9CC4C6" d="M15.321,6.666h0.152v6.619h-0.152V6.666z"/>
	<path fill="#786E57" d="M17.172,11.106c0.127,0,0.229,0.103,0.229,0.228v1.288c0,0.127-0.104,0.229-0.229,0.229l0,0
		c-0.125,0-0.229-0.104-0.229-0.229v-1.288C16.943,11.207,17.047,11.106,17.172,11.106L17.172,11.106z"/>
</g>
</svg>
