<?xml version="1.0" encoding="utf-8"?>
<!-- Generated by IcoMoon.io -->
<!DOCTYPE svg PUBLIC "-//W3C//DTD SVG 1.1//EN" "http://www.w3.org/Graphics/SVG/1.1/DTD/svg11.dtd">
<svg version="1.1" xmlns="http://www.w3.org/2000/svg" xmlns:xlink="http://www.w3.org/1999/xlink" width="20" height="20" viewBox="0 0 20 20">
<path fill="rgb(163, 213, 224)" d="M10 0.309c-5.352 0-9.69 4.338-9.69 9.691s4.339 9.691 9.69 9.691c5.352 0 9.691-4.339 9.691-9.691s-4.339-9.691-9.691-9.691z"></path>
<path fill="rgba(228, 242, 244, 0.5)" d="M16.87 10.99l-0.801-0.465c-0.068-0.040-0.152-0.042-0.222-0.006l-1.965 1.003-1.565-0.755 0.868-0.499c0.073-0.042 0.117-0.119 0.117-0.203s-0.046-0.16-0.12-0.201l-0.868-0.48 1.566-0.799 1.917 1.078c0.073 0.041 0.162 0.040 0.233-0.003l0.844-0.506c0.071-0.043 0.114-0.12 0.113-0.202s-0.046-0.158-0.118-0.199l-1.588-0.898 0.958-0.555c0.111-0.064 0.148-0.206 0.084-0.317l-0.464-0.803c-0.031-0.054-0.083-0.093-0.143-0.108s-0.124-0.006-0.177 0.026l-0.914 0.549v-1.826c0-0.082-0.043-0.158-0.114-0.199s-0.158-0.044-0.229-0.004l-0.928 0.506c-0.074 0.041-0.121 0.119-0.121 0.204v2.114l-1.446 0.99v-0.969c0-0.083-0.044-0.16-0.116-0.201s-0.16-0.042-0.232 0l-0.812 0.469 0.147-1.716 1.797-1.078c0.070-0.042 0.113-0.117 0.113-0.199v-1.013c0-0.082-0.043-0.158-0.114-0.2s-0.158-0.043-0.23-0.003l-1.554 0.863v-0.872c0-0.128-0.104-0.232-0.232-0.232h-0.971c-0.128 0-0.232 0.104-0.232 0.232v0.876l-1.598-0.868c-0.072-0.039-0.159-0.037-0.229 0.004s-0.114 0.118-0.114 0.199v1.013c0 0.082 0.044 0.158 0.115 0.2l1.835 1.077 0.124 1.729-0.875-0.484c-0.072-0.040-0.16-0.039-0.23 0.003s-0.114 0.118-0.114 0.2v0.969l-1.445-0.99v-2.114c0-0.082-0.043-0.157-0.113-0.199l-0.843-0.506c-0.072-0.043-0.161-0.044-0.234-0.003s-0.118 0.118-0.118 0.202v1.833l-0.96-0.557c-0.054-0.032-0.12-0.040-0.181-0.022s-0.112 0.059-0.141 0.115l-0.422 0.803c-0.057 0.108-0.020 0.241 0.083 0.305l0.89 0.552-1.6 0.905c-0.072 0.041-0.117 0.116-0.118 0.199s0.042 0.159 0.113 0.202l0.844 0.506c0.071 0.043 0.159 0.044 0.231 0.004l1.96-1.079 1.553 0.798-0.869 0.481c-0.073 0.041-0.119 0.117-0.12 0.201s0.044 0.161 0.117 0.203l0.87 0.5-1.551 0.754-1.965-1.003c-0.072-0.037-0.158-0.033-0.226 0.009l-0.759 0.465c-0.069 0.042-0.111 0.118-0.111 0.199s0.043 0.156 0.113 0.198l1.552 0.931-0.953 0.523c-0.054 0.030-0.094 0.080-0.111 0.139s-0.010 0.123 0.020 0.177l0.421 0.76c0.030 0.054 0.080 0.094 0.14 0.111s0.123 0.009 0.177-0.021l1.005-0.565v1.798c0 0.082 0.043 0.158 0.114 0.2s0.158 0.043 0.23 0.004l0.844-0.464c0.074-0.041 0.12-0.119 0.12-0.203v-2.073l1.445-0.998v0.94c0 0.081 0.043 0.157 0.113 0.199s0.156 0.044 0.228 0.006l0.88-0.468-0.125 1.746-1.832 1.036c-0.073 0.041-0.118 0.118-0.118 0.202v0.97c0 0.083 0.045 0.16 0.117 0.201s0.161 0.041 0.233-0.001l1.591-0.934v1.072c0 0.128 0.104 0.232 0.232 0.232h0.971c0.128 0 0.232-0.104 0.232-0.232v-1.067l1.548 0.929c0.072 0.043 0.161 0.044 0.234 0.003s0.118-0.118 0.118-0.202v-0.97c0-0.083-0.044-0.159-0.116-0.201l-1.794-1.037-0.148-1.734 0.816 0.453c0.072 0.040 0.16 0.039 0.23-0.003s0.114-0.118 0.114-0.2v-0.94l1.446 0.998v2.073c0 0.088 0.050 0.168 0.128 0.208l0.928 0.464c0.072 0.035 0.157 0.032 0.226-0.010s0.11-0.117 0.11-0.197v-1.791l0.96 0.557c0.054 0.031 0.118 0.040 0.178 0.023s0.111-0.057 0.141-0.111l0.422-0.76c0.030-0.054 0.037-0.118 0.020-0.177s-0.057-0.109-0.112-0.139l-0.949-0.521 1.587-0.932c0.071-0.042 0.115-0.118 0.115-0.201s-0.044-0.159-0.116-0.2z"></path>
</svg>
