<?xml version="1.0" encoding="utf-8"?>
<!-- Generated by IcoMoon.io -->
<!DOCTYPE svg PUBLIC "-//W3C//DTD SVG 1.1//EN" "http://www.w3.org/Graphics/SVG/1.1/DTD/svg11.dtd">
<svg version="1.1" xmlns="http://www.w3.org/2000/svg" xmlns:xlink="http://www.w3.org/1999/xlink" width="20" height="20" viewBox="0 0 20 20">
<path fill="rgb(51, 77, 92)" d="M10 0.309c-5.352 0-9.69 4.338-9.69 9.691s4.339 9.691 9.69 9.691c5.352 0 9.691-4.339 9.691-9.691s-4.339-9.691-9.691-9.691z"></path>
<path fill="rgb(145, 145, 93)" d="M1.248 14.165c1.558 3.268 4.891 5.526 8.752 5.526 3.859 0 7.19-2.255 8.749-5.519l-17.502-0.007z"></path>
<path fill="rgb(73, 99, 112)" d="M16.121 2.488c-0.234-0.191-0.476-0.371-0.728-0.54-1.030-0.691-2.2-1.19-3.458-1.445-0.039-0.008-0.078-0.013-0.117-0.021-0.589-0.112-1.197-0.173-1.818-0.173-0.777 0-1.531 0.094-2.255 0.267-0.261 0.062-0.518 0.135-0.771 0.218-1.095 0.36-2.103 0.909-2.987 1.61-0.426 0.338-0.825 0.71-1.189 1.114-0.757 0.841-1.367 1.815-1.795 2.883 0.409 0.736 1.148 1.276 2.047 1.391 0.805 0.102 1.57-0.158 2.138-0.651 0.419 0.438 0.984 0.741 1.632 0.824 0.566 0.072 1.114-0.035 1.587-0.276 0.429 0.566 1.076 0.967 1.836 1.063 1.074 0.136 2.080-0.371 2.635-1.221 0.373 0.288 0.823 0.486 1.325 0.55 0.893 0.113 1.738-0.219 2.317-0.822 0.947-0.076 1.778-0.644 2.207-1.473-0.62-1.282-1.515-2.406-2.607-3.297z"></path>
<path fill="rgba(36, 61, 73, 0.30000001192092896)" d="M14.878 1.628c-0.221-0.129-0.446-0.252-0.678-0.364-0.548-0.264-1.124-0.476-1.723-0.634-0.031-0.008-0.061-0.016-0.092-0.024-0.603-0.153-1.227-0.249-1.869-0.283-0.171-0.009-0.343-0.014-0.515-0.014-0.461 0-0.914 0.034-1.358 0.097-0.853 0.12-1.671 0.349-2.437 0.675-0.037 0.016-0.074 0.034-0.111 0.050-0.339 0.149-0.668 0.318-0.985 0.504-1.070 0.627-2.008 1.453-2.765 2.427-0.028 0.035-0.056 0.070-0.083 0.106 0.036 0.014 0.073 0.026 0.109 0.039 0.231 1.218 1.249 2.18 2.544 2.281 0.585 0.045 1.142-0.092 1.615-0.363 0.469 0.56 1.153 0.939 1.939 1 1.11 0.086 2.117-0.486 2.645-1.386 0.397 0.277 0.87 0.458 1.388 0.498 0.923 0.072 1.774-0.312 2.338-0.96 1.049-0.136 1.931-0.857 2.283-1.846-0.652-0.707-1.409-1.315-2.244-1.803z"></path>
<path fill="rgb(51, 77, 92)" d="M10 0.309c-2.917 0-5.531 1.291-7.307 3.33 0.16-0.015 0.317-0.042 0.469-0.081 0.49 0.899 1.444 1.509 2.54 1.509 0.732 0 1.398-0.274 1.907-0.722 0.509 0.448 1.176 0.722 1.908 0.722 1.255 0 2.319-0.8 2.72-1.917 0.479 0.353 1.069 0.564 1.71 0.564 0.933 0 1.76-0.444 2.289-1.129-1.686-1.419-3.861-2.275-6.236-2.275z"></path>
<path fill="rgb(59, 85, 99)" d="M16.031 9.77c-0.037-0.393-0.194-0.687-0.455-0.851-0.231-0.144-0.526-0.177-0.877-0.097-0.413 0.094-0.678 0.393-0.674 0.761 0.003 0.352 0.252 0.637 0.619 0.71 0.072 0.014 0.144-0.026 0.16-0.089s-0.028-0.127-0.1-0.141c-0.283-0.056-0.411-0.283-0.413-0.484-0.002-0.203 0.121-0.449 0.472-0.529 0.271-0.062 0.491-0.041 0.656 0.062 0.193 0.12 0.315 0.362 0.344 0.679 0.021 0.228-0.064 0.415-0.261 0.57-1.53 1.207-8.655-0.020-8.727-0.033s-0.143 0.029-0.158 0.093c-0.015 0.064 0.031 0.126 0.104 0.139 0.211 0.037 3.768 0.649 6.419 0.556 1.109-0.039 2.059-0.201 2.539-0.58 0.261-0.206 0.379-0.463 0.351-0.767z"></path>
<path fill="rgb(59, 85, 99)" d="M15.064 12.599c-1.226-1.131-8.136-0.291-8.429-0.254-0.073 0.009-0.125 0.069-0.115 0.133s0.077 0.11 0.15 0.1c1.962-0.243 7.26-0.683 8.2 0.185 0.111 0.103 0.152 0.22 0.123 0.357-0.050 0.238-0.161 0.411-0.314 0.49-0.129 0.066-0.295 0.069-0.491 0.008-0.249-0.077-0.319-0.263-0.3-0.411 0.018-0.145 0.13-0.303 0.339-0.329 0.073-0.009 0.125-0.069 0.115-0.133s-0.076-0.11-0.15-0.101c-0.306 0.037-0.535 0.254-0.57 0.539-0.037 0.298 0.15 0.556 0.475 0.657 0.136 0.042 0.263 0.061 0.382 0.057 0.12-0.004 0.232-0.032 0.333-0.084 0.225-0.116 0.379-0.342 0.444-0.653 0.045-0.214-0.020-0.403-0.192-0.562z"></path>
<path fill="rgb(59, 85, 99)" d="M18.834 10.259c-0.042-0.45-0.221-0.787-0.519-0.973-0.263-0.164-0.6-0.201-1-0.11-0.469 0.107-0.77 0.446-0.766 0.864 0.004 0.399 0.286 0.723 0.702 0.806 0.072 0.014 0.144-0.026 0.161-0.089s-0.028-0.127-0.1-0.141c-0.34-0.067-0.494-0.339-0.496-0.579-0.002-0.243 0.145-0.536 0.564-0.632 0.321-0.073 0.583-0.048 0.779 0.075 0.229 0.143 0.374 0.428 0.409 0.802 0.019 0.204-0.045 0.373-0.197 0.516-0.669 0.634-2.911 0.668-5.15 0.649-3.122-0.027-6.521-0.085-6.555-0.086-0.075-0.003-0.135 0.050-0.137 0.116s0.056 0.119 0.13 0.12c0.034 0.001 3.433 0.058 6.557 0.086 0.745 0.007 1.473 0.007 2.143-0.016 1.485-0.052 2.693-0.222 3.206-0.708 0.203-0.193 0.293-0.427 0.268-0.698z"></path>
<path fill="rgb(53, 31, 13)" d="M6.623 6.888l-0.593-0.322c-1.941 2.503-1.843 10.311-1.843 10.311l0.363 0.287 0.325-0.201c-0.377-0.527 0.365-9.915 1.748-10.075z"></path>
<path fill="rgb(104, 177, 71)" d="M12.106 9.219c-2.755-2.067-5.709-2.987-5.709-2.987 1.98 2.070 4.241 3.766 4.241 3.766 2.391 1.376 1.467-0.779 1.467-0.779z"></path>
<path fill="rgb(134, 192, 109)" d="M6.397 6.232c1.98 2.070 4.241 3.766 4.241 3.766 1.064 0.612 1.472 0.526 1.596 0.241 0.156-0.355-5.838-4.007-5.838-4.007z"></path>
<path fill="rgb(104, 177, 71)" d="M6.34 6.423c1.256-2.361 4.873-2.713 4.873-2.713-3.817-3.617-4.873 2.713-4.873 2.713z"></path>
<path fill="rgb(134, 192, 109)" d="M6.34 6.423c1.256-2.361 4.873-2.713 4.873-2.713-3.366-2.059-4.873 2.713-4.873 2.713z"></path>
<path fill="rgb(104, 177, 71)" d="M6.483 6.122c0 0 5.342-2.811 8.201 0.217-0 0-2-4.594-8.201-0.217z"></path>
<path fill="rgb(134, 192, 109)" d="M6.483 6.122c0 0 5.219-1.719 8.201 0.217-0 0-2.191-3.032-8.201-0.217z"></path>
<path fill="rgb(104, 177, 71)" d="M6.496 6.302c6.388-0.516 7.941 1.739 7.996 1.822-2.209-3.526-7.996-1.822-7.996-1.822z"></path>
<path fill="rgb(134, 192, 109)" d="M6.496 6.302c0 0 5.277 0.456 7.998 1.825 0 0-1.831-2.485-7.998-1.825z"></path>
<path fill="rgb(241, 224, 66)" d="M6.505 5.874c-0.157-0.11-0.52 0.102-0.67 0.317s-0.030 0.353 0.127 0.462c0.157 0.11 0.292 0.15 0.442-0.065s0.258-0.604 0.101-0.714z"></path>
<path fill="rgb(252, 238, 53)" d="M7.153 6.138c-0.168-0.211-0.573-0.328-0.661-0.258-0.049 0.039-0.066 0.491 0.102 0.702s0.351 0.185 0.505 0.062c0.154-0.122 0.221-0.295 0.054-0.506z"></path>
<path fill="rgb(252, 239, 87)" d="M6.475 5.801c-0.078 0-0.445 0.429-0.445 0.765s0.199 0.453 0.445 0.453c0.246 0 0.445-0.117 0.445-0.453s-0.305-0.765-0.445-0.765z"></path>
</svg>
