<?xml version="1.0" encoding="utf-8"?>
<!-- Generator: Adobe Illustrator 16.0.0, SVG Export Plug-In . SVG Version: 6.00 Build 0)  -->
<!DOCTYPE svg PUBLIC "-//W3C//DTD SVG 1.1//EN" "http://www.w3.org/Graphics/SVG/1.1/DTD/svg11.dtd">
<svg version="1.1" id="Layer_1" xmlns="http://www.w3.org/2000/svg" xmlns:xlink="http://www.w3.org/1999/xlink" x="0px" y="0px"
	 width="20px" height="20px" viewBox="0 0 20 20" enable-background="new 0 0 20 20" xml:space="preserve">
<g>
	<path fill="#9CBDBF" d="M19.69,10c0,5.351-4.338,9.69-9.69,9.69S0.31,15.353,0.31,10c0-5.352,4.338-9.69,9.69-9.69
		S19.69,4.647,19.69,10z"/>
	<path fill="#626463" d="M10.485,10.243l-4.175,4.175l-0.688-0.539l4.248-4.25L10.485,10.243z"/>
	<path fill="#4C4D4D" d="M6.415,14.495c-1.1,1.319-2.639,0.77-2.913-0.604c-0.107-0.539,0.715-1.265,0.989-0.769
		c-0.22,1.868,1.094,0.652,1.094,0.652s0.348,0.061,0.561,0.273C6.359,14.261,6.416,14.495,6.415,14.495L6.415,14.495z"/>
	<path fill="#E84849" d="M14.371,5.649c4.803,4.803,0.002,10.776,0.002,10.776c-0.066-1.751-1.724-3.407-3.407-3.407
		c0,0-0.362-1.442-1.416-2.495S7.187,9.239,7.187,9.239c0.087-1.597-1.448-3.285-3.361-3.361C3.825,5.878,9.567,0.846,14.371,5.649z
		"/>
	<path fill="#F06668" d="M14.371,5.649c0.917,0.918-2.698,6.475-3.405,7.37c0,0-0.362-1.442-1.416-2.495S7.187,9.241,7.187,9.241
		C8.002,8.456,13.696,4.976,14.371,5.649L14.371,5.649z"/>
	<path fill="#4B4A4B" d="M14.703,6.109c-0.14,0.14-0.43,0.076-0.648-0.143s-0.282-0.509-0.144-0.649
		c0.14-0.139,0.43-0.075,0.648,0.144C14.776,5.68,14.842,5.97,14.703,6.109L14.703,6.109z"/>
</g>
</svg>
