<?xml version="1.0" encoding="utf-8"?>
<!-- Generated by IcoMoon.io -->
<!DOCTYPE svg PUBLIC "-//W3C//DTD SVG 1.1//EN" "http://www.w3.org/Graphics/SVG/1.1/DTD/svg11.dtd">
<svg version="1.1" xmlns="http://www.w3.org/2000/svg" xmlns:xlink="http://www.w3.org/1999/xlink" width="20" height="20" viewBox="0 0 20 20">
<path fill="rgb(51, 77, 92)" d="M10 0.309c-5.352 0-9.69 4.338-9.69 9.691s4.339 9.691 9.69 9.691c5.352 0 9.691-4.339 9.691-9.691s-4.339-9.691-9.691-9.691z"></path>
<path fill="rgb(26, 84, 55)" d="M1.248 14.165c1.558 3.267 4.891 5.526 8.752 5.526 3.858 0 7.19-2.255 8.749-5.519l-17.502-0.007z"></path>
<path fill="rgb(73, 99, 112)" d="M16.121 2.488c-0.234-0.191-0.476-0.371-0.728-0.54-1.030-0.691-2.2-1.19-3.458-1.445-0.039-0.008-0.078-0.013-0.117-0.021-0.589-0.112-1.197-0.173-1.818-0.173-0.777 0-1.531 0.094-2.255 0.267-0.261 0.062-0.518 0.135-0.771 0.218-1.095 0.36-2.103 0.909-2.987 1.61-0.426 0.338-0.825 0.71-1.189 1.114-0.757 0.841-1.367 1.815-1.795 2.883 0.409 0.736 1.148 1.276 2.047 1.391 0.805 0.102 1.57-0.158 2.138-0.651 0.419 0.438 0.984 0.741 1.632 0.824 0.566 0.072 1.114-0.035 1.587-0.276 0.429 0.566 1.076 0.967 1.836 1.063 1.074 0.137 2.080-0.371 2.635-1.221 0.373 0.288 0.823 0.486 1.325 0.55 0.893 0.113 1.738-0.219 2.317-0.822 0.947-0.076 1.778-0.643 2.207-1.473-0.62-1.282-1.515-2.406-2.607-3.297z"></path>
<path fill="rgb(100, 137, 155)" d="M15.977 2.376c-1.647-1.293-3.721-2.066-5.978-2.066-2.996 0-5.673 1.36-7.451 3.495 2.263 2.842 7.551 5.544 7.924 6.756 0.621 2.022-0.71 3.689-1.043 4.402-0.297 0.636 0.393 1.105 0.393 1.105 0.194 0.045-0.293-0.624 0.055-1.014 0.599-0.672 2.248-2.372 2.015-4.531-0.158-1.456-0.921-2.054-0.808-3.152 0.235-2.269 3.19-4.113 4.893-4.995z"></path>
<path fill="rgba(36, 61, 73, 0.30000001192092896)" d="M14.878 1.628c-0.221-0.129-0.446-0.252-0.678-0.364-0.548-0.264-1.124-0.476-1.723-0.634-0.031-0.008-0.062-0.016-0.092-0.024-0.603-0.152-1.227-0.249-1.869-0.282-0.171-0.009-0.343-0.014-0.515-0.014-0.461 0-0.914 0.034-1.358 0.097-0.853 0.12-1.671 0.349-2.437 0.675-0.037 0.016-0.073 0.034-0.11 0.050-0.339 0.15-0.668 0.318-0.985 0.504-1.070 0.627-2.008 1.453-2.765 2.427-0.028 0.036-0.056 0.070-0.083 0.106 0.035 0.014 0.072 0.026 0.109 0.038 0.231 1.218 1.249 2.181 2.544 2.281 0.585 0.045 1.142-0.092 1.616-0.363 0.469 0.56 1.153 0.939 1.939 1 1.11 0.086 2.117-0.486 2.645-1.386 0.397 0.277 0.87 0.458 1.388 0.498 0.923 0.072 1.774-0.312 2.338-0.96 1.049-0.136 1.931-0.857 2.283-1.846-0.652-0.707-1.409-1.315-2.245-1.803z"></path>
<path fill="rgb(51, 77, 92)" d="M10 0.309c-2.917 0-5.531 1.291-7.307 3.33 0.16-0.015 0.317-0.042 0.469-0.081 0.49 0.899 1.444 1.509 2.54 1.509 0.732 0 1.398-0.274 1.907-0.722 0.509 0.448 1.176 0.722 1.908 0.722 1.255 0 2.319-0.8 2.72-1.917 0.479 0.353 1.070 0.564 1.71 0.564 0.933 0 1.76-0.444 2.289-1.129-1.685-1.419-3.861-2.275-6.236-2.275z"></path>
<path fill="rgba(100, 137, 155, 0.4000000059604645)" d="M11.557 15.619c0 0.448-0.363 0.81-0.81 0.81s-0.81-0.363-0.81-0.81c0-0.448 0.363-0.81 0.81-0.81s0.81 0.363 0.81 0.81z"></path>
<path fill="rgba(100, 137, 155, 0.4000000059604645)" d="M9.712 14.705c-0.448 0-0.81 0.363-0.81 0.81s0.363 0.81 0.81 0.81c0.448 0 0.81-0.363 0.81-0.81s-0.363-0.81-0.81-0.81z"></path>
<path fill="rgba(100, 137, 155, 0.4000000059604645)" d="M9.384 15.86c0 0.448-0.363 0.81-0.81 0.81s-0.81-0.363-0.81-0.81c0-0.448 0.363-0.81 0.81-0.81s0.81 0.363 0.81 0.81z"></path>
<path fill="rgba(100, 137, 155, 0.4000000059604645)" d="M8.091 15.36c-0.448 0-0.81 0.363-0.81 0.81s0.363 0.81 0.81 0.81c0.448 0 0.811-0.363 0.811-0.81s-0.363-0.811-0.811-0.811z"></path>
<path fill="rgba(100, 137, 155, 0.4000000059604645)" d="M11.315 15.377c-0.448 0-0.81 0.363-0.81 0.81s0.363 0.81 0.811 0.81c0.448 0 0.81-0.363 0.81-0.81s-0.363-0.81-0.81-0.81z"></path>
<path fill="rgba(100, 137, 155, 0.4000000059604645)" d="M10.074 15.757c-0.448 0-0.811 0.363-0.811 0.81s0.363 0.81 0.811 0.81 0.81-0.363 0.81-0.81c0-0.448-0.363-0.81-0.81-0.81z"></path>
<path fill="rgba(100, 137, 155, 0.4000000059604645)" d="M9.815 16.567c0 0.448-0.363 0.81-0.81 0.81s-0.81-0.363-0.81-0.81c0-0.448 0.363-0.81 0.81-0.81s0.81 0.363 0.81 0.81z"></path>
</svg>
