<?xml version="1.0" encoding="utf-8"?>
<!-- Generated by IcoMoon.io -->
<!DOCTYPE svg PUBLIC "-//W3C//DTD SVG 1.1//EN" "http://www.w3.org/Graphics/SVG/1.1/DTD/svg11.dtd">
<svg version="1.1" xmlns="http://www.w3.org/2000/svg" xmlns:xlink="http://www.w3.org/1999/xlink" width="20" height="20" viewBox="0 0 20 20">
<path fill="rgb(208, 232, 234)" d="M10 0.309c-5.352 0-9.69 4.338-9.69 9.691s4.339 9.691 9.69 9.691c5.352 0 9.691-4.339 9.691-9.691s-4.339-9.691-9.691-9.691z"></path>
<path fill="rgb(232, 223, 61)" d="M10.024 3.552c-2.218 0-4.017 1.798-4.017 4.017s1.798 4.017 4.017 4.017c2.218 0 4.017-1.798 4.017-4.017s-1.798-4.017-4.017-4.017z"></path>
<path fill="rgba(255, 255, 255, 0.8999999761581421)" d="M15.408 9.119c-0.116-1.319-1.278-2.295-2.597-2.179-0.206 0.018-0.402 0.064-0.588 0.13-0.47-0.707-1.301-1.142-2.207-1.063-0.604 0.053-1.135 0.327-1.523 0.734-0.453-0.333-1.023-0.512-1.627-0.459-1.036 0.091-1.857 0.829-2.107 1.78-0.422-0.257-0.924-0.388-1.453-0.342-1.319 0.116-2.294 1.278-2.179 2.597 0.096 1.102 0.925 1.962 1.964 2.148 0.364 0.991 1.355 1.657 2.457 1.561 0.498-0.043 0.947-0.237 1.307-0.531 0.472 0.405 1.1 0.628 1.769 0.569 0.945-0.083 1.711-0.704 2.028-1.534 0.373 0.178 0.795 0.263 1.236 0.224 0.785-0.069 1.447-0.51 1.83-1.134 1.063-0.322 1.792-1.353 1.691-2.503z"></path>
<path fill="rgba(255, 255, 255, 0.8999999761581421)" d="M18.22 11.637c-0.087-0.993-0.963-1.728-1.956-1.641-0.155 0.014-0.303 0.048-0.443 0.098-0.354-0.532-0.98-0.86-1.662-0.8-0.455 0.040-0.855 0.247-1.147 0.553-0.341-0.251-0.77-0.385-1.225-0.345-0.78 0.068-1.399 0.624-1.587 1.341-0.317-0.193-0.696-0.292-1.095-0.258-0.993 0.087-1.728 0.962-1.641 1.956 0.073 0.83 0.696 1.477 1.479 1.617 0.274 0.746 1.020 1.248 1.85 1.176 0.375-0.033 0.713-0.179 0.984-0.4 0.356 0.305 0.828 0.473 1.332 0.429 0.711-0.062 1.288-0.53 1.527-1.156 0.281 0.134 0.599 0.198 0.931 0.169 0.591-0.052 1.090-0.384 1.378-0.854 0.801-0.242 1.349-1.019 1.274-1.885z"></path>
</svg>
