<?xml version="1.0" encoding="utf-8"?>
<!-- Generator: Adobe Illustrator 16.0.0, SVG Export Plug-In . SVG Version: 6.00 Build 0)  -->
<!DOCTYPE svg PUBLIC "-//W3C//DTD SVG 1.1//EN" "http://www.w3.org/Graphics/SVG/1.1/DTD/svg11.dtd">
<svg version="1.1" id="Layer_1" xmlns="http://www.w3.org/2000/svg" xmlns:xlink="http://www.w3.org/1999/xlink" x="0px" y="0px"
	 width="20px" height="20px" viewBox="0 0 20 20" enable-background="new 0 0 20 20" xml:space="preserve">
<g>
	<path fill="#F2BE3E" d="M19.69,10c0,5.351-4.338,9.69-9.69,9.69S0.31,15.353,0.31,10c0-5.352,4.338-9.69,9.69-9.69
		S19.69,4.647,19.69,10z"/>
	<path fill="#FFFFFF" d="M11.173,11.874V3.376c0-0.647-0.524-1.173-1.173-1.173S8.827,2.729,8.827,3.376v8.497
		c-1.118,0.462-1.905,1.562-1.905,2.845c0,1.699,1.379,3.078,3.078,3.078s3.077-1.378,3.077-3.078
		C13.077,13.435,12.29,12.335,11.173,11.874L11.173,11.874z"/>
	<path fill="#E84849" d="M10.8,13.854V8.062c0-0.441-0.359-0.801-0.8-0.801S9.2,7.62,9.2,8.062v5.791
		C8.438,14.169,11.56,14.169,10.8,13.854z"/>
	<path fill="#E84849" d="M12.789,14.763c0,1.538-1.247,2.787-2.787,2.787c-1.539,0-2.787-1.249-2.787-2.787s1.248-2.786,2.787-2.786
		C11.542,11.977,12.789,13.225,12.789,14.763z"/>
	<path fill="#F59C9E" d="M9.202,3.646v0.426h1.024V3.646H9.202z M9.202,5.493h1.33V5.067h-1.33V5.493z M9.202,6.916h1.024V6.489
		H9.202V6.916z"/>
	<path fill="#F59C9E" d="M9.202,8.35h1.33V7.924h-1.33V8.35z M9.202,11.258h1.33v-0.427h-1.33V11.258z M9.202,9.772h1.024V9.346
		H9.202V9.772z"/>
	<path fill="#F59C9E" d="M7.964,15.013c-0.404-0.402,0.039-1.521,0.442-1.924c0.403-0.402,1.381-0.786,1.784-0.383
		C10.593,13.109,8.368,15.416,7.964,15.013z"/>
</g>
</svg>
