<?xml version="1.0" encoding="utf-8"?>
<!-- Generated by IcoMoon.io -->
<!DOCTYPE svg PUBLIC "-//W3C//DTD SVG 1.1//EN" "http://www.w3.org/Graphics/SVG/1.1/DTD/svg11.dtd">
<svg version="1.1" xmlns="http://www.w3.org/2000/svg" xmlns:xlink="http://www.w3.org/1999/xlink" width="20" height="20" viewBox="0 0 20 20">
<path fill="rgb(208, 232, 234)" d="M10 0.309c-5.352 0-9.69 4.338-9.69 9.691s4.339 9.691 9.69 9.691c5.352 0 9.691-4.339 9.691-9.691s-4.339-9.691-9.691-9.691z"></path>
<path fill="rgb(232, 223, 61)" d="M9.922 5.49c-2.218 0-4.016 1.798-4.016 4.017s1.798 4.017 4.016 4.017c2.218 0 4.017-1.798 4.017-4.017s-1.798-4.017-4.017-4.017z"></path>
<path fill="rgba(255, 255, 255, 0.8999999761581421)" d="M8.35 11.073c-0.109 0-0.215 0.015-0.317 0.041-0.215-0.395-0.635-0.663-1.116-0.663-0.322 0-0.614 0.12-0.838 0.318-0.224-0.197-0.517-0.318-0.839-0.318-0.551 0-1.019 0.352-1.195 0.843-0.211-0.155-0.47-0.248-0.752-0.248-0.702 0-1.271 0.569-1.271 1.271 0 0.586 0.398 1.079 0.938 1.225 0.146 0.54 0.639 0.938 1.225 0.938 0.265 0 0.511-0.081 0.715-0.22 0.231 0.236 0.552 0.383 0.908 0.383 0.503 0 0.936-0.293 1.142-0.717 0.189 0.111 0.408 0.176 0.643 0.176 0.418 0 0.788-0.203 1.019-0.514 0.576-0.121 1.009-0.631 1.009-1.244 0-0.702-0.569-1.271-1.271-1.271z"></path>
<path fill="rgba(255, 255, 255, 0.8999999761581421)" d="M17.071 7.605c-0.109 0-0.215 0.015-0.317 0.041-0.216-0.395-0.635-0.663-1.117-0.663-0.322 0-0.614 0.12-0.838 0.318-0.224-0.197-0.517-0.317-0.839-0.317-0.551 0-1.019 0.352-1.195 0.843-0.211-0.155-0.47-0.248-0.752-0.248-0.702 0-1.271 0.569-1.271 1.271 0 0.586 0.398 1.079 0.938 1.225 0.146 0.54 0.639 0.938 1.225 0.938 0.265 0 0.511-0.081 0.715-0.22 0.231 0.236 0.552 0.383 0.908 0.383 0.503 0 0.936-0.293 1.143-0.717 0.189 0.111 0.408 0.176 0.642 0.176 0.418 0 0.788-0.203 1.019-0.514 0.576-0.121 1.009-0.631 1.009-1.244 0-0.702-0.569-1.271-1.271-1.271z"></path>
</svg>
