<?xml version="1.0" encoding="utf-8"?>
<!-- Generator: Adobe Illustrator 16.0.0, SVG Export Plug-In . SVG Version: 6.00 Build 0)  -->
<!DOCTYPE svg PUBLIC "-//W3C//DTD SVG 1.1//EN" "http://www.w3.org/Graphics/SVG/1.1/DTD/svg11.dtd">
<svg version="1.1" id="Layer_1" xmlns="http://www.w3.org/2000/svg" xmlns:xlink="http://www.w3.org/1999/xlink" x="0px" y="0px"
	 width="20px" height="20px" viewBox="0 0 20 20" enable-background="new 0 0 20 20" xml:space="preserve">
<g>
	<path fill="#D62127" d="M19.69,10c0,5.352-4.339,9.69-9.69,9.69S0.31,15.352,0.31,10c0-5.351,4.339-9.69,9.69-9.69
		S19.69,4.648,19.69,10z"/>
	<path fill="#BB813C" d="M10.679,16.122c0,0.575-0.051,1.04-0.439,1.04H9.743c-0.388,0-0.438-0.467-0.438-1.04v-3.381
		c0-0.575,0.051-1.04,0.438-1.04h0.496c0.389,0,0.439,0.465,0.439,1.04V16.122z"/>
	<path fill="#C58540" d="M9.993,17.162H9.742c-0.388,0-0.438-0.467-0.438-1.04v-3.381c0-0.575,0.051-1.04,0.438-1.04h0.271
		L9.993,17.162L9.993,17.162z"/>
	<path fill="#65A844" d="M12.612,11.506h1.569l-2.809-3.783h0.857L9.999,4.175L9.989,4.19L7.768,7.723h0.858l-2.809,3.783h1.569
		L4.46,15.398h11.076L12.612,11.506z"/>
	<path fill="#7FBB42" d="M14.954,14.621l-2.342-3.115h1.569l-1.539-2.07C9.87,9.407,8.781,7.504,8.436,6.661L7.768,7.724h0.858
		L7.377,9.405c0.202,0.544,0.617,1.462,1.362,2.37c1.506,1.835,3.595,2.79,6.213,2.847L14.954,14.621z"/>
	<path fill="#9BCA3B" d="M12.414,9.123l-1.039-1.4h0.856L10,4.175L9.99,4.19L8.64,6.339C8.825,6.914,9.684,8.985,12.414,9.123z"/>
	<path fill="#65A844" d="M15.537,15.398l-0.351-0.468c-3.523-0.005-5.583-1.618-6.69-2.973c-0.695-0.85-1.107-1.691-1.336-2.262
		l-1.343,1.81h1.569L4.46,15.398H15.537L15.537,15.398z"/>
	<path fill="#EDC92C" d="M12.645,9.435l-0.23-0.312c-2.731-0.14-3.59-2.209-3.774-2.785L8.437,6.66
		C8.782,7.502,9.871,9.406,12.645,9.435z"/>
	<path fill="#EDC92C" d="M15.187,14.931l-0.234-0.311c-2.616-0.059-4.707-1.012-6.212-2.847c-0.745-0.908-1.16-1.826-1.362-2.37
		L7.161,9.695c0.229,0.571,0.642,1.413,1.336,2.262C9.604,13.311,11.664,14.925,15.187,14.931L15.187,14.931z"/>
	<path fill="#C32126" d="M8.607,9.443c0,0.222-0.179,0.401-0.4,0.401c-0.223,0-0.401-0.179-0.401-0.401
		c0-0.221,0.179-0.401,0.401-0.401C8.429,9.042,8.607,9.222,8.607,9.443z"/>
	<path fill="#D62127" d="M8.489,9.727c-0.156,0.157-0.41,0.157-0.566,0S8.334,9.003,8.489,9.16C8.646,9.316,8.646,9.569,8.489,9.727
		z"/>
	<path fill="#C32126" d="M10.337,7.052c0,0.221-0.179,0.4-0.401,0.4c-0.222,0-0.4-0.179-0.4-0.4c0-0.221,0.179-0.401,0.4-0.401
		C10.158,6.65,10.337,6.83,10.337,7.052z"/>
	<path fill="#D62127" d="M10.22,7.335c-0.157,0.156-0.411,0.156-0.567,0c-0.157-0.155,0.41-0.724,0.567-0.566
		C10.376,6.926,10.376,7.18,10.22,7.335z"/>
	<path fill="#C32126" d="M6.181,14.729c0,0.221-0.179,0.4-0.4,0.4c-0.223,0-0.401-0.178-0.401-0.4c0-0.221,0.179-0.401,0.401-0.401
		C6.002,14.328,6.181,14.509,6.181,14.729z"/>
	<path fill="#D62127" d="M6.064,15.014c-0.158,0.155-0.411,0.155-0.568,0s0.41-0.724,0.568-0.566
		C6.22,14.603,6.22,14.858,6.064,15.014z"/>
	<path fill="#C32126" d="M12.9,10.267c0,0.221-0.178,0.402-0.4,0.402s-0.401-0.181-0.401-0.402c0-0.221,0.179-0.4,0.401-0.4
		S12.9,10.045,12.9,10.267z"/>
	<path fill="#D62127" d="M12.784,10.55c-0.156,0.157-0.411,0.157-0.566,0c-0.157-0.155,0.41-0.723,0.566-0.565
		C12.939,10.141,12.939,10.395,12.784,10.55z"/>
	<path fill="#C32126" d="M8.624,13.103c0,0.221-0.18,0.401-0.401,0.401c-0.223,0-0.401-0.18-0.401-0.401S8,12.701,8.223,12.701
		C8.444,12.701,8.624,12.88,8.624,13.103z"/>
	<path fill="#D62127" d="M8.507,13.386c-0.157,0.155-0.411,0.155-0.567,0c-0.156-0.157,0.41-0.725,0.567-0.567
		C8.662,12.976,8.662,13.229,8.507,13.386z"/>
	<path fill="#C32126" d="M10.71,14.696c0,0.222-0.179,0.401-0.401,0.401c-0.222,0-0.401-0.18-0.401-0.401
		c0-0.221,0.18-0.4,0.401-0.4C10.531,14.296,10.71,14.474,10.71,14.696z"/>
	<path fill="#D62127" d="M10.593,14.979c-0.156,0.156-0.411,0.156-0.567,0c-0.155-0.155,0.411-0.724,0.567-0.566
		C10.749,14.567,10.749,14.823,10.593,14.979z"/>
	<path fill="#C32126" d="M12.959,13.072c0,0.221-0.179,0.401-0.402,0.401c-0.221,0-0.4-0.181-0.4-0.401s0.18-0.401,0.4-0.401
		C12.78,12.671,12.959,12.85,12.959,13.072z"/>
	<path fill="#D62127" d="M12.842,13.354c-0.156,0.158-0.412,0.158-0.567,0c-0.155-0.157,0.411-0.724,0.567-0.566
		C12.997,12.943,12.997,13.197,12.842,13.354z"/>
	<path fill="#C32126" d="M10.872,11.156c0,0.221-0.179,0.4-0.4,0.4c-0.223,0-0.402-0.18-0.402-0.4c0-0.222,0.18-0.401,0.402-0.401
		C10.693,10.755,10.872,10.933,10.872,11.156z"/>
	<path fill="#D62127" d="M10.755,11.438c-0.155,0.155-0.41,0.155-0.566,0c-0.156-0.156,0.411-0.725,0.566-0.567
		C10.911,11.027,10.911,11.282,10.755,11.438z"/>
	<path fill="#EDC92C" d="M10.343,3.68l0.347-0.338l-0.48-0.07L9.995,2.837L9.78,3.271L9.3,3.342L9.646,3.68L9.565,4.157l0.329-0.173
		L9.852,4.405h0.295L10.103,3.99l0.32,0.168L10.343,3.68z"/>
	<path fill="#FDDA47" d="M9.996,2.837L9.781,3.271l-0.48,0.07L9.647,3.68L9.566,4.157l0.329-0.173L9.853,4.405h0.153L9.996,2.837z"
		/>
</g>
</svg>
