<?xml version="1.0" encoding="utf-8"?>
<!-- Generator: Adobe Illustrator 16.0.0, SVG Export Plug-In . SVG Version: 6.00 Build 0)  -->
<!DOCTYPE svg PUBLIC "-//W3C//DTD SVG 1.1//EN" "http://www.w3.org/Graphics/SVG/1.1/DTD/svg11.dtd">
<svg version="1.1" id="Layer_1" xmlns="http://www.w3.org/2000/svg" xmlns:xlink="http://www.w3.org/1999/xlink" x="0px" y="0px"
	 width="20px" height="20px" viewBox="0 0 20 20" enable-background="new 0 0 20 20" xml:space="preserve">
<g>
	<path fill="#D62127" d="M19.69,10c0,5.352-4.339,9.69-9.69,9.69S0.31,15.352,0.31,10S4.648,0.31,10,0.31S19.69,4.648,19.69,10z"/>
	<path fill="#BB813C" d="M15.779,9.293c0-1.014-0.989-1.433-3.232-1.576c0.21-0.409,0.329-0.873,0.329-1.364
		c0-1.651-1.339-2.989-2.99-2.989s-2.99,1.338-2.99,2.989c0,0.498,0.122,0.966,0.337,1.379C5.146,7.889,4.221,8.312,4.221,9.293
		c0,0.954,0.876,1.382,2.85,1.548l-0.959,3.088c0,0-1.919-0.753-1.759,1.228s4.552,1.728,4.703,0.683l0.529-2.356h0.513l0.327,2.356
		c0.151,1.045,4.543,1.298,4.703-0.683s-1.759-1.228-1.759-1.228l-0.906-3.055c2.3-0.138,3.313-0.556,3.313-1.581H15.779z"/>
	<path fill="#D19656" d="M9.436,5.844c0,0.367-0.282,0.665-0.63,0.665s-0.63-0.298-0.63-0.665s0.282-0.665,0.63-0.665
		S9.436,5.477,9.436,5.844z"/>
	<path fill="#D19656" d="M11.542,5.844c0,0.367-0.281,0.665-0.629,0.665s-0.63-0.298-0.63-0.665s0.282-0.665,0.63-0.665
		S11.542,5.477,11.542,5.844z"/>
	<path fill="#754D29" d="M11.28,5.843c0,0.202-0.155,0.367-0.348,0.367c-0.191,0-0.348-0.165-0.348-0.367s0.156-0.366,0.348-0.366
		S11.28,5.64,11.28,5.843z"/>
	<path fill="#754D29" d="M9.186,5.843c0,0.202-0.155,0.367-0.349,0.367c-0.192,0-0.348-0.165-0.348-0.367
		c0-0.203,0.156-0.366,0.348-0.366C9.029,5.477,9.186,5.64,9.186,5.843z"/>
	<path fill="#754D29" d="M9.792,7.679c-0.551,0-0.902-0.482-0.918-0.502C8.822,7.104,8.838,7.004,8.91,6.952
		s0.172-0.035,0.225,0.036C9.14,6.995,9.409,7.357,9.792,7.357c0.388,0,0.727-0.377,0.73-0.382c0.059-0.066,0.161-0.073,0.227-0.014
		c0.065,0.058,0.073,0.158,0.014,0.226C10.746,7.207,10.326,7.678,9.792,7.679L9.792,7.679z"/>
	<path fill="#D62127" d="M9.109,7.943c0.156-0.108,1.431,0.949,1.567,0.783c0.138-0.167,0.143-0.603-0.01-0.755
		c-0.151-0.151-1.36,0.813-1.518,0.734C8.992,8.628,8.953,8.051,9.109,7.943L9.109,7.943z"/>
	<path fill="#754D29" d="M10.021,9.165c0,0.103-0.084,0.187-0.187,0.187S9.647,9.268,9.647,9.165s0.084-0.187,0.187-0.187
		S10.021,9.062,10.021,9.165z"/>
	<path fill="#A87D50" d="M9.917,9.165c0,0.046-0.037,0.083-0.083,0.083S9.752,9.211,9.752,9.165s0.036-0.083,0.082-0.083
		S9.917,9.119,9.917,9.165z"/>
	<path fill="#754D29" d="M10.021,9.693c0,0.103-0.084,0.186-0.187,0.186S9.647,9.796,9.647,9.693c0-0.104,0.084-0.188,0.187-0.188
		S10.021,9.59,10.021,9.693z"/>
	<path fill="#A87D50" d="M9.917,9.693c0,0.046-0.037,0.082-0.083,0.082S9.752,9.739,9.752,9.693c0-0.047,0.036-0.083,0.082-0.083
		S9.917,9.646,9.917,9.693z"/>
	<path fill="#754D29" d="M10.021,10.23c0,0.103-0.084,0.187-0.187,0.187s-0.187-0.084-0.187-0.187s0.084-0.187,0.187-0.187
		S10.021,10.128,10.021,10.23z"/>
	<path fill="#A87D50" d="M9.917,10.23c0,0.046-0.037,0.082-0.083,0.082s-0.082-0.036-0.082-0.082c0-0.047,0.036-0.083,0.082-0.083
		S9.917,10.184,9.917,10.23z"/>
	<path fill="#FFFFFF" d="M6.885,16.415c-0.604,0-1.163-0.123-1.573-0.347c-0.497-0.271-0.76-0.681-0.76-1.183
		c0-0.693,0.375-0.838,0.688-0.838c0.365,0,0.772,0.195,0.95,0.291l1.167-3.711c-0.805-0.075-1.512-0.155-2.033-0.327
		c-0.605-0.2-0.898-0.518-0.898-0.973c0-1.031,1.319-1.233,3.065-1.37C7.31,7.568,7.143,6.99,7.143,6.542
		c0-1.663,1.176-2.917,2.736-2.917c1.568,0,2.75,1.254,2.75,2.917c0,0.455-0.196,0.931-0.369,1.28
		c1.978,0.136,3.287,0.452,3.287,1.505c0,1.02-1.316,1.198-3.334,1.335l1.018,3.624c0.155-0.048,0.503-0.143,0.843-0.143
		c0.554,0,0.858,0.263,0.858,0.741c0,1.101-1.22,1.491-2.265,1.491c-0.897,0-1.873-0.282-1.996-0.82l-0.433-2.402l-0.807,0.028
		l-0.621,2.443C8.69,16.143,7.752,16.415,6.885,16.415L6.885,16.415z M5.239,14.212c-0.353,0-0.523,0.219-0.523,0.673
		c0,1.007,1.169,1.364,2.169,1.364c0.919,0,1.676-0.284,1.764-0.663l0.652-2.564l1.073-0.039l0.455,2.541
		c0.088,0.384,0.896,0.689,1.836,0.689c0.968,0,2.1-0.349,2.1-1.327c0-0.388-0.227-0.577-0.694-0.577
		c-0.417,0-0.865,0.161-0.871,0.163l-0.084,0.029l-0.022-0.086l-1.094-3.901l0.101-0.008c1.981-0.131,3.282-0.284,3.282-1.177
		c0-0.81-0.945-1.201-3.259-1.349L12,7.972l0.056-0.111c0.175-0.341,0.407-0.849,0.407-1.317c0-1.569-1.11-2.752-2.585-2.752
		c-1.466,0-2.57,1.184-2.57,2.752c0,0.468,0.193,1.084,0.385,1.451L7.75,8.105L7.625,8.114C5.613,8.267,4.591,8.496,4.591,9.329
		c0,0.816,1.142,0.983,2.885,1.146l0.102,0.009l-1.29,4.102l-0.09-0.054C6.191,14.529,5.667,14.212,5.239,14.212L5.239,14.212z"/>
</g>
</svg>
