<?xml version="1.0" encoding="utf-8"?>
<!-- Generator: Adobe Illustrator 16.0.0, SVG Export Plug-In . SVG Version: 6.00 Build 0)  -->
<!DOCTYPE svg PUBLIC "-//W3C//DTD SVG 1.1//EN" "http://www.w3.org/Graphics/SVG/1.1/DTD/svg11.dtd">
<svg version="1.1" id="Layer_1" xmlns="http://www.w3.org/2000/svg" xmlns:xlink="http://www.w3.org/1999/xlink" x="0px" y="0px"
	 width="20px" height="20px" viewBox="0 0 20 20" enable-background="new 0 0 20 20" xml:space="preserve">
<g>
	<path fill="#49A0AE" d="M19.69,10c0,5.352-4.339,9.69-9.69,9.69S0.31,15.352,0.31,10c0-5.351,4.339-9.69,9.69-9.69
		S19.69,4.648,19.69,10z"/>
	<path fill="#E5E0CE" d="M14.855,12.102c0,2.861-2.194,5.179-4.901,5.179c-2.708,0-4.902-2.317-4.902-5.179
		c0-2.858,2.194-5.176,4.902-5.176C12.661,6.926,14.855,9.243,14.855,12.102z"/>
	<path fill="#E9C29C" d="M14.558,10.112c0,2.544-2.062,4.604-4.604,4.604c-2.543,0-4.604-2.061-4.604-4.604
		c0-2.541,2.061-4.603,4.604-4.603C12.496,5.51,14.558,7.571,14.558,10.112z"/>
	<path fill="#E5E0CE" d="M9.61,7.343c0,0-1.188,1.599-2.288,2.314c-1.06,0.691-2.304,0.975-2.304,0.975
		C4.758,8.947,5.913,7.37,7.599,7.109C9.283,6.849,9.61,7.342,9.61,7.343L9.61,7.343z"/>
	<path fill="#E5E0CE" d="M9.008,7.397c0,0,2.57,1.544,3.67,2.26c1.06,0.691,2.304,0.975,2.304,0.975
		c0.261-1.685-0.895-3.262-2.58-3.522S9.008,7.397,9.008,7.397z"/>
	<path fill="#343433" d="M9.205,10.798c0,0.368-0.283,0.667-0.631,0.667s-0.63-0.299-0.63-0.667c0-0.367,0.282-0.666,0.63-0.666
		S9.205,10.431,9.205,10.798z"/>
	<path fill="#343433" d="M11.938,10.798c0,0.368-0.282,0.667-0.63,0.667c-0.349,0-0.631-0.299-0.631-0.667
		c0-0.367,0.282-0.666,0.631-0.666C11.655,10.132,11.938,10.431,11.938,10.798z"/>
	<path fill="#FFFFFF" d="M11.756,10.544c0,0.147-0.111,0.269-0.252,0.269s-0.252-0.121-0.252-0.269s0.114-0.266,0.252-0.266
		C11.643,10.278,11.756,10.396,11.756,10.544z"/>
	<path fill="#FFFFFF" d="M9.017,10.544c0,0.147-0.113,0.269-0.253,0.269c-0.139,0-0.252-0.121-0.252-0.269s0.113-0.266,0.252-0.266
		C8.903,10.278,9.017,10.396,9.017,10.544z"/>
	<path fill="#E5E0CE" d="M11.875,13.997c0,0-0.833-0.233-1.227-0.46c-0.394-0.228-0.698-0.604-0.698-0.604s-0.155,0.306-0.67,0.644
		c-0.515,0.336-1.248,0.42-1.248,0.42c0-1.062,0.859-1.921,1.921-1.921C11.014,12.076,11.874,12.936,11.875,13.997L11.875,13.997z"
		/>
	<path fill="#D62127" d="M6.423,7.056l7.223,0.287c0,0-2.363-2.126-1.983-2.544c0.404-0.444,2.114,1.043,2.168,0.93
		c0.055-0.113-0.281-1.04-1.812-2.024c-1.031-0.664-2.773-0.94-3.528-0.356C7.218,4.332,6.424,7.055,6.423,7.056L6.423,7.056z"/>
	<path fill="#F1EDCD" d="M14.124,8.163c0,0-0.322-2.299-4.21-2.299S5.812,8.163,5.812,8.163s2.205-0.63,4.103-0.63
		C11.811,7.533,14.124,8.163,14.124,8.163z"/>
	<path fill="#F1EDCD" d="M14.644,5.947c0,0.325-0.262,0.589-0.588,0.589s-0.588-0.263-0.588-0.589c0-0.324,0.262-0.589,0.588-0.589
		S14.644,5.622,14.644,5.947z"/>
	<path fill="#E5E0CE" d="M7.628,9.609l0.062,0.25l1.445,0.157l0.094-0.459L7.628,9.609z"/>
	<path fill="#E5E0CE" d="M12.293,9.609l-0.062,0.25l-1.445,0.157l-0.093-0.459L12.293,9.609z"/>
	<path fill="#DDB391" d="M10.355,11.426c0,0,0.739,0.697,0.504,1.088c-0.233,0.391-1.619,0.404-1.817,0s0.505-1.088,0.505-1.088
		H10.355z"/>
	<path fill="#E9C29C" d="M10.321,11.379c0,0,0.675,0.683,0.461,1.066s-1.479,0.396-1.66,0c-0.181-0.396,0.461-1.066,0.461-1.066
		H10.321z"/>
</g>
</svg>
