<?xml version="1.0" encoding="utf-8"?>
<!-- Generator: Adobe Illustrator 16.0.0, SVG Export Plug-In . SVG Version: 6.00 Build 0)  -->
<!DOCTYPE svg PUBLIC "-//W3C//DTD SVG 1.1//EN" "http://www.w3.org/Graphics/SVG/1.1/DTD/svg11.dtd">
<svg version="1.1" id="Layer_1" xmlns="http://www.w3.org/2000/svg" xmlns:xlink="http://www.w3.org/1999/xlink" x="0px" y="0px"
	 width="20px" height="20px" viewBox="0 0 20 20" enable-background="new 0 0 20 20" xml:space="preserve">
<g>
	<path fill="#357180" d="M19.69,10c0,5.352-4.338,9.69-9.69,9.69c-5.352,0-9.69-4.339-9.69-9.69c0-5.351,4.339-9.69,9.69-9.69
		C15.353,0.31,19.69,4.648,19.69,10z"/>
	<path fill="#FFFFFF" d="M15.866,9.338c0,3.238-2.627,5.864-5.865,5.864s-5.864-2.626-5.864-5.864s2.626-5.864,5.864-5.864
		S15.866,6.1,15.866,9.338z"/>
	<path fill="#B6E3F2" d="M4.374,9.338c0-3.107,2.52-5.626,5.627-5.626s5.627,2.519,5.627,5.626s-2.52,5.627-5.627,5.627
		S4.374,12.445,4.374,9.338z"/>
	<path fill="#FCD74D" d="M5.101,12.564c0,0,1.802,1.188,4.9,1.188c3.098,0,4.898-1.188,4.898-1.188c0,0.268,0.468,1.554,0.434,1.813
		c0,1.227-2.502,2.149-5.332,2.149c-2.844,0-5.34-0.961-5.34-2.188C4.63,14.093,5.101,12.818,5.101,12.564L5.101,12.564z"/>
	<path fill="#F4F5F5" d="M14.885,13.031c0,0.999-2.187,1.808-4.884,1.808s-4.884-0.809-4.884-1.808c0-0.998,2.187-1.808,4.884-1.808
		S14.885,12.033,14.885,13.031z"/>
	<path fill="#F3C83C" d="M10,15.309c-2.429,0-4.603-0.702-5.185-1.672c-0.093,0.313-0.167,0.598-0.155,0.7
		c0,1.229,2.496,2.188,5.34,2.188c2.83,0,5.332-0.921,5.332-2.149c0.014-0.107-0.059-0.396-0.148-0.712
		c-0.576,0.966-2.759,1.643-5.184,1.643V15.309z"/>
	<path fill="#FCD74D" d="M10,15.309c2.425,0,4.607-0.678,5.184-1.644c-0.126-0.443-0.285-0.944-0.285-1.101
		c0,0-1.801,1.188-4.898,1.188c-3.099,0-4.9-1.188-4.9-1.188c0,0.147-0.157,0.639-0.284,1.072c0.582,0.97,2.756,1.67,5.185,1.67
		V15.309z"/>
	<path fill="#D72128" d="M11.541,7.936h0.753v1.086h-0.753V7.936z"/>
	<path fill="#F1F1F1" d="M11.987,8.3c0.312-0.014,0.556-0.008,0.547-0.224c-0.021-0.477-0.256-0.242-0.566-0.229
		s-0.584-0.198-0.562,0.278c0.012,0.239,0.271,0.188,0.584,0.174H11.987z"/>
	<path fill="#D72128" d="M12.998,12.072l-3.119,0.287V9.938h3.119V12.072z"/>
	<path fill="#D4A074" d="M9.731,7.59c-0.223,0-1.559,1.856-1.559,1.856h3.119C11.292,9.446,9.955,7.59,9.731,7.59L9.731,7.59z"/>
	<path fill="#CC2128" d="M8.173,11.58l1.707,0.779V9.938L8.173,9.446V11.58z"/>
	<path fill="#D4A074" d="M11.29,9.446l1.708,0.491H9.879L8.172,9.446H11.29z"/>
	<path fill="#D72128" d="M11.439,8.082c-0.224,0-1.561,1.855-1.561,1.855h3.119C12.998,9.938,11.661,8.082,11.439,8.082z"/>
	<path fill="#C12227" d="M12.441,9.705l-2.042-0.049v-0.02l2.042,0.05V9.705z"/>
	<path fill="#C12227" d="M12.441,9.417l-2.042-0.05V9.349l2.042,0.049V9.417z"/>
	<path fill="#C12227" d="M12.441,9.131l-2.042-0.05V9.062l2.042,0.05V9.131z"/>
	<path fill="#C12227" d="M12.441,8.843l-2.042-0.05V8.774l2.042,0.049V8.843z"/>
	<path fill="#C12227" d="M9.843,10.218l3.155,0.049v0.01l-3.155-0.05V10.218z"/>
	<path fill="#C12227" d="M9.843,9.931l3.155,0.05v0.01L9.843,9.939V9.931z"/>
	<path fill="#C12227" d="M9.844,10.505l3.154,0.05v0.009l-3.154-0.049V10.505z"/>
	<path fill="#C12227" d="M9.843,10.794l3.155,0.049v0.01l-3.155-0.049V10.794z"/>
	<path fill="#C12227" d="M9.844,11.081l3.154,0.049v0.01l-3.154-0.05V11.081z"/>
	<path fill="#C12227" d="M9.844,11.368l3.154,0.05v0.008l-3.154-0.049V11.368z"/>
	<path fill="#C12227" d="M9.844,11.656l3.154,0.049v0.009l-3.154-0.049V11.656z"/>
	<path fill="#C12227" d="M9.843,11.943l3.155,0.049v0.011l-3.155-0.05V11.943z"/>
	<path fill="#C12227" d="M9.844,12.23l3.154,0.05v0.009L9.844,12.24V12.23z"/>
	<path fill="#BD2227" d="M12.677,11.355c0,0.061-0.051,0.111-0.111,0.111h-0.67c-0.061,0-0.11-0.049-0.11-0.111v-0.67
		c0-0.06,0.049-0.11,0.11-0.11h0.67c0.061,0,0.111,0.049,0.111,0.11V11.355z"/>
	<path fill="#E5D0C0" d="M12.593,11.293c0,0.049-0.041,0.088-0.09,0.088h-0.544c-0.05,0-0.09-0.039-0.09-0.088v-0.545
		c0-0.05,0.04-0.091,0.09-0.091h0.544c0.049,0,0.09,0.04,0.09,0.091V11.293z"/>
	<path fill="#BD2227" d="M11.489,12.203l-1.077,0.108V10.69c0-0.073,0.061-0.134,0.133-0.134h0.811c0.074,0,0.134,0.06,0.134,0.134
		V12.203z"/>
	<path fill="#DB2127" d="M11.404,12.125l-0.909,0.07v-1.44c0-0.062,0.05-0.114,0.113-0.114h0.684c0.062,0,0.112,0.051,0.112,0.114
		V12.125z"/>
	<path fill="#BD2227" d="M11.31,11.344c0,0.039-0.032,0.069-0.069,0.069c-0.038,0-0.069-0.032-0.069-0.069
		c0-0.039,0.031-0.069,0.069-0.069C11.277,11.274,11.31,11.306,11.31,11.344z"/>
	<path fill="#D72128" d="M12.204,10.644h0.07v0.76h-0.07V10.644z"/>
	<path fill="#D72128" d="M11.806,11h0.84v0.072h-0.84V11z"/>
	<path fill="#F1F1F1" d="M11.589,8.144c0,0-0.041-0.035-0.098-0.048c0.003-0.001,0.004-0.001,0.004-0.001s-1.633-0.525-1.7-0.532
		C9.727,7.557,9.696,7.594,9.696,7.594s-0.132-0.056-1.41,1.694c-0.078,0.05-0.134,0.13-0.156,0.249c0,0,1.013,0.6,1.913,0.426
		c0.235-0.013,0.717-0.209,1.359-1.348c0,0,0.081-0.161,0.303-0.056s0.736,1.726,1.404,1.417c0,0,0.014-0.444-1.521-1.831V8.144z"/>
	<path d="M12.488,6.699c-0.032-0.144-0.14-0.251-0.271-0.288c0.011-0.058,0.01-0.117-0.005-0.178
		c-0.051-0.234-0.284-0.381-0.519-0.329c-0.233,0.053-0.381,0.285-0.329,0.52c0.021,0.094,0.07,0.173,0.139,0.231
		c-0.055,0.072-0.078,0.166-0.057,0.26c0.016,0.067,0.049,0.124,0.097,0.166c-0.052,0.071-0.073,0.163-0.053,0.255
		c0.039,0.172,0.211,0.281,0.383,0.242c0.014-0.003,0.026-0.007,0.041-0.013c0.069,0.047,0.157,0.065,0.245,0.045
		c0.172-0.038,0.28-0.209,0.242-0.382c-0.011-0.049-0.033-0.093-0.062-0.13C12.46,7.01,12.524,6.854,12.488,6.699L12.488,6.699z"/>
	<path d="M12.636,7.209c0.073-0.136,0.024-0.305-0.11-0.378c-0.083-0.046-0.178-0.044-0.256-0.005
		c-0.002-0.003-0.004-0.006-0.006-0.009c0.021-0.019,0.039-0.041,0.053-0.068c0.074-0.135,0.024-0.304-0.11-0.378
		c-0.135-0.075-0.305-0.024-0.378,0.11c-0.052,0.096-0.042,0.207,0.015,0.291c-0.02,0.02-0.037,0.042-0.053,0.069
		c-0.05,0.094-0.043,0.202,0.011,0.285c-0.013,0.015-0.024,0.031-0.034,0.051c-0.074,0.135-0.024,0.304,0.11,0.378
		s0.304,0.023,0.376-0.111c0.021-0.036,0.031-0.073,0.035-0.111C12.417,7.387,12.568,7.334,12.636,7.209z"/>
	<path fill="#BB813C" d="M7.989,11.843c0,0.162-0.016,0.293-0.124,0.293h-0.14c-0.108,0-0.122-0.131-0.122-0.293v-0.947
		c0-0.161,0.015-0.292,0.122-0.292h0.14c0.108,0,0.124,0.131,0.124,0.292V11.843z"/>
	<path fill="#C58540" d="M7.796,12.136h-0.07c-0.108,0-0.122-0.131-0.122-0.293v-0.947c0-0.161,0.015-0.292,0.122-0.292h0.075
		L7.796,12.136z"/>
	<path fill="#65A844" d="M8.53,10.548h0.441L8.184,9.487h0.241L7.8,8.496L7.798,8.491L7.795,8.496l-0.623,0.99h0.24l-0.787,1.062
		h0.439l-0.82,1.093h3.107L8.53,10.548z"/>
	<path fill="#EDC92C" d="M7.894,8.352l0.098-0.095L7.857,8.238L7.796,8.116l-0.06,0.122L7.602,8.257l0.097,0.095L7.676,8.486
		l0.092-0.049L7.756,8.556h0.083L7.827,8.439l0.09,0.047L7.894,8.352z"/>
	<path fill="#FDDA47" d="M7.796,8.117l-0.06,0.122L7.602,8.258l0.097,0.096L7.676,8.487l0.092-0.048L7.756,8.557h0.043L7.796,8.117z
		"/>
	<path fill="#F4F5F5" d="M9.06,6.501c0,0.131-0.107,0.237-0.238,0.237S8.584,6.632,8.584,6.501S8.69,6.263,8.821,6.263
		S9.06,6.37,9.06,6.501z"/>
	<path fill="#F4F5F5" d="M9.06,8.344c0,0.131-0.107,0.238-0.238,0.238S8.584,8.475,8.584,8.344S8.69,8.106,8.821,8.106
		S9.06,8.213,9.06,8.344z"/>
	<path fill="#F4F5F5" d="M7.731,5.769c0,0.131-0.107,0.237-0.238,0.237S7.256,5.899,7.256,5.769S7.362,5.53,7.493,5.53
		S7.731,5.638,7.731,5.769z"/>
	<path fill="#F4F5F5" d="M7.831,7.531c0,0.131-0.107,0.237-0.238,0.237S7.355,7.662,7.355,7.531s0.106-0.238,0.237-0.238
		S7.831,7.4,7.831,7.531z"/>
	<path fill="#F4F5F5" d="M10.445,5.769c0,0.131-0.106,0.237-0.237,0.237S9.971,5.899,9.971,5.769s0.106-0.238,0.237-0.238
		S10.445,5.638,10.445,5.769z"/>
	<path fill="#F4F5F5" d="M10.466,7.531c0,0.131-0.107,0.237-0.238,0.237S9.99,7.662,9.99,7.531s0.106-0.238,0.237-0.238
		S10.466,7.4,10.466,7.531z"/>
	<path fill="#F4F5F5" d="M10.466,11.058c0,0.131-0.107,0.237-0.238,0.237S9.99,11.188,9.99,11.058s0.106-0.237,0.237-0.237
		S10.466,10.927,10.466,11.058z"/>
	<path fill="#F4F5F5" d="M13.239,5.769c0,0.131-0.106,0.237-0.237,0.237s-0.237-0.106-0.237-0.237s0.106-0.238,0.237-0.238
		S13.239,5.638,13.239,5.769z"/>
	<path fill="#F4F5F5" d="M13.26,7.531c0,0.131-0.107,0.237-0.238,0.237s-0.237-0.106-0.237-0.237s0.106-0.238,0.237-0.238
		S13.26,7.4,13.26,7.531z"/>
	<path fill="#F4F5F5" d="M13.239,9.255c0,0.131-0.106,0.238-0.237,0.238s-0.237-0.107-0.237-0.238s0.106-0.237,0.237-0.237
		S13.239,9.124,13.239,9.255z"/>
	<path fill="#F4F5F5" d="M13.26,11.019c0,0.131-0.107,0.237-0.238,0.237s-0.237-0.106-0.237-0.237s0.106-0.238,0.237-0.238
		S13.26,10.888,13.26,11.019z"/>
	<path fill="#F4F5F5" d="M5.513,7.531c0,0.131-0.106,0.237-0.237,0.237c-0.132,0-0.238-0.106-0.238-0.237s0.106-0.238,0.238-0.238
		C5.406,7.293,5.513,7.4,5.513,7.531z"/>
	<path fill="#F4F5F5" d="M5.493,9.255c0,0.131-0.107,0.238-0.238,0.238S5.018,9.386,5.018,9.255s0.106-0.237,0.237-0.237
		S5.493,9.124,5.493,9.255z"/>
	<path fill="#F4F5F5" d="M7.791,9.255c0,0.131-0.106,0.238-0.238,0.238c-0.131,0-0.237-0.107-0.237-0.238s0.106-0.237,0.237-0.237
		C7.685,9.018,7.791,9.124,7.791,9.255z"/>
	<path fill="#F4F5F5" d="M5.513,11.019c0,0.131-0.106,0.237-0.237,0.237c-0.132,0-0.238-0.106-0.238-0.237s0.106-0.238,0.238-0.238
		C5.406,10.78,5.513,10.888,5.513,11.019z"/>
	<path fill="#F4F5F5" d="M14.766,6.58c0,0.131-0.106,0.237-0.237,0.237s-0.237-0.106-0.237-0.237s0.106-0.238,0.237-0.238
		S14.766,6.449,14.766,6.58z"/>
	<path fill="#F4F5F5" d="M14.786,8.343c0,0.131-0.107,0.238-0.238,0.238c-0.132,0-0.237-0.107-0.237-0.238s0.105-0.237,0.237-0.237
		C14.679,8.105,14.786,8.212,14.786,8.343z"/>
	<path fill="#F4F5F5" d="M14.786,10.087c0,0.131-0.107,0.237-0.238,0.237c-0.132,0-0.237-0.106-0.237-0.237s0.105-0.238,0.237-0.238
		C14.679,9.849,14.786,9.956,14.786,10.087z"/>
	<path fill="#F4F5F5" d="M14.786,11.949c0,0.131-0.107,0.237-0.238,0.237c-0.132,0-0.237-0.106-0.237-0.237s0.105-0.238,0.237-0.238
		C14.679,11.711,14.786,11.818,14.786,11.949z"/>
	<path fill="#F4F5F5" d="M6.544,6.58c0,0.131-0.107,0.237-0.238,0.237S6.068,6.711,6.068,6.58s0.106-0.238,0.237-0.238
		S6.544,6.449,6.544,6.58z"/>
	<path fill="#F4F5F5" d="M6.562,8.343c0,0.131-0.106,0.238-0.237,0.238S6.087,8.474,6.087,8.343s0.107-0.237,0.238-0.237
		S6.562,8.212,6.562,8.343z"/>
	<path fill="#F4F5F5" d="M6.562,10.087c0,0.131-0.106,0.237-0.237,0.237s-0.238-0.106-0.238-0.237s0.107-0.238,0.238-0.238
		S6.562,9.956,6.562,10.087z"/>
	<path fill="#F4F5F5" d="M8.999,4.718c0,0.131-0.106,0.238-0.237,0.238S8.523,4.849,8.523,4.718S8.631,4.48,8.762,4.48
		S8.999,4.587,8.999,4.718z"/>
	<path fill="#F4F5F5" d="M11.772,6.501c0,0.131-0.106,0.237-0.237,0.237s-0.237-0.106-0.237-0.237s0.106-0.238,0.237-0.238
		S11.772,6.37,11.772,6.501z"/>
	<path fill="#F4F5F5" d="M11.714,4.718c0,0.131-0.106,0.238-0.237,0.238s-0.238-0.107-0.238-0.238s0.107-0.237,0.238-0.237
		S11.714,4.587,11.714,4.718z"/>
	<path fill="#F4F5F5" d="M11.772,10.187c0,0.131-0.106,0.237-0.237,0.237s-0.237-0.106-0.237-0.237s0.106-0.238,0.237-0.238
		S11.772,10.056,11.772,10.187z"/>
	<path fill="#F4F5F5" d="M11.714,8.403c0,0.131-0.106,0.238-0.237,0.238s-0.238-0.107-0.238-0.238s0.107-0.237,0.238-0.237
		S11.714,8.272,11.714,8.403z"/>
</g>
</svg>
