<?xml version="1.0" encoding="utf-8"?>
<!-- Generator: Adobe Illustrator 16.0.0, SVG Export Plug-In . SVG Version: 6.00 Build 0)  -->
<!DOCTYPE svg PUBLIC "-//W3C//DTD SVG 1.1//EN" "http://www.w3.org/Graphics/SVG/1.1/DTD/svg11.dtd">
<svg version="1.1" id="Layer_1" xmlns="http://www.w3.org/2000/svg" xmlns:xlink="http://www.w3.org/1999/xlink" x="0px" y="0px"
	 width="20px" height="20px" viewBox="0 0 20 20" enable-background="new 0 0 20 20" xml:space="preserve">
<g>
	<path fill="#497336" d="M19.69,10c0,5.352-4.339,9.69-9.69,9.69S0.31,15.352,0.31,10c0-5.351,4.339-9.69,9.69-9.69
		S19.69,4.648,19.69,10z"/>
	<path fill="#E3E5E3" d="M5.312,14.173c0,0-1.098,0.508-1.764,0.389c-0.492-0.088-0.626-0.591-0.549-1.501
		C2.999,13.061,5.297,14.12,5.312,14.173L5.312,14.173z"/>
	<path fill="#D72128" d="M6.854,13.752c0,0-1.342,0.352-2.391-0.771c0,0-0.227-0.311-0.751-0.228
		c-0.337,0.054-0.713,0.309-0.713,0.309s0.624,1.09,1.654,1.152C5.684,14.275,6.854,13.752,6.854,13.752z"/>
	<path fill="#F1F1F1" d="M7.943,13.427c0,0-1.305,0.387-2.322-0.876c0,0-0.317-0.19-0.843-0.115
		c-0.338,0.047-0.544,0.366-0.544,0.366s0.781,0.939,1.808,1.02C7.069,13.903,7.943,13.427,7.943,13.427z"/>
	<path fill="#D72128" d="M8.982,13.135c0,0-1.241,0.36-2.314-0.863c0,0-0.326-0.18-0.851-0.089c-0.336,0.06-0.494,0.293-0.494,0.293
		s0.787,1,1.82,1.048C8.177,13.57,8.982,13.135,8.982,13.135z"/>
	<path fill="#F1F1F1" d="M10.122,12.66c0,0-1.164,0.188-2.389-0.918c0,0-0.212-0.037-0.726,0.101
		c-0.33,0.09-0.518,0.366-0.518,0.366s0.794,1.057,1.835,1.007C9.366,13.164,10.122,12.66,10.122,12.66z"/>
	<path fill="#D72128" d="M11.117,12.563c0,0-1.156,0.301-2.11-0.85c0,0-0.208-0.315-0.664-0.251
		c-0.291,0.041-0.608,0.279-0.608,0.279s0.581,1.102,1.481,1.199c0.901,0.099,1.903-0.378,1.903-0.378H11.117z"/>
	<path fill="#F1F1F1" d="M12.055,12.281c0,0-1.122,0.334-2.055-0.949c0,0-0.283-0.201-0.739-0.146
		c-0.292,0.034-0.46,0.344-0.46,0.344s0.714,0.958,1.612,1.075C11.312,12.721,12.056,12.281,12.055,12.281L12.055,12.281z"/>
	<path fill="#D72128" d="M12.95,12.029c0,0-1.068,0.312-2.048-0.937c0,0-0.29-0.19-0.744-0.119c-0.29,0.045-0.42,0.272-0.42,0.272
		s0.722,1.019,1.623,1.103C12.264,12.433,12.95,12.029,12.95,12.029z"/>
	<path fill="#F1F1F1" d="M13.927,11.6c0,0-1.03,0.424-2.136-0.714c0,0-0.309-0.159-0.752-0.041
		c-0.284,0.077-0.293,0.178-0.293,0.178s0.729,1.074,1.635,1.063C13.287,12.072,13.927,11.6,13.927,11.6z"/>
	<path fill="#D72128" d="M14.997,10.984c0,0-1.124,0.277-1.906-0.438c0,0-0.327-0.114-0.751,0.062
		c-0.271,0.113-0.734,0.219-0.734,0.219s1.027,0.978,1.923,0.844c0.896-0.134,1.467-0.687,1.467-0.687H14.997z"/>
	<path fill="#F1F1F1" d="M16.419,9.738c0,0-0.914,0.468-1.908,0.134c0,0-1.17,0.354-1.42,0.676c0,0,0.653,0.865,2.46,0.361
		C15.551,10.909,16.025,10.865,16.419,9.738z"/>
	<path fill="#D72128" d="M14.511,9.871c0,0,0.965,0.373,1.908-0.134c0,0,0.933-0.702,0.477-1.888c0,0-0.869,1.245-2.012,1.563
		C14.583,9.497,14.511,9.871,14.511,9.871z"/>
	<path fill="#F1F1F1" d="M14.768,9.446c0,0,1.186-0.007,2.128-1.597c0,0-0.192-1.221-0.908-1.487c0,0,0.237,0.878-0.527,2.152
		C15.46,8.515,15.141,8.877,14.768,9.446L14.768,9.446z"/>
	<path fill="#D72128" d="M14.69,5.597c0,0,0.854,1.001,0.573,1.743c0,0,0.212,1.076,0.196,1.176c0,0,0.787-1.141,0.527-2.152
		C15.987,6.363,15.748,5.899,14.69,5.597z"/>
	<path fill="#F1F1F1" d="M13.307,5.474c0,0,0.678,0.209,1.507,1.438l0.45,0.428c0,0,0.393-0.817-0.689-1.843
		C14.574,5.496,13.47,5.34,13.307,5.474z"/>
	<path fill="#D72128" d="M12.696,5.644c0,0,0.034,0.544,0.213,0.781c0.176,0.238,1.904,0.487,1.904,0.487s-0.632-1.189-1.424-1.461
		C13.126,5.361,12.696,5.644,12.696,5.644z"/>
	<path fill="#EE3B48" d="M16.705,9.132c-0.125,0.216-0.251,0.396-0.368,0.326c-0.116-0.069,0.252-0.86,0.387-0.842
		c0.255,0.035,0.108,0.299-0.017,0.516H16.705z"/>
	<path fill="#EE3B48" d="M13.972,11.512c-0.238,0.078-0.451,0.129-0.494,0s0.76-0.479,0.848-0.374
		C14.492,11.334,14.21,11.434,13.972,11.512L13.972,11.512z"/>
	<path fill="#EE3B48" d="M13.644,6.533c-0.31-0.05-0.577-0.114-0.55-0.282c0.028-0.168,1.118-0.097,1.157,0.068
		C14.324,6.633,13.952,6.583,13.644,6.533z"/>
	<path fill="#EE3B48" d="M11.61,12.308c-0.187,0.013-0.352,0.011-0.358-0.089c-0.008-0.102,0.638-0.209,0.681-0.118
		c0.085,0.173-0.138,0.194-0.324,0.208L11.61,12.308z"/>
	<path fill="#EE3B48" d="M9.722,12.89c-0.186,0.013-0.351,0.011-0.356-0.089c-0.006-0.101,0.637-0.209,0.682-0.117
		C10.132,12.855,9.909,12.877,9.722,12.89L9.722,12.89z"/>
	<path fill="#EE3B48" d="M7.517,13.472c-0.187,0.013-0.351,0.011-0.357-0.09c-0.006-0.101,0.638-0.209,0.682-0.117
		C7.926,13.437,7.703,13.458,7.517,13.472z"/>
	<path fill="#EE3B48" d="M4.765,14.095c-0.216,0.015-0.404,0.013-0.413-0.104c-0.009-0.118,0.737-0.242,0.789-0.138
		C5.24,14.055,4.98,14.079,4.765,14.095z"/>
	<path fill="#EE3B48" d="M15.592,7.876c-0.103,0.007-0.193,0-0.201-0.103c-0.007-0.104,0.348-0.191,0.374-0.098
		C15.817,7.854,15.695,7.867,15.592,7.876L15.592,7.876z"/>
</g>
</svg>
